M48
; DRILL file {KiCad (5.99.0-4092-g1ee3df61c)} date 10/30/20 09:54:06
; FORMAT={-:-/ absolute / inch / decimal}
; #@! TF.CreationDate,2020-10-30T09:54:06-07:00
; #@! TF.GenerationSoftware,Kicad,Pcbnew,(5.99.0-4092-g1ee3df61c)
FMAT,2
INCH
T1C0.0100
T2C0.0157
T3C0.0197
T4C0.0236
T5C0.0295
%
G90
G05
T1
X0.0315Y-0.1437
X0.0315Y-0.1673
X0.0315Y-0.1909
X0.1654Y-0.1437
X0.1654Y-0.1673
X0.1654Y-0.1909
X0.2579Y0.1614
X0.3937Y-0.1457
X0.3937Y-0.189
X0.7087Y-0.1929
X0.7244Y0.1319
X0.7244Y-0.1772
X0.7323Y0.0197
X0.7323Y-0.0039
X0.7323Y-0.0276
X0.7402Y-0.1614
X0.7461Y-0.0472
X0.75Y0.1319
X0.7559Y-0.1457
X0.7598Y-0.0276
X0.7756Y0.1319
X0.7756Y-0.0472
X0.7913Y-0.0276
X0.8012Y0.1319
X0.8051Y-0.0472
X0.8189Y0.0197
X0.8189Y-0.0039
X0.8189Y-0.0276
X0.8268Y0.1319
X0.9213Y0.0118
X0.9213Y-0.0276
X0.9488Y0.0315
X0.9488Y-0.0079
X0.9488Y-0.0472
X0.9961Y0.0295
X0.9961Y0.0049
X0.9961Y-0.0207
X0.9961Y-0.0453
X1.0236Y0.1299
X1.0433Y0.0984
X1.0433Y-0.0866
X1.0472Y-0.126
X1.0984Y-0.0157
X1.1024Y0.1024
X1.1378Y0.0748
X1.1713Y-0.0945
X1.189Y-0.0512
X1.1969Y0.1299
X1.2323Y0.1614
X1.2598Y-0.1299
X1.2756Y0.0394
X1.276Y-0.004
X1.2874Y0.1693
X1.3701Y0.1299
X1.374Y0.0157
X1.4075Y-0.1299
X1.4331Y0.1142
X1.4567Y0.0295
X1.4567Y-0.063
X1.5039Y0.0906
X1.5236Y0.0079
X1.5276Y-0.0394
X1.5354Y0.0354
X1.5394Y0.0827
X1.5472Y-0.1299
X1.5669Y-0.0197
X1.5669Y-0.1024
X1.5906Y0.0039
X1.6693Y0.0
X1.7047Y0.1142
X1.7047Y-0.1063
X1.7126Y0.0039
X1.7283Y0.1378
X1.7402Y-0.1158
X1.7758Y-0.1173
X1.7795Y0.1299
X1.7795Y0.0
X1.8057Y-0.1286
X1.846Y-0.1299
X1.8583Y0.1339
X1.8583Y0.0787
X1.8583Y-0.0709
X1.874Y-0.1299
X1.9134Y-0.1299
X1.9195Y0.144
X1.9263Y0.1106
X1.937Y0.0
X1.9488Y-0.1152
X1.9523Y0.0999
X1.9646Y0.126
X1.9843Y0.1024
X1.9882Y-0.0866
X2.0039Y0.0822
X2.0079Y-0.1142
X2.0118Y0.0157
X2.0276Y-0.0866
X2.0472Y0.0157
X2.0591Y-0.063
X2.0827Y-0.0433
X2.0866Y0.0079
X2.2559Y0.0118
X2.2559Y-0.063
X2.2637Y0.1263
X2.2913Y-0.0197
X2.315Y0.0709
X2.3171Y0.1263
X2.378Y0.1263
X2.378Y-0.0315
X2.4173Y0.0
X2.4213Y0.1772
X2.4213Y0.0906
X2.4252Y0.122
X2.4252Y-0.0709
X2.4488Y0.0827
X2.4744Y0.0591
X2.4749Y-0.0709
X2.4921Y0.0866
X2.5118Y-0.0866
X2.5236Y0.1614
X2.5354Y-0.1142
X2.5787Y0.1457
X2.5827Y0.0591
X2.7441Y0.0472
X2.7441Y-0.0512
T2
X1.3425Y0.1693
X1.6181Y0.1693
X1.752Y0.1693
X1.8228Y0.1693
X1.8898Y0.1693
X2.3465Y0.1772
T3
X0.063Y0.1201
X0.0827Y-0.1201
X0.1142Y-0.1201
X0.1614Y0.1201
X0.1929Y0.1201
X0.5906Y0.0453
X0.5906Y0.0138
T4
X0.9311Y-0.1772
X2.6457Y0.0984
X2.6457Y-0.0984
T5
X2.7441Y0.1098
X2.7441Y-0.1138
T4
G00X2.7028Y0.1701
M15
G01X2.7461Y0.1701
M16
G05
G00X2.7461Y-0.1701
M15
G01X2.7028Y-0.1701
M16
G05
G00X2.9047Y0.1701
M15
G01X2.8732Y0.1701
M16
G05
G00X2.9047Y-0.1701
M15
G01X2.8732Y-0.1701
M16
G05
T0
M30
