G04 #@! TF.GenerationSoftware,KiCad,Pcbnew,(5.99.0-3798-g06f04ad99b)*
G04 #@! TF.CreationDate,2020-10-05T20:32:42-07:00*
G04 #@! TF.ProjectId,RT_USB_PD_Soldering_Iron,52545f55-5342-45f5-9044-5f536f6c6465,rev?*
G04 #@! TF.SameCoordinates,PX5f5e100PY7735940*
G04 #@! TF.FileFunction,Legend,Top*
G04 #@! TF.FilePolarity,Positive*
%FSLAX46Y46*%
G04 Gerber Fmt 4.6, Leading zero omitted, Abs format (unit mm)*
G04 Created by KiCad (PCBNEW (5.99.0-3798-g06f04ad99b)) date 2020-10-05 20:32:42*
%MOMM*%
%LPD*%
G01*
G04 APERTURE LIST*
%ADD10C,0.150000*%
%ADD11C,0.120000*%
%ADD12C,0.100000*%
G04 APERTURE END LIST*
D10*
G04 #@! TO.C,C21*
X39849381Y-866234D02*
X39849381Y-920109D01*
X39795506Y-1027858D01*
X39741631Y-1081733D01*
X39633882Y-1135608D01*
X39526132Y-1135608D01*
X39445320Y-1108671D01*
X39310633Y-1027858D01*
X39229821Y-947046D01*
X39149009Y-812359D01*
X39122071Y-731547D01*
X39122071Y-623797D01*
X39175946Y-516048D01*
X39229821Y-462173D01*
X39337570Y-408298D01*
X39391445Y-408298D01*
X39606944Y-192799D02*
X39606944Y-138924D01*
X39633882Y-58112D01*
X39768569Y76575D01*
X39849381Y103513D01*
X39903256Y103513D01*
X39984068Y76575D01*
X40037943Y22700D01*
X40091818Y-85049D01*
X40091818Y-731547D01*
X40442004Y-381361D01*
X40980752Y157387D02*
X40657503Y-165861D01*
X40819128Y-4237D02*
X40253442Y561448D01*
X40280380Y426761D01*
X40280380Y319012D01*
X40253442Y238200D01*
G04 #@! TO.C,OLED1*
X58016870Y-1549528D02*
X58016870Y-1397147D01*
X58054966Y-1320956D01*
X58131156Y-1244766D01*
X58283537Y-1206671D01*
X58550204Y-1206671D01*
X58702585Y-1244766D01*
X58778775Y-1320956D01*
X58816870Y-1397147D01*
X58816870Y-1549528D01*
X58778775Y-1625718D01*
X58702585Y-1701909D01*
X58550204Y-1740004D01*
X58283537Y-1740004D01*
X58131156Y-1701909D01*
X58054966Y-1625718D01*
X58016870Y-1549528D01*
X58816870Y-482861D02*
X58816870Y-863813D01*
X58016870Y-863813D01*
X58397823Y-216194D02*
X58397823Y50472D01*
X58816870Y164758D02*
X58816870Y-216194D01*
X58016870Y-216194D01*
X58016870Y164758D01*
X58816870Y507615D02*
X58016870Y507615D01*
X58016870Y698091D01*
X58054966Y812377D01*
X58131156Y888568D01*
X58207346Y926663D01*
X58359727Y964758D01*
X58474013Y964758D01*
X58626394Y926663D01*
X58702585Y888568D01*
X58778775Y812377D01*
X58816870Y698091D01*
X58816870Y507615D01*
X58816870Y1726663D02*
X58816870Y1269520D01*
X58816870Y1498091D02*
X58016870Y1498091D01*
X58131156Y1421901D01*
X58207346Y1345710D01*
X58245442Y1269520D01*
G04 #@! TO.C,J1*
X71033333Y5138096D02*
X71033333Y4566667D01*
X70995238Y4452381D01*
X70919047Y4376191D01*
X70804761Y4338096D01*
X70728571Y4338096D01*
X71833333Y4338096D02*
X71376190Y4338096D01*
X71604761Y4338096D02*
X71604761Y5138096D01*
X71528571Y5023810D01*
X71452380Y4947620D01*
X71376190Y4909524D01*
G04 #@! TO.C,SW1*
X65833825Y1439350D02*
X65871920Y1553636D01*
X65871920Y1744112D01*
X65833825Y1820302D01*
X65795730Y1858397D01*
X65719539Y1896493D01*
X65643349Y1896493D01*
X65567158Y1858397D01*
X65529063Y1820302D01*
X65490968Y1744112D01*
X65452873Y1591731D01*
X65414777Y1515540D01*
X65376682Y1477445D01*
X65300492Y1439350D01*
X65224301Y1439350D01*
X65148111Y1477445D01*
X65110016Y1515540D01*
X65071920Y1591731D01*
X65071920Y1782207D01*
X65110016Y1896493D01*
X65071920Y2163159D02*
X65871920Y2353636D01*
X65300492Y2506016D01*
X65871920Y2658397D01*
X65071920Y2848874D01*
X65871920Y3572683D02*
X65871920Y3115540D01*
X65871920Y3344112D02*
X65071920Y3344112D01*
X65186206Y3267921D01*
X65262396Y3191731D01*
X65300492Y3115540D01*
G04 #@! TO.C,R17*
X34785714Y-2761904D02*
X34519047Y-2380952D01*
X34328571Y-2761904D02*
X34328571Y-1961904D01*
X34633333Y-1961904D01*
X34709523Y-2000000D01*
X34747619Y-2038095D01*
X34785714Y-2114285D01*
X34785714Y-2228571D01*
X34747619Y-2304761D01*
X34709523Y-2342857D01*
X34633333Y-2380952D01*
X34328571Y-2380952D01*
X35547619Y-2761904D02*
X35090476Y-2761904D01*
X35319047Y-2761904D02*
X35319047Y-1961904D01*
X35242857Y-2076190D01*
X35166666Y-2152380D01*
X35090476Y-2190476D01*
X35814285Y-1961904D02*
X36347619Y-1961904D01*
X36004761Y-2761904D01*
G04 #@! TO.C,C8*
X62766666Y2614286D02*
X62728571Y2576191D01*
X62614285Y2538096D01*
X62538095Y2538096D01*
X62423809Y2576191D01*
X62347619Y2652381D01*
X62309523Y2728572D01*
X62271428Y2880953D01*
X62271428Y2995239D01*
X62309523Y3147620D01*
X62347619Y3223810D01*
X62423809Y3300000D01*
X62538095Y3338096D01*
X62614285Y3338096D01*
X62728571Y3300000D01*
X62766666Y3261905D01*
X63223809Y2995239D02*
X63147619Y3033334D01*
X63109523Y3071429D01*
X63071428Y3147620D01*
X63071428Y3185715D01*
X63109523Y3261905D01*
X63147619Y3300000D01*
X63223809Y3338096D01*
X63376190Y3338096D01*
X63452380Y3300000D01*
X63490476Y3261905D01*
X63528571Y3185715D01*
X63528571Y3147620D01*
X63490476Y3071429D01*
X63452380Y3033334D01*
X63376190Y2995239D01*
X63223809Y2995239D01*
X63147619Y2957143D01*
X63109523Y2919048D01*
X63071428Y2842858D01*
X63071428Y2690477D01*
X63109523Y2614286D01*
X63147619Y2576191D01*
X63223809Y2538096D01*
X63376190Y2538096D01*
X63452380Y2576191D01*
X63490476Y2614286D01*
X63528571Y2690477D01*
X63528571Y2842858D01*
X63490476Y2919048D01*
X63452380Y2957143D01*
X63376190Y2995239D01*
G04 #@! TO.C,C12*
X47679423Y2587156D02*
X47717518Y2549061D01*
X47755613Y2434775D01*
X47755613Y2358584D01*
X47717518Y2244299D01*
X47641328Y2168108D01*
X47565137Y2130013D01*
X47412756Y2091918D01*
X47298470Y2091918D01*
X47146089Y2130013D01*
X47069899Y2168108D01*
X46993709Y2244299D01*
X46955613Y2358584D01*
X46955613Y2434775D01*
X46993709Y2549061D01*
X47031804Y2587156D01*
X47755613Y3349061D02*
X47755613Y2891918D01*
X47755613Y3120489D02*
X46955613Y3120489D01*
X47069899Y3044299D01*
X47146089Y2968108D01*
X47184185Y2891918D01*
X47031804Y3653822D02*
X46993709Y3691918D01*
X46955613Y3768108D01*
X46955613Y3958584D01*
X46993709Y4034775D01*
X47031804Y4072870D01*
X47107994Y4110965D01*
X47184185Y4110965D01*
X47298470Y4072870D01*
X47755613Y3615727D01*
X47755613Y4110965D01*
G04 #@! TO.C,C5*
X35966666Y-1585714D02*
X35928571Y-1623809D01*
X35814285Y-1661904D01*
X35738095Y-1661904D01*
X35623809Y-1623809D01*
X35547619Y-1547619D01*
X35509523Y-1471428D01*
X35471428Y-1319047D01*
X35471428Y-1204761D01*
X35509523Y-1052380D01*
X35547619Y-976190D01*
X35623809Y-900000D01*
X35738095Y-861904D01*
X35814285Y-861904D01*
X35928571Y-900000D01*
X35966666Y-938095D01*
X36690476Y-861904D02*
X36309523Y-861904D01*
X36271428Y-1242857D01*
X36309523Y-1204761D01*
X36385714Y-1166666D01*
X36576190Y-1166666D01*
X36652380Y-1204761D01*
X36690476Y-1242857D01*
X36728571Y-1319047D01*
X36728571Y-1509523D01*
X36690476Y-1585714D01*
X36652380Y-1623809D01*
X36576190Y-1661904D01*
X36385714Y-1661904D01*
X36309523Y-1623809D01*
X36271428Y-1585714D01*
G04 #@! TO.C,C20*
X49983895Y-3083841D02*
X49945800Y-3121936D01*
X49831514Y-3160031D01*
X49755323Y-3160031D01*
X49641038Y-3121936D01*
X49564847Y-3045746D01*
X49526752Y-2969555D01*
X49488657Y-2817174D01*
X49488657Y-2702888D01*
X49526752Y-2550507D01*
X49564847Y-2474317D01*
X49641038Y-2398127D01*
X49755323Y-2360031D01*
X49831514Y-2360031D01*
X49945800Y-2398127D01*
X49983895Y-2436222D01*
X50288657Y-2436222D02*
X50326752Y-2398127D01*
X50402942Y-2360031D01*
X50593419Y-2360031D01*
X50669609Y-2398127D01*
X50707704Y-2436222D01*
X50745800Y-2512412D01*
X50745800Y-2588603D01*
X50707704Y-2702888D01*
X50250561Y-3160031D01*
X50745800Y-3160031D01*
X51241038Y-2360031D02*
X51317228Y-2360031D01*
X51393419Y-2398127D01*
X51431514Y-2436222D01*
X51469609Y-2512412D01*
X51507704Y-2664793D01*
X51507704Y-2855269D01*
X51469609Y-3007650D01*
X51431514Y-3083841D01*
X51393419Y-3121936D01*
X51317228Y-3160031D01*
X51241038Y-3160031D01*
X51164847Y-3121936D01*
X51126752Y-3083841D01*
X51088657Y-3007650D01*
X51050561Y-2855269D01*
X51050561Y-2664793D01*
X51088657Y-2512412D01*
X51126752Y-2436222D01*
X51164847Y-2398127D01*
X51241038Y-2360031D01*
G04 #@! TO.C,C24*
X24385714Y4014286D02*
X24347619Y3976191D01*
X24233333Y3938096D01*
X24157142Y3938096D01*
X24042857Y3976191D01*
X23966666Y4052381D01*
X23928571Y4128572D01*
X23890476Y4280953D01*
X23890476Y4395239D01*
X23928571Y4547620D01*
X23966666Y4623810D01*
X24042857Y4700000D01*
X24157142Y4738096D01*
X24233333Y4738096D01*
X24347619Y4700000D01*
X24385714Y4661905D01*
X24690476Y4661905D02*
X24728571Y4700000D01*
X24804761Y4738096D01*
X24995238Y4738096D01*
X25071428Y4700000D01*
X25109523Y4661905D01*
X25147619Y4585715D01*
X25147619Y4509524D01*
X25109523Y4395239D01*
X24652380Y3938096D01*
X25147619Y3938096D01*
X25833333Y4471429D02*
X25833333Y3938096D01*
X25642857Y4776191D02*
X25452380Y4204762D01*
X25947619Y4204762D01*
G04 #@! TO.C,U8*
X41690476Y4638096D02*
X41690476Y3990477D01*
X41728571Y3914286D01*
X41766666Y3876191D01*
X41842857Y3838096D01*
X41995238Y3838096D01*
X42071428Y3876191D01*
X42109523Y3914286D01*
X42147619Y3990477D01*
X42147619Y4638096D01*
X42642857Y4295239D02*
X42566666Y4333334D01*
X42528571Y4371429D01*
X42490476Y4447620D01*
X42490476Y4485715D01*
X42528571Y4561905D01*
X42566666Y4600000D01*
X42642857Y4638096D01*
X42795238Y4638096D01*
X42871428Y4600000D01*
X42909523Y4561905D01*
X42947619Y4485715D01*
X42947619Y4447620D01*
X42909523Y4371429D01*
X42871428Y4333334D01*
X42795238Y4295239D01*
X42642857Y4295239D01*
X42566666Y4257143D01*
X42528571Y4219048D01*
X42490476Y4142858D01*
X42490476Y3990477D01*
X42528571Y3914286D01*
X42566666Y3876191D01*
X42642857Y3838096D01*
X42795238Y3838096D01*
X42871428Y3876191D01*
X42909523Y3914286D01*
X42947619Y3990477D01*
X42947619Y4142858D01*
X42909523Y4219048D01*
X42871428Y4257143D01*
X42795238Y4295239D01*
G04 #@! TO.C,R12*
X25285744Y-3362256D02*
X25019077Y-2981304D01*
X24828601Y-3362256D02*
X24828601Y-2562256D01*
X25133363Y-2562256D01*
X25209553Y-2600352D01*
X25247649Y-2638447D01*
X25285744Y-2714637D01*
X25285744Y-2828923D01*
X25247649Y-2905113D01*
X25209553Y-2943209D01*
X25133363Y-2981304D01*
X24828601Y-2981304D01*
X26047649Y-3362256D02*
X25590506Y-3362256D01*
X25819077Y-3362256D02*
X25819077Y-2562256D01*
X25742887Y-2676542D01*
X25666696Y-2752732D01*
X25590506Y-2790828D01*
X26352410Y-2638447D02*
X26390506Y-2600352D01*
X26466696Y-2562256D01*
X26657172Y-2562256D01*
X26733363Y-2600352D01*
X26771458Y-2638447D01*
X26809553Y-2714637D01*
X26809553Y-2790828D01*
X26771458Y-2905113D01*
X26314315Y-3362256D01*
X26809553Y-3362256D01*
G04 #@! TO.C,SW2*
X65927714Y-3566666D02*
X65965809Y-3452380D01*
X65965809Y-3261904D01*
X65927714Y-3185714D01*
X65889619Y-3147619D01*
X65813428Y-3109523D01*
X65737238Y-3109523D01*
X65661047Y-3147619D01*
X65622952Y-3185714D01*
X65584857Y-3261904D01*
X65546762Y-3414285D01*
X65508666Y-3490476D01*
X65470571Y-3528571D01*
X65394381Y-3566666D01*
X65318190Y-3566666D01*
X65242000Y-3528571D01*
X65203905Y-3490476D01*
X65165809Y-3414285D01*
X65165809Y-3223809D01*
X65203905Y-3109523D01*
X65165809Y-2842857D02*
X65965809Y-2652380D01*
X65394381Y-2500000D01*
X65965809Y-2347619D01*
X65165809Y-2157142D01*
X65242000Y-1890476D02*
X65203905Y-1852380D01*
X65165809Y-1776190D01*
X65165809Y-1585714D01*
X65203905Y-1509523D01*
X65242000Y-1471428D01*
X65318190Y-1433333D01*
X65394381Y-1433333D01*
X65508666Y-1471428D01*
X65965809Y-1928571D01*
X65965809Y-1433333D01*
G04 #@! TO.C,C26*
X49785714Y2698616D02*
X49747619Y2660521D01*
X49633333Y2622426D01*
X49557142Y2622426D01*
X49442857Y2660521D01*
X49366666Y2736711D01*
X49328571Y2812902D01*
X49290476Y2965283D01*
X49290476Y3079569D01*
X49328571Y3231950D01*
X49366666Y3308140D01*
X49442857Y3384330D01*
X49557142Y3422426D01*
X49633333Y3422426D01*
X49747619Y3384330D01*
X49785714Y3346235D01*
X50090476Y3346235D02*
X50128571Y3384330D01*
X50204761Y3422426D01*
X50395238Y3422426D01*
X50471428Y3384330D01*
X50509523Y3346235D01*
X50547619Y3270045D01*
X50547619Y3193854D01*
X50509523Y3079569D01*
X50052380Y2622426D01*
X50547619Y2622426D01*
X51233333Y3422426D02*
X51080952Y3422426D01*
X51004761Y3384330D01*
X50966666Y3346235D01*
X50890476Y3231950D01*
X50852380Y3079569D01*
X50852380Y2774807D01*
X50890476Y2698616D01*
X50928571Y2660521D01*
X51004761Y2622426D01*
X51157142Y2622426D01*
X51233333Y2660521D01*
X51271428Y2698616D01*
X51309523Y2774807D01*
X51309523Y2965283D01*
X51271428Y3041473D01*
X51233333Y3079569D01*
X51157142Y3117664D01*
X51004761Y3117664D01*
X50928571Y3079569D01*
X50890476Y3041473D01*
X50852380Y2965283D01*
G04 #@! TO.C,R18*
X37185714Y-2761904D02*
X36919047Y-2380952D01*
X36728571Y-2761904D02*
X36728571Y-1961904D01*
X37033333Y-1961904D01*
X37109523Y-2000000D01*
X37147619Y-2038095D01*
X37185714Y-2114285D01*
X37185714Y-2228571D01*
X37147619Y-2304761D01*
X37109523Y-2342857D01*
X37033333Y-2380952D01*
X36728571Y-2380952D01*
X37947619Y-2761904D02*
X37490476Y-2761904D01*
X37719047Y-2761904D02*
X37719047Y-1961904D01*
X37642857Y-2076190D01*
X37566666Y-2152380D01*
X37490476Y-2190476D01*
X38404761Y-2304761D02*
X38328571Y-2266666D01*
X38290476Y-2228571D01*
X38252380Y-2152380D01*
X38252380Y-2114285D01*
X38290476Y-2038095D01*
X38328571Y-2000000D01*
X38404761Y-1961904D01*
X38557142Y-1961904D01*
X38633333Y-2000000D01*
X38671428Y-2038095D01*
X38709523Y-2114285D01*
X38709523Y-2152380D01*
X38671428Y-2228571D01*
X38633333Y-2266666D01*
X38557142Y-2304761D01*
X38404761Y-2304761D01*
X38328571Y-2342857D01*
X38290476Y-2380952D01*
X38252380Y-2457142D01*
X38252380Y-2609523D01*
X38290476Y-2685714D01*
X38328571Y-2723809D01*
X38404761Y-2761904D01*
X38557142Y-2761904D01*
X38633333Y-2723809D01*
X38671428Y-2685714D01*
X38709523Y-2609523D01*
X38709523Y-2457142D01*
X38671428Y-2380952D01*
X38633333Y-2342857D01*
X38557142Y-2304761D01*
G04 #@! TO.C,D3*
X18061904Y-590476D02*
X17261904Y-590476D01*
X17261904Y-400000D01*
X17300000Y-285714D01*
X17376190Y-209523D01*
X17452380Y-171428D01*
X17604761Y-133333D01*
X17719047Y-133333D01*
X17871428Y-171428D01*
X17947619Y-209523D01*
X18023809Y-285714D01*
X18061904Y-400000D01*
X18061904Y-590476D01*
X17261904Y133334D02*
X17261904Y628572D01*
X17566666Y361905D01*
X17566666Y476191D01*
X17604761Y552381D01*
X17642857Y590477D01*
X17719047Y628572D01*
X17909523Y628572D01*
X17985714Y590477D01*
X18023809Y552381D01*
X18061904Y476191D01*
X18061904Y247620D01*
X18023809Y171429D01*
X17985714Y133334D01*
G04 #@! TO.C,U6*
X22290476Y-2661904D02*
X22290476Y-3309523D01*
X22328571Y-3385714D01*
X22366666Y-3423809D01*
X22442857Y-3461904D01*
X22595238Y-3461904D01*
X22671428Y-3423809D01*
X22709523Y-3385714D01*
X22747619Y-3309523D01*
X22747619Y-2661904D01*
X23471428Y-2661904D02*
X23319047Y-2661904D01*
X23242857Y-2700000D01*
X23204761Y-2738095D01*
X23128571Y-2852380D01*
X23090476Y-3004761D01*
X23090476Y-3309523D01*
X23128571Y-3385714D01*
X23166666Y-3423809D01*
X23242857Y-3461904D01*
X23395238Y-3461904D01*
X23471428Y-3423809D01*
X23509523Y-3385714D01*
X23547619Y-3309523D01*
X23547619Y-3119047D01*
X23509523Y-3042857D01*
X23471428Y-3004761D01*
X23395238Y-2966666D01*
X23242857Y-2966666D01*
X23166666Y-3004761D01*
X23128571Y-3042857D01*
X23090476Y-3119047D01*
G04 #@! TO.C,R11*
X27885714Y-4961904D02*
X27619047Y-4580952D01*
X27428571Y-4961904D02*
X27428571Y-4161904D01*
X27733333Y-4161904D01*
X27809523Y-4200000D01*
X27847619Y-4238095D01*
X27885714Y-4314285D01*
X27885714Y-4428571D01*
X27847619Y-4504761D01*
X27809523Y-4542857D01*
X27733333Y-4580952D01*
X27428571Y-4580952D01*
X28647619Y-4961904D02*
X28190476Y-4961904D01*
X28419047Y-4961904D02*
X28419047Y-4161904D01*
X28342857Y-4276190D01*
X28266666Y-4352380D01*
X28190476Y-4390476D01*
X29409523Y-4961904D02*
X28952380Y-4961904D01*
X29180952Y-4961904D02*
X29180952Y-4161904D01*
X29104761Y-4276190D01*
X29028571Y-4352380D01*
X28952380Y-4390476D01*
G04 #@! TO.C,C13*
X48985714Y485715D02*
X49023809Y447620D01*
X49061904Y333334D01*
X49061904Y257143D01*
X49023809Y142858D01*
X48947619Y66667D01*
X48871428Y28572D01*
X48719047Y-9523D01*
X48604761Y-9523D01*
X48452380Y28572D01*
X48376190Y66667D01*
X48300000Y142858D01*
X48261904Y257143D01*
X48261904Y333334D01*
X48300000Y447620D01*
X48338095Y485715D01*
X49061904Y1247620D02*
X49061904Y790477D01*
X49061904Y1019048D02*
X48261904Y1019048D01*
X48376190Y942858D01*
X48452380Y866667D01*
X48490476Y790477D01*
X48261904Y1514286D02*
X48261904Y2009524D01*
X48566666Y1742858D01*
X48566666Y1857143D01*
X48604761Y1933334D01*
X48642857Y1971429D01*
X48719047Y2009524D01*
X48909523Y2009524D01*
X48985714Y1971429D01*
X49023809Y1933334D01*
X49061904Y1857143D01*
X49061904Y1628572D01*
X49023809Y1552381D01*
X48985714Y1514286D01*
G04 #@! TO.C,C23*
X25285797Y-4385693D02*
X25247702Y-4423788D01*
X25133416Y-4461883D01*
X25057225Y-4461883D01*
X24942940Y-4423788D01*
X24866749Y-4347598D01*
X24828654Y-4271407D01*
X24790559Y-4119026D01*
X24790559Y-4004740D01*
X24828654Y-3852359D01*
X24866749Y-3776169D01*
X24942940Y-3699979D01*
X25057225Y-3661883D01*
X25133416Y-3661883D01*
X25247702Y-3699979D01*
X25285797Y-3738074D01*
X25590559Y-3738074D02*
X25628654Y-3699979D01*
X25704844Y-3661883D01*
X25895321Y-3661883D01*
X25971511Y-3699979D01*
X26009606Y-3738074D01*
X26047702Y-3814264D01*
X26047702Y-3890455D01*
X26009606Y-4004740D01*
X25552463Y-4461883D01*
X26047702Y-4461883D01*
X26314368Y-3661883D02*
X26809606Y-3661883D01*
X26542940Y-3966645D01*
X26657225Y-3966645D01*
X26733416Y-4004740D01*
X26771511Y-4042836D01*
X26809606Y-4119026D01*
X26809606Y-4309502D01*
X26771511Y-4385693D01*
X26733416Y-4423788D01*
X26657225Y-4461883D01*
X26428654Y-4461883D01*
X26352463Y-4423788D01*
X26314368Y-4385693D01*
G04 #@! TO.C,R13*
X49785714Y1538096D02*
X49519047Y1919048D01*
X49328571Y1538096D02*
X49328571Y2338096D01*
X49633333Y2338096D01*
X49709523Y2300000D01*
X49747619Y2261905D01*
X49785714Y2185715D01*
X49785714Y2071429D01*
X49747619Y1995239D01*
X49709523Y1957143D01*
X49633333Y1919048D01*
X49328571Y1919048D01*
X50547619Y1538096D02*
X50090476Y1538096D01*
X50319047Y1538096D02*
X50319047Y2338096D01*
X50242857Y2223810D01*
X50166666Y2147620D01*
X50090476Y2109524D01*
X50814285Y2338096D02*
X51309523Y2338096D01*
X51042857Y2033334D01*
X51157142Y2033334D01*
X51233333Y1995239D01*
X51271428Y1957143D01*
X51309523Y1880953D01*
X51309523Y1690477D01*
X51271428Y1614286D01*
X51233333Y1576191D01*
X51157142Y1538096D01*
X50928571Y1538096D01*
X50852380Y1576191D01*
X50814285Y1614286D01*
G04 #@! TO.C,U7*
X28890476Y4638096D02*
X28890476Y3990477D01*
X28928571Y3914286D01*
X28966666Y3876191D01*
X29042857Y3838096D01*
X29195238Y3838096D01*
X29271428Y3876191D01*
X29309523Y3914286D01*
X29347619Y3990477D01*
X29347619Y4638096D01*
X29652380Y4638096D02*
X30185714Y4638096D01*
X29842857Y3838096D01*
G04 #@! TO.C,U3*
X60638095Y1259524D02*
X59990476Y1259524D01*
X59914285Y1221429D01*
X59876190Y1183334D01*
X59838095Y1107143D01*
X59838095Y954762D01*
X59876190Y878572D01*
X59914285Y840477D01*
X59990476Y802381D01*
X60638095Y802381D01*
X60638095Y497620D02*
X60638095Y2381D01*
X60333333Y269048D01*
X60333333Y154762D01*
X60295238Y78572D01*
X60257142Y40477D01*
X60180952Y2381D01*
X59990476Y2381D01*
X59914285Y40477D01*
X59876190Y78572D01*
X59838095Y154762D01*
X59838095Y383334D01*
X59876190Y459524D01*
X59914285Y497620D01*
G04 #@! TO.C,C32*
X35414285Y4614286D02*
X35376190Y4652381D01*
X35338095Y4766667D01*
X35338095Y4842858D01*
X35376190Y4957143D01*
X35452380Y5033334D01*
X35528571Y5071429D01*
X35680952Y5109524D01*
X35795238Y5109524D01*
X35947619Y5071429D01*
X36023809Y5033334D01*
X36100000Y4957143D01*
X36138095Y4842858D01*
X36138095Y4766667D01*
X36100000Y4652381D01*
X36061904Y4614286D01*
X36138095Y4347620D02*
X36138095Y3852381D01*
X35833333Y4119048D01*
X35833333Y4004762D01*
X35795238Y3928572D01*
X35757142Y3890477D01*
X35680952Y3852381D01*
X35490476Y3852381D01*
X35414285Y3890477D01*
X35376190Y3928572D01*
X35338095Y4004762D01*
X35338095Y4233334D01*
X35376190Y4309524D01*
X35414285Y4347620D01*
X36061904Y3547620D02*
X36100000Y3509524D01*
X36138095Y3433334D01*
X36138095Y3242858D01*
X36100000Y3166667D01*
X36061904Y3128572D01*
X35985714Y3090477D01*
X35909523Y3090477D01*
X35795238Y3128572D01*
X35338095Y3585715D01*
X35338095Y3090477D01*
G04 #@! TO.C,R14*
X31197790Y3910244D02*
X30931123Y4291196D01*
X30740647Y3910244D02*
X30740647Y4710244D01*
X31045409Y4710244D01*
X31121599Y4672148D01*
X31159695Y4634053D01*
X31197790Y4557863D01*
X31197790Y4443577D01*
X31159695Y4367387D01*
X31121599Y4329291D01*
X31045409Y4291196D01*
X30740647Y4291196D01*
X31959695Y3910244D02*
X31502552Y3910244D01*
X31731123Y3910244D02*
X31731123Y4710244D01*
X31654933Y4595958D01*
X31578742Y4519768D01*
X31502552Y4481672D01*
X32645409Y4443577D02*
X32645409Y3910244D01*
X32454933Y4748339D02*
X32264456Y4176910D01*
X32759695Y4176910D01*
G04 #@! TO.C,C31*
X30385714Y-4785714D02*
X30347619Y-4823809D01*
X30233333Y-4861904D01*
X30157142Y-4861904D01*
X30042857Y-4823809D01*
X29966666Y-4747619D01*
X29928571Y-4671428D01*
X29890476Y-4519047D01*
X29890476Y-4404761D01*
X29928571Y-4252380D01*
X29966666Y-4176190D01*
X30042857Y-4100000D01*
X30157142Y-4061904D01*
X30233333Y-4061904D01*
X30347619Y-4100000D01*
X30385714Y-4138095D01*
X30652380Y-4061904D02*
X31147619Y-4061904D01*
X30880952Y-4366666D01*
X30995238Y-4366666D01*
X31071428Y-4404761D01*
X31109523Y-4442857D01*
X31147619Y-4519047D01*
X31147619Y-4709523D01*
X31109523Y-4785714D01*
X31071428Y-4823809D01*
X30995238Y-4861904D01*
X30766666Y-4861904D01*
X30690476Y-4823809D01*
X30652380Y-4785714D01*
X31909523Y-4861904D02*
X31452380Y-4861904D01*
X31680952Y-4861904D02*
X31680952Y-4061904D01*
X31604761Y-4176190D01*
X31528571Y-4252380D01*
X31452380Y-4290476D01*
G04 #@! TO.C,C19*
X52586638Y-1619084D02*
X52624733Y-1657179D01*
X52662828Y-1771465D01*
X52662828Y-1847656D01*
X52624733Y-1961941D01*
X52548543Y-2038132D01*
X52472352Y-2076227D01*
X52319971Y-2114322D01*
X52205685Y-2114322D01*
X52053304Y-2076227D01*
X51977114Y-2038132D01*
X51900924Y-1961941D01*
X51862828Y-1847656D01*
X51862828Y-1771465D01*
X51900924Y-1657179D01*
X51939019Y-1619084D01*
X52662828Y-857179D02*
X52662828Y-1314322D01*
X52662828Y-1085751D02*
X51862828Y-1085751D01*
X51977114Y-1161941D01*
X52053304Y-1238132D01*
X52091400Y-1314322D01*
X52662828Y-476227D02*
X52662828Y-323846D01*
X52624733Y-247656D01*
X52586638Y-209560D01*
X52472352Y-133370D01*
X52319971Y-95275D01*
X52015209Y-95275D01*
X51939019Y-133370D01*
X51900924Y-171465D01*
X51862828Y-247656D01*
X51862828Y-400037D01*
X51900924Y-476227D01*
X51939019Y-514322D01*
X52015209Y-552418D01*
X52205685Y-552418D01*
X52281876Y-514322D01*
X52319971Y-476227D01*
X52358066Y-400037D01*
X52358066Y-247656D01*
X52319971Y-171465D01*
X52281876Y-133370D01*
X52205685Y-95275D01*
G04 #@! TO.C,C29*
X39614285Y4614286D02*
X39576190Y4652381D01*
X39538095Y4766667D01*
X39538095Y4842858D01*
X39576190Y4957143D01*
X39652380Y5033334D01*
X39728571Y5071429D01*
X39880952Y5109524D01*
X39995238Y5109524D01*
X40147619Y5071429D01*
X40223809Y5033334D01*
X40300000Y4957143D01*
X40338095Y4842858D01*
X40338095Y4766667D01*
X40300000Y4652381D01*
X40261904Y4614286D01*
X40261904Y4309524D02*
X40300000Y4271429D01*
X40338095Y4195239D01*
X40338095Y4004762D01*
X40300000Y3928572D01*
X40261904Y3890477D01*
X40185714Y3852381D01*
X40109523Y3852381D01*
X39995238Y3890477D01*
X39538095Y4347620D01*
X39538095Y3852381D01*
X39538095Y3471429D02*
X39538095Y3319048D01*
X39576190Y3242858D01*
X39614285Y3204762D01*
X39728571Y3128572D01*
X39880952Y3090477D01*
X40185714Y3090477D01*
X40261904Y3128572D01*
X40300000Y3166667D01*
X40338095Y3242858D01*
X40338095Y3395239D01*
X40300000Y3471429D01*
X40261904Y3509524D01*
X40185714Y3547620D01*
X39995238Y3547620D01*
X39919047Y3509524D01*
X39880952Y3471429D01*
X39842857Y3395239D01*
X39842857Y3242858D01*
X39880952Y3166667D01*
X39919047Y3128572D01*
X39995238Y3090477D01*
G04 #@! TO.C,C17*
X49991859Y-4092030D02*
X49953764Y-4130125D01*
X49839478Y-4168220D01*
X49763287Y-4168220D01*
X49649002Y-4130125D01*
X49572811Y-4053935D01*
X49534716Y-3977744D01*
X49496621Y-3825363D01*
X49496621Y-3711077D01*
X49534716Y-3558696D01*
X49572811Y-3482506D01*
X49649002Y-3406316D01*
X49763287Y-3368220D01*
X49839478Y-3368220D01*
X49953764Y-3406316D01*
X49991859Y-3444411D01*
X50753764Y-4168220D02*
X50296621Y-4168220D01*
X50525192Y-4168220D02*
X50525192Y-3368220D01*
X50449002Y-3482506D01*
X50372811Y-3558696D01*
X50296621Y-3596792D01*
X51020430Y-3368220D02*
X51553764Y-3368220D01*
X51210906Y-4168220D01*
G04 #@! TO.C,C27*
X49785714Y3827879D02*
X49747619Y3789784D01*
X49633333Y3751689D01*
X49557142Y3751689D01*
X49442857Y3789784D01*
X49366666Y3865974D01*
X49328571Y3942165D01*
X49290476Y4094546D01*
X49290476Y4208832D01*
X49328571Y4361213D01*
X49366666Y4437403D01*
X49442857Y4513593D01*
X49557142Y4551689D01*
X49633333Y4551689D01*
X49747619Y4513593D01*
X49785714Y4475498D01*
X50090476Y4475498D02*
X50128571Y4513593D01*
X50204761Y4551689D01*
X50395238Y4551689D01*
X50471428Y4513593D01*
X50509523Y4475498D01*
X50547619Y4399308D01*
X50547619Y4323117D01*
X50509523Y4208832D01*
X50052380Y3751689D01*
X50547619Y3751689D01*
X50814285Y4551689D02*
X51347619Y4551689D01*
X51004761Y3751689D01*
G04 #@! TO.C,U2*
X37390476Y3838096D02*
X37390476Y3190477D01*
X37428571Y3114286D01*
X37466666Y3076191D01*
X37542857Y3038096D01*
X37695238Y3038096D01*
X37771428Y3076191D01*
X37809523Y3114286D01*
X37847619Y3190477D01*
X37847619Y3838096D01*
X38190476Y3761905D02*
X38228571Y3800000D01*
X38304761Y3838096D01*
X38495238Y3838096D01*
X38571428Y3800000D01*
X38609523Y3761905D01*
X38647619Y3685715D01*
X38647619Y3609524D01*
X38609523Y3495239D01*
X38152380Y3038096D01*
X38647619Y3038096D01*
G04 #@! TO.C,Y1*
X43050185Y-617199D02*
X42780811Y-886573D01*
X43157935Y-132326D02*
X43050185Y-617199D01*
X43535058Y-509449D01*
X43454246Y-1560008D02*
X43130997Y-1236759D01*
X43292622Y-1398383D02*
X43858307Y-832698D01*
X43723620Y-859635D01*
X43615871Y-859635D01*
X43535058Y-832698D01*
G04 #@! TO.C,R15*
X27885714Y1967517D02*
X27619047Y2348469D01*
X27428571Y1967517D02*
X27428571Y2767517D01*
X27733333Y2767517D01*
X27809523Y2729421D01*
X27847619Y2691326D01*
X27885714Y2615136D01*
X27885714Y2500850D01*
X27847619Y2424660D01*
X27809523Y2386564D01*
X27733333Y2348469D01*
X27428571Y2348469D01*
X28647619Y1967517D02*
X28190476Y1967517D01*
X28419047Y1967517D02*
X28419047Y2767517D01*
X28342857Y2653231D01*
X28266666Y2577041D01*
X28190476Y2538945D01*
X29371428Y2767517D02*
X28990476Y2767517D01*
X28952380Y2386564D01*
X28990476Y2424660D01*
X29066666Y2462755D01*
X29257142Y2462755D01*
X29333333Y2424660D01*
X29371428Y2386564D01*
X29409523Y2310374D01*
X29409523Y2119898D01*
X29371428Y2043707D01*
X29333333Y2005612D01*
X29257142Y1967517D01*
X29066666Y1967517D01*
X28990476Y2005612D01*
X28952380Y2043707D01*
G04 #@! TO.C,C28*
X33585714Y2843707D02*
X33547619Y2805612D01*
X33433333Y2767517D01*
X33357142Y2767517D01*
X33242857Y2805612D01*
X33166666Y2881802D01*
X33128571Y2957993D01*
X33090476Y3110374D01*
X33090476Y3224660D01*
X33128571Y3377041D01*
X33166666Y3453231D01*
X33242857Y3529421D01*
X33357142Y3567517D01*
X33433333Y3567517D01*
X33547619Y3529421D01*
X33585714Y3491326D01*
X33890476Y3491326D02*
X33928571Y3529421D01*
X34004761Y3567517D01*
X34195238Y3567517D01*
X34271428Y3529421D01*
X34309523Y3491326D01*
X34347619Y3415136D01*
X34347619Y3338945D01*
X34309523Y3224660D01*
X33852380Y2767517D01*
X34347619Y2767517D01*
X34804761Y3224660D02*
X34728571Y3262755D01*
X34690476Y3300850D01*
X34652380Y3377041D01*
X34652380Y3415136D01*
X34690476Y3491326D01*
X34728571Y3529421D01*
X34804761Y3567517D01*
X34957142Y3567517D01*
X35033333Y3529421D01*
X35071428Y3491326D01*
X35109523Y3415136D01*
X35109523Y3377041D01*
X35071428Y3300850D01*
X35033333Y3262755D01*
X34957142Y3224660D01*
X34804761Y3224660D01*
X34728571Y3186564D01*
X34690476Y3148469D01*
X34652380Y3072279D01*
X34652380Y2919898D01*
X34690476Y2843707D01*
X34728571Y2805612D01*
X34804761Y2767517D01*
X34957142Y2767517D01*
X35033333Y2805612D01*
X35071428Y2843707D01*
X35109523Y2919898D01*
X35109523Y3072279D01*
X35071428Y3148469D01*
X35033333Y3186564D01*
X34957142Y3224660D01*
G04 #@! TO.C,C22*
X39234314Y-4238375D02*
X39180439Y-4238375D01*
X39072690Y-4184500D01*
X39018815Y-4130625D01*
X38964940Y-4022876D01*
X38964940Y-3915126D01*
X38991877Y-3834314D01*
X39072690Y-3699627D01*
X39153502Y-3618815D01*
X39288189Y-3538003D01*
X39369001Y-3511065D01*
X39476751Y-3511065D01*
X39584500Y-3564940D01*
X39638375Y-3618815D01*
X39692250Y-3726564D01*
X39692250Y-3780439D01*
X39907749Y-3995938D02*
X39961624Y-3995938D01*
X40042436Y-4022876D01*
X40177123Y-4157563D01*
X40204061Y-4238375D01*
X40204061Y-4292250D01*
X40177123Y-4373062D01*
X40123248Y-4426937D01*
X40015499Y-4480812D01*
X39369001Y-4480812D01*
X39719187Y-4830998D01*
X40446497Y-4534687D02*
X40500372Y-4534687D01*
X40581184Y-4561624D01*
X40715871Y-4696311D01*
X40742809Y-4777123D01*
X40742809Y-4830998D01*
X40715871Y-4911810D01*
X40661996Y-4965685D01*
X40554247Y-5019560D01*
X39907749Y-5019560D01*
X40257935Y-5369746D01*
G04 #@! TO.C,C14*
X46666562Y-1635086D02*
X46628467Y-1673181D01*
X46514181Y-1711276D01*
X46437990Y-1711276D01*
X46323705Y-1673181D01*
X46247514Y-1596991D01*
X46209419Y-1520800D01*
X46171324Y-1368419D01*
X46171324Y-1254133D01*
X46209419Y-1101752D01*
X46247514Y-1025562D01*
X46323705Y-949372D01*
X46437990Y-911276D01*
X46514181Y-911276D01*
X46628467Y-949372D01*
X46666562Y-987467D01*
X47428467Y-1711276D02*
X46971324Y-1711276D01*
X47199895Y-1711276D02*
X47199895Y-911276D01*
X47123705Y-1025562D01*
X47047514Y-1101752D01*
X46971324Y-1139848D01*
X48114181Y-1177943D02*
X48114181Y-1711276D01*
X47923705Y-873181D02*
X47733228Y-1444610D01*
X48228467Y-1444610D01*
G04 #@! TO.C,C9*
X62662531Y-3206959D02*
X62624436Y-3245054D01*
X62510150Y-3283149D01*
X62433960Y-3283149D01*
X62319674Y-3245054D01*
X62243484Y-3168864D01*
X62205388Y-3092673D01*
X62167293Y-2940292D01*
X62167293Y-2826006D01*
X62205388Y-2673625D01*
X62243484Y-2597435D01*
X62319674Y-2521245D01*
X62433960Y-2483149D01*
X62510150Y-2483149D01*
X62624436Y-2521245D01*
X62662531Y-2559340D01*
X63043484Y-3283149D02*
X63195865Y-3283149D01*
X63272055Y-3245054D01*
X63310150Y-3206959D01*
X63386341Y-3092673D01*
X63424436Y-2940292D01*
X63424436Y-2635530D01*
X63386341Y-2559340D01*
X63348245Y-2521245D01*
X63272055Y-2483149D01*
X63119674Y-2483149D01*
X63043484Y-2521245D01*
X63005388Y-2559340D01*
X62967293Y-2635530D01*
X62967293Y-2826006D01*
X63005388Y-2902197D01*
X63043484Y-2940292D01*
X63119674Y-2978387D01*
X63272055Y-2978387D01*
X63348245Y-2940292D01*
X63386341Y-2902197D01*
X63424436Y-2826006D01*
G04 #@! TO.C,R16*
X32585714Y-4861904D02*
X32319047Y-4480952D01*
X32128571Y-4861904D02*
X32128571Y-4061904D01*
X32433333Y-4061904D01*
X32509523Y-4100000D01*
X32547619Y-4138095D01*
X32585714Y-4214285D01*
X32585714Y-4328571D01*
X32547619Y-4404761D01*
X32509523Y-4442857D01*
X32433333Y-4480952D01*
X32128571Y-4480952D01*
X33347619Y-4861904D02*
X32890476Y-4861904D01*
X33119047Y-4861904D02*
X33119047Y-4061904D01*
X33042857Y-4176190D01*
X32966666Y-4252380D01*
X32890476Y-4290476D01*
X34033333Y-4061904D02*
X33880952Y-4061904D01*
X33804761Y-4100000D01*
X33766666Y-4138095D01*
X33690476Y-4252380D01*
X33652380Y-4404761D01*
X33652380Y-4709523D01*
X33690476Y-4785714D01*
X33728571Y-4823809D01*
X33804761Y-4861904D01*
X33957142Y-4861904D01*
X34033333Y-4823809D01*
X34071428Y-4785714D01*
X34109523Y-4709523D01*
X34109523Y-4519047D01*
X34071428Y-4442857D01*
X34033333Y-4404761D01*
X33957142Y-4366666D01*
X33804761Y-4366666D01*
X33728571Y-4404761D01*
X33690476Y-4442857D01*
X33652380Y-4519047D01*
D11*
G04 #@! TO.C,R10*
X28246359Y580000D02*
X28553641Y580000D01*
X28246359Y-180000D02*
X28553641Y-180000D01*
G04 #@! TO.C,C21*
X40916154Y-1245490D02*
X41068657Y-1092987D01*
X40407037Y-736373D02*
X40559540Y-583870D01*
G04 #@! TO.C,OLED1*
X57504966Y-4406671D02*
X54104966Y-4406671D01*
X57504966Y4393329D02*
X63804966Y4393329D01*
X57504966Y4393329D02*
X54104966Y4393329D01*
X60804966Y4393329D02*
X60804966Y-4406671D01*
X63804966Y-4406671D02*
X63804966Y4393329D01*
X54104966Y-4406671D02*
X54104966Y4393329D01*
X63804966Y-4406671D02*
X57504966Y-4406671D01*
X57504966Y-4406671D02*
X57504966Y4393329D01*
X58004966Y-4706671D02*
G75*
G03*
X58004966Y-4706671I-100000J0D01*
G01*
G04 #@! TO.C,SW1*
X65510016Y906016D02*
X65410016Y906016D01*
X64110016Y4106016D02*
X64110016Y906016D01*
X66910016Y906016D02*
X66910016Y4106016D01*
X65560016Y4106016D02*
X65460016Y4106016D01*
G04 #@! TO.C,R17*
X30746359Y-1816942D02*
X31053641Y-1816942D01*
X30746359Y-2576942D02*
X31053641Y-2576942D01*
G04 #@! TO.C,C8*
X63007836Y4380232D02*
X62792164Y4380232D01*
X63007836Y3660232D02*
X62792164Y3660232D01*
G04 #@! TO.C,C12*
X46653709Y3209277D02*
X46653709Y2993605D01*
X45933709Y3209277D02*
X45933709Y2993605D01*
G04 #@! TO.C,C5*
X34440000Y-807836D02*
X34440000Y-592164D01*
X35160000Y-807836D02*
X35160000Y-592164D01*
G04 #@! TO.C,C20*
X52789290Y-3160000D02*
X53004962Y-3160000D01*
X52789290Y-2440000D02*
X53004962Y-2440000D01*
G04 #@! TO.C,C24*
X25007836Y3660000D02*
X24792164Y3660000D01*
X25007836Y2940000D02*
X24792164Y2940000D01*
D10*
G04 #@! TO.C,U8*
X40647498Y3000000D02*
X40647498Y1000000D01*
X42847498Y2000000D02*
X42847498Y1000000D01*
D11*
G04 #@! TO.C,R12*
X28246359Y-920000D02*
X28553641Y-920000D01*
X28246359Y-1680000D02*
X28553641Y-1680000D01*
G04 #@! TO.C,SW2*
X66903905Y-4100000D02*
X66903905Y-900000D01*
X65503905Y-4100000D02*
X65403905Y-4100000D01*
X65553905Y-900000D02*
X65453905Y-900000D01*
X64103905Y-900000D02*
X64103905Y-4100000D01*
G04 #@! TO.C,C26*
X52292164Y2740000D02*
X52507836Y2740000D01*
X52292164Y3460000D02*
X52507836Y3460000D01*
G04 #@! TO.C,J2*
X400000Y-3100000D02*
X400000Y-2600000D01*
X4400000Y-3100000D02*
X4400000Y-5100000D01*
X6600000Y3100000D02*
X15600000Y3100000D01*
X1600000Y-3100000D02*
X1600000Y-5100000D01*
X-2100000Y2600000D02*
X400000Y2600000D01*
X400000Y3100000D02*
X700000Y3100000D01*
X15600000Y3100000D02*
X15600000Y2350000D01*
X400000Y-2600000D02*
X-2100000Y-2600000D01*
X15600000Y-850000D02*
X15600000Y-3100000D01*
X11100000Y-3100000D02*
X4400000Y-3100000D01*
X15600000Y-3100000D02*
X14500000Y-3100000D01*
X1600000Y-3100000D02*
X400000Y-3100000D01*
X400000Y2600000D02*
X400000Y3100000D01*
X-2100000Y-2600000D02*
X-2100000Y2600000D01*
G04 #@! TO.C,R18*
X32937779Y-2587487D02*
X33245061Y-2587487D01*
X32937779Y-1827487D02*
X33245061Y-1827487D01*
G04 #@! TO.C,D3*
X21060000Y-3080000D02*
X21060000Y1900000D01*
X18340000Y-3080000D02*
X21060000Y-3080000D01*
X18340000Y-3080000D02*
X18340000Y1900000D01*
G04 #@! TO.C,U6*
X26510000Y-1835000D02*
X26510000Y-2310000D01*
X26510000Y-2310000D02*
X26035000Y-2310000D01*
X26510000Y1910000D02*
X26035000Y1910000D01*
X22290000Y1435000D02*
X22290000Y1910000D01*
X22290000Y1910000D02*
X22765000Y1910000D01*
X26510000Y1435000D02*
X26510000Y1910000D01*
X22290000Y-1835000D02*
X22290000Y-2310000D01*
G04 #@! TO.C,R11*
X28246359Y-3120000D02*
X28553641Y-3120000D01*
X28246359Y-3880000D02*
X28553641Y-3880000D01*
G04 #@! TO.C,C13*
X49065199Y3198652D02*
X49065199Y2982980D01*
X48345199Y3198652D02*
X48345199Y2982980D01*
G04 #@! TO.C,C23*
X28507836Y-2760000D02*
X28292164Y-2760000D01*
X28507836Y-2040000D02*
X28292164Y-2040000D01*
G04 #@! TO.C,C30*
X30560000Y157836D02*
X30560000Y-57836D01*
X29840000Y157836D02*
X29840000Y-57836D01*
G04 #@! TO.C,R13*
X52246359Y1720000D02*
X52553641Y1720000D01*
X52246359Y2480000D02*
X52553641Y2480000D01*
G04 #@! TO.C,U7*
X31710396Y-1261213D02*
X33110396Y-1261213D01*
X33110396Y1058787D02*
X31210396Y1058787D01*
G04 #@! TO.C,C25*
X28507836Y1660000D02*
X28292164Y1660000D01*
X28507836Y940000D02*
X28292164Y940000D01*
G04 #@! TO.C,U3*
X63660000Y-700000D02*
X63660000Y1200000D01*
X61340000Y700000D02*
X61340000Y-700000D01*
G04 #@! TO.C,C32*
X34440000Y1607836D02*
X34440000Y1392164D01*
X35160000Y1607836D02*
X35160000Y1392164D01*
G04 #@! TO.C,R14*
X31558435Y3580000D02*
X31865717Y3580000D01*
X31558435Y2820000D02*
X31865717Y2820000D01*
G04 #@! TO.C,C31*
X31005717Y-3037652D02*
X30790045Y-3037652D01*
X31005717Y-3757652D02*
X30790045Y-3757652D01*
G04 #@! TO.C,C19*
X52940924Y-1212635D02*
X52940924Y-996963D01*
X53660924Y-1212635D02*
X53660924Y-996963D01*
G04 #@! TO.C,C29*
X40307498Y2107836D02*
X40307498Y1892164D01*
X39587498Y2107836D02*
X39587498Y1892164D01*
G04 #@! TO.C,C17*
X53012580Y-3440000D02*
X52796908Y-3440000D01*
X53012580Y-4160000D02*
X52796908Y-4160000D01*
G04 #@! TO.C,C27*
X52292164Y3740000D02*
X52507836Y3740000D01*
X52292164Y4460000D02*
X52507836Y4460000D01*
D12*
G04 #@! TO.C,U2*
X38450000Y120000D02*
X38450000Y-600000D01*
X38450000Y-600000D02*
X38230000Y-600000D01*
X35750000Y2600000D02*
X35750000Y1880000D01*
X35750000Y-600000D02*
X35750000Y120000D01*
X38450000Y2700000D02*
X38450000Y1880000D01*
X35970000Y-600000D02*
X35750000Y-600000D01*
X35750000Y2600000D02*
X35970000Y2600000D01*
D11*
G04 #@! TO.C,Y1*
X42041421Y-532233D02*
X40132233Y-2441421D01*
X43667767Y-2158579D02*
X42041421Y-532233D01*
G04 #@! TO.C,R15*
X30853641Y1620000D02*
X30546359Y1620000D01*
X30853641Y2380000D02*
X30546359Y2380000D01*
G04 #@! TO.C,C28*
X33107836Y1640000D02*
X32892164Y1640000D01*
X33107836Y2360000D02*
X32892164Y2360000D01*
G04 #@! TO.C,C22*
X40764308Y-3369190D02*
X40916811Y-3521693D01*
X40255191Y-3878307D02*
X40407694Y-4030810D01*
G04 #@! TO.C,C14*
X47073012Y-2159372D02*
X47288684Y-2159372D01*
X47073012Y-2879372D02*
X47288684Y-2879372D01*
G04 #@! TO.C,C9*
X62903701Y-3661245D02*
X62688029Y-3661245D01*
X62903701Y-4381245D02*
X62688029Y-4381245D01*
G04 #@! TO.C,R16*
X33253641Y-3775540D02*
X32946359Y-3775540D01*
X33253641Y-3015540D02*
X32946359Y-3015540D01*
G04 #@! TD*
M02*
