G04 #@! TF.GenerationSoftware,KiCad,Pcbnew,(5.99.0-4092-g1ee3df61c)*
G04 #@! TF.CreationDate,2020-10-21T22:32:43-07:00*
G04 #@! TF.ProjectId,RT_USB_PD_Soldering_Iron,52545f55-5342-45f5-9044-5f536f6c6465,rev?*
G04 #@! TF.SameCoordinates,PX5f5e100PY7735940*
G04 #@! TF.FileFunction,Legend,Bot*
G04 #@! TF.FilePolarity,Positive*
%FSLAX46Y46*%
G04 Gerber Fmt 4.6, Leading zero omitted, Abs format (unit mm)*
G04 Created by KiCad (PCBNEW (5.99.0-4092-g1ee3df61c)) date 2020-10-21 22:32:43*
%MOMM*%
%LPD*%
G01*
G04 APERTURE LIST*
%ADD10C,0.200000*%
%ADD11C,0.150000*%
%ADD12C,0.120000*%
G04 APERTURE END LIST*
D10*
X47700000Y-3900000D02*
G75*
G03*
X47700000Y-3900000I-100000J0D01*
G01*
X64200000Y1700000D02*
G75*
G03*
X64200000Y1700000I-100000J0D01*
G01*
D11*
G04 #@! TO.C,J3*
X55333333Y4647620D02*
X55333333Y3933334D01*
X55380952Y3790477D01*
X55476190Y3695239D01*
X55619047Y3647620D01*
X55714285Y3647620D01*
X54952380Y4647620D02*
X54333333Y4647620D01*
X54666666Y4266667D01*
X54523809Y4266667D01*
X54428571Y4219048D01*
X54380952Y4171429D01*
X54333333Y4076191D01*
X54333333Y3838096D01*
X54380952Y3742858D01*
X54428571Y3695239D01*
X54523809Y3647620D01*
X54809523Y3647620D01*
X54904761Y3695239D01*
X54952380Y3742858D01*
G04 #@! TO.C,C16*
X21385714Y2414286D02*
X21423809Y2452381D01*
X21461904Y2566667D01*
X21461904Y2642858D01*
X21423809Y2757143D01*
X21347619Y2833334D01*
X21271428Y2871429D01*
X21119047Y2909524D01*
X21004761Y2909524D01*
X20852380Y2871429D01*
X20776190Y2833334D01*
X20700000Y2757143D01*
X20661904Y2642858D01*
X20661904Y2566667D01*
X20700000Y2452381D01*
X20738095Y2414286D01*
X21461904Y1652381D02*
X21461904Y2109524D01*
X21461904Y1880953D02*
X20661904Y1880953D01*
X20776190Y1957143D01*
X20852380Y2033334D01*
X20890476Y2109524D01*
X20661904Y966667D02*
X20661904Y1119048D01*
X20700000Y1195239D01*
X20738095Y1233334D01*
X20852380Y1309524D01*
X21004761Y1347620D01*
X21309523Y1347620D01*
X21385714Y1309524D01*
X21423809Y1271429D01*
X21461904Y1195239D01*
X21461904Y1042858D01*
X21423809Y966667D01*
X21385714Y928572D01*
X21309523Y890477D01*
X21119047Y890477D01*
X21042857Y928572D01*
X21004761Y966667D01*
X20966666Y1042858D01*
X20966666Y1195239D01*
X21004761Y1271429D01*
X21042857Y1309524D01*
X21119047Y1347620D01*
G04 #@! TO.C,C1*
X67285714Y-1566666D02*
X67323809Y-1528571D01*
X67361904Y-1414285D01*
X67361904Y-1338095D01*
X67323809Y-1223809D01*
X67247619Y-1147619D01*
X67171428Y-1109523D01*
X67019047Y-1071428D01*
X66904761Y-1071428D01*
X66752380Y-1109523D01*
X66676190Y-1147619D01*
X66600000Y-1223809D01*
X66561904Y-1338095D01*
X66561904Y-1414285D01*
X66600000Y-1528571D01*
X66638095Y-1566666D01*
X67361904Y-2328571D02*
X67361904Y-1871428D01*
X67361904Y-2100000D02*
X66561904Y-2100000D01*
X66676190Y-2023809D01*
X66752380Y-1947619D01*
X66790476Y-1871428D01*
G04 #@! TO.C,R4*
X33638095Y-2928811D02*
X34019047Y-3195478D01*
X33638095Y-3385954D02*
X34438095Y-3385954D01*
X34438095Y-3081192D01*
X34400000Y-3005001D01*
X34361904Y-2966906D01*
X34285714Y-2928811D01*
X34171428Y-2928811D01*
X34095238Y-2966906D01*
X34057142Y-3005001D01*
X34019047Y-3081192D01*
X34019047Y-3385954D01*
X34171428Y-2243097D02*
X33638095Y-2243097D01*
X34476190Y-2433573D02*
X33904761Y-2624049D01*
X33904761Y-2128811D01*
G04 #@! TO.C,U1*
X64237036Y-2218714D02*
X64237036Y-2866333D01*
X64198941Y-2942524D01*
X64160846Y-2980619D01*
X64084655Y-3018714D01*
X63932274Y-3018714D01*
X63856084Y-2980619D01*
X63817989Y-2942524D01*
X63779893Y-2866333D01*
X63779893Y-2218714D01*
X62979893Y-3018714D02*
X63437036Y-3018714D01*
X63208465Y-3018714D02*
X63208465Y-2218714D01*
X63284655Y-2333000D01*
X63360846Y-2409190D01*
X63437036Y-2447286D01*
G04 #@! TO.C,C18*
X57914285Y-2814285D02*
X57876190Y-2852380D01*
X57838095Y-2966666D01*
X57838095Y-3042857D01*
X57876190Y-3157142D01*
X57952380Y-3233333D01*
X58028571Y-3271428D01*
X58180952Y-3309523D01*
X58295238Y-3309523D01*
X58447619Y-3271428D01*
X58523809Y-3233333D01*
X58600000Y-3157142D01*
X58638095Y-3042857D01*
X58638095Y-2966666D01*
X58600000Y-2852380D01*
X58561904Y-2814285D01*
X57838095Y-2052380D02*
X57838095Y-2509523D01*
X57838095Y-2280952D02*
X58638095Y-2280952D01*
X58523809Y-2357142D01*
X58447619Y-2433333D01*
X58409523Y-2509523D01*
X58295238Y-1595238D02*
X58333333Y-1671428D01*
X58371428Y-1709523D01*
X58447619Y-1747619D01*
X58485714Y-1747619D01*
X58561904Y-1709523D01*
X58600000Y-1671428D01*
X58638095Y-1595238D01*
X58638095Y-1442857D01*
X58600000Y-1366666D01*
X58561904Y-1328571D01*
X58485714Y-1290476D01*
X58447619Y-1290476D01*
X58371428Y-1328571D01*
X58333333Y-1366666D01*
X58295238Y-1442857D01*
X58295238Y-1595238D01*
X58257142Y-1671428D01*
X58219047Y-1709523D01*
X58142857Y-1747619D01*
X57990476Y-1747619D01*
X57914285Y-1709523D01*
X57876190Y-1671428D01*
X57838095Y-1595238D01*
X57838095Y-1442857D01*
X57876190Y-1366666D01*
X57914285Y-1328571D01*
X57990476Y-1290476D01*
X58142857Y-1290476D01*
X58219047Y-1328571D01*
X58257142Y-1366666D01*
X58295238Y-1442857D01*
G04 #@! TO.C,C2*
X59314285Y2266667D02*
X59276190Y2228572D01*
X59238095Y2114286D01*
X59238095Y2038096D01*
X59276190Y1923810D01*
X59352380Y1847620D01*
X59428571Y1809524D01*
X59580952Y1771429D01*
X59695238Y1771429D01*
X59847619Y1809524D01*
X59923809Y1847620D01*
X60000000Y1923810D01*
X60038095Y2038096D01*
X60038095Y2114286D01*
X60000000Y2228572D01*
X59961904Y2266667D01*
X59961904Y2571429D02*
X60000000Y2609524D01*
X60038095Y2685715D01*
X60038095Y2876191D01*
X60000000Y2952381D01*
X59961904Y2990477D01*
X59885714Y3028572D01*
X59809523Y3028572D01*
X59695238Y2990477D01*
X59238095Y2533334D01*
X59238095Y3028572D01*
G04 #@! TO.C,C3*
X60345276Y-3782029D02*
X60383371Y-3820124D01*
X60497657Y-3858219D01*
X60573847Y-3858219D01*
X60688133Y-3820124D01*
X60764323Y-3743934D01*
X60802419Y-3667743D01*
X60840514Y-3515362D01*
X60840514Y-3401076D01*
X60802419Y-3248695D01*
X60764323Y-3172505D01*
X60688133Y-3096315D01*
X60573847Y-3058219D01*
X60497657Y-3058219D01*
X60383371Y-3096315D01*
X60345276Y-3134410D01*
X60078609Y-3058219D02*
X59583371Y-3058219D01*
X59850038Y-3362981D01*
X59735752Y-3362981D01*
X59659562Y-3401076D01*
X59621466Y-3439172D01*
X59583371Y-3515362D01*
X59583371Y-3705838D01*
X59621466Y-3782029D01*
X59659562Y-3820124D01*
X59735752Y-3858219D01*
X59964323Y-3858219D01*
X60040514Y-3820124D01*
X60078609Y-3782029D01*
G04 #@! TO.C,C15*
X28314285Y-3085714D02*
X28352380Y-3123809D01*
X28466666Y-3161904D01*
X28542857Y-3161904D01*
X28657142Y-3123809D01*
X28733333Y-3047619D01*
X28771428Y-2971428D01*
X28809523Y-2819047D01*
X28809523Y-2704761D01*
X28771428Y-2552380D01*
X28733333Y-2476190D01*
X28657142Y-2400000D01*
X28542857Y-2361904D01*
X28466666Y-2361904D01*
X28352380Y-2400000D01*
X28314285Y-2438095D01*
X27552380Y-3161904D02*
X28009523Y-3161904D01*
X27780952Y-3161904D02*
X27780952Y-2361904D01*
X27857142Y-2476190D01*
X27933333Y-2552380D01*
X28009523Y-2590476D01*
X26828571Y-2361904D02*
X27209523Y-2361904D01*
X27247619Y-2742857D01*
X27209523Y-2704761D01*
X27133333Y-2666666D01*
X26942857Y-2666666D01*
X26866666Y-2704761D01*
X26828571Y-2742857D01*
X26790476Y-2819047D01*
X26790476Y-3009523D01*
X26828571Y-3085714D01*
X26866666Y-3123809D01*
X26942857Y-3161904D01*
X27133333Y-3161904D01*
X27209523Y-3123809D01*
X27247619Y-3085714D01*
G04 #@! TO.C,R2*
X39061904Y-2666666D02*
X38680952Y-2400000D01*
X39061904Y-2209523D02*
X38261904Y-2209523D01*
X38261904Y-2514285D01*
X38300000Y-2590476D01*
X38338095Y-2628571D01*
X38414285Y-2666666D01*
X38528571Y-2666666D01*
X38604761Y-2628571D01*
X38642857Y-2590476D01*
X38680952Y-2514285D01*
X38680952Y-2209523D01*
X38338095Y-2971428D02*
X38300000Y-3009523D01*
X38261904Y-3085714D01*
X38261904Y-3276190D01*
X38300000Y-3352380D01*
X38338095Y-3390476D01*
X38414285Y-3428571D01*
X38490476Y-3428571D01*
X38604761Y-3390476D01*
X39061904Y-2933333D01*
X39061904Y-3428571D01*
G04 #@! TO.C,U5*
X46940778Y-4321218D02*
X46482842Y-4779154D01*
X46402030Y-4806091D01*
X46348155Y-4806091D01*
X46267343Y-4779154D01*
X46159593Y-4671404D01*
X46132656Y-4590592D01*
X46132656Y-4536717D01*
X46159593Y-4455905D01*
X46617529Y-3997969D01*
X46078781Y-3459221D02*
X46348155Y-3728595D01*
X46105719Y-4024906D01*
X46105719Y-3971032D01*
X46078781Y-3890219D01*
X45944094Y-3755532D01*
X45863282Y-3728595D01*
X45809407Y-3728595D01*
X45728595Y-3755532D01*
X45593908Y-3890219D01*
X45566971Y-3971032D01*
X45566971Y-4024906D01*
X45593908Y-4105719D01*
X45728595Y-4240406D01*
X45809407Y-4267343D01*
X45863282Y-4267343D01*
G04 #@! TO.C,C33*
X67285714Y2214286D02*
X67323809Y2252381D01*
X67361904Y2366667D01*
X67361904Y2442858D01*
X67323809Y2557143D01*
X67247619Y2633334D01*
X67171428Y2671429D01*
X67019047Y2709524D01*
X66904761Y2709524D01*
X66752380Y2671429D01*
X66676190Y2633334D01*
X66600000Y2557143D01*
X66561904Y2442858D01*
X66561904Y2366667D01*
X66600000Y2252381D01*
X66638095Y2214286D01*
X66561904Y1947620D02*
X66561904Y1452381D01*
X66866666Y1719048D01*
X66866666Y1604762D01*
X66904761Y1528572D01*
X66942857Y1490477D01*
X67019047Y1452381D01*
X67209523Y1452381D01*
X67285714Y1490477D01*
X67323809Y1528572D01*
X67361904Y1604762D01*
X67361904Y1833334D01*
X67323809Y1909524D01*
X67285714Y1947620D01*
X66561904Y1185715D02*
X66561904Y690477D01*
X66866666Y957143D01*
X66866666Y842858D01*
X66904761Y766667D01*
X66942857Y728572D01*
X67019047Y690477D01*
X67209523Y690477D01*
X67285714Y728572D01*
X67323809Y766667D01*
X67361904Y842858D01*
X67361904Y1071429D01*
X67323809Y1147620D01*
X67285714Y1185715D01*
G04 #@! TO.C,D2*
X25290476Y3138096D02*
X25290476Y3938096D01*
X25100000Y3938096D01*
X24985714Y3900000D01*
X24909523Y3823810D01*
X24871428Y3747620D01*
X24833333Y3595239D01*
X24833333Y3480953D01*
X24871428Y3328572D01*
X24909523Y3252381D01*
X24985714Y3176191D01*
X25100000Y3138096D01*
X25290476Y3138096D01*
X24528571Y3861905D02*
X24490476Y3900000D01*
X24414285Y3938096D01*
X24223809Y3938096D01*
X24147619Y3900000D01*
X24109523Y3861905D01*
X24071428Y3785715D01*
X24071428Y3709524D01*
X24109523Y3595239D01*
X24566666Y3138096D01*
X24071428Y3138096D01*
G04 #@! TO.C,C4*
X36686387Y-863741D02*
X36724482Y-825646D01*
X36762577Y-711360D01*
X36762577Y-635170D01*
X36724482Y-520884D01*
X36648292Y-444694D01*
X36572101Y-406598D01*
X36419720Y-368503D01*
X36305434Y-368503D01*
X36153053Y-406598D01*
X36076863Y-444694D01*
X36000673Y-520884D01*
X35962577Y-635170D01*
X35962577Y-711360D01*
X36000673Y-825646D01*
X36038768Y-863741D01*
X36229244Y-1549455D02*
X36762577Y-1549455D01*
X35924482Y-1358979D02*
X36495911Y-1168503D01*
X36495911Y-1663741D01*
D12*
G04 #@! TO.C,J3*
X57015000Y-1765000D02*
X56950000Y-1765000D01*
X57015000Y1765000D02*
X56950000Y1765000D01*
X53150000Y1765000D02*
X53085000Y1765000D01*
X57015000Y-1765000D02*
X57015000Y1765000D01*
X56950000Y-3090000D02*
X56950000Y-1765000D01*
X53085000Y-1765000D02*
X53085000Y1765000D01*
X53150000Y-1765000D02*
X53085000Y-1765000D01*
G04 #@! TO.C,C16*
X20210000Y928733D02*
X20210000Y1271267D01*
X19190000Y928733D02*
X19190000Y1271267D01*
G04 #@! TO.C,C1*
X65190000Y-1871267D02*
X65190000Y-1528733D01*
X66210000Y-1871267D02*
X66210000Y-1528733D01*
G04 #@! TO.C,R4*
X34700000Y-2100000D02*
X34700000Y-3500000D01*
X35500000Y-2100000D02*
X35500000Y-3500000D01*
G04 #@! TO.C,U1*
X62728453Y1407193D02*
X64528453Y1407193D01*
X62728453Y-1712807D02*
X63528453Y-1712807D01*
X62728453Y-1712807D02*
X61928453Y-1712807D01*
X62728453Y1407193D02*
X61928453Y1407193D01*
G04 #@! TO.C,C18*
X58600000Y500000D02*
X58600000Y-900000D01*
X57800000Y500000D02*
X57800000Y-900000D01*
G04 #@! TO.C,C2*
X59075706Y65541D02*
X59075706Y-276993D01*
X60095706Y65541D02*
X60095706Y-276993D01*
G04 #@! TO.C,C3*
X60911943Y-1996315D02*
X59511943Y-1996315D01*
X60911943Y-2796315D02*
X59511943Y-2796315D01*
G04 #@! TO.C,C15*
X24428733Y-3310000D02*
X24771267Y-3310000D01*
X24428733Y-2290000D02*
X24771267Y-2290000D01*
G04 #@! TO.C,R2*
X38000000Y-3500000D02*
X38000000Y-2100000D01*
X37200000Y-3500000D02*
X37200000Y-2100000D01*
G04 #@! TO.C,U5*
X50891097Y0D02*
X50555222Y335876D01*
X50555222Y-335876D02*
X50891097Y0D01*
X47535876Y-3355222D02*
X47200000Y-3691097D01*
X43844778Y335876D02*
X43508903Y0D01*
X46864124Y3355222D02*
X47200000Y3691097D01*
X43508903Y0D02*
X43844778Y-335876D01*
X47200000Y3691097D02*
X47535876Y3355222D01*
G04 #@! TO.C,C33*
X66210000Y1871267D02*
X66210000Y1528733D01*
X65190000Y1871267D02*
X65190000Y1528733D01*
G04 #@! TO.C,D2*
X25700000Y2810000D02*
X25200000Y2810000D01*
X25700000Y1790000D02*
X25200000Y1790000D01*
X25700000Y2800000D02*
X25700000Y1800000D01*
G04 #@! TO.C,C4*
X36800000Y-3500000D02*
X36800000Y-2100000D01*
X36000000Y-3500000D02*
X36000000Y-2100000D01*
G04 #@! TD*
M02*
