G04 #@! TF.GenerationSoftware,KiCad,Pcbnew,(5.99.0-3477-gacf13a186)*
G04 #@! TF.CreationDate,2020-09-24T13:16:25-07:00*
G04 #@! TF.ProjectId,RT_USB_PD_Soldering_Iron,52545f55-5342-45f5-9044-5f536f6c6465,rev?*
G04 #@! TF.SameCoordinates,Original*
G04 #@! TF.FileFunction,Copper,L4,Bot*
G04 #@! TF.FilePolarity,Positive*
%FSLAX46Y46*%
G04 Gerber Fmt 4.6, Leading zero omitted, Abs format (unit mm)*
G04 Created by KiCad (PCBNEW (5.99.0-3477-gacf13a186)) date 2020-09-24 13:16:25*
%MOMM*%
%LPD*%
G01*
G04 APERTURE LIST*
G04 #@! TA.AperFunction,ComponentPad*
%ADD10O,2.100000X1.000000*%
G04 #@! TD*
G04 #@! TA.AperFunction,ComponentPad*
%ADD11O,1.800000X1.000000*%
G04 #@! TD*
G04 #@! TA.AperFunction,SMDPad,CuDef*
%ADD12R,2.200000X2.100000*%
G04 #@! TD*
G04 #@! TA.AperFunction,SMDPad,CuDef*
%ADD13R,2.800000X2.100000*%
G04 #@! TD*
G04 #@! TA.AperFunction,SMDPad,CuDef*
%ADD14R,2.600000X2.700000*%
G04 #@! TD*
G04 #@! TA.AperFunction,SMDPad,CuDef*
%ADD15R,2.400000X0.740000*%
G04 #@! TD*
G04 #@! TA.AperFunction,ViaPad*
%ADD16C,0.700000*%
G04 #@! TD*
G04 #@! TA.AperFunction,ViaPad*
%ADD17C,1.000000*%
G04 #@! TD*
G04 #@! TA.AperFunction,ViaPad*
%ADD18C,0.800000*%
G04 #@! TD*
G04 #@! TA.AperFunction,Conductor*
%ADD19C,0.254000*%
G04 #@! TD*
G04 #@! TA.AperFunction,Conductor*
%ADD20C,1.400000*%
G04 #@! TD*
G04 #@! TA.AperFunction,Conductor*
%ADD21C,0.203200*%
G04 #@! TD*
G04 #@! TA.AperFunction,Conductor*
%ADD22C,0.300000*%
G04 #@! TD*
G04 #@! TA.AperFunction,Conductor*
%ADD23C,0.600000*%
G04 #@! TD*
G04 #@! TA.AperFunction,Conductor*
%ADD24C,0.500000*%
G04 #@! TD*
G04 #@! TA.AperFunction,Conductor*
%ADD25C,0.750000*%
G04 #@! TD*
G04 APERTURE END LIST*
D10*
G04 #@! TO.P,J1,S1,SHIELD*
G04 #@! TO.N,GND*
X193750000Y-120680000D03*
D11*
X197930000Y-120680000D03*
D10*
X193750000Y-129320000D03*
D11*
X197930000Y-129320000D03*
G04 #@! TD*
D12*
G04 #@! TO.P,J2,G*
G04 #@! TO.N,GND*
X102900000Y-129050000D03*
G04 #@! TO.P,J2,S*
G04 #@! TO.N,/TIP_TC*
X105300000Y-120950000D03*
G04 #@! TO.P,J2,SN*
X102100000Y-120950000D03*
D13*
G04 #@! TO.P,J2,T*
G04 #@! TO.N,/HEATER*
X112200000Y-129050000D03*
D14*
G04 #@! TO.P,J2,TN*
X116300000Y-124250000D03*
G04 #@! TD*
G04 #@! TO.P,C16,1*
G04 #@! TO.N,/HEATER*
G04 #@! TA.AperFunction,SMDPad,CuDef*
G36*
G01*
X120537500Y-125200000D02*
X120062500Y-125200000D01*
G75*
G02*
X119825000Y-124962500I0J237500D01*
G01*
X119825000Y-124387500D01*
G75*
G02*
X120062500Y-124150000I237500J0D01*
G01*
X120537500Y-124150000D01*
G75*
G02*
X120775000Y-124387500I0J-237500D01*
G01*
X120775000Y-124962500D01*
G75*
G02*
X120537500Y-125200000I-237500J0D01*
G01*
G37*
G04 #@! TD.AperFunction*
G04 #@! TO.P,C16,2*
G04 #@! TO.N,GND*
G04 #@! TA.AperFunction,SMDPad,CuDef*
G36*
G01*
X120537500Y-123450000D02*
X120062500Y-123450000D01*
G75*
G02*
X119825000Y-123212500I0J237500D01*
G01*
X119825000Y-122637500D01*
G75*
G02*
X120062500Y-122400000I237500J0D01*
G01*
X120537500Y-122400000D01*
G75*
G02*
X120775000Y-122637500I0J-237500D01*
G01*
X120775000Y-123212500D01*
G75*
G02*
X120537500Y-123450000I-237500J0D01*
G01*
G37*
G04 #@! TD.AperFunction*
G04 #@! TD*
G04 #@! TO.P,C1,1*
G04 #@! TO.N,IN*
G04 #@! TA.AperFunction,SMDPad,CuDef*
G36*
G01*
X189432515Y-126195724D02*
X188957515Y-126195724D01*
G75*
G02*
X188720015Y-125958224I0J237500D01*
G01*
X188720015Y-125383224D01*
G75*
G02*
X188957515Y-125145724I237500J0D01*
G01*
X189432515Y-125145724D01*
G75*
G02*
X189670015Y-125383224I0J-237500D01*
G01*
X189670015Y-125958224D01*
G75*
G02*
X189432515Y-126195724I-237500J0D01*
G01*
G37*
G04 #@! TD.AperFunction*
G04 #@! TO.P,C1,2*
G04 #@! TO.N,GND*
G04 #@! TA.AperFunction,SMDPad,CuDef*
G36*
G01*
X189432515Y-124445724D02*
X188957515Y-124445724D01*
G75*
G02*
X188720015Y-124208224I0J237500D01*
G01*
X188720015Y-123633224D01*
G75*
G02*
X188957515Y-123395724I237500J0D01*
G01*
X189432515Y-123395724D01*
G75*
G02*
X189670015Y-123633224I0J-237500D01*
G01*
X189670015Y-124208224D01*
G75*
G02*
X189432515Y-124445724I-237500J0D01*
G01*
G37*
G04 #@! TD.AperFunction*
G04 #@! TD*
D15*
G04 #@! TO.P,J3,1,Pin_1*
G04 #@! TO.N,/NRST*
X163750000Y-123330000D03*
G04 #@! TO.P,J3,2,Pin_2*
G04 #@! TO.N,/SWDIO*
X159850000Y-123330000D03*
G04 #@! TO.P,J3,3,Pin_3*
G04 #@! TO.N,GND*
X163750000Y-124600000D03*
G04 #@! TO.P,J3,4,Pin_4*
G04 #@! TO.N,/SWCLK*
X159850000Y-124600000D03*
G04 #@! TO.P,J3,5,Pin_5*
G04 #@! TO.N,+3V3*
X163750000Y-125870000D03*
G04 #@! TO.P,J3,6,Pin_6*
G04 #@! TO.N,/SWO*
X159850000Y-125870000D03*
G04 #@! TD*
G04 #@! TO.P,R6,1*
G04 #@! TO.N,+3V3*
G04 #@! TA.AperFunction,SMDPad,CuDef*
G36*
G01*
X173285110Y-123358571D02*
X173285110Y-123703571D01*
G75*
G02*
X173137610Y-123851071I-147500J0D01*
G01*
X172842610Y-123851071D01*
G75*
G02*
X172695110Y-123703571I0J147500D01*
G01*
X172695110Y-123358571D01*
G75*
G02*
X172842610Y-123211071I147500J0D01*
G01*
X173137610Y-123211071D01*
G75*
G02*
X173285110Y-123358571I0J-147500D01*
G01*
G37*
G04 #@! TD.AperFunction*
G04 #@! TO.P,R6,2*
G04 #@! TO.N,/I2C1_SCL*
G04 #@! TA.AperFunction,SMDPad,CuDef*
G36*
G01*
X172315110Y-123358571D02*
X172315110Y-123703571D01*
G75*
G02*
X172167610Y-123851071I-147500J0D01*
G01*
X171872610Y-123851071D01*
G75*
G02*
X171725110Y-123703571I0J147500D01*
G01*
X171725110Y-123358571D01*
G75*
G02*
X171872610Y-123211071I147500J0D01*
G01*
X172167610Y-123211071D01*
G75*
G02*
X172315110Y-123358571I0J-147500D01*
G01*
G37*
G04 #@! TD.AperFunction*
G04 #@! TD*
G04 #@! TO.P,C8,1*
G04 #@! TO.N,/BTN2*
G04 #@! TA.AperFunction,SMDPad,CuDef*
G36*
G01*
X176480000Y-120727500D02*
X176480000Y-121072500D01*
G75*
G02*
X176332500Y-121220000I-147500J0D01*
G01*
X176037500Y-121220000D01*
G75*
G02*
X175890000Y-121072500I0J147500D01*
G01*
X175890000Y-120727500D01*
G75*
G02*
X176037500Y-120580000I147500J0D01*
G01*
X176332500Y-120580000D01*
G75*
G02*
X176480000Y-120727500I0J-147500D01*
G01*
G37*
G04 #@! TD.AperFunction*
G04 #@! TO.P,C8,2*
G04 #@! TO.N,GND*
G04 #@! TA.AperFunction,SMDPad,CuDef*
G36*
G01*
X175510000Y-120727500D02*
X175510000Y-121072500D01*
G75*
G02*
X175362500Y-121220000I-147500J0D01*
G01*
X175067500Y-121220000D01*
G75*
G02*
X174920000Y-121072500I0J147500D01*
G01*
X174920000Y-120727500D01*
G75*
G02*
X175067500Y-120580000I147500J0D01*
G01*
X175362500Y-120580000D01*
G75*
G02*
X175510000Y-120727500I0J-147500D01*
G01*
G37*
G04 #@! TD.AperFunction*
G04 #@! TD*
G04 #@! TO.P,R4,1*
G04 #@! TO.N,/PVD_IN*
G04 #@! TA.AperFunction,SMDPad,CuDef*
G36*
G01*
X144472500Y-125580000D02*
X144127500Y-125580000D01*
G75*
G02*
X143980000Y-125432500I0J147500D01*
G01*
X143980000Y-125137500D01*
G75*
G02*
X144127500Y-124990000I147500J0D01*
G01*
X144472500Y-124990000D01*
G75*
G02*
X144620000Y-125137500I0J-147500D01*
G01*
X144620000Y-125432500D01*
G75*
G02*
X144472500Y-125580000I-147500J0D01*
G01*
G37*
G04 #@! TD.AperFunction*
G04 #@! TO.P,R4,2*
G04 #@! TO.N,GND*
G04 #@! TA.AperFunction,SMDPad,CuDef*
G36*
G01*
X144472500Y-124610000D02*
X144127500Y-124610000D01*
G75*
G02*
X143980000Y-124462500I0J147500D01*
G01*
X143980000Y-124167500D01*
G75*
G02*
X144127500Y-124020000I147500J0D01*
G01*
X144472500Y-124020000D01*
G75*
G02*
X144620000Y-124167500I0J-147500D01*
G01*
X144620000Y-124462500D01*
G75*
G02*
X144472500Y-124610000I-147500J0D01*
G01*
G37*
G04 #@! TD.AperFunction*
G04 #@! TD*
G04 #@! TO.P,U1,1,EN*
G04 #@! TO.N,Net-(R3-Pad2)*
G04 #@! TA.AperFunction,SMDPad,CuDef*
G36*
G01*
X187275000Y-128325000D02*
X187075000Y-128325000D01*
G75*
G02*
X186975000Y-128225000I0J100000D01*
G01*
X186975000Y-126800000D01*
G75*
G02*
X187075000Y-126700000I100000J0D01*
G01*
X187275000Y-126700000D01*
G75*
G02*
X187375000Y-126800000I0J-100000D01*
G01*
X187375000Y-128225000D01*
G75*
G02*
X187275000Y-128325000I-100000J0D01*
G01*
G37*
G04 #@! TD.AperFunction*
G04 #@! TO.P,U1,2,FLG*
G04 #@! TO.N,Net-(R1-Pad2)*
G04 #@! TA.AperFunction,SMDPad,CuDef*
G36*
G01*
X186625000Y-128325000D02*
X186425000Y-128325000D01*
G75*
G02*
X186325000Y-128225000I0J100000D01*
G01*
X186325000Y-126800000D01*
G75*
G02*
X186425000Y-126700000I100000J0D01*
G01*
X186625000Y-126700000D01*
G75*
G02*
X186725000Y-126800000I0J-100000D01*
G01*
X186725000Y-128225000D01*
G75*
G02*
X186625000Y-128325000I-100000J0D01*
G01*
G37*
G04 #@! TD.AperFunction*
G04 #@! TO.P,U1,3,IN*
G04 #@! TO.N,IN*
G04 #@! TA.AperFunction,SMDPad,CuDef*
G36*
G01*
X185975000Y-128325000D02*
X185775000Y-128325000D01*
G75*
G02*
X185675000Y-128225000I0J100000D01*
G01*
X185675000Y-126800000D01*
G75*
G02*
X185775000Y-126700000I100000J0D01*
G01*
X185975000Y-126700000D01*
G75*
G02*
X186075000Y-126800000I0J-100000D01*
G01*
X186075000Y-128225000D01*
G75*
G02*
X185975000Y-128325000I-100000J0D01*
G01*
G37*
G04 #@! TD.AperFunction*
G04 #@! TO.P,U1,4,OUT*
G04 #@! TO.N,+3V3*
G04 #@! TA.AperFunction,SMDPad,CuDef*
G36*
G01*
X185325000Y-128325000D02*
X185125000Y-128325000D01*
G75*
G02*
X185025000Y-128225000I0J100000D01*
G01*
X185025000Y-126800000D01*
G75*
G02*
X185125000Y-126700000I100000J0D01*
G01*
X185325000Y-126700000D01*
G75*
G02*
X185425000Y-126800000I0J-100000D01*
G01*
X185425000Y-128225000D01*
G75*
G02*
X185325000Y-128325000I-100000J0D01*
G01*
G37*
G04 #@! TD.AperFunction*
G04 #@! TO.P,U1,5,GND*
G04 #@! TO.N,GND*
G04 #@! TA.AperFunction,SMDPad,CuDef*
G36*
G01*
X185325000Y-124100000D02*
X185125000Y-124100000D01*
G75*
G02*
X185025000Y-124000000I0J100000D01*
G01*
X185025000Y-122575000D01*
G75*
G02*
X185125000Y-122475000I100000J0D01*
G01*
X185325000Y-122475000D01*
G75*
G02*
X185425000Y-122575000I0J-100000D01*
G01*
X185425000Y-124000000D01*
G75*
G02*
X185325000Y-124100000I-100000J0D01*
G01*
G37*
G04 #@! TD.AperFunction*
G04 #@! TO.P,U1,6,GND*
G04 #@! TA.AperFunction,SMDPad,CuDef*
G36*
G01*
X185975000Y-124100000D02*
X185775000Y-124100000D01*
G75*
G02*
X185675000Y-124000000I0J100000D01*
G01*
X185675000Y-122575000D01*
G75*
G02*
X185775000Y-122475000I100000J0D01*
G01*
X185975000Y-122475000D01*
G75*
G02*
X186075000Y-122575000I0J-100000D01*
G01*
X186075000Y-124000000D01*
G75*
G02*
X185975000Y-124100000I-100000J0D01*
G01*
G37*
G04 #@! TD.AperFunction*
G04 #@! TO.P,U1,7,GND*
G04 #@! TA.AperFunction,SMDPad,CuDef*
G36*
G01*
X186625000Y-124100000D02*
X186425000Y-124100000D01*
G75*
G02*
X186325000Y-124000000I0J100000D01*
G01*
X186325000Y-122575000D01*
G75*
G02*
X186425000Y-122475000I100000J0D01*
G01*
X186625000Y-122475000D01*
G75*
G02*
X186725000Y-122575000I0J-100000D01*
G01*
X186725000Y-124000000D01*
G75*
G02*
X186625000Y-124100000I-100000J0D01*
G01*
G37*
G04 #@! TD.AperFunction*
G04 #@! TO.P,U1,8,GND*
G04 #@! TA.AperFunction,SMDPad,CuDef*
G36*
G01*
X187275000Y-124100000D02*
X187075000Y-124100000D01*
G75*
G02*
X186975000Y-124000000I0J100000D01*
G01*
X186975000Y-122575000D01*
G75*
G02*
X187075000Y-122475000I100000J0D01*
G01*
X187275000Y-122475000D01*
G75*
G02*
X187375000Y-122575000I0J-100000D01*
G01*
X187375000Y-124000000D01*
G75*
G02*
X187275000Y-124100000I-100000J0D01*
G01*
G37*
G04 #@! TD.AperFunction*
G04 #@! TD*
G04 #@! TO.P,R1,1*
G04 #@! TO.N,IN*
G04 #@! TA.AperFunction,SMDPad,CuDef*
G36*
G01*
X190033023Y-127342002D02*
X190378023Y-127342002D01*
G75*
G02*
X190525523Y-127489502I0J-147500D01*
G01*
X190525523Y-127784502D01*
G75*
G02*
X190378023Y-127932002I-147500J0D01*
G01*
X190033023Y-127932002D01*
G75*
G02*
X189885523Y-127784502I0J147500D01*
G01*
X189885523Y-127489502D01*
G75*
G02*
X190033023Y-127342002I147500J0D01*
G01*
G37*
G04 #@! TD.AperFunction*
G04 #@! TO.P,R1,2*
G04 #@! TO.N,Net-(R1-Pad2)*
G04 #@! TA.AperFunction,SMDPad,CuDef*
G36*
G01*
X190033023Y-128312002D02*
X190378023Y-128312002D01*
G75*
G02*
X190525523Y-128459502I0J-147500D01*
G01*
X190525523Y-128754502D01*
G75*
G02*
X190378023Y-128902002I-147500J0D01*
G01*
X190033023Y-128902002D01*
G75*
G02*
X189885523Y-128754502I0J147500D01*
G01*
X189885523Y-128459502D01*
G75*
G02*
X190033023Y-128312002I147500J0D01*
G01*
G37*
G04 #@! TD.AperFunction*
G04 #@! TD*
G04 #@! TO.P,R18,1*
G04 #@! TO.N,Net-(R17-Pad2)*
G04 #@! TA.AperFunction,SMDPad,CuDef*
G36*
G01*
X134273046Y-125955988D02*
X133928046Y-125955988D01*
G75*
G02*
X133780546Y-125808488I0J147500D01*
G01*
X133780546Y-125513488D01*
G75*
G02*
X133928046Y-125365988I147500J0D01*
G01*
X134273046Y-125365988D01*
G75*
G02*
X134420546Y-125513488I0J-147500D01*
G01*
X134420546Y-125808488D01*
G75*
G02*
X134273046Y-125955988I-147500J0D01*
G01*
G37*
G04 #@! TD.AperFunction*
G04 #@! TO.P,R18,2*
G04 #@! TO.N,Net-(R16-Pad1)*
G04 #@! TA.AperFunction,SMDPad,CuDef*
G36*
G01*
X134273046Y-124985988D02*
X133928046Y-124985988D01*
G75*
G02*
X133780546Y-124838488I0J147500D01*
G01*
X133780546Y-124543488D01*
G75*
G02*
X133928046Y-124395988I147500J0D01*
G01*
X134273046Y-124395988D01*
G75*
G02*
X134420546Y-124543488I0J-147500D01*
G01*
X134420546Y-124838488D01*
G75*
G02*
X134273046Y-124985988I-147500J0D01*
G01*
G37*
G04 #@! TD.AperFunction*
G04 #@! TD*
G04 #@! TO.P,C18,1*
G04 #@! TO.N,+3V3*
G04 #@! TA.AperFunction,SMDPad,CuDef*
G36*
G01*
X170166287Y-126170807D02*
X169821287Y-126170807D01*
G75*
G02*
X169673787Y-126023307I0J147500D01*
G01*
X169673787Y-125728307D01*
G75*
G02*
X169821287Y-125580807I147500J0D01*
G01*
X170166287Y-125580807D01*
G75*
G02*
X170313787Y-125728307I0J-147500D01*
G01*
X170313787Y-126023307D01*
G75*
G02*
X170166287Y-126170807I-147500J0D01*
G01*
G37*
G04 #@! TD.AperFunction*
G04 #@! TO.P,C18,2*
G04 #@! TO.N,GND*
G04 #@! TA.AperFunction,SMDPad,CuDef*
G36*
G01*
X170166287Y-125200807D02*
X169821287Y-125200807D01*
G75*
G02*
X169673787Y-125053307I0J147500D01*
G01*
X169673787Y-124758307D01*
G75*
G02*
X169821287Y-124610807I147500J0D01*
G01*
X170166287Y-124610807D01*
G75*
G02*
X170313787Y-124758307I0J-147500D01*
G01*
X170313787Y-125053307D01*
G75*
G02*
X170166287Y-125200807I-147500J0D01*
G01*
G37*
G04 #@! TD.AperFunction*
G04 #@! TD*
G04 #@! TO.P,C2,1*
G04 #@! TO.N,+3V3*
G04 #@! TA.AperFunction,SMDPad,CuDef*
G36*
G01*
X183339318Y-126493809D02*
X182864318Y-126493809D01*
G75*
G02*
X182626818Y-126256309I0J237500D01*
G01*
X182626818Y-125681309D01*
G75*
G02*
X182864318Y-125443809I237500J0D01*
G01*
X183339318Y-125443809D01*
G75*
G02*
X183576818Y-125681309I0J-237500D01*
G01*
X183576818Y-126256309D01*
G75*
G02*
X183339318Y-126493809I-237500J0D01*
G01*
G37*
G04 #@! TD.AperFunction*
G04 #@! TO.P,C2,2*
G04 #@! TO.N,GND*
G04 #@! TA.AperFunction,SMDPad,CuDef*
G36*
G01*
X183339318Y-124743809D02*
X182864318Y-124743809D01*
G75*
G02*
X182626818Y-124506309I0J237500D01*
G01*
X182626818Y-123931309D01*
G75*
G02*
X182864318Y-123693809I237500J0D01*
G01*
X183339318Y-123693809D01*
G75*
G02*
X183576818Y-123931309I0J-237500D01*
G01*
X183576818Y-124506309D01*
G75*
G02*
X183339318Y-124743809I-237500J0D01*
G01*
G37*
G04 #@! TD.AperFunction*
G04 #@! TD*
G04 #@! TO.P,C6,1*
G04 #@! TO.N,+3V3*
G04 #@! TA.AperFunction,SMDPad,CuDef*
G36*
G01*
X176772500Y-125880000D02*
X176427500Y-125880000D01*
G75*
G02*
X176280000Y-125732500I0J147500D01*
G01*
X176280000Y-125437500D01*
G75*
G02*
X176427500Y-125290000I147500J0D01*
G01*
X176772500Y-125290000D01*
G75*
G02*
X176920000Y-125437500I0J-147500D01*
G01*
X176920000Y-125732500D01*
G75*
G02*
X176772500Y-125880000I-147500J0D01*
G01*
G37*
G04 #@! TD.AperFunction*
G04 #@! TO.P,C6,2*
G04 #@! TO.N,GND*
G04 #@! TA.AperFunction,SMDPad,CuDef*
G36*
G01*
X176772500Y-124910000D02*
X176427500Y-124910000D01*
G75*
G02*
X176280000Y-124762500I0J147500D01*
G01*
X176280000Y-124467500D01*
G75*
G02*
X176427500Y-124320000I147500J0D01*
G01*
X176772500Y-124320000D01*
G75*
G02*
X176920000Y-124467500I0J-147500D01*
G01*
X176920000Y-124762500D01*
G75*
G02*
X176772500Y-124910000I-147500J0D01*
G01*
G37*
G04 #@! TD.AperFunction*
G04 #@! TD*
G04 #@! TO.P,C7,1*
G04 #@! TO.N,+3V3*
G04 #@! TA.AperFunction,SMDPad,CuDef*
G36*
G01*
X175172500Y-125880000D02*
X174827500Y-125880000D01*
G75*
G02*
X174680000Y-125732500I0J147500D01*
G01*
X174680000Y-125437500D01*
G75*
G02*
X174827500Y-125290000I147500J0D01*
G01*
X175172500Y-125290000D01*
G75*
G02*
X175320000Y-125437500I0J-147500D01*
G01*
X175320000Y-125732500D01*
G75*
G02*
X175172500Y-125880000I-147500J0D01*
G01*
G37*
G04 #@! TD.AperFunction*
G04 #@! TO.P,C7,2*
G04 #@! TO.N,GND*
G04 #@! TA.AperFunction,SMDPad,CuDef*
G36*
G01*
X175172500Y-124910000D02*
X174827500Y-124910000D01*
G75*
G02*
X174680000Y-124762500I0J147500D01*
G01*
X174680000Y-124467500D01*
G75*
G02*
X174827500Y-124320000I147500J0D01*
G01*
X175172500Y-124320000D01*
G75*
G02*
X175320000Y-124467500I0J-147500D01*
G01*
X175320000Y-124762500D01*
G75*
G02*
X175172500Y-124910000I-147500J0D01*
G01*
G37*
G04 #@! TD.AperFunction*
G04 #@! TD*
G04 #@! TO.P,C10,1*
G04 #@! TO.N,Net-(C10-Pad1)*
G04 #@! TA.AperFunction,SMDPad,CuDef*
G36*
G01*
X180972500Y-125780000D02*
X180627500Y-125780000D01*
G75*
G02*
X180480000Y-125632500I0J147500D01*
G01*
X180480000Y-125337500D01*
G75*
G02*
X180627500Y-125190000I147500J0D01*
G01*
X180972500Y-125190000D01*
G75*
G02*
X181120000Y-125337500I0J-147500D01*
G01*
X181120000Y-125632500D01*
G75*
G02*
X180972500Y-125780000I-147500J0D01*
G01*
G37*
G04 #@! TD.AperFunction*
G04 #@! TO.P,C10,2*
G04 #@! TO.N,GND*
G04 #@! TA.AperFunction,SMDPad,CuDef*
G36*
G01*
X180972500Y-124810000D02*
X180627500Y-124810000D01*
G75*
G02*
X180480000Y-124662500I0J147500D01*
G01*
X180480000Y-124367500D01*
G75*
G02*
X180627500Y-124220000I147500J0D01*
G01*
X180972500Y-124220000D01*
G75*
G02*
X181120000Y-124367500I0J-147500D01*
G01*
X181120000Y-124662500D01*
G75*
G02*
X180972500Y-124810000I-147500J0D01*
G01*
G37*
G04 #@! TD.AperFunction*
G04 #@! TD*
G04 #@! TO.P,C15,1*
G04 #@! TO.N,IN*
G04 #@! TA.AperFunction,SMDPad,CuDef*
G36*
G01*
X124600000Y-128037500D02*
X124600000Y-127562500D01*
G75*
G02*
X124837500Y-127325000I237500J0D01*
G01*
X125412500Y-127325000D01*
G75*
G02*
X125650000Y-127562500I0J-237500D01*
G01*
X125650000Y-128037500D01*
G75*
G02*
X125412500Y-128275000I-237500J0D01*
G01*
X124837500Y-128275000D01*
G75*
G02*
X124600000Y-128037500I0J237500D01*
G01*
G37*
G04 #@! TD.AperFunction*
G04 #@! TO.P,C15,2*
G04 #@! TO.N,GND*
G04 #@! TA.AperFunction,SMDPad,CuDef*
G36*
G01*
X126350000Y-128037500D02*
X126350000Y-127562500D01*
G75*
G02*
X126587500Y-127325000I237500J0D01*
G01*
X127162500Y-127325000D01*
G75*
G02*
X127400000Y-127562500I0J-237500D01*
G01*
X127400000Y-128037500D01*
G75*
G02*
X127162500Y-128275000I-237500J0D01*
G01*
X126587500Y-128275000D01*
G75*
G02*
X126350000Y-128037500I0J237500D01*
G01*
G37*
G04 #@! TD.AperFunction*
G04 #@! TD*
G04 #@! TO.P,C19,1*
G04 #@! TO.N,+3V3*
G04 #@! TA.AperFunction,SMDPad,CuDef*
G36*
G01*
X168166642Y-126184455D02*
X167821642Y-126184455D01*
G75*
G02*
X167674142Y-126036955I0J147500D01*
G01*
X167674142Y-125741955D01*
G75*
G02*
X167821642Y-125594455I147500J0D01*
G01*
X168166642Y-125594455D01*
G75*
G02*
X168314142Y-125741955I0J-147500D01*
G01*
X168314142Y-126036955D01*
G75*
G02*
X168166642Y-126184455I-147500J0D01*
G01*
G37*
G04 #@! TD.AperFunction*
G04 #@! TO.P,C19,2*
G04 #@! TO.N,GND*
G04 #@! TA.AperFunction,SMDPad,CuDef*
G36*
G01*
X168166642Y-125214455D02*
X167821642Y-125214455D01*
G75*
G02*
X167674142Y-125066955I0J147500D01*
G01*
X167674142Y-124771955D01*
G75*
G02*
X167821642Y-124624455I147500J0D01*
G01*
X168166642Y-124624455D01*
G75*
G02*
X168314142Y-124771955I0J-147500D01*
G01*
X168314142Y-125066955D01*
G75*
G02*
X168166642Y-125214455I-147500J0D01*
G01*
G37*
G04 #@! TD.AperFunction*
G04 #@! TD*
G04 #@! TO.P,R2,1*
G04 #@! TO.N,IN*
G04 #@! TA.AperFunction,SMDPad,CuDef*
G36*
G01*
X142772500Y-128149784D02*
X142427500Y-128149784D01*
G75*
G02*
X142280000Y-128002284I0J147500D01*
G01*
X142280000Y-127707284D01*
G75*
G02*
X142427500Y-127559784I147500J0D01*
G01*
X142772500Y-127559784D01*
G75*
G02*
X142920000Y-127707284I0J-147500D01*
G01*
X142920000Y-128002284D01*
G75*
G02*
X142772500Y-128149784I-147500J0D01*
G01*
G37*
G04 #@! TD.AperFunction*
G04 #@! TO.P,R2,2*
G04 #@! TO.N,/PVD_IN*
G04 #@! TA.AperFunction,SMDPad,CuDef*
G36*
G01*
X142772500Y-127179784D02*
X142427500Y-127179784D01*
G75*
G02*
X142280000Y-127032284I0J147500D01*
G01*
X142280000Y-126737284D01*
G75*
G02*
X142427500Y-126589784I147500J0D01*
G01*
X142772500Y-126589784D01*
G75*
G02*
X142920000Y-126737284I0J-147500D01*
G01*
X142920000Y-127032284D01*
G75*
G02*
X142772500Y-127179784I-147500J0D01*
G01*
G37*
G04 #@! TD.AperFunction*
G04 #@! TD*
G04 #@! TO.P,U5,1,VDD*
G04 #@! TO.N,+3V3*
G04 #@! TA.AperFunction,SMDPad,CuDef*
G36*
G01*
X152248699Y-127814563D02*
X152160311Y-127726175D01*
G75*
G02*
X152160311Y-127637787I44194J44194D01*
G01*
X152690641Y-127107457D01*
G75*
G02*
X152779029Y-127107457I44194J-44194D01*
G01*
X152867417Y-127195845D01*
G75*
G02*
X152867417Y-127284233I-44194J-44194D01*
G01*
X152337087Y-127814563D01*
G75*
G02*
X152248699Y-127814563I-44194J44194D01*
G01*
G37*
G04 #@! TD.AperFunction*
G04 #@! TO.P,U5,2,PF0-OSC_IN*
G04 #@! TO.N,/OSC_IN*
G04 #@! TA.AperFunction,SMDPad,CuDef*
G36*
G01*
X151895146Y-127461009D02*
X151806758Y-127372621D01*
G75*
G02*
X151806758Y-127284233I44194J44194D01*
G01*
X152337088Y-126753903D01*
G75*
G02*
X152425476Y-126753903I44194J-44194D01*
G01*
X152513864Y-126842291D01*
G75*
G02*
X152513864Y-126930679I-44194J-44194D01*
G01*
X151983534Y-127461009D01*
G75*
G02*
X151895146Y-127461009I-44194J44194D01*
G01*
G37*
G04 #@! TD.AperFunction*
G04 #@! TO.P,U5,3,PF1-OSC_OUT*
G04 #@! TO.N,/OSC_OUT*
G04 #@! TA.AperFunction,SMDPad,CuDef*
G36*
G01*
X151541592Y-127107456D02*
X151453204Y-127019068D01*
G75*
G02*
X151453204Y-126930680I44194J44194D01*
G01*
X151983534Y-126400350D01*
G75*
G02*
X152071922Y-126400350I44194J-44194D01*
G01*
X152160310Y-126488738D01*
G75*
G02*
X152160310Y-126577126I-44194J-44194D01*
G01*
X151629980Y-127107456D01*
G75*
G02*
X151541592Y-127107456I-44194J44194D01*
G01*
G37*
G04 #@! TD.AperFunction*
G04 #@! TO.P,U5,4,PG10-NRST*
G04 #@! TO.N,/NRST*
G04 #@! TA.AperFunction,SMDPad,CuDef*
G36*
G01*
X151188039Y-126753902D02*
X151099651Y-126665514D01*
G75*
G02*
X151099651Y-126577126I44194J44194D01*
G01*
X151629981Y-126046796D01*
G75*
G02*
X151718369Y-126046796I44194J-44194D01*
G01*
X151806757Y-126135184D01*
G75*
G02*
X151806757Y-126223572I-44194J-44194D01*
G01*
X151276427Y-126753902D01*
G75*
G02*
X151188039Y-126753902I-44194J44194D01*
G01*
G37*
G04 #@! TD.AperFunction*
G04 #@! TO.P,U5,5,PA0*
G04 #@! TO.N,/TEMP_SENS*
G04 #@! TA.AperFunction,SMDPad,CuDef*
G36*
G01*
X150834486Y-126400349D02*
X150746098Y-126311961D01*
G75*
G02*
X150746098Y-126223573I44194J44194D01*
G01*
X151276428Y-125693243D01*
G75*
G02*
X151364816Y-125693243I44194J-44194D01*
G01*
X151453204Y-125781631D01*
G75*
G02*
X151453204Y-125870019I-44194J-44194D01*
G01*
X150922874Y-126400349D01*
G75*
G02*
X150834486Y-126400349I-44194J44194D01*
G01*
G37*
G04 #@! TD.AperFunction*
G04 #@! TO.P,U5,6,PA1*
G04 #@! TO.N,/VSENSE*
G04 #@! TA.AperFunction,SMDPad,CuDef*
G36*
G01*
X150480932Y-126046796D02*
X150392544Y-125958408D01*
G75*
G02*
X150392544Y-125870020I44194J44194D01*
G01*
X150922874Y-125339690D01*
G75*
G02*
X151011262Y-125339690I44194J-44194D01*
G01*
X151099650Y-125428078D01*
G75*
G02*
X151099650Y-125516466I-44194J-44194D01*
G01*
X150569320Y-126046796D01*
G75*
G02*
X150480932Y-126046796I-44194J44194D01*
G01*
G37*
G04 #@! TD.AperFunction*
G04 #@! TO.P,U5,7,PA2*
G04 #@! TO.N,/PVD_IN*
G04 #@! TA.AperFunction,SMDPad,CuDef*
G36*
G01*
X150127379Y-125693242D02*
X150038991Y-125604854D01*
G75*
G02*
X150038991Y-125516466I44194J44194D01*
G01*
X150569321Y-124986136D01*
G75*
G02*
X150657709Y-124986136I44194J-44194D01*
G01*
X150746097Y-125074524D01*
G75*
G02*
X150746097Y-125162912I-44194J-44194D01*
G01*
X150215767Y-125693242D01*
G75*
G02*
X150127379Y-125693242I-44194J44194D01*
G01*
G37*
G04 #@! TD.AperFunction*
G04 #@! TO.P,U5,8,PA3*
G04 #@! TO.N,/INT0*
G04 #@! TA.AperFunction,SMDPad,CuDef*
G36*
G01*
X149773825Y-125339689D02*
X149685437Y-125251301D01*
G75*
G02*
X149685437Y-125162913I44194J44194D01*
G01*
X150215767Y-124632583D01*
G75*
G02*
X150304155Y-124632583I44194J-44194D01*
G01*
X150392543Y-124720971D01*
G75*
G02*
X150392543Y-124809359I-44194J-44194D01*
G01*
X149862213Y-125339689D01*
G75*
G02*
X149773825Y-125339689I-44194J44194D01*
G01*
G37*
G04 #@! TD.AperFunction*
G04 #@! TO.P,U5,9,PA4*
G04 #@! TO.N,/SPI1_NSS*
G04 #@! TA.AperFunction,SMDPad,CuDef*
G36*
G01*
X150215767Y-124367417D02*
X149685437Y-123837087D01*
G75*
G02*
X149685437Y-123748699I44194J44194D01*
G01*
X149773825Y-123660311D01*
G75*
G02*
X149862213Y-123660311I44194J-44194D01*
G01*
X150392543Y-124190641D01*
G75*
G02*
X150392543Y-124279029I-44194J-44194D01*
G01*
X150304155Y-124367417D01*
G75*
G02*
X150215767Y-124367417I-44194J44194D01*
G01*
G37*
G04 #@! TD.AperFunction*
G04 #@! TO.P,U5,10,PA5*
G04 #@! TO.N,/SPI1_SCK*
G04 #@! TA.AperFunction,SMDPad,CuDef*
G36*
G01*
X150569321Y-124013864D02*
X150038991Y-123483534D01*
G75*
G02*
X150038991Y-123395146I44194J44194D01*
G01*
X150127379Y-123306758D01*
G75*
G02*
X150215767Y-123306758I44194J-44194D01*
G01*
X150746097Y-123837088D01*
G75*
G02*
X150746097Y-123925476I-44194J-44194D01*
G01*
X150657709Y-124013864D01*
G75*
G02*
X150569321Y-124013864I-44194J44194D01*
G01*
G37*
G04 #@! TD.AperFunction*
G04 #@! TO.P,U5,11,PA6*
G04 #@! TO.N,/SPI1_MISO*
G04 #@! TA.AperFunction,SMDPad,CuDef*
G36*
G01*
X150922874Y-123660310D02*
X150392544Y-123129980D01*
G75*
G02*
X150392544Y-123041592I44194J44194D01*
G01*
X150480932Y-122953204D01*
G75*
G02*
X150569320Y-122953204I44194J-44194D01*
G01*
X151099650Y-123483534D01*
G75*
G02*
X151099650Y-123571922I-44194J-44194D01*
G01*
X151011262Y-123660310D01*
G75*
G02*
X150922874Y-123660310I-44194J44194D01*
G01*
G37*
G04 #@! TD.AperFunction*
G04 #@! TO.P,U5,12,PA7*
G04 #@! TO.N,/SPI1_MOSI*
G04 #@! TA.AperFunction,SMDPad,CuDef*
G36*
G01*
X151276428Y-123306757D02*
X150746098Y-122776427D01*
G75*
G02*
X150746098Y-122688039I44194J44194D01*
G01*
X150834486Y-122599651D01*
G75*
G02*
X150922874Y-122599651I44194J-44194D01*
G01*
X151453204Y-123129981D01*
G75*
G02*
X151453204Y-123218369I-44194J-44194D01*
G01*
X151364816Y-123306757D01*
G75*
G02*
X151276428Y-123306757I-44194J44194D01*
G01*
G37*
G04 #@! TD.AperFunction*
G04 #@! TO.P,U5,13,PB0*
G04 #@! TO.N,/HEAT_ON*
G04 #@! TA.AperFunction,SMDPad,CuDef*
G36*
G01*
X151629981Y-122953204D02*
X151099651Y-122422874D01*
G75*
G02*
X151099651Y-122334486I44194J44194D01*
G01*
X151188039Y-122246098D01*
G75*
G02*
X151276427Y-122246098I44194J-44194D01*
G01*
X151806757Y-122776428D01*
G75*
G02*
X151806757Y-122864816I-44194J-44194D01*
G01*
X151718369Y-122953204D01*
G75*
G02*
X151629981Y-122953204I-44194J44194D01*
G01*
G37*
G04 #@! TD.AperFunction*
G04 #@! TO.P,U5,14,VSSA*
G04 #@! TO.N,GND*
G04 #@! TA.AperFunction,SMDPad,CuDef*
G36*
G01*
X151983534Y-122599650D02*
X151453204Y-122069320D01*
G75*
G02*
X151453204Y-121980932I44194J44194D01*
G01*
X151541592Y-121892544D01*
G75*
G02*
X151629980Y-121892544I44194J-44194D01*
G01*
X152160310Y-122422874D01*
G75*
G02*
X152160310Y-122511262I-44194J-44194D01*
G01*
X152071922Y-122599650D01*
G75*
G02*
X151983534Y-122599650I-44194J44194D01*
G01*
G37*
G04 #@! TD.AperFunction*
G04 #@! TO.P,U5,15,VDDA*
G04 #@! TO.N,+3V3*
G04 #@! TA.AperFunction,SMDPad,CuDef*
G36*
G01*
X152337088Y-122246097D02*
X151806758Y-121715767D01*
G75*
G02*
X151806758Y-121627379I44194J44194D01*
G01*
X151895146Y-121538991D01*
G75*
G02*
X151983534Y-121538991I44194J-44194D01*
G01*
X152513864Y-122069321D01*
G75*
G02*
X152513864Y-122157709I-44194J-44194D01*
G01*
X152425476Y-122246097D01*
G75*
G02*
X152337088Y-122246097I-44194J44194D01*
G01*
G37*
G04 #@! TD.AperFunction*
G04 #@! TO.P,U5,16,VSS*
G04 #@! TO.N,GND*
G04 #@! TA.AperFunction,SMDPad,CuDef*
G36*
G01*
X152690641Y-121892543D02*
X152160311Y-121362213D01*
G75*
G02*
X152160311Y-121273825I44194J44194D01*
G01*
X152248699Y-121185437D01*
G75*
G02*
X152337087Y-121185437I44194J-44194D01*
G01*
X152867417Y-121715767D01*
G75*
G02*
X152867417Y-121804155I-44194J-44194D01*
G01*
X152779029Y-121892543D01*
G75*
G02*
X152690641Y-121892543I-44194J44194D01*
G01*
G37*
G04 #@! TD.AperFunction*
G04 #@! TO.P,U5,17,VDD*
G04 #@! TO.N,+3V3*
G04 #@! TA.AperFunction,SMDPad,CuDef*
G36*
G01*
X153220971Y-121892543D02*
X153132583Y-121804155D01*
G75*
G02*
X153132583Y-121715767I44194J44194D01*
G01*
X153662913Y-121185437D01*
G75*
G02*
X153751301Y-121185437I44194J-44194D01*
G01*
X153839689Y-121273825D01*
G75*
G02*
X153839689Y-121362213I-44194J-44194D01*
G01*
X153309359Y-121892543D01*
G75*
G02*
X153220971Y-121892543I-44194J44194D01*
G01*
G37*
G04 #@! TD.AperFunction*
G04 #@! TO.P,U5,18,PA8*
G04 #@! TO.N,/BTN2*
G04 #@! TA.AperFunction,SMDPad,CuDef*
G36*
G01*
X153574524Y-122246097D02*
X153486136Y-122157709D01*
G75*
G02*
X153486136Y-122069321I44194J44194D01*
G01*
X154016466Y-121538991D01*
G75*
G02*
X154104854Y-121538991I44194J-44194D01*
G01*
X154193242Y-121627379D01*
G75*
G02*
X154193242Y-121715767I-44194J-44194D01*
G01*
X153662912Y-122246097D01*
G75*
G02*
X153574524Y-122246097I-44194J44194D01*
G01*
G37*
G04 #@! TD.AperFunction*
G04 #@! TO.P,U5,19,PA9*
G04 #@! TO.N,GND*
G04 #@! TA.AperFunction,SMDPad,CuDef*
G36*
G01*
X153928078Y-122599650D02*
X153839690Y-122511262D01*
G75*
G02*
X153839690Y-122422874I44194J44194D01*
G01*
X154370020Y-121892544D01*
G75*
G02*
X154458408Y-121892544I44194J-44194D01*
G01*
X154546796Y-121980932D01*
G75*
G02*
X154546796Y-122069320I-44194J-44194D01*
G01*
X154016466Y-122599650D01*
G75*
G02*
X153928078Y-122599650I-44194J44194D01*
G01*
G37*
G04 #@! TD.AperFunction*
G04 #@! TO.P,U5,20,PA10*
G04 #@! TA.AperFunction,SMDPad,CuDef*
G36*
G01*
X154281631Y-122953204D02*
X154193243Y-122864816D01*
G75*
G02*
X154193243Y-122776428I44194J44194D01*
G01*
X154723573Y-122246098D01*
G75*
G02*
X154811961Y-122246098I44194J-44194D01*
G01*
X154900349Y-122334486D01*
G75*
G02*
X154900349Y-122422874I-44194J-44194D01*
G01*
X154370019Y-122953204D01*
G75*
G02*
X154281631Y-122953204I-44194J44194D01*
G01*
G37*
G04 #@! TD.AperFunction*
G04 #@! TO.P,U5,21,PA11*
G04 #@! TO.N,/USB_DM*
G04 #@! TA.AperFunction,SMDPad,CuDef*
G36*
G01*
X154635184Y-123306757D02*
X154546796Y-123218369D01*
G75*
G02*
X154546796Y-123129981I44194J44194D01*
G01*
X155077126Y-122599651D01*
G75*
G02*
X155165514Y-122599651I44194J-44194D01*
G01*
X155253902Y-122688039D01*
G75*
G02*
X155253902Y-122776427I-44194J-44194D01*
G01*
X154723572Y-123306757D01*
G75*
G02*
X154635184Y-123306757I-44194J44194D01*
G01*
G37*
G04 #@! TD.AperFunction*
G04 #@! TO.P,U5,22,PA12*
G04 #@! TO.N,/USB_DP*
G04 #@! TA.AperFunction,SMDPad,CuDef*
G36*
G01*
X154988738Y-123660310D02*
X154900350Y-123571922D01*
G75*
G02*
X154900350Y-123483534I44194J44194D01*
G01*
X155430680Y-122953204D01*
G75*
G02*
X155519068Y-122953204I44194J-44194D01*
G01*
X155607456Y-123041592D01*
G75*
G02*
X155607456Y-123129980I-44194J-44194D01*
G01*
X155077126Y-123660310D01*
G75*
G02*
X154988738Y-123660310I-44194J44194D01*
G01*
G37*
G04 #@! TD.AperFunction*
G04 #@! TO.P,U5,23,PA13*
G04 #@! TO.N,/SWDIO*
G04 #@! TA.AperFunction,SMDPad,CuDef*
G36*
G01*
X155342291Y-124013864D02*
X155253903Y-123925476D01*
G75*
G02*
X155253903Y-123837088I44194J44194D01*
G01*
X155784233Y-123306758D01*
G75*
G02*
X155872621Y-123306758I44194J-44194D01*
G01*
X155961009Y-123395146D01*
G75*
G02*
X155961009Y-123483534I-44194J-44194D01*
G01*
X155430679Y-124013864D01*
G75*
G02*
X155342291Y-124013864I-44194J44194D01*
G01*
G37*
G04 #@! TD.AperFunction*
G04 #@! TO.P,U5,24,PA14*
G04 #@! TO.N,/SWCLK*
G04 #@! TA.AperFunction,SMDPad,CuDef*
G36*
G01*
X155695845Y-124367417D02*
X155607457Y-124279029D01*
G75*
G02*
X155607457Y-124190641I44194J44194D01*
G01*
X156137787Y-123660311D01*
G75*
G02*
X156226175Y-123660311I44194J-44194D01*
G01*
X156314563Y-123748699D01*
G75*
G02*
X156314563Y-123837087I-44194J-44194D01*
G01*
X155784233Y-124367417D01*
G75*
G02*
X155695845Y-124367417I-44194J44194D01*
G01*
G37*
G04 #@! TD.AperFunction*
G04 #@! TO.P,U5,25,PA15*
G04 #@! TO.N,/I2C1_SCL*
G04 #@! TA.AperFunction,SMDPad,CuDef*
G36*
G01*
X156137787Y-125339689D02*
X155607457Y-124809359D01*
G75*
G02*
X155607457Y-124720971I44194J44194D01*
G01*
X155695845Y-124632583D01*
G75*
G02*
X155784233Y-124632583I44194J-44194D01*
G01*
X156314563Y-125162913D01*
G75*
G02*
X156314563Y-125251301I-44194J-44194D01*
G01*
X156226175Y-125339689D01*
G75*
G02*
X156137787Y-125339689I-44194J44194D01*
G01*
G37*
G04 #@! TD.AperFunction*
G04 #@! TO.P,U5,26,PB3*
G04 #@! TO.N,/SWO*
G04 #@! TA.AperFunction,SMDPad,CuDef*
G36*
G01*
X155784233Y-125693242D02*
X155253903Y-125162912D01*
G75*
G02*
X155253903Y-125074524I44194J44194D01*
G01*
X155342291Y-124986136D01*
G75*
G02*
X155430679Y-124986136I44194J-44194D01*
G01*
X155961009Y-125516466D01*
G75*
G02*
X155961009Y-125604854I-44194J-44194D01*
G01*
X155872621Y-125693242D01*
G75*
G02*
X155784233Y-125693242I-44194J44194D01*
G01*
G37*
G04 #@! TD.AperFunction*
G04 #@! TO.P,U5,27,PB4*
G04 #@! TO.N,/CC2*
G04 #@! TA.AperFunction,SMDPad,CuDef*
G36*
G01*
X155430680Y-126046796D02*
X154900350Y-125516466D01*
G75*
G02*
X154900350Y-125428078I44194J44194D01*
G01*
X154988738Y-125339690D01*
G75*
G02*
X155077126Y-125339690I44194J-44194D01*
G01*
X155607456Y-125870020D01*
G75*
G02*
X155607456Y-125958408I-44194J-44194D01*
G01*
X155519068Y-126046796D01*
G75*
G02*
X155430680Y-126046796I-44194J44194D01*
G01*
G37*
G04 #@! TD.AperFunction*
G04 #@! TO.P,U5,28,PB5*
G04 #@! TO.N,/BTN1*
G04 #@! TA.AperFunction,SMDPad,CuDef*
G36*
G01*
X155077126Y-126400349D02*
X154546796Y-125870019D01*
G75*
G02*
X154546796Y-125781631I44194J44194D01*
G01*
X154635184Y-125693243D01*
G75*
G02*
X154723572Y-125693243I44194J-44194D01*
G01*
X155253902Y-126223573D01*
G75*
G02*
X155253902Y-126311961I-44194J-44194D01*
G01*
X155165514Y-126400349D01*
G75*
G02*
X155077126Y-126400349I-44194J44194D01*
G01*
G37*
G04 #@! TD.AperFunction*
G04 #@! TO.P,U5,29,PB6*
G04 #@! TO.N,/CC1*
G04 #@! TA.AperFunction,SMDPad,CuDef*
G36*
G01*
X154723573Y-126753902D02*
X154193243Y-126223572D01*
G75*
G02*
X154193243Y-126135184I44194J44194D01*
G01*
X154281631Y-126046796D01*
G75*
G02*
X154370019Y-126046796I44194J-44194D01*
G01*
X154900349Y-126577126D01*
G75*
G02*
X154900349Y-126665514I-44194J-44194D01*
G01*
X154811961Y-126753902D01*
G75*
G02*
X154723573Y-126753902I-44194J44194D01*
G01*
G37*
G04 #@! TD.AperFunction*
G04 #@! TO.P,U5,30,PB7*
G04 #@! TO.N,/I2C1_SDA*
G04 #@! TA.AperFunction,SMDPad,CuDef*
G36*
G01*
X154370020Y-127107456D02*
X153839690Y-126577126D01*
G75*
G02*
X153839690Y-126488738I44194J44194D01*
G01*
X153928078Y-126400350D01*
G75*
G02*
X154016466Y-126400350I44194J-44194D01*
G01*
X154546796Y-126930680D01*
G75*
G02*
X154546796Y-127019068I-44194J-44194D01*
G01*
X154458408Y-127107456D01*
G75*
G02*
X154370020Y-127107456I-44194J44194D01*
G01*
G37*
G04 #@! TD.AperFunction*
G04 #@! TO.P,U5,31,PB8-BOOT0*
G04 #@! TO.N,/DISP_RST#*
G04 #@! TA.AperFunction,SMDPad,CuDef*
G36*
G01*
X154016466Y-127461009D02*
X153486136Y-126930679D01*
G75*
G02*
X153486136Y-126842291I44194J44194D01*
G01*
X153574524Y-126753903D01*
G75*
G02*
X153662912Y-126753903I44194J-44194D01*
G01*
X154193242Y-127284233D01*
G75*
G02*
X154193242Y-127372621I-44194J-44194D01*
G01*
X154104854Y-127461009D01*
G75*
G02*
X154016466Y-127461009I-44194J44194D01*
G01*
G37*
G04 #@! TD.AperFunction*
G04 #@! TO.P,U5,32,VSS*
G04 #@! TO.N,GND*
G04 #@! TA.AperFunction,SMDPad,CuDef*
G36*
G01*
X153662913Y-127814563D02*
X153132583Y-127284233D01*
G75*
G02*
X153132583Y-127195845I44194J44194D01*
G01*
X153220971Y-127107457D01*
G75*
G02*
X153309359Y-127107457I44194J-44194D01*
G01*
X153839689Y-127637787D01*
G75*
G02*
X153839689Y-127726175I-44194J-44194D01*
G01*
X153751301Y-127814563D01*
G75*
G02*
X153662913Y-127814563I-44194J44194D01*
G01*
G37*
G04 #@! TD.AperFunction*
G04 #@! TA.AperFunction,SMDPad,CuDef*
G04 #@! TO.P,U5,33,VSS-PAD*
G36*
X153000000Y-126939518D02*
G01*
X150560482Y-124500000D01*
X153000000Y-122060482D01*
X155439518Y-124500000D01*
X153000000Y-126939518D01*
G37*
G04 #@! TD.AperFunction*
G04 #@! TD*
G04 #@! TO.P,C33,1*
G04 #@! TO.N,IN*
G04 #@! TA.AperFunction,SMDPad,CuDef*
G36*
G01*
X191433964Y-126203589D02*
X190958964Y-126203589D01*
G75*
G02*
X190721464Y-125966089I0J237500D01*
G01*
X190721464Y-125391089D01*
G75*
G02*
X190958964Y-125153589I237500J0D01*
G01*
X191433964Y-125153589D01*
G75*
G02*
X191671464Y-125391089I0J-237500D01*
G01*
X191671464Y-125966089D01*
G75*
G02*
X191433964Y-126203589I-237500J0D01*
G01*
G37*
G04 #@! TD.AperFunction*
G04 #@! TO.P,C33,2*
G04 #@! TO.N,GND*
G04 #@! TA.AperFunction,SMDPad,CuDef*
G36*
G01*
X191433964Y-124453589D02*
X190958964Y-124453589D01*
G75*
G02*
X190721464Y-124216089I0J237500D01*
G01*
X190721464Y-123641089D01*
G75*
G02*
X190958964Y-123403589I237500J0D01*
G01*
X191433964Y-123403589D01*
G75*
G02*
X191671464Y-123641089I0J-237500D01*
G01*
X191671464Y-124216089D01*
G75*
G02*
X191433964Y-124453589I-237500J0D01*
G01*
G37*
G04 #@! TD.AperFunction*
G04 #@! TD*
G04 #@! TO.P,R3,1*
G04 #@! TO.N,IN*
G04 #@! TA.AperFunction,SMDPad,CuDef*
G36*
G01*
X188797072Y-127342002D02*
X189142072Y-127342002D01*
G75*
G02*
X189289572Y-127489502I0J-147500D01*
G01*
X189289572Y-127784502D01*
G75*
G02*
X189142072Y-127932002I-147500J0D01*
G01*
X188797072Y-127932002D01*
G75*
G02*
X188649572Y-127784502I0J147500D01*
G01*
X188649572Y-127489502D01*
G75*
G02*
X188797072Y-127342002I147500J0D01*
G01*
G37*
G04 #@! TD.AperFunction*
G04 #@! TO.P,R3,2*
G04 #@! TO.N,Net-(R3-Pad2)*
G04 #@! TA.AperFunction,SMDPad,CuDef*
G36*
G01*
X188797072Y-128312002D02*
X189142072Y-128312002D01*
G75*
G02*
X189289572Y-128459502I0J-147500D01*
G01*
X189289572Y-128754502D01*
G75*
G02*
X189142072Y-128902002I-147500J0D01*
G01*
X188797072Y-128902002D01*
G75*
G02*
X188649572Y-128754502I0J147500D01*
G01*
X188649572Y-128459502D01*
G75*
G02*
X188797072Y-128312002I147500J0D01*
G01*
G37*
G04 #@! TD.AperFunction*
G04 #@! TD*
G04 #@! TO.P,R7,1*
G04 #@! TO.N,+3V3*
G04 #@! TA.AperFunction,SMDPad,CuDef*
G36*
G01*
X173271390Y-122134921D02*
X173271390Y-122479921D01*
G75*
G02*
X173123890Y-122627421I-147500J0D01*
G01*
X172828890Y-122627421D01*
G75*
G02*
X172681390Y-122479921I0J147500D01*
G01*
X172681390Y-122134921D01*
G75*
G02*
X172828890Y-121987421I147500J0D01*
G01*
X173123890Y-121987421D01*
G75*
G02*
X173271390Y-122134921I0J-147500D01*
G01*
G37*
G04 #@! TD.AperFunction*
G04 #@! TO.P,R7,2*
G04 #@! TO.N,/I2C1_SDA*
G04 #@! TA.AperFunction,SMDPad,CuDef*
G36*
G01*
X172301390Y-122134921D02*
X172301390Y-122479921D01*
G75*
G02*
X172153890Y-122627421I-147500J0D01*
G01*
X171858890Y-122627421D01*
G75*
G02*
X171711390Y-122479921I0J147500D01*
G01*
X171711390Y-122134921D01*
G75*
G02*
X171858890Y-121987421I147500J0D01*
G01*
X172153890Y-121987421D01*
G75*
G02*
X172301390Y-122134921I0J-147500D01*
G01*
G37*
G04 #@! TD.AperFunction*
G04 #@! TD*
G04 #@! TO.P,C28,1*
G04 #@! TO.N,+3V3*
G04 #@! TA.AperFunction,SMDPad,CuDef*
G36*
G01*
X136172500Y-125996253D02*
X135827500Y-125996253D01*
G75*
G02*
X135680000Y-125848753I0J147500D01*
G01*
X135680000Y-125553753D01*
G75*
G02*
X135827500Y-125406253I147500J0D01*
G01*
X136172500Y-125406253D01*
G75*
G02*
X136320000Y-125553753I0J-147500D01*
G01*
X136320000Y-125848753D01*
G75*
G02*
X136172500Y-125996253I-147500J0D01*
G01*
G37*
G04 #@! TD.AperFunction*
G04 #@! TO.P,C28,2*
G04 #@! TO.N,GND*
G04 #@! TA.AperFunction,SMDPad,CuDef*
G36*
G01*
X136172500Y-125026253D02*
X135827500Y-125026253D01*
G75*
G02*
X135680000Y-124878753I0J147500D01*
G01*
X135680000Y-124583753D01*
G75*
G02*
X135827500Y-124436253I147500J0D01*
G01*
X136172500Y-124436253D01*
G75*
G02*
X136320000Y-124583753I0J-147500D01*
G01*
X136320000Y-124878753D01*
G75*
G02*
X136172500Y-125026253I-147500J0D01*
G01*
G37*
G04 #@! TD.AperFunction*
G04 #@! TD*
G04 #@! TO.P,D2,1,A1*
G04 #@! TO.N,GND*
G04 #@! TA.AperFunction,SMDPad,CuDef*
G36*
G01*
X126900000Y-122437500D02*
X126900000Y-122962500D01*
G75*
G02*
X126762500Y-123100000I-137500J0D01*
G01*
X126487500Y-123100000D01*
G75*
G02*
X126350000Y-122962500I0J137500D01*
G01*
X126350000Y-122437500D01*
G75*
G02*
X126487500Y-122300000I137500J0D01*
G01*
X126762500Y-122300000D01*
G75*
G02*
X126900000Y-122437500I0J-137500D01*
G01*
G37*
G04 #@! TD.AperFunction*
G04 #@! TO.P,D2,2,A2*
G04 #@! TO.N,IN*
G04 #@! TA.AperFunction,SMDPad,CuDef*
G36*
G01*
X125487500Y-122437500D02*
X125487500Y-122962500D01*
G75*
G02*
X125350000Y-123100000I-137500J0D01*
G01*
X125075000Y-123100000D01*
G75*
G02*
X124937500Y-122962500I0J137500D01*
G01*
X124937500Y-122437500D01*
G75*
G02*
X125075000Y-122300000I137500J0D01*
G01*
X125350000Y-122300000D01*
G75*
G02*
X125487500Y-122437500I0J-137500D01*
G01*
G37*
G04 #@! TD.AperFunction*
G04 #@! TD*
G04 #@! TO.P,C9,1*
G04 #@! TO.N,/BTN1*
G04 #@! TA.AperFunction,SMDPad,CuDef*
G36*
G01*
X180420000Y-128172500D02*
X180420000Y-127827500D01*
G75*
G02*
X180567500Y-127680000I147500J0D01*
G01*
X180862500Y-127680000D01*
G75*
G02*
X181010000Y-127827500I0J-147500D01*
G01*
X181010000Y-128172500D01*
G75*
G02*
X180862500Y-128320000I-147500J0D01*
G01*
X180567500Y-128320000D01*
G75*
G02*
X180420000Y-128172500I0J147500D01*
G01*
G37*
G04 #@! TD.AperFunction*
G04 #@! TO.P,C9,2*
G04 #@! TO.N,GND*
G04 #@! TA.AperFunction,SMDPad,CuDef*
G36*
G01*
X181390000Y-128172500D02*
X181390000Y-127827500D01*
G75*
G02*
X181537500Y-127680000I147500J0D01*
G01*
X181832500Y-127680000D01*
G75*
G02*
X181980000Y-127827500I0J-147500D01*
G01*
X181980000Y-128172500D01*
G75*
G02*
X181832500Y-128320000I-147500J0D01*
G01*
X181537500Y-128320000D01*
G75*
G02*
X181390000Y-128172500I0J147500D01*
G01*
G37*
G04 #@! TD.AperFunction*
G04 #@! TD*
G04 #@! TO.P,C4,1*
G04 #@! TO.N,GND*
G04 #@! TA.AperFunction,SMDPad,CuDef*
G36*
G01*
X142427500Y-124020000D02*
X142772500Y-124020000D01*
G75*
G02*
X142920000Y-124167500I0J-147500D01*
G01*
X142920000Y-124462500D01*
G75*
G02*
X142772500Y-124610000I-147500J0D01*
G01*
X142427500Y-124610000D01*
G75*
G02*
X142280000Y-124462500I0J147500D01*
G01*
X142280000Y-124167500D01*
G75*
G02*
X142427500Y-124020000I147500J0D01*
G01*
G37*
G04 #@! TD.AperFunction*
G04 #@! TO.P,C4,2*
G04 #@! TO.N,/PVD_IN*
G04 #@! TA.AperFunction,SMDPad,CuDef*
G36*
G01*
X142427500Y-124990000D02*
X142772500Y-124990000D01*
G75*
G02*
X142920000Y-125137500I0J-147500D01*
G01*
X142920000Y-125432500D01*
G75*
G02*
X142772500Y-125580000I-147500J0D01*
G01*
X142427500Y-125580000D01*
G75*
G02*
X142280000Y-125432500I0J147500D01*
G01*
X142280000Y-125137500D01*
G75*
G02*
X142427500Y-124990000I147500J0D01*
G01*
G37*
G04 #@! TD.AperFunction*
G04 #@! TD*
D16*
G04 #@! TO.N,/INT0*
X142000000Y-120700000D03*
G04 #@! TO.N,GND*
X152300000Y-120300000D03*
G04 #@! TO.N,/BTN2*
X177100000Y-120300000D03*
G04 #@! TO.N,GND*
X136900000Y-128046790D03*
D17*
G04 #@! TO.N,IN*
X124950000Y-129300000D03*
D18*
G04 #@! TO.N,+3V3*
X152527335Y-127996790D03*
D16*
G04 #@! TO.N,GND*
X153500000Y-128046790D03*
G04 #@! TO.N,/OSC_IN*
X149251124Y-128046790D03*
G04 #@! TO.N,/NRST*
X149898389Y-127416838D03*
G04 #@! TO.N,/BTN1*
X179570952Y-128046790D03*
G04 #@! TO.N,/OSC_OUT*
X151117218Y-127589579D03*
G04 #@! TO.N,GND*
X182600000Y-128046790D03*
D17*
G04 #@! TO.N,IN*
X183000000Y-129300000D03*
X184400000Y-129300000D03*
D16*
G04 #@! TO.N,GND*
X190000000Y-123000000D03*
G04 #@! TO.N,/CC1*
X158538610Y-127480210D03*
D18*
G04 #@! TO.N,/HEATER_PG*
X128300000Y-122600000D03*
D16*
G04 #@! TO.N,Net-(C10-Pad1)*
X181800000Y-125000000D03*
G04 #@! TO.N,IN*
X124700000Y-124700000D03*
X124700000Y-125700000D03*
X125400000Y-124200000D03*
D17*
X191700000Y-122600000D03*
D16*
X125400000Y-125200000D03*
D17*
X191700000Y-127400000D03*
D16*
X125400000Y-126200000D03*
D18*
G04 #@! TO.N,+3V3*
X173700000Y-125900000D03*
X171500000Y-125898157D03*
D16*
X136900000Y-125698616D03*
X151605846Y-121043882D03*
X185250000Y-126200000D03*
X140800000Y-125700000D03*
D18*
X162300000Y-125898157D03*
D16*
X136100000Y-120900000D03*
X153700000Y-120500000D03*
D18*
X182100000Y-125954332D03*
D16*
X140800000Y-120900000D03*
G04 #@! TO.N,/BTN1*
X156867571Y-126835625D03*
G04 #@! TO.N,/BTN2*
X155100000Y-120600000D03*
G04 #@! TO.N,Net-(C10-Pad1)*
X173300000Y-125000000D03*
G04 #@! TO.N,/HEATER*
X121800000Y-127700000D03*
X119050000Y-126200000D03*
X119850000Y-126200000D03*
X118700000Y-127700000D03*
X121450000Y-125400000D03*
X119050000Y-125400000D03*
X118700000Y-126900000D03*
X121800000Y-126900000D03*
X119050000Y-124600000D03*
X120650000Y-126200000D03*
X121450000Y-124600000D03*
X121450000Y-126200000D03*
G04 #@! TO.N,/TEMP_SENS*
X149051001Y-127039470D03*
X139000000Y-127140630D03*
G04 #@! TO.N,/USB_DP*
X186900000Y-121700000D03*
X157080045Y-121880210D03*
G04 #@! TO.N,/CC2*
X157895284Y-126818064D03*
X184600000Y-125100000D03*
X194500000Y-123300000D03*
G04 #@! TO.N,/USB_DM*
X183200000Y-121000000D03*
X156000000Y-121798126D03*
G04 #@! TO.N,/CC1*
X187800000Y-125100000D03*
G04 #@! TO.N,/TIP_TC*
X107100000Y-120900000D03*
X131800000Y-120900000D03*
G04 #@! TO.N,/I2C1_SCL*
X157913030Y-124871366D03*
X171100000Y-123400000D03*
G04 #@! TO.N,/I2C1_SDA*
X160300000Y-122400000D03*
X175000000Y-123500000D03*
X171100000Y-122400000D03*
X155800000Y-127996790D03*
G04 #@! TO.N,/VSENSE*
X132000000Y-125600000D03*
X148918659Y-126027018D03*
G04 #@! TO.N,/HEAT_ON*
X148800000Y-120900000D03*
X128500000Y-127900000D03*
G04 #@! TO.N,Net-(R16-Pad1)*
X137000000Y-123819790D03*
G04 #@! TO.N,Net-(R17-Pad2)*
X134100000Y-127300000D03*
G04 #@! TO.N,/SPI1_MISO*
X148500000Y-122480210D03*
G04 #@! TO.N,/SPI1_NSS*
X147600000Y-123840630D03*
G04 #@! TO.N,/SPI1_MOSI*
X146180982Y-121819018D03*
G04 #@! TO.N,/SPI1_SCK*
X146600000Y-123160420D03*
G04 #@! TO.N,/DISP_RST#*
X154487083Y-128009707D03*
X166550667Y-124446996D03*
G04 #@! TO.N,/NRST*
X158000000Y-122500000D03*
G04 #@! TO.N,GND*
X165600000Y-124400000D03*
X121100000Y-121700000D03*
X181900000Y-123700000D03*
X131900000Y-123700000D03*
X120300000Y-121700000D03*
X121700000Y-122300000D03*
X126600000Y-126150000D03*
X100700000Y-129200000D03*
X119500000Y-121700000D03*
X135100000Y-123100000D03*
X104500000Y-129700000D03*
X101300000Y-129700000D03*
X110100000Y-128700000D03*
X176200000Y-123400000D03*
X135100000Y-125200000D03*
X127700000Y-121550000D03*
X154800000Y-124500000D03*
X118800000Y-122300000D03*
X126600000Y-124300000D03*
X118800000Y-123100000D03*
X121700000Y-123100000D03*
X110100000Y-129800000D03*
X131900000Y-127000000D03*
X171700000Y-124600000D03*
X155100000Y-121700000D03*
X186200000Y-120999835D03*
X105100000Y-129200000D03*
X151200000Y-124500000D03*
X139900000Y-123200000D03*
X159200000Y-122400000D03*
X126600000Y-125200000D03*
X119200000Y-128700000D03*
X101300000Y-128700000D03*
X183100000Y-123100000D03*
X104500000Y-128700000D03*
X143900000Y-127700000D03*
X147600000Y-126700000D03*
X118700000Y-129200000D03*
X118200000Y-129700000D03*
G04 #@! TD*
D19*
G04 #@! TO.N,/INT0*
X145900000Y-124600000D02*
X142000000Y-120700000D01*
X150038990Y-124986136D02*
X149652854Y-124600000D01*
X149652854Y-124600000D02*
X145900000Y-124600000D01*
G04 #@! TO.N,/BTN2*
X176500000Y-120900000D02*
X177100000Y-120300000D01*
X176185000Y-120900000D02*
X176500000Y-120900000D01*
D20*
G04 #@! TO.N,IN*
X142600000Y-129300000D02*
X124950000Y-129300000D01*
D19*
G04 #@! TO.N,/OSC_IN*
X152160311Y-127107456D02*
X151801795Y-127465972D01*
G04 #@! TO.N,/NRST*
X150790720Y-126909377D02*
X150283259Y-127416838D01*
G04 #@! TO.N,/OSC_IN*
X151797134Y-128062980D02*
X151590325Y-128269789D01*
X151801795Y-127738758D02*
X151797134Y-127743419D01*
X151797134Y-127743419D02*
X151797134Y-128062980D01*
G04 #@! TO.N,/TEMP_SENS*
X150694281Y-126452166D02*
X150601338Y-126452166D01*
G04 #@! TO.N,/OSC_IN*
X151801795Y-127465972D02*
X151801795Y-127738758D01*
G04 #@! TO.N,/VSENSE*
X150713668Y-125693243D02*
X150251496Y-126155415D01*
X150746097Y-125693243D02*
X150713668Y-125693243D01*
G04 #@! TO.N,/OSC_OUT*
X151806757Y-126753903D02*
X151117218Y-127443442D01*
G04 #@! TO.N,/BTN1*
X180715000Y-128000000D02*
X179617742Y-128000000D01*
G04 #@! TO.N,/TEMP_SENS*
X150364033Y-126689471D02*
X149401000Y-126689471D01*
G04 #@! TO.N,/OSC_OUT*
X151117218Y-127443442D02*
X151117218Y-127589579D01*
G04 #@! TO.N,/TEMP_SENS*
X150601338Y-126452166D02*
X150364033Y-126689471D01*
G04 #@! TO.N,/NRST*
X151453204Y-126400349D02*
X150944176Y-126909377D01*
G04 #@! TO.N,/TEMP_SENS*
X151099651Y-126046796D02*
X150694281Y-126452166D01*
X149401000Y-126689471D02*
X149051001Y-127039470D01*
G04 #@! TO.N,/VSENSE*
X149047056Y-126155415D02*
X148918659Y-126027018D01*
X150251496Y-126155415D02*
X149047056Y-126155415D01*
G04 #@! TO.N,/NRST*
X150944176Y-126909377D02*
X150790720Y-126909377D01*
X150283259Y-127416838D02*
X149898389Y-127416838D01*
G04 #@! TO.N,/OSC_IN*
X149474123Y-128269789D02*
X149251124Y-128046790D01*
X151590325Y-128269789D02*
X149474123Y-128269789D01*
G04 #@! TO.N,/BTN1*
X179617742Y-128000000D02*
X179570952Y-128046790D01*
G04 #@! TO.N,+3V3*
X152513864Y-127461010D02*
X152513864Y-127983319D01*
X152513864Y-127983319D02*
X152527335Y-127996790D01*
D20*
G04 #@! TO.N,IN*
X142600000Y-129300000D02*
X183000000Y-129300000D01*
D19*
G04 #@! TO.N,/CC1*
X158188611Y-127830209D02*
X158538610Y-127480210D01*
X156855455Y-127830209D02*
X158188611Y-127830209D01*
X156187369Y-127162123D02*
X156855455Y-127830209D01*
X155308570Y-127162123D02*
X156187369Y-127162123D01*
X154546796Y-126400349D02*
X155308570Y-127162123D01*
D21*
G04 #@! TO.N,Net-(C10-Pad1)*
X180800000Y-125485000D02*
X181315000Y-125485000D01*
X181315000Y-125485000D02*
X181800000Y-125000000D01*
D22*
G04 #@! TO.N,IN*
X186369920Y-126200000D02*
X188665739Y-126200000D01*
X185875000Y-126694920D02*
X186369920Y-126200000D01*
D23*
X125212500Y-124012500D02*
X125400000Y-124200000D01*
D24*
X191462998Y-127637002D02*
X191700000Y-127400000D01*
D25*
X191196464Y-125678589D02*
X189202880Y-125678589D01*
D19*
X142600000Y-129300000D02*
X142600000Y-127854784D01*
X142480527Y-129419473D02*
X142600000Y-129300000D01*
D23*
X125212500Y-122700000D02*
X125212500Y-124012500D01*
D25*
X189202880Y-125678589D02*
X189195015Y-125670724D01*
D24*
X188969572Y-127637002D02*
X190205523Y-127637002D01*
D22*
X188665739Y-126200000D02*
X189195015Y-125670724D01*
X185875000Y-127512500D02*
X185875000Y-126694920D01*
D24*
X190205523Y-127637002D02*
X191462998Y-127637002D01*
D20*
X191700000Y-127400000D02*
X190900000Y-126600000D01*
D23*
G04 #@! TO.N,+3V3*
X183668809Y-125968809D02*
X184600000Y-126900000D01*
D19*
X175000000Y-125585000D02*
X176600000Y-125585000D01*
D24*
X162328157Y-125870000D02*
X162300000Y-125898157D01*
X184600000Y-126900000D02*
X184600000Y-127300000D01*
D19*
X172985000Y-124015000D02*
X172500000Y-124500000D01*
D24*
X163750000Y-125870000D02*
X163780000Y-125900000D01*
X169993787Y-125875807D02*
X170016137Y-125898157D01*
D21*
X173800000Y-125900000D02*
X174115000Y-125585000D01*
D24*
X167983597Y-125900000D02*
X167994142Y-125889455D01*
D19*
X136000000Y-125701253D02*
X136002637Y-125698616D01*
D23*
X182114477Y-125968809D02*
X182100000Y-125954332D01*
D19*
X153700000Y-121325126D02*
X153486136Y-121538990D01*
X151605846Y-121338079D02*
X151605846Y-121043882D01*
X136002637Y-125698616D02*
X136900000Y-125698616D01*
X185225000Y-127512500D02*
X185225000Y-126225000D01*
D24*
X162300000Y-125900000D02*
X162300000Y-125898157D01*
D23*
X183101818Y-125968809D02*
X182114477Y-125968809D01*
D19*
X172500000Y-124898157D02*
X171500000Y-125898157D01*
D24*
X169993787Y-125875807D02*
X169980139Y-125889455D01*
X170016137Y-125898157D02*
X171500000Y-125898157D01*
D19*
X153700000Y-120500000D02*
X153700000Y-121325126D01*
X172990110Y-123531071D02*
X172990110Y-122321141D01*
D24*
X163750000Y-125870000D02*
X163769455Y-125889455D01*
X163769455Y-125889455D02*
X167994142Y-125889455D01*
D23*
X183101818Y-125968809D02*
X183668809Y-125968809D01*
D19*
X172985000Y-123500000D02*
X172985000Y-124015000D01*
D24*
X169993787Y-125875807D02*
X168007790Y-125875807D01*
X162198157Y-126000000D02*
X162300000Y-125898157D01*
X162200000Y-126000000D02*
X162300000Y-125900000D01*
D21*
X173700000Y-125900000D02*
X173800000Y-125900000D01*
D24*
X163750000Y-125870000D02*
X162328157Y-125870000D01*
X168007790Y-125875807D02*
X167994142Y-125889455D01*
D19*
X172500000Y-124500000D02*
X172500000Y-124898157D01*
X185225000Y-126225000D02*
X185250000Y-126200000D01*
X152160311Y-121892544D02*
X151605846Y-121338079D01*
D21*
X174115000Y-125585000D02*
X175000000Y-125585000D01*
D19*
X172990110Y-122321141D02*
X172976390Y-122307421D01*
G04 #@! TO.N,/PVD_IN*
X149245076Y-125285000D02*
X144300000Y-125285000D01*
X142600000Y-125285000D02*
X142600000Y-126884784D01*
X150034028Y-125698205D02*
X149658281Y-125698205D01*
X149658281Y-125698205D02*
X149245076Y-125285000D01*
X144300000Y-125285000D02*
X142600000Y-125285000D01*
X150392544Y-125339689D02*
X150034028Y-125698205D01*
G04 #@! TO.N,/BTN1*
X154900349Y-126046796D02*
X155466179Y-126612626D01*
X155466179Y-126612626D02*
X156644572Y-126612626D01*
X156644572Y-126612626D02*
X156867571Y-126835625D01*
G04 #@! TO.N,/BTN2*
X153839689Y-121892544D02*
X155100000Y-120632233D01*
X155100000Y-120632233D02*
X155100000Y-120600000D01*
G04 #@! TO.N,/USB_DP*
X157080045Y-121919955D02*
X157080045Y-121880210D01*
X155253903Y-123306757D02*
X156060660Y-122500000D01*
X156500000Y-122500000D02*
X157080045Y-121919955D01*
X156060660Y-122500000D02*
X156500000Y-122500000D01*
G04 #@! TO.N,/CC2*
X155253903Y-125693243D02*
X155716075Y-126155415D01*
X155716075Y-126155415D02*
X157232635Y-126155415D01*
X157232635Y-126155415D02*
X157895284Y-126818064D01*
G04 #@! TO.N,/USB_DM*
X156000000Y-121853553D02*
X156000000Y-121798126D01*
X154900349Y-122953204D02*
X156000000Y-121853553D01*
D24*
G04 #@! TO.N,/TIP_TC*
X107100000Y-120900000D02*
X105350000Y-120900000D01*
D19*
X105350000Y-120900000D02*
X105300000Y-120950000D01*
X107050000Y-120950000D02*
X107100000Y-120900000D01*
G04 #@! TO.N,Net-(R1-Pad2)*
X190205523Y-128994477D02*
X189962788Y-129237212D01*
X187432212Y-129237212D02*
X186525000Y-128330000D01*
X189962788Y-129237212D02*
X187432212Y-129237212D01*
X186525000Y-128330000D02*
X186525000Y-127512500D01*
X190205523Y-128607002D02*
X190205523Y-128994477D01*
G04 #@! TO.N,Net-(R3-Pad2)*
X187175000Y-128275000D02*
X187175000Y-127512500D01*
X187507002Y-128607002D02*
X187175000Y-128275000D01*
X188969572Y-128607002D02*
X187507002Y-128607002D01*
G04 #@! TO.N,/I2C1_SCL*
X171100000Y-123400000D02*
X171889039Y-123400000D01*
X171889039Y-123400000D02*
X172020110Y-123531071D01*
X155961010Y-124986136D02*
X157798260Y-124986136D01*
X157798260Y-124986136D02*
X157913030Y-124871366D01*
G04 #@! TO.N,/I2C1_SDA*
X171100000Y-122400000D02*
X171913811Y-122400000D01*
X155436130Y-127996790D02*
X155800000Y-127996790D01*
X154193243Y-126753903D02*
X155436130Y-127996790D01*
X171913811Y-122400000D02*
X172006390Y-122307421D01*
G04 #@! TO.N,/HEAT_ON*
X151453204Y-122599651D02*
X151453058Y-122599651D01*
X149753407Y-120900000D02*
X148800000Y-120900000D01*
X151453058Y-122599651D02*
X149753407Y-120900000D01*
G04 #@! TO.N,Net-(R16-Pad1)*
X134971744Y-123819790D02*
X137000000Y-123819790D01*
X134100546Y-124690988D02*
X134971744Y-123819790D01*
G04 #@! TO.N,Net-(R17-Pad2)*
X134100546Y-127299454D02*
X134100000Y-127300000D01*
X134100546Y-125660988D02*
X134100546Y-127299454D01*
G04 #@! TO.N,/SPI1_MISO*
X149919550Y-122480210D02*
X148500000Y-122480210D01*
X150746097Y-123306757D02*
X149919550Y-122480210D01*
G04 #@! TO.N,/SPI1_NSS*
X149825126Y-123800000D02*
X147640630Y-123800000D01*
X147640630Y-123800000D02*
X147600000Y-123840630D01*
X150038990Y-124013864D02*
X149825126Y-123800000D01*
G04 #@! TO.N,/SPI1_MOSI*
X146200000Y-121800000D02*
X146180982Y-121819018D01*
X151099651Y-122953204D02*
X149946447Y-121800000D01*
X149946447Y-121800000D02*
X146200000Y-121800000D01*
G04 #@! TO.N,/SPI1_SCK*
X149892653Y-123160420D02*
X146600000Y-123160420D01*
X150392544Y-123660311D02*
X149892653Y-123160420D01*
G04 #@! TO.N,/DISP_RST#*
X153839689Y-127107456D02*
X154487083Y-127754850D01*
X154487083Y-127754850D02*
X154487083Y-128009707D01*
G04 #@! TO.N,/SWO*
X159278205Y-125698205D02*
X155965972Y-125698205D01*
X155965972Y-125698205D02*
X155607456Y-125339689D01*
X159750000Y-126170000D02*
X159278205Y-125698205D01*
G04 #@! TO.N,/SWCLK*
X158620000Y-124600000D02*
X159850000Y-124600000D01*
X158107211Y-124087211D02*
X158620000Y-124600000D01*
X158107211Y-124087211D02*
X156034357Y-124087211D01*
X156034357Y-124087211D02*
X155961010Y-124013864D01*
G04 #@! TO.N,/SWDIO*
X159821795Y-123301795D02*
X155965972Y-123301795D01*
X155965972Y-123301795D02*
X155607456Y-123660311D01*
X159850000Y-123330000D02*
X159821795Y-123301795D01*
G04 #@! TO.N,/NRST*
X159100000Y-121400000D02*
X158000000Y-122500000D01*
X163750000Y-123330000D02*
X161820000Y-121400000D01*
X161820000Y-121400000D02*
X159100000Y-121400000D01*
G04 #@! TO.N,GND*
X151806757Y-122246097D02*
X150600000Y-121039340D01*
X151806757Y-122246097D02*
X153000000Y-123439340D01*
X150600000Y-121039340D02*
X150600000Y-121000000D01*
X153000000Y-124146447D02*
X154546796Y-122599651D01*
X154193243Y-122246097D02*
X153000000Y-123439340D01*
X153000000Y-124500000D02*
X153000000Y-124146447D01*
X153000000Y-123439340D02*
X153000000Y-124500000D01*
G04 #@! TD*
G04 #@! TA.AperFunction,Conductor*
G04 #@! TO.N,IN*
G36*
X184555765Y-128717550D02*
G01*
X184703718Y-128769322D01*
X184836443Y-128852718D01*
X184947282Y-128963557D01*
X185030678Y-129096282D01*
X185082450Y-129244235D01*
X185100000Y-129400000D01*
X185082450Y-129555765D01*
X185030678Y-129703718D01*
X184947282Y-129836443D01*
X184836443Y-129947282D01*
X184703718Y-130030678D01*
X184555765Y-130082450D01*
X184400000Y-130100000D01*
X183100000Y-130100000D01*
X182944235Y-130082450D01*
X182796282Y-130030678D01*
X182663557Y-129947282D01*
X182552718Y-129836443D01*
X182469322Y-129703718D01*
X182417550Y-129555765D01*
X182400000Y-129400000D01*
X182417550Y-129244235D01*
X182469322Y-129096282D01*
X182552718Y-128963557D01*
X182663557Y-128852718D01*
X182796282Y-128769322D01*
X182944235Y-128717550D01*
X183100000Y-128700000D01*
X184400000Y-128700000D01*
X184555765Y-128717550D01*
G37*
G04 #@! TD.AperFunction*
G04 #@! TA.AperFunction,Conductor*
G36*
X125770710Y-123879290D02*
G01*
X125800000Y-123950000D01*
X125800000Y-126450000D01*
X125770710Y-126520710D01*
X125700000Y-126550000D01*
X125650000Y-126550000D01*
X125579289Y-126579289D01*
X125550000Y-126650000D01*
X125550000Y-129300000D01*
X125520710Y-129370710D01*
X125450000Y-129400000D01*
X124450000Y-129400000D01*
X124379290Y-129370710D01*
X124350000Y-129300000D01*
X124350000Y-123950000D01*
X124379290Y-123879290D01*
X124450000Y-123850000D01*
X125700000Y-123850000D01*
X125770710Y-123879290D01*
G37*
G04 #@! TD.AperFunction*
G04 #@! TA.AperFunction,Conductor*
G36*
X191576537Y-125215224D02*
G01*
X191641421Y-125258579D01*
X191684776Y-125323463D01*
X191700000Y-125399999D01*
X191700000Y-126049579D01*
X191706068Y-126098468D01*
X191723908Y-126144402D01*
X192241250Y-127105178D01*
X192264501Y-127183818D01*
X192254237Y-127265178D01*
X192212188Y-127335580D01*
X192145419Y-127383188D01*
X192065155Y-127400000D01*
X190278539Y-127400000D01*
X190205434Y-127386161D01*
X190142448Y-127346559D01*
X188863910Y-126159345D01*
X188816672Y-126092729D01*
X188800000Y-126012787D01*
X188800000Y-125399999D01*
X188815224Y-125323463D01*
X188858579Y-125258579D01*
X188923463Y-125215224D01*
X189000000Y-125200000D01*
X191500000Y-125200000D01*
X191576537Y-125215224D01*
G37*
G04 #@! TD.AperFunction*
G04 #@! TD*
G04 #@! TA.AperFunction,Conductor*
G04 #@! TO.N,GND*
G36*
X110591800Y-130100000D02*
G01*
X110596800Y-130125137D01*
X110596800Y-130196300D01*
X100203700Y-130196300D01*
X100203700Y-128203700D01*
X110591800Y-128203700D01*
X110591800Y-130100000D01*
G37*
G04 #@! TD.AperFunction*
G04 #@! TA.AperFunction,Conductor*
G36*
X176786159Y-119721293D02*
G01*
X176811879Y-119765842D01*
X176788722Y-119834255D01*
X176781145Y-119841223D01*
X176781142Y-119841224D01*
X176671113Y-119942401D01*
X176669513Y-119943872D01*
X176589602Y-120072756D01*
X176549562Y-120210578D01*
X176547294Y-120218383D01*
X176546516Y-120292727D01*
X176545531Y-120386790D01*
X176532197Y-120400123D01*
X176362465Y-120371800D01*
X175997382Y-120371800D01*
X175965097Y-120375825D01*
X175948953Y-120377837D01*
X175840216Y-120425534D01*
X175752857Y-120505953D01*
X175752856Y-120505955D01*
X175692922Y-120561128D01*
X175584047Y-120442858D01*
X175479617Y-120386343D01*
X175469000Y-120384572D01*
X175469000Y-120646001D01*
X175468999Y-121055583D01*
X175468999Y-121414288D01*
X175559784Y-121374465D01*
X175707078Y-121238872D01*
X175735534Y-121269783D01*
X175735534Y-121269784D01*
X175815953Y-121357143D01*
X175916846Y-121411743D01*
X175920383Y-121413657D01*
X176007536Y-121428200D01*
X176372618Y-121428200D01*
X176409045Y-121423659D01*
X176421047Y-121422163D01*
X176529784Y-121374466D01*
X176617143Y-121294047D01*
X176673656Y-121189619D01*
X176680058Y-121177789D01*
X176715784Y-121157162D01*
X176743250Y-121124429D01*
X176797655Y-121070024D01*
X182645706Y-121070024D01*
X182684955Y-121216505D01*
X182760280Y-121343872D01*
X182762151Y-121347036D01*
X182767940Y-121352587D01*
X182871604Y-121451998D01*
X183005253Y-121523659D01*
X183153249Y-121556741D01*
X183304691Y-121548804D01*
X183448418Y-121500434D01*
X183573842Y-121415196D01*
X183575143Y-121413657D01*
X183671726Y-121299366D01*
X183734854Y-121161482D01*
X183735605Y-121156741D01*
X183758577Y-121011703D01*
X183758700Y-120999998D01*
X183749660Y-120933999D01*
X192539903Y-120933999D01*
X192614264Y-121078069D01*
X192726121Y-121206294D01*
X192865340Y-121304138D01*
X193023877Y-121365951D01*
X193154903Y-121383200D01*
X193496000Y-121383200D01*
X194003999Y-121383200D01*
X194341321Y-121383200D01*
X194468930Y-121367757D01*
X194628105Y-121307610D01*
X194768342Y-121211229D01*
X194881538Y-121084180D01*
X194961054Y-120934000D01*
X194003999Y-120933999D01*
X196869903Y-120933999D01*
X196944264Y-121078069D01*
X197056121Y-121206294D01*
X197195340Y-121304138D01*
X197353877Y-121365951D01*
X197484903Y-121383200D01*
X197676000Y-121383200D01*
X198183999Y-121383200D01*
X198371321Y-121383200D01*
X198498930Y-121367757D01*
X198658105Y-121307610D01*
X198798342Y-121211229D01*
X198911538Y-121084180D01*
X198991054Y-120934000D01*
X198183999Y-120933999D01*
X198183999Y-121383200D01*
X197676000Y-121383200D01*
X197676000Y-120934000D01*
X196869903Y-120933999D01*
X194003999Y-120933999D01*
X194003999Y-121383200D01*
X193496000Y-121383200D01*
X193496000Y-120934000D01*
X192539903Y-120933999D01*
X183749660Y-120933999D01*
X183738119Y-120849755D01*
X183737796Y-120849007D01*
X183699920Y-120761482D01*
X183677892Y-120710577D01*
X183582458Y-120592727D01*
X183582456Y-120592725D01*
X183458843Y-120504878D01*
X183458842Y-120504878D01*
X183458841Y-120504877D01*
X183316161Y-120453509D01*
X183164918Y-120442401D01*
X183016264Y-120472376D01*
X183016262Y-120472377D01*
X182881142Y-120541224D01*
X182774584Y-120639209D01*
X182769513Y-120643872D01*
X182689602Y-120772756D01*
X182647294Y-120918382D01*
X182646439Y-120999998D01*
X182645706Y-121070024D01*
X176797655Y-121070024D01*
X177018668Y-120849011D01*
X177053249Y-120856741D01*
X177053252Y-120856741D01*
X177204691Y-120848804D01*
X177348418Y-120800434D01*
X177473842Y-120715196D01*
X177473843Y-120715195D01*
X177571726Y-120599366D01*
X177634854Y-120461482D01*
X177640474Y-120426000D01*
X192538946Y-120426000D01*
X193496001Y-120426001D01*
X193496001Y-119976800D01*
X194004000Y-119976800D01*
X194004000Y-120426000D01*
X194960097Y-120426001D01*
X194960097Y-120426000D01*
X196868946Y-120426000D01*
X197676001Y-120426001D01*
X197676001Y-119976800D01*
X198184000Y-119976800D01*
X198184000Y-120426000D01*
X198990097Y-120426001D01*
X198915736Y-120281931D01*
X198803879Y-120153706D01*
X198664660Y-120055862D01*
X198506123Y-119994049D01*
X198375097Y-119976800D01*
X198184000Y-119976800D01*
X197676001Y-119976800D01*
X197488679Y-119976800D01*
X197361070Y-119992243D01*
X197201895Y-120052390D01*
X197061658Y-120148771D01*
X196948462Y-120275820D01*
X196868946Y-120426000D01*
X194960097Y-120426000D01*
X194885736Y-120281931D01*
X194773879Y-120153706D01*
X194634660Y-120055862D01*
X194476123Y-119994049D01*
X194345097Y-119976800D01*
X194004000Y-119976800D01*
X193496001Y-119976800D01*
X193158679Y-119976800D01*
X193031070Y-119992243D01*
X192871895Y-120052390D01*
X192731658Y-120148771D01*
X192618462Y-120275820D01*
X192538946Y-120426000D01*
X177640474Y-120426000D01*
X177658577Y-120311703D01*
X177658700Y-120299998D01*
X177638119Y-120149755D01*
X177637694Y-120148771D01*
X177604635Y-120072377D01*
X177577892Y-120010577D01*
X177482458Y-119892727D01*
X177482456Y-119892725D01*
X177408541Y-119840196D01*
X177379332Y-119797856D01*
X177384173Y-119746644D01*
X177420799Y-119710526D01*
X177452104Y-119703700D01*
X199796300Y-119703700D01*
X199796301Y-130196300D01*
X185056342Y-130196300D01*
X185008004Y-130178707D01*
X184982284Y-130134158D01*
X185003168Y-130067926D01*
X185090964Y-129980130D01*
X185119337Y-129944552D01*
X185154583Y-129888457D01*
X185202733Y-129811826D01*
X185222475Y-129770832D01*
X185228243Y-129754350D01*
X185240591Y-129719060D01*
X185274247Y-129622880D01*
X185284372Y-129578515D01*
X185284880Y-129573999D01*
X192539903Y-129573999D01*
X192614264Y-129718069D01*
X192726121Y-129846294D01*
X192865340Y-129944138D01*
X193023877Y-130005951D01*
X193154903Y-130023200D01*
X193496000Y-130023200D01*
X194003999Y-130023200D01*
X194341321Y-130023200D01*
X194468930Y-130007757D01*
X194628105Y-129947610D01*
X194768342Y-129851229D01*
X194881538Y-129724180D01*
X194961054Y-129574000D01*
X194003999Y-129573999D01*
X196869903Y-129573999D01*
X196944264Y-129718069D01*
X197056121Y-129846294D01*
X197195340Y-129944138D01*
X197353877Y-130005951D01*
X197484903Y-130023200D01*
X197676000Y-130023200D01*
X198183999Y-130023200D01*
X198371321Y-130023200D01*
X198498930Y-130007757D01*
X198658105Y-129947610D01*
X198798342Y-129851229D01*
X198911538Y-129724180D01*
X198991054Y-129574000D01*
X198183999Y-129573999D01*
X198183999Y-130023200D01*
X197676000Y-130023200D01*
X197676000Y-129574000D01*
X196869903Y-129573999D01*
X194003999Y-129573999D01*
X194003999Y-130023200D01*
X193496000Y-130023200D01*
X193496000Y-129574000D01*
X192539903Y-129573999D01*
X185284880Y-129573999D01*
X185287285Y-129552666D01*
X185301922Y-129422751D01*
X185301922Y-129377249D01*
X185284372Y-129221484D01*
X185274247Y-129177121D01*
X185250513Y-129109293D01*
X185222474Y-129029165D01*
X185202734Y-128988176D01*
X185119337Y-128855448D01*
X185090964Y-128819870D01*
X184980130Y-128709036D01*
X184944552Y-128680663D01*
X184883137Y-128642074D01*
X184851568Y-128601460D01*
X184853491Y-128550056D01*
X184888006Y-128511915D01*
X184923145Y-128503200D01*
X184989489Y-128503200D01*
X185011858Y-128517050D01*
X185040657Y-128522433D01*
X185098253Y-128533200D01*
X185346259Y-128533200D01*
X185425156Y-128514643D01*
X185464606Y-128505365D01*
X185544970Y-128444677D01*
X185661856Y-128517049D01*
X185661858Y-128517049D01*
X185661859Y-128517050D01*
X185748253Y-128533200D01*
X185996259Y-128533200D01*
X186075156Y-128514643D01*
X186114606Y-128505365D01*
X186145570Y-128481981D01*
X186201422Y-128439804D01*
X186213999Y-128456458D01*
X186217144Y-128458406D01*
X186220753Y-128471873D01*
X186245909Y-128507799D01*
X186267839Y-128545783D01*
X186300564Y-128573243D01*
X187188970Y-129461650D01*
X187216428Y-129494373D01*
X187243130Y-129509790D01*
X187254416Y-129516306D01*
X187290338Y-129541459D01*
X187304604Y-129545282D01*
X187317396Y-129552667D01*
X187346172Y-129557741D01*
X187360602Y-129560285D01*
X187402954Y-129571634D01*
X187445500Y-129567912D01*
X189949500Y-129567912D01*
X189992045Y-129571634D01*
X190034402Y-129560285D01*
X190077604Y-129552667D01*
X190090395Y-129545282D01*
X190104660Y-129541460D01*
X190140576Y-129516311D01*
X190161818Y-129504046D01*
X190178572Y-129494373D01*
X190206030Y-129461650D01*
X190206038Y-129461641D01*
X190429963Y-129237717D01*
X190462684Y-129210261D01*
X190478099Y-129183561D01*
X190484615Y-129172276D01*
X190509770Y-129136351D01*
X190513593Y-129122085D01*
X190520978Y-129109293D01*
X190526519Y-129077869D01*
X190553576Y-129066000D01*
X192538946Y-129066000D01*
X193496001Y-129066001D01*
X193496001Y-128616800D01*
X194004000Y-128616800D01*
X194004000Y-129066000D01*
X194960097Y-129066001D01*
X194960097Y-129066000D01*
X196868946Y-129066000D01*
X197676001Y-129066001D01*
X197676001Y-128616800D01*
X198184000Y-128616800D01*
X198184000Y-129066000D01*
X198990097Y-129066001D01*
X198915736Y-128921931D01*
X198803879Y-128793706D01*
X198664660Y-128695862D01*
X198506123Y-128634049D01*
X198375097Y-128616800D01*
X198184000Y-128616800D01*
X197676001Y-128616800D01*
X197488679Y-128616800D01*
X197361070Y-128632243D01*
X197201895Y-128692390D01*
X197061658Y-128788771D01*
X196948462Y-128915820D01*
X196868946Y-129066000D01*
X194960097Y-129066000D01*
X194885736Y-128921931D01*
X194773879Y-128793706D01*
X194634660Y-128695862D01*
X194476123Y-128634049D01*
X194345097Y-128616800D01*
X194004000Y-128616800D01*
X193496001Y-128616800D01*
X193158679Y-128616800D01*
X193031070Y-128632243D01*
X192871895Y-128692390D01*
X192731658Y-128788771D01*
X192618462Y-128915820D01*
X192538946Y-129066000D01*
X190553576Y-129066000D01*
X190575307Y-129056468D01*
X190662666Y-128976049D01*
X190719179Y-128871621D01*
X190719180Y-128871619D01*
X190733723Y-128784466D01*
X190733723Y-128419384D01*
X190727686Y-128370957D01*
X190727686Y-128370955D01*
X190679989Y-128262218D01*
X190638209Y-128216832D01*
X190618415Y-128169354D01*
X190633771Y-128120260D01*
X190693536Y-128090702D01*
X191116918Y-128090702D01*
X191194197Y-128153281D01*
X191205086Y-128162099D01*
X191374348Y-128248344D01*
X191374350Y-128248345D01*
X191374351Y-128248345D01*
X191557847Y-128297512D01*
X191747557Y-128307454D01*
X191747558Y-128307454D01*
X191935189Y-128277736D01*
X192112539Y-128209658D01*
X192123619Y-128202463D01*
X192271863Y-128106192D01*
X192271866Y-128106190D01*
X192406190Y-127971866D01*
X192407387Y-127970023D01*
X192415954Y-127956830D01*
X193721004Y-127956830D01*
X193756219Y-128088250D01*
X193758463Y-128096623D01*
X193832135Y-128221196D01*
X193936593Y-128321368D01*
X194064141Y-128389759D01*
X194205383Y-128421330D01*
X194349913Y-128413756D01*
X194487079Y-128367594D01*
X194517242Y-128347095D01*
X194606780Y-128286245D01*
X194700196Y-128175703D01*
X194760443Y-128044112D01*
X194760444Y-128044110D01*
X194783083Y-127901168D01*
X194783200Y-127889998D01*
X194764296Y-127751997D01*
X194763558Y-127746612D01*
X194709626Y-127621983D01*
X194706081Y-127613790D01*
X194706080Y-127613788D01*
X194615001Y-127501314D01*
X194497029Y-127417476D01*
X194497028Y-127417476D01*
X194497027Y-127417475D01*
X194360860Y-127368452D01*
X194216519Y-127357851D01*
X194074650Y-127386458D01*
X194074648Y-127386459D01*
X193945696Y-127452163D01*
X193852334Y-127538014D01*
X193839161Y-127550127D01*
X193838206Y-127551668D01*
X193762898Y-127673128D01*
X193755855Y-127697371D01*
X193722520Y-127812108D01*
X193721004Y-127956830D01*
X192415954Y-127956830D01*
X192509657Y-127812541D01*
X192512136Y-127806084D01*
X192577736Y-127635189D01*
X192607454Y-127447558D01*
X192605878Y-127417476D01*
X192597512Y-127257847D01*
X192548345Y-127074351D01*
X192548345Y-127074350D01*
X192548344Y-127074348D01*
X192462099Y-126905085D01*
X192372652Y-126794628D01*
X192225674Y-126647650D01*
X191908776Y-126059127D01*
X191904615Y-126048411D01*
X191903200Y-126037014D01*
X191903200Y-125399999D01*
X191899296Y-125360357D01*
X191884072Y-125283821D01*
X191853730Y-125210570D01*
X191810375Y-125145686D01*
X191802132Y-125137443D01*
X191788563Y-125113941D01*
X191786336Y-125110083D01*
X191780725Y-125104877D01*
X191687852Y-125018703D01*
X191566810Y-124960412D01*
X191467137Y-124945389D01*
X190932537Y-124945389D01*
X190794306Y-124971543D01*
X190750561Y-124996800D01*
X189657253Y-124996800D01*
X189565361Y-124952547D01*
X189465688Y-124937524D01*
X188931088Y-124937524D01*
X188792856Y-124963679D01*
X188676509Y-125030852D01*
X188676508Y-125030853D01*
X188585129Y-125129336D01*
X188533950Y-125235609D01*
X188526838Y-125250378D01*
X188511815Y-125350051D01*
X188511815Y-125846300D01*
X186408192Y-125846300D01*
X186386817Y-125841698D01*
X186347934Y-125846300D01*
X186339880Y-125846300D01*
X186320045Y-125849601D01*
X186269845Y-125855543D01*
X186262152Y-125859237D01*
X186257942Y-125859938D01*
X186253731Y-125860639D01*
X186231481Y-125872645D01*
X186209230Y-125884650D01*
X186163665Y-125906530D01*
X186154671Y-125914089D01*
X186150070Y-125916571D01*
X186150069Y-125916572D01*
X186150067Y-125916573D01*
X186115431Y-125954045D01*
X186112531Y-125957182D01*
X185923170Y-126146543D01*
X185876550Y-126168283D01*
X185826863Y-126154969D01*
X185795492Y-126103575D01*
X185788119Y-126049755D01*
X185787538Y-126048411D01*
X185754799Y-125972756D01*
X185727892Y-125910577D01*
X185632458Y-125792727D01*
X185632456Y-125792725D01*
X185508843Y-125704878D01*
X185508842Y-125704878D01*
X185508841Y-125704877D01*
X185366161Y-125653509D01*
X185214918Y-125642401D01*
X185066264Y-125672376D01*
X185066262Y-125672377D01*
X184931142Y-125741224D01*
X184848695Y-125817038D01*
X184819513Y-125843872D01*
X184739602Y-125972756D01*
X184659795Y-126247456D01*
X184064335Y-125651997D01*
X184056204Y-125639110D01*
X184015498Y-125603160D01*
X184000291Y-125587953D01*
X183987002Y-125577993D01*
X183948097Y-125543634D01*
X183929518Y-125534911D01*
X183913098Y-125522605D01*
X183913097Y-125522605D01*
X183913096Y-125522604D01*
X183864510Y-125504389D01*
X183817540Y-125482337D01*
X183797258Y-125479179D01*
X183778044Y-125471976D01*
X183731054Y-125468484D01*
X183696822Y-125409193D01*
X183691690Y-125400303D01*
X183683056Y-125392292D01*
X183593206Y-125308923D01*
X183472164Y-125250632D01*
X183372491Y-125235609D01*
X182837891Y-125235609D01*
X182699659Y-125261764D01*
X182583310Y-125328938D01*
X182456963Y-125465109D01*
X182453788Y-125465109D01*
X182404354Y-125427184D01*
X182404351Y-125427183D01*
X182404350Y-125427182D01*
X182257543Y-125366373D01*
X182257541Y-125366373D01*
X182243677Y-125360630D01*
X182272062Y-125298633D01*
X182330619Y-125170732D01*
X182330943Y-125170024D01*
X184045706Y-125170024D01*
X184084955Y-125316505D01*
X184160626Y-125444457D01*
X184162151Y-125447036D01*
X184189612Y-125473370D01*
X184271604Y-125551998D01*
X184405253Y-125623659D01*
X184553249Y-125656741D01*
X184704691Y-125648804D01*
X184848418Y-125600434D01*
X184973842Y-125515196D01*
X184986684Y-125500000D01*
X185071726Y-125399366D01*
X185134854Y-125261482D01*
X185140897Y-125223331D01*
X185149339Y-125170024D01*
X187245706Y-125170024D01*
X187284955Y-125316505D01*
X187360626Y-125444457D01*
X187362151Y-125447036D01*
X187389612Y-125473370D01*
X187471604Y-125551998D01*
X187605253Y-125623659D01*
X187753249Y-125656741D01*
X187904691Y-125648804D01*
X188048418Y-125600434D01*
X188173842Y-125515196D01*
X188186684Y-125500000D01*
X188271726Y-125399366D01*
X188334854Y-125261482D01*
X188340897Y-125223331D01*
X188358577Y-125111703D01*
X188358700Y-125099998D01*
X188342860Y-124984368D01*
X188338119Y-124949754D01*
X188302936Y-124868451D01*
X188277892Y-124810577D01*
X188182458Y-124692727D01*
X188182456Y-124692725D01*
X188058843Y-124604878D01*
X188058842Y-124604878D01*
X188058841Y-124604877D01*
X187916161Y-124553509D01*
X187764918Y-124542401D01*
X187616264Y-124572376D01*
X187616262Y-124572377D01*
X187481142Y-124641224D01*
X187405721Y-124710577D01*
X187369513Y-124743872D01*
X187289602Y-124872756D01*
X187249235Y-125011703D01*
X187247294Y-125018383D01*
X187245706Y-125170024D01*
X185149339Y-125170024D01*
X185158577Y-125111703D01*
X185158700Y-125099998D01*
X185142860Y-124984368D01*
X185138119Y-124949754D01*
X185102936Y-124868451D01*
X185077892Y-124810577D01*
X184982458Y-124692727D01*
X184982456Y-124692725D01*
X184858843Y-124604878D01*
X184858842Y-124604878D01*
X184858841Y-124604877D01*
X184716161Y-124553509D01*
X184564918Y-124542401D01*
X184416264Y-124572376D01*
X184416262Y-124572377D01*
X184281142Y-124641224D01*
X184205721Y-124710577D01*
X184169513Y-124743872D01*
X184089602Y-124872756D01*
X184049235Y-125011703D01*
X184047294Y-125018383D01*
X184045706Y-125170024D01*
X182330943Y-125170024D01*
X182334855Y-125161480D01*
X182358577Y-125011703D01*
X182358700Y-124999998D01*
X182338119Y-124849755D01*
X182329899Y-124830758D01*
X182299364Y-124760196D01*
X182277892Y-124710577D01*
X182182458Y-124592727D01*
X182182456Y-124592725D01*
X182058843Y-124504878D01*
X182058842Y-124504878D01*
X182058841Y-124504877D01*
X181969766Y-124472808D01*
X182418618Y-124472808D01*
X182418618Y-124532736D01*
X182444773Y-124670968D01*
X182511946Y-124787315D01*
X182610431Y-124878695D01*
X182731472Y-124936986D01*
X182831145Y-124952009D01*
X182847818Y-124952009D01*
X183355817Y-124952009D01*
X183365745Y-124952009D01*
X183503977Y-124925854D01*
X183620324Y-124858681D01*
X183711704Y-124760196D01*
X183769995Y-124639155D01*
X183785018Y-124539482D01*
X183785018Y-124472809D01*
X183355818Y-124472809D01*
X183355817Y-124952009D01*
X182847818Y-124952009D01*
X182847819Y-124472808D01*
X182418618Y-124472808D01*
X181969766Y-124472808D01*
X181916161Y-124453509D01*
X181764918Y-124442401D01*
X181616264Y-124472376D01*
X181616262Y-124472377D01*
X181481142Y-124541224D01*
X181425133Y-124592727D01*
X181369513Y-124643872D01*
X181328154Y-124710578D01*
X181291932Y-124768999D01*
X181291931Y-124769000D01*
X181053999Y-124769000D01*
X180285712Y-124768999D01*
X180325535Y-124859784D01*
X180461128Y-125007078D01*
X180430217Y-125035534D01*
X180430216Y-125035534D01*
X180342857Y-125115953D01*
X180288741Y-125215952D01*
X180286343Y-125220383D01*
X180271800Y-125307536D01*
X180271800Y-125672618D01*
X180275821Y-125704877D01*
X180277837Y-125721047D01*
X180325534Y-125829784D01*
X180405953Y-125917143D01*
X180508718Y-125972756D01*
X180510383Y-125973657D01*
X180597536Y-125988200D01*
X181012618Y-125988200D01*
X181044903Y-125984175D01*
X181061047Y-125982163D01*
X181169784Y-125934466D01*
X181257143Y-125854047D01*
X181291173Y-125791164D01*
X181314179Y-125790300D01*
X181341850Y-125790300D01*
X181348836Y-125788999D01*
X181377487Y-125787923D01*
X181383218Y-125787708D01*
X181404227Y-125778682D01*
X181517195Y-125757649D01*
X181512042Y-125796786D01*
X181512041Y-125796789D01*
X181491300Y-125954332D01*
X181512041Y-126111875D01*
X181572850Y-126258682D01*
X181669584Y-126384748D01*
X181795650Y-126481482D01*
X181942457Y-126542291D01*
X182100000Y-126563032D01*
X182257543Y-126542291D01*
X182404350Y-126481482D01*
X182426013Y-126472509D01*
X182474530Y-126472509D01*
X182476925Y-126476657D01*
X182506433Y-126527765D01*
X182511947Y-126537316D01*
X182610430Y-126628695D01*
X182720815Y-126681854D01*
X182731472Y-126686986D01*
X182831145Y-126702009D01*
X183365745Y-126702009D01*
X183503976Y-126675855D01*
X183534024Y-126658506D01*
X183605120Y-126617459D01*
X184146300Y-127158639D01*
X184146300Y-127333257D01*
X184146800Y-127336582D01*
X184146800Y-128100000D01*
X184150704Y-128139642D01*
X184165928Y-128216179D01*
X184196270Y-128289430D01*
X184239625Y-128354314D01*
X184253737Y-128368426D01*
X184275477Y-128415046D01*
X184262163Y-128464733D01*
X184200563Y-128496800D01*
X183416261Y-128496800D01*
X183369600Y-128469860D01*
X183188931Y-128411157D01*
X183047573Y-128396300D01*
X182115922Y-128396300D01*
X182173657Y-128289618D01*
X182179600Y-128254000D01*
X181431000Y-128254000D01*
X181431000Y-127746000D01*
X181939000Y-127746000D01*
X182183041Y-127746000D01*
X182182163Y-127738953D01*
X182134466Y-127630216D01*
X182054047Y-127542858D01*
X181949617Y-127486343D01*
X181939000Y-127484572D01*
X181939000Y-127746000D01*
X181431000Y-127746000D01*
X181431000Y-127485712D01*
X181340216Y-127525534D01*
X181192922Y-127661128D01*
X181164466Y-127630216D01*
X181084047Y-127542857D01*
X180979619Y-127486344D01*
X180979617Y-127486343D01*
X180892464Y-127471800D01*
X180527382Y-127471800D01*
X180495097Y-127475825D01*
X180478953Y-127477837D01*
X180370216Y-127525534D01*
X180282857Y-127605953D01*
X180282856Y-127605955D01*
X180248575Y-127669300D01*
X179977528Y-127669300D01*
X179953408Y-127639515D01*
X179924170Y-127618737D01*
X179829795Y-127551668D01*
X179829794Y-127551668D01*
X179829793Y-127551667D01*
X179687113Y-127500299D01*
X179535870Y-127489191D01*
X179387216Y-127519166D01*
X179387214Y-127519167D01*
X179252094Y-127588014D01*
X179163696Y-127669300D01*
X179140465Y-127690662D01*
X179060554Y-127819546D01*
X179033801Y-127911633D01*
X179018246Y-127965173D01*
X179016658Y-128116814D01*
X179043458Y-128216833D01*
X179055907Y-128263295D01*
X179067454Y-128282820D01*
X179076916Y-128333382D01*
X179051664Y-128378197D01*
X179002726Y-128396300D01*
X156225876Y-128396300D01*
X156274719Y-128289619D01*
X156334854Y-128158272D01*
X156335644Y-128153282D01*
X156358577Y-128008493D01*
X156358700Y-127996790D01*
X156357970Y-127991460D01*
X156368843Y-127941182D01*
X156409489Y-127909656D01*
X156460891Y-127911633D01*
X156485648Y-127928082D01*
X156612213Y-128054647D01*
X156639671Y-128087370D01*
X156655693Y-128096620D01*
X156677656Y-128109301D01*
X156713581Y-128134456D01*
X156727847Y-128138279D01*
X156740640Y-128145665D01*
X156783837Y-128153282D01*
X156826196Y-128164631D01*
X156868741Y-128160909D01*
X158175323Y-128160909D01*
X158217868Y-128164631D01*
X158260225Y-128153282D01*
X158303427Y-128145664D01*
X158316218Y-128138279D01*
X158330483Y-128134457D01*
X158351985Y-128119401D01*
X158366401Y-128109307D01*
X158398400Y-128090831D01*
X158404395Y-128087370D01*
X158410805Y-128079731D01*
X158431861Y-128054638D01*
X158457278Y-128029221D01*
X158491859Y-128036951D01*
X158491864Y-128036951D01*
X158643301Y-128029014D01*
X158787028Y-127980644D01*
X158912452Y-127895406D01*
X158916273Y-127890885D01*
X159010336Y-127779576D01*
X159073464Y-127641692D01*
X159087064Y-127555825D01*
X159097187Y-127491913D01*
X159097310Y-127480208D01*
X159081931Y-127367943D01*
X159076729Y-127329964D01*
X159033284Y-127229568D01*
X159016502Y-127190787D01*
X158921068Y-127072937D01*
X158921066Y-127072935D01*
X158797453Y-126985088D01*
X158797452Y-126985088D01*
X158797451Y-126985087D01*
X158654771Y-126933719D01*
X158439896Y-126917938D01*
X158453861Y-126829765D01*
X158453984Y-126818064D01*
X158453185Y-126812226D01*
X158433403Y-126667819D01*
X158430191Y-126660395D01*
X158395701Y-126580694D01*
X158373176Y-126528641D01*
X158277742Y-126410791D01*
X158277740Y-126410789D01*
X158154127Y-126322942D01*
X158154126Y-126322942D01*
X158154125Y-126322941D01*
X158011445Y-126271573D01*
X157860206Y-126260466D01*
X157860203Y-126260466D01*
X157814567Y-126269668D01*
X157702178Y-126157279D01*
X157680438Y-126110659D01*
X157693752Y-126060972D01*
X157755352Y-126028905D01*
X158441800Y-126028905D01*
X158441800Y-126240001D01*
X158457647Y-126319673D01*
X158457648Y-126319674D01*
X158457648Y-126319675D01*
X158502780Y-126387220D01*
X158570325Y-126432352D01*
X158570326Y-126432352D01*
X158570327Y-126432353D01*
X158649999Y-126448200D01*
X159570927Y-126448200D01*
X159608126Y-126474247D01*
X159720742Y-126504422D01*
X159826725Y-126495150D01*
X159836886Y-126494261D01*
X159935663Y-126448200D01*
X161050001Y-126448200D01*
X161129673Y-126432353D01*
X161129674Y-126432352D01*
X161129675Y-126432352D01*
X161197220Y-126387220D01*
X161242352Y-126319675D01*
X161242352Y-126319674D01*
X161242353Y-126319673D01*
X161258200Y-126240001D01*
X161258200Y-125898157D01*
X161691300Y-125898157D01*
X161712041Y-126055700D01*
X161772850Y-126202507D01*
X161869584Y-126328573D01*
X161995650Y-126425307D01*
X162142457Y-126486116D01*
X162300000Y-126506857D01*
X162457543Y-126486116D01*
X162549082Y-126448200D01*
X164950001Y-126448200D01*
X165029673Y-126432353D01*
X165029674Y-126432352D01*
X165029675Y-126432352D01*
X165097220Y-126387220D01*
X165126663Y-126343155D01*
X167639928Y-126343155D01*
X167704523Y-126378111D01*
X167791678Y-126392655D01*
X168206760Y-126392655D01*
X168239045Y-126388630D01*
X168255189Y-126386618D01*
X168363926Y-126338921D01*
X168363927Y-126338920D01*
X168385387Y-126329507D01*
X169639573Y-126329507D01*
X169704168Y-126364463D01*
X169791323Y-126379007D01*
X170206405Y-126379007D01*
X170246145Y-126374053D01*
X170254834Y-126372970D01*
X170302966Y-126351857D01*
X171099928Y-126351857D01*
X171195650Y-126425307D01*
X171342457Y-126486116D01*
X171500000Y-126506857D01*
X171657543Y-126486116D01*
X171804350Y-126425307D01*
X171930416Y-126328573D01*
X172027150Y-126202507D01*
X172087959Y-126055700D01*
X172108700Y-125898157D01*
X172100840Y-125838452D01*
X172092294Y-125773542D01*
X172724438Y-125141399D01*
X172735197Y-125132371D01*
X172833959Y-125299366D01*
X172860280Y-125343872D01*
X172862151Y-125347036D01*
X172903048Y-125386255D01*
X172971604Y-125451998D01*
X173089469Y-125515196D01*
X173105253Y-125523659D01*
X173194414Y-125543591D01*
X173172852Y-125595648D01*
X173172850Y-125595650D01*
X173112041Y-125742457D01*
X173091300Y-125900000D01*
X173112041Y-126057543D01*
X173172850Y-126204350D01*
X173269584Y-126330416D01*
X173395650Y-126427150D01*
X173542457Y-126487959D01*
X173700000Y-126508700D01*
X173857543Y-126487959D01*
X174004350Y-126427150D01*
X174130416Y-126330416D01*
X174227150Y-126204350D01*
X174287959Y-126057543D01*
X174302723Y-125945400D01*
X174309978Y-125890300D01*
X174508215Y-125890300D01*
X174525534Y-125929784D01*
X174605953Y-126017143D01*
X174686943Y-126060972D01*
X174710383Y-126073657D01*
X174797536Y-126088200D01*
X175212618Y-126088200D01*
X175244903Y-126084175D01*
X175261047Y-126082163D01*
X175369784Y-126034466D01*
X175457143Y-125954047D01*
X175457145Y-125954045D01*
X175477897Y-125915700D01*
X176112569Y-125915700D01*
X176125534Y-125929783D01*
X176125534Y-125929784D01*
X176205953Y-126017143D01*
X176286943Y-126060972D01*
X176310383Y-126073657D01*
X176397536Y-126088200D01*
X176812618Y-126088200D01*
X176844903Y-126084175D01*
X176861047Y-126082163D01*
X176969784Y-126034466D01*
X177057143Y-125954047D01*
X177113656Y-125849619D01*
X177113657Y-125849617D01*
X177128200Y-125762464D01*
X177128200Y-125397382D01*
X177122300Y-125350051D01*
X177122163Y-125348953D01*
X177074466Y-125240216D01*
X176994047Y-125152857D01*
X176994045Y-125152856D01*
X176938872Y-125092922D01*
X177057142Y-124984047D01*
X177113657Y-124879617D01*
X177115428Y-124869000D01*
X176853999Y-124869000D01*
X176085712Y-124868999D01*
X176125535Y-124959784D01*
X176261128Y-125107078D01*
X176230217Y-125135534D01*
X176230216Y-125135534D01*
X176146503Y-125212597D01*
X176142855Y-125215955D01*
X176122103Y-125254300D01*
X175487431Y-125254300D01*
X175470225Y-125235609D01*
X175394047Y-125152857D01*
X175394045Y-125152856D01*
X175338872Y-125092922D01*
X175457142Y-124984047D01*
X175513657Y-124879617D01*
X175515428Y-124869000D01*
X175253999Y-124869000D01*
X174485712Y-124868999D01*
X174525535Y-124959784D01*
X174661127Y-125107078D01*
X174542857Y-125215952D01*
X174538864Y-125223331D01*
X174508359Y-125279700D01*
X174165195Y-125279700D01*
X174160329Y-125278029D01*
X174160328Y-125278029D01*
X174115820Y-125279700D01*
X174088151Y-125279700D01*
X174081165Y-125281001D01*
X174046780Y-125282292D01*
X174025769Y-125291319D01*
X174003292Y-125295505D01*
X173973997Y-125313563D01*
X173951184Y-125323364D01*
X173918636Y-125337347D01*
X173857543Y-125312041D01*
X173857542Y-125312041D01*
X173780528Y-125280140D01*
X173780730Y-125279700D01*
X173830619Y-125170732D01*
X173834855Y-125161480D01*
X173858577Y-125011703D01*
X173858700Y-124999998D01*
X173838119Y-124849755D01*
X173829899Y-124830758D01*
X173799364Y-124760196D01*
X173777892Y-124710577D01*
X173682458Y-124592727D01*
X173682456Y-124592725D01*
X173558843Y-124504878D01*
X173558842Y-124504878D01*
X173558841Y-124504877D01*
X173416161Y-124453509D01*
X173264918Y-124442401D01*
X173208915Y-124453694D01*
X173158054Y-124446003D01*
X173124036Y-124407417D01*
X173122779Y-124355993D01*
X173140877Y-124326804D01*
X173209440Y-124258240D01*
X173211204Y-124256760D01*
X173242161Y-124230784D01*
X173259934Y-124200000D01*
X173264094Y-124192796D01*
X173289247Y-124156874D01*
X173293070Y-124142607D01*
X173300455Y-124129816D01*
X173307322Y-124090868D01*
X173308074Y-124086606D01*
X173309079Y-124082858D01*
X173315399Y-124059271D01*
X173328130Y-124011765D01*
X173422252Y-123925119D01*
X173423043Y-123923659D01*
X173478766Y-123820690D01*
X173478767Y-123820688D01*
X173493310Y-123733535D01*
X173493310Y-123570024D01*
X174445706Y-123570024D01*
X174484955Y-123716505D01*
X174552958Y-123831491D01*
X174562151Y-123847036D01*
X174671604Y-123951998D01*
X174735798Y-123986418D01*
X174770085Y-124024765D01*
X174771701Y-124076179D01*
X174730471Y-124121558D01*
X174630216Y-124165534D01*
X174542858Y-124245953D01*
X174486343Y-124350383D01*
X174484572Y-124361000D01*
X174746001Y-124361000D01*
X175514288Y-124361001D01*
X176854000Y-124361001D01*
X177114288Y-124361001D01*
X177074465Y-124270216D01*
X177065983Y-124261001D01*
X181054000Y-124261001D01*
X181314288Y-124261001D01*
X181274465Y-124170216D01*
X181194047Y-124082858D01*
X181089617Y-124026343D01*
X181054000Y-124020400D01*
X181054000Y-124261001D01*
X177065983Y-124261001D01*
X177065982Y-124261000D01*
X180284572Y-124261000D01*
X180546001Y-124261000D01*
X180546001Y-124016958D01*
X180538953Y-124017837D01*
X180430216Y-124065534D01*
X180342858Y-124145953D01*
X180286343Y-124250383D01*
X180284572Y-124261000D01*
X177065982Y-124261000D01*
X176994047Y-124182858D01*
X176889617Y-124126343D01*
X176854000Y-124120400D01*
X176854000Y-124361001D01*
X175514288Y-124361001D01*
X175514288Y-124361000D01*
X176084572Y-124361000D01*
X176346001Y-124361000D01*
X176346001Y-124116958D01*
X176338953Y-124117837D01*
X176230216Y-124165534D01*
X176142858Y-124245953D01*
X176086343Y-124350383D01*
X176084572Y-124361000D01*
X175514288Y-124361000D01*
X175474465Y-124270216D01*
X175394047Y-124182858D01*
X175278583Y-124120372D01*
X175279234Y-124119169D01*
X175248117Y-124101584D01*
X175230078Y-124053411D01*
X175263006Y-123990521D01*
X175300838Y-123964810D01*
X183355817Y-123964810D01*
X183785018Y-123964810D01*
X183785018Y-123904882D01*
X183758863Y-123766650D01*
X183691690Y-123650303D01*
X183593205Y-123558923D01*
X183472164Y-123500632D01*
X183385031Y-123487499D01*
X184816800Y-123487499D01*
X184816800Y-124021257D01*
X184844635Y-124139606D01*
X184914000Y-124231458D01*
X185011859Y-124292050D01*
X185025000Y-124294507D01*
X185025000Y-124289680D01*
X185424999Y-124289680D01*
X185464606Y-124280365D01*
X185544970Y-124219677D01*
X185661860Y-124292050D01*
X185675000Y-124294507D01*
X185675000Y-124289680D01*
X186074999Y-124289680D01*
X186114606Y-124280365D01*
X186194970Y-124219677D01*
X186311860Y-124292050D01*
X186325000Y-124294507D01*
X186325000Y-124289680D01*
X186724999Y-124289680D01*
X186764606Y-124280365D01*
X186844970Y-124219677D01*
X186961860Y-124292050D01*
X186975000Y-124294507D01*
X186975000Y-124289680D01*
X187374999Y-124289680D01*
X187414606Y-124280365D01*
X187506458Y-124211000D01*
X187528920Y-124174723D01*
X188511815Y-124174723D01*
X188511815Y-124234651D01*
X188537970Y-124372883D01*
X188605143Y-124489230D01*
X188703628Y-124580610D01*
X188824669Y-124638901D01*
X188924342Y-124653924D01*
X188941015Y-124653924D01*
X189449014Y-124653924D01*
X189458942Y-124653924D01*
X189597174Y-124627769D01*
X189713521Y-124560596D01*
X189804901Y-124462111D01*
X189863192Y-124341070D01*
X189878215Y-124241397D01*
X189878215Y-124182588D01*
X190513264Y-124182588D01*
X190513264Y-124242516D01*
X190539419Y-124380748D01*
X190606592Y-124497095D01*
X190705077Y-124588475D01*
X190826118Y-124646766D01*
X190925791Y-124661789D01*
X190942464Y-124661789D01*
X191450463Y-124661789D01*
X191460391Y-124661789D01*
X191598623Y-124635634D01*
X191714970Y-124568461D01*
X191806350Y-124469976D01*
X191864641Y-124348935D01*
X191879664Y-124249262D01*
X191879664Y-124182589D01*
X191450464Y-124182589D01*
X191450463Y-124661789D01*
X190942464Y-124661789D01*
X190942465Y-124182588D01*
X190513264Y-124182588D01*
X189878215Y-124182588D01*
X189878215Y-124174724D01*
X189449015Y-124174724D01*
X189449014Y-124653924D01*
X188941015Y-124653924D01*
X188941016Y-124174723D01*
X188511815Y-124174723D01*
X187528920Y-124174723D01*
X187567050Y-124113142D01*
X187583200Y-124026745D01*
X187583200Y-123666725D01*
X189449014Y-123666725D01*
X189878215Y-123666725D01*
X189878215Y-123607916D01*
X190513264Y-123607916D01*
X190513264Y-123674589D01*
X190942465Y-123674589D01*
X191879664Y-123674590D01*
X191879664Y-123614662D01*
X191853509Y-123476430D01*
X191756723Y-123308793D01*
X191774078Y-123304818D01*
X191774079Y-123304818D01*
X191940064Y-123266802D01*
X192092189Y-123190291D01*
X192092191Y-123190290D01*
X192153591Y-123137849D01*
X192221672Y-123079702D01*
X192321039Y-122941419D01*
X192354455Y-122858295D01*
X192384552Y-122783426D01*
X192395036Y-122709759D01*
X192408545Y-122614842D01*
X192408700Y-122600000D01*
X192407803Y-122592580D01*
X192388243Y-122430950D01*
X192330006Y-122276830D01*
X193721004Y-122276830D01*
X193758462Y-122416620D01*
X193758463Y-122416623D01*
X193832135Y-122541196D01*
X193936593Y-122641368D01*
X194064141Y-122709759D01*
X194088107Y-122715116D01*
X194132893Y-122725127D01*
X194176229Y-122752841D01*
X194191612Y-122801927D01*
X194167391Y-122853869D01*
X194081145Y-122933176D01*
X194069513Y-122943872D01*
X193989602Y-123072756D01*
X193948661Y-123213679D01*
X193947294Y-123218383D01*
X193945706Y-123370024D01*
X193984955Y-123516505D01*
X194062150Y-123647035D01*
X194171604Y-123751998D01*
X194292756Y-123816958D01*
X194305253Y-123823659D01*
X194453249Y-123856741D01*
X194604691Y-123848804D01*
X194748418Y-123800434D01*
X194873842Y-123715196D01*
X194893817Y-123691559D01*
X194971726Y-123599366D01*
X195034854Y-123461482D01*
X195042610Y-123412515D01*
X195058577Y-123311703D01*
X195058700Y-123299998D01*
X195038119Y-123149755D01*
X195035574Y-123143872D01*
X195003303Y-123069300D01*
X194977892Y-123010577D01*
X194882458Y-122892727D01*
X194882456Y-122892725D01*
X194758843Y-122804878D01*
X194758842Y-122804878D01*
X194758841Y-122804877D01*
X194607240Y-122750297D01*
X194567719Y-122717370D01*
X194558610Y-122666743D01*
X194590442Y-122617348D01*
X194606780Y-122606245D01*
X194700196Y-122495703D01*
X194760443Y-122364112D01*
X194760444Y-122364110D01*
X194783083Y-122221168D01*
X194783200Y-122209998D01*
X194764413Y-122072851D01*
X194763558Y-122066612D01*
X194706080Y-121933788D01*
X194615001Y-121821314D01*
X194497029Y-121737476D01*
X194497028Y-121737476D01*
X194497027Y-121737475D01*
X194360860Y-121688452D01*
X194216519Y-121677851D01*
X194074650Y-121706458D01*
X194074648Y-121706459D01*
X193945696Y-121772163D01*
X193859880Y-121851075D01*
X193839161Y-121870127D01*
X193825655Y-121891911D01*
X193762898Y-121993128D01*
X193747236Y-122047036D01*
X193722520Y-122132108D01*
X193721004Y-122276830D01*
X192330006Y-122276830D01*
X192328053Y-122271663D01*
X192231604Y-122131327D01*
X192104466Y-122018052D01*
X191953975Y-121938372D01*
X191788825Y-121896888D01*
X191703684Y-121896442D01*
X191618544Y-121895997D01*
X191618543Y-121895997D01*
X191452969Y-121935747D01*
X191452967Y-121935748D01*
X191301652Y-122013848D01*
X191296833Y-122018052D01*
X191173335Y-122125784D01*
X191147107Y-122163103D01*
X191075987Y-122264297D01*
X191075418Y-122265106D01*
X191013908Y-122422874D01*
X191013565Y-122423753D01*
X190991339Y-122592579D01*
X191010025Y-122761832D01*
X191068543Y-122921742D01*
X191089885Y-122953502D01*
X191163518Y-123063079D01*
X191163520Y-123063081D01*
X191165154Y-123064568D01*
X191167423Y-123068889D01*
X191168594Y-123070632D01*
X191168405Y-123070759D01*
X191189067Y-123110112D01*
X191178109Y-123160371D01*
X191114545Y-123195389D01*
X190932537Y-123195389D01*
X190794305Y-123221544D01*
X190677958Y-123288717D01*
X190586578Y-123387202D01*
X190528287Y-123508243D01*
X190513264Y-123607916D01*
X189878215Y-123607916D01*
X189878215Y-123606797D01*
X189852060Y-123468565D01*
X189784887Y-123352218D01*
X189686402Y-123260838D01*
X189565361Y-123202547D01*
X189465688Y-123187524D01*
X189449015Y-123187524D01*
X189449014Y-123666725D01*
X187583200Y-123666725D01*
X187583200Y-123600051D01*
X188511815Y-123600051D01*
X188511815Y-123666724D01*
X188941015Y-123666724D01*
X188941016Y-123187524D01*
X188931088Y-123187524D01*
X188792856Y-123213679D01*
X188676509Y-123280852D01*
X188585129Y-123379337D01*
X188526838Y-123500378D01*
X188511815Y-123600051D01*
X187583200Y-123600051D01*
X187583200Y-123487500D01*
X187375000Y-123487500D01*
X187374999Y-124289680D01*
X186975000Y-124289680D01*
X186975000Y-123487499D01*
X186968200Y-123487499D01*
X186968200Y-123487500D01*
X186725000Y-123487500D01*
X186724999Y-124289680D01*
X186325000Y-124289680D01*
X186325000Y-123487499D01*
X186318200Y-123487499D01*
X186318200Y-123487500D01*
X186075000Y-123487500D01*
X186074999Y-124289680D01*
X185675000Y-124289680D01*
X185675000Y-123487499D01*
X185668200Y-123487499D01*
X185668200Y-123487500D01*
X185425000Y-123487500D01*
X185424999Y-124289680D01*
X185025000Y-124289680D01*
X185025000Y-123487499D01*
X184816800Y-123487499D01*
X183385031Y-123487499D01*
X183372491Y-123485609D01*
X183355818Y-123485609D01*
X183355817Y-123964810D01*
X175300838Y-123964810D01*
X175373842Y-123915196D01*
X175382558Y-123904882D01*
X175388258Y-123898136D01*
X182418618Y-123898136D01*
X182418618Y-123964809D01*
X182847818Y-123964809D01*
X182847819Y-123485609D01*
X182837891Y-123485609D01*
X182699659Y-123511764D01*
X182583312Y-123578937D01*
X182491932Y-123677422D01*
X182433641Y-123798463D01*
X182418618Y-123898136D01*
X175388258Y-123898136D01*
X175471726Y-123799366D01*
X175534854Y-123661482D01*
X175544692Y-123599366D01*
X175558577Y-123511703D01*
X175558700Y-123499998D01*
X175540895Y-123370023D01*
X175538119Y-123349754D01*
X175501968Y-123266215D01*
X175477892Y-123210577D01*
X175382458Y-123092727D01*
X175382456Y-123092725D01*
X175375106Y-123087501D01*
X185425000Y-123087501D01*
X185431800Y-123087501D01*
X186075000Y-123087501D01*
X186081800Y-123087501D01*
X186081800Y-123087500D01*
X186325000Y-123087500D01*
X186325001Y-122285320D01*
X186285394Y-122294635D01*
X186205030Y-122355323D01*
X186088140Y-122282950D01*
X186075000Y-122280493D01*
X186075000Y-123087501D01*
X185431800Y-123087501D01*
X185431800Y-123087500D01*
X185675000Y-123087500D01*
X185675001Y-122285320D01*
X185635394Y-122294635D01*
X185555030Y-122355323D01*
X185438140Y-122282950D01*
X185425000Y-122280493D01*
X185425000Y-123087501D01*
X175375106Y-123087501D01*
X175258843Y-123004878D01*
X175258842Y-123004878D01*
X175258841Y-123004877D01*
X175116161Y-122953509D01*
X174964918Y-122942401D01*
X174816264Y-122972376D01*
X174816262Y-122972377D01*
X174681142Y-123041224D01*
X174587699Y-123127149D01*
X174569513Y-123143872D01*
X174489602Y-123272756D01*
X174450800Y-123406316D01*
X174447294Y-123418383D01*
X174445706Y-123570024D01*
X173493310Y-123570024D01*
X173493310Y-123318453D01*
X173487681Y-123273299D01*
X173487273Y-123270024D01*
X173439576Y-123161287D01*
X173359157Y-123073928D01*
X173359155Y-123073926D01*
X173320810Y-123053174D01*
X173320810Y-122782222D01*
X173321174Y-122781887D01*
X173408533Y-122701468D01*
X173465046Y-122597040D01*
X173465047Y-122597038D01*
X173473187Y-122548255D01*
X184816800Y-122548255D01*
X184816800Y-123087500D01*
X185025000Y-123087500D01*
X185025001Y-122285320D01*
X184985394Y-122294635D01*
X184893542Y-122364000D01*
X184832950Y-122461858D01*
X184816800Y-122548255D01*
X173473187Y-122548255D01*
X173479590Y-122509885D01*
X173479590Y-122094803D01*
X173474944Y-122057535D01*
X173473553Y-122046374D01*
X173425856Y-121937637D01*
X173345437Y-121850278D01*
X173241009Y-121793765D01*
X173241007Y-121793764D01*
X173153854Y-121779221D01*
X172788772Y-121779221D01*
X172756487Y-121783246D01*
X172740343Y-121785258D01*
X172631606Y-121832955D01*
X172544247Y-121913374D01*
X172544246Y-121913376D01*
X172484312Y-121968549D01*
X172454116Y-121935747D01*
X172375437Y-121850278D01*
X172271009Y-121793765D01*
X172271007Y-121793764D01*
X172183854Y-121779221D01*
X171818772Y-121779221D01*
X171786487Y-121783246D01*
X171770343Y-121785258D01*
X171661606Y-121832955D01*
X171574247Y-121913374D01*
X171562139Y-121935748D01*
X171517735Y-122017797D01*
X171482457Y-121992726D01*
X171482456Y-121992725D01*
X171358843Y-121904878D01*
X171358842Y-121904878D01*
X171358841Y-121904877D01*
X171216161Y-121853509D01*
X171064918Y-121842401D01*
X170916264Y-121872376D01*
X170916262Y-121872377D01*
X170781142Y-121941224D01*
X170678533Y-122035578D01*
X170669513Y-122043872D01*
X170589602Y-122172756D01*
X170553970Y-122295405D01*
X170547294Y-122318383D01*
X170545706Y-122470024D01*
X170584955Y-122616505D01*
X170662150Y-122747035D01*
X170754527Y-122835621D01*
X170823772Y-122902025D01*
X170781144Y-122941223D01*
X170781142Y-122941224D01*
X170711920Y-123004877D01*
X170669513Y-123043872D01*
X170589602Y-123172756D01*
X170549235Y-123311703D01*
X170547294Y-123318383D01*
X170545706Y-123470024D01*
X170584955Y-123616505D01*
X170662150Y-123747035D01*
X170771604Y-123851998D01*
X170889469Y-123915196D01*
X170905253Y-123923659D01*
X171053249Y-123956741D01*
X171204691Y-123948804D01*
X171348419Y-123900434D01*
X171519469Y-123784188D01*
X171522947Y-123792117D01*
X171522947Y-123792118D01*
X171570644Y-123900855D01*
X171651063Y-123988214D01*
X171755491Y-124044727D01*
X171755493Y-124044728D01*
X171842646Y-124059271D01*
X172207728Y-124059271D01*
X172256153Y-124053235D01*
X172256155Y-124053234D01*
X172256157Y-124053234D01*
X172287347Y-124039553D01*
X172338677Y-124036247D01*
X172380126Y-124066711D01*
X172392296Y-124116690D01*
X172370727Y-124161593D01*
X172321321Y-124211000D01*
X172275563Y-124256758D01*
X172265052Y-124265578D01*
X172246653Y-124281017D01*
X172242839Y-124284217D01*
X172238317Y-124292050D01*
X172220908Y-124322202D01*
X172195753Y-124358127D01*
X172191930Y-124372393D01*
X172184544Y-124385186D01*
X172176927Y-124428384D01*
X172165578Y-124470743D01*
X172166393Y-124480053D01*
X172169300Y-124513286D01*
X172169300Y-124761177D01*
X171624615Y-125305863D01*
X171500000Y-125289457D01*
X171342457Y-125310198D01*
X171195650Y-125371007D01*
X171099928Y-125444457D01*
X170459412Y-125444457D01*
X170411074Y-125426864D01*
X170385354Y-125382315D01*
X170408481Y-125313930D01*
X170450929Y-125274854D01*
X170507444Y-125170424D01*
X170509215Y-125159807D01*
X170247786Y-125159807D01*
X169479499Y-125159806D01*
X169519322Y-125250591D01*
X169561101Y-125295976D01*
X169580895Y-125343455D01*
X169565539Y-125392549D01*
X169505774Y-125422107D01*
X168498872Y-125422107D01*
X168450534Y-125404514D01*
X168424814Y-125359965D01*
X168447940Y-125291581D01*
X168451284Y-125288503D01*
X168507799Y-125184072D01*
X168509570Y-125173455D01*
X168248141Y-125173455D01*
X167479854Y-125173454D01*
X167519677Y-125264239D01*
X167561456Y-125309624D01*
X167581250Y-125357103D01*
X167565894Y-125406197D01*
X167506129Y-125435755D01*
X165152662Y-125435755D01*
X165135839Y-125410578D01*
X165097220Y-125352780D01*
X165029675Y-125307648D01*
X165029673Y-125307648D01*
X165017237Y-125299338D01*
X165017954Y-125298265D01*
X164991264Y-125282070D01*
X164974729Y-125233360D01*
X164993372Y-125185418D01*
X165017708Y-125171367D01*
X165017237Y-125170662D01*
X165097219Y-125117219D01*
X165142353Y-125049673D01*
X165158200Y-124970001D01*
X165158200Y-124854000D01*
X164003999Y-124853999D01*
X164003999Y-124854000D01*
X162341800Y-124853999D01*
X162341800Y-124970001D01*
X162357647Y-125049673D01*
X162402782Y-125117221D01*
X162480862Y-125169393D01*
X162511279Y-125210876D01*
X162507914Y-125262206D01*
X162472343Y-125299364D01*
X162429269Y-125306476D01*
X162300000Y-125289457D01*
X162142457Y-125310198D01*
X161995650Y-125371007D01*
X161869584Y-125467741D01*
X161772850Y-125593807D01*
X161712041Y-125740614D01*
X161691300Y-125898157D01*
X161258200Y-125898157D01*
X161258200Y-125499999D01*
X161242353Y-125420327D01*
X161235839Y-125410578D01*
X161197220Y-125352780D01*
X161129675Y-125307648D01*
X161129673Y-125307648D01*
X161117237Y-125299338D01*
X161117954Y-125298265D01*
X161091264Y-125282070D01*
X161074729Y-125233360D01*
X161093372Y-125185418D01*
X161117708Y-125171367D01*
X161117237Y-125170662D01*
X161129673Y-125162352D01*
X161129675Y-125162352D01*
X161197220Y-125117220D01*
X161242352Y-125049675D01*
X161242352Y-125049674D01*
X161242353Y-125049673D01*
X161258200Y-124970001D01*
X161258200Y-124517020D01*
X165996373Y-124517020D01*
X166035622Y-124663501D01*
X166112817Y-124794031D01*
X166222271Y-124898994D01*
X166355920Y-124970655D01*
X166503916Y-125003737D01*
X166655358Y-124995800D01*
X166799085Y-124947430D01*
X166924509Y-124862192D01*
X166927476Y-124858681D01*
X167022393Y-124746362D01*
X167059433Y-124665456D01*
X168248142Y-124665456D01*
X168508430Y-124665456D01*
X168502444Y-124651808D01*
X170247787Y-124651808D01*
X170508075Y-124651808D01*
X170468252Y-124561023D01*
X170387834Y-124473665D01*
X170283404Y-124417150D01*
X170247787Y-124411207D01*
X170247787Y-124651808D01*
X168502444Y-124651808D01*
X168502443Y-124651807D01*
X169478359Y-124651807D01*
X169739788Y-124651807D01*
X169739788Y-124407765D01*
X169732740Y-124408644D01*
X169624003Y-124456341D01*
X169536645Y-124536760D01*
X169480130Y-124641190D01*
X169478359Y-124651807D01*
X168502443Y-124651807D01*
X168468607Y-124574671D01*
X168388189Y-124487313D01*
X168283759Y-124430798D01*
X168248142Y-124424855D01*
X168248142Y-124665456D01*
X167059433Y-124665456D01*
X167059434Y-124665455D01*
X167478714Y-124665455D01*
X167740143Y-124665455D01*
X167740143Y-124421413D01*
X167733095Y-124422292D01*
X167624358Y-124469989D01*
X167537000Y-124550408D01*
X167480485Y-124654838D01*
X167478714Y-124665455D01*
X167059434Y-124665455D01*
X167085521Y-124608478D01*
X167094227Y-124553509D01*
X167109244Y-124458699D01*
X167109367Y-124446994D01*
X167095646Y-124346832D01*
X167088786Y-124296750D01*
X167046919Y-124200001D01*
X167028559Y-124157573D01*
X166933125Y-124039723D01*
X166933123Y-124039721D01*
X166809510Y-123951874D01*
X166809509Y-123951874D01*
X166809508Y-123951873D01*
X166666828Y-123900505D01*
X166515585Y-123889397D01*
X166366931Y-123919372D01*
X166366929Y-123919373D01*
X166231809Y-123988220D01*
X166128891Y-124082858D01*
X166120180Y-124090868D01*
X166040269Y-124219752D01*
X165997961Y-124365378D01*
X165996836Y-124472808D01*
X165996373Y-124517020D01*
X161258200Y-124517020D01*
X161258200Y-124229999D01*
X161242353Y-124150327D01*
X161242352Y-124150325D01*
X161197220Y-124082780D01*
X161129675Y-124037648D01*
X161129673Y-124037648D01*
X161117237Y-124029338D01*
X161117954Y-124028265D01*
X161091264Y-124012070D01*
X161074729Y-123963360D01*
X161093372Y-123915418D01*
X161117708Y-123901367D01*
X161117237Y-123900662D01*
X161129673Y-123892352D01*
X161129675Y-123892352D01*
X161197220Y-123847220D01*
X161242352Y-123779675D01*
X161242352Y-123779674D01*
X161242353Y-123779673D01*
X161258200Y-123700001D01*
X161258200Y-122959999D01*
X161242353Y-122880327D01*
X161242352Y-122880325D01*
X161197220Y-122812780D01*
X161129675Y-122767648D01*
X161129674Y-122767648D01*
X161129673Y-122767647D01*
X161050001Y-122751800D01*
X160747720Y-122751800D01*
X160834855Y-122561480D01*
X160858577Y-122411703D01*
X160858700Y-122399998D01*
X160841120Y-122271662D01*
X160838119Y-122249754D01*
X160800622Y-122163103D01*
X160777892Y-122110577D01*
X160682458Y-121992727D01*
X160682456Y-121992725D01*
X160558843Y-121904878D01*
X160558842Y-121904878D01*
X160558841Y-121904877D01*
X160480449Y-121876654D01*
X160440929Y-121843727D01*
X160431819Y-121793100D01*
X160457384Y-121748462D01*
X160505922Y-121730700D01*
X161683021Y-121730700D01*
X162361464Y-122409144D01*
X162579068Y-122626748D01*
X162600808Y-122673368D01*
X162587494Y-122723055D01*
X162540564Y-122753677D01*
X162530262Y-122755726D01*
X162470327Y-122767647D01*
X162470326Y-122767648D01*
X162470325Y-122767648D01*
X162402780Y-122812780D01*
X162357648Y-122880325D01*
X162357647Y-122880327D01*
X162341800Y-122959999D01*
X162341800Y-123700001D01*
X162357647Y-123779673D01*
X162357648Y-123779674D01*
X162357648Y-123779675D01*
X162402780Y-123847220D01*
X162470325Y-123892352D01*
X162470327Y-123892352D01*
X162482763Y-123900662D01*
X162482046Y-123901735D01*
X162508736Y-123917930D01*
X162525271Y-123966640D01*
X162506628Y-124014582D01*
X162482292Y-124028633D01*
X162482763Y-124029338D01*
X162402781Y-124082781D01*
X162357647Y-124150327D01*
X162341800Y-124229999D01*
X162341800Y-124346000D01*
X163496001Y-124346001D01*
X163496001Y-124346000D01*
X165158200Y-124346001D01*
X165158200Y-124229999D01*
X165142353Y-124150327D01*
X165097219Y-124082781D01*
X165017237Y-124029338D01*
X165017954Y-124028265D01*
X164991264Y-124012070D01*
X164974729Y-123963360D01*
X164993372Y-123915418D01*
X165017708Y-123901367D01*
X165017237Y-123900662D01*
X165029673Y-123892352D01*
X165029675Y-123892352D01*
X165097220Y-123847220D01*
X165142352Y-123779675D01*
X165142352Y-123779674D01*
X165142353Y-123779673D01*
X165158200Y-123700001D01*
X165158200Y-122959999D01*
X165142353Y-122880327D01*
X165142352Y-122880325D01*
X165097220Y-122812780D01*
X165029675Y-122767648D01*
X165029674Y-122767648D01*
X165029673Y-122767647D01*
X164950001Y-122751800D01*
X163639480Y-122751800D01*
X162657704Y-121770024D01*
X186345706Y-121770024D01*
X186384955Y-121916505D01*
X186462150Y-122047035D01*
X186571604Y-122151998D01*
X186610318Y-122172756D01*
X186725000Y-122234248D01*
X186725000Y-123087501D01*
X186731800Y-123087501D01*
X186731800Y-123087500D01*
X187375000Y-123087500D01*
X187375000Y-123087501D01*
X187583200Y-123087501D01*
X187583200Y-122553743D01*
X187555365Y-122435394D01*
X187486000Y-122343542D01*
X187388142Y-122282950D01*
X187301745Y-122266800D01*
X187295205Y-122266800D01*
X187246867Y-122249207D01*
X187221147Y-122204658D01*
X187230080Y-122154000D01*
X187252936Y-122129404D01*
X187273842Y-122115196D01*
X187275263Y-122113515D01*
X187371726Y-121999366D01*
X187434854Y-121861482D01*
X187440762Y-121824181D01*
X187458577Y-121711703D01*
X187458700Y-121699998D01*
X187443128Y-121586319D01*
X187438119Y-121549754D01*
X187403303Y-121469300D01*
X187377892Y-121410577D01*
X187282458Y-121292727D01*
X187282456Y-121292725D01*
X187158843Y-121204878D01*
X187158842Y-121204878D01*
X187158841Y-121204877D01*
X187016161Y-121153509D01*
X186864918Y-121142401D01*
X186716264Y-121172376D01*
X186716262Y-121172377D01*
X186581142Y-121241224D01*
X186508948Y-121307610D01*
X186469513Y-121343872D01*
X186389602Y-121472756D01*
X186347294Y-121618382D01*
X186346118Y-121730700D01*
X186345706Y-121770024D01*
X162657704Y-121770024D01*
X162063247Y-121175568D01*
X162045149Y-121153999D01*
X174716958Y-121153999D01*
X174717837Y-121161047D01*
X174765534Y-121269784D01*
X174845953Y-121357142D01*
X174950383Y-121413657D01*
X174961000Y-121415428D01*
X174961000Y-121153999D01*
X174716958Y-121153999D01*
X162045149Y-121153999D01*
X162035784Y-121142839D01*
X162022807Y-121135347D01*
X161997789Y-121120901D01*
X161968558Y-121100434D01*
X161961873Y-121095753D01*
X161961872Y-121095753D01*
X161961871Y-121095752D01*
X161947607Y-121091930D01*
X161934816Y-121084545D01*
X161891614Y-121076927D01*
X161849257Y-121065578D01*
X161806712Y-121069300D01*
X159113287Y-121069300D01*
X159070742Y-121065578D01*
X159028383Y-121076927D01*
X158985185Y-121084544D01*
X158972392Y-121091930D01*
X158958126Y-121095753D01*
X158922201Y-121120908D01*
X158916096Y-121124433D01*
X158884216Y-121142839D01*
X158856758Y-121175562D01*
X158081367Y-121950954D01*
X157964918Y-121942401D01*
X157816264Y-121972376D01*
X157816262Y-121972377D01*
X157740666Y-122010895D01*
X157689611Y-122017164D01*
X157646470Y-121989147D01*
X157632253Y-121932128D01*
X157638622Y-121891914D01*
X157638745Y-121880208D01*
X157624911Y-121779221D01*
X157618164Y-121729964D01*
X157582643Y-121647880D01*
X157557937Y-121590787D01*
X157462503Y-121472937D01*
X157462501Y-121472935D01*
X157338888Y-121385088D01*
X157338887Y-121385088D01*
X157338886Y-121385087D01*
X157196206Y-121333719D01*
X157044963Y-121322611D01*
X156896309Y-121352586D01*
X156896307Y-121352587D01*
X156761187Y-121421434D01*
X156650018Y-121523659D01*
X156649558Y-121524082D01*
X156628174Y-121558571D01*
X156587750Y-121590382D01*
X156536335Y-121588766D01*
X156495247Y-121548809D01*
X156477892Y-121508704D01*
X156382458Y-121390853D01*
X156382456Y-121390851D01*
X156258843Y-121303004D01*
X156258842Y-121303004D01*
X156258841Y-121303003D01*
X156116161Y-121251635D01*
X155964918Y-121240527D01*
X155816264Y-121270502D01*
X155816262Y-121270503D01*
X155681142Y-121339350D01*
X155574695Y-121437233D01*
X155569513Y-121441998D01*
X155489602Y-121570882D01*
X155447294Y-121716508D01*
X155445706Y-121868151D01*
X155460924Y-121924949D01*
X155111601Y-122274272D01*
X155086507Y-122236715D01*
X154153857Y-123169367D01*
X153977080Y-122992590D01*
X154370020Y-122599651D01*
X154198051Y-122427683D01*
X154198052Y-122427682D01*
X154016466Y-122246097D01*
X154016467Y-122246096D01*
X154370019Y-122246096D01*
X154541988Y-122418065D01*
X154541986Y-122418066D01*
X154546796Y-122422876D01*
X154909732Y-122059940D01*
X154873271Y-122035578D01*
X154776555Y-122016341D01*
X154757316Y-121919622D01*
X154732954Y-121883161D01*
X154370019Y-122246096D01*
X154016467Y-122246096D01*
X154556179Y-121706385D01*
X154518622Y-121681290D01*
X155042615Y-121157298D01*
X155053248Y-121156741D01*
X155053249Y-121156741D01*
X155187125Y-121149725D01*
X155204691Y-121148804D01*
X155348418Y-121100434D01*
X155473842Y-121015196D01*
X155476794Y-121011703D01*
X155571726Y-120899366D01*
X155634854Y-120761482D01*
X155642185Y-120715195D01*
X155653144Y-120646000D01*
X174720400Y-120646000D01*
X174961001Y-120646000D01*
X174961001Y-120385712D01*
X174870216Y-120425535D01*
X174782858Y-120505953D01*
X174726343Y-120610383D01*
X174720400Y-120646000D01*
X155653144Y-120646000D01*
X155658577Y-120611703D01*
X155658700Y-120599998D01*
X155641218Y-120472376D01*
X155638119Y-120449754D01*
X155604635Y-120372377D01*
X155577892Y-120310577D01*
X155482458Y-120192727D01*
X155482456Y-120192725D01*
X155358843Y-120104878D01*
X155358842Y-120104878D01*
X155358841Y-120104877D01*
X155216161Y-120053509D01*
X155064918Y-120042401D01*
X154916264Y-120072376D01*
X154916262Y-120072377D01*
X154781142Y-120141224D01*
X154725133Y-120192727D01*
X154669513Y-120243872D01*
X154589602Y-120372756D01*
X154549235Y-120511703D01*
X154547294Y-120518383D01*
X154545706Y-120670024D01*
X154556023Y-120708530D01*
X154159073Y-121105481D01*
X154112454Y-121127220D01*
X154062767Y-121113906D01*
X154030700Y-121052306D01*
X154030700Y-120944515D01*
X154073843Y-120915195D01*
X154171726Y-120799366D01*
X154234854Y-120661482D01*
X154238382Y-120639209D01*
X154258577Y-120511703D01*
X154258700Y-120499998D01*
X154238119Y-120349755D01*
X154235574Y-120343872D01*
X154177892Y-120210578D01*
X154177892Y-120210577D01*
X154082458Y-120092727D01*
X154082456Y-120092725D01*
X153958843Y-120004878D01*
X153958842Y-120004878D01*
X153958841Y-120004877D01*
X153816161Y-119953509D01*
X153664918Y-119942401D01*
X153516264Y-119972376D01*
X153516262Y-119972377D01*
X153381142Y-120041224D01*
X153325133Y-120092727D01*
X153269513Y-120143872D01*
X153189602Y-120272756D01*
X153149562Y-120410578D01*
X153147294Y-120418383D01*
X153145706Y-120570024D01*
X153184955Y-120716505D01*
X153262150Y-120847035D01*
X153369301Y-120949789D01*
X153369301Y-121184609D01*
X153000000Y-121553910D01*
X152837860Y-121391770D01*
X152513864Y-121715767D01*
X152337087Y-121538990D01*
X152661084Y-121214994D01*
X152466535Y-121020446D01*
X152398398Y-120974916D01*
X152292893Y-120953931D01*
X152155955Y-120981168D01*
X152154429Y-120970023D01*
X152143965Y-120893636D01*
X152124652Y-120849007D01*
X152083738Y-120754459D01*
X151988304Y-120636609D01*
X151988302Y-120636607D01*
X151864689Y-120548760D01*
X151864688Y-120548760D01*
X151864687Y-120548759D01*
X151722007Y-120497391D01*
X151570764Y-120486283D01*
X151422110Y-120516258D01*
X151422108Y-120516259D01*
X151286988Y-120585106D01*
X151175360Y-120687753D01*
X151175359Y-120687754D01*
X151095448Y-120816638D01*
X151056765Y-120949789D01*
X151053140Y-120962265D01*
X151051552Y-121113906D01*
X151090801Y-121260387D01*
X151167996Y-121390917D01*
X151277450Y-121495880D01*
X151332139Y-121525204D01*
X151348685Y-121553862D01*
X151381409Y-121581322D01*
X151481377Y-121681290D01*
X151443820Y-121706385D01*
X151983534Y-122246097D01*
X151806757Y-122422874D01*
X151267045Y-121883160D01*
X151241892Y-121920804D01*
X151037597Y-121716509D01*
X150620452Y-121299365D01*
X149996654Y-120675568D01*
X149969191Y-120642839D01*
X149956214Y-120635347D01*
X149931196Y-120620901D01*
X149901345Y-120600000D01*
X149895280Y-120595753D01*
X149895279Y-120595753D01*
X149895278Y-120595752D01*
X149881014Y-120591930D01*
X149868223Y-120584545D01*
X149825021Y-120576927D01*
X149782664Y-120565578D01*
X149740119Y-120569300D01*
X149244466Y-120569300D01*
X149193168Y-120505953D01*
X149182457Y-120492726D01*
X149182456Y-120492725D01*
X149058843Y-120404878D01*
X149058842Y-120404878D01*
X149058841Y-120404877D01*
X148916161Y-120353509D01*
X148764918Y-120342401D01*
X148616264Y-120372376D01*
X148616262Y-120372377D01*
X148481142Y-120441224D01*
X148411920Y-120504877D01*
X148369513Y-120543872D01*
X148289602Y-120672756D01*
X148252509Y-120800434D01*
X148247294Y-120818383D01*
X148245706Y-120970024D01*
X148284955Y-121116505D01*
X148358714Y-121241224D01*
X148362151Y-121247036D01*
X148458909Y-121339824D01*
X148481620Y-121385979D01*
X148469350Y-121435934D01*
X148406860Y-121469300D01*
X146610047Y-121469300D01*
X146563438Y-121411743D01*
X146439825Y-121323896D01*
X146439824Y-121323896D01*
X146439823Y-121323895D01*
X146297143Y-121272527D01*
X146145900Y-121261419D01*
X145997246Y-121291394D01*
X145997244Y-121291395D01*
X145862124Y-121360242D01*
X145762341Y-121451997D01*
X145750495Y-121462890D01*
X145670584Y-121591774D01*
X145630437Y-121729964D01*
X145628276Y-121737401D01*
X145626688Y-121889042D01*
X145665937Y-122035523D01*
X145743132Y-122166053D01*
X145852586Y-122271016D01*
X145986235Y-122342677D01*
X146134231Y-122375759D01*
X146285673Y-122367822D01*
X146429400Y-122319452D01*
X146554827Y-122234212D01*
X146642300Y-122130700D01*
X147930303Y-122130700D01*
X147978641Y-122148293D01*
X148004361Y-122192842D01*
X147994214Y-122245528D01*
X147989602Y-122252966D01*
X147947294Y-122398592D01*
X147946085Y-122513996D01*
X147945706Y-122550234D01*
X147976537Y-122665297D01*
X147984955Y-122696715D01*
X147996502Y-122716240D01*
X148005964Y-122766802D01*
X147980712Y-122811617D01*
X147931774Y-122829720D01*
X147044466Y-122829720D01*
X146982457Y-122753146D01*
X146982028Y-122752841D01*
X146858843Y-122665298D01*
X146858842Y-122665298D01*
X146858841Y-122665297D01*
X146716161Y-122613929D01*
X146564918Y-122602821D01*
X146416264Y-122632796D01*
X146416262Y-122632797D01*
X146281142Y-122701644D01*
X146174870Y-122799366D01*
X146169513Y-122804292D01*
X146089602Y-122933176D01*
X146047294Y-123078802D01*
X146046073Y-123195389D01*
X146045706Y-123230444D01*
X146084955Y-123376925D01*
X146162150Y-123507455D01*
X146271604Y-123612418D01*
X146405253Y-123684079D01*
X146553249Y-123717161D01*
X146704691Y-123709224D01*
X146848418Y-123660854D01*
X146864358Y-123650021D01*
X146958996Y-123585705D01*
X147008864Y-123573086D01*
X147055176Y-123595474D01*
X147076263Y-123642393D01*
X147073479Y-123668881D01*
X147047294Y-123759012D01*
X147046123Y-123870830D01*
X147045706Y-123910654D01*
X147084955Y-124057135D01*
X147100168Y-124082858D01*
X147143317Y-124155820D01*
X147152779Y-124206382D01*
X147127527Y-124251197D01*
X147078589Y-124269300D01*
X146036980Y-124269300D01*
X142547748Y-120780069D01*
X142558577Y-120711701D01*
X142558700Y-120700000D01*
X142557023Y-120687753D01*
X142538119Y-120549755D01*
X142537689Y-120548760D01*
X142504635Y-120472377D01*
X142477892Y-120410577D01*
X142382458Y-120292727D01*
X142382456Y-120292725D01*
X142258843Y-120204878D01*
X142258842Y-120204878D01*
X142258841Y-120204877D01*
X142116161Y-120153509D01*
X141964918Y-120142401D01*
X141816264Y-120172376D01*
X141816262Y-120172377D01*
X141681142Y-120241224D01*
X141605721Y-120310577D01*
X141569513Y-120343872D01*
X141489602Y-120472756D01*
X141447294Y-120618382D01*
X141447076Y-120639209D01*
X141428977Y-120687359D01*
X141384162Y-120712611D01*
X141333600Y-120703149D01*
X141302865Y-120668286D01*
X141277892Y-120610578D01*
X141182458Y-120492727D01*
X141182456Y-120492725D01*
X141058843Y-120404878D01*
X141058842Y-120404878D01*
X141058841Y-120404877D01*
X140916161Y-120353509D01*
X140764918Y-120342401D01*
X140616264Y-120372376D01*
X140616262Y-120372377D01*
X140481142Y-120441224D01*
X140411920Y-120504877D01*
X140369513Y-120543872D01*
X140289602Y-120672756D01*
X140252509Y-120800434D01*
X140247294Y-120818383D01*
X140245706Y-120970024D01*
X140284955Y-121116505D01*
X140362150Y-121247035D01*
X140471604Y-121351998D01*
X140589469Y-121415196D01*
X140605253Y-121423659D01*
X140753249Y-121456741D01*
X140904691Y-121448804D01*
X141048418Y-121400434D01*
X141173842Y-121315196D01*
X141184146Y-121303003D01*
X141271726Y-121199366D01*
X141334854Y-121061482D01*
X141337642Y-121043882D01*
X141351998Y-120953242D01*
X141376936Y-120908252D01*
X141424960Y-120889817D01*
X141473597Y-120906565D01*
X141490999Y-120926725D01*
X141560286Y-121043882D01*
X141562151Y-121047036D01*
X141571064Y-121055583D01*
X141671604Y-121151998D01*
X141805253Y-121223659D01*
X141953249Y-121256741D01*
X142082298Y-121249978D01*
X144554000Y-123721680D01*
X144554000Y-124061001D01*
X144893321Y-124061001D01*
X145656758Y-124824438D01*
X145662063Y-124830760D01*
X145679659Y-124879094D01*
X145662069Y-124927433D01*
X145604459Y-124954300D01*
X144787431Y-124954300D01*
X144771988Y-124937524D01*
X144694047Y-124852857D01*
X144694045Y-124852856D01*
X144638872Y-124792922D01*
X144757142Y-124684047D01*
X144813657Y-124579617D01*
X144815428Y-124569000D01*
X144553999Y-124569000D01*
X143785712Y-124568999D01*
X143825535Y-124659784D01*
X143961128Y-124807078D01*
X143930217Y-124835534D01*
X143930216Y-124835534D01*
X143882900Y-124879091D01*
X143842855Y-124915955D01*
X143822103Y-124954300D01*
X143087431Y-124954300D01*
X143071988Y-124937524D01*
X142994047Y-124852857D01*
X142994045Y-124852856D01*
X142938872Y-124792922D01*
X143057142Y-124684047D01*
X143113657Y-124579617D01*
X143115428Y-124569000D01*
X142853999Y-124569000D01*
X142085712Y-124568999D01*
X142125535Y-124659784D01*
X142261128Y-124807078D01*
X142230217Y-124835534D01*
X142230216Y-124835534D01*
X142142857Y-124915953D01*
X142097375Y-124999998D01*
X142086343Y-125020383D01*
X142071800Y-125107536D01*
X142071800Y-125472618D01*
X142075761Y-125504389D01*
X142077837Y-125521047D01*
X142125534Y-125629784D01*
X142205953Y-125717143D01*
X142205955Y-125717144D01*
X142269300Y-125751425D01*
X142269301Y-126418174D01*
X142230216Y-126435318D01*
X142187928Y-126474247D01*
X142155150Y-126504421D01*
X142142857Y-126515737D01*
X142098083Y-126598473D01*
X142086343Y-126620167D01*
X142071800Y-126707320D01*
X142071800Y-127072402D01*
X142071867Y-127072937D01*
X142077837Y-127120831D01*
X142125534Y-127229568D01*
X142205953Y-127316927D01*
X142205955Y-127316928D01*
X142261128Y-127376862D01*
X142230217Y-127405318D01*
X142230216Y-127405318D01*
X142142857Y-127485737D01*
X142090449Y-127582579D01*
X142086343Y-127590167D01*
X142071800Y-127677320D01*
X142071800Y-128042402D01*
X142074843Y-128066809D01*
X142077837Y-128090831D01*
X142125534Y-128199568D01*
X142161065Y-128238165D01*
X142190526Y-128270169D01*
X142210320Y-128317648D01*
X142194964Y-128366742D01*
X142135199Y-128396300D01*
X128967308Y-128396300D01*
X128918970Y-128378707D01*
X128893250Y-128334158D01*
X128909870Y-128272563D01*
X128971726Y-128199366D01*
X129034854Y-128061482D01*
X129045100Y-127996790D01*
X129058577Y-127911703D01*
X129058700Y-127899998D01*
X129042948Y-127785006D01*
X129038119Y-127749754D01*
X128993669Y-127647036D01*
X128977892Y-127610577D01*
X128882458Y-127492727D01*
X128882456Y-127492725D01*
X128758843Y-127404878D01*
X128758842Y-127404878D01*
X128758841Y-127404877D01*
X128662034Y-127370024D01*
X133545706Y-127370024D01*
X133584955Y-127516505D01*
X133658991Y-127641692D01*
X133662151Y-127647036D01*
X133689359Y-127673128D01*
X133771604Y-127751998D01*
X133905253Y-127823659D01*
X134053249Y-127856741D01*
X134204691Y-127848804D01*
X134348418Y-127800434D01*
X134473842Y-127715196D01*
X134490117Y-127695937D01*
X134571726Y-127599366D01*
X134634854Y-127461482D01*
X134644934Y-127397841D01*
X134658577Y-127311703D01*
X134658700Y-127299998D01*
X134646462Y-127210653D01*
X138445706Y-127210653D01*
X138445706Y-127210654D01*
X138484955Y-127357135D01*
X138562150Y-127487665D01*
X138671604Y-127592628D01*
X138805253Y-127664289D01*
X138953249Y-127697371D01*
X139104691Y-127689434D01*
X139248418Y-127641064D01*
X139373842Y-127555826D01*
X139390534Y-127536074D01*
X139471726Y-127439996D01*
X139534854Y-127302112D01*
X139540264Y-127267955D01*
X139558577Y-127152333D01*
X139558700Y-127140628D01*
X139538119Y-126990385D01*
X139535827Y-126985087D01*
X139497681Y-126896937D01*
X139477892Y-126851207D01*
X139382458Y-126733357D01*
X139382456Y-126733355D01*
X139258843Y-126645508D01*
X139258842Y-126645508D01*
X139258841Y-126645507D01*
X139116161Y-126594139D01*
X138964918Y-126583031D01*
X138816264Y-126613006D01*
X138816262Y-126613007D01*
X138681142Y-126681854D01*
X138615063Y-126742617D01*
X138569513Y-126784502D01*
X138489602Y-126913386D01*
X138447294Y-127059012D01*
X138445706Y-127210653D01*
X134646462Y-127210653D01*
X134638119Y-127149755D01*
X134637510Y-127148346D01*
X134577892Y-127010578D01*
X134577892Y-127010577D01*
X134482457Y-126892726D01*
X134431246Y-126856331D01*
X134431246Y-126127598D01*
X134470330Y-126110454D01*
X134484899Y-126097042D01*
X134557689Y-126030035D01*
X134614202Y-125925607D01*
X134614203Y-125925605D01*
X134628746Y-125838452D01*
X134628746Y-125523789D01*
X135471800Y-125523789D01*
X135471800Y-125888871D01*
X135475825Y-125921156D01*
X135477837Y-125937300D01*
X135525534Y-126046037D01*
X135605953Y-126133396D01*
X135710235Y-126189830D01*
X135710383Y-126189910D01*
X135797536Y-126204453D01*
X136212618Y-126204453D01*
X136248339Y-126200000D01*
X136261047Y-126198416D01*
X136369784Y-126150719D01*
X136413524Y-126110454D01*
X136472812Y-126055876D01*
X136571604Y-126150614D01*
X136672015Y-126204453D01*
X136705253Y-126222275D01*
X136853249Y-126255357D01*
X137004691Y-126247420D01*
X137148418Y-126199050D01*
X137273842Y-126113812D01*
X137275479Y-126111875D01*
X137371726Y-125997982D01*
X137434854Y-125860098D01*
X137441674Y-125817038D01*
X137449120Y-125770024D01*
X140245706Y-125770024D01*
X140284955Y-125916505D01*
X140362150Y-126047035D01*
X140471604Y-126151998D01*
X140605253Y-126223659D01*
X140753249Y-126256741D01*
X140904691Y-126248804D01*
X141048418Y-126200434D01*
X141173842Y-126115196D01*
X141175012Y-126113812D01*
X141271726Y-125999366D01*
X141334854Y-125861482D01*
X141337643Y-125843871D01*
X141358577Y-125711703D01*
X141358700Y-125699998D01*
X141338119Y-125549755D01*
X141337521Y-125548371D01*
X141295816Y-125451997D01*
X141277892Y-125410577D01*
X141182458Y-125292727D01*
X141182456Y-125292725D01*
X141058843Y-125204878D01*
X141058842Y-125204878D01*
X141058841Y-125204877D01*
X140916161Y-125153509D01*
X140764918Y-125142401D01*
X140616264Y-125172376D01*
X140616262Y-125172377D01*
X140481142Y-125241224D01*
X140376609Y-125337347D01*
X140369513Y-125343872D01*
X140289602Y-125472756D01*
X140249235Y-125611703D01*
X140247294Y-125618383D01*
X140245706Y-125770024D01*
X137449120Y-125770024D01*
X137458577Y-125710319D01*
X137458700Y-125698614D01*
X137438309Y-125549755D01*
X137438119Y-125548370D01*
X137403228Y-125467741D01*
X137377892Y-125409193D01*
X137282458Y-125291343D01*
X137282456Y-125291341D01*
X137158843Y-125203494D01*
X137158842Y-125203494D01*
X137158841Y-125203493D01*
X137016161Y-125152125D01*
X136864918Y-125141017D01*
X136716264Y-125170992D01*
X136716262Y-125170993D01*
X136581142Y-125239840D01*
X136469514Y-125342487D01*
X136469513Y-125342489D01*
X136465228Y-125346429D01*
X136406182Y-125282292D01*
X136394047Y-125269110D01*
X136394045Y-125269109D01*
X136338870Y-125209177D01*
X136457142Y-125100300D01*
X136513657Y-124995870D01*
X136515428Y-124985253D01*
X136253999Y-124985253D01*
X135485712Y-124985252D01*
X135525535Y-125076037D01*
X135661128Y-125223331D01*
X135630217Y-125251787D01*
X135630216Y-125251787D01*
X135542857Y-125332206D01*
X135500445Y-125410578D01*
X135486343Y-125436636D01*
X135471800Y-125523789D01*
X134628746Y-125523789D01*
X134628746Y-125473370D01*
X134623018Y-125427421D01*
X134622709Y-125424941D01*
X134575012Y-125316204D01*
X134494593Y-125228845D01*
X134494591Y-125228844D01*
X134439418Y-125168910D01*
X134470330Y-125140454D01*
X134557689Y-125060035D01*
X134614202Y-124955607D01*
X134614203Y-124955605D01*
X134628746Y-124868452D01*
X134628746Y-124630467D01*
X135108724Y-124150490D01*
X135580122Y-124150490D01*
X135628460Y-124168083D01*
X135654180Y-124212632D01*
X135631053Y-124281017D01*
X135542858Y-124362206D01*
X135486343Y-124466636D01*
X135484572Y-124477253D01*
X135746001Y-124477253D01*
X136514288Y-124477254D01*
X136474465Y-124386469D01*
X136394045Y-124299109D01*
X136380588Y-124291826D01*
X136346450Y-124253347D01*
X136345032Y-124201927D01*
X136376999Y-124161626D01*
X136416379Y-124150490D01*
X136545116Y-124150490D01*
X136608215Y-124211000D01*
X136671604Y-124271788D01*
X136805253Y-124343449D01*
X136953249Y-124376531D01*
X137104691Y-124368594D01*
X137248418Y-124320224D01*
X137373842Y-124234986D01*
X137374125Y-124234651D01*
X137471726Y-124119156D01*
X137498350Y-124061001D01*
X142854000Y-124061001D01*
X143114288Y-124061001D01*
X143114288Y-124061000D01*
X143784572Y-124061000D01*
X144046001Y-124061000D01*
X144046001Y-123816958D01*
X144038953Y-123817837D01*
X143930216Y-123865534D01*
X143842858Y-123945953D01*
X143786343Y-124050383D01*
X143784572Y-124061000D01*
X143114288Y-124061000D01*
X143074465Y-123970216D01*
X142994047Y-123882858D01*
X142889617Y-123826343D01*
X142854000Y-123820400D01*
X142854000Y-124061001D01*
X137498350Y-124061001D01*
X137498351Y-124061000D01*
X142084572Y-124061000D01*
X142346001Y-124061000D01*
X142346001Y-123816958D01*
X142338953Y-123817837D01*
X142230216Y-123865534D01*
X142142858Y-123945953D01*
X142086343Y-124050383D01*
X142084572Y-124061000D01*
X137498351Y-124061000D01*
X137534854Y-123981272D01*
X137536963Y-123967955D01*
X137558577Y-123831493D01*
X137558700Y-123819788D01*
X137544552Y-123716505D01*
X137538119Y-123669544D01*
X137482363Y-123540699D01*
X137477892Y-123530367D01*
X137382458Y-123412517D01*
X137382456Y-123412515D01*
X137258843Y-123324668D01*
X137258842Y-123324668D01*
X137258841Y-123324667D01*
X137116161Y-123273299D01*
X136964918Y-123262191D01*
X136816264Y-123292166D01*
X136816262Y-123292167D01*
X136681142Y-123361014D01*
X136569514Y-123463661D01*
X136569513Y-123463663D01*
X136541861Y-123489090D01*
X134985031Y-123489090D01*
X134942486Y-123485368D01*
X134900127Y-123496717D01*
X134856929Y-123504334D01*
X134844136Y-123511720D01*
X134829870Y-123515543D01*
X134793945Y-123540698D01*
X134782660Y-123547214D01*
X134755960Y-123562629D01*
X134728502Y-123595352D01*
X134136067Y-124187788D01*
X133887928Y-124187788D01*
X133855643Y-124191813D01*
X133839499Y-124193825D01*
X133730762Y-124241522D01*
X133643403Y-124321941D01*
X133589572Y-124421413D01*
X133586889Y-124426371D01*
X133572346Y-124513524D01*
X133572346Y-124878606D01*
X133576019Y-124908070D01*
X133578383Y-124927035D01*
X133626080Y-125035772D01*
X133706499Y-125123131D01*
X133706501Y-125123132D01*
X133761674Y-125183066D01*
X133730763Y-125211522D01*
X133730762Y-125211522D01*
X133643403Y-125291941D01*
X133589096Y-125392292D01*
X133586889Y-125396371D01*
X133572346Y-125483524D01*
X133572346Y-125848606D01*
X133573779Y-125860098D01*
X133578383Y-125897035D01*
X133626080Y-126005772D01*
X133706499Y-126093131D01*
X133706501Y-126093132D01*
X133769846Y-126127413D01*
X133769847Y-126851611D01*
X133669513Y-126943872D01*
X133589602Y-127072756D01*
X133547294Y-127218382D01*
X133546091Y-127333257D01*
X133545706Y-127370024D01*
X128662034Y-127370024D01*
X128616161Y-127353509D01*
X128464918Y-127342401D01*
X128316264Y-127372376D01*
X128316262Y-127372377D01*
X128181142Y-127441224D01*
X128070617Y-127542857D01*
X128069513Y-127543872D01*
X127989602Y-127672756D01*
X127947294Y-127818382D01*
X127946999Y-127846544D01*
X127945706Y-127970024D01*
X127984955Y-128116505D01*
X128056905Y-128238165D01*
X128062151Y-128247036D01*
X128082786Y-128266824D01*
X128105497Y-128312978D01*
X128093227Y-128362933D01*
X128030737Y-128396300D01*
X127484362Y-128396300D01*
X127593177Y-128170345D01*
X127608200Y-128070673D01*
X127608200Y-128054000D01*
X126141800Y-128054000D01*
X126141800Y-128063927D01*
X126167955Y-128202159D01*
X126214917Y-128283500D01*
X126223850Y-128334158D01*
X126198130Y-128378706D01*
X126149792Y-128396300D01*
X125753200Y-128396300D01*
X125753200Y-128357183D01*
X125784885Y-128291389D01*
X125784886Y-128291388D01*
X125843177Y-128170346D01*
X125858200Y-128070673D01*
X125858200Y-127536074D01*
X125857523Y-127532493D01*
X125856924Y-127529327D01*
X126141800Y-127529327D01*
X126141800Y-127546000D01*
X126621000Y-127546000D01*
X126621000Y-127116800D01*
X127129000Y-127116800D01*
X127129000Y-127546000D01*
X127608200Y-127546000D01*
X127608200Y-127536073D01*
X127582045Y-127397841D01*
X127514872Y-127281494D01*
X127416387Y-127190114D01*
X127295346Y-127131823D01*
X127195673Y-127116800D01*
X127129000Y-127116800D01*
X126621000Y-127116800D01*
X126561073Y-127116800D01*
X126422841Y-127142955D01*
X126306494Y-127210128D01*
X126215114Y-127308613D01*
X126156823Y-127429654D01*
X126141800Y-127529327D01*
X125856924Y-127529327D01*
X125832045Y-127397841D01*
X125753200Y-127261278D01*
X125753200Y-126747906D01*
X125848473Y-126708441D01*
X125906110Y-126672226D01*
X125958441Y-126598473D01*
X125987731Y-126527765D01*
X125999404Y-126469084D01*
X126003200Y-126450000D01*
X126003200Y-125670024D01*
X131445706Y-125670024D01*
X131484955Y-125816505D01*
X131549477Y-125925605D01*
X131562151Y-125947036D01*
X131589910Y-125973656D01*
X131671604Y-126051998D01*
X131805253Y-126123659D01*
X131953249Y-126156741D01*
X132104691Y-126148804D01*
X132248418Y-126100434D01*
X132373842Y-126015196D01*
X132381836Y-126005736D01*
X132471726Y-125899366D01*
X132534854Y-125761482D01*
X132541374Y-125720319D01*
X132558577Y-125611703D01*
X132558700Y-125599998D01*
X132542150Y-125479179D01*
X132538119Y-125449754D01*
X132504734Y-125372607D01*
X132477892Y-125310577D01*
X132382458Y-125192727D01*
X132382456Y-125192725D01*
X132258843Y-125104878D01*
X132258842Y-125104878D01*
X132258841Y-125104877D01*
X132116161Y-125053509D01*
X131964918Y-125042401D01*
X131816264Y-125072376D01*
X131816262Y-125072377D01*
X131681142Y-125141224D01*
X131595057Y-125220383D01*
X131569513Y-125243872D01*
X131489602Y-125372756D01*
X131451360Y-125504389D01*
X131447294Y-125518383D01*
X131445706Y-125670024D01*
X126003200Y-125670024D01*
X126003200Y-123950000D01*
X125997107Y-123919372D01*
X125987731Y-123872235D01*
X125958441Y-123801527D01*
X125922226Y-123743890D01*
X125848473Y-123691559D01*
X125777765Y-123662269D01*
X125716200Y-123650021D01*
X125716200Y-122953999D01*
X126141800Y-122953999D01*
X126141800Y-122981159D01*
X126183785Y-123137849D01*
X126262076Y-123231153D01*
X126367554Y-123292050D01*
X126371000Y-123292658D01*
X126371000Y-122954000D01*
X126878999Y-122954000D01*
X126878999Y-123281984D01*
X126937849Y-123266215D01*
X127031153Y-123187924D01*
X127092049Y-123082448D01*
X127108200Y-122990854D01*
X127108200Y-122954000D01*
X126878999Y-122954000D01*
X126371000Y-122954000D01*
X126371000Y-122953999D01*
X126141800Y-122953999D01*
X125716200Y-122953999D01*
X125716200Y-122665087D01*
X125706879Y-122600000D01*
X127691300Y-122600000D01*
X127712041Y-122757543D01*
X127772850Y-122904350D01*
X127869584Y-123030416D01*
X127995650Y-123127150D01*
X128142457Y-123187959D01*
X128300000Y-123208700D01*
X128457543Y-123187959D01*
X128604350Y-123127150D01*
X128730416Y-123030416D01*
X128827150Y-122904350D01*
X128887959Y-122757543D01*
X128908700Y-122600000D01*
X128887959Y-122442457D01*
X128827150Y-122295650D01*
X128730416Y-122169584D01*
X128604350Y-122072850D01*
X128457543Y-122012041D01*
X128300000Y-121991300D01*
X128142457Y-122012041D01*
X127995650Y-122072850D01*
X127869584Y-122169584D01*
X127772850Y-122295650D01*
X127712041Y-122442457D01*
X127691300Y-122600000D01*
X125706879Y-122600000D01*
X125700753Y-122557225D01*
X125699170Y-122553743D01*
X125695700Y-122546110D01*
X125695700Y-122446001D01*
X126879000Y-122446001D01*
X127108200Y-122446001D01*
X127108200Y-122418841D01*
X127066215Y-122262151D01*
X126987924Y-122168847D01*
X126882446Y-122107950D01*
X126879000Y-122107342D01*
X126879000Y-122446001D01*
X125695700Y-122446001D01*
X125695700Y-122418840D01*
X125693103Y-122409146D01*
X126141800Y-122409146D01*
X126141800Y-122446000D01*
X126371001Y-122446000D01*
X126371001Y-122118016D01*
X126312151Y-122133785D01*
X126218847Y-122212076D01*
X126157951Y-122317552D01*
X126141800Y-122409146D01*
X125693103Y-122409146D01*
X125653715Y-122262150D01*
X125575426Y-122168848D01*
X125511790Y-122132108D01*
X125469948Y-122107951D01*
X125469946Y-122107950D01*
X125378356Y-122091800D01*
X125056340Y-122091800D01*
X124899650Y-122133785D01*
X124806348Y-122212074D01*
X124796049Y-122229913D01*
X124758238Y-122295405D01*
X124745450Y-122317554D01*
X124729300Y-122409144D01*
X124729300Y-122544297D01*
X124726029Y-122551267D01*
X124726028Y-122551271D01*
X124726028Y-122551272D01*
X124713335Y-122632797D01*
X124708800Y-122661920D01*
X124708801Y-123646800D01*
X124450000Y-123646800D01*
X124424079Y-123651956D01*
X124372235Y-123662269D01*
X124301527Y-123691559D01*
X124243890Y-123727774D01*
X124191559Y-123801527D01*
X124162269Y-123872235D01*
X124146800Y-123950001D01*
X124146800Y-124665545D01*
X124145706Y-124770024D01*
X124146800Y-124774108D01*
X124146800Y-125665545D01*
X124145706Y-125770024D01*
X124146649Y-125773542D01*
X124146800Y-125774107D01*
X124146800Y-128882132D01*
X124085775Y-129019196D01*
X124046278Y-129205015D01*
X124046278Y-129394985D01*
X124085775Y-129580804D01*
X124163043Y-129754350D01*
X124163045Y-129754352D01*
X124163045Y-129754353D01*
X124274701Y-129908036D01*
X124274704Y-129908039D01*
X124415880Y-130035154D01*
X124415882Y-130035155D01*
X124415883Y-130035156D01*
X124451943Y-130055975D01*
X124485008Y-130095380D01*
X124485008Y-130146820D01*
X124451943Y-130186225D01*
X124414343Y-130196300D01*
X117322616Y-130196300D01*
X117274278Y-130178707D01*
X117248558Y-130134158D01*
X117269442Y-130067926D01*
X118259499Y-129077869D01*
X118984167Y-128353200D01*
X119127240Y-128353200D01*
X119143304Y-128351596D01*
X119167403Y-128349191D01*
X119177798Y-128347095D01*
X119242609Y-128351854D01*
X119253508Y-128352655D01*
X119268367Y-128353200D01*
X122200000Y-128353200D01*
X122245216Y-128348105D01*
X122326693Y-128308868D01*
X122383077Y-128238165D01*
X122403200Y-128150000D01*
X122403200Y-124200000D01*
X122398105Y-124154784D01*
X122358868Y-124073307D01*
X122288165Y-124016923D01*
X122200000Y-123996800D01*
X120753359Y-123996800D01*
X120670346Y-123956823D01*
X120570673Y-123941800D01*
X120036073Y-123941800D01*
X119897841Y-123967955D01*
X119847880Y-123996800D01*
X118984167Y-123996800D01*
X118393684Y-123406316D01*
X118166367Y-123178999D01*
X119616800Y-123178999D01*
X119616800Y-123238927D01*
X119642955Y-123377159D01*
X119710128Y-123493506D01*
X119808613Y-123584886D01*
X119929654Y-123643177D01*
X120029327Y-123658200D01*
X120046000Y-123658200D01*
X120553999Y-123658200D01*
X120563927Y-123658200D01*
X120702159Y-123632045D01*
X120818506Y-123564872D01*
X120909886Y-123466387D01*
X120968177Y-123345346D01*
X120983200Y-123245673D01*
X120983200Y-123179000D01*
X120554000Y-123179000D01*
X120553999Y-123658200D01*
X120046000Y-123658200D01*
X120046001Y-123178999D01*
X119616800Y-123178999D01*
X118166367Y-123178999D01*
X117761461Y-122774093D01*
X117747220Y-122752780D01*
X117679675Y-122707648D01*
X117679674Y-122707648D01*
X117679673Y-122707647D01*
X117600001Y-122691800D01*
X115203700Y-122691800D01*
X115203700Y-122671001D01*
X120553999Y-122671001D01*
X120983200Y-122671001D01*
X120983200Y-122611073D01*
X120957045Y-122472841D01*
X120889872Y-122356494D01*
X120791387Y-122265114D01*
X120670346Y-122206823D01*
X120570673Y-122191800D01*
X120554000Y-122191800D01*
X120553999Y-122671001D01*
X115203700Y-122671001D01*
X115203700Y-122604327D01*
X119616800Y-122604327D01*
X119616800Y-122671000D01*
X120046000Y-122671000D01*
X120046001Y-122191800D01*
X120036073Y-122191800D01*
X119897841Y-122217955D01*
X119781494Y-122285128D01*
X119690114Y-122383613D01*
X119631823Y-122504654D01*
X119616800Y-122604327D01*
X115203700Y-122604327D01*
X115203700Y-122513996D01*
X115204778Y-122506950D01*
X115203700Y-122492447D01*
X115203700Y-122478082D01*
X115202117Y-122471142D01*
X115200000Y-122442656D01*
X115200000Y-121800000D01*
X114540343Y-121800000D01*
X114534655Y-121799185D01*
X114522108Y-121796300D01*
X114514514Y-121796300D01*
X114507179Y-121795250D01*
X114494407Y-121796300D01*
X106608200Y-121796300D01*
X106608200Y-121353700D01*
X106774778Y-121353700D01*
X106889469Y-121415196D01*
X106905253Y-121423659D01*
X107053249Y-121456741D01*
X107204691Y-121448804D01*
X107348418Y-121400434D01*
X107473842Y-121315196D01*
X107484146Y-121303003D01*
X107571726Y-121199366D01*
X107634854Y-121061482D01*
X107637642Y-121043882D01*
X107649339Y-120970024D01*
X131245706Y-120970024D01*
X131284955Y-121116505D01*
X131362150Y-121247035D01*
X131471604Y-121351998D01*
X131589469Y-121415196D01*
X131605253Y-121423659D01*
X131753249Y-121456741D01*
X131904691Y-121448804D01*
X132048418Y-121400434D01*
X132173842Y-121315196D01*
X132184146Y-121303003D01*
X132271726Y-121199366D01*
X132334854Y-121061482D01*
X132337642Y-121043882D01*
X132349339Y-120970024D01*
X135545706Y-120970024D01*
X135584955Y-121116505D01*
X135662150Y-121247035D01*
X135771604Y-121351998D01*
X135889469Y-121415196D01*
X135905253Y-121423659D01*
X136053249Y-121456741D01*
X136204691Y-121448804D01*
X136348418Y-121400434D01*
X136473842Y-121315196D01*
X136484146Y-121303003D01*
X136571726Y-121199366D01*
X136634854Y-121061482D01*
X136637642Y-121043882D01*
X136658577Y-120911703D01*
X136658700Y-120899998D01*
X136640896Y-120770024D01*
X136638119Y-120749754D01*
X136608006Y-120680166D01*
X136577892Y-120610577D01*
X136482458Y-120492727D01*
X136482456Y-120492725D01*
X136358843Y-120404878D01*
X136358842Y-120404878D01*
X136358841Y-120404877D01*
X136216161Y-120353509D01*
X136064918Y-120342401D01*
X135916264Y-120372376D01*
X135916262Y-120372377D01*
X135781142Y-120441224D01*
X135711920Y-120504877D01*
X135669513Y-120543872D01*
X135589602Y-120672756D01*
X135552509Y-120800434D01*
X135547294Y-120818383D01*
X135545706Y-120970024D01*
X132349339Y-120970024D01*
X132358577Y-120911703D01*
X132358700Y-120899998D01*
X132340896Y-120770024D01*
X132338119Y-120749754D01*
X132308006Y-120680166D01*
X132277892Y-120610577D01*
X132182458Y-120492727D01*
X132182456Y-120492725D01*
X132058843Y-120404878D01*
X132058842Y-120404878D01*
X132058841Y-120404877D01*
X131916161Y-120353509D01*
X131764918Y-120342401D01*
X131616264Y-120372376D01*
X131616262Y-120372377D01*
X131481142Y-120441224D01*
X131411920Y-120504877D01*
X131369513Y-120543872D01*
X131289602Y-120672756D01*
X131252509Y-120800434D01*
X131247294Y-120818383D01*
X131245706Y-120970024D01*
X107649339Y-120970024D01*
X107658577Y-120911703D01*
X107658700Y-120899998D01*
X107640896Y-120770024D01*
X107638119Y-120749754D01*
X107608005Y-120680166D01*
X107577892Y-120610577D01*
X107482458Y-120492727D01*
X107482456Y-120492725D01*
X107358843Y-120404878D01*
X107358842Y-120404878D01*
X107358841Y-120404877D01*
X107216161Y-120353509D01*
X107064918Y-120342401D01*
X106916264Y-120372376D01*
X106916262Y-120372377D01*
X106811934Y-120425535D01*
X106771180Y-120446300D01*
X106608200Y-120446300D01*
X106608200Y-119899999D01*
X106591703Y-119817060D01*
X106580362Y-119770712D01*
X106603114Y-119724577D01*
X106655115Y-119703700D01*
X176737821Y-119703700D01*
X176786159Y-119721293D01*
G37*
G04 #@! TD.AperFunction*
G04 #@! TA.AperFunction,Conductor*
G36*
X143825534Y-125629783D02*
G01*
X143825534Y-125629784D01*
X143905953Y-125717143D01*
X144010170Y-125773542D01*
X144010383Y-125773657D01*
X144097536Y-125788200D01*
X144512618Y-125788200D01*
X144544903Y-125784175D01*
X144561047Y-125782163D01*
X144669784Y-125734466D01*
X144757143Y-125654047D01*
X144757145Y-125654045D01*
X144777897Y-125615700D01*
X148387284Y-125615700D01*
X148435622Y-125633293D01*
X148461342Y-125677842D01*
X148451196Y-125730527D01*
X148408261Y-125799774D01*
X148390578Y-125860639D01*
X148368307Y-125937300D01*
X148365953Y-125945401D01*
X148364365Y-126097042D01*
X148403614Y-126243523D01*
X148472079Y-126359290D01*
X148480810Y-126374054D01*
X148566566Y-126456291D01*
X148590263Y-126479016D01*
X148723912Y-126550677D01*
X148723914Y-126550678D01*
X148749731Y-126564520D01*
X148620516Y-126683339D01*
X148540603Y-126812226D01*
X148498295Y-126957852D01*
X148497743Y-127010577D01*
X148496707Y-127109494D01*
X148535956Y-127255975D01*
X148613151Y-127386505D01*
X148722605Y-127491468D01*
X148856254Y-127563129D01*
X148856255Y-127563129D01*
X148921363Y-127598039D01*
X148839705Y-127673128D01*
X148820638Y-127690661D01*
X148762142Y-127785006D01*
X148740726Y-127819546D01*
X148713973Y-127911633D01*
X148698418Y-127965173D01*
X148696830Y-128116814D01*
X148723630Y-128216833D01*
X148736079Y-128263295D01*
X148747626Y-128282820D01*
X148757088Y-128333382D01*
X148731836Y-128378197D01*
X148682898Y-128396300D01*
X143062512Y-128396300D01*
X143014174Y-128378707D01*
X142988454Y-128334158D01*
X143011581Y-128265773D01*
X143015443Y-128262218D01*
X143057143Y-128223831D01*
X143113656Y-128119403D01*
X143113657Y-128119401D01*
X143128200Y-128032248D01*
X143128200Y-127667166D01*
X143123068Y-127626001D01*
X143122163Y-127618737D01*
X143074466Y-127510000D01*
X142994047Y-127422641D01*
X142994045Y-127422640D01*
X142938872Y-127362706D01*
X142969784Y-127334250D01*
X143057143Y-127253831D01*
X143113656Y-127149403D01*
X143113657Y-127149401D01*
X143128200Y-127062248D01*
X143128200Y-126697166D01*
X143122163Y-126648739D01*
X143122163Y-126648737D01*
X143074466Y-126540000D01*
X142994047Y-126452641D01*
X142985613Y-126448077D01*
X142930700Y-126418359D01*
X142930700Y-125751610D01*
X142969784Y-125734466D01*
X143007224Y-125700000D01*
X143057143Y-125654047D01*
X143057145Y-125654045D01*
X143077897Y-125615700D01*
X143812569Y-125615700D01*
X143825534Y-125629783D01*
G37*
G04 #@! TD.AperFunction*
G04 #@! TA.AperFunction,Conductor*
G36*
X153662913Y-127461010D02*
G01*
X153338916Y-127785006D01*
X153533465Y-127979554D01*
X153601602Y-128025084D01*
X153707107Y-128046069D01*
X153812614Y-128025083D01*
X153815745Y-128022991D01*
X153865710Y-128010764D01*
X153911845Y-128033515D01*
X153926563Y-128070735D01*
X153930123Y-128069781D01*
X153932789Y-128079731D01*
X153950456Y-128145665D01*
X153972038Y-128226212D01*
X154005516Y-128282820D01*
X154014978Y-128333382D01*
X153989726Y-128378197D01*
X153940788Y-128396300D01*
X153015069Y-128396300D01*
X153054485Y-128301140D01*
X153115294Y-128154333D01*
X153136035Y-127996790D01*
X153115294Y-127839247D01*
X153063491Y-127714182D01*
X153061248Y-127662793D01*
X153092562Y-127621983D01*
X153142783Y-127610849D01*
X153153993Y-127616377D01*
X153486136Y-127284233D01*
X153662913Y-127461010D01*
G37*
G04 #@! TD.AperFunction*
G04 #@! TA.AperFunction,Conductor*
G36*
X160129427Y-121748293D02*
G01*
X160155147Y-121792842D01*
X160146214Y-121843500D01*
X160115231Y-121872903D01*
X159981142Y-121941224D01*
X159878533Y-122035578D01*
X159869513Y-122043872D01*
X159789602Y-122172756D01*
X159753970Y-122295405D01*
X159747294Y-122318383D01*
X159745706Y-122470024D01*
X159784510Y-122614842D01*
X159784956Y-122616507D01*
X159797856Y-122638321D01*
X159807318Y-122688883D01*
X159782066Y-122733698D01*
X159733128Y-122751800D01*
X158650000Y-122751800D01*
X158622108Y-122757348D01*
X158571268Y-122749523D01*
X158537351Y-122710848D01*
X158538454Y-122672481D01*
X158533243Y-122671656D01*
X158558577Y-122511703D01*
X158558700Y-122499998D01*
X158555698Y-122478082D01*
X158547734Y-122419945D01*
X159236980Y-121730700D01*
X160081089Y-121730700D01*
X160129427Y-121748293D01*
G37*
G04 #@! TD.AperFunction*
G04 #@! TD*
G04 #@! TA.AperFunction,Conductor*
G04 #@! TO.N,/HEATER*
G36*
X118250000Y-123550000D02*
G01*
X118899999Y-124200000D01*
X122200000Y-124200000D01*
X122200000Y-128150000D01*
X119268379Y-128150000D01*
X119164919Y-128142402D01*
X119127238Y-128150000D01*
X118899999Y-128150000D01*
X117876850Y-129173150D01*
X116853700Y-130196300D01*
X110800000Y-130196300D01*
X110800000Y-128203700D01*
X114486004Y-128203700D01*
X114493049Y-128204778D01*
X114493050Y-128204778D01*
X114496676Y-128204508D01*
X114507555Y-128203700D01*
X114521919Y-128203700D01*
X114528860Y-128202117D01*
X114557346Y-128200000D01*
X115200000Y-128200000D01*
X115200000Y-127540349D01*
X115200816Y-127534651D01*
X115203700Y-127522108D01*
X115203700Y-127514512D01*
X115204750Y-127507180D01*
X115203700Y-127494408D01*
X115203700Y-122900000D01*
X117600000Y-122900000D01*
X118250000Y-123550000D01*
G37*
G04 #@! TD.AperFunction*
G04 #@! TD*
G04 #@! TA.AperFunction,Conductor*
G04 #@! TO.N,+3V3*
G36*
X185276537Y-126715224D02*
G01*
X185341421Y-126758579D01*
X185384776Y-126823463D01*
X185400000Y-126900000D01*
X185400000Y-128100000D01*
X185384776Y-128176537D01*
X185341421Y-128241421D01*
X185276537Y-128284776D01*
X185200000Y-128300000D01*
X184550000Y-128300000D01*
X184473463Y-128284776D01*
X184408579Y-128241421D01*
X184365224Y-128176537D01*
X184350000Y-128100000D01*
X184350000Y-126900000D01*
X184365224Y-126823463D01*
X184408579Y-126758579D01*
X184473463Y-126715224D01*
X184550000Y-126700000D01*
X185200000Y-126700000D01*
X185276537Y-126715224D01*
G37*
G04 #@! TD.AperFunction*
G04 #@! TD*
G04 #@! TA.AperFunction,Conductor*
G04 #@! TO.N,/TIP_TC*
G36*
X106400000Y-121796300D02*
G01*
X101000000Y-121796300D01*
X101000000Y-119900000D01*
X106400000Y-119900000D01*
X106400000Y-121796300D01*
G37*
G04 #@! TD.AperFunction*
G04 #@! TD*
M02*
