G04 #@! TF.GenerationSoftware,KiCad,Pcbnew,(5.99.0-3540-g0818bd05d)*
G04 #@! TF.CreationDate,2020-10-04T20:53:55-07:00*
G04 #@! TF.ProjectId,RT_USB_PD_Soldering_Iron,52545f55-5342-45f5-9044-5f536f6c6465,rev?*
G04 #@! TF.SameCoordinates,PX5f5e100PY7735940*
G04 #@! TF.FileFunction,Copper,L2,Inr*
G04 #@! TF.FilePolarity,Positive*
%FSLAX46Y46*%
G04 Gerber Fmt 4.6, Leading zero omitted, Abs format (unit mm)*
G04 Created by KiCad (PCBNEW (5.99.0-3540-g0818bd05d)) date 2020-10-04 20:53:55*
%MOMM*%
%LPD*%
G01*
G04 APERTURE LIST*
G04 #@! TA.AperFunction,ViaPad*
%ADD10C,0.560000*%
G04 #@! TD*
G04 #@! TA.AperFunction,ViaPad*
%ADD11C,1.000000*%
G04 #@! TD*
G04 #@! TA.AperFunction,ViaPad*
%ADD12C,0.800000*%
G04 #@! TD*
G04 #@! TA.AperFunction,Conductor*
%ADD13C,0.254000*%
G04 #@! TD*
G04 #@! TA.AperFunction,Conductor*
%ADD14C,0.500000*%
G04 #@! TD*
G04 #@! TA.AperFunction,Conductor*
%ADD15C,0.300000*%
G04 #@! TD*
G04 APERTURE END LIST*
D10*
G04 #@! TO.N,/INT0*
X36400000Y2900000D03*
G04 #@! TO.N,GND*
X34800000Y400000D03*
G04 #@! TO.N,/SPI1_MISO*
X38300000Y2300000D03*
G04 #@! TO.N,/SPI1_MOSI*
X39100000Y2100000D03*
G04 #@! TO.N,/TIP_TC*
X31200000Y4100000D03*
G04 #@! TO.N,/VSENSE*
X27900000Y-400000D03*
G04 #@! TO.N,GND*
X29100000Y1900000D03*
D11*
G04 #@! TO.N,IN*
X67400000Y2400000D03*
D10*
X23400000Y300000D03*
X23400000Y-700000D03*
X24100000Y800000D03*
D11*
X67400000Y-2400000D03*
D10*
X24100000Y-200000D03*
D11*
X23650000Y-4500000D03*
D10*
X24100000Y-1200000D03*
D12*
G04 #@! TO.N,+3V3*
X59000000Y100000D03*
D10*
X46887587Y-3300000D03*
D12*
X61500000Y4700000D03*
X41100000Y4300000D03*
X46300000Y4300000D03*
X59000000Y-1500000D03*
X34100000Y4300000D03*
D10*
X61600000Y200000D03*
D12*
X48700000Y4300000D03*
D10*
G04 #@! TO.N,/BTN1*
X48600000Y-3300000D03*
X63750000Y-3159411D03*
G04 #@! TO.N,/BTN2*
X49497304Y3493203D03*
X64100000Y4100000D03*
G04 #@! TO.N,/HEATER*
X18600000Y-700000D03*
X19300000Y-700000D03*
X19700000Y-1200000D03*
X20800000Y-100000D03*
X18600000Y-100000D03*
X18950000Y-1200000D03*
X20450000Y-1200000D03*
X18600000Y500000D03*
X20100000Y-700000D03*
X20800000Y500000D03*
X20800000Y-700000D03*
G04 #@! TO.N,/OSC_IN*
X45864597Y-3267684D03*
G04 #@! TO.N,/OSC_OUT*
X45104708Y-2978643D03*
G04 #@! TO.N,/TEMP_SENS*
X32000000Y-3400000D03*
X37000000Y-1600000D03*
G04 #@! TO.N,/USB_DP*
X51100000Y2800000D03*
X63700000Y1700000D03*
G04 #@! TO.N,/CC2*
X51700000Y-1900000D03*
X62300000Y-1900000D03*
X69700000Y1700000D03*
G04 #@! TO.N,/USB_DM*
X60300000Y3400000D03*
X50200000Y2850897D03*
G04 #@! TO.N,/CC1*
X69700000Y-1300000D03*
X51400000Y-2900000D03*
X62799999Y-2600001D03*
G04 #@! TO.N,/TIP_TC*
X7100000Y4100000D03*
G04 #@! TO.N,GND*
X35750000Y-3300000D03*
X45200000Y3300000D03*
X39800000Y-2600000D03*
X37000000Y800000D03*
X20350000Y3350000D03*
X25300000Y-525000D03*
X34800000Y3300000D03*
X1300000Y-4850000D03*
X26600000Y-3200000D03*
X4700000Y-3650000D03*
X47600000Y-3300000D03*
X49398275Y2787707D03*
X32700000Y4300000D03*
X19700000Y3350000D03*
X39300000Y-3300000D03*
X47200000Y-1700000D03*
X21000000Y3350000D03*
X25300000Y-1150000D03*
X60000000Y-1500000D03*
X26000000Y3300000D03*
X62900000Y1700000D03*
X19050000Y3350000D03*
X4700000Y-4850000D03*
X66000000Y3400000D03*
X10500000Y-3700000D03*
X1300000Y-3650000D03*
X47200000Y2000000D03*
X32410396Y-101213D03*
X29750000Y-2400000D03*
X18400000Y3350000D03*
X18000000Y-4900000D03*
X25300000Y750000D03*
X32400000Y1000000D03*
X30200000Y-1300000D03*
X49200000Y0D03*
X47200000Y3500000D03*
X10500000Y-4800000D03*
X64550000Y-3159411D03*
X58197565Y-364362D03*
X30400000Y3300000D03*
X64300000Y2600000D03*
X54200000Y-600000D03*
X1300000Y-4250000D03*
X4700000Y-4250000D03*
X40400000Y100000D03*
X25300000Y125000D03*
X19200000Y-3700000D03*
X60800000Y1700000D03*
X18800000Y-4100000D03*
X18400000Y-4500000D03*
X45200000Y0D03*
X39800000Y-500000D03*
X43300000Y-2700000D03*
G04 #@! TO.N,/I2C1_SCL*
X43300000Y2900000D03*
X51700000Y0D03*
X58300000Y1400000D03*
G04 #@! TO.N,/I2C1_SDA*
X58300000Y2200000D03*
X43300000Y100000D03*
X50800000Y0D03*
X49500000Y-2926046D03*
G04 #@! TO.N,/VSENSE*
X38800000Y-1000000D03*
G04 #@! TO.N,/HEAT_ON*
X44100000Y3500000D03*
X28000000Y2600000D03*
X26500000Y-2200000D03*
G04 #@! TO.N,/INT0*
X42400000Y0D03*
G04 #@! TO.N,/SPI1_NSS*
X39200000Y-26524D03*
G04 #@! TO.N,/SPI1_SCK*
X39000000Y676411D03*
G04 #@! TO.N,/DISP_RST#*
X50900143Y-2113226D03*
G04 #@! TO.N,/NRST*
X52500000Y-1500000D03*
X44200000Y-2940590D03*
G04 #@! TO.N,/HEATER_PG*
X26500000Y2500000D03*
G04 #@! TD*
D13*
G04 #@! TO.N,/INT0*
X42400000Y0D02*
X39400000Y3000000D01*
X39400000Y3000000D02*
X36500000Y3000000D01*
X36500000Y3000000D02*
X36400000Y2900000D01*
D14*
G04 #@! TO.N,/TIP_TC*
X7100000Y4100000D02*
X31200000Y4100000D01*
D15*
G04 #@! TO.N,/VSENSE*
X30700000Y-400000D02*
X27900000Y-400000D01*
D14*
G04 #@! TO.N,+3V3*
X50100000Y4300000D02*
X48700000Y4300000D01*
X61500000Y4700000D02*
X50500000Y4700000D01*
X50500000Y4700000D02*
X50100000Y4300000D01*
X41100000Y4300000D02*
X46300000Y4300000D01*
X48700000Y4300000D02*
X46300000Y4300000D01*
X41100000Y4300000D02*
X34100000Y4300000D01*
D13*
G04 #@! TO.N,/BTN1*
X63750000Y-3159411D02*
X63409411Y-3500000D01*
X63409411Y-3500000D02*
X48800000Y-3500000D01*
X48800000Y-3500000D02*
X48600000Y-3300000D01*
G04 #@! TO.N,/BTN2*
X64000000Y4000000D02*
X50789861Y4000000D01*
X50248050Y3458189D02*
X49532318Y3458189D01*
X64100000Y4100000D02*
X64000000Y4000000D01*
X50789861Y4000000D02*
X50248050Y3458189D01*
X49532318Y3458189D02*
X49497304Y3493203D01*
G04 #@! TO.N,/TEMP_SENS*
X37000000Y-1600000D02*
X33800000Y-1600000D01*
X32000000Y-3400000D02*
X33800000Y-1600000D01*
G04 #@! TO.N,/USB_DP*
X63700000Y1700000D02*
X62600000Y2800000D01*
X62600000Y2800000D02*
X51100000Y2800000D01*
G04 #@! TO.N,/CC2*
X65450000Y-1900000D02*
X62300000Y-1900000D01*
X62300000Y-1900000D02*
X61900000Y-2300000D01*
X69050000Y1700000D02*
X65450000Y-1900000D01*
X69700000Y1700000D02*
X69050000Y1700000D01*
X52100000Y-2300000D02*
X51700000Y-1900000D01*
X61900000Y-2300000D02*
X52100000Y-2300000D01*
G04 #@! TO.N,/USB_DM*
X50200000Y2850897D02*
X50350897Y2850897D01*
X50350897Y2850897D02*
X50900000Y3400000D01*
X50900000Y3400000D02*
X60300000Y3400000D01*
G04 #@! TO.N,/CC1*
X51400000Y-2900000D02*
X62500000Y-2900000D01*
X65599999Y-2600001D02*
X62799999Y-2600001D01*
X69700000Y-1300000D02*
X66900000Y-1300000D01*
X66900000Y-1300000D02*
X65599999Y-2600001D01*
X62500000Y-2900000D02*
X62799999Y-2600001D01*
G04 #@! TO.N,/I2C1_SCL*
X44900000Y1300000D02*
X43300000Y2900000D01*
X50400000Y1300000D02*
X44900000Y1300000D01*
X51700000Y0D02*
X50400000Y1300000D01*
G04 #@! TO.N,/I2C1_SDA*
X50800000Y0D02*
X50200000Y600000D01*
X50200000Y600000D02*
X43800000Y600000D01*
X43800000Y600000D02*
X43300000Y100000D01*
G04 #@! TO.N,/VSENSE*
X31300000Y-1000000D02*
X30700000Y-400000D01*
X38800000Y-1000000D02*
X31300000Y-1000000D01*
G04 #@! TO.N,/HEAT_ON*
X28000000Y2600000D02*
X35086043Y2600000D01*
X35086043Y2600000D02*
X35986043Y3500000D01*
X35986043Y3500000D02*
X44100000Y3500000D01*
G04 #@! TO.N,/NRST*
X44200000Y-2940590D02*
X46040590Y-1100000D01*
X46040590Y-1100000D02*
X52100000Y-1100000D01*
X52100000Y-1100000D02*
X52500000Y-1500000D01*
G04 #@! TD*
G04 #@! TA.AperFunction,Conductor*
G04 #@! TO.N,GND*
G36*
X61191842Y5289925D02*
G01*
X61219367Y5262400D01*
X61229442Y5224800D01*
X61219367Y5187200D01*
X61197750Y5163464D01*
X61112370Y5102900D01*
X50499549Y5102900D01*
X50464818Y5103263D01*
X50459032Y5103324D01*
X50459030Y5103324D01*
X50434812Y5098088D01*
X50410184Y5095326D01*
X50405331Y5093636D01*
X50390770Y5088566D01*
X50370693Y5084225D01*
X50348238Y5073755D01*
X50324833Y5065604D01*
X50307404Y5054713D01*
X50288783Y5046030D01*
X50269202Y5030841D01*
X50248187Y5017709D01*
X50233606Y5003230D01*
X50232878Y5002665D01*
X50210175Y4979962D01*
X50184056Y4954025D01*
X50183740Y4953527D01*
X49933114Y4702900D01*
X49079289Y4702900D01*
X49022522Y4752160D01*
X48931202Y4804990D01*
X48831540Y4839598D01*
X48727131Y4854737D01*
X48630671Y4850272D01*
X48621741Y4849859D01*
X48579166Y4839598D01*
X48519179Y4825141D01*
X48519177Y4825140D01*
X48423141Y4781476D01*
X48312370Y4702900D01*
X46679289Y4702900D01*
X46622522Y4752160D01*
X46531202Y4804990D01*
X46431540Y4839598D01*
X46327131Y4854737D01*
X46230671Y4850272D01*
X46221741Y4849859D01*
X46179166Y4839598D01*
X46119179Y4825141D01*
X46119177Y4825140D01*
X46023141Y4781476D01*
X45912370Y4702900D01*
X41479289Y4702900D01*
X41422522Y4752160D01*
X41331202Y4804990D01*
X41231540Y4839598D01*
X41127131Y4854737D01*
X41030671Y4850272D01*
X41021741Y4849859D01*
X40979166Y4839598D01*
X40919179Y4825141D01*
X40919177Y4825140D01*
X40823141Y4781476D01*
X40712370Y4702900D01*
X34479289Y4702900D01*
X34422522Y4752160D01*
X34331202Y4804990D01*
X34231540Y4839598D01*
X34127131Y4854737D01*
X34030671Y4850272D01*
X34021741Y4849859D01*
X33979166Y4839598D01*
X33919179Y4825141D01*
X33919177Y4825140D01*
X33823141Y4781476D01*
X33781814Y4752160D01*
X33737090Y4720435D01*
X33664135Y4644225D01*
X33606907Y4555595D01*
X33606907Y4555594D01*
X33567472Y4457743D01*
X33547251Y4354199D01*
X33546975Y4248694D01*
X33566653Y4145049D01*
X33605576Y4046989D01*
X33662338Y3958063D01*
X33734894Y3881471D01*
X33820625Y3819980D01*
X33916428Y3775814D01*
X33916432Y3775813D01*
X34018865Y3750558D01*
X34036135Y3749668D01*
X34124225Y3745128D01*
X34228711Y3759719D01*
X34328558Y3793808D01*
X34420149Y3846157D01*
X34420151Y3846158D01*
X34479481Y3897100D01*
X35834714Y3897100D01*
X35872314Y3887025D01*
X35899839Y3859500D01*
X35909914Y3821900D01*
X35899839Y3784300D01*
X35870944Y3756003D01*
X35862822Y3751538D01*
X35839752Y3741555D01*
X35829371Y3733149D01*
X35817668Y3726715D01*
X35812194Y3721991D01*
X35808956Y3718752D01*
X35797731Y3707527D01*
X35780182Y3693316D01*
X35771983Y3681779D01*
X34970106Y2879900D01*
X28331056Y2879900D01*
X28282193Y2931574D01*
X28204408Y2984435D01*
X28187462Y2991213D01*
X28117088Y3019361D01*
X28054037Y3029799D01*
X28024306Y3034721D01*
X28024305Y3034721D01*
X27930388Y3029799D01*
X27909785Y3024124D01*
X27839719Y3004826D01*
X27790840Y2979054D01*
X27756527Y2960963D01*
X27690099Y2904826D01*
X27684694Y2900258D01*
X27627576Y2825552D01*
X27627574Y2825549D01*
X27587829Y2740314D01*
X27567313Y2648534D01*
X27566985Y2554488D01*
X27586550Y2463998D01*
X27586860Y2462563D01*
X27624088Y2381253D01*
X27626009Y2377057D01*
X27682607Y2301948D01*
X27682609Y2301946D01*
X27754013Y2240745D01*
X27803617Y2214148D01*
X27836896Y2196304D01*
X27927389Y2170697D01*
X28021269Y2165120D01*
X28021271Y2165120D01*
X28083194Y2174928D01*
X28114157Y2179832D01*
X28201719Y2214147D01*
X28201718Y2214147D01*
X28201722Y2214148D01*
X28279870Y2266463D01*
X28313898Y2301948D01*
X28331305Y2320100D01*
X35082868Y2320100D01*
X35112618Y2318853D01*
X35112620Y2318853D01*
X35137091Y2324593D01*
X35161986Y2328003D01*
X35174248Y2333309D01*
X35187246Y2336358D01*
X35209263Y2348461D01*
X35232334Y2358445D01*
X35232336Y2358446D01*
X35242713Y2366848D01*
X35254415Y2373283D01*
X35254417Y2373284D01*
X35259885Y2378005D01*
X35259890Y2378009D01*
X35268323Y2386443D01*
X35274345Y2392465D01*
X35291904Y2406684D01*
X35300108Y2418228D01*
X35838784Y2956903D01*
X35872493Y2976366D01*
X35911419Y2976366D01*
X35945130Y2956902D01*
X35964594Y2923191D01*
X35967156Y2903467D01*
X35966985Y2854488D01*
X35980929Y2789997D01*
X35986860Y2762563D01*
X36015716Y2699538D01*
X36026009Y2677057D01*
X36063374Y2627472D01*
X36082609Y2601946D01*
X36154013Y2540745D01*
X36197625Y2517361D01*
X36236896Y2496304D01*
X36327389Y2470697D01*
X36421269Y2465120D01*
X36421271Y2465120D01*
X36483194Y2474928D01*
X36514157Y2479832D01*
X36601719Y2514147D01*
X36679870Y2566464D01*
X36696656Y2583968D01*
X36744964Y2634343D01*
X36774437Y2682629D01*
X36793962Y2714616D01*
X36793964Y2714621D01*
X36797308Y2720100D01*
X37924165Y2720100D01*
X37961765Y2710025D01*
X37989290Y2682500D01*
X37999365Y2644900D01*
X37983904Y2599225D01*
X37927576Y2525552D01*
X37927574Y2525549D01*
X37887829Y2440314D01*
X37867313Y2348534D01*
X37866985Y2254488D01*
X37886017Y2166464D01*
X37886860Y2162563D01*
X37916892Y2096970D01*
X37926009Y2077057D01*
X37975597Y2011251D01*
X37982609Y2001946D01*
X38054013Y1940745D01*
X38103619Y1914147D01*
X38136896Y1896304D01*
X38227389Y1870697D01*
X38321269Y1865120D01*
X38321271Y1865120D01*
X38396649Y1877059D01*
X38414157Y1879832D01*
X38501719Y1914147D01*
X38579870Y1966464D01*
X38644963Y2034343D01*
X38645083Y2034539D01*
X38651053Y2040771D01*
X38714613Y1901948D01*
X38726009Y1877057D01*
X38773415Y1814147D01*
X38782609Y1801946D01*
X38854013Y1740745D01*
X38903619Y1714147D01*
X38936896Y1696304D01*
X39027389Y1670697D01*
X39121269Y1665120D01*
X39121271Y1665120D01*
X39183194Y1674928D01*
X39214157Y1679832D01*
X39301719Y1714147D01*
X39379870Y1766464D01*
X39379872Y1766466D01*
X39444962Y1834341D01*
X39464570Y1866465D01*
X39493962Y1914616D01*
X39516870Y1981147D01*
X39524580Y2003537D01*
X39525862Y2014616D01*
X39535389Y2096960D01*
X39535389Y2097075D01*
X39535401Y2099998D01*
X39525243Y2193495D01*
X39524074Y2196970D01*
X39495246Y2282629D01*
X39470030Y2324596D01*
X39459301Y2362014D01*
X39468719Y2399784D01*
X39495760Y2427785D01*
X39533179Y2438514D01*
X39570949Y2429096D01*
X39587663Y2416500D01*
X41967271Y36890D01*
X41966985Y-45512D01*
X41986445Y-135516D01*
X41986860Y-137437D01*
X42017062Y-203402D01*
X42026009Y-222943D01*
X42082607Y-298052D01*
X42082609Y-298054D01*
X42154013Y-359255D01*
X42197004Y-382306D01*
X42236896Y-403696D01*
X42327389Y-429303D01*
X42421269Y-434880D01*
X42421271Y-434880D01*
X42488788Y-424186D01*
X42514157Y-420168D01*
X42601719Y-385853D01*
X42679870Y-333536D01*
X42683930Y-329302D01*
X42744962Y-265659D01*
X42764744Y-233251D01*
X42793962Y-185384D01*
X42804087Y-155977D01*
X42825854Y-123706D01*
X42860841Y-106642D01*
X42899672Y-109357D01*
X42935248Y-135204D01*
X42936931Y-137437D01*
X42981412Y-196465D01*
X42982609Y-198054D01*
X43054013Y-259255D01*
X43103619Y-285853D01*
X43136896Y-303696D01*
X43227389Y-329303D01*
X43321269Y-334880D01*
X43321271Y-334880D01*
X43396636Y-322943D01*
X43414157Y-320168D01*
X43501719Y-285853D01*
X43579870Y-233536D01*
X43590030Y-222941D01*
X43644962Y-165659D01*
X43657260Y-145512D01*
X43693962Y-85384D01*
X43720447Y-8465D01*
X43724580Y3537D01*
X43728188Y34721D01*
X43735389Y96960D01*
X43735389Y97092D01*
X43735401Y100000D01*
X43731524Y135686D01*
X43915939Y320100D01*
X50084063Y320100D01*
X50367271Y36890D01*
X50366985Y-45512D01*
X50386445Y-135516D01*
X50386860Y-137437D01*
X50417062Y-203402D01*
X50426009Y-222943D01*
X50482607Y-298052D01*
X50482609Y-298054D01*
X50554013Y-359255D01*
X50597004Y-382306D01*
X50636896Y-403696D01*
X50727389Y-429303D01*
X50821269Y-434880D01*
X50821271Y-434880D01*
X50888788Y-424186D01*
X50914157Y-420168D01*
X51001719Y-385853D01*
X51079870Y-333536D01*
X51083930Y-329302D01*
X51144962Y-265659D01*
X51176263Y-214380D01*
X51185903Y-198588D01*
X51214091Y-171744D01*
X51251926Y-162590D01*
X51289269Y-173581D01*
X51318463Y-206462D01*
X51326009Y-222943D01*
X51382607Y-298052D01*
X51382609Y-298054D01*
X51454013Y-359255D01*
X51497004Y-382306D01*
X51536896Y-403696D01*
X51627389Y-429303D01*
X51721269Y-434880D01*
X51721271Y-434880D01*
X51788788Y-424186D01*
X51814157Y-420168D01*
X51901719Y-385853D01*
X51979870Y-333536D01*
X51983930Y-329302D01*
X52044962Y-265659D01*
X52059442Y-241937D01*
X52093962Y-185384D01*
X52120278Y-108956D01*
X52124580Y-96463D01*
X52126122Y-83131D01*
X52135389Y-3040D01*
X52135389Y-2925D01*
X52135401Y-2D01*
X52130111Y48694D01*
X58446975Y48694D01*
X58456795Y-3030D01*
X58466653Y-54952D01*
X58478733Y-85384D01*
X58505576Y-153011D01*
X58562338Y-241937D01*
X58634894Y-318529D01*
X58720625Y-380020D01*
X58816428Y-424186D01*
X58816432Y-424187D01*
X58918865Y-449442D01*
X58936135Y-450332D01*
X59024225Y-454872D01*
X59128711Y-440281D01*
X59228558Y-406192D01*
X59320152Y-353842D01*
X59400192Y-285118D01*
X59434478Y-241937D01*
X59465798Y-202493D01*
X59514594Y-108955D01*
X59538340Y-29554D01*
X59544822Y-7880D01*
X59555392Y97092D01*
X59555400Y100003D01*
X59550203Y154488D01*
X61166985Y154488D01*
X61185907Y66972D01*
X61186860Y62563D01*
X61219112Y-7880D01*
X61226009Y-22943D01*
X61281409Y-96462D01*
X61282609Y-98054D01*
X61354013Y-159255D01*
X61402853Y-185442D01*
X61436896Y-203696D01*
X61527389Y-229303D01*
X61621269Y-234880D01*
X61621271Y-234880D01*
X61696636Y-222943D01*
X61714157Y-220168D01*
X61801719Y-185853D01*
X61879870Y-133536D01*
X61903057Y-109357D01*
X61944962Y-65659D01*
X61967000Y-29554D01*
X61993962Y14616D01*
X62022315Y96960D01*
X62024580Y103537D01*
X62028299Y135685D01*
X62035389Y196960D01*
X62035389Y197075D01*
X62035401Y199998D01*
X62025243Y293495D01*
X62025243Y293496D01*
X61995246Y382629D01*
X61978347Y410754D01*
X61946810Y463242D01*
X61882192Y531573D01*
X61882191Y531574D01*
X61804408Y584435D01*
X61717088Y619361D01*
X61654037Y629799D01*
X61624306Y634721D01*
X61624305Y634721D01*
X61530388Y629799D01*
X61502286Y622059D01*
X61439719Y604826D01*
X61392537Y579949D01*
X61356527Y560963D01*
X61290099Y504826D01*
X61284694Y500258D01*
X61227740Y425766D01*
X61227574Y425549D01*
X61187829Y340314D01*
X61167313Y248534D01*
X61166985Y154488D01*
X59550203Y154488D01*
X59545381Y205022D01*
X59526047Y270925D01*
X59515681Y306258D01*
X59508552Y320100D01*
X59467376Y400048D01*
X59402204Y483017D01*
X59322522Y552160D01*
X59307305Y560963D01*
X59231202Y604990D01*
X59131540Y639598D01*
X59027131Y654737D01*
X58930671Y650272D01*
X58921741Y649859D01*
X58882137Y640314D01*
X58819179Y625141D01*
X58819177Y625140D01*
X58723141Y581476D01*
X58663230Y538977D01*
X58637090Y520435D01*
X58564135Y444225D01*
X58506907Y355595D01*
X58492166Y319016D01*
X58467472Y257743D01*
X58447251Y154199D01*
X58446975Y48694D01*
X52130111Y48694D01*
X52125243Y93495D01*
X52124074Y96970D01*
X52095246Y182629D01*
X52077405Y212322D01*
X52046810Y263242D01*
X51982192Y331573D01*
X51982191Y331574D01*
X51904408Y384435D01*
X51817088Y419361D01*
X51805548Y421271D01*
X51724306Y434722D01*
X51664262Y431575D01*
X50600184Y1495653D01*
X50580009Y1517593D01*
X50558641Y1530842D01*
X50538631Y1546030D01*
X50538632Y1546030D01*
X50538630Y1546031D01*
X50526212Y1550948D01*
X50514864Y1557984D01*
X50514863Y1557984D01*
X50514862Y1557985D01*
X50490722Y1564998D01*
X50467361Y1574248D01*
X50467360Y1574248D01*
X50467358Y1574249D01*
X50454085Y1575643D01*
X50447669Y1577507D01*
X50441254Y1579371D01*
X50437652Y1579635D01*
X50434050Y1579900D01*
X50413584Y1579900D01*
X50391131Y1582260D01*
X50391130Y1582260D01*
X50377177Y1579900D01*
X45015938Y1579900D01*
X43731603Y2864235D01*
X43735389Y2896960D01*
X43735391Y2897560D01*
X43735401Y2899998D01*
X43725243Y2993495D01*
X43724517Y2995653D01*
X43695246Y3082629D01*
X43693787Y3085057D01*
X43683058Y3122472D01*
X43692475Y3160242D01*
X43719516Y3188244D01*
X43756934Y3198974D01*
X43807185Y3180882D01*
X43837266Y3155100D01*
X43854015Y3140744D01*
X43885607Y3123805D01*
X43936896Y3096304D01*
X44027389Y3070697D01*
X44121269Y3065120D01*
X44121271Y3065120D01*
X44187709Y3075643D01*
X44214157Y3079832D01*
X44301719Y3114147D01*
X44379870Y3166464D01*
X44394149Y3181354D01*
X44444962Y3234341D01*
X44466888Y3270262D01*
X44493962Y3314616D01*
X44522315Y3396960D01*
X44524580Y3403537D01*
X44525563Y3412031D01*
X44535389Y3496960D01*
X44535389Y3497075D01*
X44535401Y3499998D01*
X44525243Y3593495D01*
X44511774Y3633517D01*
X44495246Y3682629D01*
X44464890Y3733150D01*
X44446810Y3763241D01*
X44440201Y3770230D01*
X44421686Y3804471D01*
X44422772Y3843382D01*
X44443168Y3876537D01*
X44494838Y3897100D01*
X45913103Y3897100D01*
X46020625Y3819980D01*
X46116428Y3775814D01*
X46116432Y3775813D01*
X46218865Y3750558D01*
X46236135Y3749668D01*
X46324225Y3745128D01*
X46428711Y3759719D01*
X46528558Y3793808D01*
X46620149Y3846157D01*
X46620151Y3846158D01*
X46679481Y3897100D01*
X48313103Y3897100D01*
X48420625Y3819980D01*
X48516428Y3775814D01*
X48516432Y3775813D01*
X48618865Y3750558D01*
X48636135Y3749668D01*
X48724225Y3745128D01*
X48828711Y3759719D01*
X48928558Y3793808D01*
X49020149Y3846157D01*
X49020151Y3846158D01*
X49079481Y3897100D01*
X49109081Y3897100D01*
X49146681Y3887025D01*
X49174206Y3859500D01*
X49184281Y3821900D01*
X49168820Y3776225D01*
X49124878Y3718752D01*
X49085133Y3633517D01*
X49064617Y3541737D01*
X49064289Y3447691D01*
X49084163Y3355769D01*
X49123313Y3270260D01*
X49178536Y3196976D01*
X49179913Y3195149D01*
X49251317Y3133948D01*
X49300923Y3107350D01*
X49334200Y3089507D01*
X49424693Y3063900D01*
X49518573Y3058323D01*
X49518575Y3058323D01*
X49596699Y3070697D01*
X49611461Y3073035D01*
X49654687Y3089975D01*
X49698902Y3107302D01*
X49737586Y3111640D01*
X49773256Y3096056D01*
X49796356Y3064724D01*
X49800694Y3026040D01*
X49794494Y3005505D01*
X49787829Y2991213D01*
X49780333Y2957677D01*
X49767313Y2899431D01*
X49766985Y2805385D01*
X49786473Y2715251D01*
X49786860Y2713460D01*
X49824846Y2630495D01*
X49826009Y2627954D01*
X49881369Y2554488D01*
X49882609Y2552843D01*
X49954013Y2491642D01*
X50003619Y2465044D01*
X50036896Y2447201D01*
X50127389Y2421594D01*
X50221269Y2416017D01*
X50221271Y2416017D01*
X50295569Y2427785D01*
X50314157Y2430729D01*
X50401719Y2465044D01*
X50479870Y2517361D01*
X50491797Y2529798D01*
X50544962Y2585238D01*
X50572587Y2630495D01*
X50600776Y2657339D01*
X50638611Y2666493D01*
X50675954Y2655502D01*
X50705148Y2622620D01*
X50715859Y2599225D01*
X50726009Y2577057D01*
X50782607Y2501948D01*
X50782609Y2501946D01*
X50854013Y2440745D01*
X50903617Y2414148D01*
X50936896Y2396304D01*
X51027389Y2370697D01*
X51121269Y2365120D01*
X51121271Y2365120D01*
X51196649Y2377059D01*
X51214157Y2379832D01*
X51274648Y2403538D01*
X51301722Y2414148D01*
X51379870Y2466463D01*
X51408487Y2496306D01*
X51431305Y2520100D01*
X57971662Y2520100D01*
X57896843Y2359645D01*
X57887829Y2340314D01*
X57867313Y2248534D01*
X57866985Y2154488D01*
X57877723Y2104825D01*
X57886860Y2062563D01*
X57924136Y1981147D01*
X57926009Y1977057D01*
X57978400Y1907531D01*
X57982609Y1901946D01*
X58102131Y1799503D01*
X58032555Y1740705D01*
X57985389Y1700845D01*
X57984694Y1700258D01*
X57962093Y1670697D01*
X57927574Y1625549D01*
X57887829Y1540314D01*
X57867313Y1448534D01*
X57867027Y1366466D01*
X57866985Y1354488D01*
X57886860Y1262563D01*
X57908813Y1214616D01*
X57926009Y1177057D01*
X57982607Y1101948D01*
X57982609Y1101946D01*
X58054013Y1040745D01*
X58103619Y1014147D01*
X58136896Y996304D01*
X58227389Y970697D01*
X58321269Y965120D01*
X58321271Y965120D01*
X58383194Y974928D01*
X58414157Y979832D01*
X58501719Y1014147D01*
X58579870Y1066464D01*
X58579872Y1066466D01*
X58644962Y1134341D01*
X58655797Y1152092D01*
X58693962Y1214616D01*
X58724580Y1303538D01*
X58735389Y1396960D01*
X58735389Y1397075D01*
X58735401Y1399998D01*
X58725243Y1493495D01*
X58717133Y1517593D01*
X58695246Y1582629D01*
X58681428Y1605627D01*
X58646810Y1663242D01*
X58582191Y1731575D01*
X58554694Y1750261D01*
X58504408Y1784435D01*
X58504401Y1784438D01*
X58481049Y1800307D01*
X58579871Y1866465D01*
X58644962Y1934341D01*
X58664570Y1966464D01*
X58693962Y2014616D01*
X58722315Y2096960D01*
X58724580Y2103537D01*
X58725807Y2114147D01*
X58735389Y2196960D01*
X58735389Y2197075D01*
X58735401Y2199998D01*
X58725243Y2293495D01*
X58722399Y2301946D01*
X58695246Y2382629D01*
X58681100Y2406172D01*
X58670371Y2443588D01*
X58679789Y2481358D01*
X58706829Y2509359D01*
X58745560Y2520100D01*
X62484063Y2520100D01*
X63077446Y1926716D01*
X63267271Y1736891D01*
X63267073Y1679832D01*
X63266985Y1654488D01*
X63286334Y1564997D01*
X63286860Y1562563D01*
X63307450Y1517593D01*
X63326009Y1477057D01*
X63368929Y1420100D01*
X63382609Y1401946D01*
X63454013Y1340745D01*
X63503619Y1314147D01*
X63536896Y1296304D01*
X63627389Y1270697D01*
X63721269Y1265120D01*
X63721271Y1265120D01*
X63783194Y1274928D01*
X63814157Y1279832D01*
X63901719Y1314147D01*
X63979870Y1366464D01*
X63979872Y1366466D01*
X64044962Y1434341D01*
X64053825Y1448860D01*
X64093962Y1514616D01*
X64124580Y1603538D01*
X64135389Y1696960D01*
X64135389Y1697075D01*
X64135401Y1699998D01*
X64125243Y1793495D01*
X64123221Y1799503D01*
X64095246Y1882629D01*
X64074310Y1917472D01*
X64046810Y1963242D01*
X63982192Y2031573D01*
X63982191Y2031574D01*
X63904408Y2084435D01*
X63817088Y2119361D01*
X63805548Y2121271D01*
X63724306Y2134722D01*
X63664262Y2131575D01*
X63448790Y2347047D01*
X66695788Y2347047D01*
X66711656Y2248534D01*
X66714777Y2229155D01*
X66753359Y2116144D01*
X66810430Y2011251D01*
X66884359Y1917472D01*
X66973032Y1837491D01*
X67009887Y1814147D01*
X67043634Y1792772D01*
X67073913Y1773593D01*
X67090997Y1766464D01*
X67184120Y1727605D01*
X67300494Y1700845D01*
X67419717Y1694075D01*
X67419718Y1694075D01*
X67459271Y1698547D01*
X67538379Y1707490D01*
X67653080Y1740705D01*
X67760542Y1792770D01*
X67770450Y1799850D01*
X67857702Y1862202D01*
X67857706Y1862205D01*
X67941768Y1947002D01*
X67979129Y2000260D01*
X68010351Y2044767D01*
X68014957Y2054488D01*
X68061478Y2152684D01*
X68066524Y2170697D01*
X68093691Y2267671D01*
X68103581Y2362563D01*
X68106070Y2386440D01*
X68106200Y2400002D01*
X68102743Y2440746D01*
X68096104Y2518987D01*
X68066104Y2634572D01*
X68017185Y2743170D01*
X69222390Y2743170D01*
X69222391Y2743166D01*
X69241561Y2648091D01*
X69262877Y2597874D01*
X69279460Y2558806D01*
X69334538Y2478967D01*
X69404544Y2411834D01*
X69453101Y2381256D01*
X69483657Y2362014D01*
X69486620Y2360148D01*
X69577412Y2326021D01*
X69634891Y2316917D01*
X69673209Y2310848D01*
X69673211Y2310848D01*
X69770105Y2315248D01*
X69864135Y2339042D01*
X69883773Y2348535D01*
X69951457Y2381253D01*
X69975977Y2400000D01*
X70028514Y2440168D01*
X70029017Y2440746D01*
X70092148Y2513370D01*
X70128033Y2577057D01*
X70139762Y2597872D01*
X70140197Y2599225D01*
X70169413Y2690223D01*
X70171937Y2713460D01*
X70179888Y2786650D01*
X70179888Y2786713D01*
X70179901Y2789997D01*
X70170098Y2886498D01*
X70141093Y2979054D01*
X70097153Y3058323D01*
X70094070Y3063885D01*
X70030948Y3137530D01*
X69954308Y3196978D01*
X69867280Y3239802D01*
X69773418Y3264251D01*
X69676557Y3269327D01*
X69676554Y3269327D01*
X69580659Y3254824D01*
X69580658Y3254824D01*
X69580654Y3254823D01*
X69489626Y3221331D01*
X69489621Y3221329D01*
X69407191Y3170221D01*
X69336718Y3103578D01*
X69281084Y3024124D01*
X69242564Y2935109D01*
X69223219Y2842508D01*
X69222729Y2840163D01*
X69222390Y2743170D01*
X68017185Y2743170D01*
X68017058Y2743450D01*
X67998372Y2771206D01*
X67950368Y2842508D01*
X67867942Y2928913D01*
X67772137Y3000194D01*
X67665694Y3054313D01*
X67665690Y3054315D01*
X67551646Y3089726D01*
X67551645Y3089726D01*
X67551642Y3089727D01*
X67433267Y3105416D01*
X67313934Y3100936D01*
X67197069Y3076415D01*
X67197067Y3076414D01*
X67197066Y3076414D01*
X67141533Y3054483D01*
X67085996Y3032551D01*
X66983910Y2970602D01*
X66893718Y2892338D01*
X66818003Y2799998D01*
X66818002Y2799996D01*
X66758928Y2696217D01*
X66718183Y2583968D01*
X66696934Y2466459D01*
X66695937Y2362566D01*
X66695788Y2347047D01*
X63448790Y2347047D01*
X62800184Y2995653D01*
X62780009Y3017593D01*
X62758641Y3030842D01*
X62738631Y3046030D01*
X62738632Y3046030D01*
X62738630Y3046031D01*
X62726212Y3050948D01*
X62714864Y3057984D01*
X62714863Y3057984D01*
X62714862Y3057985D01*
X62690722Y3064998D01*
X62667361Y3074248D01*
X62667360Y3074248D01*
X62667358Y3074249D01*
X62654085Y3075643D01*
X62647669Y3077507D01*
X62641254Y3079371D01*
X62637652Y3079635D01*
X62634050Y3079900D01*
X62613584Y3079900D01*
X62591131Y3082260D01*
X62591130Y3082260D01*
X62577177Y3079900D01*
X60745736Y3079900D01*
X60708136Y3089975D01*
X60680611Y3117500D01*
X60670536Y3155100D01*
X60681548Y3194279D01*
X60683194Y3196976D01*
X60693962Y3214616D01*
X60724580Y3303538D01*
X60735389Y3396960D01*
X60735389Y3397075D01*
X60735401Y3399998D01*
X60725243Y3493495D01*
X60724074Y3496970D01*
X60695246Y3582629D01*
X60681100Y3606172D01*
X60670371Y3643588D01*
X60679789Y3681358D01*
X60706829Y3709359D01*
X60745560Y3720100D01*
X63892517Y3720100D01*
X63936896Y3696304D01*
X64027389Y3670697D01*
X64121269Y3665120D01*
X64121271Y3665120D01*
X64183958Y3675049D01*
X64214157Y3679832D01*
X64301719Y3714147D01*
X64379870Y3766464D01*
X64381944Y3768627D01*
X64444962Y3834341D01*
X64470719Y3876538D01*
X64493962Y3914616D01*
X64524580Y4003538D01*
X64531807Y4066001D01*
X68048588Y4066001D01*
X68082839Y3992550D01*
X68148318Y3899036D01*
X68229036Y3818318D01*
X68322550Y3752839D01*
X68426008Y3704596D01*
X68536279Y3675049D01*
X68621426Y3667600D01*
X68946000Y3667600D01*
X69453999Y3667600D01*
X69778574Y3667600D01*
X69863721Y3675049D01*
X69973992Y3704596D01*
X70077450Y3752839D01*
X70170964Y3818318D01*
X70251682Y3899036D01*
X70317161Y3992550D01*
X70351411Y4066000D01*
X69453999Y4066001D01*
X72378588Y4066001D01*
X72412839Y3992550D01*
X72478318Y3899036D01*
X72559036Y3818318D01*
X72652550Y3752839D01*
X72756008Y3704596D01*
X72866279Y3675049D01*
X72951426Y3667600D01*
X73126000Y3667600D01*
X73633999Y3667600D01*
X73808574Y3667600D01*
X73893721Y3675049D01*
X74003992Y3704596D01*
X74107450Y3752839D01*
X74200964Y3818318D01*
X74281682Y3899036D01*
X74347161Y3992550D01*
X74381411Y4066000D01*
X73633999Y4066001D01*
X73633999Y3667600D01*
X73126000Y3667600D01*
X73126000Y4066000D01*
X72378588Y4066001D01*
X69453999Y4066001D01*
X69453999Y3667600D01*
X68946000Y3667600D01*
X68946000Y4066000D01*
X68048588Y4066001D01*
X64531807Y4066001D01*
X64535389Y4096960D01*
X64535389Y4097075D01*
X64535401Y4099998D01*
X64526481Y4182100D01*
X64525243Y4193496D01*
X64495246Y4282629D01*
X64475865Y4314885D01*
X64446810Y4363242D01*
X64382192Y4431573D01*
X64382191Y4431574D01*
X64304408Y4484435D01*
X64217088Y4519361D01*
X64154037Y4529799D01*
X64124306Y4534721D01*
X64124305Y4534721D01*
X64030388Y4529799D01*
X64002286Y4522059D01*
X63939719Y4504826D01*
X63885247Y4476106D01*
X63856527Y4460963D01*
X63784696Y4400260D01*
X63784694Y4400258D01*
X63727575Y4325552D01*
X63727574Y4325549D01*
X63706288Y4279900D01*
X62028148Y4279900D01*
X61990548Y4289975D01*
X61963023Y4317500D01*
X61952948Y4355100D01*
X61965053Y4389802D01*
X61962479Y4391145D01*
X61983569Y4431573D01*
X62014594Y4491045D01*
X62033898Y4555595D01*
X62039402Y4574000D01*
X68048589Y4574000D01*
X68946001Y4573999D01*
X68946001Y4972400D01*
X69454000Y4972400D01*
X69454000Y4574000D01*
X70351412Y4573999D01*
X70351412Y4574000D01*
X72378589Y4574000D01*
X73126001Y4573999D01*
X73126001Y4972400D01*
X73634000Y4972400D01*
X73634000Y4574000D01*
X74381412Y4573999D01*
X74347161Y4647450D01*
X74281682Y4740964D01*
X74200964Y4821682D01*
X74107450Y4887161D01*
X74003992Y4935404D01*
X73893721Y4964951D01*
X73808574Y4972400D01*
X73634000Y4972400D01*
X73126001Y4972400D01*
X72951426Y4972400D01*
X72866279Y4964951D01*
X72756008Y4935404D01*
X72652550Y4887161D01*
X72559036Y4821682D01*
X72478318Y4740964D01*
X72412839Y4647450D01*
X72378589Y4574000D01*
X70351412Y4574000D01*
X70317161Y4647450D01*
X70251682Y4740964D01*
X70170964Y4821682D01*
X70077450Y4887161D01*
X69973992Y4935404D01*
X69863721Y4964951D01*
X69778574Y4972400D01*
X69454000Y4972400D01*
X68946001Y4972400D01*
X68621426Y4972400D01*
X68536279Y4964951D01*
X68426008Y4935404D01*
X68322550Y4887161D01*
X68229036Y4821682D01*
X68148318Y4740964D01*
X68082839Y4647450D01*
X68048589Y4574000D01*
X62039402Y4574000D01*
X62044822Y4592120D01*
X62055392Y4697092D01*
X62055400Y4700003D01*
X62045381Y4805022D01*
X62015680Y4906260D01*
X61967376Y5000048D01*
X61902204Y5083017D01*
X61822522Y5152161D01*
X61809476Y5159708D01*
X61781975Y5187257D01*
X61771933Y5224866D01*
X61782041Y5262457D01*
X61809590Y5289958D01*
X61847133Y5300000D01*
X74847100Y5300000D01*
X74847101Y-5300000D01*
X23940346Y-5300000D01*
X23902746Y-5289925D01*
X23875221Y-5262400D01*
X23865146Y-5224800D01*
X23875221Y-5187200D01*
X23907558Y-5157125D01*
X24010542Y-5107230D01*
X24073123Y-5062509D01*
X24107702Y-5037798D01*
X24107706Y-5037795D01*
X24191768Y-4952998D01*
X24237953Y-4887161D01*
X24260351Y-4855233D01*
X24311478Y-4747316D01*
X24343691Y-4632329D01*
X24349770Y-4573999D01*
X68048588Y-4573999D01*
X68082839Y-4647450D01*
X68148318Y-4740964D01*
X68229036Y-4821682D01*
X68322550Y-4887161D01*
X68426008Y-4935404D01*
X68536279Y-4964951D01*
X68621426Y-4972400D01*
X68946000Y-4972400D01*
X69453999Y-4972400D01*
X69778574Y-4972400D01*
X69863721Y-4964951D01*
X69973992Y-4935404D01*
X70077450Y-4887161D01*
X70170964Y-4821682D01*
X70251682Y-4740964D01*
X70317161Y-4647450D01*
X70351411Y-4574000D01*
X69453999Y-4573999D01*
X72378588Y-4573999D01*
X72412839Y-4647450D01*
X72478318Y-4740964D01*
X72559036Y-4821682D01*
X72652550Y-4887161D01*
X72756008Y-4935404D01*
X72866279Y-4964951D01*
X72951426Y-4972400D01*
X73126000Y-4972400D01*
X73633999Y-4972400D01*
X73808574Y-4972400D01*
X73893721Y-4964951D01*
X74003992Y-4935404D01*
X74107450Y-4887161D01*
X74200964Y-4821682D01*
X74281682Y-4740964D01*
X74347161Y-4647450D01*
X74381411Y-4574000D01*
X73633999Y-4573999D01*
X73633999Y-4972400D01*
X73126000Y-4972400D01*
X73126000Y-4574000D01*
X72378588Y-4573999D01*
X69453999Y-4573999D01*
X69453999Y-4972400D01*
X68946000Y-4972400D01*
X68946000Y-4574000D01*
X68048588Y-4573999D01*
X24349770Y-4573999D01*
X24356070Y-4513557D01*
X24356200Y-4500000D01*
X24346104Y-4381013D01*
X24316104Y-4265428D01*
X24267058Y-4156550D01*
X24206096Y-4066000D01*
X68048589Y-4066000D01*
X68946001Y-4066001D01*
X68946001Y-3667600D01*
X69454000Y-3667600D01*
X69454000Y-4066000D01*
X70351412Y-4066001D01*
X70351412Y-4066000D01*
X72378589Y-4066000D01*
X73126001Y-4066001D01*
X73126001Y-3667600D01*
X73634000Y-3667600D01*
X73634000Y-4066000D01*
X74381412Y-4066001D01*
X74347161Y-3992550D01*
X74281682Y-3899036D01*
X74200964Y-3818318D01*
X74107450Y-3752839D01*
X74003992Y-3704596D01*
X73893721Y-3675049D01*
X73808574Y-3667600D01*
X73634000Y-3667600D01*
X73126001Y-3667600D01*
X72951426Y-3667600D01*
X72866279Y-3675049D01*
X72756008Y-3704596D01*
X72652550Y-3752839D01*
X72559036Y-3818318D01*
X72478318Y-3899036D01*
X72412839Y-3992550D01*
X72378589Y-4066000D01*
X70351412Y-4066000D01*
X70317161Y-3992550D01*
X70251682Y-3899036D01*
X70170964Y-3818318D01*
X70077450Y-3752839D01*
X69973992Y-3704596D01*
X69863721Y-3675049D01*
X69778574Y-3667600D01*
X69454000Y-3667600D01*
X68946001Y-3667600D01*
X68621426Y-3667600D01*
X68536279Y-3675049D01*
X68426008Y-3704596D01*
X68322550Y-3752839D01*
X68229036Y-3818318D01*
X68148318Y-3899036D01*
X68082839Y-3992550D01*
X68048589Y-4066000D01*
X24206096Y-4066000D01*
X24200368Y-4057492D01*
X24117942Y-3971087D01*
X24022137Y-3899806D01*
X23915694Y-3845687D01*
X23915690Y-3845685D01*
X23801646Y-3810274D01*
X23801645Y-3810274D01*
X23801642Y-3810273D01*
X23683267Y-3794584D01*
X23563934Y-3799064D01*
X23447069Y-3823585D01*
X23447067Y-3823586D01*
X23447066Y-3823586D01*
X23391532Y-3845517D01*
X23335996Y-3867449D01*
X23233910Y-3929398D01*
X23143718Y-4007662D01*
X23068003Y-4100002D01*
X23068002Y-4100004D01*
X23008928Y-4203783D01*
X22968183Y-4316032D01*
X22946934Y-4433541D01*
X22945788Y-4552950D01*
X22964777Y-4670845D01*
X23003359Y-4783856D01*
X23060430Y-4888749D01*
X23134359Y-4982528D01*
X23223032Y-5062509D01*
X23223034Y-5062510D01*
X23323913Y-5126407D01*
X23393393Y-5155400D01*
X23424214Y-5179177D01*
X23439016Y-5215179D01*
X23433834Y-5253759D01*
X23410057Y-5284580D01*
X23364434Y-5300000D01*
X200000Y-5300000D01*
X200000Y-3202900D01*
X15478762Y-3202900D01*
X15484834Y-3204658D01*
X15484836Y-3204658D01*
X15489911Y-3204218D01*
X15505140Y-3202900D01*
X15513425Y-3202900D01*
X15520626Y-3201559D01*
X15538623Y-3200000D01*
X15700000Y-3200000D01*
X15700000Y-2245512D01*
X26066985Y-2245512D01*
X26086550Y-2336002D01*
X26086860Y-2337437D01*
X26120391Y-2410673D01*
X26126009Y-2422943D01*
X26181247Y-2496247D01*
X26182609Y-2498054D01*
X26254013Y-2559255D01*
X26297366Y-2582500D01*
X26336896Y-2603696D01*
X26427389Y-2629303D01*
X26521269Y-2634880D01*
X26521271Y-2634880D01*
X26583194Y-2625072D01*
X26614157Y-2620168D01*
X26701719Y-2585853D01*
X26779870Y-2533536D01*
X26781026Y-2532331D01*
X26844962Y-2465659D01*
X26869672Y-2425177D01*
X26893962Y-2385384D01*
X26923451Y-2299741D01*
X26924580Y-2296463D01*
X26926368Y-2281010D01*
X26935389Y-2203040D01*
X26935389Y-2202925D01*
X26935401Y-2200002D01*
X26925243Y-2106505D01*
X26924327Y-2103783D01*
X26895246Y-2017371D01*
X26876308Y-1985853D01*
X26846810Y-1936758D01*
X26782192Y-1868427D01*
X26778119Y-1865659D01*
X26704408Y-1815565D01*
X26617088Y-1780639D01*
X26554037Y-1770201D01*
X26524306Y-1765279D01*
X26524305Y-1765279D01*
X26430388Y-1770201D01*
X26402286Y-1777941D01*
X26339719Y-1795174D01*
X26285247Y-1823894D01*
X26256527Y-1839037D01*
X26184696Y-1899740D01*
X26184694Y-1899742D01*
X26127576Y-1974448D01*
X26127574Y-1974451D01*
X26087829Y-2059686D01*
X26067313Y-2151466D01*
X26066985Y-2245512D01*
X15700000Y-2245512D01*
X15700000Y454488D01*
X18166985Y454488D01*
X18183445Y378359D01*
X18186860Y362563D01*
X18226008Y277058D01*
X18226009Y277057D01*
X18282607Y201948D01*
X18282609Y201946D01*
X18284285Y199722D01*
X18227574Y125549D01*
X18187829Y40314D01*
X18167313Y-51466D01*
X18166985Y-145512D01*
X18186017Y-233536D01*
X18186860Y-237437D01*
X18226008Y-322942D01*
X18233990Y-333534D01*
X18282607Y-398052D01*
X18282609Y-398054D01*
X18284285Y-400278D01*
X18227574Y-474451D01*
X18187829Y-559686D01*
X18167313Y-651466D01*
X18166985Y-745512D01*
X18186627Y-836358D01*
X18186860Y-837437D01*
X18225815Y-922519D01*
X18226009Y-922943D01*
X18282607Y-998052D01*
X18282609Y-998054D01*
X18354013Y-1059255D01*
X18434171Y-1102235D01*
X18436896Y-1103696D01*
X18517401Y-1126477D01*
X18517314Y-1151462D01*
X18517313Y-1151466D01*
X18516985Y-1245512D01*
X18536713Y-1336758D01*
X18536860Y-1337437D01*
X18573878Y-1418288D01*
X18576009Y-1422943D01*
X18632607Y-1498052D01*
X18632609Y-1498054D01*
X18704013Y-1559255D01*
X18753619Y-1585853D01*
X18786896Y-1603696D01*
X18877389Y-1629303D01*
X18971269Y-1634880D01*
X18971271Y-1634880D01*
X19033194Y-1625072D01*
X19064157Y-1620168D01*
X19151719Y-1585853D01*
X19229870Y-1533536D01*
X19294963Y-1465657D01*
X19294964Y-1465655D01*
X19330369Y-1428735D01*
X19382606Y-1498052D01*
X19454013Y-1559255D01*
X19503619Y-1585853D01*
X19536896Y-1603696D01*
X19627389Y-1629303D01*
X19721269Y-1634880D01*
X19721271Y-1634880D01*
X19783194Y-1625072D01*
X19814157Y-1620168D01*
X19901719Y-1585853D01*
X19979870Y-1533536D01*
X20044963Y-1465657D01*
X20044964Y-1465655D01*
X20080369Y-1428735D01*
X20132606Y-1498052D01*
X20204013Y-1559255D01*
X20253619Y-1585853D01*
X20286896Y-1603696D01*
X20377389Y-1629303D01*
X20471269Y-1634880D01*
X20471271Y-1634880D01*
X20533194Y-1625072D01*
X20564157Y-1620168D01*
X20651719Y-1585853D01*
X20729870Y-1533536D01*
X20741297Y-1521620D01*
X20794962Y-1465659D01*
X20814147Y-1434228D01*
X20843962Y-1385384D01*
X20872315Y-1303040D01*
X20874580Y-1296463D01*
X20876557Y-1279371D01*
X20885389Y-1203040D01*
X20885389Y-1202924D01*
X20885401Y-1199999D01*
X20878258Y-1134236D01*
X20914155Y-1120168D01*
X20914157Y-1120168D01*
X21001719Y-1085853D01*
X21079870Y-1033536D01*
X21092755Y-1020100D01*
X21144962Y-965659D01*
X21157411Y-945264D01*
X21193962Y-885384D01*
X21224580Y-796462D01*
X21235389Y-703040D01*
X21235390Y-702900D01*
X21235401Y-700002D01*
X21225243Y-606505D01*
X21213026Y-570202D01*
X21195246Y-517371D01*
X21146809Y-436758D01*
X21146807Y-436756D01*
X21124364Y-399404D01*
X21163749Y-334880D01*
X21193962Y-285384D01*
X21222090Y-203694D01*
X21224580Y-196463D01*
X21227440Y-171744D01*
X21235389Y-103040D01*
X21235392Y-102235D01*
X21235401Y-100002D01*
X21225243Y-6505D01*
X21224074Y-3030D01*
X21195246Y82629D01*
X21146809Y163242D01*
X21146807Y163244D01*
X21124364Y200596D01*
X21156078Y252553D01*
X21156079Y252555D01*
X22916120Y252555D01*
X22935544Y156227D01*
X22973940Y65771D01*
X23029740Y-15116D01*
X23029742Y-15118D01*
X23100663Y-83130D01*
X23287357Y-200697D01*
X23103346Y-314789D01*
X23031949Y-382306D01*
X22975584Y-462803D01*
X22943288Y-537437D01*
X22936559Y-552988D01*
X22916463Y-649178D01*
X22916120Y-747445D01*
X22935544Y-843773D01*
X22973940Y-934229D01*
X23029740Y-1015116D01*
X23029742Y-1015118D01*
X23100663Y-1083130D01*
X23183816Y-1135494D01*
X23183818Y-1135495D01*
X23275802Y-1170070D01*
X23324331Y-1177756D01*
X23372857Y-1185442D01*
X23372860Y-1185442D01*
X23471026Y-1180984D01*
X23471030Y-1180983D01*
X23471031Y-1180983D01*
X23616483Y-1144179D01*
X23616466Y-1149166D01*
X23616463Y-1149178D01*
X23616120Y-1247445D01*
X23635544Y-1343773D01*
X23673940Y-1434229D01*
X23729740Y-1515116D01*
X23729742Y-1515118D01*
X23800663Y-1583130D01*
X23873985Y-1629303D01*
X23883818Y-1635495D01*
X23975802Y-1670070D01*
X24024331Y-1677756D01*
X24072857Y-1685442D01*
X24072860Y-1685442D01*
X24171026Y-1680984D01*
X24171030Y-1680983D01*
X24171031Y-1680983D01*
X24266286Y-1656881D01*
X24271623Y-1654301D01*
X24354762Y-1614110D01*
X24432827Y-1554425D01*
X24440575Y-1545512D01*
X24497295Y-1480263D01*
X24545536Y-1394650D01*
X24575575Y-1301087D01*
X24586188Y-1203402D01*
X24586189Y-1203030D01*
X24586200Y-1200000D01*
X24576269Y-1102236D01*
X24574460Y-1096462D01*
X24546884Y-1008464D01*
X24499245Y-922521D01*
X24467414Y-885384D01*
X24435293Y-847908D01*
X24357647Y-787679D01*
X24316626Y-767494D01*
X24287338Y-741854D01*
X24274793Y-705005D01*
X24282354Y-666820D01*
X24317097Y-632318D01*
X24354762Y-614110D01*
X24432827Y-554425D01*
X24434079Y-552985D01*
X24497295Y-480263D01*
X24516876Y-445512D01*
X27466985Y-445512D01*
X27482522Y-517372D01*
X27486860Y-537437D01*
X27518482Y-606504D01*
X27526009Y-622943D01*
X27573105Y-685442D01*
X27582609Y-698054D01*
X27654013Y-759255D01*
X27703617Y-785852D01*
X27736896Y-803696D01*
X27827389Y-829303D01*
X27921269Y-834880D01*
X27921271Y-834880D01*
X27987709Y-824357D01*
X28014157Y-820168D01*
X28101719Y-785853D01*
X28101718Y-785853D01*
X28101722Y-785852D01*
X28179871Y-733536D01*
X28209250Y-702900D01*
X30607063Y-702900D01*
X31099827Y-1195665D01*
X31119991Y-1217593D01*
X31141354Y-1230838D01*
X31159227Y-1244405D01*
X31161368Y-1246030D01*
X31173786Y-1250947D01*
X31185140Y-1257986D01*
X31203609Y-1263351D01*
X31209274Y-1264997D01*
X31232638Y-1274248D01*
X31234199Y-1274412D01*
X31245919Y-1275645D01*
X31258746Y-1279371D01*
X31265951Y-1279900D01*
X31286415Y-1279900D01*
X31297643Y-1281080D01*
X31308869Y-1282260D01*
X31308870Y-1282260D01*
X31322823Y-1279900D01*
X33538543Y-1279900D01*
X33576143Y-1289975D01*
X33603668Y-1317500D01*
X33613743Y-1355100D01*
X33599840Y-1398663D01*
X33594140Y-1406683D01*
X33594139Y-1406684D01*
X33585940Y-1418221D01*
X32039691Y-2964472D01*
X31930386Y-2970201D01*
X31839719Y-2995174D01*
X31792983Y-3019816D01*
X31756527Y-3039037D01*
X31684778Y-3099671D01*
X31684694Y-3099742D01*
X31633507Y-3166691D01*
X31627574Y-3174451D01*
X31587829Y-3259686D01*
X31567313Y-3351466D01*
X31567013Y-3437434D01*
X31566985Y-3445512D01*
X31586860Y-3537437D01*
X31616062Y-3601218D01*
X31626009Y-3622943D01*
X31682607Y-3698052D01*
X31682609Y-3698054D01*
X31754013Y-3759255D01*
X31803619Y-3785853D01*
X31836896Y-3803696D01*
X31927389Y-3829303D01*
X32021269Y-3834880D01*
X32021271Y-3834880D01*
X32083194Y-3825072D01*
X32114157Y-3820168D01*
X32201719Y-3785853D01*
X32279870Y-3733536D01*
X32280240Y-3733150D01*
X32344962Y-3665659D01*
X32364571Y-3633534D01*
X32393962Y-3585384D01*
X32424580Y-3496462D01*
X32435389Y-3403040D01*
X32435389Y-3402925D01*
X32435401Y-3400002D01*
X32431526Y-3364311D01*
X32809735Y-2986102D01*
X43766985Y-2986102D01*
X43786087Y-3074451D01*
X43786860Y-3078027D01*
X43823913Y-3158955D01*
X43826009Y-3163533D01*
X43861043Y-3210025D01*
X43882609Y-3238644D01*
X43954013Y-3299845D01*
X43991325Y-3319851D01*
X44036896Y-3344286D01*
X44127389Y-3369893D01*
X44221269Y-3375470D01*
X44221271Y-3375470D01*
X44291705Y-3364314D01*
X44314157Y-3360758D01*
X44401719Y-3326443D01*
X44479870Y-3274126D01*
X44483142Y-3270714D01*
X44544962Y-3206249D01*
X44578637Y-3151080D01*
X44606826Y-3124236D01*
X44644661Y-3115082D01*
X44682004Y-3126073D01*
X44711198Y-3158955D01*
X44722651Y-3183969D01*
X44730717Y-3201586D01*
X44787315Y-3276695D01*
X44787317Y-3276697D01*
X44858721Y-3337898D01*
X44917011Y-3369152D01*
X44941604Y-3382339D01*
X45032097Y-3407946D01*
X45125977Y-3413523D01*
X45125979Y-3413523D01*
X45211345Y-3400002D01*
X45218865Y-3398811D01*
X45279326Y-3375117D01*
X45306430Y-3364495D01*
X45425447Y-3284820D01*
X45431582Y-3313195D01*
X45431582Y-3313196D01*
X45451456Y-3405118D01*
X45451457Y-3405120D01*
X45488206Y-3485384D01*
X45490606Y-3490627D01*
X45547146Y-3565659D01*
X45547206Y-3565738D01*
X45618610Y-3626939D01*
X45668216Y-3653537D01*
X45701493Y-3671380D01*
X45791986Y-3696987D01*
X45885866Y-3702564D01*
X45885868Y-3702564D01*
X45947791Y-3692756D01*
X45978754Y-3687852D01*
X46066316Y-3653537D01*
X46144467Y-3601220D01*
X46178495Y-3565736D01*
X46209559Y-3533343D01*
X46232071Y-3496462D01*
X46258559Y-3453068D01*
X46287199Y-3369892D01*
X46289177Y-3364147D01*
X46291332Y-3345512D01*
X46454572Y-3345512D01*
X46471773Y-3425068D01*
X46474447Y-3437437D01*
X46499862Y-3492947D01*
X46513596Y-3522943D01*
X46567360Y-3594291D01*
X46570196Y-3598054D01*
X46641600Y-3659255D01*
X46683597Y-3681773D01*
X46724483Y-3703696D01*
X46814976Y-3729303D01*
X46908856Y-3734880D01*
X46908858Y-3734880D01*
X46970781Y-3725072D01*
X47001744Y-3720168D01*
X47089306Y-3685853D01*
X47167457Y-3633536D01*
X47201485Y-3598052D01*
X47232549Y-3565659D01*
X47244998Y-3545264D01*
X47281549Y-3485384D01*
X47304324Y-3419239D01*
X47312167Y-3396463D01*
X47315865Y-3364496D01*
X47322976Y-3303040D01*
X47322976Y-3302925D01*
X47322988Y-3300002D01*
X47314068Y-3217900D01*
X47312830Y-3206504D01*
X47282833Y-3117371D01*
X47259191Y-3078024D01*
X47234397Y-3036758D01*
X47169779Y-2968427D01*
X47169778Y-2968426D01*
X47091995Y-2915565D01*
X47004675Y-2880639D01*
X46941624Y-2870201D01*
X46911893Y-2865279D01*
X46911892Y-2865279D01*
X46817975Y-2870201D01*
X46791436Y-2877511D01*
X46727306Y-2895174D01*
X46672834Y-2923894D01*
X46644114Y-2939037D01*
X46577686Y-2995174D01*
X46572281Y-2999742D01*
X46516733Y-3072395D01*
X46515161Y-3074451D01*
X46475416Y-3159686D01*
X46454900Y-3251466D01*
X46454572Y-3345512D01*
X46291332Y-3345512D01*
X46293539Y-3326443D01*
X46299986Y-3270724D01*
X46299986Y-3270609D01*
X46299998Y-3267686D01*
X46290596Y-3181147D01*
X46289840Y-3174188D01*
X46259843Y-3085055D01*
X46232840Y-3040114D01*
X46211407Y-3004442D01*
X46146789Y-2936111D01*
X46146788Y-2936110D01*
X46069005Y-2883249D01*
X45981685Y-2848323D01*
X45918634Y-2837885D01*
X45888903Y-2832963D01*
X45888902Y-2832963D01*
X45794985Y-2837885D01*
X45767371Y-2845491D01*
X45704316Y-2862858D01*
X45549858Y-2944296D01*
X45528434Y-2880639D01*
X45499954Y-2796014D01*
X45478126Y-2759686D01*
X45451518Y-2715401D01*
X45386900Y-2647070D01*
X45379737Y-2642202D01*
X45309116Y-2594208D01*
X45221796Y-2559282D01*
X45200757Y-2555799D01*
X45156252Y-2548431D01*
X45120802Y-2532351D01*
X45098142Y-2500700D01*
X45094344Y-2461959D01*
X45115360Y-2421067D01*
X45561979Y-1974448D01*
X46156528Y-1379900D01*
X51454488Y-1379900D01*
X51492088Y-1389975D01*
X51519613Y-1417500D01*
X51529688Y-1455100D01*
X51519613Y-1492700D01*
X51489561Y-1521620D01*
X51456527Y-1539037D01*
X51384696Y-1599740D01*
X51384694Y-1599742D01*
X51327575Y-1674448D01*
X51254664Y-1830808D01*
X51182335Y-1781653D01*
X51182334Y-1781652D01*
X51104551Y-1728791D01*
X51017231Y-1693865D01*
X50939417Y-1680983D01*
X50924449Y-1678505D01*
X50924448Y-1678505D01*
X50830531Y-1683427D01*
X50802429Y-1691167D01*
X50739862Y-1708400D01*
X50689640Y-1734880D01*
X50656670Y-1752263D01*
X50597232Y-1802493D01*
X50584837Y-1812968D01*
X50527719Y-1887674D01*
X50527717Y-1887677D01*
X50487972Y-1972912D01*
X50467456Y-2064692D01*
X50467128Y-2158738D01*
X50480324Y-2219770D01*
X50487003Y-2250663D01*
X50526151Y-2336167D01*
X50526152Y-2336169D01*
X50582750Y-2411278D01*
X50582752Y-2411280D01*
X50654156Y-2472481D01*
X50703762Y-2499079D01*
X50737039Y-2516922D01*
X50827532Y-2542529D01*
X50921412Y-2548106D01*
X50921414Y-2548106D01*
X50949986Y-2543580D01*
X50966410Y-2540979D01*
X51005122Y-2545048D01*
X51036614Y-2567928D01*
X51052447Y-2603489D01*
X51048378Y-2642202D01*
X51037913Y-2660927D01*
X51027575Y-2674448D01*
X51015219Y-2700946D01*
X50987829Y-2759686D01*
X50967313Y-2851466D01*
X50966985Y-2945512D01*
X50986777Y-3037052D01*
X50986860Y-3037437D01*
X51070492Y-3220100D01*
X49961634Y-3220100D01*
X49924034Y-3210025D01*
X49896509Y-3182500D01*
X49886434Y-3144900D01*
X49893462Y-3119898D01*
X49891302Y-3119154D01*
X49894153Y-3110876D01*
X49919572Y-3037052D01*
X49924580Y-3022509D01*
X49927742Y-2995175D01*
X49935389Y-2929086D01*
X49935389Y-2928971D01*
X49935401Y-2926048D01*
X49926035Y-2839837D01*
X49925243Y-2832550D01*
X49895246Y-2743417D01*
X49869727Y-2700946D01*
X49846810Y-2662804D01*
X49782192Y-2594473D01*
X49782191Y-2594472D01*
X49704408Y-2541611D01*
X49617088Y-2506685D01*
X49550521Y-2495665D01*
X49524306Y-2491325D01*
X49524305Y-2491325D01*
X49430388Y-2496247D01*
X49411898Y-2501340D01*
X49339719Y-2521220D01*
X49294527Y-2545048D01*
X49256527Y-2565083D01*
X49191344Y-2620168D01*
X49184694Y-2625788D01*
X49140297Y-2683856D01*
X49127574Y-2700497D01*
X49087829Y-2785732D01*
X49067313Y-2877512D01*
X49066996Y-2968426D01*
X49066973Y-2975120D01*
X49056767Y-3012685D01*
X49029146Y-3040114D01*
X48991511Y-3050058D01*
X48953946Y-3039852D01*
X48937135Y-3026527D01*
X48882192Y-2968427D01*
X48882191Y-2968426D01*
X48804408Y-2915565D01*
X48717088Y-2880639D01*
X48654037Y-2870201D01*
X48624306Y-2865279D01*
X48624305Y-2865279D01*
X48530388Y-2870201D01*
X48503849Y-2877511D01*
X48439719Y-2895174D01*
X48385247Y-2923894D01*
X48356527Y-2939037D01*
X48290099Y-2995174D01*
X48284694Y-2999742D01*
X48229146Y-3072395D01*
X48227574Y-3074451D01*
X48187829Y-3159686D01*
X48167313Y-3251466D01*
X48166985Y-3345512D01*
X48184186Y-3425068D01*
X48186860Y-3437437D01*
X48212275Y-3492947D01*
X48226009Y-3522943D01*
X48279773Y-3594291D01*
X48282609Y-3598054D01*
X48354013Y-3659255D01*
X48396010Y-3681773D01*
X48436896Y-3703696D01*
X48527389Y-3729303D01*
X48621269Y-3734880D01*
X48648837Y-3736518D01*
X48661369Y-3746030D01*
X48661375Y-3746033D01*
X48673788Y-3750948D01*
X48685139Y-3757986D01*
X48709281Y-3765001D01*
X48723576Y-3770660D01*
X48732638Y-3774248D01*
X48734407Y-3774434D01*
X48745921Y-3775645D01*
X48758746Y-3779371D01*
X48765951Y-3779900D01*
X48786415Y-3779900D01*
X48797643Y-3781080D01*
X48808869Y-3782260D01*
X48808870Y-3782260D01*
X48822823Y-3779900D01*
X63406236Y-3779900D01*
X63435986Y-3781147D01*
X63435988Y-3781147D01*
X63460459Y-3775407D01*
X63468921Y-3774248D01*
X63485354Y-3771997D01*
X63497616Y-3766691D01*
X63510614Y-3763642D01*
X63532631Y-3751539D01*
X63555702Y-3741555D01*
X63555704Y-3741554D01*
X63566081Y-3733152D01*
X63577783Y-3726717D01*
X63577785Y-3726716D01*
X63583253Y-3721995D01*
X63583258Y-3721991D01*
X63590483Y-3714765D01*
X63597713Y-3707535D01*
X63615272Y-3693316D01*
X63623475Y-3681773D01*
X63714340Y-3590909D01*
X63771269Y-3594291D01*
X63771271Y-3594291D01*
X63833194Y-3584483D01*
X63864157Y-3579579D01*
X63951719Y-3545264D01*
X64029870Y-3492947D01*
X64037123Y-3485384D01*
X64094962Y-3425070D01*
X64107139Y-3405120D01*
X64143962Y-3344795D01*
X64167410Y-3276697D01*
X64174580Y-3255874D01*
X64178719Y-3220100D01*
X64185389Y-3162451D01*
X64185389Y-3162336D01*
X64185401Y-3159413D01*
X64176558Y-3078024D01*
X64175243Y-3065915D01*
X64145246Y-2976782D01*
X64145244Y-2976778D01*
X64112640Y-2879901D01*
X65596824Y-2879901D01*
X65626574Y-2881148D01*
X65626576Y-2881148D01*
X65651047Y-2875408D01*
X65675942Y-2871998D01*
X65688204Y-2866692D01*
X65701202Y-2863643D01*
X65702630Y-2862858D01*
X65723219Y-2851540D01*
X65746290Y-2841556D01*
X65746292Y-2841555D01*
X65756669Y-2833153D01*
X65768371Y-2826718D01*
X65768373Y-2826717D01*
X65773841Y-2821996D01*
X65773846Y-2821992D01*
X65781072Y-2814765D01*
X65788301Y-2807536D01*
X65805860Y-2793317D01*
X65814064Y-2781773D01*
X66752166Y-1843672D01*
X66785875Y-1824209D01*
X66824765Y-1824209D01*
X66822691Y-1819948D01*
X66825440Y-1781119D01*
X66843348Y-1752490D01*
X67015938Y-1579900D01*
X67165754Y-1579900D01*
X67203354Y-1589975D01*
X67230879Y-1617500D01*
X67240954Y-1655100D01*
X67230879Y-1692700D01*
X67193376Y-1725043D01*
X67141110Y-1745684D01*
X67085996Y-1767449D01*
X66983910Y-1829398D01*
X66945808Y-1862461D01*
X66910806Y-1879495D01*
X66877848Y-1877162D01*
X66877976Y-1877384D01*
X66877976Y-1916310D01*
X66863489Y-1944528D01*
X66818003Y-2000002D01*
X66815900Y-2003696D01*
X66758928Y-2103783D01*
X66718183Y-2216032D01*
X66696934Y-2333541D01*
X66695896Y-2441722D01*
X66695788Y-2452953D01*
X66710598Y-2544900D01*
X66714777Y-2570845D01*
X66753359Y-2683856D01*
X66810430Y-2788749D01*
X66884359Y-2882528D01*
X66973032Y-2962509D01*
X67009887Y-2985853D01*
X67070358Y-3024155D01*
X67073913Y-3026407D01*
X67129016Y-3049401D01*
X67184120Y-3072395D01*
X67300494Y-3099155D01*
X67419717Y-3105925D01*
X67419718Y-3105925D01*
X67460273Y-3101340D01*
X67538379Y-3092510D01*
X67653080Y-3059295D01*
X67760542Y-3007230D01*
X67764444Y-3004442D01*
X67857702Y-2937798D01*
X67857706Y-2937795D01*
X67858662Y-2936830D01*
X69222390Y-2936830D01*
X69224141Y-2945512D01*
X69241561Y-3031909D01*
X69253186Y-3059295D01*
X69279460Y-3121194D01*
X69334538Y-3201033D01*
X69404544Y-3268166D01*
X69486620Y-3319852D01*
X69577412Y-3353979D01*
X69634891Y-3363083D01*
X69673209Y-3369152D01*
X69673211Y-3369152D01*
X69770105Y-3364752D01*
X69864135Y-3340958D01*
X69870467Y-3337897D01*
X69951457Y-3298747D01*
X69980297Y-3276697D01*
X70028514Y-3239832D01*
X70029549Y-3238642D01*
X70092148Y-3166630D01*
X70120633Y-3116077D01*
X70139762Y-3082128D01*
X70139877Y-3081772D01*
X70169413Y-2989777D01*
X70170536Y-2979441D01*
X70179888Y-2893350D01*
X70179893Y-2892055D01*
X70179901Y-2890003D01*
X70170098Y-2793502D01*
X70141093Y-2700946D01*
X70094071Y-2616117D01*
X70094070Y-2616115D01*
X70030948Y-2542470D01*
X69954308Y-2483022D01*
X69867280Y-2440198D01*
X69773418Y-2415749D01*
X69676557Y-2410673D01*
X69676554Y-2410673D01*
X69580659Y-2425176D01*
X69580658Y-2425176D01*
X69580654Y-2425177D01*
X69505170Y-2452950D01*
X69489621Y-2458671D01*
X69407191Y-2509779D01*
X69336718Y-2576422D01*
X69281084Y-2655876D01*
X69242564Y-2744891D01*
X69222729Y-2839836D01*
X69222729Y-2839837D01*
X69222390Y-2936830D01*
X67858662Y-2936830D01*
X67941768Y-2852998D01*
X67978753Y-2800276D01*
X68010351Y-2755233D01*
X68015950Y-2743416D01*
X68061478Y-2647316D01*
X68066524Y-2629303D01*
X68093691Y-2532329D01*
X68105092Y-2422941D01*
X68106070Y-2413560D01*
X68106200Y-2399998D01*
X68104032Y-2374452D01*
X68096104Y-2281013D01*
X68066104Y-2165428D01*
X68017058Y-2056550D01*
X67950368Y-1957492D01*
X67867942Y-1871087D01*
X67864365Y-1868426D01*
X67772137Y-1799806D01*
X67665689Y-1745684D01*
X67605248Y-1726917D01*
X67572327Y-1706146D01*
X67554202Y-1671696D01*
X67555731Y-1632800D01*
X67576502Y-1599879D01*
X67627548Y-1579900D01*
X69361430Y-1579900D01*
X69382605Y-1598050D01*
X69382607Y-1598052D01*
X69424005Y-1633534D01*
X69454015Y-1659256D01*
X69502853Y-1685442D01*
X69536896Y-1703696D01*
X69627389Y-1729303D01*
X69721269Y-1734880D01*
X69721271Y-1734880D01*
X69783371Y-1725044D01*
X69814157Y-1720168D01*
X69901719Y-1685853D01*
X69979870Y-1633536D01*
X69983930Y-1629302D01*
X70044962Y-1565659D01*
X70075813Y-1515116D01*
X70093962Y-1485384D01*
X70120003Y-1409755D01*
X70124580Y-1396463D01*
X70126715Y-1378005D01*
X70135389Y-1303040D01*
X70135389Y-1302925D01*
X70135401Y-1300002D01*
X70125243Y-1206505D01*
X70123054Y-1200000D01*
X70095246Y-1117371D01*
X70074672Y-1083130D01*
X70046810Y-1036758D01*
X69982192Y-968427D01*
X69978119Y-965659D01*
X69904408Y-915565D01*
X69817088Y-880639D01*
X69754037Y-870201D01*
X69724306Y-865279D01*
X69724305Y-865279D01*
X69630388Y-870201D01*
X69602286Y-877941D01*
X69539719Y-895174D01*
X69456525Y-939038D01*
X69360602Y-1020100D01*
X66907286Y-1020100D01*
X66869686Y-1010025D01*
X66842161Y-982500D01*
X66832086Y-944900D01*
X66842161Y-907300D01*
X66854112Y-891726D01*
X68284815Y538977D01*
X69165939Y1420100D01*
X69361430Y1420100D01*
X69382605Y1401950D01*
X69382607Y1401948D01*
X69424005Y1366466D01*
X69454015Y1340744D01*
X69503619Y1314147D01*
X69536896Y1296304D01*
X69627389Y1270697D01*
X69721269Y1265120D01*
X69721271Y1265120D01*
X69783194Y1274928D01*
X69814157Y1279832D01*
X69901719Y1314147D01*
X69979870Y1366464D01*
X69979872Y1366466D01*
X70044962Y1434341D01*
X70053825Y1448860D01*
X70093962Y1514616D01*
X70124580Y1603538D01*
X70135389Y1696960D01*
X70135389Y1697075D01*
X70135401Y1699998D01*
X70125243Y1793495D01*
X70123221Y1799503D01*
X70095246Y1882629D01*
X70074310Y1917472D01*
X70046810Y1963242D01*
X69982192Y2031573D01*
X69982191Y2031574D01*
X69904408Y2084435D01*
X69817088Y2119361D01*
X69743309Y2131575D01*
X69724306Y2134721D01*
X69724305Y2134721D01*
X69630388Y2129799D01*
X69602286Y2122059D01*
X69539719Y2104826D01*
X69456525Y2060962D01*
X69360602Y1979900D01*
X69053175Y1979900D01*
X69023424Y1981147D01*
X68998957Y1975408D01*
X68974057Y1971997D01*
X68961796Y1966691D01*
X68952778Y1964576D01*
X68948795Y1963642D01*
X68926774Y1951537D01*
X68903709Y1941555D01*
X68893331Y1933151D01*
X68881623Y1926715D01*
X68876153Y1921992D01*
X68871634Y1917472D01*
X68861693Y1907531D01*
X68844139Y1893316D01*
X68835938Y1881776D01*
X65334063Y-1620100D01*
X62631056Y-1620100D01*
X62582193Y-1568426D01*
X62504408Y-1515565D01*
X62503285Y-1515116D01*
X62417088Y-1480639D01*
X62354037Y-1470201D01*
X62324306Y-1465279D01*
X62324305Y-1465279D01*
X62230388Y-1470201D01*
X62202286Y-1477941D01*
X62139719Y-1495174D01*
X62089561Y-1521620D01*
X62056527Y-1539037D01*
X61984696Y-1599740D01*
X61984694Y-1599742D01*
X61929680Y-1671696D01*
X61927574Y-1674451D01*
X61890942Y-1753010D01*
X61887829Y-1759686D01*
X61867313Y-1851465D01*
X61867013Y-1937148D01*
X61784063Y-2020100D01*
X59446002Y-2020100D01*
X59408402Y-2010025D01*
X59380877Y-1982500D01*
X59370802Y-1944900D01*
X59380877Y-1907300D01*
X59397013Y-1887846D01*
X59397214Y-1887674D01*
X59400194Y-1885115D01*
X59465798Y-1802493D01*
X59514594Y-1708955D01*
X59537149Y-1633536D01*
X59544822Y-1607880D01*
X59555392Y-1502908D01*
X59555400Y-1499997D01*
X59545381Y-1394978D01*
X59524731Y-1324591D01*
X59515681Y-1293742D01*
X59491838Y-1247448D01*
X59467376Y-1199952D01*
X59402204Y-1116983D01*
X59322522Y-1047840D01*
X59303366Y-1036758D01*
X59231202Y-995010D01*
X59131540Y-960402D01*
X59027131Y-945263D01*
X58930671Y-949728D01*
X58921741Y-950141D01*
X58879166Y-960402D01*
X58819179Y-974859D01*
X58819177Y-974860D01*
X58723141Y-1018524D01*
X58665722Y-1059255D01*
X58637090Y-1079565D01*
X58564135Y-1155775D01*
X58506907Y-1244405D01*
X58491651Y-1282260D01*
X58467472Y-1342257D01*
X58447251Y-1445801D01*
X58446975Y-1551306D01*
X58456922Y-1603696D01*
X58466653Y-1654952D01*
X58483130Y-1696462D01*
X58505576Y-1753011D01*
X58562340Y-1841940D01*
X58610884Y-1893184D01*
X58629429Y-1927409D01*
X58628376Y-1966321D01*
X58608007Y-1999493D01*
X58556291Y-2020100D01*
X52748696Y-2020100D01*
X52711096Y-2010025D01*
X52683571Y-1982500D01*
X52673496Y-1944900D01*
X52683571Y-1907300D01*
X52706862Y-1882410D01*
X52779870Y-1833536D01*
X52788814Y-1824209D01*
X52844962Y-1765659D01*
X52863749Y-1734880D01*
X52893962Y-1685384D01*
X52922315Y-1603040D01*
X52924580Y-1596463D01*
X52926122Y-1583131D01*
X52935389Y-1503040D01*
X52935389Y-1502908D01*
X52935401Y-1500002D01*
X52925596Y-1409755D01*
X52925243Y-1406504D01*
X52895246Y-1317371D01*
X52872731Y-1279900D01*
X52846810Y-1236758D01*
X52782192Y-1168427D01*
X52782191Y-1168426D01*
X52704408Y-1115565D01*
X52617088Y-1080639D01*
X52605548Y-1078729D01*
X52524306Y-1065278D01*
X52464262Y-1068425D01*
X52300183Y-904346D01*
X52280009Y-882407D01*
X52272916Y-878009D01*
X52258638Y-869156D01*
X52255602Y-866851D01*
X52238631Y-853970D01*
X52238632Y-853970D01*
X52238630Y-853969D01*
X52226212Y-849052D01*
X52214864Y-842016D01*
X52214863Y-842016D01*
X52214862Y-842015D01*
X52190722Y-835002D01*
X52167361Y-825752D01*
X52167360Y-825752D01*
X52167358Y-825751D01*
X52154085Y-824357D01*
X52147669Y-822493D01*
X52141254Y-820629D01*
X52137652Y-820365D01*
X52134050Y-820100D01*
X52113584Y-820100D01*
X52091131Y-817740D01*
X52091130Y-817740D01*
X52077177Y-820100D01*
X46043750Y-820100D01*
X46023925Y-819269D01*
X46014014Y-818854D01*
X46014013Y-818854D01*
X45989552Y-824591D01*
X45964647Y-828003D01*
X45952386Y-833309D01*
X45939386Y-836358D01*
X45917369Y-848462D01*
X45894299Y-858445D01*
X45883918Y-866851D01*
X45872215Y-873285D01*
X45866741Y-878009D01*
X45864112Y-880639D01*
X45852278Y-892473D01*
X45834729Y-906684D01*
X45826530Y-918221D01*
X44239691Y-2505062D01*
X44130386Y-2510791D01*
X44039719Y-2535764D01*
X43995168Y-2559254D01*
X43956527Y-2579627D01*
X43884696Y-2640330D01*
X43884694Y-2640332D01*
X43838350Y-2700947D01*
X43827574Y-2715041D01*
X43787829Y-2800276D01*
X43767313Y-2892056D01*
X43766985Y-2986102D01*
X32809735Y-2986102D01*
X33915938Y-1879900D01*
X36661430Y-1879900D01*
X36682605Y-1898050D01*
X36682607Y-1898052D01*
X36724005Y-1933534D01*
X36754015Y-1959256D01*
X36797366Y-1982500D01*
X36836896Y-2003696D01*
X36927389Y-2029303D01*
X37021269Y-2034880D01*
X37021271Y-2034880D01*
X37083194Y-2025072D01*
X37114157Y-2020168D01*
X37201719Y-1985853D01*
X37279870Y-1933536D01*
X37285746Y-1927409D01*
X37344962Y-1865659D01*
X37366235Y-1830808D01*
X37393962Y-1785384D01*
X37420278Y-1708956D01*
X37424580Y-1696463D01*
X37427445Y-1671696D01*
X37435389Y-1603040D01*
X37435389Y-1602925D01*
X37435401Y-1600002D01*
X37425243Y-1506505D01*
X37424074Y-1503030D01*
X37395246Y-1417371D01*
X37381100Y-1393828D01*
X37370371Y-1356412D01*
X37379789Y-1318642D01*
X37406829Y-1290641D01*
X37445560Y-1279900D01*
X38461430Y-1279900D01*
X38482605Y-1298050D01*
X38482607Y-1298052D01*
X38524005Y-1333534D01*
X38554015Y-1359256D01*
X38603619Y-1385853D01*
X38636896Y-1403696D01*
X38727389Y-1429303D01*
X38821269Y-1434880D01*
X38821271Y-1434880D01*
X38896649Y-1422941D01*
X38914157Y-1420168D01*
X39001719Y-1385853D01*
X39079870Y-1333536D01*
X39092755Y-1320100D01*
X39144962Y-1265659D01*
X39166215Y-1230841D01*
X39193962Y-1185384D01*
X39218002Y-1115565D01*
X39224580Y-1096463D01*
X39226122Y-1083131D01*
X39235389Y-1003040D01*
X39235389Y-1002925D01*
X39235401Y-1000002D01*
X39225329Y-907300D01*
X39225243Y-906504D01*
X39195246Y-817371D01*
X39176308Y-785852D01*
X39146810Y-736758D01*
X39082192Y-668427D01*
X39082191Y-668426D01*
X39004408Y-615565D01*
X38917088Y-580639D01*
X38854037Y-570201D01*
X38824306Y-565279D01*
X38824305Y-565279D01*
X38730388Y-570201D01*
X38702286Y-577941D01*
X38639719Y-595174D01*
X38556525Y-639038D01*
X38460602Y-720100D01*
X31415939Y-720100D01*
X30979579Y-283741D01*
X30978294Y-280639D01*
X30964486Y-247303D01*
X30964484Y-247300D01*
X30915950Y-184050D01*
X30852700Y-135516D01*
X30779043Y-105006D01*
X30718990Y-97100D01*
X28209307Y-97100D01*
X28182191Y-68426D01*
X28104408Y-15565D01*
X28017088Y19361D01*
X27954037Y29799D01*
X27924306Y34721D01*
X27924305Y34721D01*
X27830388Y29799D01*
X27802286Y22059D01*
X27739719Y4826D01*
X27687056Y-22941D01*
X27656527Y-39037D01*
X27586691Y-98054D01*
X27584694Y-99742D01*
X27528239Y-173581D01*
X27527574Y-174451D01*
X27487829Y-259686D01*
X27467313Y-351466D01*
X27466985Y-445512D01*
X24516876Y-445512D01*
X24545536Y-394650D01*
X24575575Y-301087D01*
X24586188Y-203402D01*
X24586191Y-202491D01*
X24586200Y-200000D01*
X24576717Y-106642D01*
X24576269Y-102235D01*
X24546884Y-8464D01*
X24499245Y77479D01*
X24458043Y125549D01*
X24435293Y152092D01*
X24357647Y212321D01*
X24316626Y232506D01*
X24287338Y258146D01*
X24274793Y294995D01*
X24282354Y333180D01*
X24317097Y367682D01*
X24354762Y385890D01*
X24432827Y445575D01*
X24440575Y454488D01*
X24497295Y519737D01*
X24545536Y605350D01*
X24553738Y630899D01*
X38566985Y630899D01*
X38586860Y538974D01*
X38590248Y531574D01*
X38626009Y453468D01*
X38682607Y378359D01*
X38682609Y378357D01*
X38754011Y317157D01*
X38856926Y261975D01*
X38793312Y125549D01*
X38787829Y113790D01*
X38767313Y22010D01*
X38766985Y-72036D01*
X38786564Y-162590D01*
X38786860Y-163961D01*
X38818714Y-233534D01*
X38826009Y-249467D01*
X38882607Y-324576D01*
X38882609Y-324578D01*
X38954013Y-385779D01*
X38992084Y-406192D01*
X39036896Y-430220D01*
X39127389Y-455827D01*
X39221269Y-461404D01*
X39221271Y-461404D01*
X39296794Y-449442D01*
X39314157Y-446692D01*
X39401719Y-412377D01*
X39479870Y-360060D01*
X39504017Y-334880D01*
X39544962Y-292183D01*
X39561384Y-265279D01*
X39593962Y-211908D01*
X39620373Y-135204D01*
X39624580Y-122987D01*
X39627269Y-99742D01*
X39635389Y-29564D01*
X39635389Y-29449D01*
X39635401Y-26526D01*
X39625243Y66971D01*
X39619974Y82628D01*
X39595246Y156105D01*
X39570692Y196970D01*
X39546810Y236718D01*
X39482194Y305048D01*
X39339595Y401958D01*
X39393961Y491024D01*
X39424580Y579948D01*
X39429140Y619361D01*
X39435389Y673371D01*
X39435389Y673486D01*
X39435401Y676409D01*
X39425243Y769906D01*
X39424900Y770926D01*
X39395246Y859040D01*
X39372938Y896167D01*
X39346810Y939653D01*
X39282192Y1007984D01*
X39282191Y1007985D01*
X39204408Y1060846D01*
X39117088Y1095772D01*
X39054037Y1106210D01*
X39024306Y1111132D01*
X39024305Y1111132D01*
X38930388Y1106210D01*
X38902286Y1098470D01*
X38839719Y1081237D01*
X38788004Y1053970D01*
X38756527Y1037374D01*
X38684696Y976671D01*
X38684694Y976669D01*
X38627576Y901963D01*
X38627574Y901960D01*
X38587829Y816725D01*
X38567313Y724945D01*
X38567068Y654737D01*
X38566985Y630899D01*
X24553738Y630899D01*
X24575575Y698913D01*
X24586188Y796598D01*
X24586188Y796691D01*
X24586200Y800000D01*
X24576269Y897764D01*
X24574953Y901963D01*
X24546884Y991536D01*
X24499245Y1077479D01*
X24470400Y1111132D01*
X24435293Y1152092D01*
X24357647Y1212321D01*
X24269476Y1255707D01*
X24174382Y1280477D01*
X24076249Y1285620D01*
X24076247Y1285620D01*
X23979089Y1270926D01*
X23956359Y1262563D01*
X23886864Y1236994D01*
X23803347Y1185211D01*
X23803346Y1185210D01*
X23731949Y1117694D01*
X23675584Y1037197D01*
X23636560Y947015D01*
X23636559Y947012D01*
X23616489Y850946D01*
X23616463Y850821D01*
X23616086Y743565D01*
X23569479Y755705D01*
X23569476Y755707D01*
X23474382Y780477D01*
X23376249Y785620D01*
X23376247Y785620D01*
X23279089Y770926D01*
X23276317Y769906D01*
X23186864Y736994D01*
X23103347Y685211D01*
X23103346Y685210D01*
X23031949Y617694D01*
X22975584Y537197D01*
X22936560Y447015D01*
X22936559Y447012D01*
X22916463Y350822D01*
X22916120Y252555D01*
X21156079Y252555D01*
X21193962Y314616D01*
X21219831Y389746D01*
X21224580Y403537D01*
X21229287Y444224D01*
X21235389Y496960D01*
X21235389Y497075D01*
X21235401Y499998D01*
X21225243Y593495D01*
X21221375Y604989D01*
X21195246Y682629D01*
X21169820Y724945D01*
X21146810Y763242D01*
X21082192Y831573D01*
X21079876Y833147D01*
X21004408Y884435D01*
X20917088Y919361D01*
X20854037Y929799D01*
X20824306Y934721D01*
X20824305Y934721D01*
X20730388Y929799D01*
X20702286Y922059D01*
X20639719Y904826D01*
X20592444Y879900D01*
X20556527Y860963D01*
X20493300Y807531D01*
X20484694Y800258D01*
X20431416Y730574D01*
X20427574Y725549D01*
X20387829Y640314D01*
X20367313Y548534D01*
X20366985Y454488D01*
X20383445Y378359D01*
X20386860Y362563D01*
X20426008Y277058D01*
X20426009Y277057D01*
X20482607Y201948D01*
X20482609Y201946D01*
X20484285Y199722D01*
X20427574Y125549D01*
X20387829Y40314D01*
X20367313Y-51466D01*
X20367027Y-133534D01*
X20366985Y-145514D01*
X20383268Y-220825D01*
X20381366Y-259705D01*
X20360279Y-292425D01*
X20325657Y-310218D01*
X20281839Y-306538D01*
X20253430Y-295175D01*
X20217088Y-280639D01*
X20154037Y-270201D01*
X20124306Y-265279D01*
X20124305Y-265279D01*
X20030388Y-270201D01*
X20002286Y-277941D01*
X19939719Y-295174D01*
X19895424Y-318529D01*
X19856527Y-339037D01*
X19801129Y-385853D01*
X19784696Y-399740D01*
X19707403Y-500833D01*
X19582192Y-368427D01*
X19582191Y-368426D01*
X19504408Y-315565D01*
X19417088Y-280639D01*
X19354037Y-270201D01*
X19324306Y-265279D01*
X19324305Y-265279D01*
X19230388Y-270201D01*
X19185054Y-282688D01*
X19139721Y-295174D01*
X19125524Y-302659D01*
X19087565Y-311283D01*
X19050380Y-299772D01*
X19023931Y-271210D01*
X19015307Y-233251D01*
X19019349Y-211656D01*
X19024580Y-196465D01*
X19027440Y-171744D01*
X19035389Y-103040D01*
X19035392Y-102235D01*
X19035401Y-100002D01*
X19025243Y-6505D01*
X19024074Y-3030D01*
X18995246Y82629D01*
X18946809Y163242D01*
X18946807Y163244D01*
X18924364Y200596D01*
X18956078Y252553D01*
X18993962Y314616D01*
X19019831Y389746D01*
X19024580Y403537D01*
X19029287Y444224D01*
X19035389Y496960D01*
X19035389Y497075D01*
X19035401Y499998D01*
X19025243Y593495D01*
X19021375Y604989D01*
X18995246Y682629D01*
X18969820Y724945D01*
X18946810Y763242D01*
X18882192Y831573D01*
X18879876Y833147D01*
X18804408Y884435D01*
X18717088Y919361D01*
X18654037Y929799D01*
X18624306Y934721D01*
X18624305Y934721D01*
X18530388Y929799D01*
X18502286Y922059D01*
X18439719Y904826D01*
X18392444Y879900D01*
X18356527Y860963D01*
X18293300Y807531D01*
X18284694Y800258D01*
X18231416Y730574D01*
X18227574Y725549D01*
X18187829Y640314D01*
X18167313Y548534D01*
X18166985Y454488D01*
X15700000Y454488D01*
X15700000Y2454488D01*
X26066985Y2454488D01*
X26085934Y2366848D01*
X26086860Y2362563D01*
X26118482Y2293496D01*
X26126009Y2277057D01*
X26173414Y2214148D01*
X26182609Y2201946D01*
X26254013Y2140745D01*
X26293895Y2119361D01*
X26336896Y2096304D01*
X26427389Y2070697D01*
X26521269Y2065120D01*
X26521271Y2065120D01*
X26596649Y2077059D01*
X26614157Y2079832D01*
X26701719Y2114147D01*
X26779870Y2166464D01*
X26783930Y2170698D01*
X26844962Y2234341D01*
X26865305Y2267669D01*
X26893962Y2314616D01*
X26922090Y2396306D01*
X26924580Y2403537D01*
X26927824Y2431574D01*
X26935389Y2496960D01*
X26935389Y2497075D01*
X26935401Y2499998D01*
X26925243Y2593495D01*
X26923770Y2597872D01*
X26895246Y2682629D01*
X26875645Y2715251D01*
X26846810Y2763242D01*
X26782192Y2831573D01*
X26782191Y2831574D01*
X26704408Y2884435D01*
X26617088Y2919361D01*
X26543315Y2931574D01*
X26524306Y2934721D01*
X26524305Y2934721D01*
X26430388Y2929799D01*
X26402286Y2922059D01*
X26339719Y2904826D01*
X26292444Y2879900D01*
X26256527Y2860963D01*
X26190761Y2805385D01*
X26184694Y2800258D01*
X26141043Y2743166D01*
X26127574Y2725549D01*
X26087829Y2640314D01*
X26067313Y2548534D01*
X26066985Y2454488D01*
X15700000Y2454488D01*
X15700000Y3200000D01*
X15536302Y3200000D01*
X15530186Y3202440D01*
X15519059Y3203531D01*
X15515166Y3204658D01*
X15515164Y3204658D01*
X15510090Y3204219D01*
X15494860Y3202900D01*
X200000Y3202900D01*
X200000Y4054488D01*
X6666985Y4054488D01*
X6685435Y3969156D01*
X6686860Y3962563D01*
X6721445Y3887025D01*
X6726009Y3877057D01*
X6780706Y3804471D01*
X6782609Y3801946D01*
X6854013Y3740745D01*
X6892517Y3720100D01*
X6936896Y3696304D01*
X7027389Y3670697D01*
X7121269Y3665120D01*
X7121271Y3665120D01*
X7214158Y3679832D01*
X7258220Y3697100D01*
X31034083Y3697100D01*
X31036896Y3696304D01*
X31127389Y3670697D01*
X31221269Y3665120D01*
X31221271Y3665120D01*
X31283958Y3675049D01*
X31314157Y3679832D01*
X31401719Y3714147D01*
X31479870Y3766464D01*
X31481944Y3768627D01*
X31544962Y3834341D01*
X31570719Y3876538D01*
X31593962Y3914616D01*
X31624580Y4003538D01*
X31635389Y4096960D01*
X31635389Y4097075D01*
X31635401Y4099998D01*
X31626481Y4182100D01*
X31625243Y4193496D01*
X31595246Y4282629D01*
X31575865Y4314885D01*
X31546810Y4363242D01*
X31482192Y4431573D01*
X31482191Y4431574D01*
X31404408Y4484435D01*
X31317088Y4519361D01*
X31254037Y4529799D01*
X31224306Y4534721D01*
X31224305Y4534721D01*
X31130388Y4529799D01*
X31074499Y4514405D01*
X31032729Y4502900D01*
X7258243Y4502900D01*
X7230807Y4513874D01*
X7217086Y4519362D01*
X7124306Y4534721D01*
X7124305Y4534721D01*
X7030388Y4529799D01*
X7002286Y4522059D01*
X6939719Y4504826D01*
X6885247Y4476106D01*
X6856527Y4460963D01*
X6784696Y4400260D01*
X6784694Y4400258D01*
X6776700Y4389802D01*
X6727574Y4325549D01*
X6687829Y4240314D01*
X6667313Y4148534D01*
X6666985Y4054488D01*
X200000Y4054488D01*
X200000Y5300000D01*
X61154242Y5300000D01*
X61191842Y5289925D01*
G37*
G04 #@! TD.AperFunction*
G04 #@! TD*
M02*
