M48
; DRILL file {KiCad (5.99.0-7570-gd0e008053a)} date 04/03/21 15:27:22
; FORMAT={-:-/ absolute / inch / decimal}
; #@! TF.CreationDate,2021-04-03T15:27:22-07:00
; #@! TF.GenerationSoftware,Kicad,Pcbnew,(5.99.0-7570-gd0e008053a)
FMAT,2
INCH
T1C0.0100
T2C0.0157
T3C0.0197
T4C0.0236
T5C0.0866
T6C0.0276
%
G90
G05
T1
X0.0276Y-0.1437
X0.0276Y-0.1673
X0.0276Y-0.1909
X0.1614Y-0.1437
X0.1614Y-0.1673
X0.1614Y-0.1909
X0.2362Y0.1614
X0.3622Y0.1496
X0.3858Y-0.1437
X0.3858Y-0.1673
X0.3858Y-0.1909
X0.6299Y0.1181
X0.7598Y-0.1417
X0.7598Y-0.1654
X0.7598Y-0.189
X0.7795Y-0.1772
X0.8031Y-0.1772
X0.8268Y-0.1417
X0.8268Y-0.1654
X0.8268Y-0.189
X0.8504Y0.1181
X0.8583Y0.0787
X0.8583Y0.0551
X0.8583Y0.0315
X0.8583Y0.0079
X0.8583Y-0.0157
X0.8583Y-0.0394
X0.8583Y-0.063
X0.8583Y-0.0866
X0.8583Y-0.1811
X0.9213Y0.1339
X0.9213Y0.0315
X0.9213Y-0.0079
X0.9213Y-0.0472
X0.935Y0.0118
X0.935Y-0.0276
X0.9488Y0.0315
X0.9488Y-0.0079
X0.9488Y-0.0472
X0.9764Y-0.1142
X0.9961Y0.0295
X0.9961Y0.0049
X0.9961Y-0.0207
X0.9961Y-0.0453
X1.0Y-0.1142
X1.0236Y-0.1142
X1.0276Y0.1417
X1.0276Y0.1181
X1.0433Y0.0906
X1.0433Y-0.0866
X1.0433Y-0.1614
X1.0984Y-0.0157
X1.1142Y-0.1614
X1.1654Y0.0394
X1.1654Y0.0079
X1.185Y-0.0472
X1.185Y-0.0748
X1.185Y-0.1024
X1.185Y-0.1614
X1.1969Y0.1299
X1.2323Y0.1614
X1.2559Y-0.1614
X1.2717Y-0.126
X1.276Y-0.004
X1.2835Y0.0551
X1.2874Y0.1693
X1.3661Y0.0571
X1.4094Y0.1339
X1.4528Y0.0984
X1.4528Y0.063
X1.4528Y-0.0236
X1.4528Y-0.0551
X1.4961Y0.1276
X1.5039Y-0.0157
X1.5157Y0.0433
X1.5197Y-0.0787
X1.5228Y0.0709
X1.5276Y0.1181
X1.5433Y-0.1024
X1.5755Y-0.1031
X1.5827Y0.0
X1.5866Y0.126
X1.5984Y-0.126
X1.6491Y-0.1299
X1.6614Y0.1339
X1.6614Y0.0787
X1.6614Y0.0
X1.6614Y-0.0709
X1.6772Y-0.1299
X1.7165Y-0.1299
X1.7227Y0.1375
X1.7402Y0.1102
X1.7402Y0.0
X1.7559Y-0.1024
X1.7756Y0.0984
X1.7795Y-0.126
X1.7874Y-0.0787
X1.7992Y0.0787
X1.8228Y0.0079
X1.8268Y-0.126
X1.8307Y-0.0787
X1.8543Y0.0039
X1.8858Y-0.0512
X1.8898Y0.0047
X2.0591Y-0.0709
X2.063Y-0.122
X2.0668Y0.0195
X2.0945Y-0.0394
X2.0945Y-0.126
X2.126Y-0.0394
X2.126Y-0.0709
X2.1339Y0.0709
X2.1339Y0.0433
X2.1417Y0.1732
X2.1575Y-0.0157
X2.185Y-0.126
X2.2205Y0.0
X2.2244Y0.1732
X2.252Y-0.0591
X2.2835Y-0.0157
X2.2835Y-0.126
X2.3071Y0.1102
X2.4291Y0.1811
X2.4291Y0.1063
X2.4331Y-0.1299
X2.4409Y-0.085
X2.4921Y0.0827
X2.4921Y0.0
X2.4921Y-0.0591
X2.5079Y0.1102
X2.5138Y0.0413
X2.5157Y-0.02
X2.5512Y0.0413
X2.7402Y0.063
T2
X1.3583Y0.1693
X1.626Y0.1693
X1.6929Y0.1693
X2.1063Y0.1693
X2.3071Y0.1457
T3
X0.063Y0.1201
X0.0827Y-0.1201
X0.1142Y-0.1201
X0.1614Y0.1201
X0.1929Y0.1201
X0.5906Y0.0453
X0.5906Y0.0138
T4
X2.6457Y0.0984
X2.6457Y-0.0984
T5
X0.7677Y0.0
X2.3819Y0.0
T6
X2.7441Y0.1138
X2.7441Y-0.1138
T4
G00X2.7008Y0.1701
M15
G01X2.748Y0.1701
M16
G05
G00X2.748Y-0.1701
M15
G01X2.7008Y-0.1701
M16
G05
G00X2.9067Y0.1701
M15
G01X2.8713Y0.1701
M16
G05
G00X2.9067Y-0.1701
M15
G01X2.8713Y-0.1701
M16
G05
T0
M30
