M48
; DRILL file {KiCad (5.99.0-3477-gacf13a186)} date 09/30/20 00:07:47
; FORMAT={3:3/ absolute / metric / suppress leading zeros}
; #@! TF.CreationDate,2020-09-30T00:07:47-07:00
; #@! TF.GenerationSoftware,Kicad,Pcbnew,(5.99.0-3477-gacf13a186)
FMAT,2
METRIC,TZ
T1C0.300
T2C0.400
T3C0.600
T4C0.650
%
G90
G05
T1
X700Y-4200
X1300Y-3700
X1300Y-4700
X4700Y-3700
X4700Y-4700
X5300Y-4200
X7100Y4100
X10500Y-3700
X10500Y-4800
X18200Y-4700
X18700Y-1900
X18700Y-2700
X18700Y-4200
X18800Y2700
X18800Y1900
X19050Y400
X19050Y-400
X19050Y-1200
X19200Y-3700
X19200Y-4700
X19500Y3300
X19850Y-1200
X20300Y3300
X20650Y-1200
X21100Y3300
X21450Y400
X21450Y-400
X21450Y-1200
X21700Y2700
X21700Y1900
X21800Y-1900
X21800Y-2700
X24700Y300
X24700Y-700
X25400Y800
X25400Y-200
X25400Y-1200
X26600Y700
X26600Y-200
X26600Y-1150
X27700Y3450
X28300Y2400
X28500Y-2900
X31800Y4100
X31900Y1300
X31900Y-2000
X32000Y-600
X34100Y-2300
X35100Y1900
X35100Y-200
X36100Y4100
X36900Y-699
X36900Y-3047
X37000Y1180
X39400Y-2500
X39900Y1800
X40800Y4100
X40800Y-300
X41600Y-2000
X42000Y4300
X43750Y-2950
X43800Y-1150
X44850Y-1900
X46181Y3181
X46600Y1840
X47600Y1159
X48500Y2520
X48550Y-1650
X48800Y4100
X48800Y-3100
X49500Y-2600
X50400Y-2703
X50600Y4400
X51200Y500
X51606Y3956
X52400Y4500
X53000Y2400
X53000Y-1200
X53588Y-3081
X53700Y4500
X54487Y-2994
X54800Y500
X55100Y4400
X55100Y3300
X55800Y-2994
X56000Y3202
X56868Y-1836
X57080Y3120
X57895Y-1818
X57913Y129
X58000Y2500
X58539Y-2480
X59200Y2600
X60300Y2600
X65600Y600
X66551Y553
X71100Y2600
X71100Y1600
X71700Y400
X73300Y0
X75000Y1500
X76200Y1600
X77100Y4700
X79571Y-3047
X81800Y0
X81900Y1300
X82604Y-2994
X83100Y1900
X83200Y4000
X84600Y-100
X85250Y-1200
X86200Y4000
X86900Y3300
X87800Y-100
X90000Y2000
X94400Y1700
T2
X52600Y-3000
X62300Y-898
X71500Y-898
X73700Y-900
X82100Y-954
T3
X24950Y-4400
X83000Y-4400
X84400Y-4400
X91700Y2400
X91700Y-2400
T4
X94250Y2790
X94250Y-2890
T3
G00X93200Y4320
M15
G01X94300Y4320
M16
G05
G00X94300Y-4320
M15
G01X93200Y-4320
M16
G05
G00X98330Y4320
M15
G01X97530Y4320
M16
G05
G00X98330Y-4320
M15
G01X97530Y-4320
M16
G05
T0
M30
