G04 #@! TF.GenerationSoftware,KiCad,Pcbnew,(5.99.0-3477-gacf13a186)*
G04 #@! TF.CreationDate,2020-09-30T00:07:38-07:00*
G04 #@! TF.ProjectId,RT_USB_PD_Soldering_Iron,52545f55-5342-45f5-9044-5f536f6c6465,rev?*
G04 #@! TF.SameCoordinates,PX5f5e100PY7735940*
G04 #@! TF.FileFunction,Paste,Top*
G04 #@! TF.FilePolarity,Positive*
%FSLAX46Y46*%
G04 Gerber Fmt 4.6, Leading zero omitted, Abs format (unit mm)*
G04 Created by KiCad (PCBNEW (5.99.0-3477-gacf13a186)) date 2020-09-30 00:07:38*
%MOMM*%
%LPD*%
G01*
G04 APERTURE LIST*
%ADD10R,3.000000X0.320000*%
%ADD11R,1.150000X0.600000*%
%ADD12R,1.150000X0.300000*%
%ADD13R,0.650000X0.550000*%
%ADD14R,0.630000X0.820000*%
%ADD15R,0.350000X0.650000*%
%ADD16R,0.240000X0.750000*%
%ADD17R,0.640000X0.240000*%
%ADD18R,0.240000X0.650000*%
%ADD19R,0.640000X1.060000*%
%ADD20R,2.100000X1.400000*%
%ADD21R,0.650000X1.060000*%
%ADD22R,0.700000X0.600000*%
%ADD23R,0.250000X0.675000*%
%ADD24R,0.675000X0.250000*%
G04 APERTURE END LIST*
G04 #@! TO.C,R10*
G36*
G01*
X29620000Y-72500D02*
X29620000Y272500D01*
G75*
G02*
X29767500Y420000I147500J0D01*
G01*
X30062500Y420000D01*
G75*
G02*
X30210000Y272500I0J-147500D01*
G01*
X30210000Y-72500D01*
G75*
G02*
X30062500Y-220000I-147500J0D01*
G01*
X29767500Y-220000D01*
G75*
G02*
X29620000Y-72500I0J147500D01*
G01*
G37*
G36*
G01*
X30590000Y-72500D02*
X30590000Y272500D01*
G75*
G02*
X30737500Y420000I147500J0D01*
G01*
X31032500Y420000D01*
G75*
G02*
X31180000Y272500I0J-147500D01*
G01*
X31180000Y-72500D01*
G75*
G02*
X31032500Y-220000I-147500J0D01*
G01*
X30737500Y-220000D01*
G75*
G02*
X30590000Y-72500I0J147500D01*
G01*
G37*
G04 #@! TD*
G04 #@! TO.C,C21*
G36*
G01*
X45097274Y-1187650D02*
X44853322Y-943698D01*
G75*
G02*
X44853322Y-735102I104298J104298D01*
G01*
X45061918Y-526506D01*
G75*
G02*
X45270514Y-526506I104298J-104298D01*
G01*
X45514466Y-770458D01*
G75*
G02*
X45514466Y-979054I-104298J-104298D01*
G01*
X45305870Y-1187650D01*
G75*
G02*
X45097274Y-1187650I-104298J104298D01*
G01*
G37*
G36*
G01*
X45783168Y-501756D02*
X45539216Y-257804D01*
G75*
G02*
X45539216Y-49208I104298J104298D01*
G01*
X45747812Y159388D01*
G75*
G02*
X45956408Y159388I104298J-104298D01*
G01*
X46200360Y-84564D01*
G75*
G02*
X46200360Y-293160I-104298J-104298D01*
G01*
X45991764Y-501756D01*
G75*
G02*
X45783168Y-501756I-104298J104298D01*
G01*
G37*
G04 #@! TD*
D10*
G04 #@! TO.C,OLED1*
X69000000Y-4030000D03*
X69000000Y-3410000D03*
X69000000Y-2790000D03*
X69000000Y-2170000D03*
X69000000Y-1550000D03*
X69000000Y-930000D03*
X69000000Y-310000D03*
X69000000Y310000D03*
X69000000Y930000D03*
X69000000Y1550000D03*
X69000000Y2170000D03*
X69000000Y2790000D03*
X69000000Y3410000D03*
X69000000Y4030000D03*
G04 #@! TD*
D11*
G04 #@! TO.C,J1*
X93175000Y-3200000D03*
X93175000Y-2400000D03*
D12*
X93175000Y-1250000D03*
X93175000Y-250000D03*
X93175000Y250000D03*
X93175000Y1250000D03*
D11*
X93175000Y2400000D03*
X93175000Y3200000D03*
X93175000Y3200000D03*
X93175000Y2400000D03*
D12*
X93175000Y1750000D03*
X93175000Y750000D03*
X93175000Y-750000D03*
X93175000Y-1750000D03*
D11*
X93175000Y-2400000D03*
X93175000Y-3200000D03*
G04 #@! TD*
D13*
G04 #@! TO.C,SW1*
X81575000Y4325000D03*
X78425000Y4325000D03*
X81575000Y2675000D03*
X78425000Y2675000D03*
G04 #@! TD*
G04 #@! TO.C,R17*
G36*
G01*
X35380000Y-2974117D02*
X35380000Y-3319117D01*
G75*
G02*
X35232500Y-3466617I-147500J0D01*
G01*
X34937500Y-3466617D01*
G75*
G02*
X34790000Y-3319117I0J147500D01*
G01*
X34790000Y-2974117D01*
G75*
G02*
X34937500Y-2826617I147500J0D01*
G01*
X35232500Y-2826617D01*
G75*
G02*
X35380000Y-2974117I0J-147500D01*
G01*
G37*
G36*
G01*
X34410000Y-2974117D02*
X34410000Y-3319117D01*
G75*
G02*
X34262500Y-3466617I-147500J0D01*
G01*
X33967500Y-3466617D01*
G75*
G02*
X33820000Y-3319117I0J147500D01*
G01*
X33820000Y-2974117D01*
G75*
G02*
X33967500Y-2826617I147500J0D01*
G01*
X34262500Y-2826617D01*
G75*
G02*
X34410000Y-2974117I0J-147500D01*
G01*
G37*
G04 #@! TD*
G04 #@! TO.C,C12*
G36*
G01*
X51327500Y3080000D02*
X51672500Y3080000D01*
G75*
G02*
X51820000Y2932500I0J-147500D01*
G01*
X51820000Y2637500D01*
G75*
G02*
X51672500Y2490000I-147500J0D01*
G01*
X51327500Y2490000D01*
G75*
G02*
X51180000Y2637500I0J147500D01*
G01*
X51180000Y2932500D01*
G75*
G02*
X51327500Y3080000I147500J0D01*
G01*
G37*
G36*
G01*
X51327500Y2110000D02*
X51672500Y2110000D01*
G75*
G02*
X51820000Y1962500I0J-147500D01*
G01*
X51820000Y1667500D01*
G75*
G02*
X51672500Y1520000I-147500J0D01*
G01*
X51327500Y1520000D01*
G75*
G02*
X51180000Y1667500I0J147500D01*
G01*
X51180000Y1962500D01*
G75*
G02*
X51327500Y2110000I147500J0D01*
G01*
G37*
G04 #@! TD*
G04 #@! TO.C,C5*
G36*
G01*
X40981707Y155329D02*
X40636707Y155329D01*
G75*
G02*
X40489207Y302829I0J147500D01*
G01*
X40489207Y597829D01*
G75*
G02*
X40636707Y745329I147500J0D01*
G01*
X40981707Y745329D01*
G75*
G02*
X41129207Y597829I0J-147500D01*
G01*
X41129207Y302829D01*
G75*
G02*
X40981707Y155329I-147500J0D01*
G01*
G37*
G36*
G01*
X40981707Y1125329D02*
X40636707Y1125329D01*
G75*
G02*
X40489207Y1272829I0J147500D01*
G01*
X40489207Y1567829D01*
G75*
G02*
X40636707Y1715329I147500J0D01*
G01*
X40981707Y1715329D01*
G75*
G02*
X41129207Y1567829I0J-147500D01*
G01*
X41129207Y1272829D01*
G75*
G02*
X40981707Y1125329I-147500J0D01*
G01*
G37*
G04 #@! TD*
G04 #@! TO.C,C20*
G36*
G01*
X64518945Y-2574373D02*
X64518945Y-2229373D01*
G75*
G02*
X64666445Y-2081873I147500J0D01*
G01*
X64961445Y-2081873D01*
G75*
G02*
X65108945Y-2229373I0J-147500D01*
G01*
X65108945Y-2574373D01*
G75*
G02*
X64961445Y-2721873I-147500J0D01*
G01*
X64666445Y-2721873D01*
G75*
G02*
X64518945Y-2574373I0J147500D01*
G01*
G37*
G36*
G01*
X65488945Y-2574373D02*
X65488945Y-2229373D01*
G75*
G02*
X65636445Y-2081873I147500J0D01*
G01*
X65931445Y-2081873D01*
G75*
G02*
X66078945Y-2229373I0J-147500D01*
G01*
X66078945Y-2574373D01*
G75*
G02*
X65931445Y-2721873I-147500J0D01*
G01*
X65636445Y-2721873D01*
G75*
G02*
X65488945Y-2574373I0J147500D01*
G01*
G37*
G04 #@! TD*
G04 #@! TO.C,C24*
G36*
G01*
X27130000Y3622500D02*
X27130000Y3277500D01*
G75*
G02*
X26982500Y3130000I-147500J0D01*
G01*
X26687500Y3130000D01*
G75*
G02*
X26540000Y3277500I0J147500D01*
G01*
X26540000Y3622500D01*
G75*
G02*
X26687500Y3770000I147500J0D01*
G01*
X26982500Y3770000D01*
G75*
G02*
X27130000Y3622500I0J-147500D01*
G01*
G37*
G36*
G01*
X26160000Y3622500D02*
X26160000Y3277500D01*
G75*
G02*
X26012500Y3130000I-147500J0D01*
G01*
X25717500Y3130000D01*
G75*
G02*
X25570000Y3277500I0J147500D01*
G01*
X25570000Y3622500D01*
G75*
G02*
X25717500Y3770000I147500J0D01*
G01*
X26012500Y3770000D01*
G75*
G02*
X26160000Y3622500I0J-147500D01*
G01*
G37*
G04 #@! TD*
D14*
G04 #@! TO.C,U8*
X59700000Y0D03*
X60500000Y0D03*
D15*
X59450000Y-1050000D03*
X60100000Y-1050000D03*
X60750000Y-1050000D03*
X60750000Y1050000D03*
X60100000Y1050000D03*
X59450000Y1050000D03*
G04 #@! TD*
G04 #@! TO.C,R12*
G36*
G01*
X29620000Y-1472500D02*
X29620000Y-1127500D01*
G75*
G02*
X29767500Y-980000I147500J0D01*
G01*
X30062500Y-980000D01*
G75*
G02*
X30210000Y-1127500I0J-147500D01*
G01*
X30210000Y-1472500D01*
G75*
G02*
X30062500Y-1620000I-147500J0D01*
G01*
X29767500Y-1620000D01*
G75*
G02*
X29620000Y-1472500I0J147500D01*
G01*
G37*
G36*
G01*
X30590000Y-1472500D02*
X30590000Y-1127500D01*
G75*
G02*
X30737500Y-980000I147500J0D01*
G01*
X31032500Y-980000D01*
G75*
G02*
X31180000Y-1127500I0J-147500D01*
G01*
X31180000Y-1472500D01*
G75*
G02*
X31032500Y-1620000I-147500J0D01*
G01*
X30737500Y-1620000D01*
G75*
G02*
X30590000Y-1472500I0J147500D01*
G01*
G37*
G04 #@! TD*
D16*
G04 #@! TO.C,U4*
X76000000Y-800000D03*
D17*
X76600000Y-745000D03*
X76600000Y-345000D03*
X76600000Y55000D03*
X76600000Y455000D03*
X76600000Y855000D03*
X75000000Y855000D03*
X75000000Y455000D03*
X75000000Y55000D03*
X75000000Y-345000D03*
X75000000Y-745000D03*
D18*
X75600000Y-850000D03*
D19*
X75800000Y450000D03*
G04 #@! TD*
D13*
G04 #@! TO.C,SW2*
X78425000Y-2675000D03*
X81575000Y-2675000D03*
X78425000Y-4325000D03*
X81575000Y-4325000D03*
G04 #@! TD*
G04 #@! TO.C,C26*
G36*
G01*
X64546447Y2643170D02*
X64546447Y2988170D01*
G75*
G02*
X64693947Y3135670I147500J0D01*
G01*
X64988947Y3135670D01*
G75*
G02*
X65136447Y2988170I0J-147500D01*
G01*
X65136447Y2643170D01*
G75*
G02*
X64988947Y2495670I-147500J0D01*
G01*
X64693947Y2495670D01*
G75*
G02*
X64546447Y2643170I0J147500D01*
G01*
G37*
G36*
G01*
X65516447Y2643170D02*
X65516447Y2988170D01*
G75*
G02*
X65663947Y3135670I147500J0D01*
G01*
X65958947Y3135670D01*
G75*
G02*
X66106447Y2988170I0J-147500D01*
G01*
X66106447Y2643170D01*
G75*
G02*
X65958947Y2495670I-147500J0D01*
G01*
X65663947Y2495670D01*
G75*
G02*
X65516447Y2643170I0J147500D01*
G01*
G37*
G04 #@! TD*
D20*
G04 #@! TO.C,D3*
X20250000Y-2200000D03*
X20250000Y2200000D03*
G04 #@! TD*
G04 #@! TO.C,U6*
G36*
G01*
X25532500Y370000D02*
X25267500Y370000D01*
G75*
G02*
X25135000Y502500I0J132500D01*
G01*
X25135000Y897500D01*
G75*
G02*
X25267500Y1030000I132500J0D01*
G01*
X25532500Y1030000D01*
G75*
G02*
X25665000Y897500I0J-132500D01*
G01*
X25665000Y502500D01*
G75*
G02*
X25532500Y370000I-132500J0D01*
G01*
G37*
G36*
G01*
X26757500Y-1430000D02*
X26492500Y-1430000D01*
G75*
G02*
X26360000Y-1297500I0J132500D01*
G01*
X26360000Y-902500D01*
G75*
G02*
X26492500Y-770000I132500J0D01*
G01*
X26757500Y-770000D01*
G75*
G02*
X26890000Y-902500I0J-132500D01*
G01*
X26890000Y-1297500D01*
G75*
G02*
X26757500Y-1430000I-132500J0D01*
G01*
G37*
G36*
G01*
X24832500Y370000D02*
X24567500Y370000D01*
G75*
G02*
X24435000Y502500I0J132500D01*
G01*
X24435000Y897500D01*
G75*
G02*
X24567500Y1030000I132500J0D01*
G01*
X24832500Y1030000D01*
G75*
G02*
X24965000Y897500I0J-132500D01*
G01*
X24965000Y502500D01*
G75*
G02*
X24832500Y370000I-132500J0D01*
G01*
G37*
G36*
G01*
X26757500Y-530000D02*
X26492500Y-530000D01*
G75*
G02*
X26360000Y-397500I0J132500D01*
G01*
X26360000Y-2500D01*
G75*
G02*
X26492500Y130000I132500J0D01*
G01*
X26757500Y130000D01*
G75*
G02*
X26890000Y-2500I0J-132500D01*
G01*
X26890000Y-397500D01*
G75*
G02*
X26757500Y-530000I-132500J0D01*
G01*
G37*
G36*
G01*
X25532500Y-550000D02*
X25267500Y-550000D01*
G75*
G02*
X25135000Y-417500I0J132500D01*
G01*
X25135000Y-22500D01*
G75*
G02*
X25267500Y110000I132500J0D01*
G01*
X25532500Y110000D01*
G75*
G02*
X25665000Y-22500I0J-132500D01*
G01*
X25665000Y-417500D01*
G75*
G02*
X25532500Y-550000I-132500J0D01*
G01*
G37*
G36*
G01*
X24837500Y-1430000D02*
X24562500Y-1430000D01*
G75*
G02*
X24425000Y-1292500I0J137500D01*
G01*
X24425000Y-907500D01*
G75*
G02*
X24562500Y-770000I137500J0D01*
G01*
X24837500Y-770000D01*
G75*
G02*
X24975000Y-907500I0J-137500D01*
G01*
X24975000Y-1292500D01*
G75*
G02*
X24837500Y-1430000I-137500J0D01*
G01*
G37*
G36*
G01*
X25532500Y-1430000D02*
X25267500Y-1430000D01*
G75*
G02*
X25135000Y-1297500I0J132500D01*
G01*
X25135000Y-902500D01*
G75*
G02*
X25267500Y-770000I132500J0D01*
G01*
X25532500Y-770000D01*
G75*
G02*
X25665000Y-902500I0J-132500D01*
G01*
X25665000Y-1297500D01*
G75*
G02*
X25532500Y-1430000I-132500J0D01*
G01*
G37*
G36*
G01*
X26757500Y370000D02*
X26492500Y370000D01*
G75*
G02*
X26360000Y502500I0J132500D01*
G01*
X26360000Y897500D01*
G75*
G02*
X26492500Y1030000I132500J0D01*
G01*
X26757500Y1030000D01*
G75*
G02*
X26890000Y897500I0J-132500D01*
G01*
X26890000Y502500D01*
G75*
G02*
X26757500Y370000I-132500J0D01*
G01*
G37*
G36*
G01*
X24832500Y-550000D02*
X24567500Y-550000D01*
G75*
G02*
X24435000Y-417500I0J132500D01*
G01*
X24435000Y-22500D01*
G75*
G02*
X24567500Y110000I132500J0D01*
G01*
X24832500Y110000D01*
G75*
G02*
X24965000Y-22500I0J-132500D01*
G01*
X24965000Y-417500D01*
G75*
G02*
X24832500Y-550000I-132500J0D01*
G01*
G37*
G36*
G01*
X24512500Y-2412500D02*
X24387500Y-2412500D01*
G75*
G02*
X24325000Y-2350000I0J62500D01*
G01*
X24325000Y-1900000D01*
G75*
G02*
X24387500Y-1837500I62500J0D01*
G01*
X24512500Y-1837500D01*
G75*
G02*
X24575000Y-1900000I0J-62500D01*
G01*
X24575000Y-2350000D01*
G75*
G02*
X24512500Y-2412500I-62500J0D01*
G01*
G37*
G36*
G01*
X25012500Y-2412500D02*
X24887500Y-2412500D01*
G75*
G02*
X24825000Y-2350000I0J62500D01*
G01*
X24825000Y-1900000D01*
G75*
G02*
X24887500Y-1837500I62500J0D01*
G01*
X25012500Y-1837500D01*
G75*
G02*
X25075000Y-1900000I0J-62500D01*
G01*
X25075000Y-2350000D01*
G75*
G02*
X25012500Y-2412500I-62500J0D01*
G01*
G37*
G36*
G01*
X25512500Y-2412500D02*
X25387500Y-2412500D01*
G75*
G02*
X25325000Y-2350000I0J62500D01*
G01*
X25325000Y-1900000D01*
G75*
G02*
X25387500Y-1837500I62500J0D01*
G01*
X25512500Y-1837500D01*
G75*
G02*
X25575000Y-1900000I0J-62500D01*
G01*
X25575000Y-2350000D01*
G75*
G02*
X25512500Y-2412500I-62500J0D01*
G01*
G37*
G36*
G01*
X26012500Y-2412500D02*
X25887500Y-2412500D01*
G75*
G02*
X25825000Y-2350000I0J62500D01*
G01*
X25825000Y-1900000D01*
G75*
G02*
X25887500Y-1837500I62500J0D01*
G01*
X26012500Y-1837500D01*
G75*
G02*
X26075000Y-1900000I0J-62500D01*
G01*
X26075000Y-2350000D01*
G75*
G02*
X26012500Y-2412500I-62500J0D01*
G01*
G37*
G36*
G01*
X26512500Y-2412500D02*
X26387500Y-2412500D01*
G75*
G02*
X26325000Y-2350000I0J62500D01*
G01*
X26325000Y-1900000D01*
G75*
G02*
X26387500Y-1837500I62500J0D01*
G01*
X26512500Y-1837500D01*
G75*
G02*
X26575000Y-1900000I0J-62500D01*
G01*
X26575000Y-2350000D01*
G75*
G02*
X26512500Y-2412500I-62500J0D01*
G01*
G37*
G36*
G01*
X27012500Y-2412500D02*
X26887500Y-2412500D01*
G75*
G02*
X26825000Y-2350000I0J62500D01*
G01*
X26825000Y-1900000D01*
G75*
G02*
X26887500Y-1837500I62500J0D01*
G01*
X27012500Y-1837500D01*
G75*
G02*
X27075000Y-1900000I0J-62500D01*
G01*
X27075000Y-2350000D01*
G75*
G02*
X27012500Y-2412500I-62500J0D01*
G01*
G37*
G36*
G01*
X27850000Y-1575000D02*
X27400000Y-1575000D01*
G75*
G02*
X27337500Y-1512500I0J62500D01*
G01*
X27337500Y-1387500D01*
G75*
G02*
X27400000Y-1325000I62500J0D01*
G01*
X27850000Y-1325000D01*
G75*
G02*
X27912500Y-1387500I0J-62500D01*
G01*
X27912500Y-1512500D01*
G75*
G02*
X27850000Y-1575000I-62500J0D01*
G01*
G37*
G36*
G01*
X27850000Y-1075000D02*
X27400000Y-1075000D01*
G75*
G02*
X27337500Y-1012500I0J62500D01*
G01*
X27337500Y-887500D01*
G75*
G02*
X27400000Y-825000I62500J0D01*
G01*
X27850000Y-825000D01*
G75*
G02*
X27912500Y-887500I0J-62500D01*
G01*
X27912500Y-1012500D01*
G75*
G02*
X27850000Y-1075000I-62500J0D01*
G01*
G37*
G36*
G01*
X27850000Y-575000D02*
X27400000Y-575000D01*
G75*
G02*
X27337500Y-512500I0J62500D01*
G01*
X27337500Y-387500D01*
G75*
G02*
X27400000Y-325000I62500J0D01*
G01*
X27850000Y-325000D01*
G75*
G02*
X27912500Y-387500I0J-62500D01*
G01*
X27912500Y-512500D01*
G75*
G02*
X27850000Y-575000I-62500J0D01*
G01*
G37*
G36*
G01*
X27850000Y-75000D02*
X27400000Y-75000D01*
G75*
G02*
X27337500Y-12500I0J62500D01*
G01*
X27337500Y112500D01*
G75*
G02*
X27400000Y175000I62500J0D01*
G01*
X27850000Y175000D01*
G75*
G02*
X27912500Y112500I0J-62500D01*
G01*
X27912500Y-12500D01*
G75*
G02*
X27850000Y-75000I-62500J0D01*
G01*
G37*
G36*
G01*
X27850000Y425000D02*
X27400000Y425000D01*
G75*
G02*
X27337500Y487500I0J62500D01*
G01*
X27337500Y612500D01*
G75*
G02*
X27400000Y675000I62500J0D01*
G01*
X27850000Y675000D01*
G75*
G02*
X27912500Y612500I0J-62500D01*
G01*
X27912500Y487500D01*
G75*
G02*
X27850000Y425000I-62500J0D01*
G01*
G37*
G36*
G01*
X27850000Y925000D02*
X27400000Y925000D01*
G75*
G02*
X27337500Y987500I0J62500D01*
G01*
X27337500Y1112500D01*
G75*
G02*
X27400000Y1175000I62500J0D01*
G01*
X27850000Y1175000D01*
G75*
G02*
X27912500Y1112500I0J-62500D01*
G01*
X27912500Y987500D01*
G75*
G02*
X27850000Y925000I-62500J0D01*
G01*
G37*
G36*
G01*
X27012500Y1437500D02*
X26887500Y1437500D01*
G75*
G02*
X26825000Y1500000I0J62500D01*
G01*
X26825000Y1950000D01*
G75*
G02*
X26887500Y2012500I62500J0D01*
G01*
X27012500Y2012500D01*
G75*
G02*
X27075000Y1950000I0J-62500D01*
G01*
X27075000Y1500000D01*
G75*
G02*
X27012500Y1437500I-62500J0D01*
G01*
G37*
G36*
G01*
X26512500Y1437500D02*
X26387500Y1437500D01*
G75*
G02*
X26325000Y1500000I0J62500D01*
G01*
X26325000Y1950000D01*
G75*
G02*
X26387500Y2012500I62500J0D01*
G01*
X26512500Y2012500D01*
G75*
G02*
X26575000Y1950000I0J-62500D01*
G01*
X26575000Y1500000D01*
G75*
G02*
X26512500Y1437500I-62500J0D01*
G01*
G37*
G36*
G01*
X26012500Y1437500D02*
X25887500Y1437500D01*
G75*
G02*
X25825000Y1500000I0J62500D01*
G01*
X25825000Y1950000D01*
G75*
G02*
X25887500Y2012500I62500J0D01*
G01*
X26012500Y2012500D01*
G75*
G02*
X26075000Y1950000I0J-62500D01*
G01*
X26075000Y1500000D01*
G75*
G02*
X26012500Y1437500I-62500J0D01*
G01*
G37*
G36*
G01*
X25512500Y1437500D02*
X25387500Y1437500D01*
G75*
G02*
X25325000Y1500000I0J62500D01*
G01*
X25325000Y1950000D01*
G75*
G02*
X25387500Y2012500I62500J0D01*
G01*
X25512500Y2012500D01*
G75*
G02*
X25575000Y1950000I0J-62500D01*
G01*
X25575000Y1500000D01*
G75*
G02*
X25512500Y1437500I-62500J0D01*
G01*
G37*
G36*
G01*
X25012500Y1437500D02*
X24887500Y1437500D01*
G75*
G02*
X24825000Y1500000I0J62500D01*
G01*
X24825000Y1950000D01*
G75*
G02*
X24887500Y2012500I62500J0D01*
G01*
X25012500Y2012500D01*
G75*
G02*
X25075000Y1950000I0J-62500D01*
G01*
X25075000Y1500000D01*
G75*
G02*
X25012500Y1437500I-62500J0D01*
G01*
G37*
G36*
G01*
X24512500Y1437500D02*
X24387500Y1437500D01*
G75*
G02*
X24325000Y1500000I0J62500D01*
G01*
X24325000Y1950000D01*
G75*
G02*
X24387500Y2012500I62500J0D01*
G01*
X24512500Y2012500D01*
G75*
G02*
X24575000Y1950000I0J-62500D01*
G01*
X24575000Y1500000D01*
G75*
G02*
X24512500Y1437500I-62500J0D01*
G01*
G37*
G36*
G01*
X24000000Y925000D02*
X23550000Y925000D01*
G75*
G02*
X23487500Y987500I0J62500D01*
G01*
X23487500Y1112500D01*
G75*
G02*
X23550000Y1175000I62500J0D01*
G01*
X24000000Y1175000D01*
G75*
G02*
X24062500Y1112500I0J-62500D01*
G01*
X24062500Y987500D01*
G75*
G02*
X24000000Y925000I-62500J0D01*
G01*
G37*
G36*
G01*
X24000000Y425000D02*
X23550000Y425000D01*
G75*
G02*
X23487500Y487500I0J62500D01*
G01*
X23487500Y612500D01*
G75*
G02*
X23550000Y675000I62500J0D01*
G01*
X24000000Y675000D01*
G75*
G02*
X24062500Y612500I0J-62500D01*
G01*
X24062500Y487500D01*
G75*
G02*
X24000000Y425000I-62500J0D01*
G01*
G37*
G36*
G01*
X24000000Y-75000D02*
X23550000Y-75000D01*
G75*
G02*
X23487500Y-12500I0J62500D01*
G01*
X23487500Y112500D01*
G75*
G02*
X23550000Y175000I62500J0D01*
G01*
X24000000Y175000D01*
G75*
G02*
X24062500Y112500I0J-62500D01*
G01*
X24062500Y-12500D01*
G75*
G02*
X24000000Y-75000I-62500J0D01*
G01*
G37*
G36*
G01*
X24000000Y-575000D02*
X23550000Y-575000D01*
G75*
G02*
X23487500Y-512500I0J62500D01*
G01*
X23487500Y-387500D01*
G75*
G02*
X23550000Y-325000I62500J0D01*
G01*
X24000000Y-325000D01*
G75*
G02*
X24062500Y-387500I0J-62500D01*
G01*
X24062500Y-512500D01*
G75*
G02*
X24000000Y-575000I-62500J0D01*
G01*
G37*
G36*
G01*
X24000000Y-1075000D02*
X23550000Y-1075000D01*
G75*
G02*
X23487500Y-1012500I0J62500D01*
G01*
X23487500Y-887500D01*
G75*
G02*
X23550000Y-825000I62500J0D01*
G01*
X24000000Y-825000D01*
G75*
G02*
X24062500Y-887500I0J-62500D01*
G01*
X24062500Y-1012500D01*
G75*
G02*
X24000000Y-1075000I-62500J0D01*
G01*
G37*
G36*
G01*
X24000000Y-1575000D02*
X23550000Y-1575000D01*
G75*
G02*
X23487500Y-1512500I0J62500D01*
G01*
X23487500Y-1387500D01*
G75*
G02*
X23550000Y-1325000I62500J0D01*
G01*
X24000000Y-1325000D01*
G75*
G02*
X24062500Y-1387500I0J-62500D01*
G01*
X24062500Y-1512500D01*
G75*
G02*
X24000000Y-1575000I-62500J0D01*
G01*
G37*
G04 #@! TD*
G04 #@! TO.C,R11*
G36*
G01*
X49527500Y4380000D02*
X49872500Y4380000D01*
G75*
G02*
X50020000Y4232500I0J-147500D01*
G01*
X50020000Y3937500D01*
G75*
G02*
X49872500Y3790000I-147500J0D01*
G01*
X49527500Y3790000D01*
G75*
G02*
X49380000Y3937500I0J147500D01*
G01*
X49380000Y4232500D01*
G75*
G02*
X49527500Y4380000I147500J0D01*
G01*
G37*
G36*
G01*
X49527500Y3410000D02*
X49872500Y3410000D01*
G75*
G02*
X50020000Y3262500I0J-147500D01*
G01*
X50020000Y2967500D01*
G75*
G02*
X49872500Y2820000I-147500J0D01*
G01*
X49527500Y2820000D01*
G75*
G02*
X49380000Y2967500I0J147500D01*
G01*
X49380000Y3262500D01*
G75*
G02*
X49527500Y3410000I147500J0D01*
G01*
G37*
G04 #@! TD*
D21*
G04 #@! TO.C,U7*
X36050000Y897766D03*
X35100000Y897766D03*
X34150000Y897766D03*
X34150000Y-1302234D03*
X35100000Y-1302234D03*
X36050000Y-1302234D03*
G04 #@! TD*
D22*
G04 #@! TO.C,D1*
X80850000Y-500000D03*
X80850000Y500000D03*
X79150000Y500000D03*
X79150000Y-500000D03*
G04 #@! TD*
G04 #@! TO.C,C13*
G36*
G01*
X53527500Y3780000D02*
X53872500Y3780000D01*
G75*
G02*
X54020000Y3632500I0J-147500D01*
G01*
X54020000Y3337500D01*
G75*
G02*
X53872500Y3190000I-147500J0D01*
G01*
X53527500Y3190000D01*
G75*
G02*
X53380000Y3337500I0J147500D01*
G01*
X53380000Y3632500D01*
G75*
G02*
X53527500Y3780000I147500J0D01*
G01*
G37*
G36*
G01*
X53527500Y2810000D02*
X53872500Y2810000D01*
G75*
G02*
X54020000Y2662500I0J-147500D01*
G01*
X54020000Y2367500D01*
G75*
G02*
X53872500Y2220000I-147500J0D01*
G01*
X53527500Y2220000D01*
G75*
G02*
X53380000Y2367500I0J147500D01*
G01*
X53380000Y2662500D01*
G75*
G02*
X53527500Y2810000I147500J0D01*
G01*
G37*
G04 #@! TD*
G04 #@! TO.C,C23*
G36*
G01*
X31180000Y-2390705D02*
X31180000Y-2735705D01*
G75*
G02*
X31032500Y-2883205I-147500J0D01*
G01*
X30737500Y-2883205D01*
G75*
G02*
X30590000Y-2735705I0J147500D01*
G01*
X30590000Y-2390705D01*
G75*
G02*
X30737500Y-2243205I147500J0D01*
G01*
X31032500Y-2243205D01*
G75*
G02*
X31180000Y-2390705I0J-147500D01*
G01*
G37*
G36*
G01*
X30210000Y-2390705D02*
X30210000Y-2735705D01*
G75*
G02*
X30062500Y-2883205I-147500J0D01*
G01*
X29767500Y-2883205D01*
G75*
G02*
X29620000Y-2735705I0J147500D01*
G01*
X29620000Y-2390705D01*
G75*
G02*
X29767500Y-2243205I147500J0D01*
G01*
X30062500Y-2243205D01*
G75*
G02*
X30210000Y-2390705I0J-147500D01*
G01*
G37*
G04 #@! TD*
G04 #@! TO.C,C30*
G36*
G01*
X33820164Y2527464D02*
X33820164Y2872464D01*
G75*
G02*
X33967664Y3019964I147500J0D01*
G01*
X34262664Y3019964D01*
G75*
G02*
X34410164Y2872464I0J-147500D01*
G01*
X34410164Y2527464D01*
G75*
G02*
X34262664Y2379964I-147500J0D01*
G01*
X33967664Y2379964D01*
G75*
G02*
X33820164Y2527464I0J147500D01*
G01*
G37*
G36*
G01*
X34790164Y2527464D02*
X34790164Y2872464D01*
G75*
G02*
X34937664Y3019964I147500J0D01*
G01*
X35232664Y3019964D01*
G75*
G02*
X35380164Y2872464I0J-147500D01*
G01*
X35380164Y2527464D01*
G75*
G02*
X35232664Y2379964I-147500J0D01*
G01*
X34937664Y2379964D01*
G75*
G02*
X34790164Y2527464I0J147500D01*
G01*
G37*
G04 #@! TD*
G04 #@! TO.C,R13*
G36*
G01*
X64528635Y1426576D02*
X64528635Y1771576D01*
G75*
G02*
X64676135Y1919076I147500J0D01*
G01*
X64971135Y1919076D01*
G75*
G02*
X65118635Y1771576I0J-147500D01*
G01*
X65118635Y1426576D01*
G75*
G02*
X64971135Y1279076I-147500J0D01*
G01*
X64676135Y1279076D01*
G75*
G02*
X64528635Y1426576I0J147500D01*
G01*
G37*
G36*
G01*
X65498635Y1426576D02*
X65498635Y1771576D01*
G75*
G02*
X65646135Y1919076I147500J0D01*
G01*
X65941135Y1919076D01*
G75*
G02*
X66088635Y1771576I0J-147500D01*
G01*
X66088635Y1426576D01*
G75*
G02*
X65941135Y1279076I-147500J0D01*
G01*
X65646135Y1279076D01*
G75*
G02*
X65498635Y1426576I0J147500D01*
G01*
G37*
G04 #@! TD*
G04 #@! TO.C,C25*
G36*
G01*
X31180000Y1482368D02*
X31180000Y1137368D01*
G75*
G02*
X31032500Y989868I-147500J0D01*
G01*
X30737500Y989868D01*
G75*
G02*
X30590000Y1137368I0J147500D01*
G01*
X30590000Y1482368D01*
G75*
G02*
X30737500Y1629868I147500J0D01*
G01*
X31032500Y1629868D01*
G75*
G02*
X31180000Y1482368I0J-147500D01*
G01*
G37*
G36*
G01*
X30210000Y1482368D02*
X30210000Y1137368D01*
G75*
G02*
X30062500Y989868I-147500J0D01*
G01*
X29767500Y989868D01*
G75*
G02*
X29620000Y1137368I0J147500D01*
G01*
X29620000Y1482368D01*
G75*
G02*
X29767500Y1629868I147500J0D01*
G01*
X30062500Y1629868D01*
G75*
G02*
X30210000Y1482368I0J-147500D01*
G01*
G37*
G04 #@! TD*
D21*
G04 #@! TO.C,U3*
X87150000Y2100000D03*
X86200000Y2100000D03*
X85250000Y2100000D03*
X85250000Y-100000D03*
X86200000Y-100000D03*
X87150000Y-100000D03*
G04 #@! TD*
G04 #@! TO.C,C32*
G36*
G01*
X40627500Y3780000D02*
X40972500Y3780000D01*
G75*
G02*
X41120000Y3632500I0J-147500D01*
G01*
X41120000Y3337500D01*
G75*
G02*
X40972500Y3190000I-147500J0D01*
G01*
X40627500Y3190000D01*
G75*
G02*
X40480000Y3337500I0J147500D01*
G01*
X40480000Y3632500D01*
G75*
G02*
X40627500Y3780000I147500J0D01*
G01*
G37*
G36*
G01*
X40627500Y2810000D02*
X40972500Y2810000D01*
G75*
G02*
X41120000Y2662500I0J-147500D01*
G01*
X41120000Y2367500D01*
G75*
G02*
X40972500Y2220000I-147500J0D01*
G01*
X40627500Y2220000D01*
G75*
G02*
X40480000Y2367500I0J147500D01*
G01*
X40480000Y2662500D01*
G75*
G02*
X40627500Y2810000I147500J0D01*
G01*
G37*
G04 #@! TD*
G04 #@! TO.C,R14*
G36*
G01*
X33820000Y3927500D02*
X33820000Y4272500D01*
G75*
G02*
X33967500Y4420000I147500J0D01*
G01*
X34262500Y4420000D01*
G75*
G02*
X34410000Y4272500I0J-147500D01*
G01*
X34410000Y3927500D01*
G75*
G02*
X34262500Y3780000I-147500J0D01*
G01*
X33967500Y3780000D01*
G75*
G02*
X33820000Y3927500I0J147500D01*
G01*
G37*
G36*
G01*
X34790000Y3927500D02*
X34790000Y4272500D01*
G75*
G02*
X34937500Y4420000I147500J0D01*
G01*
X35232500Y4420000D01*
G75*
G02*
X35380000Y4272500I0J-147500D01*
G01*
X35380000Y3927500D01*
G75*
G02*
X35232500Y3780000I-147500J0D01*
G01*
X34937500Y3780000D01*
G75*
G02*
X34790000Y3927500I0J147500D01*
G01*
G37*
G04 #@! TD*
G04 #@! TO.C,C31*
G36*
G01*
X39287693Y57474D02*
X39287693Y-287526D01*
G75*
G02*
X39140193Y-435026I-147500J0D01*
G01*
X38845193Y-435026D01*
G75*
G02*
X38697693Y-287526I0J147500D01*
G01*
X38697693Y57474D01*
G75*
G02*
X38845193Y204974I147500J0D01*
G01*
X39140193Y204974D01*
G75*
G02*
X39287693Y57474I0J-147500D01*
G01*
G37*
G36*
G01*
X38317693Y57474D02*
X38317693Y-287526D01*
G75*
G02*
X38170193Y-435026I-147500J0D01*
G01*
X37875193Y-435026D01*
G75*
G02*
X37727693Y-287526I0J147500D01*
G01*
X37727693Y57474D01*
G75*
G02*
X37875193Y204974I147500J0D01*
G01*
X38170193Y204974D01*
G75*
G02*
X38317693Y57474I0J-147500D01*
G01*
G37*
G04 #@! TD*
G04 #@! TO.C,R5*
G36*
G01*
X76475213Y2676642D02*
X76475213Y2331642D01*
G75*
G02*
X76327713Y2184142I-147500J0D01*
G01*
X76032713Y2184142D01*
G75*
G02*
X75885213Y2331642I0J147500D01*
G01*
X75885213Y2676642D01*
G75*
G02*
X76032713Y2824142I147500J0D01*
G01*
X76327713Y2824142D01*
G75*
G02*
X76475213Y2676642I0J-147500D01*
G01*
G37*
G36*
G01*
X75505213Y2676642D02*
X75505213Y2331642D01*
G75*
G02*
X75357713Y2184142I-147500J0D01*
G01*
X75062713Y2184142D01*
G75*
G02*
X74915213Y2331642I0J147500D01*
G01*
X74915213Y2676642D01*
G75*
G02*
X75062713Y2824142I147500J0D01*
G01*
X75357713Y2824142D01*
G75*
G02*
X75505213Y2676642I0J-147500D01*
G01*
G37*
G04 #@! TD*
G04 #@! TO.C,C29*
G36*
G01*
X62469775Y-303079D02*
X62124775Y-303079D01*
G75*
G02*
X61977275Y-155579I0J147500D01*
G01*
X61977275Y139421D01*
G75*
G02*
X62124775Y286921I147500J0D01*
G01*
X62469775Y286921D01*
G75*
G02*
X62617275Y139421I0J-147500D01*
G01*
X62617275Y-155579D01*
G75*
G02*
X62469775Y-303079I-147500J0D01*
G01*
G37*
G36*
G01*
X62469775Y666921D02*
X62124775Y666921D01*
G75*
G02*
X61977275Y814421I0J147500D01*
G01*
X61977275Y1109421D01*
G75*
G02*
X62124775Y1256921I147500J0D01*
G01*
X62469775Y1256921D01*
G75*
G02*
X62617275Y1109421I0J-147500D01*
G01*
X62617275Y814421D01*
G75*
G02*
X62469775Y666921I-147500J0D01*
G01*
G37*
G04 #@! TD*
G04 #@! TO.C,C17*
G36*
G01*
X66078599Y-3621184D02*
X66078599Y-3966184D01*
G75*
G02*
X65931099Y-4113684I-147500J0D01*
G01*
X65636099Y-4113684D01*
G75*
G02*
X65488599Y-3966184I0J147500D01*
G01*
X65488599Y-3621184D01*
G75*
G02*
X65636099Y-3473684I147500J0D01*
G01*
X65931099Y-3473684D01*
G75*
G02*
X66078599Y-3621184I0J-147500D01*
G01*
G37*
G36*
G01*
X65108599Y-3621184D02*
X65108599Y-3966184D01*
G75*
G02*
X64961099Y-4113684I-147500J0D01*
G01*
X64666099Y-4113684D01*
G75*
G02*
X64518599Y-3966184I0J147500D01*
G01*
X64518599Y-3621184D01*
G75*
G02*
X64666099Y-3473684I147500J0D01*
G01*
X64961099Y-3473684D01*
G75*
G02*
X65108599Y-3621184I0J-147500D01*
G01*
G37*
G04 #@! TD*
G04 #@! TO.C,C27*
G36*
G01*
X64533354Y3813907D02*
X64533354Y4158907D01*
G75*
G02*
X64680854Y4306407I147500J0D01*
G01*
X64975854Y4306407D01*
G75*
G02*
X65123354Y4158907I0J-147500D01*
G01*
X65123354Y3813907D01*
G75*
G02*
X64975854Y3666407I-147500J0D01*
G01*
X64680854Y3666407D01*
G75*
G02*
X64533354Y3813907I0J147500D01*
G01*
G37*
G36*
G01*
X65503354Y3813907D02*
X65503354Y4158907D01*
G75*
G02*
X65650854Y4306407I147500J0D01*
G01*
X65945854Y4306407D01*
G75*
G02*
X66093354Y4158907I0J-147500D01*
G01*
X66093354Y3813907D01*
G75*
G02*
X65945854Y3666407I-147500J0D01*
G01*
X65650854Y3666407D01*
G75*
G02*
X65503354Y3813907I0J147500D01*
G01*
G37*
G04 #@! TD*
D23*
G04 #@! TO.C,U2*
X44050000Y3962500D03*
X43550000Y3962500D03*
X43050000Y3962500D03*
X42550000Y3962500D03*
D24*
X42287500Y3200000D03*
X42287500Y2700000D03*
X42287500Y2200000D03*
D23*
X42550000Y1437500D03*
X43050000Y1437500D03*
X43550000Y1437500D03*
X44050000Y1437500D03*
D24*
X44312500Y2200000D03*
X44312500Y2700000D03*
X44312500Y3200000D03*
G04 #@! TD*
G04 #@! TO.C,Y1*
G36*
X46935330Y-315034D02*
G01*
X47501016Y-880720D01*
X46864620Y-1517116D01*
X46298934Y-951430D01*
X46935330Y-315034D01*
G37*
G36*
X45945381Y-1304983D02*
G01*
X46511067Y-1870669D01*
X45874671Y-2507065D01*
X45308985Y-1941379D01*
X45945381Y-1304983D01*
G37*
G36*
X46723198Y-2082800D02*
G01*
X47288884Y-2648486D01*
X46652488Y-3284882D01*
X46086802Y-2719196D01*
X46723198Y-2082800D01*
G37*
G36*
X47713147Y-1092851D02*
G01*
X48278833Y-1658537D01*
X47642437Y-2294933D01*
X47076751Y-1729247D01*
X47713147Y-1092851D01*
G37*
G04 #@! TD*
G04 #@! TO.C,R15*
G36*
G01*
X32479975Y4396610D02*
X32824975Y4396610D01*
G75*
G02*
X32972475Y4249110I0J-147500D01*
G01*
X32972475Y3954110D01*
G75*
G02*
X32824975Y3806610I-147500J0D01*
G01*
X32479975Y3806610D01*
G75*
G02*
X32332475Y3954110I0J147500D01*
G01*
X32332475Y4249110D01*
G75*
G02*
X32479975Y4396610I147500J0D01*
G01*
G37*
G36*
G01*
X32479975Y3426610D02*
X32824975Y3426610D01*
G75*
G02*
X32972475Y3279110I0J-147500D01*
G01*
X32972475Y2984110D01*
G75*
G02*
X32824975Y2836610I-147500J0D01*
G01*
X32479975Y2836610D01*
G75*
G02*
X32332475Y2984110I0J147500D01*
G01*
X32332475Y3279110D01*
G75*
G02*
X32479975Y3426610I147500J0D01*
G01*
G37*
G04 #@! TD*
G04 #@! TO.C,C22*
G36*
G01*
X44806391Y-2758411D02*
X45050343Y-2514459D01*
G75*
G02*
X45258939Y-2514459I104298J-104298D01*
G01*
X45467535Y-2723055D01*
G75*
G02*
X45467535Y-2931651I-104298J-104298D01*
G01*
X45223583Y-3175603D01*
G75*
G02*
X45014987Y-3175603I-104298J104298D01*
G01*
X44806391Y-2967007D01*
G75*
G02*
X44806391Y-2758411I104298J104298D01*
G01*
G37*
G36*
G01*
X45492285Y-3444305D02*
X45736237Y-3200353D01*
G75*
G02*
X45944833Y-3200353I104298J-104298D01*
G01*
X46153429Y-3408949D01*
G75*
G02*
X46153429Y-3617545I-104298J-104298D01*
G01*
X45909477Y-3861497D01*
G75*
G02*
X45700881Y-3861497I-104298J104298D01*
G01*
X45492285Y-3652901D01*
G75*
G02*
X45492285Y-3444305I104298J104298D01*
G01*
G37*
G04 #@! TD*
G04 #@! TO.C,C14*
G36*
G01*
X52305000Y-2272500D02*
X52305000Y-1927500D01*
G75*
G02*
X52452500Y-1780000I147500J0D01*
G01*
X52747500Y-1780000D01*
G75*
G02*
X52895000Y-1927500I0J-147500D01*
G01*
X52895000Y-2272500D01*
G75*
G02*
X52747500Y-2420000I-147500J0D01*
G01*
X52452500Y-2420000D01*
G75*
G02*
X52305000Y-2272500I0J147500D01*
G01*
G37*
G36*
G01*
X53275000Y-2272500D02*
X53275000Y-1927500D01*
G75*
G02*
X53422500Y-1780000I147500J0D01*
G01*
X53717500Y-1780000D01*
G75*
G02*
X53865000Y-1927500I0J-147500D01*
G01*
X53865000Y-2272500D01*
G75*
G02*
X53717500Y-2420000I-147500J0D01*
G01*
X53422500Y-2420000D01*
G75*
G02*
X53275000Y-2272500I0J147500D01*
G01*
G37*
G04 #@! TD*
G04 #@! TO.C,R16*
G36*
G01*
X37720000Y927500D02*
X37720000Y1272500D01*
G75*
G02*
X37867500Y1420000I147500J0D01*
G01*
X38162500Y1420000D01*
G75*
G02*
X38310000Y1272500I0J-147500D01*
G01*
X38310000Y927500D01*
G75*
G02*
X38162500Y780000I-147500J0D01*
G01*
X37867500Y780000D01*
G75*
G02*
X37720000Y927500I0J147500D01*
G01*
G37*
G36*
G01*
X38690000Y927500D02*
X38690000Y1272500D01*
G75*
G02*
X38837500Y1420000I147500J0D01*
G01*
X39132500Y1420000D01*
G75*
G02*
X39280000Y1272500I0J-147500D01*
G01*
X39280000Y927500D01*
G75*
G02*
X39132500Y780000I-147500J0D01*
G01*
X38837500Y780000D01*
G75*
G02*
X38690000Y927500I0J147500D01*
G01*
G37*
G04 #@! TD*
G04 #@! TO.C,C11*
G36*
G01*
X76607049Y-2463448D02*
X76607049Y-2808448D01*
G75*
G02*
X76459549Y-2955948I-147500J0D01*
G01*
X76164549Y-2955948D01*
G75*
G02*
X76017049Y-2808448I0J147500D01*
G01*
X76017049Y-2463448D01*
G75*
G02*
X76164549Y-2315948I147500J0D01*
G01*
X76459549Y-2315948D01*
G75*
G02*
X76607049Y-2463448I0J-147500D01*
G01*
G37*
G36*
G01*
X75637049Y-2463448D02*
X75637049Y-2808448D01*
G75*
G02*
X75489549Y-2955948I-147500J0D01*
G01*
X75194549Y-2955948D01*
G75*
G02*
X75047049Y-2808448I0J147500D01*
G01*
X75047049Y-2463448D01*
G75*
G02*
X75194549Y-2315948I147500J0D01*
G01*
X75489549Y-2315948D01*
G75*
G02*
X75637049Y-2463448I0J-147500D01*
G01*
G37*
G04 #@! TD*
M02*
