G04 #@! TF.GenerationSoftware,KiCad,Pcbnew,(5.99.0-3540-g0818bd05d)*
G04 #@! TF.CreationDate,2020-09-30T20:14:19-07:00*
G04 #@! TF.ProjectId,RT_USB_PD_Soldering_Iron,52545f55-5342-45f5-9044-5f536f6c6465,rev?*
G04 #@! TF.SameCoordinates,PX5f5e100PY7735940*
G04 #@! TF.FileFunction,Copper,L3,Inr*
G04 #@! TF.FilePolarity,Positive*
%FSLAX46Y46*%
G04 Gerber Fmt 4.6, Leading zero omitted, Abs format (unit mm)*
G04 Created by KiCad (PCBNEW (5.99.0-3540-g0818bd05d)) date 2020-09-30 20:14:19*
%MOMM*%
%LPD*%
G01*
G04 APERTURE LIST*
G04 #@! TA.AperFunction,ViaPad*
%ADD10C,0.800000*%
G04 #@! TD*
G04 #@! TA.AperFunction,ViaPad*
%ADD11C,0.560000*%
G04 #@! TD*
G04 #@! TA.AperFunction,ViaPad*
%ADD12C,1.000000*%
G04 #@! TD*
G04 #@! TA.AperFunction,ViaPad*
%ADD13C,0.700000*%
G04 #@! TD*
G04 #@! TA.AperFunction,Conductor*
%ADD14C,0.500000*%
G04 #@! TD*
G04 #@! TA.AperFunction,Conductor*
%ADD15C,0.254000*%
G04 #@! TD*
G04 #@! TA.AperFunction,Conductor*
%ADD16C,2.000000*%
G04 #@! TD*
G04 #@! TA.AperFunction,Conductor*
%ADD17C,0.300000*%
G04 #@! TD*
G04 APERTURE END LIST*
D10*
G04 #@! TO.N,+3V3*
X47500000Y-2800000D03*
D11*
G04 #@! TO.N,GND*
X41750000Y800000D03*
G04 #@! TO.N,/I2C1_SDA*
X56900000Y2100000D03*
G04 #@! TO.N,/I2C1_SCL*
X56900000Y1200000D03*
G04 #@! TO.N,/CC1*
X77800000Y-100000D03*
G04 #@! TO.N,Net-(C10-Pad1)*
X64000000Y-100000D03*
G04 #@! TO.N,Net-(R5-Pad2)*
X64449349Y1017183D03*
D10*
G04 #@! TO.N,+3V3*
X62300000Y-1000000D03*
X64000000Y-1000000D03*
D11*
G04 #@! TO.N,GND*
X62900000Y-100000D03*
G04 #@! TO.N,/I2C1_SDA*
X51400000Y-2700000D03*
G04 #@! TO.N,/DISP_RST#*
X52200000Y-3100000D03*
G04 #@! TO.N,/USB_DM*
X73000000Y4000000D03*
G04 #@! TO.N,/USB_DP*
X77100000Y3200000D03*
D10*
G04 #@! TO.N,+3V3*
X74300000Y-1500000D03*
D11*
G04 #@! TO.N,IN*
X23400000Y300000D03*
X23400000Y-700000D03*
X24100000Y800000D03*
D12*
X81700000Y2400000D03*
X74400000Y-4500000D03*
D11*
X24100000Y-200000D03*
D12*
X73000000Y-4500000D03*
X81700000Y-2400000D03*
X23650000Y-4500000D03*
D11*
X24100000Y-1200000D03*
D10*
G04 #@! TO.N,+3V3*
X34700000Y1450000D03*
X33400000Y-1300000D03*
X56800000Y0D03*
D11*
X48700000Y4600000D03*
D13*
X30200000Y4000000D03*
D10*
X46500000Y4400000D03*
X39000000Y4000000D03*
D11*
G04 #@! TO.N,/BTN1*
X69570952Y-2900000D03*
X53300000Y-2800000D03*
G04 #@! TO.N,/BTN2*
X67100000Y4700000D03*
X50100000Y4700000D03*
G04 #@! TO.N,Net-(C10-Pad1)*
X71900000Y100000D03*
G04 #@! TO.N,/HEATER*
X18600000Y-700000D03*
X19300000Y-700000D03*
X19700000Y-1200000D03*
X20800000Y-100000D03*
X18600000Y-100000D03*
X18950000Y-1200000D03*
X20450000Y-1200000D03*
X18600000Y500000D03*
X20100000Y-700000D03*
X20800000Y500000D03*
X20800000Y-700000D03*
G04 #@! TO.N,/OSC_IN*
X45400000Y-3200000D03*
G04 #@! TO.N,/OSC_OUT*
X44900000Y-2600000D03*
G04 #@! TO.N,/TEMP_SENS*
X34900000Y3266790D03*
X44500000Y-1500000D03*
G04 #@! TO.N,/USB_DP*
X52080045Y3419790D03*
G04 #@! TO.N,/CC2*
X84400000Y1700000D03*
X74600000Y-100000D03*
X54395563Y-1495563D03*
G04 #@! TO.N,/USB_DM*
X51000000Y3501874D03*
G04 #@! TO.N,/CC1*
X50800000Y-2081180D03*
G04 #@! TO.N,/TIP_TC*
X27700000Y4100000D03*
X7100000Y4100000D03*
G04 #@! TO.N,/I2C1_SCL*
X61600000Y1550000D03*
X51578164Y700000D03*
G04 #@! TO.N,/I2C1_SDA*
X63400000Y2200000D03*
G04 #@! TO.N,/VSENSE*
X29700000Y-600000D03*
X37100000Y-2900000D03*
G04 #@! TO.N,/HEAT_ON*
X39000000Y2700000D03*
X26500000Y-2200000D03*
G04 #@! TO.N,Net-(R16-Pad1)*
X32750000Y1600000D03*
G04 #@! TO.N,Net-(R17-Pad2)*
X30800000Y-2300000D03*
G04 #@! TO.N,/INT0*
X44100000Y200000D03*
X36450000Y1900000D03*
G04 #@! TO.N,/SPI1_MISO*
X38400000Y1300000D03*
G04 #@! TO.N,/SPI1_NSS*
X38800000Y-712413D03*
G04 #@! TO.N,/SPI1_MOSI*
X39770964Y2462091D03*
G04 #@! TO.N,/SPI1_SCK*
X38854437Y45563D03*
G04 #@! TO.N,/DISP_RST#*
X61200000Y900000D03*
G04 #@! TO.N,/NRST*
X52964354Y2740590D03*
X45200000Y-1900000D03*
G04 #@! TO.N,GND*
X20400000Y3300000D03*
X45600000Y4733210D03*
X38400000Y3300000D03*
X25300000Y-525000D03*
X1300000Y-4850000D03*
X26600000Y-3200000D03*
X40058981Y-2132145D03*
X4700000Y-3650000D03*
X71900000Y1300000D03*
X29100000Y1900000D03*
X19750000Y3300000D03*
X48587573Y-2781163D03*
X21050000Y3300000D03*
X25300000Y-1150000D03*
X47400000Y4800000D03*
X33100000Y4800000D03*
X26000000Y3300000D03*
X19100000Y3300000D03*
X4700000Y-4850000D03*
X10500000Y-3700000D03*
X1300000Y-3650000D03*
X66900000Y1800000D03*
X31800000Y-200000D03*
X49900000Y800000D03*
X46100000Y800000D03*
X31800000Y1800000D03*
X73400000Y-3200000D03*
X48000000Y2700000D03*
X18450000Y3300000D03*
X18000000Y-4900000D03*
X80200000Y2000000D03*
X25300000Y750000D03*
X61600000Y2800000D03*
X43300000Y-2500000D03*
X76500000Y-4800000D03*
X42400000Y800000D03*
X10500000Y-4800000D03*
X29850000Y-2300000D03*
X56800000Y-1100000D03*
X50100000Y3600000D03*
X76200000Y4000165D03*
X48000000Y-1100000D03*
X1300000Y-4250000D03*
X69900000Y2700000D03*
X4700000Y-4250000D03*
X35400000Y-700000D03*
X25300000Y125000D03*
X19200000Y-3700000D03*
X35400000Y2100000D03*
X73100000Y1900000D03*
X78200000Y2300000D03*
X18800000Y-4100000D03*
X31800000Y-2500000D03*
X18400000Y-4500000D03*
G04 #@! TO.N,/HEATER_PG*
X27000000Y2400000D03*
G04 #@! TD*
D14*
G04 #@! TO.N,+3V3*
X47200001Y3699999D02*
X47200001Y-2500001D01*
X47200001Y-2500001D02*
X47500000Y-2800000D01*
X46500000Y4400000D02*
X47200001Y3699999D01*
D15*
G04 #@! TO.N,/I2C1_SDA*
X51400000Y-2700000D02*
X56200000Y2100000D01*
X56200000Y2100000D02*
X56900000Y2100000D01*
G04 #@! TO.N,/DISP_RST#*
X52479999Y-3379999D02*
X52200000Y-3100000D01*
X56920001Y-3379999D02*
X52479999Y-3379999D01*
X61200000Y900000D02*
X56920001Y-3379999D01*
D16*
G04 #@! TO.N,IN*
X81700000Y-2400000D02*
X81700000Y-1692894D01*
X81700000Y-1692894D02*
X81700000Y2400000D01*
D14*
G04 #@! TO.N,+3V3*
X34700000Y1450000D02*
X32150000Y4000000D01*
X34700000Y0D02*
X33400000Y-1300000D01*
X34700000Y1450000D02*
X34700000Y0D01*
X32150000Y4000000D02*
X30200000Y4000000D01*
D17*
G04 #@! TO.N,/TEMP_SENS*
X41900000Y-1300000D02*
X37333210Y3266790D01*
X44500000Y-1500000D02*
X41900000Y-1500000D01*
X37333210Y3266790D02*
X34900000Y3266790D01*
G04 #@! TD*
G04 #@! TA.AperFunction,Conductor*
G04 #@! TO.N,GND*
G36*
X89800000Y-5300000D02*
G01*
X75055098Y-5300000D01*
X75017498Y-5289925D01*
X74989973Y-5262400D01*
X74979898Y-5224800D01*
X74989973Y-5187200D01*
X75001924Y-5171626D01*
X75079912Y-5093638D01*
X75102673Y-5066514D01*
X75102679Y-5066507D01*
X75128914Y-5029041D01*
X75128916Y-5029038D01*
X75172670Y-4966551D01*
X75190380Y-4935876D01*
X75206370Y-4901585D01*
X75241947Y-4825291D01*
X75254059Y-4792011D01*
X75255238Y-4787614D01*
X75285641Y-4674145D01*
X75291792Y-4639265D01*
X75297502Y-4573999D01*
X82494288Y-4573999D01*
X82517897Y-4633782D01*
X82579802Y-4735796D01*
X82658011Y-4825924D01*
X82750286Y-4901585D01*
X82853996Y-4960620D01*
X82966159Y-5001333D01*
X83083586Y-5022568D01*
X83096999Y-5023200D01*
X83446000Y-5023200D01*
X83953999Y-5023200D01*
X84279461Y-5023200D01*
X84368906Y-5015610D01*
X84484402Y-4985633D01*
X84593210Y-4936619D01*
X84692194Y-4869979D01*
X84778536Y-4787614D01*
X84849770Y-4691872D01*
X84903851Y-4585501D01*
X84907422Y-4574000D01*
X83953999Y-4573999D01*
X86824288Y-4573999D01*
X86847897Y-4633782D01*
X86909802Y-4735796D01*
X86988011Y-4825924D01*
X87080286Y-4901585D01*
X87183996Y-4960620D01*
X87296159Y-5001333D01*
X87413586Y-5022568D01*
X87426999Y-5023200D01*
X87626000Y-5023200D01*
X88133999Y-5023200D01*
X88309461Y-5023200D01*
X88398906Y-5015610D01*
X88514402Y-4985633D01*
X88623210Y-4936619D01*
X88722194Y-4869979D01*
X88808536Y-4787614D01*
X88879770Y-4691872D01*
X88933851Y-4585501D01*
X88937422Y-4574000D01*
X88133999Y-4573999D01*
X88133999Y-5023200D01*
X87626000Y-5023200D01*
X87626000Y-4574000D01*
X86824288Y-4573999D01*
X83953999Y-4573999D01*
X83953999Y-5023200D01*
X83446000Y-5023200D01*
X83446000Y-4574000D01*
X82494288Y-4573999D01*
X75297502Y-4573999D01*
X75302427Y-4517711D01*
X75302427Y-4482289D01*
X75291792Y-4360735D01*
X75285641Y-4325855D01*
X75254061Y-4207995D01*
X75241947Y-4174710D01*
X75191255Y-4066000D01*
X82492578Y-4066000D01*
X83446001Y-4066001D01*
X83446001Y-3616800D01*
X83954000Y-3616800D01*
X83954000Y-4066000D01*
X84905712Y-4066001D01*
X84905712Y-4066000D01*
X86822578Y-4066000D01*
X87626001Y-4066001D01*
X87626001Y-3616800D01*
X88134000Y-3616800D01*
X88134000Y-4066000D01*
X88935712Y-4066001D01*
X88912103Y-4006218D01*
X88850198Y-3904204D01*
X88771989Y-3814076D01*
X88679714Y-3738415D01*
X88576004Y-3679380D01*
X88463841Y-3638667D01*
X88346414Y-3617432D01*
X88333001Y-3616800D01*
X88134000Y-3616800D01*
X87626001Y-3616800D01*
X87450539Y-3616800D01*
X87361094Y-3624390D01*
X87245598Y-3654367D01*
X87136790Y-3703381D01*
X87037806Y-3770021D01*
X86951464Y-3852386D01*
X86880230Y-3948128D01*
X86826149Y-4054499D01*
X86822578Y-4066000D01*
X84905712Y-4066000D01*
X84882103Y-4006218D01*
X84820198Y-3904204D01*
X84741989Y-3814076D01*
X84649714Y-3738415D01*
X84546004Y-3679380D01*
X84433841Y-3638667D01*
X84316414Y-3617432D01*
X84303001Y-3616800D01*
X83954000Y-3616800D01*
X83446001Y-3616800D01*
X83120539Y-3616800D01*
X83031094Y-3624390D01*
X82915598Y-3654367D01*
X82806790Y-3703381D01*
X82707806Y-3770021D01*
X82621464Y-3852386D01*
X82550230Y-3948128D01*
X82496149Y-4054499D01*
X82492578Y-4066000D01*
X75191255Y-4066000D01*
X75190380Y-4064124D01*
X75172670Y-4033449D01*
X75172668Y-4033445D01*
X75128916Y-3970962D01*
X75102678Y-3933491D01*
X75079912Y-3906362D01*
X74993638Y-3820088D01*
X74966514Y-3797326D01*
X74966507Y-3797321D01*
X74929041Y-3771086D01*
X74929038Y-3771084D01*
X74866551Y-3727330D01*
X74866548Y-3727328D01*
X74835879Y-3709620D01*
X74725293Y-3658053D01*
X74692008Y-3645939D01*
X74692007Y-3645939D01*
X74692005Y-3645938D01*
X74574143Y-3614358D01*
X74574142Y-3614358D01*
X74574139Y-3614357D01*
X74539268Y-3608208D01*
X74465254Y-3601733D01*
X74417709Y-3597573D01*
X74417704Y-3597573D01*
X74417695Y-3597572D01*
X74400009Y-3596800D01*
X57280585Y-3596800D01*
X57242985Y-3586725D01*
X57215460Y-3559200D01*
X57205385Y-3521600D01*
X57215460Y-3484000D01*
X57227411Y-3468426D01*
X57750325Y-2945512D01*
X69137937Y-2945512D01*
X69157250Y-3034836D01*
X69157812Y-3037437D01*
X69186502Y-3100099D01*
X69196961Y-3122943D01*
X69253559Y-3198052D01*
X69253561Y-3198054D01*
X69324965Y-3259255D01*
X69374571Y-3285853D01*
X69407848Y-3303696D01*
X69498341Y-3329303D01*
X69592221Y-3334880D01*
X69592223Y-3334880D01*
X69667601Y-3322941D01*
X69685109Y-3320168D01*
X69772671Y-3285853D01*
X69850822Y-3233536D01*
X69878515Y-3204658D01*
X69915914Y-3165659D01*
X69935826Y-3133038D01*
X69964914Y-3085384D01*
X69991230Y-3008956D01*
X69995532Y-2996463D01*
X69999787Y-2959686D01*
X70006341Y-2903040D01*
X70006341Y-2902925D01*
X70006353Y-2900002D01*
X69996195Y-2806505D01*
X69995026Y-2803030D01*
X69966198Y-2717371D01*
X69947260Y-2685853D01*
X69917762Y-2636758D01*
X69853144Y-2568427D01*
X69849071Y-2565659D01*
X69775360Y-2515565D01*
X69688040Y-2480639D01*
X69614267Y-2468426D01*
X69595258Y-2465279D01*
X69595257Y-2465279D01*
X69501340Y-2470201D01*
X69473238Y-2477941D01*
X69410671Y-2495174D01*
X69358008Y-2522941D01*
X69327479Y-2539037D01*
X69257643Y-2598054D01*
X69255646Y-2599742D01*
X69198528Y-2674448D01*
X69198526Y-2674451D01*
X69158781Y-2759686D01*
X69138265Y-2851466D01*
X69137937Y-2945512D01*
X57750325Y-2945512D01*
X58136583Y-2559254D01*
X59644531Y-1051306D01*
X61746975Y-1051306D01*
X61759444Y-1116983D01*
X61766653Y-1154952D01*
X61785885Y-1203402D01*
X61805576Y-1253011D01*
X61862338Y-1341937D01*
X61934894Y-1418529D01*
X62020625Y-1480020D01*
X62116428Y-1524186D01*
X62116432Y-1524187D01*
X62218865Y-1549442D01*
X62236135Y-1550332D01*
X62324225Y-1554872D01*
X62428711Y-1540281D01*
X62528558Y-1506192D01*
X62620152Y-1453842D01*
X62700192Y-1385118D01*
X62733021Y-1343772D01*
X62765798Y-1302493D01*
X62814594Y-1208955D01*
X62833966Y-1144179D01*
X62844822Y-1107880D01*
X62850518Y-1051306D01*
X63446975Y-1051306D01*
X63459444Y-1116983D01*
X63466653Y-1154952D01*
X63485885Y-1203402D01*
X63505576Y-1253011D01*
X63562338Y-1341937D01*
X63634894Y-1418529D01*
X63720625Y-1480020D01*
X63816428Y-1524186D01*
X63816432Y-1524187D01*
X63918865Y-1549442D01*
X63936135Y-1550332D01*
X64024225Y-1554872D01*
X64049761Y-1551306D01*
X73746975Y-1551306D01*
X73756922Y-1603696D01*
X73766653Y-1654952D01*
X73776986Y-1680983D01*
X73805576Y-1753011D01*
X73862338Y-1841937D01*
X73934894Y-1918529D01*
X74020625Y-1980020D01*
X74116428Y-2024186D01*
X74116432Y-2024187D01*
X74218865Y-2049442D01*
X74236135Y-2050332D01*
X74324225Y-2054872D01*
X74428711Y-2040281D01*
X74528558Y-2006192D01*
X74620152Y-1953842D01*
X74700192Y-1885118D01*
X74744672Y-1829099D01*
X74765798Y-1802493D01*
X74814594Y-1708955D01*
X74834636Y-1641938D01*
X74837237Y-1633241D01*
X80496300Y-1633241D01*
X80496300Y-2439196D01*
X80503576Y-2553260D01*
X80532749Y-2704048D01*
X80579398Y-2845512D01*
X80580844Y-2849897D01*
X80647081Y-2988455D01*
X80683505Y-3044865D01*
X80730389Y-3117476D01*
X80829411Y-3234862D01*
X80878607Y-3280020D01*
X80942551Y-3338717D01*
X80942554Y-3338719D01*
X80942556Y-3338721D01*
X81008583Y-3385384D01*
X81067968Y-3427353D01*
X81203631Y-3499335D01*
X81347341Y-3553495D01*
X81440333Y-3575563D01*
X81496771Y-3588957D01*
X81649489Y-3605142D01*
X81649490Y-3605142D01*
X81803030Y-3601792D01*
X81954895Y-3578960D01*
X81966505Y-3575664D01*
X82102637Y-3537014D01*
X82120672Y-3529303D01*
X82243848Y-3476637D01*
X82376241Y-3398807D01*
X82478213Y-3319852D01*
X82497674Y-3304784D01*
X82606175Y-3196094D01*
X82622636Y-3174758D01*
X82647956Y-3141938D01*
X82699985Y-3074498D01*
X82777585Y-2941969D01*
X82779772Y-2936830D01*
X83722390Y-2936830D01*
X83723426Y-2941969D01*
X83741561Y-3031909D01*
X83753169Y-3059255D01*
X83779460Y-3121194D01*
X83834538Y-3201033D01*
X83904544Y-3268166D01*
X83986620Y-3319852D01*
X84077412Y-3353979D01*
X84134891Y-3363083D01*
X84173209Y-3369152D01*
X84173211Y-3369152D01*
X84270105Y-3364752D01*
X84364135Y-3340958D01*
X84371425Y-3337434D01*
X84451457Y-3298747D01*
X84454446Y-3296462D01*
X84528514Y-3239832D01*
X84532835Y-3234862D01*
X84592148Y-3166630D01*
X84639763Y-3082126D01*
X84669413Y-2989777D01*
X84672682Y-2959686D01*
X84679888Y-2893350D01*
X84679888Y-2893287D01*
X84679901Y-2890003D01*
X84670098Y-2793502D01*
X84641093Y-2700946D01*
X84594071Y-2616117D01*
X84594070Y-2616115D01*
X84530948Y-2542470D01*
X84454308Y-2483022D01*
X84367280Y-2440198D01*
X84273418Y-2415749D01*
X84176557Y-2410673D01*
X84176554Y-2410673D01*
X84080659Y-2425176D01*
X84080658Y-2425176D01*
X84080654Y-2425177D01*
X83989626Y-2458669D01*
X83989621Y-2458671D01*
X83907191Y-2509779D01*
X83836718Y-2576422D01*
X83781084Y-2655876D01*
X83742564Y-2744891D01*
X83727720Y-2815945D01*
X83722729Y-2839837D01*
X83722390Y-2936830D01*
X82779772Y-2936830D01*
X82837714Y-2800658D01*
X82879402Y-2652843D01*
X82901971Y-2500927D01*
X82903700Y-2459654D01*
X82903700Y1654488D01*
X83966985Y1654488D01*
X83986017Y1566464D01*
X83986860Y1562563D01*
X84017196Y1496306D01*
X84026009Y1477057D01*
X84074606Y1412566D01*
X84082609Y1401946D01*
X84154013Y1340745D01*
X84197472Y1317443D01*
X84236896Y1296304D01*
X84327389Y1270697D01*
X84421269Y1265120D01*
X84421271Y1265120D01*
X84483194Y1274928D01*
X84514157Y1279832D01*
X84601719Y1314147D01*
X84679870Y1366464D01*
X84695372Y1382629D01*
X84744962Y1434341D01*
X84756680Y1453538D01*
X84793962Y1514616D01*
X84822315Y1596960D01*
X84824580Y1603537D01*
X84829786Y1648535D01*
X84835389Y1696960D01*
X84835389Y1697075D01*
X84835401Y1699998D01*
X84825243Y1793495D01*
X84824297Y1796306D01*
X84795246Y1882629D01*
X84776026Y1914616D01*
X84746810Y1963242D01*
X84682192Y2031573D01*
X84682191Y2031574D01*
X84604408Y2084435D01*
X84517088Y2119361D01*
X84454037Y2129799D01*
X84424306Y2134721D01*
X84424305Y2134721D01*
X84330388Y2129799D01*
X84302286Y2122059D01*
X84239719Y2104826D01*
X84197622Y2082630D01*
X84156527Y2060963D01*
X84090099Y2004826D01*
X84084694Y2000258D01*
X84027576Y1925552D01*
X84027574Y1925549D01*
X83987829Y1840314D01*
X83967313Y1748534D01*
X83966985Y1654488D01*
X82903700Y1654488D01*
X82903700Y2439197D01*
X82896424Y2553261D01*
X82867251Y2704049D01*
X82854351Y2743170D01*
X83722390Y2743170D01*
X83722391Y2743166D01*
X83741561Y2648091D01*
X83760635Y2603156D01*
X83779460Y2558806D01*
X83834538Y2478967D01*
X83904544Y2411834D01*
X83928148Y2396970D01*
X83981707Y2363242D01*
X83986620Y2360148D01*
X84077412Y2326021D01*
X84134891Y2316917D01*
X84173209Y2310848D01*
X84173211Y2310848D01*
X84270105Y2315248D01*
X84364135Y2339042D01*
X84389983Y2351537D01*
X84451457Y2381253D01*
X84453258Y2382630D01*
X84528514Y2440168D01*
X84530573Y2442536D01*
X84592148Y2513370D01*
X84632191Y2584435D01*
X84639762Y2597872D01*
X84641995Y2604825D01*
X84669413Y2690223D01*
X84675164Y2743166D01*
X84679888Y2786650D01*
X84679888Y2786713D01*
X84679901Y2789997D01*
X84670098Y2886498D01*
X84641093Y2979054D01*
X84594801Y3062566D01*
X84594070Y3063885D01*
X84530948Y3137530D01*
X84454308Y3196978D01*
X84367280Y3239802D01*
X84273418Y3264251D01*
X84176557Y3269327D01*
X84176554Y3269327D01*
X84080659Y3254824D01*
X84080658Y3254824D01*
X84080654Y3254823D01*
X83989626Y3221331D01*
X83989621Y3221329D01*
X83907191Y3170221D01*
X83836718Y3103578D01*
X83781084Y3024124D01*
X83742564Y2935109D01*
X83722729Y2840164D01*
X83722729Y2840163D01*
X83722390Y2743170D01*
X82854351Y2743170D01*
X82819157Y2849896D01*
X82801660Y2886497D01*
X82752919Y2988456D01*
X82677780Y3104825D01*
X82669611Y3117477D01*
X82570589Y3234861D01*
X82555693Y3248535D01*
X82457449Y3338717D01*
X82457446Y3338719D01*
X82457444Y3338721D01*
X82332035Y3427351D01*
X82332034Y3427351D01*
X82332032Y3427353D01*
X82197313Y3498834D01*
X82196373Y3499333D01*
X82196372Y3499333D01*
X82196369Y3499335D01*
X82052659Y3553495D01*
X81934773Y3581471D01*
X81903229Y3588957D01*
X81750511Y3605142D01*
X81750510Y3605142D01*
X81673741Y3603467D01*
X81596970Y3601792D01*
X81445105Y3578960D01*
X81445102Y3578959D01*
X81445101Y3578959D01*
X81384604Y3561783D01*
X81297363Y3537014D01*
X81156152Y3476637D01*
X81111791Y3450558D01*
X81023758Y3398806D01*
X80915941Y3315325D01*
X80902326Y3304783D01*
X80793825Y3196093D01*
X80771445Y3167084D01*
X80700016Y3074498D01*
X80628369Y2952136D01*
X80622414Y2941965D01*
X80562287Y2800658D01*
X80520599Y2652843D01*
X80498030Y2500927D01*
X80496301Y2459654D01*
X80496300Y-1633241D01*
X74837237Y-1633241D01*
X74844822Y-1607880D01*
X74855392Y-1502908D01*
X74855400Y-1499997D01*
X74845381Y-1394978D01*
X74822613Y-1317370D01*
X74815681Y-1293742D01*
X74794703Y-1253011D01*
X74767376Y-1199952D01*
X74702204Y-1116983D01*
X74622522Y-1047840D01*
X74600120Y-1034880D01*
X74531202Y-995010D01*
X74431540Y-960402D01*
X74327131Y-945263D01*
X74230671Y-949728D01*
X74221741Y-950141D01*
X74179166Y-960402D01*
X74119179Y-974859D01*
X74119177Y-974860D01*
X74023141Y-1018524D01*
X73965722Y-1059255D01*
X73937090Y-1079565D01*
X73864135Y-1155775D01*
X73806907Y-1244405D01*
X73806344Y-1245802D01*
X73767472Y-1342257D01*
X73747251Y-1445801D01*
X73746975Y-1551306D01*
X64049761Y-1551306D01*
X64128711Y-1540281D01*
X64228558Y-1506192D01*
X64320152Y-1453842D01*
X64400192Y-1385118D01*
X64433021Y-1343772D01*
X64465798Y-1302493D01*
X64514594Y-1208955D01*
X64533966Y-1144179D01*
X64544822Y-1107880D01*
X64555392Y-1002908D01*
X64555400Y-999997D01*
X64545381Y-894978D01*
X64520121Y-808876D01*
X64515681Y-793742D01*
X64493225Y-750141D01*
X64467376Y-699952D01*
X64402204Y-616983D01*
X64322524Y-547841D01*
X64291309Y-529783D01*
X64231202Y-495010D01*
X64231199Y-495009D01*
X64224589Y-491185D01*
X64344964Y-365656D01*
X64363749Y-334880D01*
X64393962Y-285384D01*
X64420278Y-208956D01*
X64424580Y-196463D01*
X64427618Y-170201D01*
X64435389Y-103040D01*
X64435392Y-102235D01*
X64435401Y-100002D01*
X64425243Y-6505D01*
X64425243Y-6504D01*
X64404717Y54488D01*
X71466985Y54488D01*
X71484202Y-25142D01*
X71486860Y-37437D01*
X71519112Y-107880D01*
X71526009Y-122943D01*
X71582607Y-198052D01*
X71582609Y-198054D01*
X71654013Y-259255D01*
X71703619Y-285853D01*
X71736896Y-303696D01*
X71827389Y-329303D01*
X71921269Y-334880D01*
X71921271Y-334880D01*
X71996636Y-322943D01*
X72014157Y-320168D01*
X72101719Y-285853D01*
X72179870Y-233536D01*
X72184148Y-229075D01*
X72244962Y-165659D01*
X72257259Y-145512D01*
X74166985Y-145512D01*
X74186017Y-233536D01*
X74186860Y-237437D01*
X74221773Y-313691D01*
X74226009Y-322943D01*
X74282607Y-398052D01*
X74282609Y-398054D01*
X74354013Y-459255D01*
X74402291Y-485141D01*
X74436896Y-503696D01*
X74527389Y-529303D01*
X74621269Y-534880D01*
X74621271Y-534880D01*
X74688788Y-524186D01*
X74714157Y-520168D01*
X74801719Y-485853D01*
X74879870Y-433536D01*
X74895372Y-417371D01*
X74944962Y-365659D01*
X74963749Y-334880D01*
X74993962Y-285384D01*
X75020278Y-208956D01*
X75024580Y-196463D01*
X75027618Y-170201D01*
X75030474Y-145512D01*
X77366985Y-145512D01*
X77386017Y-233536D01*
X77386860Y-237437D01*
X77421773Y-313691D01*
X77426009Y-322943D01*
X77482607Y-398052D01*
X77482609Y-398054D01*
X77554013Y-459255D01*
X77602291Y-485141D01*
X77636896Y-503696D01*
X77727389Y-529303D01*
X77821269Y-534880D01*
X77821271Y-534880D01*
X77888788Y-524186D01*
X77914157Y-520168D01*
X78001719Y-485853D01*
X78079870Y-433536D01*
X78095372Y-417371D01*
X78144962Y-365659D01*
X78163749Y-334880D01*
X78193962Y-285384D01*
X78220278Y-208956D01*
X78224580Y-196463D01*
X78227618Y-170201D01*
X78235389Y-103040D01*
X78235392Y-102235D01*
X78235401Y-100002D01*
X78225243Y-6505D01*
X78225243Y-6504D01*
X78195246Y82629D01*
X78181428Y105627D01*
X78146810Y163242D01*
X78082192Y231573D01*
X78080821Y232505D01*
X78004408Y284435D01*
X77917088Y319361D01*
X77854037Y329799D01*
X77824306Y334721D01*
X77824305Y334721D01*
X77730388Y329799D01*
X77702286Y322059D01*
X77639719Y304826D01*
X77592315Y279832D01*
X77556527Y260963D01*
X77485094Y200596D01*
X77484694Y200258D01*
X77427576Y125552D01*
X77427574Y125549D01*
X77387829Y40314D01*
X77367313Y-51466D01*
X77366985Y-145512D01*
X75030474Y-145512D01*
X75035389Y-103040D01*
X75035392Y-102235D01*
X75035401Y-100002D01*
X75025243Y-6505D01*
X75025243Y-6504D01*
X74995246Y82629D01*
X74981428Y105627D01*
X74946810Y163242D01*
X74882192Y231573D01*
X74880821Y232505D01*
X74804408Y284435D01*
X74717088Y319361D01*
X74654037Y329799D01*
X74624306Y334721D01*
X74624305Y334721D01*
X74530388Y329799D01*
X74502286Y322059D01*
X74439719Y304826D01*
X74392315Y279832D01*
X74356527Y260963D01*
X74285094Y200596D01*
X74284694Y200258D01*
X74227576Y125552D01*
X74227574Y125549D01*
X74187829Y40314D01*
X74167313Y-51466D01*
X74166985Y-145512D01*
X72257259Y-145512D01*
X72266261Y-130765D01*
X72293962Y-85384D01*
X72320447Y-8465D01*
X72324580Y3537D01*
X72328835Y40314D01*
X72335389Y96960D01*
X72335389Y97075D01*
X72335401Y99998D01*
X72325243Y193495D01*
X72323148Y199721D01*
X72295246Y282629D01*
X72273383Y319016D01*
X72246810Y363242D01*
X72182192Y431573D01*
X72178119Y434341D01*
X72104408Y484435D01*
X72017088Y519361D01*
X71943315Y531574D01*
X71924306Y534721D01*
X71924305Y534721D01*
X71830388Y529799D01*
X71802286Y522059D01*
X71739719Y504826D01*
X71692315Y479832D01*
X71656527Y460963D01*
X71586691Y401946D01*
X71584694Y400258D01*
X71527576Y325552D01*
X71527574Y325549D01*
X71487829Y240314D01*
X71467313Y148534D01*
X71466985Y54488D01*
X64404717Y54488D01*
X64395246Y82629D01*
X64381428Y105627D01*
X64346810Y163242D01*
X64282192Y231573D01*
X64280821Y232505D01*
X64204408Y284435D01*
X64117088Y319361D01*
X64054037Y329799D01*
X64024306Y334721D01*
X64024305Y334721D01*
X63930388Y329799D01*
X63902286Y322059D01*
X63839719Y304826D01*
X63792315Y279832D01*
X63756527Y260963D01*
X63685094Y200596D01*
X63684694Y200258D01*
X63627576Y125552D01*
X63627574Y125549D01*
X63587829Y40314D01*
X63567313Y-51466D01*
X63566985Y-145512D01*
X63586017Y-233536D01*
X63586860Y-237437D01*
X63621773Y-313691D01*
X63626009Y-322943D01*
X63682607Y-398052D01*
X63742249Y-449171D01*
X63777870Y-479702D01*
X63715159Y-524187D01*
X63637090Y-579565D01*
X63564135Y-655775D01*
X63506907Y-744405D01*
X63487189Y-793332D01*
X63467472Y-842257D01*
X63447251Y-945801D01*
X63446975Y-1051306D01*
X62850518Y-1051306D01*
X62855392Y-1002908D01*
X62855400Y-999997D01*
X62845381Y-894978D01*
X62820121Y-808876D01*
X62815681Y-793742D01*
X62793225Y-750141D01*
X62767376Y-699952D01*
X62702204Y-616983D01*
X62622522Y-547840D01*
X62591309Y-529783D01*
X62531202Y-495010D01*
X62431540Y-460402D01*
X62327131Y-445263D01*
X62230671Y-449728D01*
X62221741Y-450141D01*
X62182137Y-459686D01*
X62119179Y-474859D01*
X62119177Y-474860D01*
X62023141Y-518524D01*
X61958169Y-564613D01*
X61937090Y-579565D01*
X61864135Y-655775D01*
X61806907Y-744405D01*
X61787189Y-793332D01*
X61767472Y-842257D01*
X61747251Y-945801D01*
X61746975Y-1051306D01*
X59644531Y-1051306D01*
X61164341Y468502D01*
X61183317Y467375D01*
X61221269Y465120D01*
X61221271Y465120D01*
X61285928Y475361D01*
X61314157Y479832D01*
X61401719Y514147D01*
X61479870Y566464D01*
X61495059Y582303D01*
X61544962Y634341D01*
X61559360Y657929D01*
X61593962Y714616D01*
X61621122Y793496D01*
X61624580Y803537D01*
X61625807Y814147D01*
X61635389Y896960D01*
X61635392Y897765D01*
X61635401Y899998D01*
X61627615Y971671D01*
X64016334Y971671D01*
X64035586Y882629D01*
X64036209Y879746D01*
X64071101Y803538D01*
X64075358Y794240D01*
X64127120Y725549D01*
X64131958Y719129D01*
X64203362Y657928D01*
X64255825Y629798D01*
X64286245Y613487D01*
X64376738Y587880D01*
X64470618Y582303D01*
X64470620Y582303D01*
X64532543Y592111D01*
X64563506Y597015D01*
X64651068Y631330D01*
X64729219Y683647D01*
X64741995Y696970D01*
X64794311Y751524D01*
X64819930Y793495D01*
X64843311Y831799D01*
X64868456Y904826D01*
X64873929Y920720D01*
X64877147Y948535D01*
X64884738Y1014143D01*
X64884740Y1014616D01*
X64884750Y1017181D01*
X64874592Y1110678D01*
X64871670Y1119361D01*
X64844595Y1199812D01*
X64830777Y1222810D01*
X64796159Y1280425D01*
X64731541Y1348756D01*
X64731540Y1348757D01*
X64653757Y1401618D01*
X64566437Y1436544D01*
X64503386Y1446982D01*
X64473655Y1451904D01*
X64473654Y1451904D01*
X64379737Y1446982D01*
X64355529Y1440314D01*
X64289068Y1422009D01*
X64244849Y1398694D01*
X64205876Y1378146D01*
X64134045Y1317443D01*
X64134043Y1317441D01*
X64094040Y1265120D01*
X64076923Y1242732D01*
X64037178Y1157497D01*
X64016662Y1065717D01*
X64016334Y971671D01*
X61627615Y971671D01*
X61625243Y993496D01*
X61586183Y1109562D01*
X61695512Y1126879D01*
X61714157Y1129832D01*
X61801719Y1164147D01*
X61879870Y1216464D01*
X61879872Y1216466D01*
X61944962Y1284341D01*
X61965167Y1317443D01*
X61993962Y1364616D01*
X62020027Y1440314D01*
X62024580Y1453537D01*
X62029528Y1496306D01*
X62035389Y1546960D01*
X62035389Y1547075D01*
X62035401Y1549998D01*
X62025243Y1643495D01*
X62025243Y1643496D01*
X61995246Y1732629D01*
X61972372Y1770698D01*
X61946810Y1813242D01*
X61882192Y1881573D01*
X61882191Y1881574D01*
X61804408Y1934435D01*
X61717088Y1969361D01*
X61654037Y1979799D01*
X61624306Y1984721D01*
X61624305Y1984721D01*
X61530388Y1979799D01*
X61502286Y1972059D01*
X61439719Y1954826D01*
X61400871Y1934343D01*
X61356527Y1910963D01*
X61300058Y1863242D01*
X61284694Y1850258D01*
X61227576Y1775552D01*
X61227574Y1775549D01*
X61187829Y1690314D01*
X61167313Y1598534D01*
X61166985Y1504488D01*
X61186859Y1412566D01*
X61186860Y1412563D01*
X61200575Y1349131D01*
X61039719Y1304826D01*
X60993440Y1280425D01*
X60956527Y1260963D01*
X60898967Y1212320D01*
X60884694Y1200258D01*
X60827576Y1125552D01*
X60827574Y1125549D01*
X60798205Y1062566D01*
X60787829Y1040314D01*
X60767313Y948535D01*
X60767013Y862851D01*
X56804064Y-3100099D01*
X53757944Y-3100099D01*
X53720344Y-3090024D01*
X53692819Y-3062499D01*
X53682744Y-3024899D01*
X53691647Y-2993227D01*
X53691302Y-2993108D01*
X53693364Y-2987119D01*
X53693758Y-2985718D01*
X53693961Y-2985385D01*
X53693962Y-2985384D01*
X53722315Y-2903040D01*
X53724580Y-2896463D01*
X53727127Y-2874451D01*
X53735389Y-2803040D01*
X53735398Y-2800653D01*
X53735401Y-2800002D01*
X53725243Y-2706505D01*
X53724077Y-2703040D01*
X53695246Y-2617371D01*
X53670642Y-2576423D01*
X53646810Y-2536758D01*
X53582192Y-2468427D01*
X53578119Y-2465659D01*
X53504408Y-2415565D01*
X53417088Y-2380639D01*
X53354037Y-2370201D01*
X53324306Y-2365279D01*
X53324305Y-2365279D01*
X53230388Y-2370201D01*
X53202286Y-2377941D01*
X53139719Y-2395174D01*
X53098356Y-2416983D01*
X53056527Y-2439037D01*
X52986691Y-2498054D01*
X52984694Y-2499742D01*
X52927576Y-2574448D01*
X52927574Y-2574451D01*
X52887829Y-2659686D01*
X52867313Y-2751466D01*
X52866985Y-2845512D01*
X52886859Y-2937434D01*
X52886861Y-2937438D01*
X52886861Y-2937439D01*
X52961333Y-3100099D01*
X52635411Y-3100099D01*
X52626689Y-3019816D01*
X52625243Y-3006504D01*
X52595246Y-2917371D01*
X52576026Y-2885384D01*
X52546810Y-2836758D01*
X52482192Y-2768427D01*
X52482191Y-2768426D01*
X52404408Y-2715565D01*
X52317088Y-2680639D01*
X52254037Y-2670201D01*
X52224306Y-2665279D01*
X52224305Y-2665279D01*
X52130388Y-2670201D01*
X52089665Y-2681418D01*
X52039717Y-2695175D01*
X51973901Y-2729876D01*
X51935942Y-2738501D01*
X51898757Y-2726990D01*
X51872309Y-2698428D01*
X51863684Y-2660469D01*
X51885655Y-2610182D01*
X52954762Y-1541075D01*
X53962548Y-1541075D01*
X53981624Y-1629303D01*
X53982423Y-1633000D01*
X54020401Y-1715949D01*
X54021572Y-1718506D01*
X54078170Y-1793615D01*
X54078172Y-1793617D01*
X54149576Y-1854818D01*
X54197733Y-1880639D01*
X54232459Y-1899259D01*
X54322952Y-1924866D01*
X54416832Y-1930443D01*
X54416834Y-1930443D01*
X54492054Y-1918529D01*
X54509720Y-1915731D01*
X54597282Y-1881416D01*
X54675433Y-1829099D01*
X54675435Y-1829097D01*
X54740525Y-1761222D01*
X54765554Y-1720217D01*
X54789525Y-1680947D01*
X54814684Y-1607880D01*
X54820143Y-1592026D01*
X54822873Y-1568426D01*
X54830952Y-1498603D01*
X54830954Y-1498052D01*
X54830964Y-1495565D01*
X54820806Y-1402068D01*
X54818420Y-1394978D01*
X54790809Y-1312934D01*
X54776991Y-1289936D01*
X54742373Y-1232321D01*
X54677755Y-1163990D01*
X54677754Y-1163989D01*
X54599971Y-1111128D01*
X54512651Y-1076202D01*
X54446670Y-1065279D01*
X54419869Y-1060842D01*
X54419868Y-1060842D01*
X54325951Y-1065764D01*
X54297849Y-1073504D01*
X54235282Y-1090737D01*
X54188193Y-1115565D01*
X54152090Y-1134600D01*
X54097203Y-1180984D01*
X54080257Y-1195305D01*
X54036137Y-1253011D01*
X54023137Y-1270014D01*
X53983392Y-1355249D01*
X53962876Y-1447029D01*
X53962548Y-1541075D01*
X52954762Y-1541075D01*
X54062303Y-433534D01*
X54444531Y-51306D01*
X56246975Y-51306D01*
X56256645Y-102236D01*
X56266653Y-154952D01*
X56285885Y-203402D01*
X56305576Y-253011D01*
X56362338Y-341937D01*
X56434894Y-418529D01*
X56520625Y-480020D01*
X56616428Y-524186D01*
X56616432Y-524187D01*
X56718865Y-549442D01*
X56736135Y-550332D01*
X56824225Y-554872D01*
X56928711Y-540281D01*
X57028558Y-506192D01*
X57120152Y-453842D01*
X57200192Y-385118D01*
X57249561Y-322942D01*
X57265798Y-302493D01*
X57314594Y-208955D01*
X57337149Y-133536D01*
X57344822Y-107880D01*
X57355392Y-2908D01*
X57355400Y3D01*
X57345381Y105022D01*
X57319425Y193496D01*
X57315681Y206258D01*
X57293907Y248535D01*
X57267376Y300048D01*
X57202204Y383017D01*
X57122522Y452160D01*
X57103366Y463242D01*
X57031202Y504990D01*
X56931540Y539598D01*
X56827131Y554737D01*
X56730671Y550272D01*
X56721741Y549859D01*
X56679166Y539598D01*
X56619179Y525141D01*
X56619177Y525140D01*
X56523141Y481476D01*
X56472531Y445575D01*
X56437090Y420435D01*
X56364135Y344225D01*
X56306907Y255595D01*
X56287189Y206668D01*
X56267472Y157743D01*
X56247251Y54199D01*
X56246975Y-51306D01*
X54444531Y-51306D01*
X56315938Y1820100D01*
X56561430Y1820100D01*
X56582605Y1801950D01*
X56582607Y1801948D01*
X56624005Y1766466D01*
X56654015Y1740744D01*
X56699674Y1716262D01*
X56728051Y1689615D01*
X56739302Y1652350D01*
X56730413Y1614453D01*
X56699212Y1583468D01*
X56656527Y1560963D01*
X56614625Y1525552D01*
X56584694Y1500258D01*
X56533384Y1433148D01*
X56527574Y1425549D01*
X56487829Y1340314D01*
X56467313Y1248534D01*
X56466985Y1154488D01*
X56483635Y1077481D01*
X56486860Y1062563D01*
X56518482Y993496D01*
X56526009Y977057D01*
X56582607Y901948D01*
X56582609Y901946D01*
X56654013Y840745D01*
X56703619Y814147D01*
X56736896Y796304D01*
X56827389Y770697D01*
X56921269Y765120D01*
X56921271Y765120D01*
X56983194Y774928D01*
X57014157Y779832D01*
X57101719Y814147D01*
X57179870Y866464D01*
X57192610Y879749D01*
X57244962Y934341D01*
X57267748Y971671D01*
X57293962Y1014616D01*
X57324580Y1103538D01*
X57335389Y1196960D01*
X57335389Y1197075D01*
X57335401Y1199998D01*
X57325243Y1293495D01*
X57325243Y1293496D01*
X57295246Y1382629D01*
X57271584Y1422009D01*
X57246810Y1463242D01*
X57182192Y1531573D01*
X57168696Y1540745D01*
X57104408Y1584435D01*
X57104404Y1584437D01*
X57006922Y1650684D01*
X57153086Y1748534D01*
X57179870Y1766464D01*
X57188585Y1775552D01*
X57244962Y1834341D01*
X57273793Y1881574D01*
X57293962Y1914616D01*
X57323451Y2000258D01*
X57324580Y2003537D01*
X57327618Y2029799D01*
X57335389Y2096960D01*
X57335389Y2097075D01*
X57335401Y2099998D01*
X57329481Y2154488D01*
X62966985Y2154488D01*
X62986017Y2066464D01*
X62986860Y2062563D01*
X63024754Y1979798D01*
X63026009Y1977057D01*
X63082607Y1901948D01*
X63082609Y1901946D01*
X63154013Y1840745D01*
X63192517Y1820100D01*
X63236896Y1796304D01*
X63327389Y1770697D01*
X63421269Y1765120D01*
X63421271Y1765120D01*
X63487134Y1775552D01*
X63514157Y1779832D01*
X63601719Y1814147D01*
X63679870Y1866464D01*
X63695372Y1882629D01*
X63744962Y1934341D01*
X63766338Y1969361D01*
X63793962Y2014616D01*
X63822315Y2096960D01*
X63824580Y2103537D01*
X63827474Y2128555D01*
X63835389Y2196960D01*
X63835389Y2197075D01*
X63835401Y2199998D01*
X63825263Y2293315D01*
X63825243Y2293496D01*
X63795246Y2382629D01*
X63774847Y2416579D01*
X63746810Y2463242D01*
X63682192Y2531573D01*
X63646858Y2555586D01*
X63604408Y2584435D01*
X63517088Y2619361D01*
X63454037Y2629799D01*
X63424306Y2634721D01*
X63424305Y2634721D01*
X63330388Y2629799D01*
X63302286Y2622059D01*
X63239719Y2604826D01*
X63197622Y2582630D01*
X63156527Y2560963D01*
X63084696Y2500260D01*
X63084694Y2500258D01*
X63027576Y2425552D01*
X63027574Y2425549D01*
X62987829Y2340314D01*
X62967313Y2248534D01*
X62966985Y2154488D01*
X57329481Y2154488D01*
X57325243Y2193495D01*
X57324074Y2196970D01*
X57295246Y2282629D01*
X57275646Y2315249D01*
X57246810Y2363242D01*
X57182192Y2431573D01*
X57170984Y2439190D01*
X57104408Y2484435D01*
X57017088Y2519361D01*
X56943315Y2531574D01*
X56924306Y2534721D01*
X56924305Y2534721D01*
X56830388Y2529799D01*
X56802286Y2522059D01*
X56739719Y2504826D01*
X56656525Y2460962D01*
X56560602Y2379900D01*
X56203175Y2379900D01*
X56173424Y2381147D01*
X56148957Y2375408D01*
X56124057Y2371997D01*
X56111796Y2366691D01*
X56102778Y2364576D01*
X56098795Y2363642D01*
X56076774Y2351537D01*
X56053709Y2341555D01*
X56043331Y2333151D01*
X56031623Y2326715D01*
X56026153Y2321992D01*
X56023523Y2319361D01*
X56011693Y2307531D01*
X55994139Y2293316D01*
X55989101Y2286227D01*
X55987828Y2284435D01*
X55985938Y2281776D01*
X51439691Y-2264472D01*
X51330388Y-2270201D01*
X51315790Y-2274222D01*
X51276867Y-2274494D01*
X51243020Y-2255267D01*
X51223322Y-2221692D01*
X51224448Y-2185850D01*
X51223641Y-2185757D01*
X51225966Y-2165659D01*
X51235389Y-2084220D01*
X51235389Y-2084105D01*
X51235401Y-2081182D01*
X51225243Y-1987685D01*
X51225243Y-1987684D01*
X51195246Y-1898551D01*
X51171634Y-1859254D01*
X51146810Y-1817938D01*
X51082192Y-1749607D01*
X51082191Y-1749606D01*
X51004408Y-1696745D01*
X50917088Y-1661819D01*
X50854037Y-1651381D01*
X50824306Y-1646459D01*
X50824305Y-1646459D01*
X50730388Y-1651381D01*
X50702286Y-1659121D01*
X50639719Y-1676354D01*
X50585247Y-1705074D01*
X50556527Y-1720217D01*
X50485761Y-1780020D01*
X50484694Y-1780922D01*
X50428155Y-1854871D01*
X50427574Y-1855631D01*
X50387829Y-1940866D01*
X50367313Y-2032646D01*
X50366985Y-2126692D01*
X50381792Y-2195175D01*
X50386860Y-2218617D01*
X50425513Y-2303040D01*
X50426009Y-2304123D01*
X50482607Y-2379232D01*
X50482609Y-2379234D01*
X50554013Y-2440435D01*
X50609529Y-2470202D01*
X50636896Y-2484876D01*
X50727389Y-2510483D01*
X50821269Y-2516060D01*
X50821271Y-2516060D01*
X51004052Y-2487110D01*
X50987829Y-2559685D01*
X50987829Y-2559686D01*
X50967313Y-2651466D01*
X50966985Y-2745512D01*
X50979395Y-2802908D01*
X50986860Y-2837437D01*
X51019112Y-2907880D01*
X51026009Y-2922943D01*
X51081409Y-2996462D01*
X51082609Y-2998054D01*
X51154013Y-3059255D01*
X51203617Y-3085852D01*
X51236896Y-3103696D01*
X51327389Y-3129303D01*
X51421269Y-3134880D01*
X51421271Y-3134880D01*
X51496649Y-3122941D01*
X51514157Y-3120168D01*
X51601719Y-3085853D01*
X51601718Y-3085853D01*
X51601722Y-3085852D01*
X51650055Y-3053496D01*
X51686904Y-3040951D01*
X51725089Y-3048512D01*
X51754378Y-3074153D01*
X51767087Y-3116246D01*
X51766985Y-3145512D01*
X51786859Y-3237434D01*
X51786860Y-3237437D01*
X51818340Y-3306193D01*
X51826009Y-3322943D01*
X51882607Y-3398052D01*
X51882609Y-3398054D01*
X51960136Y-3464503D01*
X51982128Y-3496621D01*
X51985115Y-3535433D01*
X51968295Y-3570538D01*
X51936177Y-3592530D01*
X51911198Y-3596800D01*
X45795506Y-3596800D01*
X45757906Y-3586725D01*
X45730381Y-3559200D01*
X45720306Y-3521600D01*
X45741229Y-3469552D01*
X45744962Y-3465659D01*
X45768345Y-3427351D01*
X45793962Y-3385384D01*
X45816737Y-3319239D01*
X45824580Y-3296463D01*
X45826482Y-3280020D01*
X45835389Y-3203040D01*
X45835390Y-3202900D01*
X45835401Y-3200002D01*
X45825243Y-3106505D01*
X45822943Y-3099671D01*
X45795246Y-3017371D01*
X45772897Y-2980176D01*
X45746810Y-2936758D01*
X45682192Y-2868427D01*
X45682191Y-2868426D01*
X45604408Y-2815565D01*
X45517088Y-2780639D01*
X45424306Y-2765279D01*
X45424305Y-2765279D01*
X45419335Y-2765539D01*
X45315961Y-2770956D01*
X45324579Y-2696464D01*
X45324580Y-2696462D01*
X45335389Y-2603040D01*
X45335389Y-2602925D01*
X45335401Y-2600002D01*
X45325243Y-2506505D01*
X45325243Y-2506504D01*
X45295246Y-2417371D01*
X45292887Y-2413445D01*
X45251582Y-2344690D01*
X45314155Y-2320168D01*
X45314157Y-2320168D01*
X45401719Y-2285853D01*
X45479870Y-2233536D01*
X45505793Y-2206504D01*
X45544962Y-2165659D01*
X45568747Y-2126692D01*
X45593962Y-2085384D01*
X45617381Y-2017370D01*
X45624580Y-1996463D01*
X45626482Y-1980020D01*
X45635389Y-1903040D01*
X45635389Y-1902925D01*
X45635401Y-1900002D01*
X45625243Y-1806505D01*
X45620905Y-1793615D01*
X45595246Y-1717371D01*
X45573382Y-1680983D01*
X45546810Y-1636758D01*
X45482192Y-1568427D01*
X45482191Y-1568426D01*
X45404408Y-1515565D01*
X45317088Y-1480639D01*
X45254037Y-1470201D01*
X45224306Y-1465279D01*
X45224305Y-1465279D01*
X45130388Y-1470201D01*
X45065005Y-1488210D01*
X45039722Y-1495174D01*
X45039721Y-1495174D01*
X45039719Y-1495175D01*
X44956527Y-1539037D01*
X44956519Y-1539044D01*
X44940555Y-1547461D01*
X44935400Y-1500006D01*
X44935400Y-1500000D01*
X44925243Y-1406504D01*
X44895246Y-1317371D01*
X44881047Y-1293740D01*
X44846810Y-1236758D01*
X44782192Y-1168427D01*
X44782191Y-1168426D01*
X44704408Y-1115565D01*
X44617088Y-1080639D01*
X44554037Y-1070201D01*
X44524306Y-1065279D01*
X44524305Y-1065279D01*
X44430388Y-1070201D01*
X44402286Y-1077941D01*
X44339719Y-1095174D01*
X44256527Y-1139037D01*
X44187819Y-1197100D01*
X42185111Y-1197100D01*
X42164483Y-1147299D01*
X42127610Y-1099245D01*
X42127607Y-1099241D01*
X40873878Y154488D01*
X43666985Y154488D01*
X43683635Y77481D01*
X43686860Y62563D01*
X43716836Y-2908D01*
X43726009Y-22943D01*
X43777952Y-91874D01*
X43782609Y-98054D01*
X43854013Y-159255D01*
X43902853Y-185442D01*
X43936896Y-203696D01*
X44027389Y-229303D01*
X44121269Y-234880D01*
X44121271Y-234880D01*
X44183194Y-225072D01*
X44214157Y-220168D01*
X44301719Y-185853D01*
X44379870Y-133536D01*
X44390030Y-122941D01*
X44444962Y-65659D01*
X44456598Y-46596D01*
X44493962Y14616D01*
X44522315Y96960D01*
X44524580Y103537D01*
X44527127Y125552D01*
X44535389Y196960D01*
X44535389Y197075D01*
X44535401Y199998D01*
X44525243Y293495D01*
X44525243Y293496D01*
X44495246Y382629D01*
X44472530Y420435D01*
X44446810Y463242D01*
X44382192Y531573D01*
X44377560Y534721D01*
X44304408Y584435D01*
X44217088Y619361D01*
X44144789Y631330D01*
X44124306Y634721D01*
X44124305Y634721D01*
X44030388Y629799D01*
X44002286Y622059D01*
X43939719Y604826D01*
X43897002Y582303D01*
X43856527Y560963D01*
X43790292Y504989D01*
X43784694Y500258D01*
X43727576Y425552D01*
X43727574Y425549D01*
X43687829Y340314D01*
X43667313Y248534D01*
X43666985Y154488D01*
X40873878Y154488D01*
X38886929Y2141435D01*
X38867465Y2175146D01*
X38867465Y2214072D01*
X38886929Y2247783D01*
X38920640Y2267247D01*
X38944561Y2269677D01*
X39021269Y2265120D01*
X39021271Y2265120D01*
X39083194Y2274928D01*
X39114157Y2279832D01*
X39201719Y2314147D01*
X39279870Y2366464D01*
X39279872Y2366466D01*
X39324884Y2396599D01*
X39386985Y2260963D01*
X39396973Y2239148D01*
X39453571Y2164039D01*
X39453573Y2164037D01*
X39524977Y2102836D01*
X39562662Y2082630D01*
X39607860Y2058395D01*
X39698353Y2032788D01*
X39792233Y2027211D01*
X39792235Y2027211D01*
X39854158Y2037019D01*
X39885121Y2041923D01*
X39972683Y2076238D01*
X40050834Y2128555D01*
X40056383Y2134341D01*
X40115926Y2196432D01*
X40137376Y2231573D01*
X40164926Y2276707D01*
X40195544Y2365629D01*
X40206353Y2459051D01*
X40206355Y2459654D01*
X40206365Y2462089D01*
X40196207Y2555586D01*
X40196207Y2555587D01*
X40166210Y2644720D01*
X40152392Y2667718D01*
X40117774Y2725333D01*
X40053156Y2793664D01*
X40053155Y2793665D01*
X39975372Y2846526D01*
X39888052Y2881452D01*
X39804149Y2895342D01*
X39795270Y2896812D01*
X39795269Y2896812D01*
X39701352Y2891890D01*
X39681773Y2886497D01*
X39610683Y2866917D01*
X39559943Y2840164D01*
X39527491Y2823054D01*
X39455660Y2762351D01*
X39455657Y2762347D01*
X39440139Y2749233D01*
X39422834Y2800653D01*
X39395246Y2882629D01*
X39370857Y2923220D01*
X39346810Y2963242D01*
X39282192Y3031573D01*
X39282191Y3031574D01*
X39204408Y3084435D01*
X39117088Y3119361D01*
X39054037Y3129799D01*
X39024306Y3134721D01*
X39024305Y3134721D01*
X38930388Y3129799D01*
X38913056Y3125025D01*
X38839719Y3104826D01*
X38785247Y3076106D01*
X38756527Y3060963D01*
X38684696Y3000260D01*
X38684694Y3000258D01*
X38627576Y2925552D01*
X38627574Y2925549D01*
X38587829Y2840314D01*
X38567313Y2748534D01*
X38566985Y2654488D01*
X38566986Y2654486D01*
X38566957Y2646319D01*
X38565695Y2646323D01*
X38564356Y2618964D01*
X38543268Y2586245D01*
X38508646Y2568453D01*
X38469766Y2570356D01*
X38439583Y2588781D01*
X37560822Y3467542D01*
X37559312Y3469510D01*
X37549162Y3482738D01*
X37549160Y3482740D01*
X37485910Y3531274D01*
X37412253Y3561784D01*
X37352200Y3569690D01*
X37352194Y3569690D01*
X37333210Y3572189D01*
X37314226Y3569690D01*
X35209307Y3569690D01*
X35182191Y3598364D01*
X35104408Y3651225D01*
X35017088Y3686151D01*
X34970696Y3693831D01*
X34924306Y3701511D01*
X34924305Y3701511D01*
X34830388Y3696589D01*
X34802286Y3688849D01*
X34739719Y3671616D01*
X34689882Y3645339D01*
X34656527Y3627753D01*
X34587639Y3569537D01*
X34584694Y3567048D01*
X34532540Y3498834D01*
X34527574Y3492339D01*
X34487829Y3407104D01*
X34467313Y3315324D01*
X34466985Y3221278D01*
X34486764Y3129798D01*
X34486860Y3129353D01*
X34517440Y3062563D01*
X34526009Y3043847D01*
X34576986Y2976198D01*
X34582609Y2968736D01*
X34654013Y2907535D01*
X34702659Y2881452D01*
X34736896Y2863094D01*
X34827389Y2837487D01*
X34921269Y2831910D01*
X34921271Y2831910D01*
X34983194Y2841718D01*
X35014157Y2846622D01*
X35101719Y2880937D01*
X35101718Y2880937D01*
X35101722Y2880938D01*
X35179871Y2933254D01*
X35209250Y2963890D01*
X37207746Y2963890D01*
X38129712Y2041923D01*
X38417769Y1753866D01*
X38330389Y1729799D01*
X38330388Y1729799D01*
X38315532Y1725707D01*
X38239719Y1704826D01*
X38192315Y1679832D01*
X38156527Y1660963D01*
X38086691Y1601946D01*
X38084694Y1600258D01*
X38027576Y1525552D01*
X38027574Y1525549D01*
X37987829Y1440314D01*
X37967313Y1348534D01*
X37966985Y1254488D01*
X37986518Y1164147D01*
X37986860Y1162563D01*
X38013885Y1103538D01*
X38026009Y1077057D01*
X38073410Y1014153D01*
X38082609Y1001946D01*
X38154013Y940745D01*
X38193895Y919361D01*
X38236896Y896304D01*
X38327389Y870697D01*
X38421269Y865120D01*
X38421271Y865120D01*
X38483194Y874928D01*
X38514157Y879832D01*
X38601719Y914147D01*
X38679870Y966464D01*
X38713898Y1001948D01*
X38744962Y1034341D01*
X38793962Y1114616D01*
X38861341Y1310295D01*
X41603562Y-1431927D01*
X41594600Y-1500000D01*
X41605006Y-1579043D01*
X41635516Y-1652700D01*
X41684050Y-1715950D01*
X41747300Y-1764484D01*
X41820957Y-1794994D01*
X41881010Y-1802900D01*
X44188263Y-1802900D01*
X44254013Y-1859254D01*
X44336896Y-1903696D01*
X44427389Y-1929303D01*
X44521269Y-1934880D01*
X44521271Y-1934880D01*
X44584501Y-1924865D01*
X44614157Y-1920168D01*
X44637942Y-1910847D01*
X44749997Y-1866935D01*
X44766985Y-1945509D01*
X44766985Y-1945512D01*
X44786859Y-2037434D01*
X44792357Y-2049442D01*
X44845713Y-2165980D01*
X44739719Y-2195174D01*
X44695257Y-2218617D01*
X44656527Y-2239037D01*
X44590292Y-2295011D01*
X44584694Y-2299742D01*
X44527576Y-2374448D01*
X44527574Y-2374451D01*
X44487829Y-2459686D01*
X44467313Y-2551466D01*
X44466985Y-2645512D01*
X44482522Y-2717371D01*
X44486860Y-2737437D01*
X44515806Y-2800658D01*
X44526009Y-2822943D01*
X44579064Y-2893350D01*
X44582609Y-2898054D01*
X44654013Y-2959255D01*
X44705980Y-2987119D01*
X44736896Y-3003696D01*
X44827389Y-3029303D01*
X44921269Y-3034880D01*
X44921272Y-3034880D01*
X44992428Y-3039107D01*
X44977363Y-3106505D01*
X44967313Y-3151466D01*
X44966985Y-3245512D01*
X44983058Y-3319851D01*
X44986860Y-3337437D01*
X45014958Y-3398806D01*
X45026009Y-3422943D01*
X45061131Y-3469552D01*
X45066249Y-3476344D01*
X45080831Y-3512436D01*
X45075413Y-3550984D01*
X45051447Y-3581658D01*
X45006191Y-3596800D01*
X23599991Y-3596800D01*
X23582305Y-3597572D01*
X23582296Y-3597573D01*
X23582291Y-3597573D01*
X23534746Y-3601733D01*
X23460732Y-3608208D01*
X23425861Y-3614357D01*
X23425858Y-3614358D01*
X23425857Y-3614358D01*
X23307995Y-3645938D01*
X23307993Y-3645939D01*
X23307992Y-3645939D01*
X23274707Y-3658053D01*
X23164121Y-3709620D01*
X23133452Y-3727328D01*
X23133449Y-3727330D01*
X23070962Y-3771084D01*
X23070959Y-3771086D01*
X23033493Y-3797321D01*
X23033486Y-3797326D01*
X23013526Y-3814076D01*
X23006363Y-3820087D01*
X22920087Y-3906363D01*
X22897321Y-3933493D01*
X22871086Y-3970959D01*
X22871084Y-3970962D01*
X22827330Y-4033449D01*
X22809620Y-4064124D01*
X22758053Y-4174710D01*
X22745939Y-4207995D01*
X22714359Y-4325855D01*
X22708208Y-4360735D01*
X22697573Y-4482289D01*
X22697573Y-4517711D01*
X22708208Y-4639265D01*
X22714359Y-4674145D01*
X22744763Y-4787614D01*
X22745941Y-4792011D01*
X22758053Y-4825291D01*
X22809617Y-4935870D01*
X22827332Y-4966555D01*
X22866996Y-5023200D01*
X22871084Y-5029037D01*
X22897326Y-5066514D01*
X22920088Y-5093638D01*
X22998076Y-5171626D01*
X23017540Y-5205337D01*
X23017540Y-5244263D01*
X22998076Y-5277974D01*
X22964365Y-5297438D01*
X22944902Y-5300000D01*
X200000Y-5300000D01*
X200000Y-3202900D01*
X15478762Y-3202900D01*
X15484834Y-3204658D01*
X15484836Y-3204658D01*
X15489911Y-3204218D01*
X15505140Y-3202900D01*
X15513425Y-3202900D01*
X15520626Y-3201559D01*
X15538623Y-3200000D01*
X15700000Y-3200000D01*
X15700000Y-2945512D01*
X36666985Y-2945512D01*
X36686298Y-3034836D01*
X36686860Y-3037437D01*
X36715550Y-3100099D01*
X36726009Y-3122943D01*
X36782607Y-3198052D01*
X36782609Y-3198054D01*
X36854013Y-3259255D01*
X36903619Y-3285853D01*
X36936896Y-3303696D01*
X37027389Y-3329303D01*
X37121269Y-3334880D01*
X37121271Y-3334880D01*
X37196649Y-3322941D01*
X37214157Y-3320168D01*
X37301719Y-3285853D01*
X37379870Y-3233536D01*
X37407563Y-3204658D01*
X37444962Y-3165659D01*
X37464874Y-3133038D01*
X37493962Y-3085384D01*
X37520278Y-3008956D01*
X37524580Y-2996463D01*
X37528835Y-2959686D01*
X37535389Y-2903040D01*
X37535389Y-2902925D01*
X37535401Y-2900002D01*
X37525243Y-2806505D01*
X37524074Y-2803030D01*
X37495246Y-2717371D01*
X37476308Y-2685853D01*
X37446810Y-2636758D01*
X37382192Y-2568427D01*
X37378119Y-2565659D01*
X37304408Y-2515565D01*
X37217088Y-2480639D01*
X37143315Y-2468426D01*
X37124306Y-2465279D01*
X37124305Y-2465279D01*
X37030388Y-2470201D01*
X37002286Y-2477941D01*
X36939719Y-2495174D01*
X36887056Y-2522941D01*
X36856527Y-2539037D01*
X36786691Y-2598054D01*
X36784694Y-2599742D01*
X36727576Y-2674448D01*
X36727574Y-2674451D01*
X36687829Y-2759686D01*
X36667313Y-2851466D01*
X36666985Y-2945512D01*
X15700000Y-2945512D01*
X15700000Y-2245512D01*
X26066985Y-2245512D01*
X26078710Y-2299740D01*
X26086860Y-2337437D01*
X26113885Y-2396462D01*
X26126009Y-2422943D01*
X26182607Y-2498052D01*
X26182609Y-2498054D01*
X26254013Y-2559255D01*
X26303619Y-2585853D01*
X26336896Y-2603696D01*
X26427389Y-2629303D01*
X26521269Y-2634880D01*
X26521271Y-2634880D01*
X26583194Y-2625072D01*
X26614157Y-2620168D01*
X26701719Y-2585853D01*
X26779870Y-2533536D01*
X26796629Y-2516060D01*
X26844962Y-2465659D01*
X26853825Y-2451140D01*
X26893962Y-2385384D01*
X26907690Y-2345512D01*
X30366985Y-2345512D01*
X30383912Y-2423800D01*
X30386860Y-2437437D01*
X30415929Y-2500927D01*
X30426009Y-2522943D01*
X30482607Y-2598052D01*
X30482609Y-2598054D01*
X30554013Y-2659255D01*
X30593895Y-2680639D01*
X30636896Y-2703696D01*
X30727389Y-2729303D01*
X30821269Y-2734880D01*
X30821271Y-2734880D01*
X30883194Y-2725072D01*
X30914157Y-2720168D01*
X31001719Y-2685853D01*
X31079870Y-2633536D01*
X31079872Y-2633534D01*
X31144962Y-2565659D01*
X31164571Y-2533534D01*
X31193962Y-2485384D01*
X31224580Y-2396462D01*
X31235389Y-2303040D01*
X31235389Y-2302925D01*
X31235401Y-2300002D01*
X31225243Y-2206505D01*
X31224074Y-2203030D01*
X31195246Y-2117371D01*
X31173502Y-2081182D01*
X31146810Y-2036758D01*
X31082192Y-1968427D01*
X31060731Y-1953842D01*
X31004408Y-1915565D01*
X30917088Y-1880639D01*
X30843315Y-1868426D01*
X30824306Y-1865279D01*
X30824305Y-1865279D01*
X30730388Y-1870201D01*
X30702286Y-1877941D01*
X30639719Y-1895174D01*
X30595424Y-1918529D01*
X30556527Y-1939037D01*
X30498961Y-1987685D01*
X30484694Y-1999742D01*
X30438863Y-2059686D01*
X30427574Y-2074451D01*
X30387829Y-2159686D01*
X30367313Y-2251466D01*
X30366985Y-2345512D01*
X26907690Y-2345512D01*
X26922315Y-2303040D01*
X26924580Y-2296463D01*
X26928752Y-2260402D01*
X26935389Y-2203040D01*
X26935389Y-2202925D01*
X26935401Y-2200002D01*
X26925243Y-2106505D01*
X26916720Y-2081180D01*
X26895246Y-2017371D01*
X26877408Y-1987684D01*
X26846810Y-1936758D01*
X26782192Y-1868427D01*
X26777560Y-1865279D01*
X26704408Y-1815565D01*
X26617088Y-1780639D01*
X26554037Y-1770201D01*
X26524306Y-1765279D01*
X26524305Y-1765279D01*
X26430388Y-1770201D01*
X26402286Y-1777941D01*
X26339719Y-1795174D01*
X26296545Y-1817938D01*
X26256527Y-1839037D01*
X26184696Y-1899740D01*
X26184694Y-1899742D01*
X26127576Y-1974448D01*
X26127574Y-1974451D01*
X26087829Y-2059686D01*
X26067313Y-2151466D01*
X26066985Y-2245512D01*
X15700000Y-2245512D01*
X15700000Y454488D01*
X18166985Y454488D01*
X18186017Y366464D01*
X18186860Y362563D01*
X18226008Y277058D01*
X18235004Y265120D01*
X18282607Y201948D01*
X18282609Y201946D01*
X18284285Y199722D01*
X18227574Y125549D01*
X18187829Y40314D01*
X18167313Y-51466D01*
X18166985Y-145512D01*
X18186017Y-233536D01*
X18186860Y-237437D01*
X18226008Y-322942D01*
X18235004Y-334880D01*
X18282607Y-398052D01*
X18282609Y-398054D01*
X18284285Y-400278D01*
X18227574Y-474451D01*
X18187829Y-559686D01*
X18167313Y-651466D01*
X18166985Y-745512D01*
X18180685Y-808875D01*
X18186860Y-837437D01*
X18225815Y-922519D01*
X18226009Y-922943D01*
X18282607Y-998052D01*
X18282609Y-998054D01*
X18354013Y-1059255D01*
X18428595Y-1099245D01*
X18436896Y-1103696D01*
X18517401Y-1126477D01*
X18517314Y-1151462D01*
X18517313Y-1151466D01*
X18516985Y-1245512D01*
X18536859Y-1337434D01*
X18536860Y-1337437D01*
X18569112Y-1407880D01*
X18576009Y-1422943D01*
X18630733Y-1495565D01*
X18632609Y-1498054D01*
X18704013Y-1559255D01*
X18753619Y-1585853D01*
X18786896Y-1603696D01*
X18877389Y-1629303D01*
X18971269Y-1634880D01*
X18971271Y-1634880D01*
X19033194Y-1625072D01*
X19064157Y-1620168D01*
X19151719Y-1585853D01*
X19229870Y-1533536D01*
X19294963Y-1465657D01*
X19294964Y-1465655D01*
X19330369Y-1428735D01*
X19382606Y-1498052D01*
X19454013Y-1559255D01*
X19503619Y-1585853D01*
X19536896Y-1603696D01*
X19627389Y-1629303D01*
X19721269Y-1634880D01*
X19721271Y-1634880D01*
X19783194Y-1625072D01*
X19814157Y-1620168D01*
X19901719Y-1585853D01*
X19979870Y-1533536D01*
X20044963Y-1465657D01*
X20044964Y-1465655D01*
X20080369Y-1428735D01*
X20132606Y-1498052D01*
X20204013Y-1559255D01*
X20253619Y-1585853D01*
X20286896Y-1603696D01*
X20377389Y-1629303D01*
X20471269Y-1634880D01*
X20471271Y-1634880D01*
X20533194Y-1625072D01*
X20564157Y-1620168D01*
X20651719Y-1585853D01*
X20729870Y-1533536D01*
X20738836Y-1524186D01*
X20794962Y-1465659D01*
X20815552Y-1431927D01*
X20843962Y-1385384D01*
X20868909Y-1312933D01*
X20874580Y-1296463D01*
X20879607Y-1253010D01*
X20885389Y-1203040D01*
X20885389Y-1202924D01*
X20885401Y-1199999D01*
X20878258Y-1134236D01*
X20914155Y-1120168D01*
X20914157Y-1120168D01*
X21001719Y-1085853D01*
X21079870Y-1033536D01*
X21083930Y-1029302D01*
X21144962Y-965659D01*
X21157411Y-945264D01*
X21193962Y-885384D01*
X21224580Y-796462D01*
X21235389Y-703040D01*
X21235389Y-702925D01*
X21235401Y-700002D01*
X21225243Y-606505D01*
X21224074Y-603030D01*
X21195246Y-517371D01*
X21146809Y-436758D01*
X21146807Y-436756D01*
X21124364Y-399404D01*
X21153635Y-351450D01*
X21193962Y-285384D01*
X21220278Y-208956D01*
X21224580Y-196463D01*
X21227618Y-170201D01*
X21235389Y-103040D01*
X21235392Y-102235D01*
X21235401Y-100002D01*
X21225243Y-6505D01*
X21225243Y-6504D01*
X21195246Y82629D01*
X21146809Y163242D01*
X21146807Y163244D01*
X21124364Y200596D01*
X21156078Y252553D01*
X21156079Y252555D01*
X22916120Y252555D01*
X22935544Y156227D01*
X22973940Y65771D01*
X23029740Y-15116D01*
X23029742Y-15118D01*
X23100663Y-83130D01*
X23287357Y-200697D01*
X23103346Y-314789D01*
X23031949Y-382306D01*
X22975584Y-462803D01*
X22936560Y-552985D01*
X22936559Y-552988D01*
X22916463Y-649178D01*
X22916120Y-747445D01*
X22935544Y-843773D01*
X22973940Y-934229D01*
X23029740Y-1015116D01*
X23029742Y-1015118D01*
X23100663Y-1083130D01*
X23183816Y-1135494D01*
X23183818Y-1135495D01*
X23275802Y-1170070D01*
X23324331Y-1177756D01*
X23372857Y-1185442D01*
X23372860Y-1185442D01*
X23471026Y-1180984D01*
X23471030Y-1180983D01*
X23471031Y-1180983D01*
X23616483Y-1144179D01*
X23616466Y-1149166D01*
X23616463Y-1149178D01*
X23616120Y-1247445D01*
X23635544Y-1343773D01*
X23673940Y-1434229D01*
X23729740Y-1515116D01*
X23729742Y-1515118D01*
X23800663Y-1583130D01*
X23882841Y-1634880D01*
X23883818Y-1635495D01*
X23975802Y-1670070D01*
X24024331Y-1677756D01*
X24072857Y-1685442D01*
X24072860Y-1685442D01*
X24171026Y-1680984D01*
X24171030Y-1680983D01*
X24171031Y-1680983D01*
X24266286Y-1656881D01*
X24277663Y-1651381D01*
X24354762Y-1614110D01*
X24432827Y-1554425D01*
X24445123Y-1540280D01*
X24497295Y-1480263D01*
X24545536Y-1394650D01*
X24575575Y-1301087D01*
X24586188Y-1203402D01*
X24586189Y-1203030D01*
X24586200Y-1200000D01*
X24576269Y-1102236D01*
X24575332Y-1099245D01*
X24546884Y-1008464D01*
X24499245Y-922521D01*
X24475637Y-894978D01*
X24435293Y-847908D01*
X24357647Y-787679D01*
X24316626Y-767494D01*
X24287338Y-741854D01*
X24274793Y-705005D01*
X24282354Y-666820D01*
X24303810Y-645512D01*
X29266985Y-645512D01*
X29282105Y-715443D01*
X29286860Y-737437D01*
X29312639Y-793742D01*
X29326009Y-822943D01*
X29380291Y-894978D01*
X29382609Y-898054D01*
X29454013Y-959255D01*
X29503619Y-985853D01*
X29536896Y-1003696D01*
X29627389Y-1029303D01*
X29721269Y-1034880D01*
X29721271Y-1034880D01*
X29783194Y-1025072D01*
X29814157Y-1020168D01*
X29901719Y-985853D01*
X29979870Y-933536D01*
X30013898Y-898052D01*
X30044962Y-865659D01*
X30059246Y-842257D01*
X30093962Y-785384D01*
X30119088Y-712413D01*
X30124580Y-696463D01*
X30126371Y-680984D01*
X30135389Y-603040D01*
X30135389Y-602925D01*
X30135401Y-600002D01*
X30125243Y-506505D01*
X30121375Y-495011D01*
X30095246Y-417371D01*
X30074177Y-382306D01*
X30046810Y-336758D01*
X29982192Y-268427D01*
X29977560Y-265279D01*
X29904408Y-215565D01*
X29817088Y-180639D01*
X29754037Y-170201D01*
X29724306Y-165279D01*
X29724305Y-165279D01*
X29630388Y-170201D01*
X29602286Y-177941D01*
X29539719Y-195174D01*
X29492452Y-220096D01*
X29456527Y-239037D01*
X29393352Y-292425D01*
X29384694Y-299742D01*
X29327576Y-374448D01*
X29327574Y-374451D01*
X29287829Y-459686D01*
X29267313Y-551466D01*
X29266985Y-645512D01*
X24303810Y-645512D01*
X24317097Y-632318D01*
X24354762Y-614110D01*
X24432827Y-554425D01*
X24449817Y-534880D01*
X24497295Y-480263D01*
X24545536Y-394650D01*
X24575575Y-301087D01*
X24586188Y-203402D01*
X24586188Y-203309D01*
X24586200Y-200000D01*
X24576269Y-102236D01*
X24575569Y-100002D01*
X24546884Y-8464D01*
X24499245Y77479D01*
X24475637Y105022D01*
X24435293Y152092D01*
X24357647Y212321D01*
X24316626Y232506D01*
X24287338Y258146D01*
X24274793Y294995D01*
X24282354Y333180D01*
X24317097Y367682D01*
X24354762Y385890D01*
X24432827Y445575D01*
X24440575Y454488D01*
X24497295Y519737D01*
X24545536Y605350D01*
X24575575Y698913D01*
X24586188Y796598D01*
X24586188Y796691D01*
X24586200Y800000D01*
X24576269Y897764D01*
X24575569Y899998D01*
X24546884Y991536D01*
X24499245Y1077479D01*
X24475805Y1104826D01*
X24435293Y1152092D01*
X24357647Y1212321D01*
X24269476Y1255707D01*
X24174382Y1280477D01*
X24076249Y1285620D01*
X24076247Y1285620D01*
X23979089Y1270926D01*
X23966962Y1266464D01*
X23886864Y1236994D01*
X23803347Y1185211D01*
X23803346Y1185210D01*
X23731949Y1117694D01*
X23675584Y1037197D01*
X23636560Y947015D01*
X23636559Y947012D01*
X23618976Y862850D01*
X23616463Y850821D01*
X23616086Y743565D01*
X23569479Y755705D01*
X23569476Y755707D01*
X23474382Y780477D01*
X23376249Y785620D01*
X23376247Y785620D01*
X23279089Y770926D01*
X23278467Y770697D01*
X23186864Y736994D01*
X23103347Y685211D01*
X23103346Y685210D01*
X23031949Y617694D01*
X22975584Y537197D01*
X22938020Y450389D01*
X22936559Y447012D01*
X22916463Y350822D01*
X22916120Y252555D01*
X21156079Y252555D01*
X21193962Y314616D01*
X21223451Y400258D01*
X21224580Y403537D01*
X21227641Y429998D01*
X21235389Y496960D01*
X21235389Y497075D01*
X21235401Y499998D01*
X21225243Y593495D01*
X21225243Y593496D01*
X21195246Y682629D01*
X21173315Y719129D01*
X21146810Y763242D01*
X21082192Y831573D01*
X21082191Y831574D01*
X21004408Y884435D01*
X20917088Y919361D01*
X20854037Y929799D01*
X20824306Y934721D01*
X20824305Y934721D01*
X20730388Y929799D01*
X20702286Y922059D01*
X20639719Y904826D01*
X20597622Y882630D01*
X20556527Y860963D01*
X20501129Y814147D01*
X20484694Y800258D01*
X20431416Y730574D01*
X20427574Y725549D01*
X20387829Y640314D01*
X20367313Y548534D01*
X20366985Y454488D01*
X20386017Y366464D01*
X20386860Y362563D01*
X20426008Y277058D01*
X20435004Y265120D01*
X20482607Y201948D01*
X20482609Y201946D01*
X20484285Y199722D01*
X20427574Y125549D01*
X20387829Y40314D01*
X20367313Y-51466D01*
X20367027Y-133534D01*
X20366985Y-145514D01*
X20383268Y-220825D01*
X20381366Y-259705D01*
X20360279Y-292425D01*
X20325657Y-310218D01*
X20281839Y-306538D01*
X20253430Y-295175D01*
X20217088Y-280639D01*
X20154037Y-270201D01*
X20124306Y-265279D01*
X20124305Y-265279D01*
X20030388Y-270201D01*
X20002286Y-277941D01*
X19939719Y-295174D01*
X19894671Y-318926D01*
X19856527Y-339037D01*
X19790719Y-394650D01*
X19784696Y-399740D01*
X19707403Y-500833D01*
X19582192Y-368427D01*
X19578119Y-365659D01*
X19504408Y-315565D01*
X19417088Y-280639D01*
X19354037Y-270201D01*
X19324306Y-265279D01*
X19324305Y-265279D01*
X19230388Y-270201D01*
X19185054Y-282688D01*
X19139721Y-295174D01*
X19125524Y-302659D01*
X19087565Y-311283D01*
X19050380Y-299772D01*
X19023931Y-271210D01*
X19015307Y-233251D01*
X19019349Y-211656D01*
X19024580Y-196465D01*
X19027618Y-170201D01*
X19035389Y-103040D01*
X19035392Y-102235D01*
X19035401Y-100002D01*
X19025243Y-6505D01*
X19025243Y-6504D01*
X18995246Y82629D01*
X18946809Y163242D01*
X18946807Y163244D01*
X18924364Y200596D01*
X18956078Y252553D01*
X18993962Y314616D01*
X19023451Y400258D01*
X19024580Y403537D01*
X19027641Y429998D01*
X19035389Y496960D01*
X19035389Y497075D01*
X19035401Y499998D01*
X19025243Y593495D01*
X19025243Y593496D01*
X18995246Y682629D01*
X18973315Y719129D01*
X18946810Y763242D01*
X18882192Y831573D01*
X18882191Y831574D01*
X18804408Y884435D01*
X18717088Y919361D01*
X18654037Y929799D01*
X18624306Y934721D01*
X18624305Y934721D01*
X18530388Y929799D01*
X18502286Y922059D01*
X18439719Y904826D01*
X18397622Y882630D01*
X18356527Y860963D01*
X18301129Y814147D01*
X18284694Y800258D01*
X18231416Y730574D01*
X18227574Y725549D01*
X18187829Y640314D01*
X18167313Y548534D01*
X18166985Y454488D01*
X15700000Y454488D01*
X15700000Y1554488D01*
X32316985Y1554488D01*
X32328710Y1500260D01*
X32336860Y1462563D01*
X32373457Y1382630D01*
X32376009Y1377057D01*
X32432607Y1301948D01*
X32432609Y1301946D01*
X32504013Y1240745D01*
X32563579Y1208807D01*
X32586896Y1196304D01*
X32677389Y1170697D01*
X32771269Y1165120D01*
X32771271Y1165120D01*
X32833194Y1174928D01*
X32864157Y1179832D01*
X32951719Y1214147D01*
X33029870Y1266464D01*
X33034149Y1270926D01*
X33094962Y1334341D01*
X33114571Y1366466D01*
X33143962Y1414616D01*
X33173451Y1500258D01*
X33174580Y1503537D01*
X33177127Y1525552D01*
X33185389Y1596960D01*
X33185395Y1598535D01*
X33185401Y1599998D01*
X33175243Y1693495D01*
X33174074Y1696970D01*
X33145246Y1782629D01*
X33122731Y1820100D01*
X33096810Y1863242D01*
X33032192Y1931573D01*
X33028119Y1934341D01*
X32954408Y1984435D01*
X32867088Y2019361D01*
X32793315Y2031574D01*
X32774306Y2034721D01*
X32774305Y2034721D01*
X32680388Y2029799D01*
X32652286Y2022059D01*
X32589719Y2004826D01*
X32542315Y1979832D01*
X32506527Y1960963D01*
X32436691Y1901946D01*
X32434694Y1900258D01*
X32384296Y1834341D01*
X32377574Y1825549D01*
X32337829Y1740314D01*
X32317313Y1648534D01*
X32316985Y1554488D01*
X15700000Y1554488D01*
X15700000Y2354488D01*
X26566985Y2354488D01*
X26582522Y2282629D01*
X26586860Y2262563D01*
X26616892Y2196970D01*
X26626009Y2177057D01*
X26681938Y2102836D01*
X26682609Y2101946D01*
X26754013Y2040745D01*
X26803619Y2014147D01*
X26836896Y1996304D01*
X26927389Y1970697D01*
X27021269Y1965120D01*
X27021271Y1965120D01*
X27096649Y1977059D01*
X27114157Y1979832D01*
X27201719Y2014147D01*
X27279870Y2066464D01*
X27295372Y2082629D01*
X27344962Y2134341D01*
X27363088Y2164037D01*
X27393962Y2214616D01*
X27421060Y2293315D01*
X27424580Y2303537D01*
X27427181Y2326021D01*
X27435389Y2396960D01*
X27435389Y2397075D01*
X27435401Y2399998D01*
X27425243Y2493495D01*
X27422967Y2500258D01*
X27395246Y2582629D01*
X27373414Y2618964D01*
X27346810Y2663242D01*
X27282192Y2731573D01*
X27282191Y2731574D01*
X27204408Y2784435D01*
X27117088Y2819361D01*
X27054037Y2829799D01*
X27024306Y2834721D01*
X27024305Y2834721D01*
X26930388Y2829799D01*
X26905900Y2823054D01*
X26839719Y2804826D01*
X26792315Y2779832D01*
X26756527Y2760963D01*
X26689180Y2704049D01*
X26684694Y2700258D01*
X26627576Y2625552D01*
X26627574Y2625549D01*
X26587829Y2540314D01*
X26567313Y2448534D01*
X26566985Y2354488D01*
X15700000Y2354488D01*
X15700000Y3200000D01*
X15536302Y3200000D01*
X15530186Y3202440D01*
X15519059Y3203531D01*
X15515166Y3204658D01*
X15515164Y3204658D01*
X15510090Y3204219D01*
X15494860Y3202900D01*
X200000Y3202900D01*
X200000Y4054488D01*
X6666985Y4054488D01*
X6685875Y3967120D01*
X6686860Y3962563D01*
X6719112Y3892120D01*
X6726009Y3877057D01*
X6782607Y3801948D01*
X6782609Y3801946D01*
X6854013Y3740745D01*
X6903619Y3714147D01*
X6936896Y3696304D01*
X7027389Y3670697D01*
X7121269Y3665120D01*
X7121271Y3665120D01*
X7183194Y3674928D01*
X7214157Y3679832D01*
X7301719Y3714147D01*
X7379870Y3766464D01*
X7402263Y3789815D01*
X7444962Y3834341D01*
X7455595Y3851761D01*
X7493962Y3914616D01*
X7519808Y3989680D01*
X7524580Y4003537D01*
X7529786Y4048535D01*
X7530474Y4054488D01*
X27266985Y4054488D01*
X27285875Y3967120D01*
X27286860Y3962563D01*
X27319112Y3892120D01*
X27326009Y3877057D01*
X27382607Y3801948D01*
X27382609Y3801946D01*
X27454013Y3740745D01*
X27503619Y3714147D01*
X27536896Y3696304D01*
X27627389Y3670697D01*
X27721269Y3665120D01*
X27721271Y3665120D01*
X27783194Y3674928D01*
X27814157Y3679832D01*
X27901719Y3714147D01*
X27979870Y3766464D01*
X28002263Y3789815D01*
X28044962Y3834341D01*
X28055595Y3851761D01*
X28093962Y3914616D01*
X28106380Y3950682D01*
X29697012Y3950682D01*
X29717202Y3850549D01*
X29757115Y3756522D01*
X29815119Y3672440D01*
X29815121Y3672438D01*
X29888841Y3601742D01*
X29888844Y3601740D01*
X29888845Y3601739D01*
X29970357Y3550408D01*
X29975283Y3547306D01*
X30002665Y3537014D01*
X30070898Y3511367D01*
X30104528Y3506041D01*
X30171786Y3495388D01*
X30171788Y3495388D01*
X30273830Y3500022D01*
X30273834Y3500023D01*
X30273835Y3500023D01*
X30372853Y3525077D01*
X30389474Y3533112D01*
X30464822Y3569537D01*
X30464825Y3569539D01*
X30500874Y3597100D01*
X31983115Y3597100D01*
X34147065Y1433148D01*
X34146975Y1398697D01*
X34153094Y1366466D01*
X34166652Y1295050D01*
X34188208Y1240745D01*
X34205576Y1196990D01*
X34262339Y1108062D01*
X34297100Y1071367D01*
X34297101Y166888D01*
X33382904Y-747310D01*
X33352323Y-748726D01*
X33321742Y-750141D01*
X33289444Y-757925D01*
X33219179Y-774859D01*
X33219177Y-774860D01*
X33123141Y-818524D01*
X33058169Y-864613D01*
X33037090Y-879565D01*
X32964135Y-955775D01*
X32906907Y-1044405D01*
X32892305Y-1080639D01*
X32867472Y-1142257D01*
X32847251Y-1245801D01*
X32847251Y-1245802D01*
X32847000Y-1341938D01*
X32846975Y-1351306D01*
X32856613Y-1402068D01*
X32866653Y-1454952D01*
X32876699Y-1480261D01*
X32905576Y-1553011D01*
X32962338Y-1641937D01*
X33034894Y-1718529D01*
X33120625Y-1780020D01*
X33216428Y-1824186D01*
X33216432Y-1824187D01*
X33318865Y-1849442D01*
X33336135Y-1850332D01*
X33424225Y-1854872D01*
X33528711Y-1840281D01*
X33628558Y-1806192D01*
X33720152Y-1753842D01*
X33800192Y-1685118D01*
X33838591Y-1636758D01*
X33865798Y-1602493D01*
X33914594Y-1508955D01*
X33933114Y-1447028D01*
X33944822Y-1407880D01*
X33954107Y-1315678D01*
X34511861Y-757925D01*
X38366985Y-757925D01*
X38385219Y-842258D01*
X38386860Y-849850D01*
X38425493Y-934229D01*
X38426009Y-935356D01*
X38481100Y-1008465D01*
X38482609Y-1010467D01*
X38554013Y-1071668D01*
X38605445Y-1099245D01*
X38636896Y-1116109D01*
X38727389Y-1141716D01*
X38821269Y-1147293D01*
X38821271Y-1147293D01*
X38883194Y-1137485D01*
X38914157Y-1132581D01*
X39001719Y-1098266D01*
X39079870Y-1045949D01*
X39091774Y-1033536D01*
X39144962Y-978072D01*
X39162011Y-950141D01*
X39193962Y-897797D01*
X39224580Y-808875D01*
X39235389Y-715453D01*
X39235393Y-714380D01*
X39235401Y-712415D01*
X39225243Y-618918D01*
X39225243Y-618917D01*
X39195246Y-529784D01*
X39177851Y-500833D01*
X39146810Y-449171D01*
X39048617Y-345335D01*
X39056150Y-340292D01*
X39056156Y-340290D01*
X39134307Y-287973D01*
X39136790Y-285384D01*
X39199399Y-220096D01*
X39212853Y-198054D01*
X39248399Y-139821D01*
X39273935Y-65659D01*
X39279017Y-50900D01*
X39280000Y-42406D01*
X39289826Y42523D01*
X39289833Y44364D01*
X39289838Y45561D01*
X39279680Y139058D01*
X39275294Y152091D01*
X39249683Y228192D01*
X39235865Y251190D01*
X39201247Y308805D01*
X39136629Y377136D01*
X39136628Y377137D01*
X39058845Y429998D01*
X38971525Y464924D01*
X38898223Y477059D01*
X38878743Y480284D01*
X38878742Y480284D01*
X38784825Y475362D01*
X38759920Y468502D01*
X38694156Y450389D01*
X38647050Y425552D01*
X38610964Y406526D01*
X38539133Y345823D01*
X38539131Y345821D01*
X38489171Y280477D01*
X38482011Y271112D01*
X38442266Y185877D01*
X38421750Y94097D01*
X38421422Y51D01*
X38439894Y-85384D01*
X38441297Y-91874D01*
X38480445Y-177378D01*
X38480446Y-177380D01*
X38537044Y-252489D01*
X38604854Y-310609D01*
X38556527Y-351450D01*
X38520014Y-382307D01*
X38484694Y-412155D01*
X38428891Y-485141D01*
X38427574Y-486864D01*
X38387829Y-572099D01*
X38367313Y-663879D01*
X38366985Y-757925D01*
X34511861Y-757925D01*
X34985204Y-284583D01*
X35014162Y-256225D01*
X35027585Y-235397D01*
X35039218Y-220825D01*
X35043047Y-216029D01*
X35051992Y-197526D01*
X35063122Y-180255D01*
X35068435Y-165657D01*
X35071597Y-156969D01*
X35082383Y-134658D01*
X35082642Y-133536D01*
X35087006Y-114632D01*
X35089464Y-107880D01*
X35094033Y-95327D01*
X35097139Y-70742D01*
X35102713Y-46596D01*
X35102786Y-26047D01*
X35102900Y-25142D01*
X35102900Y6756D01*
X35103029Y43788D01*
X35102900Y44364D01*
X35102900Y1068292D01*
X35165799Y1147508D01*
X35199609Y1212320D01*
X35214594Y1241045D01*
X35241137Y1329799D01*
X35244822Y1342120D01*
X35255392Y1447092D01*
X35255400Y1450003D01*
X35245381Y1555022D01*
X35217947Y1648534D01*
X35215681Y1656258D01*
X35204968Y1677059D01*
X35167376Y1750048D01*
X35102204Y1833017D01*
X35077461Y1854488D01*
X36016985Y1854488D01*
X36036017Y1766464D01*
X36036860Y1762563D01*
X36066892Y1696970D01*
X36076009Y1677057D01*
X36131409Y1603538D01*
X36132609Y1601946D01*
X36204013Y1540745D01*
X36253619Y1514147D01*
X36286896Y1496304D01*
X36377389Y1470697D01*
X36471269Y1465120D01*
X36471271Y1465120D01*
X36546649Y1477059D01*
X36564157Y1479832D01*
X36651719Y1514147D01*
X36729870Y1566464D01*
X36746175Y1583467D01*
X36794962Y1634341D01*
X36813749Y1665120D01*
X36843962Y1714616D01*
X36874580Y1803538D01*
X36885389Y1896960D01*
X36885389Y1897075D01*
X36885401Y1899998D01*
X36876196Y1984721D01*
X36875243Y1993496D01*
X36845246Y2082629D01*
X36831428Y2105627D01*
X36796810Y2163242D01*
X36732192Y2231573D01*
X36721043Y2239150D01*
X36654408Y2284435D01*
X36567088Y2319361D01*
X36483789Y2333151D01*
X36474306Y2334721D01*
X36474305Y2334721D01*
X36380388Y2329799D01*
X36361720Y2324657D01*
X36289719Y2304826D01*
X36245993Y2281771D01*
X36206527Y2260963D01*
X36134696Y2200260D01*
X36134694Y2200258D01*
X36079874Y2128557D01*
X36077574Y2125549D01*
X36037829Y2040314D01*
X36017313Y1948534D01*
X36016985Y1854488D01*
X35077461Y1854488D01*
X35022522Y1902160D01*
X35000991Y1914616D01*
X34931202Y1954990D01*
X34831540Y1989598D01*
X34727131Y2004737D01*
X34713001Y2006786D01*
X32771093Y3948694D01*
X38446975Y3948694D01*
X38460576Y3877059D01*
X38466653Y3845048D01*
X38471258Y3833447D01*
X38505576Y3746989D01*
X38562338Y3658063D01*
X38634894Y3581471D01*
X38720625Y3519980D01*
X38816428Y3475814D01*
X38816432Y3475813D01*
X38918865Y3450558D01*
X38936135Y3449668D01*
X39024225Y3445128D01*
X39128711Y3459719D01*
X39228558Y3493808D01*
X39320152Y3546158D01*
X39400192Y3614882D01*
X39441149Y3666464D01*
X39465798Y3697507D01*
X39514594Y3791045D01*
X39536064Y3862837D01*
X39544822Y3892120D01*
X39555392Y3997092D01*
X39555400Y4000003D01*
X39545381Y4105022D01*
X39527750Y4165120D01*
X39515681Y4206258D01*
X39511618Y4214147D01*
X39467376Y4300048D01*
X39429165Y4348694D01*
X45946975Y4348694D01*
X45956922Y4296304D01*
X45966653Y4245048D01*
X45982050Y4206258D01*
X46005576Y4146989D01*
X46062338Y4058063D01*
X46134894Y3981471D01*
X46220625Y3919980D01*
X46316428Y3875814D01*
X46316432Y3875813D01*
X46418865Y3850558D01*
X46482959Y3847255D01*
X46797101Y3533112D01*
X46797102Y-2500367D01*
X46796677Y-2540968D01*
X46801914Y-2565189D01*
X46804676Y-2589817D01*
X46811434Y-2609222D01*
X46815776Y-2629307D01*
X46817747Y-2633534D01*
X46826250Y-2651770D01*
X46828857Y-2659255D01*
X46834399Y-2675169D01*
X46845287Y-2692593D01*
X46853972Y-2711218D01*
X46853973Y-2711219D01*
X46866207Y-2726990D01*
X46869162Y-2730800D01*
X46878355Y-2745512D01*
X46882294Y-2751815D01*
X46896766Y-2766388D01*
X46897331Y-2767117D01*
X46908580Y-2778365D01*
X46919924Y-2789709D01*
X46945977Y-2815945D01*
X46945986Y-2815951D01*
X46947065Y-2817037D01*
X46946975Y-2851303D01*
X46946976Y-2851306D01*
X46966652Y-2954950D01*
X47005576Y-3053011D01*
X47062338Y-3141937D01*
X47134894Y-3218529D01*
X47220625Y-3280020D01*
X47316428Y-3324186D01*
X47316432Y-3324187D01*
X47418865Y-3349442D01*
X47436135Y-3350332D01*
X47524225Y-3354872D01*
X47628711Y-3340281D01*
X47728558Y-3306192D01*
X47820152Y-3253842D01*
X47900192Y-3185118D01*
X47944511Y-3129302D01*
X47965798Y-3102493D01*
X48014594Y-3008955D01*
X48035983Y-2937434D01*
X48044822Y-2907880D01*
X48055392Y-2802908D01*
X48055400Y-2799997D01*
X48045381Y-2694978D01*
X48026115Y-2629307D01*
X48015681Y-2593742D01*
X48015680Y-2593740D01*
X47967376Y-2499952D01*
X47902204Y-2416983D01*
X47822522Y-2347840D01*
X47731204Y-2295011D01*
X47731203Y-2295011D01*
X47731202Y-2295010D01*
X47701198Y-2284591D01*
X47602901Y-2250456D01*
X47602901Y654488D01*
X51145149Y654488D01*
X51164181Y566464D01*
X51165024Y562563D01*
X51202902Y479832D01*
X51204173Y477057D01*
X51259573Y403538D01*
X51260773Y401946D01*
X51332177Y340745D01*
X51381017Y314558D01*
X51415060Y296304D01*
X51505553Y270697D01*
X51599433Y265120D01*
X51599435Y265120D01*
X51674800Y277057D01*
X51692321Y279832D01*
X51779883Y314147D01*
X51858034Y366464D01*
X51873536Y382629D01*
X51923126Y434341D01*
X51943978Y468502D01*
X51972126Y514616D01*
X52002744Y603538D01*
X52013553Y696960D01*
X52013553Y697075D01*
X52013565Y699998D01*
X52003407Y793495D01*
X52003407Y793496D01*
X51973410Y882629D01*
X51954472Y914147D01*
X51924974Y963242D01*
X51860356Y1031573D01*
X51856283Y1034341D01*
X51782572Y1084435D01*
X51695252Y1119361D01*
X51632201Y1129799D01*
X51602470Y1134721D01*
X51602469Y1134721D01*
X51508552Y1129799D01*
X51480450Y1122059D01*
X51417883Y1104826D01*
X51375784Y1082629D01*
X51334691Y1060963D01*
X51264855Y1001946D01*
X51262858Y1000258D01*
X51205740Y925552D01*
X51205738Y925549D01*
X51165993Y840314D01*
X51145477Y748534D01*
X51145149Y654488D01*
X47602901Y654488D01*
X47602901Y2695078D01*
X52531339Y2695078D01*
X52547796Y2618964D01*
X52551214Y2603153D01*
X52583987Y2531573D01*
X52590363Y2517647D01*
X52634518Y2459051D01*
X52646963Y2442536D01*
X52718367Y2381335D01*
X52773941Y2351537D01*
X52801250Y2336894D01*
X52891743Y2311287D01*
X52985623Y2305710D01*
X52985625Y2305710D01*
X53047548Y2315518D01*
X53078511Y2320422D01*
X53166073Y2354737D01*
X53244224Y2407054D01*
X53284002Y2448534D01*
X53309316Y2474931D01*
X53332779Y2513370D01*
X53358316Y2555206D01*
X53388934Y2644128D01*
X53389003Y2644720D01*
X53390133Y2654488D01*
X53399743Y2737550D01*
X53399743Y2737665D01*
X53399755Y2740588D01*
X53389597Y2834085D01*
X53388452Y2837488D01*
X53359600Y2923219D01*
X53335552Y2963242D01*
X53311164Y3003832D01*
X53246546Y3072163D01*
X53245946Y3072571D01*
X53168762Y3125025D01*
X53095101Y3154488D01*
X76666985Y3154488D01*
X76686674Y3063424D01*
X76686860Y3062563D01*
X76725095Y2979054D01*
X76726009Y2977057D01*
X76782607Y2901948D01*
X76782609Y2901946D01*
X76854013Y2840745D01*
X76893895Y2819361D01*
X76936896Y2796304D01*
X77027389Y2770697D01*
X77121269Y2765120D01*
X77121271Y2765120D01*
X77183194Y2774928D01*
X77214157Y2779832D01*
X77301719Y2814147D01*
X77379870Y2866464D01*
X77379872Y2866466D01*
X77444962Y2934341D01*
X77462603Y2963242D01*
X77493962Y3014616D01*
X77520445Y3091529D01*
X77524580Y3103537D01*
X77526024Y3116021D01*
X77535389Y3196960D01*
X77535389Y3197075D01*
X77535401Y3199998D01*
X77525243Y3293495D01*
X77517897Y3315324D01*
X77495246Y3382629D01*
X77472918Y3419790D01*
X77446810Y3463242D01*
X77382192Y3531573D01*
X77382191Y3531574D01*
X77304408Y3584435D01*
X77217088Y3619361D01*
X77154037Y3629799D01*
X77124306Y3634721D01*
X77124305Y3634721D01*
X77030388Y3629799D01*
X77002286Y3622059D01*
X76939719Y3604826D01*
X76885247Y3576106D01*
X76856527Y3560963D01*
X76786606Y3501874D01*
X76784694Y3500258D01*
X76727576Y3425552D01*
X76727574Y3425549D01*
X76687829Y3340314D01*
X76667313Y3248534D01*
X76666985Y3154488D01*
X53095101Y3154488D01*
X53081442Y3159951D01*
X53030768Y3168340D01*
X52988660Y3175311D01*
X52988659Y3175311D01*
X52894742Y3170389D01*
X52866640Y3162649D01*
X52804073Y3145416D01*
X52754657Y3119361D01*
X52720881Y3101553D01*
X52649050Y3040850D01*
X52649048Y3040848D01*
X52591930Y2966142D01*
X52591928Y2966139D01*
X52552183Y2880904D01*
X52531667Y2789124D01*
X52531339Y2695078D01*
X47602901Y2695078D01*
X47602901Y3456362D01*
X50566985Y3456362D01*
X50582927Y3382629D01*
X50586860Y3364437D01*
X50614172Y3304784D01*
X50626009Y3278931D01*
X50682607Y3203822D01*
X50682609Y3203820D01*
X50754013Y3142619D01*
X50803619Y3116021D01*
X50836896Y3098178D01*
X50927389Y3072571D01*
X51021269Y3066994D01*
X51021271Y3066994D01*
X51083194Y3076802D01*
X51114157Y3081706D01*
X51201719Y3116021D01*
X51279870Y3168338D01*
X51292352Y3181354D01*
X51344962Y3236215D01*
X51365173Y3269327D01*
X51393962Y3316490D01*
X51413859Y3374278D01*
X51647030Y3374278D01*
X51664496Y3293496D01*
X51666905Y3282353D01*
X51702861Y3203820D01*
X51706054Y3196847D01*
X51762652Y3121738D01*
X51762654Y3121736D01*
X51834058Y3060535D01*
X51883664Y3033937D01*
X51916941Y3016094D01*
X52007434Y2990487D01*
X52101314Y2984910D01*
X52101316Y2984910D01*
X52163239Y2994718D01*
X52194202Y2999622D01*
X52281764Y3033937D01*
X52359915Y3086254D01*
X52359917Y3086256D01*
X52425007Y3154131D01*
X52446187Y3188830D01*
X52474007Y3234406D01*
X52501869Y3315324D01*
X52504625Y3323327D01*
X52505608Y3331821D01*
X52515434Y3416750D01*
X52515434Y3416865D01*
X52515446Y3419788D01*
X52505288Y3513285D01*
X52503035Y3519980D01*
X52475291Y3602419D01*
X52458840Y3629798D01*
X52426855Y3683032D01*
X52362237Y3751363D01*
X52341894Y3765188D01*
X52284453Y3804225D01*
X52197133Y3839151D01*
X52128283Y3850549D01*
X52104351Y3854511D01*
X52104350Y3854511D01*
X52010433Y3849589D01*
X51993947Y3845048D01*
X51919764Y3824616D01*
X51877121Y3802132D01*
X51836572Y3780753D01*
X51773466Y3727423D01*
X51764739Y3720048D01*
X51712119Y3651225D01*
X51707619Y3645339D01*
X51667874Y3560104D01*
X51647358Y3468324D01*
X51647030Y3374278D01*
X51413859Y3374278D01*
X51416737Y3382636D01*
X51424580Y3405411D01*
X51426243Y3419788D01*
X51435389Y3498834D01*
X51435391Y3499335D01*
X51435401Y3501872D01*
X51425243Y3595369D01*
X51425243Y3595370D01*
X51395246Y3684503D01*
X51377434Y3714147D01*
X51346810Y3765116D01*
X51282192Y3833447D01*
X51273799Y3839151D01*
X51204408Y3886309D01*
X51117088Y3921235D01*
X51070696Y3928915D01*
X51024306Y3936595D01*
X51024305Y3936595D01*
X50930388Y3931673D01*
X50902286Y3923933D01*
X50839719Y3906700D01*
X50785247Y3877980D01*
X50756527Y3862837D01*
X50684696Y3802134D01*
X50684694Y3802132D01*
X50635978Y3738415D01*
X50627574Y3727423D01*
X50587829Y3642188D01*
X50567313Y3550408D01*
X50566985Y3456362D01*
X47602901Y3456362D01*
X47602901Y3700449D01*
X47603325Y3740969D01*
X47598089Y3765188D01*
X47596758Y3777057D01*
X47595327Y3789815D01*
X47588567Y3809226D01*
X47584226Y3829306D01*
X47573755Y3851761D01*
X47565605Y3875167D01*
X47554715Y3892592D01*
X47546031Y3911214D01*
X47546030Y3911216D01*
X47530844Y3930793D01*
X47520012Y3948128D01*
X47517711Y3951811D01*
X47517615Y3951907D01*
X47515052Y3954488D01*
X72566985Y3954488D01*
X72586801Y3862837D01*
X72586860Y3862563D01*
X72619605Y3791045D01*
X72626009Y3777057D01*
X72682607Y3701948D01*
X72682609Y3701946D01*
X72754013Y3640745D01*
X72803619Y3614147D01*
X72836896Y3596304D01*
X72927389Y3570697D01*
X73021269Y3565120D01*
X73021271Y3565120D01*
X73083194Y3574928D01*
X73114157Y3579832D01*
X73201719Y3614147D01*
X73279870Y3666464D01*
X73292256Y3679380D01*
X73344962Y3734341D01*
X73366741Y3770021D01*
X73393962Y3814616D01*
X73424580Y3903538D01*
X73435389Y3996960D01*
X73435389Y3997092D01*
X73435401Y3999998D01*
X73428231Y4066001D01*
X82494288Y4066001D01*
X82517897Y4006218D01*
X82579802Y3904204D01*
X82658011Y3814076D01*
X82750286Y3738415D01*
X82853996Y3679380D01*
X82966159Y3638667D01*
X83083586Y3617432D01*
X83096999Y3616800D01*
X83446000Y3616800D01*
X83953999Y3616800D01*
X84279461Y3616800D01*
X84368906Y3624390D01*
X84484402Y3654367D01*
X84593210Y3703381D01*
X84692194Y3770021D01*
X84778536Y3852386D01*
X84849770Y3948128D01*
X84903851Y4054499D01*
X84907422Y4066000D01*
X83953999Y4066001D01*
X86824288Y4066001D01*
X86847897Y4006218D01*
X86909802Y3904204D01*
X86988011Y3814076D01*
X87080286Y3738415D01*
X87183996Y3679380D01*
X87296159Y3638667D01*
X87413586Y3617432D01*
X87426999Y3616800D01*
X87626000Y3616800D01*
X88133999Y3616800D01*
X88309461Y3616800D01*
X88398906Y3624390D01*
X88514402Y3654367D01*
X88623210Y3703381D01*
X88722194Y3770021D01*
X88808536Y3852386D01*
X88879770Y3948128D01*
X88933851Y4054499D01*
X88937422Y4066000D01*
X88133999Y4066001D01*
X88133999Y3616800D01*
X87626000Y3616800D01*
X87626000Y4066000D01*
X86824288Y4066001D01*
X83953999Y4066001D01*
X83953999Y3616800D01*
X83446000Y3616800D01*
X83446000Y4066000D01*
X82494288Y4066001D01*
X73428231Y4066001D01*
X73425243Y4093495D01*
X73424074Y4096970D01*
X73395246Y4182629D01*
X73376308Y4214147D01*
X73346810Y4263242D01*
X73282192Y4331573D01*
X73278119Y4334341D01*
X73204408Y4384435D01*
X73117088Y4419361D01*
X73043315Y4431574D01*
X73024306Y4434721D01*
X73024305Y4434721D01*
X72930388Y4429799D01*
X72902286Y4422059D01*
X72839719Y4404826D01*
X72797150Y4382381D01*
X72756527Y4360963D01*
X72686691Y4301946D01*
X72684694Y4300258D01*
X72643642Y4246565D01*
X72627574Y4225549D01*
X72587829Y4140314D01*
X72567313Y4048534D01*
X72566985Y3954488D01*
X47515052Y3954488D01*
X47503228Y3966395D01*
X47502666Y3967120D01*
X47502657Y3967129D01*
X47502654Y3967133D01*
X47480106Y3989680D01*
X47454026Y4015943D01*
X47453527Y4016259D01*
X47053883Y4415903D01*
X47050424Y4452160D01*
X47045381Y4505022D01*
X47030870Y4554488D01*
X48266985Y4554488D01*
X48284452Y4473702D01*
X48286860Y4462563D01*
X48321456Y4387002D01*
X48326009Y4377057D01*
X48373404Y4314161D01*
X48382609Y4301946D01*
X48454013Y4240745D01*
X48503619Y4214147D01*
X48536896Y4196304D01*
X48627389Y4170697D01*
X48721269Y4165120D01*
X48721271Y4165120D01*
X48783194Y4174928D01*
X48814157Y4179832D01*
X48901719Y4214147D01*
X48979870Y4266464D01*
X48983930Y4270698D01*
X49044962Y4334341D01*
X49064571Y4366466D01*
X49093962Y4414616D01*
X49124580Y4503538D01*
X49135389Y4596960D01*
X49135389Y4597075D01*
X49135401Y4599998D01*
X49129481Y4654488D01*
X49666985Y4654488D01*
X49681901Y4585501D01*
X49686860Y4562563D01*
X49713308Y4504797D01*
X49726009Y4477057D01*
X49782607Y4401948D01*
X49782609Y4401946D01*
X49854013Y4340745D01*
X49903591Y4314162D01*
X49936896Y4296304D01*
X50027389Y4270697D01*
X50121269Y4265120D01*
X50121271Y4265120D01*
X50183194Y4274928D01*
X50214157Y4279832D01*
X50301719Y4314147D01*
X50379870Y4366464D01*
X50395744Y4383017D01*
X50444962Y4434341D01*
X50461212Y4460963D01*
X50493962Y4514616D01*
X50522315Y4596960D01*
X50524580Y4603537D01*
X50529786Y4648535D01*
X50530474Y4654488D01*
X66666985Y4654488D01*
X66681901Y4585501D01*
X66686860Y4562563D01*
X66713308Y4504797D01*
X66726009Y4477057D01*
X66782607Y4401948D01*
X66782609Y4401946D01*
X66854013Y4340745D01*
X66903591Y4314162D01*
X66936896Y4296304D01*
X67027389Y4270697D01*
X67121269Y4265120D01*
X67121271Y4265120D01*
X67183194Y4274928D01*
X67214157Y4279832D01*
X67301719Y4314147D01*
X67379870Y4366464D01*
X67395744Y4383017D01*
X67444962Y4434341D01*
X67461212Y4460963D01*
X67493962Y4514616D01*
X67514409Y4574000D01*
X82492578Y4574000D01*
X83446001Y4573999D01*
X83446001Y5023200D01*
X83954000Y5023200D01*
X83954000Y4574000D01*
X84905712Y4573999D01*
X84905712Y4574000D01*
X86822578Y4574000D01*
X87626001Y4573999D01*
X87626001Y5023200D01*
X88134000Y5023200D01*
X88134000Y4574000D01*
X88935712Y4573999D01*
X88912103Y4633782D01*
X88850198Y4735796D01*
X88771989Y4825924D01*
X88679714Y4901585D01*
X88576004Y4960620D01*
X88463841Y5001333D01*
X88346414Y5022568D01*
X88333001Y5023200D01*
X88134000Y5023200D01*
X87626001Y5023200D01*
X87450539Y5023200D01*
X87361094Y5015610D01*
X87245598Y4985633D01*
X87136790Y4936619D01*
X87037806Y4869979D01*
X86951464Y4787614D01*
X86880230Y4691872D01*
X86826149Y4585501D01*
X86822578Y4574000D01*
X84905712Y4574000D01*
X84882103Y4633782D01*
X84820198Y4735796D01*
X84741989Y4825924D01*
X84649714Y4901585D01*
X84546004Y4960620D01*
X84433841Y5001333D01*
X84316414Y5022568D01*
X84303001Y5023200D01*
X83954000Y5023200D01*
X83446001Y5023200D01*
X83120539Y5023200D01*
X83031094Y5015610D01*
X82915598Y4985633D01*
X82806790Y4936619D01*
X82707806Y4869979D01*
X82621464Y4787614D01*
X82550230Y4691872D01*
X82496149Y4585501D01*
X82492578Y4574000D01*
X67514409Y4574000D01*
X67522315Y4596960D01*
X67524580Y4603537D01*
X67529786Y4648535D01*
X67535389Y4696960D01*
X67535389Y4697075D01*
X67535401Y4699998D01*
X67525243Y4793495D01*
X67525243Y4793496D01*
X67495246Y4882629D01*
X67469703Y4925140D01*
X67446810Y4963242D01*
X67382192Y5031573D01*
X67377560Y5034721D01*
X67304408Y5084435D01*
X67217088Y5119361D01*
X67154037Y5129799D01*
X67124306Y5134721D01*
X67124305Y5134721D01*
X67030388Y5129799D01*
X67002286Y5122059D01*
X66939719Y5104826D01*
X66885247Y5076106D01*
X66856527Y5060963D01*
X66807299Y5019361D01*
X66784694Y5000258D01*
X66727576Y4925552D01*
X66727574Y4925549D01*
X66687829Y4840314D01*
X66667313Y4748534D01*
X66666985Y4654488D01*
X50530474Y4654488D01*
X50535389Y4696960D01*
X50535389Y4697075D01*
X50535401Y4699998D01*
X50525243Y4793495D01*
X50525243Y4793496D01*
X50495246Y4882629D01*
X50469703Y4925140D01*
X50446810Y4963242D01*
X50382192Y5031573D01*
X50377560Y5034721D01*
X50304408Y5084435D01*
X50217088Y5119361D01*
X50154037Y5129799D01*
X50124306Y5134721D01*
X50124305Y5134721D01*
X50030388Y5129799D01*
X50002286Y5122059D01*
X49939719Y5104826D01*
X49885247Y5076106D01*
X49856527Y5060963D01*
X49807299Y5019361D01*
X49784694Y5000258D01*
X49727576Y4925552D01*
X49727574Y4925549D01*
X49687829Y4840314D01*
X49667313Y4748534D01*
X49666985Y4654488D01*
X49129481Y4654488D01*
X49125243Y4693495D01*
X49124074Y4696970D01*
X49095246Y4782629D01*
X49072530Y4820435D01*
X49046810Y4863242D01*
X48982192Y4931573D01*
X48970385Y4939597D01*
X48904408Y4984435D01*
X48817088Y5019361D01*
X48743315Y5031574D01*
X48724306Y5034721D01*
X48724305Y5034721D01*
X48630388Y5029799D01*
X48606430Y5023200D01*
X48539719Y5004826D01*
X48485247Y4976106D01*
X48456527Y4960963D01*
X48390292Y4904989D01*
X48384694Y4900258D01*
X48327576Y4825552D01*
X48327574Y4825549D01*
X48287829Y4740314D01*
X48267313Y4648534D01*
X48266985Y4554488D01*
X47030870Y4554488D01*
X47025145Y4573999D01*
X47015681Y4606258D01*
X46990271Y4655595D01*
X46967376Y4700048D01*
X46902204Y4783017D01*
X46822522Y4852160D01*
X46803366Y4863242D01*
X46731202Y4904990D01*
X46631540Y4939598D01*
X46527131Y4954737D01*
X46430671Y4950272D01*
X46421741Y4949859D01*
X46379166Y4939598D01*
X46319179Y4925141D01*
X46319177Y4925140D01*
X46223141Y4881476D01*
X46158169Y4835387D01*
X46137090Y4820435D01*
X46064135Y4744225D01*
X46006907Y4655595D01*
X45987190Y4606669D01*
X45967472Y4557743D01*
X45948572Y4460963D01*
X45947251Y4454198D01*
X45947117Y4402785D01*
X45946975Y4348694D01*
X39429165Y4348694D01*
X39402204Y4383017D01*
X39322522Y4452160D01*
X39304540Y4462563D01*
X39231202Y4504990D01*
X39131540Y4539598D01*
X39027131Y4554737D01*
X38930671Y4550272D01*
X38921741Y4549859D01*
X38879166Y4539598D01*
X38819179Y4525141D01*
X38819177Y4525140D01*
X38723141Y4481476D01*
X38681814Y4452160D01*
X38637090Y4420435D01*
X38564135Y4344225D01*
X38506907Y4255595D01*
X38490203Y4214147D01*
X38467472Y4157743D01*
X38447251Y4054199D01*
X38446975Y3948694D01*
X32771093Y3948694D01*
X32434628Y4285158D01*
X32406225Y4314162D01*
X32385396Y4327586D01*
X32368912Y4340745D01*
X32366027Y4343048D01*
X32347526Y4351991D01*
X32330255Y4363122D01*
X32306959Y4371601D01*
X32295668Y4377059D01*
X32284657Y4382382D01*
X32264647Y4387001D01*
X32245327Y4394033D01*
X32220730Y4397140D01*
X32196595Y4402712D01*
X32196523Y4402712D01*
X32176055Y4402785D01*
X32175141Y4402900D01*
X32142958Y4402900D01*
X32107031Y4403025D01*
X32106217Y4403028D01*
X32106214Y4403028D01*
X32105642Y4402900D01*
X30500958Y4402900D01*
X30467821Y4428604D01*
X30376168Y4473702D01*
X30277319Y4499451D01*
X30175311Y4504797D01*
X30175309Y4504797D01*
X30074314Y4489523D01*
X29978447Y4454251D01*
X29891632Y4400423D01*
X29817415Y4330240D01*
X29776390Y4271650D01*
X29758825Y4246564D01*
X29725994Y4170697D01*
X29718257Y4152818D01*
X29697716Y4054488D01*
X29697369Y4052829D01*
X29697012Y3950682D01*
X28106380Y3950682D01*
X28119808Y3989680D01*
X28124580Y4003537D01*
X28129786Y4048535D01*
X28135389Y4096960D01*
X28135389Y4097075D01*
X28135401Y4099998D01*
X28125243Y4193495D01*
X28118293Y4214147D01*
X28095246Y4282629D01*
X28076299Y4314162D01*
X28046810Y4363242D01*
X27982192Y4431573D01*
X27978119Y4434341D01*
X27904408Y4484435D01*
X27817088Y4519361D01*
X27754037Y4529799D01*
X27724306Y4534721D01*
X27724305Y4534721D01*
X27630388Y4529799D01*
X27602286Y4522059D01*
X27539719Y4504826D01*
X27487056Y4477059D01*
X27456527Y4460963D01*
X27386691Y4401946D01*
X27384694Y4400258D01*
X27331160Y4330239D01*
X27327574Y4325549D01*
X27287829Y4240314D01*
X27267313Y4148534D01*
X27266985Y4054488D01*
X7530474Y4054488D01*
X7535389Y4096960D01*
X7535389Y4097075D01*
X7535401Y4099998D01*
X7525243Y4193495D01*
X7518293Y4214147D01*
X7495246Y4282629D01*
X7476299Y4314162D01*
X7446810Y4363242D01*
X7382192Y4431573D01*
X7378119Y4434341D01*
X7304408Y4484435D01*
X7217088Y4519361D01*
X7154037Y4529799D01*
X7124306Y4534721D01*
X7124305Y4534721D01*
X7030388Y4529799D01*
X7002286Y4522059D01*
X6939719Y4504826D01*
X6887056Y4477059D01*
X6856527Y4460963D01*
X6786691Y4401946D01*
X6784694Y4400258D01*
X6731160Y4330239D01*
X6727574Y4325549D01*
X6687829Y4240314D01*
X6667313Y4148534D01*
X6666985Y4054488D01*
X200000Y4054488D01*
X200000Y5300000D01*
X89800000Y5300000D01*
X89800000Y-5300000D01*
G37*
G04 #@! TD.AperFunction*
G04 #@! TD*
G04 #@! TA.AperFunction,Conductor*
G04 #@! TO.N,IN*
G36*
X74521553Y-3810635D02*
G01*
X74639415Y-3842215D01*
X74750000Y-3893782D01*
X74812487Y-3937536D01*
X74849953Y-3963771D01*
X74936229Y-4050047D01*
X74962464Y-4087513D01*
X75006218Y-4150000D01*
X75057785Y-4260586D01*
X75089365Y-4378446D01*
X75100000Y-4500000D01*
X75089365Y-4621554D01*
X75057785Y-4739414D01*
X75006218Y-4850000D01*
X74962464Y-4912487D01*
X74936229Y-4949953D01*
X74849953Y-5036229D01*
X74812487Y-5062464D01*
X74750000Y-5106218D01*
X74639415Y-5157785D01*
X74521553Y-5189365D01*
X74399998Y-5200000D01*
X23600002Y-5200000D01*
X23478447Y-5189365D01*
X23360585Y-5157785D01*
X23250000Y-5106218D01*
X23187513Y-5062464D01*
X23150047Y-5036229D01*
X23063771Y-4949953D01*
X23037536Y-4912487D01*
X22993782Y-4850000D01*
X22942215Y-4739414D01*
X22910635Y-4621554D01*
X22900000Y-4500000D01*
X22910635Y-4378446D01*
X22942215Y-4260586D01*
X22993782Y-4150000D01*
X23037536Y-4087513D01*
X23063771Y-4050047D01*
X23150047Y-3963771D01*
X23187513Y-3937536D01*
X23250000Y-3893782D01*
X23360585Y-3842215D01*
X23478447Y-3810635D01*
X23600002Y-3800000D01*
X74399998Y-3800000D01*
X74521553Y-3810635D01*
G37*
G04 #@! TD.AperFunction*
G04 #@! TD*
M02*
