G04 #@! TF.GenerationSoftware,KiCad,Pcbnew,(5.99.0-3540-g0818bd05d)*
G04 #@! TF.CreationDate,2020-09-30T20:14:19-07:00*
G04 #@! TF.ProjectId,RT_USB_PD_Soldering_Iron,52545f55-5342-45f5-9044-5f536f6c6465,rev?*
G04 #@! TF.SameCoordinates,PX5f5e100PY7735940*
G04 #@! TF.FileFunction,Legend,Bot*
G04 #@! TF.FilePolarity,Positive*
%FSLAX46Y46*%
G04 Gerber Fmt 4.6, Leading zero omitted, Abs format (unit mm)*
G04 Created by KiCad (PCBNEW (5.99.0-3540-g0818bd05d)) date 2020-09-30 20:14:19*
%MOMM*%
%LPD*%
G01*
G04 APERTURE LIST*
%ADD10C,0.150000*%
%ADD11C,0.120000*%
G04 APERTURE END LIST*
D10*
G04 #@! TO.C,C16*
X21385714Y2414286D02*
X21423809Y2452381D01*
X21461904Y2566667D01*
X21461904Y2642858D01*
X21423809Y2757143D01*
X21347619Y2833334D01*
X21271428Y2871429D01*
X21119047Y2909524D01*
X21004761Y2909524D01*
X20852380Y2871429D01*
X20776190Y2833334D01*
X20700000Y2757143D01*
X20661904Y2642858D01*
X20661904Y2566667D01*
X20700000Y2452381D01*
X20738095Y2414286D01*
X21461904Y1652381D02*
X21461904Y2109524D01*
X21461904Y1880953D02*
X20661904Y1880953D01*
X20776190Y1957143D01*
X20852380Y2033334D01*
X20890476Y2109524D01*
X20661904Y966667D02*
X20661904Y1119048D01*
X20700000Y1195239D01*
X20738095Y1233334D01*
X20852380Y1309524D01*
X21004761Y1347620D01*
X21309523Y1347620D01*
X21385714Y1309524D01*
X21423809Y1271429D01*
X21461904Y1195239D01*
X21461904Y1042858D01*
X21423809Y966667D01*
X21385714Y928572D01*
X21309523Y890477D01*
X21119047Y890477D01*
X21042857Y928572D01*
X21004761Y966667D01*
X20966666Y1042858D01*
X20966666Y1195239D01*
X21004761Y1271429D01*
X21042857Y1309524D01*
X21119047Y1347620D01*
G04 #@! TO.C,C1*
X79485714Y2733334D02*
X79523809Y2771429D01*
X79561904Y2885715D01*
X79561904Y2961905D01*
X79523809Y3076191D01*
X79447619Y3152381D01*
X79371428Y3190477D01*
X79219047Y3228572D01*
X79104761Y3228572D01*
X78952380Y3190477D01*
X78876190Y3152381D01*
X78800000Y3076191D01*
X78761904Y2961905D01*
X78761904Y2885715D01*
X78800000Y2771429D01*
X78838095Y2733334D01*
X79561904Y1971429D02*
X79561904Y2428572D01*
X79561904Y2200000D02*
X78761904Y2200000D01*
X78876190Y2276191D01*
X78952380Y2352381D01*
X78990476Y2428572D01*
G04 #@! TO.C,J3*
X58966666Y3938096D02*
X58966666Y3366667D01*
X59004761Y3252381D01*
X59080952Y3176191D01*
X59195238Y3138096D01*
X59271428Y3138096D01*
X58661904Y3938096D02*
X58166666Y3938096D01*
X58433333Y3633334D01*
X58319047Y3633334D01*
X58242857Y3595239D01*
X58204761Y3557143D01*
X58166666Y3480953D01*
X58166666Y3290477D01*
X58204761Y3214286D01*
X58242857Y3176191D01*
X58319047Y3138096D01*
X58547619Y3138096D01*
X58623809Y3176191D01*
X58661904Y3214286D01*
G04 #@! TO.C,R6*
X61359784Y1232898D02*
X60978832Y1499564D01*
X61359784Y1690041D02*
X60559784Y1690041D01*
X60559784Y1385279D01*
X60597880Y1309088D01*
X60635975Y1270993D01*
X60712165Y1232898D01*
X60826451Y1232898D01*
X60902641Y1270993D01*
X60940737Y1309088D01*
X60978832Y1385279D01*
X60978832Y1690041D01*
X60559784Y547184D02*
X60559784Y699564D01*
X60597880Y775755D01*
X60635975Y813850D01*
X60750260Y890041D01*
X60902641Y928136D01*
X61207403Y928136D01*
X61283594Y890041D01*
X61321689Y851945D01*
X61359784Y775755D01*
X61359784Y623374D01*
X61321689Y547184D01*
X61283594Y509088D01*
X61207403Y470993D01*
X61016927Y470993D01*
X60940737Y509088D01*
X60902641Y547184D01*
X60864546Y623374D01*
X60864546Y775755D01*
X60902641Y851945D01*
X60940737Y890041D01*
X61016927Y928136D01*
G04 #@! TO.C,C8*
X65033333Y3214286D02*
X65071428Y3176191D01*
X65185714Y3138096D01*
X65261904Y3138096D01*
X65376190Y3176191D01*
X65452380Y3252381D01*
X65490476Y3328572D01*
X65528571Y3480953D01*
X65528571Y3595239D01*
X65490476Y3747620D01*
X65452380Y3823810D01*
X65376190Y3900000D01*
X65261904Y3938096D01*
X65185714Y3938096D01*
X65071428Y3900000D01*
X65033333Y3861905D01*
X64576190Y3595239D02*
X64652380Y3633334D01*
X64690476Y3671429D01*
X64728571Y3747620D01*
X64728571Y3785715D01*
X64690476Y3861905D01*
X64652380Y3900000D01*
X64576190Y3938096D01*
X64423809Y3938096D01*
X64347619Y3900000D01*
X64309523Y3861905D01*
X64271428Y3785715D01*
X64271428Y3747620D01*
X64309523Y3671429D01*
X64347619Y3633334D01*
X64423809Y3595239D01*
X64576190Y3595239D01*
X64652380Y3557143D01*
X64690476Y3519048D01*
X64728571Y3442858D01*
X64728571Y3290477D01*
X64690476Y3214286D01*
X64652380Y3176191D01*
X64576190Y3138096D01*
X64423809Y3138096D01*
X64347619Y3176191D01*
X64309523Y3214286D01*
X64271428Y3290477D01*
X64271428Y3442858D01*
X64309523Y3519048D01*
X64347619Y3557143D01*
X64423809Y3595239D01*
G04 #@! TO.C,R4*
X32238095Y-2933333D02*
X32619047Y-3200000D01*
X32238095Y-3390476D02*
X33038095Y-3390476D01*
X33038095Y-3085714D01*
X33000000Y-3009523D01*
X32961904Y-2971428D01*
X32885714Y-2933333D01*
X32771428Y-2933333D01*
X32695238Y-2971428D01*
X32657142Y-3009523D01*
X32619047Y-3085714D01*
X32619047Y-3390476D01*
X32771428Y-2247619D02*
X32238095Y-2247619D01*
X33076190Y-2438095D02*
X32504761Y-2628571D01*
X32504761Y-2133333D01*
G04 #@! TO.C,U1*
X77809523Y-3761904D02*
X77809523Y-4409523D01*
X77771428Y-4485714D01*
X77733333Y-4523809D01*
X77657142Y-4561904D01*
X77504761Y-4561904D01*
X77428571Y-4523809D01*
X77390476Y-4485714D01*
X77352380Y-4409523D01*
X77352380Y-3761904D01*
X76552380Y-4561904D02*
X77009523Y-4561904D01*
X76780952Y-4561904D02*
X76780952Y-3761904D01*
X76857142Y-3876190D01*
X76933333Y-3952380D01*
X77009523Y-3990476D01*
G04 #@! TO.C,R1*
X80838095Y-3533333D02*
X81219047Y-3800000D01*
X80838095Y-3990476D02*
X81638095Y-3990476D01*
X81638095Y-3685714D01*
X81600000Y-3609523D01*
X81561904Y-3571428D01*
X81485714Y-3533333D01*
X81371428Y-3533333D01*
X81295238Y-3571428D01*
X81257142Y-3609523D01*
X81219047Y-3685714D01*
X81219047Y-3990476D01*
X80838095Y-2771428D02*
X80838095Y-3228571D01*
X80838095Y-3000000D02*
X81638095Y-3000000D01*
X81523809Y-3076190D01*
X81447619Y-3152380D01*
X81409523Y-3228571D01*
G04 #@! TO.C,R18*
X30111358Y290274D02*
X29730406Y556941D01*
X30111358Y747417D02*
X29311358Y747417D01*
X29311358Y442655D01*
X29349454Y366465D01*
X29387549Y328369D01*
X29463739Y290274D01*
X29578025Y290274D01*
X29654215Y328369D01*
X29692311Y366465D01*
X29730406Y442655D01*
X29730406Y747417D01*
X30111358Y-471631D02*
X30111358Y-14488D01*
X30111358Y-243059D02*
X29311358Y-243059D01*
X29425644Y-166869D01*
X29501834Y-90678D01*
X29539930Y-14488D01*
X29654215Y-928773D02*
X29616120Y-852583D01*
X29578025Y-814488D01*
X29501834Y-776392D01*
X29463739Y-776392D01*
X29387549Y-814488D01*
X29349454Y-852583D01*
X29311358Y-928773D01*
X29311358Y-1081154D01*
X29349454Y-1157345D01*
X29387549Y-1195440D01*
X29463739Y-1233535D01*
X29501834Y-1233535D01*
X29578025Y-1195440D01*
X29616120Y-1157345D01*
X29654215Y-1081154D01*
X29654215Y-928773D01*
X29692311Y-852583D01*
X29730406Y-814488D01*
X29806596Y-776392D01*
X29958977Y-776392D01*
X30035168Y-814488D01*
X30073263Y-852583D01*
X30111358Y-928773D01*
X30111358Y-1081154D01*
X30073263Y-1157345D01*
X30035168Y-1195440D01*
X29958977Y-1233535D01*
X29806596Y-1233535D01*
X29730406Y-1195440D01*
X29692311Y-1157345D01*
X29654215Y-1081154D01*
G04 #@! TO.C,C2*
X73385714Y2633334D02*
X73423809Y2671429D01*
X73461904Y2785715D01*
X73461904Y2861905D01*
X73423809Y2976191D01*
X73347619Y3052381D01*
X73271428Y3090477D01*
X73119047Y3128572D01*
X73004761Y3128572D01*
X72852380Y3090477D01*
X72776190Y3052381D01*
X72700000Y2976191D01*
X72661904Y2861905D01*
X72661904Y2785715D01*
X72700000Y2671429D01*
X72738095Y2633334D01*
X72738095Y2328572D02*
X72700000Y2290477D01*
X72661904Y2214286D01*
X72661904Y2023810D01*
X72700000Y1947620D01*
X72738095Y1909524D01*
X72814285Y1871429D01*
X72890476Y1871429D01*
X73004761Y1909524D01*
X73461904Y2366667D01*
X73461904Y1871429D01*
G04 #@! TO.C,C6*
X67185714Y-2066666D02*
X67223809Y-2028571D01*
X67261904Y-1914285D01*
X67261904Y-1838095D01*
X67223809Y-1723809D01*
X67147619Y-1647619D01*
X67071428Y-1609523D01*
X66919047Y-1571428D01*
X66804761Y-1571428D01*
X66652380Y-1609523D01*
X66576190Y-1647619D01*
X66500000Y-1723809D01*
X66461904Y-1838095D01*
X66461904Y-1914285D01*
X66500000Y-2028571D01*
X66538095Y-2066666D01*
X66461904Y-2752380D02*
X66461904Y-2600000D01*
X66500000Y-2523809D01*
X66538095Y-2485714D01*
X66652380Y-2409523D01*
X66804761Y-2371428D01*
X67109523Y-2371428D01*
X67185714Y-2409523D01*
X67223809Y-2447619D01*
X67261904Y-2523809D01*
X67261904Y-2676190D01*
X67223809Y-2752380D01*
X67185714Y-2790476D01*
X67109523Y-2828571D01*
X66919047Y-2828571D01*
X66842857Y-2790476D01*
X66804761Y-2752380D01*
X66766666Y-2676190D01*
X66766666Y-2523809D01*
X66804761Y-2447619D01*
X66842857Y-2409523D01*
X66919047Y-2371428D01*
G04 #@! TO.C,C7*
X65585714Y-2066666D02*
X65623809Y-2028571D01*
X65661904Y-1914285D01*
X65661904Y-1838095D01*
X65623809Y-1723809D01*
X65547619Y-1647619D01*
X65471428Y-1609523D01*
X65319047Y-1571428D01*
X65204761Y-1571428D01*
X65052380Y-1609523D01*
X64976190Y-1647619D01*
X64900000Y-1723809D01*
X64861904Y-1838095D01*
X64861904Y-1914285D01*
X64900000Y-2028571D01*
X64938095Y-2066666D01*
X64861904Y-2333333D02*
X64861904Y-2866666D01*
X65661904Y-2523809D01*
G04 #@! TO.C,C10*
X69935714Y1014286D02*
X69973809Y1052381D01*
X70011904Y1166667D01*
X70011904Y1242858D01*
X69973809Y1357143D01*
X69897619Y1433334D01*
X69821428Y1471429D01*
X69669047Y1509524D01*
X69554761Y1509524D01*
X69402380Y1471429D01*
X69326190Y1433334D01*
X69250000Y1357143D01*
X69211904Y1242858D01*
X69211904Y1166667D01*
X69250000Y1052381D01*
X69288095Y1014286D01*
X70011904Y252381D02*
X70011904Y709524D01*
X70011904Y480953D02*
X69211904Y480953D01*
X69326190Y557143D01*
X69402380Y633334D01*
X69440476Y709524D01*
X69211904Y-242857D02*
X69211904Y-319047D01*
X69250000Y-395238D01*
X69288095Y-433333D01*
X69364285Y-471428D01*
X69516666Y-509523D01*
X69707142Y-509523D01*
X69859523Y-471428D01*
X69935714Y-433333D01*
X69973809Y-395238D01*
X70011904Y-319047D01*
X70011904Y-242857D01*
X69973809Y-166666D01*
X69935714Y-128571D01*
X69859523Y-90476D01*
X69707142Y-52380D01*
X69516666Y-52380D01*
X69364285Y-90476D01*
X69288095Y-128571D01*
X69250000Y-166666D01*
X69211904Y-242857D01*
G04 #@! TO.C,C15*
X28314285Y-3085714D02*
X28352380Y-3123809D01*
X28466666Y-3161904D01*
X28542857Y-3161904D01*
X28657142Y-3123809D01*
X28733333Y-3047619D01*
X28771428Y-2971428D01*
X28809523Y-2819047D01*
X28809523Y-2704761D01*
X28771428Y-2552380D01*
X28733333Y-2476190D01*
X28657142Y-2400000D01*
X28542857Y-2361904D01*
X28466666Y-2361904D01*
X28352380Y-2400000D01*
X28314285Y-2438095D01*
X27552380Y-3161904D02*
X28009523Y-3161904D01*
X27780952Y-3161904D02*
X27780952Y-2361904D01*
X27857142Y-2476190D01*
X27933333Y-2552380D01*
X28009523Y-2590476D01*
X26828571Y-2361904D02*
X27209523Y-2361904D01*
X27247619Y-2742857D01*
X27209523Y-2704761D01*
X27133333Y-2666666D01*
X26942857Y-2666666D01*
X26866666Y-2704761D01*
X26828571Y-2742857D01*
X26790476Y-2819047D01*
X26790476Y-3009523D01*
X26828571Y-3085714D01*
X26866666Y-3123809D01*
X26942857Y-3161904D01*
X27133333Y-3161904D01*
X27209523Y-3123809D01*
X27247619Y-3085714D01*
G04 #@! TO.C,R5*
X68033333Y1338096D02*
X68300000Y1719048D01*
X68490476Y1338096D02*
X68490476Y2138096D01*
X68185714Y2138096D01*
X68109523Y2100000D01*
X68071428Y2061905D01*
X68033333Y1985715D01*
X68033333Y1871429D01*
X68071428Y1795239D01*
X68109523Y1757143D01*
X68185714Y1719048D01*
X68490476Y1719048D01*
X67309523Y2138096D02*
X67690476Y2138096D01*
X67728571Y1757143D01*
X67690476Y1795239D01*
X67614285Y1833334D01*
X67423809Y1833334D01*
X67347619Y1795239D01*
X67309523Y1757143D01*
X67271428Y1680953D01*
X67271428Y1490477D01*
X67309523Y1414286D01*
X67347619Y1376191D01*
X67423809Y1338096D01*
X67614285Y1338096D01*
X67690476Y1376191D01*
X67728571Y1414286D01*
G04 #@! TO.C,R2*
X37361904Y-2668834D02*
X36980952Y-2402168D01*
X37361904Y-2211691D02*
X36561904Y-2211691D01*
X36561904Y-2516453D01*
X36600000Y-2592644D01*
X36638095Y-2630739D01*
X36714285Y-2668834D01*
X36828571Y-2668834D01*
X36904761Y-2630739D01*
X36942857Y-2592644D01*
X36980952Y-2516453D01*
X36980952Y-2211691D01*
X36638095Y-2973596D02*
X36600000Y-3011691D01*
X36561904Y-3087882D01*
X36561904Y-3278358D01*
X36600000Y-3354548D01*
X36638095Y-3392644D01*
X36714285Y-3430739D01*
X36790476Y-3430739D01*
X36904761Y-3392644D01*
X37361904Y-2935501D01*
X37361904Y-3430739D01*
G04 #@! TO.C,U5*
X47540778Y-3721218D02*
X47082842Y-4179154D01*
X47002030Y-4206091D01*
X46948155Y-4206091D01*
X46867343Y-4179154D01*
X46759593Y-4071404D01*
X46732656Y-3990592D01*
X46732656Y-3936717D01*
X46759593Y-3855905D01*
X47217529Y-3397969D01*
X46678781Y-2859221D02*
X46948155Y-3128595D01*
X46705719Y-3424906D01*
X46705719Y-3371032D01*
X46678781Y-3290219D01*
X46544094Y-3155532D01*
X46463282Y-3128595D01*
X46409407Y-3128595D01*
X46328595Y-3155532D01*
X46193908Y-3290219D01*
X46166971Y-3371032D01*
X46166971Y-3424906D01*
X46193908Y-3505719D01*
X46328595Y-3640406D01*
X46409407Y-3667343D01*
X46463282Y-3667343D01*
G04 #@! TO.C,C33*
X82785714Y714286D02*
X82823809Y752381D01*
X82861904Y866667D01*
X82861904Y942858D01*
X82823809Y1057143D01*
X82747619Y1133334D01*
X82671428Y1171429D01*
X82519047Y1209524D01*
X82404761Y1209524D01*
X82252380Y1171429D01*
X82176190Y1133334D01*
X82100000Y1057143D01*
X82061904Y942858D01*
X82061904Y866667D01*
X82100000Y752381D01*
X82138095Y714286D01*
X82061904Y447620D02*
X82061904Y-47619D01*
X82366666Y219048D01*
X82366666Y104762D01*
X82404761Y28572D01*
X82442857Y-9523D01*
X82519047Y-47619D01*
X82709523Y-47619D01*
X82785714Y-9523D01*
X82823809Y28572D01*
X82861904Y104762D01*
X82861904Y333334D01*
X82823809Y409524D01*
X82785714Y447620D01*
X82061904Y-314285D02*
X82061904Y-809523D01*
X82366666Y-542857D01*
X82366666Y-657142D01*
X82404761Y-733333D01*
X82442857Y-771428D01*
X82519047Y-809523D01*
X82709523Y-809523D01*
X82785714Y-771428D01*
X82823809Y-733333D01*
X82861904Y-657142D01*
X82861904Y-428571D01*
X82823809Y-352380D01*
X82785714Y-314285D01*
G04 #@! TO.C,R3*
X79133333Y-4961904D02*
X79400000Y-4580952D01*
X79590476Y-4961904D02*
X79590476Y-4161904D01*
X79285714Y-4161904D01*
X79209523Y-4200000D01*
X79171428Y-4238095D01*
X79133333Y-4314285D01*
X79133333Y-4428571D01*
X79171428Y-4504761D01*
X79209523Y-4542857D01*
X79285714Y-4580952D01*
X79590476Y-4580952D01*
X78866666Y-4161904D02*
X78371428Y-4161904D01*
X78638095Y-4466666D01*
X78523809Y-4466666D01*
X78447619Y-4504761D01*
X78409523Y-4542857D01*
X78371428Y-4619047D01*
X78371428Y-4809523D01*
X78409523Y-4885714D01*
X78447619Y-4923809D01*
X78523809Y-4961904D01*
X78752380Y-4961904D01*
X78828571Y-4923809D01*
X78866666Y-4885714D01*
G04 #@! TO.C,R7*
X64769325Y1218255D02*
X64388373Y1484921D01*
X64769325Y1675398D02*
X63969325Y1675398D01*
X63969325Y1370636D01*
X64007421Y1294445D01*
X64045516Y1256350D01*
X64121706Y1218255D01*
X64235992Y1218255D01*
X64312182Y1256350D01*
X64350278Y1294445D01*
X64388373Y1370636D01*
X64388373Y1675398D01*
X63969325Y951588D02*
X63969325Y418255D01*
X64769325Y761112D01*
G04 #@! TO.C,C28*
X34085714Y614286D02*
X34123809Y652381D01*
X34161904Y766667D01*
X34161904Y842858D01*
X34123809Y957143D01*
X34047619Y1033334D01*
X33971428Y1071429D01*
X33819047Y1109524D01*
X33704761Y1109524D01*
X33552380Y1071429D01*
X33476190Y1033334D01*
X33400000Y957143D01*
X33361904Y842858D01*
X33361904Y766667D01*
X33400000Y652381D01*
X33438095Y614286D01*
X33438095Y309524D02*
X33400000Y271429D01*
X33361904Y195239D01*
X33361904Y4762D01*
X33400000Y-71428D01*
X33438095Y-109523D01*
X33514285Y-147619D01*
X33590476Y-147619D01*
X33704761Y-109523D01*
X34161904Y347620D01*
X34161904Y-147619D01*
X33704761Y-604761D02*
X33666666Y-528571D01*
X33628571Y-490476D01*
X33552380Y-452380D01*
X33514285Y-452380D01*
X33438095Y-490476D01*
X33400000Y-528571D01*
X33361904Y-604761D01*
X33361904Y-757142D01*
X33400000Y-833333D01*
X33438095Y-871428D01*
X33514285Y-909523D01*
X33552380Y-909523D01*
X33628571Y-871428D01*
X33666666Y-833333D01*
X33704761Y-757142D01*
X33704761Y-604761D01*
X33742857Y-528571D01*
X33780952Y-490476D01*
X33857142Y-452380D01*
X34009523Y-452380D01*
X34085714Y-490476D01*
X34123809Y-528571D01*
X34161904Y-604761D01*
X34161904Y-757142D01*
X34123809Y-833333D01*
X34085714Y-871428D01*
X34009523Y-909523D01*
X33857142Y-909523D01*
X33780952Y-871428D01*
X33742857Y-833333D01*
X33704761Y-757142D01*
G04 #@! TO.C,D2*
X25290476Y3138096D02*
X25290476Y3938096D01*
X25100000Y3938096D01*
X24985714Y3900000D01*
X24909523Y3823810D01*
X24871428Y3747620D01*
X24833333Y3595239D01*
X24833333Y3480953D01*
X24871428Y3328572D01*
X24909523Y3252381D01*
X24985714Y3176191D01*
X25100000Y3138096D01*
X25290476Y3138096D01*
X24528571Y3861905D02*
X24490476Y3900000D01*
X24414285Y3938096D01*
X24223809Y3938096D01*
X24147619Y3900000D01*
X24109523Y3861905D01*
X24071428Y3785715D01*
X24071428Y3709524D01*
X24109523Y3595239D01*
X24566666Y3138096D01*
X24071428Y3138096D01*
G04 #@! TO.C,C9*
X71333333Y-2185714D02*
X71371428Y-2223809D01*
X71485714Y-2261904D01*
X71561904Y-2261904D01*
X71676190Y-2223809D01*
X71752380Y-2147619D01*
X71790476Y-2071428D01*
X71828571Y-1919047D01*
X71828571Y-1804761D01*
X71790476Y-1652380D01*
X71752380Y-1576190D01*
X71676190Y-1500000D01*
X71561904Y-1461904D01*
X71485714Y-1461904D01*
X71371428Y-1500000D01*
X71333333Y-1538095D01*
X70952380Y-2261904D02*
X70800000Y-2261904D01*
X70723809Y-2223809D01*
X70685714Y-2185714D01*
X70609523Y-2071428D01*
X70571428Y-1919047D01*
X70571428Y-1614285D01*
X70609523Y-1538095D01*
X70647619Y-1500000D01*
X70723809Y-1461904D01*
X70876190Y-1461904D01*
X70952380Y-1500000D01*
X70990476Y-1538095D01*
X71028571Y-1614285D01*
X71028571Y-1804761D01*
X70990476Y-1880952D01*
X70952380Y-1919047D01*
X70876190Y-1957142D01*
X70723809Y-1957142D01*
X70647619Y-1919047D01*
X70609523Y-1880952D01*
X70571428Y-1804761D01*
G04 #@! TO.C,C4*
X35085714Y-866666D02*
X35123809Y-828571D01*
X35161904Y-714285D01*
X35161904Y-638095D01*
X35123809Y-523809D01*
X35047619Y-447619D01*
X34971428Y-409523D01*
X34819047Y-371428D01*
X34704761Y-371428D01*
X34552380Y-409523D01*
X34476190Y-447619D01*
X34400000Y-523809D01*
X34361904Y-638095D01*
X34361904Y-714285D01*
X34400000Y-828571D01*
X34438095Y-866666D01*
X34628571Y-1552380D02*
X35161904Y-1552380D01*
X34323809Y-1361904D02*
X34895238Y-1171428D01*
X34895238Y-1666666D01*
D11*
G04 #@! TO.C,C16*
X19190000Y928733D02*
X19190000Y1271267D01*
X20210000Y928733D02*
X20210000Y1271267D01*
G04 #@! TO.C,C1*
X78685015Y33009D02*
X78685015Y375543D01*
X79705015Y33009D02*
X79705015Y375543D01*
G04 #@! TO.C,J3*
X58565000Y2865000D02*
X55035000Y2865000D01*
X58565000Y2865000D02*
X58565000Y2800000D01*
X59890000Y2800000D02*
X58565000Y2800000D01*
X58565000Y-1065000D02*
X55035000Y-1065000D01*
X55035000Y2865000D02*
X55035000Y2800000D01*
X55035000Y-1000000D02*
X55035000Y-1065000D01*
X58565000Y-1000000D02*
X58565000Y-1065000D01*
G04 #@! TO.C,R6*
X62677880Y945923D02*
X62677880Y1253205D01*
X61917880Y945923D02*
X61917880Y1253205D01*
G04 #@! TO.C,C8*
X66707147Y3162591D02*
X66491475Y3162591D01*
X66707147Y3882591D02*
X66491475Y3882591D01*
G04 #@! TO.C,R4*
X34080000Y-2650881D02*
X34080000Y-2958163D01*
X33320000Y-2650881D02*
X33320000Y-2958163D01*
G04 #@! TO.C,U1*
X74590000Y-400000D02*
X74590000Y-1900000D01*
X74590000Y-400000D02*
X74590000Y1100000D01*
X77810000Y-400000D02*
X77810000Y1100000D01*
X77810000Y-400000D02*
X77810000Y-3325000D01*
G04 #@! TO.C,R1*
X80585523Y-2968361D02*
X80585523Y-3275643D01*
X79825523Y-2968361D02*
X79825523Y-3275643D01*
G04 #@! TO.C,R18*
X30470000Y-353641D02*
X30470000Y-46359D01*
X31230000Y-353641D02*
X31230000Y-46359D01*
G04 #@! TO.C,C2*
X72591818Y-265076D02*
X72591818Y77458D01*
X73611818Y-265076D02*
X73611818Y77458D01*
G04 #@! TO.C,C6*
X66540000Y-307836D02*
X66540000Y-92164D01*
X67260000Y-307836D02*
X67260000Y-92164D01*
G04 #@! TO.C,C7*
X64940000Y-307836D02*
X64940000Y-92164D01*
X65660000Y-307836D02*
X65660000Y-92164D01*
G04 #@! TO.C,C10*
X71160000Y392164D02*
X71160000Y607836D01*
X70440000Y392164D02*
X70440000Y607836D01*
G04 #@! TO.C,C15*
X24428733Y-3310000D02*
X24771267Y-3310000D01*
X24428733Y-2290000D02*
X24771267Y-2290000D01*
G04 #@! TO.C,R5*
X65953641Y2180000D02*
X65646359Y2180000D01*
X65953641Y1420000D02*
X65646359Y1420000D01*
G04 #@! TO.C,R2*
X36280000Y-2955809D02*
X36280000Y-2648527D01*
X35520000Y-2955809D02*
X35520000Y-2648527D01*
G04 #@! TO.C,U5*
X51355222Y464124D02*
X51691097Y800000D01*
X44308903Y800000D02*
X44644778Y464124D01*
X51691097Y800000D02*
X51355222Y1135876D01*
X48000000Y4491097D02*
X48335876Y4155222D01*
X48335876Y-2555222D02*
X48000000Y-2891097D01*
X44644778Y1135876D02*
X44308903Y800000D01*
X47664124Y4155222D02*
X48000000Y4491097D01*
G04 #@! TO.C,C33*
X81706464Y25144D02*
X81706464Y367678D01*
X80686464Y25144D02*
X80686464Y367678D01*
G04 #@! TO.C,R3*
X78589572Y-2968361D02*
X78589572Y-3275643D01*
X79349572Y-2968361D02*
X79349572Y-3275643D01*
G04 #@! TO.C,R7*
X63780000Y939890D02*
X63780000Y1247172D01*
X63020000Y939890D02*
X63020000Y1247172D01*
G04 #@! TO.C,C28*
X33110000Y-307836D02*
X33110000Y-92164D01*
X32390000Y-307836D02*
X32390000Y-92164D01*
G04 #@! TO.C,D2*
X25700000Y2800000D02*
X25700000Y1800000D01*
X25700000Y2810000D02*
X25200000Y2810000D01*
X25700000Y1790000D02*
X25200000Y1790000D01*
G04 #@! TO.C,C9*
X71092164Y-2640000D02*
X71307836Y-2640000D01*
X71092164Y-3360000D02*
X71307836Y-3360000D01*
G04 #@! TO.C,C4*
X35159327Y-2910761D02*
X35159327Y-2695089D01*
X34439327Y-2910761D02*
X34439327Y-2695089D01*
G04 #@! TD*
M02*
