G04 #@! TF.GenerationSoftware,KiCad,Pcbnew,(5.99.0-3477-gacf13a186)*
G04 #@! TF.CreationDate,2020-09-30T00:07:38-07:00*
G04 #@! TF.ProjectId,RT_USB_PD_Soldering_Iron,52545f55-5342-45f5-9044-5f536f6c6465,rev?*
G04 #@! TF.SameCoordinates,PX5f5e100PY7735940*
G04 #@! TF.FileFunction,Legend,Top*
G04 #@! TF.FilePolarity,Positive*
%FSLAX46Y46*%
G04 Gerber Fmt 4.6, Leading zero omitted, Abs format (unit mm)*
G04 Created by KiCad (PCBNEW (5.99.0-3477-gacf13a186)) date 2020-09-30 00:07:38*
%MOMM*%
%LPD*%
G01*
G04 APERTURE LIST*
%ADD10C,0.150000*%
%ADD11C,0.120000*%
%ADD12C,0.100000*%
G04 APERTURE END LIST*
D10*
G04 #@! TO.C,R10*
X29885714Y1938096D02*
X29619047Y2319048D01*
X29428571Y1938096D02*
X29428571Y2738096D01*
X29733333Y2738096D01*
X29809523Y2700000D01*
X29847619Y2661905D01*
X29885714Y2585715D01*
X29885714Y2471429D01*
X29847619Y2395239D01*
X29809523Y2357143D01*
X29733333Y2319048D01*
X29428571Y2319048D01*
X30647619Y1938096D02*
X30190476Y1938096D01*
X30419047Y1938096D02*
X30419047Y2738096D01*
X30342857Y2623810D01*
X30266666Y2547620D01*
X30190476Y2509524D01*
X31142857Y2738096D02*
X31219047Y2738096D01*
X31295238Y2700000D01*
X31333333Y2661905D01*
X31371428Y2585715D01*
X31409523Y2433334D01*
X31409523Y2242858D01*
X31371428Y2090477D01*
X31333333Y2014286D01*
X31295238Y1976191D01*
X31219047Y1938096D01*
X31142857Y1938096D01*
X31066666Y1976191D01*
X31028571Y2014286D01*
X30990476Y2090477D01*
X30952380Y2242858D01*
X30952380Y2433334D01*
X30990476Y2585715D01*
X31028571Y2661905D01*
X31066666Y2700000D01*
X31142857Y2738096D01*
G04 #@! TO.C,C21*
X44638375Y-465685D02*
X44638375Y-519560D01*
X44584500Y-627309D01*
X44530625Y-681184D01*
X44422876Y-735059D01*
X44315126Y-735059D01*
X44234314Y-708122D01*
X44099627Y-627309D01*
X44018815Y-546497D01*
X43938003Y-411810D01*
X43911065Y-330998D01*
X43911065Y-223248D01*
X43964940Y-115499D01*
X44018815Y-61624D01*
X44126564Y-7749D01*
X44180439Y-7749D01*
X44395938Y207750D02*
X44395938Y261625D01*
X44422876Y342437D01*
X44557563Y477124D01*
X44638375Y504062D01*
X44692250Y504062D01*
X44773062Y477124D01*
X44826937Y423249D01*
X44880812Y315500D01*
X44880812Y-330998D01*
X45230998Y19188D01*
X45769746Y557936D02*
X45446497Y234688D01*
X45608122Y396312D02*
X45042436Y961997D01*
X45069374Y827310D01*
X45069374Y719561D01*
X45042436Y638749D01*
G04 #@! TO.C,OLED1*
X71211904Y-1542857D02*
X71211904Y-1390476D01*
X71250000Y-1314285D01*
X71326190Y-1238095D01*
X71478571Y-1200000D01*
X71745238Y-1200000D01*
X71897619Y-1238095D01*
X71973809Y-1314285D01*
X72011904Y-1390476D01*
X72011904Y-1542857D01*
X71973809Y-1619047D01*
X71897619Y-1695238D01*
X71745238Y-1733333D01*
X71478571Y-1733333D01*
X71326190Y-1695238D01*
X71250000Y-1619047D01*
X71211904Y-1542857D01*
X72011904Y-476190D02*
X72011904Y-857142D01*
X71211904Y-857142D01*
X71592857Y-209523D02*
X71592857Y57143D01*
X72011904Y171429D02*
X72011904Y-209523D01*
X71211904Y-209523D01*
X71211904Y171429D01*
X72011904Y514286D02*
X71211904Y514286D01*
X71211904Y704762D01*
X71250000Y819048D01*
X71326190Y895239D01*
X71402380Y933334D01*
X71554761Y971429D01*
X71669047Y971429D01*
X71821428Y933334D01*
X71897619Y895239D01*
X71973809Y819048D01*
X72011904Y704762D01*
X72011904Y514286D01*
X72011904Y1733334D02*
X72011904Y1276191D01*
X72011904Y1504762D02*
X71211904Y1504762D01*
X71326190Y1428572D01*
X71402380Y1352381D01*
X71440476Y1276191D01*
G04 #@! TO.C,J1*
X91161904Y4133334D02*
X91733333Y4133334D01*
X91847619Y4095239D01*
X91923809Y4019048D01*
X91961904Y3904762D01*
X91961904Y3828572D01*
X91961904Y4933334D02*
X91961904Y4476191D01*
X91961904Y4704762D02*
X91161904Y4704762D01*
X91276190Y4628572D01*
X91352380Y4552381D01*
X91390476Y4476191D01*
G04 #@! TO.C,SW1*
X83123809Y2133334D02*
X83161904Y2247620D01*
X83161904Y2438096D01*
X83123809Y2514286D01*
X83085714Y2552381D01*
X83009523Y2590477D01*
X82933333Y2590477D01*
X82857142Y2552381D01*
X82819047Y2514286D01*
X82780952Y2438096D01*
X82742857Y2285715D01*
X82704761Y2209524D01*
X82666666Y2171429D01*
X82590476Y2133334D01*
X82514285Y2133334D01*
X82438095Y2171429D01*
X82400000Y2209524D01*
X82361904Y2285715D01*
X82361904Y2476191D01*
X82400000Y2590477D01*
X82361904Y2857143D02*
X83161904Y3047620D01*
X82590476Y3200000D01*
X83161904Y3352381D01*
X82361904Y3542858D01*
X83161904Y4266667D02*
X83161904Y3809524D01*
X83161904Y4038096D02*
X82361904Y4038096D01*
X82476190Y3961905D01*
X82552380Y3885715D01*
X82590476Y3809524D01*
G04 #@! TO.C,R17*
X34085714Y-4661904D02*
X33819047Y-4280952D01*
X33628571Y-4661904D02*
X33628571Y-3861904D01*
X33933333Y-3861904D01*
X34009523Y-3900000D01*
X34047619Y-3938095D01*
X34085714Y-4014285D01*
X34085714Y-4128571D01*
X34047619Y-4204761D01*
X34009523Y-4242857D01*
X33933333Y-4280952D01*
X33628571Y-4280952D01*
X34847619Y-4661904D02*
X34390476Y-4661904D01*
X34619047Y-4661904D02*
X34619047Y-3861904D01*
X34542857Y-3976190D01*
X34466666Y-4052380D01*
X34390476Y-4090476D01*
X35114285Y-3861904D02*
X35647619Y-3861904D01*
X35304761Y-4661904D01*
G04 #@! TO.C,C12*
X52885714Y1785715D02*
X52923809Y1747620D01*
X52961904Y1633334D01*
X52961904Y1557143D01*
X52923809Y1442858D01*
X52847619Y1366667D01*
X52771428Y1328572D01*
X52619047Y1290477D01*
X52504761Y1290477D01*
X52352380Y1328572D01*
X52276190Y1366667D01*
X52200000Y1442858D01*
X52161904Y1557143D01*
X52161904Y1633334D01*
X52200000Y1747620D01*
X52238095Y1785715D01*
X52961904Y2547620D02*
X52961904Y2090477D01*
X52961904Y2319048D02*
X52161904Y2319048D01*
X52276190Y2242858D01*
X52352380Y2166667D01*
X52390476Y2090477D01*
X52238095Y2852381D02*
X52200000Y2890477D01*
X52161904Y2966667D01*
X52161904Y3157143D01*
X52200000Y3233334D01*
X52238095Y3271429D01*
X52314285Y3309524D01*
X52390476Y3309524D01*
X52504761Y3271429D01*
X52961904Y2814286D01*
X52961904Y3309524D01*
G04 #@! TO.C,C5*
X40185714Y666667D02*
X40223809Y628572D01*
X40261904Y514286D01*
X40261904Y438096D01*
X40223809Y323810D01*
X40147619Y247620D01*
X40071428Y209524D01*
X39919047Y171429D01*
X39804761Y171429D01*
X39652380Y209524D01*
X39576190Y247620D01*
X39500000Y323810D01*
X39461904Y438096D01*
X39461904Y514286D01*
X39500000Y628572D01*
X39538095Y666667D01*
X39461904Y1390477D02*
X39461904Y1009524D01*
X39842857Y971429D01*
X39804761Y1009524D01*
X39766666Y1085715D01*
X39766666Y1276191D01*
X39804761Y1352381D01*
X39842857Y1390477D01*
X39919047Y1428572D01*
X40109523Y1428572D01*
X40185714Y1390477D01*
X40223809Y1352381D01*
X40261904Y1276191D01*
X40261904Y1085715D01*
X40223809Y1009524D01*
X40185714Y971429D01*
G04 #@! TO.C,C20*
X62385714Y-2685714D02*
X62347619Y-2723809D01*
X62233333Y-2761904D01*
X62157142Y-2761904D01*
X62042857Y-2723809D01*
X61966666Y-2647619D01*
X61928571Y-2571428D01*
X61890476Y-2419047D01*
X61890476Y-2304761D01*
X61928571Y-2152380D01*
X61966666Y-2076190D01*
X62042857Y-2000000D01*
X62157142Y-1961904D01*
X62233333Y-1961904D01*
X62347619Y-2000000D01*
X62385714Y-2038095D01*
X62690476Y-2038095D02*
X62728571Y-2000000D01*
X62804761Y-1961904D01*
X62995238Y-1961904D01*
X63071428Y-2000000D01*
X63109523Y-2038095D01*
X63147619Y-2114285D01*
X63147619Y-2190476D01*
X63109523Y-2304761D01*
X62652380Y-2761904D01*
X63147619Y-2761904D01*
X63642857Y-1961904D02*
X63719047Y-1961904D01*
X63795238Y-2000000D01*
X63833333Y-2038095D01*
X63871428Y-2114285D01*
X63909523Y-2266666D01*
X63909523Y-2457142D01*
X63871428Y-2609523D01*
X63833333Y-2685714D01*
X63795238Y-2723809D01*
X63719047Y-2761904D01*
X63642857Y-2761904D01*
X63566666Y-2723809D01*
X63528571Y-2685714D01*
X63490476Y-2609523D01*
X63452380Y-2457142D01*
X63452380Y-2266666D01*
X63490476Y-2114285D01*
X63528571Y-2038095D01*
X63566666Y-2000000D01*
X63642857Y-1961904D01*
G04 #@! TO.C,C24*
X25785714Y4214286D02*
X25747619Y4176191D01*
X25633333Y4138096D01*
X25557142Y4138096D01*
X25442857Y4176191D01*
X25366666Y4252381D01*
X25328571Y4328572D01*
X25290476Y4480953D01*
X25290476Y4595239D01*
X25328571Y4747620D01*
X25366666Y4823810D01*
X25442857Y4900000D01*
X25557142Y4938096D01*
X25633333Y4938096D01*
X25747619Y4900000D01*
X25785714Y4861905D01*
X26090476Y4861905D02*
X26128571Y4900000D01*
X26204761Y4938096D01*
X26395238Y4938096D01*
X26471428Y4900000D01*
X26509523Y4861905D01*
X26547619Y4785715D01*
X26547619Y4709524D01*
X26509523Y4595239D01*
X26052380Y4138096D01*
X26547619Y4138096D01*
X27233333Y4671429D02*
X27233333Y4138096D01*
X27042857Y4976191D02*
X26852380Y4404762D01*
X27347619Y4404762D01*
G04 #@! TO.C,U8*
X57636904Y-609523D02*
X58284523Y-609523D01*
X58360714Y-571428D01*
X58398809Y-533333D01*
X58436904Y-457142D01*
X58436904Y-304761D01*
X58398809Y-228571D01*
X58360714Y-190476D01*
X58284523Y-152380D01*
X57636904Y-152380D01*
X57979761Y342858D02*
X57941666Y266667D01*
X57903571Y228572D01*
X57827380Y190477D01*
X57789285Y190477D01*
X57713095Y228572D01*
X57675000Y266667D01*
X57636904Y342858D01*
X57636904Y495239D01*
X57675000Y571429D01*
X57713095Y609524D01*
X57789285Y647620D01*
X57827380Y647620D01*
X57903571Y609524D01*
X57941666Y571429D01*
X57979761Y495239D01*
X57979761Y342858D01*
X58017857Y266667D01*
X58055952Y228572D01*
X58132142Y190477D01*
X58284523Y190477D01*
X58360714Y228572D01*
X58398809Y266667D01*
X58436904Y342858D01*
X58436904Y495239D01*
X58398809Y571429D01*
X58360714Y609524D01*
X58284523Y647620D01*
X58132142Y647620D01*
X58055952Y609524D01*
X58017857Y571429D01*
X57979761Y495239D01*
G04 #@! TO.C,R12*
X29885714Y-3961904D02*
X29619047Y-3580952D01*
X29428571Y-3961904D02*
X29428571Y-3161904D01*
X29733333Y-3161904D01*
X29809523Y-3200000D01*
X29847619Y-3238095D01*
X29885714Y-3314285D01*
X29885714Y-3428571D01*
X29847619Y-3504761D01*
X29809523Y-3542857D01*
X29733333Y-3580952D01*
X29428571Y-3580952D01*
X30647619Y-3961904D02*
X30190476Y-3961904D01*
X30419047Y-3961904D02*
X30419047Y-3161904D01*
X30342857Y-3276190D01*
X30266666Y-3352380D01*
X30190476Y-3390476D01*
X30952380Y-3238095D02*
X30990476Y-3200000D01*
X31066666Y-3161904D01*
X31257142Y-3161904D01*
X31333333Y-3200000D01*
X31371428Y-3238095D01*
X31409523Y-3314285D01*
X31409523Y-3390476D01*
X31371428Y-3504761D01*
X30914285Y-3961904D01*
X31409523Y-3961904D01*
G04 #@! TO.C,U4*
X77161904Y-1409523D02*
X77809523Y-1409523D01*
X77885714Y-1371428D01*
X77923809Y-1333333D01*
X77961904Y-1257142D01*
X77961904Y-1104761D01*
X77923809Y-1028571D01*
X77885714Y-990476D01*
X77809523Y-952380D01*
X77161904Y-952380D01*
X77428571Y-228571D02*
X77961904Y-228571D01*
X77123809Y-419047D02*
X77695238Y-609523D01*
X77695238Y-114285D01*
G04 #@! TO.C,SW2*
X83723809Y-3866666D02*
X83761904Y-3752380D01*
X83761904Y-3561904D01*
X83723809Y-3485714D01*
X83685714Y-3447619D01*
X83609523Y-3409523D01*
X83533333Y-3409523D01*
X83457142Y-3447619D01*
X83419047Y-3485714D01*
X83380952Y-3561904D01*
X83342857Y-3714285D01*
X83304761Y-3790476D01*
X83266666Y-3828571D01*
X83190476Y-3866666D01*
X83114285Y-3866666D01*
X83038095Y-3828571D01*
X83000000Y-3790476D01*
X82961904Y-3714285D01*
X82961904Y-3523809D01*
X83000000Y-3409523D01*
X82961904Y-3142857D02*
X83761904Y-2952380D01*
X83190476Y-2800000D01*
X83761904Y-2647619D01*
X82961904Y-2457142D01*
X83038095Y-2190476D02*
X83000000Y-2152380D01*
X82961904Y-2076190D01*
X82961904Y-1885714D01*
X83000000Y-1809523D01*
X83038095Y-1771428D01*
X83114285Y-1733333D01*
X83190476Y-1733333D01*
X83304761Y-1771428D01*
X83761904Y-2228571D01*
X83761904Y-1733333D01*
G04 #@! TO.C,C26*
X62485714Y2414286D02*
X62447619Y2376191D01*
X62333333Y2338096D01*
X62257142Y2338096D01*
X62142857Y2376191D01*
X62066666Y2452381D01*
X62028571Y2528572D01*
X61990476Y2680953D01*
X61990476Y2795239D01*
X62028571Y2947620D01*
X62066666Y3023810D01*
X62142857Y3100000D01*
X62257142Y3138096D01*
X62333333Y3138096D01*
X62447619Y3100000D01*
X62485714Y3061905D01*
X62790476Y3061905D02*
X62828571Y3100000D01*
X62904761Y3138096D01*
X63095238Y3138096D01*
X63171428Y3100000D01*
X63209523Y3061905D01*
X63247619Y2985715D01*
X63247619Y2909524D01*
X63209523Y2795239D01*
X62752380Y2338096D01*
X63247619Y2338096D01*
X63933333Y3138096D02*
X63780952Y3138096D01*
X63704761Y3100000D01*
X63666666Y3061905D01*
X63590476Y2947620D01*
X63552380Y2795239D01*
X63552380Y2490477D01*
X63590476Y2414286D01*
X63628571Y2376191D01*
X63704761Y2338096D01*
X63857142Y2338096D01*
X63933333Y2376191D01*
X63971428Y2414286D01*
X64009523Y2490477D01*
X64009523Y2680953D01*
X63971428Y2757143D01*
X63933333Y2795239D01*
X63857142Y2833334D01*
X63704761Y2833334D01*
X63628571Y2795239D01*
X63590476Y2757143D01*
X63552380Y2680953D01*
G04 #@! TO.C,D3*
X18611904Y-590476D02*
X17811904Y-590476D01*
X17811904Y-400000D01*
X17850000Y-285714D01*
X17926190Y-209523D01*
X18002380Y-171428D01*
X18154761Y-133333D01*
X18269047Y-133333D01*
X18421428Y-171428D01*
X18497619Y-209523D01*
X18573809Y-285714D01*
X18611904Y-400000D01*
X18611904Y-590476D01*
X17811904Y133334D02*
X17811904Y628572D01*
X18116666Y361905D01*
X18116666Y476191D01*
X18154761Y552381D01*
X18192857Y590477D01*
X18269047Y628572D01*
X18459523Y628572D01*
X18535714Y590477D01*
X18573809Y552381D01*
X18611904Y476191D01*
X18611904Y247620D01*
X18573809Y171429D01*
X18535714Y133334D01*
G04 #@! TO.C,U6*
X23590476Y-2661904D02*
X23590476Y-3309523D01*
X23628571Y-3385714D01*
X23666666Y-3423809D01*
X23742857Y-3461904D01*
X23895238Y-3461904D01*
X23971428Y-3423809D01*
X24009523Y-3385714D01*
X24047619Y-3309523D01*
X24047619Y-2661904D01*
X24771428Y-2661904D02*
X24619047Y-2661904D01*
X24542857Y-2700000D01*
X24504761Y-2738095D01*
X24428571Y-2852380D01*
X24390476Y-3004761D01*
X24390476Y-3309523D01*
X24428571Y-3385714D01*
X24466666Y-3423809D01*
X24542857Y-3461904D01*
X24695238Y-3461904D01*
X24771428Y-3423809D01*
X24809523Y-3385714D01*
X24847619Y-3309523D01*
X24847619Y-3119047D01*
X24809523Y-3042857D01*
X24771428Y-3004761D01*
X24695238Y-2966666D01*
X24542857Y-2966666D01*
X24466666Y-3004761D01*
X24428571Y-3042857D01*
X24390476Y-3119047D01*
G04 #@! TO.C,R11*
X48261904Y3085715D02*
X47880952Y2819048D01*
X48261904Y2628572D02*
X47461904Y2628572D01*
X47461904Y2933334D01*
X47500000Y3009524D01*
X47538095Y3047620D01*
X47614285Y3085715D01*
X47728571Y3085715D01*
X47804761Y3047620D01*
X47842857Y3009524D01*
X47880952Y2933334D01*
X47880952Y2628572D01*
X48261904Y3847620D02*
X48261904Y3390477D01*
X48261904Y3619048D02*
X47461904Y3619048D01*
X47576190Y3542858D01*
X47652380Y3466667D01*
X47690476Y3390477D01*
X48261904Y4609524D02*
X48261904Y4152381D01*
X48261904Y4380953D02*
X47461904Y4380953D01*
X47576190Y4304762D01*
X47652380Y4228572D01*
X47690476Y4152381D01*
G04 #@! TO.C,U7*
X32461904Y-1809523D02*
X33109523Y-1809523D01*
X33185714Y-1771428D01*
X33223809Y-1733333D01*
X33261904Y-1657142D01*
X33261904Y-1504761D01*
X33223809Y-1428571D01*
X33185714Y-1390476D01*
X33109523Y-1352380D01*
X32461904Y-1352380D01*
X32461904Y-1047619D02*
X32461904Y-514285D01*
X33261904Y-857142D01*
G04 #@! TO.C,D1*
X82761904Y109524D02*
X81961904Y109524D01*
X81961904Y300000D01*
X82000000Y414286D01*
X82076190Y490477D01*
X82152380Y528572D01*
X82304761Y566667D01*
X82419047Y566667D01*
X82571428Y528572D01*
X82647619Y490477D01*
X82723809Y414286D01*
X82761904Y300000D01*
X82761904Y109524D01*
X82761904Y1328572D02*
X82761904Y871429D01*
X82761904Y1100000D02*
X81961904Y1100000D01*
X82076190Y1023810D01*
X82152380Y947620D01*
X82190476Y871429D01*
D11*
X82014285Y-1139285D02*
X81585714Y-1139285D01*
X81800000Y-1139285D02*
X81800000Y-389285D01*
X81728571Y-496428D01*
X81657142Y-567857D01*
X81585714Y-603571D01*
D10*
G04 #@! TO.C,C13*
X55155714Y2485715D02*
X55193809Y2447620D01*
X55231904Y2333334D01*
X55231904Y2257143D01*
X55193809Y2142858D01*
X55117619Y2066667D01*
X55041428Y2028572D01*
X54889047Y1990477D01*
X54774761Y1990477D01*
X54622380Y2028572D01*
X54546190Y2066667D01*
X54470000Y2142858D01*
X54431904Y2257143D01*
X54431904Y2333334D01*
X54470000Y2447620D01*
X54508095Y2485715D01*
X55231904Y3247620D02*
X55231904Y2790477D01*
X55231904Y3019048D02*
X54431904Y3019048D01*
X54546190Y2942858D01*
X54622380Y2866667D01*
X54660476Y2790477D01*
X54431904Y3514286D02*
X54431904Y4009524D01*
X54736666Y3742858D01*
X54736666Y3857143D01*
X54774761Y3933334D01*
X54812857Y3971429D01*
X54889047Y4009524D01*
X55079523Y4009524D01*
X55155714Y3971429D01*
X55193809Y3933334D01*
X55231904Y3857143D01*
X55231904Y3628572D01*
X55193809Y3552381D01*
X55155714Y3514286D01*
G04 #@! TO.C,C23*
X29885714Y-4985714D02*
X29847619Y-5023809D01*
X29733333Y-5061904D01*
X29657142Y-5061904D01*
X29542857Y-5023809D01*
X29466666Y-4947619D01*
X29428571Y-4871428D01*
X29390476Y-4719047D01*
X29390476Y-4604761D01*
X29428571Y-4452380D01*
X29466666Y-4376190D01*
X29542857Y-4300000D01*
X29657142Y-4261904D01*
X29733333Y-4261904D01*
X29847619Y-4300000D01*
X29885714Y-4338095D01*
X30190476Y-4338095D02*
X30228571Y-4300000D01*
X30304761Y-4261904D01*
X30495238Y-4261904D01*
X30571428Y-4300000D01*
X30609523Y-4338095D01*
X30647619Y-4414285D01*
X30647619Y-4490476D01*
X30609523Y-4604761D01*
X30152380Y-5061904D01*
X30647619Y-5061904D01*
X30914285Y-4261904D02*
X31409523Y-4261904D01*
X31142857Y-4566666D01*
X31257142Y-4566666D01*
X31333333Y-4604761D01*
X31371428Y-4642857D01*
X31409523Y-4719047D01*
X31409523Y-4909523D01*
X31371428Y-4985714D01*
X31333333Y-5023809D01*
X31257142Y-5061904D01*
X31028571Y-5061904D01*
X30952380Y-5023809D01*
X30914285Y-4985714D01*
G04 #@! TO.C,C30*
X36285714Y2414286D02*
X36247619Y2376191D01*
X36133333Y2338096D01*
X36057142Y2338096D01*
X35942857Y2376191D01*
X35866666Y2452381D01*
X35828571Y2528572D01*
X35790476Y2680953D01*
X35790476Y2795239D01*
X35828571Y2947620D01*
X35866666Y3023810D01*
X35942857Y3100000D01*
X36057142Y3138096D01*
X36133333Y3138096D01*
X36247619Y3100000D01*
X36285714Y3061905D01*
X36552380Y3138096D02*
X37047619Y3138096D01*
X36780952Y2833334D01*
X36895238Y2833334D01*
X36971428Y2795239D01*
X37009523Y2757143D01*
X37047619Y2680953D01*
X37047619Y2490477D01*
X37009523Y2414286D01*
X36971428Y2376191D01*
X36895238Y2338096D01*
X36666666Y2338096D01*
X36590476Y2376191D01*
X36552380Y2414286D01*
X37542857Y3138096D02*
X37619047Y3138096D01*
X37695238Y3100000D01*
X37733333Y3061905D01*
X37771428Y2985715D01*
X37809523Y2833334D01*
X37809523Y2642858D01*
X37771428Y2490477D01*
X37733333Y2414286D01*
X37695238Y2376191D01*
X37619047Y2338096D01*
X37542857Y2338096D01*
X37466666Y2376191D01*
X37428571Y2414286D01*
X37390476Y2490477D01*
X37352380Y2642858D01*
X37352380Y2833334D01*
X37390476Y2985715D01*
X37428571Y3061905D01*
X37466666Y3100000D01*
X37542857Y3138096D01*
G04 #@! TO.C,R13*
X64785714Y138096D02*
X64519047Y519048D01*
X64328571Y138096D02*
X64328571Y938096D01*
X64633333Y938096D01*
X64709523Y900000D01*
X64747619Y861905D01*
X64785714Y785715D01*
X64785714Y671429D01*
X64747619Y595239D01*
X64709523Y557143D01*
X64633333Y519048D01*
X64328571Y519048D01*
X65547619Y138096D02*
X65090476Y138096D01*
X65319047Y138096D02*
X65319047Y938096D01*
X65242857Y823810D01*
X65166666Y747620D01*
X65090476Y709524D01*
X65814285Y938096D02*
X66309523Y938096D01*
X66042857Y633334D01*
X66157142Y633334D01*
X66233333Y595239D01*
X66271428Y557143D01*
X66309523Y480953D01*
X66309523Y290477D01*
X66271428Y214286D01*
X66233333Y176191D01*
X66157142Y138096D01*
X65928571Y138096D01*
X65852380Y176191D01*
X65814285Y214286D01*
G04 #@! TO.C,C25*
X29885714Y3114286D02*
X29847619Y3076191D01*
X29733333Y3038096D01*
X29657142Y3038096D01*
X29542857Y3076191D01*
X29466666Y3152381D01*
X29428571Y3228572D01*
X29390476Y3380953D01*
X29390476Y3495239D01*
X29428571Y3647620D01*
X29466666Y3723810D01*
X29542857Y3800000D01*
X29657142Y3838096D01*
X29733333Y3838096D01*
X29847619Y3800000D01*
X29885714Y3761905D01*
X30190476Y3761905D02*
X30228571Y3800000D01*
X30304761Y3838096D01*
X30495238Y3838096D01*
X30571428Y3800000D01*
X30609523Y3761905D01*
X30647619Y3685715D01*
X30647619Y3609524D01*
X30609523Y3495239D01*
X30152380Y3038096D01*
X30647619Y3038096D01*
X31371428Y3838096D02*
X30990476Y3838096D01*
X30952380Y3457143D01*
X30990476Y3495239D01*
X31066666Y3533334D01*
X31257142Y3533334D01*
X31333333Y3495239D01*
X31371428Y3457143D01*
X31409523Y3380953D01*
X31409523Y3190477D01*
X31371428Y3114286D01*
X31333333Y3076191D01*
X31257142Y3038096D01*
X31066666Y3038096D01*
X30990476Y3076191D01*
X30952380Y3114286D01*
G04 #@! TO.C,U3*
X88161904Y390477D02*
X88809523Y390477D01*
X88885714Y428572D01*
X88923809Y466667D01*
X88961904Y542858D01*
X88961904Y695239D01*
X88923809Y771429D01*
X88885714Y809524D01*
X88809523Y847620D01*
X88161904Y847620D01*
X88161904Y1152381D02*
X88161904Y1647620D01*
X88466666Y1380953D01*
X88466666Y1495239D01*
X88504761Y1571429D01*
X88542857Y1609524D01*
X88619047Y1647620D01*
X88809523Y1647620D01*
X88885714Y1609524D01*
X88923809Y1571429D01*
X88961904Y1495239D01*
X88961904Y1266667D01*
X88923809Y1190477D01*
X88885714Y1152381D01*
G04 #@! TO.C,C32*
X39414285Y3614286D02*
X39376190Y3652381D01*
X39338095Y3766667D01*
X39338095Y3842858D01*
X39376190Y3957143D01*
X39452380Y4033334D01*
X39528571Y4071429D01*
X39680952Y4109524D01*
X39795238Y4109524D01*
X39947619Y4071429D01*
X40023809Y4033334D01*
X40100000Y3957143D01*
X40138095Y3842858D01*
X40138095Y3766667D01*
X40100000Y3652381D01*
X40061904Y3614286D01*
X40138095Y3347620D02*
X40138095Y2852381D01*
X39833333Y3119048D01*
X39833333Y3004762D01*
X39795238Y2928572D01*
X39757142Y2890477D01*
X39680952Y2852381D01*
X39490476Y2852381D01*
X39414285Y2890477D01*
X39376190Y2928572D01*
X39338095Y3004762D01*
X39338095Y3233334D01*
X39376190Y3309524D01*
X39414285Y3347620D01*
X40061904Y2547620D02*
X40100000Y2509524D01*
X40138095Y2433334D01*
X40138095Y2242858D01*
X40100000Y2166667D01*
X40061904Y2128572D01*
X39985714Y2090477D01*
X39909523Y2090477D01*
X39795238Y2128572D01*
X39338095Y2585715D01*
X39338095Y2090477D01*
G04 #@! TO.C,R14*
X36285714Y3638096D02*
X36019047Y4019048D01*
X35828571Y3638096D02*
X35828571Y4438096D01*
X36133333Y4438096D01*
X36209523Y4400000D01*
X36247619Y4361905D01*
X36285714Y4285715D01*
X36285714Y4171429D01*
X36247619Y4095239D01*
X36209523Y4057143D01*
X36133333Y4019048D01*
X35828571Y4019048D01*
X37047619Y3638096D02*
X36590476Y3638096D01*
X36819047Y3638096D02*
X36819047Y4438096D01*
X36742857Y4323810D01*
X36666666Y4247620D01*
X36590476Y4209524D01*
X37733333Y4171429D02*
X37733333Y3638096D01*
X37542857Y4476191D02*
X37352380Y3904762D01*
X37847619Y3904762D01*
G04 #@! TO.C,C31*
X37985714Y-2885714D02*
X37947619Y-2923809D01*
X37833333Y-2961904D01*
X37757142Y-2961904D01*
X37642857Y-2923809D01*
X37566666Y-2847619D01*
X37528571Y-2771428D01*
X37490476Y-2619047D01*
X37490476Y-2504761D01*
X37528571Y-2352380D01*
X37566666Y-2276190D01*
X37642857Y-2200000D01*
X37757142Y-2161904D01*
X37833333Y-2161904D01*
X37947619Y-2200000D01*
X37985714Y-2238095D01*
X38252380Y-2161904D02*
X38747619Y-2161904D01*
X38480952Y-2466666D01*
X38595238Y-2466666D01*
X38671428Y-2504761D01*
X38709523Y-2542857D01*
X38747619Y-2619047D01*
X38747619Y-2809523D01*
X38709523Y-2885714D01*
X38671428Y-2923809D01*
X38595238Y-2961904D01*
X38366666Y-2961904D01*
X38290476Y-2923809D01*
X38252380Y-2885714D01*
X39509523Y-2961904D02*
X39052380Y-2961904D01*
X39280952Y-2961904D02*
X39280952Y-2161904D01*
X39204761Y-2276190D01*
X39128571Y-2352380D01*
X39052380Y-2390476D01*
G04 #@! TO.C,R5*
X75566666Y3238096D02*
X75300000Y3619048D01*
X75109523Y3238096D02*
X75109523Y4038096D01*
X75414285Y4038096D01*
X75490476Y4000000D01*
X75528571Y3961905D01*
X75566666Y3885715D01*
X75566666Y3771429D01*
X75528571Y3695239D01*
X75490476Y3657143D01*
X75414285Y3619048D01*
X75109523Y3619048D01*
X76290476Y4038096D02*
X75909523Y4038096D01*
X75871428Y3657143D01*
X75909523Y3695239D01*
X75985714Y3733334D01*
X76176190Y3733334D01*
X76252380Y3695239D01*
X76290476Y3657143D01*
X76328571Y3580953D01*
X76328571Y3390477D01*
X76290476Y3314286D01*
X76252380Y3276191D01*
X76176190Y3238096D01*
X75985714Y3238096D01*
X75909523Y3276191D01*
X75871428Y3314286D01*
G04 #@! TO.C,C29*
X63685714Y-87364D02*
X63723809Y-125459D01*
X63761904Y-239745D01*
X63761904Y-315936D01*
X63723809Y-430221D01*
X63647619Y-506412D01*
X63571428Y-544507D01*
X63419047Y-582602D01*
X63304761Y-582602D01*
X63152380Y-544507D01*
X63076190Y-506412D01*
X63000000Y-430221D01*
X62961904Y-315936D01*
X62961904Y-239745D01*
X63000000Y-125459D01*
X63038095Y-87364D01*
X63038095Y217398D02*
X63000000Y255493D01*
X62961904Y331683D01*
X62961904Y522160D01*
X63000000Y598350D01*
X63038095Y636445D01*
X63114285Y674541D01*
X63190476Y674541D01*
X63304761Y636445D01*
X63761904Y179302D01*
X63761904Y674541D01*
X63761904Y1055493D02*
X63761904Y1207874D01*
X63723809Y1284064D01*
X63685714Y1322160D01*
X63571428Y1398350D01*
X63419047Y1436445D01*
X63114285Y1436445D01*
X63038095Y1398350D01*
X63000000Y1360255D01*
X62961904Y1284064D01*
X62961904Y1131683D01*
X63000000Y1055493D01*
X63038095Y1017398D01*
X63114285Y979302D01*
X63304761Y979302D01*
X63380952Y1017398D01*
X63419047Y1055493D01*
X63457142Y1131683D01*
X63457142Y1284064D01*
X63419047Y1360255D01*
X63380952Y1398350D01*
X63304761Y1436445D01*
G04 #@! TO.C,C17*
X62385714Y-4085714D02*
X62347619Y-4123809D01*
X62233333Y-4161904D01*
X62157142Y-4161904D01*
X62042857Y-4123809D01*
X61966666Y-4047619D01*
X61928571Y-3971428D01*
X61890476Y-3819047D01*
X61890476Y-3704761D01*
X61928571Y-3552380D01*
X61966666Y-3476190D01*
X62042857Y-3400000D01*
X62157142Y-3361904D01*
X62233333Y-3361904D01*
X62347619Y-3400000D01*
X62385714Y-3438095D01*
X63147619Y-4161904D02*
X62690476Y-4161904D01*
X62919047Y-4161904D02*
X62919047Y-3361904D01*
X62842857Y-3476190D01*
X62766666Y-3552380D01*
X62690476Y-3590476D01*
X63414285Y-3361904D02*
X63947619Y-3361904D01*
X63604761Y-4161904D01*
G04 #@! TO.C,C27*
X62485714Y3714286D02*
X62447619Y3676191D01*
X62333333Y3638096D01*
X62257142Y3638096D01*
X62142857Y3676191D01*
X62066666Y3752381D01*
X62028571Y3828572D01*
X61990476Y3980953D01*
X61990476Y4095239D01*
X62028571Y4247620D01*
X62066666Y4323810D01*
X62142857Y4400000D01*
X62257142Y4438096D01*
X62333333Y4438096D01*
X62447619Y4400000D01*
X62485714Y4361905D01*
X62790476Y4361905D02*
X62828571Y4400000D01*
X62904761Y4438096D01*
X63095238Y4438096D01*
X63171428Y4400000D01*
X63209523Y4361905D01*
X63247619Y4285715D01*
X63247619Y4209524D01*
X63209523Y4095239D01*
X62752380Y3638096D01*
X63247619Y3638096D01*
X63514285Y4438096D02*
X64047619Y4438096D01*
X63704761Y3638096D01*
G04 #@! TO.C,U2*
X44861904Y3690477D02*
X45509523Y3690477D01*
X45585714Y3728572D01*
X45623809Y3766667D01*
X45661904Y3842858D01*
X45661904Y3995239D01*
X45623809Y4071429D01*
X45585714Y4109524D01*
X45509523Y4147620D01*
X44861904Y4147620D01*
X44938095Y4490477D02*
X44900000Y4528572D01*
X44861904Y4604762D01*
X44861904Y4795239D01*
X44900000Y4871429D01*
X44938095Y4909524D01*
X45014285Y4947620D01*
X45090476Y4947620D01*
X45204761Y4909524D01*
X45661904Y4452381D01*
X45661904Y4947620D01*
G04 #@! TO.C,Y1*
X47944094Y-117157D02*
X47674720Y-386531D01*
X48051844Y367716D02*
X47944094Y-117157D01*
X48428967Y-9407D01*
X48348155Y-1059966D02*
X48024906Y-736717D01*
X48186531Y-898341D02*
X48752216Y-332656D01*
X48617529Y-359593D01*
X48509780Y-359593D01*
X48428967Y-332656D01*
G04 #@! TO.C,R15*
X33061904Y985715D02*
X32680952Y719048D01*
X33061904Y528572D02*
X32261904Y528572D01*
X32261904Y833334D01*
X32300000Y909524D01*
X32338095Y947620D01*
X32414285Y985715D01*
X32528571Y985715D01*
X32604761Y947620D01*
X32642857Y909524D01*
X32680952Y833334D01*
X32680952Y528572D01*
X33061904Y1747620D02*
X33061904Y1290477D01*
X33061904Y1519048D02*
X32261904Y1519048D01*
X32376190Y1442858D01*
X32452380Y1366667D01*
X32490476Y1290477D01*
X32261904Y2471429D02*
X32261904Y2090477D01*
X32642857Y2052381D01*
X32604761Y2090477D01*
X32566666Y2166667D01*
X32566666Y2357143D01*
X32604761Y2433334D01*
X32642857Y2471429D01*
X32719047Y2509524D01*
X32909523Y2509524D01*
X32985714Y2471429D01*
X33023809Y2433334D01*
X33061904Y2357143D01*
X33061904Y2166667D01*
X33023809Y2090477D01*
X32985714Y2052381D01*
G04 #@! TO.C,C22*
X44134314Y-3838375D02*
X44080439Y-3838375D01*
X43972690Y-3784500D01*
X43918815Y-3730625D01*
X43864940Y-3622876D01*
X43864940Y-3515126D01*
X43891877Y-3434314D01*
X43972690Y-3299627D01*
X44053502Y-3218815D01*
X44188189Y-3138003D01*
X44269001Y-3111065D01*
X44376751Y-3111065D01*
X44484500Y-3164940D01*
X44538375Y-3218815D01*
X44592250Y-3326564D01*
X44592250Y-3380439D01*
X44807749Y-3595938D02*
X44861624Y-3595938D01*
X44942436Y-3622876D01*
X45077123Y-3757563D01*
X45104061Y-3838375D01*
X45104061Y-3892250D01*
X45077123Y-3973062D01*
X45023248Y-4026937D01*
X44915499Y-4080812D01*
X44269001Y-4080812D01*
X44619187Y-4430998D01*
X45346497Y-4134687D02*
X45400372Y-4134687D01*
X45481184Y-4161624D01*
X45615871Y-4296311D01*
X45642809Y-4377123D01*
X45642809Y-4430998D01*
X45615871Y-4511810D01*
X45561996Y-4565685D01*
X45454247Y-4619560D01*
X44807749Y-4619560D01*
X45157935Y-4969746D01*
G04 #@! TO.C,C14*
X52570714Y-1215714D02*
X52532619Y-1253809D01*
X52418333Y-1291904D01*
X52342142Y-1291904D01*
X52227857Y-1253809D01*
X52151666Y-1177619D01*
X52113571Y-1101428D01*
X52075476Y-949047D01*
X52075476Y-834761D01*
X52113571Y-682380D01*
X52151666Y-606190D01*
X52227857Y-530000D01*
X52342142Y-491904D01*
X52418333Y-491904D01*
X52532619Y-530000D01*
X52570714Y-568095D01*
X53332619Y-1291904D02*
X52875476Y-1291904D01*
X53104047Y-1291904D02*
X53104047Y-491904D01*
X53027857Y-606190D01*
X52951666Y-682380D01*
X52875476Y-720476D01*
X54018333Y-758571D02*
X54018333Y-1291904D01*
X53827857Y-453809D02*
X53637380Y-1025238D01*
X54132619Y-1025238D01*
G04 #@! TO.C,R16*
X37985714Y-1761904D02*
X37719047Y-1380952D01*
X37528571Y-1761904D02*
X37528571Y-961904D01*
X37833333Y-961904D01*
X37909523Y-1000000D01*
X37947619Y-1038095D01*
X37985714Y-1114285D01*
X37985714Y-1228571D01*
X37947619Y-1304761D01*
X37909523Y-1342857D01*
X37833333Y-1380952D01*
X37528571Y-1380952D01*
X38747619Y-1761904D02*
X38290476Y-1761904D01*
X38519047Y-1761904D02*
X38519047Y-961904D01*
X38442857Y-1076190D01*
X38366666Y-1152380D01*
X38290476Y-1190476D01*
X39433333Y-961904D02*
X39280952Y-961904D01*
X39204761Y-1000000D01*
X39166666Y-1038095D01*
X39090476Y-1152380D01*
X39052380Y-1304761D01*
X39052380Y-1609523D01*
X39090476Y-1685714D01*
X39128571Y-1723809D01*
X39204761Y-1761904D01*
X39357142Y-1761904D01*
X39433333Y-1723809D01*
X39471428Y-1685714D01*
X39509523Y-1609523D01*
X39509523Y-1419047D01*
X39471428Y-1342857D01*
X39433333Y-1304761D01*
X39357142Y-1266666D01*
X39204761Y-1266666D01*
X39128571Y-1304761D01*
X39090476Y-1342857D01*
X39052380Y-1419047D01*
G04 #@! TO.C,C11*
X75285714Y-4085714D02*
X75247619Y-4123809D01*
X75133333Y-4161904D01*
X75057142Y-4161904D01*
X74942857Y-4123809D01*
X74866666Y-4047619D01*
X74828571Y-3971428D01*
X74790476Y-3819047D01*
X74790476Y-3704761D01*
X74828571Y-3552380D01*
X74866666Y-3476190D01*
X74942857Y-3400000D01*
X75057142Y-3361904D01*
X75133333Y-3361904D01*
X75247619Y-3400000D01*
X75285714Y-3438095D01*
X76047619Y-4161904D02*
X75590476Y-4161904D01*
X75819047Y-4161904D02*
X75819047Y-3361904D01*
X75742857Y-3476190D01*
X75666666Y-3552380D01*
X75590476Y-3590476D01*
X76809523Y-4161904D02*
X76352380Y-4161904D01*
X76580952Y-4161904D02*
X76580952Y-3361904D01*
X76504761Y-3476190D01*
X76428571Y-3552380D01*
X76352380Y-3590476D01*
D11*
G04 #@! TO.C,OLED1*
X77000000Y-4400000D02*
X77000000Y4400000D01*
X74000000Y4400000D02*
X74000000Y-4400000D01*
X77000000Y-4400000D02*
X70700000Y-4400000D01*
X70700000Y-4400000D02*
X70700000Y4400000D01*
X67300000Y-4400000D02*
X67300000Y4400000D01*
X70700000Y4400000D02*
X77000000Y4400000D01*
X70700000Y-4400000D02*
X67300000Y-4400000D01*
X70700000Y4400000D02*
X67300000Y4400000D01*
X71200000Y-4700000D02*
G75*
G03*
X71200000Y-4700000I-100000J0D01*
G01*
G04 #@! TO.C,SW1*
X78400000Y2100000D02*
X81600000Y2100000D01*
X81600000Y4900000D02*
X78400000Y4900000D01*
X81600000Y3450000D02*
X81600000Y3550000D01*
X78400000Y3500000D02*
X78400000Y3600000D01*
D10*
G04 #@! TO.C,U8*
X61200000Y-1000000D02*
X61200000Y1000000D01*
X59000000Y0D02*
X59000000Y1000000D01*
D11*
G04 #@! TO.C,U4*
X74550000Y1100000D02*
X75200000Y1100000D01*
X75200000Y1100000D02*
X75200000Y1100000D01*
X76400000Y1100000D02*
X77050000Y1100000D01*
X74550000Y-1200000D02*
X74550000Y-600000D01*
X77050000Y1100000D02*
X77050000Y600000D01*
X74550000Y600000D02*
X74550000Y1100000D01*
X75200000Y-1200000D02*
X74550000Y-1200000D01*
X76400000Y-1200000D02*
X76900000Y-1200000D01*
G04 #@! TO.C,SW2*
X78400000Y-4900000D02*
X81600000Y-4900000D01*
X78400000Y-3500000D02*
X78400000Y-3400000D01*
X81600000Y-2100000D02*
X78400000Y-2100000D01*
X81600000Y-3550000D02*
X81600000Y-3450000D01*
G04 #@! TO.C,J2*
X1600000Y-3100000D02*
X400000Y-3100000D01*
X6600000Y3100000D02*
X15600000Y3100000D01*
X15600000Y3100000D02*
X15600000Y2350000D01*
X400000Y-3100000D02*
X400000Y-2600000D01*
X1600000Y-3100000D02*
X1600000Y-5100000D01*
X-2100000Y-2600000D02*
X-2100000Y2600000D01*
X11100000Y-3100000D02*
X4400000Y-3100000D01*
X4400000Y-3100000D02*
X4400000Y-5100000D01*
X400000Y2600000D02*
X400000Y3100000D01*
X400000Y3100000D02*
X700000Y3100000D01*
X400000Y-2600000D02*
X-2100000Y-2600000D01*
X15600000Y-850000D02*
X15600000Y-3100000D01*
X15600000Y-3100000D02*
X14500000Y-3100000D01*
X-2100000Y2600000D02*
X400000Y2600000D01*
G04 #@! TO.C,D3*
X18890000Y-3080000D02*
X18890000Y1900000D01*
X18890000Y-3080000D02*
X21610000Y-3080000D01*
X21610000Y-3080000D02*
X21610000Y1900000D01*
G04 #@! TO.C,U6*
X27810000Y-1835000D02*
X27810000Y-2310000D01*
X23590000Y1435000D02*
X23590000Y1910000D01*
X23590000Y1910000D02*
X24065000Y1910000D01*
X27810000Y1910000D02*
X27335000Y1910000D01*
X27810000Y1435000D02*
X27810000Y1910000D01*
X23590000Y-1835000D02*
X23590000Y-2310000D01*
X27810000Y-2310000D02*
X27335000Y-2310000D01*
G04 #@! TO.C,U7*
X33490000Y697766D02*
X33490000Y-1102234D01*
X36710000Y-1102234D02*
X36710000Y1347766D01*
G04 #@! TO.C,D1*
X80950000Y1150000D02*
X79050000Y1150000D01*
X81300000Y-1150000D02*
X79050000Y-1150000D01*
X81300000Y-300000D02*
X81300000Y-1150000D01*
G04 #@! TO.C,U3*
X87810000Y100000D02*
X87810000Y2550000D01*
X84590000Y1900000D02*
X84590000Y100000D01*
D12*
G04 #@! TO.C,U2*
X41950000Y4300000D02*
X42170000Y4300000D01*
X42170000Y1100000D02*
X41950000Y1100000D01*
X41950000Y1100000D02*
X41950000Y1820000D01*
X44650000Y4400000D02*
X44650000Y3580000D01*
X44650000Y1820000D02*
X44650000Y1100000D01*
X41950000Y4300000D02*
X41950000Y3580000D01*
X44650000Y1100000D02*
X44430000Y1100000D01*
D11*
G04 #@! TO.C,Y1*
X46935330Y-32191D02*
X45026142Y-1941379D01*
X48561676Y-1658537D02*
X46935330Y-32191D01*
G04 #@! TD*
M02*
