G04 #@! TF.GenerationSoftware,KiCad,Pcbnew,(5.99.0-4092-g1ee3df61c)*
G04 #@! TF.CreationDate,2020-10-30T09:43:41-07:00*
G04 #@! TF.ProjectId,RT_USB_PD_Soldering_Iron,52545f55-5342-45f5-9044-5f536f6c6465,rev?*
G04 #@! TF.SameCoordinates,PX5f5e100PY7735940*
G04 #@! TF.FileFunction,Copper,L4,Bot*
G04 #@! TF.FilePolarity,Positive*
%FSLAX46Y46*%
G04 Gerber Fmt 4.6, Leading zero omitted, Abs format (unit mm)*
G04 Created by KiCad (PCBNEW (5.99.0-4092-g1ee3df61c)) date 2020-10-30 09:43:41*
%MOMM*%
%LPD*%
G01*
G04 APERTURE LIST*
G04 Aperture macros list*
%AMRoundRect*
0 Rectangle with rounded corners*
0 $1 Rounding radius*
0 $2 $3 $4 $5 $6 $7 $8 $9 X,Y pos of 4 corners*
0 Add a 4 corners polygon primitive as box body*
4,1,4,$2,$3,$4,$5,$6,$7,$8,$9,$2,$3,0*
0 Add four circle primitives for the rounded corners*
1,1,$1+$1,$2,$3,0*
1,1,$1+$1,$4,$5,0*
1,1,$1+$1,$6,$7,0*
1,1,$1+$1,$8,$9,0*
0 Add four rect primitives between the rounded corners*
20,1,$1+$1,$2,$3,$4,$5,0*
20,1,$1+$1,$4,$5,$6,$7,0*
20,1,$1+$1,$6,$7,$8,$9,0*
20,1,$1+$1,$8,$9,$2,$3,0*%
%AMRotRect*
0 Rectangle, with rotation*
0 The origin of the aperture is its center*
0 $1 length*
0 $2 width*
0 $3 Rotation angle, in degrees counterclockwise*
0 Add horizontal line*
21,1,$1,$2,0,0,$3*%
G04 Aperture macros list end*
G04 #@! TA.AperFunction,SMDPad,CuDef*
%ADD10RoundRect,0.140000X0.170000X-0.140000X0.170000X0.140000X-0.170000X0.140000X-0.170000X-0.140000X0*%
G04 #@! TD*
G04 #@! TA.AperFunction,ComponentPad*
%ADD11O,1.800000X1.000000*%
G04 #@! TD*
G04 #@! TA.AperFunction,ComponentPad*
%ADD12O,2.100000X1.000000*%
G04 #@! TD*
G04 #@! TA.AperFunction,SMDPad,CuDef*
%ADD13R,2.200000X2.100000*%
G04 #@! TD*
G04 #@! TA.AperFunction,SMDPad,CuDef*
%ADD14R,2.800000X2.100000*%
G04 #@! TD*
G04 #@! TA.AperFunction,SMDPad,CuDef*
%ADD15R,2.600000X2.700000*%
G04 #@! TD*
G04 #@! TA.AperFunction,SMDPad,CuDef*
%ADD16RoundRect,0.237500X0.237500X-0.287500X0.237500X0.287500X-0.237500X0.287500X-0.237500X-0.287500X0*%
G04 #@! TD*
G04 #@! TA.AperFunction,SMDPad,CuDef*
%ADD17RoundRect,0.135000X-0.185000X0.135000X-0.185000X-0.135000X0.185000X-0.135000X0.185000X0.135000X0*%
G04 #@! TD*
G04 #@! TA.AperFunction,SMDPad,CuDef*
%ADD18RoundRect,0.150000X0.512500X0.150000X-0.512500X0.150000X-0.512500X-0.150000X0.512500X-0.150000X0*%
G04 #@! TD*
G04 #@! TA.AperFunction,SMDPad,CuDef*
%ADD19RoundRect,0.140000X-0.170000X0.140000X-0.170000X-0.140000X0.170000X-0.140000X0.170000X0.140000X0*%
G04 #@! TD*
G04 #@! TA.AperFunction,SMDPad,CuDef*
%ADD20RoundRect,0.237500X-0.237500X0.287500X-0.237500X-0.287500X0.237500X-0.287500X0.237500X0.287500X0*%
G04 #@! TD*
G04 #@! TA.AperFunction,SMDPad,CuDef*
%ADD21RoundRect,0.140000X0.140000X0.170000X-0.140000X0.170000X-0.140000X-0.170000X0.140000X-0.170000X0*%
G04 #@! TD*
G04 #@! TA.AperFunction,SMDPad,CuDef*
%ADD22RoundRect,0.237500X-0.287500X-0.237500X0.287500X-0.237500X0.287500X0.237500X-0.287500X0.237500X0*%
G04 #@! TD*
G04 #@! TA.AperFunction,SMDPad,CuDef*
%ADD23R,0.700000X2.400000*%
G04 #@! TD*
G04 #@! TA.AperFunction,SMDPad,CuDef*
%ADD24RoundRect,0.135000X0.185000X-0.135000X0.185000X0.135000X-0.185000X0.135000X-0.185000X-0.135000X0*%
G04 #@! TD*
G04 #@! TA.AperFunction,SMDPad,CuDef*
%ADD25RoundRect,0.062500X-0.220971X-0.309359X0.309359X0.220971X0.220971X0.309359X-0.309359X-0.220971X0*%
G04 #@! TD*
G04 #@! TA.AperFunction,SMDPad,CuDef*
%ADD26RoundRect,0.062500X0.220971X-0.309359X0.309359X-0.220971X-0.220971X0.309359X-0.309359X0.220971X0*%
G04 #@! TD*
G04 #@! TA.AperFunction,SMDPad,CuDef*
%ADD27RotRect,3.450000X3.450000X45.000000*%
G04 #@! TD*
G04 #@! TA.AperFunction,SMDPad,CuDef*
%ADD28RoundRect,0.137500X0.137500X0.262500X-0.137500X0.262500X-0.137500X-0.262500X0.137500X-0.262500X0*%
G04 #@! TD*
G04 #@! TA.AperFunction,ViaPad*
%ADD29C,0.560000*%
G04 #@! TD*
G04 #@! TA.AperFunction,ViaPad*
%ADD30C,0.800000*%
G04 #@! TD*
G04 #@! TA.AperFunction,ViaPad*
%ADD31C,1.000000*%
G04 #@! TD*
G04 #@! TA.AperFunction,ViaPad*
%ADD32C,1.100000*%
G04 #@! TD*
G04 #@! TA.AperFunction,Conductor*
%ADD33C,0.254000*%
G04 #@! TD*
G04 #@! TA.AperFunction,Conductor*
%ADD34C,0.500000*%
G04 #@! TD*
G04 #@! TA.AperFunction,Conductor*
%ADD35C,0.400000*%
G04 #@! TD*
G04 #@! TA.AperFunction,Conductor*
%ADD36C,0.300000*%
G04 #@! TD*
G04 #@! TA.AperFunction,Conductor*
%ADD37C,0.600000*%
G04 #@! TD*
G04 #@! TA.AperFunction,Conductor*
%ADD38C,0.152400*%
G04 #@! TD*
G04 #@! TA.AperFunction,Conductor*
%ADD39C,0.203200*%
G04 #@! TD*
G04 APERTURE END LIST*
D10*
G04 #@! TO.P,C6,2*
G04 #@! TO.N,/CC1*
X62900000Y-2320000D03*
G04 #@! TO.P,C6,1*
G04 #@! TO.N,GND*
X62900000Y-3280000D03*
G04 #@! TD*
G04 #@! TO.P,C7,2*
G04 #@! TO.N,/CC2*
X61606121Y-2320000D03*
G04 #@! TO.P,C7,1*
G04 #@! TO.N,GND*
X61606121Y-3280000D03*
G04 #@! TD*
D11*
G04 #@! TO.P,J1,S1,SHIELD*
G04 #@! TO.N,GND*
X73380000Y4320000D03*
X73380000Y-4320000D03*
D12*
X69200000Y4320000D03*
X69200000Y-4320000D03*
G04 #@! TD*
D13*
G04 #@! TO.P,J2,G*
G04 #@! TO.N,GND*
X2500000Y-4050000D03*
G04 #@! TO.P,J2,S*
G04 #@! TO.N,/TIP_TC*
X4500000Y4050000D03*
G04 #@! TO.P,J2,SN*
X1600000Y4050000D03*
D14*
G04 #@! TO.P,J2,T*
G04 #@! TO.N,/HEATER*
X12000000Y-4050000D03*
D15*
G04 #@! TO.P,J2,TN*
X16300000Y750000D03*
G04 #@! TD*
D10*
G04 #@! TO.P,C19,1*
G04 #@! TO.N,+3V3*
X58200000Y-1983374D03*
G04 #@! TO.P,C19,2*
G04 #@! TO.N,GND*
X58200000Y-1023374D03*
G04 #@! TD*
D16*
G04 #@! TO.P,C16,1*
G04 #@! TO.N,/HEATER*
X19700000Y225000D03*
G04 #@! TO.P,C16,2*
G04 #@! TO.N,GND*
X19700000Y1975000D03*
G04 #@! TD*
G04 #@! TO.P,C1,1*
G04 #@! TO.N,IN*
X65700000Y-2575000D03*
G04 #@! TO.P,C1,2*
G04 #@! TO.N,GND*
X65700000Y-825000D03*
G04 #@! TD*
D17*
G04 #@! TO.P,R4,1*
G04 #@! TO.N,/PVD_IN*
X35100000Y-2290000D03*
G04 #@! TO.P,R4,2*
G04 #@! TO.N,GND*
X35100000Y-3310000D03*
G04 #@! TD*
D18*
G04 #@! TO.P,U1,1,IN*
G04 #@! TO.N,IN*
X63865953Y945914D03*
G04 #@! TO.P,U1,2,GND*
G04 #@! TO.N,GND*
X63865953Y-4086D03*
G04 #@! TO.P,U1,3,EN*
G04 #@! TO.N,IN*
X63865953Y-954086D03*
G04 #@! TO.P,U1,4,BP*
G04 #@! TO.N,Net-(C3-Pad1)*
X61590953Y-954086D03*
G04 #@! TO.P,U1,5,OUT*
G04 #@! TO.N,+3V3*
X61590953Y945914D03*
G04 #@! TD*
D19*
G04 #@! TO.P,C18,1*
G04 #@! TO.N,+3V3*
X58200000Y993254D03*
G04 #@! TO.P,C18,2*
G04 #@! TO.N,GND*
X58200000Y33254D03*
G04 #@! TD*
D20*
G04 #@! TO.P,C2,1*
G04 #@! TO.N,+3V3*
X59585706Y968682D03*
G04 #@! TO.P,C2,2*
G04 #@! TO.N,GND*
X59585706Y-781318D03*
G04 #@! TD*
D21*
G04 #@! TO.P,C3,1*
G04 #@! TO.N,Net-(C3-Pad1)*
X60479540Y-2288591D03*
G04 #@! TO.P,C3,2*
G04 #@! TO.N,GND*
X59519540Y-2288591D03*
G04 #@! TD*
D22*
G04 #@! TO.P,C15,1*
G04 #@! TO.N,IN*
X23725000Y-2800000D03*
G04 #@! TO.P,C15,2*
G04 #@! TO.N,GND*
X25475000Y-2800000D03*
G04 #@! TD*
D23*
G04 #@! TO.P,J3,1,Pin_1*
G04 #@! TO.N,+3V3*
X56320000Y-1950000D03*
G04 #@! TO.P,J3,2,Pin_2*
G04 #@! TO.N,GND*
X56320000Y1950000D03*
G04 #@! TO.P,J3,3,Pin_3*
G04 #@! TO.N,/SWO*
X55050000Y-1950000D03*
G04 #@! TO.P,J3,4,Pin_4*
G04 #@! TO.N,/SWDIO*
X55050000Y1950000D03*
G04 #@! TO.P,J3,5,Pin_5*
G04 #@! TO.N,/NRST*
X53780000Y-1950000D03*
G04 #@! TO.P,J3,6,Pin_6*
G04 #@! TO.N,/SWCLK*
X53780000Y1950000D03*
G04 #@! TD*
D24*
G04 #@! TO.P,R2,1*
G04 #@! TO.N,IN*
X37600000Y-3310000D03*
G04 #@! TO.P,R2,2*
G04 #@! TO.N,/PVD_IN*
X37600000Y-2290000D03*
G04 #@! TD*
D25*
G04 #@! TO.P,U5,1,VDD*
G04 #@! TO.N,+3V3*
X46713864Y-2961010D03*
G04 #@! TO.P,U5,2,PF0-OSC_IN*
G04 #@! TO.N,/OSC_IN*
X46360311Y-2607456D03*
G04 #@! TO.P,U5,3,PF1-OSC_OUT*
G04 #@! TO.N,/OSC_OUT*
X46006757Y-2253903D03*
G04 #@! TO.P,U5,4,PG10-NRST*
G04 #@! TO.N,/NRST*
X45653204Y-1900349D03*
G04 #@! TO.P,U5,5,PA0*
G04 #@! TO.N,/PVD_IN*
X45299651Y-1546796D03*
G04 #@! TO.P,U5,6,PA1*
G04 #@! TO.N,/TEMP_SENS*
X44946097Y-1193243D03*
G04 #@! TO.P,U5,7,PA2*
G04 #@! TO.N,/VSENSE*
X44592544Y-839689D03*
G04 #@! TO.P,U5,8,PA3*
G04 #@! TO.N,/INT0*
X44238990Y-486136D03*
D26*
G04 #@! TO.P,U5,9,PA4*
G04 #@! TO.N,/SPI1_NSS*
X44238990Y486136D03*
G04 #@! TO.P,U5,10,PA5*
G04 #@! TO.N,/SPI1_SCK*
X44592544Y839689D03*
G04 #@! TO.P,U5,11,PA6*
G04 #@! TO.N,/SPI1_MISO*
X44946097Y1193243D03*
G04 #@! TO.P,U5,12,PA7*
G04 #@! TO.N,/SPI1_MOSI*
X45299651Y1546796D03*
G04 #@! TO.P,U5,13,PB0*
G04 #@! TO.N,/HEAT_ON*
X45653204Y1900349D03*
G04 #@! TO.P,U5,14,VSSA*
G04 #@! TO.N,GND*
X46006757Y2253903D03*
G04 #@! TO.P,U5,15,VDDA*
G04 #@! TO.N,+3V3*
X46360311Y2607456D03*
G04 #@! TO.P,U5,16,VSS*
G04 #@! TO.N,GND*
X46713864Y2961010D03*
D25*
G04 #@! TO.P,U5,17,VDD*
G04 #@! TO.N,+3V3*
X47686136Y2961010D03*
G04 #@! TO.P,U5,18,PA8*
G04 #@! TO.N,/BTN2*
X48039689Y2607456D03*
G04 #@! TO.P,U5,19,PA9*
G04 #@! TO.N,/CC1*
X48393243Y2253903D03*
G04 #@! TO.P,U5,20,PA10*
G04 #@! TO.N,/CC2*
X48746796Y1900349D03*
G04 #@! TO.P,U5,21,PA11*
G04 #@! TO.N,/USB_N*
X49100349Y1546796D03*
G04 #@! TO.P,U5,22,PA12*
G04 #@! TO.N,/USB_P*
X49453903Y1193243D03*
G04 #@! TO.P,U5,23,PA13*
G04 #@! TO.N,/SWDIO*
X49807456Y839689D03*
G04 #@! TO.P,U5,24,PA14*
G04 #@! TO.N,/SWCLK*
X50161010Y486136D03*
D26*
G04 #@! TO.P,U5,25,PA15*
G04 #@! TO.N,/I2C1_SCL*
X50161010Y-486136D03*
G04 #@! TO.P,U5,26,PB3*
G04 #@! TO.N,/SWO*
X49807456Y-839689D03*
G04 #@! TO.P,U5,27,PB4*
G04 #@! TO.N,/CC2*
X49453903Y-1193243D03*
G04 #@! TO.P,U5,28,PB5*
G04 #@! TO.N,/DISP_RST#*
X49100349Y-1546796D03*
G04 #@! TO.P,U5,29,PB6*
G04 #@! TO.N,/CC1*
X48746796Y-1900349D03*
G04 #@! TO.P,U5,30,PB7*
G04 #@! TO.N,/I2C1_SDA*
X48393243Y-2253903D03*
G04 #@! TO.P,U5,31,PB8-BOOT0*
G04 #@! TO.N,/BTN1*
X48039689Y-2607456D03*
G04 #@! TO.P,U5,32,VSS*
G04 #@! TO.N,GND*
X47686136Y-2961010D03*
D27*
G04 #@! TO.P,U5,33,VSS-PAD*
X47200000Y0D03*
G04 #@! TD*
D20*
G04 #@! TO.P,C33,1*
G04 #@! TO.N,IN*
X65700000Y2575000D03*
G04 #@! TO.P,C33,2*
G04 #@! TO.N,GND*
X65700000Y825000D03*
G04 #@! TD*
D28*
G04 #@! TO.P,D2,1,A1*
G04 #@! TO.N,GND*
X25325000Y2300000D03*
G04 #@! TO.P,D2,2,A2*
G04 #@! TO.N,IN*
X23912500Y2300000D03*
G04 #@! TD*
D10*
G04 #@! TO.P,C4,1*
G04 #@! TO.N,GND*
X36400000Y-3280000D03*
G04 #@! TO.P,C4,2*
G04 #@! TO.N,/PVD_IN*
X36400000Y-2320000D03*
G04 #@! TD*
D29*
G04 #@! TO.N,/NRST*
X52300000Y-1600000D03*
G04 #@! TO.N,GND*
X52900000Y-1100000D03*
X61600000Y3100000D03*
X58800000Y1800000D03*
X58200000Y-500000D03*
X58853296Y3208610D03*
X57498699Y3208610D03*
G04 #@! TO.N,/USB_N*
X61500000Y2300000D03*
G04 #@! TO.N,GND*
X60400000Y3208610D03*
G04 #@! TO.N,+3V3*
X57300000Y300000D03*
D30*
X59600000Y4500000D03*
D29*
G04 #@! TO.N,/CC2*
X51500000Y-2200000D03*
G04 #@! TO.N,/DISP_RST#*
X50500000Y-2200000D03*
G04 #@! TO.N,/CC1*
X51000000Y-2900000D03*
G04 #@! TO.N,/I2C1_SDA*
X51100000Y400000D03*
G04 #@! TO.N,GND*
X49200000Y0D03*
G04 #@! TO.N,/USB_N*
X50400000Y2600000D03*
G04 #@! TO.N,/CC1*
X48929153Y2810173D03*
G04 #@! TO.N,/CC2*
X49587435Y2537786D03*
G04 #@! TO.N,GND*
X49900000Y3200000D03*
G04 #@! TO.N,/USB_P*
X50900000Y2087589D03*
G04 #@! TO.N,/BTN2*
X48756456Y3656460D03*
D30*
G04 #@! TO.N,+3V3*
X48000000Y4300000D03*
D29*
G04 #@! TO.N,/CC2*
X61600000Y-1800000D03*
G04 #@! TO.N,GND*
X60400000Y-800000D03*
G04 #@! TO.N,/CC1*
X62862799Y-1800000D03*
G04 #@! TO.N,IN*
X23400000Y300000D03*
X23400000Y-700000D03*
D31*
X67200000Y-2500000D03*
X67200000Y2500000D03*
D29*
X24100000Y800000D03*
X24100000Y-200000D03*
D31*
X23650000Y-4500000D03*
D29*
X24100000Y-1200000D03*
G04 #@! TO.N,+3V3*
X46887587Y-3300000D03*
X57300000Y-1600000D03*
D30*
X41100000Y4300000D03*
D29*
X61400000Y0D03*
D30*
X44500000Y4300000D03*
D29*
X61500000Y4500000D03*
D30*
X46300000Y4300000D03*
X34100000Y4300000D03*
D29*
G04 #@! TO.N,/BTN1*
X48600000Y-3300000D03*
X64400000Y-2900000D03*
G04 #@! TO.N,/BTN2*
X64100000Y4100000D03*
D32*
G04 #@! TO.N,/HEATER*
X15000000Y350000D03*
D29*
X18600000Y-700000D03*
D32*
X15000000Y1150000D03*
D29*
X19300000Y-700000D03*
X19700000Y-1200000D03*
X20800000Y-100000D03*
X18600000Y-100000D03*
X18950000Y-1200000D03*
X20450000Y-1200000D03*
X18600000Y500000D03*
X20100000Y-700000D03*
X20800000Y500000D03*
X20800000Y-700000D03*
G04 #@! TO.N,/OSC_IN*
X45864597Y-3267684D03*
G04 #@! TO.N,/OSC_OUT*
X45104708Y-2978643D03*
G04 #@! TO.N,/TEMP_SENS*
X32000000Y-3300000D03*
X37000000Y-1600000D03*
G04 #@! TO.N,/CC2*
X69700000Y1200000D03*
G04 #@! TO.N,/CC1*
X69700000Y-1300000D03*
D32*
G04 #@! TO.N,/TIP_TC*
X4100000Y3050000D03*
D29*
X6550000Y4100000D03*
X31300000Y4100000D03*
D32*
X4900000Y3050000D03*
X1600000Y3050000D03*
D29*
G04 #@! TO.N,GND*
X35750000Y-3300000D03*
X45200000Y3300000D03*
X39800000Y-2600000D03*
X63800000Y-2200000D03*
X20350000Y3350000D03*
X25300000Y-525000D03*
X34800000Y3300000D03*
X800000Y-4850000D03*
X26600000Y-3200000D03*
X4200000Y-3650000D03*
X47600000Y-3300000D03*
X47200000Y3400000D03*
X37000000Y750000D03*
X32700000Y4300000D03*
X19700000Y3350000D03*
X39300000Y-3300000D03*
X21000000Y3350000D03*
X25300000Y-1150000D03*
X26000000Y3300000D03*
X62200000Y2100000D03*
X19050000Y3350000D03*
X4200000Y-4850000D03*
X47200000Y-1800000D03*
X10000000Y-3700000D03*
X800000Y-3650000D03*
X47200000Y2000000D03*
X32410396Y-101213D03*
X29750000Y-2400000D03*
X18400000Y3350000D03*
X18000000Y-4900000D03*
X28900000Y1900000D03*
D32*
X2100000Y-3050000D03*
D29*
X25300000Y750000D03*
X32400000Y1000000D03*
X65600000Y1500000D03*
X30200000Y-1300000D03*
X63300000Y2200000D03*
X34900000Y400000D03*
X10000000Y-4800000D03*
D32*
X2900000Y-3050000D03*
D29*
X30400000Y3300000D03*
X65500000Y3700000D03*
X800000Y-4250000D03*
X4200000Y-4250000D03*
X40400000Y100000D03*
X25300000Y125000D03*
X19200000Y-3700000D03*
X18800000Y-4100000D03*
X18400000Y-4500000D03*
X45200000Y0D03*
X39800000Y-500000D03*
X43300000Y-2700000D03*
G04 #@! TO.N,/I2C1_SCL*
X52000000Y400000D03*
X43300000Y2900000D03*
G04 #@! TO.N,/I2C1_SDA*
X43500000Y100000D03*
X49500000Y-2926046D03*
G04 #@! TO.N,/VSENSE*
X38800000Y-1000000D03*
X27900000Y-400000D03*
G04 #@! TO.N,/HEAT_ON*
X43900000Y3500000D03*
X28000000Y2600000D03*
X26500000Y-2200000D03*
G04 #@! TO.N,/INT0*
X42400000Y0D03*
X36400000Y2900000D03*
G04 #@! TO.N,/SPI1_MISO*
X38200000Y2300000D03*
G04 #@! TO.N,/SPI1_NSS*
X38700000Y200000D03*
G04 #@! TO.N,/SPI1_MOSI*
X39100000Y2100000D03*
G04 #@! TO.N,/SPI1_SCK*
X39000000Y900000D03*
G04 #@! TO.N,/DISP_RST#*
X53000000Y400000D03*
G04 #@! TO.N,/NRST*
X44200000Y-2940590D03*
G04 #@! TO.N,/HEATER_PG*
X26500000Y2500000D03*
G04 #@! TO.N,/USB_P*
X62850000Y1500000D03*
G04 #@! TD*
D33*
G04 #@! TO.N,/NRST*
X52650000Y-1950000D02*
X52300000Y-1600000D01*
X53780000Y-1950000D02*
X52650000Y-1950000D01*
D34*
G04 #@! TO.N,+3V3*
X59585706Y968682D02*
X59031318Y968682D01*
D35*
X58200000Y993254D02*
X57788049Y993254D01*
X57788049Y993254D02*
X57300000Y505205D01*
X57300000Y505205D02*
X57300000Y300000D01*
D34*
X59031318Y968682D02*
X59006746Y993254D01*
X59006746Y993254D02*
X58200000Y993254D01*
D36*
X57300000Y-1600000D02*
X57683374Y-1983374D01*
X57683374Y-1983374D02*
X58200000Y-1983374D01*
D37*
X59585706Y968682D02*
X59585706Y4485706D01*
X59585706Y4485706D02*
X59600000Y4500000D01*
D33*
G04 #@! TO.N,/CC2*
X49814476Y-1553816D02*
X50853816Y-1553816D01*
X50853816Y-1553816D02*
X51500000Y-2200000D01*
X49453903Y-1193243D02*
X49814476Y-1553816D01*
G04 #@! TO.N,/DISP_RST#*
X50260227Y-1960227D02*
X50500000Y-2200000D01*
X49100349Y-1546796D02*
X49513780Y-1960227D01*
X49513780Y-1960227D02*
X50260227Y-1960227D01*
G04 #@! TO.N,/SWO*
X55050000Y-750000D02*
X55050000Y-1950000D01*
X49807456Y-839689D02*
X50115172Y-1147405D01*
X54700000Y-400000D02*
X55050000Y-750000D01*
G04 #@! TO.N,/CC1*
X49766637Y-2366637D02*
X50300000Y-2900000D01*
X50300000Y-2900000D02*
X51000000Y-2900000D01*
G04 #@! TO.N,/SWO*
X50115172Y-1147405D02*
X51352595Y-1147405D01*
G04 #@! TO.N,/CC1*
X48746796Y-1900349D02*
X49213084Y-2366637D01*
G04 #@! TO.N,/SWO*
X51352595Y-1147405D02*
X52100000Y-400000D01*
G04 #@! TO.N,/CC1*
X49213084Y-2366637D02*
X49766637Y-2366637D01*
G04 #@! TO.N,/SWO*
X52100000Y-400000D02*
X54700000Y-400000D01*
D38*
G04 #@! TO.N,/USB_N*
X49691398Y1891398D02*
X50400000Y2600000D01*
X49444951Y1891398D02*
X49691398Y1891398D01*
X49100349Y1546796D02*
X49444951Y1891398D01*
D39*
G04 #@! TO.N,/CC2*
X49104234Y2257787D02*
X49307436Y2257787D01*
D33*
G04 #@! TO.N,/BTN2*
X48369752Y2937519D02*
X48369752Y3078686D01*
D39*
G04 #@! TO.N,/CC1*
X48393243Y2253903D02*
X48929153Y2789813D01*
X48929153Y2789813D02*
X48929153Y2810173D01*
D33*
G04 #@! TO.N,/BTN2*
X48369752Y3078686D02*
X48756456Y3465390D01*
X48756456Y3465390D02*
X48756456Y3656460D01*
D39*
G04 #@! TO.N,/CC2*
X48746796Y1900349D02*
X49104234Y2257787D01*
X49307436Y2257787D02*
X49587435Y2537786D01*
D33*
G04 #@! TO.N,/BTN2*
X48039689Y2607456D02*
X48369752Y2937519D01*
D38*
G04 #@! TO.N,/USB_P*
X49453903Y1193243D02*
X50348249Y2087589D01*
X50348249Y2087589D02*
X50900000Y2087589D01*
D33*
G04 #@! TO.N,+3V3*
X48000000Y3274874D02*
X48000000Y4300000D01*
X47686136Y2961010D02*
X48000000Y3274874D01*
D39*
G04 #@! TO.N,/CC1*
X62862799Y-1800000D02*
X62862799Y-2282799D01*
X62862799Y-2282799D02*
X62900000Y-2320000D01*
G04 #@! TO.N,/CC2*
X61600000Y-1800000D02*
X61600000Y-2313879D01*
X61600000Y-2313879D02*
X61606121Y-2320000D01*
D33*
G04 #@! TO.N,Net-(C3-Pad1)*
X61445914Y-954086D02*
X60479540Y-1920460D01*
X61590953Y-954086D02*
X61445914Y-954086D01*
X60479540Y-1920460D02*
X60479540Y-2288591D01*
D37*
G04 #@! TO.N,+3V3*
X59585706Y968682D02*
X60728760Y968682D01*
X60728760Y968682D02*
X60751528Y945914D01*
X60751528Y945914D02*
X61590953Y945914D01*
D33*
G04 #@! TO.N,IN*
X63865953Y-1315953D02*
X65125000Y-2575000D01*
X63865953Y-954086D02*
X63865953Y-1315953D01*
D37*
X63865953Y1365953D02*
X63865953Y945914D01*
X65075000Y2575000D02*
X63865953Y1365953D01*
X65700000Y2575000D02*
X65075000Y2575000D01*
D33*
X65125000Y-2575000D02*
X65700000Y-2575000D01*
D37*
X66500000Y2500000D02*
X66425000Y2575000D01*
X23912500Y987500D02*
X24100000Y800000D01*
D33*
X37600000Y-3310000D02*
X37600000Y-4500000D01*
D37*
X67200000Y2500000D02*
X66500000Y2500000D01*
X23912500Y2300000D02*
X23912500Y987500D01*
X66425000Y2575000D02*
X65700000Y2575000D01*
D33*
G04 #@! TO.N,+3V3*
X56950000Y-1950000D02*
X56320000Y-1950000D01*
X61600940Y754003D02*
X61600940Y200940D01*
X61600940Y200940D02*
X61400000Y0D01*
X45900001Y3067766D02*
X45900001Y3900001D01*
X46360311Y2607456D02*
X45900001Y3067766D01*
X45900001Y3900001D02*
X46300000Y4300000D01*
X57300000Y-1600000D02*
X56950000Y-1950000D01*
G04 #@! TO.N,/PVD_IN*
X36400000Y-2320000D02*
X35130000Y-2320000D01*
X38010000Y-2290000D02*
X37600000Y-2290000D01*
X44833625Y-2012822D02*
X38287178Y-2012822D01*
X36400000Y-2320000D02*
X37570000Y-2320000D01*
X38287178Y-2012822D02*
X38010000Y-2290000D01*
X45299651Y-1546796D02*
X44833625Y-2012822D01*
G04 #@! TO.N,/BTN1*
X48039689Y-2607456D02*
X48600000Y-3167767D01*
X48600000Y-3167767D02*
X48600000Y-3300000D01*
G04 #@! TO.N,/OSC_IN*
X45864597Y-3103170D02*
X45864597Y-3267684D01*
X46360311Y-2607456D02*
X45864597Y-3103170D01*
G04 #@! TO.N,/OSC_OUT*
X45282017Y-2978643D02*
X45104708Y-2978643D01*
X46006757Y-2253903D02*
X45282017Y-2978643D01*
G04 #@! TO.N,/TEMP_SENS*
X44532929Y-1606411D02*
X37006411Y-1606411D01*
X37006411Y-1606411D02*
X37000000Y-1600000D01*
X44946097Y-1193243D02*
X44532929Y-1606411D01*
D35*
G04 #@! TO.N,/TIP_TC*
X5350000Y4100000D02*
X6550000Y4100000D01*
D39*
G04 #@! TO.N,GND*
X47686136Y-2948266D02*
X47300000Y-2562130D01*
X47300000Y-2562130D02*
X47300000Y-100000D01*
X46713864Y2925654D02*
X47200000Y2439518D01*
D33*
X46006757Y2253903D02*
X47200000Y1060660D01*
D39*
X47200000Y2439518D02*
X47200000Y2000000D01*
X46713864Y2961010D02*
X46713864Y2925654D01*
D33*
G04 #@! TO.N,/I2C1_SCL*
X50161010Y-486136D02*
X50374874Y-700000D01*
X50900000Y-700000D02*
X52000000Y400000D01*
X50374874Y-700000D02*
X50900000Y-700000D01*
G04 #@! TO.N,/I2C1_SDA*
X49065386Y-2926046D02*
X49500000Y-2926046D01*
X48393243Y-2253903D02*
X49065386Y-2926046D01*
G04 #@! TO.N,/VSENSE*
X39000000Y-1200000D02*
X38800000Y-1000000D01*
X44232233Y-1200000D02*
X39000000Y-1200000D01*
X44592544Y-839689D02*
X44232233Y-1200000D01*
G04 #@! TO.N,/HEAT_ON*
X44053553Y3500000D02*
X43900000Y3500000D01*
X45653204Y1900349D02*
X44053553Y3500000D01*
G04 #@! TO.N,/INT0*
X42886136Y-486136D02*
X42400000Y0D01*
X44238990Y-486136D02*
X42886136Y-486136D01*
G04 #@! TO.N,/SPI1_MISO*
X39400000Y1500000D02*
X38700000Y1500000D01*
X44946097Y1193243D02*
X44439340Y1700000D01*
X38700000Y1500000D02*
X38200000Y2000000D01*
X38200000Y2000000D02*
X38200000Y2300000D01*
X44439340Y1700000D02*
X39600000Y1700000D01*
X39600000Y1700000D02*
X39400000Y1500000D01*
G04 #@! TO.N,/SPI1_NSS*
X44025126Y700000D02*
X40000000Y700000D01*
X39500000Y200000D02*
X38700000Y200000D01*
X40000000Y700000D02*
X39500000Y200000D01*
G04 #@! TO.N,/SPI1_MOSI*
X44646447Y2200000D02*
X39200000Y2200000D01*
X39200000Y2200000D02*
X39100000Y2100000D01*
X45299651Y1546796D02*
X44646447Y2200000D01*
G04 #@! TO.N,/SPI1_SCK*
X44592544Y839689D02*
X44232233Y1200000D01*
X39695979Y1200000D02*
X39395979Y900000D01*
X39395979Y900000D02*
X39000000Y900000D01*
X44232233Y1200000D02*
X39695979Y1200000D01*
G04 #@! TO.N,/SWCLK*
X53350000Y1950000D02*
X52400000Y1000000D01*
X50161010Y486136D02*
X50674874Y1000000D01*
X53780000Y1950000D02*
X53350000Y1950000D01*
X52400000Y1000000D02*
X50674874Y1000000D01*
G04 #@! TO.N,/SWDIO*
X49807456Y839689D02*
X50467767Y1500000D01*
X54800000Y3500000D02*
X55050000Y3250000D01*
X50467767Y1500000D02*
X51250000Y1500000D01*
X51250000Y1500000D02*
X53250000Y3500000D01*
X53250000Y3500000D02*
X54800000Y3500000D01*
X55050000Y3250000D02*
X55050000Y1950000D01*
G04 #@! TO.N,/NRST*
X45134320Y-2419233D02*
X44721357Y-2419233D01*
X45653204Y-1900349D02*
X45134320Y-2419233D01*
X44721357Y-2419233D02*
X44200000Y-2940590D01*
G04 #@! TD*
G04 #@! TA.AperFunction,Conductor*
G04 #@! TO.N,IN*
G36*
X24262400Y-3810075D02*
G01*
X24289925Y-3837600D01*
X24300000Y-3875200D01*
X24300000Y-5124800D01*
X24289925Y-5162400D01*
X24262400Y-5189925D01*
X24224800Y-5200000D01*
X23458751Y-5200000D01*
X23426914Y-5192928D01*
X23355484Y-5159546D01*
X23344151Y-5152992D01*
X23255075Y-5090525D01*
X23245056Y-5082106D01*
X23168181Y-5005141D01*
X23159767Y-4995103D01*
X23097415Y-4905969D01*
X23090870Y-4894623D01*
X23044928Y-4796016D01*
X23040452Y-4783707D01*
X23033741Y-4758643D01*
X23012318Y-4678627D01*
X23010046Y-4665733D01*
X23000286Y-4554088D01*
X23000000Y-4547539D01*
X23000000Y-3875200D01*
X23010075Y-3837600D01*
X23037600Y-3810075D01*
X23075200Y-3800000D01*
X24224800Y-3800000D01*
X24262400Y-3810075D01*
G37*
G04 #@! TD.AperFunction*
G04 #@! TD*
G04 #@! TA.AperFunction,Conductor*
G04 #@! TO.N,GND*
G36*
X1207500Y-3314075D02*
G01*
X1235025Y-3341600D01*
X1245100Y-3379200D01*
X1245100Y-3540098D01*
X1247192Y-3547908D01*
X1255002Y-3550000D01*
X2000001Y-3550000D01*
X3744998Y-3550001D01*
X3752808Y-3547909D01*
X3754900Y-3540099D01*
X3754900Y-3379200D01*
X3764975Y-3341600D01*
X3792500Y-3314075D01*
X3830100Y-3304000D01*
X10369900Y-3304000D01*
X10407500Y-3314075D01*
X10435025Y-3341600D01*
X10445100Y-3379200D01*
X10445100Y-5100000D01*
X10446095Y-5104230D01*
X10446596Y-5108551D01*
X10446350Y-5108580D01*
X10447600Y-5119355D01*
X10447600Y-5170800D01*
X10437525Y-5208400D01*
X10410000Y-5235925D01*
X10372400Y-5246000D01*
X3817962Y-5246000D01*
X3780362Y-5235925D01*
X3752837Y-5208400D01*
X3742762Y-5170800D01*
X3745503Y-5156155D01*
X3744440Y-5155956D01*
X3754263Y-5103409D01*
X3754900Y-5096529D01*
X3754900Y-4559902D01*
X3752808Y-4552092D01*
X3744998Y-4550000D01*
X2999999Y-4550000D01*
X1255002Y-4549999D01*
X1247192Y-4552091D01*
X1245100Y-4559901D01*
X1245100Y-5095655D01*
X1246095Y-5104230D01*
X1257702Y-5153584D01*
X1256503Y-5192492D01*
X1236010Y-5225587D01*
X1184499Y-5246000D01*
X329200Y-5246000D01*
X291600Y-5235925D01*
X264075Y-5208400D01*
X254000Y-5170800D01*
X254000Y-3379200D01*
X264075Y-3341600D01*
X291600Y-3314075D01*
X329200Y-3304000D01*
X1169900Y-3304000D01*
X1207500Y-3314075D01*
G37*
G04 #@! TD.AperFunction*
G04 #@! TA.AperFunction,Conductor*
G36*
X74708400Y5235925D02*
G01*
X74735925Y5208400D01*
X74746000Y5170800D01*
X74746001Y-5170800D01*
X74735926Y-5208400D01*
X74708401Y-5235925D01*
X74670801Y-5246000D01*
X66322916Y-5246000D01*
X66285316Y-5235925D01*
X66257791Y-5208400D01*
X66247716Y-5170800D01*
X66257791Y-5133200D01*
X66269742Y-5117626D01*
X66925920Y-4461448D01*
X68012479Y-4461448D01*
X68033745Y-4540817D01*
X68035984Y-4546968D01*
X68081452Y-4644473D01*
X68084724Y-4650141D01*
X68146430Y-4738267D01*
X68150645Y-4743290D01*
X68226710Y-4819355D01*
X68231733Y-4823570D01*
X68319859Y-4885276D01*
X68325527Y-4888548D01*
X68423032Y-4934016D01*
X68429183Y-4936255D01*
X68533107Y-4964101D01*
X68539549Y-4965237D01*
X68619781Y-4972256D01*
X68623075Y-4972400D01*
X69063098Y-4972400D01*
X69070908Y-4970308D01*
X69073000Y-4962498D01*
X69326999Y-4962498D01*
X69329091Y-4970308D01*
X69336901Y-4972400D01*
X69776925Y-4972400D01*
X69780219Y-4972256D01*
X69860451Y-4965237D01*
X69866893Y-4964101D01*
X69970817Y-4936255D01*
X69976968Y-4934016D01*
X70074473Y-4888548D01*
X70080141Y-4885276D01*
X70168267Y-4823570D01*
X70173290Y-4819355D01*
X70249355Y-4743290D01*
X70253570Y-4738267D01*
X70315276Y-4650141D01*
X70318548Y-4644473D01*
X70364016Y-4546968D01*
X70366255Y-4540817D01*
X70387521Y-4461448D01*
X72342479Y-4461448D01*
X72363745Y-4540817D01*
X72365984Y-4546968D01*
X72411452Y-4644473D01*
X72414724Y-4650141D01*
X72476430Y-4738267D01*
X72480645Y-4743290D01*
X72556710Y-4819355D01*
X72561733Y-4823570D01*
X72649859Y-4885276D01*
X72655527Y-4888548D01*
X72753032Y-4934016D01*
X72759183Y-4936255D01*
X72863107Y-4964101D01*
X72869549Y-4965237D01*
X72949781Y-4972256D01*
X72953075Y-4972400D01*
X73243098Y-4972400D01*
X73250908Y-4970308D01*
X73253000Y-4962498D01*
X73506999Y-4962498D01*
X73509091Y-4970308D01*
X73516901Y-4972400D01*
X73806925Y-4972400D01*
X73810219Y-4972256D01*
X73890451Y-4965237D01*
X73896893Y-4964101D01*
X74000817Y-4936255D01*
X74006968Y-4934016D01*
X74104473Y-4888548D01*
X74110141Y-4885276D01*
X74198267Y-4823570D01*
X74203290Y-4819355D01*
X74279355Y-4743290D01*
X74283570Y-4738267D01*
X74345276Y-4650141D01*
X74348548Y-4644473D01*
X74394016Y-4546968D01*
X74396255Y-4540817D01*
X74418831Y-4456562D01*
X74418831Y-4452134D01*
X74406436Y-4447000D01*
X73516902Y-4446999D01*
X73509092Y-4449091D01*
X73507000Y-4456901D01*
X73506999Y-4962498D01*
X73253000Y-4962498D01*
X73253001Y-4456902D01*
X73250909Y-4449092D01*
X73243099Y-4447000D01*
X72348509Y-4446999D01*
X72344230Y-4448145D01*
X72342479Y-4461448D01*
X70387521Y-4461448D01*
X70388831Y-4456562D01*
X70388831Y-4452134D01*
X70376436Y-4447000D01*
X69336902Y-4446999D01*
X69329092Y-4449091D01*
X69327000Y-4456901D01*
X69326999Y-4962498D01*
X69073000Y-4962498D01*
X69073001Y-4456902D01*
X69070909Y-4449092D01*
X69063099Y-4447000D01*
X68018509Y-4446999D01*
X68014230Y-4448145D01*
X68012479Y-4461448D01*
X66925920Y-4461448D01*
X67203930Y-4183438D01*
X68011169Y-4183438D01*
X68011169Y-4187866D01*
X68023564Y-4193000D01*
X69063098Y-4193001D01*
X69070908Y-4190909D01*
X69073000Y-4183099D01*
X69073000Y-4183098D01*
X69326999Y-4183098D01*
X69329091Y-4190908D01*
X69336901Y-4193000D01*
X70381491Y-4193001D01*
X70385770Y-4191855D01*
X70386877Y-4183438D01*
X72341169Y-4183438D01*
X72341169Y-4187866D01*
X72353564Y-4193000D01*
X73243098Y-4193001D01*
X73250908Y-4190909D01*
X73253000Y-4183099D01*
X73253000Y-4183098D01*
X73506999Y-4183098D01*
X73509091Y-4190908D01*
X73516901Y-4193000D01*
X74411491Y-4193001D01*
X74415770Y-4191855D01*
X74417521Y-4178552D01*
X74396255Y-4099183D01*
X74394016Y-4093032D01*
X74348548Y-3995527D01*
X74345276Y-3989859D01*
X74283570Y-3901733D01*
X74279355Y-3896710D01*
X74203290Y-3820645D01*
X74198267Y-3816430D01*
X74110141Y-3754724D01*
X74104473Y-3751452D01*
X74006968Y-3705984D01*
X74000817Y-3703745D01*
X73896893Y-3675899D01*
X73890451Y-3674763D01*
X73810219Y-3667744D01*
X73806925Y-3667600D01*
X73516902Y-3667600D01*
X73509092Y-3669692D01*
X73507000Y-3677502D01*
X73506999Y-4183098D01*
X73253000Y-4183098D01*
X73253001Y-3677502D01*
X73250909Y-3669692D01*
X73243099Y-3667600D01*
X72953075Y-3667600D01*
X72949781Y-3667744D01*
X72869549Y-3674763D01*
X72863107Y-3675899D01*
X72759183Y-3703745D01*
X72753032Y-3705984D01*
X72655527Y-3751452D01*
X72649859Y-3754724D01*
X72561733Y-3816430D01*
X72556710Y-3820645D01*
X72480645Y-3896710D01*
X72476430Y-3901733D01*
X72414724Y-3989859D01*
X72411452Y-3995527D01*
X72365984Y-4093032D01*
X72363745Y-4099183D01*
X72341169Y-4183438D01*
X70386877Y-4183438D01*
X70387521Y-4178552D01*
X70366255Y-4099183D01*
X70364016Y-4093032D01*
X70318548Y-3995527D01*
X70315276Y-3989859D01*
X70253570Y-3901733D01*
X70249355Y-3896710D01*
X70173290Y-3820645D01*
X70168267Y-3816430D01*
X70080141Y-3754724D01*
X70074473Y-3751452D01*
X69976968Y-3705984D01*
X69970817Y-3703745D01*
X69866893Y-3675899D01*
X69860451Y-3674763D01*
X69780219Y-3667744D01*
X69776925Y-3667600D01*
X69336902Y-3667600D01*
X69329092Y-3669692D01*
X69327000Y-3677502D01*
X69326999Y-4183098D01*
X69073000Y-4183098D01*
X69073001Y-3677502D01*
X69070909Y-3669692D01*
X69063099Y-3667600D01*
X68623075Y-3667600D01*
X68619781Y-3667744D01*
X68539549Y-3674763D01*
X68533107Y-3675899D01*
X68429183Y-3703745D01*
X68423032Y-3705984D01*
X68325527Y-3751452D01*
X68319859Y-3754724D01*
X68231733Y-3816430D01*
X68226710Y-3820645D01*
X68150645Y-3896710D01*
X68146430Y-3901733D01*
X68084724Y-3989859D01*
X68081452Y-3995527D01*
X68035984Y-4093032D01*
X68033745Y-4099183D01*
X68011169Y-4183438D01*
X67203930Y-4183438D01*
X68035156Y-3352212D01*
X68037773Y-3349491D01*
X68040388Y-3346771D01*
X68040398Y-3346761D01*
X68040683Y-3346464D01*
X68047399Y-3339199D01*
X68052703Y-3333231D01*
X68052926Y-3332969D01*
X68052953Y-3332939D01*
X68113895Y-3261584D01*
X68114387Y-3261008D01*
X68117862Y-3256600D01*
X68123793Y-3249077D01*
X68123799Y-3249068D01*
X68124261Y-3248483D01*
X68135882Y-3232489D01*
X68144749Y-3219218D01*
X68146786Y-3215895D01*
X68151254Y-3208603D01*
X68191395Y-3143100D01*
X68191403Y-3143087D01*
X68191785Y-3142463D01*
X68199580Y-3128545D01*
X68205274Y-3117371D01*
X68208201Y-3111627D01*
X68208211Y-3111607D01*
X68208547Y-3110947D01*
X68215229Y-3096454D01*
X68215658Y-3095420D01*
X68249397Y-3013965D01*
X68249402Y-3013951D01*
X68249680Y-3013281D01*
X68251850Y-3007399D01*
X68254951Y-2998992D01*
X68254954Y-2998983D01*
X68255202Y-2998311D01*
X68255596Y-2997099D01*
X68261082Y-2980215D01*
X68261088Y-2980196D01*
X68261310Y-2979512D01*
X68264437Y-2968426D01*
X68265439Y-2964874D01*
X68265445Y-2964850D01*
X68265641Y-2964156D01*
X68267518Y-2956340D01*
X68285220Y-2882601D01*
X69170152Y-2882601D01*
X69170460Y-2886270D01*
X69170460Y-2886273D01*
X69176099Y-2953432D01*
X69178805Y-2985657D01*
X69190657Y-3026990D01*
X69202411Y-3067979D01*
X69207311Y-3085069D01*
X69208993Y-3088341D01*
X69208993Y-3088342D01*
X69216031Y-3102036D01*
X69254584Y-3177051D01*
X69318822Y-3258099D01*
X69354732Y-3288661D01*
X69392501Y-3320805D01*
X69397579Y-3325127D01*
X69407821Y-3330851D01*
X69484644Y-3373787D01*
X69484649Y-3373789D01*
X69487855Y-3375581D01*
X69491352Y-3376717D01*
X69491356Y-3376719D01*
X69529622Y-3389152D01*
X69586212Y-3407539D01*
X69622366Y-3411850D01*
X69685245Y-3419348D01*
X69685247Y-3419348D01*
X69688903Y-3419784D01*
X69792016Y-3411850D01*
X69877675Y-3387933D01*
X69888080Y-3385028D01*
X69888082Y-3385027D01*
X69891625Y-3384038D01*
X69938640Y-3360289D01*
X69980651Y-3339068D01*
X69980652Y-3339067D01*
X69983935Y-3337409D01*
X69996066Y-3327931D01*
X70062531Y-3276004D01*
X70062536Y-3275999D01*
X70065429Y-3273739D01*
X70076418Y-3261008D01*
X70130600Y-3198238D01*
X70130603Y-3198234D01*
X70133005Y-3195451D01*
X70161080Y-3146030D01*
X70182271Y-3108729D01*
X70182272Y-3108726D01*
X70184088Y-3105530D01*
X70206242Y-3038932D01*
X70215570Y-3010893D01*
X70215571Y-3010890D01*
X70216732Y-3007399D01*
X70229693Y-2904796D01*
X70229830Y-2895001D01*
X70229871Y-2892098D01*
X70229871Y-2892092D01*
X70229900Y-2890000D01*
X70229175Y-2882601D01*
X70220168Y-2790742D01*
X70220167Y-2790738D01*
X70219808Y-2787075D01*
X70189917Y-2688071D01*
X70141365Y-2596758D01*
X70138991Y-2593847D01*
X70078327Y-2519464D01*
X70078323Y-2519460D01*
X70076002Y-2516614D01*
X69996316Y-2450693D01*
X69905345Y-2401505D01*
X69806551Y-2370923D01*
X69727638Y-2362629D01*
X69707354Y-2360497D01*
X69707352Y-2360497D01*
X69703699Y-2360113D01*
X69600707Y-2369486D01*
X69551102Y-2384085D01*
X69505025Y-2397646D01*
X69505022Y-2397647D01*
X69501496Y-2398685D01*
X69498239Y-2400388D01*
X69498236Y-2400389D01*
X69426099Y-2438102D01*
X69409846Y-2446599D01*
X69406980Y-2448904D01*
X69406979Y-2448904D01*
X69333553Y-2507940D01*
X69329248Y-2511401D01*
X69262772Y-2590624D01*
X69261001Y-2593846D01*
X69261000Y-2593847D01*
X69218466Y-2671216D01*
X69212950Y-2681250D01*
X69181680Y-2779828D01*
X69170152Y-2882601D01*
X68285220Y-2882601D01*
X68286476Y-2877370D01*
X68286653Y-2876633D01*
X68286852Y-2875637D01*
X68289616Y-2861737D01*
X68289619Y-2861719D01*
X68289765Y-2860986D01*
X68292858Y-2841458D01*
X68294734Y-2825612D01*
X68295127Y-2820626D01*
X68302155Y-2731317D01*
X68302162Y-2731223D01*
X68302186Y-2730923D01*
X68302656Y-2722950D01*
X68303044Y-2713064D01*
X68303200Y-2705095D01*
X68303200Y-2305496D01*
X68303006Y-2296623D01*
X68302526Y-2285641D01*
X68302469Y-2284758D01*
X68302092Y-2279011D01*
X68301947Y-2276803D01*
X68299580Y-2249742D01*
X68293739Y-2182988D01*
X68292753Y-2171721D01*
X68292566Y-2170296D01*
X68291067Y-2158919D01*
X68290440Y-2154154D01*
X68290161Y-2152567D01*
X68286766Y-2133311D01*
X68286762Y-2133292D01*
X68286627Y-2132525D01*
X68282789Y-2115212D01*
X68281542Y-2110556D01*
X68257126Y-2019434D01*
X68257125Y-2019432D01*
X68256914Y-2018643D01*
X68256676Y-2017889D01*
X68256669Y-2017864D01*
X68251827Y-2002508D01*
X68251823Y-2002496D01*
X68251583Y-2001735D01*
X68251311Y-2000989D01*
X68251304Y-2000967D01*
X68244344Y-1981847D01*
X68244071Y-1981096D01*
X68237288Y-1964719D01*
X68233502Y-1956600D01*
X68195384Y-1874855D01*
X68195376Y-1874838D01*
X68195038Y-1874114D01*
X68191741Y-1867781D01*
X68187239Y-1859133D01*
X68187236Y-1859128D01*
X68186851Y-1858388D01*
X68175869Y-1839367D01*
X68174449Y-1837137D01*
X68166797Y-1825126D01*
X68166346Y-1824418D01*
X68122987Y-1762495D01*
X68109483Y-1743209D01*
X68109475Y-1743198D01*
X68109003Y-1742524D01*
X68098207Y-1728455D01*
X68084089Y-1711631D01*
X68072117Y-1698567D01*
X68001433Y-1627883D01*
X67988369Y-1615911D01*
X67971545Y-1601793D01*
X67957476Y-1590997D01*
X67956802Y-1590525D01*
X67956791Y-1590517D01*
X67921287Y-1565657D01*
X67875582Y-1533654D01*
X67869411Y-1529723D01*
X67861329Y-1524574D01*
X67861317Y-1524567D01*
X67860633Y-1524131D01*
X67841612Y-1513149D01*
X67825886Y-1504962D01*
X67825162Y-1504624D01*
X67825145Y-1504616D01*
X67736026Y-1463059D01*
X67736011Y-1463052D01*
X67735281Y-1462712D01*
X67724923Y-1458422D01*
X67719636Y-1456232D01*
X67719629Y-1456229D01*
X67718904Y-1455929D01*
X67710648Y-1452924D01*
X67699033Y-1448696D01*
X67699011Y-1448689D01*
X67698265Y-1448417D01*
X67697504Y-1448177D01*
X67697492Y-1448173D01*
X67682136Y-1443331D01*
X67682111Y-1443324D01*
X67681357Y-1443086D01*
X67676065Y-1441668D01*
X67585550Y-1417415D01*
X67585543Y-1417413D01*
X67584788Y-1417211D01*
X67567475Y-1413373D01*
X67566708Y-1413238D01*
X67566689Y-1413234D01*
X67546637Y-1409699D01*
X67546617Y-1409696D01*
X67545846Y-1409560D01*
X67534838Y-1408111D01*
X67529078Y-1407352D01*
X67529069Y-1407351D01*
X67528279Y-1407247D01*
X67512201Y-1405840D01*
X67423600Y-1398088D01*
X67423578Y-1398086D01*
X67423197Y-1398053D01*
X67418046Y-1397716D01*
X67414744Y-1397499D01*
X67414724Y-1397498D01*
X67414359Y-1397474D01*
X67403377Y-1396994D01*
X67403015Y-1396986D01*
X67402983Y-1396985D01*
X67394871Y-1396808D01*
X67394869Y-1396808D01*
X67394504Y-1396800D01*
X66950863Y-1396800D01*
X66950453Y-1396809D01*
X66950420Y-1396809D01*
X66942756Y-1396971D01*
X66942731Y-1396972D01*
X66942295Y-1396981D01*
X66941859Y-1396999D01*
X66941840Y-1397000D01*
X66932074Y-1397412D01*
X66932038Y-1397414D01*
X66931680Y-1397429D01*
X66931333Y-1397451D01*
X66931294Y-1397453D01*
X66926463Y-1397759D01*
X66923128Y-1397970D01*
X66821520Y-1406561D01*
X66820750Y-1406659D01*
X66820731Y-1406661D01*
X66805308Y-1408624D01*
X66805303Y-1408625D01*
X66804523Y-1408724D01*
X66803769Y-1408852D01*
X66803765Y-1408853D01*
X66800219Y-1409457D01*
X66783597Y-1412288D01*
X66766847Y-1415873D01*
X66718642Y-1428337D01*
X66674036Y-1439870D01*
X66674020Y-1439874D01*
X66673291Y-1440063D01*
X66665161Y-1442535D01*
X66657670Y-1444812D01*
X66657649Y-1444819D01*
X66656902Y-1445046D01*
X66647987Y-1448173D01*
X66637654Y-1451797D01*
X66637641Y-1451802D01*
X66636868Y-1452073D01*
X66620952Y-1458422D01*
X66617914Y-1459785D01*
X66594424Y-1470323D01*
X66586283Y-1473975D01*
X66586277Y-1473977D01*
X66586267Y-1473982D01*
X66586261Y-1473984D01*
X66533513Y-1497649D01*
X66533496Y-1497657D01*
X66532774Y-1497981D01*
X66517454Y-1505646D01*
X66498892Y-1515933D01*
X66498218Y-1516345D01*
X66498207Y-1516351D01*
X66493480Y-1519238D01*
X66484272Y-1524861D01*
X66483646Y-1525281D01*
X66483628Y-1525292D01*
X66404762Y-1578142D01*
X66399557Y-1581630D01*
X66399264Y-1581836D01*
X66399253Y-1581843D01*
X66392882Y-1586310D01*
X66392855Y-1586329D01*
X66392529Y-1586558D01*
X66388230Y-1589710D01*
X66384324Y-1592573D01*
X66384292Y-1592597D01*
X66383966Y-1592836D01*
X66377174Y-1598039D01*
X66376869Y-1598283D01*
X66175935Y-1759031D01*
X66172416Y-1761846D01*
X66171471Y-1762716D01*
X66171467Y-1762719D01*
X66152716Y-1779973D01*
X66151762Y-1780851D01*
X66150878Y-1781785D01*
X66150868Y-1781795D01*
X66135620Y-1797909D01*
X66127897Y-1806070D01*
X66126146Y-1808683D01*
X66126143Y-1808686D01*
X66114832Y-1825560D01*
X66085527Y-1851182D01*
X66040086Y-1857878D01*
X66017862Y-1854199D01*
X65962240Y-1844991D01*
X65937500Y-1844300D01*
X65462501Y-1844300D01*
X65460478Y-1844520D01*
X65460474Y-1844520D01*
X65427899Y-1848059D01*
X65367330Y-1854639D01*
X65363467Y-1855939D01*
X65357512Y-1857943D01*
X65276600Y-1885173D01*
X65273114Y-1887268D01*
X65273111Y-1887269D01*
X65216115Y-1921516D01*
X65194543Y-1934478D01*
X65191585Y-1937276D01*
X65191584Y-1937276D01*
X65144900Y-1981422D01*
X65124986Y-2000253D01*
X65124289Y-1999516D01*
X65096858Y-2018441D01*
X65058058Y-2021565D01*
X65018454Y-2000774D01*
X64544207Y-1526527D01*
X64524743Y-1492816D01*
X64524743Y-1453890D01*
X64554787Y-1411379D01*
X64609944Y-1373470D01*
X64613682Y-1370901D01*
X64630111Y-1352462D01*
X64646734Y-1333804D01*
X64670536Y-1307089D01*
X64710528Y-1231557D01*
X64731348Y-1148667D01*
X64733588Y-1113063D01*
X64734080Y-1105253D01*
X64734080Y-1105240D01*
X64734153Y-1104086D01*
X64734153Y-1025401D01*
X65070100Y-1025401D01*
X65070100Y-1110389D01*
X65070336Y-1114599D01*
X65079382Y-1195250D01*
X65081235Y-1203410D01*
X65107239Y-1278080D01*
X65110849Y-1285614D01*
X65152751Y-1352672D01*
X65157942Y-1359222D01*
X65213658Y-1415328D01*
X65220170Y-1420564D01*
X65286931Y-1462933D01*
X65294445Y-1466598D01*
X65368939Y-1493123D01*
X65377066Y-1495029D01*
X65457604Y-1504633D01*
X65461937Y-1504898D01*
X65462498Y-1504900D01*
X65462498Y-1504899D01*
X65462773Y-1504900D01*
X65499598Y-1504900D01*
X65507408Y-1502808D01*
X65509500Y-1494998D01*
X65890499Y-1494998D01*
X65892591Y-1502808D01*
X65900401Y-1504900D01*
X65935389Y-1504900D01*
X65939599Y-1504664D01*
X66020250Y-1495618D01*
X66028410Y-1493765D01*
X66103080Y-1467761D01*
X66110614Y-1464152D01*
X66177671Y-1422250D01*
X66184221Y-1417058D01*
X66240329Y-1361342D01*
X66245564Y-1354830D01*
X66251477Y-1345512D01*
X69266985Y-1345512D01*
X69267845Y-1349488D01*
X69267845Y-1349491D01*
X69277126Y-1392418D01*
X69286859Y-1437434D01*
X69326009Y-1522943D01*
X69328459Y-1526194D01*
X69328460Y-1526196D01*
X69360410Y-1568595D01*
X69382607Y-1598052D01*
X69385695Y-1600698D01*
X69385698Y-1600702D01*
X69450916Y-1656600D01*
X69450919Y-1656602D01*
X69454013Y-1659254D01*
X69536896Y-1703696D01*
X69561139Y-1710556D01*
X69623472Y-1728195D01*
X69623476Y-1728196D01*
X69627389Y-1729303D01*
X69681307Y-1732506D01*
X69717207Y-1734639D01*
X69717210Y-1734639D01*
X69721269Y-1734880D01*
X69814157Y-1720168D01*
X69817946Y-1718683D01*
X69817950Y-1718682D01*
X69867735Y-1699171D01*
X69901719Y-1685853D01*
X69905106Y-1683585D01*
X69905109Y-1683584D01*
X69976484Y-1635803D01*
X69976486Y-1635802D01*
X69979870Y-1633536D01*
X70044963Y-1565657D01*
X70051758Y-1554526D01*
X70065160Y-1532569D01*
X70093962Y-1485384D01*
X70124580Y-1396462D01*
X70125158Y-1391471D01*
X70132882Y-1324710D01*
X70135389Y-1303040D01*
X70135400Y-1300000D01*
X70125243Y-1206504D01*
X70117048Y-1182152D01*
X70096545Y-1121229D01*
X70096543Y-1121224D01*
X70095246Y-1117371D01*
X70092321Y-1112502D01*
X70048904Y-1040245D01*
X70046809Y-1036758D01*
X70008388Y-996129D01*
X69984985Y-971380D01*
X69984982Y-971378D01*
X69982191Y-968426D01*
X69904408Y-915565D01*
X69817088Y-880639D01*
X69724305Y-865279D01*
X69720238Y-865492D01*
X69720235Y-865492D01*
X69673248Y-867955D01*
X69630388Y-870201D01*
X69626461Y-871283D01*
X69626459Y-871283D01*
X69571312Y-886473D01*
X69539719Y-895175D01*
X69456527Y-939037D01*
X69445429Y-948416D01*
X69387805Y-997112D01*
X69387802Y-997115D01*
X69384696Y-999740D01*
X69327574Y-1074451D01*
X69325853Y-1078142D01*
X69289548Y-1155998D01*
X69289546Y-1156004D01*
X69287829Y-1159686D01*
X69286942Y-1163654D01*
X69286941Y-1163657D01*
X69281292Y-1188931D01*
X69267313Y-1251466D01*
X69267254Y-1268426D01*
X69267007Y-1339314D01*
X69266985Y-1345512D01*
X66251477Y-1345512D01*
X66287933Y-1288069D01*
X66291598Y-1280555D01*
X66318123Y-1206061D01*
X66320029Y-1197934D01*
X66329633Y-1117396D01*
X66329898Y-1113063D01*
X66329900Y-1112502D01*
X66329899Y-1112502D01*
X66329900Y-1112227D01*
X66329900Y-1025402D01*
X66327808Y-1017592D01*
X66319998Y-1015500D01*
X65900402Y-1015500D01*
X65892592Y-1017592D01*
X65890500Y-1025402D01*
X65890499Y-1494998D01*
X65509500Y-1494998D01*
X65509500Y-1025402D01*
X65507408Y-1017592D01*
X65499598Y-1015500D01*
X65080002Y-1015499D01*
X65072192Y-1017591D01*
X65070100Y-1025401D01*
X64734153Y-1025401D01*
X64734153Y-804087D01*
X64733859Y-801652D01*
X64724430Y-723742D01*
X64724429Y-723740D01*
X64723885Y-719241D01*
X64693676Y-639293D01*
X64645268Y-568858D01*
X64640357Y-564482D01*
X64617524Y-544139D01*
X64610071Y-537498D01*
X65070100Y-537498D01*
X65070101Y-537498D01*
X65070100Y-537773D01*
X65070100Y-624598D01*
X65072192Y-632408D01*
X65080002Y-634500D01*
X65499598Y-634500D01*
X65507408Y-632408D01*
X65509500Y-624598D01*
X65509501Y-155002D01*
X65890500Y-155002D01*
X65890500Y-624598D01*
X65892592Y-632408D01*
X65900402Y-634500D01*
X66319998Y-634501D01*
X66327808Y-632409D01*
X66329900Y-624599D01*
X66329900Y-539611D01*
X66329664Y-535401D01*
X66320618Y-454750D01*
X66318765Y-446590D01*
X66292761Y-371920D01*
X66289151Y-364386D01*
X66247249Y-297328D01*
X66242058Y-290778D01*
X66186342Y-234672D01*
X66179830Y-229436D01*
X66113069Y-187067D01*
X66105555Y-183402D01*
X66031061Y-156877D01*
X66022934Y-154971D01*
X65942396Y-145367D01*
X65938063Y-145102D01*
X65937502Y-145100D01*
X65937502Y-145101D01*
X65937227Y-145100D01*
X65900402Y-145100D01*
X65892592Y-147192D01*
X65890500Y-155002D01*
X65509501Y-155002D01*
X65507409Y-147192D01*
X65499599Y-145100D01*
X65464611Y-145100D01*
X65460401Y-145336D01*
X65379750Y-154382D01*
X65371590Y-156235D01*
X65296920Y-182239D01*
X65289386Y-185848D01*
X65222329Y-227750D01*
X65215779Y-232942D01*
X65159671Y-288658D01*
X65154436Y-295170D01*
X65112067Y-361931D01*
X65108402Y-369445D01*
X65081877Y-443939D01*
X65079971Y-452066D01*
X65070367Y-532604D01*
X65070102Y-536937D01*
X65070100Y-537498D01*
X64610071Y-537498D01*
X64581456Y-512004D01*
X64577445Y-509880D01*
X64574813Y-508051D01*
X64549687Y-478319D01*
X64542794Y-440008D01*
X64555979Y-403383D01*
X64571951Y-386640D01*
X64590143Y-372681D01*
X64597048Y-365776D01*
X64639506Y-310444D01*
X64644388Y-301987D01*
X64658784Y-267233D01*
X64659839Y-259219D01*
X64659481Y-258944D01*
X64655168Y-258086D01*
X64119956Y-258085D01*
X64119948Y-258086D01*
X63079235Y-258085D01*
X63071425Y-260177D01*
X63071309Y-260613D01*
X63072166Y-264926D01*
X63087518Y-301986D01*
X63092400Y-310443D01*
X63134858Y-365775D01*
X63141766Y-372683D01*
X63161677Y-387961D01*
X63185375Y-418843D01*
X63190456Y-457436D01*
X63175559Y-493399D01*
X63158492Y-509596D01*
X63118224Y-537271D01*
X63061370Y-601083D01*
X63021378Y-676615D01*
X63000558Y-759505D01*
X62999999Y-768396D01*
X62997899Y-801770D01*
X62997753Y-804086D01*
X62997753Y-1104085D01*
X62998026Y-1106338D01*
X62998026Y-1106344D01*
X63007303Y-1182999D01*
X63008021Y-1188931D01*
X63016192Y-1210556D01*
X63035043Y-1260444D01*
X63038230Y-1268879D01*
X63038861Y-1269798D01*
X63047006Y-1306241D01*
X63035364Y-1343385D01*
X63006709Y-1369733D01*
X62959590Y-1377279D01*
X62887104Y-1365279D01*
X62883037Y-1365492D01*
X62883034Y-1365492D01*
X62836047Y-1367955D01*
X62793187Y-1370201D01*
X62789260Y-1371283D01*
X62789258Y-1371283D01*
X62712527Y-1392418D01*
X62702518Y-1395175D01*
X62619326Y-1439037D01*
X62608190Y-1448448D01*
X62550604Y-1497112D01*
X62550601Y-1497115D01*
X62547495Y-1499740D01*
X62545024Y-1502972D01*
X62545023Y-1502973D01*
X62537539Y-1512761D01*
X62490373Y-1574451D01*
X62486926Y-1581843D01*
X62452347Y-1655998D01*
X62452345Y-1656004D01*
X62450628Y-1659686D01*
X62449741Y-1663654D01*
X62449740Y-1663657D01*
X62442482Y-1696129D01*
X62430112Y-1751466D01*
X62429985Y-1788009D01*
X62429807Y-1839037D01*
X62429784Y-1845512D01*
X62430644Y-1849488D01*
X62430644Y-1849491D01*
X62440516Y-1895148D01*
X62449658Y-1937434D01*
X62455794Y-1950835D01*
X62469798Y-1981422D01*
X62476290Y-2019803D01*
X62470899Y-2041506D01*
X62447035Y-2099116D01*
X62447034Y-2099120D01*
X62445148Y-2103674D01*
X62435100Y-2180000D01*
X62435100Y-2459999D01*
X62445148Y-2536325D01*
X62447033Y-2540877D01*
X62447034Y-2540879D01*
X62459548Y-2571089D01*
X62474609Y-2607450D01*
X62521474Y-2668526D01*
X62525381Y-2671524D01*
X62531294Y-2676061D01*
X62582550Y-2715391D01*
X62600799Y-2722950D01*
X62619084Y-2730524D01*
X62649966Y-2754221D01*
X62664863Y-2790185D01*
X62659782Y-2828778D01*
X62619084Y-2869476D01*
X62587099Y-2882725D01*
X62578643Y-2887607D01*
X62525381Y-2928476D01*
X62518476Y-2935381D01*
X62477607Y-2988643D01*
X62472725Y-2997099D01*
X62447034Y-3059120D01*
X62444505Y-3068561D01*
X62435421Y-3137565D01*
X62435100Y-3142458D01*
X62435100Y-3143098D01*
X62437192Y-3150908D01*
X62445002Y-3153000D01*
X62772997Y-3153001D01*
X62773005Y-3153000D01*
X63354998Y-3153001D01*
X63362808Y-3150909D01*
X63364900Y-3143099D01*
X63364900Y-3142459D01*
X63364579Y-3137566D01*
X63355495Y-3068562D01*
X63352966Y-3059121D01*
X63327275Y-2997099D01*
X63322393Y-2988643D01*
X63281524Y-2935381D01*
X63274619Y-2928476D01*
X63221357Y-2887607D01*
X63212901Y-2882725D01*
X63180916Y-2869476D01*
X63150034Y-2845779D01*
X63135137Y-2809815D01*
X63140218Y-2771222D01*
X63180916Y-2730524D01*
X63199201Y-2722950D01*
X63217450Y-2715391D01*
X63268706Y-2676061D01*
X63274619Y-2671524D01*
X63278526Y-2668526D01*
X63325391Y-2607450D01*
X63340428Y-2571147D01*
X63352966Y-2540880D01*
X63352967Y-2540878D01*
X63354852Y-2536326D01*
X63364900Y-2460000D01*
X63364900Y-2180001D01*
X63354852Y-2103675D01*
X63352966Y-2099120D01*
X63330884Y-2045812D01*
X63325391Y-2032550D01*
X63291406Y-1988259D01*
X63276509Y-1952297D01*
X63279964Y-1917997D01*
X63286052Y-1900318D01*
X63286053Y-1900312D01*
X63287379Y-1896462D01*
X63288554Y-1886311D01*
X63295633Y-1825126D01*
X63298188Y-1803040D01*
X63298199Y-1800000D01*
X63297968Y-1797868D01*
X63291363Y-1737075D01*
X63288042Y-1706504D01*
X63286449Y-1701770D01*
X63259344Y-1621229D01*
X63259342Y-1621224D01*
X63258045Y-1617371D01*
X63251580Y-1606611D01*
X63229044Y-1569103D01*
X63218314Y-1531685D01*
X63227732Y-1493915D01*
X63254773Y-1465914D01*
X63305081Y-1456070D01*
X63305523Y-1456139D01*
X63308872Y-1456980D01*
X63327086Y-1458126D01*
X63352286Y-1459712D01*
X63352299Y-1459712D01*
X63353453Y-1459785D01*
X63522289Y-1459785D01*
X63559889Y-1469860D01*
X63581951Y-1489209D01*
X63597053Y-1508892D01*
X63599362Y-1512069D01*
X63616017Y-1536302D01*
X63619402Y-1539318D01*
X63638305Y-1556160D01*
X63641454Y-1559133D01*
X64422028Y-2339708D01*
X64441492Y-2373419D01*
X64441492Y-2412345D01*
X64422028Y-2446056D01*
X64372789Y-2467979D01*
X64330388Y-2470201D01*
X64326461Y-2471283D01*
X64326459Y-2471283D01*
X64277930Y-2484650D01*
X64239719Y-2495175D01*
X64156527Y-2539037D01*
X64153414Y-2541668D01*
X64087805Y-2597112D01*
X64087802Y-2597115D01*
X64084696Y-2599740D01*
X64027574Y-2674451D01*
X64025853Y-2678142D01*
X63989548Y-2755998D01*
X63989546Y-2756004D01*
X63987829Y-2759686D01*
X63986942Y-2763654D01*
X63986941Y-2763657D01*
X63978394Y-2801896D01*
X63967313Y-2851466D01*
X63967163Y-2894336D01*
X63967008Y-2939037D01*
X63966985Y-2945512D01*
X63967845Y-2949488D01*
X63967845Y-2949491D01*
X63975761Y-2986102D01*
X63986859Y-3037434D01*
X64026009Y-3122943D01*
X64028459Y-3126194D01*
X64028460Y-3126196D01*
X64058196Y-3165657D01*
X64082607Y-3198052D01*
X64085695Y-3200698D01*
X64085698Y-3200702D01*
X64150916Y-3256600D01*
X64150919Y-3256602D01*
X64154013Y-3259254D01*
X64236896Y-3303696D01*
X64265885Y-3311899D01*
X64323472Y-3328195D01*
X64323476Y-3328196D01*
X64327389Y-3329303D01*
X64381307Y-3332506D01*
X64417207Y-3334639D01*
X64417210Y-3334639D01*
X64421269Y-3334880D01*
X64425290Y-3334243D01*
X64425292Y-3334243D01*
X64497429Y-3322818D01*
X64536142Y-3326887D01*
X64567634Y-3349767D01*
X64583466Y-3385329D01*
X64579397Y-3424042D01*
X64562366Y-3450266D01*
X64437858Y-3574774D01*
X64404147Y-3594238D01*
X64384684Y-3596800D01*
X63425267Y-3596800D01*
X63387667Y-3586725D01*
X63360142Y-3559200D01*
X63352629Y-3502138D01*
X63355495Y-3491441D01*
X63364579Y-3422435D01*
X63364900Y-3417542D01*
X63364900Y-3416902D01*
X63362808Y-3409092D01*
X63354998Y-3407000D01*
X63027003Y-3406999D01*
X63026995Y-3407000D01*
X62445002Y-3406999D01*
X62437192Y-3409091D01*
X62435100Y-3416901D01*
X62435100Y-3417541D01*
X62435421Y-3422434D01*
X62444505Y-3491443D01*
X62447371Y-3502139D01*
X62447370Y-3541065D01*
X62427906Y-3574776D01*
X62374733Y-3596800D01*
X62131388Y-3596800D01*
X62093788Y-3586725D01*
X62066263Y-3559200D01*
X62058750Y-3502138D01*
X62061616Y-3491441D01*
X62070700Y-3422435D01*
X62071021Y-3417542D01*
X62071021Y-3416902D01*
X62068929Y-3409092D01*
X62061119Y-3407000D01*
X61733124Y-3406999D01*
X61733116Y-3407000D01*
X61151123Y-3406999D01*
X61143313Y-3409091D01*
X61141221Y-3416901D01*
X61141221Y-3417541D01*
X61141542Y-3422434D01*
X61150626Y-3491443D01*
X61153492Y-3502139D01*
X61153491Y-3541065D01*
X61134027Y-3574776D01*
X61080854Y-3596800D01*
X49059544Y-3596800D01*
X49021944Y-3586725D01*
X48994419Y-3559200D01*
X48984344Y-3521600D01*
X48991501Y-3489582D01*
X48991843Y-3488856D01*
X48993962Y-3485384D01*
X49006058Y-3450256D01*
X49023254Y-3400313D01*
X49024580Y-3396462D01*
X49026018Y-3384038D01*
X49031205Y-3339199D01*
X49035389Y-3303040D01*
X49035400Y-3300000D01*
X49035132Y-3297528D01*
X49034644Y-3293045D01*
X49034234Y-3289268D01*
X49040189Y-3250800D01*
X49064580Y-3220463D01*
X49108994Y-3205946D01*
X49133623Y-3205946D01*
X49171223Y-3216021D01*
X49182124Y-3224662D01*
X49182607Y-3224098D01*
X49250916Y-3282646D01*
X49250919Y-3282648D01*
X49254013Y-3285300D01*
X49336896Y-3329742D01*
X49372521Y-3339823D01*
X49423472Y-3354241D01*
X49423476Y-3354242D01*
X49427389Y-3355349D01*
X49481307Y-3358552D01*
X49517207Y-3360685D01*
X49517210Y-3360685D01*
X49521269Y-3360926D01*
X49614157Y-3346214D01*
X49617946Y-3344729D01*
X49617950Y-3344728D01*
X49667965Y-3325127D01*
X49701719Y-3311899D01*
X49705106Y-3309631D01*
X49705109Y-3309630D01*
X49776484Y-3261849D01*
X49776486Y-3261848D01*
X49779870Y-3259582D01*
X49844963Y-3191703D01*
X49850276Y-3183000D01*
X49864953Y-3158954D01*
X49893962Y-3111430D01*
X49903128Y-3084811D01*
X49911549Y-3060355D01*
X49933317Y-3028083D01*
X49968304Y-3011020D01*
X50007135Y-3013735D01*
X50035826Y-3031664D01*
X50098710Y-3094548D01*
X50100890Y-3096821D01*
X50116520Y-3113819D01*
X50116523Y-3113821D01*
X50119991Y-3117593D01*
X50124344Y-3120292D01*
X50124349Y-3120296D01*
X50138342Y-3128971D01*
X50144182Y-3132984D01*
X50161368Y-3146030D01*
X50167558Y-3148481D01*
X50179483Y-3154479D01*
X50185138Y-3157985D01*
X50205883Y-3164012D01*
X50212563Y-3166299D01*
X50232638Y-3174248D01*
X50237739Y-3174784D01*
X50237742Y-3174785D01*
X50239250Y-3174944D01*
X50252360Y-3177516D01*
X50254252Y-3178065D01*
X50258746Y-3179371D01*
X50263400Y-3179713D01*
X50264586Y-3179800D01*
X50264592Y-3179800D01*
X50265951Y-3179900D01*
X50282475Y-3179900D01*
X50290335Y-3180312D01*
X50308870Y-3182260D01*
X50316599Y-3180953D01*
X50329138Y-3179900D01*
X50633623Y-3179900D01*
X50671223Y-3189975D01*
X50682124Y-3198616D01*
X50682607Y-3198052D01*
X50750916Y-3256600D01*
X50750919Y-3256602D01*
X50754013Y-3259254D01*
X50836896Y-3303696D01*
X50865885Y-3311899D01*
X50923472Y-3328195D01*
X50923476Y-3328196D01*
X50927389Y-3329303D01*
X50981307Y-3332506D01*
X51017207Y-3334639D01*
X51017210Y-3334639D01*
X51021269Y-3334880D01*
X51027899Y-3333830D01*
X51054959Y-3329544D01*
X51114157Y-3320168D01*
X51117946Y-3318683D01*
X51117950Y-3318682D01*
X51166018Y-3299844D01*
X51201719Y-3285853D01*
X51205106Y-3283585D01*
X51205109Y-3283584D01*
X51276484Y-3235803D01*
X51276486Y-3235802D01*
X51279870Y-3233536D01*
X51344963Y-3165657D01*
X51348200Y-3160355D01*
X51363225Y-3135739D01*
X51393962Y-3085384D01*
X51397727Y-3074451D01*
X51423254Y-3000313D01*
X51424580Y-2996462D01*
X51427189Y-2973917D01*
X51433940Y-2915565D01*
X51435389Y-2903040D01*
X51435400Y-2900000D01*
X51435060Y-2896865D01*
X51428600Y-2837408D01*
X51425243Y-2806504D01*
X51423048Y-2799983D01*
X51399908Y-2731223D01*
X51397464Y-2692373D01*
X51414772Y-2657506D01*
X51447194Y-2635965D01*
X51475638Y-2632169D01*
X51498698Y-2633539D01*
X51517207Y-2634639D01*
X51517210Y-2634639D01*
X51521269Y-2634880D01*
X51614157Y-2620168D01*
X51617946Y-2618683D01*
X51617950Y-2618682D01*
X51672989Y-2597112D01*
X51701719Y-2585853D01*
X51705106Y-2583585D01*
X51705109Y-2583584D01*
X51776484Y-2535803D01*
X51776486Y-2535802D01*
X51779870Y-2533536D01*
X51844963Y-2465657D01*
X51847791Y-2461025D01*
X51873886Y-2418274D01*
X51893962Y-2385384D01*
X51924580Y-2296462D01*
X51925881Y-2285222D01*
X51930040Y-2249274D01*
X51935389Y-2203040D01*
X51935400Y-2200000D01*
X51934903Y-2195420D01*
X51929499Y-2145677D01*
X51925243Y-2106504D01*
X51920020Y-2090983D01*
X51896545Y-2021229D01*
X51896543Y-2021224D01*
X51895246Y-2017371D01*
X51893150Y-2013882D01*
X51891440Y-2010182D01*
X51892307Y-2009782D01*
X51883060Y-1977517D01*
X51892483Y-1939749D01*
X51919528Y-1911751D01*
X51956948Y-1901027D01*
X52007186Y-1919119D01*
X52054013Y-1959254D01*
X52136896Y-2003696D01*
X52172580Y-2013794D01*
X52223472Y-2028195D01*
X52223476Y-2028196D01*
X52227389Y-2029303D01*
X52311649Y-2034309D01*
X52360364Y-2056202D01*
X52406802Y-2102641D01*
X52448733Y-2144572D01*
X52450912Y-2146845D01*
X52466520Y-2163819D01*
X52466522Y-2163821D01*
X52469991Y-2167593D01*
X52474344Y-2170292D01*
X52474349Y-2170296D01*
X52488347Y-2178974D01*
X52494173Y-2182978D01*
X52511369Y-2196030D01*
X52516136Y-2197917D01*
X52516137Y-2197918D01*
X52517547Y-2198476D01*
X52529488Y-2204482D01*
X52535138Y-2207985D01*
X52540056Y-2209414D01*
X52540063Y-2209417D01*
X52555878Y-2214012D01*
X52562571Y-2216303D01*
X52582638Y-2224248D01*
X52587739Y-2224784D01*
X52587742Y-2224785D01*
X52589250Y-2224944D01*
X52602360Y-2227516D01*
X52604252Y-2228065D01*
X52608746Y-2229371D01*
X52613400Y-2229713D01*
X52614586Y-2229800D01*
X52614592Y-2229800D01*
X52615951Y-2229900D01*
X52632475Y-2229900D01*
X52640335Y-2230312D01*
X52658870Y-2232260D01*
X52666599Y-2230953D01*
X52679138Y-2229900D01*
X53199900Y-2229900D01*
X53237500Y-2239975D01*
X53265025Y-2267500D01*
X53275100Y-2305100D01*
X53275100Y-3150000D01*
X53276094Y-3154225D01*
X53276094Y-3154228D01*
X53280449Y-3172742D01*
X53291339Y-3219045D01*
X53325645Y-3264472D01*
X53374044Y-3294440D01*
X53380891Y-3295720D01*
X53426591Y-3304263D01*
X53426594Y-3304263D01*
X53430000Y-3304900D01*
X54130000Y-3304900D01*
X54134225Y-3303906D01*
X54134228Y-3303906D01*
X54162781Y-3297190D01*
X54199045Y-3288661D01*
X54244472Y-3254355D01*
X54274440Y-3205956D01*
X54278970Y-3181724D01*
X54284263Y-3153409D01*
X54284263Y-3153406D01*
X54284900Y-3150000D01*
X54284900Y-755100D01*
X54294975Y-717500D01*
X54322500Y-689975D01*
X54360100Y-679900D01*
X54469900Y-679900D01*
X54507500Y-689975D01*
X54535025Y-717500D01*
X54545100Y-755100D01*
X54545100Y-3150000D01*
X54546094Y-3154225D01*
X54546094Y-3154228D01*
X54550449Y-3172742D01*
X54561339Y-3219045D01*
X54595645Y-3264472D01*
X54644044Y-3294440D01*
X54650891Y-3295720D01*
X54696591Y-3304263D01*
X54696594Y-3304263D01*
X54700000Y-3304900D01*
X55400000Y-3304900D01*
X55404225Y-3303906D01*
X55404228Y-3303906D01*
X55432781Y-3297190D01*
X55469045Y-3288661D01*
X55514472Y-3254355D01*
X55544440Y-3205956D01*
X55548970Y-3181724D01*
X55554263Y-3153409D01*
X55554263Y-3153406D01*
X55554900Y-3150000D01*
X55554900Y-750000D01*
X55815100Y-750000D01*
X55815100Y-3150000D01*
X55816094Y-3154225D01*
X55816094Y-3154228D01*
X55820449Y-3172742D01*
X55831339Y-3219045D01*
X55865645Y-3264472D01*
X55914044Y-3294440D01*
X55920891Y-3295720D01*
X55966591Y-3304263D01*
X55966594Y-3304263D01*
X55970000Y-3304900D01*
X56670000Y-3304900D01*
X56674225Y-3303906D01*
X56674228Y-3303906D01*
X56702781Y-3297190D01*
X56739045Y-3288661D01*
X56784472Y-3254355D01*
X56814440Y-3205956D01*
X56818970Y-3181724D01*
X56824263Y-3153409D01*
X56824263Y-3153406D01*
X56824900Y-3150000D01*
X56824900Y-2425492D01*
X59084640Y-2425492D01*
X59084640Y-2456132D01*
X59084961Y-2461025D01*
X59094045Y-2530029D01*
X59096574Y-2539470D01*
X59122265Y-2601491D01*
X59127147Y-2609947D01*
X59168016Y-2663209D01*
X59174921Y-2670114D01*
X59228180Y-2710981D01*
X59236644Y-2715867D01*
X59298660Y-2741557D01*
X59308099Y-2744086D01*
X59377105Y-2753170D01*
X59381998Y-2753491D01*
X59382638Y-2753491D01*
X59390448Y-2751399D01*
X59392540Y-2743589D01*
X59392541Y-2425492D01*
X59390449Y-2417683D01*
X59382639Y-2415591D01*
X59094541Y-2415590D01*
X59086732Y-2417682D01*
X59084640Y-2425492D01*
X56824900Y-2425492D01*
X56824900Y-2305100D01*
X56834975Y-2267500D01*
X56862500Y-2239975D01*
X56900100Y-2229900D01*
X56945251Y-2229900D01*
X56948399Y-2229966D01*
X56976575Y-2231147D01*
X56981560Y-2229978D01*
X56981567Y-2229977D01*
X56997596Y-2226217D01*
X57004561Y-2224926D01*
X57013953Y-2223639D01*
X57025943Y-2221997D01*
X57030653Y-2219959D01*
X57032050Y-2219355D01*
X57044735Y-2215160D01*
X57046213Y-2214813D01*
X57046216Y-2214812D01*
X57051203Y-2213642D01*
X57070128Y-2203239D01*
X57076451Y-2200141D01*
X57096291Y-2191555D01*
X57101457Y-2187372D01*
X57112553Y-2179916D01*
X57118374Y-2176716D01*
X57123842Y-2171995D01*
X57135513Y-2160324D01*
X57141362Y-2155057D01*
X57145521Y-2151689D01*
X57155861Y-2143316D01*
X57160406Y-2136921D01*
X57168528Y-2127309D01*
X57230563Y-2065275D01*
X57264274Y-2045812D01*
X57303201Y-2045813D01*
X57336912Y-2065276D01*
X57395009Y-2123374D01*
X57452281Y-2180646D01*
X57458760Y-2188034D01*
X57467424Y-2199324D01*
X57482618Y-2210983D01*
X57482619Y-2210984D01*
X57530673Y-2247858D01*
X57542484Y-2252750D01*
X57546412Y-2254377D01*
X57599777Y-2276482D01*
X57599779Y-2276483D01*
X57604331Y-2278368D01*
X57632830Y-2282120D01*
X57664365Y-2286272D01*
X57664375Y-2286273D01*
X57664384Y-2286274D01*
X57664389Y-2286274D01*
X57664397Y-2286275D01*
X57683374Y-2288773D01*
X57688258Y-2288130D01*
X57697472Y-2286917D01*
X57707287Y-2286274D01*
X57749379Y-2286274D01*
X57786979Y-2296349D01*
X57809038Y-2315694D01*
X57812473Y-2320170D01*
X57821474Y-2331900D01*
X57882550Y-2378765D01*
X57902264Y-2386931D01*
X57949120Y-2406340D01*
X57949122Y-2406341D01*
X57953674Y-2408226D01*
X58030000Y-2418274D01*
X58369999Y-2418274D01*
X58446325Y-2408226D01*
X58450877Y-2406341D01*
X58450879Y-2406340D01*
X58493076Y-2388861D01*
X58517450Y-2378765D01*
X58578526Y-2331900D01*
X58625391Y-2270824D01*
X58640754Y-2233736D01*
X58652966Y-2204254D01*
X58652967Y-2204252D01*
X58654852Y-2199700D01*
X58664900Y-2123374D01*
X58664900Y-2121048D01*
X59084640Y-2121048D01*
X59084640Y-2151689D01*
X59086732Y-2159499D01*
X59094542Y-2161591D01*
X59382639Y-2161592D01*
X59390448Y-2159500D01*
X59392540Y-2151690D01*
X59392541Y-1833592D01*
X59390449Y-1825783D01*
X59382639Y-1823691D01*
X59381999Y-1823691D01*
X59377106Y-1824012D01*
X59308102Y-1833096D01*
X59298661Y-1835625D01*
X59236640Y-1861316D01*
X59228184Y-1866198D01*
X59174922Y-1907067D01*
X59168017Y-1913972D01*
X59127148Y-1967234D01*
X59122266Y-1975690D01*
X59096573Y-2037717D01*
X59094046Y-2047146D01*
X59084960Y-2116158D01*
X59084640Y-2121048D01*
X58664900Y-2121048D01*
X58664900Y-1843375D01*
X58654852Y-1767049D01*
X58652686Y-1761818D01*
X58629773Y-1706504D01*
X58625391Y-1695924D01*
X58597158Y-1659130D01*
X58581524Y-1638755D01*
X58578526Y-1634848D01*
X58567638Y-1626493D01*
X58521357Y-1590981D01*
X58517450Y-1587983D01*
X58480916Y-1572850D01*
X58450034Y-1549153D01*
X58435137Y-1513189D01*
X58440218Y-1474596D01*
X58480916Y-1433898D01*
X58512901Y-1420649D01*
X58521357Y-1415767D01*
X58574619Y-1374898D01*
X58581524Y-1367993D01*
X58622393Y-1314731D01*
X58627275Y-1306275D01*
X58652966Y-1244254D01*
X58655495Y-1234813D01*
X58664579Y-1165809D01*
X58664900Y-1160916D01*
X58664900Y-1160276D01*
X58662808Y-1152466D01*
X58654998Y-1150374D01*
X58327003Y-1150373D01*
X58326995Y-1150374D01*
X57745002Y-1150373D01*
X57737192Y-1152465D01*
X57735100Y-1160275D01*
X57735100Y-1160915D01*
X57735421Y-1165808D01*
X57745148Y-1239699D01*
X57744330Y-1239807D01*
X57744330Y-1273086D01*
X57724866Y-1306797D01*
X57691155Y-1326261D01*
X57652229Y-1326261D01*
X57617053Y-1305292D01*
X57614924Y-1303040D01*
X57607146Y-1294815D01*
X57584985Y-1271380D01*
X57584982Y-1271378D01*
X57582191Y-1268426D01*
X57576625Y-1264643D01*
X57507770Y-1217850D01*
X57504408Y-1215565D01*
X57417088Y-1180639D01*
X57324305Y-1165279D01*
X57320238Y-1165492D01*
X57320235Y-1165492D01*
X57273248Y-1167955D01*
X57230388Y-1170201D01*
X57226461Y-1171283D01*
X57226459Y-1171283D01*
X57167387Y-1187554D01*
X57139719Y-1195175D01*
X57056527Y-1239037D01*
X57041820Y-1251466D01*
X56987805Y-1297112D01*
X56987802Y-1297115D01*
X56984696Y-1299740D01*
X56982225Y-1302972D01*
X56982224Y-1302973D01*
X56959840Y-1332250D01*
X56928999Y-1356001D01*
X56890414Y-1361149D01*
X56854425Y-1346315D01*
X56830674Y-1315474D01*
X56824900Y-1286575D01*
X56824900Y-918219D01*
X58955806Y-918219D01*
X58955806Y-1066707D01*
X58956042Y-1070917D01*
X58965088Y-1151568D01*
X58966941Y-1159728D01*
X58992945Y-1234398D01*
X58996554Y-1241932D01*
X59038456Y-1308989D01*
X59043648Y-1315539D01*
X59099364Y-1371645D01*
X59105876Y-1376881D01*
X59172637Y-1419250D01*
X59180151Y-1422915D01*
X59254643Y-1449440D01*
X59262773Y-1451347D01*
X59343312Y-1460951D01*
X59347642Y-1461216D01*
X59348204Y-1461218D01*
X59348204Y-1461217D01*
X59348479Y-1461218D01*
X59448804Y-1461218D01*
X59456614Y-1459126D01*
X59458706Y-1451316D01*
X59712705Y-1451316D01*
X59714797Y-1459126D01*
X59722607Y-1461218D01*
X59821095Y-1461218D01*
X59825305Y-1460982D01*
X59905956Y-1451936D01*
X59914116Y-1450083D01*
X59988786Y-1424079D01*
X59996320Y-1420470D01*
X60063377Y-1378568D01*
X60069927Y-1373376D01*
X60126033Y-1317660D01*
X60131269Y-1311148D01*
X60173638Y-1244387D01*
X60177303Y-1236873D01*
X60203828Y-1162381D01*
X60205735Y-1154251D01*
X60215339Y-1073712D01*
X60215604Y-1069382D01*
X60215606Y-1068820D01*
X60215605Y-1068820D01*
X60215606Y-1068545D01*
X60215606Y-918220D01*
X60213514Y-910410D01*
X60205704Y-908318D01*
X59722608Y-908317D01*
X59714798Y-910409D01*
X59712706Y-918219D01*
X59712705Y-1451316D01*
X59458706Y-1451316D01*
X59458707Y-918220D01*
X59456615Y-910410D01*
X59448805Y-908318D01*
X58965708Y-908317D01*
X58957898Y-910409D01*
X58955806Y-918219D01*
X56824900Y-918219D01*
X56824900Y-885832D01*
X57735100Y-885832D01*
X57735100Y-886472D01*
X57737192Y-894282D01*
X57745002Y-896374D01*
X58063099Y-896375D01*
X58070908Y-894283D01*
X58073000Y-886473D01*
X58326999Y-886473D01*
X58329091Y-894282D01*
X58336901Y-896374D01*
X58654999Y-896375D01*
X58662808Y-894283D01*
X58664900Y-886473D01*
X58664900Y-885833D01*
X58664579Y-880940D01*
X58655495Y-811936D01*
X58652966Y-802495D01*
X58627275Y-740473D01*
X58622393Y-732017D01*
X58581524Y-678755D01*
X58574619Y-671850D01*
X58521357Y-630981D01*
X58512901Y-626099D01*
X58450880Y-600408D01*
X58441439Y-597879D01*
X58372435Y-588795D01*
X58367542Y-588474D01*
X58336902Y-588474D01*
X58329092Y-590566D01*
X58327000Y-598376D01*
X58326999Y-886473D01*
X58073000Y-886473D01*
X58073001Y-598375D01*
X58070909Y-590566D01*
X58063099Y-588474D01*
X58032459Y-588474D01*
X58027566Y-588795D01*
X57958562Y-597879D01*
X57949121Y-600408D01*
X57887099Y-626099D01*
X57878643Y-630981D01*
X57825381Y-671850D01*
X57818476Y-678755D01*
X57777607Y-732017D01*
X57772725Y-740473D01*
X57747034Y-802494D01*
X57744505Y-811935D01*
X57735421Y-880939D01*
X57735100Y-885832D01*
X56824900Y-885832D01*
X56824900Y-750000D01*
X56823854Y-745550D01*
X56814017Y-703729D01*
X56808661Y-680955D01*
X56774355Y-635528D01*
X56767012Y-630981D01*
X56763728Y-628948D01*
X56725956Y-605560D01*
X56719109Y-604280D01*
X56673409Y-595737D01*
X56673406Y-595737D01*
X56670000Y-595100D01*
X55970000Y-595100D01*
X55965775Y-596094D01*
X55965772Y-596094D01*
X55947431Y-600408D01*
X55900955Y-611339D01*
X55855528Y-645645D01*
X55851858Y-651572D01*
X55850158Y-654318D01*
X55825560Y-694044D01*
X55824280Y-700891D01*
X55816704Y-741421D01*
X55815100Y-750000D01*
X55554900Y-750000D01*
X55553854Y-745550D01*
X55544017Y-703729D01*
X55538661Y-680955D01*
X55504355Y-635528D01*
X55497012Y-630981D01*
X55493728Y-628948D01*
X55455956Y-605560D01*
X55449109Y-604280D01*
X55403409Y-595737D01*
X55403406Y-595737D01*
X55400000Y-595100D01*
X55322086Y-595100D01*
X55284486Y-585025D01*
X55268912Y-573074D01*
X55260320Y-564482D01*
X55255053Y-558633D01*
X55246541Y-548122D01*
X55243316Y-544139D01*
X55238417Y-540657D01*
X55236922Y-539595D01*
X55227310Y-531472D01*
X55189654Y-493816D01*
X58955806Y-493816D01*
X58955807Y-493816D01*
X58955806Y-494091D01*
X58955806Y-644416D01*
X58957898Y-652226D01*
X58965708Y-654318D01*
X59448804Y-654319D01*
X59456614Y-652227D01*
X59458706Y-644417D01*
X59458706Y-644416D01*
X59712705Y-644416D01*
X59714797Y-652226D01*
X59722607Y-654318D01*
X60205704Y-654319D01*
X60213514Y-652227D01*
X60215606Y-644417D01*
X60215606Y-495929D01*
X60215370Y-491719D01*
X60206324Y-411068D01*
X60204471Y-402908D01*
X60178467Y-328238D01*
X60174858Y-320704D01*
X60132956Y-253647D01*
X60127764Y-247097D01*
X60072048Y-190991D01*
X60065536Y-185755D01*
X59998775Y-143386D01*
X59991261Y-139721D01*
X59916769Y-113196D01*
X59908639Y-111289D01*
X59828100Y-101685D01*
X59823770Y-101420D01*
X59823208Y-101418D01*
X59823208Y-101419D01*
X59822933Y-101418D01*
X59722608Y-101418D01*
X59714798Y-103510D01*
X59712706Y-111320D01*
X59712705Y-644416D01*
X59458706Y-644416D01*
X59458707Y-111320D01*
X59456615Y-103510D01*
X59448805Y-101418D01*
X59350317Y-101418D01*
X59346107Y-101654D01*
X59265456Y-110700D01*
X59257296Y-112553D01*
X59182626Y-138557D01*
X59175092Y-142166D01*
X59108035Y-184068D01*
X59101485Y-189260D01*
X59045379Y-244976D01*
X59040143Y-251488D01*
X58997774Y-318249D01*
X58994109Y-325763D01*
X58967584Y-400255D01*
X58965677Y-408385D01*
X58956073Y-488924D01*
X58955808Y-493254D01*
X58955806Y-493816D01*
X55189654Y-493816D01*
X54901289Y-205452D01*
X54899109Y-203178D01*
X54894395Y-198052D01*
X54880009Y-182407D01*
X54861646Y-171021D01*
X54855812Y-167011D01*
X54855602Y-166851D01*
X54838631Y-153970D01*
X54832452Y-151523D01*
X54820512Y-145518D01*
X54814862Y-142015D01*
X54794106Y-135985D01*
X54787434Y-133700D01*
X54767361Y-125752D01*
X54760756Y-125058D01*
X54747636Y-122483D01*
X54741254Y-120629D01*
X54737327Y-120341D01*
X54737323Y-120340D01*
X54735414Y-120200D01*
X54735408Y-120200D01*
X54734049Y-120100D01*
X54717525Y-120100D01*
X54709664Y-119688D01*
X54701729Y-118854D01*
X54691130Y-117740D01*
X54683401Y-119047D01*
X54670862Y-120100D01*
X53248695Y-120100D01*
X53211095Y-110025D01*
X53183570Y-82500D01*
X53173495Y-44900D01*
X53183570Y-7300D01*
X53206862Y17590D01*
X53207248Y17848D01*
X53232452Y34721D01*
X53276484Y64197D01*
X53276486Y64198D01*
X53279870Y66464D01*
X53344963Y134343D01*
X53393962Y214616D01*
X53397727Y225549D01*
X53407691Y254488D01*
X56866985Y254488D01*
X56867845Y250512D01*
X56867845Y250509D01*
X56876357Y211139D01*
X56886859Y162566D01*
X56926009Y77057D01*
X56928459Y73806D01*
X56928460Y73804D01*
X56973914Y13484D01*
X56982607Y1948D01*
X56985695Y-698D01*
X56985698Y-702D01*
X57050916Y-56600D01*
X57050919Y-56602D01*
X57054013Y-59254D01*
X57136896Y-103696D01*
X57161648Y-110700D01*
X57223472Y-128195D01*
X57223476Y-128196D01*
X57227389Y-129303D01*
X57281307Y-132506D01*
X57317207Y-134639D01*
X57317210Y-134639D01*
X57321269Y-134880D01*
X57328745Y-133696D01*
X57354959Y-129544D01*
X57414157Y-120168D01*
X57417946Y-118683D01*
X57417950Y-118682D01*
X57466306Y-99731D01*
X57501719Y-85853D01*
X57505106Y-83585D01*
X57505109Y-83584D01*
X57576484Y-35803D01*
X57576486Y-35802D01*
X57579870Y-33536D01*
X57582685Y-30601D01*
X57582694Y-30593D01*
X57605624Y-6681D01*
X57638920Y13484D01*
X57677838Y14299D01*
X57711949Y-4454D01*
X57732114Y-37750D01*
X57735100Y-58730D01*
X57735100Y-104283D01*
X57735421Y-109180D01*
X57744505Y-178184D01*
X57747034Y-187625D01*
X57772725Y-249646D01*
X57777607Y-258102D01*
X57818476Y-311364D01*
X57825381Y-318269D01*
X57878643Y-359138D01*
X57887099Y-364020D01*
X57949120Y-389711D01*
X57958561Y-392240D01*
X58027565Y-401324D01*
X58032458Y-401645D01*
X58063098Y-401645D01*
X58070908Y-399553D01*
X58072999Y-391745D01*
X58326999Y-391745D01*
X58329091Y-399554D01*
X58336901Y-401646D01*
X58367541Y-401646D01*
X58372434Y-401325D01*
X58441438Y-392241D01*
X58450879Y-389712D01*
X58512900Y-364021D01*
X58521356Y-359139D01*
X58574618Y-318270D01*
X58581523Y-311365D01*
X58622392Y-258103D01*
X58627274Y-249647D01*
X58652967Y-187620D01*
X58655494Y-178191D01*
X58664580Y-109179D01*
X58664900Y-104283D01*
X58664900Y-103648D01*
X58662808Y-95838D01*
X58654998Y-93746D01*
X58336901Y-93745D01*
X58329092Y-95837D01*
X58327000Y-103647D01*
X58326999Y-391745D01*
X58072999Y-391745D01*
X58073000Y-391743D01*
X58073001Y-93746D01*
X58073000Y-93741D01*
X58073001Y85054D01*
X58083076Y122654D01*
X58110601Y150179D01*
X58148201Y160254D01*
X58654998Y160253D01*
X58662808Y162345D01*
X58664900Y170155D01*
X58664900Y170795D01*
X58664579Y175688D01*
X58655495Y244692D01*
X58652966Y254133D01*
X58627275Y316154D01*
X58622393Y324610D01*
X58581524Y377872D01*
X58574619Y384777D01*
X58521357Y425646D01*
X58512897Y430531D01*
X58480914Y443779D01*
X58450032Y467476D01*
X58435136Y503440D01*
X58440218Y542033D01*
X58480915Y582730D01*
X58485502Y584630D01*
X58514280Y590354D01*
X58873706Y590354D01*
X58896246Y586501D01*
X58896661Y586300D01*
X58900750Y585356D01*
X58900756Y585354D01*
X58912186Y582716D01*
X58920995Y580107D01*
X58932042Y576086D01*
X58932045Y576085D01*
X58935991Y574649D01*
X58936925Y574531D01*
X58969870Y556572D01*
X58989030Y526842D01*
X58994327Y511633D01*
X58996552Y508073D01*
X58996554Y508068D01*
X59038456Y441011D01*
X59038459Y441007D01*
X59040685Y437445D01*
X59043647Y434462D01*
X59043648Y434461D01*
X59067273Y410671D01*
X59102327Y375371D01*
X59176189Y328496D01*
X59180149Y327086D01*
X59180151Y327085D01*
X59254643Y300560D01*
X59254646Y300559D01*
X59258601Y299151D01*
X59262769Y298654D01*
X59262773Y298653D01*
X59341572Y289257D01*
X59345467Y288792D01*
X59347641Y288784D01*
X59347642Y288784D01*
X59348204Y288782D01*
X59823205Y288782D01*
X59910141Y298533D01*
X59914114Y299916D01*
X59914116Y299917D01*
X59976904Y321783D01*
X59992755Y327303D01*
X59996315Y329528D01*
X59996320Y329530D01*
X60063377Y371432D01*
X60063381Y371435D01*
X60066943Y373661D01*
X60129017Y435303D01*
X60142735Y456918D01*
X60157940Y480877D01*
X60186594Y507225D01*
X60221433Y515782D01*
X60597011Y515782D01*
X60616472Y513220D01*
X60620936Y512024D01*
X60624712Y510906D01*
X60636042Y507225D01*
X60656845Y500466D01*
X60662862Y499834D01*
X60674462Y497683D01*
X60680288Y496122D01*
X60714004Y494355D01*
X60717921Y494046D01*
X60721853Y493633D01*
X60725782Y493220D01*
X60725784Y493220D01*
X60727743Y493014D01*
X60737616Y493014D01*
X60741552Y492911D01*
X60771424Y491345D01*
X60771427Y491345D01*
X60775361Y491139D01*
X60781353Y492088D01*
X60793116Y493014D01*
X61058337Y493014D01*
X61068152Y492371D01*
X61076018Y491335D01*
X61076027Y491334D01*
X61078453Y491015D01*
X61104929Y491015D01*
X61142529Y480940D01*
X61170054Y453415D01*
X61180129Y415815D01*
X61170054Y378215D01*
X61153468Y358378D01*
X61087805Y302888D01*
X61087802Y302885D01*
X61084696Y300260D01*
X61082225Y297028D01*
X61082224Y297027D01*
X61079322Y293231D01*
X61027574Y225549D01*
X61025853Y221858D01*
X60989548Y144002D01*
X60989546Y143996D01*
X60987829Y140314D01*
X60986942Y136346D01*
X60986941Y136343D01*
X60978476Y98473D01*
X60967313Y48534D01*
X60967248Y29799D01*
X60967008Y-39037D01*
X60966985Y-45512D01*
X60967845Y-49488D01*
X60967845Y-49491D01*
X60977866Y-95838D01*
X60986859Y-137434D01*
X61026009Y-222943D01*
X61028459Y-226194D01*
X61028460Y-226196D01*
X61075528Y-288658D01*
X61082607Y-298052D01*
X61085695Y-300698D01*
X61085698Y-300702D01*
X61150922Y-356605D01*
X61154013Y-359254D01*
X61157598Y-361177D01*
X61158712Y-361939D01*
X61184044Y-391495D01*
X61191203Y-429757D01*
X61178272Y-466473D01*
X61148716Y-491805D01*
X61116225Y-499186D01*
X61078454Y-499186D01*
X60999539Y-509575D01*
X60994987Y-511460D01*
X60994985Y-511461D01*
X60981635Y-516991D01*
X60926003Y-540035D01*
X60922099Y-543031D01*
X60922095Y-543033D01*
X60866763Y-585491D01*
X60862856Y-588489D01*
X60859858Y-592396D01*
X60817400Y-647728D01*
X60817398Y-647732D01*
X60814402Y-651636D01*
X60811163Y-659455D01*
X60786399Y-719241D01*
X60783942Y-725172D01*
X60773553Y-804086D01*
X60773553Y-1104085D01*
X60780951Y-1160276D01*
X60783432Y-1179124D01*
X60778351Y-1217717D01*
X60762049Y-1242113D01*
X60285004Y-1719159D01*
X60282731Y-1721339D01*
X60261947Y-1740451D01*
X60250566Y-1758809D01*
X60246564Y-1764632D01*
X60233510Y-1781829D01*
X60231059Y-1788019D01*
X60225061Y-1799944D01*
X60221555Y-1805599D01*
X60215528Y-1826344D01*
X60213196Y-1833138D01*
X60212916Y-1833842D01*
X60188819Y-1865710D01*
X60135090Y-1906938D01*
X60131015Y-1910065D01*
X60084150Y-1971141D01*
X60082267Y-1975688D01*
X60082263Y-1975694D01*
X60069015Y-2007677D01*
X60045318Y-2038559D01*
X60009354Y-2053455D01*
X59970761Y-2048373D01*
X59930064Y-2007676D01*
X59916815Y-1975691D01*
X59911933Y-1967235D01*
X59871064Y-1913973D01*
X59864159Y-1907068D01*
X59810900Y-1866201D01*
X59802436Y-1861315D01*
X59740420Y-1835625D01*
X59730981Y-1833096D01*
X59661975Y-1824012D01*
X59657082Y-1823691D01*
X59656442Y-1823691D01*
X59648632Y-1825783D01*
X59646540Y-1833593D01*
X59646539Y-2161588D01*
X59646540Y-2161596D01*
X59646539Y-2743589D01*
X59648631Y-2751399D01*
X59656441Y-2753491D01*
X59657081Y-2753491D01*
X59661974Y-2753170D01*
X59730978Y-2744086D01*
X59740419Y-2741557D01*
X59802440Y-2715866D01*
X59810896Y-2710984D01*
X59864158Y-2670115D01*
X59871063Y-2663210D01*
X59911932Y-2609948D01*
X59916817Y-2601488D01*
X59930065Y-2569505D01*
X59953762Y-2538623D01*
X59989726Y-2523727D01*
X60028319Y-2528809D01*
X60069015Y-2569505D01*
X60084149Y-2606040D01*
X60131014Y-2667116D01*
X60134921Y-2670114D01*
X60181998Y-2706237D01*
X60192090Y-2713981D01*
X60213742Y-2722950D01*
X60258660Y-2741557D01*
X60258663Y-2741558D01*
X60263214Y-2743443D01*
X60339540Y-2753491D01*
X60619539Y-2753491D01*
X60695865Y-2743443D01*
X60700417Y-2741558D01*
X60700419Y-2741557D01*
X60744419Y-2723331D01*
X60766989Y-2713982D01*
X60828065Y-2667117D01*
X60874930Y-2606041D01*
X60904391Y-2534917D01*
X60905196Y-2528809D01*
X60914120Y-2461024D01*
X60914120Y-2461019D01*
X60914440Y-2458591D01*
X60914440Y-2118592D01*
X60904392Y-2042266D01*
X60900947Y-2033948D01*
X60879446Y-1982041D01*
X60874365Y-1943447D01*
X60895748Y-1900089D01*
X61038733Y-1757104D01*
X61072444Y-1737640D01*
X61111370Y-1737640D01*
X61145081Y-1757104D01*
X61164545Y-1790815D01*
X61167107Y-1810540D01*
X61167008Y-1839037D01*
X61166985Y-1845512D01*
X61167845Y-1849488D01*
X61167845Y-1849491D01*
X61177717Y-1895148D01*
X61186859Y-1937434D01*
X61192618Y-1950011D01*
X61192995Y-1950835D01*
X61199489Y-1989216D01*
X61185772Y-2024128D01*
X61186194Y-2024372D01*
X61184574Y-2027178D01*
X61184282Y-2027921D01*
X61180730Y-2032550D01*
X61175237Y-2045812D01*
X61156673Y-2090629D01*
X61151269Y-2103674D01*
X61141221Y-2180000D01*
X61141221Y-2459999D01*
X61151269Y-2536325D01*
X61153154Y-2540877D01*
X61153155Y-2540879D01*
X61165669Y-2571089D01*
X61180730Y-2607450D01*
X61227595Y-2668526D01*
X61231502Y-2671524D01*
X61237415Y-2676061D01*
X61288671Y-2715391D01*
X61306920Y-2722950D01*
X61325205Y-2730524D01*
X61356087Y-2754221D01*
X61370984Y-2790185D01*
X61365903Y-2828778D01*
X61325205Y-2869476D01*
X61293220Y-2882725D01*
X61284764Y-2887607D01*
X61231502Y-2928476D01*
X61224597Y-2935381D01*
X61183728Y-2988643D01*
X61178846Y-2997099D01*
X61153155Y-3059120D01*
X61150626Y-3068561D01*
X61141542Y-3137565D01*
X61141221Y-3142458D01*
X61141221Y-3143098D01*
X61143313Y-3150908D01*
X61151123Y-3153000D01*
X61479118Y-3153001D01*
X61479126Y-3153000D01*
X62061119Y-3153001D01*
X62068929Y-3150909D01*
X62071021Y-3143099D01*
X62071021Y-3142459D01*
X62070700Y-3137566D01*
X62061616Y-3068562D01*
X62059087Y-3059121D01*
X62033396Y-2997099D01*
X62028514Y-2988643D01*
X61987645Y-2935381D01*
X61980740Y-2928476D01*
X61927478Y-2887607D01*
X61919022Y-2882725D01*
X61887037Y-2869476D01*
X61856155Y-2845779D01*
X61841258Y-2809815D01*
X61846339Y-2771222D01*
X61887037Y-2730524D01*
X61905322Y-2722950D01*
X61923571Y-2715391D01*
X61974827Y-2676061D01*
X61980740Y-2671524D01*
X61984647Y-2668526D01*
X62031512Y-2607450D01*
X62046549Y-2571147D01*
X62059087Y-2540880D01*
X62059088Y-2540878D01*
X62060973Y-2536326D01*
X62071021Y-2460000D01*
X62071021Y-2180001D01*
X62060973Y-2103675D01*
X62059087Y-2099120D01*
X62037005Y-2045812D01*
X62031512Y-2032550D01*
X62018980Y-2016218D01*
X62004084Y-1980255D01*
X62007538Y-1945958D01*
X62023253Y-1900317D01*
X62023254Y-1900314D01*
X62024580Y-1896462D01*
X62035389Y-1803040D01*
X62035400Y-1800000D01*
X62035169Y-1797868D01*
X62028564Y-1737075D01*
X62025243Y-1706504D01*
X62023650Y-1701770D01*
X61996545Y-1621229D01*
X61996543Y-1621224D01*
X61995246Y-1617371D01*
X61987305Y-1604154D01*
X61962085Y-1562181D01*
X61946809Y-1536758D01*
X61944015Y-1533803D01*
X61941548Y-1530553D01*
X61942641Y-1529723D01*
X61927442Y-1501617D01*
X61928527Y-1462705D01*
X61948923Y-1429550D01*
X62000594Y-1408986D01*
X62103452Y-1408986D01*
X62182367Y-1398597D01*
X62186919Y-1396712D01*
X62186921Y-1396711D01*
X62225924Y-1380555D01*
X62255903Y-1368137D01*
X62259807Y-1365141D01*
X62259811Y-1365139D01*
X62315143Y-1322681D01*
X62319050Y-1319683D01*
X62325599Y-1311148D01*
X62364506Y-1260444D01*
X62364508Y-1260440D01*
X62367504Y-1256536D01*
X62382635Y-1220006D01*
X62396078Y-1187554D01*
X62396079Y-1187552D01*
X62397964Y-1183000D01*
X62408353Y-1104086D01*
X62408353Y-804087D01*
X62397964Y-725173D01*
X62396078Y-720618D01*
X62378737Y-678755D01*
X62367504Y-651637D01*
X62364508Y-647733D01*
X62364506Y-647729D01*
X62322048Y-592397D01*
X62322047Y-592396D01*
X62319050Y-588490D01*
X62310105Y-581626D01*
X62259811Y-543034D01*
X62259807Y-543032D01*
X62255903Y-540036D01*
X62222747Y-526302D01*
X62186921Y-511462D01*
X62186919Y-511461D01*
X62182367Y-509576D01*
X62103453Y-499187D01*
X61679934Y-499187D01*
X61642336Y-489112D01*
X61614811Y-461587D01*
X61604736Y-423987D01*
X61614811Y-386387D01*
X61638102Y-361497D01*
X61676488Y-335800D01*
X61679870Y-333536D01*
X61744963Y-265657D01*
X61749585Y-258086D01*
X61763876Y-234672D01*
X61793962Y-185384D01*
X61797727Y-174451D01*
X61823254Y-100313D01*
X61824580Y-96462D01*
X61825460Y-88861D01*
X61835150Y-5105D01*
X61835389Y-3040D01*
X61835400Y0D01*
X61835173Y2091D01*
X61835173Y2094D01*
X61834074Y12208D01*
X61843318Y57244D01*
X61843871Y58225D01*
X61846970Y62308D01*
X61849421Y68498D01*
X61855419Y80423D01*
X61858925Y86078D01*
X61864952Y106823D01*
X61867242Y113511D01*
X61873301Y128812D01*
X61873301Y128813D01*
X61875188Y133578D01*
X61875725Y138682D01*
X61875884Y140190D01*
X61878456Y153300D01*
X61879209Y155893D01*
X61880311Y159686D01*
X61880840Y166891D01*
X61880840Y183415D01*
X61881252Y191275D01*
X61882664Y204711D01*
X61883200Y209810D01*
X61881893Y217539D01*
X61880840Y230078D01*
X61880840Y415814D01*
X61890915Y453414D01*
X61918440Y480939D01*
X61956040Y491014D01*
X62103452Y491014D01*
X62182367Y501403D01*
X62186919Y503288D01*
X62186921Y503289D01*
X62231749Y521858D01*
X62255903Y531863D01*
X62259807Y534859D01*
X62259811Y534861D01*
X62315143Y577319D01*
X62319050Y580317D01*
X62322048Y584224D01*
X62364506Y639556D01*
X62364508Y639560D01*
X62367504Y643464D01*
X62383010Y680899D01*
X62396078Y712446D01*
X62396079Y712448D01*
X62397964Y717000D01*
X62408353Y795914D01*
X62408353Y1095913D01*
X62402239Y1142355D01*
X62407320Y1180948D01*
X62431017Y1211830D01*
X62466981Y1226727D01*
X62505574Y1221646D01*
X62531013Y1204063D01*
X62532607Y1201948D01*
X62538427Y1196960D01*
X62600916Y1143400D01*
X62600919Y1143398D01*
X62604013Y1140746D01*
X62686896Y1096304D01*
X62722580Y1086206D01*
X62773472Y1071805D01*
X62773476Y1071804D01*
X62777389Y1070697D01*
X62831307Y1067494D01*
X62867207Y1065361D01*
X62867210Y1065361D01*
X62871269Y1065120D01*
X62875290Y1065757D01*
X62875293Y1065757D01*
X62910790Y1071379D01*
X62949503Y1067310D01*
X62980995Y1044429D01*
X62997753Y997105D01*
X62997753Y795915D01*
X62998026Y793662D01*
X62998026Y793656D01*
X63007273Y717250D01*
X63008021Y711069D01*
X63038230Y631121D01*
X63086638Y560686D01*
X63150450Y503832D01*
X63154461Y501708D01*
X63157093Y499879D01*
X63182219Y470147D01*
X63189112Y431836D01*
X63175927Y395211D01*
X63159955Y378468D01*
X63141763Y364509D01*
X63134858Y357604D01*
X63092400Y302272D01*
X63087518Y293815D01*
X63073122Y259061D01*
X63072067Y251047D01*
X63072425Y250772D01*
X63076738Y249914D01*
X63611950Y249913D01*
X63611958Y249914D01*
X64652671Y249913D01*
X64660481Y252005D01*
X64660597Y252441D01*
X64659740Y256754D01*
X64644388Y293814D01*
X64639506Y302271D01*
X64597048Y357603D01*
X64590140Y364511D01*
X64570229Y379789D01*
X64546531Y410671D01*
X64541450Y449264D01*
X64556347Y485227D01*
X64573414Y501424D01*
X64576918Y503832D01*
X64613682Y529099D01*
X64620665Y536936D01*
X64655332Y575846D01*
X64670536Y592911D01*
X64687313Y624599D01*
X65070100Y624599D01*
X65070100Y539611D01*
X65070336Y535401D01*
X65079382Y454750D01*
X65081235Y446590D01*
X65107239Y371920D01*
X65110848Y364386D01*
X65152750Y297329D01*
X65157942Y290779D01*
X65213658Y234673D01*
X65220170Y229437D01*
X65286931Y187068D01*
X65294445Y183403D01*
X65368937Y156878D01*
X65377067Y154971D01*
X65457606Y145367D01*
X65461936Y145102D01*
X65462498Y145100D01*
X65462498Y145101D01*
X65462773Y145100D01*
X65499598Y145100D01*
X65507408Y147192D01*
X65509500Y155002D01*
X65890499Y155002D01*
X65892591Y147192D01*
X65900401Y145100D01*
X65935389Y145100D01*
X65939599Y145336D01*
X66020250Y154382D01*
X66028410Y156235D01*
X66103080Y182239D01*
X66110614Y185848D01*
X66177671Y227750D01*
X66184221Y232942D01*
X66240327Y288658D01*
X66245563Y295170D01*
X66287932Y361931D01*
X66291597Y369445D01*
X66318122Y443937D01*
X66320029Y452067D01*
X66329633Y532606D01*
X66329898Y536936D01*
X66329900Y537498D01*
X66329899Y537498D01*
X66329900Y537773D01*
X66329900Y624598D01*
X66327808Y632408D01*
X66319998Y634500D01*
X65900402Y634501D01*
X65892592Y632409D01*
X65890500Y624599D01*
X65890499Y155002D01*
X65509500Y155002D01*
X65509501Y624598D01*
X65507409Y632408D01*
X65499599Y634500D01*
X65080002Y634501D01*
X65072192Y632409D01*
X65070100Y624599D01*
X64687313Y624599D01*
X64710528Y668443D01*
X64731348Y751333D01*
X64734153Y795914D01*
X64734153Y1095913D01*
X64733859Y1098348D01*
X64732147Y1112502D01*
X65070100Y1112502D01*
X65070101Y1112502D01*
X65070100Y1112227D01*
X65070100Y1025402D01*
X65072192Y1017592D01*
X65080002Y1015500D01*
X65499598Y1015499D01*
X65507408Y1017591D01*
X65509500Y1025401D01*
X65509500Y1025402D01*
X65890499Y1025402D01*
X65892591Y1017592D01*
X65900401Y1015500D01*
X66319998Y1015499D01*
X66327808Y1017591D01*
X66329900Y1025401D01*
X66329900Y1110389D01*
X66329664Y1114599D01*
X66325190Y1154488D01*
X69266985Y1154488D01*
X69267845Y1150512D01*
X69267845Y1150509D01*
X69276122Y1112227D01*
X69286859Y1062566D01*
X69326009Y977057D01*
X69328459Y973806D01*
X69328460Y973804D01*
X69360311Y931536D01*
X69382607Y901948D01*
X69385695Y899302D01*
X69385698Y899298D01*
X69450916Y843400D01*
X69450919Y843398D01*
X69454013Y840746D01*
X69536896Y796304D01*
X69572580Y786206D01*
X69623472Y771805D01*
X69623476Y771804D01*
X69627389Y770697D01*
X69681307Y767494D01*
X69717207Y765361D01*
X69717210Y765361D01*
X69721269Y765120D01*
X69814157Y779832D01*
X69817946Y781317D01*
X69817950Y781318D01*
X69870991Y802105D01*
X69901719Y814147D01*
X69905106Y816415D01*
X69905109Y816416D01*
X69976484Y864197D01*
X69976486Y864198D01*
X69979870Y866464D01*
X70044963Y934343D01*
X70093962Y1014616D01*
X70124580Y1103538D01*
X70135389Y1196960D01*
X70135400Y1200000D01*
X70133438Y1218066D01*
X70125683Y1289447D01*
X70125683Y1289448D01*
X70125243Y1293496D01*
X70123943Y1297359D01*
X70096545Y1378771D01*
X70096543Y1378776D01*
X70095246Y1382629D01*
X70091632Y1388645D01*
X70062417Y1437265D01*
X70046809Y1463242D01*
X70013456Y1498512D01*
X69984985Y1528620D01*
X69984982Y1528622D01*
X69982191Y1531574D01*
X69904408Y1584435D01*
X69817088Y1619361D01*
X69724305Y1634721D01*
X69720238Y1634508D01*
X69720235Y1634508D01*
X69673248Y1632045D01*
X69630388Y1629799D01*
X69626461Y1628717D01*
X69626459Y1628717D01*
X69544206Y1606061D01*
X69539719Y1604825D01*
X69456527Y1560963D01*
X69441820Y1548534D01*
X69387805Y1502888D01*
X69387802Y1502885D01*
X69384696Y1500260D01*
X69382225Y1497028D01*
X69382224Y1497027D01*
X69380673Y1494998D01*
X69327574Y1425549D01*
X69322489Y1414644D01*
X69289548Y1344002D01*
X69289546Y1343996D01*
X69287829Y1340314D01*
X69286942Y1336346D01*
X69286941Y1336343D01*
X69279929Y1304971D01*
X69267313Y1248534D01*
X69267191Y1213581D01*
X69267069Y1178460D01*
X69266985Y1154488D01*
X66325190Y1154488D01*
X66320618Y1195250D01*
X66318765Y1203410D01*
X66292761Y1278080D01*
X66289152Y1285614D01*
X66247250Y1352671D01*
X66242058Y1359221D01*
X66186342Y1415327D01*
X66179830Y1420563D01*
X66113069Y1462932D01*
X66105555Y1466597D01*
X66031063Y1493122D01*
X66022933Y1495029D01*
X65942394Y1504633D01*
X65938064Y1504898D01*
X65937502Y1504900D01*
X65937502Y1504899D01*
X65937227Y1504900D01*
X65900402Y1504900D01*
X65892592Y1502808D01*
X65890500Y1494998D01*
X65890499Y1025402D01*
X65509500Y1025402D01*
X65509501Y1494998D01*
X65507409Y1502808D01*
X65499599Y1504900D01*
X65464611Y1504900D01*
X65460401Y1504664D01*
X65379750Y1495618D01*
X65371590Y1493765D01*
X65296920Y1467761D01*
X65289386Y1464152D01*
X65222329Y1422250D01*
X65215779Y1417058D01*
X65159673Y1361342D01*
X65154437Y1354830D01*
X65112068Y1288069D01*
X65108403Y1280555D01*
X65081878Y1206063D01*
X65079971Y1197933D01*
X65070367Y1117394D01*
X65070102Y1113064D01*
X65070100Y1112502D01*
X64732147Y1112502D01*
X64724430Y1176258D01*
X64724429Y1176260D01*
X64723885Y1180759D01*
X64693676Y1260707D01*
X64645268Y1331142D01*
X64643455Y1332757D01*
X64626582Y1366751D01*
X64629028Y1405600D01*
X64647125Y1434786D01*
X65123567Y1911228D01*
X65157278Y1930692D01*
X65196204Y1930692D01*
X65219006Y1920253D01*
X65254430Y1896179D01*
X65258205Y1894669D01*
X65258209Y1894667D01*
X65339531Y1862140D01*
X65339535Y1862139D01*
X65343315Y1860627D01*
X65347331Y1859962D01*
X65347335Y1859961D01*
X65435241Y1845408D01*
X65437760Y1844991D01*
X65462500Y1844300D01*
X65937499Y1844300D01*
X65939522Y1844520D01*
X65939526Y1844520D01*
X65987446Y1849726D01*
X66032670Y1854639D01*
X66123400Y1885173D01*
X66126886Y1887268D01*
X66126889Y1887269D01*
X66201970Y1932383D01*
X66205457Y1934478D01*
X66275013Y2000253D01*
X66275818Y1999402D01*
X66302752Y2017988D01*
X66350727Y2018829D01*
X66394755Y2004862D01*
X66397401Y2004565D01*
X66399946Y2003787D01*
X66446088Y1999100D01*
X66446836Y1999020D01*
X66471082Y1996300D01*
X66472997Y1996300D01*
X66475892Y1996072D01*
X66498232Y1993803D01*
X66521112Y1995966D01*
X66528190Y1996300D01*
X66678928Y1996300D01*
X66729295Y1976941D01*
X66770663Y1939627D01*
X66770668Y1939623D01*
X66773032Y1937491D01*
X66801655Y1919361D01*
X66871219Y1875299D01*
X66871222Y1875297D01*
X66873913Y1873593D01*
X66984118Y1827606D01*
X66987226Y1826891D01*
X66987227Y1826891D01*
X67071598Y1807490D01*
X67100496Y1800845D01*
X67219718Y1794075D01*
X67222884Y1794433D01*
X67222886Y1794433D01*
X67279600Y1800845D01*
X67338377Y1807490D01*
X67384716Y1820909D01*
X67450017Y1839819D01*
X67450020Y1839820D01*
X67453079Y1840706D01*
X67560545Y1892772D01*
X67640609Y1949987D01*
X67655115Y1960353D01*
X67655117Y1960355D01*
X67657702Y1962202D01*
X67659937Y1964457D01*
X67659941Y1964460D01*
X67739533Y2044749D01*
X67739535Y2044752D01*
X67741772Y2047008D01*
X67810351Y2144767D01*
X67846940Y2221997D01*
X67860112Y2249800D01*
X67860113Y2249803D01*
X67861478Y2252684D01*
X67863668Y2260499D01*
X67892831Y2364601D01*
X67893691Y2367671D01*
X67906070Y2486443D01*
X67906200Y2500000D01*
X67906023Y2502091D01*
X67896373Y2615821D01*
X67896372Y2615825D01*
X67896104Y2618987D01*
X67892837Y2631574D01*
X67866906Y2731484D01*
X67866904Y2731490D01*
X67866104Y2734572D01*
X67837803Y2797399D01*
X69170152Y2797399D01*
X69170460Y2793730D01*
X69170460Y2793727D01*
X69177395Y2711139D01*
X69178805Y2694343D01*
X69185039Y2672601D01*
X69206188Y2598849D01*
X69207311Y2594931D01*
X69254584Y2502949D01*
X69318822Y2421901D01*
X69354599Y2391452D01*
X69393583Y2358274D01*
X69397579Y2354873D01*
X69413904Y2345749D01*
X69484644Y2306213D01*
X69484649Y2306211D01*
X69487855Y2304419D01*
X69491352Y2303283D01*
X69491356Y2303281D01*
X69524538Y2292500D01*
X69586212Y2272461D01*
X69622366Y2268150D01*
X69685245Y2260652D01*
X69685247Y2260652D01*
X69688903Y2260216D01*
X69792016Y2268150D01*
X69879226Y2292500D01*
X69888080Y2294972D01*
X69888082Y2294973D01*
X69891625Y2295962D01*
X69950093Y2325496D01*
X69980651Y2340932D01*
X69980652Y2340933D01*
X69983935Y2342591D01*
X70002709Y2357259D01*
X70062531Y2403996D01*
X70062536Y2404001D01*
X70065429Y2406261D01*
X70070416Y2412039D01*
X70130600Y2481762D01*
X70130603Y2481766D01*
X70133005Y2484549D01*
X70161507Y2534721D01*
X70182271Y2571271D01*
X70182272Y2571274D01*
X70184088Y2574470D01*
X70205841Y2639861D01*
X70215570Y2669107D01*
X70215571Y2669110D01*
X70216732Y2672601D01*
X70227739Y2759738D01*
X70229429Y2773113D01*
X70229429Y2773115D01*
X70229693Y2775204D01*
X70229900Y2790000D01*
X70228819Y2801028D01*
X70220168Y2889258D01*
X70220167Y2889262D01*
X70219808Y2892925D01*
X70189917Y2991929D01*
X70141365Y3083242D01*
X70139040Y3086093D01*
X70078327Y3160536D01*
X70078323Y3160540D01*
X70076002Y3163386D01*
X69996316Y3229307D01*
X69905345Y3278495D01*
X69806551Y3309077D01*
X69742703Y3315788D01*
X69707354Y3319503D01*
X69707352Y3319503D01*
X69703699Y3319887D01*
X69600707Y3310514D01*
X69551101Y3295914D01*
X69505025Y3282354D01*
X69505022Y3282353D01*
X69501496Y3281315D01*
X69498239Y3279612D01*
X69498236Y3279611D01*
X69413105Y3235105D01*
X69409846Y3233401D01*
X69406980Y3231096D01*
X69406979Y3231096D01*
X69337508Y3175240D01*
X69329248Y3168599D01*
X69262772Y3089376D01*
X69261001Y3086154D01*
X69261000Y3086153D01*
X69216885Y3005907D01*
X69212950Y2998750D01*
X69181680Y2900172D01*
X69170152Y2797399D01*
X67837803Y2797399D01*
X67817058Y2843450D01*
X67750368Y2942508D01*
X67678637Y3017702D01*
X67670140Y3026609D01*
X67670139Y3026610D01*
X67667942Y3028913D01*
X67572136Y3100194D01*
X67465690Y3154315D01*
X67351646Y3189726D01*
X67348502Y3190143D01*
X67348496Y3190144D01*
X67236430Y3204997D01*
X67236427Y3204997D01*
X67233267Y3205416D01*
X67113936Y3200936D01*
X67110822Y3200283D01*
X67110817Y3200282D01*
X67062502Y3190144D01*
X66997066Y3176414D01*
X66970010Y3165729D01*
X66888966Y3133724D01*
X66888963Y3133723D01*
X66885999Y3132552D01*
X66874459Y3125549D01*
X66786638Y3072258D01*
X66786633Y3072255D01*
X66783910Y3070602D01*
X66740235Y3032703D01*
X66705236Y3015670D01*
X66654723Y3023603D01*
X66627635Y3038495D01*
X66627633Y3038496D01*
X66624413Y3040266D01*
X66621873Y3041072D01*
X66619530Y3042328D01*
X66575197Y3055882D01*
X66574575Y3056075D01*
X66530245Y3070138D01*
X66527599Y3070435D01*
X66525054Y3071213D01*
X66478843Y3075907D01*
X66478213Y3075975D01*
X66459089Y3078120D01*
X66456014Y3078465D01*
X66456012Y3078465D01*
X66453918Y3078700D01*
X66452002Y3078700D01*
X66449101Y3078928D01*
X66433135Y3080550D01*
X66430430Y3080825D01*
X66430429Y3080825D01*
X66426767Y3081197D01*
X66404011Y3079046D01*
X66403887Y3079034D01*
X66396809Y3078700D01*
X66364167Y3078700D01*
X66326567Y3088775D01*
X66299708Y3115169D01*
X66292617Y3126970D01*
X66290522Y3130457D01*
X66224747Y3200013D01*
X66179071Y3231054D01*
X66148936Y3251534D01*
X66148933Y3251536D01*
X66145570Y3253821D01*
X66141795Y3255331D01*
X66141791Y3255333D01*
X66060469Y3287860D01*
X66060465Y3287861D01*
X66056685Y3289373D01*
X66052669Y3290038D01*
X66052665Y3290039D01*
X65964759Y3304592D01*
X65964758Y3304592D01*
X65962240Y3305009D01*
X65937500Y3305700D01*
X65462501Y3305700D01*
X65460478Y3305480D01*
X65460474Y3305480D01*
X65414583Y3300494D01*
X65367330Y3295361D01*
X65276600Y3264827D01*
X65273114Y3262732D01*
X65273111Y3262731D01*
X65247460Y3247318D01*
X65194543Y3215522D01*
X65124987Y3149747D01*
X65101489Y3115169D01*
X65098446Y3110692D01*
X65068978Y3085257D01*
X65043587Y3078120D01*
X65028859Y3076676D01*
X65028076Y3076603D01*
X65006929Y3074752D01*
X64981884Y3072561D01*
X64979330Y3071819D01*
X64976679Y3071559D01*
X64973156Y3070495D01*
X64973154Y3070495D01*
X64963509Y3067583D01*
X64932218Y3058136D01*
X64931514Y3057928D01*
X64890554Y3046028D01*
X64890552Y3046027D01*
X64887013Y3044999D01*
X64884651Y3043774D01*
X64882102Y3043005D01*
X64878859Y3041281D01*
X64878850Y3041277D01*
X64841145Y3021229D01*
X64840450Y3020864D01*
X64802576Y3001232D01*
X64802569Y3001227D01*
X64799304Y2999535D01*
X64797226Y2997876D01*
X64794873Y2996625D01*
X64782381Y2986437D01*
X64758957Y2967333D01*
X64758345Y2966839D01*
X64739278Y2951618D01*
X64737931Y2950271D01*
X64735705Y2948370D01*
X64721172Y2936517D01*
X64721166Y2936511D01*
X64718314Y2934185D01*
X64715967Y2931348D01*
X64703659Y2916470D01*
X64698890Y2911230D01*
X63532511Y1744850D01*
X63526459Y1739418D01*
X63511783Y1727619D01*
X63509421Y1724804D01*
X63509419Y1724802D01*
X63495040Y1707665D01*
X63493137Y1705484D01*
X63493059Y1705398D01*
X63491755Y1704094D01*
X63490587Y1702672D01*
X63478616Y1688098D01*
X63478113Y1687492D01*
X63468457Y1675984D01*
X63448281Y1651939D01*
X63446996Y1649602D01*
X63445310Y1647549D01*
X63443573Y1644310D01*
X63443572Y1644308D01*
X63423437Y1606755D01*
X63423113Y1606158D01*
X63412002Y1585946D01*
X63411277Y1584627D01*
X63384333Y1556532D01*
X63346952Y1545672D01*
X63309150Y1554958D01*
X63274108Y1596869D01*
X63245246Y1682629D01*
X63242321Y1687498D01*
X63207860Y1744850D01*
X63196809Y1763242D01*
X63142598Y1820569D01*
X63134985Y1828620D01*
X63134982Y1828622D01*
X63132191Y1831574D01*
X63127667Y1834649D01*
X63081892Y1865757D01*
X63054408Y1884435D01*
X62967088Y1919361D01*
X62874305Y1934721D01*
X62870238Y1934508D01*
X62870235Y1934508D01*
X62829693Y1932383D01*
X62780388Y1929799D01*
X62776461Y1928717D01*
X62776459Y1928717D01*
X62715031Y1911797D01*
X62689719Y1904825D01*
X62606527Y1860963D01*
X62587627Y1844991D01*
X62537805Y1802888D01*
X62537802Y1802885D01*
X62534696Y1800260D01*
X62532225Y1797028D01*
X62532224Y1797027D01*
X62530016Y1794139D01*
X62477574Y1725549D01*
X62475853Y1721858D01*
X62439548Y1644002D01*
X62439546Y1643996D01*
X62437829Y1640314D01*
X62436942Y1636346D01*
X62436941Y1636343D01*
X62433719Y1621927D01*
X62417313Y1548534D01*
X62417299Y1544466D01*
X62417016Y1463242D01*
X62416985Y1454488D01*
X62417845Y1450512D01*
X62417845Y1450509D01*
X62430217Y1393287D01*
X62428315Y1354408D01*
X62407228Y1321687D01*
X62372606Y1303894D01*
X62333727Y1305796D01*
X62310936Y1317736D01*
X62290993Y1333039D01*
X62255903Y1359964D01*
X62219838Y1374903D01*
X62186921Y1388538D01*
X62186919Y1388539D01*
X62182367Y1390424D01*
X62103453Y1400813D01*
X61590954Y1400813D01*
X61080912Y1400814D01*
X61078454Y1400814D01*
X61068653Y1399524D01*
X61068146Y1399457D01*
X61058331Y1398814D01*
X60883272Y1398814D01*
X60863816Y1401375D01*
X60859338Y1402574D01*
X60855591Y1403685D01*
X60823443Y1414130D01*
X60817421Y1414763D01*
X60805836Y1416911D01*
X60800000Y1418474D01*
X60766284Y1420241D01*
X60762367Y1420550D01*
X60758435Y1420963D01*
X60754506Y1421376D01*
X60754504Y1421376D01*
X60752545Y1421582D01*
X60742672Y1421582D01*
X60738736Y1421685D01*
X60708864Y1423251D01*
X60708861Y1423251D01*
X60704927Y1423457D01*
X60698935Y1422508D01*
X60687172Y1421582D01*
X60221361Y1421582D01*
X60183761Y1431657D01*
X60157588Y1456932D01*
X60153077Y1464152D01*
X60130727Y1499919D01*
X60069085Y1561993D01*
X60066418Y1563685D01*
X60043695Y1594733D01*
X60038606Y1621927D01*
X60038606Y2254488D01*
X61066985Y2254488D01*
X61067845Y2250512D01*
X61067845Y2250509D01*
X61072725Y2227937D01*
X61086859Y2162566D01*
X61126009Y2077057D01*
X61128459Y2073806D01*
X61128460Y2073804D01*
X61157255Y2035591D01*
X61182607Y2001948D01*
X61185695Y1999302D01*
X61185698Y1999298D01*
X61250916Y1943400D01*
X61250919Y1943398D01*
X61254013Y1940746D01*
X61336896Y1896304D01*
X61349378Y1892772D01*
X61423472Y1871805D01*
X61423476Y1871804D01*
X61427389Y1870697D01*
X61481307Y1867494D01*
X61517207Y1865361D01*
X61517210Y1865361D01*
X61521269Y1865120D01*
X61614157Y1879832D01*
X61617946Y1881317D01*
X61617950Y1881318D01*
X61662550Y1898797D01*
X61701719Y1914147D01*
X61705106Y1916415D01*
X61705109Y1916416D01*
X61776484Y1964197D01*
X61776486Y1964198D01*
X61779870Y1966464D01*
X61844963Y2034343D01*
X61848391Y2039958D01*
X61863749Y2065120D01*
X61893962Y2114616D01*
X61924580Y2203538D01*
X61925202Y2208909D01*
X61931688Y2264975D01*
X61935389Y2296960D01*
X61935400Y2300000D01*
X61932830Y2323662D01*
X61928170Y2366549D01*
X61925243Y2393496D01*
X61923619Y2398321D01*
X61896545Y2478771D01*
X61896543Y2478776D01*
X61895246Y2482629D01*
X61892955Y2486443D01*
X61848904Y2559755D01*
X61846809Y2563242D01*
X61809318Y2602888D01*
X61784985Y2628620D01*
X61784982Y2628622D01*
X61782191Y2631574D01*
X61769331Y2640314D01*
X61736150Y2662863D01*
X61704408Y2684435D01*
X61617088Y2719361D01*
X61524305Y2734721D01*
X61520238Y2734508D01*
X61520235Y2734508D01*
X61473248Y2732045D01*
X61430388Y2729799D01*
X61426461Y2728717D01*
X61426459Y2728717D01*
X61343647Y2705907D01*
X61339719Y2704825D01*
X61256527Y2660963D01*
X61241907Y2648608D01*
X61187805Y2602888D01*
X61187802Y2602885D01*
X61184696Y2600260D01*
X61182225Y2597028D01*
X61182224Y2597027D01*
X61180588Y2594887D01*
X61127574Y2525549D01*
X61125753Y2521644D01*
X61089548Y2444002D01*
X61089546Y2443996D01*
X61087829Y2440314D01*
X61086942Y2436346D01*
X61086941Y2436343D01*
X61078747Y2399687D01*
X61067313Y2348534D01*
X61067276Y2337819D01*
X61067006Y2260389D01*
X61066985Y2254488D01*
X60038606Y2254488D01*
X60038606Y4054488D01*
X63666985Y4054488D01*
X63667845Y4050512D01*
X63667845Y4050509D01*
X63678001Y4003538D01*
X63686859Y3962566D01*
X63726009Y3877057D01*
X63728459Y3873806D01*
X63728460Y3873804D01*
X63757527Y3835231D01*
X63782607Y3801948D01*
X63785695Y3799302D01*
X63785698Y3799298D01*
X63850916Y3743400D01*
X63850919Y3743398D01*
X63854013Y3740746D01*
X63936896Y3696304D01*
X63962224Y3689137D01*
X64023472Y3671805D01*
X64023476Y3671804D01*
X64027389Y3670697D01*
X64079522Y3667600D01*
X64117207Y3665361D01*
X64117210Y3665361D01*
X64121269Y3665120D01*
X64214157Y3679832D01*
X64217946Y3681317D01*
X64217950Y3681318D01*
X64261103Y3698230D01*
X64301719Y3714147D01*
X64305106Y3716415D01*
X64305109Y3716416D01*
X64376484Y3764197D01*
X64376486Y3764198D01*
X64379870Y3766464D01*
X64444963Y3834343D01*
X64493962Y3914616D01*
X64524580Y4003538D01*
X64535389Y4096960D01*
X64535400Y4100000D01*
X64526867Y4178552D01*
X68012479Y4178552D01*
X68033745Y4099183D01*
X68035984Y4093032D01*
X68081452Y3995527D01*
X68084724Y3989859D01*
X68146430Y3901733D01*
X68150645Y3896710D01*
X68226710Y3820645D01*
X68231733Y3816430D01*
X68319859Y3754724D01*
X68325527Y3751452D01*
X68423032Y3705984D01*
X68429183Y3703745D01*
X68533107Y3675899D01*
X68539549Y3674763D01*
X68619781Y3667744D01*
X68623075Y3667600D01*
X69063098Y3667600D01*
X69070908Y3669692D01*
X69073000Y3677502D01*
X69326999Y3677502D01*
X69329091Y3669692D01*
X69336901Y3667600D01*
X69776925Y3667600D01*
X69780219Y3667744D01*
X69860451Y3674763D01*
X69866893Y3675899D01*
X69970817Y3703745D01*
X69976968Y3705984D01*
X70074473Y3751452D01*
X70080141Y3754724D01*
X70168267Y3816430D01*
X70173290Y3820645D01*
X70249355Y3896710D01*
X70253570Y3901733D01*
X70315276Y3989859D01*
X70318548Y3995527D01*
X70364016Y4093032D01*
X70366255Y4099183D01*
X70387521Y4178552D01*
X72342479Y4178552D01*
X72363745Y4099183D01*
X72365984Y4093032D01*
X72411452Y3995527D01*
X72414724Y3989859D01*
X72476430Y3901733D01*
X72480645Y3896710D01*
X72556710Y3820645D01*
X72561733Y3816430D01*
X72649859Y3754724D01*
X72655527Y3751452D01*
X72753032Y3705984D01*
X72759183Y3703745D01*
X72863107Y3675899D01*
X72869549Y3674763D01*
X72949781Y3667744D01*
X72953075Y3667600D01*
X73243098Y3667600D01*
X73250908Y3669692D01*
X73253000Y3677502D01*
X73506999Y3677502D01*
X73509091Y3669692D01*
X73516901Y3667600D01*
X73806925Y3667600D01*
X73810219Y3667744D01*
X73890451Y3674763D01*
X73896893Y3675899D01*
X74000817Y3703745D01*
X74006968Y3705984D01*
X74104473Y3751452D01*
X74110141Y3754724D01*
X74198267Y3816430D01*
X74203290Y3820645D01*
X74279355Y3896710D01*
X74283570Y3901733D01*
X74345276Y3989859D01*
X74348548Y3995527D01*
X74394016Y4093032D01*
X74396255Y4099183D01*
X74418831Y4183438D01*
X74418831Y4187866D01*
X74406436Y4193000D01*
X73516902Y4193001D01*
X73509092Y4190909D01*
X73507000Y4183099D01*
X73506999Y3677502D01*
X73253000Y3677502D01*
X73253001Y4183098D01*
X73250909Y4190908D01*
X73243099Y4193000D01*
X72348509Y4193001D01*
X72344230Y4191855D01*
X72342479Y4178552D01*
X70387521Y4178552D01*
X70388831Y4183438D01*
X70388831Y4187866D01*
X70376436Y4193000D01*
X69336902Y4193001D01*
X69329092Y4190909D01*
X69327000Y4183099D01*
X69326999Y3677502D01*
X69073000Y3677502D01*
X69073001Y4183098D01*
X69070909Y4190908D01*
X69063099Y4193000D01*
X68018509Y4193001D01*
X68014230Y4191855D01*
X68012479Y4178552D01*
X64526867Y4178552D01*
X64525243Y4193496D01*
X64512485Y4231405D01*
X64496545Y4278771D01*
X64496543Y4278776D01*
X64495246Y4282629D01*
X64490190Y4291045D01*
X64452243Y4354198D01*
X64446809Y4363242D01*
X64404879Y4407582D01*
X64384985Y4428620D01*
X64384982Y4428622D01*
X64382191Y4431574D01*
X64357808Y4448145D01*
X64345423Y4456562D01*
X68011169Y4456562D01*
X68011169Y4452134D01*
X68023564Y4447000D01*
X69063098Y4446999D01*
X69070908Y4449091D01*
X69073000Y4456901D01*
X69073000Y4456902D01*
X69326999Y4456902D01*
X69329091Y4449092D01*
X69336901Y4447000D01*
X70381491Y4446999D01*
X70385770Y4448145D01*
X70386877Y4456562D01*
X72341169Y4456562D01*
X72341169Y4452134D01*
X72353564Y4447000D01*
X73243098Y4446999D01*
X73250908Y4449091D01*
X73253000Y4456901D01*
X73253000Y4456902D01*
X73506999Y4456902D01*
X73509091Y4449092D01*
X73516901Y4447000D01*
X74411491Y4446999D01*
X74415770Y4448145D01*
X74417521Y4461448D01*
X74396255Y4540817D01*
X74394016Y4546968D01*
X74348548Y4644473D01*
X74345276Y4650141D01*
X74283570Y4738267D01*
X74279355Y4743290D01*
X74203290Y4819355D01*
X74198267Y4823570D01*
X74110141Y4885276D01*
X74104473Y4888548D01*
X74006968Y4934016D01*
X74000817Y4936255D01*
X73896893Y4964101D01*
X73890451Y4965237D01*
X73810219Y4972256D01*
X73806925Y4972400D01*
X73516902Y4972400D01*
X73509092Y4970308D01*
X73507000Y4962498D01*
X73506999Y4456902D01*
X73253000Y4456902D01*
X73253001Y4962498D01*
X73250909Y4970308D01*
X73243099Y4972400D01*
X72953075Y4972400D01*
X72949781Y4972256D01*
X72869549Y4965237D01*
X72863107Y4964101D01*
X72759183Y4936255D01*
X72753032Y4934016D01*
X72655527Y4888548D01*
X72649859Y4885276D01*
X72561733Y4823570D01*
X72556710Y4819355D01*
X72480645Y4743290D01*
X72476430Y4738267D01*
X72414724Y4650141D01*
X72411452Y4644473D01*
X72365984Y4546968D01*
X72363745Y4540817D01*
X72341169Y4456562D01*
X70386877Y4456562D01*
X70387521Y4461448D01*
X70366255Y4540817D01*
X70364016Y4546968D01*
X70318548Y4644473D01*
X70315276Y4650141D01*
X70253570Y4738267D01*
X70249355Y4743290D01*
X70173290Y4819355D01*
X70168267Y4823570D01*
X70080141Y4885276D01*
X70074473Y4888548D01*
X69976968Y4934016D01*
X69970817Y4936255D01*
X69866893Y4964101D01*
X69860451Y4965237D01*
X69780219Y4972256D01*
X69776925Y4972400D01*
X69336902Y4972400D01*
X69329092Y4970308D01*
X69327000Y4962498D01*
X69326999Y4456902D01*
X69073000Y4456902D01*
X69073001Y4962498D01*
X69070909Y4970308D01*
X69063099Y4972400D01*
X68623075Y4972400D01*
X68619781Y4972256D01*
X68539549Y4965237D01*
X68533107Y4964101D01*
X68429183Y4936255D01*
X68423032Y4934016D01*
X68325527Y4888548D01*
X68319859Y4885276D01*
X68231733Y4823570D01*
X68226710Y4819355D01*
X68150645Y4743290D01*
X68146430Y4738267D01*
X68084724Y4650141D01*
X68081452Y4644473D01*
X68035984Y4546968D01*
X68033745Y4540817D01*
X68011169Y4456562D01*
X64345423Y4456562D01*
X64338805Y4461059D01*
X64304408Y4484435D01*
X64217088Y4519361D01*
X64124305Y4534721D01*
X64120238Y4534508D01*
X64120235Y4534508D01*
X64073248Y4532045D01*
X64030388Y4529799D01*
X64026461Y4528717D01*
X64026459Y4528717D01*
X63943647Y4505907D01*
X63939719Y4504825D01*
X63856527Y4460963D01*
X63841359Y4448145D01*
X63787805Y4402888D01*
X63787802Y4402885D01*
X63784696Y4400260D01*
X63727574Y4325549D01*
X63725853Y4321858D01*
X63689548Y4244002D01*
X63689546Y4243996D01*
X63687829Y4240314D01*
X63686942Y4236346D01*
X63686941Y4236343D01*
X63678545Y4198782D01*
X63667313Y4148534D01*
X63667299Y4144466D01*
X63667000Y4058649D01*
X63666985Y4054488D01*
X60038606Y4054488D01*
X60038606Y4137036D01*
X60054913Y4183797D01*
X60063570Y4194700D01*
X60063574Y4194706D01*
X60065798Y4197507D01*
X60114594Y4291045D01*
X60144822Y4392122D01*
X60151101Y4454488D01*
X61066985Y4454488D01*
X61067845Y4450512D01*
X61067845Y4450509D01*
X61068152Y4449091D01*
X61086859Y4362566D01*
X61126009Y4277057D01*
X61128459Y4273806D01*
X61128460Y4273804D01*
X61156689Y4236343D01*
X61182607Y4201948D01*
X61185695Y4199302D01*
X61185698Y4199298D01*
X61250916Y4143400D01*
X61250919Y4143398D01*
X61254013Y4140746D01*
X61336896Y4096304D01*
X61371641Y4086472D01*
X61423472Y4071805D01*
X61423476Y4071804D01*
X61427389Y4070697D01*
X61481307Y4067494D01*
X61517207Y4065361D01*
X61517210Y4065361D01*
X61521269Y4065120D01*
X61614157Y4079832D01*
X61617946Y4081317D01*
X61617950Y4081318D01*
X61666061Y4100173D01*
X61701719Y4114147D01*
X61705106Y4116415D01*
X61705109Y4116416D01*
X61776484Y4164197D01*
X61776486Y4164198D01*
X61779870Y4166464D01*
X61844963Y4234343D01*
X61893962Y4314616D01*
X61897727Y4325549D01*
X61923254Y4399687D01*
X61924580Y4403538D01*
X61935389Y4496960D01*
X61935400Y4500000D01*
X61933225Y4520026D01*
X61925683Y4589444D01*
X61925243Y4593496D01*
X61920209Y4608453D01*
X61896545Y4678771D01*
X61896543Y4678776D01*
X61895246Y4682629D01*
X61881049Y4706258D01*
X61853397Y4752278D01*
X61846809Y4763242D01*
X61789677Y4823658D01*
X61784985Y4828620D01*
X61784982Y4828622D01*
X61782191Y4831574D01*
X61704408Y4884435D01*
X61617088Y4919361D01*
X61524305Y4934721D01*
X61520238Y4934508D01*
X61520235Y4934508D01*
X61473248Y4932045D01*
X61430388Y4929799D01*
X61426461Y4928717D01*
X61426459Y4928717D01*
X61386999Y4917848D01*
X61339719Y4904825D01*
X61256527Y4860963D01*
X61242395Y4849020D01*
X61187805Y4802888D01*
X61187802Y4802885D01*
X61184696Y4800260D01*
X61127574Y4725549D01*
X61125853Y4721858D01*
X61089548Y4644002D01*
X61089546Y4643996D01*
X61087829Y4640314D01*
X61067313Y4548534D01*
X61067248Y4529799D01*
X61067008Y4460963D01*
X61066985Y4454488D01*
X60151101Y4454488D01*
X60155392Y4497092D01*
X60155400Y4500000D01*
X60154940Y4504825D01*
X60145720Y4601465D01*
X60145719Y4601470D01*
X60145380Y4605024D01*
X60115681Y4706258D01*
X60067375Y4800049D01*
X60002205Y4883015D01*
X59922522Y4952160D01*
X59831202Y5004990D01*
X59827829Y5006161D01*
X59827823Y5006164D01*
X59766493Y5027460D01*
X59731540Y5039598D01*
X59728004Y5040111D01*
X59728003Y5040111D01*
X59659628Y5050025D01*
X59627131Y5054737D01*
X59623564Y5054572D01*
X59623562Y5054572D01*
X59525319Y5050025D01*
X59525314Y5050024D01*
X59521743Y5049859D01*
X59419179Y5025141D01*
X59415919Y5023659D01*
X59415917Y5023658D01*
X59370919Y5003198D01*
X59323140Y4981474D01*
X59320222Y4979404D01*
X59320220Y4979403D01*
X59240008Y4922505D01*
X59237090Y4920435D01*
X59234619Y4917854D01*
X59234617Y4917852D01*
X59222147Y4904825D01*
X59164135Y4844225D01*
X59162196Y4841222D01*
X59162192Y4841217D01*
X59135747Y4800260D01*
X59106907Y4755595D01*
X59105571Y4752280D01*
X59105570Y4752278D01*
X59101948Y4743290D01*
X59067472Y4657742D01*
X59047251Y4554198D01*
X59047183Y4528100D01*
X59046996Y4456562D01*
X59046975Y4448697D01*
X59066653Y4345048D01*
X59067974Y4341719D01*
X59067975Y4341717D01*
X59092171Y4280762D01*
X59105576Y4246990D01*
X59107503Y4243971D01*
X59120994Y4222836D01*
X59132807Y4182375D01*
X59132806Y1621918D01*
X59122731Y1584318D01*
X59105487Y1564339D01*
X59104469Y1563703D01*
X59101485Y1560740D01*
X59101484Y1560739D01*
X59090210Y1549543D01*
X59042395Y1502061D01*
X59037913Y1494998D01*
X58997335Y1431059D01*
X58968681Y1404711D01*
X58933842Y1396154D01*
X58514279Y1396154D01*
X58485501Y1401878D01*
X58483831Y1402570D01*
X58470060Y1408274D01*
X58450880Y1416219D01*
X58450878Y1416220D01*
X58446326Y1418105D01*
X58370000Y1428153D01*
X58199966Y1428154D01*
X58030001Y1428154D01*
X57953675Y1418106D01*
X57949123Y1416221D01*
X57949121Y1416220D01*
X57923483Y1405600D01*
X57882551Y1388645D01*
X57864642Y1374903D01*
X57847426Y1361693D01*
X57801648Y1346154D01*
X57801535Y1346154D01*
X57796419Y1346328D01*
X57773971Y1347859D01*
X57773968Y1347859D01*
X57769448Y1348167D01*
X57758912Y1346328D01*
X57738418Y1342751D01*
X57734522Y1342176D01*
X57719134Y1340314D01*
X57703274Y1338395D01*
X57699031Y1336792D01*
X57694630Y1335711D01*
X57694607Y1335804D01*
X57694105Y1335667D01*
X57694133Y1335576D01*
X57689788Y1334264D01*
X57685327Y1333485D01*
X57681177Y1331663D01*
X57681176Y1331663D01*
X57656500Y1320832D01*
X57652858Y1319345D01*
X57647976Y1317500D01*
X57623394Y1308211D01*
X57619661Y1305645D01*
X57615638Y1303542D01*
X57615593Y1303629D01*
X57615139Y1303376D01*
X57615189Y1303291D01*
X57611285Y1300982D01*
X57607136Y1299161D01*
X57603541Y1296403D01*
X57603540Y1296402D01*
X57582148Y1279988D01*
X57578966Y1277677D01*
X57559706Y1264439D01*
X57553019Y1259843D01*
X57550004Y1256459D01*
X57533666Y1238122D01*
X57530693Y1234974D01*
X57060010Y764290D01*
X57056271Y760796D01*
X57035886Y743013D01*
X57033281Y739306D01*
X57033279Y739304D01*
X57017780Y717250D01*
X57015432Y714089D01*
X56996004Y689311D01*
X56994140Y685182D01*
X56991789Y681301D01*
X56991705Y681352D01*
X56991447Y680899D01*
X56991534Y680852D01*
X56989396Y676864D01*
X56986785Y673149D01*
X56975348Y643814D01*
X56973823Y640186D01*
X56962730Y615618D01*
X56962729Y615614D01*
X56960864Y611484D01*
X56960038Y607027D01*
X56958682Y602700D01*
X56958588Y602729D01*
X56958444Y602223D01*
X56958539Y602199D01*
X56957411Y597809D01*
X56955766Y593588D01*
X56955175Y589101D01*
X56955175Y589100D01*
X56953430Y575846D01*
X56938612Y539987D01*
X56930051Y528790D01*
X56930047Y528784D01*
X56927574Y525549D01*
X56925853Y521858D01*
X56889548Y444002D01*
X56889546Y443996D01*
X56887829Y440314D01*
X56886942Y436346D01*
X56886941Y436343D01*
X56878817Y400000D01*
X56867313Y348534D01*
X56867170Y307584D01*
X56867016Y263242D01*
X56866985Y254488D01*
X53407691Y254488D01*
X53423254Y299687D01*
X53424580Y303538D01*
X53426789Y322626D01*
X53430040Y350726D01*
X53435389Y396960D01*
X53435400Y400000D01*
X53433217Y420100D01*
X53428001Y468108D01*
X53425243Y493496D01*
X53423943Y497359D01*
X53423069Y501334D01*
X53424075Y501555D01*
X53421983Y534757D01*
X53439288Y569625D01*
X53471709Y591170D01*
X53495701Y595100D01*
X54130000Y595100D01*
X54134225Y596094D01*
X54134228Y596094D01*
X54167828Y603997D01*
X54199045Y611339D01*
X54244472Y645645D01*
X54274440Y694044D01*
X54279999Y723783D01*
X54284263Y746591D01*
X54284263Y746594D01*
X54284900Y750000D01*
X54284900Y3144900D01*
X54294975Y3182500D01*
X54322500Y3210025D01*
X54360100Y3220100D01*
X54469900Y3220100D01*
X54507500Y3210025D01*
X54535025Y3182500D01*
X54545100Y3144900D01*
X54545100Y750000D01*
X54546094Y745775D01*
X54546094Y745772D01*
X54552426Y718853D01*
X54561339Y680955D01*
X54595645Y635528D01*
X54644044Y605560D01*
X54650891Y604280D01*
X54696591Y595737D01*
X54696594Y595737D01*
X54700000Y595100D01*
X55400000Y595100D01*
X55404225Y596094D01*
X55404228Y596094D01*
X55437828Y603997D01*
X55469045Y611339D01*
X55514472Y645645D01*
X55544440Y694044D01*
X55549999Y723783D01*
X55554263Y746591D01*
X55554263Y746594D01*
X55554900Y750000D01*
X55554900Y1813099D01*
X55815100Y1813099D01*
X55815100Y754345D01*
X55816094Y745772D01*
X55829543Y688593D01*
X55836069Y674692D01*
X55861444Y641091D01*
X55871572Y631858D01*
X55908121Y609228D01*
X55920891Y604280D01*
X55966591Y595737D01*
X55973471Y595100D01*
X56183098Y595100D01*
X56190908Y597192D01*
X56193000Y605002D01*
X56446999Y605002D01*
X56449091Y597192D01*
X56456901Y595100D01*
X56665655Y595100D01*
X56674228Y596094D01*
X56731407Y609543D01*
X56745308Y616069D01*
X56778909Y641444D01*
X56788142Y651572D01*
X56810772Y688121D01*
X56815720Y700891D01*
X56824263Y746591D01*
X56824900Y753471D01*
X56824900Y1813098D01*
X56822808Y1820908D01*
X56814998Y1823000D01*
X56456901Y1823001D01*
X56449092Y1820909D01*
X56447000Y1813099D01*
X56446999Y605002D01*
X56193000Y605002D01*
X56193001Y1813098D01*
X56190909Y1820908D01*
X56183099Y1823000D01*
X55825001Y1823001D01*
X55817192Y1820909D01*
X55815100Y1813099D01*
X55554900Y1813099D01*
X55554900Y3146529D01*
X55815100Y3146529D01*
X55815100Y2086902D01*
X55817192Y2079092D01*
X55825002Y2077000D01*
X56183099Y2076999D01*
X56190908Y2079091D01*
X56193000Y2086901D01*
X56193000Y2086902D01*
X56446999Y2086902D01*
X56449091Y2079092D01*
X56456901Y2077000D01*
X56814999Y2076999D01*
X56822808Y2079091D01*
X56824900Y2086901D01*
X56824900Y3145655D01*
X56823906Y3154228D01*
X56810457Y3211407D01*
X56803931Y3225308D01*
X56778556Y3258909D01*
X56768428Y3268142D01*
X56731879Y3290772D01*
X56719109Y3295720D01*
X56673409Y3304263D01*
X56666529Y3304900D01*
X56456902Y3304900D01*
X56449092Y3302808D01*
X56447000Y3294998D01*
X56446999Y2086902D01*
X56193000Y2086902D01*
X56193001Y3294998D01*
X56190909Y3302808D01*
X56183099Y3304900D01*
X55974345Y3304900D01*
X55965772Y3303906D01*
X55908593Y3290457D01*
X55894692Y3283931D01*
X55861091Y3258556D01*
X55851858Y3248428D01*
X55829228Y3211879D01*
X55824280Y3199109D01*
X55815737Y3153409D01*
X55815100Y3146529D01*
X55554900Y3146529D01*
X55554900Y3150000D01*
X55553886Y3154315D01*
X55544053Y3196119D01*
X55538661Y3219045D01*
X55504355Y3264472D01*
X55497650Y3268624D01*
X55488726Y3274149D01*
X55455956Y3294440D01*
X55449109Y3295720D01*
X55403409Y3304263D01*
X55403406Y3304263D01*
X55400000Y3304900D01*
X55382354Y3304900D01*
X55344754Y3314975D01*
X55313759Y3351268D01*
X55313642Y3351204D01*
X55313333Y3351767D01*
X55313332Y3351769D01*
X55303245Y3370116D01*
X55300137Y3376459D01*
X55291555Y3396291D01*
X55287371Y3401458D01*
X55279915Y3412554D01*
X55278613Y3414923D01*
X55278612Y3414924D01*
X55276715Y3418375D01*
X55271995Y3423844D01*
X55260316Y3435523D01*
X55255049Y3441372D01*
X55248263Y3449752D01*
X55243316Y3455861D01*
X55236921Y3460406D01*
X55227317Y3468522D01*
X55001288Y3694549D01*
X54999108Y3696823D01*
X54990684Y3705984D01*
X54980009Y3717593D01*
X54961646Y3728979D01*
X54955812Y3732989D01*
X54942713Y3742932D01*
X54942711Y3742933D01*
X54938631Y3746030D01*
X54932452Y3748477D01*
X54920512Y3754482D01*
X54914862Y3757985D01*
X54894106Y3764015D01*
X54887434Y3766300D01*
X54867361Y3774248D01*
X54860756Y3774942D01*
X54847636Y3777517D01*
X54841254Y3779371D01*
X54837327Y3779659D01*
X54837323Y3779660D01*
X54835414Y3779800D01*
X54835408Y3779800D01*
X54834049Y3779900D01*
X54817525Y3779900D01*
X54809664Y3780312D01*
X54791130Y3782260D01*
X54783401Y3780953D01*
X54770862Y3779900D01*
X53254733Y3779900D01*
X53251585Y3779966D01*
X53251355Y3779976D01*
X53223424Y3781146D01*
X53218436Y3779976D01*
X53218435Y3779976D01*
X53218111Y3779900D01*
X53202408Y3776217D01*
X53195456Y3774929D01*
X53174057Y3771997D01*
X53169353Y3769962D01*
X53169348Y3769960D01*
X53167953Y3769356D01*
X53155264Y3765159D01*
X53148796Y3763642D01*
X53130927Y3753819D01*
X53129883Y3753245D01*
X53123529Y3750132D01*
X53103709Y3741555D01*
X53098548Y3737375D01*
X53087451Y3729918D01*
X53081625Y3726716D01*
X53078642Y3724140D01*
X53078637Y3724137D01*
X53077204Y3722899D01*
X53076157Y3721995D01*
X53064482Y3710320D01*
X53058634Y3705054D01*
X53044139Y3693316D01*
X53041170Y3689138D01*
X53041169Y3689137D01*
X53039593Y3686920D01*
X53031469Y3677307D01*
X51456804Y2102642D01*
X51423093Y2083178D01*
X51384167Y2083178D01*
X51350456Y2102642D01*
X51328870Y2147695D01*
X51327078Y2164197D01*
X51325243Y2181085D01*
X51323942Y2184952D01*
X51296545Y2266360D01*
X51296543Y2266365D01*
X51295246Y2270218D01*
X51293092Y2273804D01*
X51250162Y2345250D01*
X51246809Y2350831D01*
X51205471Y2394545D01*
X51184985Y2416209D01*
X51184982Y2416211D01*
X51182191Y2419163D01*
X51170333Y2427222D01*
X51143300Y2445593D01*
X51104408Y2472024D01*
X51017088Y2506950D01*
X50924305Y2522310D01*
X50914527Y2521798D01*
X50876453Y2529889D01*
X50847524Y2555934D01*
X50835788Y2595807D01*
X50835503Y2595792D01*
X50835440Y2596988D01*
X50835390Y2597159D01*
X50835393Y2597898D01*
X50835392Y2597909D01*
X50835400Y2600000D01*
X50834624Y2607149D01*
X50829465Y2654633D01*
X50825243Y2693496D01*
X50822070Y2702925D01*
X50796545Y2778771D01*
X50796543Y2778776D01*
X50795246Y2782629D01*
X50789330Y2792476D01*
X50748904Y2859755D01*
X50746809Y2863242D01*
X50701554Y2911098D01*
X50684985Y2928620D01*
X50684982Y2928622D01*
X50682191Y2931574D01*
X50678541Y2934055D01*
X50623368Y2971550D01*
X50604408Y2984435D01*
X50517088Y3019361D01*
X50424305Y3034721D01*
X50420238Y3034508D01*
X50420235Y3034508D01*
X50373248Y3032045D01*
X50330388Y3029799D01*
X50326461Y3028717D01*
X50326459Y3028717D01*
X50270168Y3013212D01*
X50239719Y3004825D01*
X50156527Y2960963D01*
X50138627Y2945836D01*
X50087805Y2902888D01*
X50087802Y2902885D01*
X50084696Y2900260D01*
X50029150Y2827611D01*
X49998311Y2803861D01*
X49959726Y2798713D01*
X49914773Y2821618D01*
X49872420Y2866406D01*
X49872417Y2866408D01*
X49869626Y2869360D01*
X49852818Y2880783D01*
X49822077Y2901674D01*
X49791843Y2922221D01*
X49704523Y2957147D01*
X49611740Y2972507D01*
X49607673Y2972294D01*
X49607670Y2972294D01*
X49560683Y2969831D01*
X49517823Y2967585D01*
X49513896Y2966503D01*
X49513894Y2966503D01*
X49431078Y2943692D01*
X49431077Y2943691D01*
X49427154Y2942611D01*
X49424679Y2941306D01*
X49386537Y2936893D01*
X49350812Y2952353D01*
X49327623Y2985346D01*
X49327406Y2985246D01*
X49326856Y2986437D01*
X49326252Y2987296D01*
X49325697Y2988944D01*
X49324399Y2992802D01*
X49321351Y2997876D01*
X49286511Y3055859D01*
X49275962Y3073415D01*
X49240711Y3110692D01*
X49214138Y3138793D01*
X49214135Y3138795D01*
X49211344Y3141747D01*
X49206873Y3144786D01*
X49160333Y3176414D01*
X49133561Y3194608D01*
X49077860Y3216887D01*
X49046690Y3240205D01*
X49031356Y3275984D01*
X49035965Y3314636D01*
X49051510Y3338758D01*
X49054937Y3342332D01*
X49101419Y3390803D01*
X49114824Y3412763D01*
X49120525Y3422104D01*
X49150418Y3471076D01*
X49181036Y3559998D01*
X49191845Y3653420D01*
X49191856Y3656460D01*
X49191455Y3660157D01*
X49185215Y3717593D01*
X49181699Y3749956D01*
X49180399Y3753819D01*
X49153001Y3835231D01*
X49152999Y3835236D01*
X49151702Y3839089D01*
X49149438Y3842858D01*
X49105360Y3916215D01*
X49103265Y3919702D01*
X49058964Y3966549D01*
X49041441Y3985080D01*
X49041438Y3985082D01*
X49038647Y3988034D01*
X49029682Y3994127D01*
X48964226Y4038610D01*
X48960864Y4040895D01*
X48873544Y4075821D01*
X48780761Y4091181D01*
X48776694Y4090968D01*
X48776691Y4090968D01*
X48729704Y4088505D01*
X48686844Y4086259D01*
X48682917Y4085177D01*
X48682915Y4085177D01*
X48664157Y4080010D01*
X48628498Y4070188D01*
X48589574Y4069916D01*
X48555727Y4089144D01*
X48536029Y4122718D01*
X48536482Y4164234D01*
X48543797Y4188695D01*
X48544822Y4192122D01*
X48555392Y4297092D01*
X48555400Y4300000D01*
X48555225Y4301838D01*
X48545720Y4401465D01*
X48545719Y4401470D01*
X48545380Y4405024D01*
X48515681Y4506258D01*
X48467375Y4600049D01*
X48402205Y4683015D01*
X48322522Y4752160D01*
X48231202Y4804990D01*
X48227829Y4806161D01*
X48227823Y4806164D01*
X48154647Y4831574D01*
X48131540Y4839598D01*
X48128004Y4840111D01*
X48128003Y4840111D01*
X48059628Y4850025D01*
X48027131Y4854737D01*
X48023564Y4854572D01*
X48023562Y4854572D01*
X47925319Y4850025D01*
X47925314Y4850024D01*
X47921743Y4849859D01*
X47819179Y4825141D01*
X47815919Y4823659D01*
X47815917Y4823658D01*
X47770237Y4802888D01*
X47723140Y4781474D01*
X47720222Y4779404D01*
X47720220Y4779403D01*
X47648860Y4728784D01*
X47637090Y4720435D01*
X47634619Y4717854D01*
X47634617Y4717852D01*
X47620227Y4702820D01*
X47564135Y4644225D01*
X47562196Y4641222D01*
X47562192Y4641217D01*
X47528763Y4589444D01*
X47506907Y4555595D01*
X47467472Y4457742D01*
X47447251Y4354198D01*
X47447138Y4311139D01*
X47447041Y4273804D01*
X47446975Y4248697D01*
X47457455Y4193496D01*
X47463822Y4159962D01*
X47466653Y4145048D01*
X47467974Y4141719D01*
X47467975Y4141717D01*
X47469125Y4138820D01*
X47505576Y4046990D01*
X47507501Y4043975D01*
X47507501Y4043974D01*
X47560414Y3961077D01*
X47560417Y3961073D01*
X47562339Y3958062D01*
X47564798Y3955466D01*
X47564799Y3955465D01*
X47615700Y3901733D01*
X47634894Y3881471D01*
X47637804Y3879384D01*
X47637809Y3879380D01*
X47688729Y3842858D01*
X47713411Y3812757D01*
X47720101Y3781751D01*
X47720100Y3421961D01*
X47698074Y3368787D01*
X47253174Y2923887D01*
X47219463Y2904423D01*
X47180537Y2904423D01*
X47146826Y2923887D01*
X47007172Y3063541D01*
X47000172Y3067583D01*
X46993170Y3063540D01*
X46767038Y2837408D01*
X46733327Y2817944D01*
X46694401Y2817944D01*
X46660690Y2837408D01*
X46220233Y3277865D01*
X46217498Y3279444D01*
X46189974Y3306971D01*
X46179901Y3344568D01*
X46179901Y3461981D01*
X46396302Y3461981D01*
X46401394Y3450256D01*
X46706864Y3144786D01*
X46713863Y3140745D01*
X46720866Y3144788D01*
X46816395Y3240318D01*
X46820436Y3247318D01*
X46816394Y3254319D01*
X46648609Y3422104D01*
X46644355Y3425766D01*
X46599144Y3459159D01*
X46589319Y3464361D01*
X46538934Y3482055D01*
X46528013Y3484139D01*
X46474656Y3486235D01*
X46463601Y3485015D01*
X46411988Y3471329D01*
X46401783Y3466912D01*
X46399686Y3465605D01*
X46396302Y3461981D01*
X46179901Y3461981D01*
X46179901Y3673391D01*
X46189976Y3710991D01*
X46217501Y3738516D01*
X46258970Y3748491D01*
X46320652Y3745313D01*
X46320654Y3745313D01*
X46324226Y3745129D01*
X46428713Y3759720D01*
X46528555Y3793807D01*
X46575512Y3820645D01*
X46617041Y3844380D01*
X46617045Y3844383D01*
X46620151Y3846158D01*
X46622868Y3848491D01*
X46622871Y3848493D01*
X46679026Y3896710D01*
X46700194Y3914885D01*
X46765798Y3997507D01*
X46814594Y4091045D01*
X46844822Y4192122D01*
X46855392Y4297092D01*
X46855400Y4300000D01*
X46855225Y4301838D01*
X46845720Y4401465D01*
X46845719Y4401470D01*
X46845380Y4405024D01*
X46815681Y4506258D01*
X46767375Y4600049D01*
X46702205Y4683015D01*
X46622522Y4752160D01*
X46531202Y4804990D01*
X46527829Y4806161D01*
X46527823Y4806164D01*
X46454647Y4831574D01*
X46431540Y4839598D01*
X46428004Y4840111D01*
X46428003Y4840111D01*
X46359628Y4850025D01*
X46327131Y4854737D01*
X46323564Y4854572D01*
X46323562Y4854572D01*
X46225319Y4850025D01*
X46225314Y4850024D01*
X46221743Y4849859D01*
X46119179Y4825141D01*
X46115919Y4823659D01*
X46115917Y4823658D01*
X46070237Y4802888D01*
X46023140Y4781474D01*
X46020222Y4779404D01*
X46020220Y4779403D01*
X45948860Y4728784D01*
X45937090Y4720435D01*
X45934619Y4717854D01*
X45934617Y4717852D01*
X45920227Y4702820D01*
X45864135Y4644225D01*
X45862196Y4641222D01*
X45862192Y4641217D01*
X45828763Y4589444D01*
X45806907Y4555595D01*
X45767472Y4457742D01*
X45747251Y4354198D01*
X45747138Y4311139D01*
X45747041Y4273804D01*
X45746975Y4248697D01*
X45749700Y4234343D01*
X45756451Y4198782D01*
X45753566Y4159962D01*
X45735745Y4131582D01*
X45705453Y4101290D01*
X45703180Y4099110D01*
X45682409Y4080010D01*
X45673177Y4065120D01*
X45671037Y4061668D01*
X45667024Y4055830D01*
X45657074Y4042721D01*
X45657072Y4042717D01*
X45653971Y4038632D01*
X45652085Y4033867D01*
X45652084Y4033866D01*
X45651523Y4032448D01*
X45645519Y4020511D01*
X45642017Y4014863D01*
X45640588Y4009945D01*
X45640584Y4009936D01*
X45635991Y3994127D01*
X45633704Y3987444D01*
X45625753Y3967362D01*
X45625217Y3962261D01*
X45625059Y3960759D01*
X45622485Y3947636D01*
X45620631Y3941255D01*
X45620102Y3934050D01*
X45620102Y3917535D01*
X45619690Y3909675D01*
X45617741Y3891131D01*
X45618596Y3886077D01*
X45619049Y3883399D01*
X45620102Y3870857D01*
X45620101Y3072516D01*
X45620035Y3069368D01*
X45618854Y3041191D01*
X45620024Y3036204D01*
X45620024Y3036203D01*
X45623783Y3020179D01*
X45625074Y3013213D01*
X45628004Y2991824D01*
X45630039Y2987120D01*
X45630041Y2987115D01*
X45630645Y2985720D01*
X45634842Y2973031D01*
X45636359Y2966563D01*
X45640884Y2958332D01*
X45646756Y2947650D01*
X45649869Y2941296D01*
X45658446Y2921476D01*
X45662626Y2916315D01*
X45670083Y2905218D01*
X45673285Y2899392D01*
X45675861Y2896409D01*
X45675864Y2896404D01*
X45676392Y2895793D01*
X45678006Y2893924D01*
X45689672Y2882258D01*
X45694938Y2876410D01*
X45704051Y2865157D01*
X45719885Y2829597D01*
X45715817Y2790884D01*
X45696926Y2767985D01*
X45699337Y2765732D01*
X45689195Y2754874D01*
X45694287Y2743149D01*
X46130359Y2307077D01*
X46149823Y2273366D01*
X46149823Y2234440D01*
X46130359Y2200729D01*
X46059931Y2130301D01*
X46026220Y2110837D01*
X45987294Y2110837D01*
X45953583Y2130301D01*
X45513124Y2570760D01*
X45507827Y2573818D01*
X45493383Y2563974D01*
X45481166Y2550828D01*
X45443961Y2539383D01*
X45406017Y2548075D01*
X45388033Y2561359D01*
X44322168Y3627222D01*
X44304072Y3656405D01*
X44302809Y3660157D01*
X44300361Y3699006D01*
X44317667Y3733874D01*
X44350088Y3755418D01*
X44392082Y3757161D01*
X44415385Y3751415D01*
X44415395Y3751414D01*
X44418865Y3750558D01*
X44485975Y3747100D01*
X44520652Y3745313D01*
X44520654Y3745313D01*
X44524226Y3745129D01*
X44628713Y3759720D01*
X44728555Y3793807D01*
X44775512Y3820645D01*
X44817041Y3844380D01*
X44817045Y3844383D01*
X44820151Y3846158D01*
X44822868Y3848491D01*
X44822871Y3848493D01*
X44879026Y3896710D01*
X44900194Y3914885D01*
X44965798Y3997507D01*
X45014594Y4091045D01*
X45044822Y4192122D01*
X45055392Y4297092D01*
X45055400Y4300000D01*
X45055225Y4301838D01*
X45045720Y4401465D01*
X45045719Y4401470D01*
X45045380Y4405024D01*
X45015681Y4506258D01*
X44967375Y4600049D01*
X44902205Y4683015D01*
X44822522Y4752160D01*
X44731202Y4804990D01*
X44727829Y4806161D01*
X44727823Y4806164D01*
X44654647Y4831574D01*
X44631540Y4839598D01*
X44628004Y4840111D01*
X44628003Y4840111D01*
X44559628Y4850025D01*
X44527131Y4854737D01*
X44523564Y4854572D01*
X44523562Y4854572D01*
X44425319Y4850025D01*
X44425314Y4850024D01*
X44421743Y4849859D01*
X44319179Y4825141D01*
X44315919Y4823659D01*
X44315917Y4823658D01*
X44270237Y4802888D01*
X44223140Y4781474D01*
X44220222Y4779404D01*
X44220220Y4779403D01*
X44148860Y4728784D01*
X44137090Y4720435D01*
X44134619Y4717854D01*
X44134617Y4717852D01*
X44120227Y4702820D01*
X44064135Y4644225D01*
X44062196Y4641222D01*
X44062192Y4641217D01*
X44028763Y4589444D01*
X44006907Y4555595D01*
X43967472Y4457742D01*
X43947251Y4354198D01*
X43947138Y4311139D01*
X43947041Y4273804D01*
X43946975Y4248697D01*
X43957455Y4193496D01*
X43963822Y4159962D01*
X43966653Y4145048D01*
X43967974Y4141719D01*
X43967975Y4141717D01*
X43999750Y4061668D01*
X44005576Y4046990D01*
X44007499Y4043977D01*
X44008320Y4042373D01*
X44016479Y4004311D01*
X44004513Y3967269D01*
X43975630Y3941173D01*
X43932423Y3934448D01*
X43932388Y3933828D01*
X43929483Y3933990D01*
X43929089Y3933929D01*
X43924305Y3934721D01*
X43920238Y3934508D01*
X43920235Y3934508D01*
X43873248Y3932045D01*
X43830388Y3929799D01*
X43826461Y3928717D01*
X43826459Y3928717D01*
X43767779Y3912554D01*
X43739719Y3904825D01*
X43656527Y3860963D01*
X43653414Y3858332D01*
X43587805Y3802888D01*
X43587802Y3802885D01*
X43584696Y3800260D01*
X43527574Y3725549D01*
X43525123Y3720292D01*
X43489548Y3644002D01*
X43489546Y3643996D01*
X43487829Y3640314D01*
X43467313Y3548534D01*
X43467299Y3544466D01*
X43467006Y3460399D01*
X43466985Y3454488D01*
X43475754Y3413930D01*
X43473852Y3375052D01*
X43452766Y3342332D01*
X43418144Y3324538D01*
X43389972Y3323850D01*
X43324305Y3334721D01*
X43320238Y3334508D01*
X43320235Y3334508D01*
X43273248Y3332045D01*
X43230388Y3329799D01*
X43226461Y3328717D01*
X43226459Y3328717D01*
X43147510Y3306971D01*
X43139719Y3304825D01*
X43056527Y3260963D01*
X43043554Y3250000D01*
X42987805Y3202888D01*
X42987802Y3202885D01*
X42984696Y3200260D01*
X42927574Y3125549D01*
X42925853Y3121858D01*
X42889548Y3044002D01*
X42889546Y3043996D01*
X42887829Y3040314D01*
X42886942Y3036346D01*
X42886941Y3036343D01*
X42878227Y2997359D01*
X42867313Y2948534D01*
X42867224Y2922907D01*
X42867008Y2860963D01*
X42866985Y2854488D01*
X42867845Y2850512D01*
X42867845Y2850509D01*
X42875187Y2816552D01*
X42886859Y2762566D01*
X42926009Y2677057D01*
X42928459Y2673806D01*
X42928460Y2673804D01*
X42982607Y2601948D01*
X42981708Y2601270D01*
X42997257Y2572272D01*
X42996035Y2533365D01*
X42975522Y2500282D01*
X42924044Y2479900D01*
X39330227Y2479900D01*
X39302300Y2485278D01*
X39300200Y2486118D01*
X39217088Y2519361D01*
X39124305Y2534721D01*
X39120238Y2534508D01*
X39120235Y2534508D01*
X39073248Y2532045D01*
X39030388Y2529799D01*
X39026461Y2528717D01*
X39026459Y2528717D01*
X38963379Y2511342D01*
X38939719Y2504825D01*
X38856527Y2460963D01*
X38853414Y2458332D01*
X38787805Y2402888D01*
X38787802Y2402885D01*
X38784696Y2400260D01*
X38782225Y2397028D01*
X38782222Y2397025D01*
X38757747Y2365014D01*
X38726906Y2341264D01*
X38688321Y2336117D01*
X38652332Y2350951D01*
X38625246Y2393472D01*
X38625243Y2393496D01*
X38613968Y2426999D01*
X38596545Y2478771D01*
X38596543Y2478776D01*
X38595246Y2482629D01*
X38592955Y2486443D01*
X38548904Y2559755D01*
X38546809Y2563242D01*
X38509318Y2602888D01*
X38484985Y2628620D01*
X38484982Y2628622D01*
X38482191Y2631574D01*
X38469331Y2640314D01*
X38436150Y2662863D01*
X38404408Y2684435D01*
X38317088Y2719361D01*
X38224305Y2734721D01*
X38220238Y2734508D01*
X38220235Y2734508D01*
X38173248Y2732045D01*
X38130388Y2729799D01*
X38126461Y2728717D01*
X38126459Y2728717D01*
X38043647Y2705907D01*
X38039719Y2704825D01*
X37956527Y2660963D01*
X37941907Y2648608D01*
X37887805Y2602888D01*
X37887802Y2602885D01*
X37884696Y2600260D01*
X37882225Y2597028D01*
X37882224Y2597027D01*
X37880588Y2594887D01*
X37827574Y2525549D01*
X37825753Y2521644D01*
X37789548Y2444002D01*
X37789546Y2443996D01*
X37787829Y2440314D01*
X37786942Y2436346D01*
X37786941Y2436343D01*
X37778747Y2399687D01*
X37767313Y2348534D01*
X37767276Y2337819D01*
X37767006Y2260389D01*
X37766985Y2254488D01*
X37767845Y2250512D01*
X37767845Y2250509D01*
X37772725Y2227937D01*
X37786859Y2162566D01*
X37826009Y2077057D01*
X37828459Y2073806D01*
X37828460Y2073804D01*
X37857255Y2035591D01*
X37882607Y2001948D01*
X37900263Y1986816D01*
X37925830Y1939922D01*
X37928003Y1924058D01*
X37930039Y1919353D01*
X37930040Y1919350D01*
X37930644Y1917954D01*
X37934841Y1905265D01*
X37936358Y1898797D01*
X37944253Y1884435D01*
X37946755Y1879884D01*
X37949868Y1873530D01*
X37958445Y1853710D01*
X37962625Y1848549D01*
X37970082Y1837452D01*
X37973284Y1831626D01*
X37975860Y1828643D01*
X37975863Y1828638D01*
X37976755Y1827606D01*
X37978005Y1826158D01*
X37989671Y1814492D01*
X37994939Y1808643D01*
X38006684Y1794139D01*
X38013083Y1789591D01*
X38022692Y1781471D01*
X38498733Y1305428D01*
X38500912Y1303155D01*
X38516520Y1286181D01*
X38516522Y1286179D01*
X38519991Y1282407D01*
X38524344Y1279708D01*
X38524349Y1279704D01*
X38538347Y1271026D01*
X38544173Y1267022D01*
X38561369Y1253970D01*
X38566136Y1252083D01*
X38566137Y1252082D01*
X38567547Y1251524D01*
X38579488Y1245518D01*
X38585138Y1242015D01*
X38590059Y1240585D01*
X38594746Y1238498D01*
X38594203Y1237279D01*
X38620831Y1221150D01*
X38639582Y1187037D01*
X38630874Y1130149D01*
X38630047Y1128784D01*
X38627574Y1125549D01*
X38625854Y1121860D01*
X38589548Y1044002D01*
X38589546Y1043996D01*
X38587829Y1040314D01*
X38586942Y1036346D01*
X38586941Y1036343D01*
X38581725Y1013009D01*
X38567313Y948534D01*
X38567299Y944466D01*
X38567078Y881014D01*
X38566985Y854488D01*
X38567845Y850512D01*
X38567845Y850509D01*
X38574907Y817848D01*
X38586859Y762566D01*
X38608931Y714359D01*
X38615422Y675980D01*
X38601854Y639495D01*
X38560525Y610556D01*
X38543650Y605908D01*
X38543648Y605907D01*
X38539719Y604825D01*
X38456527Y560963D01*
X38453414Y558332D01*
X38387805Y502888D01*
X38387802Y502885D01*
X38384696Y500260D01*
X38382225Y497028D01*
X38382224Y497027D01*
X38377627Y491014D01*
X38327574Y425549D01*
X38325853Y421858D01*
X38289548Y344002D01*
X38289546Y343996D01*
X38287829Y340314D01*
X38286942Y336346D01*
X38286941Y336343D01*
X38278385Y298064D01*
X38267313Y248534D01*
X38267244Y228790D01*
X38267040Y170155D01*
X38266985Y154488D01*
X38267845Y150512D01*
X38267845Y150509D01*
X38275844Y113511D01*
X38286859Y62566D01*
X38326009Y-22943D01*
X38328459Y-26194D01*
X38328460Y-26196D01*
X38374536Y-87341D01*
X38382607Y-98052D01*
X38385695Y-100698D01*
X38385698Y-100702D01*
X38450916Y-156600D01*
X38450919Y-156602D01*
X38454013Y-159254D01*
X38536896Y-203696D01*
X38565789Y-211872D01*
X38623472Y-228195D01*
X38623476Y-228196D01*
X38627389Y-229303D01*
X38681307Y-232506D01*
X38717207Y-234639D01*
X38717210Y-234639D01*
X38721269Y-234880D01*
X38814157Y-220168D01*
X38817946Y-218683D01*
X38817950Y-218682D01*
X38867125Y-199410D01*
X38901719Y-185853D01*
X38905106Y-183585D01*
X38905109Y-183584D01*
X38975057Y-136758D01*
X38979870Y-133536D01*
X39009104Y-103051D01*
X39042400Y-82886D01*
X39063380Y-79900D01*
X39495251Y-79900D01*
X39498399Y-79966D01*
X39526575Y-81147D01*
X39531560Y-79978D01*
X39531567Y-79977D01*
X39547596Y-76217D01*
X39554561Y-74926D01*
X39563953Y-73639D01*
X39575943Y-71997D01*
X39580653Y-69959D01*
X39582050Y-69355D01*
X39594735Y-65160D01*
X39596213Y-64813D01*
X39596216Y-64812D01*
X39601203Y-63642D01*
X39620128Y-53239D01*
X39626451Y-50141D01*
X39646291Y-41555D01*
X39651457Y-37372D01*
X39662553Y-29916D01*
X39663668Y-29303D01*
X39668374Y-26716D01*
X39673842Y-21995D01*
X39685513Y-10324D01*
X39691362Y-5057D01*
X39697729Y99D01*
X39705861Y6684D01*
X39710409Y13083D01*
X39718529Y22692D01*
X40093914Y398075D01*
X40147088Y420100D01*
X42024165Y420100D01*
X42061765Y410025D01*
X42089290Y382500D01*
X42099365Y344900D01*
X42083904Y299225D01*
X42030051Y228790D01*
X42030047Y228784D01*
X42027574Y225549D01*
X42025853Y221858D01*
X41989548Y144002D01*
X41989546Y143996D01*
X41987829Y140314D01*
X41986942Y136346D01*
X41986941Y136343D01*
X41978476Y98473D01*
X41967313Y48534D01*
X41967248Y29799D01*
X41967008Y-39037D01*
X41966985Y-45512D01*
X41967845Y-49488D01*
X41967845Y-49491D01*
X41977866Y-95838D01*
X41986859Y-137434D01*
X42026009Y-222943D01*
X42028459Y-226194D01*
X42028460Y-226196D01*
X42075528Y-288658D01*
X42082607Y-298052D01*
X42085695Y-300698D01*
X42085698Y-300702D01*
X42150916Y-356600D01*
X42150919Y-356602D01*
X42154013Y-359254D01*
X42236896Y-403696D01*
X42262948Y-411068D01*
X42323472Y-428195D01*
X42323476Y-428196D01*
X42327389Y-429303D01*
X42374665Y-432111D01*
X42411651Y-434309D01*
X42460365Y-456203D01*
X42684846Y-680684D01*
X42687026Y-682957D01*
X42702656Y-699955D01*
X42702659Y-699957D01*
X42706127Y-703729D01*
X42710480Y-706428D01*
X42710485Y-706432D01*
X42724478Y-715107D01*
X42730318Y-719120D01*
X42747504Y-732166D01*
X42753694Y-734617D01*
X42765619Y-740615D01*
X42771274Y-744121D01*
X42792019Y-750148D01*
X42798699Y-752435D01*
X42818774Y-760384D01*
X42823875Y-760920D01*
X42823878Y-760921D01*
X42825386Y-761080D01*
X42838496Y-763652D01*
X42840388Y-764201D01*
X42844882Y-765507D01*
X42849536Y-765849D01*
X42850722Y-765936D01*
X42850728Y-765936D01*
X42852087Y-766036D01*
X42868611Y-766036D01*
X42876471Y-766448D01*
X42895006Y-768396D01*
X42902735Y-767089D01*
X42915274Y-766036D01*
X43671290Y-766036D01*
X43708890Y-776111D01*
X43735099Y-801443D01*
X43737384Y-805107D01*
X43748731Y-842342D01*
X43739941Y-880263D01*
X43713368Y-908709D01*
X43673575Y-920100D01*
X39283855Y-920100D01*
X39246255Y-910025D01*
X39212583Y-868886D01*
X39196545Y-821229D01*
X39196543Y-821224D01*
X39195246Y-817371D01*
X39191981Y-811936D01*
X39154850Y-750141D01*
X39146809Y-736758D01*
X39109318Y-697112D01*
X39084985Y-671380D01*
X39084982Y-671378D01*
X39082191Y-668426D01*
X39004408Y-615565D01*
X38917088Y-580639D01*
X38824305Y-565279D01*
X38820238Y-565492D01*
X38820235Y-565492D01*
X38773248Y-567955D01*
X38730388Y-570201D01*
X38726461Y-571283D01*
X38726459Y-571283D01*
X38646417Y-593330D01*
X38639719Y-595175D01*
X38556527Y-639037D01*
X38551213Y-643528D01*
X38487805Y-697112D01*
X38487802Y-697115D01*
X38484696Y-699740D01*
X38427574Y-774451D01*
X38425853Y-778142D01*
X38389548Y-855998D01*
X38389546Y-856004D01*
X38387829Y-859686D01*
X38386942Y-863654D01*
X38386941Y-863657D01*
X38383294Y-879974D01*
X38367313Y-951466D01*
X38367299Y-955534D01*
X38367016Y-1036758D01*
X38366985Y-1045512D01*
X38386859Y-1137434D01*
X38388555Y-1141139D01*
X38388556Y-1141141D01*
X38424664Y-1220006D01*
X38431156Y-1258388D01*
X38417588Y-1294873D01*
X38387595Y-1319685D01*
X38356290Y-1326511D01*
X37369506Y-1326511D01*
X37331906Y-1316436D01*
X37314868Y-1302980D01*
X37284990Y-1271385D01*
X37284984Y-1271380D01*
X37282191Y-1268426D01*
X37276625Y-1264643D01*
X37207770Y-1217850D01*
X37204408Y-1215565D01*
X37117088Y-1180639D01*
X37024305Y-1165279D01*
X37020238Y-1165492D01*
X37020235Y-1165492D01*
X36973248Y-1167955D01*
X36930388Y-1170201D01*
X36926461Y-1171283D01*
X36926459Y-1171283D01*
X36867387Y-1187554D01*
X36839719Y-1195175D01*
X36756527Y-1239037D01*
X36741820Y-1251466D01*
X36687805Y-1297112D01*
X36687802Y-1297115D01*
X36684696Y-1299740D01*
X36682225Y-1302972D01*
X36682224Y-1302973D01*
X36679300Y-1306797D01*
X36627574Y-1374451D01*
X36625853Y-1378142D01*
X36589548Y-1455998D01*
X36589546Y-1456004D01*
X36587829Y-1459686D01*
X36586942Y-1463654D01*
X36586941Y-1463657D01*
X36578456Y-1501617D01*
X36567313Y-1551466D01*
X36567191Y-1586558D01*
X36567009Y-1638755D01*
X36566985Y-1645512D01*
X36567845Y-1649488D01*
X36567845Y-1649491D01*
X36577790Y-1695486D01*
X36586859Y-1737434D01*
X36602655Y-1771934D01*
X36605705Y-1778596D01*
X36612196Y-1816977D01*
X36598628Y-1853462D01*
X36568634Y-1878275D01*
X36537330Y-1885100D01*
X36230001Y-1885100D01*
X36153675Y-1895148D01*
X36149123Y-1897033D01*
X36149121Y-1897034D01*
X36117662Y-1910065D01*
X36082550Y-1924609D01*
X36078643Y-1927607D01*
X36037400Y-1959254D01*
X36021474Y-1971474D01*
X36018476Y-1975381D01*
X35991391Y-2010679D01*
X35960509Y-2034376D01*
X35931731Y-2040100D01*
X35596084Y-2040100D01*
X35558484Y-2030025D01*
X35537441Y-2008992D01*
X35536061Y-2010051D01*
X35492988Y-1953918D01*
X35492987Y-1953917D01*
X35489990Y-1950011D01*
X35429950Y-1903940D01*
X35387390Y-1886311D01*
X35364586Y-1876865D01*
X35364584Y-1876864D01*
X35360032Y-1874979D01*
X35285000Y-1865101D01*
X35099963Y-1865100D01*
X34915001Y-1865100D01*
X34839969Y-1874978D01*
X34835417Y-1876863D01*
X34835415Y-1876864D01*
X34810296Y-1887269D01*
X34770051Y-1903939D01*
X34710011Y-1950010D01*
X34663940Y-2010050D01*
X34634979Y-2079968D01*
X34634337Y-2084846D01*
X34634336Y-2084849D01*
X34625420Y-2152567D01*
X34625100Y-2155000D01*
X34625100Y-2424999D01*
X34634978Y-2500031D01*
X34636863Y-2504583D01*
X34636864Y-2504585D01*
X34649795Y-2535803D01*
X34663939Y-2569949D01*
X34710010Y-2629989D01*
X34770050Y-2676060D01*
X34799047Y-2688071D01*
X34835414Y-2703135D01*
X34835416Y-2703136D01*
X34839968Y-2705021D01*
X34915000Y-2714899D01*
X35100037Y-2714900D01*
X35284999Y-2714900D01*
X35360031Y-2705022D01*
X35364583Y-2703137D01*
X35364585Y-2703136D01*
X35408950Y-2684759D01*
X35429949Y-2676061D01*
X35489989Y-2629990D01*
X35492988Y-2626082D01*
X35496475Y-2622595D01*
X35497690Y-2623810D01*
X35521362Y-2605634D01*
X35550162Y-2599900D01*
X35931731Y-2599900D01*
X35969331Y-2609975D01*
X35991391Y-2629321D01*
X36002319Y-2643563D01*
X36021474Y-2668526D01*
X36025381Y-2671524D01*
X36031294Y-2676061D01*
X36082550Y-2715391D01*
X36100799Y-2722950D01*
X36119084Y-2730524D01*
X36149966Y-2754221D01*
X36164863Y-2790185D01*
X36159782Y-2828778D01*
X36119084Y-2869476D01*
X36087099Y-2882725D01*
X36078643Y-2887607D01*
X36025381Y-2928476D01*
X36018476Y-2935381D01*
X35977607Y-2988643D01*
X35972725Y-2997099D01*
X35947034Y-3059120D01*
X35944505Y-3068561D01*
X35935421Y-3137565D01*
X35935100Y-3142458D01*
X35935100Y-3143098D01*
X35937192Y-3150908D01*
X35945002Y-3153000D01*
X36272997Y-3153001D01*
X36273005Y-3153000D01*
X36854998Y-3153001D01*
X36862808Y-3150909D01*
X36864900Y-3143099D01*
X36864900Y-3142459D01*
X36864579Y-3137566D01*
X36855495Y-3068562D01*
X36852966Y-3059121D01*
X36827275Y-2997099D01*
X36822393Y-2988643D01*
X36781524Y-2935381D01*
X36774619Y-2928476D01*
X36721357Y-2887607D01*
X36712901Y-2882725D01*
X36680916Y-2869476D01*
X36650034Y-2845779D01*
X36635137Y-2809815D01*
X36640218Y-2771222D01*
X36680916Y-2730524D01*
X36699201Y-2722950D01*
X36717450Y-2715391D01*
X36768706Y-2676061D01*
X36774619Y-2671524D01*
X36778526Y-2668526D01*
X36797681Y-2643563D01*
X36808609Y-2629321D01*
X36839491Y-2605624D01*
X36868269Y-2599900D01*
X37149837Y-2599900D01*
X37187437Y-2609975D01*
X37202729Y-2623390D01*
X37203524Y-2622595D01*
X37207011Y-2626082D01*
X37210010Y-2629990D01*
X37270050Y-2676061D01*
X37335415Y-2703136D01*
X37337390Y-2703954D01*
X37368272Y-2727651D01*
X37383169Y-2763614D01*
X37378088Y-2802208D01*
X37354391Y-2833090D01*
X37333373Y-2843186D01*
X37333732Y-2844135D01*
X37257155Y-2873070D01*
X37222228Y-2897075D01*
X37195325Y-2915565D01*
X37189691Y-2919437D01*
X37186675Y-2922822D01*
X37186674Y-2922823D01*
X37179384Y-2931005D01*
X37135234Y-2980558D01*
X37096929Y-3052904D01*
X37095826Y-3057294D01*
X37095826Y-3057295D01*
X37094256Y-3063546D01*
X37076987Y-3132299D01*
X37075969Y-3148476D01*
X37074420Y-3173099D01*
X37074300Y-3175000D01*
X37074300Y-3444999D01*
X37074573Y-3447252D01*
X37074573Y-3447258D01*
X37076250Y-3461111D01*
X37082383Y-3511785D01*
X37082477Y-3512565D01*
X37076993Y-3551103D01*
X37052974Y-3581736D01*
X37007822Y-3596800D01*
X36925267Y-3596800D01*
X36887667Y-3586725D01*
X36860142Y-3559200D01*
X36852629Y-3502138D01*
X36855495Y-3491441D01*
X36864579Y-3422435D01*
X36864900Y-3417542D01*
X36864900Y-3416902D01*
X36862808Y-3409092D01*
X36854998Y-3407000D01*
X36527003Y-3406999D01*
X36526995Y-3407000D01*
X35945002Y-3406999D01*
X35937192Y-3409091D01*
X35935100Y-3416901D01*
X35935100Y-3417541D01*
X35935421Y-3422434D01*
X35944505Y-3491443D01*
X35947371Y-3502139D01*
X35947370Y-3541065D01*
X35927906Y-3574776D01*
X35874733Y-3596800D01*
X35640664Y-3596800D01*
X35603064Y-3586725D01*
X35575539Y-3559200D01*
X35566107Y-3511784D01*
X35574580Y-3447433D01*
X35574671Y-3446045D01*
X35572808Y-3439092D01*
X35564998Y-3437000D01*
X35227003Y-3436999D01*
X35226995Y-3437000D01*
X34635002Y-3436999D01*
X34627192Y-3439091D01*
X34625330Y-3446044D01*
X34625421Y-3447434D01*
X34633892Y-3511785D01*
X34628811Y-3550378D01*
X34605113Y-3581261D01*
X34559335Y-3596800D01*
X32459544Y-3596800D01*
X32421944Y-3586725D01*
X32394419Y-3559200D01*
X32384344Y-3521600D01*
X32391501Y-3489582D01*
X32391843Y-3488856D01*
X32393962Y-3485384D01*
X32406058Y-3450256D01*
X32423254Y-3400313D01*
X32424580Y-3396462D01*
X32426018Y-3384038D01*
X32431205Y-3339199D01*
X32435389Y-3303040D01*
X32435400Y-3300000D01*
X32435132Y-3297528D01*
X32429338Y-3244201D01*
X32425243Y-3206504D01*
X32417084Y-3182260D01*
X32414290Y-3173955D01*
X34625329Y-3173955D01*
X34627192Y-3180908D01*
X34635002Y-3183000D01*
X34963099Y-3183001D01*
X34970908Y-3180909D01*
X34973000Y-3173099D01*
X35226999Y-3173099D01*
X35229091Y-3180908D01*
X35236901Y-3183000D01*
X35564999Y-3183001D01*
X35572808Y-3180909D01*
X35574670Y-3173956D01*
X35574579Y-3172566D01*
X35565665Y-3104856D01*
X35563136Y-3095415D01*
X35537945Y-3034600D01*
X35533063Y-3026144D01*
X35492988Y-2973918D01*
X35486083Y-2967013D01*
X35433857Y-2926938D01*
X35425401Y-2922056D01*
X35364586Y-2896865D01*
X35355145Y-2894336D01*
X35287435Y-2885422D01*
X35282542Y-2885101D01*
X35236902Y-2885101D01*
X35229092Y-2887193D01*
X35227000Y-2895003D01*
X35226999Y-3173099D01*
X34973000Y-3173099D01*
X34973001Y-2895001D01*
X34970909Y-2887192D01*
X34963099Y-2885100D01*
X34917459Y-2885100D01*
X34912566Y-2885421D01*
X34844856Y-2894335D01*
X34835415Y-2896864D01*
X34774600Y-2922055D01*
X34766144Y-2926937D01*
X34713918Y-2967012D01*
X34707013Y-2973917D01*
X34666938Y-3026143D01*
X34662056Y-3034599D01*
X34636863Y-3095420D01*
X34634336Y-3104849D01*
X34625420Y-3172567D01*
X34625329Y-3173955D01*
X32414290Y-3173955D01*
X32396545Y-3121229D01*
X32396543Y-3121224D01*
X32395246Y-3117371D01*
X32391677Y-3111430D01*
X32356510Y-3052904D01*
X32346809Y-3036758D01*
X32310452Y-2998311D01*
X32284985Y-2971380D01*
X32284982Y-2971378D01*
X32282191Y-2968426D01*
X32276965Y-2964874D01*
X32236150Y-2937137D01*
X32204408Y-2915565D01*
X32117088Y-2880639D01*
X32024305Y-2865279D01*
X32020238Y-2865492D01*
X32020235Y-2865492D01*
X31973248Y-2867955D01*
X31930388Y-2870201D01*
X31926461Y-2871283D01*
X31926459Y-2871283D01*
X31850890Y-2892098D01*
X31839719Y-2895175D01*
X31756527Y-2939037D01*
X31744157Y-2949491D01*
X31687805Y-2997112D01*
X31687802Y-2997115D01*
X31684696Y-2999740D01*
X31682225Y-3002972D01*
X31682224Y-3002973D01*
X31678840Y-3007399D01*
X31627574Y-3074451D01*
X31624272Y-3081533D01*
X31589548Y-3155998D01*
X31589546Y-3156004D01*
X31587829Y-3159686D01*
X31586942Y-3163654D01*
X31586941Y-3163657D01*
X31578463Y-3201586D01*
X31567313Y-3251466D01*
X31567226Y-3276393D01*
X31567012Y-3337897D01*
X31566985Y-3345512D01*
X31567845Y-3349488D01*
X31567845Y-3349491D01*
X31578646Y-3399448D01*
X31586859Y-3437434D01*
X31588555Y-3441139D01*
X31588556Y-3441141D01*
X31611061Y-3490295D01*
X31617553Y-3528677D01*
X31603985Y-3565162D01*
X31573992Y-3589974D01*
X31542687Y-3596800D01*
X24578400Y-3596800D01*
X24540800Y-3586725D01*
X24513275Y-3559200D01*
X24503200Y-3521600D01*
X24503200Y-3000402D01*
X24795100Y-3000402D01*
X24795100Y-3035390D01*
X24795336Y-3039600D01*
X24804382Y-3120251D01*
X24806235Y-3128411D01*
X24832239Y-3203081D01*
X24835848Y-3210615D01*
X24877750Y-3277672D01*
X24882942Y-3284222D01*
X24938658Y-3340328D01*
X24945170Y-3345564D01*
X25011931Y-3387933D01*
X25019445Y-3391598D01*
X25093939Y-3418123D01*
X25102066Y-3420029D01*
X25182604Y-3429633D01*
X25186937Y-3429898D01*
X25187498Y-3429900D01*
X25187498Y-3429899D01*
X25187773Y-3429900D01*
X25274598Y-3429900D01*
X25282408Y-3427808D01*
X25284500Y-3419998D01*
X25284500Y-3000402D01*
X25665500Y-3000402D01*
X25665500Y-3419998D01*
X25667592Y-3427808D01*
X25675402Y-3429900D01*
X25760390Y-3429900D01*
X25764600Y-3429664D01*
X25845251Y-3420618D01*
X25853411Y-3418765D01*
X25928081Y-3392761D01*
X25935615Y-3389152D01*
X26002672Y-3347250D01*
X26009222Y-3342058D01*
X26065328Y-3286342D01*
X26070564Y-3279830D01*
X26112933Y-3213069D01*
X26116598Y-3205555D01*
X26143123Y-3131061D01*
X26145029Y-3122934D01*
X26154633Y-3042396D01*
X26154898Y-3038063D01*
X26154900Y-3037502D01*
X26154899Y-3037502D01*
X26154900Y-3037227D01*
X26154900Y-3000402D01*
X26152808Y-2992592D01*
X26144998Y-2990500D01*
X25675402Y-2990500D01*
X25667592Y-2992592D01*
X25665500Y-3000402D01*
X25284500Y-3000402D01*
X25282408Y-2992592D01*
X25274598Y-2990500D01*
X24805002Y-2990500D01*
X24797192Y-2992592D01*
X24795100Y-3000402D01*
X24503200Y-3000402D01*
X24503200Y-2562498D01*
X24795100Y-2562498D01*
X24795101Y-2562498D01*
X24795100Y-2562773D01*
X24795100Y-2599598D01*
X24797192Y-2607408D01*
X24805002Y-2609500D01*
X25274598Y-2609500D01*
X25282408Y-2607408D01*
X25284500Y-2599598D01*
X25284500Y-2180000D01*
X25665500Y-2180000D01*
X25665500Y-2599598D01*
X25667592Y-2607408D01*
X25675402Y-2609500D01*
X26144998Y-2609500D01*
X26153574Y-2607202D01*
X26171712Y-2575788D01*
X26205424Y-2556326D01*
X26260421Y-2562690D01*
X26336896Y-2603696D01*
X26372580Y-2613794D01*
X26423472Y-2628195D01*
X26423476Y-2628196D01*
X26427389Y-2629303D01*
X26475634Y-2632169D01*
X26517207Y-2634639D01*
X26517210Y-2634639D01*
X26521269Y-2634880D01*
X26614157Y-2620168D01*
X26617946Y-2618683D01*
X26617950Y-2618682D01*
X26672989Y-2597112D01*
X26701719Y-2585853D01*
X26705106Y-2583585D01*
X26705109Y-2583584D01*
X26776484Y-2535803D01*
X26776486Y-2535802D01*
X26779870Y-2533536D01*
X26844963Y-2465657D01*
X26847791Y-2461025D01*
X26873886Y-2418274D01*
X26893962Y-2385384D01*
X26924580Y-2296462D01*
X26925881Y-2285222D01*
X26930040Y-2249274D01*
X26935389Y-2203040D01*
X26935400Y-2200000D01*
X26934903Y-2195420D01*
X26929499Y-2145677D01*
X26925243Y-2106504D01*
X26920020Y-2090983D01*
X26896545Y-2021229D01*
X26896543Y-2021224D01*
X26895246Y-2017371D01*
X26890927Y-2010182D01*
X26854772Y-1950011D01*
X26846809Y-1936758D01*
X26806853Y-1894505D01*
X26784985Y-1871380D01*
X26784982Y-1871378D01*
X26782191Y-1868426D01*
X26777770Y-1865421D01*
X26736150Y-1837137D01*
X26704408Y-1815565D01*
X26617088Y-1780639D01*
X26524305Y-1765279D01*
X26520238Y-1765492D01*
X26520235Y-1765492D01*
X26473248Y-1767955D01*
X26430388Y-1770201D01*
X26426461Y-1771283D01*
X26426459Y-1771283D01*
X26343647Y-1794093D01*
X26339719Y-1795175D01*
X26256527Y-1839037D01*
X26250039Y-1844520D01*
X26187805Y-1897112D01*
X26187802Y-1897115D01*
X26184696Y-1899740D01*
X26182225Y-1902972D01*
X26182224Y-1902973D01*
X26181485Y-1903940D01*
X26127574Y-1974451D01*
X26124125Y-1981847D01*
X26089548Y-2055998D01*
X26089546Y-2056004D01*
X26087829Y-2059686D01*
X26086942Y-2063654D01*
X26086941Y-2063657D01*
X26082271Y-2084548D01*
X26067313Y-2151466D01*
X26067299Y-2155533D01*
X26067292Y-2157546D01*
X26066919Y-2158919D01*
X26066844Y-2159588D01*
X26066740Y-2159576D01*
X26057087Y-2195111D01*
X26029467Y-2222541D01*
X25991832Y-2232486D01*
X25951798Y-2220780D01*
X25938067Y-2212066D01*
X25930555Y-2208402D01*
X25856061Y-2181877D01*
X25847934Y-2179971D01*
X25767396Y-2170367D01*
X25763063Y-2170102D01*
X25762502Y-2170100D01*
X25762502Y-2170101D01*
X25762227Y-2170100D01*
X25675402Y-2170100D01*
X25667592Y-2172192D01*
X25665500Y-2180000D01*
X25284500Y-2180000D01*
X25282408Y-2172192D01*
X25274598Y-2170100D01*
X25189610Y-2170100D01*
X25185400Y-2170336D01*
X25104749Y-2179382D01*
X25096589Y-2181235D01*
X25021919Y-2207239D01*
X25014385Y-2210848D01*
X24947328Y-2252750D01*
X24940778Y-2257942D01*
X24884672Y-2313658D01*
X24879436Y-2320170D01*
X24837067Y-2386931D01*
X24833402Y-2394445D01*
X24806877Y-2468939D01*
X24804971Y-2477066D01*
X24795367Y-2557604D01*
X24795102Y-2561937D01*
X24795100Y-2562498D01*
X24503200Y-2562498D01*
X24503200Y-1897657D01*
X24519679Y-1850680D01*
X24523814Y-1845512D01*
X24558672Y-1801939D01*
X24558673Y-1801938D01*
X24559228Y-1801245D01*
X24590769Y-1761818D01*
X24632787Y-1709295D01*
X24636078Y-1704805D01*
X24642439Y-1696129D01*
X24642447Y-1696118D01*
X24642910Y-1695486D01*
X24648369Y-1687341D01*
X24649529Y-1685611D01*
X24649542Y-1685591D01*
X24649962Y-1684964D01*
X24658892Y-1670342D01*
X24665879Y-1657736D01*
X24666873Y-1655522D01*
X24679241Y-1627955D01*
X24679897Y-1626493D01*
X24688257Y-1602662D01*
X24688764Y-1600702D01*
X24696435Y-1571035D01*
X24696437Y-1571028D01*
X24696829Y-1569510D01*
X24699249Y-1555299D01*
X24701411Y-1538301D01*
X24702478Y-1525677D01*
X24703116Y-1510556D01*
X24703167Y-1509351D01*
X24703167Y-1509340D01*
X24703200Y-1508563D01*
X24703200Y-445512D01*
X27466985Y-445512D01*
X27467845Y-449488D01*
X27467845Y-449491D01*
X27476975Y-491719D01*
X27486859Y-537434D01*
X27526009Y-622943D01*
X27528459Y-626194D01*
X27528460Y-626196D01*
X27566453Y-676615D01*
X27582607Y-698052D01*
X27585695Y-700698D01*
X27585698Y-700702D01*
X27650916Y-756600D01*
X27650919Y-756602D01*
X27654013Y-759254D01*
X27736896Y-803696D01*
X27772580Y-813794D01*
X27823472Y-828195D01*
X27823476Y-828196D01*
X27827389Y-829303D01*
X27881307Y-832506D01*
X27917207Y-834639D01*
X27917210Y-834639D01*
X27921269Y-834880D01*
X28014157Y-820168D01*
X28017946Y-818683D01*
X28017950Y-818682D01*
X28061103Y-801770D01*
X28101719Y-785853D01*
X28105106Y-783585D01*
X28105109Y-783584D01*
X28176484Y-735803D01*
X28176486Y-735802D01*
X28179870Y-733536D01*
X28244963Y-665657D01*
X28251885Y-654318D01*
X28270025Y-624599D01*
X28293962Y-585384D01*
X28324580Y-496462D01*
X28335389Y-403040D01*
X28335400Y-400000D01*
X28332859Y-376605D01*
X28328686Y-338200D01*
X28325243Y-306504D01*
X28312027Y-267233D01*
X28296545Y-221229D01*
X28296543Y-221224D01*
X28295246Y-217371D01*
X28288556Y-206236D01*
X28257752Y-154971D01*
X28246809Y-136758D01*
X28208112Y-95837D01*
X28184985Y-71380D01*
X28184982Y-71378D01*
X28182191Y-68426D01*
X28164790Y-56600D01*
X28134187Y-35803D01*
X28104408Y-15565D01*
X28017088Y19361D01*
X27924305Y34721D01*
X27920238Y34508D01*
X27920235Y34508D01*
X27873248Y32045D01*
X27830388Y29799D01*
X27826461Y28717D01*
X27826459Y28717D01*
X27761629Y10860D01*
X27739719Y4825D01*
X27656527Y-39037D01*
X27639711Y-53248D01*
X27587805Y-97112D01*
X27587802Y-97115D01*
X27584696Y-99740D01*
X27582225Y-102972D01*
X27582224Y-102973D01*
X27574408Y-113196D01*
X27527574Y-174451D01*
X27523864Y-182407D01*
X27489548Y-255998D01*
X27489546Y-256004D01*
X27487829Y-259686D01*
X27486942Y-263654D01*
X27486941Y-263657D01*
X27478373Y-301986D01*
X27467313Y-351466D01*
X27467269Y-364020D01*
X27467031Y-432450D01*
X27466985Y-445512D01*
X24703200Y-445512D01*
X24703200Y1042593D01*
X24702401Y1058860D01*
X24702267Y1061575D01*
X24702221Y1062511D01*
X24701748Y1067310D01*
X24700867Y1076263D01*
X24700865Y1076282D01*
X24700776Y1077182D01*
X24698336Y1093640D01*
X24697989Y1095977D01*
X24697987Y1095986D01*
X24697851Y1096906D01*
X24694602Y1113240D01*
X24683039Y1151357D01*
X24671813Y1178460D01*
X24653043Y1213581D01*
X24652018Y1215115D01*
X24652014Y1215122D01*
X24649023Y1219598D01*
X24647987Y1221149D01*
X24636619Y1235002D01*
X24623887Y1250517D01*
X24623881Y1250524D01*
X24622708Y1251953D01*
X24601953Y1272708D01*
X24600524Y1273881D01*
X24600517Y1273887D01*
X24581849Y1289206D01*
X24571149Y1297987D01*
X24568393Y1299828D01*
X24565122Y1302014D01*
X24565115Y1302018D01*
X24563581Y1303043D01*
X24528460Y1321813D01*
X24526760Y1322517D01*
X24526754Y1322520D01*
X24503288Y1332239D01*
X24501357Y1333039D01*
X24477375Y1340314D01*
X24469570Y1342682D01*
X24436513Y1363239D01*
X24416200Y1414644D01*
X24416200Y2163099D01*
X24895100Y2163099D01*
X24895100Y2039959D01*
X24895421Y2035066D01*
X24904420Y1966709D01*
X24906949Y1957268D01*
X24932390Y1895850D01*
X24937272Y1887394D01*
X24977744Y1834650D01*
X24984649Y1827745D01*
X25037390Y1787275D01*
X25045854Y1782389D01*
X25107267Y1756949D01*
X25116706Y1754420D01*
X25185065Y1745421D01*
X25188464Y1745198D01*
X25195908Y1747192D01*
X25198000Y1755002D01*
X25451999Y1755002D01*
X25454091Y1747192D01*
X25461535Y1745198D01*
X25464934Y1745421D01*
X25533291Y1754420D01*
X25542732Y1756949D01*
X25604150Y1782390D01*
X25612606Y1787272D01*
X25665350Y1827744D01*
X25672255Y1834649D01*
X25712727Y1887393D01*
X25717609Y1895849D01*
X25743050Y1957267D01*
X25745579Y1966708D01*
X25754578Y2035065D01*
X25754899Y2039958D01*
X25754899Y2163098D01*
X25752807Y2170908D01*
X25744997Y2173000D01*
X25461901Y2173001D01*
X25454092Y2170909D01*
X25452000Y2163099D01*
X25451999Y1755002D01*
X25198000Y1755002D01*
X25198001Y2163098D01*
X25195909Y2170908D01*
X25188099Y2173000D01*
X24905001Y2173001D01*
X24897192Y2170909D01*
X24895100Y2163099D01*
X24416200Y2163099D01*
X24416200Y2325496D01*
X24409059Y2398321D01*
X24396409Y2440221D01*
X24393200Y2461956D01*
X24393200Y2560042D01*
X24895101Y2560042D01*
X24895101Y2436902D01*
X24897193Y2429092D01*
X24905003Y2427000D01*
X25188099Y2426999D01*
X25195908Y2429091D01*
X25198000Y2436901D01*
X25198000Y2436902D01*
X25451999Y2436902D01*
X25454091Y2429092D01*
X25461901Y2427000D01*
X25744999Y2426999D01*
X25752808Y2429091D01*
X25754900Y2436901D01*
X25754900Y2454488D01*
X26066985Y2454488D01*
X26067845Y2450512D01*
X26067845Y2450509D01*
X26075923Y2413149D01*
X26086859Y2362566D01*
X26126009Y2277057D01*
X26128459Y2273806D01*
X26128460Y2273804D01*
X26173795Y2213642D01*
X26182607Y2201948D01*
X26185695Y2199302D01*
X26185698Y2199298D01*
X26250916Y2143400D01*
X26250919Y2143398D01*
X26254013Y2140746D01*
X26336896Y2096304D01*
X26355700Y2090983D01*
X26423472Y2071805D01*
X26423476Y2071804D01*
X26427389Y2070697D01*
X26481307Y2067494D01*
X26517207Y2065361D01*
X26517210Y2065361D01*
X26521269Y2065120D01*
X26614157Y2079832D01*
X26617946Y2081317D01*
X26617950Y2081318D01*
X26665620Y2100000D01*
X26701719Y2114147D01*
X26705106Y2116415D01*
X26705109Y2116416D01*
X26776484Y2164197D01*
X26776486Y2164198D01*
X26779870Y2166464D01*
X26844963Y2234343D01*
X26848872Y2240746D01*
X26861022Y2260652D01*
X26893962Y2314616D01*
X26897727Y2325549D01*
X26923254Y2399687D01*
X26924580Y2403538D01*
X26925460Y2411139D01*
X26931870Y2466549D01*
X26935389Y2496960D01*
X26935400Y2500000D01*
X26933225Y2520026D01*
X26929482Y2554488D01*
X27566985Y2554488D01*
X27567845Y2550512D01*
X27567845Y2550509D01*
X27571259Y2534721D01*
X27586859Y2462566D01*
X27626009Y2377057D01*
X27628459Y2373806D01*
X27628460Y2373804D01*
X27667807Y2321588D01*
X27682607Y2301948D01*
X27685695Y2299302D01*
X27685698Y2299298D01*
X27750916Y2243400D01*
X27750919Y2243398D01*
X27754013Y2240746D01*
X27836896Y2196304D01*
X27865083Y2188328D01*
X27923472Y2171805D01*
X27923476Y2171804D01*
X27927389Y2170697D01*
X27979657Y2167592D01*
X28017207Y2165361D01*
X28017210Y2165361D01*
X28021269Y2165120D01*
X28114157Y2179832D01*
X28117946Y2181317D01*
X28117950Y2181318D01*
X28169639Y2201575D01*
X28201719Y2214147D01*
X28205106Y2216415D01*
X28205109Y2216416D01*
X28276484Y2264197D01*
X28276486Y2264198D01*
X28279870Y2266464D01*
X28344963Y2334343D01*
X28356831Y2353785D01*
X28364622Y2366549D01*
X28393962Y2414616D01*
X28424580Y2503538D01*
X28425808Y2514147D01*
X28430051Y2550828D01*
X28435389Y2596960D01*
X28435400Y2600000D01*
X28434624Y2607149D01*
X28429465Y2654633D01*
X28425243Y2693496D01*
X28422070Y2702925D01*
X28396545Y2778771D01*
X28396543Y2778776D01*
X28395246Y2782629D01*
X28389330Y2792476D01*
X28352069Y2854488D01*
X35966985Y2854488D01*
X35967845Y2850512D01*
X35967845Y2850509D01*
X35975187Y2816552D01*
X35986859Y2762566D01*
X36026009Y2677057D01*
X36028459Y2673806D01*
X36028460Y2673804D01*
X36056689Y2636343D01*
X36082607Y2601948D01*
X36085695Y2599302D01*
X36085698Y2599298D01*
X36150916Y2543400D01*
X36150919Y2543398D01*
X36154013Y2540746D01*
X36236896Y2496304D01*
X36265496Y2488211D01*
X36323472Y2471805D01*
X36323476Y2471804D01*
X36327389Y2470697D01*
X36381307Y2467494D01*
X36417207Y2465361D01*
X36417210Y2465361D01*
X36421269Y2465120D01*
X36514157Y2479832D01*
X36517946Y2481317D01*
X36517950Y2481318D01*
X36565788Y2500066D01*
X36601719Y2514147D01*
X36605106Y2516415D01*
X36605109Y2516416D01*
X36676484Y2564197D01*
X36676486Y2564198D01*
X36679870Y2566464D01*
X36744963Y2634343D01*
X36750323Y2643123D01*
X36773498Y2681091D01*
X36793962Y2714616D01*
X36797727Y2725549D01*
X36823254Y2799687D01*
X36824580Y2803538D01*
X36825576Y2812142D01*
X36831854Y2866406D01*
X36835389Y2896960D01*
X36835400Y2900000D01*
X36834811Y2905427D01*
X36830421Y2945836D01*
X36825243Y2993496D01*
X36823134Y2999762D01*
X36796545Y3078771D01*
X36796543Y3078776D01*
X36795246Y3082629D01*
X36787030Y3096304D01*
X36761499Y3138793D01*
X36746809Y3163242D01*
X36709318Y3202888D01*
X36684985Y3228620D01*
X36684982Y3228622D01*
X36682191Y3231574D01*
X36676996Y3235105D01*
X36633260Y3264827D01*
X36604408Y3284435D01*
X36517088Y3319361D01*
X36424305Y3334721D01*
X36420238Y3334508D01*
X36420235Y3334508D01*
X36373248Y3332045D01*
X36330388Y3329799D01*
X36326461Y3328717D01*
X36326459Y3328717D01*
X36247510Y3306971D01*
X36239719Y3304825D01*
X36156527Y3260963D01*
X36143554Y3250000D01*
X36087805Y3202888D01*
X36087802Y3202885D01*
X36084696Y3200260D01*
X36027574Y3125549D01*
X36025853Y3121858D01*
X35989548Y3044002D01*
X35989546Y3043996D01*
X35987829Y3040314D01*
X35986942Y3036346D01*
X35986941Y3036343D01*
X35978227Y2997359D01*
X35967313Y2948534D01*
X35967224Y2922907D01*
X35967008Y2860963D01*
X35966985Y2854488D01*
X28352069Y2854488D01*
X28348904Y2859755D01*
X28346809Y2863242D01*
X28301554Y2911098D01*
X28284985Y2928620D01*
X28284982Y2928622D01*
X28282191Y2931574D01*
X28278541Y2934055D01*
X28223368Y2971550D01*
X28204408Y2984435D01*
X28117088Y3019361D01*
X28024305Y3034721D01*
X28020238Y3034508D01*
X28020235Y3034508D01*
X27973248Y3032045D01*
X27930388Y3029799D01*
X27926461Y3028717D01*
X27926459Y3028717D01*
X27870168Y3013212D01*
X27839719Y3004825D01*
X27756527Y2960963D01*
X27738627Y2945836D01*
X27687805Y2902888D01*
X27687802Y2902885D01*
X27684696Y2900260D01*
X27627574Y2825549D01*
X27625853Y2821858D01*
X27589548Y2744002D01*
X27589546Y2743996D01*
X27587829Y2740314D01*
X27586942Y2736346D01*
X27586941Y2736343D01*
X27581635Y2712606D01*
X27567313Y2648534D01*
X27567264Y2634343D01*
X27567016Y2563242D01*
X27566985Y2554488D01*
X26929482Y2554488D01*
X26929324Y2555934D01*
X26925243Y2593496D01*
X26923449Y2598827D01*
X26896545Y2678771D01*
X26896543Y2678776D01*
X26895246Y2682629D01*
X26891152Y2689444D01*
X26858882Y2743149D01*
X26846809Y2763242D01*
X26811046Y2801061D01*
X26784985Y2828620D01*
X26784982Y2828622D01*
X26782191Y2831574D01*
X26773607Y2837408D01*
X26735593Y2863242D01*
X26704408Y2884435D01*
X26617088Y2919361D01*
X26524305Y2934721D01*
X26520238Y2934508D01*
X26520235Y2934508D01*
X26473248Y2932045D01*
X26430388Y2929799D01*
X26426461Y2928717D01*
X26426459Y2928717D01*
X26362493Y2911098D01*
X26339719Y2904825D01*
X26256527Y2860963D01*
X26238324Y2845580D01*
X26187805Y2802888D01*
X26187802Y2802885D01*
X26184696Y2800260D01*
X26182225Y2797028D01*
X26182224Y2797027D01*
X26178451Y2792092D01*
X26127574Y2725549D01*
X26125853Y2721858D01*
X26089548Y2644002D01*
X26089546Y2643996D01*
X26087829Y2640314D01*
X26086942Y2636346D01*
X26086941Y2636343D01*
X26078560Y2598849D01*
X26067313Y2548534D01*
X26067248Y2529889D01*
X26067003Y2459521D01*
X26066985Y2454488D01*
X25754900Y2454488D01*
X25754900Y2560041D01*
X25754579Y2564939D01*
X25745580Y2633291D01*
X25743051Y2642732D01*
X25717610Y2704150D01*
X25712728Y2712606D01*
X25672256Y2765350D01*
X25665351Y2772255D01*
X25612610Y2812725D01*
X25604146Y2817611D01*
X25542733Y2843051D01*
X25533294Y2845580D01*
X25464935Y2854579D01*
X25461536Y2854802D01*
X25454092Y2852808D01*
X25452000Y2844998D01*
X25451999Y2436902D01*
X25198000Y2436902D01*
X25198001Y2844998D01*
X25195909Y2852808D01*
X25188465Y2854802D01*
X25185066Y2854579D01*
X25116709Y2845580D01*
X25107268Y2843051D01*
X25045850Y2817610D01*
X25037394Y2812728D01*
X24984650Y2772256D01*
X24977745Y2765351D01*
X24937273Y2712607D01*
X24932391Y2704151D01*
X24906950Y2642733D01*
X24904421Y2633292D01*
X24895422Y2564939D01*
X24895101Y2560042D01*
X24393200Y2560042D01*
X24393200Y2562499D01*
X24392721Y2566464D01*
X24383838Y2639861D01*
X24383838Y2639862D01*
X24383293Y2644364D01*
X24367752Y2685492D01*
X24355749Y2717258D01*
X24355748Y2717260D01*
X24354145Y2721502D01*
X24307438Y2789461D01*
X24245869Y2844318D01*
X24214433Y2860963D01*
X24177000Y2880783D01*
X24176999Y2880783D01*
X24172992Y2882905D01*
X24093014Y2902994D01*
X24074432Y2904163D01*
X24051168Y2905627D01*
X24051153Y2905627D01*
X24050000Y2905700D01*
X23775001Y2905700D01*
X23772748Y2905427D01*
X23772742Y2905427D01*
X23697639Y2896338D01*
X23697638Y2896338D01*
X23693136Y2895793D01*
X23680976Y2891198D01*
X23620242Y2868249D01*
X23620240Y2868248D01*
X23615998Y2866645D01*
X23612260Y2864076D01*
X23552643Y2823102D01*
X23548039Y2819938D01*
X23545023Y2816553D01*
X23545022Y2816552D01*
X23529996Y2799687D01*
X23493183Y2758369D01*
X23491063Y2754364D01*
X23491061Y2754362D01*
X23460879Y2697359D01*
X23454596Y2685492D01*
X23434507Y2605514D01*
X23433751Y2593496D01*
X23431894Y2563974D01*
X23431801Y2562500D01*
X23431801Y2462403D01*
X23428281Y2439665D01*
X23417362Y2405244D01*
X23416162Y2394545D01*
X23409409Y2334343D01*
X23408800Y2328917D01*
X23408801Y1842094D01*
X23408801Y1428400D01*
X23398726Y1390800D01*
X23371201Y1363275D01*
X23333601Y1353200D01*
X23157407Y1353200D01*
X23156501Y1353155D01*
X23156482Y1353155D01*
X23138648Y1352278D01*
X23137489Y1352221D01*
X23136565Y1352130D01*
X23123737Y1350867D01*
X23123718Y1350865D01*
X23122818Y1350776D01*
X23121905Y1350641D01*
X23121892Y1350639D01*
X23104023Y1347989D01*
X23104014Y1347987D01*
X23103094Y1347851D01*
X23102191Y1347671D01*
X23102183Y1347670D01*
X23100761Y1347387D01*
X23086760Y1344602D01*
X23085003Y1344069D01*
X23084995Y1344067D01*
X23068095Y1338940D01*
X23048643Y1333039D01*
X23046712Y1332239D01*
X23023246Y1322520D01*
X23023240Y1322517D01*
X23021540Y1321813D01*
X22986419Y1303043D01*
X22984885Y1302018D01*
X22984878Y1302014D01*
X22981607Y1299828D01*
X22978851Y1297987D01*
X22968151Y1289206D01*
X22949483Y1273887D01*
X22949476Y1273881D01*
X22948047Y1272708D01*
X22927292Y1251953D01*
X22926119Y1250524D01*
X22926113Y1250517D01*
X22913381Y1235002D01*
X22902013Y1221149D01*
X22900977Y1219598D01*
X22897986Y1215122D01*
X22897982Y1215115D01*
X22896957Y1213581D01*
X22878187Y1178460D01*
X22866961Y1151357D01*
X22855398Y1113240D01*
X22852149Y1096906D01*
X22852013Y1095986D01*
X22852011Y1095977D01*
X22851665Y1093640D01*
X22849224Y1077182D01*
X22849135Y1076282D01*
X22849133Y1076263D01*
X22848252Y1067310D01*
X22847779Y1062511D01*
X22847733Y1061575D01*
X22847600Y1058860D01*
X22846800Y1042593D01*
X22846800Y-1565727D01*
X22844555Y-1583965D01*
X22806412Y-1736540D01*
X22806356Y-1736778D01*
X22806352Y-1736796D01*
X22806287Y-1737075D01*
X22804994Y-1742607D01*
X22804015Y-1747105D01*
X22802787Y-1753193D01*
X22801813Y-1758434D01*
X22801286Y-1761846D01*
X22800541Y-1766674D01*
X22799916Y-1770719D01*
X22798791Y-1779852D01*
X22797649Y-1792245D01*
X22797617Y-1792773D01*
X22797339Y-1797287D01*
X22797336Y-1797340D01*
X22797323Y-1797556D01*
X22797036Y-1803789D01*
X22796895Y-1808396D01*
X22796891Y-1808686D01*
X22796890Y-1808725D01*
X22796809Y-1814054D01*
X22796800Y-1814612D01*
X22796800Y-4547539D01*
X22796808Y-4547894D01*
X22796808Y-4547919D01*
X22796854Y-4550000D01*
X22796993Y-4556404D01*
X22797279Y-4562953D01*
X22797858Y-4571784D01*
X22807618Y-4683429D01*
X22809929Y-4700995D01*
X22812201Y-4713889D01*
X22816031Y-4731180D01*
X22837454Y-4811196D01*
X22837455Y-4811199D01*
X22844166Y-4836263D01*
X22849486Y-4853149D01*
X22853962Y-4865458D01*
X22860738Y-4881832D01*
X22906680Y-4980439D01*
X22914856Y-4996158D01*
X22915249Y-4996840D01*
X22915262Y-4996863D01*
X22919589Y-5004362D01*
X22921401Y-5007504D01*
X22930910Y-5022444D01*
X22969199Y-5077180D01*
X22991145Y-5108551D01*
X22993262Y-5111578D01*
X22993773Y-5112244D01*
X23003589Y-5125050D01*
X23018468Y-5161021D01*
X23013369Y-5199612D01*
X22989657Y-5230482D01*
X22943907Y-5246000D01*
X17201074Y-5246000D01*
X17163474Y-5235925D01*
X17135949Y-5208400D01*
X17125874Y-5170800D01*
X17135949Y-5133200D01*
X17147900Y-5117626D01*
X18941100Y-3324426D01*
X18974811Y-3304962D01*
X18994274Y-3302400D01*
X21124800Y-3302400D01*
X21127228Y-3302080D01*
X21127233Y-3302080D01*
X21161809Y-3297528D01*
X21161815Y-3297527D01*
X21164244Y-3297207D01*
X21191994Y-3289771D01*
X21197086Y-3288407D01*
X21197087Y-3288407D01*
X21201844Y-3287132D01*
X21270163Y-3247688D01*
X21297688Y-3220163D01*
X21337132Y-3151844D01*
X21347207Y-3114244D01*
X21347578Y-3111430D01*
X21352080Y-3077233D01*
X21352080Y-3077228D01*
X21352400Y-3074800D01*
X21352400Y724800D01*
X21352070Y727307D01*
X21347528Y761809D01*
X21347527Y761815D01*
X21347207Y764244D01*
X21338721Y795915D01*
X21338407Y797086D01*
X21338406Y797089D01*
X21337132Y801844D01*
X21297688Y870163D01*
X21270163Y897688D01*
X21201844Y937132D01*
X21164244Y947207D01*
X21161815Y947527D01*
X21161809Y947528D01*
X21127233Y952080D01*
X21127228Y952080D01*
X21124800Y952400D01*
X20353339Y952400D01*
X20311328Y946495D01*
X20308805Y945772D01*
X20308798Y945770D01*
X20283124Y938407D01*
X20271474Y935066D01*
X20267136Y932407D01*
X20267133Y932406D01*
X20206360Y895160D01*
X20202020Y892500D01*
X20198548Y888776D01*
X20193212Y883054D01*
X20160201Y862425D01*
X20109942Y866380D01*
X20109517Y865187D01*
X20027105Y894532D01*
X19964912Y901948D01*
X19942396Y904633D01*
X19942393Y904633D01*
X19940239Y904890D01*
X19938064Y904898D01*
X19938063Y904898D01*
X19937502Y904900D01*
X19462501Y904900D01*
X19375565Y895149D01*
X19371592Y893766D01*
X19371590Y893765D01*
X19296925Y867763D01*
X19292951Y866379D01*
X19292476Y866082D01*
X19255758Y859209D01*
X19208351Y881014D01*
X19191677Y897688D01*
X19123358Y937132D01*
X19085758Y947207D01*
X19083329Y947527D01*
X19083323Y947528D01*
X19048747Y952080D01*
X19048742Y952080D01*
X19046314Y952400D01*
X18994274Y952400D01*
X18956674Y962475D01*
X18941100Y974426D01*
X18140927Y1774599D01*
X19070100Y1774599D01*
X19070100Y1689611D01*
X19070336Y1685401D01*
X19079382Y1604750D01*
X19081235Y1596590D01*
X19107239Y1521920D01*
X19110849Y1514386D01*
X19152751Y1447328D01*
X19157942Y1440778D01*
X19213658Y1384672D01*
X19220170Y1379436D01*
X19286931Y1337067D01*
X19294445Y1333402D01*
X19368939Y1306877D01*
X19377066Y1304971D01*
X19457604Y1295367D01*
X19461937Y1295102D01*
X19462498Y1295100D01*
X19462498Y1295101D01*
X19462773Y1295100D01*
X19499598Y1295100D01*
X19507408Y1297192D01*
X19509500Y1305002D01*
X19890499Y1305002D01*
X19892591Y1297192D01*
X19900401Y1295100D01*
X19935389Y1295100D01*
X19939599Y1295336D01*
X20020250Y1304382D01*
X20028410Y1306235D01*
X20103080Y1332239D01*
X20110614Y1335848D01*
X20177671Y1377750D01*
X20184221Y1382942D01*
X20240329Y1438658D01*
X20245564Y1445170D01*
X20287933Y1511931D01*
X20291598Y1519445D01*
X20318123Y1593939D01*
X20320029Y1602066D01*
X20329633Y1682604D01*
X20329898Y1686937D01*
X20329900Y1687498D01*
X20329899Y1687498D01*
X20329900Y1687773D01*
X20329900Y1774598D01*
X20327808Y1782408D01*
X20319998Y1784500D01*
X19900402Y1784500D01*
X19892592Y1782408D01*
X19890500Y1774598D01*
X19890499Y1305002D01*
X19509500Y1305002D01*
X19509500Y1774598D01*
X19507408Y1782408D01*
X19499598Y1784500D01*
X19080002Y1784501D01*
X19072192Y1782409D01*
X19070100Y1774599D01*
X18140927Y1774599D01*
X17729789Y2185737D01*
X17724513Y2190365D01*
X17714095Y2201575D01*
X17713813Y2201948D01*
X17704355Y2214472D01*
X17655956Y2244440D01*
X17627283Y2249800D01*
X17603409Y2254263D01*
X17603406Y2254263D01*
X17600000Y2254900D01*
X15478784Y2254900D01*
X15450414Y2262502D01*
X19070100Y2262502D01*
X19070101Y2262502D01*
X19070100Y2262227D01*
X19070100Y2175402D01*
X19072192Y2167592D01*
X19080002Y2165500D01*
X19499598Y2165500D01*
X19507408Y2167592D01*
X19509500Y2175402D01*
X19509501Y2644998D01*
X19890500Y2644998D01*
X19890500Y2175402D01*
X19892592Y2167592D01*
X19900402Y2165500D01*
X20319998Y2165499D01*
X20327808Y2167591D01*
X20329900Y2175401D01*
X20329900Y2260389D01*
X20329664Y2264599D01*
X20320618Y2345250D01*
X20318765Y2353410D01*
X20292761Y2428080D01*
X20289151Y2435614D01*
X20247249Y2502672D01*
X20242058Y2509222D01*
X20186342Y2565328D01*
X20179830Y2570564D01*
X20113069Y2612933D01*
X20105555Y2616598D01*
X20031061Y2643123D01*
X20022934Y2645029D01*
X19942396Y2654633D01*
X19938063Y2654898D01*
X19937502Y2654900D01*
X19937502Y2654899D01*
X19937227Y2654900D01*
X19900402Y2654900D01*
X19892592Y2652808D01*
X19890500Y2644998D01*
X19509501Y2644998D01*
X19507409Y2652808D01*
X19499599Y2654900D01*
X19464611Y2654900D01*
X19460401Y2654664D01*
X19379750Y2645618D01*
X19371590Y2643765D01*
X19296920Y2617761D01*
X19289386Y2614152D01*
X19222329Y2572250D01*
X19215779Y2567058D01*
X19159671Y2511342D01*
X19154436Y2504830D01*
X19112067Y2438069D01*
X19108402Y2430555D01*
X19081877Y2356061D01*
X19079971Y2347934D01*
X19070367Y2267396D01*
X19070102Y2263063D01*
X19070100Y2262502D01*
X15450414Y2262502D01*
X15441184Y2264975D01*
X15413659Y2292500D01*
X15404067Y2321588D01*
X15393762Y2412039D01*
X15393644Y2413149D01*
X15392784Y2421846D01*
X15392784Y2421848D01*
X15392498Y2424736D01*
X15355691Y2567058D01*
X15351390Y2583689D01*
X15351119Y2584770D01*
X15349043Y2593318D01*
X15349042Y2593320D01*
X15348357Y2596142D01*
X15332970Y2633291D01*
X15329059Y2642732D01*
X15285507Y2747876D01*
X15285107Y2748864D01*
X15281863Y2757037D01*
X15280791Y2759738D01*
X15260405Y2794345D01*
X15250000Y2832511D01*
X15250000Y3250000D01*
X14868847Y3250000D01*
X14825175Y3263981D01*
X14819087Y3268324D01*
X14818188Y3268975D01*
X14811158Y3274149D01*
X14811152Y3274153D01*
X14808813Y3275874D01*
X14806231Y3277218D01*
X14806228Y3277220D01*
X14681148Y3342332D01*
X14663205Y3351673D01*
X14662238Y3352185D01*
X14654462Y3356381D01*
X14654448Y3356387D01*
X14651898Y3357763D01*
X14528525Y3401452D01*
X14497073Y3412590D01*
X14496025Y3412971D01*
X14487846Y3416005D01*
X14487839Y3416007D01*
X14485111Y3417019D01*
X14364549Y3441547D01*
X14324223Y3449752D01*
X14323134Y3449982D01*
X14314549Y3451861D01*
X14314547Y3451861D01*
X14311703Y3452484D01*
X14147873Y3462506D01*
X14146770Y3462582D01*
X14137947Y3463253D01*
X14137935Y3463253D01*
X14135042Y3463473D01*
X14132145Y3463245D01*
X14123188Y3462540D01*
X13971296Y3450585D01*
X13970342Y3450517D01*
X13958576Y3449766D01*
X13955740Y3449137D01*
X13955738Y3449137D01*
X13798333Y3414241D01*
X13797244Y3414008D01*
X13788589Y3412223D01*
X13788584Y3412222D01*
X13785734Y3411634D01*
X13783012Y3410616D01*
X13783011Y3410616D01*
X13631930Y3354130D01*
X13630905Y3353755D01*
X13619879Y3349818D01*
X13583401Y3330012D01*
X13552277Y3313113D01*
X13516395Y3304000D01*
X5830100Y3304000D01*
X5792500Y3314075D01*
X5764975Y3341600D01*
X5754900Y3379200D01*
X5754900Y3671900D01*
X5764975Y3709500D01*
X5792500Y3737025D01*
X5830100Y3747100D01*
X6273274Y3747100D01*
X6308809Y3738174D01*
X6386896Y3696304D01*
X6412224Y3689137D01*
X6473472Y3671805D01*
X6473476Y3671804D01*
X6477389Y3670697D01*
X6529522Y3667600D01*
X6567207Y3665361D01*
X6567210Y3665361D01*
X6571269Y3665120D01*
X6664157Y3679832D01*
X6667946Y3681317D01*
X6667950Y3681318D01*
X6711103Y3698230D01*
X6751719Y3714147D01*
X6755106Y3716415D01*
X6755109Y3716416D01*
X6826484Y3764197D01*
X6826486Y3764198D01*
X6829870Y3766464D01*
X6894963Y3834343D01*
X6943962Y3914616D01*
X6974580Y4003538D01*
X6980474Y4054488D01*
X30866985Y4054488D01*
X30867845Y4050512D01*
X30867845Y4050509D01*
X30878001Y4003538D01*
X30886859Y3962566D01*
X30926009Y3877057D01*
X30928459Y3873806D01*
X30928460Y3873804D01*
X30957527Y3835231D01*
X30982607Y3801948D01*
X30985695Y3799302D01*
X30985698Y3799298D01*
X31050916Y3743400D01*
X31050919Y3743398D01*
X31054013Y3740746D01*
X31136896Y3696304D01*
X31162224Y3689137D01*
X31223472Y3671805D01*
X31223476Y3671804D01*
X31227389Y3670697D01*
X31279522Y3667600D01*
X31317207Y3665361D01*
X31317210Y3665361D01*
X31321269Y3665120D01*
X31414157Y3679832D01*
X31417946Y3681317D01*
X31417950Y3681318D01*
X31461103Y3698230D01*
X31501719Y3714147D01*
X31505106Y3716415D01*
X31505109Y3716416D01*
X31576484Y3764197D01*
X31576486Y3764198D01*
X31579870Y3766464D01*
X31644963Y3834343D01*
X31693962Y3914616D01*
X31724580Y4003538D01*
X31735389Y4096960D01*
X31735400Y4100000D01*
X31725243Y4193496D01*
X31712485Y4231405D01*
X31706666Y4248697D01*
X33546975Y4248697D01*
X33557455Y4193496D01*
X33563822Y4159962D01*
X33566653Y4145048D01*
X33567974Y4141719D01*
X33567975Y4141717D01*
X33569125Y4138820D01*
X33605576Y4046990D01*
X33607501Y4043975D01*
X33607501Y4043974D01*
X33660414Y3961077D01*
X33660417Y3961073D01*
X33662339Y3958062D01*
X33664798Y3955466D01*
X33664799Y3955465D01*
X33715700Y3901733D01*
X33734894Y3881471D01*
X33820623Y3819982D01*
X33916432Y3775813D01*
X33954351Y3766464D01*
X34015392Y3751414D01*
X34015395Y3751414D01*
X34018865Y3750558D01*
X34085975Y3747100D01*
X34120652Y3745313D01*
X34120654Y3745313D01*
X34124226Y3745129D01*
X34228713Y3759720D01*
X34328555Y3793807D01*
X34375512Y3820645D01*
X34417041Y3844380D01*
X34417045Y3844383D01*
X34420151Y3846158D01*
X34422868Y3848491D01*
X34422871Y3848493D01*
X34479026Y3896710D01*
X34500194Y3914885D01*
X34565798Y3997507D01*
X34614594Y4091045D01*
X34644822Y4192122D01*
X34650518Y4248697D01*
X40546975Y4248697D01*
X40557455Y4193496D01*
X40563822Y4159962D01*
X40566653Y4145048D01*
X40567974Y4141719D01*
X40567975Y4141717D01*
X40569125Y4138820D01*
X40605576Y4046990D01*
X40607501Y4043975D01*
X40607501Y4043974D01*
X40660414Y3961077D01*
X40660417Y3961073D01*
X40662339Y3958062D01*
X40664798Y3955466D01*
X40664799Y3955465D01*
X40715700Y3901733D01*
X40734894Y3881471D01*
X40820623Y3819982D01*
X40916432Y3775813D01*
X40954351Y3766464D01*
X41015392Y3751414D01*
X41015395Y3751414D01*
X41018865Y3750558D01*
X41085975Y3747100D01*
X41120652Y3745313D01*
X41120654Y3745313D01*
X41124226Y3745129D01*
X41228713Y3759720D01*
X41328555Y3793807D01*
X41375512Y3820645D01*
X41417041Y3844380D01*
X41417045Y3844383D01*
X41420151Y3846158D01*
X41422868Y3848491D01*
X41422871Y3848493D01*
X41479026Y3896710D01*
X41500194Y3914885D01*
X41565798Y3997507D01*
X41614594Y4091045D01*
X41644822Y4192122D01*
X41655392Y4297092D01*
X41655400Y4300000D01*
X41655225Y4301838D01*
X41645720Y4401465D01*
X41645719Y4401470D01*
X41645380Y4405024D01*
X41615681Y4506258D01*
X41567375Y4600049D01*
X41502205Y4683015D01*
X41422522Y4752160D01*
X41331202Y4804990D01*
X41327829Y4806161D01*
X41327823Y4806164D01*
X41254647Y4831574D01*
X41231540Y4839598D01*
X41228004Y4840111D01*
X41228003Y4840111D01*
X41159628Y4850025D01*
X41127131Y4854737D01*
X41123564Y4854572D01*
X41123562Y4854572D01*
X41025319Y4850025D01*
X41025314Y4850024D01*
X41021743Y4849859D01*
X40919179Y4825141D01*
X40915919Y4823659D01*
X40915917Y4823658D01*
X40870237Y4802888D01*
X40823140Y4781474D01*
X40820222Y4779404D01*
X40820220Y4779403D01*
X40748860Y4728784D01*
X40737090Y4720435D01*
X40734619Y4717854D01*
X40734617Y4717852D01*
X40720227Y4702820D01*
X40664135Y4644225D01*
X40662196Y4641222D01*
X40662192Y4641217D01*
X40628763Y4589444D01*
X40606907Y4555595D01*
X40567472Y4457742D01*
X40547251Y4354198D01*
X40547138Y4311139D01*
X40547041Y4273804D01*
X40546975Y4248697D01*
X34650518Y4248697D01*
X34655392Y4297092D01*
X34655400Y4300000D01*
X34655225Y4301838D01*
X34645720Y4401465D01*
X34645719Y4401470D01*
X34645380Y4405024D01*
X34615681Y4506258D01*
X34567375Y4600049D01*
X34502205Y4683015D01*
X34422522Y4752160D01*
X34331202Y4804990D01*
X34327829Y4806161D01*
X34327823Y4806164D01*
X34254647Y4831574D01*
X34231540Y4839598D01*
X34228004Y4840111D01*
X34228003Y4840111D01*
X34159628Y4850025D01*
X34127131Y4854737D01*
X34123564Y4854572D01*
X34123562Y4854572D01*
X34025319Y4850025D01*
X34025314Y4850024D01*
X34021743Y4849859D01*
X33919179Y4825141D01*
X33915919Y4823659D01*
X33915917Y4823658D01*
X33870237Y4802888D01*
X33823140Y4781474D01*
X33820222Y4779404D01*
X33820220Y4779403D01*
X33748860Y4728784D01*
X33737090Y4720435D01*
X33734619Y4717854D01*
X33734617Y4717852D01*
X33720227Y4702820D01*
X33664135Y4644225D01*
X33662196Y4641222D01*
X33662192Y4641217D01*
X33628763Y4589444D01*
X33606907Y4555595D01*
X33567472Y4457742D01*
X33547251Y4354198D01*
X33547138Y4311139D01*
X33547041Y4273804D01*
X33546975Y4248697D01*
X31706666Y4248697D01*
X31696545Y4278771D01*
X31696543Y4278776D01*
X31695246Y4282629D01*
X31690190Y4291045D01*
X31652243Y4354198D01*
X31646809Y4363242D01*
X31604879Y4407582D01*
X31584985Y4428620D01*
X31584982Y4428622D01*
X31582191Y4431574D01*
X31557808Y4448145D01*
X31538805Y4461059D01*
X31504408Y4484435D01*
X31417088Y4519361D01*
X31324305Y4534721D01*
X31320238Y4534508D01*
X31320235Y4534508D01*
X31273248Y4532045D01*
X31230388Y4529799D01*
X31226461Y4528717D01*
X31226459Y4528717D01*
X31143647Y4505907D01*
X31139719Y4504825D01*
X31056527Y4460963D01*
X31041359Y4448145D01*
X30987805Y4402888D01*
X30987802Y4402885D01*
X30984696Y4400260D01*
X30927574Y4325549D01*
X30925853Y4321858D01*
X30889548Y4244002D01*
X30889546Y4243996D01*
X30887829Y4240314D01*
X30886942Y4236346D01*
X30886941Y4236343D01*
X30878545Y4198782D01*
X30867313Y4148534D01*
X30867299Y4144466D01*
X30867000Y4058649D01*
X30866985Y4054488D01*
X6980474Y4054488D01*
X6985389Y4096960D01*
X6985400Y4100000D01*
X6975243Y4193496D01*
X6962485Y4231405D01*
X6946545Y4278771D01*
X6946543Y4278776D01*
X6945246Y4282629D01*
X6940190Y4291045D01*
X6902243Y4354198D01*
X6896809Y4363242D01*
X6854879Y4407582D01*
X6834985Y4428620D01*
X6834982Y4428622D01*
X6832191Y4431574D01*
X6807808Y4448145D01*
X6788805Y4461059D01*
X6754408Y4484435D01*
X6667088Y4519361D01*
X6574305Y4534721D01*
X6570238Y4534508D01*
X6570235Y4534508D01*
X6523248Y4532045D01*
X6480388Y4529799D01*
X6476461Y4528717D01*
X6476459Y4528717D01*
X6393647Y4505907D01*
X6389719Y4504825D01*
X6386116Y4502926D01*
X6386115Y4502925D01*
X6307695Y4461579D01*
X6272623Y4452900D01*
X5830100Y4452900D01*
X5792500Y4462975D01*
X5764975Y4490500D01*
X5754900Y4528100D01*
X5754900Y5100000D01*
X5752023Y5112234D01*
X5742298Y5153584D01*
X5743497Y5192492D01*
X5763990Y5225587D01*
X5815501Y5246000D01*
X74670800Y5246000D01*
X74708400Y5235925D01*
G37*
G04 #@! TD.AperFunction*
G04 #@! TA.AperFunction,Conductor*
G36*
X44308081Y-2302797D02*
G01*
X44335606Y-2330322D01*
X44345681Y-2367922D01*
X44335606Y-2405522D01*
X44323655Y-2421096D01*
X44260101Y-2484650D01*
X44210863Y-2506573D01*
X44164331Y-2509012D01*
X44130388Y-2510791D01*
X44126461Y-2511873D01*
X44126459Y-2511873D01*
X44047811Y-2533536D01*
X44039719Y-2535765D01*
X43956527Y-2579627D01*
X43953414Y-2582258D01*
X43887805Y-2637702D01*
X43887802Y-2637705D01*
X43884696Y-2640330D01*
X43827574Y-2715041D01*
X43825853Y-2718732D01*
X43789548Y-2796588D01*
X43789546Y-2796594D01*
X43787829Y-2800276D01*
X43786942Y-2804244D01*
X43786941Y-2804247D01*
X43779623Y-2836987D01*
X43767313Y-2892056D01*
X43767223Y-2917850D01*
X43767006Y-2980215D01*
X43766985Y-2986102D01*
X43767845Y-2990078D01*
X43767845Y-2990081D01*
X43777641Y-3035390D01*
X43786859Y-3078024D01*
X43826009Y-3163533D01*
X43828459Y-3166784D01*
X43828460Y-3166786D01*
X43859747Y-3208306D01*
X43882607Y-3238642D01*
X43885695Y-3241288D01*
X43885698Y-3241292D01*
X43950916Y-3297190D01*
X43950919Y-3297192D01*
X43954013Y-3299844D01*
X44036896Y-3344286D01*
X44064906Y-3352212D01*
X44123472Y-3368785D01*
X44123476Y-3368786D01*
X44127389Y-3369893D01*
X44181307Y-3373096D01*
X44217207Y-3375229D01*
X44217210Y-3375229D01*
X44221269Y-3375470D01*
X44314157Y-3360758D01*
X44317946Y-3359273D01*
X44317950Y-3359272D01*
X44369169Y-3339199D01*
X44401719Y-3326443D01*
X44405106Y-3324175D01*
X44405109Y-3324174D01*
X44476484Y-3276393D01*
X44476486Y-3276392D01*
X44479870Y-3274126D01*
X44544963Y-3206247D01*
X44552048Y-3194641D01*
X44576070Y-3155285D01*
X44578637Y-3151080D01*
X44606826Y-3124236D01*
X44644661Y-3115082D01*
X44682004Y-3126073D01*
X44711198Y-3158954D01*
X44719082Y-3176174D01*
X44730717Y-3201586D01*
X44787315Y-3276695D01*
X44790403Y-3279341D01*
X44790406Y-3279345D01*
X44855624Y-3335243D01*
X44855627Y-3335245D01*
X44858721Y-3337897D01*
X44941604Y-3382339D01*
X44961373Y-3387933D01*
X45028180Y-3406838D01*
X45028184Y-3406839D01*
X45032097Y-3407946D01*
X45086015Y-3411149D01*
X45121915Y-3413282D01*
X45121918Y-3413282D01*
X45125977Y-3413523D01*
X45134760Y-3412132D01*
X45153953Y-3409092D01*
X45218865Y-3398811D01*
X45222654Y-3397326D01*
X45222658Y-3397325D01*
X45278141Y-3375581D01*
X45306427Y-3364496D01*
X45309814Y-3362229D01*
X45309819Y-3362226D01*
X45332189Y-3347250D01*
X45333495Y-3346376D01*
X45370343Y-3333830D01*
X45408528Y-3341391D01*
X45437817Y-3367031D01*
X45448829Y-3392971D01*
X45449771Y-3397325D01*
X45451456Y-3405118D01*
X45469716Y-3445000D01*
X45490454Y-3490295D01*
X45496946Y-3528676D01*
X45483378Y-3565161D01*
X45453385Y-3589974D01*
X45422080Y-3596800D01*
X38192035Y-3596800D01*
X38154435Y-3586725D01*
X38126910Y-3559200D01*
X38119100Y-3503282D01*
X38122173Y-3491047D01*
X38122174Y-3491043D01*
X38123013Y-3487701D01*
X38125700Y-3445000D01*
X38125700Y-3175001D01*
X38125406Y-3172567D01*
X38117680Y-3108729D01*
X38115865Y-3093733D01*
X38096467Y-3042396D01*
X38088532Y-3021395D01*
X38088531Y-3021393D01*
X38086930Y-3017156D01*
X38083783Y-3012576D01*
X38043134Y-2953432D01*
X38040563Y-2949691D01*
X38033761Y-2943630D01*
X37982828Y-2898251D01*
X37979442Y-2895234D01*
X37907096Y-2856929D01*
X37902703Y-2855826D01*
X37902699Y-2855824D01*
X37869908Y-2847587D01*
X37835895Y-2828656D01*
X37815905Y-2795254D01*
X37815294Y-2756333D01*
X37834225Y-2722320D01*
X37860744Y-2706743D01*
X37860031Y-2705022D01*
X37864587Y-2703135D01*
X37929950Y-2676061D01*
X37937701Y-2670114D01*
X37986083Y-2632988D01*
X37986084Y-2632987D01*
X37989990Y-2629990D01*
X38018201Y-2593226D01*
X38067655Y-2564502D01*
X38085943Y-2561997D01*
X38090653Y-2559959D01*
X38092050Y-2559355D01*
X38104735Y-2555160D01*
X38106213Y-2554813D01*
X38106216Y-2554812D01*
X38111203Y-2553642D01*
X38130128Y-2543239D01*
X38136451Y-2540141D01*
X38156291Y-2531555D01*
X38161457Y-2527372D01*
X38172553Y-2519916D01*
X38178374Y-2516716D01*
X38183842Y-2511995D01*
X38195513Y-2500324D01*
X38201362Y-2495057D01*
X38215861Y-2483316D01*
X38220303Y-2477066D01*
X38220409Y-2476917D01*
X38228529Y-2467310D01*
X38381091Y-2314748D01*
X38414802Y-2295284D01*
X38434265Y-2292722D01*
X44270481Y-2292722D01*
X44308081Y-2302797D01*
G37*
G04 #@! TD.AperFunction*
G04 #@! TA.AperFunction,Conductor*
G36*
X47739310Y-2837408D02*
G01*
X48145130Y-3243228D01*
X48164594Y-3276939D01*
X48167155Y-3296660D01*
X48167059Y-3324426D01*
X48167012Y-3337897D01*
X48166985Y-3345512D01*
X48167845Y-3349489D01*
X48167845Y-3349490D01*
X48172017Y-3368785D01*
X48186859Y-3437434D01*
X48188555Y-3441139D01*
X48188556Y-3441141D01*
X48211061Y-3490295D01*
X48217553Y-3528677D01*
X48203985Y-3565162D01*
X48173992Y-3589974D01*
X48142687Y-3596800D01*
X48050913Y-3596800D01*
X48013313Y-3586725D01*
X47985788Y-3559200D01*
X47975713Y-3521600D01*
X47995959Y-3470267D01*
X48003698Y-3461982D01*
X47998606Y-3450256D01*
X47693136Y-3144786D01*
X47686137Y-3140745D01*
X47679134Y-3144788D01*
X47583605Y-3240318D01*
X47579564Y-3247318D01*
X47583606Y-3254319D01*
X47751391Y-3422104D01*
X47755645Y-3425766D01*
X47803499Y-3461111D01*
X47827758Y-3491553D01*
X47833546Y-3530047D01*
X47819311Y-3566277D01*
X47788869Y-3590536D01*
X47758822Y-3596800D01*
X47347131Y-3596800D01*
X47309531Y-3586725D01*
X47282006Y-3559200D01*
X47271931Y-3521600D01*
X47279088Y-3489582D01*
X47279430Y-3488856D01*
X47281549Y-3485384D01*
X47293645Y-3450256D01*
X47310841Y-3400313D01*
X47312167Y-3396462D01*
X47313605Y-3384038D01*
X47318792Y-3339199D01*
X47322976Y-3303040D01*
X47322987Y-3300000D01*
X47322719Y-3297528D01*
X47316925Y-3244201D01*
X47312830Y-3206504D01*
X47304671Y-3182260D01*
X47297299Y-3160355D01*
X47294855Y-3121505D01*
X47312163Y-3086639D01*
X47344585Y-3065097D01*
X47383435Y-3062653D01*
X47397529Y-3067979D01*
X47399141Y-3067979D01*
X47406830Y-3063540D01*
X47632962Y-2837408D01*
X47666673Y-2817944D01*
X47705599Y-2817944D01*
X47739310Y-2837408D01*
G37*
G04 #@! TD.AperFunction*
G04 #@! TA.AperFunction,Conductor*
G36*
X53237500Y-689975D02*
G01*
X53265025Y-717500D01*
X53275100Y-755100D01*
X53275100Y-1594900D01*
X53265025Y-1632500D01*
X53237500Y-1660025D01*
X53199900Y-1670100D01*
X52810318Y-1670100D01*
X52772718Y-1660025D01*
X52745193Y-1632500D01*
X52735563Y-1599982D01*
X52735400Y-1600000D01*
X52735302Y-1599100D01*
X52725243Y-1506504D01*
X52722082Y-1497112D01*
X52696545Y-1421229D01*
X52696543Y-1421224D01*
X52695246Y-1417371D01*
X52692948Y-1413545D01*
X52661760Y-1361640D01*
X52646809Y-1336758D01*
X52607201Y-1294873D01*
X52584985Y-1271380D01*
X52584982Y-1271378D01*
X52582191Y-1268426D01*
X52576625Y-1264643D01*
X52507770Y-1217850D01*
X52504408Y-1215565D01*
X52417088Y-1180639D01*
X52324305Y-1165279D01*
X52320238Y-1165492D01*
X52320235Y-1165492D01*
X52273248Y-1167955D01*
X52230388Y-1170201D01*
X52226461Y-1171283D01*
X52226459Y-1171283D01*
X52167387Y-1187554D01*
X52139719Y-1195175D01*
X52056527Y-1239037D01*
X52041820Y-1251466D01*
X51987805Y-1297112D01*
X51987802Y-1297115D01*
X51984696Y-1299740D01*
X51982225Y-1302972D01*
X51982224Y-1302973D01*
X51979300Y-1306797D01*
X51927574Y-1374451D01*
X51925853Y-1378142D01*
X51889548Y-1455998D01*
X51889546Y-1456004D01*
X51887829Y-1459686D01*
X51886942Y-1463654D01*
X51886941Y-1463657D01*
X51878456Y-1501617D01*
X51867313Y-1551466D01*
X51867191Y-1586558D01*
X51867009Y-1638755D01*
X51866985Y-1645512D01*
X51867845Y-1649488D01*
X51867845Y-1649491D01*
X51877790Y-1695486D01*
X51886859Y-1737434D01*
X51888554Y-1741136D01*
X51888556Y-1741141D01*
X51912260Y-1792914D01*
X51918752Y-1831296D01*
X51905184Y-1867781D01*
X51875191Y-1892593D01*
X51836809Y-1899085D01*
X51789246Y-1875886D01*
X51784988Y-1871383D01*
X51784984Y-1871380D01*
X51782191Y-1868426D01*
X51777770Y-1865421D01*
X51736150Y-1837137D01*
X51704408Y-1815565D01*
X51617088Y-1780639D01*
X51524305Y-1765279D01*
X51520239Y-1765492D01*
X51520236Y-1765492D01*
X51512478Y-1765899D01*
X51497698Y-1766674D01*
X51459625Y-1758582D01*
X51440589Y-1744751D01*
X51251517Y-1555679D01*
X51232053Y-1521968D01*
X51232053Y-1483042D01*
X51251517Y-1449331D01*
X51285228Y-1429867D01*
X51304691Y-1427305D01*
X51347846Y-1427305D01*
X51350994Y-1427371D01*
X51379170Y-1428552D01*
X51384155Y-1427383D01*
X51384162Y-1427382D01*
X51400191Y-1423622D01*
X51407156Y-1422331D01*
X51419434Y-1420649D01*
X51428538Y-1419402D01*
X51433248Y-1417364D01*
X51434645Y-1416760D01*
X51447330Y-1412565D01*
X51448808Y-1412218D01*
X51448811Y-1412217D01*
X51453798Y-1411047D01*
X51472723Y-1400644D01*
X51479046Y-1397546D01*
X51498886Y-1388960D01*
X51504052Y-1384777D01*
X51515148Y-1377321D01*
X51520969Y-1374121D01*
X51524699Y-1370901D01*
X51525390Y-1370304D01*
X51525391Y-1370304D01*
X51526437Y-1369400D01*
X51538108Y-1357729D01*
X51543957Y-1352462D01*
X51554471Y-1343948D01*
X51558456Y-1340721D01*
X51561428Y-1336540D01*
X51563006Y-1334320D01*
X51571128Y-1324710D01*
X52193912Y-701926D01*
X52227623Y-682462D01*
X52247086Y-679900D01*
X53199900Y-679900D01*
X53237500Y-689975D01*
G37*
G04 #@! TD.AperFunction*
G04 #@! TD*
G04 #@! TA.AperFunction,Conductor*
G04 #@! TO.N,/HEATER*
G36*
X17606452Y2089925D02*
G01*
X17622026Y2077974D01*
X18900000Y800000D01*
X19046314Y800000D01*
X19083914Y789925D01*
X19111439Y762400D01*
X19121514Y724800D01*
X19113903Y691834D01*
X19108404Y680559D01*
X19081877Y606061D01*
X19079971Y597934D01*
X19070367Y517396D01*
X19070102Y513063D01*
X19070100Y512502D01*
X19070101Y512502D01*
X19070100Y512227D01*
X19070100Y488902D01*
X19072192Y481092D01*
X19080002Y479000D01*
X19446001Y479000D01*
X20319998Y478999D01*
X20327808Y481091D01*
X20329900Y488901D01*
X20329900Y510389D01*
X20329664Y514599D01*
X20320618Y595250D01*
X20318765Y603410D01*
X20292761Y678080D01*
X20287335Y689405D01*
X20288093Y689768D01*
X20278185Y722171D01*
X20286939Y760100D01*
X20313485Y788571D01*
X20353339Y800000D01*
X21124800Y800000D01*
X21162400Y789925D01*
X21189925Y762400D01*
X21200000Y724800D01*
X21200000Y-3074800D01*
X21189925Y-3112400D01*
X21162400Y-3139925D01*
X21124800Y-3150000D01*
X18900000Y-3150000D01*
X16826026Y-5223974D01*
X16792315Y-5243438D01*
X16772852Y-5246000D01*
X10675200Y-5246000D01*
X10637600Y-5235925D01*
X10610075Y-5208400D01*
X10600000Y-5170800D01*
X10600000Y-3379200D01*
X10610075Y-3341600D01*
X10637600Y-3314075D01*
X10675200Y-3304000D01*
X13513695Y-3304000D01*
X13546068Y-3311326D01*
X13589142Y-3331871D01*
X13667071Y-3369041D01*
X13668077Y-3369529D01*
X13678621Y-3374752D01*
X13681389Y-3375625D01*
X13681397Y-3375628D01*
X13835256Y-3424140D01*
X13836268Y-3424467D01*
X13841981Y-3426362D01*
X13844611Y-3427235D01*
X13844614Y-3427236D01*
X13847376Y-3428152D01*
X13898804Y-3436758D01*
X14009337Y-3455255D01*
X14010432Y-3455447D01*
X14018513Y-3456922D01*
X14021918Y-3457544D01*
X14186061Y-3461842D01*
X14187064Y-3461875D01*
X14194844Y-3462194D01*
X14195951Y-3462240D01*
X14195952Y-3462240D01*
X14198851Y-3462359D01*
X14245704Y-3457021D01*
X14361996Y-3443772D01*
X14363106Y-3443654D01*
X14366162Y-3443352D01*
X14374733Y-3442504D01*
X14533788Y-3401371D01*
X14534744Y-3401131D01*
X14546142Y-3398363D01*
X14683181Y-3341600D01*
X14697862Y-3335519D01*
X14698897Y-3335100D01*
X14707033Y-3331871D01*
X14707044Y-3331866D01*
X14709739Y-3330796D01*
X14738126Y-3314075D01*
X14851216Y-3247459D01*
X14852134Y-3246927D01*
X14862339Y-3241118D01*
X14893480Y-3216347D01*
X14940293Y-3200000D01*
X15200000Y-3200000D01*
X15200000Y-2918856D01*
X15213981Y-2875183D01*
X15214543Y-2874396D01*
X15218332Y-2869084D01*
X15218983Y-2868186D01*
X15219169Y-2867933D01*
X15225877Y-2858818D01*
X15228729Y-2853341D01*
X15301722Y-2713123D01*
X15302244Y-2712138D01*
X15306390Y-2704455D01*
X15306391Y-2704454D01*
X15307768Y-2701901D01*
X15362606Y-2547046D01*
X15362928Y-2546157D01*
X15367024Y-2535113D01*
X15367604Y-2532263D01*
X15399757Y-2374225D01*
X15399987Y-2373136D01*
X15401866Y-2364551D01*
X15401866Y-2364549D01*
X15402489Y-2361705D01*
X15412515Y-2197802D01*
X15412590Y-2196711D01*
X15413478Y-2185045D01*
X15400593Y-2021338D01*
X15400517Y-2020269D01*
X15399957Y-2011475D01*
X15399956Y-2011471D01*
X15399772Y-2008577D01*
X15364218Y-1848199D01*
X15363985Y-1847109D01*
X15361640Y-1835733D01*
X15346336Y-1794800D01*
X15304143Y-1681947D01*
X15303762Y-1680905D01*
X15300800Y-1672612D01*
X15300799Y-1672609D01*
X15299823Y-1669877D01*
X15263113Y-1602265D01*
X15254000Y-1566384D01*
X15254000Y-38901D01*
X19070100Y-38901D01*
X19070100Y-60389D01*
X19070336Y-64599D01*
X19079382Y-145250D01*
X19081235Y-153410D01*
X19107239Y-228080D01*
X19110849Y-235614D01*
X19152751Y-302672D01*
X19157942Y-309222D01*
X19213658Y-365328D01*
X19220170Y-370564D01*
X19286931Y-412933D01*
X19294445Y-416598D01*
X19368939Y-443123D01*
X19377066Y-445029D01*
X19436170Y-452077D01*
X19442649Y-451143D01*
X19446000Y-441070D01*
X19446000Y-38902D01*
X19953999Y-38902D01*
X19953999Y-443147D01*
X19955718Y-449565D01*
X19965971Y-451706D01*
X20020250Y-445618D01*
X20028410Y-443765D01*
X20103080Y-417761D01*
X20110614Y-414152D01*
X20177671Y-372250D01*
X20184221Y-367058D01*
X20240329Y-311342D01*
X20245564Y-304830D01*
X20287933Y-238069D01*
X20291598Y-230555D01*
X20318123Y-156061D01*
X20320029Y-147934D01*
X20329633Y-67396D01*
X20329898Y-63063D01*
X20329900Y-62502D01*
X20329899Y-62502D01*
X20329900Y-62227D01*
X20329900Y-38902D01*
X20327808Y-31092D01*
X20319998Y-29000D01*
X19963901Y-29000D01*
X19956091Y-31092D01*
X19953999Y-38902D01*
X19446000Y-38902D01*
X19446000Y-38901D01*
X19443908Y-31091D01*
X19436098Y-28999D01*
X19080002Y-28999D01*
X19072192Y-31091D01*
X19070100Y-38901D01*
X15254000Y-38901D01*
X15254000Y1563706D01*
X15261326Y1596080D01*
X15319060Y1717122D01*
X15319548Y1718127D01*
X15322949Y1724993D01*
X15324749Y1728626D01*
X15337955Y1770508D01*
X15374119Y1885206D01*
X15374462Y1886267D01*
X15377233Y1894620D01*
X15377235Y1894630D01*
X15378147Y1897378D01*
X15401547Y2037211D01*
X15417690Y2072633D01*
X15449380Y2095238D01*
X15475716Y2100000D01*
X17568852Y2100000D01*
X17606452Y2089925D01*
G37*
G04 #@! TD.AperFunction*
G04 #@! TD*
G04 #@! TA.AperFunction,Conductor*
G04 #@! TO.N,IN*
G36*
X65762400Y-3810075D02*
G01*
X65789925Y-3837600D01*
X65800000Y-3875200D01*
X65800000Y-5170800D01*
X65789925Y-5208400D01*
X65762400Y-5235925D01*
X65724800Y-5246000D01*
X23648145Y-5246000D01*
X23641508Y-5245707D01*
X23584278Y-5240636D01*
X23571381Y-5238348D01*
X23466331Y-5210090D01*
X23454029Y-5205599D01*
X23355484Y-5159546D01*
X23344151Y-5152992D01*
X23255075Y-5090525D01*
X23245056Y-5082106D01*
X23168181Y-5005141D01*
X23159767Y-4995103D01*
X23097415Y-4905969D01*
X23090870Y-4894623D01*
X23044928Y-4796016D01*
X23040452Y-4783707D01*
X23033741Y-4758643D01*
X23012318Y-4678627D01*
X23010046Y-4665733D01*
X23000286Y-4554088D01*
X23000000Y-4547539D01*
X23000000Y-3875200D01*
X23010075Y-3837600D01*
X23037600Y-3810075D01*
X23075200Y-3800000D01*
X65724800Y-3800000D01*
X65762400Y-3810075D01*
G37*
G04 #@! TD.AperFunction*
G04 #@! TD*
G04 #@! TA.AperFunction,Conductor*
G04 #@! TO.N,IN*
G36*
X67405486Y-1600480D02*
G01*
X67510568Y-1609674D01*
X67532197Y-1613487D01*
X67628766Y-1639362D01*
X67649405Y-1646874D01*
X67740010Y-1689124D01*
X67759031Y-1700106D01*
X67840925Y-1757449D01*
X67857749Y-1771567D01*
X67928433Y-1842251D01*
X67942551Y-1859075D01*
X67999894Y-1940969D01*
X68010876Y-1959990D01*
X68053126Y-2050595D01*
X68060638Y-2071234D01*
X68086513Y-2167803D01*
X68090326Y-2189432D01*
X68099520Y-2294514D01*
X68100000Y-2305496D01*
X68100000Y-2705095D01*
X68099612Y-2714981D01*
X68092160Y-2809670D01*
X68089067Y-2829198D01*
X68068055Y-2916721D01*
X68061947Y-2935520D01*
X68027496Y-3018693D01*
X68018529Y-3036291D01*
X67977998Y-3102431D01*
X67971493Y-3113046D01*
X67959872Y-3129040D01*
X67898188Y-3201263D01*
X67891472Y-3208528D01*
X66008528Y-5091472D01*
X66001263Y-5098188D01*
X65929040Y-5159872D01*
X65913049Y-5171491D01*
X65836291Y-5218529D01*
X65818693Y-5227496D01*
X65797171Y-5236410D01*
X65748956Y-5246000D01*
X64526000Y-5246000D01*
X64477782Y-5236409D01*
X64436905Y-5209095D01*
X64409591Y-5168218D01*
X64400000Y-5120000D01*
X64400000Y-3952190D01*
X64409591Y-3903972D01*
X64436905Y-3863095D01*
X65093283Y-3206717D01*
X65134160Y-3179403D01*
X65182378Y-3169812D01*
X65249894Y-3189428D01*
X65284531Y-3211410D01*
X65297121Y-3217551D01*
X65366266Y-3242171D01*
X65379884Y-3245365D01*
X65433679Y-3251780D01*
X65442326Y-3251107D01*
X65446000Y-3237051D01*
X65446000Y-2841410D01*
X65953999Y-2841410D01*
X65953999Y-3240639D01*
X65955715Y-3249267D01*
X65969871Y-3251269D01*
X66017431Y-3245935D01*
X66031092Y-3242831D01*
X66100394Y-3218697D01*
X66113024Y-3212645D01*
X66175263Y-3173754D01*
X66186235Y-3165058D01*
X66238313Y-3113343D01*
X66247087Y-3102431D01*
X66286411Y-3040467D01*
X66292551Y-3027879D01*
X66317171Y-2958736D01*
X66320365Y-2945116D01*
X66329461Y-2868841D01*
X66329900Y-2861661D01*
X66329900Y-2841410D01*
X66327841Y-2831059D01*
X66317490Y-2829000D01*
X65966409Y-2829000D01*
X65956058Y-2831059D01*
X65953999Y-2841410D01*
X65446000Y-2841410D01*
X65446001Y-2802236D01*
X65446001Y-2447000D01*
X65455592Y-2398782D01*
X65482906Y-2357904D01*
X65523783Y-2330591D01*
X65572001Y-2321000D01*
X66317490Y-2321001D01*
X66327841Y-2318942D01*
X66329900Y-2308591D01*
X66329900Y-2291026D01*
X66329507Y-2283999D01*
X66320935Y-2207569D01*
X66317831Y-2193908D01*
X66293695Y-2124603D01*
X66287647Y-2111978D01*
X66271211Y-2085675D01*
X66253794Y-2039701D01*
X66255296Y-1990561D01*
X66275489Y-1945737D01*
X66299354Y-1920518D01*
X66504112Y-1756711D01*
X66512675Y-1750433D01*
X66597390Y-1693664D01*
X66615952Y-1683377D01*
X66669455Y-1659373D01*
X66704124Y-1643820D01*
X66724158Y-1636793D01*
X66817714Y-1612603D01*
X66838640Y-1609039D01*
X66940248Y-1600448D01*
X66950863Y-1600000D01*
X67394504Y-1600000D01*
X67405486Y-1600480D01*
G37*
G04 #@! TD.AperFunction*
G04 #@! TD*
G04 #@! TA.AperFunction,Conductor*
G04 #@! TO.N,/TIP_TC*
G36*
X5562400Y5089925D02*
G01*
X5589925Y5062400D01*
X5600000Y5024800D01*
X5600000Y3379200D01*
X5589925Y3341600D01*
X5562400Y3314075D01*
X5524800Y3304000D01*
X575200Y3304000D01*
X537600Y3314075D01*
X510075Y3341600D01*
X500000Y3379200D01*
X500000Y5024800D01*
X510075Y5062400D01*
X537600Y5089925D01*
X575200Y5100000D01*
X5524800Y5100000D01*
X5562400Y5089925D01*
G37*
G04 #@! TD.AperFunction*
G04 #@! TD*
G04 #@! TA.AperFunction,Conductor*
G04 #@! TO.N,IN*
G36*
X24407264Y1148555D02*
G01*
X24423598Y1145306D01*
X24450701Y1134080D01*
X24458269Y1129024D01*
X24479024Y1108269D01*
X24484080Y1100701D01*
X24495306Y1073598D01*
X24498555Y1057264D01*
X24500000Y1042593D01*
X24500000Y-1508563D01*
X24498933Y-1521187D01*
X24496513Y-1535398D01*
X24488153Y-1559229D01*
X24481166Y-1571835D01*
X24474114Y-1582357D01*
X24400000Y-1675000D01*
X24308001Y-1789998D01*
X24308001Y-1789999D01*
X24300000Y-1800000D01*
X24300000Y-4424800D01*
X24289925Y-4462400D01*
X24262400Y-4489925D01*
X24224800Y-4500000D01*
X23075200Y-4500000D01*
X23037600Y-4489925D01*
X23010075Y-4462400D01*
X23000000Y-4424800D01*
X23000000Y-1814612D01*
X23000141Y-1810005D01*
X23000467Y-1804694D01*
X23001592Y-1795561D01*
X23002566Y-1790320D01*
X23003545Y-1785822D01*
X23047014Y-1611943D01*
X23048882Y-1604473D01*
X23048882Y-1604470D01*
X23050000Y-1600000D01*
X23050000Y1042593D01*
X23051445Y1057264D01*
X23054694Y1073598D01*
X23065920Y1100701D01*
X23070976Y1108269D01*
X23091731Y1129024D01*
X23099299Y1134080D01*
X23126402Y1145306D01*
X23142736Y1148555D01*
X23157407Y1150000D01*
X24392593Y1150000D01*
X24407264Y1148555D01*
G37*
G04 #@! TD.AperFunction*
G04 #@! TD*
M02*
