G04 #@! TF.GenerationSoftware,KiCad,Pcbnew,(5.99.0-7570-gd0e008053a)*
G04 #@! TF.CreationDate,2021-04-03T16:08:25-07:00*
G04 #@! TF.ProjectId,RT_USB_PD_Soldering_Iron,52545f55-5342-45f5-9044-5f536f6c6465,rev?*
G04 #@! TF.SameCoordinates,PX5f5e100PY7735940*
G04 #@! TF.FileFunction,Legend,Bot*
G04 #@! TF.FilePolarity,Positive*
%FSLAX46Y46*%
G04 Gerber Fmt 4.6, Leading zero omitted, Abs format (unit mm)*
G04 Created by KiCad (PCBNEW (5.99.0-7570-gd0e008053a)) date 2021-04-03 16:08:25*
%MOMM*%
%LPD*%
G01*
G04 APERTURE LIST*
%ADD10C,0.200000*%
%ADD11C,0.150000*%
%ADD12C,0.120000*%
G04 APERTURE END LIST*
D10*
X42600000Y-3700000D02*
G75*
G03*
X42600000Y-3700000I-100000J0D01*
G01*
X58500000Y-3100000D02*
G75*
G03*
X58500000Y-3100000I-100000J0D01*
G01*
D11*
X59700000Y1100000D02*
X58300000Y600000D01*
D10*
X48100000Y-2300000D02*
G75*
G03*
X48100000Y-2300000I-100000J0D01*
G01*
X58500000Y4500000D02*
G75*
G03*
X58500000Y4500000I-100000J0D01*
G01*
D11*
X32535809Y3295239D02*
X32573904Y3180953D01*
X32573904Y2990477D01*
X32535809Y2914286D01*
X32497714Y2876191D01*
X32421523Y2838096D01*
X32345333Y2838096D01*
X32269142Y2876191D01*
X32231047Y2914286D01*
X32192952Y2990477D01*
X32154857Y3142858D01*
X32116761Y3219048D01*
X32078666Y3257143D01*
X32002476Y3295239D01*
X31926285Y3295239D01*
X31850095Y3257143D01*
X31812000Y3219048D01*
X31773904Y3142858D01*
X31773904Y2952381D01*
X31812000Y2838096D01*
X32040571Y2609524D02*
X32040571Y2304762D01*
X31773904Y2495239D02*
X32459619Y2495239D01*
X32535809Y2457143D01*
X32573904Y2380953D01*
X32573904Y2304762D01*
X32535809Y1733334D02*
X32573904Y1809524D01*
X32573904Y1961905D01*
X32535809Y2038096D01*
X32459619Y2076191D01*
X32154857Y2076191D01*
X32078666Y2038096D01*
X32040571Y1961905D01*
X32040571Y1809524D01*
X32078666Y1733334D01*
X32154857Y1695239D01*
X32231047Y1695239D01*
X32307238Y2076191D01*
X32040571Y1352381D02*
X32840571Y1352381D01*
X32078666Y1352381D02*
X32040571Y1276191D01*
X32040571Y1123810D01*
X32078666Y1047620D01*
X32116761Y1009524D01*
X32192952Y971429D01*
X32421523Y971429D01*
X32497714Y1009524D01*
X32535809Y1047620D01*
X32573904Y1123810D01*
X32573904Y1276191D01*
X32535809Y1352381D01*
X32573904Y628572D02*
X31773904Y628572D01*
X32573904Y285715D02*
X32154857Y285715D01*
X32078666Y323810D01*
X32040571Y400000D01*
X32040571Y514286D01*
X32078666Y590477D01*
X32116761Y628572D01*
X32573904Y-438095D02*
X32154857Y-438095D01*
X32078666Y-400000D01*
X32040571Y-323809D01*
X32040571Y-171428D01*
X32078666Y-95238D01*
X32535809Y-438095D02*
X32573904Y-361904D01*
X32573904Y-171428D01*
X32535809Y-95238D01*
X32459619Y-57142D01*
X32383428Y-57142D01*
X32307238Y-95238D01*
X32269142Y-171428D01*
X32269142Y-361904D01*
X32231047Y-438095D01*
X32040571Y-819047D02*
X32573904Y-819047D01*
X32116761Y-819047D02*
X32078666Y-857142D01*
X32040571Y-933333D01*
X32040571Y-1047619D01*
X32078666Y-1123809D01*
X32154857Y-1161904D01*
X32573904Y-1161904D01*
X32573904Y-1542857D02*
X32040571Y-1542857D01*
X31773904Y-1542857D02*
X31812000Y-1504761D01*
X31850095Y-1542857D01*
X31812000Y-1580952D01*
X31773904Y-1542857D01*
X31850095Y-1542857D01*
X32535809Y-2228571D02*
X32573904Y-2152380D01*
X32573904Y-2000000D01*
X32535809Y-1923809D01*
X32459619Y-1885714D01*
X32154857Y-1885714D01*
X32078666Y-1923809D01*
X32040571Y-2000000D01*
X32040571Y-2152380D01*
X32078666Y-2228571D01*
X32154857Y-2266666D01*
X32231047Y-2266666D01*
X32307238Y-1885714D01*
X31773904Y-2647619D02*
X31926285Y-2571428D01*
X32535809Y-2952380D02*
X32573904Y-3028571D01*
X32573904Y-3180952D01*
X32535809Y-3257142D01*
X32459619Y-3295238D01*
X32421523Y-3295238D01*
X32345333Y-3257142D01*
X32307238Y-3180952D01*
X32307238Y-3066666D01*
X32269142Y-2990476D01*
X32192952Y-2952380D01*
X32154857Y-2952380D01*
X32078666Y-2990476D01*
X32040571Y-3066666D01*
X32040571Y-3180952D01*
X32078666Y-3257142D01*
X33861904Y3219048D02*
X33480952Y3485715D01*
X33861904Y3676191D02*
X33061904Y3676191D01*
X33061904Y3371429D01*
X33100000Y3295239D01*
X33138095Y3257143D01*
X33214285Y3219048D01*
X33328571Y3219048D01*
X33404761Y3257143D01*
X33442857Y3295239D01*
X33480952Y3371429D01*
X33480952Y3676191D01*
X33061904Y2990477D02*
X33061904Y2533334D01*
X33861904Y2761905D02*
X33061904Y2761905D01*
X33861904Y2342858D02*
X33328571Y1923810D01*
X33328571Y2342858D02*
X33861904Y1923810D01*
X33861904Y1009524D02*
X33061904Y1009524D01*
X33061904Y704762D01*
X33100000Y628572D01*
X33138095Y590477D01*
X33214285Y552381D01*
X33328571Y552381D01*
X33404761Y590477D01*
X33442857Y628572D01*
X33480952Y704762D01*
X33480952Y1009524D01*
X33861904Y209524D02*
X33061904Y209524D01*
X33061904Y19048D01*
X33100000Y-95238D01*
X33176190Y-171428D01*
X33252380Y-209523D01*
X33404761Y-247619D01*
X33519047Y-247619D01*
X33671428Y-209523D01*
X33747619Y-171428D01*
X33823809Y-95238D01*
X33861904Y19048D01*
X33861904Y209524D01*
X33861904Y-1200000D02*
X33061904Y-1200000D01*
X33861904Y-2038095D02*
X33480952Y-1771428D01*
X33861904Y-1580952D02*
X33061904Y-1580952D01*
X33061904Y-1885714D01*
X33100000Y-1961904D01*
X33138095Y-2000000D01*
X33214285Y-2038095D01*
X33328571Y-2038095D01*
X33404761Y-2000000D01*
X33442857Y-1961904D01*
X33480952Y-1885714D01*
X33480952Y-1580952D01*
X33061904Y-2533333D02*
X33061904Y-2685714D01*
X33100000Y-2761904D01*
X33176190Y-2838095D01*
X33328571Y-2876190D01*
X33595238Y-2876190D01*
X33747619Y-2838095D01*
X33823809Y-2761904D01*
X33861904Y-2685714D01*
X33861904Y-2533333D01*
X33823809Y-2457142D01*
X33747619Y-2380952D01*
X33595238Y-2342857D01*
X33328571Y-2342857D01*
X33176190Y-2380952D01*
X33100000Y-2457142D01*
X33061904Y-2533333D01*
X33861904Y-3219047D02*
X33061904Y-3219047D01*
X33861904Y-3676190D01*
X33061904Y-3676190D01*
X35149904Y1657143D02*
X34768952Y1923810D01*
X35149904Y2114286D02*
X34349904Y2114286D01*
X34349904Y1809524D01*
X34388000Y1733334D01*
X34426095Y1695239D01*
X34502285Y1657143D01*
X34616571Y1657143D01*
X34692761Y1695239D01*
X34730857Y1733334D01*
X34768952Y1809524D01*
X34768952Y2114286D01*
X35111809Y1009524D02*
X35149904Y1085715D01*
X35149904Y1238096D01*
X35111809Y1314286D01*
X35035619Y1352381D01*
X34730857Y1352381D01*
X34654666Y1314286D01*
X34616571Y1238096D01*
X34616571Y1085715D01*
X34654666Y1009524D01*
X34730857Y971429D01*
X34807047Y971429D01*
X34883238Y1352381D01*
X34616571Y704762D02*
X35149904Y514286D01*
X34616571Y323810D01*
X34349904Y-742857D02*
X34349904Y-819047D01*
X34388000Y-895238D01*
X34426095Y-933333D01*
X34502285Y-971428D01*
X34654666Y-1009523D01*
X34845142Y-1009523D01*
X34997523Y-971428D01*
X35073714Y-933333D01*
X35111809Y-895238D01*
X35149904Y-819047D01*
X35149904Y-742857D01*
X35111809Y-666666D01*
X35073714Y-628571D01*
X34997523Y-590476D01*
X34845142Y-552380D01*
X34654666Y-552380D01*
X34502285Y-590476D01*
X34426095Y-628571D01*
X34388000Y-666666D01*
X34349904Y-742857D01*
X35073714Y-1352380D02*
X35111809Y-1390476D01*
X35149904Y-1352380D01*
X35111809Y-1314285D01*
X35073714Y-1352380D01*
X35149904Y-1352380D01*
X35149904Y-2152380D02*
X35149904Y-1695238D01*
X35149904Y-1923809D02*
X34349904Y-1923809D01*
X34464190Y-1847619D01*
X34540380Y-1771428D01*
X34578476Y-1695238D01*
G04 #@! TO.C,C2*
X60680485Y3432242D02*
X60718580Y3470337D01*
X60756675Y3584623D01*
X60756675Y3660813D01*
X60718580Y3775099D01*
X60642390Y3851289D01*
X60566199Y3889385D01*
X60413818Y3927480D01*
X60299532Y3927480D01*
X60147151Y3889385D01*
X60070961Y3851289D01*
X59994771Y3775099D01*
X59956675Y3660813D01*
X59956675Y3584623D01*
X59994771Y3470337D01*
X60032866Y3432242D01*
X60032866Y3127480D02*
X59994771Y3089385D01*
X59956675Y3013194D01*
X59956675Y2822718D01*
X59994771Y2746528D01*
X60032866Y2708432D01*
X60109056Y2670337D01*
X60185247Y2670337D01*
X60299532Y2708432D01*
X60756675Y3165575D01*
X60756675Y2670337D01*
G04 #@! TO.C,C14*
X60414285Y1414286D02*
X60452380Y1376191D01*
X60566666Y1338096D01*
X60642857Y1338096D01*
X60757142Y1376191D01*
X60833333Y1452381D01*
X60871428Y1528572D01*
X60909523Y1680953D01*
X60909523Y1795239D01*
X60871428Y1947620D01*
X60833333Y2023810D01*
X60757142Y2100000D01*
X60642857Y2138096D01*
X60566666Y2138096D01*
X60452380Y2100000D01*
X60414285Y2061905D01*
X59652380Y1338096D02*
X60109523Y1338096D01*
X59880952Y1338096D02*
X59880952Y2138096D01*
X59957142Y2023810D01*
X60033333Y1947620D01*
X60109523Y1909524D01*
X58966666Y1871429D02*
X58966666Y1338096D01*
X59157142Y2176191D02*
X59347619Y1604762D01*
X58852380Y1604762D01*
G04 #@! TO.C,C31*
X36385714Y-2385714D02*
X36423809Y-2347619D01*
X36461904Y-2233333D01*
X36461904Y-2157142D01*
X36423809Y-2042857D01*
X36347619Y-1966666D01*
X36271428Y-1928571D01*
X36119047Y-1890476D01*
X36004761Y-1890476D01*
X35852380Y-1928571D01*
X35776190Y-1966666D01*
X35700000Y-2042857D01*
X35661904Y-2157142D01*
X35661904Y-2233333D01*
X35700000Y-2347619D01*
X35738095Y-2385714D01*
X35661904Y-2652380D02*
X35661904Y-3147619D01*
X35966666Y-2880952D01*
X35966666Y-2995238D01*
X36004761Y-3071428D01*
X36042857Y-3109523D01*
X36119047Y-3147619D01*
X36309523Y-3147619D01*
X36385714Y-3109523D01*
X36423809Y-3071428D01*
X36461904Y-2995238D01*
X36461904Y-2766666D01*
X36423809Y-2690476D01*
X36385714Y-2652380D01*
X36461904Y-3909523D02*
X36461904Y-3452380D01*
X36461904Y-3680952D02*
X35661904Y-3680952D01*
X35776190Y-3604761D01*
X35852380Y-3528571D01*
X35890476Y-3452380D01*
G04 #@! TO.C,C15*
X60214285Y-4585714D02*
X60252380Y-4623809D01*
X60366666Y-4661904D01*
X60442857Y-4661904D01*
X60557142Y-4623809D01*
X60633333Y-4547619D01*
X60671428Y-4471428D01*
X60709523Y-4319047D01*
X60709523Y-4204761D01*
X60671428Y-4052380D01*
X60633333Y-3976190D01*
X60557142Y-3900000D01*
X60442857Y-3861904D01*
X60366666Y-3861904D01*
X60252380Y-3900000D01*
X60214285Y-3938095D01*
X59452380Y-4661904D02*
X59909523Y-4661904D01*
X59680952Y-4661904D02*
X59680952Y-3861904D01*
X59757142Y-3976190D01*
X59833333Y-4052380D01*
X59909523Y-4090476D01*
X58728571Y-3861904D02*
X59109523Y-3861904D01*
X59147619Y-4242857D01*
X59109523Y-4204761D01*
X59033333Y-4166666D01*
X58842857Y-4166666D01*
X58766666Y-4204761D01*
X58728571Y-4242857D01*
X58690476Y-4319047D01*
X58690476Y-4509523D01*
X58728571Y-4585714D01*
X58766666Y-4623809D01*
X58842857Y-4661904D01*
X59033333Y-4661904D01*
X59109523Y-4623809D01*
X59147619Y-4585714D01*
G04 #@! TO.C,D1*
X23561904Y-2709523D02*
X22761904Y-2709523D01*
X22761904Y-2900000D01*
X22800000Y-3014285D01*
X22876190Y-3090476D01*
X22952380Y-3128571D01*
X23104761Y-3166666D01*
X23219047Y-3166666D01*
X23371428Y-3128571D01*
X23447619Y-3090476D01*
X23523809Y-3014285D01*
X23561904Y-2900000D01*
X23561904Y-2709523D01*
X23561904Y-3928571D02*
X23561904Y-3471428D01*
X23561904Y-3700000D02*
X22761904Y-3700000D01*
X22876190Y-3623809D01*
X22952380Y-3547619D01*
X22990476Y-3471428D01*
G04 #@! TO.C,C21*
X19114285Y-2585714D02*
X19152380Y-2623809D01*
X19266666Y-2661904D01*
X19342857Y-2661904D01*
X19457142Y-2623809D01*
X19533333Y-2547619D01*
X19571428Y-2471428D01*
X19609523Y-2319047D01*
X19609523Y-2204761D01*
X19571428Y-2052380D01*
X19533333Y-1976190D01*
X19457142Y-1900000D01*
X19342857Y-1861904D01*
X19266666Y-1861904D01*
X19152380Y-1900000D01*
X19114285Y-1938095D01*
X18809523Y-1938095D02*
X18771428Y-1900000D01*
X18695238Y-1861904D01*
X18504761Y-1861904D01*
X18428571Y-1900000D01*
X18390476Y-1938095D01*
X18352380Y-2014285D01*
X18352380Y-2090476D01*
X18390476Y-2204761D01*
X18847619Y-2661904D01*
X18352380Y-2661904D01*
X17590476Y-2661904D02*
X18047619Y-2661904D01*
X17819047Y-2661904D02*
X17819047Y-1861904D01*
X17895238Y-1976190D01*
X17971428Y-2052380D01*
X18047619Y-2090476D01*
G04 #@! TO.C,C22*
X29485714Y514286D02*
X29523809Y552381D01*
X29561904Y666667D01*
X29561904Y742858D01*
X29523809Y857143D01*
X29447619Y933334D01*
X29371428Y971429D01*
X29219047Y1009524D01*
X29104761Y1009524D01*
X28952380Y971429D01*
X28876190Y933334D01*
X28800000Y857143D01*
X28761904Y742858D01*
X28761904Y666667D01*
X28800000Y552381D01*
X28838095Y514286D01*
X28838095Y209524D02*
X28800000Y171429D01*
X28761904Y95239D01*
X28761904Y-95238D01*
X28800000Y-171428D01*
X28838095Y-209523D01*
X28914285Y-247619D01*
X28990476Y-247619D01*
X29104761Y-209523D01*
X29561904Y247620D01*
X29561904Y-247619D01*
X28838095Y-552380D02*
X28800000Y-590476D01*
X28761904Y-666666D01*
X28761904Y-857142D01*
X28800000Y-933333D01*
X28838095Y-971428D01*
X28914285Y-1009523D01*
X28990476Y-1009523D01*
X29104761Y-971428D01*
X29561904Y-514285D01*
X29561904Y-1009523D01*
G04 #@! TO.C,U3*
X57359758Y-3961904D02*
X57359758Y-4609523D01*
X57321663Y-4685714D01*
X57283568Y-4723809D01*
X57207377Y-4761904D01*
X57054996Y-4761904D01*
X56978806Y-4723809D01*
X56940711Y-4685714D01*
X56902615Y-4609523D01*
X56902615Y-3961904D01*
X56597854Y-3961904D02*
X56102615Y-3961904D01*
X56369282Y-4266666D01*
X56254996Y-4266666D01*
X56178806Y-4304761D01*
X56140711Y-4342857D01*
X56102615Y-4419047D01*
X56102615Y-4609523D01*
X56140711Y-4685714D01*
X56178806Y-4723809D01*
X56254996Y-4761904D01*
X56483568Y-4761904D01*
X56559758Y-4723809D01*
X56597854Y-4685714D01*
G04 #@! TO.C,U1*
X57209523Y5238096D02*
X57209523Y4590477D01*
X57171428Y4514286D01*
X57133333Y4476191D01*
X57057142Y4438096D01*
X56904761Y4438096D01*
X56828571Y4476191D01*
X56790476Y4514286D01*
X56752380Y4590477D01*
X56752380Y5238096D01*
X55952380Y4438096D02*
X56409523Y4438096D01*
X56180952Y4438096D02*
X56180952Y5238096D01*
X56257142Y5123810D01*
X56333333Y5047620D01*
X56409523Y5009524D01*
G04 #@! TO.C,C8*
X54785714Y-1466666D02*
X54823809Y-1428571D01*
X54861904Y-1314285D01*
X54861904Y-1238095D01*
X54823809Y-1123809D01*
X54747619Y-1047619D01*
X54671428Y-1009523D01*
X54519047Y-971428D01*
X54404761Y-971428D01*
X54252380Y-1009523D01*
X54176190Y-1047619D01*
X54100000Y-1123809D01*
X54061904Y-1238095D01*
X54061904Y-1314285D01*
X54100000Y-1428571D01*
X54138095Y-1466666D01*
X54404761Y-1923809D02*
X54366666Y-1847619D01*
X54328571Y-1809523D01*
X54252380Y-1771428D01*
X54214285Y-1771428D01*
X54138095Y-1809523D01*
X54100000Y-1847619D01*
X54061904Y-1923809D01*
X54061904Y-2076190D01*
X54100000Y-2152380D01*
X54138095Y-2190476D01*
X54214285Y-2228571D01*
X54252380Y-2228571D01*
X54328571Y-2190476D01*
X54366666Y-2152380D01*
X54404761Y-2076190D01*
X54404761Y-1923809D01*
X54442857Y-1847619D01*
X54480952Y-1809523D01*
X54557142Y-1771428D01*
X54709523Y-1771428D01*
X54785714Y-1809523D01*
X54823809Y-1847619D01*
X54861904Y-1923809D01*
X54861904Y-2076190D01*
X54823809Y-2152380D01*
X54785714Y-2190476D01*
X54709523Y-2228571D01*
X54557142Y-2228571D01*
X54480952Y-2190476D01*
X54442857Y-2152380D01*
X54404761Y-2076190D01*
G04 #@! TO.C,C4*
X53633333Y4514286D02*
X53671428Y4476191D01*
X53785714Y4438096D01*
X53861904Y4438096D01*
X53976190Y4476191D01*
X54052380Y4552381D01*
X54090476Y4628572D01*
X54128571Y4780953D01*
X54128571Y4895239D01*
X54090476Y5047620D01*
X54052380Y5123810D01*
X53976190Y5200000D01*
X53861904Y5238096D01*
X53785714Y5238096D01*
X53671428Y5200000D01*
X53633333Y5161905D01*
X52947619Y4971429D02*
X52947619Y4438096D01*
X53138095Y5276191D02*
X53328571Y4704762D01*
X52833333Y4704762D01*
G04 #@! TO.C,C3*
X54833333Y-585714D02*
X54871428Y-623809D01*
X54985714Y-661904D01*
X55061904Y-661904D01*
X55176190Y-623809D01*
X55252380Y-547619D01*
X55290476Y-471428D01*
X55328571Y-319047D01*
X55328571Y-204761D01*
X55290476Y-52380D01*
X55252380Y23810D01*
X55176190Y100000D01*
X55061904Y138096D01*
X54985714Y138096D01*
X54871428Y100000D01*
X54833333Y61905D01*
X54566666Y138096D02*
X54071428Y138096D01*
X54338095Y-166666D01*
X54223809Y-166666D01*
X54147619Y-204761D01*
X54109523Y-242857D01*
X54071428Y-319047D01*
X54071428Y-509523D01*
X54109523Y-585714D01*
X54147619Y-623809D01*
X54223809Y-661904D01*
X54452380Y-661904D01*
X54528571Y-623809D01*
X54566666Y-585714D01*
G04 #@! TO.C,C23*
X31285714Y514286D02*
X31323809Y552381D01*
X31361904Y666667D01*
X31361904Y742858D01*
X31323809Y857143D01*
X31247619Y933334D01*
X31171428Y971429D01*
X31019047Y1009524D01*
X30904761Y1009524D01*
X30752380Y971429D01*
X30676190Y933334D01*
X30600000Y857143D01*
X30561904Y742858D01*
X30561904Y666667D01*
X30600000Y552381D01*
X30638095Y514286D01*
X30638095Y209524D02*
X30600000Y171429D01*
X30561904Y95239D01*
X30561904Y-95238D01*
X30600000Y-171428D01*
X30638095Y-209523D01*
X30714285Y-247619D01*
X30790476Y-247619D01*
X30904761Y-209523D01*
X31361904Y247620D01*
X31361904Y-247619D01*
X30561904Y-514285D02*
X30561904Y-1009523D01*
X30866666Y-742857D01*
X30866666Y-857142D01*
X30904761Y-933333D01*
X30942857Y-971428D01*
X31019047Y-1009523D01*
X31209523Y-1009523D01*
X31285714Y-971428D01*
X31323809Y-933333D01*
X31361904Y-857142D01*
X31361904Y-628571D01*
X31323809Y-552380D01*
X31285714Y-514285D01*
G04 #@! TO.C,C24*
X27685714Y514286D02*
X27723809Y552381D01*
X27761904Y666667D01*
X27761904Y742858D01*
X27723809Y857143D01*
X27647619Y933334D01*
X27571428Y971429D01*
X27419047Y1009524D01*
X27304761Y1009524D01*
X27152380Y971429D01*
X27076190Y933334D01*
X27000000Y857143D01*
X26961904Y742858D01*
X26961904Y666667D01*
X27000000Y552381D01*
X27038095Y514286D01*
X27038095Y209524D02*
X27000000Y171429D01*
X26961904Y95239D01*
X26961904Y-95238D01*
X27000000Y-171428D01*
X27038095Y-209523D01*
X27114285Y-247619D01*
X27190476Y-247619D01*
X27304761Y-209523D01*
X27761904Y247620D01*
X27761904Y-247619D01*
X27228571Y-933333D02*
X27761904Y-933333D01*
X26923809Y-742857D02*
X27495238Y-552380D01*
X27495238Y-1047619D01*
G04 #@! TO.C,J3*
X46966666Y4438096D02*
X46966666Y3866667D01*
X47004761Y3752381D01*
X47080952Y3676191D01*
X47195238Y3638096D01*
X47271428Y3638096D01*
X46661904Y4438096D02*
X46166666Y4438096D01*
X46433333Y4133334D01*
X46319047Y4133334D01*
X46242857Y4095239D01*
X46204761Y4057143D01*
X46166666Y3980953D01*
X46166666Y3790477D01*
X46204761Y3714286D01*
X46242857Y3676191D01*
X46319047Y3638096D01*
X46547619Y3638096D01*
X46623809Y3676191D01*
X46661904Y3714286D01*
X50461904Y5016667D02*
X49661904Y5016667D01*
X49661904Y4850000D01*
X49700000Y4750000D01*
X49776190Y4683334D01*
X49852380Y4650000D01*
X50004761Y4616667D01*
X50119047Y4616667D01*
X50271428Y4650000D01*
X50347619Y4683334D01*
X50423809Y4750000D01*
X50461904Y4850000D01*
X50461904Y5016667D01*
X50461904Y4316667D02*
X49661904Y4316667D01*
X49661904Y3850000D02*
X49661904Y3716667D01*
X49700000Y3650000D01*
X49776190Y3583334D01*
X49928571Y3550000D01*
X50195238Y3550000D01*
X50347619Y3583334D01*
X50423809Y3650000D01*
X50461904Y3716667D01*
X50461904Y3850000D01*
X50423809Y3916667D01*
X50347619Y3983334D01*
X50195238Y4016667D01*
X49928571Y4016667D01*
X49776190Y3983334D01*
X49700000Y3916667D01*
X49661904Y3850000D01*
X49161904Y-3916666D02*
X48780952Y-3683333D01*
X49161904Y-3516666D02*
X48361904Y-3516666D01*
X48361904Y-3783333D01*
X48400000Y-3850000D01*
X48438095Y-3883333D01*
X48514285Y-3916666D01*
X48628571Y-3916666D01*
X48704761Y-3883333D01*
X48742857Y-3850000D01*
X48780952Y-3783333D01*
X48780952Y-3516666D01*
X49123809Y-4183333D02*
X49161904Y-4283333D01*
X49161904Y-4450000D01*
X49123809Y-4516666D01*
X49085714Y-4550000D01*
X49009523Y-4583333D01*
X48933333Y-4583333D01*
X48857142Y-4550000D01*
X48819047Y-4516666D01*
X48780952Y-4450000D01*
X48742857Y-4316666D01*
X48704761Y-4250000D01*
X48666666Y-4216666D01*
X48590476Y-4183333D01*
X48514285Y-4183333D01*
X48438095Y-4216666D01*
X48400000Y-4250000D01*
X48361904Y-4316666D01*
X48361904Y-4483333D01*
X48400000Y-4583333D01*
X48361904Y-4783333D02*
X48361904Y-5183333D01*
X49161904Y-4983333D02*
X48361904Y-4983333D01*
X50423809Y-3333333D02*
X50461904Y-3433333D01*
X50461904Y-3600000D01*
X50423809Y-3666666D01*
X50385714Y-3700000D01*
X50309523Y-3733333D01*
X50233333Y-3733333D01*
X50157142Y-3700000D01*
X50119047Y-3666666D01*
X50080952Y-3600000D01*
X50042857Y-3466666D01*
X50004761Y-3400000D01*
X49966666Y-3366666D01*
X49890476Y-3333333D01*
X49814285Y-3333333D01*
X49738095Y-3366666D01*
X49700000Y-3400000D01*
X49661904Y-3466666D01*
X49661904Y-3633333D01*
X49700000Y-3733333D01*
X49661904Y-3966666D02*
X50461904Y-4133333D01*
X49890476Y-4266666D01*
X50461904Y-4400000D01*
X49661904Y-4566666D01*
X49661904Y-4966666D02*
X49661904Y-5100000D01*
X49700000Y-5166666D01*
X49776190Y-5233333D01*
X49928571Y-5266666D01*
X50195238Y-5266666D01*
X50347619Y-5233333D01*
X50423809Y-5166666D01*
X50461904Y-5100000D01*
X50461904Y-4966666D01*
X50423809Y-4900000D01*
X50347619Y-4833333D01*
X50195238Y-4800000D01*
X49928571Y-4800000D01*
X49776190Y-4833333D01*
X49700000Y-4900000D01*
X49661904Y-4966666D01*
X49085714Y4716667D02*
X49123809Y4750000D01*
X49161904Y4850000D01*
X49161904Y4916667D01*
X49123809Y5016667D01*
X49047619Y5083334D01*
X48971428Y5116667D01*
X48819047Y5150000D01*
X48704761Y5150000D01*
X48552380Y5116667D01*
X48476190Y5083334D01*
X48400000Y5016667D01*
X48361904Y4916667D01*
X48361904Y4850000D01*
X48400000Y4750000D01*
X48438095Y4716667D01*
X49161904Y4083334D02*
X49161904Y4416667D01*
X48361904Y4416667D01*
X49161904Y3850000D02*
X48361904Y3850000D01*
X49161904Y3450000D02*
X48704761Y3750000D01*
X48361904Y3450000D02*
X48819047Y3850000D01*
X50961904Y-3433333D02*
X50961904Y-3866666D01*
X51266666Y-3633333D01*
X51266666Y-3733333D01*
X51304761Y-3800000D01*
X51342857Y-3833333D01*
X51419047Y-3866666D01*
X51609523Y-3866666D01*
X51685714Y-3833333D01*
X51723809Y-3800000D01*
X51761904Y-3733333D01*
X51761904Y-3533333D01*
X51723809Y-3466666D01*
X51685714Y-3433333D01*
X50961904Y-4066666D02*
X51761904Y-4300000D01*
X50961904Y-4533333D01*
X50961904Y-4700000D02*
X50961904Y-5133333D01*
X51266666Y-4900000D01*
X51266666Y-5000000D01*
X51304761Y-5066666D01*
X51342857Y-5100000D01*
X51419047Y-5133333D01*
X51609523Y-5133333D01*
X51685714Y-5100000D01*
X51723809Y-5066666D01*
X51761904Y-5000000D01*
X51761904Y-4800000D01*
X51723809Y-4733333D01*
X51685714Y-4700000D01*
X51000000Y4833334D02*
X50961904Y4900000D01*
X50961904Y5000000D01*
X51000000Y5100000D01*
X51076190Y5166667D01*
X51152380Y5200000D01*
X51304761Y5233334D01*
X51419047Y5233334D01*
X51571428Y5200000D01*
X51647619Y5166667D01*
X51723809Y5100000D01*
X51761904Y5000000D01*
X51761904Y4933334D01*
X51723809Y4833334D01*
X51685714Y4800000D01*
X51419047Y4800000D01*
X51419047Y4933334D01*
X51761904Y4500000D02*
X50961904Y4500000D01*
X51761904Y4100000D01*
X50961904Y4100000D01*
X51761904Y3766667D02*
X50961904Y3766667D01*
X50961904Y3600000D01*
X51000000Y3500000D01*
X51076190Y3433334D01*
X51152380Y3400000D01*
X51304761Y3366667D01*
X51419047Y3366667D01*
X51571428Y3400000D01*
X51647619Y3433334D01*
X51723809Y3500000D01*
X51761904Y3600000D01*
X51761904Y3766667D01*
G04 #@! TO.C,C9*
X53485714Y-3566666D02*
X53523809Y-3528571D01*
X53561904Y-3414285D01*
X53561904Y-3338095D01*
X53523809Y-3223809D01*
X53447619Y-3147619D01*
X53371428Y-3109523D01*
X53219047Y-3071428D01*
X53104761Y-3071428D01*
X52952380Y-3109523D01*
X52876190Y-3147619D01*
X52800000Y-3223809D01*
X52761904Y-3338095D01*
X52761904Y-3414285D01*
X52800000Y-3528571D01*
X52838095Y-3566666D01*
X53561904Y-3947619D02*
X53561904Y-4100000D01*
X53523809Y-4176190D01*
X53485714Y-4214285D01*
X53371428Y-4290476D01*
X53219047Y-4328571D01*
X52914285Y-4328571D01*
X52838095Y-4290476D01*
X52800000Y-4252380D01*
X52761904Y-4176190D01*
X52761904Y-4023809D01*
X52800000Y-3947619D01*
X52838095Y-3909523D01*
X52914285Y-3871428D01*
X53104761Y-3871428D01*
X53180952Y-3909523D01*
X53219047Y-3947619D01*
X53257142Y-4023809D01*
X53257142Y-4176190D01*
X53219047Y-4252380D01*
X53180952Y-4290476D01*
X53104761Y-4328571D01*
G04 #@! TO.C,U4*
X40459221Y-4078781D02*
X40917157Y-3620845D01*
X40997969Y-3593908D01*
X41051844Y-3593908D01*
X41132656Y-3620845D01*
X41240406Y-3728595D01*
X41267343Y-3809407D01*
X41267343Y-3863282D01*
X41240406Y-3944094D01*
X40782470Y-4402030D01*
X41482842Y-4725279D02*
X41859966Y-4348155D01*
X41132656Y-4806091D02*
X41402030Y-4267343D01*
X41752216Y-4617529D01*
G04 #@! TO.C,C1*
X66409694Y2858556D02*
X66447789Y2896651D01*
X66485884Y3010937D01*
X66485884Y3087127D01*
X66447789Y3201413D01*
X66371599Y3277603D01*
X66295408Y3315699D01*
X66143027Y3353794D01*
X66028741Y3353794D01*
X65876360Y3315699D01*
X65800170Y3277603D01*
X65723980Y3201413D01*
X65685884Y3087127D01*
X65685884Y3010937D01*
X65723980Y2896651D01*
X65762075Y2858556D01*
X66485884Y2096651D02*
X66485884Y2553794D01*
X66485884Y2325222D02*
X65685884Y2325222D01*
X65800170Y2401413D01*
X65876360Y2477603D01*
X65914456Y2553794D01*
G04 #@! TO.C,D2*
X25090476Y3138096D02*
X25090476Y3938096D01*
X24900000Y3938096D01*
X24785714Y3900000D01*
X24709523Y3823810D01*
X24671428Y3747620D01*
X24633333Y3595239D01*
X24633333Y3480953D01*
X24671428Y3328572D01*
X24709523Y3252381D01*
X24785714Y3176191D01*
X24900000Y3138096D01*
X25090476Y3138096D01*
X24328571Y3861905D02*
X24290476Y3900000D01*
X24214285Y3938096D01*
X24023809Y3938096D01*
X23947619Y3900000D01*
X23909523Y3861905D01*
X23871428Y3785715D01*
X23871428Y3709524D01*
X23909523Y3595239D01*
X24366666Y3138096D01*
X23871428Y3138096D01*
D12*
G04 #@! TO.C,C2*
X58894771Y2598908D02*
X58894771Y3998908D01*
X59694771Y2598908D02*
X59694771Y3998908D01*
G04 #@! TO.C,C14*
X56700000Y1000000D02*
X58100000Y1000000D01*
X56700000Y200000D02*
X58100000Y200000D01*
G04 #@! TO.C,C31*
X36500000Y-200000D02*
X36500000Y-1600000D01*
X35700000Y-200000D02*
X35700000Y-1600000D01*
G04 #@! TO.C,C15*
X60400000Y-3600000D02*
X59000000Y-3600000D01*
X60400000Y-2800000D02*
X59000000Y-2800000D01*
G04 #@! TO.C,D1*
X22535000Y-2220000D02*
X22535000Y-4100000D01*
X21065000Y-2215000D02*
X22535000Y-2215000D01*
X21065000Y-4100000D02*
X21065000Y-2220000D01*
G04 #@! TO.C,C21*
X19028733Y-4110000D02*
X19371267Y-4110000D01*
X19028733Y-3090000D02*
X19371267Y-3090000D01*
G04 #@! TO.C,C22*
X28690000Y-2971267D02*
X28690000Y-2628733D01*
X29710000Y-2971267D02*
X29710000Y-2628733D01*
G04 #@! TO.C,U3*
X55443521Y-3228451D02*
X55918521Y-3228451D01*
X58163521Y-733451D02*
X58163521Y-508451D01*
X55443521Y-733451D02*
X55443521Y-508451D01*
X58163521Y-508451D02*
X57688521Y-508451D01*
X55443521Y-3003451D02*
X55443521Y-3228451D01*
X58163521Y-3003451D02*
X58163521Y-3228451D01*
X55443521Y-508451D02*
X55918521Y-508451D01*
G04 #@! TO.C,U1*
X56600000Y4360000D02*
X58400000Y4360000D01*
X56600000Y1240000D02*
X57400000Y1240000D01*
X56600000Y1240000D02*
X55800000Y1240000D01*
X56600000Y4360000D02*
X55800000Y4360000D01*
G04 #@! TO.C,C8*
X53609757Y677705D02*
X53609757Y-722295D01*
X52809757Y677705D02*
X52809757Y-722295D01*
G04 #@! TO.C,C4*
X52990000Y2871267D02*
X52990000Y2528733D01*
X54010000Y2871267D02*
X54010000Y2528733D01*
G04 #@! TO.C,C3*
X54700000Y200000D02*
X56100000Y200000D01*
X54700000Y1000000D02*
X56100000Y1000000D01*
G04 #@! TO.C,C23*
X31510000Y-2971267D02*
X31510000Y-2628733D01*
X30490000Y-2971267D02*
X30490000Y-2628733D01*
G04 #@! TO.C,C24*
X27910000Y-2971267D02*
X27910000Y-2628733D01*
X26890000Y-2971267D02*
X26890000Y-2628733D01*
G04 #@! TO.C,J3*
X48085000Y-1765000D02*
X48085000Y1765000D01*
X51950000Y-3090000D02*
X51950000Y-1765000D01*
X48150000Y-1765000D02*
X48085000Y-1765000D01*
X52015000Y1765000D02*
X51950000Y1765000D01*
X48150000Y1765000D02*
X48085000Y1765000D01*
X52015000Y-1765000D02*
X51950000Y-1765000D01*
X52015000Y-1765000D02*
X52015000Y1765000D01*
G04 #@! TO.C,C9*
X53600000Y-2704524D02*
X53600000Y-1304524D01*
X52800000Y-2704524D02*
X52800000Y-1304524D01*
G04 #@! TO.C,U4*
X45891097Y0D02*
X45555222Y335876D01*
X45555222Y-335876D02*
X45891097Y0D01*
X42535876Y-3355222D02*
X42200000Y-3691097D01*
X38844778Y335876D02*
X38508903Y0D01*
X41864124Y3355222D02*
X42200000Y3691097D01*
X38508903Y0D02*
X38844778Y-335876D01*
X42200000Y3691097D02*
X42535876Y3355222D01*
G04 #@! TO.C,C1*
X65333980Y2896489D02*
X65333980Y2553955D01*
X64313980Y2896489D02*
X64313980Y2553955D01*
G04 #@! TO.C,D2*
X23500000Y1890000D02*
X24000000Y1890000D01*
X23500000Y2910000D02*
X24000000Y2910000D01*
X23500000Y1900000D02*
X23500000Y2900000D01*
G04 #@! TD*
M02*
