G04 #@! TF.GenerationSoftware,KiCad,Pcbnew,(5.99.0-3477-gacf13a186)*
G04 #@! TF.CreationDate,2020-09-29T20:08:32-07:00*
G04 #@! TF.ProjectId,RT_USB_PD_Soldering_Iron,52545f55-5342-45f5-9044-5f536f6c6465,rev?*
G04 #@! TF.SameCoordinates,Original*
G04 #@! TF.FileFunction,Copper,L3,Inr*
G04 #@! TF.FilePolarity,Positive*
%FSLAX46Y46*%
G04 Gerber Fmt 4.6, Leading zero omitted, Abs format (unit mm)*
G04 Created by KiCad (PCBNEW (5.99.0-3477-gacf13a186)) date 2020-09-29 20:08:32*
%MOMM*%
%LPD*%
G01*
G04 APERTURE LIST*
G04 #@! TA.AperFunction,ViaPad*
%ADD10C,0.700000*%
G04 #@! TD*
G04 #@! TA.AperFunction,ViaPad*
%ADD11C,1.000000*%
G04 #@! TD*
G04 #@! TA.AperFunction,ViaPad*
%ADD12C,0.800000*%
G04 #@! TD*
G04 #@! TA.AperFunction,Conductor*
%ADD13C,1.400000*%
G04 #@! TD*
G04 #@! TA.AperFunction,Conductor*
%ADD14C,2.000000*%
G04 #@! TD*
G04 #@! TA.AperFunction,Conductor*
%ADD15C,0.500000*%
G04 #@! TD*
G04 #@! TA.AperFunction,Conductor*
%ADD16C,0.254000*%
G04 #@! TD*
G04 APERTURE END LIST*
D10*
G04 #@! TO.N,GND*
X152400000Y-120500000D03*
X150600000Y-120600000D03*
X119200000Y-129700000D03*
G04 #@! TO.N,IN*
X124700000Y-124700000D03*
X124700000Y-125700000D03*
X125400000Y-124200000D03*
D11*
X184400000Y-129300000D03*
X191700000Y-122600000D03*
X183000000Y-129300000D03*
D10*
X125400000Y-125200000D03*
D11*
X191700000Y-127400000D03*
X124950000Y-129300000D03*
D10*
X125400000Y-126200000D03*
D12*
G04 #@! TO.N,+3V3*
X173700000Y-125900000D03*
X171500000Y-125898157D03*
D10*
X136900000Y-125698616D03*
D12*
X152527335Y-127996790D03*
D10*
X151605846Y-121043882D03*
X185250000Y-126200000D03*
X140800000Y-125700000D03*
D12*
X162300000Y-125898157D03*
D10*
X136100000Y-120900000D03*
X153700000Y-120500000D03*
D12*
X182100000Y-125954332D03*
D10*
X140800000Y-120900000D03*
G04 #@! TO.N,/BTN1*
X179570952Y-128046790D03*
X156867571Y-126835625D03*
G04 #@! TO.N,/BTN2*
X177100000Y-120300000D03*
X155100000Y-120600000D03*
G04 #@! TO.N,Net-(C10-Pad1)*
X181800000Y-125000000D03*
X173300000Y-125000000D03*
G04 #@! TO.N,/HEATER*
X121800000Y-127700000D03*
X119050000Y-126200000D03*
X119850000Y-126200000D03*
X118700000Y-127700000D03*
X121450000Y-125400000D03*
X119050000Y-125400000D03*
X118700000Y-126900000D03*
X121800000Y-126900000D03*
X119050000Y-124600000D03*
X120650000Y-126200000D03*
X121450000Y-124600000D03*
X121450000Y-126200000D03*
G04 #@! TO.N,/OSC_IN*
X149251124Y-128046790D03*
G04 #@! TO.N,/OSC_OUT*
X151117218Y-127589579D03*
G04 #@! TO.N,/TEMP_SENS*
X149051001Y-127039470D03*
X139000000Y-127140630D03*
G04 #@! TO.N,/USB_DP*
X186900000Y-121700000D03*
X157080045Y-121880210D03*
G04 #@! TO.N,/CC2*
X157895284Y-126818064D03*
X184600000Y-125100000D03*
X194500000Y-123300000D03*
G04 #@! TO.N,/USB_DM*
X183200000Y-121000000D03*
X156000000Y-121798126D03*
G04 #@! TO.N,/CC1*
X158538610Y-127480210D03*
X187800000Y-125100000D03*
G04 #@! TO.N,/TIP_TC*
X107100000Y-120900000D03*
X131800000Y-120900000D03*
G04 #@! TO.N,/I2C1_SCL*
X157913030Y-124871366D03*
X171100000Y-123400000D03*
G04 #@! TO.N,/I2C1_SDA*
X160300000Y-122400000D03*
X175000000Y-123500000D03*
X171100000Y-122400000D03*
X155800000Y-127996790D03*
G04 #@! TO.N,/VSENSE*
X132000000Y-125600000D03*
X148918659Y-126027018D03*
G04 #@! TO.N,/HEAT_ON*
X148800000Y-120900000D03*
X128500000Y-127900000D03*
G04 #@! TO.N,Net-(R16-Pad1)*
X137000000Y-123819790D03*
G04 #@! TO.N,Net-(R17-Pad2)*
X134100000Y-127300000D03*
G04 #@! TO.N,/INT0*
X142000000Y-120700000D03*
G04 #@! TO.N,/SPI1_MISO*
X148500000Y-122480210D03*
G04 #@! TO.N,/SPI1_NSS*
X147600000Y-123840630D03*
G04 #@! TO.N,/SPI1_MOSI*
X146180982Y-121819018D03*
G04 #@! TO.N,/SPI1_SCK*
X146600000Y-123160420D03*
G04 #@! TO.N,/DISP_RST#*
X154487083Y-128009707D03*
X166550667Y-124446996D03*
G04 #@! TO.N,/NRST*
X149898389Y-127416838D03*
X158000000Y-122500000D03*
G04 #@! TO.N,GND*
X165600000Y-124400000D03*
X121100000Y-121700000D03*
X181900000Y-123700000D03*
X182600000Y-128046790D03*
X131900000Y-123700000D03*
X120300000Y-121700000D03*
X121700000Y-122300000D03*
X126600000Y-126150000D03*
X100700000Y-129200000D03*
X119500000Y-121700000D03*
X135100000Y-123100000D03*
X104700000Y-129700000D03*
X101300000Y-129700000D03*
X110500000Y-128700000D03*
X176200000Y-123400000D03*
X136900000Y-128046790D03*
X135100000Y-125200000D03*
X127700000Y-121550000D03*
X153500000Y-128046790D03*
X154800000Y-124500000D03*
X118800000Y-122300000D03*
X126600000Y-124300000D03*
X118800000Y-123100000D03*
X121700000Y-123100000D03*
X110500000Y-129800000D03*
X131900000Y-127000000D03*
X171700000Y-124600000D03*
X190000000Y-123000000D03*
X155100000Y-121700000D03*
X186200000Y-120999835D03*
X105300000Y-129200000D03*
X141600000Y-127900000D03*
X151200000Y-124500000D03*
X139900000Y-123200000D03*
X159200000Y-122400000D03*
X126600000Y-125200000D03*
X119200000Y-128700000D03*
X101300000Y-128700000D03*
X183100000Y-123100000D03*
X104700000Y-128700000D03*
X143900000Y-127900000D03*
X147600000Y-126700000D03*
X118700000Y-129200000D03*
X118200000Y-129700000D03*
D12*
G04 #@! TO.N,/HEATER_PG*
X128300000Y-122600000D03*
G04 #@! TD*
D13*
G04 #@! TO.N,IN*
X142600000Y-129300000D02*
X124950000Y-129300000D01*
X142600000Y-129300000D02*
X183000000Y-129300000D01*
D14*
X191700000Y-127400000D02*
X191700000Y-126692894D01*
X191700000Y-126692894D02*
X191700000Y-122600000D01*
D15*
G04 #@! TO.N,+3V3*
X152527335Y-121672665D02*
X152527335Y-127996790D01*
X151515625Y-121200000D02*
X151515625Y-121134103D01*
X151515625Y-121134103D02*
X151605846Y-121043882D01*
X140800000Y-125700000D02*
X146949728Y-125700000D01*
X153700000Y-120500000D02*
X152527335Y-121672665D01*
X146949728Y-125700000D02*
X151605846Y-121043882D01*
X140800000Y-125700000D02*
X140800000Y-120900000D01*
D16*
G04 #@! TO.N,/DISP_RST#*
X158627887Y-126072113D02*
X156424677Y-126072113D01*
X156424677Y-126072113D02*
X154487083Y-128009707D01*
X166550667Y-124446996D02*
X165897663Y-125100000D01*
X159600000Y-125100000D02*
X158627887Y-126072113D01*
X165897663Y-125100000D02*
X159600000Y-125100000D01*
G04 #@! TD*
G04 #@! TA.AperFunction,Conductor*
G04 #@! TO.N,IN*
G36*
X184555765Y-128617550D02*
G01*
X184665366Y-128655902D01*
X184703718Y-128669322D01*
X184836443Y-128752718D01*
X184947282Y-128863557D01*
X185030678Y-128996282D01*
X185082450Y-129144235D01*
X185100000Y-129300000D01*
X185082450Y-129455765D01*
X185048794Y-129551946D01*
X185030678Y-129603718D01*
X184947282Y-129736443D01*
X184836443Y-129847282D01*
X184703718Y-129930678D01*
X184665366Y-129944098D01*
X184555765Y-129982450D01*
X184400000Y-130000000D01*
X183000000Y-130000000D01*
X182844235Y-129982450D01*
X182734634Y-129944098D01*
X182696282Y-129930678D01*
X182563557Y-129847282D01*
X182452718Y-129736443D01*
X182369322Y-129603718D01*
X182351206Y-129551946D01*
X182317550Y-129455765D01*
X182300000Y-129300000D01*
X182317550Y-129144235D01*
X182369322Y-128996282D01*
X182452718Y-128863557D01*
X182563557Y-128752718D01*
X182696282Y-128669322D01*
X182734634Y-128655902D01*
X182844235Y-128617550D01*
X183000000Y-128600000D01*
X184400000Y-128600000D01*
X184555765Y-128617550D01*
G37*
G04 #@! TD.AperFunction*
G04 #@! TD*
G04 #@! TA.AperFunction,Conductor*
G04 #@! TO.N,GND*
G36*
X176786159Y-119721293D02*
G01*
X176811879Y-119765842D01*
X176788722Y-119834255D01*
X176781145Y-119841223D01*
X176781142Y-119841224D01*
X176725133Y-119892727D01*
X176669513Y-119943872D01*
X176589602Y-120072756D01*
X176549562Y-120210578D01*
X176547294Y-120218383D01*
X176545706Y-120370024D01*
X176584955Y-120516505D01*
X176660280Y-120643872D01*
X176662151Y-120647036D01*
X176704199Y-120687359D01*
X176771604Y-120751998D01*
X176859946Y-120799366D01*
X176905253Y-120823659D01*
X177053249Y-120856741D01*
X177204691Y-120848804D01*
X177348418Y-120800434D01*
X177473842Y-120715196D01*
X177473843Y-120715195D01*
X177571726Y-120599366D01*
X177634854Y-120461482D01*
X177640474Y-120426000D01*
X192538946Y-120426000D01*
X193496001Y-120426001D01*
X193496001Y-119976800D01*
X194004000Y-119976800D01*
X194004000Y-120426000D01*
X194960097Y-120426001D01*
X194960097Y-120426000D01*
X196868946Y-120426000D01*
X197676001Y-120426001D01*
X197676001Y-119976800D01*
X198184000Y-119976800D01*
X198184000Y-120426000D01*
X198990097Y-120426001D01*
X198915736Y-120281931D01*
X198803879Y-120153706D01*
X198664660Y-120055862D01*
X198506123Y-119994049D01*
X198375097Y-119976800D01*
X198184000Y-119976800D01*
X197676001Y-119976800D01*
X197488679Y-119976800D01*
X197361070Y-119992243D01*
X197201895Y-120052390D01*
X197061658Y-120148771D01*
X196948462Y-120275820D01*
X196868946Y-120426000D01*
X194960097Y-120426000D01*
X194885736Y-120281931D01*
X194773879Y-120153706D01*
X194634660Y-120055862D01*
X194476123Y-119994049D01*
X194345097Y-119976800D01*
X194004000Y-119976800D01*
X193496001Y-119976800D01*
X193158679Y-119976800D01*
X193031070Y-119992243D01*
X192871895Y-120052390D01*
X192731658Y-120148771D01*
X192618462Y-120275820D01*
X192538946Y-120426000D01*
X177640474Y-120426000D01*
X177658577Y-120311703D01*
X177658700Y-120299998D01*
X177638119Y-120149755D01*
X177637694Y-120148771D01*
X177604635Y-120072377D01*
X177577892Y-120010577D01*
X177482458Y-119892727D01*
X177482456Y-119892725D01*
X177408541Y-119840196D01*
X177379332Y-119797856D01*
X177384173Y-119746644D01*
X177420799Y-119710526D01*
X177452104Y-119703700D01*
X199796300Y-119703700D01*
X199796301Y-130196300D01*
X184923941Y-130196300D01*
X184875603Y-130178707D01*
X184849883Y-130134158D01*
X184858816Y-130083500D01*
X184883932Y-130057426D01*
X184886242Y-130055975D01*
X184944551Y-130019337D01*
X184944556Y-130019334D01*
X184980130Y-129990964D01*
X185090964Y-129880130D01*
X185119337Y-129844552D01*
X185154583Y-129788457D01*
X185202733Y-129711826D01*
X185222475Y-129670832D01*
X185240591Y-129619060D01*
X185256358Y-129573999D01*
X192539903Y-129573999D01*
X192614264Y-129718069D01*
X192726121Y-129846294D01*
X192865340Y-129944138D01*
X193023877Y-130005951D01*
X193154903Y-130023200D01*
X193496000Y-130023200D01*
X194003999Y-130023200D01*
X194341321Y-130023200D01*
X194468930Y-130007757D01*
X194628105Y-129947610D01*
X194768342Y-129851229D01*
X194881538Y-129724180D01*
X194961054Y-129574000D01*
X194003999Y-129573999D01*
X196869903Y-129573999D01*
X196944264Y-129718069D01*
X197056121Y-129846294D01*
X197195340Y-129944138D01*
X197353877Y-130005951D01*
X197484903Y-130023200D01*
X197676000Y-130023200D01*
X198183999Y-130023200D01*
X198371321Y-130023200D01*
X198498930Y-130007757D01*
X198658105Y-129947610D01*
X198798342Y-129851229D01*
X198911538Y-129724180D01*
X198991054Y-129574000D01*
X198183999Y-129573999D01*
X198183999Y-130023200D01*
X197676000Y-130023200D01*
X197676000Y-129574000D01*
X196869903Y-129573999D01*
X194003999Y-129573999D01*
X194003999Y-130023200D01*
X193496000Y-130023200D01*
X193496000Y-129574000D01*
X192539903Y-129573999D01*
X185256358Y-129573999D01*
X185274247Y-129522879D01*
X185284372Y-129478516D01*
X185301922Y-129322751D01*
X185301922Y-129277249D01*
X185284372Y-129121484D01*
X185274247Y-129077121D01*
X185270356Y-129066000D01*
X192538946Y-129066000D01*
X193496001Y-129066001D01*
X193496001Y-128616800D01*
X194004000Y-128616800D01*
X194004000Y-129066000D01*
X194960097Y-129066001D01*
X194960097Y-129066000D01*
X196868946Y-129066000D01*
X197676001Y-129066001D01*
X197676001Y-128616800D01*
X198184000Y-128616800D01*
X198184000Y-129066000D01*
X198990097Y-129066001D01*
X198915736Y-128921931D01*
X198803879Y-128793706D01*
X198664660Y-128695862D01*
X198506123Y-128634049D01*
X198375097Y-128616800D01*
X198184000Y-128616800D01*
X197676001Y-128616800D01*
X197488679Y-128616800D01*
X197361070Y-128632243D01*
X197201895Y-128692390D01*
X197061658Y-128788771D01*
X196948462Y-128915820D01*
X196868946Y-129066000D01*
X194960097Y-129066000D01*
X194885736Y-128921931D01*
X194773879Y-128793706D01*
X194634660Y-128695862D01*
X194476123Y-128634049D01*
X194345097Y-128616800D01*
X194004000Y-128616800D01*
X193496001Y-128616800D01*
X193158679Y-128616800D01*
X193031070Y-128632243D01*
X192871895Y-128692390D01*
X192731658Y-128788771D01*
X192618462Y-128915820D01*
X192538946Y-129066000D01*
X185270356Y-129066000D01*
X185222475Y-128929168D01*
X185202733Y-128888174D01*
X185176012Y-128845647D01*
X185119337Y-128755448D01*
X185090964Y-128719870D01*
X184980130Y-128609036D01*
X184944556Y-128580666D01*
X184811821Y-128497264D01*
X184770836Y-128477527D01*
X184770833Y-128477526D01*
X184770831Y-128477525D01*
X184732480Y-128464105D01*
X184622880Y-128425753D01*
X184600697Y-128420690D01*
X184578516Y-128415628D01*
X184422751Y-128398078D01*
X184400000Y-128396800D01*
X183052329Y-128396800D01*
X183047572Y-128396300D01*
X180019720Y-128396300D01*
X180080615Y-128263295D01*
X180105806Y-128208272D01*
X180120292Y-128116813D01*
X180129529Y-128058493D01*
X180129652Y-128046788D01*
X180111623Y-127915173D01*
X180109071Y-127896544D01*
X180069925Y-127806084D01*
X180048844Y-127757367D01*
X179953410Y-127639517D01*
X179953408Y-127639515D01*
X179829795Y-127551668D01*
X179829794Y-127551668D01*
X179829793Y-127551667D01*
X179687113Y-127500299D01*
X179535870Y-127489191D01*
X179387216Y-127519166D01*
X179387214Y-127519167D01*
X179252094Y-127588014D01*
X179159938Y-127672756D01*
X179140465Y-127690662D01*
X179060554Y-127819546D01*
X179028566Y-127929652D01*
X179018246Y-127965173D01*
X179016658Y-128116814D01*
X179038947Y-128200000D01*
X179055907Y-128263295D01*
X179067454Y-128282820D01*
X179076916Y-128333382D01*
X179051664Y-128378197D01*
X179002726Y-128396300D01*
X156225876Y-128396300D01*
X156276264Y-128286245D01*
X156334854Y-128158272D01*
X156341420Y-128116814D01*
X156358577Y-128008493D01*
X156358700Y-127996788D01*
X156339290Y-127855092D01*
X156338119Y-127846544D01*
X156294875Y-127746613D01*
X156277892Y-127707367D01*
X156182458Y-127589517D01*
X156182456Y-127589515D01*
X156058843Y-127501668D01*
X156058842Y-127501668D01*
X156058841Y-127501667D01*
X155916161Y-127450299D01*
X155764918Y-127439191D01*
X155708913Y-127450484D01*
X155658051Y-127442792D01*
X155624034Y-127404207D01*
X155622777Y-127352782D01*
X155640875Y-127323594D01*
X155697877Y-127266593D01*
X156185670Y-126778800D01*
X156232290Y-126757060D01*
X156281977Y-126770374D01*
X156314040Y-126832761D01*
X156313847Y-126851207D01*
X156313277Y-126905649D01*
X156352526Y-127052130D01*
X156429721Y-127182660D01*
X156539175Y-127287623D01*
X156672824Y-127359284D01*
X156820820Y-127392366D01*
X156972262Y-127384429D01*
X157115989Y-127336059D01*
X157241413Y-127250821D01*
X157241414Y-127250820D01*
X157339297Y-127134991D01*
X157339298Y-127134989D01*
X157398321Y-127065144D01*
X157457434Y-127165099D01*
X157566888Y-127270062D01*
X157700537Y-127341723D01*
X157848533Y-127374805D01*
X157848534Y-127374805D01*
X157854454Y-127374495D01*
X157986228Y-127367588D01*
X157984759Y-127507962D01*
X157984316Y-127550234D01*
X158023565Y-127696715D01*
X158100342Y-127826537D01*
X158100761Y-127827246D01*
X158117392Y-127843195D01*
X158210214Y-127932208D01*
X158343863Y-128003869D01*
X158491859Y-128036951D01*
X158643301Y-128029014D01*
X158787028Y-127980644D01*
X158912452Y-127895406D01*
X158916273Y-127890885D01*
X159010336Y-127779576D01*
X159073464Y-127641692D01*
X159087064Y-127555825D01*
X159097187Y-127491913D01*
X159097310Y-127480208D01*
X159081883Y-127367587D01*
X159076729Y-127329964D01*
X159034964Y-127233450D01*
X159016502Y-127190787D01*
X158921068Y-127072937D01*
X158921066Y-127072935D01*
X158797453Y-126985088D01*
X158797452Y-126985088D01*
X158797451Y-126985087D01*
X158654771Y-126933719D01*
X158439896Y-126917938D01*
X158452046Y-126841224D01*
X158453861Y-126829766D01*
X158453984Y-126818062D01*
X158433403Y-126667819D01*
X158426557Y-126651997D01*
X158387226Y-126561109D01*
X158373176Y-126528641D01*
X158370501Y-126525338D01*
X158353753Y-126476701D01*
X158372187Y-126428678D01*
X158428942Y-126402813D01*
X158614599Y-126402813D01*
X158657144Y-126406535D01*
X158699501Y-126395186D01*
X158742703Y-126387568D01*
X158755494Y-126380183D01*
X158769759Y-126376361D01*
X158805675Y-126351212D01*
X158826917Y-126338947D01*
X158843671Y-126329274D01*
X158846097Y-126326383D01*
X158871137Y-126296542D01*
X159736981Y-125430700D01*
X161745516Y-125430700D01*
X161793854Y-125448293D01*
X161819574Y-125492842D01*
X161805176Y-125551679D01*
X161772850Y-125593807D01*
X161712041Y-125740614D01*
X161691300Y-125898157D01*
X161712041Y-126055700D01*
X161772850Y-126202507D01*
X161869584Y-126328573D01*
X161995650Y-126425307D01*
X162142457Y-126486116D01*
X162300000Y-126506857D01*
X162457543Y-126486116D01*
X162604350Y-126425307D01*
X162730416Y-126328573D01*
X162827150Y-126202507D01*
X162887959Y-126055700D01*
X162908700Y-125898157D01*
X170891300Y-125898157D01*
X170912041Y-126055700D01*
X170972850Y-126202507D01*
X171069584Y-126328573D01*
X171195650Y-126425307D01*
X171342457Y-126486116D01*
X171500000Y-126506857D01*
X171657543Y-126486116D01*
X171804350Y-126425307D01*
X171930416Y-126328573D01*
X172027150Y-126202507D01*
X172087959Y-126055700D01*
X172108700Y-125898157D01*
X172087959Y-125740614D01*
X172027150Y-125593807D01*
X171930416Y-125467741D01*
X171804350Y-125371007D01*
X171657543Y-125310198D01*
X171500000Y-125289457D01*
X171342457Y-125310198D01*
X171195650Y-125371007D01*
X171069584Y-125467741D01*
X170972850Y-125593807D01*
X170912041Y-125740614D01*
X170891300Y-125898157D01*
X162908700Y-125898157D01*
X162887959Y-125740614D01*
X162827150Y-125593807D01*
X162794824Y-125551679D01*
X162779356Y-125502620D01*
X162799041Y-125455095D01*
X162854484Y-125430700D01*
X165884375Y-125430700D01*
X165926920Y-125434422D01*
X165969277Y-125423073D01*
X166012479Y-125415455D01*
X166025270Y-125408070D01*
X166039535Y-125404248D01*
X166075451Y-125379099D01*
X166107440Y-125360629D01*
X166113447Y-125357161D01*
X166125760Y-125342487D01*
X166140913Y-125324429D01*
X166395318Y-125070024D01*
X172745706Y-125070024D01*
X172784955Y-125216505D01*
X172860280Y-125343872D01*
X172862151Y-125347036D01*
X172889070Y-125372850D01*
X172971604Y-125451998D01*
X173089469Y-125515196D01*
X173105253Y-125523659D01*
X173194414Y-125543591D01*
X173172852Y-125595648D01*
X173172850Y-125595650D01*
X173112041Y-125742457D01*
X173091300Y-125900000D01*
X173112041Y-126057543D01*
X173172850Y-126204350D01*
X173269584Y-126330416D01*
X173395650Y-126427150D01*
X173542457Y-126487959D01*
X173700000Y-126508700D01*
X173857543Y-126487959D01*
X174004350Y-126427150D01*
X174130416Y-126330416D01*
X174227150Y-126204350D01*
X174287959Y-126057543D01*
X174308700Y-125900000D01*
X174287959Y-125742457D01*
X174227150Y-125595650D01*
X174130416Y-125469584D01*
X174004350Y-125372850D01*
X173857543Y-125312041D01*
X173857544Y-125312041D01*
X173780528Y-125280140D01*
X173789071Y-125261482D01*
X173830619Y-125170732D01*
X173834855Y-125161480D01*
X173849339Y-125070024D01*
X181245706Y-125070024D01*
X181284955Y-125216505D01*
X181360280Y-125343872D01*
X181362151Y-125347036D01*
X181389070Y-125372850D01*
X181471604Y-125451998D01*
X181595413Y-125518383D01*
X181650971Y-125548173D01*
X181572850Y-125649982D01*
X181512041Y-125796789D01*
X181491300Y-125954332D01*
X181512041Y-126111875D01*
X181572850Y-126258682D01*
X181669584Y-126384748D01*
X181795650Y-126481482D01*
X181942457Y-126542291D01*
X182100000Y-126563032D01*
X182257543Y-126542291D01*
X182404350Y-126481482D01*
X182530416Y-126384748D01*
X182618446Y-126270024D01*
X184695706Y-126270024D01*
X184734955Y-126416505D01*
X184812150Y-126547035D01*
X184921604Y-126651998D01*
X185055253Y-126723659D01*
X185203249Y-126756741D01*
X185354691Y-126748804D01*
X185498418Y-126700434D01*
X185613084Y-126622507D01*
X190496300Y-126622507D01*
X190496300Y-127454413D01*
X190511540Y-127620267D01*
X190571581Y-127833158D01*
X190669414Y-128031543D01*
X190695751Y-128066813D01*
X190790205Y-128193302D01*
X190801761Y-128208778D01*
X190964190Y-128358926D01*
X191151262Y-128476960D01*
X191356711Y-128558925D01*
X191356714Y-128558926D01*
X191465183Y-128580502D01*
X191573656Y-128602079D01*
X191794833Y-128604974D01*
X191794835Y-128604974D01*
X192012835Y-128567515D01*
X192134152Y-128522758D01*
X192220358Y-128490955D01*
X192220360Y-128490954D01*
X192410454Y-128377860D01*
X192576759Y-128232015D01*
X192581334Y-128226212D01*
X192713701Y-128058305D01*
X192739909Y-128008491D01*
X192767089Y-127956830D01*
X193721004Y-127956830D01*
X193758462Y-128096620D01*
X193758463Y-128096623D01*
X193832135Y-128221196D01*
X193936593Y-128321368D01*
X194064141Y-128389759D01*
X194205383Y-128421330D01*
X194349913Y-128413756D01*
X194487079Y-128367594D01*
X194493937Y-128362933D01*
X194606780Y-128286245D01*
X194700196Y-128175703D01*
X194760443Y-128044112D01*
X194760444Y-128044110D01*
X194783083Y-127901168D01*
X194783200Y-127889998D01*
X194764167Y-127751061D01*
X194763558Y-127746612D01*
X194708884Y-127620267D01*
X194706081Y-127613790D01*
X194706080Y-127613788D01*
X194615001Y-127501314D01*
X194497029Y-127417476D01*
X194497028Y-127417476D01*
X194497027Y-127417475D01*
X194360860Y-127368452D01*
X194216519Y-127357851D01*
X194074650Y-127386458D01*
X194074648Y-127386459D01*
X193945696Y-127452163D01*
X193839162Y-127550126D01*
X193839161Y-127550127D01*
X193838206Y-127551668D01*
X193762898Y-127673128D01*
X193751691Y-127711703D01*
X193722520Y-127812108D01*
X193722299Y-127833159D01*
X193721636Y-127896545D01*
X193721004Y-127956830D01*
X192767089Y-127956830D01*
X192816694Y-127862548D01*
X192882287Y-127651307D01*
X192897927Y-127519166D01*
X192903700Y-127470387D01*
X192903700Y-122545586D01*
X192888460Y-122379732D01*
X192859439Y-122276830D01*
X193721004Y-122276830D01*
X193758462Y-122416620D01*
X193758463Y-122416623D01*
X193832135Y-122541196D01*
X193936593Y-122641368D01*
X194064141Y-122709759D01*
X194094321Y-122716505D01*
X194132893Y-122725127D01*
X194176229Y-122752841D01*
X194191612Y-122801927D01*
X194167391Y-122853869D01*
X194081145Y-122933176D01*
X194069513Y-122943872D01*
X193989602Y-123072756D01*
X193949562Y-123210578D01*
X193947294Y-123218383D01*
X193945706Y-123370024D01*
X193984955Y-123516505D01*
X194062150Y-123647035D01*
X194171604Y-123751998D01*
X194289469Y-123815196D01*
X194305253Y-123823659D01*
X194453249Y-123856741D01*
X194604691Y-123848804D01*
X194748418Y-123800434D01*
X194873842Y-123715196D01*
X194878889Y-123709224D01*
X194971726Y-123599366D01*
X195034854Y-123461482D01*
X195052550Y-123349754D01*
X195058577Y-123311703D01*
X195058700Y-123299998D01*
X195038119Y-123149755D01*
X195035574Y-123143872D01*
X194977892Y-123010578D01*
X194977892Y-123010577D01*
X194882458Y-122892727D01*
X194882456Y-122892725D01*
X194758843Y-122804878D01*
X194758842Y-122804878D01*
X194758841Y-122804877D01*
X194607240Y-122750297D01*
X194567719Y-122717370D01*
X194558610Y-122666743D01*
X194590442Y-122617348D01*
X194606780Y-122606245D01*
X194700196Y-122495703D01*
X194760443Y-122364112D01*
X194760444Y-122364110D01*
X194783083Y-122221168D01*
X194783200Y-122209998D01*
X194764413Y-122072851D01*
X194763558Y-122066612D01*
X194706080Y-121933788D01*
X194615001Y-121821314D01*
X194497029Y-121737476D01*
X194497028Y-121737476D01*
X194497027Y-121737475D01*
X194360860Y-121688452D01*
X194216519Y-121677851D01*
X194074650Y-121706458D01*
X194074648Y-121706459D01*
X193945696Y-121772163D01*
X193869313Y-121842401D01*
X193839161Y-121870127D01*
X193825655Y-121891911D01*
X193762898Y-121993128D01*
X193747236Y-122047036D01*
X193722520Y-122132108D01*
X193721004Y-122276830D01*
X192859439Y-122276830D01*
X192828419Y-122166841D01*
X192730586Y-121968456D01*
X192650040Y-121860592D01*
X192598240Y-121791223D01*
X192531972Y-121729965D01*
X192435810Y-121641074D01*
X192248738Y-121523040D01*
X192043289Y-121441075D01*
X192043288Y-121441075D01*
X192043286Y-121441074D01*
X191895830Y-121411743D01*
X191826344Y-121397921D01*
X191605167Y-121395026D01*
X191605165Y-121395026D01*
X191387165Y-121432485D01*
X191265848Y-121477242D01*
X191179642Y-121509045D01*
X191179641Y-121509046D01*
X191179640Y-121509046D01*
X190989546Y-121622140D01*
X190858116Y-121737401D01*
X190823241Y-121767986D01*
X190686300Y-121941695D01*
X190686299Y-121941697D01*
X190583307Y-122137452D01*
X190517714Y-122348693D01*
X190509675Y-122416620D01*
X190496301Y-122529613D01*
X190496300Y-126622507D01*
X185613084Y-126622507D01*
X185623842Y-126615196D01*
X185625693Y-126613006D01*
X185721726Y-126499366D01*
X185784854Y-126361482D01*
X185795139Y-126296546D01*
X185808577Y-126211703D01*
X185808700Y-126199998D01*
X185794596Y-126097041D01*
X185788119Y-126049754D01*
X185758006Y-125980166D01*
X185727892Y-125910577D01*
X185632458Y-125792727D01*
X185632456Y-125792725D01*
X185508843Y-125704878D01*
X185508842Y-125704878D01*
X185508841Y-125704877D01*
X185366161Y-125653509D01*
X185214918Y-125642401D01*
X185066264Y-125672376D01*
X185066262Y-125672377D01*
X184931142Y-125741224D01*
X184819514Y-125843871D01*
X184819513Y-125843872D01*
X184739602Y-125972756D01*
X184699185Y-126111875D01*
X184697294Y-126118383D01*
X184695706Y-126270024D01*
X182618446Y-126270024D01*
X182627150Y-126258682D01*
X182687959Y-126111875D01*
X182708700Y-125954332D01*
X182687959Y-125796789D01*
X182627150Y-125649982D01*
X182530416Y-125523916D01*
X182404350Y-125427182D01*
X182288257Y-125379095D01*
X182243677Y-125360629D01*
X182276263Y-125289457D01*
X182330619Y-125170732D01*
X182330943Y-125170024D01*
X184045706Y-125170024D01*
X184084955Y-125316505D01*
X184139771Y-125409193D01*
X184162151Y-125447036D01*
X184197075Y-125480527D01*
X184271604Y-125551998D01*
X184405253Y-125623659D01*
X184553249Y-125656741D01*
X184704691Y-125648804D01*
X184848418Y-125600434D01*
X184973842Y-125515196D01*
X184973843Y-125515195D01*
X185071726Y-125399366D01*
X185134854Y-125261482D01*
X185142739Y-125211701D01*
X185149339Y-125170024D01*
X187245706Y-125170024D01*
X187284955Y-125316505D01*
X187339771Y-125409193D01*
X187362151Y-125447036D01*
X187397075Y-125480527D01*
X187471604Y-125551998D01*
X187591911Y-125616505D01*
X187605253Y-125623659D01*
X187753249Y-125656741D01*
X187904691Y-125648804D01*
X188048418Y-125600434D01*
X188173842Y-125515196D01*
X188173843Y-125515195D01*
X188271726Y-125399366D01*
X188334854Y-125261482D01*
X188342739Y-125211701D01*
X188358577Y-125111703D01*
X188358700Y-125099998D01*
X188338119Y-124949755D01*
X188334500Y-124941390D01*
X188304197Y-124871364D01*
X188277892Y-124810577D01*
X188182458Y-124692727D01*
X188182456Y-124692725D01*
X188058843Y-124604878D01*
X188058842Y-124604878D01*
X188058841Y-124604877D01*
X187916161Y-124553509D01*
X187764918Y-124542401D01*
X187616264Y-124572376D01*
X187616262Y-124572377D01*
X187481142Y-124641224D01*
X187369514Y-124743871D01*
X187369513Y-124743872D01*
X187289602Y-124872756D01*
X187249235Y-125011703D01*
X187247294Y-125018383D01*
X187245706Y-125170024D01*
X185149339Y-125170024D01*
X185158577Y-125111703D01*
X185158700Y-125099998D01*
X185138119Y-124949755D01*
X185134500Y-124941390D01*
X185104197Y-124871364D01*
X185077892Y-124810577D01*
X184982458Y-124692727D01*
X184982456Y-124692725D01*
X184858843Y-124604878D01*
X184858842Y-124604878D01*
X184858841Y-124604877D01*
X184716161Y-124553509D01*
X184564918Y-124542401D01*
X184416264Y-124572376D01*
X184416262Y-124572377D01*
X184281142Y-124641224D01*
X184169514Y-124743871D01*
X184169513Y-124743872D01*
X184089602Y-124872756D01*
X184049235Y-125011703D01*
X184047294Y-125018383D01*
X184045706Y-125170024D01*
X182330943Y-125170024D01*
X182334855Y-125161480D01*
X182358577Y-125011703D01*
X182358700Y-124999998D01*
X182338119Y-124849755D01*
X182335127Y-124842839D01*
X182292299Y-124743871D01*
X182277892Y-124710577D01*
X182182458Y-124592727D01*
X182182456Y-124592725D01*
X182058843Y-124504878D01*
X182058842Y-124504878D01*
X182058841Y-124504877D01*
X181916161Y-124453509D01*
X181764918Y-124442401D01*
X181616264Y-124472376D01*
X181616262Y-124472377D01*
X181481142Y-124541224D01*
X181411920Y-124604877D01*
X181369513Y-124643872D01*
X181289602Y-124772756D01*
X181247840Y-124916505D01*
X181247294Y-124918383D01*
X181245706Y-125070024D01*
X173849339Y-125070024D01*
X173858577Y-125011703D01*
X173858700Y-124999998D01*
X173838119Y-124849755D01*
X173835127Y-124842839D01*
X173792299Y-124743871D01*
X173777892Y-124710577D01*
X173682458Y-124592727D01*
X173682456Y-124592725D01*
X173558843Y-124504878D01*
X173558842Y-124504878D01*
X173558841Y-124504877D01*
X173416161Y-124453509D01*
X173264918Y-124442401D01*
X173116264Y-124472376D01*
X173116262Y-124472377D01*
X172981142Y-124541224D01*
X172911920Y-124604877D01*
X172869513Y-124643872D01*
X172789602Y-124772756D01*
X172747840Y-124916505D01*
X172747294Y-124918383D01*
X172745706Y-125070024D01*
X166395318Y-125070024D01*
X166469335Y-124996007D01*
X166503916Y-125003737D01*
X166503919Y-125003737D01*
X166655358Y-124995800D01*
X166799085Y-124947430D01*
X166924509Y-124862192D01*
X166940863Y-124842840D01*
X167022393Y-124746362D01*
X167085521Y-124608478D01*
X167094227Y-124553509D01*
X167109244Y-124458699D01*
X167109367Y-124446994D01*
X167092639Y-124324875D01*
X167088786Y-124296750D01*
X167051982Y-124211701D01*
X167028559Y-124157573D01*
X166933125Y-124039723D01*
X166933123Y-124039721D01*
X166809510Y-123951874D01*
X166809509Y-123951874D01*
X166809508Y-123951873D01*
X166666828Y-123900505D01*
X166515585Y-123889397D01*
X166366931Y-123919372D01*
X166366929Y-123919373D01*
X166231809Y-123988220D01*
X166140290Y-124072376D01*
X166120180Y-124090868D01*
X166040269Y-124219752D01*
X165998278Y-124364289D01*
X165997961Y-124365379D01*
X165996373Y-124517020D01*
X165996374Y-124517022D01*
X165996198Y-124533786D01*
X165760684Y-124769300D01*
X159613286Y-124769300D01*
X159570741Y-124765578D01*
X159528382Y-124776927D01*
X159485185Y-124784544D01*
X159476170Y-124789749D01*
X159472392Y-124791930D01*
X159458126Y-124795753D01*
X159436955Y-124810577D01*
X159422199Y-124820909D01*
X159410915Y-124827424D01*
X159384216Y-124842839D01*
X159356763Y-124875556D01*
X158490908Y-125741413D01*
X156437964Y-125741413D01*
X156409600Y-125738932D01*
X156395419Y-125737691D01*
X156395418Y-125737691D01*
X156382234Y-125741224D01*
X156353067Y-125749040D01*
X156338637Y-125751584D01*
X156309861Y-125756658D01*
X156301506Y-125761482D01*
X156297070Y-125764043D01*
X156282803Y-125767866D01*
X156246881Y-125793019D01*
X156240352Y-125796789D01*
X156208893Y-125814952D01*
X156181435Y-125847675D01*
X154568450Y-127460661D01*
X154452001Y-127452108D01*
X154303347Y-127482083D01*
X154303345Y-127482084D01*
X154168225Y-127550931D01*
X154059071Y-127651303D01*
X154056596Y-127653579D01*
X153976685Y-127782463D01*
X153934377Y-127928089D01*
X153933013Y-128058303D01*
X153932789Y-128079731D01*
X153952153Y-128151998D01*
X153972038Y-128226212D01*
X154005516Y-128282820D01*
X154014978Y-128333382D01*
X153989726Y-128378197D01*
X153940788Y-128396300D01*
X153015069Y-128396300D01*
X153056549Y-128296156D01*
X153115294Y-128154333D01*
X153136035Y-127996790D01*
X153115294Y-127839247D01*
X153054485Y-127692440D01*
X152981035Y-127596718D01*
X152981035Y-124941390D01*
X157358736Y-124941390D01*
X157397985Y-125087871D01*
X157466364Y-125203493D01*
X157475181Y-125218402D01*
X157501740Y-125243871D01*
X157584634Y-125323364D01*
X157718283Y-125395025D01*
X157866279Y-125428107D01*
X158017721Y-125420170D01*
X158161448Y-125371800D01*
X158286872Y-125286562D01*
X158322948Y-125243872D01*
X158384756Y-125170732D01*
X158447884Y-125032848D01*
X158461413Y-124947430D01*
X158471607Y-124883069D01*
X158471730Y-124871364D01*
X158454607Y-124746362D01*
X158451149Y-124721120D01*
X158403799Y-124611701D01*
X158390922Y-124581943D01*
X158295488Y-124464093D01*
X158295486Y-124464091D01*
X158171873Y-124376244D01*
X158171872Y-124376244D01*
X158171871Y-124376243D01*
X158029191Y-124324875D01*
X157877948Y-124313767D01*
X157729294Y-124343742D01*
X157729292Y-124343743D01*
X157594172Y-124412590D01*
X157482544Y-124515237D01*
X157482543Y-124515238D01*
X157402632Y-124644122D01*
X157366055Y-124770024D01*
X157360324Y-124789749D01*
X157358736Y-124941390D01*
X152981035Y-124941390D01*
X152981035Y-121868150D01*
X155445706Y-121868150D01*
X155484955Y-122014631D01*
X155561851Y-122144654D01*
X155562151Y-122145162D01*
X155569780Y-122152478D01*
X155671604Y-122250124D01*
X155805253Y-122321785D01*
X155953249Y-122354867D01*
X156104691Y-122346930D01*
X156248418Y-122298560D01*
X156373842Y-122213322D01*
X156384733Y-122200434D01*
X156471726Y-122097492D01*
X156471727Y-122097490D01*
X156526868Y-122032239D01*
X156597694Y-122151998D01*
X156640075Y-122223659D01*
X156642196Y-122227246D01*
X156672953Y-122256741D01*
X156751649Y-122332208D01*
X156885298Y-122403869D01*
X157033294Y-122436951D01*
X157184736Y-122429014D01*
X157328465Y-122380644D01*
X157329576Y-122379889D01*
X157334138Y-122378735D01*
X157338226Y-122377359D01*
X157338332Y-122377674D01*
X157379444Y-122367272D01*
X157425756Y-122389662D01*
X157447038Y-122442874D01*
X157445706Y-122570024D01*
X157484955Y-122716505D01*
X157562150Y-122847035D01*
X157671604Y-122951998D01*
X157770224Y-123004877D01*
X157805253Y-123023659D01*
X157953249Y-123056741D01*
X158104691Y-123048804D01*
X158248418Y-123000434D01*
X158373842Y-122915196D01*
X158373843Y-122915195D01*
X158471726Y-122799366D01*
X158534854Y-122661482D01*
X158549340Y-122570024D01*
X158558577Y-122511703D01*
X158558700Y-122499998D01*
X158554595Y-122470024D01*
X159745706Y-122470024D01*
X159784955Y-122616505D01*
X159844607Y-122717370D01*
X159862151Y-122747036D01*
X159868901Y-122753509D01*
X159971604Y-122851998D01*
X160105253Y-122923659D01*
X160253249Y-122956741D01*
X160404691Y-122948804D01*
X160548418Y-122900434D01*
X160673842Y-122815196D01*
X160673843Y-122815195D01*
X160771726Y-122699366D01*
X160834854Y-122561482D01*
X160845272Y-122495704D01*
X160849339Y-122470024D01*
X170545706Y-122470024D01*
X170584955Y-122616505D01*
X170644607Y-122717370D01*
X170662151Y-122747036D01*
X170668901Y-122753509D01*
X170733228Y-122815196D01*
X170823772Y-122902025D01*
X170781144Y-122941223D01*
X170781142Y-122941224D01*
X170672393Y-123041224D01*
X170669513Y-123043872D01*
X170589602Y-123172756D01*
X170549235Y-123311703D01*
X170547294Y-123318383D01*
X170545706Y-123470024D01*
X170584955Y-123616505D01*
X170662150Y-123747035D01*
X170771604Y-123851998D01*
X170889469Y-123915196D01*
X170905253Y-123923659D01*
X171053249Y-123956741D01*
X171204691Y-123948804D01*
X171348418Y-123900434D01*
X171473842Y-123815196D01*
X171486317Y-123800434D01*
X171571726Y-123699366D01*
X171630943Y-123570024D01*
X174445706Y-123570024D01*
X174484955Y-123716505D01*
X174562150Y-123847035D01*
X174671604Y-123951998D01*
X174726201Y-123981272D01*
X174805253Y-124023659D01*
X174953249Y-124056741D01*
X175104691Y-124048804D01*
X175248418Y-124000434D01*
X175373842Y-123915196D01*
X175377681Y-123910653D01*
X175471726Y-123799366D01*
X175534854Y-123661482D01*
X175544692Y-123599366D01*
X175558577Y-123511703D01*
X175558700Y-123499998D01*
X175538119Y-123349755D01*
X175536282Y-123345508D01*
X175504799Y-123272756D01*
X175477892Y-123210577D01*
X175382458Y-123092727D01*
X175382456Y-123092725D01*
X175258843Y-123004878D01*
X175258842Y-123004878D01*
X175258841Y-123004877D01*
X175116161Y-122953509D01*
X174964918Y-122942401D01*
X174816264Y-122972376D01*
X174816262Y-122972377D01*
X174681142Y-123041224D01*
X174625133Y-123092727D01*
X174569513Y-123143872D01*
X174489602Y-123272756D01*
X174449235Y-123411703D01*
X174447294Y-123418383D01*
X174445706Y-123570024D01*
X171630943Y-123570024D01*
X171634854Y-123561482D01*
X171650347Y-123463662D01*
X171658577Y-123411703D01*
X171658700Y-123399998D01*
X171638119Y-123249755D01*
X171629763Y-123230444D01*
X171599460Y-123160418D01*
X171577892Y-123110577D01*
X171482456Y-122992724D01*
X171350552Y-122898984D01*
X171473843Y-122815195D01*
X171571726Y-122699366D01*
X171634854Y-122561482D01*
X171645272Y-122495704D01*
X171658577Y-122411703D01*
X171658700Y-122399998D01*
X171641270Y-122272756D01*
X171638119Y-122249754D01*
X171592858Y-122145162D01*
X171577892Y-122110577D01*
X171482458Y-121992727D01*
X171482456Y-121992725D01*
X171358843Y-121904878D01*
X171358842Y-121904878D01*
X171358841Y-121904877D01*
X171216161Y-121853509D01*
X171064918Y-121842401D01*
X170916264Y-121872376D01*
X170916262Y-121872377D01*
X170781142Y-121941224D01*
X170672393Y-122041224D01*
X170669513Y-122043872D01*
X170589602Y-122172756D01*
X170553970Y-122295405D01*
X170547294Y-122318383D01*
X170545706Y-122470024D01*
X160849339Y-122470024D01*
X160858577Y-122411703D01*
X160858700Y-122399998D01*
X160841270Y-122272756D01*
X160838119Y-122249754D01*
X160792858Y-122145162D01*
X160777892Y-122110577D01*
X160682458Y-121992727D01*
X160682456Y-121992725D01*
X160558843Y-121904878D01*
X160558842Y-121904878D01*
X160558841Y-121904877D01*
X160416161Y-121853509D01*
X160264918Y-121842401D01*
X160116264Y-121872376D01*
X160116262Y-121872377D01*
X159981142Y-121941224D01*
X159872393Y-122041224D01*
X159869513Y-122043872D01*
X159789602Y-122172756D01*
X159753970Y-122295405D01*
X159747294Y-122318383D01*
X159745706Y-122470024D01*
X158554595Y-122470024D01*
X158542089Y-122378735D01*
X158538119Y-122349754D01*
X158504046Y-122271016D01*
X158477892Y-122210577D01*
X158382458Y-122092727D01*
X158382456Y-122092725D01*
X158258843Y-122004878D01*
X158258842Y-122004878D01*
X158258841Y-122004877D01*
X158116161Y-121953509D01*
X157964918Y-121942401D01*
X157816264Y-121972376D01*
X157816262Y-121972377D01*
X157740666Y-122010895D01*
X157689611Y-122017164D01*
X157646470Y-121989147D01*
X157632253Y-121932128D01*
X157638622Y-121891914D01*
X157638745Y-121880208D01*
X157625024Y-121780046D01*
X157623652Y-121770024D01*
X186345706Y-121770024D01*
X186384955Y-121916505D01*
X186462150Y-122047035D01*
X186571604Y-122151998D01*
X186685974Y-122213322D01*
X186705253Y-122223659D01*
X186853249Y-122256741D01*
X187004691Y-122248804D01*
X187148418Y-122200434D01*
X187273842Y-122115196D01*
X187273843Y-122115195D01*
X187371726Y-121999366D01*
X187434854Y-121861482D01*
X187449340Y-121770023D01*
X187458577Y-121711703D01*
X187458700Y-121699998D01*
X187438119Y-121549755D01*
X187437708Y-121548804D01*
X187401392Y-121464883D01*
X187377892Y-121410577D01*
X187282458Y-121292727D01*
X187282456Y-121292725D01*
X187158843Y-121204878D01*
X187158842Y-121204878D01*
X187158841Y-121204877D01*
X187016161Y-121153509D01*
X186864918Y-121142401D01*
X186716264Y-121172376D01*
X186716262Y-121172377D01*
X186581142Y-121241224D01*
X186491238Y-121323895D01*
X186469513Y-121343872D01*
X186389602Y-121472756D01*
X186347294Y-121618382D01*
X186346110Y-121731403D01*
X186345706Y-121770024D01*
X157623652Y-121770024D01*
X157618164Y-121729964D01*
X157579698Y-121641074D01*
X157557937Y-121590787D01*
X157462503Y-121472937D01*
X157462501Y-121472935D01*
X157338888Y-121385088D01*
X157338887Y-121385088D01*
X157338886Y-121385087D01*
X157196206Y-121333719D01*
X157044963Y-121322611D01*
X156896309Y-121352586D01*
X156896307Y-121352587D01*
X156761187Y-121421434D01*
X156656740Y-121517478D01*
X156649558Y-121524082D01*
X156628174Y-121558571D01*
X156587750Y-121590382D01*
X156536335Y-121588766D01*
X156495247Y-121548809D01*
X156477892Y-121508704D01*
X156382458Y-121390853D01*
X156382456Y-121390851D01*
X156258843Y-121303004D01*
X156258842Y-121303004D01*
X156258841Y-121303003D01*
X156116161Y-121251635D01*
X155964918Y-121240527D01*
X155816264Y-121270502D01*
X155816262Y-121270503D01*
X155681142Y-121339350D01*
X155579858Y-121432485D01*
X155569513Y-121441998D01*
X155489602Y-121570882D01*
X155450214Y-121706459D01*
X155447294Y-121716509D01*
X155445706Y-121868150D01*
X152981035Y-121868150D01*
X152981035Y-121860593D01*
X153786804Y-121054824D01*
X153948418Y-121000434D01*
X154073842Y-120915196D01*
X154076794Y-120911703D01*
X154171726Y-120799366D01*
X154230943Y-120670024D01*
X154545706Y-120670024D01*
X154584955Y-120816505D01*
X154662150Y-120947035D01*
X154771604Y-121051998D01*
X154889469Y-121115196D01*
X154905253Y-121123659D01*
X155053249Y-121156741D01*
X155204691Y-121148804D01*
X155348418Y-121100434D01*
X155393164Y-121070024D01*
X182645706Y-121070024D01*
X182684955Y-121216505D01*
X182760280Y-121343872D01*
X182762151Y-121347036D01*
X182775922Y-121360242D01*
X182871604Y-121451998D01*
X183005253Y-121523659D01*
X183153249Y-121556741D01*
X183304691Y-121548804D01*
X183448418Y-121500434D01*
X183573842Y-121415196D01*
X183576760Y-121411743D01*
X183671726Y-121299366D01*
X183734854Y-121161482D01*
X183744523Y-121100434D01*
X183758577Y-121011703D01*
X183758700Y-120999998D01*
X183749660Y-120933999D01*
X192539903Y-120933999D01*
X192614264Y-121078069D01*
X192726121Y-121206294D01*
X192865340Y-121304138D01*
X193023877Y-121365951D01*
X193154903Y-121383200D01*
X193496000Y-121383200D01*
X194003999Y-121383200D01*
X194341321Y-121383200D01*
X194468930Y-121367757D01*
X194628105Y-121307610D01*
X194768342Y-121211229D01*
X194881538Y-121084180D01*
X194961054Y-120934000D01*
X194003999Y-120933999D01*
X196869903Y-120933999D01*
X196944264Y-121078069D01*
X197056121Y-121206294D01*
X197195340Y-121304138D01*
X197353877Y-121365951D01*
X197484903Y-121383200D01*
X197676000Y-121383200D01*
X198183999Y-121383200D01*
X198371321Y-121383200D01*
X198498930Y-121367757D01*
X198658105Y-121307610D01*
X198798342Y-121211229D01*
X198911538Y-121084180D01*
X198991054Y-120934000D01*
X198183999Y-120933999D01*
X198183999Y-121383200D01*
X197676000Y-121383200D01*
X197676000Y-120934000D01*
X196869903Y-120933999D01*
X194003999Y-120933999D01*
X194003999Y-121383200D01*
X193496000Y-121383200D01*
X193496000Y-120934000D01*
X192539903Y-120933999D01*
X183749660Y-120933999D01*
X183743607Y-120889817D01*
X183738119Y-120849754D01*
X183699920Y-120761482D01*
X183677892Y-120710577D01*
X183582458Y-120592727D01*
X183582456Y-120592725D01*
X183458843Y-120504878D01*
X183458842Y-120504878D01*
X183458841Y-120504877D01*
X183316161Y-120453509D01*
X183164918Y-120442401D01*
X183016264Y-120472376D01*
X183016262Y-120472377D01*
X182881142Y-120541224D01*
X182774584Y-120639209D01*
X182769513Y-120643872D01*
X182689602Y-120772756D01*
X182647840Y-120916505D01*
X182647294Y-120918383D01*
X182645706Y-121070024D01*
X155393164Y-121070024D01*
X155473842Y-121015196D01*
X155476794Y-121011703D01*
X155571726Y-120899366D01*
X155634854Y-120761482D01*
X155642185Y-120715195D01*
X155658577Y-120611703D01*
X155658700Y-120599998D01*
X155641218Y-120472376D01*
X155638119Y-120449754D01*
X155604635Y-120372377D01*
X155577892Y-120310577D01*
X155482458Y-120192727D01*
X155482456Y-120192725D01*
X155358843Y-120104878D01*
X155358842Y-120104878D01*
X155358841Y-120104877D01*
X155216161Y-120053509D01*
X155064918Y-120042401D01*
X154916264Y-120072376D01*
X154916262Y-120072377D01*
X154781142Y-120141224D01*
X154725133Y-120192727D01*
X154669513Y-120243872D01*
X154589602Y-120372756D01*
X154547840Y-120516505D01*
X154547294Y-120518383D01*
X154545706Y-120670024D01*
X154230943Y-120670024D01*
X154234854Y-120661482D01*
X154238382Y-120639209D01*
X154258577Y-120511703D01*
X154258700Y-120499998D01*
X154238119Y-120349755D01*
X154235574Y-120343872D01*
X154177892Y-120210578D01*
X154177892Y-120210577D01*
X154082458Y-120092727D01*
X154082456Y-120092725D01*
X153958843Y-120004878D01*
X153958842Y-120004878D01*
X153958841Y-120004877D01*
X153816161Y-119953509D01*
X153664918Y-119942401D01*
X153516264Y-119972376D01*
X153516262Y-119972377D01*
X153381142Y-120041224D01*
X153325133Y-120092727D01*
X153269513Y-120143872D01*
X153189602Y-120272756D01*
X153150285Y-120408087D01*
X152256945Y-121301427D01*
X152210325Y-121323167D01*
X152160638Y-121309853D01*
X152131133Y-121267716D01*
X152135396Y-121216949D01*
X152140701Y-121205363D01*
X152164423Y-121055585D01*
X152164546Y-121043880D01*
X152146440Y-120911703D01*
X152143965Y-120893636D01*
X152103170Y-120799365D01*
X152083738Y-120754459D01*
X151988304Y-120636609D01*
X151988302Y-120636607D01*
X151864689Y-120548760D01*
X151864688Y-120548760D01*
X151864687Y-120548759D01*
X151722007Y-120497391D01*
X151570764Y-120486283D01*
X151422110Y-120516258D01*
X151422108Y-120516259D01*
X151286988Y-120585106D01*
X151175360Y-120687753D01*
X151175359Y-120687754D01*
X151095448Y-120816638D01*
X151057565Y-120947036D01*
X151056132Y-120951967D01*
X148266875Y-123741224D01*
X148220255Y-123762964D01*
X148170568Y-123749650D01*
X148139197Y-123698254D01*
X148138119Y-123690385D01*
X148135391Y-123684079D01*
X148098732Y-123599366D01*
X148077892Y-123551207D01*
X147982458Y-123433357D01*
X147982456Y-123433355D01*
X147858843Y-123345508D01*
X147858842Y-123345508D01*
X147858841Y-123345507D01*
X147716161Y-123294139D01*
X147564918Y-123283031D01*
X147416264Y-123313006D01*
X147416262Y-123313007D01*
X147281142Y-123381854D01*
X147261409Y-123400000D01*
X147255607Y-123405335D01*
X147208118Y-123425104D01*
X147159032Y-123409721D01*
X147131317Y-123366386D01*
X147134894Y-123332338D01*
X147133243Y-123332076D01*
X147158577Y-123172123D01*
X147158700Y-123160418D01*
X147138119Y-123010175D01*
X147135827Y-123004877D01*
X147090002Y-122898983D01*
X147077892Y-122870997D01*
X146982458Y-122753147D01*
X146982456Y-122753145D01*
X146858843Y-122665298D01*
X146858842Y-122665298D01*
X146858841Y-122665297D01*
X146716161Y-122613929D01*
X146564918Y-122602821D01*
X146416264Y-122632796D01*
X146416262Y-122632797D01*
X146281142Y-122701644D01*
X146174871Y-122799365D01*
X146169513Y-122804292D01*
X146089602Y-122933176D01*
X146053704Y-123056741D01*
X146047294Y-123078803D01*
X146045706Y-123230444D01*
X146084955Y-123376925D01*
X146162150Y-123507455D01*
X146271604Y-123612418D01*
X146405253Y-123684079D01*
X146553249Y-123717161D01*
X146704691Y-123709224D01*
X146848418Y-123660854D01*
X146859226Y-123653509D01*
X146958996Y-123585705D01*
X147008864Y-123573086D01*
X147055176Y-123595474D01*
X147076263Y-123642393D01*
X147073479Y-123668881D01*
X147050014Y-123749650D01*
X147047294Y-123759013D01*
X147045706Y-123910654D01*
X147084955Y-124057135D01*
X147149826Y-124166825D01*
X147162151Y-124187666D01*
X147195610Y-124219752D01*
X147271604Y-124292628D01*
X147405253Y-124364289D01*
X147466736Y-124378032D01*
X147510071Y-124405746D01*
X147525454Y-124454832D01*
X147503505Y-124504595D01*
X146761800Y-125246300D01*
X141253700Y-125246300D01*
X141253700Y-122550234D01*
X147945706Y-122550234D01*
X147984955Y-122696715D01*
X148062150Y-122827245D01*
X148171604Y-122932208D01*
X148305253Y-123003869D01*
X148453249Y-123036951D01*
X148604691Y-123029014D01*
X148748418Y-122980644D01*
X148873842Y-122895406D01*
X148908942Y-122853871D01*
X148971726Y-122779576D01*
X149034854Y-122641692D01*
X149050771Y-122541196D01*
X149058577Y-122491913D01*
X149058700Y-122480208D01*
X149043305Y-122367822D01*
X149038119Y-122329964D01*
X149008005Y-122260376D01*
X148977892Y-122190787D01*
X148882458Y-122072937D01*
X148882456Y-122072935D01*
X148758843Y-121985088D01*
X148758842Y-121985088D01*
X148758841Y-121985087D01*
X148616161Y-121933719D01*
X148464918Y-121922611D01*
X148316264Y-121952586D01*
X148316262Y-121952587D01*
X148181142Y-122021434D01*
X148069514Y-122124081D01*
X148069513Y-122124082D01*
X147989602Y-122252966D01*
X147947294Y-122398592D01*
X147945922Y-122529613D01*
X147945706Y-122550234D01*
X141253700Y-122550234D01*
X141253700Y-121889042D01*
X145626688Y-121889042D01*
X145665937Y-122035523D01*
X145743132Y-122166053D01*
X145852586Y-122271016D01*
X145986235Y-122342677D01*
X146134231Y-122375759D01*
X146285673Y-122367822D01*
X146429400Y-122319452D01*
X146554824Y-122234214D01*
X146554825Y-122234213D01*
X146652708Y-122118384D01*
X146715836Y-121980500D01*
X146723234Y-121933790D01*
X146739559Y-121830721D01*
X146739682Y-121819016D01*
X146724982Y-121711703D01*
X146719101Y-121668772D01*
X146676740Y-121570882D01*
X146658874Y-121529595D01*
X146563440Y-121411745D01*
X146563438Y-121411743D01*
X146439825Y-121323896D01*
X146439824Y-121323896D01*
X146439823Y-121323895D01*
X146297143Y-121272527D01*
X146145900Y-121261419D01*
X145997246Y-121291394D01*
X145997244Y-121291395D01*
X145862124Y-121360242D01*
X145754642Y-121459077D01*
X145750495Y-121462890D01*
X145670584Y-121591774D01*
X145630018Y-121731406D01*
X145628276Y-121737401D01*
X145626688Y-121889042D01*
X141253700Y-121889042D01*
X141253700Y-121220699D01*
X141271726Y-121199366D01*
X141334854Y-121061482D01*
X141351998Y-120953242D01*
X141376936Y-120908252D01*
X141424960Y-120889817D01*
X141473597Y-120906565D01*
X141490999Y-120926725D01*
X141562150Y-121047035D01*
X141671604Y-121151998D01*
X141759946Y-121199366D01*
X141805253Y-121223659D01*
X141953249Y-121256741D01*
X142104691Y-121248804D01*
X142248418Y-121200434D01*
X142373842Y-121115196D01*
X142386317Y-121100434D01*
X142471726Y-120999366D01*
X142485159Y-120970024D01*
X148245706Y-120970024D01*
X148284955Y-121116505D01*
X148362150Y-121247035D01*
X148471604Y-121351998D01*
X148589469Y-121415196D01*
X148605253Y-121423659D01*
X148753249Y-121456741D01*
X148904691Y-121448804D01*
X149048418Y-121400434D01*
X149173842Y-121315196D01*
X149185478Y-121301427D01*
X149271726Y-121199366D01*
X149334854Y-121061482D01*
X149344692Y-120999366D01*
X149358577Y-120911703D01*
X149358700Y-120899998D01*
X149340896Y-120770024D01*
X149338119Y-120749754D01*
X149293669Y-120647036D01*
X149277892Y-120610577D01*
X149182458Y-120492727D01*
X149182456Y-120492725D01*
X149058843Y-120404878D01*
X149058842Y-120404878D01*
X149058841Y-120404877D01*
X148916161Y-120353509D01*
X148764918Y-120342401D01*
X148616264Y-120372376D01*
X148616262Y-120372377D01*
X148481142Y-120441224D01*
X148397233Y-120518382D01*
X148369513Y-120543872D01*
X148289602Y-120672756D01*
X148247840Y-120816505D01*
X148247294Y-120818383D01*
X148245706Y-120970024D01*
X142485159Y-120970024D01*
X142534854Y-120861482D01*
X142544692Y-120799366D01*
X142558577Y-120711703D01*
X142558700Y-120699998D01*
X142538119Y-120549755D01*
X142537689Y-120548760D01*
X142504635Y-120472377D01*
X142477892Y-120410577D01*
X142382458Y-120292727D01*
X142382456Y-120292725D01*
X142258843Y-120204878D01*
X142258842Y-120204878D01*
X142258841Y-120204877D01*
X142116161Y-120153509D01*
X141964918Y-120142401D01*
X141816264Y-120172376D01*
X141816262Y-120172377D01*
X141681142Y-120241224D01*
X141605721Y-120310577D01*
X141569513Y-120343872D01*
X141489602Y-120472756D01*
X141447294Y-120618382D01*
X141447076Y-120639209D01*
X141428977Y-120687359D01*
X141384162Y-120712611D01*
X141333600Y-120703149D01*
X141302865Y-120668286D01*
X141277892Y-120610578D01*
X141182458Y-120492727D01*
X141182456Y-120492725D01*
X141058843Y-120404878D01*
X141058842Y-120404878D01*
X141058841Y-120404877D01*
X140916161Y-120353509D01*
X140764918Y-120342401D01*
X140616264Y-120372376D01*
X140616262Y-120372377D01*
X140481142Y-120441224D01*
X140397233Y-120518382D01*
X140369513Y-120543872D01*
X140289602Y-120672756D01*
X140247840Y-120816505D01*
X140247294Y-120818383D01*
X140245706Y-120970024D01*
X140265496Y-121043882D01*
X140284955Y-121116505D01*
X140346301Y-121220237D01*
X140346300Y-125381311D01*
X140289602Y-125472756D01*
X140247294Y-125618382D01*
X140245720Y-125768640D01*
X140245706Y-125770024D01*
X140284955Y-125916505D01*
X140362150Y-126047035D01*
X140471604Y-126151998D01*
X140569243Y-126204351D01*
X140605253Y-126223659D01*
X140753249Y-126256741D01*
X140904691Y-126248804D01*
X141048418Y-126200435D01*
X141089360Y-126172610D01*
X141117185Y-126153700D01*
X146923807Y-126153700D01*
X146949502Y-126156741D01*
X146964136Y-126158473D01*
X146964137Y-126158473D01*
X146973620Y-126156741D01*
X147024198Y-126147504D01*
X147073309Y-126140120D01*
X147084605Y-126138422D01*
X147091156Y-126135276D01*
X147098306Y-126133970D01*
X147152485Y-126105827D01*
X147207556Y-126079382D01*
X147212895Y-126074446D01*
X147219345Y-126071096D01*
X147219349Y-126071094D01*
X147225609Y-126065746D01*
X147225616Y-126065740D01*
X147265993Y-126025363D01*
X147276993Y-126015195D01*
X147307711Y-125986800D01*
X147309896Y-125983037D01*
X147312082Y-125979274D01*
X151661383Y-121629974D01*
X151742891Y-121598441D01*
X151779731Y-121569399D01*
X151817344Y-121556741D01*
X151854264Y-121544317D01*
X151962794Y-121470559D01*
X151977169Y-121460790D01*
X152027036Y-121448171D01*
X152073348Y-121470559D01*
X152094435Y-121517478D01*
X152090389Y-121547902D01*
X152076760Y-121586712D01*
X152076475Y-121593976D01*
X152074282Y-121600910D01*
X152073635Y-121609130D01*
X152073635Y-121666261D01*
X152072310Y-121700000D01*
X152071406Y-121722999D01*
X152073635Y-121731406D01*
X152073636Y-127596717D01*
X152000185Y-127692440D01*
X151939376Y-127839247D01*
X151918635Y-127996790D01*
X151939376Y-128154333D01*
X151998121Y-128296156D01*
X152039601Y-128396300D01*
X149699892Y-128396300D01*
X149760787Y-128263295D01*
X149785978Y-128208272D01*
X149800464Y-128116813D01*
X149809701Y-128058493D01*
X149810572Y-127975731D01*
X149851637Y-127973579D01*
X149851638Y-127973579D01*
X149971079Y-127967319D01*
X150003080Y-127965642D01*
X150146807Y-127917272D01*
X150272231Y-127832034D01*
X150276876Y-127826537D01*
X150370115Y-127716204D01*
X150414901Y-127618383D01*
X150419556Y-127608216D01*
X150455674Y-127571590D01*
X150506886Y-127566749D01*
X150549228Y-127595959D01*
X150563126Y-127640309D01*
X150562924Y-127659603D01*
X150602173Y-127806084D01*
X150679368Y-127936614D01*
X150788822Y-128041577D01*
X150922471Y-128113238D01*
X151070467Y-128146320D01*
X151221909Y-128138383D01*
X151365636Y-128090013D01*
X151491060Y-128004775D01*
X151497808Y-127996790D01*
X151588944Y-127888945D01*
X151652072Y-127751061D01*
X151652279Y-127749754D01*
X151675795Y-127601282D01*
X151675918Y-127589577D01*
X151658371Y-127461482D01*
X151655337Y-127439333D01*
X151620077Y-127357852D01*
X151595110Y-127300156D01*
X151499676Y-127182306D01*
X151499674Y-127182304D01*
X151376061Y-127094457D01*
X151376060Y-127094457D01*
X151376059Y-127094456D01*
X151233379Y-127043088D01*
X151082136Y-127031980D01*
X150933482Y-127061955D01*
X150933480Y-127061956D01*
X150798360Y-127130803D01*
X150703117Y-127218383D01*
X150686731Y-127233451D01*
X150645372Y-127300157D01*
X150606820Y-127362335D01*
X150599812Y-127386459D01*
X150598696Y-127390299D01*
X150568316Y-127431809D01*
X150518361Y-127444079D01*
X150472206Y-127421368D01*
X150451978Y-127379525D01*
X150436508Y-127266593D01*
X150431914Y-127255975D01*
X150400033Y-127182304D01*
X150376281Y-127127415D01*
X150280847Y-127009565D01*
X150280845Y-127009563D01*
X150157232Y-126921716D01*
X150157231Y-126921716D01*
X150157230Y-126921715D01*
X150014550Y-126870347D01*
X149863307Y-126859239D01*
X149736012Y-126884908D01*
X149714651Y-126889215D01*
X149611795Y-126941623D01*
X149528893Y-126750047D01*
X149433459Y-126632197D01*
X149433457Y-126632195D01*
X149309844Y-126544348D01*
X149309843Y-126544348D01*
X149245084Y-126498326D01*
X149332243Y-126395186D01*
X149390385Y-126326384D01*
X149453513Y-126188500D01*
X149463783Y-126123659D01*
X149477236Y-126038721D01*
X149477359Y-126027016D01*
X149456778Y-125876773D01*
X149444187Y-125847675D01*
X149410584Y-125770024D01*
X149396551Y-125737595D01*
X149301117Y-125619745D01*
X149301115Y-125619743D01*
X149177502Y-125531896D01*
X149177501Y-125531896D01*
X149177500Y-125531895D01*
X149034820Y-125480527D01*
X148883577Y-125469419D01*
X148734923Y-125499394D01*
X148734921Y-125499395D01*
X148599801Y-125568242D01*
X148507074Y-125653509D01*
X148488172Y-125670890D01*
X148408261Y-125799774D01*
X148365953Y-125945400D01*
X148365098Y-126027016D01*
X148364365Y-126097042D01*
X148403614Y-126243523D01*
X148480809Y-126374053D01*
X148590263Y-126479016D01*
X148723912Y-126550677D01*
X148723914Y-126550678D01*
X148749731Y-126564520D01*
X148620516Y-126683339D01*
X148540603Y-126812226D01*
X148508794Y-126921716D01*
X148498295Y-126957853D01*
X148496707Y-127109494D01*
X148535956Y-127255975D01*
X148613151Y-127386505D01*
X148722605Y-127491468D01*
X148856254Y-127563129D01*
X148856255Y-127563129D01*
X148921363Y-127598039D01*
X148839705Y-127673128D01*
X148820638Y-127690661D01*
X148755139Y-127796300D01*
X148740726Y-127819546D01*
X148708738Y-127929652D01*
X148698418Y-127965173D01*
X148696830Y-128116814D01*
X148719119Y-128200000D01*
X148736079Y-128263295D01*
X148747626Y-128282820D01*
X148757088Y-128333382D01*
X148731836Y-128378197D01*
X148682898Y-128396300D01*
X128967308Y-128396300D01*
X128918970Y-128378707D01*
X128893250Y-128334158D01*
X128909870Y-128272563D01*
X128971726Y-128199366D01*
X129034854Y-128061482D01*
X129040919Y-128023191D01*
X129058577Y-127911703D01*
X129058700Y-127899998D01*
X129044495Y-127796300D01*
X129038119Y-127749754D01*
X128995517Y-127651307D01*
X128977892Y-127610577D01*
X128882458Y-127492727D01*
X128882456Y-127492725D01*
X128758843Y-127404878D01*
X128758842Y-127404878D01*
X128758841Y-127404877D01*
X128662034Y-127370024D01*
X133545706Y-127370024D01*
X133584955Y-127516505D01*
X133658991Y-127641692D01*
X133662151Y-127647036D01*
X133689359Y-127673128D01*
X133771604Y-127751998D01*
X133905253Y-127823659D01*
X134053249Y-127856741D01*
X134204691Y-127848804D01*
X134348418Y-127800434D01*
X134473842Y-127715196D01*
X134476794Y-127711703D01*
X134571726Y-127599366D01*
X134634854Y-127461482D01*
X134640072Y-127428539D01*
X134658577Y-127311703D01*
X134658700Y-127299998D01*
X134646462Y-127210654D01*
X138445706Y-127210654D01*
X138484955Y-127357135D01*
X138562150Y-127487665D01*
X138671604Y-127592628D01*
X138785277Y-127653578D01*
X138805253Y-127664289D01*
X138953249Y-127697371D01*
X139104691Y-127689434D01*
X139248418Y-127641064D01*
X139373842Y-127555826D01*
X139378568Y-127550234D01*
X139471726Y-127439996D01*
X139534854Y-127302112D01*
X139545729Y-127233450D01*
X139558577Y-127152333D01*
X139558700Y-127140628D01*
X139538119Y-126990385D01*
X139535827Y-126985087D01*
X139499006Y-126900000D01*
X139477892Y-126851207D01*
X139382458Y-126733357D01*
X139382456Y-126733355D01*
X139258843Y-126645508D01*
X139258842Y-126645508D01*
X139258841Y-126645507D01*
X139116161Y-126594139D01*
X138964918Y-126583031D01*
X138816264Y-126613006D01*
X138816262Y-126613007D01*
X138681142Y-126681854D01*
X138603218Y-126753509D01*
X138569513Y-126784502D01*
X138489602Y-126913386D01*
X138449294Y-127052130D01*
X138447294Y-127059013D01*
X138445706Y-127210654D01*
X134646462Y-127210654D01*
X134642627Y-127182661D01*
X134638119Y-127149754D01*
X134595873Y-127052130D01*
X134577892Y-127010577D01*
X134482458Y-126892727D01*
X134482456Y-126892725D01*
X134358843Y-126804878D01*
X134358842Y-126804878D01*
X134358841Y-126804877D01*
X134216161Y-126753509D01*
X134064918Y-126742401D01*
X133916264Y-126772376D01*
X133916262Y-126772377D01*
X133781142Y-126841224D01*
X133692633Y-126922612D01*
X133669513Y-126943872D01*
X133589602Y-127072756D01*
X133547294Y-127218382D01*
X133546062Y-127336059D01*
X133545706Y-127370024D01*
X128662034Y-127370024D01*
X128616161Y-127353509D01*
X128464918Y-127342401D01*
X128316264Y-127372376D01*
X128316262Y-127372377D01*
X128181142Y-127441224D01*
X128069514Y-127543871D01*
X128069513Y-127543872D01*
X127989602Y-127672756D01*
X127947294Y-127818382D01*
X127947034Y-127843195D01*
X127945706Y-127970024D01*
X127984955Y-128116505D01*
X128053268Y-128232015D01*
X128062151Y-128247036D01*
X128082786Y-128266824D01*
X128105497Y-128312978D01*
X128093227Y-128362933D01*
X128030737Y-128396300D01*
X124902427Y-128396300D01*
X124761069Y-128411157D01*
X124580400Y-128469860D01*
X124426134Y-128558926D01*
X124415880Y-128564846D01*
X124274704Y-128691961D01*
X124274701Y-128691964D01*
X124200782Y-128793706D01*
X124163043Y-128845650D01*
X124085775Y-129019196D01*
X124046278Y-129205015D01*
X124046278Y-129394985D01*
X124085775Y-129580804D01*
X124163043Y-129754350D01*
X124163045Y-129754352D01*
X124163045Y-129754353D01*
X124274701Y-129908036D01*
X124274704Y-129908039D01*
X124415880Y-130035154D01*
X124415882Y-130035155D01*
X124415883Y-130035156D01*
X124451943Y-130055975D01*
X124485008Y-130095380D01*
X124485008Y-130146820D01*
X124451943Y-130186225D01*
X124414343Y-130196300D01*
X100203700Y-130196300D01*
X100203700Y-128203700D01*
X115521919Y-128203700D01*
X115522824Y-128203494D01*
X115546236Y-128203514D01*
X115553554Y-128200000D01*
X115700000Y-128200000D01*
X115700000Y-128053709D01*
X115703433Y-128046592D01*
X115703453Y-128023191D01*
X115703700Y-128022118D01*
X115703700Y-126970024D01*
X118145706Y-126970024D01*
X118173233Y-127072756D01*
X118184955Y-127116505D01*
X118262150Y-127247035D01*
X118304421Y-127287572D01*
X118269515Y-127343870D01*
X118269514Y-127343871D01*
X118189602Y-127472756D01*
X118179374Y-127507962D01*
X118149562Y-127610578D01*
X118147294Y-127618383D01*
X118145706Y-127770024D01*
X118184955Y-127916505D01*
X118262150Y-128047035D01*
X118371604Y-128151998D01*
X118459946Y-128199366D01*
X118505253Y-128223659D01*
X118653249Y-128256741D01*
X118804691Y-128248804D01*
X118948418Y-128200434D01*
X119073842Y-128115196D01*
X119078978Y-128109118D01*
X119171726Y-127999366D01*
X119234854Y-127861482D01*
X119239518Y-127832033D01*
X119258577Y-127711703D01*
X119258700Y-127699998D01*
X119238951Y-127555826D01*
X119238119Y-127549754D01*
X119196859Y-127454408D01*
X119177892Y-127410577D01*
X119087533Y-127298995D01*
X119171726Y-127199366D01*
X119234854Y-127061482D01*
X119239527Y-127031980D01*
X119258577Y-126911703D01*
X119258700Y-126899998D01*
X119234318Y-126722006D01*
X119298418Y-126700434D01*
X119423843Y-126615195D01*
X119458597Y-126591576D01*
X119483228Y-126615196D01*
X119521604Y-126651998D01*
X119655253Y-126723659D01*
X119803249Y-126756741D01*
X119954691Y-126748804D01*
X120098418Y-126700434D01*
X120223843Y-126615195D01*
X120258597Y-126591576D01*
X120283228Y-126615196D01*
X120321604Y-126651998D01*
X120455253Y-126723659D01*
X120603249Y-126756741D01*
X120754691Y-126748804D01*
X120898418Y-126700434D01*
X121023843Y-126615195D01*
X121058597Y-126591576D01*
X121083228Y-126615196D01*
X121121604Y-126651998D01*
X121211938Y-126700434D01*
X121272177Y-126732734D01*
X121266142Y-126753509D01*
X121247294Y-126818382D01*
X121246086Y-126933719D01*
X121245706Y-126970024D01*
X121273233Y-127072756D01*
X121284955Y-127116505D01*
X121362150Y-127247035D01*
X121404421Y-127287572D01*
X121369515Y-127343870D01*
X121369514Y-127343871D01*
X121289602Y-127472756D01*
X121279374Y-127507962D01*
X121249562Y-127610578D01*
X121247294Y-127618383D01*
X121245706Y-127770024D01*
X121284955Y-127916505D01*
X121362150Y-128047035D01*
X121471604Y-128151998D01*
X121559946Y-128199366D01*
X121605253Y-128223659D01*
X121753249Y-128256741D01*
X121904691Y-128248804D01*
X122048418Y-128200434D01*
X122173842Y-128115196D01*
X122178978Y-128109118D01*
X122271726Y-127999366D01*
X122334854Y-127861482D01*
X122339518Y-127832033D01*
X122358577Y-127711703D01*
X122358700Y-127699998D01*
X122338951Y-127555826D01*
X122338119Y-127549754D01*
X122296859Y-127454408D01*
X122277892Y-127410577D01*
X122187533Y-127298995D01*
X122271726Y-127199366D01*
X122334854Y-127061482D01*
X122339527Y-127031980D01*
X122358577Y-126911703D01*
X122358700Y-126899998D01*
X122341218Y-126772376D01*
X122338119Y-126749754D01*
X122304799Y-126672756D01*
X122277892Y-126610577D01*
X122182458Y-126492727D01*
X122182456Y-126492725D01*
X122058843Y-126404878D01*
X122058842Y-126404878D01*
X122058841Y-126404877D01*
X121982343Y-126377336D01*
X122008577Y-126211703D01*
X122008700Y-126199998D01*
X121994596Y-126097041D01*
X121988119Y-126049754D01*
X121958006Y-125980166D01*
X121927892Y-125910577D01*
X121837533Y-125798995D01*
X121921726Y-125699366D01*
X121984854Y-125561482D01*
X121994692Y-125499366D01*
X122008577Y-125411703D01*
X122008700Y-125399998D01*
X121992281Y-125280140D01*
X121988119Y-125249754D01*
X121927892Y-125110578D01*
X121927892Y-125110577D01*
X121837533Y-124998995D01*
X121921726Y-124899366D01*
X121980943Y-124770024D01*
X124145706Y-124770024D01*
X124184955Y-124916505D01*
X124262150Y-125047035D01*
X124360155Y-125141018D01*
X124423772Y-125202025D01*
X124381144Y-125241223D01*
X124381142Y-125241224D01*
X124290664Y-125324423D01*
X124269513Y-125343872D01*
X124189602Y-125472756D01*
X124147294Y-125618382D01*
X124145720Y-125768640D01*
X124145706Y-125770024D01*
X124184955Y-125916505D01*
X124262150Y-126047035D01*
X124371604Y-126151998D01*
X124469243Y-126204351D01*
X124505253Y-126223659D01*
X124653249Y-126256741D01*
X124804690Y-126248804D01*
X124839531Y-126246978D01*
X124845706Y-126270023D01*
X124845706Y-126270024D01*
X124884955Y-126416505D01*
X124962150Y-126547035D01*
X125071604Y-126651998D01*
X125205253Y-126723659D01*
X125353249Y-126756741D01*
X125504691Y-126748804D01*
X125648418Y-126700434D01*
X125773842Y-126615196D01*
X125775693Y-126613006D01*
X125871726Y-126499366D01*
X125934854Y-126361482D01*
X125945139Y-126296546D01*
X125958577Y-126211703D01*
X125958700Y-126199998D01*
X125944596Y-126097041D01*
X125938119Y-126049754D01*
X125908006Y-125980166D01*
X125877892Y-125910577D01*
X125782456Y-125792724D01*
X125650552Y-125698984D01*
X125693165Y-125670024D01*
X131445706Y-125670024D01*
X131484955Y-125816505D01*
X131540590Y-125910578D01*
X131562151Y-125947036D01*
X131588973Y-125972757D01*
X131671604Y-126051998D01*
X131805253Y-126123659D01*
X131953249Y-126156741D01*
X132104691Y-126148804D01*
X132248418Y-126100434D01*
X132373842Y-126015196D01*
X132388390Y-125997981D01*
X132471726Y-125899366D01*
X132531576Y-125768640D01*
X136345706Y-125768640D01*
X136384955Y-125915121D01*
X136458051Y-126038719D01*
X136462151Y-126045652D01*
X136468769Y-126051998D01*
X136571604Y-126150614D01*
X136705253Y-126222275D01*
X136853249Y-126255357D01*
X137004691Y-126247420D01*
X137148418Y-126199050D01*
X137273842Y-126113812D01*
X137280590Y-126105827D01*
X137371726Y-125997982D01*
X137434854Y-125860098D01*
X137437424Y-125843871D01*
X137458577Y-125710319D01*
X137458700Y-125698614D01*
X137438119Y-125548371D01*
X137438034Y-125548173D01*
X137396415Y-125451997D01*
X137377892Y-125409193D01*
X137282458Y-125291343D01*
X137282456Y-125291341D01*
X137158843Y-125203494D01*
X137158842Y-125203494D01*
X137158841Y-125203493D01*
X137016161Y-125152125D01*
X136864918Y-125141017D01*
X136716264Y-125170992D01*
X136716262Y-125170993D01*
X136581142Y-125239840D01*
X136489148Y-125324433D01*
X136469513Y-125342488D01*
X136389602Y-125471372D01*
X136347294Y-125616998D01*
X136347265Y-125619743D01*
X136345706Y-125768640D01*
X132531576Y-125768640D01*
X132534854Y-125761482D01*
X132538637Y-125737595D01*
X132558577Y-125611703D01*
X132558700Y-125599998D01*
X132540583Y-125467741D01*
X132538119Y-125449754D01*
X132504385Y-125371800D01*
X132477892Y-125310577D01*
X132382458Y-125192727D01*
X132382456Y-125192725D01*
X132258843Y-125104878D01*
X132258842Y-125104878D01*
X132258841Y-125104877D01*
X132116161Y-125053509D01*
X131964918Y-125042401D01*
X131816264Y-125072376D01*
X131816262Y-125072377D01*
X131681142Y-125141224D01*
X131573898Y-125239840D01*
X131569513Y-125243872D01*
X131489602Y-125372756D01*
X131447294Y-125518382D01*
X131447152Y-125531896D01*
X131445706Y-125670024D01*
X125693165Y-125670024D01*
X125773843Y-125615195D01*
X125871726Y-125499366D01*
X125934854Y-125361482D01*
X125940891Y-125323364D01*
X125958577Y-125211703D01*
X125958700Y-125199998D01*
X125938119Y-125049755D01*
X125936943Y-125047036D01*
X125908005Y-124980166D01*
X125877892Y-124910577D01*
X125782456Y-124792724D01*
X125650552Y-124698984D01*
X125773843Y-124615195D01*
X125871726Y-124499366D01*
X125934854Y-124361482D01*
X125942411Y-124313767D01*
X125958577Y-124211703D01*
X125958700Y-124199998D01*
X125938119Y-124049755D01*
X125937708Y-124048804D01*
X125895816Y-123951997D01*
X125877892Y-123910577D01*
X125861079Y-123889814D01*
X136445706Y-123889814D01*
X136484955Y-124036295D01*
X136556679Y-124157573D01*
X136562151Y-124166826D01*
X136567940Y-124172377D01*
X136671604Y-124271788D01*
X136805253Y-124343449D01*
X136953249Y-124376531D01*
X137104691Y-124368594D01*
X137248418Y-124320224D01*
X137373842Y-124234986D01*
X137393519Y-124211701D01*
X137471726Y-124119156D01*
X137534854Y-123981272D01*
X137544658Y-123919372D01*
X137558577Y-123831493D01*
X137558700Y-123819788D01*
X137544552Y-123716505D01*
X137538119Y-123669544D01*
X137495052Y-123570023D01*
X137477892Y-123530367D01*
X137382458Y-123412517D01*
X137382456Y-123412515D01*
X137258843Y-123324668D01*
X137258842Y-123324668D01*
X137258841Y-123324667D01*
X137116161Y-123273299D01*
X136964918Y-123262191D01*
X136816264Y-123292166D01*
X136816262Y-123292167D01*
X136681142Y-123361014D01*
X136573728Y-123459786D01*
X136569513Y-123463662D01*
X136489602Y-123592546D01*
X136453970Y-123715195D01*
X136447294Y-123738173D01*
X136445706Y-123889814D01*
X125861079Y-123889814D01*
X125782458Y-123792727D01*
X125782456Y-123792725D01*
X125658843Y-123704878D01*
X125658842Y-123704878D01*
X125658841Y-123704877D01*
X125516161Y-123653509D01*
X125364918Y-123642401D01*
X125216264Y-123672376D01*
X125216262Y-123672377D01*
X125081142Y-123741224D01*
X124982977Y-123831491D01*
X124969513Y-123843872D01*
X124889602Y-123972756D01*
X124836652Y-124155013D01*
X124664918Y-124142401D01*
X124516264Y-124172376D01*
X124516262Y-124172377D01*
X124381142Y-124241224D01*
X124320758Y-124296750D01*
X124269513Y-124343872D01*
X124189602Y-124472756D01*
X124149235Y-124611703D01*
X124147294Y-124618383D01*
X124145706Y-124770024D01*
X121980943Y-124770024D01*
X121984854Y-124761482D01*
X121991247Y-124721120D01*
X122008577Y-124611703D01*
X122008700Y-124599998D01*
X121989344Y-124458697D01*
X121988119Y-124449754D01*
X121957082Y-124378032D01*
X121927892Y-124310577D01*
X121832458Y-124192727D01*
X121832456Y-124192725D01*
X121708843Y-124104878D01*
X121708842Y-124104878D01*
X121708841Y-124104877D01*
X121566161Y-124053509D01*
X121414918Y-124042401D01*
X121266264Y-124072376D01*
X121266262Y-124072377D01*
X121131142Y-124141224D01*
X121022393Y-124241224D01*
X121019513Y-124243872D01*
X120939602Y-124372756D01*
X120898208Y-124515238D01*
X120897294Y-124518383D01*
X120895706Y-124670024D01*
X120927786Y-124789748D01*
X120934955Y-124816505D01*
X121012150Y-124947035D01*
X121054421Y-124987572D01*
X121019515Y-125043870D01*
X121019514Y-125043871D01*
X120939602Y-125172756D01*
X120939602Y-125172757D01*
X120897840Y-125316505D01*
X120897294Y-125318383D01*
X120895706Y-125470024D01*
X120916699Y-125548371D01*
X120926721Y-125585775D01*
X120922237Y-125637019D01*
X120885864Y-125673392D01*
X120828610Y-125675992D01*
X120766161Y-125653509D01*
X120614918Y-125642401D01*
X120466264Y-125672376D01*
X120466262Y-125672377D01*
X120331142Y-125741224D01*
X120280739Y-125787572D01*
X120268317Y-125798995D01*
X120256530Y-125809833D01*
X120179050Y-125754772D01*
X120108843Y-125704878D01*
X120108842Y-125704878D01*
X120108841Y-125704877D01*
X119966161Y-125653509D01*
X119814919Y-125642401D01*
X119711849Y-125663185D01*
X119666262Y-125672377D01*
X119666261Y-125672378D01*
X119665317Y-125672568D01*
X119614455Y-125664877D01*
X119580437Y-125626291D01*
X119582077Y-125567549D01*
X119584854Y-125561483D01*
X119608577Y-125411703D01*
X119608700Y-125399998D01*
X119592281Y-125280140D01*
X119588119Y-125249754D01*
X119527892Y-125110578D01*
X119527892Y-125110577D01*
X119437533Y-124998995D01*
X119521726Y-124899366D01*
X119584854Y-124761482D01*
X119591247Y-124721120D01*
X119608577Y-124611703D01*
X119608700Y-124599998D01*
X119589344Y-124458697D01*
X119588119Y-124449754D01*
X119557082Y-124378032D01*
X119527892Y-124310577D01*
X119432458Y-124192727D01*
X119432456Y-124192725D01*
X119308843Y-124104878D01*
X119308842Y-124104878D01*
X119308841Y-124104877D01*
X119166161Y-124053509D01*
X119014918Y-124042401D01*
X118866264Y-124072376D01*
X118866262Y-124072377D01*
X118731142Y-124141224D01*
X118622393Y-124241224D01*
X118619513Y-124243872D01*
X118539602Y-124372756D01*
X118498208Y-124515238D01*
X118497294Y-124518383D01*
X118495706Y-124670024D01*
X118527786Y-124789748D01*
X118534955Y-124816505D01*
X118612150Y-124947035D01*
X118654421Y-124987572D01*
X118619515Y-125043870D01*
X118619514Y-125043871D01*
X118539602Y-125172756D01*
X118539602Y-125172757D01*
X118497840Y-125316505D01*
X118497294Y-125318383D01*
X118495706Y-125470024D01*
X118522023Y-125568242D01*
X118534955Y-125616505D01*
X118612150Y-125747035D01*
X118654421Y-125787572D01*
X118619515Y-125843870D01*
X118619514Y-125843871D01*
X118539602Y-125972756D01*
X118524315Y-126025375D01*
X118497294Y-126118382D01*
X118495706Y-126270024D01*
X118522305Y-126369298D01*
X118516262Y-126372377D01*
X118381142Y-126441224D01*
X118271233Y-126542290D01*
X118269513Y-126543872D01*
X118189602Y-126672756D01*
X118147294Y-126818382D01*
X118146086Y-126933719D01*
X118145706Y-126970024D01*
X115703700Y-126970024D01*
X115703700Y-122600000D01*
X127691300Y-122600000D01*
X127712041Y-122757543D01*
X127772850Y-122904350D01*
X127869584Y-123030416D01*
X127995650Y-123127150D01*
X128142457Y-123187959D01*
X128300000Y-123208700D01*
X128457543Y-123187959D01*
X128604350Y-123127150D01*
X128730416Y-123030416D01*
X128827150Y-122904350D01*
X128887959Y-122757543D01*
X128908700Y-122600000D01*
X128887959Y-122442457D01*
X128827150Y-122295650D01*
X128730416Y-122169584D01*
X128604350Y-122072850D01*
X128457543Y-122012041D01*
X128300000Y-121991300D01*
X128142457Y-122012041D01*
X127995650Y-122072850D01*
X127869584Y-122169584D01*
X127772850Y-122295650D01*
X127712041Y-122442457D01*
X127691300Y-122600000D01*
X115703700Y-122600000D01*
X115703700Y-121978081D01*
X115703494Y-121977176D01*
X115703514Y-121953763D01*
X115700000Y-121946445D01*
X115700000Y-121800000D01*
X115553709Y-121800000D01*
X115546592Y-121796567D01*
X115523191Y-121796547D01*
X115522118Y-121796300D01*
X100203700Y-121796300D01*
X100203700Y-120970024D01*
X106545706Y-120970024D01*
X106584955Y-121116505D01*
X106662150Y-121247035D01*
X106771604Y-121351998D01*
X106889469Y-121415196D01*
X106905253Y-121423659D01*
X107053249Y-121456741D01*
X107204691Y-121448804D01*
X107348418Y-121400434D01*
X107473842Y-121315196D01*
X107485478Y-121301427D01*
X107571726Y-121199366D01*
X107634854Y-121061482D01*
X107644692Y-120999366D01*
X107649339Y-120970024D01*
X131245706Y-120970024D01*
X131284955Y-121116505D01*
X131362150Y-121247035D01*
X131471604Y-121351998D01*
X131589469Y-121415196D01*
X131605253Y-121423659D01*
X131753249Y-121456741D01*
X131904691Y-121448804D01*
X132048418Y-121400434D01*
X132173842Y-121315196D01*
X132185478Y-121301427D01*
X132271726Y-121199366D01*
X132334854Y-121061482D01*
X132344692Y-120999366D01*
X132349339Y-120970024D01*
X135545706Y-120970024D01*
X135584955Y-121116505D01*
X135662150Y-121247035D01*
X135771604Y-121351998D01*
X135905253Y-121423659D01*
X136053249Y-121456741D01*
X136204691Y-121448804D01*
X136348418Y-121400434D01*
X136473842Y-121315196D01*
X136485478Y-121301427D01*
X136571726Y-121199366D01*
X136634854Y-121061482D01*
X136644692Y-120999366D01*
X136658577Y-120911703D01*
X136658700Y-120899998D01*
X136640896Y-120770024D01*
X136638119Y-120749754D01*
X136593669Y-120647036D01*
X136577892Y-120610577D01*
X136482458Y-120492727D01*
X136482456Y-120492725D01*
X136358843Y-120404878D01*
X136358842Y-120404878D01*
X136358841Y-120404877D01*
X136216161Y-120353509D01*
X136064918Y-120342401D01*
X135916264Y-120372376D01*
X135916262Y-120372377D01*
X135781142Y-120441224D01*
X135697233Y-120518382D01*
X135669513Y-120543872D01*
X135589602Y-120672756D01*
X135547840Y-120816505D01*
X135547294Y-120818383D01*
X135545706Y-120970024D01*
X132349339Y-120970024D01*
X132358577Y-120911703D01*
X132358700Y-120899998D01*
X132340896Y-120770024D01*
X132338119Y-120749754D01*
X132293669Y-120647036D01*
X132277892Y-120610577D01*
X132182458Y-120492727D01*
X132182456Y-120492725D01*
X132058843Y-120404878D01*
X132058842Y-120404878D01*
X132058841Y-120404877D01*
X131916161Y-120353509D01*
X131764918Y-120342401D01*
X131616264Y-120372376D01*
X131616262Y-120372377D01*
X131481142Y-120441224D01*
X131397233Y-120518382D01*
X131369513Y-120543872D01*
X131289602Y-120672756D01*
X131247840Y-120816505D01*
X131247294Y-120818383D01*
X131245706Y-120970024D01*
X107649339Y-120970024D01*
X107658577Y-120911703D01*
X107658700Y-120899998D01*
X107640896Y-120770024D01*
X107638119Y-120749754D01*
X107593669Y-120647036D01*
X107577892Y-120610577D01*
X107482458Y-120492727D01*
X107482456Y-120492725D01*
X107358843Y-120404878D01*
X107358842Y-120404878D01*
X107358841Y-120404877D01*
X107216161Y-120353509D01*
X107064918Y-120342401D01*
X106916264Y-120372376D01*
X106916262Y-120372377D01*
X106781142Y-120441224D01*
X106697233Y-120518382D01*
X106669513Y-120543872D01*
X106589602Y-120672756D01*
X106547840Y-120816505D01*
X106547294Y-120818383D01*
X106545706Y-120970024D01*
X100203700Y-120970024D01*
X100203700Y-119703700D01*
X176737821Y-119703700D01*
X176786159Y-119721293D01*
G37*
G04 #@! TD.AperFunction*
G04 #@! TD*
M02*
