G04 #@! TF.GenerationSoftware,KiCad,Pcbnew,(5.99.0-3798-g06f04ad99b)*
G04 #@! TF.CreationDate,2020-10-05T20:21:20-07:00*
G04 #@! TF.ProjectId,RT_USB_PD_Soldering_Iron,52545f55-5342-45f5-9044-5f536f6c6465,rev?*
G04 #@! TF.SameCoordinates,PX5f5e100PY7735940*
G04 #@! TF.FileFunction,Paste,Top*
G04 #@! TF.FilePolarity,Positive*
%FSLAX46Y46*%
G04 Gerber Fmt 4.6, Leading zero omitted, Abs format (unit mm)*
G04 Created by KiCad (PCBNEW (5.99.0-3798-g06f04ad99b)) date 2020-10-05 20:21:20*
%MOMM*%
%LPD*%
G01*
G04 APERTURE LIST*
%ADD10R,3.000000X0.320000*%
%ADD11R,1.200000X0.600000*%
%ADD12R,1.200000X0.300000*%
%ADD13R,0.550000X0.650000*%
%ADD14R,0.630000X0.820000*%
%ADD15R,0.350000X0.650000*%
%ADD16R,2.100000X1.400000*%
%ADD17R,0.650000X0.400000*%
%ADD18R,0.400000X0.650000*%
%ADD19R,0.250000X0.675000*%
%ADD20R,0.675000X0.250000*%
G04 APERTURE END LIST*
G04 #@! TO.C,R10*
G36*
G01*
X27620000Y15000D02*
X27620000Y385000D01*
G75*
G02*
X27755000Y520000I135000J0D01*
G01*
X28025000Y520000D01*
G75*
G02*
X28160000Y385000I0J-135000D01*
G01*
X28160000Y15000D01*
G75*
G02*
X28025000Y-120000I-135000J0D01*
G01*
X27755000Y-120000D01*
G75*
G02*
X27620000Y15000I0J135000D01*
G01*
G37*
G36*
G01*
X28640000Y15000D02*
X28640000Y385000D01*
G75*
G02*
X28775000Y520000I135000J0D01*
G01*
X29045000Y520000D01*
G75*
G02*
X29180000Y385000I0J-135000D01*
G01*
X29180000Y15000D01*
G75*
G02*
X29045000Y-120000I-135000J0D01*
G01*
X28775000Y-120000D01*
G75*
G02*
X28640000Y15000I0J135000D01*
G01*
G37*
G04 #@! TD*
G04 #@! TO.C,C21*
G36*
G01*
X40320654Y-1572289D02*
X40080238Y-1331873D01*
G75*
G02*
X40080238Y-1133883I98995J98995D01*
G01*
X40278228Y-935893D01*
G75*
G02*
X40476218Y-935893I98995J-98995D01*
G01*
X40716634Y-1176309D01*
G75*
G02*
X40716634Y-1374299I-98995J-98995D01*
G01*
X40518644Y-1572289D01*
G75*
G02*
X40320654Y-1572289I-98995J98995D01*
G01*
G37*
G36*
G01*
X40999476Y-893467D02*
X40759060Y-653051D01*
G75*
G02*
X40759060Y-455061I98995J98995D01*
G01*
X40957050Y-257071D01*
G75*
G02*
X41155040Y-257071I98995J-98995D01*
G01*
X41395456Y-497487D01*
G75*
G02*
X41395456Y-695477I-98995J-98995D01*
G01*
X41197466Y-893467D01*
G75*
G02*
X40999476Y-893467I-98995J98995D01*
G01*
G37*
G04 #@! TD*
D10*
G04 #@! TO.C,OLED1*
X55804966Y-4036671D03*
X55804966Y-3416671D03*
X55804966Y-2796671D03*
X55804966Y-2176671D03*
X55804966Y-1556671D03*
X55804966Y-936671D03*
X55804966Y-316671D03*
X55804966Y303329D03*
X55804966Y923329D03*
X55804966Y1543329D03*
X55804966Y2163329D03*
X55804966Y2783329D03*
X55804966Y3403329D03*
X55804966Y4023329D03*
G04 #@! TD*
D11*
G04 #@! TO.C,J1*
X68575000Y-3200000D03*
X68575000Y-2400000D03*
D12*
X68575000Y-1250000D03*
X68575000Y-250000D03*
X68575000Y250000D03*
X68575000Y1250000D03*
D11*
X68575000Y2400000D03*
X68575000Y3200000D03*
X68575000Y3200000D03*
X68575000Y2400000D03*
D12*
X68575000Y1750000D03*
X68575000Y750000D03*
X68575000Y-750000D03*
X68575000Y-1750000D03*
D11*
X68575000Y-2400000D03*
X68575000Y-3200000D03*
G04 #@! TD*
D13*
G04 #@! TO.C,SW1*
X64685016Y4081016D03*
X64685016Y931016D03*
X66335016Y931016D03*
X66335016Y4081016D03*
G04 #@! TD*
G04 #@! TO.C,R17*
G36*
G01*
X30120000Y-2381942D02*
X30120000Y-2011942D01*
G75*
G02*
X30255000Y-1876942I135000J0D01*
G01*
X30525000Y-1876942D01*
G75*
G02*
X30660000Y-2011942I0J-135000D01*
G01*
X30660000Y-2381942D01*
G75*
G02*
X30525000Y-2516942I-135000J0D01*
G01*
X30255000Y-2516942D01*
G75*
G02*
X30120000Y-2381942I0J135000D01*
G01*
G37*
G36*
G01*
X31140000Y-2381942D02*
X31140000Y-2011942D01*
G75*
G02*
X31275000Y-1876942I135000J0D01*
G01*
X31545000Y-1876942D01*
G75*
G02*
X31680000Y-2011942I0J-135000D01*
G01*
X31680000Y-2381942D01*
G75*
G02*
X31545000Y-2516942I-135000J0D01*
G01*
X31275000Y-2516942D01*
G75*
G02*
X31140000Y-2381942I0J135000D01*
G01*
G37*
G04 #@! TD*
G04 #@! TO.C,C8*
G36*
G01*
X63660000Y4190232D02*
X63660000Y3850232D01*
G75*
G02*
X63520000Y3710232I-140000J0D01*
G01*
X63240000Y3710232D01*
G75*
G02*
X63100000Y3850232I0J140000D01*
G01*
X63100000Y4190232D01*
G75*
G02*
X63240000Y4330232I140000J0D01*
G01*
X63520000Y4330232D01*
G75*
G02*
X63660000Y4190232I0J-140000D01*
G01*
G37*
G36*
G01*
X62700000Y4190232D02*
X62700000Y3850232D01*
G75*
G02*
X62560000Y3710232I-140000J0D01*
G01*
X62280000Y3710232D01*
G75*
G02*
X62140000Y3850232I0J140000D01*
G01*
X62140000Y4190232D01*
G75*
G02*
X62280000Y4330232I140000J0D01*
G01*
X62560000Y4330232D01*
G75*
G02*
X62700000Y4190232I0J-140000D01*
G01*
G37*
G04 #@! TD*
G04 #@! TO.C,C12*
G36*
G01*
X46123709Y3861441D02*
X46463709Y3861441D01*
G75*
G02*
X46603709Y3721441I0J-140000D01*
G01*
X46603709Y3441441D01*
G75*
G02*
X46463709Y3301441I-140000J0D01*
G01*
X46123709Y3301441D01*
G75*
G02*
X45983709Y3441441I0J140000D01*
G01*
X45983709Y3721441D01*
G75*
G02*
X46123709Y3861441I140000J0D01*
G01*
G37*
G36*
G01*
X46123709Y2901441D02*
X46463709Y2901441D01*
G75*
G02*
X46603709Y2761441I0J-140000D01*
G01*
X46603709Y2481441D01*
G75*
G02*
X46463709Y2341441I-140000J0D01*
G01*
X46123709Y2341441D01*
G75*
G02*
X45983709Y2481441I0J140000D01*
G01*
X45983709Y2761441D01*
G75*
G02*
X46123709Y2901441I140000J0D01*
G01*
G37*
G04 #@! TD*
G04 #@! TO.C,C5*
G36*
G01*
X34970000Y-1460000D02*
X34630000Y-1460000D01*
G75*
G02*
X34490000Y-1320000I0J140000D01*
G01*
X34490000Y-1040000D01*
G75*
G02*
X34630000Y-900000I140000J0D01*
G01*
X34970000Y-900000D01*
G75*
G02*
X35110000Y-1040000I0J-140000D01*
G01*
X35110000Y-1320000D01*
G75*
G02*
X34970000Y-1460000I-140000J0D01*
G01*
G37*
G36*
G01*
X34970000Y-500000D02*
X34630000Y-500000D01*
G75*
G02*
X34490000Y-360000I0J140000D01*
G01*
X34490000Y-80000D01*
G75*
G02*
X34630000Y60000I140000J0D01*
G01*
X34970000Y60000D01*
G75*
G02*
X35110000Y-80000I0J-140000D01*
G01*
X35110000Y-360000D01*
G75*
G02*
X34970000Y-500000I-140000J0D01*
G01*
G37*
G04 #@! TD*
G04 #@! TO.C,C20*
G36*
G01*
X52137126Y-2970000D02*
X52137126Y-2630000D01*
G75*
G02*
X52277126Y-2490000I140000J0D01*
G01*
X52557126Y-2490000D01*
G75*
G02*
X52697126Y-2630000I0J-140000D01*
G01*
X52697126Y-2970000D01*
G75*
G02*
X52557126Y-3110000I-140000J0D01*
G01*
X52277126Y-3110000D01*
G75*
G02*
X52137126Y-2970000I0J140000D01*
G01*
G37*
G36*
G01*
X53097126Y-2970000D02*
X53097126Y-2630000D01*
G75*
G02*
X53237126Y-2490000I140000J0D01*
G01*
X53517126Y-2490000D01*
G75*
G02*
X53657126Y-2630000I0J-140000D01*
G01*
X53657126Y-2970000D01*
G75*
G02*
X53517126Y-3110000I-140000J0D01*
G01*
X53237126Y-3110000D01*
G75*
G02*
X53097126Y-2970000I0J140000D01*
G01*
G37*
G04 #@! TD*
G04 #@! TO.C,C24*
G36*
G01*
X25660000Y3470000D02*
X25660000Y3130000D01*
G75*
G02*
X25520000Y2990000I-140000J0D01*
G01*
X25240000Y2990000D01*
G75*
G02*
X25100000Y3130000I0J140000D01*
G01*
X25100000Y3470000D01*
G75*
G02*
X25240000Y3610000I140000J0D01*
G01*
X25520000Y3610000D01*
G75*
G02*
X25660000Y3470000I0J-140000D01*
G01*
G37*
G36*
G01*
X24700000Y3470000D02*
X24700000Y3130000D01*
G75*
G02*
X24560000Y2990000I-140000J0D01*
G01*
X24280000Y2990000D01*
G75*
G02*
X24140000Y3130000I0J140000D01*
G01*
X24140000Y3470000D01*
G75*
G02*
X24280000Y3610000I140000J0D01*
G01*
X24560000Y3610000D01*
G75*
G02*
X24700000Y3470000I0J-140000D01*
G01*
G37*
G04 #@! TD*
D14*
G04 #@! TO.C,U8*
X42147498Y2000000D03*
X41347498Y2000000D03*
D15*
X42397498Y3050000D03*
X41747498Y3050000D03*
X41097498Y3050000D03*
X41097498Y950000D03*
X41747498Y950000D03*
X42397498Y950000D03*
G04 #@! TD*
G04 #@! TO.C,R12*
G36*
G01*
X27620000Y-1485000D02*
X27620000Y-1115000D01*
G75*
G02*
X27755000Y-980000I135000J0D01*
G01*
X28025000Y-980000D01*
G75*
G02*
X28160000Y-1115000I0J-135000D01*
G01*
X28160000Y-1485000D01*
G75*
G02*
X28025000Y-1620000I-135000J0D01*
G01*
X27755000Y-1620000D01*
G75*
G02*
X27620000Y-1485000I0J135000D01*
G01*
G37*
G36*
G01*
X28640000Y-1485000D02*
X28640000Y-1115000D01*
G75*
G02*
X28775000Y-980000I135000J0D01*
G01*
X29045000Y-980000D01*
G75*
G02*
X29180000Y-1115000I0J-135000D01*
G01*
X29180000Y-1485000D01*
G75*
G02*
X29045000Y-1620000I-135000J0D01*
G01*
X28775000Y-1620000D01*
G75*
G02*
X28640000Y-1485000I0J135000D01*
G01*
G37*
G04 #@! TD*
D13*
G04 #@! TO.C,SW2*
X64678905Y-925000D03*
X64678905Y-4075000D03*
X66328905Y-925000D03*
X66328905Y-4075000D03*
G04 #@! TD*
G04 #@! TO.C,C26*
G36*
G01*
X51640000Y2930000D02*
X51640000Y3270000D01*
G75*
G02*
X51780000Y3410000I140000J0D01*
G01*
X52060000Y3410000D01*
G75*
G02*
X52200000Y3270000I0J-140000D01*
G01*
X52200000Y2930000D01*
G75*
G02*
X52060000Y2790000I-140000J0D01*
G01*
X51780000Y2790000D01*
G75*
G02*
X51640000Y2930000I0J140000D01*
G01*
G37*
G36*
G01*
X52600000Y2930000D02*
X52600000Y3270000D01*
G75*
G02*
X52740000Y3410000I140000J0D01*
G01*
X53020000Y3410000D01*
G75*
G02*
X53160000Y3270000I0J-140000D01*
G01*
X53160000Y2930000D01*
G75*
G02*
X53020000Y2790000I-140000J0D01*
G01*
X52740000Y2790000D01*
G75*
G02*
X52600000Y2930000I0J140000D01*
G01*
G37*
G04 #@! TD*
G04 #@! TO.C,R18*
G36*
G01*
X32311420Y-2392487D02*
X32311420Y-2022487D01*
G75*
G02*
X32446420Y-1887487I135000J0D01*
G01*
X32716420Y-1887487D01*
G75*
G02*
X32851420Y-2022487I0J-135000D01*
G01*
X32851420Y-2392487D01*
G75*
G02*
X32716420Y-2527487I-135000J0D01*
G01*
X32446420Y-2527487D01*
G75*
G02*
X32311420Y-2392487I0J135000D01*
G01*
G37*
G36*
G01*
X33331420Y-2392487D02*
X33331420Y-2022487D01*
G75*
G02*
X33466420Y-1887487I135000J0D01*
G01*
X33736420Y-1887487D01*
G75*
G02*
X33871420Y-2022487I0J-135000D01*
G01*
X33871420Y-2392487D01*
G75*
G02*
X33736420Y-2527487I-135000J0D01*
G01*
X33466420Y-2527487D01*
G75*
G02*
X33331420Y-2392487I0J135000D01*
G01*
G37*
G04 #@! TD*
D16*
G04 #@! TO.C,D3*
X19700000Y-2200000D03*
X19700000Y2200000D03*
G04 #@! TD*
G04 #@! TO.C,U6*
G36*
G01*
X25457500Y370000D02*
X25192500Y370000D01*
G75*
G02*
X25060000Y502500I0J132500D01*
G01*
X25060000Y897500D01*
G75*
G02*
X25192500Y1030000I132500J0D01*
G01*
X25457500Y1030000D01*
G75*
G02*
X25590000Y897500I0J-132500D01*
G01*
X25590000Y502500D01*
G75*
G02*
X25457500Y370000I-132500J0D01*
G01*
G37*
G36*
G01*
X23537500Y-1430000D02*
X23262500Y-1430000D01*
G75*
G02*
X23125000Y-1292500I0J137500D01*
G01*
X23125000Y-907500D01*
G75*
G02*
X23262500Y-770000I137500J0D01*
G01*
X23537500Y-770000D01*
G75*
G02*
X23675000Y-907500I0J-137500D01*
G01*
X23675000Y-1292500D01*
G75*
G02*
X23537500Y-1430000I-137500J0D01*
G01*
G37*
G36*
G01*
X24232500Y370000D02*
X23967500Y370000D01*
G75*
G02*
X23835000Y502500I0J132500D01*
G01*
X23835000Y897500D01*
G75*
G02*
X23967500Y1030000I132500J0D01*
G01*
X24232500Y1030000D01*
G75*
G02*
X24365000Y897500I0J-132500D01*
G01*
X24365000Y502500D01*
G75*
G02*
X24232500Y370000I-132500J0D01*
G01*
G37*
G36*
G01*
X24232500Y-550000D02*
X23967500Y-550000D01*
G75*
G02*
X23835000Y-417500I0J132500D01*
G01*
X23835000Y-22500D01*
G75*
G02*
X23967500Y110000I132500J0D01*
G01*
X24232500Y110000D01*
G75*
G02*
X24365000Y-22500I0J-132500D01*
G01*
X24365000Y-417500D01*
G75*
G02*
X24232500Y-550000I-132500J0D01*
G01*
G37*
G36*
G01*
X25457500Y-530000D02*
X25192500Y-530000D01*
G75*
G02*
X25060000Y-397500I0J132500D01*
G01*
X25060000Y-2500D01*
G75*
G02*
X25192500Y130000I132500J0D01*
G01*
X25457500Y130000D01*
G75*
G02*
X25590000Y-2500I0J-132500D01*
G01*
X25590000Y-397500D01*
G75*
G02*
X25457500Y-530000I-132500J0D01*
G01*
G37*
G36*
G01*
X23532500Y-550000D02*
X23267500Y-550000D01*
G75*
G02*
X23135000Y-417500I0J132500D01*
G01*
X23135000Y-22500D01*
G75*
G02*
X23267500Y110000I132500J0D01*
G01*
X23532500Y110000D01*
G75*
G02*
X23665000Y-22500I0J-132500D01*
G01*
X23665000Y-417500D01*
G75*
G02*
X23532500Y-550000I-132500J0D01*
G01*
G37*
G36*
G01*
X24232500Y-1430000D02*
X23967500Y-1430000D01*
G75*
G02*
X23835000Y-1297500I0J132500D01*
G01*
X23835000Y-902500D01*
G75*
G02*
X23967500Y-770000I132500J0D01*
G01*
X24232500Y-770000D01*
G75*
G02*
X24365000Y-902500I0J-132500D01*
G01*
X24365000Y-1297500D01*
G75*
G02*
X24232500Y-1430000I-132500J0D01*
G01*
G37*
G36*
G01*
X25457500Y-1430000D02*
X25192500Y-1430000D01*
G75*
G02*
X25060000Y-1297500I0J132500D01*
G01*
X25060000Y-902500D01*
G75*
G02*
X25192500Y-770000I132500J0D01*
G01*
X25457500Y-770000D01*
G75*
G02*
X25590000Y-902500I0J-132500D01*
G01*
X25590000Y-1297500D01*
G75*
G02*
X25457500Y-1430000I-132500J0D01*
G01*
G37*
G36*
G01*
X23532500Y370000D02*
X23267500Y370000D01*
G75*
G02*
X23135000Y502500I0J132500D01*
G01*
X23135000Y897500D01*
G75*
G02*
X23267500Y1030000I132500J0D01*
G01*
X23532500Y1030000D01*
G75*
G02*
X23665000Y897500I0J-132500D01*
G01*
X23665000Y502500D01*
G75*
G02*
X23532500Y370000I-132500J0D01*
G01*
G37*
G36*
G01*
X23212500Y-2412500D02*
X23087500Y-2412500D01*
G75*
G02*
X23025000Y-2350000I0J62500D01*
G01*
X23025000Y-1900000D01*
G75*
G02*
X23087500Y-1837500I62500J0D01*
G01*
X23212500Y-1837500D01*
G75*
G02*
X23275000Y-1900000I0J-62500D01*
G01*
X23275000Y-2350000D01*
G75*
G02*
X23212500Y-2412500I-62500J0D01*
G01*
G37*
G36*
G01*
X23712500Y-2412500D02*
X23587500Y-2412500D01*
G75*
G02*
X23525000Y-2350000I0J62500D01*
G01*
X23525000Y-1900000D01*
G75*
G02*
X23587500Y-1837500I62500J0D01*
G01*
X23712500Y-1837500D01*
G75*
G02*
X23775000Y-1900000I0J-62500D01*
G01*
X23775000Y-2350000D01*
G75*
G02*
X23712500Y-2412500I-62500J0D01*
G01*
G37*
G36*
G01*
X24212500Y-2412500D02*
X24087500Y-2412500D01*
G75*
G02*
X24025000Y-2350000I0J62500D01*
G01*
X24025000Y-1900000D01*
G75*
G02*
X24087500Y-1837500I62500J0D01*
G01*
X24212500Y-1837500D01*
G75*
G02*
X24275000Y-1900000I0J-62500D01*
G01*
X24275000Y-2350000D01*
G75*
G02*
X24212500Y-2412500I-62500J0D01*
G01*
G37*
G36*
G01*
X24712500Y-2412500D02*
X24587500Y-2412500D01*
G75*
G02*
X24525000Y-2350000I0J62500D01*
G01*
X24525000Y-1900000D01*
G75*
G02*
X24587500Y-1837500I62500J0D01*
G01*
X24712500Y-1837500D01*
G75*
G02*
X24775000Y-1900000I0J-62500D01*
G01*
X24775000Y-2350000D01*
G75*
G02*
X24712500Y-2412500I-62500J0D01*
G01*
G37*
G36*
G01*
X25212500Y-2412500D02*
X25087500Y-2412500D01*
G75*
G02*
X25025000Y-2350000I0J62500D01*
G01*
X25025000Y-1900000D01*
G75*
G02*
X25087500Y-1837500I62500J0D01*
G01*
X25212500Y-1837500D01*
G75*
G02*
X25275000Y-1900000I0J-62500D01*
G01*
X25275000Y-2350000D01*
G75*
G02*
X25212500Y-2412500I-62500J0D01*
G01*
G37*
G36*
G01*
X25712500Y-2412500D02*
X25587500Y-2412500D01*
G75*
G02*
X25525000Y-2350000I0J62500D01*
G01*
X25525000Y-1900000D01*
G75*
G02*
X25587500Y-1837500I62500J0D01*
G01*
X25712500Y-1837500D01*
G75*
G02*
X25775000Y-1900000I0J-62500D01*
G01*
X25775000Y-2350000D01*
G75*
G02*
X25712500Y-2412500I-62500J0D01*
G01*
G37*
G36*
G01*
X26550000Y-1575000D02*
X26100000Y-1575000D01*
G75*
G02*
X26037500Y-1512500I0J62500D01*
G01*
X26037500Y-1387500D01*
G75*
G02*
X26100000Y-1325000I62500J0D01*
G01*
X26550000Y-1325000D01*
G75*
G02*
X26612500Y-1387500I0J-62500D01*
G01*
X26612500Y-1512500D01*
G75*
G02*
X26550000Y-1575000I-62500J0D01*
G01*
G37*
G36*
G01*
X26550000Y-1075000D02*
X26100000Y-1075000D01*
G75*
G02*
X26037500Y-1012500I0J62500D01*
G01*
X26037500Y-887500D01*
G75*
G02*
X26100000Y-825000I62500J0D01*
G01*
X26550000Y-825000D01*
G75*
G02*
X26612500Y-887500I0J-62500D01*
G01*
X26612500Y-1012500D01*
G75*
G02*
X26550000Y-1075000I-62500J0D01*
G01*
G37*
G36*
G01*
X26550000Y-575000D02*
X26100000Y-575000D01*
G75*
G02*
X26037500Y-512500I0J62500D01*
G01*
X26037500Y-387500D01*
G75*
G02*
X26100000Y-325000I62500J0D01*
G01*
X26550000Y-325000D01*
G75*
G02*
X26612500Y-387500I0J-62500D01*
G01*
X26612500Y-512500D01*
G75*
G02*
X26550000Y-575000I-62500J0D01*
G01*
G37*
G36*
G01*
X26550000Y-75000D02*
X26100000Y-75000D01*
G75*
G02*
X26037500Y-12500I0J62500D01*
G01*
X26037500Y112500D01*
G75*
G02*
X26100000Y175000I62500J0D01*
G01*
X26550000Y175000D01*
G75*
G02*
X26612500Y112500I0J-62500D01*
G01*
X26612500Y-12500D01*
G75*
G02*
X26550000Y-75000I-62500J0D01*
G01*
G37*
G36*
G01*
X26550000Y425000D02*
X26100000Y425000D01*
G75*
G02*
X26037500Y487500I0J62500D01*
G01*
X26037500Y612500D01*
G75*
G02*
X26100000Y675000I62500J0D01*
G01*
X26550000Y675000D01*
G75*
G02*
X26612500Y612500I0J-62500D01*
G01*
X26612500Y487500D01*
G75*
G02*
X26550000Y425000I-62500J0D01*
G01*
G37*
G36*
G01*
X26550000Y925000D02*
X26100000Y925000D01*
G75*
G02*
X26037500Y987500I0J62500D01*
G01*
X26037500Y1112500D01*
G75*
G02*
X26100000Y1175000I62500J0D01*
G01*
X26550000Y1175000D01*
G75*
G02*
X26612500Y1112500I0J-62500D01*
G01*
X26612500Y987500D01*
G75*
G02*
X26550000Y925000I-62500J0D01*
G01*
G37*
G36*
G01*
X25712500Y1437500D02*
X25587500Y1437500D01*
G75*
G02*
X25525000Y1500000I0J62500D01*
G01*
X25525000Y1950000D01*
G75*
G02*
X25587500Y2012500I62500J0D01*
G01*
X25712500Y2012500D01*
G75*
G02*
X25775000Y1950000I0J-62500D01*
G01*
X25775000Y1500000D01*
G75*
G02*
X25712500Y1437500I-62500J0D01*
G01*
G37*
G36*
G01*
X25212500Y1437500D02*
X25087500Y1437500D01*
G75*
G02*
X25025000Y1500000I0J62500D01*
G01*
X25025000Y1950000D01*
G75*
G02*
X25087500Y2012500I62500J0D01*
G01*
X25212500Y2012500D01*
G75*
G02*
X25275000Y1950000I0J-62500D01*
G01*
X25275000Y1500000D01*
G75*
G02*
X25212500Y1437500I-62500J0D01*
G01*
G37*
G36*
G01*
X24712500Y1437500D02*
X24587500Y1437500D01*
G75*
G02*
X24525000Y1500000I0J62500D01*
G01*
X24525000Y1950000D01*
G75*
G02*
X24587500Y2012500I62500J0D01*
G01*
X24712500Y2012500D01*
G75*
G02*
X24775000Y1950000I0J-62500D01*
G01*
X24775000Y1500000D01*
G75*
G02*
X24712500Y1437500I-62500J0D01*
G01*
G37*
G36*
G01*
X24212500Y1437500D02*
X24087500Y1437500D01*
G75*
G02*
X24025000Y1500000I0J62500D01*
G01*
X24025000Y1950000D01*
G75*
G02*
X24087500Y2012500I62500J0D01*
G01*
X24212500Y2012500D01*
G75*
G02*
X24275000Y1950000I0J-62500D01*
G01*
X24275000Y1500000D01*
G75*
G02*
X24212500Y1437500I-62500J0D01*
G01*
G37*
G36*
G01*
X23712500Y1437500D02*
X23587500Y1437500D01*
G75*
G02*
X23525000Y1500000I0J62500D01*
G01*
X23525000Y1950000D01*
G75*
G02*
X23587500Y2012500I62500J0D01*
G01*
X23712500Y2012500D01*
G75*
G02*
X23775000Y1950000I0J-62500D01*
G01*
X23775000Y1500000D01*
G75*
G02*
X23712500Y1437500I-62500J0D01*
G01*
G37*
G36*
G01*
X23212500Y1437500D02*
X23087500Y1437500D01*
G75*
G02*
X23025000Y1500000I0J62500D01*
G01*
X23025000Y1950000D01*
G75*
G02*
X23087500Y2012500I62500J0D01*
G01*
X23212500Y2012500D01*
G75*
G02*
X23275000Y1950000I0J-62500D01*
G01*
X23275000Y1500000D01*
G75*
G02*
X23212500Y1437500I-62500J0D01*
G01*
G37*
G36*
G01*
X22700000Y925000D02*
X22250000Y925000D01*
G75*
G02*
X22187500Y987500I0J62500D01*
G01*
X22187500Y1112500D01*
G75*
G02*
X22250000Y1175000I62500J0D01*
G01*
X22700000Y1175000D01*
G75*
G02*
X22762500Y1112500I0J-62500D01*
G01*
X22762500Y987500D01*
G75*
G02*
X22700000Y925000I-62500J0D01*
G01*
G37*
G36*
G01*
X22700000Y425000D02*
X22250000Y425000D01*
G75*
G02*
X22187500Y487500I0J62500D01*
G01*
X22187500Y612500D01*
G75*
G02*
X22250000Y675000I62500J0D01*
G01*
X22700000Y675000D01*
G75*
G02*
X22762500Y612500I0J-62500D01*
G01*
X22762500Y487500D01*
G75*
G02*
X22700000Y425000I-62500J0D01*
G01*
G37*
G36*
G01*
X22700000Y-75000D02*
X22250000Y-75000D01*
G75*
G02*
X22187500Y-12500I0J62500D01*
G01*
X22187500Y112500D01*
G75*
G02*
X22250000Y175000I62500J0D01*
G01*
X22700000Y175000D01*
G75*
G02*
X22762500Y112500I0J-62500D01*
G01*
X22762500Y-12500D01*
G75*
G02*
X22700000Y-75000I-62500J0D01*
G01*
G37*
G36*
G01*
X22700000Y-575000D02*
X22250000Y-575000D01*
G75*
G02*
X22187500Y-512500I0J62500D01*
G01*
X22187500Y-387500D01*
G75*
G02*
X22250000Y-325000I62500J0D01*
G01*
X22700000Y-325000D01*
G75*
G02*
X22762500Y-387500I0J-62500D01*
G01*
X22762500Y-512500D01*
G75*
G02*
X22700000Y-575000I-62500J0D01*
G01*
G37*
G36*
G01*
X22700000Y-1075000D02*
X22250000Y-1075000D01*
G75*
G02*
X22187500Y-1012500I0J62500D01*
G01*
X22187500Y-887500D01*
G75*
G02*
X22250000Y-825000I62500J0D01*
G01*
X22700000Y-825000D01*
G75*
G02*
X22762500Y-887500I0J-62500D01*
G01*
X22762500Y-1012500D01*
G75*
G02*
X22700000Y-1075000I-62500J0D01*
G01*
G37*
G36*
G01*
X22700000Y-1575000D02*
X22250000Y-1575000D01*
G75*
G02*
X22187500Y-1512500I0J62500D01*
G01*
X22187500Y-1387500D01*
G75*
G02*
X22250000Y-1325000I62500J0D01*
G01*
X22700000Y-1325000D01*
G75*
G02*
X22762500Y-1387500I0J-62500D01*
G01*
X22762500Y-1512500D01*
G75*
G02*
X22700000Y-1575000I-62500J0D01*
G01*
G37*
G04 #@! TD*
G04 #@! TO.C,R11*
G36*
G01*
X27620000Y-3685000D02*
X27620000Y-3315000D01*
G75*
G02*
X27755000Y-3180000I135000J0D01*
G01*
X28025000Y-3180000D01*
G75*
G02*
X28160000Y-3315000I0J-135000D01*
G01*
X28160000Y-3685000D01*
G75*
G02*
X28025000Y-3820000I-135000J0D01*
G01*
X27755000Y-3820000D01*
G75*
G02*
X27620000Y-3685000I0J135000D01*
G01*
G37*
G36*
G01*
X28640000Y-3685000D02*
X28640000Y-3315000D01*
G75*
G02*
X28775000Y-3180000I135000J0D01*
G01*
X29045000Y-3180000D01*
G75*
G02*
X29180000Y-3315000I0J-135000D01*
G01*
X29180000Y-3685000D01*
G75*
G02*
X29045000Y-3820000I-135000J0D01*
G01*
X28775000Y-3820000D01*
G75*
G02*
X28640000Y-3685000I0J135000D01*
G01*
G37*
G04 #@! TD*
G04 #@! TO.C,C13*
G36*
G01*
X48535199Y3850816D02*
X48875199Y3850816D01*
G75*
G02*
X49015199Y3710816I0J-140000D01*
G01*
X49015199Y3430816D01*
G75*
G02*
X48875199Y3290816I-140000J0D01*
G01*
X48535199Y3290816D01*
G75*
G02*
X48395199Y3430816I0J140000D01*
G01*
X48395199Y3710816D01*
G75*
G02*
X48535199Y3850816I140000J0D01*
G01*
G37*
G36*
G01*
X48535199Y2890816D02*
X48875199Y2890816D01*
G75*
G02*
X49015199Y2750816I0J-140000D01*
G01*
X49015199Y2470816D01*
G75*
G02*
X48875199Y2330816I-140000J0D01*
G01*
X48535199Y2330816D01*
G75*
G02*
X48395199Y2470816I0J140000D01*
G01*
X48395199Y2750816D01*
G75*
G02*
X48535199Y2890816I140000J0D01*
G01*
G37*
G04 #@! TD*
G04 #@! TO.C,C23*
G36*
G01*
X29160000Y-2230000D02*
X29160000Y-2570000D01*
G75*
G02*
X29020000Y-2710000I-140000J0D01*
G01*
X28740000Y-2710000D01*
G75*
G02*
X28600000Y-2570000I0J140000D01*
G01*
X28600000Y-2230000D01*
G75*
G02*
X28740000Y-2090000I140000J0D01*
G01*
X29020000Y-2090000D01*
G75*
G02*
X29160000Y-2230000I0J-140000D01*
G01*
G37*
G36*
G01*
X28200000Y-2230000D02*
X28200000Y-2570000D01*
G75*
G02*
X28060000Y-2710000I-140000J0D01*
G01*
X27780000Y-2710000D01*
G75*
G02*
X27640000Y-2570000I0J140000D01*
G01*
X27640000Y-2230000D01*
G75*
G02*
X27780000Y-2090000I140000J0D01*
G01*
X28060000Y-2090000D01*
G75*
G02*
X28200000Y-2230000I0J-140000D01*
G01*
G37*
G04 #@! TD*
G04 #@! TO.C,C30*
G36*
G01*
X30030000Y810000D02*
X30370000Y810000D01*
G75*
G02*
X30510000Y670000I0J-140000D01*
G01*
X30510000Y390000D01*
G75*
G02*
X30370000Y250000I-140000J0D01*
G01*
X30030000Y250000D01*
G75*
G02*
X29890000Y390000I0J140000D01*
G01*
X29890000Y670000D01*
G75*
G02*
X30030000Y810000I140000J0D01*
G01*
G37*
G36*
G01*
X30030000Y-150000D02*
X30370000Y-150000D01*
G75*
G02*
X30510000Y-290000I0J-140000D01*
G01*
X30510000Y-570000D01*
G75*
G02*
X30370000Y-710000I-140000J0D01*
G01*
X30030000Y-710000D01*
G75*
G02*
X29890000Y-570000I0J140000D01*
G01*
X29890000Y-290000D01*
G75*
G02*
X30030000Y-150000I140000J0D01*
G01*
G37*
G04 #@! TD*
G04 #@! TO.C,R13*
G36*
G01*
X51620000Y1915000D02*
X51620000Y2285000D01*
G75*
G02*
X51755000Y2420000I135000J0D01*
G01*
X52025000Y2420000D01*
G75*
G02*
X52160000Y2285000I0J-135000D01*
G01*
X52160000Y1915000D01*
G75*
G02*
X52025000Y1780000I-135000J0D01*
G01*
X51755000Y1780000D01*
G75*
G02*
X51620000Y1915000I0J135000D01*
G01*
G37*
G36*
G01*
X52640000Y1915000D02*
X52640000Y2285000D01*
G75*
G02*
X52775000Y2420000I135000J0D01*
G01*
X53045000Y2420000D01*
G75*
G02*
X53180000Y2285000I0J-135000D01*
G01*
X53180000Y1915000D01*
G75*
G02*
X53045000Y1780000I-135000J0D01*
G01*
X52775000Y1780000D01*
G75*
G02*
X52640000Y1915000I0J135000D01*
G01*
G37*
G04 #@! TD*
D17*
G04 #@! TO.C,U7*
X31460396Y548787D03*
X31460396Y-101213D03*
X31460396Y-751213D03*
X33360396Y-751213D03*
X33360396Y548787D03*
G04 #@! TD*
G04 #@! TO.C,C25*
G36*
G01*
X29160000Y1470000D02*
X29160000Y1130000D01*
G75*
G02*
X29020000Y990000I-140000J0D01*
G01*
X28740000Y990000D01*
G75*
G02*
X28600000Y1130000I0J140000D01*
G01*
X28600000Y1470000D01*
G75*
G02*
X28740000Y1610000I140000J0D01*
G01*
X29020000Y1610000D01*
G75*
G02*
X29160000Y1470000I0J-140000D01*
G01*
G37*
G36*
G01*
X28200000Y1470000D02*
X28200000Y1130000D01*
G75*
G02*
X28060000Y990000I-140000J0D01*
G01*
X27780000Y990000D01*
G75*
G02*
X27640000Y1130000I0J140000D01*
G01*
X27640000Y1470000D01*
G75*
G02*
X27780000Y1610000I140000J0D01*
G01*
X28060000Y1610000D01*
G75*
G02*
X28200000Y1470000I0J-140000D01*
G01*
G37*
G04 #@! TD*
D18*
G04 #@! TO.C,U3*
X63150000Y950000D03*
X62500000Y950000D03*
X61850000Y950000D03*
X61850000Y-950000D03*
X62500000Y-950000D03*
X63150000Y-950000D03*
G04 #@! TD*
G04 #@! TO.C,C32*
G36*
G01*
X34630000Y2260000D02*
X34970000Y2260000D01*
G75*
G02*
X35110000Y2120000I0J-140000D01*
G01*
X35110000Y1840000D01*
G75*
G02*
X34970000Y1700000I-140000J0D01*
G01*
X34630000Y1700000D01*
G75*
G02*
X34490000Y1840000I0J140000D01*
G01*
X34490000Y2120000D01*
G75*
G02*
X34630000Y2260000I140000J0D01*
G01*
G37*
G36*
G01*
X34630000Y1300000D02*
X34970000Y1300000D01*
G75*
G02*
X35110000Y1160000I0J-140000D01*
G01*
X35110000Y880000D01*
G75*
G02*
X34970000Y740000I-140000J0D01*
G01*
X34630000Y740000D01*
G75*
G02*
X34490000Y880000I0J140000D01*
G01*
X34490000Y1160000D01*
G75*
G02*
X34630000Y1300000I140000J0D01*
G01*
G37*
G04 #@! TD*
G04 #@! TO.C,R14*
G36*
G01*
X30932076Y3015000D02*
X30932076Y3385000D01*
G75*
G02*
X31067076Y3520000I135000J0D01*
G01*
X31337076Y3520000D01*
G75*
G02*
X31472076Y3385000I0J-135000D01*
G01*
X31472076Y3015000D01*
G75*
G02*
X31337076Y2880000I-135000J0D01*
G01*
X31067076Y2880000D01*
G75*
G02*
X30932076Y3015000I0J135000D01*
G01*
G37*
G36*
G01*
X31952076Y3015000D02*
X31952076Y3385000D01*
G75*
G02*
X32087076Y3520000I135000J0D01*
G01*
X32357076Y3520000D01*
G75*
G02*
X32492076Y3385000I0J-135000D01*
G01*
X32492076Y3015000D01*
G75*
G02*
X32357076Y2880000I-135000J0D01*
G01*
X32087076Y2880000D01*
G75*
G02*
X31952076Y3015000I0J135000D01*
G01*
G37*
G04 #@! TD*
G04 #@! TO.C,C31*
G36*
G01*
X31657881Y-3227652D02*
X31657881Y-3567652D01*
G75*
G02*
X31517881Y-3707652I-140000J0D01*
G01*
X31237881Y-3707652D01*
G75*
G02*
X31097881Y-3567652I0J140000D01*
G01*
X31097881Y-3227652D01*
G75*
G02*
X31237881Y-3087652I140000J0D01*
G01*
X31517881Y-3087652D01*
G75*
G02*
X31657881Y-3227652I0J-140000D01*
G01*
G37*
G36*
G01*
X30697881Y-3227652D02*
X30697881Y-3567652D01*
G75*
G02*
X30557881Y-3707652I-140000J0D01*
G01*
X30277881Y-3707652D01*
G75*
G02*
X30137881Y-3567652I0J140000D01*
G01*
X30137881Y-3227652D01*
G75*
G02*
X30277881Y-3087652I140000J0D01*
G01*
X30557881Y-3087652D01*
G75*
G02*
X30697881Y-3227652I0J-140000D01*
G01*
G37*
G04 #@! TD*
G04 #@! TO.C,C19*
G36*
G01*
X53470924Y-904799D02*
X53130924Y-904799D01*
G75*
G02*
X52990924Y-764799I0J140000D01*
G01*
X52990924Y-484799D01*
G75*
G02*
X53130924Y-344799I140000J0D01*
G01*
X53470924Y-344799D01*
G75*
G02*
X53610924Y-484799I0J-140000D01*
G01*
X53610924Y-764799D01*
G75*
G02*
X53470924Y-904799I-140000J0D01*
G01*
G37*
G36*
G01*
X53470924Y-1864799D02*
X53130924Y-1864799D01*
G75*
G02*
X52990924Y-1724799I0J140000D01*
G01*
X52990924Y-1444799D01*
G75*
G02*
X53130924Y-1304799I140000J0D01*
G01*
X53470924Y-1304799D01*
G75*
G02*
X53610924Y-1444799I0J-140000D01*
G01*
X53610924Y-1724799D01*
G75*
G02*
X53470924Y-1864799I-140000J0D01*
G01*
G37*
G04 #@! TD*
G04 #@! TO.C,C29*
G36*
G01*
X39777498Y2760000D02*
X40117498Y2760000D01*
G75*
G02*
X40257498Y2620000I0J-140000D01*
G01*
X40257498Y2340000D01*
G75*
G02*
X40117498Y2200000I-140000J0D01*
G01*
X39777498Y2200000D01*
G75*
G02*
X39637498Y2340000I0J140000D01*
G01*
X39637498Y2620000D01*
G75*
G02*
X39777498Y2760000I140000J0D01*
G01*
G37*
G36*
G01*
X39777498Y1800000D02*
X40117498Y1800000D01*
G75*
G02*
X40257498Y1660000I0J-140000D01*
G01*
X40257498Y1380000D01*
G75*
G02*
X40117498Y1240000I-140000J0D01*
G01*
X39777498Y1240000D01*
G75*
G02*
X39637498Y1380000I0J140000D01*
G01*
X39637498Y1660000D01*
G75*
G02*
X39777498Y1800000I140000J0D01*
G01*
G37*
G04 #@! TD*
G04 #@! TO.C,C17*
G36*
G01*
X53664744Y-3630000D02*
X53664744Y-3970000D01*
G75*
G02*
X53524744Y-4110000I-140000J0D01*
G01*
X53244744Y-4110000D01*
G75*
G02*
X53104744Y-3970000I0J140000D01*
G01*
X53104744Y-3630000D01*
G75*
G02*
X53244744Y-3490000I140000J0D01*
G01*
X53524744Y-3490000D01*
G75*
G02*
X53664744Y-3630000I0J-140000D01*
G01*
G37*
G36*
G01*
X52704744Y-3630000D02*
X52704744Y-3970000D01*
G75*
G02*
X52564744Y-4110000I-140000J0D01*
G01*
X52284744Y-4110000D01*
G75*
G02*
X52144744Y-3970000I0J140000D01*
G01*
X52144744Y-3630000D01*
G75*
G02*
X52284744Y-3490000I140000J0D01*
G01*
X52564744Y-3490000D01*
G75*
G02*
X52704744Y-3630000I0J-140000D01*
G01*
G37*
G04 #@! TD*
G04 #@! TO.C,C27*
G36*
G01*
X51640000Y3930000D02*
X51640000Y4270000D01*
G75*
G02*
X51780000Y4410000I140000J0D01*
G01*
X52060000Y4410000D01*
G75*
G02*
X52200000Y4270000I0J-140000D01*
G01*
X52200000Y3930000D01*
G75*
G02*
X52060000Y3790000I-140000J0D01*
G01*
X51780000Y3790000D01*
G75*
G02*
X51640000Y3930000I0J140000D01*
G01*
G37*
G36*
G01*
X52600000Y3930000D02*
X52600000Y4270000D01*
G75*
G02*
X52740000Y4410000I140000J0D01*
G01*
X53020000Y4410000D01*
G75*
G02*
X53160000Y4270000I0J-140000D01*
G01*
X53160000Y3930000D01*
G75*
G02*
X53020000Y3790000I-140000J0D01*
G01*
X52740000Y3790000D01*
G75*
G02*
X52600000Y3930000I0J140000D01*
G01*
G37*
G04 #@! TD*
D19*
G04 #@! TO.C,U2*
X37850000Y2262500D03*
X37350000Y2262500D03*
X36850000Y2262500D03*
X36350000Y2262500D03*
D20*
X36087500Y1500000D03*
X36087500Y1000000D03*
X36087500Y500000D03*
D19*
X36350000Y-262500D03*
X36850000Y-262500D03*
X37350000Y-262500D03*
X37850000Y-262500D03*
D20*
X38112500Y500000D03*
X38112500Y1000000D03*
X38112500Y1500000D03*
G04 #@! TD*
G04 #@! TO.C,Y1*
G36*
X42041421Y-815076D02*
G01*
X42607107Y-1380762D01*
X41970711Y-2017158D01*
X41405025Y-1451472D01*
X42041421Y-815076D01*
G37*
G36*
X41051472Y-1805025D02*
G01*
X41617158Y-2370711D01*
X40980762Y-3007107D01*
X40415076Y-2441421D01*
X41051472Y-1805025D01*
G37*
G36*
X41829289Y-2582842D02*
G01*
X42394975Y-3148528D01*
X41758579Y-3784924D01*
X41192893Y-3219238D01*
X41829289Y-2582842D01*
G37*
G36*
X42819238Y-1592893D02*
G01*
X43384924Y-2158579D01*
X42748528Y-2794975D01*
X42182842Y-2229289D01*
X42819238Y-1592893D01*
G37*
G04 #@! TD*
G04 #@! TO.C,R15*
G36*
G01*
X31480000Y2185000D02*
X31480000Y1815000D01*
G75*
G02*
X31345000Y1680000I-135000J0D01*
G01*
X31075000Y1680000D01*
G75*
G02*
X30940000Y1815000I0J135000D01*
G01*
X30940000Y2185000D01*
G75*
G02*
X31075000Y2320000I135000J0D01*
G01*
X31345000Y2320000D01*
G75*
G02*
X31480000Y2185000I0J-135000D01*
G01*
G37*
G36*
G01*
X30460000Y2185000D02*
X30460000Y1815000D01*
G75*
G02*
X30325000Y1680000I-135000J0D01*
G01*
X30055000Y1680000D01*
G75*
G02*
X29920000Y1815000I0J135000D01*
G01*
X29920000Y2185000D01*
G75*
G02*
X30055000Y2320000I135000J0D01*
G01*
X30325000Y2320000D01*
G75*
G02*
X30460000Y2185000I0J-135000D01*
G01*
G37*
G04 #@! TD*
G04 #@! TO.C,C28*
G36*
G01*
X33760000Y2170000D02*
X33760000Y1830000D01*
G75*
G02*
X33620000Y1690000I-140000J0D01*
G01*
X33340000Y1690000D01*
G75*
G02*
X33200000Y1830000I0J140000D01*
G01*
X33200000Y2170000D01*
G75*
G02*
X33340000Y2310000I140000J0D01*
G01*
X33620000Y2310000D01*
G75*
G02*
X33760000Y2170000I0J-140000D01*
G01*
G37*
G36*
G01*
X32800000Y2170000D02*
X32800000Y1830000D01*
G75*
G02*
X32660000Y1690000I-140000J0D01*
G01*
X32380000Y1690000D01*
G75*
G02*
X32240000Y1830000I0J140000D01*
G01*
X32240000Y2170000D01*
G75*
G02*
X32380000Y2310000I140000J0D01*
G01*
X32660000Y2310000D01*
G75*
G02*
X32800000Y2170000I0J-140000D01*
G01*
G37*
G04 #@! TD*
G04 #@! TO.C,C22*
G36*
G01*
X39928392Y-3282807D02*
X40168808Y-3042391D01*
G75*
G02*
X40366798Y-3042391I98995J-98995D01*
G01*
X40564788Y-3240381D01*
G75*
G02*
X40564788Y-3438371I-98995J-98995D01*
G01*
X40324372Y-3678787D01*
G75*
G02*
X40126382Y-3678787I-98995J98995D01*
G01*
X39928392Y-3480797D01*
G75*
G02*
X39928392Y-3282807I98995J98995D01*
G01*
G37*
G36*
G01*
X40607214Y-3961629D02*
X40847630Y-3721213D01*
G75*
G02*
X41045620Y-3721213I98995J-98995D01*
G01*
X41243610Y-3919203D01*
G75*
G02*
X41243610Y-4117193I-98995J-98995D01*
G01*
X41003194Y-4357609D01*
G75*
G02*
X40805204Y-4357609I-98995J98995D01*
G01*
X40607214Y-4159619D01*
G75*
G02*
X40607214Y-3961629I98995J98995D01*
G01*
G37*
G04 #@! TD*
G04 #@! TO.C,C14*
G36*
G01*
X46420848Y-2689372D02*
X46420848Y-2349372D01*
G75*
G02*
X46560848Y-2209372I140000J0D01*
G01*
X46840848Y-2209372D01*
G75*
G02*
X46980848Y-2349372I0J-140000D01*
G01*
X46980848Y-2689372D01*
G75*
G02*
X46840848Y-2829372I-140000J0D01*
G01*
X46560848Y-2829372D01*
G75*
G02*
X46420848Y-2689372I0J140000D01*
G01*
G37*
G36*
G01*
X47380848Y-2689372D02*
X47380848Y-2349372D01*
G75*
G02*
X47520848Y-2209372I140000J0D01*
G01*
X47800848Y-2209372D01*
G75*
G02*
X47940848Y-2349372I0J-140000D01*
G01*
X47940848Y-2689372D01*
G75*
G02*
X47800848Y-2829372I-140000J0D01*
G01*
X47520848Y-2829372D01*
G75*
G02*
X47380848Y-2689372I0J140000D01*
G01*
G37*
G04 #@! TD*
G04 #@! TO.C,C9*
G36*
G01*
X63555865Y-3851245D02*
X63555865Y-4191245D01*
G75*
G02*
X63415865Y-4331245I-140000J0D01*
G01*
X63135865Y-4331245D01*
G75*
G02*
X62995865Y-4191245I0J140000D01*
G01*
X62995865Y-3851245D01*
G75*
G02*
X63135865Y-3711245I140000J0D01*
G01*
X63415865Y-3711245D01*
G75*
G02*
X63555865Y-3851245I0J-140000D01*
G01*
G37*
G36*
G01*
X62595865Y-3851245D02*
X62595865Y-4191245D01*
G75*
G02*
X62455865Y-4331245I-140000J0D01*
G01*
X62175865Y-4331245D01*
G75*
G02*
X62035865Y-4191245I0J140000D01*
G01*
X62035865Y-3851245D01*
G75*
G02*
X62175865Y-3711245I140000J0D01*
G01*
X62455865Y-3711245D01*
G75*
G02*
X62595865Y-3851245I0J-140000D01*
G01*
G37*
G04 #@! TD*
G04 #@! TO.C,R16*
G36*
G01*
X33880000Y-3210540D02*
X33880000Y-3580540D01*
G75*
G02*
X33745000Y-3715540I-135000J0D01*
G01*
X33475000Y-3715540D01*
G75*
G02*
X33340000Y-3580540I0J135000D01*
G01*
X33340000Y-3210540D01*
G75*
G02*
X33475000Y-3075540I135000J0D01*
G01*
X33745000Y-3075540D01*
G75*
G02*
X33880000Y-3210540I0J-135000D01*
G01*
G37*
G36*
G01*
X32860000Y-3210540D02*
X32860000Y-3580540D01*
G75*
G02*
X32725000Y-3715540I-135000J0D01*
G01*
X32455000Y-3715540D01*
G75*
G02*
X32320000Y-3580540I0J135000D01*
G01*
X32320000Y-3210540D01*
G75*
G02*
X32455000Y-3075540I135000J0D01*
G01*
X32725000Y-3075540D01*
G75*
G02*
X32860000Y-3210540I0J-135000D01*
G01*
G37*
G04 #@! TD*
M02*
