G04 #@! TF.GenerationSoftware,KiCad,Pcbnew,(5.99.0-7570-gd0e008053a)*
G04 #@! TF.CreationDate,2021-04-03T16:08:25-07:00*
G04 #@! TF.ProjectId,RT_USB_PD_Soldering_Iron,52545f55-5342-45f5-9044-5f536f6c6465,rev?*
G04 #@! TF.SameCoordinates,PX5f5e100PY7735940*
G04 #@! TF.FileFunction,Copper,L4,Bot*
G04 #@! TF.FilePolarity,Positive*
%FSLAX46Y46*%
G04 Gerber Fmt 4.6, Leading zero omitted, Abs format (unit mm)*
G04 Created by KiCad (PCBNEW (5.99.0-7570-gd0e008053a)) date 2021-04-03 16:08:25*
%MOMM*%
%LPD*%
G01*
G04 APERTURE LIST*
G04 Aperture macros list*
%AMRoundRect*
0 Rectangle with rounded corners*
0 $1 Rounding radius*
0 $2 $3 $4 $5 $6 $7 $8 $9 X,Y pos of 4 corners*
0 Add a 4 corners polygon primitive as box body*
4,1,4,$2,$3,$4,$5,$6,$7,$8,$9,$2,$3,0*
0 Add four circle primitives for the rounded corners*
1,1,$1+$1,$2,$3,0*
1,1,$1+$1,$4,$5,0*
1,1,$1+$1,$6,$7,0*
1,1,$1+$1,$8,$9,0*
0 Add four rect primitives between the rounded corners*
20,1,$1+$1,$2,$3,$4,$5,0*
20,1,$1+$1,$4,$5,$6,$7,0*
20,1,$1+$1,$6,$7,$8,$9,0*
20,1,$1+$1,$8,$9,$2,$3,0*%
%AMRotRect*
0 Rectangle, with rotation*
0 The origin of the aperture is its center*
0 $1 length*
0 $2 width*
0 $3 Rotation angle, in degrees counterclockwise*
0 Add horizontal line*
21,1,$1,$2,0,0,$3*%
G04 Aperture macros list end*
G04 #@! TA.AperFunction,ComponentPad*
%ADD10C,2.400000*%
G04 #@! TD*
G04 #@! TA.AperFunction,ComponentPad*
%ADD11C,2.500000*%
G04 #@! TD*
G04 #@! TA.AperFunction,SMDPad,CuDef*
%ADD12R,2.100000X2.700000*%
G04 #@! TD*
G04 #@! TA.AperFunction,SMDPad,CuDef*
%ADD13R,2.800000X2.100000*%
G04 #@! TD*
G04 #@! TA.AperFunction,SMDPad,CuDef*
%ADD14R,2.200000X2.100000*%
G04 #@! TD*
G04 #@! TA.AperFunction,ComponentPad*
%ADD15O,1.900000X1.000000*%
G04 #@! TD*
G04 #@! TA.AperFunction,ComponentPad*
%ADD16O,2.200000X1.000000*%
G04 #@! TD*
G04 #@! TA.AperFunction,SMDPad,CuDef*
%ADD17RoundRect,0.140000X0.170000X-0.140000X0.170000X0.140000X-0.170000X0.140000X-0.170000X-0.140000X0*%
G04 #@! TD*
G04 #@! TA.AperFunction,SMDPad,CuDef*
%ADD18RoundRect,0.140000X-0.140000X-0.170000X0.140000X-0.170000X0.140000X0.170000X-0.140000X0.170000X0*%
G04 #@! TD*
G04 #@! TA.AperFunction,SMDPad,CuDef*
%ADD19RoundRect,0.140000X-0.170000X0.140000X-0.170000X-0.140000X0.170000X-0.140000X0.170000X0.140000X0*%
G04 #@! TD*
G04 #@! TA.AperFunction,SMDPad,CuDef*
%ADD20RoundRect,0.140000X0.140000X0.170000X-0.140000X0.170000X-0.140000X-0.170000X0.140000X-0.170000X0*%
G04 #@! TD*
G04 #@! TA.AperFunction,SMDPad,CuDef*
%ADD21RoundRect,0.175000X-0.175000X0.342500X-0.175000X-0.342500X0.175000X-0.342500X0.175000X0.342500X0*%
G04 #@! TD*
G04 #@! TA.AperFunction,SMDPad,CuDef*
%ADD22RoundRect,0.050050X-0.299950X0.142450X-0.299950X-0.142450X0.299950X-0.142450X0.299950X0.142450X0*%
G04 #@! TD*
G04 #@! TA.AperFunction,SMDPad,CuDef*
%ADD23RoundRect,0.237500X-0.287500X-0.237500X0.287500X-0.237500X0.287500X0.237500X-0.287500X0.237500X0*%
G04 #@! TD*
G04 #@! TA.AperFunction,SMDPad,CuDef*
%ADD24RoundRect,0.237500X0.237500X-0.287500X0.237500X0.287500X-0.237500X0.287500X-0.237500X-0.287500X0*%
G04 #@! TD*
G04 #@! TA.AperFunction,SMDPad,CuDef*
%ADD25RoundRect,0.062500X0.062500X-0.275000X0.062500X0.275000X-0.062500X0.275000X-0.062500X-0.275000X0*%
G04 #@! TD*
G04 #@! TA.AperFunction,SMDPad,CuDef*
%ADD26RoundRect,0.062500X0.275000X-0.062500X0.275000X0.062500X-0.275000X0.062500X-0.275000X-0.062500X0*%
G04 #@! TD*
G04 #@! TA.AperFunction,SMDPad,CuDef*
%ADD27R,1.450000X1.450000*%
G04 #@! TD*
G04 #@! TA.AperFunction,SMDPad,CuDef*
%ADD28RoundRect,0.150000X0.512500X0.150000X-0.512500X0.150000X-0.512500X-0.150000X0.512500X-0.150000X0*%
G04 #@! TD*
G04 #@! TA.AperFunction,SMDPad,CuDef*
%ADD29RoundRect,0.237500X-0.237500X0.287500X-0.237500X-0.287500X0.237500X-0.287500X0.237500X0.287500X0*%
G04 #@! TD*
G04 #@! TA.AperFunction,SMDPad,CuDef*
%ADD30R,0.700000X2.400000*%
G04 #@! TD*
G04 #@! TA.AperFunction,SMDPad,CuDef*
%ADD31RoundRect,0.062500X-0.220971X-0.309359X0.309359X0.220971X0.220971X0.309359X-0.309359X-0.220971X0*%
G04 #@! TD*
G04 #@! TA.AperFunction,SMDPad,CuDef*
%ADD32RoundRect,0.062500X0.220971X-0.309359X0.309359X-0.220971X-0.220971X0.309359X-0.309359X0.220971X0*%
G04 #@! TD*
G04 #@! TA.AperFunction,SMDPad,CuDef*
%ADD33RotRect,3.450000X3.450000X45.000000*%
G04 #@! TD*
G04 #@! TA.AperFunction,SMDPad,CuDef*
%ADD34RoundRect,0.137500X-0.137500X-0.262500X0.137500X-0.262500X0.137500X0.262500X-0.137500X0.262500X0*%
G04 #@! TD*
G04 #@! TA.AperFunction,ViaPad*
%ADD35C,0.560000*%
G04 #@! TD*
G04 #@! TA.AperFunction,ViaPad*
%ADD36C,0.800000*%
G04 #@! TD*
G04 #@! TA.AperFunction,ViaPad*
%ADD37C,1.000000*%
G04 #@! TD*
G04 #@! TA.AperFunction,ViaPad*
%ADD38C,1.100000*%
G04 #@! TD*
G04 #@! TA.AperFunction,Conductor*
%ADD39C,0.600000*%
G04 #@! TD*
G04 #@! TA.AperFunction,Conductor*
%ADD40C,0.254000*%
G04 #@! TD*
G04 #@! TA.AperFunction,Conductor*
%ADD41C,0.152400*%
G04 #@! TD*
G04 #@! TA.AperFunction,Conductor*
%ADD42C,0.400000*%
G04 #@! TD*
G04 #@! TA.AperFunction,Conductor*
%ADD43C,0.500000*%
G04 #@! TD*
G04 #@! TA.AperFunction,Conductor*
%ADD44C,0.750000*%
G04 #@! TD*
G04 #@! TA.AperFunction,Conductor*
%ADD45C,0.203200*%
G04 #@! TD*
G04 APERTURE END LIST*
D10*
G04 #@! TO.P,H2,1,1*
G04 #@! TO.N,GND*
X19500000Y0D03*
G04 #@! TD*
D11*
G04 #@! TO.P,H1,1,1*
G04 #@! TO.N,GND*
X60500000Y0D03*
G04 #@! TD*
D12*
G04 #@! TO.P,J2,TN*
G04 #@! TO.N,/HEATER*
X16000000Y750000D03*
D13*
G04 #@! TO.P,J2,T*
X11700000Y-4050000D03*
D14*
G04 #@! TO.P,J2,SN*
G04 #@! TO.N,/TIP_TC*
X1600000Y4050000D03*
G04 #@! TO.P,J2,S*
X4500000Y4050000D03*
G04 #@! TO.P,J2,G*
G04 #@! TO.N,GND*
X2400000Y-4050000D03*
G04 #@! TD*
D15*
G04 #@! TO.P,J1,S1,SHIELD*
G04 #@! TO.N,GND*
X73380000Y-4320000D03*
D16*
X69200000Y4320000D03*
X69200000Y-4320000D03*
D15*
X73380000Y4320000D03*
G04 #@! TD*
D17*
G04 #@! TO.P,C2,2*
G04 #@! TO.N,IN*
X59294771Y3778908D03*
G04 #@! TO.P,C2,1*
G04 #@! TO.N,GND*
X59294771Y2818908D03*
G04 #@! TD*
D18*
G04 #@! TO.P,C14,2*
G04 #@! TO.N,/CC1*
X57880000Y600000D03*
G04 #@! TO.P,C14,1*
G04 #@! TO.N,GND*
X56920000Y600000D03*
G04 #@! TD*
D19*
G04 #@! TO.P,C31,2*
G04 #@! TO.N,/BOARD_TEMP*
X36100000Y-1380000D03*
G04 #@! TO.P,C31,1*
G04 #@! TO.N,GND*
X36100000Y-420000D03*
G04 #@! TD*
D20*
G04 #@! TO.P,C15,2*
G04 #@! TO.N,/CC2*
X59220000Y-3200000D03*
G04 #@! TO.P,C15,1*
G04 #@! TO.N,GND*
X60180000Y-3200000D03*
G04 #@! TD*
D21*
G04 #@! TO.P,D1,2,A*
G04 #@! TO.N,GND*
X21800000Y-3593500D03*
D22*
G04 #@! TO.P,D1,1,K*
G04 #@! TO.N,/HEATER*
X21800000Y-2681500D03*
G04 #@! TD*
D23*
G04 #@! TO.P,C21,1*
G04 #@! TO.N,/HEATER*
X18325000Y-3600000D03*
G04 #@! TO.P,C21,2*
G04 #@! TO.N,GND*
X20075000Y-3600000D03*
G04 #@! TD*
D24*
G04 #@! TO.P,C22,1*
G04 #@! TO.N,IN*
X29200000Y-3675000D03*
G04 #@! TO.P,C22,2*
G04 #@! TO.N,GND*
X29200000Y-1925000D03*
G04 #@! TD*
D25*
G04 #@! TO.P,U3,1,CC2*
G04 #@! TO.N,/CC2*
X57303521Y-3130951D03*
G04 #@! TO.P,U3,2,VBUS*
G04 #@! TO.N,IN*
X56803521Y-3130951D03*
G04 #@! TO.P,U3,3,VDD*
G04 #@! TO.N,+3V3*
X56303521Y-3130951D03*
D26*
G04 #@! TO.P,U3,4,VDD*
X55541021Y-2618451D03*
G04 #@! TO.P,U3,5,INT_N*
G04 #@! TO.N,/FUSB_INT_N*
X55541021Y-2118451D03*
G04 #@! TO.P,U3,6,SCL*
G04 #@! TO.N,/I2C1_SCL*
X55541021Y-1618451D03*
G04 #@! TO.P,U3,7,SDA*
G04 #@! TO.N,/I2C1_SDA*
X55541021Y-1118451D03*
D25*
G04 #@! TO.P,U3,8,GND*
G04 #@! TO.N,GND*
X56303521Y-605951D03*
G04 #@! TO.P,U3,9,GND*
X56803521Y-605951D03*
G04 #@! TO.P,U3,10,CC1*
G04 #@! TO.N,/CC1*
X57303521Y-605951D03*
D26*
G04 #@! TO.P,U3,11,CC1*
X58066021Y-1118451D03*
G04 #@! TO.P,U3,12,VCONN*
G04 #@! TO.N,Net-(U3-Pad12)*
X58066021Y-1618451D03*
G04 #@! TO.P,U3,13,VCONN*
G04 #@! TO.N,Net-(U3-Pad13)*
X58066021Y-2118451D03*
G04 #@! TO.P,U3,14,CC2*
G04 #@! TO.N,/CC2*
X58066021Y-2618451D03*
D27*
G04 #@! TO.P,U3,15,GND*
G04 #@! TO.N,GND*
X56803521Y-1868451D03*
G04 #@! TD*
D28*
G04 #@! TO.P,U1,1,IN*
G04 #@! TO.N,IN*
X57737500Y3750000D03*
G04 #@! TO.P,U1,2,GND*
G04 #@! TO.N,GND*
X57737500Y2800000D03*
G04 #@! TO.P,U1,3,EN*
G04 #@! TO.N,IN*
X57737500Y1850000D03*
G04 #@! TO.P,U1,4,BP*
G04 #@! TO.N,Net-(C3-Pad1)*
X55462500Y1850000D03*
G04 #@! TO.P,U1,5,OUT*
G04 #@! TO.N,+3V3*
X55462500Y3750000D03*
G04 #@! TD*
D19*
G04 #@! TO.P,C8,1*
G04 #@! TO.N,+3V3*
X53209757Y457705D03*
G04 #@! TO.P,C8,2*
G04 #@! TO.N,GND*
X53209757Y-502295D03*
G04 #@! TD*
D29*
G04 #@! TO.P,C4,1*
G04 #@! TO.N,+3V3*
X53500000Y3575000D03*
G04 #@! TO.P,C4,2*
G04 #@! TO.N,GND*
X53500000Y1825000D03*
G04 #@! TD*
D18*
G04 #@! TO.P,C3,1*
G04 #@! TO.N,Net-(C3-Pad1)*
X54920000Y600000D03*
G04 #@! TO.P,C3,2*
G04 #@! TO.N,GND*
X55880000Y600000D03*
G04 #@! TD*
D24*
G04 #@! TO.P,C23,1*
G04 #@! TO.N,IN*
X31000000Y-3675000D03*
G04 #@! TO.P,C23,2*
G04 #@! TO.N,GND*
X31000000Y-1925000D03*
G04 #@! TD*
G04 #@! TO.P,C24,1*
G04 #@! TO.N,IN*
X27400000Y-3675000D03*
G04 #@! TO.P,C24,2*
G04 #@! TO.N,GND*
X27400000Y-1925000D03*
G04 #@! TD*
D30*
G04 #@! TO.P,J3,1,Pin_1*
G04 #@! TO.N,+3V3*
X51320000Y-1950000D03*
G04 #@! TO.P,J3,2,Pin_2*
G04 #@! TO.N,GND*
X51320000Y1950000D03*
G04 #@! TO.P,J3,3,Pin_3*
G04 #@! TO.N,/SWO*
X50050000Y-1950000D03*
G04 #@! TO.P,J3,4,Pin_4*
G04 #@! TO.N,/SWDIO*
X50050000Y1950000D03*
G04 #@! TO.P,J3,5,Pin_5*
G04 #@! TO.N,/NRST*
X48780000Y-1950000D03*
G04 #@! TO.P,J3,6,Pin_6*
G04 #@! TO.N,/SWCLK*
X48780000Y1950000D03*
G04 #@! TD*
D17*
G04 #@! TO.P,C9,1*
G04 #@! TO.N,+3V3*
X53200000Y-2484524D03*
G04 #@! TO.P,C9,2*
G04 #@! TO.N,GND*
X53200000Y-1524524D03*
G04 #@! TD*
D31*
G04 #@! TO.P,U4,1,VDD*
G04 #@! TO.N,+3V3*
X41713864Y-2961010D03*
G04 #@! TO.P,U4,2,PF0-OSC_IN*
G04 #@! TO.N,/TEMP_SENS*
X41360311Y-2607456D03*
G04 #@! TO.P,U4,3,PF1-OSC_OUT*
G04 #@! TO.N,Net-(U4-Pad3)*
X41006757Y-2253903D03*
G04 #@! TO.P,U4,4,PG10-NRST*
G04 #@! TO.N,/NRST*
X40653204Y-1900349D03*
G04 #@! TO.P,U4,5,PA0*
G04 #@! TO.N,/HEAT_ON*
X40299651Y-1546796D03*
G04 #@! TO.P,U4,6,PA1*
G04 #@! TO.N,/VSENSE*
X39946097Y-1193243D03*
G04 #@! TO.P,U4,7,PA2*
G04 #@! TO.N,/BOARD_TEMP*
X39592544Y-839689D03*
G04 #@! TO.P,U4,8,PA3*
G04 #@! TO.N,/HEATER_PG*
X39238990Y-486136D03*
D32*
G04 #@! TO.P,U4,9,PA4*
G04 #@! TO.N,/SPI1_NSS*
X39238990Y486136D03*
G04 #@! TO.P,U4,10,PA5*
G04 #@! TO.N,/SPI1_SCK*
X39592544Y839689D03*
G04 #@! TO.P,U4,11,PA6*
G04 #@! TO.N,/SPI1_MISO*
X39946097Y1193243D03*
G04 #@! TO.P,U4,12,PA7*
G04 #@! TO.N,/SPI1_MOSI*
X40299651Y1546796D03*
G04 #@! TO.P,U4,13,PB0*
G04 #@! TO.N,/BMI270_INT0*
X40653204Y1900349D03*
G04 #@! TO.P,U4,14,VSSA*
G04 #@! TO.N,GND*
X41006757Y2253903D03*
G04 #@! TO.P,U4,15,VDDA*
G04 #@! TO.N,+3V3*
X41360311Y2607456D03*
G04 #@! TO.P,U4,16,VSS*
G04 #@! TO.N,GND*
X41713864Y2961010D03*
D31*
G04 #@! TO.P,U4,17,VDD*
G04 #@! TO.N,+3V3*
X42686136Y2961010D03*
G04 #@! TO.P,U4,18,PA8*
G04 #@! TO.N,/BTN2*
X43039689Y2607456D03*
G04 #@! TO.P,U4,19,PA9*
G04 #@! TO.N,/FUSB_INT_N*
X43393243Y2253903D03*
G04 #@! TO.P,U4,20,PA10*
G04 #@! TO.N,Net-(U4-Pad20)*
X43746796Y1900349D03*
G04 #@! TO.P,U4,21,PA11*
G04 #@! TO.N,/USB_N*
X44100349Y1546796D03*
G04 #@! TO.P,U4,22,PA12*
G04 #@! TO.N,/USB_P*
X44453903Y1193243D03*
G04 #@! TO.P,U4,23,PA13*
G04 #@! TO.N,/SWDIO*
X44807456Y839689D03*
G04 #@! TO.P,U4,24,PA14*
G04 #@! TO.N,/SWCLK*
X45161010Y486136D03*
D32*
G04 #@! TO.P,U4,25,PA15*
G04 #@! TO.N,/I2C1_SCL*
X45161010Y-486136D03*
G04 #@! TO.P,U4,26,PB3*
G04 #@! TO.N,/SWO*
X44807456Y-839689D03*
G04 #@! TO.P,U4,27,PB4*
G04 #@! TO.N,Net-(U4-Pad27)*
X44453903Y-1193243D03*
G04 #@! TO.P,U4,28,PB5*
G04 #@! TO.N,/DISP_RST#*
X44100349Y-1546796D03*
G04 #@! TO.P,U4,29,PB6*
G04 #@! TO.N,Net-(U4-Pad29)*
X43746796Y-1900349D03*
G04 #@! TO.P,U4,30,PB7*
G04 #@! TO.N,/I2C1_SDA*
X43393243Y-2253903D03*
G04 #@! TO.P,U4,31,PB8-BOOT0*
G04 #@! TO.N,/BTN1*
X43039689Y-2607456D03*
G04 #@! TO.P,U4,32,VSS*
G04 #@! TO.N,GND*
X42686136Y-2961010D03*
D33*
G04 #@! TO.P,U4,33,VSS-PAD*
X42200000Y0D03*
G04 #@! TD*
D29*
G04 #@! TO.P,C1,1*
G04 #@! TO.N,IN*
X64823980Y3600222D03*
G04 #@! TO.P,C1,2*
G04 #@! TO.N,GND*
X64823980Y1850222D03*
G04 #@! TD*
D34*
G04 #@! TO.P,D2,1,A1*
G04 #@! TO.N,IN*
X23875000Y2400000D03*
G04 #@! TO.P,D2,2,A2*
G04 #@! TO.N,GND*
X25287500Y2400000D03*
G04 #@! TD*
D35*
G04 #@! TO.N,+3V3*
X62000000Y-2159410D03*
G04 #@! TO.N,/I2C1_SDA*
X54800000Y-400000D03*
G04 #@! TO.N,/USB_N*
X45100000Y2500000D03*
G04 #@! TO.N,+3V3*
X55500000Y-3200000D03*
G04 #@! TO.N,/USB_P*
X45700000Y2000000D03*
G04 #@! TO.N,/I2C1_SCL*
X47100000Y100000D03*
G04 #@! TO.N,/DISP_RST#*
X45400000Y-2000000D03*
G04 #@! TO.N,/NRST*
X46500000Y-2000000D03*
D36*
G04 #@! TO.N,+3V3*
X53500000Y4300000D03*
D35*
G04 #@! TO.N,GND*
X42200000Y0D03*
G04 #@! TO.N,/BOARD_TEMP*
X36900000Y-1400000D03*
G04 #@! TO.N,/SPI1_SCK*
X38679307Y1800000D03*
G04 #@! TO.N,/SPI1_NSS*
X38500000Y1100000D03*
G04 #@! TO.N,GND*
X58600000Y2800000D03*
D36*
G04 #@! TO.N,IN*
X58600000Y3700000D03*
D35*
G04 #@! TO.N,/HEATER_PG*
X38200000Y-400000D03*
G04 #@! TO.N,/VSENSE*
X38600000Y-2000000D03*
G04 #@! TO.N,/HEAT_ON*
X39200000Y-2600000D03*
G04 #@! TO.N,/TEMP_SENS*
X40600000Y-3200000D03*
G04 #@! TO.N,GND*
X57200000Y-1500000D03*
G04 #@! TO.N,/BMI270_INT0*
X35800000Y3400000D03*
G04 #@! TO.N,/SPI1_MISO*
X38000000Y3240590D03*
G04 #@! TO.N,/SPI1_MOSI*
X38800000Y3000000D03*
G04 #@! TO.N,/CC2*
X58000000Y-3200000D03*
G04 #@! TO.N,/CC1*
X58000000Y-400000D03*
G04 #@! TO.N,+3V3*
X52495563Y495563D03*
G04 #@! TO.N,/I2C1_SCL*
X54000000Y-1000000D03*
G04 #@! TO.N,/FUSB_INT_N*
X54000000Y-1800000D03*
G04 #@! TO.N,+3V3*
X52300000Y-1800000D03*
G04 #@! TO.N,IN*
X23400000Y800000D03*
D37*
X67200000Y-2500000D03*
X67200000Y2500000D03*
D35*
X24100000Y800000D03*
G04 #@! TO.N,+3V3*
X41887587Y-3300000D03*
D36*
X41300000Y4300000D03*
X43000000Y4300000D03*
D35*
G04 #@! TO.N,/BTN1*
X43600000Y-3300000D03*
G04 #@! TO.N,/BTN2*
X43756456Y3492590D03*
D38*
G04 #@! TO.N,/HEATER*
X15000000Y350000D03*
X15000000Y1150000D03*
D35*
G04 #@! TO.N,/TIP_TC*
X6000000Y4100000D03*
D38*
X4100000Y3050000D03*
X4900000Y3050000D03*
X1600000Y3050000D03*
D35*
G04 #@! TO.N,GND*
X53200000Y-1000000D03*
X700000Y-4850000D03*
X4100000Y-3650000D03*
X42600000Y-3300000D03*
X4100000Y-4850000D03*
X42200000Y-1800000D03*
X700000Y-3650000D03*
X42200000Y2000000D03*
X54200000Y1800000D03*
D38*
X2100000Y-3050000D03*
D35*
X64800000Y1050000D03*
X44200000Y0D03*
X56400000Y0D03*
D38*
X2900000Y-3050000D03*
D35*
X700000Y-4250000D03*
X4100000Y-4250000D03*
X19300000Y-3600000D03*
X40200000Y0D03*
G04 #@! TO.N,/I2C1_SDA*
X44600000Y-2600000D03*
G04 #@! TO.N,/NRST*
X40017675Y-2619899D03*
G04 #@! TO.N,/FUSB_INT_N*
X44200000Y2800000D03*
G04 #@! TD*
D39*
G04 #@! TO.N,IN*
X23875000Y2400000D02*
X23875000Y1025000D01*
X23875000Y1025000D02*
X23912500Y987500D01*
D40*
G04 #@! TO.N,GND*
X2400000Y-4050000D02*
X2600000Y-4250000D01*
X2600000Y-4250000D02*
X4100000Y-4250000D01*
X2400000Y-4050000D02*
X2200000Y-4250000D01*
X2200000Y-4250000D02*
X700000Y-4250000D01*
X700000Y-4850000D02*
X1600000Y-4850000D01*
X1600000Y-4850000D02*
X2400000Y-4050000D01*
X4100000Y-4850000D02*
X3200000Y-4850000D01*
X3200000Y-4850000D02*
X2400000Y-4050000D01*
X4100000Y-3650000D02*
X3850000Y-3400000D01*
X3850000Y-3400000D02*
X3050000Y-3400000D01*
X3050000Y-3400000D02*
X2400000Y-4050000D01*
X700000Y-3650000D02*
X950000Y-3400000D01*
X950000Y-3400000D02*
X1750000Y-3400000D01*
X1750000Y-3400000D02*
X2400000Y-4050000D01*
G04 #@! TO.N,/I2C1_SDA*
X54822570Y-400000D02*
X54800000Y-400000D01*
X55541021Y-1118451D02*
X54822570Y-400000D01*
G04 #@! TO.N,/FUSB_INT_N*
X55541021Y-2118451D02*
X54918451Y-2118451D01*
X54918451Y-2118451D02*
X54600000Y-1800000D01*
X54600000Y-1800000D02*
X54000000Y-1800000D01*
D41*
G04 #@! TO.N,/USB_N*
X44100349Y1546796D02*
X44753553Y2200000D01*
X44753553Y2200000D02*
X44800000Y2200000D01*
X44800000Y2200000D02*
X45100000Y2500000D01*
D42*
G04 #@! TO.N,+3V3*
X54315476Y-2484524D02*
X55030952Y-3200000D01*
X55030952Y-3200000D02*
X55500000Y-3200000D01*
X53200000Y-2484524D02*
X54315476Y-2484524D01*
D40*
X56303521Y-3130951D02*
X55569049Y-3130951D01*
X55569049Y-3130951D02*
X55500000Y-3200000D01*
X55541021Y-3158979D02*
X55500000Y-3200000D01*
X55541021Y-2618451D02*
X55541021Y-3158979D01*
G04 #@! TO.N,/SWCLK*
X48780000Y1950000D02*
X48350000Y1950000D01*
X48350000Y1950000D02*
X47300000Y900000D01*
X47300000Y900000D02*
X45574874Y900000D01*
X45574874Y900000D02*
X45161010Y486136D01*
D41*
G04 #@! TO.N,/USB_P*
X44453903Y1193243D02*
X45260660Y2000000D01*
D40*
G04 #@! TO.N,/SWDIO*
X44807456Y839689D02*
X45408365Y1440598D01*
X46190598Y1440598D02*
X48250000Y3500000D01*
D41*
G04 #@! TO.N,/USB_P*
X45260660Y2000000D02*
X45700000Y2000000D01*
D40*
G04 #@! TO.N,/SWDIO*
X45408365Y1440598D02*
X46190598Y1440598D01*
X48250000Y3500000D02*
X49800000Y3500000D01*
X49800000Y3500000D02*
X50050000Y3250000D01*
X50050000Y3250000D02*
X50050000Y1950000D01*
G04 #@! TO.N,/I2C1_SCL*
X46513864Y-486136D02*
X47100000Y100000D01*
X45161010Y-486136D02*
X46513864Y-486136D01*
G04 #@! TO.N,/DISP_RST#*
X44100349Y-1546796D02*
X44553553Y-2000000D01*
X44553553Y-2000000D02*
X45400000Y-2000000D01*
G04 #@! TO.N,/NRST*
X46550000Y-1950000D02*
X46500000Y-2000000D01*
X48780000Y-1950000D02*
X46550000Y-1950000D01*
G04 #@! TO.N,/SWO*
X49738812Y-438812D02*
X50050000Y-750000D01*
X44807456Y-839689D02*
X45115172Y-1147405D01*
X45115172Y-1147405D02*
X47152595Y-1147405D01*
X47152595Y-1147405D02*
X47861188Y-438812D01*
X50050000Y-750000D02*
X50050000Y-1950000D01*
X47861188Y-438812D02*
X49738812Y-438812D01*
G04 #@! TO.N,/BOARD_TEMP*
X36900000Y-1400000D02*
X36120000Y-1400000D01*
X36120000Y-1400000D02*
X36100000Y-1380000D01*
D43*
G04 #@! TO.N,+3V3*
X53500000Y3575000D02*
X53500000Y4300000D01*
X53500000Y3575000D02*
X54775000Y3575000D01*
X54775000Y3575000D02*
X54950000Y3750000D01*
D44*
G04 #@! TO.N,IN*
X64823980Y3600222D02*
X66099778Y3600222D01*
X66099778Y3600222D02*
X67200000Y2500000D01*
D40*
G04 #@! TO.N,/BOARD_TEMP*
X39032233Y-1400000D02*
X36900000Y-1400000D01*
X39592544Y-839689D02*
X39032233Y-1400000D01*
G04 #@! TO.N,/BMI270_INT0*
X40355489Y2198064D02*
X40355489Y2344511D01*
X40355489Y2344511D02*
X38900000Y3800000D01*
X38900000Y3800000D02*
X38800000Y3800000D01*
G04 #@! TO.N,/SPI1_MOSI*
X39000000Y3000000D02*
X38800000Y3000000D01*
G04 #@! TO.N,/SPI1_MISO*
X39238708Y2068513D02*
X39238708Y1900632D01*
G04 #@! TO.N,/SPI1_MOSI*
X39906409Y2093591D02*
X39000000Y3000000D01*
X39906409Y1940038D02*
X39906409Y2093591D01*
X40299651Y1546796D02*
X39906409Y1940038D01*
G04 #@! TO.N,/SPI1_MISO*
X38907221Y2400000D02*
X39238708Y2068513D01*
X38405773Y2438838D02*
X38444611Y2400000D01*
X38444611Y2400000D02*
X38907221Y2400000D01*
X39238708Y1900632D02*
X39600000Y1539340D01*
X39946097Y1193243D02*
X39600000Y1539340D01*
G04 #@! TO.N,/SPI1_SCK*
X38679307Y1752926D02*
X38679307Y1800000D01*
X39592544Y839689D02*
X38679307Y1752926D01*
G04 #@! TO.N,/SPI1_NSS*
X39238990Y486136D02*
X38925126Y800000D01*
X38925126Y800000D02*
X38800000Y800000D01*
X38800000Y800000D02*
X38500000Y1100000D01*
D42*
G04 #@! TO.N,+3V3*
X52300000Y-1800000D02*
X52984524Y-2484524D01*
X52984524Y-2484524D02*
X53200000Y-2484524D01*
D43*
G04 #@! TO.N,IN*
X58678908Y3778908D02*
X58600000Y3700000D01*
X59294771Y3778908D02*
X58678908Y3778908D01*
X58550000Y3750000D02*
X58600000Y3700000D01*
X57737500Y3750000D02*
X58550000Y3750000D01*
D40*
G04 #@! TO.N,/CC2*
X58000000Y-3200000D02*
X59220000Y-3200000D01*
G04 #@! TO.N,/HEATER_PG*
X39238990Y-486136D02*
X38925126Y-800000D01*
X38925126Y-800000D02*
X38600000Y-800000D01*
X38600000Y-800000D02*
X38200000Y-400000D01*
G04 #@! TO.N,/VSENSE*
X39946097Y-1193243D02*
X39139340Y-2000000D01*
X39139340Y-2000000D02*
X38600000Y-2000000D01*
G04 #@! TO.N,/HEAT_ON*
X39246447Y-2600000D02*
X39200000Y-2600000D01*
X40299651Y-1546796D02*
X39246447Y-2600000D01*
G04 #@! TO.N,/TEMP_SENS*
X41360311Y-2607456D02*
X40767767Y-3200000D01*
X40767767Y-3200000D02*
X40600000Y-3200000D01*
G04 #@! TO.N,/NRST*
X40653204Y-1900349D02*
X40017675Y-2535878D01*
G04 #@! TO.N,/BMI270_INT0*
X40653204Y1900349D02*
X40400000Y2153553D01*
G04 #@! TO.N,/SPI1_MISO*
X38405773Y2438838D02*
X38000000Y2844611D01*
G04 #@! TO.N,/BMI270_INT0*
X38800000Y3800000D02*
X36200000Y3800000D01*
X40400000Y2153553D02*
X40355489Y2198064D01*
G04 #@! TO.N,/SPI1_MISO*
X38000000Y2844611D02*
X38000000Y3240590D01*
G04 #@! TO.N,/BMI270_INT0*
X36200000Y3800000D02*
X35800000Y3400000D01*
G04 #@! TO.N,/CC2*
X57930951Y-3130951D02*
X58000000Y-3200000D01*
X58066021Y-2618451D02*
X58066021Y-3133979D01*
X58066021Y-3133979D02*
X58000000Y-3200000D01*
X57303521Y-3130951D02*
X57930951Y-3130951D01*
G04 #@! TO.N,IN*
X57737500Y1850000D02*
X57075000Y1850000D01*
X57737500Y3750000D02*
X57075000Y3750000D01*
G04 #@! TO.N,/CC1*
X58066021Y-1118451D02*
X58066021Y-466021D01*
X58066021Y-466021D02*
X58000000Y-400000D01*
X58000000Y-400000D02*
X57800000Y-400000D01*
X57800000Y-400000D02*
X57594049Y-605951D01*
X57594049Y-605951D02*
X57303521Y-605951D01*
X57880000Y600000D02*
X57880000Y-280000D01*
X57880000Y-280000D02*
X58000000Y-400000D01*
G04 #@! TO.N,/CC2*
X57553521Y-3130951D02*
X57303521Y-3130951D01*
G04 #@! TO.N,IN*
X62453286Y-4546714D02*
X57146714Y-4546714D01*
X56803521Y-4203521D02*
X56803521Y-3130951D01*
X57146714Y-4546714D02*
X56803521Y-4203521D01*
G04 #@! TO.N,/I2C1_SCL*
X55218451Y-1618451D02*
X54600000Y-1000000D01*
X55541021Y-1618451D02*
X55218451Y-1618451D01*
X54600000Y-1000000D02*
X54000000Y-1000000D01*
D42*
G04 #@! TO.N,+3V3*
X52533421Y457705D02*
X52495563Y495563D01*
X53209757Y457705D02*
X52533421Y457705D01*
D40*
X51320000Y-1950000D02*
X52150000Y-1950000D01*
X52150000Y-1950000D02*
X52300000Y-1800000D01*
G04 #@! TO.N,IN*
X57075000Y3750000D02*
X56744790Y3419790D01*
X56744790Y3419790D02*
X56744790Y2180210D01*
X62453286Y-4546714D02*
X65153286Y-4546714D01*
X65153286Y-4546714D02*
X67200000Y-2500000D01*
D39*
X23912500Y987500D02*
X24100000Y800000D01*
D40*
X56744790Y2180210D02*
X57075000Y1850000D01*
G04 #@! TO.N,+3V3*
X42686136Y2961010D02*
X43000000Y3274874D01*
X40900001Y3067766D02*
X40900001Y3900001D01*
X41360311Y2607456D02*
X40900001Y3067766D01*
D43*
X55462500Y3750000D02*
X54950000Y3750000D01*
D40*
X40900001Y3900001D02*
X41300000Y4300000D01*
X43000000Y3274874D02*
X43000000Y4300000D01*
G04 #@! TO.N,/BTN1*
X43039689Y-2607456D02*
X43600000Y-3167767D01*
X43600000Y-3167767D02*
X43600000Y-3300000D01*
G04 #@! TO.N,/BTN2*
X43039689Y2607456D02*
X43756456Y3324223D01*
X43756456Y3324223D02*
X43756456Y3492590D01*
D42*
G04 #@! TO.N,/TIP_TC*
X5350000Y4100000D02*
X6000000Y4100000D01*
D40*
G04 #@! TO.N,Net-(C3-Pad1)*
X55462500Y1850000D02*
X55462500Y1462500D01*
X54920000Y920000D02*
X55462500Y1462500D01*
X54920000Y600000D02*
X54920000Y920000D01*
D45*
G04 #@! TO.N,GND*
X42686136Y-2948266D02*
X42300000Y-2562130D01*
X42300000Y-2562130D02*
X42300000Y-100000D01*
X41713864Y2925654D02*
X42200000Y2439518D01*
D40*
X41006757Y2253903D02*
X42200000Y1060660D01*
D45*
X42200000Y2439518D02*
X42200000Y2000000D01*
X41713864Y2961010D02*
X41713864Y2925654D01*
D40*
G04 #@! TO.N,/I2C1_SDA*
X43739340Y-2600000D02*
X44600000Y-2600000D01*
X43393243Y-2253903D02*
X43739340Y-2600000D01*
G04 #@! TO.N,/NRST*
X40017675Y-2535878D02*
X40017675Y-2619899D01*
G04 #@! TO.N,/FUSB_INT_N*
X43939340Y2800000D02*
X44200000Y2800000D01*
X43393243Y2253903D02*
X43939340Y2800000D01*
G04 #@! TD*
G04 #@! TA.AperFunction,Conductor*
G04 #@! TO.N,GND*
G36*
X74708400Y5235925D02*
G01*
X74735925Y5208400D01*
X74746000Y5170800D01*
X74746000Y-5170800D01*
X74735925Y-5208400D01*
X74708400Y-5235925D01*
X74670800Y-5246000D01*
X66322916Y-5246000D01*
X66285316Y-5235925D01*
X66257791Y-5208400D01*
X66247716Y-5170800D01*
X66257791Y-5133200D01*
X66269742Y-5117626D01*
X66935418Y-4451950D01*
X67959934Y-4451950D01*
X67983745Y-4540817D01*
X67985984Y-4546968D01*
X68031452Y-4644473D01*
X68034724Y-4650141D01*
X68096430Y-4738267D01*
X68100645Y-4743290D01*
X68176710Y-4819355D01*
X68181733Y-4823570D01*
X68269859Y-4885276D01*
X68275527Y-4888548D01*
X68373032Y-4934016D01*
X68379183Y-4936255D01*
X68483107Y-4964101D01*
X68489549Y-4965237D01*
X68569781Y-4972256D01*
X68573075Y-4972400D01*
X69063098Y-4972400D01*
X69070908Y-4970308D01*
X69073000Y-4962498D01*
X69326999Y-4962498D01*
X69329091Y-4970308D01*
X69336901Y-4972400D01*
X69826925Y-4972400D01*
X69830219Y-4972256D01*
X69910451Y-4965237D01*
X69916893Y-4964101D01*
X70020817Y-4936255D01*
X70026968Y-4934016D01*
X70124473Y-4888548D01*
X70130141Y-4885276D01*
X70218267Y-4823570D01*
X70223290Y-4819355D01*
X70299355Y-4743290D01*
X70303570Y-4738267D01*
X70365276Y-4650141D01*
X70368548Y-4644473D01*
X70414016Y-4546968D01*
X70416255Y-4540817D01*
X70438831Y-4456562D01*
X70438831Y-4451950D01*
X72289934Y-4451950D01*
X72313745Y-4540817D01*
X72315984Y-4546968D01*
X72361452Y-4644473D01*
X72364724Y-4650141D01*
X72426430Y-4738267D01*
X72430645Y-4743290D01*
X72506710Y-4819355D01*
X72511733Y-4823570D01*
X72599859Y-4885276D01*
X72605527Y-4888548D01*
X72703032Y-4934016D01*
X72709183Y-4936255D01*
X72813107Y-4964101D01*
X72819549Y-4965237D01*
X72899781Y-4972256D01*
X72903075Y-4972400D01*
X73243098Y-4972400D01*
X73250908Y-4970308D01*
X73253000Y-4962498D01*
X73506999Y-4962498D01*
X73509091Y-4970308D01*
X73516901Y-4972400D01*
X73856925Y-4972400D01*
X73860219Y-4972256D01*
X73940451Y-4965237D01*
X73946893Y-4964101D01*
X74050817Y-4936255D01*
X74056968Y-4934016D01*
X74154473Y-4888548D01*
X74160141Y-4885276D01*
X74248267Y-4823570D01*
X74253290Y-4819355D01*
X74329355Y-4743290D01*
X74333570Y-4738267D01*
X74395276Y-4650141D01*
X74398548Y-4644473D01*
X74444016Y-4546968D01*
X74446255Y-4540817D01*
X74468831Y-4456562D01*
X74468831Y-4448479D01*
X74466269Y-4447000D01*
X73516902Y-4446999D01*
X73509092Y-4449091D01*
X73507000Y-4456901D01*
X73506999Y-4962498D01*
X73253000Y-4962498D01*
X73253001Y-4456902D01*
X73250909Y-4449092D01*
X73243099Y-4447000D01*
X72298509Y-4446999D01*
X72290699Y-4449091D01*
X72289934Y-4451950D01*
X70438831Y-4451950D01*
X70438831Y-4448479D01*
X70436269Y-4447000D01*
X69336902Y-4446999D01*
X69329092Y-4449091D01*
X69327000Y-4456901D01*
X69326999Y-4962498D01*
X69073000Y-4962498D01*
X69073001Y-4456902D01*
X69070909Y-4449092D01*
X69063099Y-4447000D01*
X67968509Y-4446999D01*
X67960699Y-4449091D01*
X67959934Y-4451950D01*
X66935418Y-4451950D01*
X67203930Y-4183438D01*
X67961169Y-4183438D01*
X67961169Y-4191521D01*
X67963731Y-4193000D01*
X69063098Y-4193001D01*
X69070908Y-4190909D01*
X69073000Y-4183099D01*
X69073000Y-4183098D01*
X69326999Y-4183098D01*
X69329091Y-4190908D01*
X69336901Y-4193000D01*
X70431491Y-4193001D01*
X70439301Y-4190909D01*
X70440066Y-4188050D01*
X70438831Y-4183438D01*
X72291169Y-4183438D01*
X72291169Y-4191521D01*
X72293731Y-4193000D01*
X73243098Y-4193001D01*
X73250908Y-4190909D01*
X73253000Y-4183099D01*
X73253000Y-4183098D01*
X73506999Y-4183098D01*
X73509091Y-4190908D01*
X73516901Y-4193000D01*
X74461491Y-4193001D01*
X74469301Y-4190909D01*
X74470066Y-4188050D01*
X74446255Y-4099183D01*
X74444016Y-4093032D01*
X74398548Y-3995527D01*
X74395276Y-3989859D01*
X74333570Y-3901733D01*
X74329355Y-3896710D01*
X74253290Y-3820645D01*
X74248267Y-3816430D01*
X74160141Y-3754724D01*
X74154473Y-3751452D01*
X74056968Y-3705984D01*
X74050817Y-3703745D01*
X73946893Y-3675899D01*
X73940451Y-3674763D01*
X73860219Y-3667744D01*
X73856925Y-3667600D01*
X73516902Y-3667600D01*
X73509092Y-3669692D01*
X73507000Y-3677502D01*
X73506999Y-4183098D01*
X73253000Y-4183098D01*
X73253001Y-3677502D01*
X73250909Y-3669692D01*
X73243099Y-3667600D01*
X72903075Y-3667600D01*
X72899781Y-3667744D01*
X72819549Y-3674763D01*
X72813107Y-3675899D01*
X72709183Y-3703745D01*
X72703032Y-3705984D01*
X72605527Y-3751452D01*
X72599859Y-3754724D01*
X72511733Y-3816430D01*
X72506710Y-3820645D01*
X72430645Y-3896710D01*
X72426430Y-3901733D01*
X72364724Y-3989859D01*
X72361452Y-3995527D01*
X72315984Y-4093032D01*
X72313745Y-4099183D01*
X72291169Y-4183438D01*
X70438831Y-4183438D01*
X70416255Y-4099183D01*
X70414016Y-4093032D01*
X70368548Y-3995527D01*
X70365276Y-3989859D01*
X70303570Y-3901733D01*
X70299355Y-3896710D01*
X70223290Y-3820645D01*
X70218267Y-3816430D01*
X70130141Y-3754724D01*
X70124473Y-3751452D01*
X70026968Y-3705984D01*
X70020817Y-3703745D01*
X69916893Y-3675899D01*
X69910451Y-3674763D01*
X69830219Y-3667744D01*
X69826925Y-3667600D01*
X69336902Y-3667600D01*
X69329092Y-3669692D01*
X69327000Y-3677502D01*
X69326999Y-4183098D01*
X69073000Y-4183098D01*
X69073001Y-3677502D01*
X69070909Y-3669692D01*
X69063099Y-3667600D01*
X68573075Y-3667600D01*
X68569781Y-3667744D01*
X68489549Y-3674763D01*
X68483107Y-3675899D01*
X68379183Y-3703745D01*
X68373032Y-3705984D01*
X68275527Y-3751452D01*
X68269859Y-3754724D01*
X68181733Y-3816430D01*
X68176710Y-3820645D01*
X68100645Y-3896710D01*
X68096430Y-3901733D01*
X68034724Y-3989859D01*
X68031452Y-3995527D01*
X67985984Y-4093032D01*
X67983745Y-4099183D01*
X67961169Y-4183438D01*
X67203930Y-4183438D01*
X68035156Y-3352212D01*
X68037774Y-3349490D01*
X68040388Y-3346771D01*
X68040398Y-3346761D01*
X68040683Y-3346464D01*
X68047399Y-3339199D01*
X68052703Y-3333231D01*
X68052926Y-3332969D01*
X68052953Y-3332939D01*
X68113895Y-3261584D01*
X68114387Y-3261008D01*
X68121647Y-3251799D01*
X68123793Y-3249077D01*
X68123799Y-3249068D01*
X68124261Y-3248483D01*
X68135882Y-3232489D01*
X68144749Y-3219218D01*
X68186651Y-3150841D01*
X68191395Y-3143100D01*
X68191403Y-3143087D01*
X68191785Y-3142463D01*
X68199580Y-3128545D01*
X68205274Y-3117371D01*
X68208201Y-3111627D01*
X68208211Y-3111607D01*
X68208547Y-3110947D01*
X68215229Y-3096454D01*
X68217903Y-3090000D01*
X68249397Y-3013965D01*
X68249402Y-3013951D01*
X68249680Y-3013281D01*
X68255202Y-2998311D01*
X68256530Y-2994225D01*
X68261082Y-2980215D01*
X68261088Y-2980196D01*
X68261310Y-2979512D01*
X68263710Y-2971002D01*
X68265439Y-2964874D01*
X68265445Y-2964850D01*
X68265641Y-2964156D01*
X68266356Y-2961180D01*
X68277516Y-2914689D01*
X69195203Y-2914689D01*
X69195773Y-2918458D01*
X69209586Y-3009788D01*
X69210478Y-3015688D01*
X69211791Y-3019258D01*
X69211792Y-3019260D01*
X69241284Y-3099416D01*
X69245749Y-3111553D01*
X69247753Y-3114785D01*
X69247754Y-3114787D01*
X69292486Y-3186931D01*
X69299577Y-3198367D01*
X69302187Y-3201127D01*
X69302190Y-3201131D01*
X69365448Y-3268024D01*
X69369761Y-3272585D01*
X69453436Y-3331175D01*
X69547182Y-3371743D01*
X69611011Y-3385077D01*
X69644341Y-3392040D01*
X69644343Y-3392040D01*
X69647171Y-3392631D01*
X69652303Y-3392900D01*
X69724611Y-3392900D01*
X69729356Y-3392418D01*
X69797837Y-3385462D01*
X69797839Y-3385462D01*
X69801625Y-3385077D01*
X69899098Y-3354531D01*
X69903814Y-3351917D01*
X69985111Y-3306854D01*
X69985113Y-3306853D01*
X69988439Y-3305009D01*
X70065996Y-3238534D01*
X70076629Y-3224827D01*
X70104120Y-3189385D01*
X70128604Y-3157821D01*
X70130805Y-3153349D01*
X70172021Y-3069584D01*
X70173702Y-3066168D01*
X70199451Y-2967319D01*
X70202565Y-2907904D01*
X70204598Y-2869115D01*
X70204598Y-2869111D01*
X70204797Y-2865311D01*
X70201272Y-2842002D01*
X70190092Y-2768078D01*
X70190091Y-2768074D01*
X70189522Y-2764312D01*
X70183165Y-2747034D01*
X70155566Y-2672020D01*
X70155563Y-2672013D01*
X70154251Y-2668447D01*
X70140031Y-2645512D01*
X70102427Y-2584865D01*
X70100423Y-2581633D01*
X70097813Y-2578873D01*
X70097810Y-2578869D01*
X70032855Y-2510181D01*
X70032853Y-2510179D01*
X70030239Y-2507415D01*
X69946564Y-2448825D01*
X69852818Y-2408257D01*
X69778343Y-2392699D01*
X69755659Y-2387960D01*
X69755657Y-2387960D01*
X69752829Y-2387369D01*
X69747697Y-2387100D01*
X69675389Y-2387100D01*
X69673489Y-2387293D01*
X69602163Y-2394538D01*
X69602161Y-2394538D01*
X69598375Y-2394923D01*
X69500902Y-2425469D01*
X69497575Y-2427313D01*
X69497573Y-2427314D01*
X69414889Y-2473146D01*
X69414887Y-2473147D01*
X69411561Y-2474991D01*
X69334004Y-2541466D01*
X69331670Y-2544475D01*
X69331668Y-2544477D01*
X69320650Y-2558682D01*
X69271396Y-2622179D01*
X69226298Y-2713832D01*
X69200549Y-2812681D01*
X69198538Y-2851051D01*
X69195460Y-2909788D01*
X69195203Y-2914689D01*
X68277516Y-2914689D01*
X68285292Y-2882301D01*
X68286653Y-2876633D01*
X68288149Y-2869115D01*
X68289616Y-2861737D01*
X68289619Y-2861719D01*
X68289765Y-2860986D01*
X68289943Y-2859866D01*
X68291036Y-2852964D01*
X68292858Y-2841458D01*
X68294734Y-2825612D01*
X68295013Y-2822075D01*
X68302155Y-2731317D01*
X68302155Y-2731316D01*
X68302186Y-2730923D01*
X68302398Y-2727330D01*
X68302634Y-2723331D01*
X68302636Y-2723288D01*
X68302656Y-2722950D01*
X68303044Y-2713064D01*
X68303200Y-2705095D01*
X68303200Y-2305496D01*
X68303074Y-2299740D01*
X68303015Y-2297017D01*
X68303014Y-2296985D01*
X68303006Y-2296623D01*
X68302526Y-2285641D01*
X68301947Y-2276803D01*
X68300100Y-2255687D01*
X68292824Y-2172533D01*
X68292753Y-2171721D01*
X68290440Y-2154154D01*
X68288595Y-2143685D01*
X68286766Y-2133311D01*
X68286762Y-2133292D01*
X68286627Y-2132525D01*
X68282789Y-2115212D01*
X68280194Y-2105525D01*
X68257126Y-2019434D01*
X68257125Y-2019432D01*
X68256914Y-2018643D01*
X68256676Y-2017889D01*
X68256669Y-2017864D01*
X68251827Y-2002508D01*
X68251823Y-2002496D01*
X68251583Y-2001735D01*
X68251311Y-2000989D01*
X68251304Y-2000967D01*
X68244344Y-1981847D01*
X68244071Y-1981096D01*
X68237288Y-1964719D01*
X68236941Y-1963974D01*
X68195384Y-1874855D01*
X68195376Y-1874838D01*
X68195038Y-1874114D01*
X68188300Y-1861172D01*
X68187239Y-1859133D01*
X68187236Y-1859128D01*
X68186851Y-1858388D01*
X68175869Y-1839367D01*
X68175350Y-1838551D01*
X68166797Y-1825126D01*
X68166346Y-1824418D01*
X68123880Y-1763770D01*
X68109483Y-1743209D01*
X68109475Y-1743198D01*
X68109003Y-1742524D01*
X68106594Y-1739384D01*
X68099094Y-1729611D01*
X68098207Y-1728455D01*
X68084089Y-1711631D01*
X68072117Y-1698567D01*
X68001433Y-1627883D01*
X67988369Y-1615911D01*
X67971545Y-1601793D01*
X67957476Y-1590997D01*
X67956802Y-1590525D01*
X67956791Y-1590517D01*
X67913915Y-1560495D01*
X67875582Y-1533654D01*
X67868220Y-1528964D01*
X67861329Y-1524574D01*
X67861317Y-1524567D01*
X67860633Y-1524131D01*
X67841612Y-1513149D01*
X67837235Y-1510870D01*
X67826614Y-1505341D01*
X67825886Y-1504962D01*
X67825162Y-1504624D01*
X67825145Y-1504616D01*
X67736026Y-1463059D01*
X67736011Y-1463052D01*
X67735281Y-1462712D01*
X67718904Y-1455929D01*
X67710648Y-1452924D01*
X67699033Y-1448696D01*
X67699011Y-1448689D01*
X67698265Y-1448417D01*
X67697504Y-1448177D01*
X67697492Y-1448173D01*
X67682136Y-1443331D01*
X67682111Y-1443324D01*
X67681357Y-1443086D01*
X67665824Y-1438924D01*
X67585550Y-1417415D01*
X67585543Y-1417413D01*
X67584788Y-1417211D01*
X67567475Y-1413373D01*
X67566708Y-1413238D01*
X67566689Y-1413234D01*
X67546637Y-1409699D01*
X67546617Y-1409696D01*
X67545846Y-1409560D01*
X67534838Y-1408111D01*
X67529078Y-1407352D01*
X67529069Y-1407351D01*
X67528279Y-1407247D01*
X67506609Y-1405351D01*
X67423600Y-1398088D01*
X67423578Y-1398086D01*
X67423197Y-1398053D01*
X67418046Y-1397716D01*
X67414744Y-1397499D01*
X67414724Y-1397498D01*
X67414359Y-1397474D01*
X67403377Y-1396994D01*
X67403015Y-1396986D01*
X67402983Y-1396985D01*
X67394871Y-1396808D01*
X67394869Y-1396808D01*
X67394504Y-1396800D01*
X66894905Y-1396800D01*
X66894565Y-1396807D01*
X66894527Y-1396807D01*
X66890829Y-1396880D01*
X66886936Y-1396956D01*
X66883904Y-1397075D01*
X66877457Y-1397328D01*
X66877454Y-1397328D01*
X66877050Y-1397344D01*
X66876712Y-1397364D01*
X66876669Y-1397366D01*
X66869446Y-1397792D01*
X66869422Y-1397794D01*
X66869077Y-1397814D01*
X66774387Y-1405266D01*
X66773688Y-1405349D01*
X66773665Y-1405351D01*
X66764822Y-1406398D01*
X66758538Y-1407142D01*
X66751380Y-1408276D01*
X66739723Y-1410122D01*
X66739705Y-1410125D01*
X66739012Y-1410235D01*
X66729699Y-1412088D01*
X66724094Y-1413203D01*
X66724077Y-1413207D01*
X66723367Y-1413348D01*
X66722651Y-1413520D01*
X66722646Y-1413521D01*
X66636541Y-1434193D01*
X66636531Y-1434196D01*
X66635838Y-1434362D01*
X66627985Y-1436576D01*
X66621216Y-1438485D01*
X66621197Y-1438491D01*
X66620487Y-1438691D01*
X66611324Y-1441668D01*
X66602406Y-1444565D01*
X66602390Y-1444571D01*
X66601693Y-1444797D01*
X66586719Y-1450320D01*
X66558687Y-1461931D01*
X66504233Y-1484486D01*
X66504215Y-1484494D01*
X66503546Y-1484771D01*
X66489053Y-1491453D01*
X66488393Y-1491789D01*
X66488373Y-1491799D01*
X66481864Y-1495116D01*
X66471455Y-1500420D01*
X66463962Y-1504616D01*
X66458187Y-1507850D01*
X66458171Y-1507859D01*
X66457536Y-1508215D01*
X66456892Y-1508610D01*
X66456888Y-1508612D01*
X66448814Y-1513560D01*
X66380778Y-1555253D01*
X66378526Y-1556758D01*
X66368121Y-1563710D01*
X66368096Y-1563727D01*
X66367507Y-1564121D01*
X66366934Y-1564537D01*
X66366923Y-1564545D01*
X66362230Y-1567955D01*
X66351516Y-1575740D01*
X66350943Y-1576191D01*
X66350936Y-1576197D01*
X66339581Y-1585148D01*
X66339560Y-1585165D01*
X66338992Y-1585613D01*
X66338430Y-1586093D01*
X66267061Y-1647047D01*
X66267031Y-1647074D01*
X66266769Y-1647297D01*
X66260801Y-1652601D01*
X66253536Y-1659317D01*
X66253239Y-1659602D01*
X66253229Y-1659612D01*
X66252800Y-1660025D01*
X66247788Y-1664844D01*
X64337858Y-3574774D01*
X64304147Y-3594238D01*
X64284684Y-3596800D01*
X62102654Y-3596800D01*
X62065054Y-3586725D01*
X62037529Y-3559200D01*
X62027454Y-3521600D01*
X62037529Y-3484000D01*
X62042993Y-3475822D01*
X62047804Y-3469552D01*
X62061886Y-3451200D01*
X62092096Y-3378267D01*
X62092853Y-3372522D01*
X62101757Y-3304884D01*
X62102400Y-3300000D01*
X62099364Y-3276939D01*
X62092739Y-3226614D01*
X62092738Y-3226611D01*
X62092096Y-3221733D01*
X62061886Y-3148800D01*
X62029827Y-3107020D01*
X62016827Y-3090078D01*
X62013829Y-3086171D01*
X61951200Y-3038114D01*
X61878267Y-3007904D01*
X61873389Y-3007262D01*
X61873386Y-3007261D01*
X61804884Y-2998243D01*
X61800000Y-2997600D01*
X61795116Y-2998243D01*
X61726614Y-3007261D01*
X61726611Y-3007262D01*
X61721733Y-3007904D01*
X61648800Y-3038114D01*
X61586171Y-3086171D01*
X61583173Y-3090078D01*
X61570173Y-3107020D01*
X61538114Y-3148800D01*
X61507904Y-3221733D01*
X61507262Y-3226611D01*
X61507261Y-3226614D01*
X61500636Y-3276939D01*
X61497600Y-3300000D01*
X61498243Y-3304884D01*
X61507148Y-3372522D01*
X61507904Y-3378267D01*
X61538114Y-3451200D01*
X61552196Y-3469552D01*
X61557007Y-3475822D01*
X61571903Y-3511785D01*
X61566821Y-3550378D01*
X61543124Y-3581261D01*
X61507161Y-3596157D01*
X61497346Y-3596800D01*
X60655067Y-3596800D01*
X60617467Y-3586725D01*
X60589942Y-3559200D01*
X60579867Y-3521600D01*
X60585592Y-3492821D01*
X60602966Y-3450878D01*
X60605494Y-3441445D01*
X60612080Y-3391423D01*
X60612400Y-3386533D01*
X60612400Y-3336902D01*
X60610308Y-3329092D01*
X60602498Y-3327000D01*
X60307003Y-3326999D01*
X60306995Y-3327000D01*
X60128200Y-3326999D01*
X60090600Y-3316924D01*
X60063075Y-3289399D01*
X60053000Y-3251799D01*
X60053000Y-3063099D01*
X60306999Y-3063099D01*
X60309091Y-3070908D01*
X60316901Y-3073000D01*
X60602499Y-3073001D01*
X60610308Y-3070909D01*
X60612400Y-3063099D01*
X60612400Y-3013469D01*
X60612079Y-3008576D01*
X60605495Y-2958562D01*
X60602966Y-2949121D01*
X60577275Y-2887100D01*
X60572393Y-2878644D01*
X60531524Y-2825382D01*
X60524619Y-2818477D01*
X60471360Y-2777610D01*
X60462896Y-2772724D01*
X60400880Y-2747034D01*
X60391441Y-2744505D01*
X60341425Y-2737921D01*
X60336532Y-2737600D01*
X60316902Y-2737600D01*
X60309092Y-2739692D01*
X60307000Y-2747502D01*
X60306999Y-3063099D01*
X60053000Y-3063099D01*
X60053001Y-2747502D01*
X60050909Y-2739692D01*
X60043099Y-2737600D01*
X60023469Y-2737600D01*
X60018576Y-2737921D01*
X59968562Y-2744505D01*
X59959121Y-2747034D01*
X59897100Y-2772725D01*
X59888644Y-2777607D01*
X59835382Y-2818476D01*
X59828477Y-2825381D01*
X59787608Y-2878643D01*
X59782726Y-2887099D01*
X59769744Y-2918439D01*
X59746046Y-2949321D01*
X59710083Y-2964218D01*
X59671490Y-2959137D01*
X59640608Y-2935439D01*
X59630792Y-2918438D01*
X59630372Y-2917424D01*
X59615824Y-2882301D01*
X59612041Y-2877370D01*
X59571877Y-2825029D01*
X59571876Y-2825028D01*
X59568879Y-2821122D01*
X59507700Y-2774177D01*
X59436455Y-2744666D01*
X59431577Y-2744024D01*
X59431574Y-2744023D01*
X59381421Y-2737420D01*
X59381416Y-2737420D01*
X59378988Y-2737100D01*
X59061013Y-2737100D01*
X59058585Y-2737420D01*
X59058580Y-2737420D01*
X59008429Y-2744023D01*
X59008428Y-2744023D01*
X59003546Y-2744666D01*
X58998997Y-2746550D01*
X58998994Y-2746551D01*
X58972964Y-2757333D01*
X58932301Y-2774176D01*
X58928393Y-2777175D01*
X58928391Y-2777176D01*
X58893682Y-2803810D01*
X58871122Y-2821121D01*
X58868124Y-2825028D01*
X58827177Y-2878390D01*
X58827176Y-2878392D01*
X58824177Y-2882300D01*
X58823592Y-2883713D01*
X58797277Y-2910026D01*
X58759679Y-2920100D01*
X58581948Y-2920100D01*
X58544348Y-2910025D01*
X58516823Y-2882500D01*
X58506748Y-2844900D01*
X58516921Y-2807130D01*
X58540795Y-2766027D01*
X58543619Y-2761165D01*
X58546895Y-2747034D01*
X58555453Y-2710110D01*
X58556421Y-2705934D01*
X58556421Y-2539324D01*
X58554538Y-2526795D01*
X58550124Y-2497440D01*
X58550124Y-2497439D01*
X58549288Y-2491881D01*
X58521242Y-2433474D01*
X58512790Y-2424331D01*
X58509261Y-2420513D01*
X58491136Y-2386063D01*
X58492665Y-2347167D01*
X58505795Y-2322448D01*
X58506951Y-2321005D01*
X58511077Y-2317191D01*
X58543619Y-2261165D01*
X58545781Y-2251840D01*
X58555453Y-2210110D01*
X58556421Y-2205934D01*
X58556421Y-2204922D01*
X61566985Y-2204922D01*
X61567845Y-2208898D01*
X61567845Y-2208901D01*
X61578833Y-2259723D01*
X61586859Y-2296844D01*
X61626009Y-2382353D01*
X61628459Y-2385604D01*
X61628460Y-2385606D01*
X61664531Y-2433474D01*
X61682607Y-2457462D01*
X61685695Y-2460108D01*
X61685698Y-2460112D01*
X61750916Y-2516010D01*
X61750919Y-2516012D01*
X61754013Y-2518664D01*
X61836896Y-2563106D01*
X61872580Y-2573204D01*
X61923472Y-2587605D01*
X61923476Y-2587606D01*
X61927389Y-2588713D01*
X61981307Y-2591916D01*
X62017207Y-2594049D01*
X62017210Y-2594049D01*
X62021269Y-2594290D01*
X62114157Y-2579578D01*
X62117946Y-2578093D01*
X62117950Y-2578092D01*
X62161103Y-2561180D01*
X62201719Y-2545263D01*
X62205106Y-2542995D01*
X62205109Y-2542994D01*
X62276484Y-2495213D01*
X62276486Y-2495212D01*
X62279870Y-2492946D01*
X62344963Y-2425067D01*
X62347954Y-2420168D01*
X62363868Y-2394095D01*
X62393962Y-2344794D01*
X62424580Y-2255872D01*
X62425836Y-2245021D01*
X62431546Y-2195665D01*
X62435389Y-2162450D01*
X62435400Y-2159410D01*
X62433577Y-2142624D01*
X62427718Y-2088700D01*
X62425243Y-2065914D01*
X62423893Y-2061902D01*
X62396545Y-1980639D01*
X62396543Y-1980634D01*
X62395246Y-1976781D01*
X62388446Y-1965463D01*
X62348904Y-1899655D01*
X62346809Y-1896168D01*
X62304102Y-1851006D01*
X62284985Y-1830790D01*
X62284982Y-1830788D01*
X62282191Y-1827836D01*
X62278204Y-1825126D01*
X62221926Y-1786880D01*
X62204408Y-1774975D01*
X62117088Y-1740049D01*
X62024305Y-1724689D01*
X62020238Y-1724902D01*
X62020235Y-1724902D01*
X61973248Y-1727365D01*
X61930388Y-1729611D01*
X61926461Y-1730693D01*
X61926459Y-1730693D01*
X61843647Y-1753503D01*
X61839719Y-1754585D01*
X61756527Y-1798447D01*
X61737971Y-1814128D01*
X61687805Y-1856522D01*
X61687802Y-1856525D01*
X61684696Y-1859150D01*
X61627574Y-1933861D01*
X61625853Y-1937552D01*
X61589548Y-2015408D01*
X61589546Y-2015414D01*
X61587829Y-2019096D01*
X61567313Y-2110876D01*
X61567202Y-2142624D01*
X61567011Y-2197578D01*
X61566985Y-2204922D01*
X58556421Y-2204922D01*
X58556421Y-2039324D01*
X58554089Y-2023809D01*
X58550124Y-1997440D01*
X58550124Y-1997439D01*
X58549288Y-1991881D01*
X58521242Y-1933474D01*
X58509261Y-1920513D01*
X58491136Y-1886063D01*
X58492665Y-1847167D01*
X58505795Y-1822448D01*
X58506951Y-1821005D01*
X58511077Y-1817191D01*
X58543619Y-1761165D01*
X58545396Y-1753501D01*
X58555453Y-1710110D01*
X58556421Y-1705934D01*
X58556421Y-1539324D01*
X58554864Y-1528964D01*
X58550509Y-1500000D01*
X62997600Y-1500000D01*
X62998243Y-1504884D01*
X63006705Y-1569158D01*
X63007904Y-1578267D01*
X63038114Y-1651200D01*
X63041112Y-1655107D01*
X63082209Y-1708665D01*
X63086171Y-1713829D01*
X63090078Y-1716827D01*
X63115993Y-1736712D01*
X63148800Y-1761886D01*
X63221733Y-1792096D01*
X63226611Y-1792738D01*
X63226614Y-1792739D01*
X63295116Y-1801757D01*
X63300000Y-1802400D01*
X63304884Y-1801757D01*
X63373386Y-1792739D01*
X63373389Y-1792738D01*
X63378267Y-1792096D01*
X63451200Y-1761886D01*
X63484007Y-1736712D01*
X63509922Y-1716827D01*
X63513829Y-1713829D01*
X63517792Y-1708665D01*
X63558888Y-1655107D01*
X63561886Y-1651200D01*
X63592096Y-1578267D01*
X63593296Y-1569158D01*
X63601757Y-1504884D01*
X63602400Y-1500000D01*
X63600664Y-1486814D01*
X63592739Y-1426614D01*
X63592738Y-1426611D01*
X63592096Y-1421733D01*
X63561886Y-1348800D01*
X63513829Y-1286171D01*
X63505657Y-1279900D01*
X63455107Y-1241112D01*
X63451200Y-1238114D01*
X63378267Y-1207904D01*
X63373389Y-1207262D01*
X63373386Y-1207261D01*
X63304884Y-1198243D01*
X63300000Y-1197600D01*
X63295116Y-1198243D01*
X63226614Y-1207261D01*
X63226611Y-1207262D01*
X63221733Y-1207904D01*
X63148800Y-1238114D01*
X63144893Y-1241112D01*
X63094344Y-1279900D01*
X63086171Y-1286171D01*
X63038114Y-1348800D01*
X63007904Y-1421733D01*
X63007262Y-1426611D01*
X63007261Y-1426614D01*
X62999336Y-1486814D01*
X62997600Y-1500000D01*
X58550509Y-1500000D01*
X58550124Y-1497440D01*
X58550124Y-1497439D01*
X58549288Y-1491881D01*
X58521242Y-1433474D01*
X58510958Y-1422349D01*
X58509261Y-1420513D01*
X58491136Y-1386063D01*
X58492665Y-1347167D01*
X58505795Y-1322448D01*
X58506951Y-1321005D01*
X58511077Y-1317191D01*
X58543619Y-1261165D01*
X58546279Y-1249692D01*
X58555453Y-1210110D01*
X58556421Y-1205934D01*
X58556421Y-1039324D01*
X58555776Y-1035029D01*
X58550124Y-997440D01*
X58550124Y-997439D01*
X58549288Y-991881D01*
X58521242Y-933474D01*
X58488061Y-897579D01*
X58481078Y-890025D01*
X58481077Y-890025D01*
X58477261Y-885896D01*
X58421235Y-853353D01*
X58404140Y-849391D01*
X58369787Y-831087D01*
X58349188Y-798057D01*
X58345921Y-776133D01*
X58345921Y-685226D01*
X58356934Y-646046D01*
X58373297Y-619238D01*
X58393962Y-585384D01*
X58420397Y-508610D01*
X63597600Y-508610D01*
X63598243Y-513494D01*
X63607213Y-581625D01*
X63607904Y-586877D01*
X63638114Y-659810D01*
X63641153Y-663770D01*
X63670795Y-702400D01*
X63686171Y-722439D01*
X63690078Y-725437D01*
X63693393Y-727981D01*
X63748800Y-770496D01*
X63821733Y-800706D01*
X63826611Y-801348D01*
X63826614Y-801349D01*
X63895116Y-810367D01*
X63900000Y-811010D01*
X63904884Y-810367D01*
X63973386Y-801349D01*
X63973389Y-801348D01*
X63978267Y-800706D01*
X64051200Y-770496D01*
X64106607Y-727981D01*
X64109922Y-725437D01*
X64113829Y-722439D01*
X64129206Y-702400D01*
X64158847Y-663770D01*
X64161886Y-659810D01*
X64192096Y-586877D01*
X64192788Y-581625D01*
X64201757Y-513494D01*
X64202400Y-508610D01*
X64197455Y-471049D01*
X64192739Y-435224D01*
X64192738Y-435221D01*
X64192096Y-430343D01*
X64161886Y-357410D01*
X64113829Y-294781D01*
X64051200Y-246724D01*
X63978267Y-216514D01*
X63973389Y-215872D01*
X63973386Y-215871D01*
X63904884Y-206853D01*
X63900000Y-206210D01*
X63895116Y-206853D01*
X63826614Y-215871D01*
X63826611Y-215872D01*
X63821733Y-216514D01*
X63748800Y-246724D01*
X63686171Y-294781D01*
X63638114Y-357410D01*
X63607904Y-430343D01*
X63607262Y-435221D01*
X63607261Y-435224D01*
X63602545Y-471049D01*
X63597600Y-508610D01*
X58420397Y-508610D01*
X58424580Y-496462D01*
X58435389Y-403040D01*
X58435400Y-400000D01*
X58434870Y-395116D01*
X58427428Y-326614D01*
X58425243Y-306504D01*
X58423668Y-301825D01*
X58396545Y-221229D01*
X58396543Y-221224D01*
X58395246Y-217371D01*
X58392077Y-212096D01*
X58360265Y-159152D01*
X58346809Y-136758D01*
X58305656Y-93240D01*
X58284985Y-71380D01*
X58284982Y-71378D01*
X58282191Y-68426D01*
X58272568Y-61886D01*
X58207774Y-17852D01*
X58207770Y-17850D01*
X58204408Y-15565D01*
X58200627Y-14053D01*
X58199798Y-13612D01*
X58185200Y0D01*
X62997600Y0D01*
X62998243Y-4884D01*
X63006981Y-71253D01*
X63007904Y-78267D01*
X63038114Y-151200D01*
X63047838Y-163872D01*
X63068813Y-191207D01*
X63086171Y-213829D01*
X63148800Y-261886D01*
X63221733Y-292096D01*
X63226611Y-292738D01*
X63226614Y-292739D01*
X63295116Y-301757D01*
X63300000Y-302400D01*
X63304884Y-301757D01*
X63373386Y-292739D01*
X63373389Y-292738D01*
X63378267Y-292096D01*
X63451200Y-261886D01*
X63513829Y-213829D01*
X63531188Y-191207D01*
X63552162Y-163872D01*
X63561886Y-151200D01*
X63592096Y-78267D01*
X63593020Y-71253D01*
X63601757Y-4884D01*
X63602400Y0D01*
X63601677Y5495D01*
X63592739Y73386D01*
X63592738Y73389D01*
X63592096Y78267D01*
X63561886Y151200D01*
X63513829Y213829D01*
X63451200Y261886D01*
X63378267Y292096D01*
X63373389Y292738D01*
X63373386Y292739D01*
X63304884Y301757D01*
X63300000Y302400D01*
X63295116Y301757D01*
X63226614Y292739D01*
X63226611Y292738D01*
X63221733Y292096D01*
X63148800Y261886D01*
X63086171Y213829D01*
X63038114Y151200D01*
X63007904Y78267D01*
X63007262Y73389D01*
X63007261Y73386D01*
X62998323Y5495D01*
X62997600Y0D01*
X58185200Y0D01*
X58171328Y12934D01*
X58159900Y52787D01*
X58159900Y131107D01*
X58169975Y168707D01*
X58189321Y190767D01*
X58192878Y193496D01*
X58228879Y221121D01*
X58260160Y261886D01*
X58272824Y278390D01*
X58272825Y278392D01*
X58275824Y282300D01*
X58295078Y328784D01*
X58303449Y348993D01*
X58303450Y348996D01*
X58305334Y353545D01*
X58305977Y358428D01*
X58312580Y408579D01*
X58312580Y408584D01*
X58312900Y411012D01*
X58312900Y788988D01*
X58312530Y791803D01*
X58305977Y841572D01*
X58305977Y841573D01*
X58305334Y846455D01*
X58302405Y853528D01*
X58282822Y900804D01*
X58275824Y917700D01*
X58266332Y930071D01*
X58231877Y974972D01*
X58228879Y978879D01*
X58213186Y990921D01*
X58171610Y1022824D01*
X58171607Y1022826D01*
X58167700Y1025824D01*
X58135255Y1039263D01*
X58101007Y1053449D01*
X58101004Y1053450D01*
X58096455Y1055334D01*
X58091573Y1055977D01*
X58091572Y1055977D01*
X58041421Y1062580D01*
X58041416Y1062580D01*
X58038988Y1062900D01*
X57721012Y1062900D01*
X57718584Y1062580D01*
X57718579Y1062580D01*
X57668428Y1055977D01*
X57668427Y1055977D01*
X57663545Y1055334D01*
X57658996Y1053450D01*
X57658993Y1053449D01*
X57624745Y1039263D01*
X57592300Y1025824D01*
X57588393Y1022826D01*
X57588390Y1022824D01*
X57546814Y990921D01*
X57531121Y978879D01*
X57528123Y974972D01*
X57493669Y930071D01*
X57484176Y917700D01*
X57476016Y897999D01*
X57469208Y881563D01*
X57445511Y850681D01*
X57409548Y835784D01*
X57370954Y840865D01*
X57340072Y864562D01*
X57330256Y881563D01*
X57317275Y912901D01*
X57312393Y921357D01*
X57271524Y974619D01*
X57264619Y981524D01*
X57211357Y1022393D01*
X57202901Y1027275D01*
X57140880Y1052966D01*
X57131439Y1055495D01*
X57081425Y1062079D01*
X57076532Y1062400D01*
X57056902Y1062400D01*
X57049092Y1060308D01*
X57047000Y1052498D01*
X57047000Y147502D01*
X57049092Y139692D01*
X57056902Y137600D01*
X57076532Y137600D01*
X57081425Y137921D01*
X57131439Y144505D01*
X57140880Y147034D01*
X57202901Y172725D01*
X57211357Y177607D01*
X57264619Y218476D01*
X57271524Y225381D01*
X57312393Y278643D01*
X57317275Y287099D01*
X57330256Y318437D01*
X57353953Y349319D01*
X57389917Y364216D01*
X57428510Y359135D01*
X57459392Y335438D01*
X57469208Y318438D01*
X57484176Y282300D01*
X57487175Y278392D01*
X57487176Y278390D01*
X57499840Y261886D01*
X57531121Y221121D01*
X57567123Y193496D01*
X57570679Y190767D01*
X57594376Y159885D01*
X57600100Y131107D01*
X57600101Y-14054D01*
X57600101Y-87080D01*
X57590026Y-124680D01*
X57562501Y-152205D01*
X57524901Y-162280D01*
X57487131Y-152107D01*
X57485570Y-151200D01*
X57446235Y-128353D01*
X57440759Y-127084D01*
X57440757Y-127083D01*
X57395180Y-116519D01*
X57391004Y-115551D01*
X57224394Y-115551D01*
X57221616Y-115969D01*
X57221612Y-115969D01*
X57182510Y-121848D01*
X57182509Y-121848D01*
X57176951Y-122684D01*
X57171884Y-125117D01*
X57165681Y-128096D01*
X57118544Y-150730D01*
X57114416Y-154546D01*
X57105212Y-163054D01*
X57070763Y-181179D01*
X57031866Y-179651D01*
X57007148Y-166521D01*
X56997089Y-158462D01*
X56950915Y-131643D01*
X56940571Y-127548D01*
X56938164Y-126990D01*
X56930087Y-127265D01*
X56928521Y-130204D01*
X56928520Y-480948D01*
X56928521Y-480956D01*
X56928520Y-943318D01*
X56930521Y-958519D01*
X56930520Y-1920251D01*
X56920445Y-1957851D01*
X56892920Y-1985376D01*
X56855319Y-1995451D01*
X56751720Y-1995450D01*
X56714120Y-1985375D01*
X56686596Y-1957849D01*
X56676521Y-1920250D01*
X56676522Y-958511D01*
X56678521Y-943330D01*
X56678522Y-740851D01*
X56676430Y-733042D01*
X56668620Y-730950D01*
X56620925Y-730950D01*
X56620917Y-730951D01*
X56428520Y-730951D01*
X56036022Y-730950D01*
X56028213Y-733042D01*
X56026121Y-740852D01*
X56026121Y-798152D01*
X56016046Y-835752D01*
X55988521Y-863277D01*
X55950921Y-873352D01*
X55913151Y-863178D01*
X55901101Y-856179D01*
X55901099Y-856178D01*
X55896235Y-853353D01*
X55890759Y-852084D01*
X55890757Y-852083D01*
X55845180Y-841519D01*
X55841004Y-840551D01*
X55690109Y-840551D01*
X55652509Y-830476D01*
X55636935Y-818526D01*
X55351859Y-533451D01*
X55256197Y-437790D01*
X55236733Y-404078D01*
X55234611Y-392737D01*
X55227428Y-326614D01*
X55225654Y-310285D01*
X56026121Y-310285D01*
X56026121Y-471049D01*
X56028213Y-478859D01*
X56036023Y-480951D01*
X56168619Y-480951D01*
X56176429Y-478859D01*
X56178520Y-471051D01*
X56428520Y-471051D01*
X56430612Y-478860D01*
X56438422Y-480952D01*
X56486117Y-480952D01*
X56486125Y-480951D01*
X56668619Y-480951D01*
X56676429Y-478859D01*
X56678521Y-471049D01*
X56678522Y-132849D01*
X56676430Y-125040D01*
X56675042Y-124669D01*
X56672031Y-125595D01*
X56623888Y-148713D01*
X56614695Y-154961D01*
X56605599Y-163368D01*
X56571149Y-181492D01*
X56532253Y-179961D01*
X56507539Y-166834D01*
X56497088Y-158462D01*
X56450915Y-131643D01*
X56440571Y-127548D01*
X56438164Y-126990D01*
X56430087Y-127265D01*
X56428521Y-130204D01*
X56428520Y-471051D01*
X56178520Y-471051D01*
X56178521Y-471049D01*
X56178522Y-132849D01*
X56176430Y-125040D01*
X56175042Y-124669D01*
X56172031Y-125595D01*
X56123888Y-148713D01*
X56114700Y-154957D01*
X56075484Y-191207D01*
X56068532Y-199884D01*
X56041710Y-246063D01*
X56037619Y-256394D01*
X56027088Y-301825D01*
X56026121Y-310285D01*
X55225654Y-310285D01*
X55225243Y-306504D01*
X55223668Y-301825D01*
X55196545Y-221229D01*
X55196543Y-221224D01*
X55195246Y-217371D01*
X55192077Y-212096D01*
X55160265Y-159152D01*
X55146809Y-136758D01*
X55105656Y-93240D01*
X55084985Y-71380D01*
X55084982Y-71378D01*
X55082191Y-68426D01*
X55004408Y-15565D01*
X55000633Y-14055D01*
X55000631Y-14054D01*
X54985299Y-7922D01*
X54954130Y15396D01*
X54938795Y51174D01*
X54943404Y89827D01*
X54966722Y120996D01*
X55002500Y136331D01*
X55013226Y137100D01*
X55078988Y137100D01*
X55081416Y137420D01*
X55081421Y137420D01*
X55131572Y144023D01*
X55131573Y144023D01*
X55136455Y144666D01*
X55141004Y146550D01*
X55141007Y146551D01*
X55197630Y170005D01*
X55207700Y174176D01*
X55212172Y177607D01*
X55264972Y218123D01*
X55268879Y221121D01*
X55300160Y261886D01*
X55312824Y278390D01*
X55312825Y278392D01*
X55315824Y282300D01*
X55330792Y318437D01*
X55354489Y349319D01*
X55390452Y364216D01*
X55429046Y359135D01*
X55459928Y335438D01*
X55469744Y318437D01*
X55482725Y287099D01*
X55487607Y278643D01*
X55528476Y225381D01*
X55535381Y218476D01*
X55588643Y177607D01*
X55597099Y172725D01*
X55659120Y147034D01*
X55668561Y144505D01*
X55718575Y137921D01*
X55723468Y137600D01*
X55743098Y137600D01*
X55750908Y139692D01*
X55753000Y147502D01*
X55753000Y463098D01*
X56007000Y463098D01*
X56007000Y147502D01*
X56009092Y139692D01*
X56016902Y137600D01*
X56036532Y137600D01*
X56041425Y137921D01*
X56091439Y144505D01*
X56100880Y147034D01*
X56162901Y172725D01*
X56171357Y177607D01*
X56224619Y218476D01*
X56231524Y225381D01*
X56272393Y278643D01*
X56277275Y287099D01*
X56302966Y349120D01*
X56305495Y358561D01*
X56312079Y408575D01*
X56312400Y413468D01*
X56312400Y463098D01*
X56487600Y463098D01*
X56487600Y413468D01*
X56487921Y408575D01*
X56494505Y358561D01*
X56497034Y349120D01*
X56522725Y287099D01*
X56527607Y278643D01*
X56568476Y225381D01*
X56575381Y218476D01*
X56628643Y177607D01*
X56637099Y172725D01*
X56699120Y147034D01*
X56708561Y144505D01*
X56758575Y137921D01*
X56763468Y137600D01*
X56783098Y137600D01*
X56790908Y139692D01*
X56793000Y147502D01*
X56793000Y463098D01*
X56790908Y470908D01*
X56783098Y473000D01*
X56497502Y473000D01*
X56489692Y470908D01*
X56487600Y463098D01*
X56312400Y463098D01*
X56310308Y470908D01*
X56302498Y473000D01*
X56016902Y473000D01*
X56009092Y470908D01*
X56007000Y463098D01*
X55753000Y463098D01*
X55753000Y1052498D01*
X56007000Y1052498D01*
X56007000Y736902D01*
X56009092Y729092D01*
X56016902Y727000D01*
X56302498Y727000D01*
X56310308Y729092D01*
X56312400Y736902D01*
X56312400Y786532D01*
X56487600Y786532D01*
X56487600Y736902D01*
X56489692Y729092D01*
X56497502Y727000D01*
X56783098Y727000D01*
X56790908Y729092D01*
X56793000Y736902D01*
X56793000Y1052498D01*
X56790908Y1060308D01*
X56783098Y1062400D01*
X56763468Y1062400D01*
X56758575Y1062079D01*
X56708561Y1055495D01*
X56699120Y1052966D01*
X56637099Y1027275D01*
X56628643Y1022393D01*
X56575381Y981524D01*
X56568476Y974619D01*
X56527607Y921357D01*
X56522725Y912901D01*
X56497034Y850880D01*
X56494505Y841439D01*
X56487921Y791425D01*
X56487600Y786532D01*
X56312400Y786532D01*
X56312079Y791425D01*
X56305495Y841439D01*
X56302966Y850880D01*
X56277275Y912901D01*
X56272393Y921357D01*
X56231524Y974619D01*
X56224619Y981524D01*
X56171357Y1022393D01*
X56162901Y1027275D01*
X56100880Y1052966D01*
X56091439Y1055495D01*
X56041425Y1062079D01*
X56036532Y1062400D01*
X56016902Y1062400D01*
X56009092Y1060308D01*
X56007000Y1052498D01*
X55753000Y1052498D01*
X55750908Y1060308D01*
X55743098Y1062400D01*
X55723468Y1062400D01*
X55718575Y1062079D01*
X55668561Y1055495D01*
X55659120Y1052966D01*
X55649368Y1048926D01*
X55610774Y1043844D01*
X55574811Y1058740D01*
X55551113Y1089621D01*
X55546031Y1128215D01*
X55560927Y1164178D01*
X55567414Y1171575D01*
X55657060Y1261221D01*
X55659333Y1263401D01*
X55676319Y1279020D01*
X55676321Y1279023D01*
X55680093Y1282491D01*
X55682792Y1286844D01*
X55682796Y1286849D01*
X55691471Y1300842D01*
X55695486Y1306684D01*
X55702558Y1316001D01*
X55708530Y1323868D01*
X55710981Y1330058D01*
X55716979Y1341983D01*
X55720485Y1347638D01*
X55721900Y1352508D01*
X55746380Y1382738D01*
X55782721Y1396688D01*
X55790581Y1397100D01*
X55993990Y1397100D01*
X56054043Y1405006D01*
X56058595Y1406891D01*
X56058597Y1406892D01*
X56106952Y1426922D01*
X56127700Y1435516D01*
X56190950Y1484050D01*
X56239484Y1547300D01*
X56255299Y1585480D01*
X56268108Y1616403D01*
X56268109Y1616405D01*
X56269994Y1620957D01*
X56277900Y1681010D01*
X56277900Y2018989D01*
X56269994Y2079042D01*
X56268108Y2083597D01*
X56243909Y2142015D01*
X56239484Y2152699D01*
X56231755Y2162772D01*
X56412047Y2162772D01*
X56412827Y2158303D01*
X56417102Y2133805D01*
X56417677Y2129913D01*
X56421209Y2100731D01*
X56422814Y2096485D01*
X56423821Y2092384D01*
X56425033Y2088369D01*
X56425812Y2083905D01*
X56427633Y2079758D01*
X56427634Y2079753D01*
X56437627Y2056990D01*
X56439116Y2053342D01*
X56449508Y2025840D01*
X56452074Y2022107D01*
X56454017Y2018389D01*
X56456169Y2014750D01*
X56457992Y2010598D01*
X56460752Y2007001D01*
X56460755Y2006996D01*
X56475889Y1987272D01*
X56478199Y1984094D01*
X56494854Y1959861D01*
X56516792Y1940314D01*
X56517149Y1939996D01*
X56520296Y1937024D01*
X56830488Y1626832D01*
X56833982Y1623092D01*
X56852046Y1602384D01*
X56855761Y1599773D01*
X56876098Y1585480D01*
X56879326Y1583080D01*
X56879681Y1582801D01*
X56903558Y1550259D01*
X56907732Y1539214D01*
X56909334Y1534975D01*
X56911899Y1531243D01*
X56911900Y1531241D01*
X56952745Y1471812D01*
X56957810Y1464442D01*
X56961195Y1461426D01*
X56961196Y1461425D01*
X56975366Y1448800D01*
X57021712Y1407508D01*
X57025717Y1405388D01*
X57025719Y1405386D01*
X57089201Y1371774D01*
X57097349Y1367460D01*
X57180356Y1346610D01*
X57183908Y1346387D01*
X57184100Y1346374D01*
X57184113Y1346374D01*
X57185267Y1346301D01*
X57555244Y1346301D01*
X58268384Y1346300D01*
X58270658Y1346300D01*
X58308398Y1350867D01*
X58330464Y1353537D01*
X58330467Y1353538D01*
X58334965Y1354082D01*
X58361041Y1363935D01*
X58410790Y1382733D01*
X58410793Y1382734D01*
X58415026Y1384334D01*
X58423384Y1390078D01*
X58481823Y1430242D01*
X58481825Y1430243D01*
X58485559Y1432810D01*
X58496325Y1444893D01*
X58527578Y1479972D01*
X58542493Y1496712D01*
X58544963Y1501376D01*
X58580419Y1568341D01*
X58580419Y1568342D01*
X58582541Y1572349D01*
X58602000Y1649821D01*
X64196580Y1649821D01*
X64196580Y1542544D01*
X64196816Y1538334D01*
X64203362Y1479972D01*
X64205215Y1471812D01*
X64231219Y1397142D01*
X64234828Y1389608D01*
X64276730Y1322551D01*
X64281922Y1316001D01*
X64337638Y1259895D01*
X64344150Y1254659D01*
X64410911Y1212290D01*
X64418425Y1208625D01*
X64492917Y1182100D01*
X64501047Y1180193D01*
X64560639Y1173087D01*
X64565096Y1172822D01*
X64623578Y1172822D01*
X64631388Y1174914D01*
X64633480Y1182724D01*
X65014479Y1182724D01*
X65016571Y1174914D01*
X65024381Y1172822D01*
X65081658Y1172822D01*
X65085868Y1173058D01*
X65144230Y1179604D01*
X65152390Y1181457D01*
X65227060Y1207461D01*
X65234594Y1211070D01*
X65301651Y1252972D01*
X65308201Y1258164D01*
X65364307Y1313880D01*
X65369543Y1320392D01*
X65411912Y1387153D01*
X65415577Y1394667D01*
X65442102Y1469159D01*
X65444009Y1477289D01*
X65451115Y1536881D01*
X65451380Y1541338D01*
X65451380Y1600000D01*
X69297600Y1600000D01*
X69298243Y1595116D01*
X69306161Y1534975D01*
X69307904Y1521733D01*
X69338114Y1448800D01*
X69354902Y1426922D01*
X69376774Y1398418D01*
X69386171Y1386171D01*
X69390078Y1383173D01*
X69407438Y1369852D01*
X69448800Y1338114D01*
X69521733Y1307904D01*
X69526611Y1307262D01*
X69526614Y1307261D01*
X69595116Y1298243D01*
X69600000Y1297600D01*
X69604884Y1298243D01*
X69673386Y1307261D01*
X69673389Y1307262D01*
X69678267Y1307904D01*
X69751200Y1338114D01*
X69792562Y1369852D01*
X69809922Y1383173D01*
X69813829Y1386171D01*
X69823227Y1398418D01*
X69845098Y1426922D01*
X69861886Y1448800D01*
X69892096Y1521733D01*
X69893840Y1534975D01*
X69901757Y1595116D01*
X69902400Y1600000D01*
X69898998Y1625844D01*
X69892739Y1673386D01*
X69892738Y1673389D01*
X69892096Y1678267D01*
X69861886Y1751200D01*
X69813829Y1813829D01*
X69804604Y1820908D01*
X69769818Y1847600D01*
X69751200Y1861886D01*
X69678267Y1892096D01*
X69673389Y1892738D01*
X69673386Y1892739D01*
X69604884Y1901757D01*
X69600000Y1902400D01*
X69595116Y1901757D01*
X69526614Y1892739D01*
X69526611Y1892738D01*
X69521733Y1892096D01*
X69448800Y1861886D01*
X69430182Y1847600D01*
X69395397Y1820908D01*
X69386171Y1813829D01*
X69338114Y1751200D01*
X69307904Y1678267D01*
X69307262Y1673389D01*
X69307261Y1673386D01*
X69301002Y1625844D01*
X69297600Y1600000D01*
X65451380Y1600000D01*
X65451380Y1649820D01*
X65449288Y1657630D01*
X65441478Y1659722D01*
X65024382Y1659723D01*
X65016572Y1657631D01*
X65014480Y1649821D01*
X65014479Y1182724D01*
X64633480Y1182724D01*
X64633481Y1649820D01*
X64631389Y1657630D01*
X64623579Y1659722D01*
X64206482Y1659723D01*
X64198672Y1657631D01*
X64196580Y1649821D01*
X58602000Y1649821D01*
X58603391Y1655356D01*
X58603700Y1660267D01*
X58603700Y2020658D01*
X58598127Y2066708D01*
X58596463Y2080463D01*
X58596463Y2080465D01*
X58595918Y2084965D01*
X58592789Y2093247D01*
X58590238Y2100000D01*
X62997600Y2100000D01*
X62998243Y2095116D01*
X63006975Y2028791D01*
X63007904Y2021733D01*
X63038114Y1948800D01*
X63086171Y1886171D01*
X63090078Y1883173D01*
X63117486Y1862142D01*
X63148800Y1838114D01*
X63221733Y1807904D01*
X63226611Y1807262D01*
X63226614Y1807261D01*
X63295116Y1798243D01*
X63300000Y1797600D01*
X63304884Y1798243D01*
X63373386Y1807261D01*
X63373389Y1807262D01*
X63378267Y1807904D01*
X63451200Y1838114D01*
X63482514Y1862142D01*
X63509922Y1883173D01*
X63513829Y1886171D01*
X63561886Y1948800D01*
X63592096Y2021733D01*
X63593026Y2028791D01*
X63601757Y2095116D01*
X63602400Y2100000D01*
X63597465Y2137485D01*
X63594619Y2159106D01*
X64196580Y2159106D01*
X64196580Y2050624D01*
X64198672Y2042814D01*
X64206482Y2040722D01*
X64623578Y2040721D01*
X64631388Y2042813D01*
X64633480Y2050623D01*
X64633480Y2050624D01*
X65014479Y2050624D01*
X65016571Y2042814D01*
X65024381Y2040722D01*
X65441478Y2040721D01*
X65449288Y2042813D01*
X65451380Y2050623D01*
X65451380Y2157900D01*
X65451144Y2162110D01*
X65444598Y2220472D01*
X65442745Y2228632D01*
X65416741Y2303302D01*
X65413132Y2310836D01*
X65371230Y2377893D01*
X65366038Y2384443D01*
X65310322Y2440549D01*
X65303810Y2445785D01*
X65237049Y2488154D01*
X65229535Y2491819D01*
X65155043Y2518344D01*
X65146913Y2520251D01*
X65087321Y2527357D01*
X65082864Y2527622D01*
X65024382Y2527622D01*
X65016572Y2525530D01*
X65014480Y2517720D01*
X65014479Y2050624D01*
X64633480Y2050624D01*
X64633481Y2517720D01*
X64631389Y2525530D01*
X64623579Y2527622D01*
X64566302Y2527622D01*
X64562092Y2527386D01*
X64503730Y2520840D01*
X64495570Y2518987D01*
X64420900Y2492983D01*
X64413366Y2489374D01*
X64346309Y2447472D01*
X64339759Y2442280D01*
X64283653Y2386564D01*
X64278417Y2380052D01*
X64236048Y2313291D01*
X64232383Y2305777D01*
X64205858Y2231285D01*
X64203951Y2223155D01*
X64196845Y2163563D01*
X64196580Y2159106D01*
X63594619Y2159106D01*
X63592739Y2173386D01*
X63592738Y2173389D01*
X63592096Y2178267D01*
X63561886Y2251200D01*
X63532517Y2289474D01*
X63516827Y2309922D01*
X63513829Y2313829D01*
X63451200Y2361886D01*
X63378267Y2392096D01*
X63373389Y2392738D01*
X63373386Y2392739D01*
X63304884Y2401757D01*
X63300000Y2402400D01*
X63295116Y2401757D01*
X63226614Y2392739D01*
X63226611Y2392738D01*
X63221733Y2392096D01*
X63148800Y2361886D01*
X63086171Y2313829D01*
X63083173Y2309922D01*
X63067483Y2289474D01*
X63038114Y2251200D01*
X63007904Y2178267D01*
X63007262Y2173389D01*
X63007261Y2173386D01*
X63002535Y2137485D01*
X62997600Y2100000D01*
X58590238Y2100000D01*
X58567270Y2160781D01*
X58567269Y2160783D01*
X58565666Y2165025D01*
X58563097Y2168763D01*
X58519758Y2231822D01*
X58519757Y2231824D01*
X58517190Y2235558D01*
X58504740Y2246651D01*
X58482609Y2266368D01*
X58453288Y2292492D01*
X58449281Y2294613D01*
X58446773Y2296357D01*
X58421649Y2326090D01*
X58414757Y2364402D01*
X58427944Y2401026D01*
X58443916Y2417767D01*
X58461689Y2431404D01*
X58468595Y2438310D01*
X58511053Y2493642D01*
X58515935Y2502099D01*
X58530331Y2536853D01*
X58531386Y2544867D01*
X58531028Y2545142D01*
X58526715Y2546000D01*
X57558700Y2546001D01*
X57521100Y2556076D01*
X57493575Y2583601D01*
X57483500Y2621201D01*
X57483500Y2682007D01*
X58832371Y2682007D01*
X58832371Y2662377D01*
X58832692Y2657484D01*
X58839276Y2607470D01*
X58841805Y2598029D01*
X58867496Y2536007D01*
X58872378Y2527551D01*
X58913247Y2474289D01*
X58920152Y2467384D01*
X58973414Y2426515D01*
X58981870Y2421633D01*
X59043891Y2395942D01*
X59053332Y2393413D01*
X59103346Y2386829D01*
X59108239Y2386508D01*
X59157869Y2386508D01*
X59165679Y2388600D01*
X59167770Y2396409D01*
X59421770Y2396409D01*
X59423862Y2388600D01*
X59431672Y2386508D01*
X59481302Y2386508D01*
X59486195Y2386829D01*
X59536209Y2393413D01*
X59545650Y2395942D01*
X59607672Y2421633D01*
X59616128Y2426515D01*
X59669390Y2467384D01*
X59676295Y2474289D01*
X59717164Y2527551D01*
X59722046Y2536007D01*
X59747737Y2598028D01*
X59750266Y2607469D01*
X59756850Y2657483D01*
X59757171Y2662376D01*
X59757171Y2682006D01*
X59755079Y2689816D01*
X59747269Y2691908D01*
X59431672Y2691909D01*
X59423863Y2689817D01*
X59421771Y2682007D01*
X59421770Y2396409D01*
X59167770Y2396409D01*
X59167771Y2396410D01*
X59167772Y2682007D01*
X59165680Y2689816D01*
X59157870Y2691908D01*
X58842272Y2691909D01*
X58834463Y2689817D01*
X58832371Y2682007D01*
X57483500Y2682007D01*
X57483501Y2978800D01*
X57493576Y3016400D01*
X57521101Y3043925D01*
X57558701Y3054000D01*
X58524218Y3053999D01*
X58532795Y3056297D01*
X58542707Y3066209D01*
X58547302Y3074168D01*
X58581013Y3093631D01*
X58600082Y3096192D01*
X58657048Y3096490D01*
X58660333Y3097099D01*
X58660335Y3097099D01*
X58750988Y3113901D01*
X58789794Y3110847D01*
X58821874Y3088799D01*
X58838633Y3053664D01*
X58839249Y3030145D01*
X58832692Y2980333D01*
X58832371Y2975440D01*
X58832371Y2955810D01*
X58834463Y2948000D01*
X58842273Y2945908D01*
X59167768Y2945907D01*
X59167776Y2945908D01*
X59747269Y2945907D01*
X59755079Y2947999D01*
X59757171Y2955809D01*
X59757171Y2975439D01*
X59756850Y2980332D01*
X59750266Y3030346D01*
X59747737Y3039787D01*
X59722046Y3101809D01*
X59717164Y3110265D01*
X59676295Y3163527D01*
X59669391Y3170431D01*
X59619144Y3208986D01*
X59595447Y3239869D01*
X59590365Y3278462D01*
X59595024Y3289711D01*
X64145280Y3289711D01*
X64153131Y3217445D01*
X64154428Y3213590D01*
X64154429Y3213587D01*
X64159551Y3198367D01*
X64183699Y3126612D01*
X64233060Y3044462D01*
X64259290Y3016724D01*
X64296115Y2977782D01*
X64296118Y2977780D01*
X64298909Y2974828D01*
X64302270Y2972544D01*
X64302271Y2972543D01*
X64324932Y2957143D01*
X64378175Y2920959D01*
X64381950Y2919449D01*
X64381952Y2919448D01*
X64403362Y2910885D01*
X64467160Y2885368D01*
X64471179Y2884703D01*
X64471181Y2884702D01*
X64547746Y2872026D01*
X64547748Y2872026D01*
X64550791Y2871522D01*
X65084491Y2871522D01*
X65086514Y2871742D01*
X65086518Y2871742D01*
X65107844Y2874059D01*
X65156757Y2879373D01*
X65160612Y2880670D01*
X65160615Y2880671D01*
X65210131Y2897335D01*
X65247590Y2909941D01*
X65329740Y2959302D01*
X65337974Y2967088D01*
X65358097Y2986118D01*
X65373793Y3000960D01*
X65408033Y3019475D01*
X65425461Y3021522D01*
X65828926Y3021522D01*
X65866526Y3011447D01*
X65882100Y2999496D01*
X66490345Y2391250D01*
X66509809Y2357539D01*
X66511414Y2350034D01*
X66514777Y2329155D01*
X66515806Y2326141D01*
X66515807Y2326137D01*
X66551451Y2221733D01*
X66553359Y2216144D01*
X66574812Y2176715D01*
X66608912Y2114040D01*
X66608915Y2114035D01*
X66610430Y2111251D01*
X66612395Y2108758D01*
X66612396Y2108757D01*
X66681244Y2021424D01*
X66684359Y2017472D01*
X66686717Y2015345D01*
X66686720Y2015342D01*
X66770663Y1939627D01*
X66770668Y1939623D01*
X66773032Y1937491D01*
X66810967Y1913463D01*
X66871219Y1875299D01*
X66871222Y1875297D01*
X66873913Y1873593D01*
X66984118Y1827606D01*
X66987226Y1826891D01*
X66987227Y1826891D01*
X67069798Y1807904D01*
X67100496Y1800845D01*
X67219718Y1794075D01*
X67222884Y1794433D01*
X67222886Y1794433D01*
X67279600Y1800845D01*
X67338377Y1807490D01*
X67384716Y1820909D01*
X67450017Y1839819D01*
X67450020Y1839820D01*
X67453079Y1840706D01*
X67467309Y1847600D01*
X67557684Y1891386D01*
X67560545Y1892772D01*
X67638948Y1948800D01*
X67655115Y1960353D01*
X67655117Y1960355D01*
X67657702Y1962202D01*
X67659937Y1964457D01*
X67659941Y1964460D01*
X67739533Y2044749D01*
X67739535Y2044752D01*
X67741772Y2047008D01*
X67810351Y2144767D01*
X67849781Y2227994D01*
X67860112Y2249800D01*
X67860113Y2249803D01*
X67861478Y2252684D01*
X67862398Y2255965D01*
X67892831Y2364601D01*
X67893691Y2367671D01*
X67906070Y2486443D01*
X67906200Y2500000D01*
X67906051Y2501760D01*
X67896373Y2615821D01*
X67896372Y2615825D01*
X67896104Y2618987D01*
X67895276Y2622179D01*
X67866906Y2731484D01*
X67866904Y2731490D01*
X67866104Y2734572D01*
X67817058Y2843450D01*
X67802341Y2865311D01*
X69195203Y2865311D01*
X69195773Y2861542D01*
X69209435Y2771211D01*
X69210478Y2764312D01*
X69211791Y2760742D01*
X69211792Y2760740D01*
X69242883Y2676237D01*
X69245749Y2668447D01*
X69247753Y2665215D01*
X69247754Y2665213D01*
X69294258Y2590212D01*
X69299577Y2581633D01*
X69302187Y2578873D01*
X69302190Y2578869D01*
X69364534Y2512942D01*
X69369761Y2507415D01*
X69453436Y2448825D01*
X69547182Y2408257D01*
X69611011Y2394923D01*
X69644341Y2387960D01*
X69644343Y2387960D01*
X69647171Y2387369D01*
X69652303Y2387100D01*
X69724611Y2387100D01*
X69730734Y2387722D01*
X69797837Y2394538D01*
X69797839Y2394538D01*
X69801625Y2394923D01*
X69899098Y2425469D01*
X69902427Y2427314D01*
X69985111Y2473146D01*
X69985113Y2473147D01*
X69988439Y2474991D01*
X70065996Y2541466D01*
X70068635Y2544867D01*
X70097153Y2581633D01*
X70128604Y2622179D01*
X70130525Y2626082D01*
X70158067Y2682056D01*
X70173702Y2713832D01*
X70199451Y2812681D01*
X70203092Y2882150D01*
X70204598Y2910885D01*
X70204598Y2910889D01*
X70204797Y2914689D01*
X70201568Y2936041D01*
X70190092Y3011922D01*
X70190091Y3011926D01*
X70189522Y3015688D01*
X70181011Y3038820D01*
X70155566Y3107980D01*
X70155564Y3107983D01*
X70154251Y3111553D01*
X70151413Y3116131D01*
X70102427Y3195135D01*
X70100423Y3198367D01*
X70097813Y3201127D01*
X70097810Y3201131D01*
X70032855Y3269819D01*
X70032853Y3269821D01*
X70030239Y3272585D01*
X69946564Y3331175D01*
X69852818Y3371743D01*
X69783671Y3386188D01*
X69755659Y3392040D01*
X69755657Y3392040D01*
X69752829Y3392631D01*
X69747697Y3392900D01*
X69675389Y3392900D01*
X69673489Y3392707D01*
X69602163Y3385462D01*
X69602161Y3385462D01*
X69598375Y3385077D01*
X69500902Y3354531D01*
X69497575Y3352687D01*
X69497573Y3352686D01*
X69414889Y3306854D01*
X69414887Y3306853D01*
X69411561Y3305009D01*
X69334004Y3238534D01*
X69331670Y3235525D01*
X69331668Y3235523D01*
X69313688Y3212343D01*
X69271396Y3157821D01*
X69269717Y3154408D01*
X69269716Y3154407D01*
X69266479Y3147829D01*
X69226298Y3066168D01*
X69200549Y2967319D01*
X69198823Y2934377D01*
X69195509Y2871144D01*
X69195203Y2865311D01*
X67802341Y2865311D01*
X67750368Y2942508D01*
X67684151Y3011922D01*
X67670140Y3026609D01*
X67670139Y3026610D01*
X67667942Y3028913D01*
X67572136Y3100194D01*
X67465690Y3154315D01*
X67433407Y3164339D01*
X67354688Y3188782D01*
X67354682Y3188783D01*
X67351646Y3189726D01*
X67348487Y3190145D01*
X67345382Y3190827D01*
X67345615Y3191888D01*
X67314487Y3204815D01*
X67307145Y3211260D01*
X66524806Y3993598D01*
X66521442Y3997189D01*
X66512376Y4007527D01*
X66499850Y4021810D01*
X66464783Y4049454D01*
X66463273Y4050677D01*
X66431617Y4077005D01*
X66428973Y4079204D01*
X66425971Y4080885D01*
X66423127Y4082840D01*
X66423179Y4082915D01*
X66421970Y4083723D01*
X66421920Y4083646D01*
X66419027Y4085524D01*
X66416322Y4087657D01*
X66413274Y4089260D01*
X66413272Y4089262D01*
X66376828Y4108436D01*
X66375098Y4109375D01*
X66358004Y4118948D01*
X66336173Y4131174D01*
X66332903Y4132284D01*
X66329759Y4133684D01*
X66329797Y4133769D01*
X66328464Y4134341D01*
X66328429Y4134257D01*
X66325246Y4135575D01*
X66322194Y4137181D01*
X66285511Y4148571D01*
X66279524Y4150430D01*
X66277651Y4151039D01*
X66252115Y4159707D01*
X66235456Y4165362D01*
X66232043Y4165857D01*
X66228690Y4166662D01*
X66228711Y4166751D01*
X66227298Y4167071D01*
X66227279Y4166982D01*
X66223909Y4167698D01*
X66220616Y4168721D01*
X66176259Y4173971D01*
X66174342Y4174224D01*
X66160497Y4176231D01*
X66133605Y4180131D01*
X66133600Y4180131D01*
X66130195Y4180625D01*
X66126755Y4180490D01*
X66126751Y4180490D01*
X66088330Y4178980D01*
X66085377Y4178922D01*
X65425594Y4178922D01*
X65391529Y4188050D01*
X67959934Y4188050D01*
X67983745Y4099183D01*
X67985984Y4093032D01*
X68031452Y3995527D01*
X68034724Y3989859D01*
X68096430Y3901733D01*
X68100645Y3896710D01*
X68176710Y3820645D01*
X68181733Y3816430D01*
X68269859Y3754724D01*
X68275527Y3751452D01*
X68373032Y3705984D01*
X68379183Y3703745D01*
X68483107Y3675899D01*
X68489549Y3674763D01*
X68569781Y3667744D01*
X68573075Y3667600D01*
X69063098Y3667600D01*
X69070908Y3669692D01*
X69073000Y3677502D01*
X69326999Y3677502D01*
X69329091Y3669692D01*
X69336901Y3667600D01*
X69826925Y3667600D01*
X69830219Y3667744D01*
X69910451Y3674763D01*
X69916893Y3675899D01*
X70020817Y3703745D01*
X70026968Y3705984D01*
X70124473Y3751452D01*
X70130141Y3754724D01*
X70218267Y3816430D01*
X70223290Y3820645D01*
X70299355Y3896710D01*
X70303570Y3901733D01*
X70365276Y3989859D01*
X70368548Y3995527D01*
X70414016Y4093032D01*
X70416255Y4099183D01*
X70438831Y4183438D01*
X70438831Y4188050D01*
X72289934Y4188050D01*
X72313745Y4099183D01*
X72315984Y4093032D01*
X72361452Y3995527D01*
X72364724Y3989859D01*
X72426430Y3901733D01*
X72430645Y3896710D01*
X72506710Y3820645D01*
X72511733Y3816430D01*
X72599859Y3754724D01*
X72605527Y3751452D01*
X72703032Y3705984D01*
X72709183Y3703745D01*
X72813107Y3675899D01*
X72819549Y3674763D01*
X72899781Y3667744D01*
X72903075Y3667600D01*
X73243098Y3667600D01*
X73250908Y3669692D01*
X73253000Y3677502D01*
X73506999Y3677502D01*
X73509091Y3669692D01*
X73516901Y3667600D01*
X73856925Y3667600D01*
X73860219Y3667744D01*
X73940451Y3674763D01*
X73946893Y3675899D01*
X74050817Y3703745D01*
X74056968Y3705984D01*
X74154473Y3751452D01*
X74160141Y3754724D01*
X74248267Y3816430D01*
X74253290Y3820645D01*
X74329355Y3896710D01*
X74333570Y3901733D01*
X74395276Y3989859D01*
X74398548Y3995527D01*
X74444016Y4093032D01*
X74446255Y4099183D01*
X74468831Y4183438D01*
X74468831Y4191521D01*
X74466269Y4193000D01*
X73516902Y4193001D01*
X73509092Y4190909D01*
X73507000Y4183099D01*
X73506999Y3677502D01*
X73253000Y3677502D01*
X73253001Y4183098D01*
X73250909Y4190908D01*
X73243099Y4193000D01*
X72298509Y4193001D01*
X72290699Y4190909D01*
X72289934Y4188050D01*
X70438831Y4188050D01*
X70438831Y4191521D01*
X70436269Y4193000D01*
X69336902Y4193001D01*
X69329092Y4190909D01*
X69327000Y4183099D01*
X69326999Y3677502D01*
X69073000Y3677502D01*
X69073001Y4183098D01*
X69070909Y4190908D01*
X69063099Y4193000D01*
X67968509Y4193001D01*
X67960699Y4190909D01*
X67959934Y4188050D01*
X65391529Y4188050D01*
X65387994Y4188997D01*
X65370955Y4202453D01*
X65351845Y4222662D01*
X65351842Y4222664D01*
X65349051Y4225616D01*
X65330317Y4238348D01*
X65277066Y4274537D01*
X65269785Y4279485D01*
X65266010Y4280995D01*
X65266008Y4280996D01*
X65225764Y4297092D01*
X65180800Y4315076D01*
X65176781Y4315741D01*
X65176779Y4315742D01*
X65100214Y4328418D01*
X65100212Y4328418D01*
X65097169Y4328922D01*
X64563469Y4328922D01*
X64561446Y4328702D01*
X64561442Y4328702D01*
X64540116Y4326385D01*
X64491203Y4321071D01*
X64487348Y4319774D01*
X64487345Y4319773D01*
X64446380Y4305987D01*
X64400370Y4290503D01*
X64318220Y4241142D01*
X64304218Y4227901D01*
X64251540Y4178087D01*
X64251538Y4178084D01*
X64248586Y4175293D01*
X64246302Y4171932D01*
X64246301Y4171931D01*
X64228032Y4145048D01*
X64194717Y4096027D01*
X64193207Y4092252D01*
X64193206Y4092250D01*
X64180775Y4061170D01*
X64159126Y4007042D01*
X64150528Y3955107D01*
X64145927Y3927311D01*
X64145281Y3923411D01*
X64145280Y3289711D01*
X59595024Y3289711D01*
X59605261Y3314425D01*
X59625576Y3331504D01*
X59625164Y3332104D01*
X59636734Y3340056D01*
X59693717Y3379220D01*
X59749053Y3441327D01*
X59787977Y3514841D01*
X59790741Y3525844D01*
X59807402Y3592176D01*
X59807403Y3592180D01*
X59808241Y3595518D01*
X59808471Y3599174D01*
X59808471Y3939566D01*
X59801933Y3993598D01*
X59801523Y3996985D01*
X59801523Y3996987D01*
X59800978Y4001487D01*
X59797791Y4009922D01*
X59773179Y4075056D01*
X59773178Y4075058D01*
X59771575Y4079300D01*
X59724459Y4147854D01*
X59662352Y4203190D01*
X59619997Y4225616D01*
X59592844Y4239993D01*
X59592843Y4239993D01*
X59588838Y4242114D01*
X59584367Y4243237D01*
X59511503Y4261539D01*
X59511499Y4261540D01*
X59508161Y4262378D01*
X59504505Y4262608D01*
X59104113Y4262608D01*
X59078074Y4259457D01*
X59046692Y4255660D01*
X59046688Y4255659D01*
X59042192Y4255115D01*
X59037955Y4253514D01*
X58995474Y4237462D01*
X58968893Y4232608D01*
X58904649Y4232608D01*
X58874423Y4238950D01*
X58796422Y4273190D01*
X58796420Y4273191D01*
X58793353Y4274537D01*
X58688556Y4299697D01*
X58685216Y4299890D01*
X58685213Y4299890D01*
X58584307Y4305708D01*
X58580959Y4305901D01*
X58473964Y4292953D01*
X58414101Y4274537D01*
X58374151Y4262247D01*
X58374149Y4262246D01*
X58370953Y4261263D01*
X58363902Y4257624D01*
X58360961Y4256106D01*
X58322928Y4247815D01*
X58308152Y4249997D01*
X58297988Y4252550D01*
X58294644Y4253390D01*
X58291092Y4253613D01*
X58290900Y4253626D01*
X58290887Y4253626D01*
X58289733Y4253699D01*
X57919756Y4253699D01*
X57206616Y4253700D01*
X57204342Y4253700D01*
X57166692Y4249144D01*
X57144536Y4246463D01*
X57144533Y4246462D01*
X57140035Y4245918D01*
X57135798Y4244317D01*
X57064210Y4217267D01*
X57064207Y4217266D01*
X57059974Y4215666D01*
X57056242Y4213101D01*
X57056240Y4213100D01*
X56999305Y4173969D01*
X56989441Y4167190D01*
X56986425Y4163805D01*
X56986424Y4163804D01*
X56972852Y4148571D01*
X56932507Y4103288D01*
X56930387Y4099283D01*
X56930385Y4099281D01*
X56899662Y4041255D01*
X56875797Y4014470D01*
X56854651Y3999937D01*
X56851636Y3996553D01*
X56834800Y3977657D01*
X56831828Y3974509D01*
X56521622Y3664302D01*
X56517882Y3660808D01*
X56497174Y3642743D01*
X56487364Y3628784D01*
X56480269Y3618689D01*
X56477922Y3615530D01*
X56459783Y3592396D01*
X56457916Y3588262D01*
X56455732Y3584655D01*
X56453745Y3580950D01*
X56451140Y3577243D01*
X56449493Y3573020D01*
X56449493Y3573019D01*
X56440462Y3549856D01*
X56438937Y3546228D01*
X56428704Y3523565D01*
X56428702Y3523558D01*
X56426838Y3519430D01*
X56426011Y3514970D01*
X56424745Y3510927D01*
X56423704Y3506874D01*
X56422058Y3502652D01*
X56419347Y3482055D01*
X56418219Y3473490D01*
X56417607Y3469628D01*
X56412248Y3440711D01*
X56412509Y3436182D01*
X56412509Y3436181D01*
X56413965Y3410929D01*
X56414090Y3406601D01*
X56414091Y2195314D01*
X56413917Y2190198D01*
X56412609Y2171011D01*
X56412047Y2162772D01*
X56231755Y2162772D01*
X56190950Y2215949D01*
X56186762Y2219163D01*
X56131607Y2261485D01*
X56127700Y2264483D01*
X56088899Y2280555D01*
X56058597Y2293107D01*
X56058595Y2293108D01*
X56054043Y2294993D01*
X55993990Y2302899D01*
X55462500Y2302899D01*
X54933468Y2302900D01*
X54931010Y2302900D01*
X54870957Y2294994D01*
X54866405Y2293109D01*
X54866403Y2293108D01*
X54845680Y2284524D01*
X54797300Y2264484D01*
X54793393Y2261486D01*
X54741931Y2221997D01*
X54734050Y2215950D01*
X54685516Y2152700D01*
X54677223Y2132678D01*
X54657367Y2084742D01*
X54655006Y2079043D01*
X54647100Y2018990D01*
X54647100Y1681011D01*
X54655006Y1620958D01*
X54656891Y1616406D01*
X54656892Y1616404D01*
X54663687Y1600000D01*
X54685516Y1547301D01*
X54734050Y1484051D01*
X54797300Y1435517D01*
X54864711Y1407594D01*
X54895592Y1383898D01*
X54910489Y1347935D01*
X54905408Y1309341D01*
X54889107Y1284945D01*
X54725441Y1121278D01*
X54723167Y1119098D01*
X54702408Y1100009D01*
X54691036Y1081667D01*
X54687023Y1075829D01*
X54678654Y1064802D01*
X54675192Y1060241D01*
X54673970Y1058632D01*
X54673767Y1058786D01*
X54649097Y1033594D01*
X54639597Y1028847D01*
X54637461Y1027962D01*
X54632300Y1025824D01*
X54571121Y978879D01*
X54568123Y974972D01*
X54533669Y930071D01*
X54524176Y917700D01*
X54517178Y900804D01*
X54497596Y853528D01*
X54494666Y846455D01*
X54494023Y841573D01*
X54494023Y841572D01*
X54487471Y791803D01*
X54487100Y788988D01*
X54487100Y411012D01*
X54487420Y408584D01*
X54487420Y408579D01*
X54494023Y358428D01*
X54494666Y353545D01*
X54496550Y348996D01*
X54496551Y348993D01*
X54504922Y328784D01*
X54524176Y282300D01*
X54527175Y278392D01*
X54527176Y278390D01*
X54539840Y261886D01*
X54571121Y221121D01*
X54575028Y218123D01*
X54627829Y177607D01*
X54632300Y174176D01*
X54663058Y161436D01*
X54678475Y155050D01*
X54709358Y131353D01*
X54724255Y95390D01*
X54719174Y56797D01*
X54695477Y25914D01*
X54669667Y13074D01*
X54643649Y5908D01*
X54643645Y5906D01*
X54639719Y4825D01*
X54556527Y-39037D01*
X54534362Y-57768D01*
X54487805Y-97112D01*
X54487802Y-97115D01*
X54484696Y-99740D01*
X54427574Y-174451D01*
X54425853Y-178142D01*
X54389548Y-255998D01*
X54389546Y-256004D01*
X54387829Y-259686D01*
X54386942Y-263654D01*
X54386941Y-263657D01*
X54380382Y-293000D01*
X54367313Y-351466D01*
X54367237Y-373203D01*
X54367048Y-427580D01*
X54366985Y-445512D01*
X54367845Y-449488D01*
X54367845Y-449491D01*
X54373011Y-473386D01*
X54386859Y-537434D01*
X54388555Y-541139D01*
X54388556Y-541141D01*
X54412260Y-592914D01*
X54418752Y-631296D01*
X54405184Y-667781D01*
X54375191Y-692593D01*
X54336809Y-699085D01*
X54300324Y-685517D01*
X54289246Y-675886D01*
X54284988Y-671383D01*
X54284984Y-671380D01*
X54282191Y-668426D01*
X54258629Y-652413D01*
X54227766Y-631439D01*
X54204408Y-615565D01*
X54117088Y-580639D01*
X54024305Y-565279D01*
X54020238Y-565492D01*
X54020235Y-565492D01*
X53973248Y-567955D01*
X53930388Y-570201D01*
X53926461Y-571283D01*
X53926459Y-571283D01*
X53843647Y-594093D01*
X53839719Y-595175D01*
X53756527Y-639037D01*
X53756029Y-638092D01*
X53724715Y-648883D01*
X53686502Y-641463D01*
X53673764Y-632379D01*
X53662254Y-629295D01*
X53346658Y-629294D01*
X53338849Y-631386D01*
X53336757Y-639196D01*
X53336756Y-924794D01*
X53338848Y-932603D01*
X53346658Y-934695D01*
X53396288Y-934695D01*
X53401181Y-934374D01*
X53451195Y-927790D01*
X53460636Y-925261D01*
X53463187Y-924204D01*
X53501780Y-919123D01*
X53537744Y-934020D01*
X53561441Y-964902D01*
X53567165Y-993943D01*
X53567013Y-1037380D01*
X53556806Y-1074945D01*
X53529185Y-1102373D01*
X53491550Y-1112317D01*
X53463036Y-1106593D01*
X53450883Y-1101559D01*
X53441439Y-1099029D01*
X53391425Y-1092445D01*
X53386532Y-1092124D01*
X53336902Y-1092124D01*
X53329092Y-1094216D01*
X53327000Y-1102026D01*
X53326999Y-1576324D01*
X53316924Y-1613924D01*
X53289399Y-1641449D01*
X53251798Y-1651524D01*
X53148199Y-1651523D01*
X53110599Y-1641448D01*
X53083075Y-1613922D01*
X53073000Y-1576323D01*
X53073001Y-1102026D01*
X53070909Y-1094216D01*
X53063099Y-1092124D01*
X53013469Y-1092124D01*
X53008576Y-1092445D01*
X52958562Y-1099029D01*
X52949121Y-1101558D01*
X52887099Y-1127249D01*
X52878643Y-1132131D01*
X52825381Y-1173000D01*
X52818476Y-1179905D01*
X52777607Y-1233167D01*
X52772725Y-1241623D01*
X52747034Y-1303644D01*
X52744505Y-1313085D01*
X52737921Y-1363099D01*
X52737600Y-1367992D01*
X52737600Y-1443797D01*
X52727525Y-1481397D01*
X52700000Y-1508922D01*
X52662400Y-1518997D01*
X52624800Y-1508922D01*
X52607761Y-1495465D01*
X52584989Y-1471384D01*
X52584985Y-1471381D01*
X52582191Y-1468426D01*
X52576247Y-1464386D01*
X52528758Y-1432113D01*
X52504408Y-1415565D01*
X52417088Y-1380639D01*
X52324305Y-1365279D01*
X52320238Y-1365492D01*
X52320235Y-1365492D01*
X52273248Y-1367955D01*
X52230388Y-1370201D01*
X52226461Y-1371283D01*
X52226459Y-1371283D01*
X52143647Y-1394093D01*
X52139719Y-1395175D01*
X52056527Y-1439037D01*
X52045097Y-1448696D01*
X51987805Y-1497112D01*
X51987802Y-1497115D01*
X51984696Y-1499740D01*
X51964268Y-1526459D01*
X51960340Y-1531596D01*
X51929499Y-1555347D01*
X51890914Y-1560495D01*
X51854925Y-1545661D01*
X51831174Y-1514820D01*
X51825400Y-1485921D01*
X51825400Y-750000D01*
X51824737Y-735661D01*
X51809108Y-680732D01*
X51777742Y-639196D01*
X52747357Y-639196D01*
X52747357Y-658826D01*
X52747678Y-663719D01*
X52754262Y-713733D01*
X52756791Y-723174D01*
X52782482Y-785195D01*
X52787364Y-793651D01*
X52828233Y-846913D01*
X52835138Y-853818D01*
X52888400Y-894687D01*
X52896856Y-899569D01*
X52958877Y-925260D01*
X52968318Y-927789D01*
X53018332Y-934373D01*
X53023225Y-934694D01*
X53072855Y-934694D01*
X53080665Y-932602D01*
X53082757Y-924792D01*
X53082758Y-639196D01*
X53080666Y-631387D01*
X53072856Y-629295D01*
X52757258Y-629294D01*
X52749449Y-631386D01*
X52747357Y-639196D01*
X51777742Y-639196D01*
X51774692Y-635158D01*
X51765222Y-629294D01*
X51732061Y-608762D01*
X51726137Y-605094D01*
X51719290Y-603814D01*
X51673409Y-595237D01*
X51673406Y-595237D01*
X51670000Y-594600D01*
X50970000Y-594600D01*
X50962105Y-594965D01*
X50960006Y-595062D01*
X50960005Y-595062D01*
X50955661Y-595263D01*
X50900732Y-610892D01*
X50855158Y-645308D01*
X50851488Y-651234D01*
X50851488Y-651235D01*
X50843760Y-663717D01*
X50825094Y-693863D01*
X50823814Y-700710D01*
X50816332Y-740737D01*
X50814600Y-750000D01*
X50814600Y-3150000D01*
X50815263Y-3164339D01*
X50830892Y-3219268D01*
X50865308Y-3264842D01*
X50871234Y-3268512D01*
X50871235Y-3268512D01*
X50894335Y-3282815D01*
X50913863Y-3294906D01*
X50920710Y-3296186D01*
X50966591Y-3304763D01*
X50966594Y-3304763D01*
X50970000Y-3305400D01*
X51670000Y-3305400D01*
X51677895Y-3305035D01*
X51679994Y-3304938D01*
X51679995Y-3304938D01*
X51684339Y-3304737D01*
X51739268Y-3289108D01*
X51784842Y-3254692D01*
X51788687Y-3248483D01*
X51811238Y-3212061D01*
X51814906Y-3206137D01*
X51816186Y-3199290D01*
X51824763Y-3153409D01*
X51824763Y-3153406D01*
X51825400Y-3150000D01*
X51825400Y-2305100D01*
X51835475Y-2267500D01*
X51863000Y-2239975D01*
X51900600Y-2229900D01*
X52145251Y-2229900D01*
X52148399Y-2229966D01*
X52176575Y-2231147D01*
X52181564Y-2229977D01*
X52186672Y-2229494D01*
X52186753Y-2230350D01*
X52219679Y-2231381D01*
X52251125Y-2250200D01*
X52488507Y-2487583D01*
X52725448Y-2724524D01*
X52728942Y-2728264D01*
X52746715Y-2748638D01*
X52757681Y-2756345D01*
X52773021Y-2773110D01*
X52774176Y-2772224D01*
X52821121Y-2833403D01*
X52825028Y-2836401D01*
X52877459Y-2876633D01*
X52882300Y-2880348D01*
X52898010Y-2886855D01*
X52948993Y-2907973D01*
X52948996Y-2907974D01*
X52953545Y-2909858D01*
X52958427Y-2910501D01*
X52958428Y-2910501D01*
X53008579Y-2917104D01*
X53008584Y-2917104D01*
X53011012Y-2917424D01*
X53388987Y-2917424D01*
X53391415Y-2917104D01*
X53391420Y-2917104D01*
X53441571Y-2910501D01*
X53441572Y-2910501D01*
X53446454Y-2909858D01*
X53517700Y-2880348D01*
X53522542Y-2876633D01*
X53553387Y-2852964D01*
X53589350Y-2838067D01*
X53599166Y-2837424D01*
X54138153Y-2837424D01*
X54175753Y-2847499D01*
X54191327Y-2859450D01*
X54481876Y-3150000D01*
X54771876Y-3440000D01*
X54775370Y-3443740D01*
X54793143Y-3464114D01*
X54796002Y-3466123D01*
X54816937Y-3498365D01*
X54818973Y-3537238D01*
X54801300Y-3571921D01*
X54768652Y-3593120D01*
X54745417Y-3596800D01*
X44059544Y-3596800D01*
X44021944Y-3586725D01*
X43994419Y-3559200D01*
X43984344Y-3521600D01*
X43991501Y-3489582D01*
X43991843Y-3488856D01*
X43993962Y-3485384D01*
X43995851Y-3479900D01*
X44023254Y-3400313D01*
X44024580Y-3396462D01*
X44025460Y-3388861D01*
X44032375Y-3329092D01*
X44035389Y-3303040D01*
X44035400Y-3300000D01*
X44034870Y-3295116D01*
X44029481Y-3245512D01*
X44025243Y-3206504D01*
X44021417Y-3195135D01*
X43996545Y-3121229D01*
X43996543Y-3121224D01*
X43995246Y-3117371D01*
X43991751Y-3111553D01*
X43954286Y-3049202D01*
X43946809Y-3036758D01*
X43918450Y-3006769D01*
X43899936Y-2972527D01*
X43901023Y-2933616D01*
X43921420Y-2900461D01*
X43955662Y-2881947D01*
X43973089Y-2879900D01*
X44233623Y-2879900D01*
X44271223Y-2889975D01*
X44282124Y-2898616D01*
X44282607Y-2898052D01*
X44350916Y-2956600D01*
X44350919Y-2956602D01*
X44354013Y-2959254D01*
X44436896Y-3003696D01*
X44458425Y-3009788D01*
X44523472Y-3028195D01*
X44523476Y-3028196D01*
X44527389Y-3029303D01*
X44581307Y-3032506D01*
X44617207Y-3034639D01*
X44617210Y-3034639D01*
X44621269Y-3034880D01*
X44714157Y-3020168D01*
X44717946Y-3018683D01*
X44717950Y-3018682D01*
X44768192Y-2998992D01*
X44801719Y-2985853D01*
X44805106Y-2983585D01*
X44805109Y-2983584D01*
X44876484Y-2935803D01*
X44876486Y-2935802D01*
X44879870Y-2933536D01*
X44944963Y-2865657D01*
X44948076Y-2860558D01*
X44961804Y-2838067D01*
X44993962Y-2785384D01*
X45024580Y-2696462D01*
X45035389Y-2603040D01*
X45035400Y-2600000D01*
X45034711Y-2593653D01*
X45027901Y-2530968D01*
X45025243Y-2506504D01*
X45023862Y-2502400D01*
X44996545Y-2421229D01*
X44996543Y-2421224D01*
X44995246Y-2417371D01*
X44993151Y-2413884D01*
X44991440Y-2410182D01*
X44992307Y-2409782D01*
X44983060Y-2377517D01*
X44992483Y-2339749D01*
X45019528Y-2311751D01*
X45056948Y-2301027D01*
X45094716Y-2310450D01*
X45107184Y-2319117D01*
X45154013Y-2359254D01*
X45236896Y-2403696D01*
X45259817Y-2410182D01*
X45323472Y-2428195D01*
X45323476Y-2428196D01*
X45327389Y-2429303D01*
X45381307Y-2432506D01*
X45417207Y-2434639D01*
X45417210Y-2434639D01*
X45421269Y-2434880D01*
X45514157Y-2420168D01*
X45517946Y-2418683D01*
X45517950Y-2418682D01*
X45567141Y-2399404D01*
X45601719Y-2385853D01*
X45605106Y-2383585D01*
X45605109Y-2383584D01*
X45676484Y-2335803D01*
X45676486Y-2335802D01*
X45679870Y-2333536D01*
X45744963Y-2265657D01*
X45747274Y-2261872D01*
X45764358Y-2233883D01*
X45793962Y-2185384D01*
X45824580Y-2096462D01*
X45827749Y-2069077D01*
X45835149Y-2005113D01*
X45835389Y-2003040D01*
X45835400Y-2000000D01*
X45825243Y-1906504D01*
X45822265Y-1897656D01*
X45796545Y-1821229D01*
X45796543Y-1821224D01*
X45795246Y-1817371D01*
X45792368Y-1812580D01*
X45757830Y-1755100D01*
X45746809Y-1736758D01*
X45711265Y-1699171D01*
X45684985Y-1671380D01*
X45684982Y-1671378D01*
X45682191Y-1668426D01*
X45676503Y-1664560D01*
X45618262Y-1624980D01*
X45604408Y-1615565D01*
X45517088Y-1580639D01*
X45493264Y-1576695D01*
X45457814Y-1560615D01*
X45435154Y-1528964D01*
X45431356Y-1490223D01*
X45447436Y-1454773D01*
X45479087Y-1432113D01*
X45505546Y-1427305D01*
X46392977Y-1427305D01*
X46430577Y-1437380D01*
X46458102Y-1464905D01*
X46468177Y-1502505D01*
X46458102Y-1540105D01*
X46430577Y-1567630D01*
X46412946Y-1575005D01*
X46343650Y-1594092D01*
X46343648Y-1594093D01*
X46339719Y-1595175D01*
X46256527Y-1639037D01*
X46240162Y-1652867D01*
X46187805Y-1697112D01*
X46187802Y-1697115D01*
X46184696Y-1699740D01*
X46127574Y-1774451D01*
X46125853Y-1778142D01*
X46089548Y-1855998D01*
X46089546Y-1856004D01*
X46087829Y-1859686D01*
X46086942Y-1863654D01*
X46086941Y-1863657D01*
X46078227Y-1902641D01*
X46067313Y-1951466D01*
X46067268Y-1964454D01*
X46067007Y-2039324D01*
X46066985Y-2045512D01*
X46067845Y-2049488D01*
X46067845Y-2049491D01*
X46075319Y-2084057D01*
X46086859Y-2137434D01*
X46126009Y-2222943D01*
X46128459Y-2226194D01*
X46128460Y-2226196D01*
X46158196Y-2265657D01*
X46182607Y-2298052D01*
X46185695Y-2300698D01*
X46185698Y-2300702D01*
X46250916Y-2356600D01*
X46250919Y-2356602D01*
X46254013Y-2359254D01*
X46336896Y-2403696D01*
X46359817Y-2410182D01*
X46423472Y-2428195D01*
X46423476Y-2428196D01*
X46427389Y-2429303D01*
X46481307Y-2432506D01*
X46517207Y-2434639D01*
X46517210Y-2434639D01*
X46521269Y-2434880D01*
X46614157Y-2420168D01*
X46617946Y-2418683D01*
X46617950Y-2418682D01*
X46667141Y-2399404D01*
X46701719Y-2385853D01*
X46705106Y-2383585D01*
X46705109Y-2383584D01*
X46776484Y-2335803D01*
X46776486Y-2335802D01*
X46779870Y-2333536D01*
X46825799Y-2285641D01*
X46842148Y-2268593D01*
X46842150Y-2268590D01*
X46844963Y-2265657D01*
X46847085Y-2262181D01*
X46849365Y-2259220D01*
X46880287Y-2235575D01*
X46908947Y-2229900D01*
X48199400Y-2229900D01*
X48237000Y-2239975D01*
X48264525Y-2267500D01*
X48274600Y-2305100D01*
X48274600Y-3150000D01*
X48275263Y-3164339D01*
X48290892Y-3219268D01*
X48325308Y-3264842D01*
X48331234Y-3268512D01*
X48331235Y-3268512D01*
X48354335Y-3282815D01*
X48373863Y-3294906D01*
X48380710Y-3296186D01*
X48426591Y-3304763D01*
X48426594Y-3304763D01*
X48430000Y-3305400D01*
X49130000Y-3305400D01*
X49137895Y-3305035D01*
X49139994Y-3304938D01*
X49139995Y-3304938D01*
X49144339Y-3304737D01*
X49199268Y-3289108D01*
X49244842Y-3254692D01*
X49248687Y-3248483D01*
X49271238Y-3212061D01*
X49274906Y-3206137D01*
X49276186Y-3199290D01*
X49284763Y-3153409D01*
X49284763Y-3153406D01*
X49285400Y-3150000D01*
X49285400Y-793912D01*
X49295475Y-756312D01*
X49323000Y-728787D01*
X49360600Y-718712D01*
X49469400Y-718712D01*
X49507000Y-728787D01*
X49534525Y-756312D01*
X49544600Y-793912D01*
X49544600Y-3150000D01*
X49545263Y-3164339D01*
X49560892Y-3219268D01*
X49595308Y-3264842D01*
X49601234Y-3268512D01*
X49601235Y-3268512D01*
X49624335Y-3282815D01*
X49643863Y-3294906D01*
X49650710Y-3296186D01*
X49696591Y-3304763D01*
X49696594Y-3304763D01*
X49700000Y-3305400D01*
X50400000Y-3305400D01*
X50407895Y-3305035D01*
X50409994Y-3304938D01*
X50409995Y-3304938D01*
X50414339Y-3304737D01*
X50469268Y-3289108D01*
X50514842Y-3254692D01*
X50518687Y-3248483D01*
X50541238Y-3212061D01*
X50544906Y-3206137D01*
X50546186Y-3199290D01*
X50554763Y-3153409D01*
X50554763Y-3153406D01*
X50555400Y-3150000D01*
X50555400Y-750000D01*
X50554737Y-735661D01*
X50539108Y-680732D01*
X50504692Y-635158D01*
X50495222Y-629294D01*
X50462061Y-608762D01*
X50456137Y-605094D01*
X50449290Y-603814D01*
X50403409Y-595237D01*
X50403406Y-595237D01*
X50400000Y-594600D01*
X50321587Y-594600D01*
X50283987Y-584525D01*
X50268413Y-572574D01*
X50260316Y-564477D01*
X50255049Y-558628D01*
X50253651Y-556902D01*
X50243316Y-544139D01*
X50236921Y-539594D01*
X50227317Y-531478D01*
X49940100Y-244263D01*
X49937920Y-241989D01*
X49930147Y-233536D01*
X49918821Y-221219D01*
X49900458Y-209833D01*
X49894624Y-205823D01*
X49881525Y-195880D01*
X49881523Y-195879D01*
X49877443Y-192782D01*
X49871264Y-190335D01*
X49859324Y-184330D01*
X49853674Y-180827D01*
X49832918Y-174797D01*
X49826246Y-172512D01*
X49811858Y-166815D01*
X49810939Y-166451D01*
X49810938Y-166451D01*
X49806173Y-164564D01*
X49799568Y-163870D01*
X49786448Y-161295D01*
X49780066Y-159441D01*
X49776139Y-159153D01*
X49776135Y-159152D01*
X49774226Y-159012D01*
X49774220Y-159012D01*
X49772861Y-158912D01*
X49756337Y-158912D01*
X49748476Y-158500D01*
X49729942Y-156552D01*
X49722213Y-157859D01*
X49709674Y-158912D01*
X48315928Y-158912D01*
X48278328Y-148837D01*
X48250803Y-121312D01*
X48240728Y-83712D01*
X48250803Y-46112D01*
X48256266Y-37935D01*
X48258889Y-34517D01*
X48258890Y-34516D01*
X48261886Y-30611D01*
X48292096Y42322D01*
X48293262Y51174D01*
X48301757Y115705D01*
X48302400Y120589D01*
X48300184Y137420D01*
X48292739Y193975D01*
X48292738Y193978D01*
X48292096Y198856D01*
X48261886Y271789D01*
X48213829Y334418D01*
X48151200Y382475D01*
X48078267Y412685D01*
X48073389Y413327D01*
X48073386Y413328D01*
X48004884Y422346D01*
X48000000Y422989D01*
X47995116Y422346D01*
X47926614Y413328D01*
X47926611Y413327D01*
X47921733Y412685D01*
X47848800Y382475D01*
X47786171Y334418D01*
X47738114Y271789D01*
X47707904Y198856D01*
X47707262Y193978D01*
X47707261Y193975D01*
X47699816Y137420D01*
X47697600Y120589D01*
X47698243Y115705D01*
X47706739Y51174D01*
X47707904Y42322D01*
X47738114Y-30611D01*
X47767066Y-68341D01*
X47769300Y-71253D01*
X47784197Y-107216D01*
X47779116Y-145809D01*
X47755419Y-176692D01*
X47745866Y-182931D01*
X47741069Y-185568D01*
X47734717Y-188680D01*
X47714897Y-197257D01*
X47709736Y-201437D01*
X47698639Y-208894D01*
X47692813Y-212096D01*
X47689830Y-214672D01*
X47689825Y-214675D01*
X47688441Y-215871D01*
X47687345Y-216817D01*
X47675670Y-228492D01*
X47669822Y-233758D01*
X47655327Y-245496D01*
X47652358Y-249674D01*
X47652357Y-249675D01*
X47650781Y-251892D01*
X47642657Y-261505D01*
X47342475Y-561688D01*
X47058684Y-845479D01*
X47024973Y-864943D01*
X47005510Y-867505D01*
X46697288Y-867505D01*
X46659688Y-857430D01*
X46632163Y-829905D01*
X46622088Y-792305D01*
X46632163Y-754705D01*
X46657488Y-728845D01*
X46660155Y-727691D01*
X46665321Y-723508D01*
X46676417Y-716052D01*
X46682238Y-712852D01*
X46687706Y-708131D01*
X46699377Y-696460D01*
X46705226Y-691193D01*
X46706438Y-690212D01*
X46719725Y-679452D01*
X46722697Y-675271D01*
X46724275Y-673051D01*
X46732397Y-663441D01*
X47040442Y-355396D01*
X47074153Y-335932D01*
X47098075Y-333502D01*
X47104705Y-333896D01*
X47117207Y-334639D01*
X47117210Y-334639D01*
X47121269Y-334880D01*
X47214157Y-320168D01*
X47217946Y-318683D01*
X47217950Y-318682D01*
X47283479Y-293001D01*
X47301719Y-285853D01*
X47305106Y-283585D01*
X47305109Y-283584D01*
X47376484Y-235803D01*
X47376486Y-235802D01*
X47379870Y-233536D01*
X47444963Y-165657D01*
X47449842Y-157665D01*
X47466010Y-131177D01*
X47493962Y-85384D01*
X47524580Y3538D01*
X47535389Y96960D01*
X47535400Y100000D01*
X47525243Y193496D01*
X47521909Y203404D01*
X47496545Y278771D01*
X47496543Y278776D01*
X47495246Y282629D01*
X47492708Y286854D01*
X47455175Y349319D01*
X47446809Y363242D01*
X47401835Y410801D01*
X47384985Y428620D01*
X47384982Y428622D01*
X47382191Y431574D01*
X47355004Y450051D01*
X52062548Y450051D01*
X52063408Y446075D01*
X52063408Y446072D01*
X52067181Y428620D01*
X52082422Y358129D01*
X52121572Y272620D01*
X52124022Y269369D01*
X52124023Y269367D01*
X52165874Y213829D01*
X52178170Y197511D01*
X52181258Y194865D01*
X52181261Y194861D01*
X52246479Y138963D01*
X52246482Y138961D01*
X52249576Y136309D01*
X52332459Y91867D01*
X52364448Y82815D01*
X52419035Y67368D01*
X52419039Y67367D01*
X52422952Y66260D01*
X52476870Y63057D01*
X52512770Y60924D01*
X52512773Y60924D01*
X52516832Y60683D01*
X52609720Y75395D01*
X52613509Y76880D01*
X52613513Y76881D01*
X52664748Y96960D01*
X52671536Y99620D01*
X52698974Y104805D01*
X52810592Y104805D01*
X52848192Y94730D01*
X52856371Y89265D01*
X52886666Y66019D01*
X52892057Y61882D01*
X52927496Y47203D01*
X52928194Y46914D01*
X52959077Y23218D01*
X52973974Y-12745D01*
X52968894Y-51338D01*
X52945198Y-82221D01*
X52928197Y-92037D01*
X52896861Y-105017D01*
X52888401Y-109902D01*
X52835139Y-150771D01*
X52828234Y-157676D01*
X52787365Y-210938D01*
X52782483Y-219394D01*
X52756792Y-281415D01*
X52754263Y-290856D01*
X52747679Y-340870D01*
X52747358Y-345763D01*
X52747358Y-365393D01*
X52749450Y-373203D01*
X52757260Y-375295D01*
X53082754Y-375296D01*
X53082762Y-375295D01*
X53662255Y-375296D01*
X53670065Y-373204D01*
X53672157Y-365394D01*
X53672157Y-345764D01*
X53671836Y-340871D01*
X53665252Y-290857D01*
X53662723Y-281416D01*
X53637032Y-219395D01*
X53632150Y-210939D01*
X53591281Y-157677D01*
X53584376Y-150772D01*
X53531114Y-109903D01*
X53522658Y-105021D01*
X53491318Y-92039D01*
X53460436Y-68341D01*
X53445539Y-32378D01*
X53450620Y6215D01*
X53474318Y37097D01*
X53491319Y46913D01*
X53527456Y61881D01*
X53533432Y66466D01*
X53584728Y105828D01*
X53588635Y108826D01*
X53610576Y137420D01*
X53632580Y166095D01*
X53632581Y166097D01*
X53635580Y170005D01*
X53655657Y218476D01*
X53663205Y236698D01*
X53663206Y236701D01*
X53665090Y241250D01*
X53667924Y262772D01*
X53672336Y296284D01*
X53672336Y296289D01*
X53672656Y298717D01*
X53672657Y616692D01*
X53672209Y620100D01*
X53665734Y669276D01*
X53665734Y669277D01*
X53665091Y674159D01*
X53662369Y680732D01*
X53643204Y727000D01*
X53635581Y745404D01*
X53632055Y750000D01*
X53591634Y802676D01*
X53588636Y806583D01*
X53556275Y831415D01*
X53531367Y850528D01*
X53531365Y850529D01*
X53527457Y853528D01*
X53496221Y866466D01*
X53460764Y881153D01*
X53460761Y881154D01*
X53456212Y883038D01*
X53451330Y883681D01*
X53451329Y883681D01*
X53401178Y890284D01*
X53401173Y890284D01*
X53398745Y890604D01*
X53209758Y890604D01*
X53023227Y890605D01*
X53020770Y890605D01*
X53018342Y890285D01*
X53018337Y890285D01*
X52968186Y883682D01*
X52968185Y883682D01*
X52963303Y883039D01*
X52958754Y881155D01*
X52958751Y881154D01*
X52941007Y873804D01*
X52892058Y853529D01*
X52888149Y850530D01*
X52888148Y850529D01*
X52863239Y831415D01*
X52827276Y816518D01*
X52788683Y821599D01*
X52775191Y828879D01*
X52703340Y877710D01*
X52703329Y877716D01*
X52699971Y879998D01*
X52612651Y914924D01*
X52519868Y930284D01*
X52515801Y930071D01*
X52515798Y930071D01*
X52468811Y927608D01*
X52425951Y925362D01*
X52422024Y924280D01*
X52422022Y924280D01*
X52366882Y909092D01*
X52335282Y900388D01*
X52252090Y856526D01*
X52238999Y845463D01*
X52183368Y798451D01*
X52183365Y798448D01*
X52180259Y795823D01*
X52123137Y721112D01*
X52121416Y717421D01*
X52085111Y639565D01*
X52085109Y639559D01*
X52083392Y635877D01*
X52082505Y631909D01*
X52082504Y631906D01*
X52076341Y604335D01*
X52062876Y544097D01*
X52062784Y517740D01*
X52062594Y463098D01*
X52062548Y450051D01*
X47355004Y450051D01*
X47342000Y458888D01*
X47304742Y484208D01*
X47279307Y513675D01*
X47272013Y551912D01*
X47284814Y588674D01*
X47314281Y614109D01*
X47329838Y619618D01*
X47347595Y623783D01*
X47354561Y625074D01*
X47363953Y626361D01*
X47375943Y628003D01*
X47380653Y630041D01*
X47382050Y630645D01*
X47394735Y634840D01*
X47396213Y635187D01*
X47396216Y635188D01*
X47401203Y636358D01*
X47420128Y646761D01*
X47426451Y649859D01*
X47446291Y658445D01*
X47451457Y662628D01*
X47462553Y670084D01*
X47463668Y670697D01*
X47468374Y673284D01*
X47473842Y678005D01*
X47485513Y689676D01*
X47491362Y694943D01*
X47501877Y703458D01*
X47505861Y706684D01*
X47510412Y713087D01*
X47518531Y722694D01*
X48146226Y1350388D01*
X48179937Y1369852D01*
X48218863Y1369852D01*
X48252574Y1350388D01*
X48272038Y1316677D01*
X48274600Y1297214D01*
X48274600Y750000D01*
X48275263Y735661D01*
X48290892Y680732D01*
X48325308Y635158D01*
X48331234Y631488D01*
X48331235Y631488D01*
X48343679Y623783D01*
X48373863Y605094D01*
X48380710Y603814D01*
X48426591Y595237D01*
X48426594Y595237D01*
X48430000Y594600D01*
X49130000Y594600D01*
X49137895Y594965D01*
X49139994Y595062D01*
X49139995Y595062D01*
X49144339Y595263D01*
X49199268Y610892D01*
X49244842Y645308D01*
X49274906Y693863D01*
X49280605Y724347D01*
X49284763Y746591D01*
X49284763Y746594D01*
X49285400Y750000D01*
X49285400Y3144900D01*
X49295475Y3182500D01*
X49323000Y3210025D01*
X49360600Y3220100D01*
X49469400Y3220100D01*
X49507000Y3210025D01*
X49534525Y3182500D01*
X49544600Y3144900D01*
X49544600Y750000D01*
X49545263Y735661D01*
X49560892Y680732D01*
X49595308Y635158D01*
X49601234Y631488D01*
X49601235Y631488D01*
X49613679Y623783D01*
X49643863Y605094D01*
X49650710Y603814D01*
X49696591Y595237D01*
X49696594Y595237D01*
X49700000Y594600D01*
X50400000Y594600D01*
X50407895Y594965D01*
X50409994Y595062D01*
X50409995Y595062D01*
X50414339Y595263D01*
X50469268Y610892D01*
X50514842Y645308D01*
X50544906Y693863D01*
X50550605Y724347D01*
X50554763Y746591D01*
X50554763Y746594D01*
X50555400Y750000D01*
X50555400Y1813099D01*
X50815100Y1813099D01*
X50815100Y750862D01*
X50815140Y749145D01*
X50815560Y740045D01*
X50816950Y731529D01*
X50829432Y687657D01*
X50835538Y675395D01*
X50861444Y641091D01*
X50871572Y631858D01*
X50908121Y609228D01*
X50920891Y604280D01*
X50966591Y595737D01*
X50973471Y595100D01*
X51183098Y595100D01*
X51190908Y597192D01*
X51193000Y605002D01*
X51446999Y605002D01*
X51449091Y597192D01*
X51456901Y595100D01*
X51669138Y595100D01*
X51670855Y595140D01*
X51679955Y595560D01*
X51688471Y596950D01*
X51732343Y609432D01*
X51744605Y615538D01*
X51778909Y641444D01*
X51788142Y651572D01*
X51810772Y688121D01*
X51815720Y700891D01*
X51824263Y746591D01*
X51824900Y753471D01*
X51824900Y1688099D01*
X52872600Y1688099D01*
X52872600Y1517322D01*
X52872836Y1513112D01*
X52879382Y1454750D01*
X52881235Y1446590D01*
X52907239Y1371920D01*
X52910848Y1364386D01*
X52952750Y1297329D01*
X52957942Y1290779D01*
X53013658Y1234673D01*
X53020170Y1229437D01*
X53086931Y1187068D01*
X53094445Y1183403D01*
X53168937Y1156878D01*
X53177067Y1154971D01*
X53236659Y1147865D01*
X53241116Y1147600D01*
X53363098Y1147600D01*
X53370908Y1149692D01*
X53373000Y1157502D01*
X53626999Y1157502D01*
X53629091Y1149692D01*
X53636901Y1147600D01*
X53757678Y1147600D01*
X53761888Y1147836D01*
X53820250Y1154382D01*
X53828410Y1156235D01*
X53903080Y1182239D01*
X53910614Y1185848D01*
X53977671Y1227750D01*
X53984221Y1232942D01*
X54040327Y1288658D01*
X54045563Y1295170D01*
X54087932Y1361931D01*
X54091597Y1369445D01*
X54118122Y1443937D01*
X54120029Y1452067D01*
X54127135Y1511659D01*
X54127400Y1516116D01*
X54127400Y1688098D01*
X54125308Y1695908D01*
X54117498Y1698000D01*
X53636902Y1698001D01*
X53629092Y1695909D01*
X53627000Y1688099D01*
X53626999Y1157502D01*
X53373000Y1157502D01*
X53373001Y1688098D01*
X53370909Y1695908D01*
X53363099Y1698000D01*
X52882502Y1698001D01*
X52874692Y1695909D01*
X52872600Y1688099D01*
X51824900Y1688099D01*
X51824900Y1813098D01*
X51822808Y1820908D01*
X51814998Y1823000D01*
X51456901Y1823001D01*
X51449092Y1820909D01*
X51447000Y1813099D01*
X51446999Y605002D01*
X51193000Y605002D01*
X51193001Y1813098D01*
X51190909Y1820908D01*
X51183099Y1823000D01*
X50825001Y1823001D01*
X50817192Y1820909D01*
X50815100Y1813099D01*
X50555400Y1813099D01*
X50555400Y3146529D01*
X50815100Y3146529D01*
X50815100Y2086902D01*
X50817192Y2079092D01*
X50825002Y2077000D01*
X51183099Y2076999D01*
X51190908Y2079091D01*
X51193000Y2086901D01*
X51193000Y2086902D01*
X51446999Y2086902D01*
X51449091Y2079092D01*
X51456901Y2077000D01*
X51814999Y2076999D01*
X51822808Y2079091D01*
X51824900Y2086901D01*
X51824900Y2133884D01*
X52872600Y2133884D01*
X52872600Y1961902D01*
X52874692Y1954092D01*
X52882502Y1952000D01*
X53363098Y1951999D01*
X53370908Y1954091D01*
X53373000Y1961901D01*
X53373000Y1961902D01*
X53626999Y1961902D01*
X53629091Y1954092D01*
X53636901Y1952000D01*
X54117498Y1951999D01*
X54125308Y1954091D01*
X54127400Y1961901D01*
X54127400Y2132678D01*
X54127164Y2136888D01*
X54120618Y2195250D01*
X54118765Y2203410D01*
X54092761Y2278080D01*
X54089152Y2285614D01*
X54047250Y2352671D01*
X54042058Y2359221D01*
X53986342Y2415327D01*
X53979830Y2420563D01*
X53913069Y2462932D01*
X53905555Y2466597D01*
X53831063Y2493122D01*
X53822933Y2495029D01*
X53763341Y2502135D01*
X53758884Y2502400D01*
X53636902Y2502400D01*
X53629092Y2500308D01*
X53627000Y2492498D01*
X53626999Y1961902D01*
X53373000Y1961902D01*
X53373001Y2492498D01*
X53370909Y2500308D01*
X53363099Y2502400D01*
X53242322Y2502400D01*
X53238112Y2502164D01*
X53179750Y2495618D01*
X53171590Y2493765D01*
X53096920Y2467761D01*
X53089386Y2464152D01*
X53022329Y2422250D01*
X53015779Y2417058D01*
X52959673Y2361342D01*
X52954437Y2354830D01*
X52912068Y2288069D01*
X52908403Y2280555D01*
X52881878Y2206063D01*
X52879971Y2197933D01*
X52872865Y2138341D01*
X52872600Y2133884D01*
X51824900Y2133884D01*
X51824900Y3149137D01*
X51824860Y3150855D01*
X51824440Y3159955D01*
X51823050Y3168471D01*
X51810568Y3212343D01*
X51804462Y3224605D01*
X51778556Y3258909D01*
X51768428Y3268142D01*
X51731879Y3290772D01*
X51719109Y3295720D01*
X51673409Y3304263D01*
X51666529Y3304900D01*
X51456902Y3304900D01*
X51449092Y3302808D01*
X51447000Y3294998D01*
X51446999Y2086902D01*
X51193000Y2086902D01*
X51193001Y3294998D01*
X51190909Y3302808D01*
X51183099Y3304900D01*
X50970863Y3304900D01*
X50969145Y3304860D01*
X50960045Y3304440D01*
X50951529Y3303050D01*
X50907657Y3290568D01*
X50895395Y3284462D01*
X50861091Y3258556D01*
X50851858Y3248428D01*
X50829228Y3211879D01*
X50824280Y3199109D01*
X50815737Y3153409D01*
X50815100Y3146529D01*
X50555400Y3146529D01*
X50555400Y3150000D01*
X50554737Y3164339D01*
X50539108Y3219268D01*
X50504692Y3264842D01*
X50494261Y3271301D01*
X50462061Y3291238D01*
X50456137Y3294906D01*
X50449290Y3296186D01*
X50403409Y3304763D01*
X50403406Y3304763D01*
X50400000Y3305400D01*
X50382162Y3305400D01*
X50344562Y3315475D01*
X50317037Y3343000D01*
X50314143Y3349068D01*
X50313642Y3351204D01*
X50303245Y3370116D01*
X50300137Y3376459D01*
X50291555Y3396291D01*
X50287371Y3401458D01*
X50279915Y3412554D01*
X50278613Y3414923D01*
X50278612Y3414924D01*
X50276715Y3418375D01*
X50271995Y3423844D01*
X50260316Y3435523D01*
X50255049Y3441372D01*
X50253412Y3443393D01*
X50243316Y3455861D01*
X50236921Y3460406D01*
X50227317Y3468522D01*
X50001288Y3694549D01*
X49999108Y3696823D01*
X49998920Y3697027D01*
X49980009Y3717593D01*
X49961646Y3728979D01*
X49955812Y3732989D01*
X49955602Y3733149D01*
X49938631Y3746030D01*
X49932452Y3748477D01*
X49920512Y3754482D01*
X49914862Y3757985D01*
X49894106Y3764015D01*
X49887434Y3766300D01*
X49867361Y3774248D01*
X49860756Y3774942D01*
X49847636Y3777517D01*
X49841254Y3779371D01*
X49837327Y3779659D01*
X49837323Y3779660D01*
X49835414Y3779800D01*
X49835408Y3779800D01*
X49834049Y3779900D01*
X49817525Y3779900D01*
X49809664Y3780312D01*
X49791130Y3782260D01*
X49783401Y3780953D01*
X49770862Y3779900D01*
X48254733Y3779900D01*
X48251585Y3779966D01*
X48251242Y3779980D01*
X48223423Y3781146D01*
X48202416Y3776219D01*
X48195455Y3774928D01*
X48174057Y3771997D01*
X48169353Y3769962D01*
X48169348Y3769960D01*
X48167953Y3769356D01*
X48155264Y3765159D01*
X48148796Y3763642D01*
X48129886Y3753246D01*
X48123541Y3750137D01*
X48103709Y3741555D01*
X48098542Y3737371D01*
X48087448Y3729916D01*
X48081625Y3726715D01*
X48078645Y3724143D01*
X48078642Y3724141D01*
X48077201Y3722897D01*
X48076156Y3721995D01*
X48064477Y3710316D01*
X48058628Y3705049D01*
X48044139Y3693316D01*
X48039593Y3686920D01*
X48031474Y3677313D01*
X46566205Y2212042D01*
X46259858Y1905695D01*
X46226147Y1886231D01*
X46187221Y1886231D01*
X46153510Y1905695D01*
X46134046Y1939406D01*
X46131982Y1967512D01*
X46135149Y1994887D01*
X46135389Y1996960D01*
X46135400Y2000000D01*
X46134212Y2010941D01*
X46125683Y2089444D01*
X46125243Y2093496D01*
X46122808Y2100731D01*
X46096545Y2178771D01*
X46096543Y2178776D01*
X46095246Y2182629D01*
X46093113Y2186180D01*
X46054479Y2250477D01*
X46046809Y2263242D01*
X46009610Y2302579D01*
X45984985Y2328620D01*
X45984982Y2328622D01*
X45982191Y2331574D01*
X45961569Y2345589D01*
X45936576Y2362574D01*
X45904408Y2384435D01*
X45817088Y2419361D01*
X45724305Y2434721D01*
X45720238Y2434508D01*
X45720235Y2434508D01*
X45662147Y2431463D01*
X45630388Y2429799D01*
X45626463Y2428718D01*
X45622487Y2428074D01*
X45583760Y2432009D01*
X45552188Y2454780D01*
X45536232Y2490285D01*
X45535393Y2498132D01*
X45535400Y2500000D01*
X45535140Y2502400D01*
X45526318Y2583601D01*
X45525243Y2593496D01*
X45523718Y2598028D01*
X45496545Y2678771D01*
X45496543Y2678776D01*
X45495246Y2682629D01*
X45488916Y2693165D01*
X45448904Y2759755D01*
X45446809Y2763242D01*
X45411803Y2800260D01*
X45384985Y2828620D01*
X45384982Y2828622D01*
X45382191Y2831574D01*
X45373607Y2837408D01*
X45316216Y2876410D01*
X45304408Y2884435D01*
X45217088Y2919361D01*
X45124305Y2934721D01*
X45120238Y2934508D01*
X45120235Y2934508D01*
X45073248Y2932045D01*
X45030388Y2929799D01*
X45026461Y2928717D01*
X45026459Y2928717D01*
X44945404Y2906391D01*
X44939719Y2904825D01*
X44856527Y2860963D01*
X44838832Y2846009D01*
X44787805Y2802888D01*
X44787802Y2802885D01*
X44784696Y2800260D01*
X44782225Y2797028D01*
X44782224Y2797027D01*
X44768144Y2778611D01*
X44737303Y2754861D01*
X44698718Y2749712D01*
X44662729Y2764546D01*
X44638979Y2795387D01*
X44633644Y2816164D01*
X44628571Y2862863D01*
X44625243Y2893496D01*
X44621743Y2903895D01*
X44596545Y2978771D01*
X44596543Y2978776D01*
X44595246Y2982629D01*
X44587045Y2996279D01*
X44560326Y3040746D01*
X44546809Y3063242D01*
X44510207Y3101948D01*
X44484985Y3128620D01*
X44484982Y3128622D01*
X44482191Y3131574D01*
X44472190Y3138371D01*
X44435173Y3163527D01*
X44404408Y3184435D01*
X44317088Y3219361D01*
X44224305Y3234721D01*
X44224328Y3234859D01*
X44189473Y3246320D01*
X44163529Y3275339D01*
X44155569Y3313443D01*
X44159549Y3333726D01*
X44160166Y3335516D01*
X44181036Y3396128D01*
X44182749Y3410929D01*
X44188931Y3464362D01*
X44191845Y3489550D01*
X44191856Y3492590D01*
X44181699Y3586086D01*
X44180356Y3590078D01*
X44153001Y3671361D01*
X44152999Y3671366D01*
X44151702Y3675219D01*
X44148931Y3679832D01*
X44113669Y3738516D01*
X44103265Y3755832D01*
X44055912Y3805907D01*
X44041441Y3821210D01*
X44041438Y3821212D01*
X44038647Y3824164D01*
X44031948Y3828717D01*
X43969940Y3870857D01*
X43960864Y3877025D01*
X43938113Y3886125D01*
X52872100Y3886125D01*
X52872100Y3265214D01*
X52872335Y3263123D01*
X52872335Y3263115D01*
X52878875Y3204815D01*
X52879364Y3200455D01*
X52880746Y3196487D01*
X52880746Y3196486D01*
X52889386Y3171676D01*
X52908170Y3117735D01*
X52910395Y3114174D01*
X52910397Y3114170D01*
X52936426Y3072516D01*
X52954587Y3043452D01*
X52957549Y3040469D01*
X52957550Y3040468D01*
X52961996Y3035991D01*
X53016307Y2981299D01*
X53090264Y2934365D01*
X53094221Y2932956D01*
X53094225Y2932954D01*
X53168824Y2906391D01*
X53172781Y2904982D01*
X53176949Y2904485D01*
X53176953Y2904484D01*
X53215663Y2899868D01*
X53238875Y2897100D01*
X53759786Y2897100D01*
X53761877Y2897335D01*
X53761885Y2897335D01*
X53820368Y2903895D01*
X53820372Y2903896D01*
X53824545Y2904364D01*
X53907265Y2933170D01*
X53910826Y2935395D01*
X53910830Y2935397D01*
X53974100Y2974933D01*
X53981548Y2979587D01*
X53984612Y2982629D01*
X54018635Y3016416D01*
X54043701Y3041307D01*
X54090635Y3115264D01*
X54093077Y3122122D01*
X54115179Y3154165D01*
X54150342Y3170864D01*
X54163921Y3172100D01*
X54775057Y3172100D01*
X54775844Y3172096D01*
X54815967Y3171676D01*
X54820071Y3172563D01*
X54820077Y3172564D01*
X54836452Y3176105D01*
X54843960Y3177335D01*
X54851798Y3178214D01*
X54860637Y3179205D01*
X54860640Y3179206D01*
X54864816Y3179674D01*
X54879890Y3184923D01*
X54888716Y3187404D01*
X54904306Y3190775D01*
X54909582Y3193235D01*
X54923304Y3199634D01*
X54930354Y3202497D01*
X54940040Y3205870D01*
X54950168Y3209397D01*
X54953728Y3211622D01*
X54953731Y3211623D01*
X54960117Y3215614D01*
X54963700Y3217852D01*
X54971763Y3222231D01*
X54982409Y3227195D01*
X54982411Y3227196D01*
X54986217Y3228971D01*
X54989538Y3231547D01*
X54989541Y3231549D01*
X54998565Y3238550D01*
X55002783Y3241822D01*
X55009013Y3246169D01*
X55026813Y3257291D01*
X55029794Y3260252D01*
X55029800Y3260256D01*
X55040922Y3271301D01*
X55041575Y3271912D01*
X55042120Y3272335D01*
X55044860Y3275075D01*
X55045274Y3275314D01*
X55045570Y3275575D01*
X55045623Y3275515D01*
X55078571Y3294539D01*
X55098034Y3297101D01*
X55926149Y3297100D01*
X55993990Y3297100D01*
X56054043Y3305006D01*
X56058595Y3306891D01*
X56058597Y3306892D01*
X56104589Y3325943D01*
X56127700Y3335516D01*
X56181675Y3376933D01*
X56187043Y3381052D01*
X56190950Y3384050D01*
X56239484Y3447300D01*
X56260552Y3498162D01*
X56268108Y3516403D01*
X56268109Y3516405D01*
X56269994Y3520957D01*
X56277900Y3581010D01*
X56277900Y3918989D01*
X56269994Y3979042D01*
X56265514Y3989859D01*
X56252202Y4021995D01*
X56239484Y4052699D01*
X56203188Y4100000D01*
X56193948Y4112042D01*
X56190950Y4115949D01*
X56127700Y4164483D01*
X56094423Y4178267D01*
X56058597Y4193107D01*
X56058595Y4193108D01*
X56054043Y4194993D01*
X55993990Y4202899D01*
X55462500Y4202899D01*
X54933468Y4202900D01*
X54931010Y4202900D01*
X54870957Y4194994D01*
X54866405Y4193109D01*
X54866403Y4193108D01*
X54832156Y4178922D01*
X54797300Y4164484D01*
X54734050Y4115950D01*
X54698760Y4069960D01*
X54696417Y4066906D01*
X54689757Y4059337D01*
X54684074Y4053694D01*
X54683433Y4053094D01*
X54682879Y4052665D01*
X54660311Y4030097D01*
X54634056Y4004025D01*
X54633799Y4003620D01*
X54633491Y4003277D01*
X54630140Y3999926D01*
X54596429Y3980462D01*
X54576966Y3977900D01*
X54164204Y3977900D01*
X54126604Y3987975D01*
X54099079Y4015500D01*
X54093380Y4027946D01*
X54093212Y4028297D01*
X54091830Y4032265D01*
X54089605Y4035826D01*
X54089603Y4035830D01*
X54049505Y4100000D01*
X54045719Y4106059D01*
X54034338Y4143284D01*
X54037445Y4167455D01*
X54039789Y4175293D01*
X54044822Y4192122D01*
X54045350Y4197359D01*
X54054517Y4288406D01*
X54055392Y4297092D01*
X54055400Y4300000D01*
X54055179Y4302317D01*
X54045720Y4401465D01*
X54045719Y4401470D01*
X54045380Y4405024D01*
X54015681Y4506258D01*
X53967401Y4600000D01*
X61397600Y4600000D01*
X61398243Y4595116D01*
X61407241Y4526770D01*
X61407904Y4521733D01*
X61438114Y4448800D01*
X61486171Y4386171D01*
X61490078Y4383173D01*
X61516053Y4363242D01*
X61548800Y4338114D01*
X61621733Y4307904D01*
X61626611Y4307262D01*
X61626614Y4307261D01*
X61695116Y4298243D01*
X61700000Y4297600D01*
X61704884Y4298243D01*
X61773386Y4307261D01*
X61773389Y4307262D01*
X61778267Y4307904D01*
X61851200Y4338114D01*
X61883947Y4363242D01*
X61909922Y4383173D01*
X61913829Y4386171D01*
X61961886Y4448800D01*
X61965101Y4456562D01*
X67961169Y4456562D01*
X67961169Y4448479D01*
X67963731Y4447000D01*
X69063098Y4446999D01*
X69070908Y4449091D01*
X69073000Y4456901D01*
X69073000Y4456902D01*
X69326999Y4456902D01*
X69329091Y4449092D01*
X69336901Y4447000D01*
X70431491Y4446999D01*
X70439301Y4449091D01*
X70440066Y4451950D01*
X70438831Y4456562D01*
X72291169Y4456562D01*
X72291169Y4448479D01*
X72293731Y4447000D01*
X73243098Y4446999D01*
X73250908Y4449091D01*
X73253000Y4456901D01*
X73253000Y4456902D01*
X73506999Y4456902D01*
X73509091Y4449092D01*
X73516901Y4447000D01*
X74461491Y4446999D01*
X74469301Y4449091D01*
X74470066Y4451950D01*
X74446255Y4540817D01*
X74444016Y4546968D01*
X74398548Y4644473D01*
X74395276Y4650141D01*
X74333570Y4738267D01*
X74329355Y4743290D01*
X74253290Y4819355D01*
X74248267Y4823570D01*
X74160141Y4885276D01*
X74154473Y4888548D01*
X74056968Y4934016D01*
X74050817Y4936255D01*
X73946893Y4964101D01*
X73940451Y4965237D01*
X73860219Y4972256D01*
X73856925Y4972400D01*
X73516902Y4972400D01*
X73509092Y4970308D01*
X73507000Y4962498D01*
X73506999Y4456902D01*
X73253000Y4456902D01*
X73253001Y4962498D01*
X73250909Y4970308D01*
X73243099Y4972400D01*
X72903075Y4972400D01*
X72899781Y4972256D01*
X72819549Y4965237D01*
X72813107Y4964101D01*
X72709183Y4936255D01*
X72703032Y4934016D01*
X72605527Y4888548D01*
X72599859Y4885276D01*
X72511733Y4823570D01*
X72506710Y4819355D01*
X72430645Y4743290D01*
X72426430Y4738267D01*
X72364724Y4650141D01*
X72361452Y4644473D01*
X72315984Y4546968D01*
X72313745Y4540817D01*
X72291169Y4456562D01*
X70438831Y4456562D01*
X70416255Y4540817D01*
X70414016Y4546968D01*
X70368548Y4644473D01*
X70365276Y4650141D01*
X70303570Y4738267D01*
X70299355Y4743290D01*
X70223290Y4819355D01*
X70218267Y4823570D01*
X70130141Y4885276D01*
X70124473Y4888548D01*
X70026968Y4934016D01*
X70020817Y4936255D01*
X69916893Y4964101D01*
X69910451Y4965237D01*
X69830219Y4972256D01*
X69826925Y4972400D01*
X69336902Y4972400D01*
X69329092Y4970308D01*
X69327000Y4962498D01*
X69326999Y4456902D01*
X69073000Y4456902D01*
X69073001Y4962498D01*
X69070909Y4970308D01*
X69063099Y4972400D01*
X68573075Y4972400D01*
X68569781Y4972256D01*
X68489549Y4965237D01*
X68483107Y4964101D01*
X68379183Y4936255D01*
X68373032Y4934016D01*
X68275527Y4888548D01*
X68269859Y4885276D01*
X68181733Y4823570D01*
X68176710Y4819355D01*
X68100645Y4743290D01*
X68096430Y4738267D01*
X68034724Y4650141D01*
X68031452Y4644473D01*
X67985984Y4546968D01*
X67983745Y4540817D01*
X67961169Y4456562D01*
X61965101Y4456562D01*
X61992096Y4521733D01*
X61992760Y4526770D01*
X62001757Y4595116D01*
X62002400Y4600000D01*
X61995799Y4650141D01*
X61992739Y4673386D01*
X61992738Y4673389D01*
X61992096Y4678267D01*
X61961886Y4751200D01*
X61937519Y4782956D01*
X61916827Y4809922D01*
X61913829Y4813829D01*
X61851200Y4861886D01*
X61778267Y4892096D01*
X61773389Y4892738D01*
X61773386Y4892739D01*
X61704884Y4901757D01*
X61700000Y4902400D01*
X61695116Y4901757D01*
X61626614Y4892739D01*
X61626611Y4892738D01*
X61621733Y4892096D01*
X61548800Y4861886D01*
X61486171Y4813829D01*
X61483173Y4809922D01*
X61462481Y4782956D01*
X61438114Y4751200D01*
X61407904Y4678267D01*
X61407262Y4673389D01*
X61407261Y4673386D01*
X61404201Y4650141D01*
X61397600Y4600000D01*
X53967401Y4600000D01*
X53967375Y4600049D01*
X53902205Y4683015D01*
X53822522Y4752160D01*
X53731202Y4804990D01*
X53727829Y4806161D01*
X53727823Y4806164D01*
X53666493Y4827460D01*
X53631540Y4839598D01*
X53628004Y4840111D01*
X53628003Y4840111D01*
X53559628Y4850025D01*
X53527131Y4854737D01*
X53523564Y4854572D01*
X53523562Y4854572D01*
X53425319Y4850025D01*
X53425314Y4850024D01*
X53421743Y4849859D01*
X53319179Y4825141D01*
X53315919Y4823659D01*
X53315917Y4823658D01*
X53270919Y4803198D01*
X53223140Y4781474D01*
X53220222Y4779404D01*
X53220220Y4779403D01*
X53140008Y4722505D01*
X53137090Y4720435D01*
X53064135Y4644225D01*
X53062196Y4641222D01*
X53062192Y4641217D01*
X53025198Y4583922D01*
X53006907Y4555595D01*
X53005571Y4552280D01*
X53005570Y4552278D01*
X52992573Y4520026D01*
X52967472Y4457742D01*
X52947251Y4354198D01*
X52947164Y4321071D01*
X52946988Y4253514D01*
X52946975Y4248697D01*
X52956722Y4197359D01*
X52964035Y4158837D01*
X52961150Y4120018D01*
X52953649Y4104518D01*
X52909365Y4034736D01*
X52907956Y4030779D01*
X52907954Y4030775D01*
X52887919Y3974509D01*
X52879982Y3952219D01*
X52879485Y3948051D01*
X52879484Y3948047D01*
X52876019Y3918989D01*
X52872100Y3886125D01*
X43938113Y3886125D01*
X43873544Y3911951D01*
X43780761Y3927311D01*
X43776694Y3927098D01*
X43776691Y3927098D01*
X43729704Y3924635D01*
X43686844Y3922389D01*
X43682917Y3921307D01*
X43682915Y3921307D01*
X43600103Y3898497D01*
X43596175Y3897415D01*
X43592572Y3895516D01*
X43592571Y3895515D01*
X43551559Y3873892D01*
X43513600Y3865268D01*
X43476414Y3876780D01*
X43449966Y3905341D01*
X43441342Y3943300D01*
X43452854Y3980486D01*
X43457595Y3987176D01*
X43463573Y3994705D01*
X43463574Y3994706D01*
X43465798Y3997507D01*
X43514594Y4091045D01*
X43544822Y4192122D01*
X43555392Y4297092D01*
X43555400Y4300000D01*
X43555179Y4302317D01*
X43545720Y4401465D01*
X43545719Y4401470D01*
X43545380Y4405024D01*
X43515681Y4506258D01*
X43467375Y4600049D01*
X43402205Y4683015D01*
X43322522Y4752160D01*
X43231202Y4804990D01*
X43227829Y4806161D01*
X43227823Y4806164D01*
X43166493Y4827460D01*
X43131540Y4839598D01*
X43128004Y4840111D01*
X43128003Y4840111D01*
X43059628Y4850025D01*
X43027131Y4854737D01*
X43023564Y4854572D01*
X43023562Y4854572D01*
X42925319Y4850025D01*
X42925314Y4850024D01*
X42921743Y4849859D01*
X42819179Y4825141D01*
X42815919Y4823659D01*
X42815917Y4823658D01*
X42770919Y4803198D01*
X42723140Y4781474D01*
X42720222Y4779404D01*
X42720220Y4779403D01*
X42640008Y4722505D01*
X42637090Y4720435D01*
X42564135Y4644225D01*
X42562196Y4641222D01*
X42562192Y4641217D01*
X42525198Y4583922D01*
X42506907Y4555595D01*
X42505571Y4552280D01*
X42505570Y4552278D01*
X42492573Y4520026D01*
X42467472Y4457742D01*
X42447251Y4354198D01*
X42447164Y4321071D01*
X42446988Y4253514D01*
X42446975Y4248697D01*
X42461140Y4174085D01*
X42465516Y4151039D01*
X42466653Y4145048D01*
X42467974Y4141719D01*
X42467975Y4141717D01*
X42475388Y4123042D01*
X42505576Y4046990D01*
X42507501Y4043975D01*
X42507501Y4043974D01*
X42560414Y3961077D01*
X42560417Y3961073D01*
X42562339Y3958062D01*
X42564798Y3955466D01*
X42564799Y3955465D01*
X42603241Y3914885D01*
X42634894Y3881471D01*
X42637807Y3879381D01*
X42637809Y3879380D01*
X42688729Y3842858D01*
X42713411Y3812757D01*
X42720101Y3781751D01*
X42720100Y3421961D01*
X42710025Y3384361D01*
X42698075Y3368787D01*
X42586580Y3257291D01*
X42475313Y3146024D01*
X42473770Y3143991D01*
X42473769Y3143990D01*
X42469504Y3138371D01*
X42462787Y3130671D01*
X42252817Y2920701D01*
X42219110Y2901240D01*
X42180184Y2901240D01*
X42146473Y2920704D01*
X42005404Y3061773D01*
X41998404Y3065815D01*
X41991402Y3061772D01*
X41767038Y2837408D01*
X41733327Y2817944D01*
X41694401Y2817944D01*
X41660690Y2837408D01*
X41220233Y3277865D01*
X41217498Y3279444D01*
X41189974Y3306971D01*
X41179901Y3344568D01*
X41179901Y3459697D01*
X41394168Y3459697D01*
X41395139Y3456511D01*
X41706864Y3144786D01*
X41713863Y3140745D01*
X41720866Y3144788D01*
X41814627Y3238550D01*
X41818668Y3245550D01*
X41814626Y3252551D01*
X41635086Y3432091D01*
X41630829Y3435756D01*
X41599144Y3459159D01*
X41589318Y3464362D01*
X41538934Y3482055D01*
X41528013Y3484139D01*
X41474656Y3486235D01*
X41463601Y3485015D01*
X41411988Y3471329D01*
X41401783Y3466912D01*
X41399686Y3465605D01*
X41394168Y3459697D01*
X41179901Y3459697D01*
X41179901Y3673391D01*
X41189976Y3710991D01*
X41217501Y3738516D01*
X41258970Y3748491D01*
X41320652Y3745313D01*
X41320654Y3745313D01*
X41324226Y3745129D01*
X41428713Y3759720D01*
X41528555Y3793807D01*
X41585667Y3826449D01*
X41617041Y3844380D01*
X41617045Y3844383D01*
X41620151Y3846158D01*
X41622868Y3848491D01*
X41622871Y3848493D01*
X41681108Y3898497D01*
X41700194Y3914885D01*
X41765798Y3997507D01*
X41814594Y4091045D01*
X41844822Y4192122D01*
X41855392Y4297092D01*
X41855400Y4300000D01*
X41855179Y4302317D01*
X41845720Y4401465D01*
X41845719Y4401470D01*
X41845380Y4405024D01*
X41815681Y4506258D01*
X41767375Y4600049D01*
X41702205Y4683015D01*
X41622522Y4752160D01*
X41531202Y4804990D01*
X41527829Y4806161D01*
X41527823Y4806164D01*
X41466493Y4827460D01*
X41431540Y4839598D01*
X41428004Y4840111D01*
X41428003Y4840111D01*
X41359628Y4850025D01*
X41327131Y4854737D01*
X41323564Y4854572D01*
X41323562Y4854572D01*
X41225319Y4850025D01*
X41225314Y4850024D01*
X41221743Y4849859D01*
X41119179Y4825141D01*
X41115919Y4823659D01*
X41115917Y4823658D01*
X41070919Y4803198D01*
X41023140Y4781474D01*
X41020222Y4779404D01*
X41020220Y4779403D01*
X40940008Y4722505D01*
X40937090Y4720435D01*
X40864135Y4644225D01*
X40862196Y4641222D01*
X40862192Y4641217D01*
X40825198Y4583922D01*
X40806907Y4555595D01*
X40805571Y4552280D01*
X40805570Y4552278D01*
X40792573Y4520026D01*
X40767472Y4457742D01*
X40747251Y4354198D01*
X40747164Y4321071D01*
X40746988Y4253514D01*
X40746975Y4248697D01*
X40748940Y4238348D01*
X40756451Y4198782D01*
X40753566Y4159962D01*
X40735745Y4131582D01*
X40705453Y4101290D01*
X40703180Y4099110D01*
X40682409Y4080010D01*
X40672987Y4064813D01*
X40671037Y4061668D01*
X40667024Y4055830D01*
X40657074Y4042721D01*
X40657072Y4042717D01*
X40653971Y4038632D01*
X40652085Y4033867D01*
X40652084Y4033866D01*
X40651523Y4032448D01*
X40645519Y4020511D01*
X40642017Y4014863D01*
X40640588Y4009945D01*
X40640584Y4009936D01*
X40635991Y3994127D01*
X40633704Y3987444D01*
X40625753Y3967362D01*
X40625217Y3962261D01*
X40625059Y3960759D01*
X40622485Y3947636D01*
X40620631Y3941255D01*
X40620102Y3934050D01*
X40620102Y3917535D01*
X40619690Y3909675D01*
X40617741Y3891131D01*
X40618596Y3886077D01*
X40619049Y3883399D01*
X40620102Y3870857D01*
X40620101Y3471541D01*
X40620101Y3072516D01*
X40620036Y3069403D01*
X40618854Y3041191D01*
X40623508Y3021352D01*
X40623784Y3020175D01*
X40625075Y3013208D01*
X40628004Y2991824D01*
X40630040Y2987119D01*
X40630041Y2987116D01*
X40630645Y2985720D01*
X40634842Y2973031D01*
X40636359Y2966563D01*
X40642270Y2955810D01*
X40646756Y2947650D01*
X40649869Y2941296D01*
X40658446Y2921476D01*
X40662626Y2916315D01*
X40670083Y2905218D01*
X40673285Y2899392D01*
X40675861Y2896409D01*
X40675864Y2896404D01*
X40677102Y2894971D01*
X40678006Y2893924D01*
X40689672Y2882258D01*
X40694938Y2876410D01*
X40704051Y2865157D01*
X40719885Y2829597D01*
X40715817Y2790884D01*
X40698269Y2766730D01*
X40699337Y2765732D01*
X40687061Y2752590D01*
X40688032Y2749404D01*
X41130359Y2307077D01*
X41149823Y2273366D01*
X41149823Y2234440D01*
X41130359Y2200729D01*
X41059931Y2130301D01*
X41026220Y2110837D01*
X40987294Y2110837D01*
X40953583Y2130301D01*
X40607502Y2476382D01*
X40598090Y2488384D01*
X40597044Y2490802D01*
X40592860Y2495969D01*
X40585404Y2507065D01*
X40584102Y2509434D01*
X40584101Y2509435D01*
X40582204Y2512886D01*
X40577484Y2518355D01*
X40565805Y2530034D01*
X40560538Y2535883D01*
X40560438Y2536007D01*
X40548805Y2550372D01*
X40542409Y2554918D01*
X40532802Y2563037D01*
X39101301Y3994536D01*
X39099121Y3996809D01*
X39097229Y3998867D01*
X39080009Y4017593D01*
X39061646Y4028979D01*
X39055812Y4032989D01*
X39055602Y4033149D01*
X39038631Y4046030D01*
X39032452Y4048477D01*
X39020512Y4054482D01*
X39014862Y4057985D01*
X38994106Y4064015D01*
X38987434Y4066300D01*
X38967361Y4074248D01*
X38960756Y4074942D01*
X38947636Y4077517D01*
X38941254Y4079371D01*
X38937327Y4079659D01*
X38937323Y4079660D01*
X38935414Y4079800D01*
X38935408Y4079800D01*
X38934049Y4079900D01*
X38917525Y4079900D01*
X38909664Y4080312D01*
X38891130Y4082260D01*
X38883401Y4080953D01*
X38870862Y4079900D01*
X36204733Y4079900D01*
X36201585Y4079966D01*
X36201242Y4079980D01*
X36173423Y4081146D01*
X36152416Y4076219D01*
X36145455Y4074928D01*
X36124057Y4071997D01*
X36119353Y4069962D01*
X36119348Y4069960D01*
X36117953Y4069356D01*
X36105264Y4065159D01*
X36098796Y4063642D01*
X36080746Y4053719D01*
X36079886Y4053246D01*
X36073541Y4050137D01*
X36053709Y4041555D01*
X36048542Y4037371D01*
X36037448Y4029916D01*
X36031625Y4026715D01*
X36028645Y4024143D01*
X36028642Y4024141D01*
X36027201Y4022897D01*
X36026156Y4021995D01*
X36014477Y4010316D01*
X36008628Y4005049D01*
X35994139Y3993316D01*
X35989594Y3986921D01*
X35981478Y3977317D01*
X35913837Y3909675D01*
X35860101Y3855939D01*
X35826389Y3836475D01*
X35810865Y3834017D01*
X35730388Y3829799D01*
X35726461Y3828717D01*
X35726459Y3828717D01*
X35696108Y3820357D01*
X35639719Y3804825D01*
X35556527Y3760963D01*
X35544674Y3750946D01*
X35487805Y3702888D01*
X35487802Y3702885D01*
X35484696Y3700260D01*
X35482225Y3697028D01*
X35482224Y3697027D01*
X35479387Y3693316D01*
X35427574Y3625549D01*
X35425853Y3621858D01*
X35389548Y3544002D01*
X35389546Y3543996D01*
X35387829Y3540314D01*
X35386942Y3536346D01*
X35386941Y3536343D01*
X35379674Y3503832D01*
X35367313Y3448534D01*
X35367188Y3412554D01*
X35367008Y3360963D01*
X35366985Y3354488D01*
X35367845Y3350512D01*
X35367845Y3350509D01*
X35379323Y3297421D01*
X35386859Y3262566D01*
X35426009Y3177057D01*
X35428459Y3173806D01*
X35428460Y3173804D01*
X35466651Y3123122D01*
X35482607Y3101948D01*
X35485695Y3099302D01*
X35485698Y3099298D01*
X35550916Y3043400D01*
X35550919Y3043398D01*
X35554013Y3040746D01*
X35636896Y2996304D01*
X35669366Y2987116D01*
X35723472Y2971805D01*
X35723476Y2971804D01*
X35727389Y2970697D01*
X35781307Y2967494D01*
X35817207Y2965361D01*
X35817210Y2965361D01*
X35821269Y2965120D01*
X35914157Y2979832D01*
X35917946Y2981317D01*
X35917950Y2981318D01*
X35966610Y3000388D01*
X36001719Y3014147D01*
X36005106Y3016415D01*
X36005109Y3016416D01*
X36076484Y3064197D01*
X36076486Y3064198D01*
X36079870Y3066464D01*
X36144963Y3134343D01*
X36151338Y3144786D01*
X36166991Y3170431D01*
X36193962Y3214616D01*
X36224580Y3303538D01*
X36235389Y3396960D01*
X36235400Y3400000D01*
X36235172Y3402102D01*
X36235070Y3404041D01*
X36243161Y3442117D01*
X36256993Y3461156D01*
X36293913Y3498075D01*
X36327625Y3517538D01*
X36347087Y3520100D01*
X37534696Y3520100D01*
X37572296Y3510025D01*
X37599821Y3482500D01*
X37609896Y3444900D01*
X37602851Y3413120D01*
X37596859Y3400270D01*
X37587829Y3380904D01*
X37586942Y3376936D01*
X37586941Y3376933D01*
X37582188Y3355669D01*
X37567313Y3289124D01*
X37567206Y3258556D01*
X37567007Y3201245D01*
X37566985Y3195078D01*
X37567845Y3191102D01*
X37567845Y3191099D01*
X37577591Y3146024D01*
X37586859Y3103156D01*
X37626009Y3017647D01*
X37628459Y3014396D01*
X37628460Y3014394D01*
X37662900Y2968690D01*
X37682607Y2942538D01*
X37693840Y2932911D01*
X37715830Y2900794D01*
X37720100Y2875815D01*
X37720100Y2849360D01*
X37720034Y2846212D01*
X37718853Y2818036D01*
X37723273Y2799196D01*
X37723783Y2797020D01*
X37725074Y2790053D01*
X37728003Y2768669D01*
X37730039Y2763964D01*
X37730040Y2763961D01*
X37730644Y2762565D01*
X37734841Y2749876D01*
X37736358Y2743408D01*
X37741919Y2733292D01*
X37746755Y2724495D01*
X37749868Y2718141D01*
X37758445Y2698321D01*
X37762625Y2693160D01*
X37770082Y2682063D01*
X37773284Y2676237D01*
X37775860Y2673254D01*
X37775863Y2673249D01*
X37776925Y2672020D01*
X37778005Y2670769D01*
X37789671Y2659103D01*
X37794939Y2653254D01*
X37806684Y2638750D01*
X37813083Y2634202D01*
X37822692Y2626082D01*
X38220758Y2228014D01*
X38220761Y2228012D01*
X38220780Y2227994D01*
X38243310Y2205464D01*
X38245490Y2203191D01*
X38264602Y2182407D01*
X38282965Y2171021D01*
X38288795Y2167014D01*
X38294954Y2162339D01*
X38305982Y2153968D01*
X38305299Y2153069D01*
X38328103Y2130739D01*
X38338572Y2093247D01*
X38328892Y2055544D01*
X38323115Y2046783D01*
X38309358Y2028791D01*
X38309351Y2028780D01*
X38306881Y2025549D01*
X38300858Y2012632D01*
X38268855Y1944002D01*
X38268853Y1943996D01*
X38267136Y1940314D01*
X38266249Y1936346D01*
X38266248Y1936343D01*
X38256922Y1894622D01*
X38246620Y1848534D01*
X38246292Y1754488D01*
X38247152Y1750512D01*
X38247152Y1750509D01*
X38247986Y1746651D01*
X38266166Y1662566D01*
X38305316Y1577057D01*
X38306380Y1575645D01*
X38316717Y1539112D01*
X38307166Y1501376D01*
X38276596Y1471544D01*
X38256527Y1460963D01*
X38253414Y1458332D01*
X38187805Y1402888D01*
X38187802Y1402885D01*
X38184696Y1400260D01*
X38127574Y1325549D01*
X38125853Y1321858D01*
X38089548Y1244002D01*
X38089546Y1243996D01*
X38087829Y1240314D01*
X38086942Y1236346D01*
X38086941Y1236343D01*
X38078154Y1197031D01*
X38067313Y1148534D01*
X38067299Y1144466D01*
X38067013Y1062400D01*
X38066985Y1054488D01*
X38067845Y1050512D01*
X38067845Y1050509D01*
X38073182Y1025824D01*
X38086859Y962566D01*
X38126009Y877057D01*
X38128459Y873806D01*
X38128460Y873804D01*
X38152849Y841439D01*
X38182607Y801948D01*
X38185695Y799302D01*
X38185698Y799298D01*
X38250916Y743400D01*
X38250919Y743398D01*
X38254013Y740746D01*
X38336896Y696304D01*
X38360319Y689676D01*
X38423472Y671805D01*
X38423476Y671804D01*
X38427389Y670697D01*
X38474665Y667889D01*
X38511651Y665691D01*
X38548587Y653404D01*
X38560365Y643797D01*
X38598710Y605452D01*
X38600890Y603179D01*
X38616520Y586181D01*
X38616523Y586179D01*
X38619991Y582407D01*
X38624344Y579708D01*
X38624349Y579704D01*
X38638342Y571029D01*
X38644182Y567016D01*
X38661368Y553970D01*
X38667558Y551519D01*
X38679483Y545521D01*
X38685138Y542015D01*
X38705883Y535988D01*
X38712563Y533701D01*
X38732638Y525752D01*
X38737739Y525216D01*
X38737742Y525215D01*
X38739250Y525056D01*
X38752360Y522484D01*
X38754252Y521935D01*
X38758746Y520629D01*
X38763400Y520287D01*
X38764586Y520200D01*
X38764592Y520200D01*
X38765951Y520100D01*
X38778039Y520100D01*
X38815639Y510025D01*
X38831214Y498074D01*
X39053975Y275312D01*
X39056007Y273770D01*
X39061635Y269498D01*
X39069344Y262772D01*
X39278942Y53174D01*
X39298406Y19463D01*
X39298406Y-19463D01*
X39278942Y-53174D01*
X39080539Y-251577D01*
X39072204Y-258547D01*
X39070616Y-259420D01*
X39067635Y-261993D01*
X39067631Y-261996D01*
X39066188Y-263242D01*
X39065147Y-264141D01*
X39064172Y-265116D01*
X38831215Y-498074D01*
X38797503Y-517538D01*
X38778040Y-520100D01*
X38747088Y-520100D01*
X38709488Y-510025D01*
X38693914Y-498075D01*
X38657129Y-461290D01*
X38637666Y-427580D01*
X38635275Y-404028D01*
X38635389Y-403040D01*
X38635400Y-400000D01*
X38634870Y-395116D01*
X38627428Y-326614D01*
X38625243Y-306504D01*
X38623668Y-301825D01*
X38596545Y-221229D01*
X38596543Y-221224D01*
X38595246Y-217371D01*
X38592077Y-212096D01*
X38560265Y-159152D01*
X38546809Y-136758D01*
X38505656Y-93240D01*
X38484985Y-71380D01*
X38484982Y-71378D01*
X38482191Y-68426D01*
X38404408Y-15565D01*
X38317088Y19361D01*
X38224305Y34721D01*
X38220238Y34508D01*
X38220235Y34508D01*
X38179464Y32371D01*
X38130388Y29799D01*
X38126461Y28717D01*
X38126459Y28717D01*
X38051518Y8075D01*
X38039719Y4825D01*
X37956527Y-39037D01*
X37934362Y-57768D01*
X37887805Y-97112D01*
X37887802Y-97115D01*
X37884696Y-99740D01*
X37827574Y-174451D01*
X37825853Y-178142D01*
X37789548Y-255998D01*
X37789546Y-256004D01*
X37787829Y-259686D01*
X37786942Y-263654D01*
X37786941Y-263657D01*
X37780382Y-293000D01*
X37767313Y-351466D01*
X37767237Y-373203D01*
X37767048Y-427580D01*
X37766985Y-445512D01*
X37767845Y-449488D01*
X37767845Y-449491D01*
X37773011Y-473386D01*
X37786859Y-537434D01*
X37826009Y-622943D01*
X37828459Y-626194D01*
X37828460Y-626196D01*
X37858561Y-666141D01*
X37882607Y-698052D01*
X37885695Y-700698D01*
X37885698Y-700702D01*
X37950916Y-756600D01*
X37950919Y-756602D01*
X37954013Y-759254D01*
X38036896Y-803696D01*
X38071493Y-813486D01*
X38123472Y-828195D01*
X38123476Y-828196D01*
X38127389Y-829303D01*
X38174665Y-832111D01*
X38211651Y-834309D01*
X38248587Y-846596D01*
X38260365Y-856203D01*
X38395888Y-991726D01*
X38415352Y-1025437D01*
X38415352Y-1064363D01*
X38395888Y-1098074D01*
X38362177Y-1117538D01*
X38342714Y-1120100D01*
X37263443Y-1120100D01*
X37225843Y-1110025D01*
X37208804Y-1096568D01*
X37184989Y-1071384D01*
X37184985Y-1071381D01*
X37182191Y-1068426D01*
X37177146Y-1064997D01*
X37135275Y-1036542D01*
X37104408Y-1015565D01*
X37017088Y-980639D01*
X36924305Y-965279D01*
X36920238Y-965492D01*
X36920235Y-965492D01*
X36873248Y-967955D01*
X36830388Y-970201D01*
X36826461Y-971283D01*
X36826459Y-971283D01*
X36751678Y-991881D01*
X36739719Y-995175D01*
X36656527Y-1039037D01*
X36653414Y-1041668D01*
X36612655Y-1076112D01*
X36577433Y-1092686D01*
X36538643Y-1089429D01*
X36504456Y-1064454D01*
X36481877Y-1035029D01*
X36481876Y-1035028D01*
X36478879Y-1031122D01*
X36443604Y-1004054D01*
X36421610Y-987177D01*
X36421608Y-987176D01*
X36417700Y-984177D01*
X36381563Y-969209D01*
X36350680Y-945513D01*
X36335783Y-909550D01*
X36340863Y-870957D01*
X36364559Y-840074D01*
X36381560Y-830258D01*
X36412896Y-817278D01*
X36421356Y-812393D01*
X36474618Y-771524D01*
X36481523Y-764619D01*
X36522392Y-711357D01*
X36527274Y-702901D01*
X36552965Y-640880D01*
X36555494Y-631439D01*
X36562078Y-581425D01*
X36562399Y-576532D01*
X36562399Y-556902D01*
X36560307Y-549092D01*
X36552497Y-547000D01*
X36227003Y-546999D01*
X36226995Y-547000D01*
X35647502Y-546999D01*
X35639692Y-549091D01*
X35637600Y-556901D01*
X35637600Y-576531D01*
X35637921Y-581424D01*
X35644505Y-631438D01*
X35647034Y-640879D01*
X35672725Y-702900D01*
X35677607Y-711356D01*
X35718476Y-764618D01*
X35725381Y-771523D01*
X35778643Y-812392D01*
X35787099Y-817274D01*
X35818439Y-830256D01*
X35849321Y-853954D01*
X35864218Y-889917D01*
X35859137Y-928510D01*
X35835439Y-959392D01*
X35818439Y-969208D01*
X35782301Y-984176D01*
X35778393Y-987175D01*
X35778391Y-987176D01*
X35769377Y-994093D01*
X35721122Y-1031121D01*
X35718124Y-1035028D01*
X35686481Y-1076266D01*
X35674177Y-1092300D01*
X35644667Y-1163545D01*
X35644024Y-1168427D01*
X35644024Y-1168428D01*
X35638579Y-1209788D01*
X35637101Y-1221012D01*
X35637100Y-1538987D01*
X35637420Y-1541415D01*
X35637420Y-1541420D01*
X35644015Y-1591507D01*
X35644666Y-1596454D01*
X35646550Y-1601003D01*
X35646551Y-1601006D01*
X35656787Y-1625718D01*
X35674176Y-1667699D01*
X35677175Y-1671607D01*
X35677176Y-1671609D01*
X35713684Y-1719186D01*
X35721121Y-1728878D01*
X35725028Y-1731876D01*
X35769534Y-1766027D01*
X35782300Y-1775823D01*
X35793534Y-1780476D01*
X35848993Y-1803448D01*
X35848996Y-1803449D01*
X35853545Y-1805333D01*
X35858427Y-1805976D01*
X35858428Y-1805976D01*
X35908579Y-1812579D01*
X35908584Y-1812579D01*
X35911012Y-1812899D01*
X36100000Y-1812900D01*
X36288987Y-1812900D01*
X36291415Y-1812580D01*
X36291420Y-1812580D01*
X36341571Y-1805977D01*
X36341572Y-1805977D01*
X36346454Y-1805334D01*
X36351003Y-1803450D01*
X36351006Y-1803449D01*
X36398964Y-1783584D01*
X36417699Y-1775824D01*
X36423705Y-1771216D01*
X36474971Y-1731877D01*
X36474972Y-1731876D01*
X36478878Y-1728879D01*
X36485978Y-1719626D01*
X36516861Y-1695930D01*
X36555455Y-1690851D01*
X36591418Y-1705748D01*
X36594575Y-1708310D01*
X36650916Y-1756600D01*
X36650919Y-1756602D01*
X36654013Y-1759254D01*
X36736896Y-1803696D01*
X36767422Y-1812334D01*
X36823472Y-1828195D01*
X36823476Y-1828196D01*
X36827389Y-1829303D01*
X36881307Y-1832506D01*
X36917207Y-1834639D01*
X36917210Y-1834639D01*
X36921269Y-1834880D01*
X37014157Y-1820168D01*
X37017946Y-1818683D01*
X37017950Y-1818682D01*
X37062869Y-1801078D01*
X37101719Y-1785853D01*
X37105106Y-1783585D01*
X37105109Y-1783584D01*
X37176485Y-1735802D01*
X37179870Y-1733536D01*
X37209104Y-1703051D01*
X37242400Y-1682886D01*
X37263380Y-1679900D01*
X38153623Y-1679900D01*
X38191223Y-1689975D01*
X38218748Y-1717500D01*
X38228823Y-1755100D01*
X38221778Y-1786880D01*
X38215158Y-1801078D01*
X38187829Y-1859686D01*
X38186942Y-1863654D01*
X38186941Y-1863657D01*
X38178227Y-1902641D01*
X38167313Y-1951466D01*
X38167268Y-1964454D01*
X38167007Y-2039324D01*
X38166985Y-2045512D01*
X38167845Y-2049488D01*
X38167845Y-2049491D01*
X38175319Y-2084057D01*
X38186859Y-2137434D01*
X38226009Y-2222943D01*
X38228459Y-2226194D01*
X38228460Y-2226196D01*
X38258196Y-2265657D01*
X38282607Y-2298052D01*
X38285695Y-2300698D01*
X38285698Y-2300702D01*
X38350916Y-2356600D01*
X38350919Y-2356602D01*
X38354013Y-2359254D01*
X38436896Y-2403696D01*
X38459817Y-2410182D01*
X38523472Y-2428195D01*
X38523476Y-2428196D01*
X38527389Y-2429303D01*
X38581307Y-2432506D01*
X38617207Y-2434639D01*
X38617210Y-2434639D01*
X38621269Y-2434880D01*
X38630146Y-2433474D01*
X38690399Y-2423931D01*
X38729112Y-2428000D01*
X38760604Y-2450880D01*
X38776437Y-2486441D01*
X38775552Y-2514608D01*
X38772828Y-2526795D01*
X38768700Y-2545263D01*
X38767313Y-2551466D01*
X38767164Y-2594290D01*
X38767082Y-2617828D01*
X38766985Y-2645512D01*
X38767845Y-2649488D01*
X38767845Y-2649491D01*
X38772716Y-2672020D01*
X38786859Y-2737434D01*
X38826009Y-2822943D01*
X38828459Y-2826194D01*
X38828460Y-2826196D01*
X38870046Y-2881383D01*
X38882607Y-2898052D01*
X38885695Y-2900698D01*
X38885698Y-2900702D01*
X38950916Y-2956600D01*
X38950919Y-2956602D01*
X38954013Y-2959254D01*
X39036896Y-3003696D01*
X39058425Y-3009788D01*
X39123472Y-3028195D01*
X39123476Y-3028196D01*
X39127389Y-3029303D01*
X39181307Y-3032506D01*
X39217207Y-3034639D01*
X39217210Y-3034639D01*
X39221269Y-3034880D01*
X39314157Y-3020168D01*
X39317946Y-3018683D01*
X39317950Y-3018682D01*
X39368192Y-2998992D01*
X39401719Y-2985853D01*
X39405106Y-2983585D01*
X39405109Y-2983584D01*
X39476484Y-2935803D01*
X39476486Y-2935802D01*
X39479870Y-2933536D01*
X39544963Y-2865657D01*
X39545139Y-2865826D01*
X39573972Y-2843784D01*
X39612575Y-2838772D01*
X39648511Y-2853733D01*
X39662683Y-2868055D01*
X39687284Y-2900702D01*
X39700282Y-2917951D01*
X39703370Y-2920597D01*
X39703373Y-2920601D01*
X39768591Y-2976499D01*
X39768594Y-2976501D01*
X39771688Y-2979153D01*
X39854571Y-3023595D01*
X39890255Y-3033693D01*
X39941147Y-3048094D01*
X39941151Y-3048095D01*
X39945064Y-3049202D01*
X39998897Y-3052400D01*
X40034882Y-3054538D01*
X40034885Y-3054538D01*
X40038944Y-3054779D01*
X40042965Y-3054142D01*
X40042968Y-3054142D01*
X40085139Y-3047463D01*
X40123852Y-3051532D01*
X40155344Y-3074413D01*
X40171176Y-3109974D01*
X40170291Y-3138140D01*
X40168201Y-3147490D01*
X40168200Y-3147497D01*
X40167313Y-3151466D01*
X40167268Y-3164339D01*
X40167001Y-3241014D01*
X40166985Y-3245512D01*
X40167845Y-3249488D01*
X40167845Y-3249491D01*
X40178313Y-3297909D01*
X40186859Y-3337434D01*
X40226009Y-3422943D01*
X40228459Y-3426194D01*
X40228460Y-3426196D01*
X40266249Y-3476344D01*
X40280831Y-3512436D01*
X40275413Y-3550983D01*
X40251447Y-3581658D01*
X40215355Y-3596240D01*
X40206191Y-3596800D01*
X32496885Y-3596800D01*
X32459285Y-3586725D01*
X32431760Y-3559200D01*
X32421685Y-3521600D01*
X32431760Y-3484000D01*
X32452380Y-3463424D01*
X32451200Y-3461886D01*
X32509922Y-3416827D01*
X32513829Y-3413829D01*
X32561886Y-3351200D01*
X32592096Y-3278267D01*
X32592976Y-3271589D01*
X32601757Y-3204884D01*
X32602400Y-3200000D01*
X32596352Y-3154058D01*
X32592739Y-3126614D01*
X32592738Y-3126611D01*
X32592096Y-3121733D01*
X32561886Y-3048800D01*
X32522599Y-2997600D01*
X32516827Y-2990078D01*
X32513829Y-2986171D01*
X32451200Y-2938114D01*
X32378267Y-2907904D01*
X32373389Y-2907262D01*
X32373386Y-2907261D01*
X32304884Y-2898243D01*
X32300000Y-2897600D01*
X32295116Y-2898243D01*
X32226614Y-2907261D01*
X32226611Y-2907262D01*
X32221733Y-2907904D01*
X32148800Y-2938114D01*
X32086171Y-2986171D01*
X32083173Y-2990078D01*
X32077401Y-2997600D01*
X32038114Y-3048800D01*
X32007904Y-3121733D01*
X32007262Y-3126611D01*
X32007261Y-3126614D01*
X32003648Y-3154058D01*
X31997600Y-3200000D01*
X31998243Y-3204884D01*
X32007025Y-3271589D01*
X32007904Y-3278267D01*
X32038114Y-3351200D01*
X32086171Y-3413829D01*
X32090078Y-3416827D01*
X32148800Y-3461886D01*
X32147626Y-3463416D01*
X32168159Y-3483859D01*
X32178315Y-3521437D01*
X32168321Y-3559059D01*
X32140856Y-3586644D01*
X32103115Y-3596800D01*
X31753900Y-3596800D01*
X31716300Y-3586725D01*
X31688775Y-3559200D01*
X31678700Y-3521600D01*
X31678700Y-3364489D01*
X31670849Y-3292223D01*
X31666612Y-3279631D01*
X31649525Y-3228860D01*
X31640281Y-3201390D01*
X31619888Y-3167450D01*
X31593015Y-3122725D01*
X31593013Y-3122722D01*
X31590920Y-3119239D01*
X31547195Y-3073001D01*
X31527865Y-3052559D01*
X31527862Y-3052557D01*
X31525071Y-3049605D01*
X31521543Y-3047207D01*
X31479569Y-3018682D01*
X31445805Y-2995736D01*
X31442030Y-2994226D01*
X31442028Y-2994225D01*
X31393978Y-2975007D01*
X31356820Y-2960145D01*
X31302177Y-2951099D01*
X31276235Y-2946804D01*
X31276232Y-2946804D01*
X31273189Y-2946300D01*
X30739489Y-2946300D01*
X30737466Y-2946520D01*
X30737462Y-2946520D01*
X30724623Y-2947915D01*
X30667223Y-2954151D01*
X30663368Y-2955448D01*
X30663365Y-2955449D01*
X30628094Y-2967319D01*
X30576390Y-2984719D01*
X30494240Y-3034080D01*
X30491282Y-3036878D01*
X30491281Y-3036878D01*
X30440592Y-3084811D01*
X30424605Y-3099929D01*
X30370736Y-3179195D01*
X30369226Y-3182970D01*
X30369225Y-3182972D01*
X30354728Y-3219218D01*
X30335145Y-3268180D01*
X30326623Y-3319658D01*
X30322235Y-3346165D01*
X30321300Y-3351811D01*
X30321300Y-3521600D01*
X30311225Y-3559200D01*
X30283700Y-3586725D01*
X30246100Y-3596800D01*
X29953900Y-3596800D01*
X29916300Y-3586725D01*
X29888775Y-3559200D01*
X29878700Y-3521600D01*
X29878700Y-3364489D01*
X29870849Y-3292223D01*
X29866612Y-3279631D01*
X29849525Y-3228860D01*
X29840281Y-3201390D01*
X29819888Y-3167450D01*
X29793015Y-3122725D01*
X29793013Y-3122722D01*
X29790920Y-3119239D01*
X29747195Y-3073001D01*
X29727865Y-3052559D01*
X29727862Y-3052557D01*
X29725071Y-3049605D01*
X29721543Y-3047207D01*
X29679569Y-3018682D01*
X29645805Y-2995736D01*
X29642030Y-2994226D01*
X29642028Y-2994225D01*
X29593978Y-2975007D01*
X29556820Y-2960145D01*
X29502177Y-2951099D01*
X29476235Y-2946804D01*
X29476232Y-2946804D01*
X29473189Y-2946300D01*
X28939489Y-2946300D01*
X28937466Y-2946520D01*
X28937462Y-2946520D01*
X28924623Y-2947915D01*
X28867223Y-2954151D01*
X28863368Y-2955448D01*
X28863365Y-2955449D01*
X28828094Y-2967319D01*
X28776390Y-2984719D01*
X28694240Y-3034080D01*
X28691282Y-3036878D01*
X28691281Y-3036878D01*
X28640592Y-3084811D01*
X28624605Y-3099929D01*
X28570736Y-3179195D01*
X28569226Y-3182970D01*
X28569225Y-3182972D01*
X28554728Y-3219218D01*
X28535145Y-3268180D01*
X28526623Y-3319658D01*
X28522235Y-3346165D01*
X28521300Y-3351811D01*
X28521300Y-3521600D01*
X28511225Y-3559200D01*
X28483700Y-3586725D01*
X28446100Y-3596800D01*
X28153900Y-3596800D01*
X28116300Y-3586725D01*
X28088775Y-3559200D01*
X28078700Y-3521600D01*
X28078700Y-3364489D01*
X28070849Y-3292223D01*
X28066612Y-3279631D01*
X28049525Y-3228860D01*
X28040281Y-3201390D01*
X28019888Y-3167450D01*
X27993015Y-3122725D01*
X27993013Y-3122722D01*
X27990920Y-3119239D01*
X27947195Y-3073001D01*
X27927865Y-3052559D01*
X27927862Y-3052557D01*
X27925071Y-3049605D01*
X27921543Y-3047207D01*
X27879569Y-3018682D01*
X27845805Y-2995736D01*
X27842030Y-2994226D01*
X27842028Y-2994225D01*
X27793978Y-2975007D01*
X27756820Y-2960145D01*
X27702177Y-2951099D01*
X27676235Y-2946804D01*
X27676232Y-2946804D01*
X27673189Y-2946300D01*
X27139489Y-2946300D01*
X27137466Y-2946520D01*
X27137462Y-2946520D01*
X27124623Y-2947915D01*
X27067223Y-2954151D01*
X27063368Y-2955448D01*
X27063365Y-2955449D01*
X27028094Y-2967319D01*
X26976390Y-2984719D01*
X26894240Y-3034080D01*
X26891282Y-3036878D01*
X26891281Y-3036878D01*
X26840592Y-3084811D01*
X26824605Y-3099929D01*
X26770736Y-3179195D01*
X26769226Y-3182970D01*
X26769225Y-3182972D01*
X26754728Y-3219218D01*
X26735145Y-3268180D01*
X26726623Y-3319658D01*
X26722235Y-3346165D01*
X26721300Y-3351811D01*
X26721300Y-3521600D01*
X26711225Y-3559200D01*
X26683700Y-3586725D01*
X26646100Y-3596800D01*
X25015316Y-3596800D01*
X24977716Y-3586725D01*
X24962142Y-3574774D01*
X24525226Y-3137858D01*
X24505762Y-3104147D01*
X24503200Y-3084684D01*
X24503200Y-2200000D01*
X26197600Y-2200000D01*
X26198243Y-2204884D01*
X26206631Y-2268595D01*
X26207904Y-2278267D01*
X26238114Y-2351200D01*
X26241112Y-2355107D01*
X26282895Y-2409559D01*
X26286171Y-2413829D01*
X26290078Y-2416827D01*
X26303745Y-2427314D01*
X26348800Y-2461886D01*
X26421733Y-2492096D01*
X26426611Y-2492738D01*
X26426614Y-2492739D01*
X26495116Y-2501757D01*
X26500000Y-2502400D01*
X26504884Y-2501757D01*
X26573386Y-2492739D01*
X26573389Y-2492738D01*
X26578267Y-2492096D01*
X26651200Y-2461886D01*
X26696255Y-2427314D01*
X26709922Y-2416827D01*
X26713829Y-2413829D01*
X26716827Y-2409922D01*
X26717190Y-2409559D01*
X26750901Y-2390095D01*
X26789827Y-2390095D01*
X26823538Y-2409559D01*
X26834138Y-2422884D01*
X26852753Y-2452674D01*
X26857942Y-2459222D01*
X26913658Y-2515328D01*
X26920170Y-2520564D01*
X26986931Y-2562933D01*
X26994445Y-2566598D01*
X27068939Y-2593123D01*
X27077066Y-2595029D01*
X27136656Y-2602135D01*
X27141117Y-2602400D01*
X27199598Y-2602400D01*
X27207408Y-2600308D01*
X27209500Y-2592498D01*
X27590499Y-2592498D01*
X27592591Y-2600308D01*
X27600401Y-2602400D01*
X27657678Y-2602400D01*
X27661888Y-2602164D01*
X27720250Y-2595618D01*
X27728410Y-2593765D01*
X27803080Y-2567761D01*
X27810614Y-2564152D01*
X27877671Y-2522250D01*
X27884221Y-2517058D01*
X27940329Y-2461342D01*
X27945564Y-2454830D01*
X27987933Y-2388069D01*
X27991598Y-2380555D01*
X28018123Y-2306061D01*
X28020029Y-2297934D01*
X28027135Y-2238344D01*
X28027400Y-2233883D01*
X28027400Y-2125402D01*
X28027400Y-2125401D01*
X28572600Y-2125401D01*
X28572600Y-2232678D01*
X28572836Y-2236888D01*
X28579382Y-2295250D01*
X28581235Y-2303410D01*
X28607239Y-2378080D01*
X28610849Y-2385614D01*
X28652751Y-2452672D01*
X28657942Y-2459222D01*
X28713658Y-2515328D01*
X28720170Y-2520564D01*
X28786931Y-2562933D01*
X28794445Y-2566598D01*
X28868939Y-2593123D01*
X28877066Y-2595029D01*
X28936656Y-2602135D01*
X28941117Y-2602400D01*
X28999598Y-2602400D01*
X29007408Y-2600308D01*
X29009500Y-2592498D01*
X29390499Y-2592498D01*
X29392591Y-2600308D01*
X29400401Y-2602400D01*
X29457678Y-2602400D01*
X29461888Y-2602164D01*
X29520250Y-2595618D01*
X29528410Y-2593765D01*
X29603080Y-2567761D01*
X29610614Y-2564152D01*
X29677671Y-2522250D01*
X29684221Y-2517058D01*
X29740329Y-2461342D01*
X29745564Y-2454830D01*
X29787933Y-2388069D01*
X29791598Y-2380555D01*
X29818123Y-2306061D01*
X29820029Y-2297934D01*
X29827135Y-2238344D01*
X29827400Y-2233883D01*
X29827400Y-2125402D01*
X29825308Y-2117592D01*
X29817498Y-2115500D01*
X29400402Y-2115500D01*
X29392592Y-2117592D01*
X29390500Y-2125402D01*
X29390499Y-2592498D01*
X29009500Y-2592498D01*
X29009500Y-2125402D01*
X29007408Y-2117592D01*
X28999598Y-2115500D01*
X28582502Y-2115499D01*
X28574692Y-2117591D01*
X28572600Y-2125401D01*
X28027400Y-2125401D01*
X28025308Y-2117592D01*
X28017498Y-2115500D01*
X27600402Y-2115500D01*
X27592592Y-2117592D01*
X27590500Y-2125402D01*
X27590499Y-2592498D01*
X27209500Y-2592498D01*
X27209500Y-2125402D01*
X27207408Y-2117592D01*
X27199598Y-2115500D01*
X26839761Y-2115499D01*
X26802161Y-2105424D01*
X26774636Y-2077899D01*
X26770285Y-2069077D01*
X26767313Y-2061902D01*
X26767313Y-2061901D01*
X30372600Y-2061901D01*
X30372600Y-2232678D01*
X30372836Y-2236888D01*
X30379382Y-2295250D01*
X30381235Y-2303410D01*
X30407239Y-2378080D01*
X30410849Y-2385614D01*
X30452751Y-2452672D01*
X30457942Y-2459222D01*
X30513658Y-2515328D01*
X30520170Y-2520564D01*
X30586931Y-2562933D01*
X30594445Y-2566598D01*
X30668939Y-2593123D01*
X30677066Y-2595029D01*
X30736656Y-2602135D01*
X30741117Y-2602400D01*
X30863098Y-2602400D01*
X30870908Y-2600308D01*
X30873000Y-2592498D01*
X31126999Y-2592498D01*
X31129091Y-2600308D01*
X31136901Y-2602400D01*
X31257678Y-2602400D01*
X31261888Y-2602164D01*
X31320250Y-2595618D01*
X31328410Y-2593765D01*
X31403080Y-2567761D01*
X31410614Y-2564152D01*
X31477671Y-2522250D01*
X31484221Y-2517058D01*
X31540329Y-2461342D01*
X31545564Y-2454830D01*
X31587933Y-2388069D01*
X31591598Y-2380555D01*
X31618123Y-2306061D01*
X31620029Y-2297934D01*
X31627135Y-2238344D01*
X31627400Y-2233883D01*
X31627400Y-2061902D01*
X31625308Y-2054092D01*
X31617498Y-2052000D01*
X31136902Y-2051999D01*
X31129092Y-2054091D01*
X31127000Y-2061901D01*
X31126999Y-2592498D01*
X30873000Y-2592498D01*
X30873001Y-2061902D01*
X30870909Y-2054092D01*
X30863099Y-2052000D01*
X30382502Y-2051999D01*
X30374692Y-2054091D01*
X30372600Y-2061901D01*
X26767313Y-2061901D01*
X26761886Y-2048800D01*
X26713829Y-1986171D01*
X26651200Y-1938114D01*
X26578267Y-1907904D01*
X26573389Y-1907262D01*
X26573386Y-1907261D01*
X26504884Y-1898243D01*
X26500000Y-1897600D01*
X26495116Y-1898243D01*
X26426614Y-1907261D01*
X26426611Y-1907262D01*
X26421733Y-1907904D01*
X26348800Y-1938114D01*
X26286171Y-1986171D01*
X26238114Y-2048800D01*
X26207904Y-2121733D01*
X26207262Y-2126611D01*
X26207261Y-2126614D01*
X26200031Y-2181533D01*
X26197600Y-2200000D01*
X24503200Y-2200000D01*
X24503200Y-1897656D01*
X24513275Y-1860056D01*
X24519679Y-1850679D01*
X24529286Y-1838671D01*
X24558672Y-1801938D01*
X24610013Y-1737762D01*
X24610015Y-1737760D01*
X24610854Y-1736712D01*
X24624874Y-1719186D01*
X24632788Y-1709293D01*
X24642910Y-1695486D01*
X24643338Y-1694848D01*
X24649529Y-1685611D01*
X24649542Y-1685591D01*
X24649962Y-1684964D01*
X24658892Y-1670342D01*
X24665879Y-1657736D01*
X24673089Y-1641668D01*
X24679241Y-1627955D01*
X24679897Y-1626493D01*
X24683536Y-1616117D01*
X26772600Y-1616117D01*
X26772600Y-1724598D01*
X26774692Y-1732408D01*
X26782502Y-1734500D01*
X27199598Y-1734500D01*
X27207408Y-1732408D01*
X27209500Y-1724598D01*
X27209501Y-1257502D01*
X27590500Y-1257502D01*
X27590500Y-1724598D01*
X27592592Y-1732408D01*
X27600402Y-1734500D01*
X28017498Y-1734501D01*
X28025308Y-1732409D01*
X28027400Y-1724599D01*
X28027400Y-1617322D01*
X28027333Y-1616117D01*
X28572600Y-1616117D01*
X28572600Y-1724598D01*
X28574692Y-1732408D01*
X28582502Y-1734500D01*
X28999598Y-1734500D01*
X29007408Y-1732408D01*
X29009500Y-1724598D01*
X29009501Y-1257502D01*
X29390500Y-1257502D01*
X29390500Y-1724598D01*
X29392592Y-1732408D01*
X29400402Y-1734500D01*
X29817498Y-1734501D01*
X29825308Y-1732409D01*
X29827400Y-1724599D01*
X29827400Y-1617322D01*
X29827333Y-1616117D01*
X30372600Y-1616117D01*
X30372600Y-1788098D01*
X30374692Y-1795908D01*
X30382502Y-1798000D01*
X30863098Y-1798001D01*
X30870908Y-1795909D01*
X30873000Y-1788099D01*
X30873000Y-1788098D01*
X31126999Y-1788098D01*
X31129091Y-1795908D01*
X31136901Y-1798000D01*
X31617498Y-1798001D01*
X31625308Y-1795909D01*
X31627400Y-1788099D01*
X31627400Y-1617322D01*
X31627164Y-1613112D01*
X31620618Y-1554750D01*
X31618765Y-1546590D01*
X31592761Y-1471920D01*
X31589151Y-1464386D01*
X31547249Y-1397328D01*
X31542058Y-1390778D01*
X31486342Y-1334672D01*
X31479830Y-1329436D01*
X31413069Y-1287067D01*
X31405555Y-1283402D01*
X31331061Y-1256877D01*
X31322934Y-1254971D01*
X31263344Y-1247865D01*
X31258883Y-1247600D01*
X31136902Y-1247600D01*
X31129092Y-1249692D01*
X31127000Y-1257502D01*
X31126999Y-1788098D01*
X30873000Y-1788098D01*
X30873001Y-1257502D01*
X30870909Y-1249692D01*
X30863099Y-1247600D01*
X30742322Y-1247600D01*
X30738112Y-1247836D01*
X30679750Y-1254382D01*
X30671590Y-1256235D01*
X30596920Y-1282239D01*
X30589386Y-1285848D01*
X30522329Y-1327750D01*
X30515779Y-1332942D01*
X30459671Y-1388658D01*
X30454436Y-1395170D01*
X30412067Y-1461931D01*
X30408402Y-1469445D01*
X30381877Y-1543939D01*
X30379971Y-1552066D01*
X30372865Y-1611656D01*
X30372600Y-1616117D01*
X29827333Y-1616117D01*
X29827164Y-1613112D01*
X29820618Y-1554750D01*
X29818765Y-1546590D01*
X29792761Y-1471920D01*
X29789151Y-1464386D01*
X29747249Y-1397328D01*
X29742058Y-1390778D01*
X29686342Y-1334672D01*
X29679830Y-1329436D01*
X29613069Y-1287067D01*
X29605555Y-1283402D01*
X29531061Y-1256877D01*
X29522934Y-1254971D01*
X29463344Y-1247865D01*
X29458883Y-1247600D01*
X29400402Y-1247600D01*
X29392592Y-1249692D01*
X29390500Y-1257502D01*
X29009501Y-1257502D01*
X29007409Y-1249692D01*
X28999599Y-1247600D01*
X28942322Y-1247600D01*
X28938112Y-1247836D01*
X28879750Y-1254382D01*
X28871590Y-1256235D01*
X28796920Y-1282239D01*
X28789386Y-1285848D01*
X28722329Y-1327750D01*
X28715779Y-1332942D01*
X28659671Y-1388658D01*
X28654436Y-1395170D01*
X28612067Y-1461931D01*
X28608402Y-1469445D01*
X28581877Y-1543939D01*
X28579971Y-1552066D01*
X28572865Y-1611656D01*
X28572600Y-1616117D01*
X28027333Y-1616117D01*
X28027164Y-1613112D01*
X28020618Y-1554750D01*
X28018765Y-1546590D01*
X27992761Y-1471920D01*
X27989151Y-1464386D01*
X27947249Y-1397328D01*
X27942058Y-1390778D01*
X27886342Y-1334672D01*
X27879830Y-1329436D01*
X27813069Y-1287067D01*
X27805555Y-1283402D01*
X27731061Y-1256877D01*
X27722934Y-1254971D01*
X27663344Y-1247865D01*
X27658883Y-1247600D01*
X27600402Y-1247600D01*
X27592592Y-1249692D01*
X27590500Y-1257502D01*
X27209501Y-1257502D01*
X27207409Y-1249692D01*
X27199599Y-1247600D01*
X27142322Y-1247600D01*
X27138112Y-1247836D01*
X27079750Y-1254382D01*
X27071590Y-1256235D01*
X26996920Y-1282239D01*
X26989386Y-1285848D01*
X26922329Y-1327750D01*
X26915779Y-1332942D01*
X26859671Y-1388658D01*
X26854436Y-1395170D01*
X26812067Y-1461931D01*
X26808402Y-1469445D01*
X26781877Y-1543939D01*
X26779971Y-1552066D01*
X26772865Y-1611656D01*
X26772600Y-1616117D01*
X24683536Y-1616117D01*
X24688257Y-1602662D01*
X24691125Y-1591571D01*
X24696435Y-1571035D01*
X24696437Y-1571028D01*
X24696829Y-1569510D01*
X24697550Y-1565279D01*
X24698600Y-1559110D01*
X24699249Y-1555299D01*
X24701411Y-1538301D01*
X24702478Y-1525677D01*
X24703103Y-1510870D01*
X24703167Y-1509351D01*
X24703167Y-1509340D01*
X24703200Y-1508563D01*
X24703200Y-400000D01*
X27597600Y-400000D01*
X27598243Y-404884D01*
X27606954Y-471049D01*
X27607904Y-478267D01*
X27638114Y-551200D01*
X27686171Y-613829D01*
X27748800Y-661886D01*
X27821733Y-692096D01*
X27826611Y-692738D01*
X27826614Y-692739D01*
X27895116Y-701757D01*
X27900000Y-702400D01*
X27904884Y-701757D01*
X27973386Y-692739D01*
X27973389Y-692738D01*
X27978267Y-692096D01*
X28051200Y-661886D01*
X28113829Y-613829D01*
X28161886Y-551200D01*
X28192096Y-478267D01*
X28193047Y-471049D01*
X28201757Y-404884D01*
X28202400Y-400000D01*
X28196279Y-353503D01*
X28192739Y-326614D01*
X28192738Y-326611D01*
X28192096Y-321733D01*
X28167962Y-263468D01*
X35637601Y-263468D01*
X35637601Y-283098D01*
X35639693Y-290908D01*
X35647503Y-293000D01*
X35963099Y-293001D01*
X35970908Y-290909D01*
X35973000Y-283099D01*
X36226999Y-283099D01*
X36229091Y-290908D01*
X36236901Y-293000D01*
X36552499Y-293001D01*
X36560308Y-290909D01*
X36562400Y-283099D01*
X36562400Y-263469D01*
X36562079Y-258576D01*
X36555495Y-208562D01*
X36552966Y-199121D01*
X36527275Y-137100D01*
X36522393Y-128644D01*
X36481524Y-75382D01*
X36474619Y-68477D01*
X36421357Y-27608D01*
X36412901Y-22726D01*
X36350880Y2965D01*
X36341439Y5494D01*
X36291425Y12078D01*
X36286532Y12399D01*
X36236902Y12399D01*
X36229092Y10307D01*
X36227000Y2497D01*
X36226999Y-283099D01*
X35973000Y-283099D01*
X35973001Y2499D01*
X35970909Y10308D01*
X35963099Y12400D01*
X35913469Y12400D01*
X35908576Y12079D01*
X35858562Y5495D01*
X35849121Y2966D01*
X35787100Y-22725D01*
X35778644Y-27607D01*
X35725382Y-68476D01*
X35718477Y-75381D01*
X35677608Y-128643D01*
X35672726Y-137099D01*
X35647035Y-199120D01*
X35644506Y-208561D01*
X35637922Y-258575D01*
X35637601Y-263468D01*
X28167962Y-263468D01*
X28161886Y-248800D01*
X28129225Y-206236D01*
X28116827Y-190078D01*
X28113829Y-186171D01*
X28103998Y-178627D01*
X28078304Y-158912D01*
X28051200Y-138114D01*
X27978267Y-107904D01*
X27973389Y-107262D01*
X27973386Y-107261D01*
X27904884Y-98243D01*
X27900000Y-97600D01*
X27895116Y-98243D01*
X27826614Y-107261D01*
X27826611Y-107262D01*
X27821733Y-107904D01*
X27748800Y-138114D01*
X27721696Y-158912D01*
X27696003Y-178627D01*
X27686171Y-186171D01*
X27683173Y-190078D01*
X27670775Y-206236D01*
X27638114Y-248800D01*
X27607904Y-321733D01*
X27607262Y-326611D01*
X27607261Y-326614D01*
X27603721Y-353503D01*
X27597600Y-400000D01*
X24703200Y-400000D01*
X24703200Y1042593D01*
X24703089Y1044865D01*
X24702267Y1061575D01*
X24702221Y1062511D01*
X24701834Y1066439D01*
X24700867Y1076263D01*
X24700865Y1076282D01*
X24700776Y1077182D01*
X24700292Y1080450D01*
X24697989Y1095977D01*
X24697987Y1095986D01*
X24697851Y1096906D01*
X24694602Y1113240D01*
X24690896Y1125459D01*
X24683573Y1149596D01*
X24683039Y1151357D01*
X24674665Y1171575D01*
X24672520Y1176754D01*
X24672517Y1176760D01*
X24671813Y1178460D01*
X24653043Y1213581D01*
X24652018Y1215115D01*
X24652014Y1215122D01*
X24649023Y1219598D01*
X24647987Y1221149D01*
X24633102Y1239287D01*
X24623887Y1250517D01*
X24623881Y1250524D01*
X24622708Y1251953D01*
X24601953Y1272708D01*
X24600524Y1273881D01*
X24600517Y1273887D01*
X24579932Y1290779D01*
X24571149Y1297987D01*
X24566876Y1300842D01*
X24565122Y1302014D01*
X24565115Y1302018D01*
X24563581Y1303043D01*
X24528460Y1321813D01*
X24526760Y1322517D01*
X24526754Y1322520D01*
X24508578Y1330048D01*
X24501357Y1333039D01*
X24488147Y1337046D01*
X24465005Y1344067D01*
X24464997Y1344069D01*
X24463240Y1344602D01*
X24452276Y1346783D01*
X24447817Y1347670D01*
X24447809Y1347671D01*
X24446906Y1347851D01*
X24442861Y1348451D01*
X24407149Y1363935D01*
X24383962Y1395202D01*
X24378700Y1422836D01*
X24378700Y2263098D01*
X24860100Y2263098D01*
X24860100Y2120968D01*
X24860421Y2116075D01*
X24866920Y2066708D01*
X24869449Y2057267D01*
X24894890Y1995849D01*
X24899772Y1987393D01*
X24940244Y1934649D01*
X24947149Y1927744D01*
X24999893Y1887272D01*
X25008349Y1882390D01*
X25069767Y1856949D01*
X25079208Y1854420D01*
X25128575Y1847921D01*
X25133468Y1847600D01*
X25150598Y1847600D01*
X25158408Y1849692D01*
X25160500Y1857502D01*
X25160500Y2263098D01*
X25414500Y2263098D01*
X25414500Y1857502D01*
X25416592Y1849692D01*
X25424402Y1847600D01*
X25441532Y1847600D01*
X25446425Y1847921D01*
X25495792Y1854420D01*
X25505233Y1856949D01*
X25566651Y1882390D01*
X25575107Y1887272D01*
X25627851Y1927744D01*
X25634756Y1934649D01*
X25675228Y1987393D01*
X25680110Y1995849D01*
X25705551Y2057267D01*
X25708080Y2066708D01*
X25714579Y2116075D01*
X25714900Y2120968D01*
X25714900Y2263098D01*
X25712808Y2270908D01*
X25704998Y2273000D01*
X25424402Y2273000D01*
X25416592Y2270908D01*
X25414500Y2263098D01*
X25160500Y2263098D01*
X25158408Y2270908D01*
X25150598Y2273000D01*
X24870002Y2273000D01*
X24862192Y2270908D01*
X24860100Y2263098D01*
X24378700Y2263098D01*
X24378700Y2300000D01*
X26197600Y2300000D01*
X26198243Y2295116D01*
X26207080Y2227994D01*
X26207904Y2221733D01*
X26238114Y2148800D01*
X26286171Y2086171D01*
X26290078Y2083173D01*
X26314929Y2064104D01*
X26348800Y2038114D01*
X26421733Y2007904D01*
X26426611Y2007262D01*
X26426614Y2007261D01*
X26495116Y1998243D01*
X26500000Y1997600D01*
X26504884Y1998243D01*
X26573386Y2007261D01*
X26573389Y2007262D01*
X26578267Y2007904D01*
X26651200Y2038114D01*
X26685071Y2064104D01*
X26709922Y2083173D01*
X26713829Y2086171D01*
X26761886Y2148800D01*
X26792096Y2221733D01*
X26792921Y2227994D01*
X26801757Y2295116D01*
X26802400Y2300000D01*
X26798116Y2332540D01*
X26792739Y2373386D01*
X26792738Y2373389D01*
X26792096Y2378267D01*
X26761886Y2451200D01*
X26718751Y2507415D01*
X26716827Y2509922D01*
X26713829Y2513829D01*
X26709293Y2517310D01*
X26655520Y2558571D01*
X26651200Y2561886D01*
X26578267Y2592096D01*
X26573389Y2592738D01*
X26573386Y2592739D01*
X26504884Y2601757D01*
X26500000Y2602400D01*
X26495116Y2601757D01*
X26426614Y2592739D01*
X26426611Y2592738D01*
X26421733Y2592096D01*
X26348800Y2561886D01*
X26344480Y2558571D01*
X26290708Y2517310D01*
X26286171Y2513829D01*
X26283173Y2509922D01*
X26281249Y2507415D01*
X26238114Y2451200D01*
X26207904Y2378267D01*
X26207262Y2373389D01*
X26207261Y2373386D01*
X26201884Y2332540D01*
X26197600Y2300000D01*
X24378700Y2300000D01*
X24378700Y2425496D01*
X24371559Y2498321D01*
X24356909Y2546845D01*
X24353700Y2568580D01*
X24353700Y2679032D01*
X24860100Y2679032D01*
X24860100Y2536902D01*
X24862192Y2529092D01*
X24870002Y2527000D01*
X25150598Y2527000D01*
X25158408Y2529092D01*
X25160500Y2536902D01*
X25160500Y2942498D01*
X25414500Y2942498D01*
X25414500Y2536902D01*
X25416592Y2529092D01*
X25424402Y2527000D01*
X25704998Y2527000D01*
X25712808Y2529092D01*
X25714900Y2536902D01*
X25714900Y2679032D01*
X25714579Y2683925D01*
X25708080Y2733292D01*
X25705551Y2742733D01*
X25680110Y2804151D01*
X25675228Y2812607D01*
X25634756Y2865351D01*
X25627851Y2872256D01*
X25575107Y2912728D01*
X25566651Y2917610D01*
X25505233Y2943051D01*
X25495792Y2945580D01*
X25446425Y2952079D01*
X25441532Y2952400D01*
X25424402Y2952400D01*
X25416592Y2950308D01*
X25414500Y2942498D01*
X25160500Y2942498D01*
X25158408Y2950308D01*
X25150598Y2952400D01*
X25133468Y2952400D01*
X25128575Y2952079D01*
X25079208Y2945580D01*
X25069767Y2943051D01*
X25008349Y2917610D01*
X24999893Y2912728D01*
X24947149Y2872256D01*
X24940244Y2865351D01*
X24899772Y2812607D01*
X24894890Y2804151D01*
X24869449Y2742733D01*
X24866920Y2733292D01*
X24860421Y2683925D01*
X24860100Y2679032D01*
X24353700Y2679032D01*
X24353700Y2683159D01*
X24348698Y2724495D01*
X24346824Y2739984D01*
X24346823Y2739988D01*
X24346279Y2744484D01*
X24337873Y2766730D01*
X24318690Y2817497D01*
X24318688Y2817501D01*
X24317088Y2821735D01*
X24277776Y2878934D01*
X24272881Y2886057D01*
X24272880Y2886059D01*
X24270313Y2889793D01*
X24265677Y2893924D01*
X24238140Y2918458D01*
X24208654Y2944729D01*
X24204649Y2946849D01*
X24204647Y2946851D01*
X24139679Y2981250D01*
X24139678Y2981250D01*
X24135671Y2983372D01*
X24055577Y3003490D01*
X24052239Y3003700D01*
X23716841Y3003700D01*
X23689472Y3000388D01*
X23660016Y2996824D01*
X23660012Y2996823D01*
X23655516Y2996279D01*
X23633593Y2987995D01*
X23582503Y2968690D01*
X23582499Y2968688D01*
X23578265Y2967088D01*
X23533931Y2936618D01*
X23514472Y2923244D01*
X23510207Y2920313D01*
X23507191Y2916928D01*
X23507190Y2916927D01*
X23497803Y2906391D01*
X23455271Y2858654D01*
X23453151Y2854649D01*
X23453149Y2854647D01*
X23421772Y2795387D01*
X23416628Y2785671D01*
X23396510Y2705577D01*
X23396300Y2702239D01*
X23396300Y2568705D01*
X23392780Y2545967D01*
X23379862Y2505244D01*
X23377945Y2488154D01*
X23371647Y2432009D01*
X23371300Y2428917D01*
X23371301Y1891386D01*
X23371301Y1428400D01*
X23361226Y1390800D01*
X23333701Y1363275D01*
X23296101Y1353200D01*
X23157407Y1353200D01*
X23156501Y1353155D01*
X23156482Y1353155D01*
X23138648Y1352278D01*
X23137489Y1352221D01*
X23136565Y1352130D01*
X23123737Y1350867D01*
X23123718Y1350865D01*
X23122818Y1350776D01*
X23121905Y1350641D01*
X23121892Y1350639D01*
X23104023Y1347989D01*
X23104014Y1347987D01*
X23103094Y1347851D01*
X23102191Y1347671D01*
X23102183Y1347670D01*
X23097724Y1346783D01*
X23086760Y1344602D01*
X23085003Y1344069D01*
X23084995Y1344067D01*
X23061853Y1337046D01*
X23048643Y1333039D01*
X23041422Y1330048D01*
X23023246Y1322520D01*
X23023240Y1322517D01*
X23021540Y1321813D01*
X22986419Y1303043D01*
X22984885Y1302018D01*
X22984878Y1302014D01*
X22983124Y1300842D01*
X22978851Y1297987D01*
X22970068Y1290779D01*
X22949483Y1273887D01*
X22949476Y1273881D01*
X22948047Y1272708D01*
X22927292Y1251953D01*
X22926119Y1250524D01*
X22926113Y1250517D01*
X22916898Y1239287D01*
X22902013Y1221149D01*
X22900977Y1219598D01*
X22897986Y1215122D01*
X22897982Y1215115D01*
X22896957Y1213581D01*
X22878187Y1178460D01*
X22877483Y1176760D01*
X22877480Y1176754D01*
X22875335Y1171575D01*
X22866961Y1151357D01*
X22866427Y1149596D01*
X22859105Y1125459D01*
X22855398Y1113240D01*
X22852149Y1096906D01*
X22852013Y1095986D01*
X22852011Y1095977D01*
X22849709Y1080450D01*
X22849224Y1077182D01*
X22849135Y1076282D01*
X22849133Y1076263D01*
X22848166Y1066439D01*
X22847779Y1062511D01*
X22847733Y1061575D01*
X22846912Y1044865D01*
X22846800Y1042593D01*
X22846800Y-1565727D01*
X22844555Y-1583965D01*
X22834117Y-1625718D01*
X22806412Y-1736540D01*
X22804994Y-1742607D01*
X22804015Y-1747105D01*
X22802787Y-1753193D01*
X22801813Y-1758434D01*
X22801391Y-1761165D01*
X22800641Y-1766027D01*
X22799916Y-1770719D01*
X22798791Y-1779852D01*
X22797649Y-1792245D01*
X22797617Y-1792773D01*
X22797339Y-1797287D01*
X22797336Y-1797340D01*
X22797323Y-1797556D01*
X22797036Y-1803789D01*
X22796895Y-1808396D01*
X22796800Y-1814612D01*
X22796800Y-4542715D01*
X22796993Y-4551574D01*
X22797279Y-4558128D01*
X22797859Y-4566979D01*
X22797897Y-4567408D01*
X22805135Y-4650141D01*
X22807634Y-4678709D01*
X22809948Y-4696282D01*
X22812223Y-4709185D01*
X22816060Y-4726493D01*
X22844237Y-4831653D01*
X22849571Y-4848569D01*
X22854055Y-4860887D01*
X22854353Y-4861606D01*
X22854361Y-4861627D01*
X22860523Y-4876502D01*
X22860835Y-4877255D01*
X22861182Y-4877999D01*
X22861185Y-4878006D01*
X22901861Y-4965237D01*
X22906839Y-4975912D01*
X22915024Y-4991636D01*
X22921578Y-5002988D01*
X22922019Y-5003681D01*
X22922031Y-5003700D01*
X22930671Y-5017262D01*
X22931104Y-5017941D01*
X22931563Y-5018596D01*
X22931568Y-5018604D01*
X22987960Y-5099138D01*
X22993546Y-5107116D01*
X22994036Y-5107755D01*
X22994040Y-5107760D01*
X23003076Y-5119535D01*
X23004341Y-5121184D01*
X23004855Y-5121797D01*
X23004857Y-5121799D01*
X23005407Y-5122454D01*
X23021863Y-5157731D01*
X23018476Y-5196510D01*
X22996153Y-5228400D01*
X22960876Y-5244856D01*
X22947807Y-5246000D01*
X19077600Y-5246000D01*
X19040000Y-5235925D01*
X19012475Y-5208400D01*
X19002400Y-5170800D01*
X19002400Y-4273533D01*
X19001525Y-4263103D01*
X19000399Y-4249701D01*
X19000399Y-4249699D01*
X19000266Y-4248118D01*
X18996083Y-4223386D01*
X18995869Y-4222313D01*
X18995090Y-4218420D01*
X18995089Y-4218417D01*
X18994297Y-4214457D01*
X18971864Y-4163139D01*
X18949984Y-4130944D01*
X18949083Y-4129816D01*
X18948219Y-4128644D01*
X18948565Y-4128389D01*
X18933732Y-4094436D01*
X18938070Y-4055753D01*
X18944592Y-4042898D01*
X18963381Y-4013291D01*
X18963384Y-4013284D01*
X18965636Y-4009736D01*
X18967045Y-4005779D01*
X18967047Y-4005775D01*
X18993610Y-3931175D01*
X18995019Y-3927219D01*
X19002900Y-3861125D01*
X19002900Y-3800402D01*
X19397600Y-3800402D01*
X19397600Y-3857679D01*
X19397836Y-3861889D01*
X19404382Y-3920251D01*
X19406235Y-3928411D01*
X19432239Y-4003081D01*
X19435848Y-4010615D01*
X19477750Y-4077672D01*
X19482942Y-4084222D01*
X19538658Y-4140328D01*
X19545170Y-4145564D01*
X19611931Y-4187933D01*
X19619445Y-4191598D01*
X19693939Y-4218123D01*
X19702066Y-4220029D01*
X19761656Y-4227135D01*
X19766117Y-4227400D01*
X19874598Y-4227400D01*
X19882408Y-4225308D01*
X19884500Y-4217498D01*
X19884500Y-3800402D01*
X20265500Y-3800402D01*
X20265500Y-4217498D01*
X20267592Y-4225308D01*
X20275402Y-4227400D01*
X20382679Y-4227400D01*
X20386889Y-4227164D01*
X20445251Y-4220618D01*
X20453411Y-4218765D01*
X20528081Y-4192761D01*
X20535615Y-4189152D01*
X20602672Y-4147250D01*
X20609222Y-4142058D01*
X20665328Y-4086342D01*
X20670564Y-4079830D01*
X20712933Y-4013069D01*
X20716598Y-4005555D01*
X20743123Y-3931061D01*
X20745029Y-3922934D01*
X20752135Y-3863344D01*
X20752400Y-3858883D01*
X20752400Y-3800402D01*
X20750308Y-3792592D01*
X20742498Y-3790500D01*
X20275402Y-3790500D01*
X20267592Y-3792592D01*
X20265500Y-3800402D01*
X19884500Y-3800402D01*
X19882408Y-3792592D01*
X19874598Y-3790500D01*
X19407502Y-3790500D01*
X19399692Y-3792592D01*
X19397600Y-3800402D01*
X19002900Y-3800402D01*
X19002900Y-3730401D01*
X21297600Y-3730401D01*
X21297600Y-3953419D01*
X21297897Y-3958140D01*
X21304871Y-4013350D01*
X21307205Y-4022440D01*
X21334164Y-4090529D01*
X21338687Y-4098758D01*
X21381731Y-4158002D01*
X21388160Y-4164848D01*
X21444587Y-4211529D01*
X21452511Y-4216557D01*
X21518771Y-4247738D01*
X21527705Y-4250641D01*
X21591111Y-4262736D01*
X21598136Y-4263400D01*
X21663098Y-4263400D01*
X21670908Y-4261308D01*
X21673000Y-4253498D01*
X21926999Y-4253498D01*
X21929091Y-4261308D01*
X21936901Y-4263400D01*
X21992419Y-4263400D01*
X21997140Y-4263103D01*
X22052350Y-4256129D01*
X22061440Y-4253795D01*
X22129529Y-4226836D01*
X22137758Y-4222313D01*
X22197002Y-4179269D01*
X22203848Y-4172840D01*
X22250531Y-4116410D01*
X22255555Y-4108493D01*
X22286738Y-4042226D01*
X22289640Y-4033296D01*
X22301735Y-3969889D01*
X22302399Y-3962864D01*
X22302399Y-3730402D01*
X22300307Y-3722592D01*
X22292497Y-3720500D01*
X21936901Y-3720499D01*
X21929092Y-3722591D01*
X21927000Y-3730401D01*
X21926999Y-4253498D01*
X21673000Y-4253498D01*
X21673001Y-3730402D01*
X21670909Y-3722592D01*
X21663099Y-3720500D01*
X21307501Y-3720499D01*
X21299692Y-3722591D01*
X21297600Y-3730401D01*
X19002900Y-3730401D01*
X19002900Y-3340213D01*
X19002665Y-3338114D01*
X18996105Y-3279631D01*
X18996104Y-3279627D01*
X18995636Y-3275454D01*
X18990606Y-3261008D01*
X18969113Y-3199290D01*
X18966830Y-3192734D01*
X18951031Y-3167450D01*
X18939650Y-3130224D01*
X18948407Y-3092295D01*
X18974954Y-3063827D01*
X19014804Y-3052400D01*
X19385655Y-3052400D01*
X19423255Y-3062475D01*
X19450780Y-3090000D01*
X19460855Y-3127600D01*
X19449148Y-3167895D01*
X19437067Y-3186931D01*
X19433402Y-3194445D01*
X19406877Y-3268939D01*
X19404971Y-3277066D01*
X19397865Y-3336656D01*
X19397600Y-3341117D01*
X19397600Y-3399598D01*
X19399692Y-3407408D01*
X19407502Y-3409500D01*
X20742498Y-3409500D01*
X20750308Y-3407408D01*
X20752400Y-3399598D01*
X20752400Y-3342321D01*
X20752164Y-3338111D01*
X20745618Y-3279749D01*
X20743765Y-3271589D01*
X20717761Y-3196919D01*
X20714151Y-3189385D01*
X20700445Y-3167450D01*
X20689064Y-3130224D01*
X20697821Y-3092295D01*
X20724368Y-3063827D01*
X20764218Y-3052400D01*
X21239772Y-3052400D01*
X21277372Y-3062475D01*
X21304897Y-3090000D01*
X21314972Y-3127600D01*
X21311291Y-3150841D01*
X21310360Y-3153707D01*
X21298265Y-3217111D01*
X21297601Y-3224136D01*
X21297601Y-3456598D01*
X21299693Y-3464408D01*
X21307503Y-3466500D01*
X21672997Y-3466501D01*
X21673005Y-3466500D01*
X22292498Y-3466501D01*
X22300308Y-3464409D01*
X22302400Y-3456599D01*
X22302400Y-3233581D01*
X22302103Y-3228860D01*
X22295129Y-3173650D01*
X22292795Y-3164560D01*
X22265836Y-3096471D01*
X22261310Y-3088237D01*
X22243525Y-3063758D01*
X22229575Y-3027417D01*
X22235664Y-2988970D01*
X22247926Y-2970367D01*
X22247688Y-2970163D01*
X22259736Y-2956100D01*
X22262942Y-2952358D01*
X22273138Y-2931067D01*
X22273933Y-2929458D01*
X22278702Y-2920100D01*
X22295344Y-2887438D01*
X22302900Y-2839735D01*
X22302900Y-2523266D01*
X22302567Y-2521164D01*
X22302400Y-2516914D01*
X22302400Y2324800D01*
X22301381Y2332540D01*
X22297528Y2361809D01*
X22297527Y2361815D01*
X22297207Y2364244D01*
X22290681Y2388600D01*
X22287506Y2400450D01*
X22287503Y2400461D01*
X22287132Y2401844D01*
X22279340Y2423958D01*
X22247688Y2470163D01*
X22220163Y2497688D01*
X22217465Y2500000D01*
X22206100Y2509736D01*
X22206101Y2509736D01*
X22202358Y2512942D01*
X22151844Y2537132D01*
X22148487Y2538032D01*
X22148483Y2538033D01*
X22124432Y2544477D01*
X22114244Y2547207D01*
X22111815Y2547527D01*
X22111809Y2547528D01*
X22077233Y2552080D01*
X22077228Y2552080D01*
X22074800Y2552400D01*
X15484427Y2552400D01*
X15473409Y2552001D01*
X15472713Y2551951D01*
X15472703Y2551950D01*
X15466882Y2551528D01*
X15462566Y2551215D01*
X15439261Y2545526D01*
X15400347Y2546397D01*
X15367079Y2566609D01*
X15349307Y2597288D01*
X15339440Y2630709D01*
X15339209Y2631507D01*
X15336748Y2640230D01*
X15265463Y2795891D01*
X15265171Y2796540D01*
X15261482Y2804859D01*
X15259910Y2807302D01*
X15259014Y2808963D01*
X15250000Y2844662D01*
X15250000Y3250000D01*
X14872504Y3250000D01*
X14831809Y3261963D01*
X14764560Y3305240D01*
X14763863Y3305694D01*
X14756266Y3310714D01*
X14748671Y3314192D01*
X14600670Y3381969D01*
X14599850Y3382351D01*
X14594361Y3384945D01*
X14591731Y3386188D01*
X14427600Y3434642D01*
X14426760Y3434896D01*
X14420926Y3436696D01*
X14420916Y3436698D01*
X14418151Y3437551D01*
X14248790Y3462227D01*
X14247959Y3462353D01*
X14239039Y3463763D01*
X14236136Y3463770D01*
X14236132Y3463770D01*
X14082529Y3464122D01*
X14067876Y3464156D01*
X14066976Y3464164D01*
X14058017Y3464293D01*
X13888546Y3440395D01*
X13887878Y3440304D01*
X13878758Y3439131D01*
X13733457Y3396960D01*
X13714503Y3391459D01*
X13713634Y3391212D01*
X13704879Y3388786D01*
X13557012Y3321890D01*
X13554915Y3320980D01*
X13546761Y3317586D01*
X13546754Y3317583D01*
X13544072Y3316466D01*
X13541595Y3314950D01*
X13540982Y3314638D01*
X13539985Y3314187D01*
X13539528Y3313896D01*
X13538997Y3313625D01*
X13538708Y3314192D01*
X13502516Y3304000D01*
X5830600Y3304000D01*
X5793000Y3314075D01*
X5765475Y3341600D01*
X5755400Y3379200D01*
X5755400Y3619932D01*
X5765475Y3657532D01*
X5793000Y3685057D01*
X5830600Y3695132D01*
X5851075Y3692291D01*
X5923469Y3671806D01*
X5923471Y3671806D01*
X5927389Y3670697D01*
X5979522Y3667600D01*
X6017207Y3665361D01*
X6017210Y3665361D01*
X6021269Y3665120D01*
X6114157Y3679832D01*
X6117946Y3681317D01*
X6117950Y3681318D01*
X6175176Y3703745D01*
X6201719Y3714147D01*
X6205106Y3716415D01*
X6205109Y3716416D01*
X6276484Y3764197D01*
X6276486Y3764198D01*
X6279870Y3766464D01*
X6312029Y3800000D01*
X8897600Y3800000D01*
X8898243Y3795116D01*
X8906951Y3728974D01*
X8907904Y3721733D01*
X8938114Y3648800D01*
X8986171Y3586171D01*
X9048800Y3538114D01*
X9121733Y3507904D01*
X9126611Y3507262D01*
X9126614Y3507261D01*
X9195116Y3498243D01*
X9200000Y3497600D01*
X9204884Y3498243D01*
X9273386Y3507261D01*
X9273389Y3507262D01*
X9278267Y3507904D01*
X9351200Y3538114D01*
X9413829Y3586171D01*
X9461886Y3648800D01*
X9492096Y3721733D01*
X9493050Y3728974D01*
X9501757Y3795116D01*
X9502400Y3800000D01*
X9498449Y3830012D01*
X9492739Y3873386D01*
X9492738Y3873389D01*
X9492096Y3878267D01*
X9461886Y3951200D01*
X9418665Y4007527D01*
X9416827Y4009922D01*
X9413829Y4013829D01*
X9351200Y4061886D01*
X9278267Y4092096D01*
X9273389Y4092738D01*
X9273386Y4092739D01*
X9218231Y4100000D01*
X30997600Y4100000D01*
X30998243Y4095116D01*
X31007251Y4026695D01*
X31007904Y4021733D01*
X31038114Y3948800D01*
X31086171Y3886171D01*
X31148800Y3838114D01*
X31221733Y3807904D01*
X31226611Y3807262D01*
X31226614Y3807261D01*
X31295116Y3798243D01*
X31300000Y3797600D01*
X31304884Y3798243D01*
X31373386Y3807261D01*
X31373389Y3807262D01*
X31378267Y3807904D01*
X31451200Y3838114D01*
X31513829Y3886171D01*
X31561886Y3948800D01*
X31592096Y4021733D01*
X31592750Y4026695D01*
X31601757Y4095116D01*
X31602400Y4100000D01*
X31599906Y4118947D01*
X31592739Y4173386D01*
X31592738Y4173389D01*
X31592096Y4178267D01*
X31561886Y4251200D01*
X31555551Y4259457D01*
X34126796Y4259457D01*
X34127767Y4255200D01*
X34128435Y4252273D01*
X34146132Y4174689D01*
X34148059Y4170765D01*
X34148059Y4170764D01*
X34180405Y4104884D01*
X34184451Y4096643D01*
X34187224Y4093273D01*
X34187226Y4093270D01*
X34206408Y4069960D01*
X34239697Y4029505D01*
X34243178Y4026858D01*
X34243180Y4026856D01*
X34274188Y4003277D01*
X34308906Y3976877D01*
X34388365Y3941583D01*
X34399091Y3939566D01*
X34469521Y3926321D01*
X34469522Y3926321D01*
X34473813Y3925514D01*
X34498249Y3926645D01*
X34556307Y3929332D01*
X34556309Y3929332D01*
X34560666Y3929534D01*
X34564860Y3930733D01*
X34564862Y3930733D01*
X34601676Y3941255D01*
X34644264Y3953427D01*
X34682970Y3975103D01*
X34716309Y3993773D01*
X34716312Y3993775D01*
X34720124Y3995910D01*
X34784176Y4054706D01*
X34814412Y4099281D01*
X34830530Y4123042D01*
X34830531Y4123043D01*
X34832984Y4126660D01*
X34838719Y4141717D01*
X34862375Y4203828D01*
X34862376Y4203832D01*
X34863930Y4207912D01*
X34875354Y4294103D01*
X34875400Y4300000D01*
X34874735Y4305708D01*
X34865837Y4382021D01*
X34865331Y4386361D01*
X34863250Y4392096D01*
X34846188Y4439099D01*
X34835666Y4468089D01*
X34795067Y4530012D01*
X34790392Y4537143D01*
X34790390Y4537145D01*
X34787994Y4540800D01*
X34728811Y4596865D01*
X34728041Y4597594D01*
X34724873Y4600595D01*
X34680990Y4626084D01*
X34653466Y4642071D01*
X34653464Y4642072D01*
X34649690Y4644264D01*
X34645511Y4645530D01*
X34645508Y4645531D01*
X34570661Y4668200D01*
X34570662Y4668200D01*
X34566478Y4669467D01*
X34520539Y4672317D01*
X34484058Y4674581D01*
X34484054Y4674581D01*
X34479699Y4674851D01*
X34394009Y4660126D01*
X34389993Y4658417D01*
X34389989Y4658416D01*
X34318028Y4627796D01*
X34314005Y4626084D01*
X34243978Y4574550D01*
X34241153Y4571224D01*
X34241149Y4571221D01*
X34195805Y4517848D01*
X34187684Y4508289D01*
X34148144Y4430854D01*
X34127479Y4346400D01*
X34127280Y4321071D01*
X34126921Y4275320D01*
X34126796Y4259457D01*
X31555551Y4259457D01*
X31523030Y4301838D01*
X31516827Y4309922D01*
X31513829Y4313829D01*
X31484636Y4336230D01*
X31471382Y4346400D01*
X31451200Y4361886D01*
X31378267Y4392096D01*
X31373389Y4392738D01*
X31373386Y4392739D01*
X31304884Y4401757D01*
X31300000Y4402400D01*
X31295116Y4401757D01*
X31226614Y4392739D01*
X31226611Y4392738D01*
X31221733Y4392096D01*
X31148800Y4361886D01*
X31128618Y4346400D01*
X31115365Y4336230D01*
X31086171Y4313829D01*
X31083173Y4309922D01*
X31076970Y4301838D01*
X31038114Y4251200D01*
X31007904Y4178267D01*
X31007262Y4173389D01*
X31007261Y4173386D01*
X31000094Y4118947D01*
X30997600Y4100000D01*
X9218231Y4100000D01*
X9204884Y4101757D01*
X9200000Y4102400D01*
X9195116Y4101757D01*
X9126614Y4092739D01*
X9126611Y4092738D01*
X9121733Y4092096D01*
X9048800Y4061886D01*
X8986171Y4013829D01*
X8983173Y4009922D01*
X8981335Y4007527D01*
X8938114Y3951200D01*
X8907904Y3878267D01*
X8907262Y3873389D01*
X8907261Y3873386D01*
X8901551Y3830012D01*
X8897600Y3800000D01*
X6312029Y3800000D01*
X6344963Y3834343D01*
X6393962Y3914616D01*
X6424580Y4003538D01*
X6426394Y4019212D01*
X6429963Y4050062D01*
X6435389Y4096960D01*
X6435400Y4100000D01*
X6434870Y4104884D01*
X6430123Y4148571D01*
X6425243Y4193496D01*
X6422186Y4202579D01*
X6396545Y4278771D01*
X6396543Y4278776D01*
X6395246Y4282629D01*
X6389735Y4291802D01*
X6352243Y4354198D01*
X6346809Y4363242D01*
X6307298Y4405024D01*
X6284985Y4428620D01*
X6284982Y4428622D01*
X6282191Y4431574D01*
X6252209Y4451950D01*
X6238805Y4461059D01*
X6204408Y4484435D01*
X6117088Y4519361D01*
X6024305Y4534721D01*
X6020238Y4534508D01*
X6020235Y4534508D01*
X5973248Y4532045D01*
X5930388Y4529799D01*
X5926456Y4528716D01*
X5850569Y4507814D01*
X5811644Y4507542D01*
X5777798Y4526770D01*
X5758100Y4560345D01*
X5755400Y4580314D01*
X5755400Y5100000D01*
X5754737Y5114339D01*
X5753546Y5118526D01*
X5744528Y5150221D01*
X5743928Y5189142D01*
X5762870Y5223149D01*
X5796278Y5243129D01*
X5816857Y5246000D01*
X74670800Y5246000D01*
X74708400Y5235925D01*
G37*
G04 #@! TD.AperFunction*
G04 #@! TA.AperFunction,Conductor*
G36*
X1107500Y-3314075D02*
G01*
X1135025Y-3341600D01*
X1145100Y-3379200D01*
X1145100Y-3913098D01*
X1147192Y-3920908D01*
X1155002Y-3923000D01*
X2272997Y-3923001D01*
X2273005Y-3923000D01*
X3644998Y-3923001D01*
X3652808Y-3920909D01*
X3654900Y-3913099D01*
X3654900Y-3379200D01*
X3664975Y-3341600D01*
X3692500Y-3314075D01*
X3730100Y-3304000D01*
X10069400Y-3304000D01*
X10107000Y-3314075D01*
X10134525Y-3341600D01*
X10144600Y-3379200D01*
X10144600Y-5100000D01*
X10145263Y-5114339D01*
X10146455Y-5118527D01*
X10146619Y-5119535D01*
X10147600Y-5131645D01*
X10147600Y-5170800D01*
X10137525Y-5208400D01*
X10110000Y-5235925D01*
X10072400Y-5246000D01*
X3717962Y-5246000D01*
X3680362Y-5235925D01*
X3652837Y-5208400D01*
X3642762Y-5170800D01*
X3645503Y-5156155D01*
X3644440Y-5155956D01*
X3654263Y-5103409D01*
X3654900Y-5096529D01*
X3654900Y-4186902D01*
X3652808Y-4179092D01*
X3644998Y-4177000D01*
X2527003Y-4176999D01*
X2526995Y-4177000D01*
X1155002Y-4176999D01*
X1147192Y-4179091D01*
X1145100Y-4186901D01*
X1145100Y-5099138D01*
X1145140Y-5100855D01*
X1145560Y-5109955D01*
X1146949Y-5118466D01*
X1155984Y-5150222D01*
X1156582Y-5189144D01*
X1137640Y-5223150D01*
X1104232Y-5243130D01*
X1083654Y-5246000D01*
X329200Y-5246000D01*
X291600Y-5235925D01*
X264075Y-5208400D01*
X254000Y-5170800D01*
X254000Y-3379200D01*
X264075Y-3341600D01*
X291600Y-3314075D01*
X329200Y-3304000D01*
X1069900Y-3304000D01*
X1107500Y-3314075D01*
G37*
G04 #@! TD.AperFunction*
G04 #@! TA.AperFunction,Conductor*
G36*
X42739310Y-2837408D02*
G01*
X43145130Y-3243228D01*
X43164594Y-3276939D01*
X43167155Y-3296660D01*
X43166985Y-3345512D01*
X43186859Y-3437434D01*
X43188555Y-3441139D01*
X43188556Y-3441141D01*
X43211061Y-3490295D01*
X43217553Y-3528677D01*
X43203985Y-3565162D01*
X43173992Y-3589974D01*
X43142687Y-3596800D01*
X43050913Y-3596800D01*
X43013313Y-3586725D01*
X42985788Y-3559200D01*
X42975713Y-3521600D01*
X42985788Y-3484000D01*
X42995959Y-3470267D01*
X43005832Y-3459697D01*
X43004861Y-3456511D01*
X42693136Y-3144786D01*
X42686137Y-3140745D01*
X42679134Y-3144788D01*
X42585373Y-3238550D01*
X42581332Y-3245550D01*
X42585374Y-3252551D01*
X42764914Y-3432091D01*
X42769171Y-3435756D01*
X42803499Y-3461111D01*
X42827758Y-3491554D01*
X42833545Y-3530047D01*
X42819310Y-3566278D01*
X42788867Y-3590537D01*
X42758821Y-3596800D01*
X42347131Y-3596800D01*
X42309531Y-3586725D01*
X42282006Y-3559200D01*
X42271931Y-3521600D01*
X42279088Y-3489582D01*
X42279430Y-3488856D01*
X42281549Y-3485384D01*
X42283438Y-3479900D01*
X42310841Y-3400313D01*
X42312167Y-3396462D01*
X42313047Y-3388861D01*
X42319962Y-3329092D01*
X42322976Y-3303040D01*
X42322987Y-3300000D01*
X42322457Y-3295116D01*
X42317068Y-3245512D01*
X42312830Y-3206504D01*
X42296134Y-3156893D01*
X42293690Y-3118045D01*
X42310997Y-3083178D01*
X42343420Y-3061636D01*
X42382269Y-3059192D01*
X42400844Y-3066211D01*
X42400909Y-3066211D01*
X42408598Y-3061772D01*
X42632962Y-2837408D01*
X42666673Y-2817944D01*
X42705599Y-2817944D01*
X42739310Y-2837408D01*
G37*
G04 #@! TD.AperFunction*
G04 #@! TA.AperFunction,Conductor*
G36*
X48237000Y-728787D02*
G01*
X48264525Y-756312D01*
X48274600Y-793912D01*
X48274600Y-1594900D01*
X48264525Y-1632500D01*
X48237000Y-1660025D01*
X48199400Y-1670100D01*
X46807790Y-1670100D01*
X46770190Y-1660025D01*
X46765522Y-1657097D01*
X46707775Y-1617853D01*
X46707774Y-1617852D01*
X46704408Y-1615565D01*
X46617088Y-1580639D01*
X46593264Y-1576695D01*
X46557814Y-1560615D01*
X46535154Y-1528964D01*
X46531356Y-1490223D01*
X46547436Y-1454773D01*
X46579087Y-1432113D01*
X46605546Y-1427305D01*
X47147846Y-1427305D01*
X47150994Y-1427371D01*
X47179170Y-1428552D01*
X47184155Y-1427383D01*
X47184162Y-1427382D01*
X47200191Y-1423622D01*
X47207156Y-1422331D01*
X47220427Y-1420513D01*
X47228538Y-1419402D01*
X47233248Y-1417364D01*
X47234645Y-1416760D01*
X47247330Y-1412565D01*
X47248808Y-1412218D01*
X47248811Y-1412217D01*
X47253798Y-1411047D01*
X47272723Y-1400644D01*
X47279046Y-1397546D01*
X47298886Y-1388960D01*
X47304052Y-1384777D01*
X47315148Y-1377321D01*
X47315823Y-1376950D01*
X47320969Y-1374121D01*
X47326437Y-1369400D01*
X47338108Y-1357729D01*
X47343957Y-1352462D01*
X47354472Y-1343947D01*
X47358456Y-1340721D01*
X47363004Y-1334322D01*
X47371124Y-1324713D01*
X47955102Y-740737D01*
X47988813Y-721274D01*
X48008276Y-718712D01*
X48199400Y-718712D01*
X48237000Y-728787D01*
G37*
G04 #@! TD.AperFunction*
G04 #@! TA.AperFunction,Conductor*
G36*
X19510816Y1202410D02*
G01*
X19646222Y1193535D01*
X19655187Y1192403D01*
X19784057Y1168170D01*
X19788551Y1167325D01*
X19797329Y1165120D01*
X19926700Y1124205D01*
X19935149Y1120961D01*
X20058663Y1064802D01*
X20066662Y1060567D01*
X20182535Y989977D01*
X20189967Y984812D01*
X20296538Y900798D01*
X20303273Y894797D01*
X20352350Y845463D01*
X20352350Y845462D01*
X20398274Y799298D01*
X20398976Y798592D01*
X20404960Y791805D01*
X20484609Y689676D01*
X20488409Y684804D01*
X20493535Y677345D01*
X20547659Y587443D01*
X20547661Y587440D01*
X20558666Y569162D01*
X20563520Y561099D01*
X20567712Y553080D01*
X20585380Y513675D01*
X20623223Y429276D01*
X20626422Y420809D01*
X20666663Y291213D01*
X20668821Y282426D01*
X20672326Y263234D01*
X20693196Y148959D01*
X20694284Y139975D01*
X20702792Y-1138D01*
X20702924Y-6452D01*
X20702805Y-17852D01*
X20702795Y-18762D01*
X20702551Y-24064D01*
X20691093Y-164940D01*
X20689818Y-173898D01*
X20682753Y-208473D01*
X20662650Y-306840D01*
X20660308Y-315582D01*
X20617364Y-444303D01*
X20613988Y-452701D01*
X20555896Y-575317D01*
X20551536Y-583248D01*
X20479129Y-698007D01*
X20473847Y-705357D01*
X20388179Y-810584D01*
X20382053Y-817246D01*
X20284373Y-911409D01*
X20277491Y-917287D01*
X20169189Y-999046D01*
X20161653Y-1004053D01*
X20044321Y-1072204D01*
X20036250Y-1076264D01*
X19977375Y-1101559D01*
X19961001Y-1108594D01*
X19911575Y-1129829D01*
X19903059Y-1132895D01*
X19772850Y-1171094D01*
X19764028Y-1173114D01*
X19680920Y-1186947D01*
X19630199Y-1195389D01*
X19621198Y-1196336D01*
X19557688Y-1199165D01*
X19485621Y-1202374D01*
X19476584Y-1202231D01*
X19368701Y-1194025D01*
X19341299Y-1191941D01*
X19332332Y-1190713D01*
X19236846Y-1171719D01*
X19233704Y-1171094D01*
X19199240Y-1164239D01*
X19190492Y-1161944D01*
X19061555Y-1119676D01*
X19053142Y-1116345D01*
X18930212Y-1058892D01*
X18922277Y-1054583D01*
X18807131Y-982772D01*
X18799756Y-977530D01*
X18694081Y-892413D01*
X18687388Y-886322D01*
X18669544Y-868005D01*
X18669542Y-868003D01*
X18601403Y-798057D01*
X18592709Y-789132D01*
X18586795Y-782281D01*
X18504471Y-674412D01*
X18499423Y-666898D01*
X18490908Y-652413D01*
X18491060Y-652324D01*
X18491059Y-652320D01*
X18490906Y-652410D01*
X18478547Y-631387D01*
X18430663Y-549935D01*
X18426556Y-541873D01*
X18424622Y-537434D01*
X18396706Y-473386D01*
X18372340Y-417480D01*
X18369230Y-408981D01*
X18330355Y-278992D01*
X18328288Y-270181D01*
X18315757Y-197257D01*
X18305306Y-136441D01*
X18304314Y-127451D01*
X18304009Y-121312D01*
X18297567Y8081D01*
X18297662Y17126D01*
X18297821Y19361D01*
X18304989Y120589D01*
X18307246Y152464D01*
X18308427Y161436D01*
X18334200Y294648D01*
X18336451Y303415D01*
X18370317Y408579D01*
X18378046Y432579D01*
X18381332Y441009D01*
X18391825Y463770D01*
X18438142Y564240D01*
X18442417Y572212D01*
X18447036Y579704D01*
X18479184Y631858D01*
X18513614Y687713D01*
X18518818Y695117D01*
X18591662Y786531D01*
X18603380Y801236D01*
X18609433Y807959D01*
X18633261Y831415D01*
X18672772Y870311D01*
X18706123Y903142D01*
X18712943Y909092D01*
X18777451Y958860D01*
X18819004Y990918D01*
X18819007Y990921D01*
X18820374Y991976D01*
X18827869Y997070D01*
X18944467Y1066439D01*
X18952510Y1070591D01*
X19076620Y1125459D01*
X19085103Y1128613D01*
X19214896Y1168170D01*
X19223695Y1170283D01*
X19309462Y1185484D01*
X19309471Y1185485D01*
X19309482Y1185487D01*
X19309496Y1185489D01*
X19357299Y1193961D01*
X19366289Y1195001D01*
X19390682Y1196343D01*
X19403178Y1197031D01*
X19403181Y1197031D01*
X19439739Y1199043D01*
X19501775Y1202457D01*
X19510816Y1202410D01*
G37*
G04 #@! TD.AperFunction*
G04 #@! TD*
G04 #@! TA.AperFunction,Conductor*
G04 #@! TO.N,/HEATER*
G36*
X22112400Y2389925D02*
G01*
X22139925Y2362400D01*
X22150000Y2324800D01*
X22150000Y-2824800D01*
X22139925Y-2862400D01*
X22112400Y-2889925D01*
X22074800Y-2900000D01*
X18850000Y-2900000D01*
X18850000Y-2926528D01*
X18839925Y-2964128D01*
X18812400Y-2991653D01*
X18774800Y-3001728D01*
X18749574Y-2997371D01*
X18706061Y-2981877D01*
X18697934Y-2979971D01*
X18638344Y-2972865D01*
X18633883Y-2972600D01*
X18588902Y-2972600D01*
X18581092Y-2974692D01*
X18579000Y-2982502D01*
X18579000Y-4217498D01*
X18581092Y-4225308D01*
X18588902Y-4227400D01*
X18632679Y-4227400D01*
X18636889Y-4227164D01*
X18695251Y-4220618D01*
X18703408Y-4218765D01*
X18750068Y-4202516D01*
X18788890Y-4199665D01*
X18823937Y-4216606D01*
X18845817Y-4248801D01*
X18850000Y-4273533D01*
X18850000Y-5170800D01*
X18839925Y-5208400D01*
X18812400Y-5235925D01*
X18774800Y-5246000D01*
X10375200Y-5246000D01*
X10337600Y-5235925D01*
X10310075Y-5208400D01*
X10300000Y-5170800D01*
X10300000Y-3862688D01*
X17647925Y-3862688D01*
X17654382Y-3920251D01*
X17656235Y-3928411D01*
X17682239Y-4003081D01*
X17685848Y-4010615D01*
X17727750Y-4077672D01*
X17732942Y-4084222D01*
X17788658Y-4140328D01*
X17795170Y-4145564D01*
X17861931Y-4187933D01*
X17869445Y-4191598D01*
X17943939Y-4218123D01*
X17952066Y-4220029D01*
X18011656Y-4227135D01*
X18016117Y-4227400D01*
X18061098Y-4227400D01*
X18068908Y-4225308D01*
X18071000Y-4217498D01*
X18071000Y-3863902D01*
X18068908Y-3856092D01*
X18061098Y-3854000D01*
X17657502Y-3854000D01*
X17649692Y-3856092D01*
X17647925Y-3862688D01*
X10300000Y-3862688D01*
X10300000Y-3379200D01*
X10310075Y-3341600D01*
X10337600Y-3314075D01*
X10375200Y-3304000D01*
X13502348Y-3304000D01*
X13537878Y-3313110D01*
X13538491Y-3313511D01*
X13541139Y-3314709D01*
X13541236Y-3314762D01*
X13541483Y-3314882D01*
X13542675Y-3315611D01*
X13551611Y-3319460D01*
X13552746Y-3319960D01*
X13694480Y-3384081D01*
X13695241Y-3384431D01*
X13703370Y-3388228D01*
X13707174Y-3389332D01*
X13867740Y-3435934D01*
X13868609Y-3436192D01*
X13874406Y-3437951D01*
X13874415Y-3437953D01*
X13877187Y-3438794D01*
X13880063Y-3439200D01*
X13880065Y-3439200D01*
X14046537Y-3462674D01*
X14047434Y-3462806D01*
X14053538Y-3463742D01*
X14053542Y-3463742D01*
X14056416Y-3464183D01*
X14194619Y-3463866D01*
X14227595Y-3463791D01*
X14228499Y-3463795D01*
X14234526Y-3463854D01*
X14234531Y-3463854D01*
X14237437Y-3463882D01*
X14406711Y-3439220D01*
X14407593Y-3439096D01*
X14416583Y-3437897D01*
X14419368Y-3437075D01*
X14419372Y-3437074D01*
X14483075Y-3418267D01*
X14580724Y-3389440D01*
X14581456Y-3389229D01*
X14590228Y-3386754D01*
X14698854Y-3337009D01*
X17647844Y-3337009D01*
X17649692Y-3343908D01*
X17657502Y-3346000D01*
X18061098Y-3346000D01*
X18068908Y-3343908D01*
X18071000Y-3336098D01*
X18071000Y-2982502D01*
X18068908Y-2974692D01*
X18061098Y-2972600D01*
X18017321Y-2972600D01*
X18013111Y-2972836D01*
X17954749Y-2979382D01*
X17946589Y-2981235D01*
X17871919Y-3007239D01*
X17864385Y-3010848D01*
X17797328Y-3052750D01*
X17790778Y-3057942D01*
X17734672Y-3113658D01*
X17729436Y-3120170D01*
X17687067Y-3186931D01*
X17683402Y-3194445D01*
X17656877Y-3268939D01*
X17654971Y-3277066D01*
X17647865Y-3336656D01*
X17647844Y-3337009D01*
X14698854Y-3337009D01*
X14711830Y-3331067D01*
X14745842Y-3315491D01*
X14746673Y-3315117D01*
X14752200Y-3312667D01*
X14752206Y-3312664D01*
X14754858Y-3311488D01*
X14898851Y-3218823D01*
X14899440Y-3218449D01*
X14907144Y-3213622D01*
X14907145Y-3213621D01*
X14907335Y-3213924D01*
X14941471Y-3200482D01*
X14949973Y-3200000D01*
X15200000Y-3200000D01*
X15200000Y-2922513D01*
X15211963Y-2881818D01*
X15255240Y-2814569D01*
X15255738Y-2813804D01*
X15259123Y-2808682D01*
X15259123Y-2808681D01*
X15260718Y-2806268D01*
X15331951Y-2650720D01*
X15332335Y-2649895D01*
X15334952Y-2644358D01*
X15336192Y-2641735D01*
X15384655Y-2477576D01*
X15384913Y-2476724D01*
X15386697Y-2470939D01*
X15386698Y-2470936D01*
X15387556Y-2468153D01*
X15412227Y-2298827D01*
X15412358Y-2297958D01*
X15413316Y-2291901D01*
X15413316Y-2291898D01*
X15413768Y-2289040D01*
X15414161Y-2117878D01*
X15414169Y-2116973D01*
X15414256Y-2110934D01*
X15414298Y-2108019D01*
X15390418Y-1938672D01*
X15390296Y-1937771D01*
X15390225Y-1937223D01*
X15389136Y-1928757D01*
X15341442Y-1764425D01*
X15341194Y-1763550D01*
X15339568Y-1757684D01*
X15338791Y-1754879D01*
X15271882Y-1606981D01*
X15270985Y-1604914D01*
X15267590Y-1596757D01*
X15267588Y-1596754D01*
X15266472Y-1594072D01*
X15264955Y-1591592D01*
X15264644Y-1590982D01*
X15264193Y-1589985D01*
X15263904Y-1589531D01*
X15263636Y-1589006D01*
X15264362Y-1588636D01*
X15254000Y-1552506D01*
X15254000Y14193D01*
X18144674Y14193D01*
X18152785Y-148734D01*
X18180411Y-309507D01*
X18227152Y-465796D01*
X18292330Y-615339D01*
X18293470Y-617278D01*
X18293475Y-617288D01*
X18359527Y-729645D01*
X18375001Y-755968D01*
X18473969Y-885646D01*
X18475540Y-887259D01*
X18475542Y-887261D01*
X18560378Y-974347D01*
X18587799Y-1002496D01*
X18589561Y-1003916D01*
X18589563Y-1003917D01*
X18713079Y-1103404D01*
X18714842Y-1104824D01*
X18853259Y-1191149D01*
X19001044Y-1260219D01*
X19156056Y-1311035D01*
X19207114Y-1321191D01*
X19313822Y-1342417D01*
X19313828Y-1342418D01*
X19316051Y-1342860D01*
X19318313Y-1343032D01*
X19318320Y-1343033D01*
X19476443Y-1355061D01*
X19476450Y-1355061D01*
X19478710Y-1355233D01*
X19641678Y-1347975D01*
X19705941Y-1337279D01*
X19800355Y-1321564D01*
X19800363Y-1321562D01*
X19802593Y-1321191D01*
X19959125Y-1275270D01*
X19961197Y-1274380D01*
X19961202Y-1274378D01*
X20021160Y-1248618D01*
X20109007Y-1210876D01*
X20250067Y-1128941D01*
X20380262Y-1030654D01*
X20381899Y-1029076D01*
X20496072Y-919014D01*
X20496079Y-919007D01*
X20497706Y-917438D01*
X20600698Y-790932D01*
X20687746Y-652969D01*
X20757589Y-505548D01*
X20809216Y-350803D01*
X20841878Y-190978D01*
X20855103Y-28385D01*
X20855400Y0D01*
X20845583Y162833D01*
X20816275Y323308D01*
X20767901Y479100D01*
X20766976Y481163D01*
X20766973Y481171D01*
X20702087Y625883D01*
X20701160Y627951D01*
X20678224Y666047D01*
X20618189Y765768D01*
X20618184Y765776D01*
X20617021Y767707D01*
X20615635Y769484D01*
X20615631Y769490D01*
X20518098Y894551D01*
X20518096Y894553D01*
X20516701Y896342D01*
X20515101Y897951D01*
X20515096Y897956D01*
X20460394Y952944D01*
X20401653Y1011993D01*
X20391767Y1019787D01*
X20275326Y1111582D01*
X20273545Y1112986D01*
X20134232Y1197856D01*
X19985732Y1265375D01*
X19983576Y1266057D01*
X19832357Y1313882D01*
X19832350Y1313884D01*
X19830196Y1314565D01*
X19669877Y1344712D01*
X19667627Y1344859D01*
X19667623Y1344860D01*
X19509359Y1355233D01*
X19509355Y1355233D01*
X19507097Y1355381D01*
X19394804Y1349201D01*
X19346483Y1346542D01*
X19346481Y1346542D01*
X19344214Y1346417D01*
X19341981Y1346021D01*
X19341979Y1346021D01*
X19282877Y1335547D01*
X19183588Y1317950D01*
X19027545Y1270392D01*
X18878346Y1204432D01*
X18738152Y1121025D01*
X18736366Y1119647D01*
X18736360Y1119643D01*
X18725912Y1111582D01*
X18608994Y1021380D01*
X18607382Y1019793D01*
X18607375Y1019787D01*
X18494360Y908533D01*
X18492742Y906940D01*
X18391080Y779362D01*
X18305481Y640495D01*
X18304533Y638438D01*
X18304530Y638433D01*
X18238137Y494415D01*
X18238134Y494408D01*
X18237186Y492351D01*
X18187182Y337074D01*
X18156196Y176915D01*
X18144674Y14193D01*
X15254000Y14193D01*
X15254000Y1552358D01*
X15263114Y1587894D01*
X15263507Y1588494D01*
X15264703Y1591137D01*
X15264749Y1591221D01*
X15264874Y1591479D01*
X15265606Y1592676D01*
X15269448Y1601596D01*
X15270000Y1602847D01*
X15334062Y1744450D01*
X15334443Y1745278D01*
X15336996Y1750743D01*
X15336997Y1750747D01*
X15338225Y1753375D01*
X15385943Y1917791D01*
X15386191Y1918626D01*
X15387945Y1924406D01*
X15387945Y1924408D01*
X15388789Y1927188D01*
X15389195Y1930066D01*
X15412668Y2096525D01*
X15412800Y2097423D01*
X15413738Y2103542D01*
X15413738Y2103548D01*
X15414179Y2106420D01*
X15413786Y2277600D01*
X15413790Y2278505D01*
X15413849Y2284528D01*
X15413849Y2284533D01*
X15413877Y2287439D01*
X15410013Y2313959D01*
X15414561Y2352617D01*
X15437830Y2383823D01*
X15473584Y2399214D01*
X15484427Y2400000D01*
X22074800Y2400000D01*
X22112400Y2389925D01*
G37*
G04 #@! TD.AperFunction*
G04 #@! TD*
G04 #@! TA.AperFunction,Conductor*
G04 #@! TO.N,IN*
G36*
X65800000Y-5203605D02*
G01*
X65785827Y-5209476D01*
X65774604Y-5213122D01*
X65679310Y-5236000D01*
X65667655Y-5237846D01*
X65566999Y-5245768D01*
X65561099Y-5246000D01*
X23703285Y-5246000D01*
X23696731Y-5245714D01*
X23584995Y-5235938D01*
X23572098Y-5233664D01*
X23466938Y-5205487D01*
X23454620Y-5201003D01*
X23392354Y-5171968D01*
X23355959Y-5154997D01*
X23344615Y-5148447D01*
X23255436Y-5086003D01*
X23245395Y-5077577D01*
X23168423Y-5000605D01*
X23159997Y-4990564D01*
X23097555Y-4901389D01*
X23091001Y-4890037D01*
X23044997Y-4791380D01*
X23040513Y-4779062D01*
X23012336Y-4673902D01*
X23010061Y-4660999D01*
X23000286Y-4549269D01*
X23000000Y-4542715D01*
X23000000Y-3800000D01*
X65800000Y-3800000D01*
X65800000Y-5203605D01*
G37*
G04 #@! TD.AperFunction*
G04 #@! TD*
G04 #@! TA.AperFunction,Conductor*
G04 #@! TO.N,IN*
G36*
X67405486Y-1600480D02*
G01*
X67510568Y-1609674D01*
X67532197Y-1613487D01*
X67628766Y-1639362D01*
X67649405Y-1646874D01*
X67740010Y-1689124D01*
X67759031Y-1700106D01*
X67840925Y-1757449D01*
X67857749Y-1771567D01*
X67928433Y-1842251D01*
X67942551Y-1859075D01*
X67999894Y-1940969D01*
X68010876Y-1959990D01*
X68053126Y-2050595D01*
X68060638Y-2071234D01*
X68086513Y-2167803D01*
X68090326Y-2189432D01*
X68099520Y-2294514D01*
X68100000Y-2305496D01*
X68100000Y-2705095D01*
X68099612Y-2714981D01*
X68092160Y-2809670D01*
X68089067Y-2829198D01*
X68068055Y-2916721D01*
X68061947Y-2935520D01*
X68027496Y-3018693D01*
X68018529Y-3036291D01*
X67971493Y-3113046D01*
X67959872Y-3129040D01*
X67898188Y-3201263D01*
X67891472Y-3208528D01*
X66062528Y-5037472D01*
X66055263Y-5044188D01*
X65983040Y-5105872D01*
X65967049Y-5117491D01*
X65890291Y-5164529D01*
X65872693Y-5173496D01*
X65789520Y-5207947D01*
X65770726Y-5214053D01*
X65683198Y-5235067D01*
X65663671Y-5238160D01*
X65581808Y-5244602D01*
X65568981Y-5245612D01*
X65559095Y-5246000D01*
X64400000Y-5246000D01*
X64400000Y-3800000D01*
X66391472Y-1808528D01*
X66398737Y-1801812D01*
X66470960Y-1740128D01*
X66486951Y-1728509D01*
X66563709Y-1681471D01*
X66581307Y-1672504D01*
X66664480Y-1638053D01*
X66683274Y-1631947D01*
X66770803Y-1610933D01*
X66790329Y-1607840D01*
X66885019Y-1600388D01*
X66894905Y-1600000D01*
X67394504Y-1600000D01*
X67405486Y-1600480D01*
G37*
G04 #@! TD.AperFunction*
G04 #@! TD*
G04 #@! TA.AperFunction,Conductor*
G04 #@! TO.N,/TIP_TC*
G36*
X5562400Y5089925D02*
G01*
X5589925Y5062400D01*
X5600000Y5024800D01*
X5600000Y3379200D01*
X5589925Y3341600D01*
X5562400Y3314075D01*
X5524800Y3304000D01*
X575200Y3304000D01*
X537600Y3314075D01*
X510075Y3341600D01*
X500000Y3379200D01*
X500000Y5024800D01*
X510075Y5062400D01*
X537600Y5089925D01*
X575200Y5100000D01*
X5524800Y5100000D01*
X5562400Y5089925D01*
G37*
G04 #@! TD.AperFunction*
G04 #@! TD*
G04 #@! TA.AperFunction,Conductor*
G04 #@! TO.N,IN*
G36*
X24407264Y1148555D02*
G01*
X24423598Y1145306D01*
X24450701Y1134080D01*
X24458269Y1129024D01*
X24479024Y1108269D01*
X24484080Y1100701D01*
X24495306Y1073598D01*
X24498555Y1057264D01*
X24500000Y1042593D01*
X24500000Y-1508563D01*
X24498933Y-1521187D01*
X24496513Y-1535398D01*
X24488153Y-1559229D01*
X24481166Y-1571835D01*
X24474114Y-1582357D01*
X24451341Y-1610824D01*
X24400000Y-1675000D01*
X24300000Y-1800000D01*
X24300000Y-3200000D01*
X24900000Y-3800000D01*
X24900000Y-4500000D01*
X23000000Y-4500000D01*
X23000000Y-1814612D01*
X23000141Y-1810005D01*
X23000467Y-1804694D01*
X23001592Y-1795561D01*
X23002566Y-1790320D01*
X23003545Y-1785822D01*
X23031250Y-1675000D01*
X23047014Y-1611943D01*
X23050000Y-1600000D01*
X23050000Y1042593D01*
X23051445Y1057264D01*
X23054694Y1073598D01*
X23065920Y1100701D01*
X23070976Y1108269D01*
X23091731Y1129024D01*
X23099299Y1134080D01*
X23126402Y1145306D01*
X23142736Y1148555D01*
X23157407Y1150000D01*
X24392593Y1150000D01*
X24407264Y1148555D01*
G37*
G04 #@! TD.AperFunction*
G04 #@! TD*
M02*
