M48
; DRILL file {KiCad (5.99.0-3540-g0818bd05d)} date 09/30/20 20:14:26
; FORMAT={-:-/ absolute / inch / decimal}
; #@! TF.CreationDate,2020-09-30T20:14:26-07:00
; #@! TF.GenerationSoftware,Kicad,Pcbnew,(5.99.0-3540-g0818bd05d)
FMAT,2
INCH
T1C0.0100
T2C0.0118
T3C0.0157
T4C0.0236
T5C0.0256
%
G90
G05
T1
X0.0512Y-0.1437
X0.0512Y-0.1673
X0.0512Y-0.1909
X0.185Y-0.1437
X0.185Y-0.1673
X0.185Y-0.1909
X0.2795Y0.1614
X0.4134Y-0.1457
X0.4134Y-0.189
X0.7087Y-0.1929
X0.7244Y-0.1772
X0.7264Y0.1299
X0.7323Y0.0197
X0.7323Y-0.0039
X0.7323Y-0.0276
X0.7402Y-0.1614
X0.7461Y-0.0472
X0.752Y0.1299
X0.7559Y-0.1457
X0.7598Y-0.0276
X0.7756Y-0.0472
X0.7776Y0.1299
X0.7913Y-0.0276
X0.8031Y0.1299
X0.8051Y-0.0472
X0.8189Y0.0197
X0.8189Y-0.0039
X0.8189Y-0.0276
X0.8287Y0.1299
X0.9213Y0.0118
X0.9213Y-0.0276
X0.9488Y0.0315
X0.9488Y-0.0079
X0.9488Y-0.0472
X0.9961Y0.0295
X0.9961Y0.0049
X0.9961Y-0.0207
X0.9961Y-0.0453
X1.0236Y0.1299
X1.0433Y-0.0866
X1.0472Y-0.126
X1.063Y0.0945
X1.0906Y0.1614
X1.1457Y0.0748
X1.1693Y-0.0236
X1.1752Y-0.0906
X1.2126Y-0.0906
X1.252Y0.0709
X1.252Y-0.0079
X1.252Y-0.0984
X1.2894Y0.063
X1.3031Y0.189
X1.374Y0.1286
X1.3937Y0.0827
X1.3937Y-0.0276
X1.435Y0.0748
X1.4606Y-0.1142
X1.5118Y0.1299
X1.5118Y0.0512
X1.5276Y-0.028
X1.5297Y0.0018
X1.5354Y0.1063
X1.5658Y0.0969
X1.5771Y-0.0839
X1.6437Y0.0315
X1.6693Y0.0315
X1.7047Y-0.0984
X1.7362Y0.0079
X1.752Y-0.0591
X1.7677Y-0.1024
X1.7795Y-0.0748
X1.7874Y-0.126
X1.7953Y0.1863
X1.815Y0.0315
X1.8661Y0.189
X1.8898Y0.1063
X1.8898Y-0.0433
X1.9129Y-0.1095
X1.9173Y0.1811
X1.9646Y0.0315
X1.9724Y0.185
X1.9724Y0.1417
X2.0Y-0.0819
X2.0079Y0.1379
X2.0236Y-0.1063
X2.0306Y0.0276
X2.0504Y0.1346
X2.0551Y-0.122
X2.0852Y0.1079
X2.0984Y-0.1102
X2.1416Y-0.0589
X2.2362Y-0.0433
X2.2402Y0.0827
X2.2402Y0.0472
X2.4094Y0.0354
X2.4252Y0.1102
X2.4252Y0.061
X2.4764Y-0.0039
X2.4961Y0.0866
X2.5197Y-0.0039
X2.5374Y0.04
X2.6339Y0.0709
X2.6417Y0.185
X2.739Y-0.1142
X2.752Y0.1063
X2.8307Y0.0512
X2.8307Y0.0039
X2.874Y0.1575
X2.878Y0.0748
X2.8898Y-0.126
X2.937Y-0.0039
X3.0Y0.1575
X3.0118Y-0.189
X3.0354Y0.126
X3.063Y-0.0039
X3.0787Y0.0906
X3.1575Y0.0787
X3.3228Y0.0669
T2
X1.189Y0.1575
T3
X1.315Y-0.0512
X1.3661Y0.0571
X1.5354Y0.1575
X1.8307Y0.1732
X1.8701Y-0.1102
X2.2362Y0.0
X2.4528Y-0.0394
X2.5197Y-0.0394
X2.9252Y-0.0591
T4
X0.9311Y-0.1772
X2.874Y-0.1772
X2.9291Y-0.1772
X3.2165Y0.0945
X3.2165Y-0.0945
T5
X3.315Y0.1098
X3.315Y-0.1138
T4
G00X3.2736Y0.1701
M15
G01X3.3169Y0.1701
M16
G05
G00X3.3169Y-0.1701
M15
G01X3.2736Y-0.1701
M16
G05
G00X3.4756Y0.1701
M15
G01X3.4441Y0.1701
M16
G05
G00X3.4756Y-0.1701
M15
G01X3.4441Y-0.1701
M16
G05
T0
M30
