G04 #@! TF.GenerationSoftware,KiCad,Pcbnew,(5.99.0-3477-gacf13a186)*
G04 #@! TF.CreationDate,2020-09-29T20:08:32-07:00*
G04 #@! TF.ProjectId,RT_USB_PD_Soldering_Iron,52545f55-5342-45f5-9044-5f536f6c6465,rev?*
G04 #@! TF.SameCoordinates,Original*
G04 #@! TF.FileFunction,Legend,Bot*
G04 #@! TF.FilePolarity,Positive*
%FSLAX46Y46*%
G04 Gerber Fmt 4.6, Leading zero omitted, Abs format (unit mm)*
G04 Created by KiCad (PCBNEW (5.99.0-3477-gacf13a186)) date 2020-09-29 20:08:32*
%MOMM*%
%LPD*%
G01*
G04 APERTURE LIST*
%ADD10C,0.150000*%
%ADD11C,0.120000*%
G04 APERTURE END LIST*
D10*
G04 #@! TO.C,C16*
X122985714Y-123185714D02*
X123023809Y-123147619D01*
X123061904Y-123033333D01*
X123061904Y-122957142D01*
X123023809Y-122842857D01*
X122947619Y-122766666D01*
X122871428Y-122728571D01*
X122719047Y-122690476D01*
X122604761Y-122690476D01*
X122452380Y-122728571D01*
X122376190Y-122766666D01*
X122300000Y-122842857D01*
X122261904Y-122957142D01*
X122261904Y-123033333D01*
X122300000Y-123147619D01*
X122338095Y-123185714D01*
X123061904Y-123947619D02*
X123061904Y-123490476D01*
X123061904Y-123719047D02*
X122261904Y-123719047D01*
X122376190Y-123642857D01*
X122452380Y-123566666D01*
X122490476Y-123490476D01*
X122261904Y-124633333D02*
X122261904Y-124480952D01*
X122300000Y-124404761D01*
X122338095Y-124366666D01*
X122452380Y-124290476D01*
X122604761Y-124252380D01*
X122909523Y-124252380D01*
X122985714Y-124290476D01*
X123023809Y-124328571D01*
X123061904Y-124404761D01*
X123061904Y-124557142D01*
X123023809Y-124633333D01*
X122985714Y-124671428D01*
X122909523Y-124709523D01*
X122719047Y-124709523D01*
X122642857Y-124671428D01*
X122604761Y-124633333D01*
X122566666Y-124557142D01*
X122566666Y-124404761D01*
X122604761Y-124328571D01*
X122642857Y-124290476D01*
X122719047Y-124252380D01*
G04 #@! TO.C,C1*
X189485714Y-122266666D02*
X189523809Y-122228571D01*
X189561904Y-122114285D01*
X189561904Y-122038095D01*
X189523809Y-121923809D01*
X189447619Y-121847619D01*
X189371428Y-121809523D01*
X189219047Y-121771428D01*
X189104761Y-121771428D01*
X188952380Y-121809523D01*
X188876190Y-121847619D01*
X188800000Y-121923809D01*
X188761904Y-122038095D01*
X188761904Y-122114285D01*
X188800000Y-122228571D01*
X188838095Y-122266666D01*
X189561904Y-123028571D02*
X189561904Y-122571428D01*
X189561904Y-122800000D02*
X188761904Y-122800000D01*
X188876190Y-122723809D01*
X188952380Y-122647619D01*
X188990476Y-122571428D01*
G04 #@! TO.C,J3*
X163966666Y-121561904D02*
X163966666Y-122133333D01*
X164004761Y-122247619D01*
X164080952Y-122323809D01*
X164195238Y-122361904D01*
X164271428Y-122361904D01*
X163661904Y-121561904D02*
X163166666Y-121561904D01*
X163433333Y-121866666D01*
X163319047Y-121866666D01*
X163242857Y-121904761D01*
X163204761Y-121942857D01*
X163166666Y-122019047D01*
X163166666Y-122209523D01*
X163204761Y-122285714D01*
X163242857Y-122323809D01*
X163319047Y-122361904D01*
X163547619Y-122361904D01*
X163623809Y-122323809D01*
X163661904Y-122285714D01*
G04 #@! TO.C,R6*
X172638443Y-125192975D02*
X172905110Y-124812023D01*
X173095586Y-125192975D02*
X173095586Y-124392975D01*
X172790824Y-124392975D01*
X172714633Y-124431071D01*
X172676538Y-124469166D01*
X172638443Y-124545356D01*
X172638443Y-124659642D01*
X172676538Y-124735832D01*
X172714633Y-124773928D01*
X172790824Y-124812023D01*
X173095586Y-124812023D01*
X171952729Y-124392975D02*
X172105110Y-124392975D01*
X172181300Y-124431071D01*
X172219395Y-124469166D01*
X172295586Y-124583451D01*
X172333681Y-124735832D01*
X172333681Y-125040594D01*
X172295586Y-125116785D01*
X172257490Y-125154880D01*
X172181300Y-125192975D01*
X172028919Y-125192975D01*
X171952729Y-125154880D01*
X171914633Y-125116785D01*
X171876538Y-125040594D01*
X171876538Y-124850118D01*
X171914633Y-124773928D01*
X171952729Y-124735832D01*
X172028919Y-124697737D01*
X172181300Y-124697737D01*
X172257490Y-124735832D01*
X172295586Y-124773928D01*
X172333681Y-124850118D01*
G04 #@! TO.C,C8*
X175833333Y-122285714D02*
X175871428Y-122323809D01*
X175985714Y-122361904D01*
X176061904Y-122361904D01*
X176176190Y-122323809D01*
X176252380Y-122247619D01*
X176290476Y-122171428D01*
X176328571Y-122019047D01*
X176328571Y-121904761D01*
X176290476Y-121752380D01*
X176252380Y-121676190D01*
X176176190Y-121600000D01*
X176061904Y-121561904D01*
X175985714Y-121561904D01*
X175871428Y-121600000D01*
X175833333Y-121638095D01*
X175376190Y-121904761D02*
X175452380Y-121866666D01*
X175490476Y-121828571D01*
X175528571Y-121752380D01*
X175528571Y-121714285D01*
X175490476Y-121638095D01*
X175452380Y-121600000D01*
X175376190Y-121561904D01*
X175223809Y-121561904D01*
X175147619Y-121600000D01*
X175109523Y-121638095D01*
X175071428Y-121714285D01*
X175071428Y-121752380D01*
X175109523Y-121828571D01*
X175147619Y-121866666D01*
X175223809Y-121904761D01*
X175376190Y-121904761D01*
X175452380Y-121942857D01*
X175490476Y-121980952D01*
X175528571Y-122057142D01*
X175528571Y-122209523D01*
X175490476Y-122285714D01*
X175452380Y-122323809D01*
X175376190Y-122361904D01*
X175223809Y-122361904D01*
X175147619Y-122323809D01*
X175109523Y-122285714D01*
X175071428Y-122209523D01*
X175071428Y-122057142D01*
X175109523Y-121980952D01*
X175147619Y-121942857D01*
X175223809Y-121904761D01*
G04 #@! TO.C,R4*
X145831904Y-124666666D02*
X145450952Y-124400000D01*
X145831904Y-124209523D02*
X145031904Y-124209523D01*
X145031904Y-124514285D01*
X145070000Y-124590476D01*
X145108095Y-124628571D01*
X145184285Y-124666666D01*
X145298571Y-124666666D01*
X145374761Y-124628571D01*
X145412857Y-124590476D01*
X145450952Y-124514285D01*
X145450952Y-124209523D01*
X145298571Y-125352380D02*
X145831904Y-125352380D01*
X144993809Y-125161904D02*
X145565238Y-124971428D01*
X145565238Y-125466666D01*
G04 #@! TO.C,U1*
X187909523Y-128761904D02*
X187909523Y-129409523D01*
X187871428Y-129485714D01*
X187833333Y-129523809D01*
X187757142Y-129561904D01*
X187604761Y-129561904D01*
X187528571Y-129523809D01*
X187490476Y-129485714D01*
X187452380Y-129409523D01*
X187452380Y-128761904D01*
X186652380Y-129561904D02*
X187109523Y-129561904D01*
X186880952Y-129561904D02*
X186880952Y-128761904D01*
X186957142Y-128876190D01*
X187033333Y-128952380D01*
X187109523Y-128990476D01*
G04 #@! TO.C,R1*
X190838095Y-128833333D02*
X191219047Y-129100000D01*
X190838095Y-129290476D02*
X191638095Y-129290476D01*
X191638095Y-128985714D01*
X191600000Y-128909523D01*
X191561904Y-128871428D01*
X191485714Y-128833333D01*
X191371428Y-128833333D01*
X191295238Y-128871428D01*
X191257142Y-128909523D01*
X191219047Y-128985714D01*
X191219047Y-129290476D01*
X190838095Y-128071428D02*
X190838095Y-128528571D01*
X190838095Y-128300000D02*
X191638095Y-128300000D01*
X191523809Y-128376190D01*
X191447619Y-128452380D01*
X191409523Y-128528571D01*
G04 #@! TO.C,R18*
X133361904Y-124685714D02*
X132980952Y-124419047D01*
X133361904Y-124228571D02*
X132561904Y-124228571D01*
X132561904Y-124533333D01*
X132600000Y-124609523D01*
X132638095Y-124647619D01*
X132714285Y-124685714D01*
X132828571Y-124685714D01*
X132904761Y-124647619D01*
X132942857Y-124609523D01*
X132980952Y-124533333D01*
X132980952Y-124228571D01*
X133361904Y-125447619D02*
X133361904Y-124990476D01*
X133361904Y-125219047D02*
X132561904Y-125219047D01*
X132676190Y-125142857D01*
X132752380Y-125066666D01*
X132790476Y-124990476D01*
X132904761Y-125904761D02*
X132866666Y-125828571D01*
X132828571Y-125790476D01*
X132752380Y-125752380D01*
X132714285Y-125752380D01*
X132638095Y-125790476D01*
X132600000Y-125828571D01*
X132561904Y-125904761D01*
X132561904Y-126057142D01*
X132600000Y-126133333D01*
X132638095Y-126171428D01*
X132714285Y-126209523D01*
X132752380Y-126209523D01*
X132828571Y-126171428D01*
X132866666Y-126133333D01*
X132904761Y-126057142D01*
X132904761Y-125904761D01*
X132942857Y-125828571D01*
X132980952Y-125790476D01*
X133057142Y-125752380D01*
X133209523Y-125752380D01*
X133285714Y-125790476D01*
X133323809Y-125828571D01*
X133361904Y-125904761D01*
X133361904Y-126057142D01*
X133323809Y-126133333D01*
X133285714Y-126171428D01*
X133209523Y-126209523D01*
X133057142Y-126209523D01*
X132980952Y-126171428D01*
X132942857Y-126133333D01*
X132904761Y-126057142D01*
G04 #@! TO.C,C18*
X170285714Y-122585714D02*
X170323809Y-122547619D01*
X170361904Y-122433333D01*
X170361904Y-122357142D01*
X170323809Y-122242857D01*
X170247619Y-122166666D01*
X170171428Y-122128571D01*
X170019047Y-122090476D01*
X169904761Y-122090476D01*
X169752380Y-122128571D01*
X169676190Y-122166666D01*
X169600000Y-122242857D01*
X169561904Y-122357142D01*
X169561904Y-122433333D01*
X169600000Y-122547619D01*
X169638095Y-122585714D01*
X170361904Y-123347619D02*
X170361904Y-122890476D01*
X170361904Y-123119047D02*
X169561904Y-123119047D01*
X169676190Y-123042857D01*
X169752380Y-122966666D01*
X169790476Y-122890476D01*
X169904761Y-123804761D02*
X169866666Y-123728571D01*
X169828571Y-123690476D01*
X169752380Y-123652380D01*
X169714285Y-123652380D01*
X169638095Y-123690476D01*
X169600000Y-123728571D01*
X169561904Y-123804761D01*
X169561904Y-123957142D01*
X169600000Y-124033333D01*
X169638095Y-124071428D01*
X169714285Y-124109523D01*
X169752380Y-124109523D01*
X169828571Y-124071428D01*
X169866666Y-124033333D01*
X169904761Y-123957142D01*
X169904761Y-123804761D01*
X169942857Y-123728571D01*
X169980952Y-123690476D01*
X170057142Y-123652380D01*
X170209523Y-123652380D01*
X170285714Y-123690476D01*
X170323809Y-123728571D01*
X170361904Y-123804761D01*
X170361904Y-123957142D01*
X170323809Y-124033333D01*
X170285714Y-124071428D01*
X170209523Y-124109523D01*
X170057142Y-124109523D01*
X169980952Y-124071428D01*
X169942857Y-124033333D01*
X169904761Y-123957142D01*
G04 #@! TO.C,C2*
X183385714Y-122366666D02*
X183423809Y-122328571D01*
X183461904Y-122214285D01*
X183461904Y-122138095D01*
X183423809Y-122023809D01*
X183347619Y-121947619D01*
X183271428Y-121909523D01*
X183119047Y-121871428D01*
X183004761Y-121871428D01*
X182852380Y-121909523D01*
X182776190Y-121947619D01*
X182700000Y-122023809D01*
X182661904Y-122138095D01*
X182661904Y-122214285D01*
X182700000Y-122328571D01*
X182738095Y-122366666D01*
X182738095Y-122671428D02*
X182700000Y-122709523D01*
X182661904Y-122785714D01*
X182661904Y-122976190D01*
X182700000Y-123052380D01*
X182738095Y-123090476D01*
X182814285Y-123128571D01*
X182890476Y-123128571D01*
X183004761Y-123090476D01*
X183461904Y-122633333D01*
X183461904Y-123128571D01*
G04 #@! TO.C,C6*
X176885714Y-126966666D02*
X176923809Y-126928571D01*
X176961904Y-126814285D01*
X176961904Y-126738095D01*
X176923809Y-126623809D01*
X176847619Y-126547619D01*
X176771428Y-126509523D01*
X176619047Y-126471428D01*
X176504761Y-126471428D01*
X176352380Y-126509523D01*
X176276190Y-126547619D01*
X176200000Y-126623809D01*
X176161904Y-126738095D01*
X176161904Y-126814285D01*
X176200000Y-126928571D01*
X176238095Y-126966666D01*
X176161904Y-127652380D02*
X176161904Y-127500000D01*
X176200000Y-127423809D01*
X176238095Y-127385714D01*
X176352380Y-127309523D01*
X176504761Y-127271428D01*
X176809523Y-127271428D01*
X176885714Y-127309523D01*
X176923809Y-127347619D01*
X176961904Y-127423809D01*
X176961904Y-127576190D01*
X176923809Y-127652380D01*
X176885714Y-127690476D01*
X176809523Y-127728571D01*
X176619047Y-127728571D01*
X176542857Y-127690476D01*
X176504761Y-127652380D01*
X176466666Y-127576190D01*
X176466666Y-127423809D01*
X176504761Y-127347619D01*
X176542857Y-127309523D01*
X176619047Y-127271428D01*
G04 #@! TO.C,C7*
X175285714Y-126966666D02*
X175323809Y-126928571D01*
X175361904Y-126814285D01*
X175361904Y-126738095D01*
X175323809Y-126623809D01*
X175247619Y-126547619D01*
X175171428Y-126509523D01*
X175019047Y-126471428D01*
X174904761Y-126471428D01*
X174752380Y-126509523D01*
X174676190Y-126547619D01*
X174600000Y-126623809D01*
X174561904Y-126738095D01*
X174561904Y-126814285D01*
X174600000Y-126928571D01*
X174638095Y-126966666D01*
X174561904Y-127233333D02*
X174561904Y-127766666D01*
X175361904Y-127423809D01*
G04 #@! TO.C,C10*
X179935714Y-124485714D02*
X179973809Y-124447619D01*
X180011904Y-124333333D01*
X180011904Y-124257142D01*
X179973809Y-124142857D01*
X179897619Y-124066666D01*
X179821428Y-124028571D01*
X179669047Y-123990476D01*
X179554761Y-123990476D01*
X179402380Y-124028571D01*
X179326190Y-124066666D01*
X179250000Y-124142857D01*
X179211904Y-124257142D01*
X179211904Y-124333333D01*
X179250000Y-124447619D01*
X179288095Y-124485714D01*
X180011904Y-125247619D02*
X180011904Y-124790476D01*
X180011904Y-125019047D02*
X179211904Y-125019047D01*
X179326190Y-124942857D01*
X179402380Y-124866666D01*
X179440476Y-124790476D01*
X179211904Y-125742857D02*
X179211904Y-125819047D01*
X179250000Y-125895238D01*
X179288095Y-125933333D01*
X179364285Y-125971428D01*
X179516666Y-126009523D01*
X179707142Y-126009523D01*
X179859523Y-125971428D01*
X179935714Y-125933333D01*
X179973809Y-125895238D01*
X180011904Y-125819047D01*
X180011904Y-125742857D01*
X179973809Y-125666666D01*
X179935714Y-125628571D01*
X179859523Y-125590476D01*
X179707142Y-125552380D01*
X179516666Y-125552380D01*
X179364285Y-125590476D01*
X179288095Y-125628571D01*
X179250000Y-125666666D01*
X179211904Y-125742857D01*
G04 #@! TO.C,C15*
X129114285Y-127085714D02*
X129152380Y-127123809D01*
X129266666Y-127161904D01*
X129342857Y-127161904D01*
X129457142Y-127123809D01*
X129533333Y-127047619D01*
X129571428Y-126971428D01*
X129609523Y-126819047D01*
X129609523Y-126704761D01*
X129571428Y-126552380D01*
X129533333Y-126476190D01*
X129457142Y-126400000D01*
X129342857Y-126361904D01*
X129266666Y-126361904D01*
X129152380Y-126400000D01*
X129114285Y-126438095D01*
X128352380Y-127161904D02*
X128809523Y-127161904D01*
X128580952Y-127161904D02*
X128580952Y-126361904D01*
X128657142Y-126476190D01*
X128733333Y-126552380D01*
X128809523Y-126590476D01*
X127628571Y-126361904D02*
X128009523Y-126361904D01*
X128047619Y-126742857D01*
X128009523Y-126704761D01*
X127933333Y-126666666D01*
X127742857Y-126666666D01*
X127666666Y-126704761D01*
X127628571Y-126742857D01*
X127590476Y-126819047D01*
X127590476Y-127009523D01*
X127628571Y-127085714D01*
X127666666Y-127123809D01*
X127742857Y-127161904D01*
X127933333Y-127161904D01*
X128009523Y-127123809D01*
X128047619Y-127085714D01*
G04 #@! TO.C,C19*
X168285714Y-122585714D02*
X168323809Y-122547619D01*
X168361904Y-122433333D01*
X168361904Y-122357142D01*
X168323809Y-122242857D01*
X168247619Y-122166666D01*
X168171428Y-122128571D01*
X168019047Y-122090476D01*
X167904761Y-122090476D01*
X167752380Y-122128571D01*
X167676190Y-122166666D01*
X167600000Y-122242857D01*
X167561904Y-122357142D01*
X167561904Y-122433333D01*
X167600000Y-122547619D01*
X167638095Y-122585714D01*
X168361904Y-123347619D02*
X168361904Y-122890476D01*
X168361904Y-123119047D02*
X167561904Y-123119047D01*
X167676190Y-123042857D01*
X167752380Y-122966666D01*
X167790476Y-122890476D01*
X168361904Y-123728571D02*
X168361904Y-123880952D01*
X168323809Y-123957142D01*
X168285714Y-123995238D01*
X168171428Y-124071428D01*
X168019047Y-124109523D01*
X167714285Y-124109523D01*
X167638095Y-124071428D01*
X167600000Y-124033333D01*
X167561904Y-123957142D01*
X167561904Y-123804761D01*
X167600000Y-123728571D01*
X167638095Y-123690476D01*
X167714285Y-123652380D01*
X167904761Y-123652380D01*
X167980952Y-123690476D01*
X168019047Y-123728571D01*
X168057142Y-123804761D01*
X168057142Y-123957142D01*
X168019047Y-124033333D01*
X167980952Y-124071428D01*
X167904761Y-124109523D01*
G04 #@! TO.C,R2*
X144131904Y-126866666D02*
X143750952Y-126600000D01*
X144131904Y-126409523D02*
X143331904Y-126409523D01*
X143331904Y-126714285D01*
X143370000Y-126790476D01*
X143408095Y-126828571D01*
X143484285Y-126866666D01*
X143598571Y-126866666D01*
X143674761Y-126828571D01*
X143712857Y-126790476D01*
X143750952Y-126714285D01*
X143750952Y-126409523D01*
X143408095Y-127171428D02*
X143370000Y-127209523D01*
X143331904Y-127285714D01*
X143331904Y-127476190D01*
X143370000Y-127552380D01*
X143408095Y-127590476D01*
X143484285Y-127628571D01*
X143560476Y-127628571D01*
X143674761Y-127590476D01*
X144131904Y-127133333D01*
X144131904Y-127628571D01*
G04 #@! TO.C,U5*
X152540778Y-129021218D02*
X152082842Y-129479154D01*
X152002030Y-129506091D01*
X151948155Y-129506091D01*
X151867343Y-129479154D01*
X151759593Y-129371404D01*
X151732656Y-129290592D01*
X151732656Y-129236717D01*
X151759593Y-129155905D01*
X152217529Y-128697969D01*
X151678781Y-128159221D02*
X151948155Y-128428595D01*
X151705719Y-128724906D01*
X151705719Y-128671032D01*
X151678781Y-128590219D01*
X151544094Y-128455532D01*
X151463282Y-128428595D01*
X151409407Y-128428595D01*
X151328595Y-128455532D01*
X151193908Y-128590219D01*
X151166971Y-128671032D01*
X151166971Y-128724906D01*
X151193908Y-128805719D01*
X151328595Y-128940406D01*
X151409407Y-128967343D01*
X151463282Y-128967343D01*
G04 #@! TO.C,C33*
X192785714Y-124285714D02*
X192823809Y-124247619D01*
X192861904Y-124133333D01*
X192861904Y-124057142D01*
X192823809Y-123942857D01*
X192747619Y-123866666D01*
X192671428Y-123828571D01*
X192519047Y-123790476D01*
X192404761Y-123790476D01*
X192252380Y-123828571D01*
X192176190Y-123866666D01*
X192100000Y-123942857D01*
X192061904Y-124057142D01*
X192061904Y-124133333D01*
X192100000Y-124247619D01*
X192138095Y-124285714D01*
X192061904Y-124552380D02*
X192061904Y-125047619D01*
X192366666Y-124780952D01*
X192366666Y-124895238D01*
X192404761Y-124971428D01*
X192442857Y-125009523D01*
X192519047Y-125047619D01*
X192709523Y-125047619D01*
X192785714Y-125009523D01*
X192823809Y-124971428D01*
X192861904Y-124895238D01*
X192861904Y-124666666D01*
X192823809Y-124590476D01*
X192785714Y-124552380D01*
X192061904Y-125314285D02*
X192061904Y-125809523D01*
X192366666Y-125542857D01*
X192366666Y-125657142D01*
X192404761Y-125733333D01*
X192442857Y-125771428D01*
X192519047Y-125809523D01*
X192709523Y-125809523D01*
X192785714Y-125771428D01*
X192823809Y-125733333D01*
X192861904Y-125657142D01*
X192861904Y-125428571D01*
X192823809Y-125352380D01*
X192785714Y-125314285D01*
G04 #@! TO.C,R3*
X189133333Y-129961904D02*
X189400000Y-129580952D01*
X189590476Y-129961904D02*
X189590476Y-129161904D01*
X189285714Y-129161904D01*
X189209523Y-129200000D01*
X189171428Y-129238095D01*
X189133333Y-129314285D01*
X189133333Y-129428571D01*
X189171428Y-129504761D01*
X189209523Y-129542857D01*
X189285714Y-129580952D01*
X189590476Y-129580952D01*
X188866666Y-129161904D02*
X188371428Y-129161904D01*
X188638095Y-129466666D01*
X188523809Y-129466666D01*
X188447619Y-129504761D01*
X188409523Y-129542857D01*
X188371428Y-129619047D01*
X188371428Y-129809523D01*
X188409523Y-129885714D01*
X188447619Y-129923809D01*
X188523809Y-129961904D01*
X188752380Y-129961904D01*
X188828571Y-129923809D01*
X188866666Y-129885714D01*
G04 #@! TO.C,R7*
X172633333Y-121661904D02*
X172900000Y-121280952D01*
X173090476Y-121661904D02*
X173090476Y-120861904D01*
X172785714Y-120861904D01*
X172709523Y-120900000D01*
X172671428Y-120938095D01*
X172633333Y-121014285D01*
X172633333Y-121128571D01*
X172671428Y-121204761D01*
X172709523Y-121242857D01*
X172785714Y-121280952D01*
X173090476Y-121280952D01*
X172366666Y-120861904D02*
X171833333Y-120861904D01*
X172176190Y-121661904D01*
G04 #@! TO.C,C28*
X136385714Y-126785714D02*
X136423809Y-126747619D01*
X136461904Y-126633333D01*
X136461904Y-126557142D01*
X136423809Y-126442857D01*
X136347619Y-126366666D01*
X136271428Y-126328571D01*
X136119047Y-126290476D01*
X136004761Y-126290476D01*
X135852380Y-126328571D01*
X135776190Y-126366666D01*
X135700000Y-126442857D01*
X135661904Y-126557142D01*
X135661904Y-126633333D01*
X135700000Y-126747619D01*
X135738095Y-126785714D01*
X135738095Y-127090476D02*
X135700000Y-127128571D01*
X135661904Y-127204761D01*
X135661904Y-127395238D01*
X135700000Y-127471428D01*
X135738095Y-127509523D01*
X135814285Y-127547619D01*
X135890476Y-127547619D01*
X136004761Y-127509523D01*
X136461904Y-127052380D01*
X136461904Y-127547619D01*
X136004761Y-128004761D02*
X135966666Y-127928571D01*
X135928571Y-127890476D01*
X135852380Y-127852380D01*
X135814285Y-127852380D01*
X135738095Y-127890476D01*
X135700000Y-127928571D01*
X135661904Y-128004761D01*
X135661904Y-128157142D01*
X135700000Y-128233333D01*
X135738095Y-128271428D01*
X135814285Y-128309523D01*
X135852380Y-128309523D01*
X135928571Y-128271428D01*
X135966666Y-128233333D01*
X136004761Y-128157142D01*
X136004761Y-128004761D01*
X136042857Y-127928571D01*
X136080952Y-127890476D01*
X136157142Y-127852380D01*
X136309523Y-127852380D01*
X136385714Y-127890476D01*
X136423809Y-127928571D01*
X136461904Y-128004761D01*
X136461904Y-128157142D01*
X136423809Y-128233333D01*
X136385714Y-128271428D01*
X136309523Y-128309523D01*
X136157142Y-128309523D01*
X136080952Y-128271428D01*
X136042857Y-128233333D01*
X136004761Y-128157142D01*
G04 #@! TO.C,D2*
X126590476Y-121861904D02*
X126590476Y-121061904D01*
X126400000Y-121061904D01*
X126285714Y-121100000D01*
X126209523Y-121176190D01*
X126171428Y-121252380D01*
X126133333Y-121404761D01*
X126133333Y-121519047D01*
X126171428Y-121671428D01*
X126209523Y-121747619D01*
X126285714Y-121823809D01*
X126400000Y-121861904D01*
X126590476Y-121861904D01*
X125828571Y-121138095D02*
X125790476Y-121100000D01*
X125714285Y-121061904D01*
X125523809Y-121061904D01*
X125447619Y-121100000D01*
X125409523Y-121138095D01*
X125371428Y-121214285D01*
X125371428Y-121290476D01*
X125409523Y-121404761D01*
X125866666Y-121861904D01*
X125371428Y-121861904D01*
G04 #@! TO.C,C9*
X181333333Y-127185714D02*
X181371428Y-127223809D01*
X181485714Y-127261904D01*
X181561904Y-127261904D01*
X181676190Y-127223809D01*
X181752380Y-127147619D01*
X181790476Y-127071428D01*
X181828571Y-126919047D01*
X181828571Y-126804761D01*
X181790476Y-126652380D01*
X181752380Y-126576190D01*
X181676190Y-126500000D01*
X181561904Y-126461904D01*
X181485714Y-126461904D01*
X181371428Y-126500000D01*
X181333333Y-126538095D01*
X180952380Y-127261904D02*
X180800000Y-127261904D01*
X180723809Y-127223809D01*
X180685714Y-127185714D01*
X180609523Y-127071428D01*
X180571428Y-126919047D01*
X180571428Y-126614285D01*
X180609523Y-126538095D01*
X180647619Y-126500000D01*
X180723809Y-126461904D01*
X180876190Y-126461904D01*
X180952380Y-126500000D01*
X180990476Y-126538095D01*
X181028571Y-126614285D01*
X181028571Y-126804761D01*
X180990476Y-126880952D01*
X180952380Y-126919047D01*
X180876190Y-126957142D01*
X180723809Y-126957142D01*
X180647619Y-126919047D01*
X180609523Y-126880952D01*
X180571428Y-126804761D01*
G04 #@! TO.C,C4*
X141144285Y-124933333D02*
X141106190Y-124971428D01*
X141068095Y-125085714D01*
X141068095Y-125161904D01*
X141106190Y-125276190D01*
X141182380Y-125352380D01*
X141258571Y-125390476D01*
X141410952Y-125428571D01*
X141525238Y-125428571D01*
X141677619Y-125390476D01*
X141753809Y-125352380D01*
X141830000Y-125276190D01*
X141868095Y-125161904D01*
X141868095Y-125085714D01*
X141830000Y-124971428D01*
X141791904Y-124933333D01*
X141601428Y-124247619D02*
X141068095Y-124247619D01*
X141906190Y-124438095D02*
X141334761Y-124628571D01*
X141334761Y-124133333D01*
D11*
G04 #@! TO.C,C16*
X120810000Y-123971267D02*
X120810000Y-123628733D01*
X119790000Y-123971267D02*
X119790000Y-123628733D01*
G04 #@! TO.C,C1*
X189705015Y-124966991D02*
X189705015Y-124624457D01*
X188685015Y-124966991D02*
X188685015Y-124624457D01*
G04 #@! TO.C,J3*
X163565000Y-126565000D02*
X160035000Y-126565000D01*
X160035000Y-126500000D02*
X160035000Y-126565000D01*
X163565000Y-122635000D02*
X163565000Y-122700000D01*
X160035000Y-122635000D02*
X160035000Y-122700000D01*
X163565000Y-122635000D02*
X160035000Y-122635000D01*
X163565000Y-126500000D02*
X163565000Y-126565000D01*
X164890000Y-122700000D02*
X163565000Y-122700000D01*
G04 #@! TO.C,U1*
X184590000Y-125400000D02*
X184590000Y-126900000D01*
X187810000Y-125400000D02*
X187810000Y-128325000D01*
X187810000Y-125400000D02*
X187810000Y-123900000D01*
X184590000Y-125400000D02*
X184590000Y-123900000D01*
G04 #@! TO.C,C2*
X182591818Y-125265076D02*
X182591818Y-124922542D01*
X183611818Y-125265076D02*
X183611818Y-124922542D01*
G04 #@! TO.C,C15*
X125828733Y-127290000D02*
X126171267Y-127290000D01*
X125828733Y-128310000D02*
X126171267Y-128310000D01*
G04 #@! TO.C,U5*
X149308903Y-124500000D02*
X149644778Y-124835876D01*
X149644778Y-124164124D02*
X149308903Y-124500000D01*
X153000000Y-120808903D02*
X153335876Y-121144778D01*
X156355222Y-124835876D02*
X156691097Y-124500000D01*
X152664124Y-121144778D02*
X153000000Y-120808903D01*
X156691097Y-124500000D02*
X156355222Y-124164124D01*
X153335876Y-127855222D02*
X153000000Y-128191097D01*
G04 #@! TO.C,C33*
X191706464Y-124974856D02*
X191706464Y-124632322D01*
X190686464Y-124974856D02*
X190686464Y-124632322D01*
G04 #@! TO.C,D2*
X127000000Y-123210000D02*
X126500000Y-123210000D01*
X127000000Y-122190000D02*
X126500000Y-122190000D01*
X127000000Y-122200000D02*
X127000000Y-123200000D01*
G04 #@! TD*
M02*
