G04 #@! TF.GenerationSoftware,KiCad,Pcbnew,(5.99.0-3477-gacf13a186)*
G04 #@! TF.CreationDate,2020-09-29T22:44:54-07:00*
G04 #@! TF.ProjectId,RT_USB_PD_Soldering_Iron,52545f55-5342-45f5-9044-5f536f6c6465,rev?*
G04 #@! TF.SameCoordinates,Original*
G04 #@! TF.FileFunction,Copper,L3,Inr*
G04 #@! TF.FilePolarity,Positive*
%FSLAX46Y46*%
G04 Gerber Fmt 4.6, Leading zero omitted, Abs format (unit mm)*
G04 Created by KiCad (PCBNEW (5.99.0-3477-gacf13a186)) date 2020-09-29 22:44:54*
%MOMM*%
%LPD*%
G01*
G04 APERTURE LIST*
G04 #@! TA.AperFunction,ViaPad*
%ADD10C,0.700000*%
G04 #@! TD*
G04 #@! TA.AperFunction,ViaPad*
%ADD11C,1.000000*%
G04 #@! TD*
G04 #@! TA.AperFunction,ViaPad*
%ADD12C,0.800000*%
G04 #@! TD*
G04 #@! TA.AperFunction,ViaPad*
%ADD13C,0.605000*%
G04 #@! TD*
G04 #@! TA.AperFunction,Conductor*
%ADD14C,2.000000*%
G04 #@! TD*
G04 #@! TA.AperFunction,Conductor*
%ADD15C,0.500000*%
G04 #@! TD*
G04 #@! TA.AperFunction,Conductor*
%ADD16C,0.254000*%
G04 #@! TD*
G04 APERTURE END LIST*
D10*
G04 #@! TO.N,IN*
X124700000Y-124700000D03*
X124700000Y-125700000D03*
D11*
X184400000Y-129400000D03*
D10*
X125400000Y-124200000D03*
D11*
X124950000Y-129400000D03*
X191700000Y-122600000D03*
X183000000Y-129400000D03*
D10*
X125400000Y-125200000D03*
D11*
X191700000Y-127400000D03*
D10*
X125400000Y-126200000D03*
D12*
G04 #@! TO.N,+3V3*
X173700000Y-125900000D03*
X171500000Y-125898157D03*
X152600000Y-128000000D03*
D10*
X136900000Y-125698616D03*
X140800000Y-125300000D03*
X151605846Y-121043882D03*
X185250000Y-126200000D03*
D12*
X162300000Y-125898157D03*
D10*
X136100000Y-120900000D03*
X153700000Y-120500000D03*
D12*
X182100000Y-125954332D03*
D10*
X140800000Y-120900000D03*
D13*
G04 #@! TO.N,/BTN1*
X179570952Y-128046790D03*
X156867571Y-126835625D03*
G04 #@! TO.N,/BTN2*
X177100000Y-120300000D03*
X155100000Y-120600000D03*
G04 #@! TO.N,Net-(C10-Pad1)*
X181800000Y-125000000D03*
X173300000Y-125000000D03*
G04 #@! TO.N,/HEATER*
X121800000Y-127700000D03*
X119050000Y-126200000D03*
X119850000Y-126200000D03*
X118700000Y-127700000D03*
X121450000Y-125400000D03*
X119050000Y-125400000D03*
X118700000Y-126900000D03*
X121800000Y-126900000D03*
X119050000Y-124600000D03*
X120650000Y-126200000D03*
X121450000Y-124600000D03*
X121450000Y-126200000D03*
G04 #@! TO.N,/OSC_IN*
X148800000Y-128100000D03*
G04 #@! TO.N,/OSC_OUT*
X150400000Y-127702548D03*
G04 #@! TO.N,/TEMP_SENS*
X139400000Y-127500000D03*
X143750000Y-127950000D03*
G04 #@! TO.N,/USB_DP*
X186900000Y-121700000D03*
X157080045Y-121880210D03*
G04 #@! TO.N,/CC2*
X194400000Y-123300000D03*
X157895284Y-126818064D03*
X184600000Y-125100000D03*
G04 #@! TO.N,/USB_DM*
X183200000Y-121000000D03*
X156000000Y-121798126D03*
G04 #@! TO.N,/CC1*
X158538610Y-127480210D03*
X187800000Y-125100000D03*
G04 #@! TO.N,/TIP_TC*
X107100000Y-120900000D03*
X131800000Y-120900000D03*
G04 #@! TO.N,/I2C1_SCL*
X157913030Y-124871366D03*
X171100000Y-123400000D03*
G04 #@! TO.N,/I2C1_SDA*
X160300000Y-122400000D03*
X175000000Y-123500000D03*
X171100000Y-122400000D03*
X155800000Y-127994290D03*
G04 #@! TO.N,/VSENSE*
X132000000Y-125600000D03*
X143800000Y-126150000D03*
G04 #@! TO.N,/HEAT_ON*
X148800000Y-120900000D03*
X128500000Y-127900000D03*
G04 #@! TO.N,Net-(R16-Pad1)*
X137000000Y-123819790D03*
G04 #@! TO.N,Net-(R17-Pad2)*
X134100000Y-127300000D03*
G04 #@! TO.N,/INT0*
X142000000Y-120700000D03*
G04 #@! TO.N,/SPI1_MISO*
X148500000Y-122480210D03*
G04 #@! TO.N,/SPI1_NSS*
X147600000Y-123840630D03*
G04 #@! TO.N,/SPI1_MOSI*
X146180982Y-121819018D03*
G04 #@! TO.N,/SPI1_SCK*
X146600000Y-123160420D03*
G04 #@! TO.N,/DISP_RST#*
X154487083Y-127994290D03*
X166550667Y-124446996D03*
G04 #@! TO.N,/NRST*
X149500000Y-127600000D03*
X158000000Y-122500000D03*
G04 #@! TO.N,GND*
X150600000Y-120600000D03*
X165600000Y-124400000D03*
X121100000Y-121700000D03*
X141600000Y-127000000D03*
X144850000Y-126900000D03*
X181900000Y-123700000D03*
X131900000Y-123700000D03*
X120300000Y-121700000D03*
X153587573Y-128081163D03*
X121700000Y-122300000D03*
X126600000Y-126150000D03*
X152400000Y-120500000D03*
X100700000Y-129200000D03*
X119500000Y-121700000D03*
X135100000Y-123100000D03*
X104700000Y-129700000D03*
X101300000Y-129700000D03*
X110500000Y-128700000D03*
X176200000Y-123400000D03*
X136900000Y-128046790D03*
X135100000Y-125200000D03*
X127700000Y-121550000D03*
X153000000Y-122600000D03*
X154800000Y-124500000D03*
X118800000Y-122300000D03*
X119200000Y-129700000D03*
X126600000Y-124300000D03*
X182603811Y-127994290D03*
X118800000Y-123100000D03*
X121700000Y-123100000D03*
X110500000Y-129800000D03*
X131900000Y-127000000D03*
X171700000Y-124600000D03*
X190000000Y-123000000D03*
X153000000Y-126200000D03*
X155100000Y-121700000D03*
X186200000Y-120999835D03*
X105300000Y-129200000D03*
X151200000Y-124500000D03*
X139900000Y-123200000D03*
X159200000Y-122400000D03*
X126600000Y-125200000D03*
X119200000Y-128700000D03*
X101300000Y-128700000D03*
X183100000Y-123100000D03*
X104700000Y-128700000D03*
X118700000Y-129200000D03*
X148550000Y-126650000D03*
X118200000Y-129700000D03*
G04 #@! TO.N,/HEATER_PG*
X128300000Y-122600000D03*
G04 #@! TD*
D14*
G04 #@! TO.N,IN*
X191700000Y-127400000D02*
X191700000Y-126692894D01*
X191700000Y-126692894D02*
X191700000Y-122600000D01*
D15*
G04 #@! TO.N,+3V3*
X140800000Y-120900000D02*
X140800000Y-125300000D01*
X151515625Y-121200000D02*
X151515625Y-121134103D01*
X151515625Y-121134103D02*
X151605846Y-121043882D01*
X152200001Y-127600001D02*
X152600000Y-128000000D01*
X151605846Y-121043882D02*
X152200000Y-121638036D01*
X152200000Y-121638036D02*
X152200001Y-127600001D01*
X147349728Y-125300000D02*
X140800000Y-125300000D01*
X151605846Y-121043882D02*
X147349728Y-125300000D01*
D16*
G04 #@! TO.N,/DISP_RST#*
X158627887Y-126072113D02*
X156409260Y-126072113D01*
X165897663Y-125100000D02*
X159600000Y-125100000D01*
X159600000Y-125100000D02*
X158627887Y-126072113D01*
X166550667Y-124446996D02*
X165897663Y-125100000D01*
X156409260Y-126072113D02*
X154487083Y-127994290D01*
G04 #@! TD*
G04 #@! TA.AperFunction,Conductor*
G04 #@! TO.N,GND*
G36*
X176888366Y-119710575D02*
G01*
X176915891Y-119738100D01*
X176925966Y-119775700D01*
X176915891Y-119813300D01*
X176883985Y-119840168D01*
X176884895Y-119841635D01*
X176878404Y-119845660D01*
X176878403Y-119845660D01*
X176791572Y-119899498D01*
X176724702Y-119962733D01*
X176717337Y-119969698D01*
X176712135Y-119977128D01*
X176658738Y-120053387D01*
X176630501Y-120118639D01*
X176618162Y-120147152D01*
X176597583Y-120245660D01*
X176597269Y-120247161D01*
X176596913Y-120349328D01*
X176609223Y-120410380D01*
X176617107Y-120449482D01*
X176657026Y-120543525D01*
X176662239Y-120551081D01*
X176715042Y-120627625D01*
X176788783Y-120698339D01*
X176809689Y-120711504D01*
X176873862Y-120751916D01*
X176875237Y-120752782D01*
X176970872Y-120788729D01*
X177031418Y-120798319D01*
X177071780Y-120804712D01*
X177071782Y-120804712D01*
X177173845Y-120800077D01*
X177173849Y-120800076D01*
X177272888Y-120775016D01*
X177272889Y-120775015D01*
X177272891Y-120775015D01*
X177364875Y-120730548D01*
X177446039Y-120668494D01*
X177446043Y-120668491D01*
X177513065Y-120591390D01*
X177535777Y-120551083D01*
X177563221Y-120502376D01*
X177587743Y-120426000D01*
X192542578Y-120426000D01*
X193496001Y-120426001D01*
X193496001Y-119976800D01*
X194004000Y-119976800D01*
X194004000Y-120426000D01*
X194955712Y-120426001D01*
X194955712Y-120426000D01*
X196872578Y-120426000D01*
X197676001Y-120426001D01*
X197676001Y-119976800D01*
X198184000Y-119976800D01*
X198184000Y-120426000D01*
X198985712Y-120426001D01*
X198962103Y-120366218D01*
X198900198Y-120264204D01*
X198821989Y-120174076D01*
X198729714Y-120098415D01*
X198626004Y-120039380D01*
X198513841Y-119998667D01*
X198396414Y-119977432D01*
X198383001Y-119976800D01*
X198184000Y-119976800D01*
X197676001Y-119976800D01*
X197500539Y-119976800D01*
X197411094Y-119984390D01*
X197295598Y-120014367D01*
X197186790Y-120063381D01*
X197087806Y-120130021D01*
X197001464Y-120212386D01*
X196930230Y-120308128D01*
X196876149Y-120414499D01*
X196872578Y-120426000D01*
X194955712Y-120426000D01*
X194932103Y-120366218D01*
X194870198Y-120264204D01*
X194791989Y-120174076D01*
X194699714Y-120098415D01*
X194596004Y-120039380D01*
X194483841Y-119998667D01*
X194366414Y-119977432D01*
X194353001Y-119976800D01*
X194004000Y-119976800D01*
X193496001Y-119976800D01*
X193170539Y-119976800D01*
X193081094Y-119984390D01*
X192965598Y-120014367D01*
X192856790Y-120063381D01*
X192757806Y-120130021D01*
X192671464Y-120212386D01*
X192600230Y-120308128D01*
X192546149Y-120414499D01*
X192542578Y-120426000D01*
X177587743Y-120426000D01*
X177594454Y-120405099D01*
X177605488Y-120303529D01*
X177605500Y-120300000D01*
X177600133Y-120247159D01*
X177595175Y-120198354D01*
X177564623Y-120100862D01*
X177515091Y-120011504D01*
X177448604Y-119933932D01*
X177448603Y-119933931D01*
X177367874Y-119871312D01*
X177310687Y-119843172D01*
X177281400Y-119817534D01*
X177268855Y-119780684D01*
X177276416Y-119742499D01*
X177302056Y-119713210D01*
X177343890Y-119700500D01*
X199799500Y-119700500D01*
X199799501Y-130199500D01*
X185051073Y-130199500D01*
X185013473Y-130189425D01*
X184985948Y-130161900D01*
X184975873Y-130124300D01*
X184985948Y-130086700D01*
X184997899Y-130071126D01*
X185077646Y-129991379D01*
X185083795Y-129984051D01*
X185100057Y-129964671D01*
X185126292Y-129927205D01*
X185126294Y-129927203D01*
X185170048Y-129864716D01*
X185187480Y-129834524D01*
X185239047Y-129723938D01*
X185250970Y-129691177D01*
X185282367Y-129573999D01*
X192544288Y-129573999D01*
X192567897Y-129633782D01*
X192629802Y-129735796D01*
X192708011Y-129825924D01*
X192800286Y-129901585D01*
X192903996Y-129960620D01*
X193016159Y-130001333D01*
X193133586Y-130022568D01*
X193146999Y-130023200D01*
X193496000Y-130023200D01*
X194003999Y-130023200D01*
X194329461Y-130023200D01*
X194418906Y-130015610D01*
X194534402Y-129985633D01*
X194643210Y-129936619D01*
X194742194Y-129869979D01*
X194828536Y-129787614D01*
X194899770Y-129691872D01*
X194953851Y-129585501D01*
X194957422Y-129574000D01*
X194003999Y-129573999D01*
X196874288Y-129573999D01*
X196897897Y-129633782D01*
X196959802Y-129735796D01*
X197038011Y-129825924D01*
X197130286Y-129901585D01*
X197233996Y-129960620D01*
X197346159Y-130001333D01*
X197463586Y-130022568D01*
X197476999Y-130023200D01*
X197676000Y-130023200D01*
X198183999Y-130023200D01*
X198359461Y-130023200D01*
X198448906Y-130015610D01*
X198564402Y-129985633D01*
X198673210Y-129936619D01*
X198772194Y-129869979D01*
X198858536Y-129787614D01*
X198929770Y-129691872D01*
X198983851Y-129585501D01*
X198987422Y-129574000D01*
X198183999Y-129573999D01*
X198183999Y-130023200D01*
X197676000Y-130023200D01*
X197676000Y-129574000D01*
X196874288Y-129573999D01*
X194003999Y-129573999D01*
X194003999Y-130023200D01*
X193496000Y-130023200D01*
X193496000Y-129574000D01*
X192544288Y-129573999D01*
X185282367Y-129573999D01*
X185282550Y-129573317D01*
X185288604Y-129538986D01*
X185299239Y-129417432D01*
X185299239Y-129382568D01*
X185288604Y-129261014D01*
X185282550Y-129226683D01*
X185250970Y-129108823D01*
X185239047Y-129076062D01*
X185234356Y-129066000D01*
X192542578Y-129066000D01*
X193496001Y-129066001D01*
X193496001Y-128616800D01*
X194004000Y-128616800D01*
X194004000Y-129066000D01*
X194955712Y-129066001D01*
X194955712Y-129066000D01*
X196872578Y-129066000D01*
X197676001Y-129066001D01*
X197676001Y-128616800D01*
X198184000Y-128616800D01*
X198184000Y-129066000D01*
X198985712Y-129066001D01*
X198962103Y-129006218D01*
X198900198Y-128904204D01*
X198821989Y-128814076D01*
X198729714Y-128738415D01*
X198626004Y-128679380D01*
X198513841Y-128638667D01*
X198396414Y-128617432D01*
X198383001Y-128616800D01*
X198184000Y-128616800D01*
X197676001Y-128616800D01*
X197500539Y-128616800D01*
X197411094Y-128624390D01*
X197295598Y-128654367D01*
X197186790Y-128703381D01*
X197087806Y-128770021D01*
X197001464Y-128852386D01*
X196930230Y-128948128D01*
X196876149Y-129054499D01*
X196872578Y-129066000D01*
X194955712Y-129066000D01*
X194932103Y-129006218D01*
X194870198Y-128904204D01*
X194791989Y-128814076D01*
X194699714Y-128738415D01*
X194596004Y-128679380D01*
X194483841Y-128638667D01*
X194366414Y-128617432D01*
X194353001Y-128616800D01*
X194004000Y-128616800D01*
X193496001Y-128616800D01*
X193170539Y-128616800D01*
X193081094Y-128624390D01*
X192965598Y-128654367D01*
X192856790Y-128703381D01*
X192757806Y-128770021D01*
X192671464Y-128852386D01*
X192600230Y-128948128D01*
X192546149Y-129054499D01*
X192542578Y-129066000D01*
X185234356Y-129066000D01*
X185187480Y-128965476D01*
X185170048Y-128935284D01*
X185148286Y-128904204D01*
X185126295Y-128872798D01*
X185126292Y-128872795D01*
X185100057Y-128835329D01*
X185077650Y-128808626D01*
X185077646Y-128808621D01*
X184991379Y-128722354D01*
X184968768Y-128703381D01*
X184964671Y-128699943D01*
X184927205Y-128673708D01*
X184927202Y-128673705D01*
X184864720Y-128629954D01*
X184843030Y-128617432D01*
X184834524Y-128612521D01*
X184834518Y-128612518D01*
X184723947Y-128560957D01*
X184723939Y-128560954D01*
X184691177Y-128549029D01*
X184612602Y-128527976D01*
X184573316Y-128517449D01*
X184561872Y-128515431D01*
X184538985Y-128511396D01*
X184417430Y-128500761D01*
X184417425Y-128500761D01*
X184417416Y-128500760D01*
X184400009Y-128500000D01*
X180008360Y-128500000D01*
X179970760Y-128489925D01*
X179943235Y-128462400D01*
X179933160Y-128424800D01*
X179951606Y-128375465D01*
X179984017Y-128338180D01*
X179985118Y-128336227D01*
X180034173Y-128249166D01*
X180065406Y-128151889D01*
X180076440Y-128050319D01*
X180076452Y-128046790D01*
X180075542Y-128037823D01*
X180066127Y-127945144D01*
X180035575Y-127847652D01*
X179986043Y-127758294D01*
X179919556Y-127680722D01*
X179919555Y-127680721D01*
X179838826Y-127618102D01*
X179747155Y-127572994D01*
X179648286Y-127547241D01*
X179546258Y-127541893D01*
X179546256Y-127541893D01*
X179445243Y-127557170D01*
X179445241Y-127557171D01*
X179445239Y-127557171D01*
X179349355Y-127592450D01*
X179349354Y-127592451D01*
X179349353Y-127592451D01*
X179318624Y-127611504D01*
X179262524Y-127646288D01*
X179199294Y-127706081D01*
X179188289Y-127716488D01*
X179162877Y-127752781D01*
X179129690Y-127800177D01*
X179099307Y-127870387D01*
X179089114Y-127893942D01*
X179068224Y-127993938D01*
X179068221Y-127993951D01*
X179067865Y-128096118D01*
X179079804Y-128155329D01*
X179088059Y-128196272D01*
X179127978Y-128290315D01*
X179136298Y-128302376D01*
X179185994Y-128374415D01*
X179185997Y-128374417D01*
X179190332Y-128380702D01*
X179188758Y-128381788D01*
X179202100Y-128403813D01*
X179202919Y-128442731D01*
X179184169Y-128476844D01*
X179150875Y-128497012D01*
X179129888Y-128500000D01*
X156188737Y-128500000D01*
X156151137Y-128489925D01*
X156123612Y-128462400D01*
X156113537Y-128424800D01*
X156123612Y-128387200D01*
X156143064Y-128365059D01*
X156146041Y-128362783D01*
X156213065Y-128285680D01*
X156217605Y-128277624D01*
X156263221Y-128196666D01*
X156294454Y-128099389D01*
X156305488Y-127997819D01*
X156305500Y-127994290D01*
X156305466Y-127993949D01*
X156295175Y-127892644D01*
X156264623Y-127795152D01*
X156215091Y-127705794D01*
X156148604Y-127628222D01*
X156148603Y-127628221D01*
X156067874Y-127565602D01*
X155976203Y-127520494D01*
X155877334Y-127494741D01*
X155775306Y-127489393D01*
X155775304Y-127489393D01*
X155674289Y-127504670D01*
X155624384Y-127523032D01*
X155585618Y-127526560D01*
X155550282Y-127510232D01*
X155527843Y-127478423D01*
X155524315Y-127439657D01*
X155545244Y-127399283D01*
X155773215Y-127171313D01*
X156240105Y-126704423D01*
X156273816Y-126684959D01*
X156312742Y-126684959D01*
X156346453Y-126704423D01*
X156365917Y-126738134D01*
X156366890Y-126772974D01*
X156364840Y-126782786D01*
X156364484Y-126884953D01*
X156377464Y-126949328D01*
X156384678Y-126985107D01*
X156424597Y-127079150D01*
X156438634Y-127099498D01*
X156482613Y-127163250D01*
X156556354Y-127233964D01*
X156642808Y-127288407D01*
X156738443Y-127324354D01*
X156798908Y-127333931D01*
X156839351Y-127340337D01*
X156839353Y-127340337D01*
X156941416Y-127335702D01*
X156986264Y-127324354D01*
X157040459Y-127310641D01*
X157040460Y-127310640D01*
X157040462Y-127310640D01*
X157132446Y-127266173D01*
X157213610Y-127204119D01*
X157213614Y-127204116D01*
X157280636Y-127127015D01*
X157281093Y-127126205D01*
X157319365Y-127058281D01*
X157346601Y-127030469D01*
X157384093Y-127020000D01*
X157421796Y-127029680D01*
X157445952Y-127056696D01*
X157447973Y-127055302D01*
X157452311Y-127061590D01*
X157510326Y-127145689D01*
X157584067Y-127216403D01*
X157634574Y-127248209D01*
X157668695Y-127269696D01*
X157670521Y-127270846D01*
X157766156Y-127306793D01*
X157811873Y-127314034D01*
X157867064Y-127322776D01*
X157867066Y-127322776D01*
X157969129Y-127318141D01*
X157969130Y-127318141D01*
X158059557Y-127314034D01*
X158056773Y-127327360D01*
X158056772Y-127327362D01*
X158046075Y-127378564D01*
X158036123Y-127426205D01*
X158035879Y-127427371D01*
X158035523Y-127529538D01*
X158048114Y-127591984D01*
X158055717Y-127629692D01*
X158095636Y-127723735D01*
X158113291Y-127749328D01*
X158153652Y-127807835D01*
X158227393Y-127878549D01*
X158269276Y-127904924D01*
X158310176Y-127930680D01*
X158313847Y-127932992D01*
X158409482Y-127968939D01*
X158470028Y-127978529D01*
X158510390Y-127984922D01*
X158510392Y-127984922D01*
X158612455Y-127980287D01*
X158657303Y-127968939D01*
X158711498Y-127955226D01*
X158711499Y-127955225D01*
X158711501Y-127955225D01*
X158803485Y-127910758D01*
X158884649Y-127848704D01*
X158884650Y-127848703D01*
X158884653Y-127848701D01*
X158951675Y-127771600D01*
X158956891Y-127762344D01*
X159001831Y-127682586D01*
X159033064Y-127585309D01*
X159044098Y-127483739D01*
X159044110Y-127480210D01*
X159043929Y-127478423D01*
X159033785Y-127378564D01*
X159003233Y-127281072D01*
X158953701Y-127191714D01*
X158887214Y-127114142D01*
X158887213Y-127114141D01*
X158806484Y-127051522D01*
X158714813Y-127006414D01*
X158615944Y-126980661D01*
X158513916Y-126975313D01*
X158513914Y-126975313D01*
X158493500Y-126978401D01*
X158412897Y-126990591D01*
X158412891Y-126990593D01*
X158381904Y-126995280D01*
X158393889Y-126884953D01*
X158400772Y-126821593D01*
X158400784Y-126818064D01*
X158400004Y-126810380D01*
X158390459Y-126716418D01*
X158359907Y-126618926D01*
X158310375Y-126529568D01*
X158305389Y-126523751D01*
X158288569Y-126488646D01*
X158291556Y-126449835D01*
X158313548Y-126417716D01*
X158362486Y-126399613D01*
X158592202Y-126399613D01*
X158596831Y-126400648D01*
X158596832Y-126400648D01*
X158605066Y-126400389D01*
X158629773Y-126399613D01*
X158647679Y-126399613D01*
X158653606Y-126398864D01*
X158679510Y-126398050D01*
X158694486Y-126393700D01*
X158709956Y-126391745D01*
X158734051Y-126382205D01*
X158758941Y-126374973D01*
X158758944Y-126374971D01*
X158758945Y-126374971D01*
X158772362Y-126367037D01*
X158786866Y-126361294D01*
X158807843Y-126346054D01*
X158808021Y-126345949D01*
X158830145Y-126332865D01*
X158831364Y-126331790D01*
X158841695Y-126321459D01*
X158853788Y-126312673D01*
X158869625Y-126293529D01*
X159735655Y-125427500D01*
X161751374Y-125427500D01*
X161788974Y-125437575D01*
X161816499Y-125465100D01*
X161826574Y-125502700D01*
X161810430Y-125549255D01*
X161807651Y-125552781D01*
X161794282Y-125569740D01*
X161750731Y-125652517D01*
X161742901Y-125667399D01*
X161710177Y-125772784D01*
X161697207Y-125882373D01*
X161699116Y-125911504D01*
X161704424Y-125992487D01*
X161731587Y-126099443D01*
X161777787Y-126199657D01*
X161841475Y-126289774D01*
X161920520Y-126366776D01*
X161920523Y-126366778D01*
X162012271Y-126428083D01*
X162012272Y-126428084D01*
X162012273Y-126428084D01*
X162016563Y-126429927D01*
X162113662Y-126471644D01*
X162140095Y-126477625D01*
X162221293Y-126495998D01*
X162258048Y-126497442D01*
X162331557Y-126500331D01*
X162331559Y-126500331D01*
X162440768Y-126484496D01*
X162536513Y-126451995D01*
X162545260Y-126449026D01*
X162551269Y-126445661D01*
X162641543Y-126395105D01*
X162726385Y-126324542D01*
X162796948Y-126239700D01*
X162850868Y-126143419D01*
X162886339Y-126038925D01*
X162902174Y-125929716D01*
X162903000Y-125898157D01*
X162901550Y-125882373D01*
X170897207Y-125882373D01*
X170899116Y-125911504D01*
X170904424Y-125992487D01*
X170931587Y-126099443D01*
X170977787Y-126199657D01*
X171041475Y-126289774D01*
X171120520Y-126366776D01*
X171120523Y-126366778D01*
X171212271Y-126428083D01*
X171212272Y-126428084D01*
X171212273Y-126428084D01*
X171216563Y-126429927D01*
X171313662Y-126471644D01*
X171340095Y-126477625D01*
X171421293Y-126495998D01*
X171458048Y-126497442D01*
X171531557Y-126500331D01*
X171531559Y-126500331D01*
X171640768Y-126484496D01*
X171736513Y-126451995D01*
X171745260Y-126449026D01*
X171751269Y-126445661D01*
X171841543Y-126395105D01*
X171926385Y-126324542D01*
X171996948Y-126239700D01*
X172050868Y-126143419D01*
X172086339Y-126038925D01*
X172102174Y-125929716D01*
X172103000Y-125898157D01*
X172092903Y-125788269D01*
X172062949Y-125682061D01*
X172014142Y-125583090D01*
X171948116Y-125494671D01*
X171867083Y-125419765D01*
X171773756Y-125360880D01*
X171671261Y-125319989D01*
X171671260Y-125319989D01*
X171671258Y-125319988D01*
X171608034Y-125307412D01*
X171563031Y-125298460D01*
X171452689Y-125297016D01*
X171452688Y-125297016D01*
X171343931Y-125315704D01*
X171283409Y-125338032D01*
X171240402Y-125353898D01*
X171240401Y-125353899D01*
X171240400Y-125353899D01*
X171145566Y-125410319D01*
X171105438Y-125445510D01*
X171062599Y-125483079D01*
X170994282Y-125569740D01*
X170994281Y-125569742D01*
X170942901Y-125667399D01*
X170910177Y-125772784D01*
X170897207Y-125882373D01*
X162901550Y-125882373D01*
X162892903Y-125788269D01*
X162862949Y-125682061D01*
X162814142Y-125583090D01*
X162791510Y-125552782D01*
X162787711Y-125547694D01*
X162773286Y-125511539D01*
X162778872Y-125473015D01*
X162802971Y-125442446D01*
X162847965Y-125427500D01*
X165861978Y-125427500D01*
X165866607Y-125428535D01*
X165866608Y-125428535D01*
X165874843Y-125428276D01*
X165899549Y-125427500D01*
X165917455Y-125427500D01*
X165923382Y-125426751D01*
X165949286Y-125425937D01*
X165964262Y-125421587D01*
X165979732Y-125419632D01*
X166003827Y-125410092D01*
X166028717Y-125402860D01*
X166028720Y-125402858D01*
X166028721Y-125402858D01*
X166042138Y-125394924D01*
X166056642Y-125389181D01*
X166077619Y-125373941D01*
X166096588Y-125362723D01*
X166099921Y-125360752D01*
X166101140Y-125359677D01*
X166111471Y-125349346D01*
X166123564Y-125340560D01*
X166139401Y-125321416D01*
X166411489Y-125049328D01*
X172796913Y-125049328D01*
X172810502Y-125116721D01*
X172817107Y-125149482D01*
X172857026Y-125243525D01*
X172875020Y-125269609D01*
X172915042Y-125327625D01*
X172988783Y-125398339D01*
X173050009Y-125436895D01*
X173066297Y-125447152D01*
X173075237Y-125452782D01*
X173160986Y-125485013D01*
X173226810Y-125509755D01*
X173142901Y-125669242D01*
X173110177Y-125774627D01*
X173097207Y-125884216D01*
X173101803Y-125954338D01*
X173104424Y-125994330D01*
X173131587Y-126101286D01*
X173177787Y-126201500D01*
X173241475Y-126291617D01*
X173320520Y-126368619D01*
X173320523Y-126368621D01*
X173412271Y-126429926D01*
X173513662Y-126473487D01*
X173531950Y-126477625D01*
X173621293Y-126497841D01*
X173658048Y-126499285D01*
X173731557Y-126502174D01*
X173731559Y-126502174D01*
X173840768Y-126486339D01*
X173893015Y-126468603D01*
X173945260Y-126450869D01*
X173945262Y-126450868D01*
X174041543Y-126396948D01*
X174126385Y-126326385D01*
X174196948Y-126241543D01*
X174250868Y-126145262D01*
X174251495Y-126143417D01*
X174283659Y-126048662D01*
X174286339Y-126040768D01*
X174302174Y-125931559D01*
X174302699Y-125911504D01*
X174303000Y-125900006D01*
X174303000Y-125900000D01*
X174292903Y-125790112D01*
X174262949Y-125683904D01*
X174214142Y-125584933D01*
X174154526Y-125505098D01*
X174148117Y-125496515D01*
X174067084Y-125421609D01*
X174067083Y-125421608D01*
X173973756Y-125362723D01*
X173871261Y-125321832D01*
X173871260Y-125321832D01*
X173871258Y-125321831D01*
X173713593Y-125290469D01*
X173763220Y-125202379D01*
X173775943Y-125162753D01*
X173794454Y-125105099D01*
X173800512Y-125049328D01*
X181296913Y-125049328D01*
X181310502Y-125116721D01*
X181317107Y-125149482D01*
X181357026Y-125243525D01*
X181375020Y-125269609D01*
X181415042Y-125327625D01*
X181488783Y-125398339D01*
X181575237Y-125452782D01*
X181670872Y-125488729D01*
X181670873Y-125488729D01*
X181695216Y-125497879D01*
X181594282Y-125625914D01*
X181542901Y-125723574D01*
X181510177Y-125828959D01*
X181497207Y-125938548D01*
X181503907Y-126040768D01*
X181504424Y-126048662D01*
X181531587Y-126155618D01*
X181577787Y-126255832D01*
X181641475Y-126345949D01*
X181720520Y-126422951D01*
X181720523Y-126422953D01*
X181812271Y-126484258D01*
X181812272Y-126484259D01*
X181812273Y-126484259D01*
X181820422Y-126487760D01*
X181913662Y-126527819D01*
X181967478Y-126539996D01*
X182021293Y-126552173D01*
X182058048Y-126553617D01*
X182131557Y-126556506D01*
X182131559Y-126556506D01*
X182240768Y-126540671D01*
X182307714Y-126517946D01*
X182345260Y-126505201D01*
X182353956Y-126500331D01*
X182441543Y-126451280D01*
X182526385Y-126380717D01*
X182596948Y-126295875D01*
X182622032Y-126251083D01*
X184699364Y-126251083D01*
X184707869Y-126295875D01*
X184718958Y-126354282D01*
X184748984Y-126429927D01*
X184757712Y-126451916D01*
X184814230Y-126540461D01*
X184886471Y-126616721D01*
X184971832Y-126677946D01*
X185067221Y-126721920D01*
X185067222Y-126721920D01*
X185067226Y-126721922D01*
X185169216Y-126747068D01*
X185169217Y-126747068D01*
X185169221Y-126747069D01*
X185274121Y-126752475D01*
X185378154Y-126737946D01*
X185389771Y-126733980D01*
X185477567Y-126704006D01*
X185479543Y-126702877D01*
X185568767Y-126651881D01*
X185590473Y-126633244D01*
X190499500Y-126633244D01*
X190499500Y-127439197D01*
X190506750Y-127552854D01*
X190535846Y-127703241D01*
X190583466Y-127847652D01*
X190583813Y-127848703D01*
X190649875Y-127986894D01*
X190732960Y-128115571D01*
X190754215Y-128140768D01*
X190810306Y-128207260D01*
X190831722Y-128232648D01*
X190944560Y-128336227D01*
X191069645Y-128424628D01*
X191069648Y-128424630D01*
X191069650Y-128424631D01*
X191204941Y-128496415D01*
X191204946Y-128496417D01*
X191204948Y-128496418D01*
X191348277Y-128550435D01*
X191441020Y-128572444D01*
X191497310Y-128585802D01*
X191649624Y-128601945D01*
X191802758Y-128598603D01*
X191903734Y-128583422D01*
X191954223Y-128575831D01*
X192043674Y-128550435D01*
X192101567Y-128533999D01*
X192242406Y-128473781D01*
X192374447Y-128396158D01*
X192449327Y-128338180D01*
X192495558Y-128302384D01*
X192603771Y-128193982D01*
X192607824Y-128188729D01*
X192697333Y-128072708D01*
X192774727Y-127940530D01*
X192799361Y-127882635D01*
X193722551Y-127882635D01*
X193731166Y-127985224D01*
X193755171Y-128068940D01*
X193759544Y-128084189D01*
X193806599Y-128175750D01*
X193870548Y-128256433D01*
X193924542Y-128302384D01*
X193948949Y-128323156D01*
X194016962Y-128361167D01*
X194038818Y-128373382D01*
X194136726Y-128405195D01*
X194170802Y-128409258D01*
X194238953Y-128417384D01*
X194238955Y-128417384D01*
X194341596Y-128409487D01*
X194389335Y-128396158D01*
X194440757Y-128381801D01*
X194473901Y-128365059D01*
X194532648Y-128335384D01*
X194613774Y-128272001D01*
X194681044Y-128194068D01*
X194731896Y-128104553D01*
X194764391Y-128006868D01*
X194777294Y-127904733D01*
X194777383Y-127898339D01*
X194777500Y-127890000D01*
X194767454Y-127787541D01*
X194765276Y-127780327D01*
X194737699Y-127688987D01*
X194735544Y-127684933D01*
X194696854Y-127612168D01*
X194689365Y-127598084D01*
X194624301Y-127518306D01*
X194544976Y-127452684D01*
X194534761Y-127447161D01*
X194454414Y-127403717D01*
X194356069Y-127373274D01*
X194322026Y-127369696D01*
X194253686Y-127362513D01*
X194253683Y-127362513D01*
X194151156Y-127371843D01*
X194101775Y-127386377D01*
X194054461Y-127400303D01*
X194052395Y-127400911D01*
X193961160Y-127448607D01*
X193910433Y-127489393D01*
X193891433Y-127504670D01*
X193880928Y-127513116D01*
X193814753Y-127591980D01*
X193765156Y-127682196D01*
X193734027Y-127780327D01*
X193722551Y-127882635D01*
X192799361Y-127882635D01*
X192834696Y-127799595D01*
X192876273Y-127652172D01*
X192898782Y-127500660D01*
X192900500Y-127459644D01*
X192900500Y-122560802D01*
X192893250Y-122447145D01*
X192864154Y-122296758D01*
X192833117Y-122202635D01*
X193722551Y-122202635D01*
X193731166Y-122305224D01*
X193752690Y-122380286D01*
X193759544Y-122404189D01*
X193806599Y-122495750D01*
X193870548Y-122576433D01*
X193933126Y-122629690D01*
X193948949Y-122643156D01*
X194026726Y-122686624D01*
X194038818Y-122693382D01*
X194137482Y-122725441D01*
X194170128Y-122746642D01*
X194187800Y-122781326D01*
X194185762Y-122820199D01*
X194153871Y-122860871D01*
X194091572Y-122899498D01*
X194032642Y-122955225D01*
X194017337Y-122969698D01*
X193990818Y-123007572D01*
X193958738Y-123053387D01*
X193923883Y-123133931D01*
X193918162Y-123147152D01*
X193897271Y-123247152D01*
X193897269Y-123247161D01*
X193896913Y-123349328D01*
X193909538Y-123411942D01*
X193917107Y-123449482D01*
X193957026Y-123543525D01*
X193962965Y-123552134D01*
X194015042Y-123627625D01*
X194088783Y-123698339D01*
X194139930Y-123730548D01*
X194170494Y-123749795D01*
X194175237Y-123752782D01*
X194270872Y-123788729D01*
X194331418Y-123798319D01*
X194371780Y-123804712D01*
X194371782Y-123804712D01*
X194473845Y-123800077D01*
X194480714Y-123798339D01*
X194572888Y-123775016D01*
X194572889Y-123775015D01*
X194572891Y-123775015D01*
X194664875Y-123730548D01*
X194746039Y-123668494D01*
X194746043Y-123668491D01*
X194813065Y-123591390D01*
X194823328Y-123573177D01*
X194863221Y-123502376D01*
X194894454Y-123405099D01*
X194905488Y-123303529D01*
X194905500Y-123300000D01*
X194901998Y-123265519D01*
X194895175Y-123198354D01*
X194864623Y-123100862D01*
X194815091Y-123011504D01*
X194748604Y-122933932D01*
X194747391Y-122932991D01*
X194667874Y-122871312D01*
X194576203Y-122826204D01*
X194516934Y-122810766D01*
X194483089Y-122791540D01*
X194463391Y-122757965D01*
X194463119Y-122719040D01*
X194482346Y-122685193D01*
X194501985Y-122670873D01*
X194532648Y-122655384D01*
X194613774Y-122592001D01*
X194681044Y-122514068D01*
X194731896Y-122424553D01*
X194764391Y-122326868D01*
X194777294Y-122224733D01*
X194777397Y-122217357D01*
X194777500Y-122210000D01*
X194767454Y-122107541D01*
X194756063Y-122069811D01*
X194737699Y-122008987D01*
X194736332Y-122006415D01*
X194702892Y-121943525D01*
X194689365Y-121918084D01*
X194624301Y-121838306D01*
X194544976Y-121772684D01*
X194535116Y-121767353D01*
X194454414Y-121723717D01*
X194356069Y-121693274D01*
X194330472Y-121690584D01*
X194253686Y-121682513D01*
X194253683Y-121682513D01*
X194151156Y-121691843D01*
X194123442Y-121700000D01*
X194064416Y-121717373D01*
X194052395Y-121720911D01*
X193961160Y-121768607D01*
X193900733Y-121817192D01*
X193883958Y-121830680D01*
X193880928Y-121833116D01*
X193814753Y-121911980D01*
X193765156Y-122002196D01*
X193734027Y-122100327D01*
X193722551Y-122202635D01*
X192833117Y-122202635D01*
X192816188Y-122151298D01*
X192803012Y-122123736D01*
X192750125Y-122013105D01*
X192741987Y-122000502D01*
X192667042Y-121884429D01*
X192568280Y-121767353D01*
X192455440Y-121663773D01*
X192401805Y-121625868D01*
X192330355Y-121575372D01*
X192330352Y-121575370D01*
X192330350Y-121575369D01*
X192195059Y-121503585D01*
X192195054Y-121503583D01*
X192195052Y-121503582D01*
X192051723Y-121449565D01*
X191944706Y-121424169D01*
X191902690Y-121414198D01*
X191750376Y-121398055D01*
X191597242Y-121401397D01*
X191512092Y-121414199D01*
X191445777Y-121424169D01*
X191397255Y-121437945D01*
X191298433Y-121466001D01*
X191157594Y-121526219D01*
X191079030Y-121572405D01*
X191025552Y-121603843D01*
X190904443Y-121697616D01*
X190904442Y-121697617D01*
X190796229Y-121806019D01*
X190702668Y-121927292D01*
X190625274Y-122059470D01*
X190565305Y-122200405D01*
X190523728Y-122347828D01*
X190501219Y-122499340D01*
X190499501Y-122540349D01*
X190499500Y-126633244D01*
X185590473Y-126633244D01*
X185648464Y-126583453D01*
X185713787Y-126501184D01*
X185762369Y-126408054D01*
X185762467Y-126407728D01*
X185778451Y-126354281D01*
X185792468Y-126307414D01*
X185802992Y-126202895D01*
X185803000Y-126199997D01*
X185793024Y-126095431D01*
X185773989Y-126030548D01*
X185763453Y-125994634D01*
X185738152Y-125945509D01*
X185715356Y-125901248D01*
X185658574Y-125828961D01*
X185650467Y-125818640D01*
X185571129Y-125749794D01*
X185487669Y-125701511D01*
X185480205Y-125697193D01*
X185480204Y-125697193D01*
X185480203Y-125697192D01*
X185380971Y-125662733D01*
X185277014Y-125647660D01*
X185180610Y-125652122D01*
X185172080Y-125652517D01*
X185107228Y-125668147D01*
X185069961Y-125677128D01*
X185069960Y-125677129D01*
X185069958Y-125677129D01*
X184974336Y-125720605D01*
X184939015Y-125745661D01*
X184888658Y-125781382D01*
X184816019Y-125857262D01*
X184759038Y-125945510D01*
X184719773Y-126042940D01*
X184718656Y-126048662D01*
X184699639Y-126146036D01*
X184699364Y-126251083D01*
X182622032Y-126251083D01*
X182650868Y-126199594D01*
X182650959Y-126199328D01*
X182669938Y-126143417D01*
X182686339Y-126095100D01*
X182702174Y-125985891D01*
X182703000Y-125954332D01*
X182692903Y-125844444D01*
X182662949Y-125738236D01*
X182614142Y-125639265D01*
X182573569Y-125584932D01*
X182548117Y-125550847D01*
X182491314Y-125498339D01*
X182467083Y-125475940D01*
X182373756Y-125417055D01*
X182271261Y-125376164D01*
X182271246Y-125376158D01*
X182175996Y-125357180D01*
X182263221Y-125202376D01*
X182280253Y-125149328D01*
X184096913Y-125149328D01*
X184111006Y-125219221D01*
X184117107Y-125249482D01*
X184157026Y-125343525D01*
X184175020Y-125369609D01*
X184215042Y-125427625D01*
X184288783Y-125498339D01*
X184339930Y-125530548D01*
X184373862Y-125551916D01*
X184375237Y-125552782D01*
X184470872Y-125588729D01*
X184531418Y-125598319D01*
X184571780Y-125604712D01*
X184571782Y-125604712D01*
X184673845Y-125600077D01*
X184697680Y-125594046D01*
X184772888Y-125575016D01*
X184772889Y-125575015D01*
X184772891Y-125575015D01*
X184864875Y-125530548D01*
X184946039Y-125468494D01*
X184946043Y-125468491D01*
X185013065Y-125391390D01*
X185021645Y-125376164D01*
X185063221Y-125302376D01*
X185094454Y-125205099D01*
X185100512Y-125149328D01*
X187296913Y-125149328D01*
X187311006Y-125219221D01*
X187317107Y-125249482D01*
X187357026Y-125343525D01*
X187375020Y-125369609D01*
X187415042Y-125427625D01*
X187488783Y-125498339D01*
X187539930Y-125530548D01*
X187573862Y-125551916D01*
X187575237Y-125552782D01*
X187670872Y-125588729D01*
X187731418Y-125598319D01*
X187771780Y-125604712D01*
X187771782Y-125604712D01*
X187873845Y-125600077D01*
X187897680Y-125594046D01*
X187972888Y-125575016D01*
X187972889Y-125575015D01*
X187972891Y-125575015D01*
X188064875Y-125530548D01*
X188146039Y-125468494D01*
X188146043Y-125468491D01*
X188213065Y-125391390D01*
X188221645Y-125376164D01*
X188263221Y-125302376D01*
X188294454Y-125205099D01*
X188305488Y-125103529D01*
X188305500Y-125100000D01*
X188300133Y-125047159D01*
X188295175Y-124998354D01*
X188264623Y-124900862D01*
X188215091Y-124811504D01*
X188148604Y-124733932D01*
X188119690Y-124711504D01*
X188067874Y-124671312D01*
X187976203Y-124626204D01*
X187877334Y-124600451D01*
X187775306Y-124595103D01*
X187775304Y-124595103D01*
X187674291Y-124610380D01*
X187674289Y-124610381D01*
X187674287Y-124610381D01*
X187578403Y-124645660D01*
X187578402Y-124645661D01*
X187578401Y-124645661D01*
X187539637Y-124669696D01*
X187491572Y-124699498D01*
X187417339Y-124769696D01*
X187417337Y-124769698D01*
X187388545Y-124810818D01*
X187358738Y-124853387D01*
X187329042Y-124922011D01*
X187318162Y-124947152D01*
X187298669Y-125040461D01*
X187297269Y-125047161D01*
X187296913Y-125149328D01*
X185100512Y-125149328D01*
X185105488Y-125103529D01*
X185105500Y-125100000D01*
X185100133Y-125047159D01*
X185095175Y-124998354D01*
X185064623Y-124900862D01*
X185015091Y-124811504D01*
X184948604Y-124733932D01*
X184919690Y-124711504D01*
X184867874Y-124671312D01*
X184776203Y-124626204D01*
X184677334Y-124600451D01*
X184575306Y-124595103D01*
X184575304Y-124595103D01*
X184474291Y-124610380D01*
X184474289Y-124610381D01*
X184474287Y-124610381D01*
X184378403Y-124645660D01*
X184378402Y-124645661D01*
X184378401Y-124645661D01*
X184339637Y-124669696D01*
X184291572Y-124699498D01*
X184217339Y-124769696D01*
X184217337Y-124769698D01*
X184188545Y-124810818D01*
X184158738Y-124853387D01*
X184129042Y-124922011D01*
X184118162Y-124947152D01*
X184098669Y-125040461D01*
X184097269Y-125047161D01*
X184096913Y-125149328D01*
X182280253Y-125149328D01*
X182281233Y-125146276D01*
X182294454Y-125105099D01*
X182305488Y-125003529D01*
X182305500Y-125000000D01*
X182305486Y-124999857D01*
X182295175Y-124898354D01*
X182264623Y-124800862D01*
X182215091Y-124711504D01*
X182148604Y-124633932D01*
X182148603Y-124633931D01*
X182067874Y-124571312D01*
X181976203Y-124526204D01*
X181877334Y-124500451D01*
X181775306Y-124495103D01*
X181775304Y-124495103D01*
X181674291Y-124510380D01*
X181674289Y-124510381D01*
X181674287Y-124510381D01*
X181578403Y-124545660D01*
X181578402Y-124545661D01*
X181578401Y-124545661D01*
X181537031Y-124571312D01*
X181491572Y-124599498D01*
X181436178Y-124651881D01*
X181417337Y-124669698D01*
X181378272Y-124725490D01*
X181358738Y-124753387D01*
X181330550Y-124818525D01*
X181318162Y-124847152D01*
X181297271Y-124947152D01*
X181297269Y-124947161D01*
X181296913Y-125049328D01*
X173800512Y-125049328D01*
X173805488Y-125003529D01*
X173805500Y-125000000D01*
X173805486Y-124999857D01*
X173795175Y-124898354D01*
X173764623Y-124800862D01*
X173715091Y-124711504D01*
X173648604Y-124633932D01*
X173648603Y-124633931D01*
X173567874Y-124571312D01*
X173476203Y-124526204D01*
X173377334Y-124500451D01*
X173275306Y-124495103D01*
X173275304Y-124495103D01*
X173174291Y-124510380D01*
X173174289Y-124510381D01*
X173174287Y-124510381D01*
X173078403Y-124545660D01*
X173078402Y-124545661D01*
X173078401Y-124545661D01*
X173037031Y-124571312D01*
X172991572Y-124599498D01*
X172936178Y-124651881D01*
X172917337Y-124669698D01*
X172878272Y-124725490D01*
X172858738Y-124753387D01*
X172830550Y-124818525D01*
X172818162Y-124847152D01*
X172797271Y-124947152D01*
X172797269Y-124947161D01*
X172796913Y-125049328D01*
X166411489Y-125049328D01*
X166508475Y-124952343D01*
X166546378Y-124950621D01*
X166624512Y-124947073D01*
X166624516Y-124947072D01*
X166723555Y-124922012D01*
X166723556Y-124922011D01*
X166723558Y-124922011D01*
X166815542Y-124877544D01*
X166896706Y-124815490D01*
X166896710Y-124815487D01*
X166963732Y-124738386D01*
X166966243Y-124733931D01*
X167013888Y-124649372D01*
X167045121Y-124552095D01*
X167056155Y-124450525D01*
X167056167Y-124446996D01*
X167055729Y-124442679D01*
X167045842Y-124345350D01*
X167015290Y-124247858D01*
X166965758Y-124158500D01*
X166899271Y-124080928D01*
X166899270Y-124080927D01*
X166818541Y-124018308D01*
X166726870Y-123973200D01*
X166628001Y-123947447D01*
X166525973Y-123942099D01*
X166525971Y-123942099D01*
X166424958Y-123957376D01*
X166424956Y-123957377D01*
X166424954Y-123957377D01*
X166329070Y-123992656D01*
X166329069Y-123992657D01*
X166329068Y-123992657D01*
X166317103Y-124000076D01*
X166242239Y-124046494D01*
X166190489Y-124095431D01*
X166168004Y-124116694D01*
X166146322Y-124147660D01*
X166109405Y-124200383D01*
X166068829Y-124294148D01*
X166047936Y-124394156D01*
X166047612Y-124486897D01*
X165762009Y-124772500D01*
X159635682Y-124772500D01*
X159631056Y-124771466D01*
X159631055Y-124771466D01*
X159620082Y-124771811D01*
X159598134Y-124772500D01*
X159580211Y-124772500D01*
X159574280Y-124773249D01*
X159557010Y-124773792D01*
X159548373Y-124774063D01*
X159533397Y-124778414D01*
X159521799Y-124779880D01*
X159517932Y-124780368D01*
X159493829Y-124789911D01*
X159468941Y-124797142D01*
X159455522Y-124805078D01*
X159451804Y-124806550D01*
X159441022Y-124810818D01*
X159441020Y-124810819D01*
X159441021Y-124810819D01*
X159420049Y-124826056D01*
X159406857Y-124833857D01*
X159397741Y-124839248D01*
X159396515Y-124840329D01*
X159386189Y-124850656D01*
X159374100Y-124859439D01*
X159374099Y-124859440D01*
X159358266Y-124878579D01*
X158492233Y-125744613D01*
X156444945Y-125744613D01*
X156440316Y-125743578D01*
X156440315Y-125743578D01*
X156432080Y-125743837D01*
X156407374Y-125744613D01*
X156389468Y-125744613D01*
X156383541Y-125745362D01*
X156357635Y-125746176D01*
X156342662Y-125750527D01*
X156327193Y-125752480D01*
X156303088Y-125762023D01*
X156278202Y-125769254D01*
X156264781Y-125777191D01*
X156250283Y-125782931D01*
X156250282Y-125782931D01*
X156250281Y-125782932D01*
X156229309Y-125798169D01*
X156207000Y-125811362D01*
X156205782Y-125812436D01*
X156195449Y-125822769D01*
X156183360Y-125831552D01*
X156183359Y-125831553D01*
X156167526Y-125850692D01*
X154525518Y-127492701D01*
X154465247Y-127489543D01*
X154462389Y-127489393D01*
X154462388Y-127489393D01*
X154361374Y-127504670D01*
X154361372Y-127504671D01*
X154361370Y-127504671D01*
X154265486Y-127539950D01*
X154265485Y-127539951D01*
X154265484Y-127539951D01*
X154226015Y-127564423D01*
X154178655Y-127593788D01*
X154115630Y-127653387D01*
X154104420Y-127663988D01*
X154074947Y-127706081D01*
X154045821Y-127747677D01*
X154012758Y-127824081D01*
X154005245Y-127841442D01*
X153985356Y-127936646D01*
X153984352Y-127941451D01*
X153983996Y-128043618D01*
X153995844Y-128102376D01*
X154004190Y-128143772D01*
X154044109Y-128237815D01*
X154056952Y-128256432D01*
X154102125Y-128321915D01*
X154152817Y-128370526D01*
X154172980Y-128403819D01*
X154173795Y-128442737D01*
X154155043Y-128476849D01*
X154121747Y-128497014D01*
X154100766Y-128500000D01*
X153125512Y-128500000D01*
X153087912Y-128489925D01*
X153060387Y-128462400D01*
X153050312Y-128424800D01*
X153067696Y-128376714D01*
X153070468Y-128373382D01*
X153087601Y-128352782D01*
X153096946Y-128341546D01*
X153100398Y-128335383D01*
X153150868Y-128245262D01*
X153152183Y-128241390D01*
X153182261Y-128152781D01*
X153186339Y-128140768D01*
X153202174Y-128031559D01*
X153203000Y-128000000D01*
X153192903Y-127890112D01*
X153162949Y-127783904D01*
X153114142Y-127684933D01*
X153068480Y-127623784D01*
X153048117Y-127596515D01*
X153043721Y-127592451D01*
X152967083Y-127521608D01*
X152873756Y-127462723D01*
X152771261Y-127421832D01*
X152771260Y-127421832D01*
X152771258Y-127421831D01*
X152713690Y-127410380D01*
X152663031Y-127400303D01*
X152663029Y-127400303D01*
X152650501Y-127397811D01*
X152650501Y-124920694D01*
X157409943Y-124920694D01*
X157422475Y-124982844D01*
X157430137Y-125020848D01*
X157470056Y-125114891D01*
X157477860Y-125126204D01*
X157528072Y-125198991D01*
X157601813Y-125269705D01*
X157647475Y-125298460D01*
X157684588Y-125321831D01*
X157688267Y-125324148D01*
X157783902Y-125360095D01*
X157844448Y-125369685D01*
X157884810Y-125376078D01*
X157884812Y-125376078D01*
X157986875Y-125371443D01*
X158021337Y-125362723D01*
X158085918Y-125346382D01*
X158085919Y-125346381D01*
X158085921Y-125346381D01*
X158177905Y-125301914D01*
X158259069Y-125239860D01*
X158259073Y-125239857D01*
X158326095Y-125162756D01*
X158333575Y-125149482D01*
X158376251Y-125073742D01*
X158407484Y-124976465D01*
X158418518Y-124874895D01*
X158418530Y-124871366D01*
X158417319Y-124859439D01*
X158408205Y-124769720D01*
X158377653Y-124672228D01*
X158328121Y-124582870D01*
X158261634Y-124505298D01*
X158261633Y-124505297D01*
X158180904Y-124442678D01*
X158089233Y-124397570D01*
X157990364Y-124371817D01*
X157888336Y-124366469D01*
X157888334Y-124366469D01*
X157787321Y-124381746D01*
X157787319Y-124381747D01*
X157787317Y-124381747D01*
X157691433Y-124417026D01*
X157604602Y-124470864D01*
X157568190Y-124505297D01*
X157530367Y-124541064D01*
X157500688Y-124583451D01*
X157471768Y-124624753D01*
X157451620Y-124671312D01*
X157431192Y-124718518D01*
X157413109Y-124805078D01*
X157410299Y-124818527D01*
X157409943Y-124920694D01*
X152650501Y-124920694D01*
X152650500Y-121847454D01*
X155496913Y-121847454D01*
X155511154Y-121918084D01*
X155517107Y-121947608D01*
X155557026Y-122041651D01*
X155563836Y-122051522D01*
X155615042Y-122125751D01*
X155688783Y-122196465D01*
X155733672Y-122224733D01*
X155769273Y-122247152D01*
X155775237Y-122250908D01*
X155870872Y-122286855D01*
X155931418Y-122296445D01*
X155971780Y-122302838D01*
X155971782Y-122302838D01*
X156073845Y-122298203D01*
X156118693Y-122286855D01*
X156172888Y-122273142D01*
X156172889Y-122273141D01*
X156172891Y-122273141D01*
X156264875Y-122228674D01*
X156346039Y-122166620D01*
X156346043Y-122166617D01*
X156413065Y-122089516D01*
X156418592Y-122079708D01*
X156458257Y-122009312D01*
X156485493Y-121981499D01*
X156522985Y-121971031D01*
X156560688Y-121980711D01*
X156588501Y-122007947D01*
X156594151Y-122022666D01*
X156594167Y-122022659D01*
X156637071Y-122123735D01*
X156652874Y-122146643D01*
X156695087Y-122207835D01*
X156768828Y-122278549D01*
X156811184Y-122305222D01*
X156846342Y-122327362D01*
X156855282Y-122332992D01*
X156950917Y-122368939D01*
X157011463Y-122378529D01*
X157051825Y-122384922D01*
X157051827Y-122384922D01*
X157153890Y-122380287D01*
X157153894Y-122380286D01*
X157252933Y-122355226D01*
X157252934Y-122355225D01*
X157252936Y-122355225D01*
X157344920Y-122310758D01*
X157399507Y-122269024D01*
X157435496Y-122254191D01*
X157474080Y-122259340D01*
X157504921Y-122283091D01*
X157519754Y-122319081D01*
X157518791Y-122344143D01*
X157518163Y-122347150D01*
X157518162Y-122347152D01*
X157511240Y-122380286D01*
X157497271Y-122447152D01*
X157497269Y-122447161D01*
X157496913Y-122549328D01*
X157511304Y-122620700D01*
X157517107Y-122649482D01*
X157557026Y-122743525D01*
X157568334Y-122759917D01*
X157615042Y-122827625D01*
X157688783Y-122898339D01*
X157743811Y-122932992D01*
X157758127Y-122942007D01*
X157775237Y-122952782D01*
X157870872Y-122988729D01*
X157931418Y-122998319D01*
X157971780Y-123004712D01*
X157971782Y-123004712D01*
X158073845Y-123000077D01*
X158080714Y-122998339D01*
X158172888Y-122975016D01*
X158172889Y-122975015D01*
X158172891Y-122975015D01*
X158264875Y-122930548D01*
X158346039Y-122868494D01*
X158346043Y-122868491D01*
X158413065Y-122791390D01*
X158446680Y-122731733D01*
X158463221Y-122702376D01*
X158494454Y-122605099D01*
X158505488Y-122503529D01*
X158505500Y-122500000D01*
X158505069Y-122495751D01*
X158500354Y-122449328D01*
X159796913Y-122449328D01*
X159809967Y-122514068D01*
X159817107Y-122549482D01*
X159857026Y-122643525D01*
X159865206Y-122655383D01*
X159915042Y-122727625D01*
X159988783Y-122798339D01*
X160075237Y-122852782D01*
X160170872Y-122888729D01*
X160231418Y-122898319D01*
X160271780Y-122904712D01*
X160271782Y-122904712D01*
X160373845Y-122900077D01*
X160380714Y-122898339D01*
X160472888Y-122875016D01*
X160472889Y-122875015D01*
X160472891Y-122875015D01*
X160564875Y-122830548D01*
X160640301Y-122772881D01*
X160646043Y-122768491D01*
X160713065Y-122691390D01*
X160715751Y-122686624D01*
X160763221Y-122602376D01*
X160794454Y-122505099D01*
X160800512Y-122449328D01*
X170596913Y-122449328D01*
X170609967Y-122514068D01*
X170617107Y-122549482D01*
X170657026Y-122643525D01*
X170665206Y-122655383D01*
X170715042Y-122727625D01*
X170788783Y-122798339D01*
X170807905Y-122810381D01*
X170951124Y-122900572D01*
X170878406Y-122945659D01*
X170878403Y-122945660D01*
X170791572Y-122999498D01*
X170728889Y-123058774D01*
X170717337Y-123069698D01*
X170688065Y-123111504D01*
X170658738Y-123153387D01*
X170618162Y-123247152D01*
X170597271Y-123347152D01*
X170597269Y-123347161D01*
X170596913Y-123449328D01*
X170609212Y-123510326D01*
X170617107Y-123549482D01*
X170657026Y-123643525D01*
X170663229Y-123652517D01*
X170715042Y-123727625D01*
X170788783Y-123798339D01*
X170875237Y-123852782D01*
X170970872Y-123888729D01*
X171031418Y-123898319D01*
X171071780Y-123904712D01*
X171071782Y-123904712D01*
X171173845Y-123900077D01*
X171218693Y-123888729D01*
X171272888Y-123875016D01*
X171272889Y-123875015D01*
X171272891Y-123875015D01*
X171364875Y-123830548D01*
X171446039Y-123768494D01*
X171446043Y-123768491D01*
X171513065Y-123691390D01*
X171527861Y-123665132D01*
X171563221Y-123602376D01*
X171580253Y-123549328D01*
X174496913Y-123549328D01*
X174509792Y-123613201D01*
X174517107Y-123649482D01*
X174557026Y-123743525D01*
X174563411Y-123752781D01*
X174615042Y-123827625D01*
X174688783Y-123898339D01*
X174730942Y-123924888D01*
X174763688Y-123945509D01*
X174775237Y-123952782D01*
X174870872Y-123988729D01*
X174931418Y-123998319D01*
X174971780Y-124004712D01*
X174971782Y-124004712D01*
X175073845Y-124000077D01*
X175118693Y-123988729D01*
X175172888Y-123975016D01*
X175172889Y-123975015D01*
X175172891Y-123975015D01*
X175264875Y-123930548D01*
X175346039Y-123868494D01*
X175346043Y-123868491D01*
X175413065Y-123791390D01*
X175414565Y-123788729D01*
X175463221Y-123702376D01*
X175494454Y-123605099D01*
X175505488Y-123503529D01*
X175505500Y-123500000D01*
X175504433Y-123489488D01*
X175495175Y-123398354D01*
X175464623Y-123300862D01*
X175415091Y-123211504D01*
X175348604Y-123133932D01*
X175314632Y-123107581D01*
X175267874Y-123071312D01*
X175176203Y-123026204D01*
X175077334Y-123000451D01*
X174975306Y-122995103D01*
X174975304Y-122995103D01*
X174874291Y-123010380D01*
X174874289Y-123010381D01*
X174874287Y-123010381D01*
X174778403Y-123045660D01*
X174778402Y-123045661D01*
X174778401Y-123045661D01*
X174757252Y-123058774D01*
X174691572Y-123099498D01*
X174623412Y-123163953D01*
X174617337Y-123169698D01*
X174595516Y-123200862D01*
X174558738Y-123253387D01*
X174520789Y-123341081D01*
X174518162Y-123347152D01*
X174504627Y-123411942D01*
X174497269Y-123447161D01*
X174496913Y-123549328D01*
X171580253Y-123549328D01*
X171594454Y-123505099D01*
X171605488Y-123403529D01*
X171605500Y-123400000D01*
X171604597Y-123391103D01*
X171595175Y-123298354D01*
X171564623Y-123200862D01*
X171515091Y-123111504D01*
X171448604Y-123033932D01*
X171448603Y-123033931D01*
X171367874Y-122971312D01*
X171360426Y-122967647D01*
X171331138Y-122942007D01*
X171318593Y-122905158D01*
X171326154Y-122866973D01*
X171360895Y-122832472D01*
X171364875Y-122830548D01*
X171446039Y-122768494D01*
X171446043Y-122768491D01*
X171513065Y-122691390D01*
X171515751Y-122686624D01*
X171563221Y-122602376D01*
X171594454Y-122505099D01*
X171605488Y-122403529D01*
X171605500Y-122400000D01*
X171603969Y-122384922D01*
X171595175Y-122298354D01*
X171564623Y-122200862D01*
X171515091Y-122111504D01*
X171448604Y-122033932D01*
X171443135Y-122029690D01*
X171367874Y-121971312D01*
X171276203Y-121926204D01*
X171177334Y-121900451D01*
X171075306Y-121895103D01*
X171075304Y-121895103D01*
X170974291Y-121910380D01*
X170974289Y-121910381D01*
X170974287Y-121910381D01*
X170878403Y-121945660D01*
X170791572Y-121999498D01*
X170759645Y-122029690D01*
X170717337Y-122069698D01*
X170686156Y-122114230D01*
X170658738Y-122153387D01*
X170631056Y-122217357D01*
X170618162Y-122247152D01*
X170597271Y-122347152D01*
X170597269Y-122347161D01*
X170596913Y-122449328D01*
X160800512Y-122449328D01*
X160805488Y-122403529D01*
X160805500Y-122400000D01*
X160803969Y-122384922D01*
X160795175Y-122298354D01*
X160764623Y-122200862D01*
X160715091Y-122111504D01*
X160648604Y-122033932D01*
X160643135Y-122029690D01*
X160567874Y-121971312D01*
X160476203Y-121926204D01*
X160377334Y-121900451D01*
X160275306Y-121895103D01*
X160275304Y-121895103D01*
X160174291Y-121910380D01*
X160174289Y-121910381D01*
X160174287Y-121910381D01*
X160078403Y-121945660D01*
X159991572Y-121999498D01*
X159959645Y-122029690D01*
X159917337Y-122069698D01*
X159886156Y-122114230D01*
X159858738Y-122153387D01*
X159831056Y-122217357D01*
X159818162Y-122247152D01*
X159797271Y-122347152D01*
X159797269Y-122347161D01*
X159796913Y-122449328D01*
X158500354Y-122449328D01*
X158495175Y-122398354D01*
X158464623Y-122300862D01*
X158415091Y-122211504D01*
X158348604Y-122133932D01*
X158348603Y-122133931D01*
X158267874Y-122071312D01*
X158176203Y-122026204D01*
X158077334Y-122000451D01*
X157975306Y-121995103D01*
X157975304Y-121995103D01*
X157874291Y-122010380D01*
X157874289Y-122010381D01*
X157874287Y-122010381D01*
X157778403Y-122045660D01*
X157778402Y-122045661D01*
X157778401Y-122045661D01*
X157691570Y-122099499D01*
X157683610Y-122107026D01*
X157649368Y-122125539D01*
X157610457Y-122124451D01*
X157577303Y-122104053D01*
X157558790Y-122069811D01*
X157560343Y-122029399D01*
X157574499Y-121985309D01*
X157585533Y-121883739D01*
X157585545Y-121880210D01*
X157582424Y-121849480D01*
X157575220Y-121778564D01*
X157566059Y-121749328D01*
X186396913Y-121749328D01*
X186408344Y-121806018D01*
X186417107Y-121849482D01*
X186457026Y-121943525D01*
X186459843Y-121947608D01*
X186515042Y-122027625D01*
X186588783Y-122098339D01*
X186675237Y-122152782D01*
X186770872Y-122188729D01*
X186819714Y-122196465D01*
X186871780Y-122204712D01*
X186871782Y-122204712D01*
X186973845Y-122200077D01*
X187018693Y-122188729D01*
X187072888Y-122175016D01*
X187072889Y-122175015D01*
X187072891Y-122175015D01*
X187164875Y-122130548D01*
X187246039Y-122068494D01*
X187246043Y-122068491D01*
X187313065Y-121991390D01*
X187313516Y-121990591D01*
X187363221Y-121902376D01*
X187394454Y-121805099D01*
X187405488Y-121703529D01*
X187405500Y-121700000D01*
X187405238Y-121697412D01*
X187395175Y-121598354D01*
X187364623Y-121500862D01*
X187315091Y-121411504D01*
X187248604Y-121333932D01*
X187248603Y-121333931D01*
X187167874Y-121271312D01*
X187076203Y-121226204D01*
X186977334Y-121200451D01*
X186875306Y-121195103D01*
X186875304Y-121195103D01*
X186774291Y-121210380D01*
X186774289Y-121210381D01*
X186774287Y-121210381D01*
X186678403Y-121245660D01*
X186591572Y-121299498D01*
X186518613Y-121368491D01*
X186517337Y-121369698D01*
X186491629Y-121406414D01*
X186458738Y-121453387D01*
X186419590Y-121543852D01*
X186418162Y-121547152D01*
X186400103Y-121633597D01*
X186397269Y-121647161D01*
X186396913Y-121749328D01*
X157566059Y-121749328D01*
X157544668Y-121681072D01*
X157495136Y-121591714D01*
X157428649Y-121514142D01*
X157415035Y-121503582D01*
X157347919Y-121451522D01*
X157256248Y-121406414D01*
X157157379Y-121380661D01*
X157055351Y-121375313D01*
X157055349Y-121375313D01*
X156954336Y-121390590D01*
X156954334Y-121390591D01*
X156954332Y-121390591D01*
X156858448Y-121425870D01*
X156858447Y-121425871D01*
X156858446Y-121425871D01*
X156824259Y-121447068D01*
X156771617Y-121479708D01*
X156703786Y-121543852D01*
X156697382Y-121549908D01*
X156668110Y-121591714D01*
X156638783Y-121633597D01*
X156624369Y-121666906D01*
X156600190Y-121697412D01*
X156563997Y-121711742D01*
X156525488Y-121706055D01*
X156494982Y-121681876D01*
X156483595Y-121659528D01*
X156464623Y-121598986D01*
X156415091Y-121509630D01*
X156348604Y-121432058D01*
X156348603Y-121432057D01*
X156267874Y-121369438D01*
X156176203Y-121324330D01*
X156077334Y-121298577D01*
X155975306Y-121293229D01*
X155975304Y-121293229D01*
X155874291Y-121308506D01*
X155874289Y-121308507D01*
X155874287Y-121308507D01*
X155778403Y-121343786D01*
X155778402Y-121343787D01*
X155778401Y-121343787D01*
X155763894Y-121352782D01*
X155691572Y-121397624D01*
X155633568Y-121452475D01*
X155617337Y-121467824D01*
X155591508Y-121504712D01*
X155558738Y-121551513D01*
X155538194Y-121598988D01*
X155518162Y-121645278D01*
X155501014Y-121727362D01*
X155497269Y-121745287D01*
X155496913Y-121847454D01*
X152650500Y-121847454D01*
X152650499Y-121673613D01*
X152651678Y-121666170D01*
X152652379Y-121661744D01*
X152650499Y-121625869D01*
X152650499Y-121614250D01*
X152649285Y-121602696D01*
X152647423Y-121567171D01*
X152644343Y-121555675D01*
X152643100Y-121543852D01*
X152632119Y-121510057D01*
X152622912Y-121475695D01*
X152617511Y-121465094D01*
X152613835Y-121453783D01*
X152596067Y-121423009D01*
X152591578Y-121414199D01*
X152579918Y-121391314D01*
X152572428Y-121382065D01*
X152566485Y-121371770D01*
X152557087Y-121361333D01*
X152542706Y-121345361D01*
X152535371Y-121336303D01*
X152527128Y-121328060D01*
X152503115Y-121301391D01*
X152503114Y-121301391D01*
X152503113Y-121301389D01*
X152493401Y-121294333D01*
X152246135Y-121047068D01*
X152153224Y-120954158D01*
X152148869Y-120939312D01*
X152119299Y-120838516D01*
X152086594Y-120775016D01*
X152071202Y-120745130D01*
X152011004Y-120668494D01*
X152006313Y-120662522D01*
X151926975Y-120593676D01*
X151853351Y-120551083D01*
X153149364Y-120551083D01*
X153153205Y-120571312D01*
X153168958Y-120654282D01*
X153204149Y-120742940D01*
X153207712Y-120751916D01*
X153264230Y-120840461D01*
X153336471Y-120916721D01*
X153421832Y-120977946D01*
X153517221Y-121021920D01*
X153517222Y-121021920D01*
X153517226Y-121021922D01*
X153619216Y-121047068D01*
X153619217Y-121047068D01*
X153619221Y-121047069D01*
X153724121Y-121052475D01*
X153828154Y-121037946D01*
X153858388Y-121027624D01*
X153927567Y-121004006D01*
X153945456Y-120993782D01*
X154018767Y-120951881D01*
X154098464Y-120883453D01*
X154163787Y-120801184D01*
X154212369Y-120708054D01*
X154213723Y-120703529D01*
X154224465Y-120667610D01*
X154229932Y-120649328D01*
X154596913Y-120649328D01*
X154608754Y-120708052D01*
X154617107Y-120749482D01*
X154657026Y-120843525D01*
X154675020Y-120869609D01*
X154715042Y-120927625D01*
X154788783Y-120998339D01*
X154839930Y-121030548D01*
X154869997Y-121049482D01*
X154875237Y-121052782D01*
X154970872Y-121088729D01*
X155031418Y-121098319D01*
X155071780Y-121104712D01*
X155071782Y-121104712D01*
X155173845Y-121100077D01*
X155218693Y-121088729D01*
X155272888Y-121075016D01*
X155272889Y-121075015D01*
X155272891Y-121075015D01*
X155326026Y-121049328D01*
X182696913Y-121049328D01*
X182708754Y-121108052D01*
X182717107Y-121149482D01*
X182757026Y-121243525D01*
X182757027Y-121243526D01*
X182815042Y-121327625D01*
X182888783Y-121398339D01*
X182932503Y-121425871D01*
X182973238Y-121451523D01*
X182975237Y-121452782D01*
X183070872Y-121488729D01*
X183131418Y-121498319D01*
X183171780Y-121504712D01*
X183171782Y-121504712D01*
X183273845Y-121500077D01*
X183318693Y-121488729D01*
X183372888Y-121475016D01*
X183372889Y-121475015D01*
X183372891Y-121475015D01*
X183464875Y-121430548D01*
X183546039Y-121368494D01*
X183546043Y-121368491D01*
X183613065Y-121291390D01*
X183617539Y-121283451D01*
X183663221Y-121202376D01*
X183694454Y-121105099D01*
X183705488Y-121003529D01*
X183705500Y-121000000D01*
X183705332Y-120998339D01*
X183698797Y-120933999D01*
X192544288Y-120933999D01*
X192567897Y-120993782D01*
X192629802Y-121095796D01*
X192708011Y-121185924D01*
X192800286Y-121261585D01*
X192903996Y-121320620D01*
X193016159Y-121361333D01*
X193133586Y-121382568D01*
X193146999Y-121383200D01*
X193496000Y-121383200D01*
X194003999Y-121383200D01*
X194329461Y-121383200D01*
X194418906Y-121375610D01*
X194534402Y-121345633D01*
X194643210Y-121296619D01*
X194742194Y-121229979D01*
X194828536Y-121147614D01*
X194899770Y-121051872D01*
X194953851Y-120945501D01*
X194957422Y-120934000D01*
X194003999Y-120933999D01*
X196874288Y-120933999D01*
X196897897Y-120993782D01*
X196959802Y-121095796D01*
X197038011Y-121185924D01*
X197130286Y-121261585D01*
X197233996Y-121320620D01*
X197346159Y-121361333D01*
X197463586Y-121382568D01*
X197476999Y-121383200D01*
X197676000Y-121383200D01*
X198183999Y-121383200D01*
X198359461Y-121383200D01*
X198448906Y-121375610D01*
X198564402Y-121345633D01*
X198673210Y-121296619D01*
X198772194Y-121229979D01*
X198858536Y-121147614D01*
X198929770Y-121051872D01*
X198983851Y-120945501D01*
X198987422Y-120934000D01*
X198183999Y-120933999D01*
X198183999Y-121383200D01*
X197676000Y-121383200D01*
X197676000Y-120934000D01*
X196874288Y-120933999D01*
X194003999Y-120933999D01*
X194003999Y-121383200D01*
X193496000Y-121383200D01*
X193496000Y-120934000D01*
X192544288Y-120933999D01*
X183698797Y-120933999D01*
X183695175Y-120898354D01*
X183664623Y-120800862D01*
X183615091Y-120711504D01*
X183548604Y-120633932D01*
X183514414Y-120607412D01*
X183467874Y-120571312D01*
X183376203Y-120526204D01*
X183277334Y-120500451D01*
X183175306Y-120495103D01*
X183175304Y-120495103D01*
X183074291Y-120510380D01*
X183074289Y-120510381D01*
X183074287Y-120510381D01*
X182978403Y-120545660D01*
X182978402Y-120545661D01*
X182978401Y-120545661D01*
X182959691Y-120557262D01*
X182891572Y-120599498D01*
X182818613Y-120668491D01*
X182817337Y-120669698D01*
X182790482Y-120708052D01*
X182758738Y-120753387D01*
X182719732Y-120843525D01*
X182718162Y-120847152D01*
X182697616Y-120945501D01*
X182697269Y-120947161D01*
X182696913Y-121049328D01*
X155326026Y-121049328D01*
X155364875Y-121030548D01*
X155446039Y-120968494D01*
X155446043Y-120968491D01*
X155513065Y-120891390D01*
X155515639Y-120886823D01*
X155563221Y-120802376D01*
X155594454Y-120705099D01*
X155605488Y-120603529D01*
X155605500Y-120600000D01*
X155604626Y-120591390D01*
X155595175Y-120498354D01*
X155564623Y-120400862D01*
X155515091Y-120311504D01*
X155448604Y-120233932D01*
X155448603Y-120233931D01*
X155367874Y-120171312D01*
X155276203Y-120126204D01*
X155177334Y-120100451D01*
X155075306Y-120095103D01*
X155075304Y-120095103D01*
X154974291Y-120110380D01*
X154974289Y-120110381D01*
X154974287Y-120110381D01*
X154878403Y-120145660D01*
X154878402Y-120145661D01*
X154878401Y-120145661D01*
X154859691Y-120157262D01*
X154791572Y-120199498D01*
X154723147Y-120264204D01*
X154717337Y-120269698D01*
X154688065Y-120311504D01*
X154658738Y-120353387D01*
X154629650Y-120420605D01*
X154618162Y-120447152D01*
X154597271Y-120547152D01*
X154597269Y-120547161D01*
X154596913Y-120649328D01*
X154229932Y-120649328D01*
X154242468Y-120607414D01*
X154252992Y-120502895D01*
X154253000Y-120499997D01*
X154243024Y-120395431D01*
X154227624Y-120342940D01*
X154213453Y-120294634D01*
X154189003Y-120247161D01*
X154165356Y-120201248D01*
X154106409Y-120126205D01*
X154100467Y-120118640D01*
X154021129Y-120049794D01*
X153930203Y-119997192D01*
X153830971Y-119962733D01*
X153727014Y-119947660D01*
X153630610Y-119952122D01*
X153622080Y-119952517D01*
X153557228Y-119968147D01*
X153519961Y-119977128D01*
X153519960Y-119977129D01*
X153519958Y-119977129D01*
X153424336Y-120020605D01*
X153384076Y-120049164D01*
X153338658Y-120081382D01*
X153266019Y-120157262D01*
X153209038Y-120245510D01*
X153169773Y-120342940D01*
X153167903Y-120352517D01*
X153149639Y-120446036D01*
X153149364Y-120551083D01*
X151853351Y-120551083D01*
X151843976Y-120545660D01*
X151836051Y-120541075D01*
X151836050Y-120541075D01*
X151836049Y-120541074D01*
X151736817Y-120506615D01*
X151632860Y-120491542D01*
X151536456Y-120496004D01*
X151527926Y-120496399D01*
X151469915Y-120510380D01*
X151425807Y-120521010D01*
X151425806Y-120521011D01*
X151425804Y-120521011D01*
X151330182Y-120564487D01*
X151292257Y-120591390D01*
X151244504Y-120625264D01*
X151171865Y-120701144D01*
X151114884Y-120789392D01*
X151075619Y-120886822D01*
X151074727Y-120891390D01*
X151063439Y-120949186D01*
X149565485Y-122447141D01*
X148223616Y-123789010D01*
X148189905Y-123808474D01*
X148150979Y-123808474D01*
X148117268Y-123789010D01*
X148095627Y-123743435D01*
X148095175Y-123738984D01*
X148064623Y-123641492D01*
X148015091Y-123552134D01*
X147948604Y-123474562D01*
X147916072Y-123449328D01*
X147867874Y-123411942D01*
X147776203Y-123366834D01*
X147677334Y-123341081D01*
X147575306Y-123335733D01*
X147575304Y-123335733D01*
X147474291Y-123351010D01*
X147474289Y-123351011D01*
X147474287Y-123351011D01*
X147378403Y-123386290D01*
X147378402Y-123386291D01*
X147378401Y-123386291D01*
X147350593Y-123403533D01*
X147291572Y-123440128D01*
X147217339Y-123510326D01*
X147217337Y-123510328D01*
X147189923Y-123549480D01*
X147158738Y-123594017D01*
X147129002Y-123662733D01*
X147118162Y-123687782D01*
X147099938Y-123775016D01*
X147097269Y-123787791D01*
X147096913Y-123889958D01*
X147110507Y-123957376D01*
X147117107Y-123990112D01*
X147157026Y-124084155D01*
X147157027Y-124084156D01*
X147215042Y-124168255D01*
X147288783Y-124238969D01*
X147375237Y-124293412D01*
X147470872Y-124329359D01*
X147500854Y-124334108D01*
X147508456Y-124335312D01*
X147544017Y-124351145D01*
X147566897Y-124382637D01*
X147570966Y-124421350D01*
X147549866Y-124462760D01*
X147163126Y-124849500D01*
X141250500Y-124849500D01*
X141250500Y-123209748D01*
X146096913Y-123209748D01*
X146111304Y-123281120D01*
X146117107Y-123309902D01*
X146157026Y-123403945D01*
X146175020Y-123430029D01*
X146215042Y-123488045D01*
X146288783Y-123558759D01*
X146340600Y-123591390D01*
X146362370Y-123605099D01*
X146375237Y-123613202D01*
X146470872Y-123649149D01*
X146531418Y-123658739D01*
X146571780Y-123665132D01*
X146571782Y-123665132D01*
X146673845Y-123660497D01*
X146673849Y-123660496D01*
X146772888Y-123635436D01*
X146772889Y-123635435D01*
X146772891Y-123635435D01*
X146864875Y-123590968D01*
X146946039Y-123528914D01*
X146946043Y-123528911D01*
X147013065Y-123451810D01*
X147019648Y-123440128D01*
X147063221Y-123362796D01*
X147094454Y-123265519D01*
X147105488Y-123163949D01*
X147105500Y-123160420D01*
X147104786Y-123153386D01*
X147095175Y-123058774D01*
X147064623Y-122961282D01*
X147015091Y-122871924D01*
X146948604Y-122794352D01*
X146944979Y-122791540D01*
X146867874Y-122731732D01*
X146776203Y-122686624D01*
X146677334Y-122660871D01*
X146575306Y-122655523D01*
X146575304Y-122655523D01*
X146474291Y-122670800D01*
X146474289Y-122670801D01*
X146474287Y-122670801D01*
X146378403Y-122706080D01*
X146291572Y-122759918D01*
X146227826Y-122820199D01*
X146217337Y-122830118D01*
X146188065Y-122871924D01*
X146158738Y-122913807D01*
X146127964Y-122984922D01*
X146118162Y-123007572D01*
X146098673Y-123100862D01*
X146097269Y-123107581D01*
X146096913Y-123209748D01*
X141250500Y-123209748D01*
X141250500Y-122529538D01*
X147996913Y-122529538D01*
X148009508Y-122592001D01*
X148017107Y-122629692D01*
X148057026Y-122723735D01*
X148074786Y-122749480D01*
X148115042Y-122807835D01*
X148188783Y-122878549D01*
X148239930Y-122910758D01*
X148266713Y-122927624D01*
X148275237Y-122932992D01*
X148370872Y-122968939D01*
X148431418Y-122978529D01*
X148471780Y-122984922D01*
X148471782Y-122984922D01*
X148573845Y-122980287D01*
X148609315Y-122971312D01*
X148672888Y-122955226D01*
X148672889Y-122955225D01*
X148672891Y-122955225D01*
X148764875Y-122910758D01*
X148846039Y-122848704D01*
X148846043Y-122848701D01*
X148913065Y-122771600D01*
X148919648Y-122759918D01*
X148963221Y-122682586D01*
X148994454Y-122585309D01*
X149005488Y-122483739D01*
X149005500Y-122480210D01*
X149002142Y-122447145D01*
X148995175Y-122378564D01*
X148964623Y-122281072D01*
X148915091Y-122191714D01*
X148848604Y-122114142D01*
X148843790Y-122110408D01*
X148767874Y-122051522D01*
X148676203Y-122006414D01*
X148577334Y-121980661D01*
X148475306Y-121975313D01*
X148475304Y-121975313D01*
X148374291Y-121990590D01*
X148374289Y-121990591D01*
X148374287Y-121990591D01*
X148278403Y-122025870D01*
X148278402Y-122025871D01*
X148278401Y-122025871D01*
X148272242Y-122029690D01*
X148191572Y-122079708D01*
X148134231Y-122133932D01*
X148117337Y-122149908D01*
X148091009Y-122187509D01*
X148058738Y-122233597D01*
X148019734Y-122323730D01*
X148018162Y-122327362D01*
X147997858Y-122424554D01*
X147997269Y-122427371D01*
X147996913Y-122529538D01*
X141250500Y-122529538D01*
X141250500Y-121868346D01*
X145677895Y-121868346D01*
X145690540Y-121931060D01*
X145698089Y-121968500D01*
X145738008Y-122062543D01*
X145744058Y-122071313D01*
X145796024Y-122146643D01*
X145869765Y-122217357D01*
X145923043Y-122250908D01*
X145951811Y-122269024D01*
X145956219Y-122271800D01*
X146051854Y-122307747D01*
X146112400Y-122317337D01*
X146152762Y-122323730D01*
X146152764Y-122323730D01*
X146254827Y-122319095D01*
X146309654Y-122305222D01*
X146353870Y-122294034D01*
X146353871Y-122294033D01*
X146353873Y-122294033D01*
X146445857Y-122249566D01*
X146527021Y-122187512D01*
X146527025Y-122187509D01*
X146594047Y-122110408D01*
X146594063Y-122110381D01*
X146644203Y-122021394D01*
X146675436Y-121924117D01*
X146686470Y-121822547D01*
X146686482Y-121819018D01*
X146685162Y-121806018D01*
X146676157Y-121717372D01*
X146645605Y-121619880D01*
X146596073Y-121530522D01*
X146529586Y-121452950D01*
X146529585Y-121452949D01*
X146448856Y-121390330D01*
X146357185Y-121345222D01*
X146258316Y-121319469D01*
X146156288Y-121314121D01*
X146156286Y-121314121D01*
X146055273Y-121329398D01*
X146055271Y-121329399D01*
X146055269Y-121329399D01*
X145959385Y-121364678D01*
X145959384Y-121364679D01*
X145959383Y-121364679D01*
X145937989Y-121377944D01*
X145872554Y-121418516D01*
X145807846Y-121479707D01*
X145798319Y-121488716D01*
X145787910Y-121503582D01*
X145739720Y-121572405D01*
X145716584Y-121625869D01*
X145699144Y-121666170D01*
X145682258Y-121747000D01*
X145678251Y-121766179D01*
X145677895Y-121868346D01*
X141250500Y-121868346D01*
X141250500Y-121217922D01*
X141263784Y-121201188D01*
X141312369Y-121108054D01*
X141342468Y-121007414D01*
X141352992Y-120902895D01*
X141353000Y-120899997D01*
X141343024Y-120795431D01*
X141329499Y-120749328D01*
X141496913Y-120749328D01*
X141511304Y-120820700D01*
X141517107Y-120849482D01*
X141557026Y-120943525D01*
X141564361Y-120954158D01*
X141615042Y-121027625D01*
X141688783Y-121098339D01*
X141739930Y-121130548D01*
X141773862Y-121151916D01*
X141775237Y-121152782D01*
X141870872Y-121188729D01*
X141931418Y-121198319D01*
X141971780Y-121204712D01*
X141971782Y-121204712D01*
X142073845Y-121200077D01*
X142073849Y-121200076D01*
X142172888Y-121175016D01*
X142172889Y-121175015D01*
X142172891Y-121175015D01*
X142264875Y-121130548D01*
X142346039Y-121068494D01*
X142346043Y-121068491D01*
X142413065Y-120991390D01*
X142420642Y-120977944D01*
X142436765Y-120949328D01*
X148296913Y-120949328D01*
X148308625Y-121007412D01*
X148317107Y-121049482D01*
X148357026Y-121143525D01*
X148362814Y-121151915D01*
X148415042Y-121227625D01*
X148488783Y-121298339D01*
X148539930Y-121330548D01*
X148563885Y-121345633D01*
X148575237Y-121352782D01*
X148670872Y-121388729D01*
X148731418Y-121398319D01*
X148771780Y-121404712D01*
X148771782Y-121404712D01*
X148873845Y-121400077D01*
X148940544Y-121383200D01*
X148972888Y-121375016D01*
X148972889Y-121375015D01*
X148972891Y-121375015D01*
X149064875Y-121330548D01*
X149146039Y-121268494D01*
X149146043Y-121268491D01*
X149213065Y-121191390D01*
X149214565Y-121188729D01*
X149263221Y-121102376D01*
X149294454Y-121005099D01*
X149305488Y-120903529D01*
X149305500Y-120900000D01*
X149304626Y-120891390D01*
X149295175Y-120798354D01*
X149264623Y-120700862D01*
X149215091Y-120611504D01*
X149148604Y-120533932D01*
X149148603Y-120533931D01*
X149067874Y-120471312D01*
X148976203Y-120426204D01*
X148877334Y-120400451D01*
X148775306Y-120395103D01*
X148775304Y-120395103D01*
X148674291Y-120410380D01*
X148674289Y-120410381D01*
X148674287Y-120410381D01*
X148578403Y-120445660D01*
X148578402Y-120445661D01*
X148578401Y-120445661D01*
X148537031Y-120471312D01*
X148491572Y-120499498D01*
X148417339Y-120569696D01*
X148417337Y-120569698D01*
X148388065Y-120611504D01*
X148358738Y-120653387D01*
X148325347Y-120730548D01*
X148318162Y-120747152D01*
X148297271Y-120847152D01*
X148297269Y-120847161D01*
X148296913Y-120949328D01*
X142436765Y-120949328D01*
X142463221Y-120902376D01*
X142494454Y-120805099D01*
X142505488Y-120703529D01*
X142505500Y-120700000D01*
X142505332Y-120698339D01*
X142495175Y-120598354D01*
X142464623Y-120500862D01*
X142415091Y-120411504D01*
X142348604Y-120333932D01*
X142319690Y-120311504D01*
X142267874Y-120271312D01*
X142176203Y-120226204D01*
X142077334Y-120200451D01*
X141975306Y-120195103D01*
X141975304Y-120195103D01*
X141874291Y-120210380D01*
X141874289Y-120210381D01*
X141874287Y-120210381D01*
X141778403Y-120245660D01*
X141691572Y-120299498D01*
X141624702Y-120362733D01*
X141617337Y-120369698D01*
X141588852Y-120410380D01*
X141558738Y-120453387D01*
X141530501Y-120518639D01*
X141518162Y-120547152D01*
X141500033Y-120633932D01*
X141497269Y-120647161D01*
X141496913Y-120749328D01*
X141329499Y-120749328D01*
X141318402Y-120711504D01*
X141313453Y-120694634D01*
X141289003Y-120647161D01*
X141265356Y-120601248D01*
X141206409Y-120526205D01*
X141200467Y-120518640D01*
X141121129Y-120449794D01*
X141036547Y-120400862D01*
X141030205Y-120397193D01*
X141030204Y-120397193D01*
X141030203Y-120397192D01*
X140930971Y-120362733D01*
X140827014Y-120347660D01*
X140730610Y-120352122D01*
X140722080Y-120352517D01*
X140665231Y-120366218D01*
X140619961Y-120377128D01*
X140619960Y-120377129D01*
X140619958Y-120377129D01*
X140524336Y-120420605D01*
X140489015Y-120445661D01*
X140438658Y-120481382D01*
X140366019Y-120557262D01*
X140309038Y-120645510D01*
X140269773Y-120742940D01*
X140268020Y-120751916D01*
X140249639Y-120846036D01*
X140249364Y-120951083D01*
X140258651Y-120999996D01*
X140268958Y-121054282D01*
X140307712Y-121151916D01*
X140349500Y-121217384D01*
X140349501Y-124982844D01*
X140309038Y-125045510D01*
X140269773Y-125142940D01*
X140262937Y-125177944D01*
X140249639Y-125246036D01*
X140249364Y-125351083D01*
X140258626Y-125399863D01*
X140268958Y-125454282D01*
X140302686Y-125539254D01*
X140307712Y-125551916D01*
X140364230Y-125640461D01*
X140436471Y-125716721D01*
X140521832Y-125777946D01*
X140617221Y-125821920D01*
X140617222Y-125821920D01*
X140617226Y-125821922D01*
X140719216Y-125847068D01*
X140719217Y-125847068D01*
X140719221Y-125847069D01*
X140824121Y-125852475D01*
X140928154Y-125837946D01*
X141002849Y-125812445D01*
X141027567Y-125804006D01*
X141068894Y-125780386D01*
X141121184Y-125750500D01*
X143321333Y-125750500D01*
X143358933Y-125760575D01*
X143386458Y-125788100D01*
X143396533Y-125825700D01*
X143382933Y-125868833D01*
X143358738Y-125903387D01*
X143330565Y-125968491D01*
X143318162Y-125997152D01*
X143297631Y-126095430D01*
X143297269Y-126097161D01*
X143296913Y-126199328D01*
X143308306Y-126255830D01*
X143317107Y-126299482D01*
X143357026Y-126393525D01*
X143360148Y-126398050D01*
X143415042Y-126477625D01*
X143488783Y-126548339D01*
X143539930Y-126580548D01*
X143568182Y-126598339D01*
X143575237Y-126602782D01*
X143670872Y-126638729D01*
X143731418Y-126648319D01*
X143771780Y-126654712D01*
X143771782Y-126654712D01*
X143873845Y-126650077D01*
X143918693Y-126638729D01*
X143972888Y-126625016D01*
X143972889Y-126625015D01*
X143972891Y-126625015D01*
X144064875Y-126580548D01*
X144146039Y-126518494D01*
X144146043Y-126518491D01*
X144213065Y-126441390D01*
X144216597Y-126435123D01*
X144263221Y-126352376D01*
X144294454Y-126255099D01*
X144305488Y-126153529D01*
X144305500Y-126150000D01*
X144305212Y-126147159D01*
X144295175Y-126048354D01*
X144264623Y-125950862D01*
X144253920Y-125931554D01*
X144215091Y-125861504D01*
X144215088Y-125861500D01*
X144153558Y-125750500D01*
X147314157Y-125750500D01*
X147326020Y-125752379D01*
X147326021Y-125752379D01*
X147361877Y-125750500D01*
X147373514Y-125750500D01*
X147385088Y-125749284D01*
X147414675Y-125747733D01*
X147420594Y-125747423D01*
X147432081Y-125744344D01*
X147442098Y-125743292D01*
X147443913Y-125743101D01*
X147456481Y-125739017D01*
X147477725Y-125732114D01*
X147512068Y-125722912D01*
X147522668Y-125717512D01*
X147533980Y-125713836D01*
X147560342Y-125698616D01*
X147564787Y-125696050D01*
X147596447Y-125679918D01*
X147596449Y-125679917D01*
X147601906Y-125675498D01*
X147605690Y-125672434D01*
X147615996Y-125666485D01*
X147642433Y-125642680D01*
X147651461Y-125635369D01*
X147659674Y-125627156D01*
X147686373Y-125603116D01*
X147693438Y-125593392D01*
X151605845Y-121680985D01*
X151749500Y-121824640D01*
X151749502Y-127564423D01*
X151747622Y-127576293D01*
X151747622Y-127576294D01*
X151749132Y-127605099D01*
X151749502Y-127612168D01*
X151749502Y-127623787D01*
X151750716Y-127635342D01*
X151752578Y-127670865D01*
X151755658Y-127682360D01*
X151756901Y-127694185D01*
X151767883Y-127727985D01*
X151774528Y-127752782D01*
X151777090Y-127762344D01*
X151782491Y-127772945D01*
X151786166Y-127784254D01*
X151803946Y-127815051D01*
X151817394Y-127841442D01*
X151820084Y-127846722D01*
X151827568Y-127855964D01*
X151833517Y-127866268D01*
X151857313Y-127892696D01*
X151864631Y-127901733D01*
X151872855Y-127909957D01*
X151891514Y-127930680D01*
X151896888Y-127936648D01*
X151902232Y-127940530D01*
X151906356Y-127943526D01*
X151906605Y-127943707D01*
X152000719Y-128037823D01*
X152004424Y-128094331D01*
X152018006Y-128147808D01*
X152031587Y-128201286D01*
X152077787Y-128301500D01*
X152133761Y-128380702D01*
X152134254Y-128381399D01*
X152147728Y-128417919D01*
X152141135Y-128456283D01*
X152116244Y-128486211D01*
X152072843Y-128500000D01*
X149151868Y-128500000D01*
X149263221Y-128302376D01*
X149271168Y-128277624D01*
X149294454Y-128205099D01*
X149305488Y-128103529D01*
X149305488Y-128103524D01*
X149308174Y-128078798D01*
X149370872Y-128088729D01*
X149393772Y-128092356D01*
X149471780Y-128104712D01*
X149471782Y-128104712D01*
X149573845Y-128100077D01*
X149574149Y-128100000D01*
X149672888Y-128075016D01*
X149672889Y-128075015D01*
X149672891Y-128075015D01*
X149764875Y-128030548D01*
X149816096Y-127991387D01*
X149846041Y-127968493D01*
X149916543Y-127887390D01*
X149972493Y-127968494D01*
X150015042Y-128030173D01*
X150088783Y-128100887D01*
X150135884Y-128130548D01*
X150171191Y-128152782D01*
X150175237Y-128155330D01*
X150270872Y-128191277D01*
X150326425Y-128200076D01*
X150371780Y-128207260D01*
X150371782Y-128207260D01*
X150473845Y-128202625D01*
X150497395Y-128196666D01*
X150572888Y-128177564D01*
X150572889Y-128177563D01*
X150572891Y-128177563D01*
X150664875Y-128133096D01*
X150746039Y-128071042D01*
X150746043Y-128071039D01*
X150813065Y-127993938D01*
X150814503Y-127991387D01*
X150863221Y-127904924D01*
X150894454Y-127807647D01*
X150905488Y-127706077D01*
X150905500Y-127702548D01*
X150905242Y-127700000D01*
X150895175Y-127600902D01*
X150864623Y-127503410D01*
X150815091Y-127414052D01*
X150748604Y-127336480D01*
X150724961Y-127318141D01*
X150667874Y-127273860D01*
X150576203Y-127228752D01*
X150477334Y-127202999D01*
X150375306Y-127197651D01*
X150375304Y-127197651D01*
X150274291Y-127212928D01*
X150274289Y-127212929D01*
X150274287Y-127212929D01*
X150178403Y-127248208D01*
X150178402Y-127248209D01*
X150178401Y-127248209D01*
X150091573Y-127302045D01*
X149972344Y-127414792D01*
X149963748Y-127399283D01*
X149915091Y-127311504D01*
X149860840Y-127248208D01*
X149848604Y-127233932D01*
X149840473Y-127227625D01*
X149767874Y-127171312D01*
X149676203Y-127126204D01*
X149577334Y-127100451D01*
X149475306Y-127095103D01*
X149475304Y-127095103D01*
X149374291Y-127110380D01*
X149374289Y-127110381D01*
X149374287Y-127110381D01*
X149278403Y-127145660D01*
X149278402Y-127145661D01*
X149278401Y-127145661D01*
X149250035Y-127163249D01*
X149191572Y-127199498D01*
X149121065Y-127266173D01*
X149117337Y-127269698D01*
X149096120Y-127300000D01*
X149058738Y-127353387D01*
X149018162Y-127447152D01*
X148997269Y-127547161D01*
X148997269Y-127547164D01*
X148980522Y-127627329D01*
X148877334Y-127600451D01*
X148775306Y-127595103D01*
X148775304Y-127595103D01*
X148674291Y-127610380D01*
X148674289Y-127610381D01*
X148674287Y-127610381D01*
X148578403Y-127645660D01*
X148578402Y-127645661D01*
X148578401Y-127645661D01*
X148552849Y-127661504D01*
X148491572Y-127699498D01*
X148425117Y-127762341D01*
X148417337Y-127769698D01*
X148390634Y-127807835D01*
X148358738Y-127853387D01*
X148318162Y-127947152D01*
X148297347Y-128046790D01*
X148297269Y-128047161D01*
X148296913Y-128149328D01*
X148311304Y-128220700D01*
X148317107Y-128249482D01*
X148357026Y-128343525D01*
X148363411Y-128352781D01*
X148383154Y-128381399D01*
X148383636Y-128382098D01*
X148396694Y-128418769D01*
X148389667Y-128457056D01*
X148364438Y-128486700D01*
X148321736Y-128500000D01*
X144080807Y-128500000D01*
X144043207Y-128489925D01*
X144015682Y-128462400D01*
X144005607Y-128424800D01*
X144015682Y-128387200D01*
X144035131Y-128365061D01*
X144096039Y-128318494D01*
X144096043Y-128318491D01*
X144163065Y-128241390D01*
X144165080Y-128237815D01*
X144213221Y-128152376D01*
X144244454Y-128055099D01*
X144255488Y-127953529D01*
X144255500Y-127950000D01*
X144255102Y-127946074D01*
X144245175Y-127848354D01*
X144214623Y-127750862D01*
X144165091Y-127661504D01*
X144098604Y-127583932D01*
X144084503Y-127572994D01*
X144017874Y-127521312D01*
X143926203Y-127476204D01*
X143827334Y-127450451D01*
X143725306Y-127445103D01*
X143725304Y-127445103D01*
X143624291Y-127460380D01*
X143624289Y-127460381D01*
X143624287Y-127460381D01*
X143528403Y-127495660D01*
X143528402Y-127495661D01*
X143528401Y-127495661D01*
X143491881Y-127518305D01*
X143441572Y-127549498D01*
X143376002Y-127611504D01*
X143367337Y-127619698D01*
X143344600Y-127652171D01*
X143308738Y-127703387D01*
X143272321Y-127787541D01*
X143268162Y-127797152D01*
X143248202Y-127892696D01*
X143247269Y-127897161D01*
X143246913Y-127999328D01*
X143259698Y-128062734D01*
X143267107Y-128099482D01*
X143307026Y-128193525D01*
X143316501Y-128207260D01*
X143365042Y-128277625D01*
X143426153Y-128336227D01*
X143438785Y-128348341D01*
X143459153Y-128361167D01*
X143485601Y-128389728D01*
X143494225Y-128427687D01*
X143482713Y-128464873D01*
X143454152Y-128491321D01*
X143419080Y-128500000D01*
X128742687Y-128500000D01*
X128705087Y-128489925D01*
X128677562Y-128462400D01*
X128667487Y-128424800D01*
X128677562Y-128387200D01*
X128709956Y-128357097D01*
X128764875Y-128330548D01*
X128846039Y-128268494D01*
X128846043Y-128268491D01*
X128913065Y-128191390D01*
X128914565Y-128188729D01*
X128963221Y-128102376D01*
X128994454Y-128005099D01*
X129005488Y-127903529D01*
X129005500Y-127900000D01*
X129005332Y-127898339D01*
X128995175Y-127798354D01*
X128964623Y-127700862D01*
X128915091Y-127611504D01*
X128848604Y-127533932D01*
X128848603Y-127533931D01*
X128767874Y-127471312D01*
X128676203Y-127426204D01*
X128577334Y-127400451D01*
X128475306Y-127395103D01*
X128475304Y-127395103D01*
X128374291Y-127410380D01*
X128374289Y-127410381D01*
X128374287Y-127410381D01*
X128278403Y-127445660D01*
X128278402Y-127445661D01*
X128278401Y-127445661D01*
X128255849Y-127459644D01*
X128191572Y-127499498D01*
X128141085Y-127547241D01*
X128117337Y-127569698D01*
X128088852Y-127610380D01*
X128058738Y-127653387D01*
X128019732Y-127743525D01*
X128018162Y-127747152D01*
X127997303Y-127847000D01*
X127997269Y-127847161D01*
X127996913Y-127949328D01*
X128008515Y-128006867D01*
X128017107Y-128049482D01*
X128057026Y-128143525D01*
X128061029Y-128149328D01*
X128115042Y-128227625D01*
X128188783Y-128298339D01*
X128226221Y-128321915D01*
X128268182Y-128348339D01*
X128275237Y-128352782D01*
X128279565Y-128354409D01*
X128311215Y-128377069D01*
X128327295Y-128412518D01*
X128323497Y-128451259D01*
X128300836Y-128482910D01*
X128253105Y-128500000D01*
X124999991Y-128500000D01*
X124982584Y-128500760D01*
X124982575Y-128500761D01*
X124982570Y-128500761D01*
X124861015Y-128511396D01*
X124838128Y-128515431D01*
X124826684Y-128517449D01*
X124787398Y-128527976D01*
X124708823Y-128549029D01*
X124676061Y-128560954D01*
X124676053Y-128560957D01*
X124565482Y-128612518D01*
X124565476Y-128612521D01*
X124556970Y-128617432D01*
X124535280Y-128629954D01*
X124472798Y-128673705D01*
X124472795Y-128673708D01*
X124435329Y-128699943D01*
X124431232Y-128703381D01*
X124408621Y-128722354D01*
X124322354Y-128808621D01*
X124322350Y-128808626D01*
X124299943Y-128835329D01*
X124273708Y-128872795D01*
X124273705Y-128872798D01*
X124251715Y-128904204D01*
X124229952Y-128935284D01*
X124212520Y-128965476D01*
X124160953Y-129076062D01*
X124149030Y-129108823D01*
X124117450Y-129226683D01*
X124111396Y-129261014D01*
X124100761Y-129382568D01*
X124100761Y-129417432D01*
X124111396Y-129538986D01*
X124117450Y-129573317D01*
X124149030Y-129691177D01*
X124160953Y-129723938D01*
X124212520Y-129834524D01*
X124229952Y-129864716D01*
X124273706Y-129927203D01*
X124273708Y-129927205D01*
X124299943Y-129964671D01*
X124316205Y-129984051D01*
X124322354Y-129991379D01*
X124402101Y-130071126D01*
X124421565Y-130104837D01*
X124421565Y-130143763D01*
X124402101Y-130177474D01*
X124368390Y-130196938D01*
X124348927Y-130199500D01*
X100200500Y-130199500D01*
X100200500Y-128250500D01*
X115484216Y-128250500D01*
X115500000Y-128253000D01*
X115515783Y-128250500D01*
X115515785Y-128250500D01*
X115562730Y-128243064D01*
X115619320Y-128214230D01*
X115633550Y-128200000D01*
X115700000Y-128200000D01*
X115700000Y-128068940D01*
X115703000Y-128050000D01*
X115700500Y-128034217D01*
X115700500Y-126949328D01*
X118196913Y-126949328D01*
X118208424Y-127006415D01*
X118217107Y-127049482D01*
X118257026Y-127143525D01*
X118257027Y-127143526D01*
X118315042Y-127227625D01*
X118315044Y-127227627D01*
X118390777Y-127300251D01*
X118317339Y-127369696D01*
X118258738Y-127453387D01*
X118234139Y-127510232D01*
X118218162Y-127547152D01*
X118197452Y-127646287D01*
X118197269Y-127647161D01*
X118196913Y-127749328D01*
X118208672Y-127807646D01*
X118217107Y-127849482D01*
X118257026Y-127943525D01*
X118259528Y-127947152D01*
X118315042Y-128027625D01*
X118388783Y-128098339D01*
X118475237Y-128152782D01*
X118570872Y-128188729D01*
X118620983Y-128196666D01*
X118671780Y-128204712D01*
X118671782Y-128204712D01*
X118773845Y-128200077D01*
X118774149Y-128200000D01*
X118872888Y-128175016D01*
X118872889Y-128175015D01*
X118872891Y-128175015D01*
X118964875Y-128130548D01*
X119046039Y-128068494D01*
X119046043Y-128068491D01*
X119113065Y-127991390D01*
X119114565Y-127988729D01*
X119163221Y-127902376D01*
X119194454Y-127805099D01*
X119205488Y-127703529D01*
X119205500Y-127700000D01*
X119205332Y-127698339D01*
X119195175Y-127598354D01*
X119164623Y-127500862D01*
X119115091Y-127411504D01*
X119059935Y-127347152D01*
X119048603Y-127333931D01*
X119048602Y-127333930D01*
X119019090Y-127299498D01*
X119113067Y-127191387D01*
X119163221Y-127102376D01*
X119177379Y-127058281D01*
X119194454Y-127005099D01*
X119205488Y-126903529D01*
X119205500Y-126900000D01*
X119200133Y-126847159D01*
X119195175Y-126798356D01*
X119195175Y-126798355D01*
X119165254Y-126702877D01*
X119222886Y-126675016D01*
X119222891Y-126675015D01*
X119314875Y-126630548D01*
X119396039Y-126568494D01*
X119413560Y-126548339D01*
X119446784Y-126510118D01*
X119508916Y-126569698D01*
X119538783Y-126598339D01*
X119589930Y-126630548D01*
X119620942Y-126650077D01*
X119625237Y-126652782D01*
X119720872Y-126688729D01*
X119781418Y-126698319D01*
X119821780Y-126704712D01*
X119821782Y-126704712D01*
X119923845Y-126700077D01*
X119923849Y-126700076D01*
X120022888Y-126675016D01*
X120022889Y-126675015D01*
X120022891Y-126675015D01*
X120114875Y-126630548D01*
X120196039Y-126568494D01*
X120213560Y-126548339D01*
X120246784Y-126510118D01*
X120308916Y-126569698D01*
X120338783Y-126598339D01*
X120389930Y-126630548D01*
X120420942Y-126650077D01*
X120425237Y-126652782D01*
X120520872Y-126688729D01*
X120581418Y-126698319D01*
X120621780Y-126704712D01*
X120621782Y-126704712D01*
X120723845Y-126700077D01*
X120723849Y-126700076D01*
X120822888Y-126675016D01*
X120822889Y-126675015D01*
X120822891Y-126675015D01*
X120914875Y-126630548D01*
X120996039Y-126568494D01*
X121013560Y-126548339D01*
X121046784Y-126510118D01*
X121108916Y-126569698D01*
X121138783Y-126598339D01*
X121189930Y-126630548D01*
X121220942Y-126650077D01*
X121225237Y-126652782D01*
X121226847Y-126653387D01*
X121329675Y-126692038D01*
X121297582Y-126845661D01*
X121297269Y-126847161D01*
X121296913Y-126949328D01*
X121308424Y-127006415D01*
X121317107Y-127049482D01*
X121357026Y-127143525D01*
X121357027Y-127143526D01*
X121415042Y-127227625D01*
X121415044Y-127227627D01*
X121490777Y-127300251D01*
X121417339Y-127369696D01*
X121358738Y-127453387D01*
X121334139Y-127510232D01*
X121318162Y-127547152D01*
X121297452Y-127646287D01*
X121297269Y-127647161D01*
X121296913Y-127749328D01*
X121308672Y-127807646D01*
X121317107Y-127849482D01*
X121357026Y-127943525D01*
X121359528Y-127947152D01*
X121415042Y-128027625D01*
X121488783Y-128098339D01*
X121575237Y-128152782D01*
X121670872Y-128188729D01*
X121720983Y-128196666D01*
X121771780Y-128204712D01*
X121771782Y-128204712D01*
X121873845Y-128200077D01*
X121874149Y-128200000D01*
X121972888Y-128175016D01*
X121972889Y-128175015D01*
X121972891Y-128175015D01*
X122064875Y-128130548D01*
X122146039Y-128068494D01*
X122146043Y-128068491D01*
X122213065Y-127991390D01*
X122214565Y-127988729D01*
X122263221Y-127902376D01*
X122294454Y-127805099D01*
X122305488Y-127703529D01*
X122305500Y-127700000D01*
X122305332Y-127698339D01*
X122295175Y-127598354D01*
X122264623Y-127500862D01*
X122215091Y-127411504D01*
X122161801Y-127349328D01*
X133596913Y-127349328D01*
X133609223Y-127410380D01*
X133617107Y-127449482D01*
X133657026Y-127543525D01*
X133666439Y-127557170D01*
X133715042Y-127627625D01*
X133788783Y-127698339D01*
X133839930Y-127730548D01*
X133866297Y-127747152D01*
X133875237Y-127752782D01*
X133970872Y-127788729D01*
X134031418Y-127798319D01*
X134071780Y-127804712D01*
X134071782Y-127804712D01*
X134173845Y-127800077D01*
X134175770Y-127799590D01*
X134272888Y-127775016D01*
X134272889Y-127775015D01*
X134272891Y-127775015D01*
X134364875Y-127730548D01*
X134446039Y-127668494D01*
X134446043Y-127668491D01*
X134513065Y-127591390D01*
X134516492Y-127585309D01*
X134536765Y-127549328D01*
X138896913Y-127549328D01*
X138909223Y-127610380D01*
X138917107Y-127649482D01*
X138957026Y-127743525D01*
X138970006Y-127762341D01*
X139015042Y-127827625D01*
X139088783Y-127898339D01*
X139143811Y-127932992D01*
X139166297Y-127947152D01*
X139175237Y-127952782D01*
X139270872Y-127988729D01*
X139328288Y-127997823D01*
X139371780Y-128004712D01*
X139371782Y-128004712D01*
X139473845Y-128000077D01*
X139482769Y-127997819D01*
X139572888Y-127975016D01*
X139572889Y-127975015D01*
X139572891Y-127975015D01*
X139664875Y-127930548D01*
X139746039Y-127868494D01*
X139746043Y-127868491D01*
X139813065Y-127791390D01*
X139814565Y-127788729D01*
X139863221Y-127702376D01*
X139894454Y-127605099D01*
X139905488Y-127503529D01*
X139905500Y-127500000D01*
X139905060Y-127495661D01*
X139895175Y-127398354D01*
X139864623Y-127300862D01*
X139815091Y-127211504D01*
X139748604Y-127133932D01*
X139739683Y-127127012D01*
X139667874Y-127071312D01*
X139576203Y-127026204D01*
X139477334Y-127000451D01*
X139375306Y-126995103D01*
X139375304Y-126995103D01*
X139274291Y-127010380D01*
X139274289Y-127010381D01*
X139274287Y-127010381D01*
X139178403Y-127045660D01*
X139178402Y-127045661D01*
X139178401Y-127045661D01*
X139152711Y-127061590D01*
X139091572Y-127099498D01*
X139042757Y-127145660D01*
X139017337Y-127169698D01*
X138996472Y-127199497D01*
X138958738Y-127253387D01*
X138932494Y-127314034D01*
X138918162Y-127347152D01*
X138897271Y-127447152D01*
X138897269Y-127447161D01*
X138896913Y-127549328D01*
X134536765Y-127549328D01*
X134563221Y-127502376D01*
X134594454Y-127405099D01*
X134605488Y-127303529D01*
X134605500Y-127300000D01*
X134605486Y-127299857D01*
X134595175Y-127198354D01*
X134564623Y-127100862D01*
X134515091Y-127011504D01*
X134448604Y-126933932D01*
X134434721Y-126923163D01*
X134367874Y-126871312D01*
X134276203Y-126826204D01*
X134177334Y-126800451D01*
X134075306Y-126795103D01*
X134075304Y-126795103D01*
X133974291Y-126810380D01*
X133974289Y-126810381D01*
X133974287Y-126810381D01*
X133878403Y-126845660D01*
X133791572Y-126899498D01*
X133738878Y-126949328D01*
X133717337Y-126969698D01*
X133691629Y-127006414D01*
X133658738Y-127053387D01*
X133626876Y-127127015D01*
X133618162Y-127147152D01*
X133600033Y-127233932D01*
X133597269Y-127247161D01*
X133596913Y-127349328D01*
X122161801Y-127349328D01*
X122159935Y-127347152D01*
X122148603Y-127333931D01*
X122148602Y-127333930D01*
X122119090Y-127299498D01*
X122213067Y-127191387D01*
X122263221Y-127102376D01*
X122277379Y-127058281D01*
X122294454Y-127005099D01*
X122305488Y-126903529D01*
X122305500Y-126900000D01*
X122300133Y-126847159D01*
X122295175Y-126798354D01*
X122264623Y-126700862D01*
X122215091Y-126611504D01*
X122148604Y-126533932D01*
X122128701Y-126518494D01*
X122067874Y-126471312D01*
X121976203Y-126426204D01*
X121976198Y-126426203D01*
X121915207Y-126396191D01*
X121944454Y-126305099D01*
X121955488Y-126203529D01*
X121955500Y-126200000D01*
X121955466Y-126199657D01*
X121945175Y-126098354D01*
X121914623Y-126000862D01*
X121865091Y-125911504D01*
X121841702Y-125884216D01*
X121798603Y-125833931D01*
X121798602Y-125833930D01*
X121769090Y-125799498D01*
X121863067Y-125691387D01*
X121913221Y-125602376D01*
X121915896Y-125594046D01*
X121944454Y-125505099D01*
X121955488Y-125403529D01*
X121955500Y-125400000D01*
X121955487Y-125399864D01*
X121945175Y-125298354D01*
X121914623Y-125200862D01*
X121865091Y-125111504D01*
X121808527Y-125045510D01*
X121798603Y-125033931D01*
X121798602Y-125033930D01*
X121769090Y-124999498D01*
X121863067Y-124891387D01*
X121913221Y-124802376D01*
X121920287Y-124780368D01*
X121929689Y-124751083D01*
X124149364Y-124751083D01*
X124156736Y-124789910D01*
X124168958Y-124854282D01*
X124207712Y-124951916D01*
X124264230Y-125040461D01*
X124336471Y-125116721D01*
X124421830Y-125177944D01*
X124452980Y-125200286D01*
X124397197Y-125239857D01*
X124338658Y-125281382D01*
X124266019Y-125357262D01*
X124209038Y-125445510D01*
X124169773Y-125542940D01*
X124168229Y-125550846D01*
X124149639Y-125646036D01*
X124149364Y-125751083D01*
X124158557Y-125799498D01*
X124168958Y-125854282D01*
X124202406Y-125938548D01*
X124207712Y-125951916D01*
X124264230Y-126040461D01*
X124336471Y-126116721D01*
X124421832Y-126177946D01*
X124517221Y-126221920D01*
X124517222Y-126221920D01*
X124517226Y-126221922D01*
X124619216Y-126247068D01*
X124619217Y-126247068D01*
X124619221Y-126247069D01*
X124724120Y-126252475D01*
X124769283Y-126246167D01*
X124828157Y-126237945D01*
X124828162Y-126237943D01*
X124846386Y-126235398D01*
X124861058Y-126312672D01*
X124868958Y-126354282D01*
X124898984Y-126429927D01*
X124907712Y-126451916D01*
X124964230Y-126540461D01*
X125036471Y-126616721D01*
X125121832Y-126677946D01*
X125217221Y-126721920D01*
X125217222Y-126721920D01*
X125217226Y-126721922D01*
X125319216Y-126747068D01*
X125319217Y-126747068D01*
X125319221Y-126747069D01*
X125424121Y-126752475D01*
X125528154Y-126737946D01*
X125539771Y-126733980D01*
X125627567Y-126704006D01*
X125629543Y-126702877D01*
X125718767Y-126651881D01*
X125798464Y-126583453D01*
X125863787Y-126501184D01*
X125912369Y-126408054D01*
X125912467Y-126407728D01*
X125928451Y-126354281D01*
X125942468Y-126307414D01*
X125952992Y-126202895D01*
X125953000Y-126199997D01*
X125943024Y-126095431D01*
X125923989Y-126030548D01*
X125913453Y-125994634D01*
X125888152Y-125945509D01*
X125865356Y-125901248D01*
X125827044Y-125852474D01*
X125800467Y-125818640D01*
X125792079Y-125811361D01*
X125663239Y-125699558D01*
X125721740Y-125649328D01*
X131496913Y-125649328D01*
X131509223Y-125710380D01*
X131517107Y-125749482D01*
X131557026Y-125843525D01*
X131564447Y-125854282D01*
X131615042Y-125927625D01*
X131688783Y-125998339D01*
X131739930Y-126030548D01*
X131768695Y-126048662D01*
X131775237Y-126052782D01*
X131870872Y-126088729D01*
X131924096Y-126097159D01*
X131971780Y-126104712D01*
X131971782Y-126104712D01*
X132073845Y-126100077D01*
X132076355Y-126099442D01*
X132172888Y-126075016D01*
X132172889Y-126075015D01*
X132172891Y-126075015D01*
X132264875Y-126030548D01*
X132346039Y-125968494D01*
X132346043Y-125968491D01*
X132413065Y-125891390D01*
X132417108Y-125884216D01*
X132463221Y-125802376D01*
X132480134Y-125749699D01*
X136349364Y-125749699D01*
X136358913Y-125799989D01*
X136368958Y-125852898D01*
X136400179Y-125931554D01*
X136407712Y-125950532D01*
X136464230Y-126039077D01*
X136536471Y-126115337D01*
X136621832Y-126176562D01*
X136717221Y-126220536D01*
X136717222Y-126220536D01*
X136717226Y-126220538D01*
X136819216Y-126245684D01*
X136819217Y-126245684D01*
X136819221Y-126245685D01*
X136924121Y-126251091D01*
X137028154Y-126236562D01*
X137028157Y-126236561D01*
X137127567Y-126202622D01*
X137132869Y-126199592D01*
X137218767Y-126150497D01*
X137298464Y-126082069D01*
X137363787Y-125999800D01*
X137412369Y-125906670D01*
X137413352Y-125903386D01*
X137428037Y-125854282D01*
X137442468Y-125806030D01*
X137452992Y-125701511D01*
X137453000Y-125698613D01*
X137443024Y-125594047D01*
X137416929Y-125505099D01*
X137413453Y-125493250D01*
X137388865Y-125445510D01*
X137365356Y-125399864D01*
X137323956Y-125347159D01*
X137300467Y-125317256D01*
X137298679Y-125315704D01*
X137280930Y-125300303D01*
X137221129Y-125248410D01*
X137137442Y-125199996D01*
X137130205Y-125195809D01*
X137130204Y-125195809D01*
X137130203Y-125195808D01*
X137030971Y-125161349D01*
X136927014Y-125146276D01*
X136830610Y-125150738D01*
X136822080Y-125151133D01*
X136773853Y-125162756D01*
X136719961Y-125175744D01*
X136719960Y-125175745D01*
X136719958Y-125175745D01*
X136624336Y-125219221D01*
X136595246Y-125239857D01*
X136538658Y-125279998D01*
X136466019Y-125355878D01*
X136409038Y-125444126D01*
X136369773Y-125541556D01*
X136349639Y-125644652D01*
X136349364Y-125749699D01*
X132480134Y-125749699D01*
X132494454Y-125705099D01*
X132505488Y-125603529D01*
X132505500Y-125600000D01*
X132504896Y-125594047D01*
X132495175Y-125498354D01*
X132464623Y-125400862D01*
X132415091Y-125311504D01*
X132348604Y-125233932D01*
X132329640Y-125219222D01*
X132267874Y-125171312D01*
X132176203Y-125126204D01*
X132077334Y-125100451D01*
X131975306Y-125095103D01*
X131975304Y-125095103D01*
X131874291Y-125110380D01*
X131874289Y-125110381D01*
X131874287Y-125110381D01*
X131778403Y-125145660D01*
X131778402Y-125145661D01*
X131778401Y-125145661D01*
X131753099Y-125161349D01*
X131691572Y-125199498D01*
X131638717Y-125249480D01*
X131617337Y-125269698D01*
X131581124Y-125321416D01*
X131558738Y-125353387D01*
X131519472Y-125444125D01*
X131518162Y-125447152D01*
X131498151Y-125542941D01*
X131497269Y-125547161D01*
X131496913Y-125649328D01*
X125721740Y-125649328D01*
X125733462Y-125639264D01*
X125798465Y-125583451D01*
X125798752Y-125583090D01*
X125863787Y-125501184D01*
X125912369Y-125408054D01*
X125913723Y-125403529D01*
X125927973Y-125355879D01*
X125942468Y-125307414D01*
X125952992Y-125202895D01*
X125953000Y-125199997D01*
X125943024Y-125095431D01*
X125921143Y-125020848D01*
X125913453Y-124994634D01*
X125889003Y-124947161D01*
X125865356Y-124901248D01*
X125825616Y-124850657D01*
X125800467Y-124818640D01*
X125800337Y-124818527D01*
X125663239Y-124699558D01*
X125739672Y-124633932D01*
X125798465Y-124583451D01*
X125798466Y-124583450D01*
X125863787Y-124501184D01*
X125912369Y-124408054D01*
X125915505Y-124397571D01*
X125927560Y-124357262D01*
X125942468Y-124307414D01*
X125952992Y-124202895D01*
X125953000Y-124199997D01*
X125943024Y-124095431D01*
X125920398Y-124018308D01*
X125913453Y-123994634D01*
X125865355Y-123901247D01*
X125856488Y-123889958D01*
X125840118Y-123869118D01*
X136496913Y-123869118D01*
X136509299Y-123930548D01*
X136517107Y-123969272D01*
X136557026Y-124063315D01*
X136557027Y-124063316D01*
X136615042Y-124147415D01*
X136688783Y-124218129D01*
X136775237Y-124272572D01*
X136870872Y-124308519D01*
X136931418Y-124318109D01*
X136971780Y-124324502D01*
X136971782Y-124324502D01*
X137073845Y-124319867D01*
X137123068Y-124307412D01*
X137172888Y-124294806D01*
X137172889Y-124294805D01*
X137172891Y-124294805D01*
X137264875Y-124250338D01*
X137346039Y-124188284D01*
X137346043Y-124188281D01*
X137413065Y-124111180D01*
X137413516Y-124110381D01*
X137463221Y-124022166D01*
X137494454Y-123924889D01*
X137505488Y-123823319D01*
X137505500Y-123819790D01*
X137505384Y-123818640D01*
X137495175Y-123718144D01*
X137464623Y-123620652D01*
X137415091Y-123531294D01*
X137348604Y-123453722D01*
X137343135Y-123449480D01*
X137267874Y-123391102D01*
X137176203Y-123345994D01*
X137077334Y-123320241D01*
X136975306Y-123314893D01*
X136975304Y-123314893D01*
X136874291Y-123330170D01*
X136874289Y-123330171D01*
X136874287Y-123330171D01*
X136778403Y-123365450D01*
X136778402Y-123365451D01*
X136778401Y-123365451D01*
X136776169Y-123366835D01*
X136691572Y-123419288D01*
X136657184Y-123451807D01*
X136617337Y-123489488D01*
X136602745Y-123510328D01*
X136558738Y-123573177D01*
X136531796Y-123635436D01*
X136518162Y-123666942D01*
X136502163Y-123743526D01*
X136497269Y-123766951D01*
X136496913Y-123869118D01*
X125840118Y-123869118D01*
X125807524Y-123827624D01*
X125800467Y-123818640D01*
X125721129Y-123749794D01*
X125630203Y-123697192D01*
X125530971Y-123662733D01*
X125427014Y-123647660D01*
X125330610Y-123652122D01*
X125322080Y-123652517D01*
X125269737Y-123665132D01*
X125219961Y-123677128D01*
X125219960Y-123677129D01*
X125219958Y-123677129D01*
X125124336Y-123720605D01*
X125098426Y-123738985D01*
X125038658Y-123781382D01*
X124966019Y-123857262D01*
X124909038Y-123945510D01*
X124878145Y-124022166D01*
X124869773Y-124042940D01*
X124845954Y-124164905D01*
X124801435Y-124158451D01*
X124727014Y-124147660D01*
X124630277Y-124152138D01*
X124622080Y-124152517D01*
X124570679Y-124164905D01*
X124519961Y-124177128D01*
X124519960Y-124177129D01*
X124519958Y-124177129D01*
X124424336Y-124220605D01*
X124398449Y-124238969D01*
X124338658Y-124281382D01*
X124266019Y-124357262D01*
X124209038Y-124445510D01*
X124170530Y-124541062D01*
X124169773Y-124542941D01*
X124149639Y-124646036D01*
X124149364Y-124751083D01*
X121929689Y-124751083D01*
X121944454Y-124705099D01*
X121955488Y-124603529D01*
X121955500Y-124600000D01*
X121950133Y-124547159D01*
X121945175Y-124498354D01*
X121914623Y-124400862D01*
X121865091Y-124311504D01*
X121798604Y-124233932D01*
X121758591Y-124202895D01*
X121717874Y-124171312D01*
X121626203Y-124126204D01*
X121527334Y-124100451D01*
X121425306Y-124095103D01*
X121425304Y-124095103D01*
X121324291Y-124110380D01*
X121324289Y-124110381D01*
X121324287Y-124110381D01*
X121228403Y-124145660D01*
X121228402Y-124145661D01*
X121228401Y-124145661D01*
X121217344Y-124152517D01*
X121141572Y-124199498D01*
X121087810Y-124250338D01*
X121067337Y-124269698D01*
X121040155Y-124308519D01*
X121008738Y-124353387D01*
X120979328Y-124421350D01*
X120968162Y-124447152D01*
X120947583Y-124545660D01*
X120947269Y-124547161D01*
X120946913Y-124649328D01*
X120959450Y-124711504D01*
X120967107Y-124749482D01*
X121007026Y-124843525D01*
X121014447Y-124854282D01*
X121065042Y-124927625D01*
X121134920Y-124994634D01*
X121140777Y-125000251D01*
X121067339Y-125069696D01*
X121008738Y-125153387D01*
X120979650Y-125220606D01*
X120968162Y-125247152D01*
X120947432Y-125346382D01*
X120947269Y-125347161D01*
X120946913Y-125449328D01*
X120959097Y-125509755D01*
X120967107Y-125549482D01*
X121007026Y-125643526D01*
X121023427Y-125667299D01*
X121036486Y-125703970D01*
X121029459Y-125742257D01*
X121004231Y-125771901D01*
X120967560Y-125784960D01*
X120925797Y-125772513D01*
X120924728Y-125774685D01*
X120917875Y-125771313D01*
X120917874Y-125771312D01*
X120826203Y-125726204D01*
X120727334Y-125700451D01*
X120625306Y-125695103D01*
X120625304Y-125695103D01*
X120524291Y-125710380D01*
X120524289Y-125710381D01*
X120524287Y-125710381D01*
X120428403Y-125745660D01*
X120428402Y-125745661D01*
X120428401Y-125745661D01*
X120341570Y-125799499D01*
X120246304Y-125889585D01*
X120198603Y-125833931D01*
X120195538Y-125831553D01*
X120135469Y-125784960D01*
X120117874Y-125771312D01*
X120026203Y-125726204D01*
X119927334Y-125700451D01*
X119825306Y-125695103D01*
X119825304Y-125695103D01*
X119724291Y-125710380D01*
X119724289Y-125710381D01*
X119724287Y-125710381D01*
X119628403Y-125745660D01*
X119628402Y-125745661D01*
X119628401Y-125745661D01*
X119576205Y-125778024D01*
X119538940Y-125789275D01*
X119501042Y-125780386D01*
X119472666Y-125753739D01*
X119461415Y-125716474D01*
X119471062Y-125677197D01*
X119471101Y-125677129D01*
X119513221Y-125602376D01*
X119544454Y-125505099D01*
X119555488Y-125403529D01*
X119555500Y-125400000D01*
X119555487Y-125399864D01*
X119545175Y-125298354D01*
X119514623Y-125200862D01*
X119465091Y-125111504D01*
X119408527Y-125045510D01*
X119398603Y-125033931D01*
X119398602Y-125033930D01*
X119369090Y-124999498D01*
X119463067Y-124891387D01*
X119513221Y-124802376D01*
X119520287Y-124780368D01*
X119544454Y-124705099D01*
X119555488Y-124603529D01*
X119555500Y-124600000D01*
X119550133Y-124547159D01*
X119545175Y-124498354D01*
X119514623Y-124400862D01*
X119465091Y-124311504D01*
X119398604Y-124233932D01*
X119358591Y-124202895D01*
X119317874Y-124171312D01*
X119226203Y-124126204D01*
X119127334Y-124100451D01*
X119025306Y-124095103D01*
X119025304Y-124095103D01*
X118924291Y-124110380D01*
X118924289Y-124110381D01*
X118924287Y-124110381D01*
X118828403Y-124145660D01*
X118828402Y-124145661D01*
X118828401Y-124145661D01*
X118817344Y-124152517D01*
X118741572Y-124199498D01*
X118687810Y-124250338D01*
X118667337Y-124269698D01*
X118640155Y-124308519D01*
X118608738Y-124353387D01*
X118579328Y-124421350D01*
X118568162Y-124447152D01*
X118547583Y-124545660D01*
X118547269Y-124547161D01*
X118546913Y-124649328D01*
X118559450Y-124711504D01*
X118567107Y-124749482D01*
X118607026Y-124843525D01*
X118614447Y-124854282D01*
X118665042Y-124927625D01*
X118734920Y-124994634D01*
X118740777Y-125000251D01*
X118667339Y-125069696D01*
X118608738Y-125153387D01*
X118579650Y-125220606D01*
X118568162Y-125247152D01*
X118547432Y-125346382D01*
X118547269Y-125347161D01*
X118546913Y-125449328D01*
X118559097Y-125509755D01*
X118567107Y-125549482D01*
X118607026Y-125643525D01*
X118613229Y-125652517D01*
X118665042Y-125727625D01*
X118722717Y-125782932D01*
X118740777Y-125800251D01*
X118667339Y-125869696D01*
X118608738Y-125953387D01*
X118570925Y-126040768D01*
X118568162Y-126047152D01*
X118547504Y-126146037D01*
X118547269Y-126147161D01*
X118546913Y-126249328D01*
X118562079Y-126324542D01*
X118579034Y-126408635D01*
X118574290Y-126410381D01*
X118574287Y-126410381D01*
X118478403Y-126445660D01*
X118478402Y-126445661D01*
X118478401Y-126445661D01*
X118439863Y-126469556D01*
X118391572Y-126499498D01*
X118331287Y-126556506D01*
X118317337Y-126569698D01*
X118294172Y-126602782D01*
X118258738Y-126653387D01*
X118218198Y-126747068D01*
X118218162Y-126747152D01*
X118197583Y-126845660D01*
X118197269Y-126847161D01*
X118196913Y-126949328D01*
X115700500Y-126949328D01*
X115700500Y-122649328D01*
X127796913Y-122649328D01*
X127810969Y-122719040D01*
X127817107Y-122749482D01*
X127857026Y-122843525D01*
X127857027Y-122843526D01*
X127915042Y-122927625D01*
X127988783Y-122998339D01*
X128075237Y-123052782D01*
X128170872Y-123088729D01*
X128231418Y-123098319D01*
X128271780Y-123104712D01*
X128271782Y-123104712D01*
X128373845Y-123100077D01*
X128418693Y-123088729D01*
X128472888Y-123075016D01*
X128472889Y-123075015D01*
X128472891Y-123075015D01*
X128564875Y-123030548D01*
X128646039Y-122968494D01*
X128646043Y-122968491D01*
X128713065Y-122891390D01*
X128714565Y-122888729D01*
X128763221Y-122802376D01*
X128794454Y-122705099D01*
X128805488Y-122603529D01*
X128805500Y-122600000D01*
X128804688Y-122592001D01*
X128795175Y-122498354D01*
X128764623Y-122400862D01*
X128715091Y-122311504D01*
X128648604Y-122233932D01*
X128648171Y-122233596D01*
X128567874Y-122171312D01*
X128476203Y-122126204D01*
X128377334Y-122100451D01*
X128275306Y-122095103D01*
X128275304Y-122095103D01*
X128174291Y-122110380D01*
X128174289Y-122110381D01*
X128174287Y-122110381D01*
X128078403Y-122145660D01*
X128078402Y-122145661D01*
X128078401Y-122145661D01*
X128044603Y-122166617D01*
X127991572Y-122199498D01*
X127918050Y-122269024D01*
X127917337Y-122269698D01*
X127895516Y-122300862D01*
X127858738Y-122353387D01*
X127837038Y-122403533D01*
X127818162Y-122447152D01*
X127798692Y-122540351D01*
X127797269Y-122547161D01*
X127796913Y-122649328D01*
X115700500Y-122649328D01*
X115700500Y-121965784D01*
X115703000Y-121950000D01*
X115700000Y-121931060D01*
X115700000Y-121800000D01*
X115633550Y-121800000D01*
X115619320Y-121785770D01*
X115562730Y-121756936D01*
X115515784Y-121749500D01*
X115500000Y-121747000D01*
X115484216Y-121749500D01*
X100200500Y-121749500D01*
X100200500Y-120949328D01*
X106596913Y-120949328D01*
X106608625Y-121007412D01*
X106617107Y-121049482D01*
X106657026Y-121143525D01*
X106662814Y-121151915D01*
X106715042Y-121227625D01*
X106788783Y-121298339D01*
X106839930Y-121330548D01*
X106863885Y-121345633D01*
X106875237Y-121352782D01*
X106970872Y-121388729D01*
X107031418Y-121398319D01*
X107071780Y-121404712D01*
X107071782Y-121404712D01*
X107173845Y-121400077D01*
X107240544Y-121383200D01*
X107272888Y-121375016D01*
X107272889Y-121375015D01*
X107272891Y-121375015D01*
X107364875Y-121330548D01*
X107446039Y-121268494D01*
X107446043Y-121268491D01*
X107513065Y-121191390D01*
X107514565Y-121188729D01*
X107563221Y-121102376D01*
X107594454Y-121005099D01*
X107600512Y-120949328D01*
X131296913Y-120949328D01*
X131308625Y-121007412D01*
X131317107Y-121049482D01*
X131357026Y-121143525D01*
X131362814Y-121151915D01*
X131415042Y-121227625D01*
X131488783Y-121298339D01*
X131539930Y-121330548D01*
X131563885Y-121345633D01*
X131575237Y-121352782D01*
X131670872Y-121388729D01*
X131731418Y-121398319D01*
X131771780Y-121404712D01*
X131771782Y-121404712D01*
X131873845Y-121400077D01*
X131940544Y-121383200D01*
X131972888Y-121375016D01*
X131972889Y-121375015D01*
X131972891Y-121375015D01*
X132064875Y-121330548D01*
X132146039Y-121268494D01*
X132146043Y-121268491D01*
X132213065Y-121191390D01*
X132214565Y-121188729D01*
X132263221Y-121102376D01*
X132294454Y-121005099D01*
X132300321Y-120951083D01*
X135549364Y-120951083D01*
X135558651Y-120999996D01*
X135568958Y-121054282D01*
X135604381Y-121143525D01*
X135607712Y-121151916D01*
X135664230Y-121240461D01*
X135736471Y-121316721D01*
X135821832Y-121377946D01*
X135917221Y-121421920D01*
X135917222Y-121421920D01*
X135917226Y-121421922D01*
X136019216Y-121447068D01*
X136019217Y-121447068D01*
X136019221Y-121447069D01*
X136124121Y-121452475D01*
X136228154Y-121437946D01*
X136249823Y-121430548D01*
X136327567Y-121404006D01*
X136334442Y-121400077D01*
X136418767Y-121351881D01*
X136498464Y-121283453D01*
X136563787Y-121201184D01*
X136612369Y-121108054D01*
X136642468Y-121007414D01*
X136652992Y-120902895D01*
X136653000Y-120899997D01*
X136643024Y-120795431D01*
X136618402Y-120711504D01*
X136613453Y-120694634D01*
X136589003Y-120647161D01*
X136565356Y-120601248D01*
X136506409Y-120526205D01*
X136500467Y-120518640D01*
X136421129Y-120449794D01*
X136336547Y-120400862D01*
X136330205Y-120397193D01*
X136330204Y-120397193D01*
X136330203Y-120397192D01*
X136230971Y-120362733D01*
X136127014Y-120347660D01*
X136030610Y-120352122D01*
X136022080Y-120352517D01*
X135965231Y-120366218D01*
X135919961Y-120377128D01*
X135919960Y-120377129D01*
X135919958Y-120377129D01*
X135824336Y-120420605D01*
X135789015Y-120445661D01*
X135738658Y-120481382D01*
X135666019Y-120557262D01*
X135609038Y-120645510D01*
X135569773Y-120742940D01*
X135568020Y-120751916D01*
X135549639Y-120846036D01*
X135549364Y-120951083D01*
X132300321Y-120951083D01*
X132305488Y-120903529D01*
X132305500Y-120900000D01*
X132304626Y-120891390D01*
X132295175Y-120798354D01*
X132264623Y-120700862D01*
X132215091Y-120611504D01*
X132148604Y-120533932D01*
X132148603Y-120533931D01*
X132067874Y-120471312D01*
X131976203Y-120426204D01*
X131877334Y-120400451D01*
X131775306Y-120395103D01*
X131775304Y-120395103D01*
X131674291Y-120410380D01*
X131674289Y-120410381D01*
X131674287Y-120410381D01*
X131578403Y-120445660D01*
X131578402Y-120445661D01*
X131578401Y-120445661D01*
X131537031Y-120471312D01*
X131491572Y-120499498D01*
X131417339Y-120569696D01*
X131417337Y-120569698D01*
X131388065Y-120611504D01*
X131358738Y-120653387D01*
X131325347Y-120730548D01*
X131318162Y-120747152D01*
X131297271Y-120847152D01*
X131297269Y-120847161D01*
X131296913Y-120949328D01*
X107600512Y-120949328D01*
X107605488Y-120903529D01*
X107605500Y-120900000D01*
X107604626Y-120891390D01*
X107595175Y-120798354D01*
X107564623Y-120700862D01*
X107515091Y-120611504D01*
X107448604Y-120533932D01*
X107448603Y-120533931D01*
X107367874Y-120471312D01*
X107276203Y-120426204D01*
X107177334Y-120400451D01*
X107075306Y-120395103D01*
X107075304Y-120395103D01*
X106974291Y-120410380D01*
X106974289Y-120410381D01*
X106974287Y-120410381D01*
X106878403Y-120445660D01*
X106878402Y-120445661D01*
X106878401Y-120445661D01*
X106837031Y-120471312D01*
X106791572Y-120499498D01*
X106717339Y-120569696D01*
X106717337Y-120569698D01*
X106688065Y-120611504D01*
X106658738Y-120653387D01*
X106625347Y-120730548D01*
X106618162Y-120747152D01*
X106597271Y-120847152D01*
X106597269Y-120847161D01*
X106596913Y-120949328D01*
X100200500Y-120949328D01*
X100200500Y-119700500D01*
X176850766Y-119700500D01*
X176888366Y-119710575D01*
G37*
G04 #@! TD.AperFunction*
G04 #@! TD*
G04 #@! TA.AperFunction,Conductor*
G04 #@! TO.N,IN*
G36*
X184521553Y-128710635D02*
G01*
X184639415Y-128742215D01*
X184750000Y-128793782D01*
X184812487Y-128837536D01*
X184849953Y-128863771D01*
X184936229Y-128950047D01*
X184962464Y-128987513D01*
X185006218Y-129050000D01*
X185057785Y-129160586D01*
X185089365Y-129278446D01*
X185100000Y-129400000D01*
X185089365Y-129521554D01*
X185057785Y-129639414D01*
X185006218Y-129750000D01*
X184962464Y-129812487D01*
X184936229Y-129849953D01*
X184849953Y-129936229D01*
X184812487Y-129962464D01*
X184750000Y-130006218D01*
X184639415Y-130057785D01*
X184521553Y-130089365D01*
X184399998Y-130100000D01*
X125000002Y-130100000D01*
X124878447Y-130089365D01*
X124760585Y-130057785D01*
X124650000Y-130006218D01*
X124587513Y-129962464D01*
X124550047Y-129936229D01*
X124463771Y-129849953D01*
X124437536Y-129812487D01*
X124393782Y-129750000D01*
X124342215Y-129639414D01*
X124310635Y-129521554D01*
X124300000Y-129400000D01*
X124310635Y-129278446D01*
X124342215Y-129160586D01*
X124393782Y-129050000D01*
X124437536Y-128987513D01*
X124463771Y-128950047D01*
X124550047Y-128863771D01*
X124587513Y-128837536D01*
X124650000Y-128793782D01*
X124760585Y-128742215D01*
X124878447Y-128710635D01*
X125000002Y-128700000D01*
X184399998Y-128700000D01*
X184521553Y-128710635D01*
G37*
G04 #@! TD.AperFunction*
G04 #@! TD*
M02*
