G04 #@! TF.GenerationSoftware,KiCad,Pcbnew,(5.99.0-3798-g06f04ad99b)*
G04 #@! TF.CreationDate,2020-10-05T20:21:20-07:00*
G04 #@! TF.ProjectId,RT_USB_PD_Soldering_Iron,52545f55-5342-45f5-9044-5f536f6c6465,rev?*
G04 #@! TF.SameCoordinates,PX5f5e100PY7735940*
G04 #@! TF.FileFunction,Copper,L3,Inr*
G04 #@! TF.FilePolarity,Positive*
%FSLAX46Y46*%
G04 Gerber Fmt 4.6, Leading zero omitted, Abs format (unit mm)*
G04 Created by KiCad (PCBNEW (5.99.0-3798-g06f04ad99b)) date 2020-10-05 20:21:20*
%MOMM*%
%LPD*%
G01*
G04 APERTURE LIST*
G04 #@! TA.AperFunction,ViaPad*
%ADD10C,0.560000*%
G04 #@! TD*
G04 #@! TA.AperFunction,ViaPad*
%ADD11C,1.000000*%
G04 #@! TD*
G04 #@! TA.AperFunction,ViaPad*
%ADD12C,0.800000*%
G04 #@! TD*
G04 #@! TA.AperFunction,Conductor*
%ADD13C,2.000000*%
G04 #@! TD*
G04 #@! TA.AperFunction,Conductor*
%ADD14C,0.500000*%
G04 #@! TD*
G04 #@! TA.AperFunction,Conductor*
%ADD15C,0.400000*%
G04 #@! TD*
G04 #@! TA.AperFunction,Conductor*
%ADD16C,0.254000*%
G04 #@! TD*
G04 APERTURE END LIST*
D10*
G04 #@! TO.N,GND*
X37000000Y750000D03*
X49400000Y2700000D03*
X51400000Y2100000D03*
X52700000Y-600000D03*
X62450000Y1600000D03*
G04 #@! TO.N,+3V3*
X61600000Y0D03*
G04 #@! TO.N,GND*
X65700000Y4100000D03*
X64100000Y2700000D03*
G04 #@! TO.N,/BTN2*
X64100000Y4100000D03*
D11*
G04 #@! TO.N,IN*
X67400000Y2400000D03*
D10*
X23400000Y300000D03*
X23400000Y-700000D03*
X24100000Y800000D03*
D11*
X67400000Y-2400000D03*
D10*
X24100000Y-200000D03*
D11*
X23650000Y-4500000D03*
D10*
X24100000Y-1200000D03*
D12*
G04 #@! TO.N,+3V3*
X59000000Y100000D03*
D10*
X46887587Y-3300000D03*
D12*
X61500000Y4700000D03*
X41100000Y4300000D03*
X46300000Y4300000D03*
X59000000Y-1500000D03*
X34100000Y4300000D03*
X48700000Y4300000D03*
D10*
G04 #@! TO.N,/BTN1*
X48600000Y-3300000D03*
X63300000Y-3300000D03*
G04 #@! TO.N,/BTN2*
X49497304Y3493203D03*
G04 #@! TO.N,/HEATER*
X18600000Y-700000D03*
X19300000Y-700000D03*
X19700000Y-1200000D03*
X20800000Y-100000D03*
X18600000Y-100000D03*
X18950000Y-1200000D03*
X20450000Y-1200000D03*
X18600000Y500000D03*
X20100000Y-700000D03*
X20800000Y500000D03*
X20800000Y-700000D03*
G04 #@! TO.N,/OSC_IN*
X45864597Y-3267684D03*
G04 #@! TO.N,/OSC_OUT*
X45104708Y-2978643D03*
G04 #@! TO.N,/TEMP_SENS*
X32000000Y-3400000D03*
X37000000Y-1600000D03*
G04 #@! TO.N,/USB_DP*
X63150000Y1750000D03*
X51100000Y2800000D03*
G04 #@! TO.N,/CC2*
X51700000Y-1900000D03*
X62200000Y-1900000D03*
X69700000Y1700000D03*
G04 #@! TO.N,/USB_DM*
X60100000Y3400000D03*
X50200000Y2850897D03*
G04 #@! TO.N,/CC1*
X69700000Y-1300000D03*
X51400000Y-2900000D03*
X62799999Y-2600001D03*
G04 #@! TO.N,/TIP_TC*
X7100000Y4100000D03*
X31200000Y4100000D03*
G04 #@! TO.N,GND*
X35750000Y-3300000D03*
X45200000Y3300000D03*
X39800000Y-2600000D03*
X20350000Y3350000D03*
X25300000Y-525000D03*
X34800000Y3300000D03*
X1300000Y-4850000D03*
X26600000Y-3200000D03*
X4700000Y-3650000D03*
X47600000Y-3300000D03*
X64100000Y-3200000D03*
X32700000Y4300000D03*
X19700000Y3350000D03*
X39300000Y-3300000D03*
X47200000Y-1700000D03*
X21000000Y3350000D03*
X25300000Y-1150000D03*
X60000000Y-1500000D03*
X26000000Y3300000D03*
X19050000Y3350000D03*
X4700000Y-4850000D03*
X10500000Y-3700000D03*
X1300000Y-3650000D03*
X47200000Y2000000D03*
X32410396Y-101213D03*
X34800000Y400000D03*
X29750000Y-2400000D03*
X18400000Y3350000D03*
X18000000Y-4900000D03*
X25300000Y750000D03*
X32400000Y1000000D03*
X30200000Y-1300000D03*
X49200000Y0D03*
X47200000Y3500000D03*
X10500000Y-4800000D03*
X58197565Y-364362D03*
X30400000Y3300000D03*
X29100000Y1900000D03*
X1300000Y-4250000D03*
X4700000Y-4250000D03*
X40400000Y100000D03*
X25300000Y125000D03*
X19200000Y-3700000D03*
X60800000Y1700000D03*
X18800000Y-4100000D03*
X18400000Y-4500000D03*
X45200000Y0D03*
X39800000Y-500000D03*
X43300000Y-2700000D03*
G04 #@! TO.N,/I2C1_SCL*
X43300000Y2900000D03*
X51700000Y0D03*
X58300000Y1400000D03*
G04 #@! TO.N,/I2C1_SDA*
X58300000Y2200000D03*
X43300000Y100000D03*
X50800000Y0D03*
X49500000Y-2926046D03*
G04 #@! TO.N,/VSENSE*
X38800000Y-1000000D03*
X27900000Y-400000D03*
G04 #@! TO.N,/HEAT_ON*
X44100000Y3500000D03*
X28000000Y2600000D03*
X26500000Y-2200000D03*
G04 #@! TO.N,/INT0*
X42400000Y0D03*
X36400000Y2900000D03*
G04 #@! TO.N,/SPI1_MISO*
X38300000Y2300000D03*
G04 #@! TO.N,/SPI1_NSS*
X39200000Y-26524D03*
G04 #@! TO.N,/SPI1_MOSI*
X39100000Y2100000D03*
G04 #@! TO.N,/SPI1_SCK*
X39000000Y676411D03*
G04 #@! TO.N,/DISP_RST#*
X50900143Y-2113226D03*
G04 #@! TO.N,/NRST*
X52500000Y-1500000D03*
X44200000Y-2940590D03*
G04 #@! TO.N,/HEATER_PG*
X26500000Y2500000D03*
G04 #@! TD*
D13*
G04 #@! TO.N,IN*
X67400000Y2400000D02*
X67400000Y-2400000D01*
D14*
G04 #@! TO.N,+3V3*
X46300000Y-2712413D02*
X46300000Y4300000D01*
D15*
X59000000Y-1500000D02*
X59000000Y100000D01*
D14*
X46887587Y-3300000D02*
X46300000Y-2712413D01*
D16*
G04 #@! TO.N,/I2C1_SDA*
X49500000Y-1300000D02*
X49500000Y-2926046D01*
X50800000Y0D02*
X49500000Y-1300000D01*
G04 #@! TO.N,/HEAT_ON*
X26500000Y1100000D02*
X26500000Y-2200000D01*
X26500000Y1100000D02*
X28000000Y2600000D01*
G04 #@! TD*
G04 #@! TA.AperFunction,Conductor*
G04 #@! TO.N,GND*
G36*
X61191842Y5289925D02*
G01*
X61219367Y5262400D01*
X61229442Y5224800D01*
X61219367Y5187200D01*
X61197750Y5163464D01*
X61140008Y5122505D01*
X61137090Y5120435D01*
X61064135Y5044225D01*
X61062196Y5041222D01*
X61062192Y5041217D01*
X61035611Y5000049D01*
X61006907Y4955595D01*
X61005571Y4952280D01*
X61005570Y4952278D01*
X60988308Y4909443D01*
X60967472Y4857742D01*
X60947251Y4754198D01*
X60946975Y4648697D01*
X60966653Y4545048D01*
X60967974Y4541719D01*
X60967975Y4541717D01*
X60972621Y4530012D01*
X61005576Y4446990D01*
X61007501Y4443975D01*
X61007501Y4443974D01*
X61060414Y4361077D01*
X61060417Y4361073D01*
X61062339Y4358062D01*
X61134894Y4281471D01*
X61220623Y4219982D01*
X61316432Y4175813D01*
X61368823Y4162896D01*
X61415392Y4151414D01*
X61415395Y4151414D01*
X61418865Y4150558D01*
X61487565Y4147018D01*
X61520652Y4145313D01*
X61520654Y4145313D01*
X61524226Y4145129D01*
X61628713Y4159720D01*
X61728555Y4193807D01*
X61774352Y4219982D01*
X61817041Y4244380D01*
X61817045Y4244383D01*
X61820151Y4246158D01*
X61822868Y4248491D01*
X61822871Y4248493D01*
X61897479Y4312554D01*
X61900194Y4314885D01*
X61965798Y4397507D01*
X62014594Y4491045D01*
X62039761Y4575202D01*
X68051403Y4575202D01*
X68056824Y4574000D01*
X68936099Y4573999D01*
X68943909Y4576091D01*
X68946001Y4583901D01*
X68946001Y4962498D01*
X69454000Y4962498D01*
X69454000Y4583902D01*
X69456092Y4576092D01*
X69463902Y4574000D01*
X70341509Y4573999D01*
X70345997Y4575202D01*
X72381403Y4575202D01*
X72386824Y4574000D01*
X73116099Y4573999D01*
X73123909Y4576091D01*
X73126001Y4583901D01*
X73126001Y4962498D01*
X73634000Y4962498D01*
X73634000Y4583902D01*
X73636092Y4576092D01*
X73643902Y4574000D01*
X74371509Y4573999D01*
X74379132Y4576042D01*
X74377931Y4581463D01*
X74348548Y4644473D01*
X74345276Y4650141D01*
X74283570Y4738267D01*
X74279355Y4743290D01*
X74203290Y4819355D01*
X74198267Y4823570D01*
X74110141Y4885276D01*
X74104473Y4888548D01*
X74006968Y4934016D01*
X74000817Y4936255D01*
X73896893Y4964101D01*
X73890451Y4965237D01*
X73810219Y4972256D01*
X73806925Y4972400D01*
X73643902Y4972400D01*
X73636092Y4970308D01*
X73634000Y4962498D01*
X73126001Y4962498D01*
X73123909Y4970308D01*
X73116099Y4972400D01*
X72953075Y4972400D01*
X72949781Y4972256D01*
X72869549Y4965237D01*
X72863107Y4964101D01*
X72759183Y4936255D01*
X72753032Y4934016D01*
X72655527Y4888548D01*
X72649859Y4885276D01*
X72561733Y4823570D01*
X72556710Y4819355D01*
X72480645Y4743290D01*
X72476430Y4738267D01*
X72414724Y4650141D01*
X72411452Y4644473D01*
X72382773Y4582972D01*
X72381403Y4575202D01*
X70345997Y4575202D01*
X70349132Y4576042D01*
X70347931Y4581463D01*
X70318548Y4644473D01*
X70315276Y4650141D01*
X70253570Y4738267D01*
X70249355Y4743290D01*
X70173290Y4819355D01*
X70168267Y4823570D01*
X70080141Y4885276D01*
X70074473Y4888548D01*
X69976968Y4934016D01*
X69970817Y4936255D01*
X69866893Y4964101D01*
X69860451Y4965237D01*
X69780219Y4972256D01*
X69776925Y4972400D01*
X69463902Y4972400D01*
X69456092Y4970308D01*
X69454000Y4962498D01*
X68946001Y4962498D01*
X68943909Y4970308D01*
X68936099Y4972400D01*
X68623075Y4972400D01*
X68619781Y4972256D01*
X68539549Y4965237D01*
X68533107Y4964101D01*
X68429183Y4936255D01*
X68423032Y4934016D01*
X68325527Y4888548D01*
X68319859Y4885276D01*
X68231733Y4823570D01*
X68226710Y4819355D01*
X68150645Y4743290D01*
X68146430Y4738267D01*
X68084724Y4650141D01*
X68081452Y4644473D01*
X68052773Y4582972D01*
X68051403Y4575202D01*
X62039761Y4575202D01*
X62044822Y4592122D01*
X62055392Y4697092D01*
X62055400Y4700000D01*
X62053697Y4717852D01*
X62045720Y4801465D01*
X62045719Y4801470D01*
X62045380Y4805024D01*
X62015681Y4906258D01*
X61967375Y5000049D01*
X61902205Y5083015D01*
X61822522Y5152160D01*
X61819428Y5153950D01*
X61819425Y5153952D01*
X61809475Y5159708D01*
X61781974Y5187257D01*
X61771932Y5224866D01*
X61782040Y5262457D01*
X61809589Y5289958D01*
X61847132Y5300000D01*
X74771900Y5300000D01*
X74809500Y5289925D01*
X74837025Y5262400D01*
X74847100Y5224800D01*
X74847101Y-5224800D01*
X74837026Y-5262400D01*
X74809501Y-5289925D01*
X74771901Y-5300000D01*
X66364607Y-5300000D01*
X66327007Y-5289925D01*
X66299482Y-5262400D01*
X66289407Y-5224800D01*
X66299482Y-5187200D01*
X66315768Y-5167618D01*
X66332930Y-5152960D01*
X66333231Y-5152703D01*
X66339199Y-5147399D01*
X66346464Y-5140683D01*
X66352212Y-5135156D01*
X66911326Y-4576042D01*
X68050868Y-4576042D01*
X68052069Y-4581463D01*
X68081452Y-4644473D01*
X68084724Y-4650141D01*
X68146430Y-4738267D01*
X68150645Y-4743290D01*
X68226710Y-4819355D01*
X68231733Y-4823570D01*
X68319859Y-4885276D01*
X68325527Y-4888548D01*
X68423032Y-4934016D01*
X68429183Y-4936255D01*
X68533107Y-4964101D01*
X68539549Y-4965237D01*
X68619781Y-4972256D01*
X68623075Y-4972400D01*
X68936098Y-4972400D01*
X68943908Y-4970308D01*
X68946000Y-4962498D01*
X68946000Y-4583902D01*
X68946000Y-4583901D01*
X69453999Y-4583901D01*
X69453999Y-4962498D01*
X69456091Y-4970308D01*
X69463901Y-4972400D01*
X69776925Y-4972400D01*
X69780219Y-4972256D01*
X69860451Y-4965237D01*
X69866893Y-4964101D01*
X69970817Y-4936255D01*
X69976968Y-4934016D01*
X70074473Y-4888548D01*
X70080141Y-4885276D01*
X70168267Y-4823570D01*
X70173290Y-4819355D01*
X70249355Y-4743290D01*
X70253570Y-4738267D01*
X70315276Y-4650141D01*
X70318548Y-4644473D01*
X70347227Y-4582972D01*
X70348448Y-4576042D01*
X72380868Y-4576042D01*
X72382069Y-4581463D01*
X72411452Y-4644473D01*
X72414724Y-4650141D01*
X72476430Y-4738267D01*
X72480645Y-4743290D01*
X72556710Y-4819355D01*
X72561733Y-4823570D01*
X72649859Y-4885276D01*
X72655527Y-4888548D01*
X72753032Y-4934016D01*
X72759183Y-4936255D01*
X72863107Y-4964101D01*
X72869549Y-4965237D01*
X72949781Y-4972256D01*
X72953075Y-4972400D01*
X73116098Y-4972400D01*
X73123908Y-4970308D01*
X73126000Y-4962498D01*
X73126000Y-4583902D01*
X73126000Y-4583901D01*
X73633999Y-4583901D01*
X73633999Y-4962498D01*
X73636091Y-4970308D01*
X73643901Y-4972400D01*
X73806925Y-4972400D01*
X73810219Y-4972256D01*
X73890451Y-4965237D01*
X73896893Y-4964101D01*
X74000817Y-4936255D01*
X74006968Y-4934016D01*
X74104473Y-4888548D01*
X74110141Y-4885276D01*
X74198267Y-4823570D01*
X74203290Y-4819355D01*
X74279355Y-4743290D01*
X74283570Y-4738267D01*
X74345276Y-4650141D01*
X74348548Y-4644473D01*
X74377227Y-4582972D01*
X74378597Y-4575202D01*
X74373176Y-4574000D01*
X73643901Y-4573999D01*
X73636091Y-4576091D01*
X73633999Y-4583901D01*
X73126000Y-4583901D01*
X73123908Y-4576092D01*
X73116098Y-4574000D01*
X72388491Y-4573999D01*
X72380868Y-4576042D01*
X70348448Y-4576042D01*
X70348597Y-4575202D01*
X70343176Y-4574000D01*
X69463901Y-4573999D01*
X69456091Y-4576091D01*
X69453999Y-4583901D01*
X68946000Y-4583901D01*
X68943908Y-4576092D01*
X68936098Y-4574000D01*
X68058491Y-4573999D01*
X68050868Y-4576042D01*
X66911326Y-4576042D01*
X67422570Y-4064798D01*
X68051403Y-4064798D01*
X68056824Y-4066000D01*
X68936099Y-4066001D01*
X68943909Y-4063909D01*
X68946001Y-4056099D01*
X68946001Y-3677502D01*
X69454000Y-3677502D01*
X69454000Y-4056098D01*
X69456092Y-4063908D01*
X69463902Y-4066000D01*
X70341509Y-4066001D01*
X70345997Y-4064798D01*
X72381403Y-4064798D01*
X72386824Y-4066000D01*
X73116099Y-4066001D01*
X73123909Y-4063909D01*
X73126001Y-4056099D01*
X73126001Y-3677502D01*
X73634000Y-3677502D01*
X73634000Y-4056098D01*
X73636092Y-4063908D01*
X73643902Y-4066000D01*
X74371509Y-4066001D01*
X74379132Y-4063958D01*
X74377931Y-4058537D01*
X74348548Y-3995527D01*
X74345276Y-3989859D01*
X74283570Y-3901733D01*
X74279355Y-3896710D01*
X74203290Y-3820645D01*
X74198267Y-3816430D01*
X74110141Y-3754724D01*
X74104473Y-3751452D01*
X74006968Y-3705984D01*
X74000817Y-3703745D01*
X73896893Y-3675899D01*
X73890451Y-3674763D01*
X73810219Y-3667744D01*
X73806925Y-3667600D01*
X73643902Y-3667600D01*
X73636092Y-3669692D01*
X73634000Y-3677502D01*
X73126001Y-3677502D01*
X73123909Y-3669692D01*
X73116099Y-3667600D01*
X72953075Y-3667600D01*
X72949781Y-3667744D01*
X72869549Y-3674763D01*
X72863107Y-3675899D01*
X72759183Y-3703745D01*
X72753032Y-3705984D01*
X72655527Y-3751452D01*
X72649859Y-3754724D01*
X72561733Y-3816430D01*
X72556710Y-3820645D01*
X72480645Y-3896710D01*
X72476430Y-3901733D01*
X72414724Y-3989859D01*
X72411452Y-3995527D01*
X72382773Y-4057028D01*
X72381403Y-4064798D01*
X70345997Y-4064798D01*
X70349132Y-4063958D01*
X70347931Y-4058537D01*
X70318548Y-3995527D01*
X70315276Y-3989859D01*
X70253570Y-3901733D01*
X70249355Y-3896710D01*
X70173290Y-3820645D01*
X70168267Y-3816430D01*
X70080141Y-3754724D01*
X70074473Y-3751452D01*
X69976968Y-3705984D01*
X69970817Y-3703745D01*
X69866893Y-3675899D01*
X69860451Y-3674763D01*
X69780219Y-3667744D01*
X69776925Y-3667600D01*
X69463902Y-3667600D01*
X69456092Y-3669692D01*
X69454000Y-3677502D01*
X68946001Y-3677502D01*
X68943909Y-3669692D01*
X68936099Y-3667600D01*
X68623075Y-3667600D01*
X68619781Y-3667744D01*
X68539549Y-3674763D01*
X68533107Y-3675899D01*
X68429183Y-3703745D01*
X68423032Y-3705984D01*
X68325527Y-3751452D01*
X68319859Y-3754724D01*
X68231733Y-3816430D01*
X68226710Y-3820645D01*
X68150645Y-3896710D01*
X68146430Y-3901733D01*
X68084724Y-3989859D01*
X68081452Y-3995527D01*
X68052773Y-4057028D01*
X68051403Y-4064798D01*
X67422570Y-4064798D01*
X68127446Y-3359922D01*
X68134581Y-3353636D01*
X68195775Y-3306255D01*
X68195781Y-3306250D01*
X68197674Y-3304784D01*
X68298615Y-3203667D01*
X68304484Y-3197788D01*
X68306175Y-3196094D01*
X68309563Y-3191703D01*
X68371934Y-3110858D01*
X68374291Y-3107955D01*
X68413895Y-3061584D01*
X68414387Y-3061008D01*
X68424261Y-3048483D01*
X68435882Y-3032489D01*
X68444749Y-3019218D01*
X68477803Y-2965279D01*
X68491395Y-2943100D01*
X68491403Y-2943087D01*
X68491785Y-2942463D01*
X68494939Y-2936830D01*
X69222390Y-2936830D01*
X69228169Y-2965492D01*
X69240443Y-3026359D01*
X69241562Y-3031910D01*
X69262053Y-3080184D01*
X69275316Y-3111430D01*
X69279460Y-3121194D01*
X69334538Y-3201033D01*
X69337281Y-3203663D01*
X69337284Y-3203667D01*
X69399137Y-3262981D01*
X69404544Y-3268166D01*
X69486620Y-3319852D01*
X69490181Y-3321191D01*
X69490184Y-3321192D01*
X69560162Y-3347495D01*
X69577412Y-3353979D01*
X69673211Y-3369152D01*
X69705701Y-3367677D01*
X69766301Y-3364925D01*
X69766304Y-3364925D01*
X69770105Y-3364752D01*
X69842724Y-3346376D01*
X69860437Y-3341894D01*
X69860439Y-3341893D01*
X69864135Y-3340958D01*
X69867566Y-3339300D01*
X69867570Y-3339298D01*
X69905310Y-3321054D01*
X69951461Y-3298744D01*
X69954483Y-3296433D01*
X69954487Y-3296431D01*
X70025492Y-3242143D01*
X70025495Y-3242140D01*
X70028514Y-3239832D01*
X70092148Y-3166630D01*
X70139762Y-3082128D01*
X70169413Y-2989777D01*
X70170242Y-2982152D01*
X70179676Y-2895302D01*
X70179676Y-2895301D01*
X70179888Y-2893350D01*
X70179900Y-2890000D01*
X70172712Y-2819239D01*
X70170483Y-2797291D01*
X70170483Y-2797289D01*
X70170098Y-2793503D01*
X70141093Y-2700947D01*
X70139051Y-2697262D01*
X70095917Y-2619447D01*
X70094070Y-2616115D01*
X70042146Y-2555535D01*
X70033427Y-2545362D01*
X70033426Y-2545361D01*
X70030948Y-2542470D01*
X70026523Y-2539037D01*
X69957313Y-2485353D01*
X69957314Y-2485353D01*
X69954308Y-2483022D01*
X69867280Y-2440198D01*
X69773418Y-2415749D01*
X69724987Y-2413211D01*
X69680361Y-2410872D01*
X69680358Y-2410872D01*
X69676557Y-2410673D01*
X69672788Y-2411243D01*
X69584427Y-2424606D01*
X69584423Y-2424607D01*
X69580654Y-2425177D01*
X69577078Y-2426493D01*
X69577077Y-2426493D01*
X69496883Y-2455999D01*
X69489626Y-2458669D01*
X69486393Y-2460674D01*
X69486390Y-2460675D01*
X69466259Y-2473157D01*
X69407191Y-2509780D01*
X69404426Y-2512395D01*
X69404423Y-2512397D01*
X69367336Y-2547469D01*
X69336718Y-2576423D01*
X69334530Y-2579548D01*
X69334529Y-2579549D01*
X69332632Y-2582258D01*
X69281085Y-2655876D01*
X69273072Y-2674394D01*
X69244188Y-2741141D01*
X69242564Y-2744893D01*
X69222729Y-2839837D01*
X69222657Y-2860552D01*
X69222417Y-2929193D01*
X69222390Y-2936830D01*
X68494939Y-2936830D01*
X68499580Y-2928545D01*
X68505030Y-2917850D01*
X68508201Y-2911627D01*
X68508211Y-2911607D01*
X68508547Y-2910947D01*
X68515229Y-2896454D01*
X68515707Y-2895302D01*
X68549397Y-2813965D01*
X68549402Y-2813951D01*
X68549680Y-2813281D01*
X68555202Y-2798311D01*
X68555422Y-2797635D01*
X68561082Y-2780215D01*
X68561088Y-2780196D01*
X68561310Y-2779512D01*
X68564475Y-2768290D01*
X68565439Y-2764874D01*
X68565445Y-2764850D01*
X68565641Y-2764156D01*
X68566652Y-2759947D01*
X68580967Y-2700317D01*
X68586653Y-2676633D01*
X68587099Y-2674394D01*
X68589616Y-2661737D01*
X68589619Y-2661719D01*
X68589765Y-2660986D01*
X68590021Y-2659373D01*
X68592331Y-2644784D01*
X68592858Y-2641458D01*
X68594734Y-2625612D01*
X68594928Y-2623156D01*
X68602155Y-2531317D01*
X68602155Y-2531316D01*
X68602186Y-2530923D01*
X68602656Y-2522950D01*
X68603044Y-2513064D01*
X68603200Y-2505095D01*
X68603200Y-2473157D01*
X68603266Y-2470008D01*
X68603668Y-2460417D01*
X68603668Y-2460414D01*
X68603700Y-2459652D01*
X68603700Y-1345512D01*
X69266985Y-1345512D01*
X69267845Y-1349488D01*
X69267845Y-1349491D01*
X69275707Y-1385853D01*
X69286859Y-1437434D01*
X69326009Y-1522943D01*
X69328459Y-1526194D01*
X69328460Y-1526196D01*
X69374536Y-1587341D01*
X69382607Y-1598052D01*
X69385695Y-1600698D01*
X69385698Y-1600702D01*
X69450916Y-1656600D01*
X69450919Y-1656602D01*
X69454013Y-1659254D01*
X69536896Y-1703696D01*
X69572580Y-1713794D01*
X69623472Y-1728195D01*
X69623476Y-1728196D01*
X69627389Y-1729303D01*
X69681307Y-1732506D01*
X69717207Y-1734639D01*
X69717210Y-1734639D01*
X69721269Y-1734880D01*
X69814157Y-1720168D01*
X69817946Y-1718683D01*
X69817950Y-1718682D01*
X69864821Y-1700313D01*
X69901719Y-1685853D01*
X69905106Y-1683585D01*
X69905109Y-1683584D01*
X69976484Y-1635803D01*
X69976486Y-1635802D01*
X69979870Y-1633536D01*
X70044963Y-1565657D01*
X70048872Y-1559254D01*
X70073297Y-1519238D01*
X70093962Y-1485384D01*
X70124580Y-1396462D01*
X70125460Y-1388861D01*
X70133100Y-1322824D01*
X70135389Y-1303040D01*
X70135400Y-1300000D01*
X70133026Y-1278142D01*
X70129063Y-1241668D01*
X70125243Y-1206504D01*
X70122390Y-1198027D01*
X70096545Y-1121229D01*
X70096543Y-1121224D01*
X70095246Y-1117371D01*
X70087030Y-1103696D01*
X70048904Y-1040245D01*
X70046809Y-1036758D01*
X70009318Y-997112D01*
X69984985Y-971380D01*
X69984982Y-971378D01*
X69982191Y-968426D01*
X69904408Y-915565D01*
X69817088Y-880639D01*
X69724305Y-865279D01*
X69720238Y-865492D01*
X69720235Y-865492D01*
X69673248Y-867955D01*
X69630388Y-870201D01*
X69626461Y-871283D01*
X69626459Y-871283D01*
X69562642Y-888861D01*
X69539719Y-895175D01*
X69456527Y-939037D01*
X69441820Y-951466D01*
X69387805Y-997112D01*
X69387802Y-997115D01*
X69384696Y-999740D01*
X69327574Y-1074451D01*
X69325853Y-1078142D01*
X69289548Y-1155998D01*
X69289546Y-1156004D01*
X69287829Y-1159686D01*
X69286942Y-1163654D01*
X69286941Y-1163657D01*
X69278828Y-1199951D01*
X69267313Y-1251466D01*
X69267262Y-1266141D01*
X69267016Y-1336758D01*
X69266985Y-1345512D01*
X68603700Y-1345512D01*
X68603700Y1654488D01*
X69266985Y1654488D01*
X69267845Y1650512D01*
X69267845Y1650509D01*
X69276049Y1612566D01*
X69286859Y1562566D01*
X69326009Y1477057D01*
X69328459Y1473806D01*
X69328460Y1473804D01*
X69358196Y1434343D01*
X69382607Y1401948D01*
X69385695Y1399302D01*
X69385698Y1399298D01*
X69450916Y1343400D01*
X69450919Y1343398D01*
X69454013Y1340746D01*
X69536896Y1296304D01*
X69572580Y1286206D01*
X69623472Y1271805D01*
X69623476Y1271804D01*
X69627389Y1270697D01*
X69681307Y1267494D01*
X69717207Y1265361D01*
X69717210Y1265361D01*
X69721269Y1265120D01*
X69814157Y1279832D01*
X69817946Y1281317D01*
X69817950Y1281318D01*
X69866089Y1300184D01*
X69901719Y1314147D01*
X69905106Y1316415D01*
X69905109Y1316416D01*
X69976484Y1364197D01*
X69976486Y1364198D01*
X69979870Y1366464D01*
X70044963Y1434343D01*
X70093962Y1514616D01*
X70124580Y1603538D01*
X70135389Y1696960D01*
X70135400Y1700000D01*
X70134913Y1704488D01*
X70125683Y1789444D01*
X70125243Y1793496D01*
X70112485Y1831405D01*
X70096545Y1878771D01*
X70096543Y1878776D01*
X70095246Y1882629D01*
X70093015Y1886343D01*
X70048904Y1959755D01*
X70046809Y1963242D01*
X70008703Y2003538D01*
X69984985Y2028620D01*
X69984982Y2028622D01*
X69982191Y2031574D01*
X69959453Y2047027D01*
X69931892Y2065757D01*
X69904408Y2084435D01*
X69817088Y2119361D01*
X69724305Y2134721D01*
X69720238Y2134508D01*
X69720235Y2134508D01*
X69673248Y2132045D01*
X69630388Y2129799D01*
X69626461Y2128717D01*
X69626459Y2128717D01*
X69562003Y2110963D01*
X69539719Y2104825D01*
X69456527Y2060963D01*
X69453414Y2058332D01*
X69387805Y2002888D01*
X69387802Y2002885D01*
X69384696Y2000260D01*
X69327574Y1925549D01*
X69325853Y1921858D01*
X69289548Y1844002D01*
X69289546Y1843996D01*
X69287829Y1840314D01*
X69286942Y1836346D01*
X69286941Y1836343D01*
X69278490Y1798534D01*
X69267313Y1748534D01*
X69267299Y1744466D01*
X69267016Y1663242D01*
X69266985Y1654488D01*
X68603700Y1654488D01*
X68603700Y2439190D01*
X68597906Y2530012D01*
X68596576Y2550868D01*
X68596576Y2550869D01*
X68596423Y2553265D01*
X68595876Y2556095D01*
X68567706Y2701694D01*
X68567251Y2704046D01*
X68561378Y2721858D01*
X68554351Y2743170D01*
X69222390Y2743170D01*
X69223144Y2739432D01*
X69240672Y2652505D01*
X69241562Y2648090D01*
X69279460Y2558806D01*
X69334538Y2478967D01*
X69337281Y2476337D01*
X69337284Y2476333D01*
X69400182Y2416017D01*
X69404544Y2411834D01*
X69486620Y2360148D01*
X69490181Y2358809D01*
X69490184Y2358808D01*
X69545261Y2338106D01*
X69577412Y2326021D01*
X69673211Y2310848D01*
X69705701Y2312323D01*
X69766301Y2315075D01*
X69766304Y2315075D01*
X69770105Y2315248D01*
X69818224Y2327424D01*
X69860437Y2338106D01*
X69860439Y2338107D01*
X69864135Y2339042D01*
X69867566Y2340700D01*
X69867570Y2340702D01*
X69918081Y2365120D01*
X69951461Y2381256D01*
X69954483Y2383567D01*
X69954487Y2383569D01*
X70025492Y2437857D01*
X70025495Y2437860D01*
X70028514Y2440168D01*
X70085044Y2505198D01*
X70089648Y2510494D01*
X70089648Y2510495D01*
X70092148Y2513370D01*
X70139762Y2597872D01*
X70169413Y2690223D01*
X70170860Y2703538D01*
X70179676Y2784698D01*
X70179676Y2784699D01*
X70179888Y2786650D01*
X70179900Y2790000D01*
X70170098Y2886497D01*
X70141093Y2979053D01*
X70137273Y2985946D01*
X70095917Y3060553D01*
X70094070Y3063885D01*
X70035668Y3132023D01*
X70033427Y3134638D01*
X70033426Y3134639D01*
X70030948Y3137530D01*
X70024344Y3142653D01*
X69960080Y3192501D01*
X69954308Y3196978D01*
X69867280Y3239802D01*
X69773418Y3264251D01*
X69720828Y3267007D01*
X69680361Y3269128D01*
X69680358Y3269128D01*
X69676557Y3269327D01*
X69672788Y3268757D01*
X69584427Y3255394D01*
X69584423Y3255393D01*
X69580654Y3254823D01*
X69577078Y3253507D01*
X69577077Y3253507D01*
X69506518Y3227546D01*
X69489626Y3221331D01*
X69486393Y3219326D01*
X69486390Y3219325D01*
X69459157Y3202440D01*
X69407191Y3170220D01*
X69404426Y3167605D01*
X69404423Y3167603D01*
X69376023Y3140746D01*
X69336718Y3103577D01*
X69281085Y3024124D01*
X69271333Y3001588D01*
X69250093Y2952505D01*
X69242564Y2935107D01*
X69222729Y2840163D01*
X69222601Y2803538D01*
X69222430Y2754488D01*
X69222390Y2743170D01*
X68554351Y2743170D01*
X68519906Y2847624D01*
X68519905Y2847626D01*
X68519156Y2849898D01*
X68452919Y2988456D01*
X68404630Y3063242D01*
X68370910Y3115465D01*
X68370909Y3115467D01*
X68369612Y3117475D01*
X68270587Y3234863D01*
X68265207Y3239802D01*
X68159214Y3337097D01*
X68159213Y3337098D01*
X68157449Y3338717D01*
X68155499Y3340095D01*
X68155493Y3340100D01*
X68033982Y3425974D01*
X68032031Y3427353D01*
X67964200Y3463344D01*
X67898485Y3498212D01*
X67898482Y3498214D01*
X67896368Y3499335D01*
X67752658Y3553495D01*
X67603231Y3588956D01*
X67450509Y3605142D01*
X67448117Y3605090D01*
X67448112Y3605090D01*
X67373740Y3603467D01*
X67296970Y3601792D01*
X67214839Y3589444D01*
X67147465Y3579315D01*
X67147458Y3579314D01*
X67145100Y3578959D01*
X67142805Y3578307D01*
X67142803Y3578307D01*
X67023609Y3544466D01*
X66997362Y3537014D01*
X66927251Y3507037D01*
X66858354Y3477579D01*
X66858348Y3477576D01*
X66856152Y3476637D01*
X66854093Y3475426D01*
X66854086Y3475423D01*
X66782280Y3433210D01*
X66723757Y3398806D01*
X66721871Y3397346D01*
X66721870Y3397345D01*
X66604225Y3306255D01*
X66604219Y3306250D01*
X66602326Y3304784D01*
X66582012Y3284435D01*
X66496384Y3198657D01*
X66493825Y3196094D01*
X66400015Y3074497D01*
X66398807Y3072434D01*
X66398803Y3072428D01*
X66347281Y2984435D01*
X66322415Y2941968D01*
X66321475Y2939760D01*
X66321475Y2939759D01*
X66266031Y2809455D01*
X66262285Y2800652D01*
X66261634Y2798345D01*
X66261634Y2798344D01*
X66221867Y2657339D01*
X66220598Y2652841D01*
X66210119Y2582302D01*
X66199451Y2510494D01*
X66198030Y2500931D01*
X66196300Y2459651D01*
X66196301Y272715D01*
X66196301Y-1885183D01*
X66186226Y-1922783D01*
X66174275Y-1938357D01*
X64537858Y-3574774D01*
X64504147Y-3594238D01*
X64484684Y-3596800D01*
X63759544Y-3596800D01*
X63721944Y-3586725D01*
X63694419Y-3559200D01*
X63684344Y-3521600D01*
X63691501Y-3489582D01*
X63691843Y-3488856D01*
X63693962Y-3485384D01*
X63703894Y-3456541D01*
X63723254Y-3400313D01*
X63724580Y-3396462D01*
X63727083Y-3374833D01*
X63730015Y-3349491D01*
X63735389Y-3303040D01*
X63735400Y-3300000D01*
X63733336Y-3280996D01*
X63726801Y-3220848D01*
X63725243Y-3206504D01*
X63723588Y-3201586D01*
X63696545Y-3121229D01*
X63696543Y-3121224D01*
X63695246Y-3117371D01*
X63691677Y-3111430D01*
X63648904Y-3040245D01*
X63646809Y-3036758D01*
X63602382Y-2989777D01*
X63584985Y-2971380D01*
X63584982Y-2971378D01*
X63582191Y-2968426D01*
X63578541Y-2965945D01*
X63524461Y-2929193D01*
X63504408Y-2915565D01*
X63417088Y-2880639D01*
X63324305Y-2865279D01*
X63320238Y-2865492D01*
X63320235Y-2865492D01*
X63286429Y-2867264D01*
X63274887Y-2867869D01*
X63236811Y-2859776D01*
X63207883Y-2833729D01*
X63195854Y-2796708D01*
X63199848Y-2768290D01*
X63223252Y-2700317D01*
X63224579Y-2696463D01*
X63228771Y-2660236D01*
X63232756Y-2625786D01*
X63235388Y-2603041D01*
X63235399Y-2600001D01*
X63233472Y-2582258D01*
X63229959Y-2549926D01*
X63225242Y-2506505D01*
X63221429Y-2495175D01*
X63196544Y-2421230D01*
X63196542Y-2421225D01*
X63195245Y-2417372D01*
X63191584Y-2411278D01*
X63148903Y-2340246D01*
X63146808Y-2336759D01*
X63111802Y-2299741D01*
X63084984Y-2271381D01*
X63084981Y-2271379D01*
X63082190Y-2268427D01*
X63071527Y-2261180D01*
X63034185Y-2235803D01*
X63004407Y-2215566D01*
X62917087Y-2180640D01*
X62824304Y-2165280D01*
X62820237Y-2165493D01*
X62820234Y-2165493D01*
X62773247Y-2167956D01*
X62730387Y-2170202D01*
X62726455Y-2171285D01*
X62684857Y-2182742D01*
X62645931Y-2183013D01*
X62612085Y-2163786D01*
X62592388Y-2130211D01*
X62596192Y-2086152D01*
X62593962Y-2085384D01*
X62623254Y-2000313D01*
X62624580Y-1996462D01*
X62625808Y-1985853D01*
X62632350Y-1929303D01*
X62635389Y-1903040D01*
X62635400Y-1900000D01*
X62625243Y-1806504D01*
X62622399Y-1798052D01*
X62596545Y-1721229D01*
X62596543Y-1721224D01*
X62595246Y-1717371D01*
X62590190Y-1708955D01*
X62548904Y-1640245D01*
X62546809Y-1636758D01*
X62508703Y-1596462D01*
X62484985Y-1571380D01*
X62484982Y-1571378D01*
X62482191Y-1568426D01*
X62468863Y-1559368D01*
X62415264Y-1522943D01*
X62404408Y-1515565D01*
X62317088Y-1480639D01*
X62224305Y-1465279D01*
X62220238Y-1465492D01*
X62220235Y-1465492D01*
X62173248Y-1467955D01*
X62130388Y-1470201D01*
X62126461Y-1471283D01*
X62126459Y-1471283D01*
X62043647Y-1494093D01*
X62039719Y-1495175D01*
X61956527Y-1539037D01*
X61941820Y-1551466D01*
X61887805Y-1597112D01*
X61887802Y-1597115D01*
X61884696Y-1599740D01*
X61827574Y-1674451D01*
X61823315Y-1683584D01*
X61789548Y-1755998D01*
X61789546Y-1756004D01*
X61787829Y-1759686D01*
X61786942Y-1763654D01*
X61786941Y-1763657D01*
X61781307Y-1788861D01*
X61767313Y-1851466D01*
X61767174Y-1891368D01*
X61767016Y-1936758D01*
X61766985Y-1945512D01*
X61767845Y-1949488D01*
X61767845Y-1949491D01*
X61773994Y-1977930D01*
X61786859Y-2037434D01*
X61826009Y-2122943D01*
X61828459Y-2126194D01*
X61828460Y-2126196D01*
X61855980Y-2162717D01*
X61882607Y-2198052D01*
X61885695Y-2200698D01*
X61885698Y-2200702D01*
X61950916Y-2256600D01*
X61950919Y-2256602D01*
X61954013Y-2259254D01*
X62036896Y-2303696D01*
X62072580Y-2313794D01*
X62123472Y-2328195D01*
X62123476Y-2328196D01*
X62127389Y-2329303D01*
X62181307Y-2332506D01*
X62217207Y-2334639D01*
X62217210Y-2334639D01*
X62221269Y-2334880D01*
X62314157Y-2320168D01*
X62317237Y-2318961D01*
X62355844Y-2318826D01*
X62389623Y-2338171D01*
X62409204Y-2371814D01*
X62404790Y-2423311D01*
X62387828Y-2459687D01*
X62386941Y-2463655D01*
X62386940Y-2463658D01*
X62378660Y-2500702D01*
X62367312Y-2551467D01*
X62367214Y-2579549D01*
X62367015Y-2636758D01*
X62366984Y-2645513D01*
X62367844Y-2649489D01*
X62367844Y-2649492D01*
X62374091Y-2678383D01*
X62386858Y-2737435D01*
X62426008Y-2822944D01*
X62428458Y-2826195D01*
X62428459Y-2826197D01*
X62454347Y-2860552D01*
X62482606Y-2898053D01*
X62485694Y-2900699D01*
X62485697Y-2900703D01*
X62550915Y-2956601D01*
X62550918Y-2956603D01*
X62554012Y-2959255D01*
X62636895Y-3003697D01*
X62672579Y-3013795D01*
X62723471Y-3028196D01*
X62723475Y-3028197D01*
X62727388Y-3029304D01*
X62777555Y-3032284D01*
X62817205Y-3034640D01*
X62817208Y-3034640D01*
X62821268Y-3034881D01*
X62824825Y-3034318D01*
X62862681Y-3042500D01*
X62891519Y-3068647D01*
X62903420Y-3105709D01*
X62896464Y-3141167D01*
X62889550Y-3155994D01*
X62889549Y-3155998D01*
X62887829Y-3159686D01*
X62886942Y-3163654D01*
X62886941Y-3163657D01*
X62878573Y-3201093D01*
X62867313Y-3251466D01*
X62867264Y-3265530D01*
X62867007Y-3339298D01*
X62866985Y-3345512D01*
X62867845Y-3349488D01*
X62867845Y-3349491D01*
X62878646Y-3399448D01*
X62886859Y-3437434D01*
X62888555Y-3441139D01*
X62888556Y-3441141D01*
X62911061Y-3490295D01*
X62917553Y-3528677D01*
X62903985Y-3565162D01*
X62873992Y-3589974D01*
X62842687Y-3596800D01*
X49059544Y-3596800D01*
X49021944Y-3586725D01*
X48994419Y-3559200D01*
X48984344Y-3521600D01*
X48991501Y-3489582D01*
X48991843Y-3488856D01*
X48993962Y-3485384D01*
X49003894Y-3456541D01*
X49023254Y-3400313D01*
X49024580Y-3396462D01*
X49027083Y-3374833D01*
X49030015Y-3349491D01*
X49035389Y-3303040D01*
X49035400Y-3300000D01*
X49035013Y-3296431D01*
X49030454Y-3254470D01*
X49036409Y-3216002D01*
X49060800Y-3185666D01*
X49097093Y-3171589D01*
X49135561Y-3177544D01*
X49165271Y-3201092D01*
X49182607Y-3224098D01*
X49185695Y-3226744D01*
X49185698Y-3226748D01*
X49250916Y-3282646D01*
X49250919Y-3282648D01*
X49254013Y-3285300D01*
X49336896Y-3329742D01*
X49365715Y-3337897D01*
X49423472Y-3354241D01*
X49423476Y-3354242D01*
X49427389Y-3355349D01*
X49481307Y-3358552D01*
X49517207Y-3360685D01*
X49517210Y-3360685D01*
X49521269Y-3360926D01*
X49614157Y-3346214D01*
X49617946Y-3344729D01*
X49617950Y-3344728D01*
X49664607Y-3326443D01*
X49701719Y-3311899D01*
X49705106Y-3309631D01*
X49705109Y-3309630D01*
X49776484Y-3261849D01*
X49776486Y-3261848D01*
X49779870Y-3259582D01*
X49844963Y-3191703D01*
X49893962Y-3111430D01*
X49924580Y-3022508D01*
X49926757Y-3003697D01*
X49933706Y-2943630D01*
X49935389Y-2929086D01*
X49935400Y-2926046D01*
X49934262Y-2915565D01*
X49928822Y-2865492D01*
X49925243Y-2832550D01*
X49920763Y-2819239D01*
X49896545Y-2747275D01*
X49896543Y-2747270D01*
X49895246Y-2743417D01*
X49889259Y-2733452D01*
X49848904Y-2666291D01*
X49846809Y-2662804D01*
X49800461Y-2613792D01*
X49779900Y-2562123D01*
X49779900Y-2158738D01*
X50467128Y-2158738D01*
X50467988Y-2162714D01*
X50467988Y-2162717D01*
X50479873Y-2217686D01*
X50487002Y-2250660D01*
X50526152Y-2336169D01*
X50582750Y-2411278D01*
X50585838Y-2413924D01*
X50585841Y-2413928D01*
X50651059Y-2469826D01*
X50651062Y-2469828D01*
X50654156Y-2472480D01*
X50737039Y-2516922D01*
X50759688Y-2523331D01*
X50823615Y-2541421D01*
X50823619Y-2541422D01*
X50827532Y-2542529D01*
X50877999Y-2545527D01*
X50917350Y-2547865D01*
X50917353Y-2547865D01*
X50921412Y-2548106D01*
X50966410Y-2540979D01*
X51005122Y-2545048D01*
X51036614Y-2567928D01*
X51052447Y-2603489D01*
X51048378Y-2642202D01*
X51037913Y-2660927D01*
X51030051Y-2671210D01*
X51030047Y-2671216D01*
X51027574Y-2674451D01*
X51025853Y-2678142D01*
X50989548Y-2755998D01*
X50989546Y-2756004D01*
X50987829Y-2759686D01*
X50986942Y-2763654D01*
X50986941Y-2763657D01*
X50980488Y-2792525D01*
X50967313Y-2851466D01*
X50967157Y-2896124D01*
X50967008Y-2939037D01*
X50966985Y-2945512D01*
X50967845Y-2949488D01*
X50967845Y-2949491D01*
X50974580Y-2980639D01*
X50986859Y-3037434D01*
X51026009Y-3122943D01*
X51028459Y-3126194D01*
X51028460Y-3126196D01*
X51056595Y-3163533D01*
X51082607Y-3198052D01*
X51085695Y-3200698D01*
X51085698Y-3200702D01*
X51150916Y-3256600D01*
X51150919Y-3256602D01*
X51154013Y-3259254D01*
X51236896Y-3303696D01*
X51261139Y-3310556D01*
X51323472Y-3328195D01*
X51323476Y-3328196D01*
X51327389Y-3329303D01*
X51381307Y-3332506D01*
X51417207Y-3334639D01*
X51417210Y-3334639D01*
X51421269Y-3334880D01*
X51427899Y-3333830D01*
X51454959Y-3329544D01*
X51514157Y-3320168D01*
X51517946Y-3318683D01*
X51517950Y-3318682D01*
X51568825Y-3298744D01*
X51601719Y-3285853D01*
X51605106Y-3283585D01*
X51605109Y-3283584D01*
X51676484Y-3235803D01*
X51676486Y-3235802D01*
X51679870Y-3233536D01*
X51744963Y-3165657D01*
X51750862Y-3155994D01*
X51769125Y-3126073D01*
X51793962Y-3085384D01*
X51797727Y-3074451D01*
X51823254Y-3000313D01*
X51824580Y-2996462D01*
X51825354Y-2989777D01*
X51832516Y-2927873D01*
X51835389Y-2903040D01*
X51835400Y-2900000D01*
X51834836Y-2894803D01*
X51829696Y-2847495D01*
X51825243Y-2806504D01*
X51822258Y-2797635D01*
X51796545Y-2721229D01*
X51796543Y-2721224D01*
X51795246Y-2717371D01*
X51792774Y-2713256D01*
X51758296Y-2655876D01*
X51746809Y-2636758D01*
X51710687Y-2598560D01*
X51684985Y-2571380D01*
X51684982Y-2571378D01*
X51682191Y-2568426D01*
X51672917Y-2562123D01*
X51634187Y-2535803D01*
X51604408Y-2515565D01*
X51517088Y-2480639D01*
X51424305Y-2465279D01*
X51420238Y-2465492D01*
X51420235Y-2465492D01*
X51330388Y-2470201D01*
X51330348Y-2469432D01*
X51296253Y-2465966D01*
X51264683Y-2443193D01*
X51248728Y-2407687D01*
X51258775Y-2356489D01*
X51291983Y-2302087D01*
X51291984Y-2302084D01*
X51294105Y-2298610D01*
X51304982Y-2267021D01*
X51326749Y-2234750D01*
X51361736Y-2217686D01*
X51400568Y-2220401D01*
X51425021Y-2234405D01*
X51454013Y-2259254D01*
X51536896Y-2303696D01*
X51572580Y-2313794D01*
X51623472Y-2328195D01*
X51623476Y-2328196D01*
X51627389Y-2329303D01*
X51681307Y-2332506D01*
X51717207Y-2334639D01*
X51717210Y-2334639D01*
X51721269Y-2334880D01*
X51814157Y-2320168D01*
X51817946Y-2318683D01*
X51817950Y-2318682D01*
X51859808Y-2302278D01*
X51901719Y-2285853D01*
X51905106Y-2283585D01*
X51905109Y-2283584D01*
X51976484Y-2235803D01*
X51976486Y-2235802D01*
X51979870Y-2233536D01*
X52044963Y-2165657D01*
X52049187Y-2158738D01*
X52083428Y-2102641D01*
X52093962Y-2085384D01*
X52124580Y-1996462D01*
X52125808Y-1985853D01*
X52129781Y-1951507D01*
X52134520Y-1910547D01*
X52148850Y-1874355D01*
X52179356Y-1850176D01*
X52217865Y-1844489D01*
X52251427Y-1857037D01*
X52254013Y-1859254D01*
X52257598Y-1861176D01*
X52257602Y-1861179D01*
X52297019Y-1882314D01*
X52336896Y-1903696D01*
X52372580Y-1913794D01*
X52423472Y-1928195D01*
X52423476Y-1928196D01*
X52427389Y-1929303D01*
X52481307Y-1932506D01*
X52517207Y-1934639D01*
X52517210Y-1934639D01*
X52521269Y-1934880D01*
X52614157Y-1920168D01*
X52617946Y-1918683D01*
X52617950Y-1918682D01*
X52666283Y-1899740D01*
X52701719Y-1885853D01*
X52705106Y-1883585D01*
X52705109Y-1883584D01*
X52776484Y-1835803D01*
X52776486Y-1835802D01*
X52779870Y-1833536D01*
X52844963Y-1765657D01*
X52893962Y-1685384D01*
X52897727Y-1674451D01*
X52923254Y-1600313D01*
X52924580Y-1596462D01*
X52925808Y-1585853D01*
X52930219Y-1547727D01*
X52935389Y-1503040D01*
X52935400Y-1500000D01*
X52933225Y-1479974D01*
X52929696Y-1447495D01*
X52925243Y-1406504D01*
X52923650Y-1401770D01*
X52896545Y-1321229D01*
X52896543Y-1321224D01*
X52895246Y-1317371D01*
X52885231Y-1300702D01*
X52851404Y-1244405D01*
X52846809Y-1236758D01*
X52806463Y-1194093D01*
X52784985Y-1171380D01*
X52784982Y-1171378D01*
X52782191Y-1168426D01*
X52778541Y-1165945D01*
X52730747Y-1133465D01*
X52704408Y-1115565D01*
X52617088Y-1080639D01*
X52524305Y-1065279D01*
X52520238Y-1065492D01*
X52520235Y-1065492D01*
X52473248Y-1067955D01*
X52430388Y-1070201D01*
X52426461Y-1071283D01*
X52426459Y-1071283D01*
X52355174Y-1090918D01*
X52339719Y-1095175D01*
X52256527Y-1139037D01*
X52244527Y-1149178D01*
X52187805Y-1197112D01*
X52187802Y-1197115D01*
X52184696Y-1199740D01*
X52127574Y-1274451D01*
X52125853Y-1278142D01*
X52089548Y-1355998D01*
X52089546Y-1356004D01*
X52087829Y-1359686D01*
X52086942Y-1363654D01*
X52086941Y-1363657D01*
X52080013Y-1394650D01*
X52067313Y-1451466D01*
X52067241Y-1472221D01*
X52067198Y-1484430D01*
X52056992Y-1521995D01*
X52029371Y-1549424D01*
X51991736Y-1559368D01*
X51949729Y-1546365D01*
X51948474Y-1545512D01*
X51904408Y-1515565D01*
X51817088Y-1480639D01*
X51724305Y-1465279D01*
X51720238Y-1465492D01*
X51720235Y-1465492D01*
X51673248Y-1467955D01*
X51630388Y-1470201D01*
X51626461Y-1471283D01*
X51626459Y-1471283D01*
X51543647Y-1494093D01*
X51539719Y-1495175D01*
X51456527Y-1539037D01*
X51441820Y-1551466D01*
X51387805Y-1597112D01*
X51387802Y-1597115D01*
X51384696Y-1599740D01*
X51327574Y-1674451D01*
X51292177Y-1750363D01*
X51292008Y-1750725D01*
X51266987Y-1780545D01*
X51230408Y-1793859D01*
X51181585Y-1781142D01*
X51107918Y-1731079D01*
X51107917Y-1731078D01*
X51104551Y-1728791D01*
X51017231Y-1693865D01*
X50924448Y-1678505D01*
X50920381Y-1678718D01*
X50920378Y-1678718D01*
X50877146Y-1680984D01*
X50830531Y-1683427D01*
X50826604Y-1684509D01*
X50826602Y-1684509D01*
X50752917Y-1704805D01*
X50739862Y-1708401D01*
X50656670Y-1752263D01*
X50652217Y-1756026D01*
X50587948Y-1810338D01*
X50587945Y-1810341D01*
X50584839Y-1812966D01*
X50582368Y-1816198D01*
X50582367Y-1816199D01*
X50577211Y-1822943D01*
X50527717Y-1887677D01*
X50525996Y-1891368D01*
X50489691Y-1969224D01*
X50489689Y-1969230D01*
X50487972Y-1972912D01*
X50487085Y-1976880D01*
X50487084Y-1976883D01*
X50480274Y-2007348D01*
X50467456Y-2064692D01*
X50467128Y-2158738D01*
X49779900Y-2158738D01*
X49779900Y-1447085D01*
X49789975Y-1409485D01*
X49801926Y-1393911D01*
X50027108Y-1168730D01*
X50501036Y-694802D01*
X50740443Y-455396D01*
X50774154Y-435932D01*
X50798076Y-433502D01*
X50805502Y-433943D01*
X50817207Y-434639D01*
X50817210Y-434639D01*
X50821269Y-434880D01*
X50914157Y-420168D01*
X50917946Y-418683D01*
X50917950Y-418682D01*
X50966283Y-399740D01*
X51001719Y-385853D01*
X51005106Y-383585D01*
X51005109Y-383584D01*
X51076484Y-335803D01*
X51076486Y-335802D01*
X51079870Y-333536D01*
X51144963Y-265657D01*
X51148872Y-259254D01*
X51180122Y-208057D01*
X51185903Y-198588D01*
X51214091Y-171744D01*
X51251926Y-162590D01*
X51289269Y-173581D01*
X51318462Y-206461D01*
X51324311Y-219236D01*
X51324314Y-219242D01*
X51326009Y-222943D01*
X51328459Y-226194D01*
X51328460Y-226196D01*
X51374536Y-287341D01*
X51382607Y-298052D01*
X51385695Y-300698D01*
X51385698Y-300702D01*
X51450916Y-356600D01*
X51450919Y-356602D01*
X51454013Y-359254D01*
X51536896Y-403696D01*
X51567574Y-412377D01*
X51623472Y-428195D01*
X51623476Y-428196D01*
X51627389Y-429303D01*
X51681307Y-432506D01*
X51717207Y-434639D01*
X51717210Y-434639D01*
X51721269Y-434880D01*
X51814157Y-420168D01*
X51817946Y-418683D01*
X51817950Y-418682D01*
X51866283Y-399740D01*
X51901719Y-385853D01*
X51905106Y-383585D01*
X51905109Y-383584D01*
X51976484Y-335803D01*
X51976486Y-335802D01*
X51979870Y-333536D01*
X52044963Y-265657D01*
X52048872Y-259254D01*
X52072082Y-221229D01*
X52093962Y-185384D01*
X52097727Y-174451D01*
X52123254Y-100313D01*
X52124580Y-96462D01*
X52125460Y-88861D01*
X52135150Y-5105D01*
X52135389Y-3040D01*
X52135400Y0D01*
X52133225Y20026D01*
X52130110Y48697D01*
X58446975Y48697D01*
X58459090Y-15116D01*
X58463632Y-39037D01*
X58466653Y-54952D01*
X58505576Y-153010D01*
X58507501Y-156025D01*
X58507501Y-156026D01*
X58560414Y-238923D01*
X58560417Y-238927D01*
X58562339Y-241938D01*
X58564800Y-244536D01*
X58564804Y-244541D01*
X58626494Y-309663D01*
X58647101Y-361379D01*
X58647100Y-700702D01*
X58647100Y-1038916D01*
X58626222Y-1090918D01*
X58564135Y-1155775D01*
X58562196Y-1158778D01*
X58562192Y-1158783D01*
X58525529Y-1215565D01*
X58506907Y-1244405D01*
X58505571Y-1247720D01*
X58505570Y-1247722D01*
X58497226Y-1268426D01*
X58467472Y-1342258D01*
X58447251Y-1445802D01*
X58447138Y-1488861D01*
X58447016Y-1535803D01*
X58446975Y-1551303D01*
X58457716Y-1607878D01*
X58463018Y-1635803D01*
X58466653Y-1654952D01*
X58467974Y-1658281D01*
X58467975Y-1658283D01*
X58469125Y-1661180D01*
X58505576Y-1753010D01*
X58507501Y-1756025D01*
X58507501Y-1756026D01*
X58560414Y-1838923D01*
X58560417Y-1838927D01*
X58562339Y-1841938D01*
X58564798Y-1844534D01*
X58564799Y-1844535D01*
X58580566Y-1861179D01*
X58634894Y-1918529D01*
X58720623Y-1980018D01*
X58816432Y-2024187D01*
X58857219Y-2034243D01*
X58915392Y-2048586D01*
X58915395Y-2048586D01*
X58918865Y-2049442D01*
X58987565Y-2052982D01*
X59020652Y-2054687D01*
X59020654Y-2054687D01*
X59024226Y-2054871D01*
X59128713Y-2040280D01*
X59228555Y-2006193D01*
X59274352Y-1980018D01*
X59317041Y-1955620D01*
X59317045Y-1955617D01*
X59320151Y-1953842D01*
X59322868Y-1951509D01*
X59322871Y-1951507D01*
X59397479Y-1887446D01*
X59400194Y-1885115D01*
X59465798Y-1802493D01*
X59514594Y-1708955D01*
X59544822Y-1607878D01*
X59545642Y-1599740D01*
X59553047Y-1526196D01*
X59555392Y-1502908D01*
X59555400Y-1500000D01*
X59555225Y-1498162D01*
X59545720Y-1398535D01*
X59545719Y-1398530D01*
X59545380Y-1394976D01*
X59515681Y-1293742D01*
X59470750Y-1206504D01*
X59469015Y-1203135D01*
X59469014Y-1203134D01*
X59467375Y-1199951D01*
X59418268Y-1137434D01*
X59404418Y-1119802D01*
X59404417Y-1119801D01*
X59402205Y-1116985D01*
X59399504Y-1114641D01*
X59399499Y-1114636D01*
X59378815Y-1096688D01*
X59357019Y-1064436D01*
X59352900Y-1039890D01*
X59352900Y-360271D01*
X59362975Y-322671D01*
X59379110Y-303219D01*
X59400194Y-285115D01*
X59452504Y-219236D01*
X59463574Y-205294D01*
X59465798Y-202493D01*
X59514594Y-108955D01*
X59533567Y-45512D01*
X61166985Y-45512D01*
X61167845Y-49488D01*
X61167845Y-49491D01*
X61176357Y-88861D01*
X61186859Y-137434D01*
X61226009Y-222943D01*
X61228459Y-226194D01*
X61228460Y-226196D01*
X61274536Y-287341D01*
X61282607Y-298052D01*
X61285695Y-300698D01*
X61285698Y-300702D01*
X61350916Y-356600D01*
X61350919Y-356602D01*
X61354013Y-359254D01*
X61436896Y-403696D01*
X61467574Y-412377D01*
X61523472Y-428195D01*
X61523476Y-428196D01*
X61527389Y-429303D01*
X61581307Y-432506D01*
X61617207Y-434639D01*
X61617210Y-434639D01*
X61621269Y-434880D01*
X61714157Y-420168D01*
X61717946Y-418683D01*
X61717950Y-418682D01*
X61766283Y-399740D01*
X61801719Y-385853D01*
X61805106Y-383585D01*
X61805109Y-383584D01*
X61876484Y-335803D01*
X61876486Y-335802D01*
X61879870Y-333536D01*
X61944963Y-265657D01*
X61948872Y-259254D01*
X61972082Y-221229D01*
X61993962Y-185384D01*
X61997727Y-174451D01*
X62023254Y-100313D01*
X62024580Y-96462D01*
X62025460Y-88861D01*
X62035150Y-5105D01*
X62035389Y-3040D01*
X62035400Y0D01*
X62033225Y20026D01*
X62026668Y80375D01*
X62025243Y93496D01*
X62023568Y98473D01*
X61996545Y178771D01*
X61996543Y178776D01*
X61995246Y182629D01*
X61991152Y189444D01*
X61948904Y259755D01*
X61946809Y263242D01*
X61903119Y309443D01*
X61884985Y328620D01*
X61884982Y328622D01*
X61882191Y331574D01*
X61804408Y384435D01*
X61717088Y419361D01*
X61624305Y434721D01*
X61620238Y434508D01*
X61620235Y434508D01*
X61573248Y432045D01*
X61530388Y429799D01*
X61526461Y428717D01*
X61526459Y428717D01*
X61492492Y419361D01*
X61439719Y404825D01*
X61356527Y360963D01*
X61353414Y358332D01*
X61287805Y302888D01*
X61287802Y302885D01*
X61284696Y300260D01*
X61227574Y225549D01*
X61225853Y221858D01*
X61189548Y144002D01*
X61189546Y143996D01*
X61187829Y140314D01*
X61186942Y136346D01*
X61186941Y136343D01*
X61183702Y121853D01*
X61167313Y48534D01*
X61167214Y20026D01*
X61167008Y-39037D01*
X61166985Y-45512D01*
X59533567Y-45512D01*
X59544822Y-7878D01*
X59555392Y97092D01*
X59555400Y100000D01*
X59555201Y102091D01*
X59545720Y201465D01*
X59545719Y201470D01*
X59545380Y205024D01*
X59515681Y306258D01*
X59473476Y388204D01*
X59469015Y396865D01*
X59469014Y396866D01*
X59467375Y400049D01*
X59402205Y483015D01*
X59322522Y552160D01*
X59231202Y604990D01*
X59227829Y606161D01*
X59227823Y606164D01*
X59144870Y634969D01*
X59131540Y639598D01*
X59128004Y640111D01*
X59128003Y640111D01*
X59059628Y650025D01*
X59027131Y654737D01*
X59023564Y654572D01*
X59023562Y654572D01*
X58925319Y650025D01*
X58925314Y650024D01*
X58921743Y649859D01*
X58819179Y625141D01*
X58815919Y623659D01*
X58815917Y623658D01*
X58740669Y589444D01*
X58723140Y581474D01*
X58720222Y579404D01*
X58720220Y579403D01*
X58640788Y523058D01*
X58637090Y520435D01*
X58634619Y517854D01*
X58634617Y517852D01*
X58608938Y491027D01*
X58564135Y444225D01*
X58562196Y441222D01*
X58562192Y441217D01*
X58526468Y385890D01*
X58506907Y355595D01*
X58505571Y352280D01*
X58505570Y352278D01*
X58497226Y331574D01*
X58467472Y257742D01*
X58447251Y154198D01*
X58447155Y117482D01*
X58447020Y65771D01*
X58446975Y48697D01*
X52130110Y48697D01*
X52126668Y80375D01*
X52125243Y93496D01*
X52123568Y98473D01*
X52096545Y178771D01*
X52096543Y178776D01*
X52095246Y182629D01*
X52091152Y189444D01*
X52048904Y259755D01*
X52046809Y263242D01*
X52003119Y309443D01*
X51984985Y328620D01*
X51984982Y328622D01*
X51982191Y331574D01*
X51904408Y384435D01*
X51817088Y419361D01*
X51724305Y434721D01*
X51720238Y434508D01*
X51720235Y434508D01*
X51673248Y432045D01*
X51630388Y429799D01*
X51626461Y428717D01*
X51626459Y428717D01*
X51592492Y419361D01*
X51539719Y404825D01*
X51456527Y360963D01*
X51453414Y358332D01*
X51387805Y302888D01*
X51387802Y302885D01*
X51384696Y300260D01*
X51327574Y225549D01*
X51325853Y221858D01*
X51325852Y221856D01*
X51318254Y205563D01*
X51293232Y175744D01*
X51256653Y162431D01*
X51218318Y169191D01*
X51185641Y198614D01*
X51185423Y198978D01*
X51165781Y231667D01*
X51148904Y259756D01*
X51148902Y259759D01*
X51146809Y263242D01*
X51103119Y309443D01*
X51084985Y328620D01*
X51084982Y328622D01*
X51082191Y331574D01*
X51004408Y384435D01*
X50917088Y419361D01*
X50824305Y434721D01*
X50820238Y434508D01*
X50820235Y434508D01*
X50773248Y432045D01*
X50730388Y429799D01*
X50726461Y428717D01*
X50726459Y428717D01*
X50692492Y419361D01*
X50639719Y404825D01*
X50556527Y360963D01*
X50553414Y358332D01*
X50487805Y302888D01*
X50487802Y302885D01*
X50484696Y300260D01*
X50427574Y225549D01*
X50425853Y221858D01*
X50389548Y144002D01*
X50389546Y143996D01*
X50387829Y140314D01*
X50386942Y136346D01*
X50386941Y136343D01*
X50383702Y121853D01*
X50367313Y48534D01*
X50367248Y30012D01*
X50367122Y-6155D01*
X50345096Y-59066D01*
X49305464Y-1098699D01*
X49303191Y-1100879D01*
X49282407Y-1119991D01*
X49271026Y-1138349D01*
X49267024Y-1144172D01*
X49253970Y-1161369D01*
X49251519Y-1167559D01*
X49245521Y-1179484D01*
X49242015Y-1185139D01*
X49235988Y-1205884D01*
X49233701Y-1212564D01*
X49225752Y-1232639D01*
X49225216Y-1237740D01*
X49225215Y-1237743D01*
X49225056Y-1239251D01*
X49222484Y-1252361D01*
X49220629Y-1258747D01*
X49220100Y-1265952D01*
X49220100Y-1282475D01*
X49219688Y-1290335D01*
X49217740Y-1308870D01*
X49218595Y-1313925D01*
X49218595Y-1313926D01*
X49219047Y-1316598D01*
X49220100Y-1329138D01*
X49220101Y-1959254D01*
X49220101Y-2560960D01*
X49210026Y-2598560D01*
X49193438Y-2618398D01*
X49190590Y-2620805D01*
X49184696Y-2625786D01*
X49127574Y-2700497D01*
X49121333Y-2713882D01*
X49089548Y-2782044D01*
X49089546Y-2782050D01*
X49087829Y-2785732D01*
X49086942Y-2789700D01*
X49086941Y-2789703D01*
X49079511Y-2822944D01*
X49067313Y-2877512D01*
X49066985Y-2971558D01*
X49066346Y-2971556D01*
X49060909Y-3005900D01*
X49036414Y-3036153D01*
X49000074Y-3050106D01*
X48961626Y-3044019D01*
X48937569Y-3026987D01*
X48933334Y-3022508D01*
X48913724Y-3001771D01*
X48884985Y-2971380D01*
X48884982Y-2971378D01*
X48882191Y-2968426D01*
X48878541Y-2965945D01*
X48824461Y-2929193D01*
X48804408Y-2915565D01*
X48717088Y-2880639D01*
X48624305Y-2865279D01*
X48620238Y-2865492D01*
X48620235Y-2865492D01*
X48574885Y-2867869D01*
X48530388Y-2870201D01*
X48526461Y-2871283D01*
X48526459Y-2871283D01*
X48443647Y-2894093D01*
X48439719Y-2895175D01*
X48356527Y-2939037D01*
X48353414Y-2941668D01*
X48287805Y-2997112D01*
X48287802Y-2997115D01*
X48284696Y-2999740D01*
X48282225Y-3002972D01*
X48282224Y-3002973D01*
X48280823Y-3004806D01*
X48227574Y-3074451D01*
X48224901Y-3080184D01*
X48189548Y-3155998D01*
X48189546Y-3156004D01*
X48187829Y-3159686D01*
X48186942Y-3163654D01*
X48186941Y-3163657D01*
X48178573Y-3201093D01*
X48167313Y-3251466D01*
X48167264Y-3265530D01*
X48167007Y-3339298D01*
X48166985Y-3345512D01*
X48167845Y-3349488D01*
X48167845Y-3349491D01*
X48178646Y-3399448D01*
X48186859Y-3437434D01*
X48188555Y-3441139D01*
X48188556Y-3441141D01*
X48211061Y-3490295D01*
X48217553Y-3528677D01*
X48203985Y-3565162D01*
X48173992Y-3589974D01*
X48142687Y-3596800D01*
X47347131Y-3596800D01*
X47309531Y-3586725D01*
X47282006Y-3559200D01*
X47271931Y-3521600D01*
X47279088Y-3489582D01*
X47279430Y-3488856D01*
X47281549Y-3485384D01*
X47291481Y-3456541D01*
X47310841Y-3400313D01*
X47312167Y-3396462D01*
X47314670Y-3374833D01*
X47317602Y-3349491D01*
X47322976Y-3303040D01*
X47322987Y-3300000D01*
X47320923Y-3280996D01*
X47314388Y-3220848D01*
X47312830Y-3206504D01*
X47311175Y-3201586D01*
X47284132Y-3121229D01*
X47284130Y-3121224D01*
X47282833Y-3117371D01*
X47279264Y-3111430D01*
X47236491Y-3040245D01*
X47234396Y-3036758D01*
X47189969Y-2989777D01*
X47172572Y-2971380D01*
X47172569Y-2971378D01*
X47169778Y-2968426D01*
X47166128Y-2965945D01*
X47112048Y-2929193D01*
X47091995Y-2915565D01*
X47074569Y-2908595D01*
X47049322Y-2891948D01*
X46724926Y-2567553D01*
X46705462Y-2533841D01*
X46702900Y-2514378D01*
X46702900Y2154488D01*
X57866985Y2154488D01*
X57867845Y2150512D01*
X57867845Y2150509D01*
X57876029Y2112659D01*
X57886859Y2062566D01*
X57926009Y1977057D01*
X57928459Y1973806D01*
X57928460Y1973804D01*
X57974536Y1912659D01*
X57982607Y1901948D01*
X58035047Y1857002D01*
X58057036Y1824887D01*
X58060023Y1786076D01*
X58034645Y1742471D01*
X57987805Y1702888D01*
X57987802Y1702885D01*
X57984696Y1700260D01*
X57927574Y1625549D01*
X57925853Y1621858D01*
X57889548Y1544002D01*
X57889546Y1543996D01*
X57887829Y1540314D01*
X57886942Y1536346D01*
X57886941Y1536343D01*
X57881307Y1511139D01*
X57867313Y1448534D01*
X57867299Y1444466D01*
X57867027Y1366416D01*
X57866985Y1354488D01*
X57867845Y1350512D01*
X57867845Y1350509D01*
X57875707Y1314147D01*
X57886859Y1262566D01*
X57926009Y1177057D01*
X57928459Y1173806D01*
X57928460Y1173804D01*
X57955956Y1137315D01*
X57982607Y1101948D01*
X57985695Y1099302D01*
X57985698Y1099298D01*
X58050916Y1043400D01*
X58050919Y1043398D01*
X58054013Y1040746D01*
X58136896Y996304D01*
X58157354Y990515D01*
X58223472Y971805D01*
X58223476Y971804D01*
X58227389Y970697D01*
X58281307Y967494D01*
X58317207Y965361D01*
X58317210Y965361D01*
X58321269Y965120D01*
X58414157Y979832D01*
X58417946Y981317D01*
X58417950Y981318D01*
X58461103Y998230D01*
X58501719Y1014147D01*
X58505106Y1016415D01*
X58505109Y1016416D01*
X58576484Y1064197D01*
X58576486Y1064198D01*
X58579870Y1066464D01*
X58644963Y1134343D01*
X58693962Y1214616D01*
X58724580Y1303538D01*
X58725808Y1314147D01*
X58731420Y1362659D01*
X58735389Y1396960D01*
X58735400Y1400000D01*
X58733612Y1416464D01*
X58729696Y1452505D01*
X58725243Y1493496D01*
X58723943Y1497359D01*
X58696545Y1578771D01*
X58696543Y1578776D01*
X58695246Y1582629D01*
X58646809Y1663242D01*
X58607805Y1704488D01*
X62716985Y1704488D01*
X62717845Y1700512D01*
X62717845Y1700509D01*
X62726915Y1658558D01*
X62736859Y1612566D01*
X62776009Y1527057D01*
X62778459Y1523806D01*
X62778460Y1523804D01*
X62826607Y1459911D01*
X62832607Y1451948D01*
X62835695Y1449302D01*
X62835698Y1449298D01*
X62900916Y1393400D01*
X62900919Y1393398D01*
X62904013Y1390746D01*
X62986896Y1346304D01*
X63006538Y1340746D01*
X63073472Y1321805D01*
X63073476Y1321804D01*
X63077389Y1320697D01*
X63131307Y1317494D01*
X63167207Y1315361D01*
X63167210Y1315361D01*
X63171269Y1315120D01*
X63264157Y1329832D01*
X63267946Y1331317D01*
X63267950Y1331318D01*
X63337457Y1358558D01*
X63351719Y1364147D01*
X63355106Y1366415D01*
X63355109Y1366416D01*
X63426484Y1414197D01*
X63426486Y1414198D01*
X63429870Y1416464D01*
X63494963Y1484343D01*
X63543962Y1564616D01*
X63574580Y1653538D01*
X63585389Y1746960D01*
X63585400Y1750000D01*
X63583612Y1766464D01*
X63580044Y1799298D01*
X63575243Y1843496D01*
X63565043Y1873804D01*
X63546545Y1928771D01*
X63546543Y1928776D01*
X63545246Y1932629D01*
X63496809Y2013242D01*
X63454170Y2058332D01*
X63434985Y2078620D01*
X63434982Y2078622D01*
X63432191Y2081574D01*
X63354408Y2134435D01*
X63267088Y2169361D01*
X63174305Y2184721D01*
X63170238Y2184508D01*
X63170235Y2184508D01*
X63123248Y2182045D01*
X63080388Y2179799D01*
X63076461Y2178717D01*
X63076459Y2178717D01*
X62993647Y2155907D01*
X62989719Y2154825D01*
X62906527Y2110963D01*
X62896029Y2102091D01*
X62837805Y2052888D01*
X62837802Y2052885D01*
X62834696Y2050260D01*
X62777574Y1975549D01*
X62775853Y1971858D01*
X62739548Y1894002D01*
X62739546Y1893996D01*
X62737829Y1890314D01*
X62736942Y1886346D01*
X62736941Y1886343D01*
X62728227Y1847359D01*
X62717313Y1798534D01*
X62717281Y1789444D01*
X62717027Y1716416D01*
X62716985Y1704488D01*
X58607805Y1704488D01*
X58596525Y1716416D01*
X58584985Y1728620D01*
X58584982Y1728622D01*
X58582191Y1731574D01*
X58578829Y1733859D01*
X58578824Y1733863D01*
X58573258Y1737646D01*
X58547824Y1767114D01*
X58540531Y1805351D01*
X58553334Y1842112D01*
X58573693Y1862329D01*
X58579870Y1866464D01*
X58644963Y1934343D01*
X58648872Y1940746D01*
X58673297Y1980762D01*
X58693962Y2014616D01*
X58724580Y2103538D01*
X58725808Y2114147D01*
X58731861Y2166464D01*
X58735389Y2196960D01*
X58735400Y2200000D01*
X58725243Y2293496D01*
X58719345Y2311021D01*
X58696545Y2378771D01*
X58696543Y2378776D01*
X58695246Y2382629D01*
X58688717Y2393496D01*
X58660326Y2440746D01*
X58646809Y2463242D01*
X58611803Y2500260D01*
X58584985Y2528620D01*
X58584982Y2528622D01*
X58582191Y2531574D01*
X58578541Y2534055D01*
X58515264Y2577057D01*
X58504408Y2584435D01*
X58417088Y2619361D01*
X58324305Y2634721D01*
X58320238Y2634508D01*
X58320235Y2634508D01*
X58273248Y2632045D01*
X58230388Y2629799D01*
X58226461Y2628717D01*
X58226459Y2628717D01*
X58162642Y2611139D01*
X58139719Y2604825D01*
X58056527Y2560963D01*
X58043785Y2550195D01*
X57987805Y2502888D01*
X57987802Y2502885D01*
X57984696Y2500260D01*
X57927574Y2425549D01*
X57924272Y2418467D01*
X57889548Y2344002D01*
X57889546Y2343996D01*
X57887829Y2340314D01*
X57886942Y2336346D01*
X57886941Y2336343D01*
X57881376Y2311445D01*
X57867313Y2248534D01*
X57867299Y2244466D01*
X57867032Y2167848D01*
X57866985Y2154488D01*
X46702900Y2154488D01*
X46702900Y3447691D01*
X49064289Y3447691D01*
X49084163Y3355769D01*
X49123313Y3270260D01*
X49125763Y3267009D01*
X49125764Y3267007D01*
X49161668Y3219361D01*
X49179911Y3195151D01*
X49182999Y3192505D01*
X49183002Y3192501D01*
X49248220Y3136603D01*
X49248223Y3136601D01*
X49251317Y3133949D01*
X49334200Y3089507D01*
X49363139Y3081318D01*
X49420776Y3065008D01*
X49420780Y3065007D01*
X49424693Y3063900D01*
X49478611Y3060697D01*
X49514511Y3058564D01*
X49514514Y3058564D01*
X49518573Y3058323D01*
X49611461Y3073035D01*
X49615252Y3074521D01*
X49615257Y3074522D01*
X49698902Y3107302D01*
X49737585Y3111641D01*
X49773256Y3096057D01*
X49796355Y3064725D01*
X49800694Y3026042D01*
X49794495Y3005507D01*
X49787829Y2991211D01*
X49786942Y2987243D01*
X49786941Y2987240D01*
X49780479Y2958332D01*
X49767313Y2899431D01*
X49767179Y2860963D01*
X49767067Y2828784D01*
X49766985Y2805385D01*
X49767845Y2801409D01*
X49767845Y2801406D01*
X49776243Y2762566D01*
X49786859Y2713463D01*
X49826009Y2627954D01*
X49828459Y2624703D01*
X49828460Y2624701D01*
X49860410Y2582302D01*
X49882607Y2552845D01*
X49885695Y2550199D01*
X49885698Y2550195D01*
X49950916Y2494297D01*
X49950919Y2494295D01*
X49954013Y2491643D01*
X50036896Y2447201D01*
X50060902Y2440408D01*
X50123472Y2422702D01*
X50123476Y2422701D01*
X50127389Y2421594D01*
X50180027Y2418467D01*
X50217207Y2416258D01*
X50217210Y2416258D01*
X50221269Y2416017D01*
X50314157Y2430729D01*
X50317946Y2432214D01*
X50317950Y2432215D01*
X50374783Y2454488D01*
X50401719Y2465044D01*
X50405106Y2467312D01*
X50405109Y2467313D01*
X50476484Y2515094D01*
X50476486Y2515095D01*
X50479870Y2517361D01*
X50544963Y2585240D01*
X50550003Y2593496D01*
X50572587Y2630495D01*
X50600777Y2657339D01*
X50638612Y2666493D01*
X50675954Y2655502D01*
X50705148Y2622620D01*
X50724312Y2580762D01*
X50724315Y2580757D01*
X50726009Y2577057D01*
X50728459Y2573806D01*
X50728460Y2573804D01*
X50774000Y2513370D01*
X50782607Y2501948D01*
X50785695Y2499302D01*
X50785698Y2499298D01*
X50850916Y2443400D01*
X50850919Y2443398D01*
X50854013Y2440746D01*
X50936896Y2396304D01*
X50972580Y2386206D01*
X51023472Y2371805D01*
X51023476Y2371804D01*
X51027389Y2370697D01*
X51081307Y2367494D01*
X51117207Y2365361D01*
X51117210Y2365361D01*
X51121269Y2365120D01*
X51214157Y2379832D01*
X51217946Y2381317D01*
X51217950Y2381318D01*
X51266283Y2400260D01*
X51301719Y2414147D01*
X51305106Y2416415D01*
X51305109Y2416416D01*
X51376484Y2464197D01*
X51376486Y2464198D01*
X51379870Y2466464D01*
X51444963Y2534343D01*
X51448872Y2540746D01*
X51473297Y2580762D01*
X51493962Y2614616D01*
X51524580Y2703538D01*
X51525460Y2711139D01*
X51531870Y2766549D01*
X51535389Y2796960D01*
X51535400Y2800000D01*
X51533026Y2821858D01*
X51529063Y2858332D01*
X51525243Y2893496D01*
X51522967Y2900260D01*
X51496545Y2978771D01*
X51496543Y2978776D01*
X51495246Y2982629D01*
X51492476Y2987240D01*
X51458731Y3043400D01*
X51446809Y3063242D01*
X51408666Y3103577D01*
X51384985Y3128620D01*
X51384982Y3128622D01*
X51382191Y3131574D01*
X51378697Y3133949D01*
X51315264Y3177057D01*
X51304408Y3184435D01*
X51217088Y3219361D01*
X51124305Y3234721D01*
X51120238Y3234508D01*
X51120235Y3234508D01*
X51076564Y3232219D01*
X51030388Y3229799D01*
X51026461Y3228717D01*
X51026459Y3228717D01*
X50962642Y3211139D01*
X50939719Y3204825D01*
X50856527Y3160963D01*
X50841027Y3147864D01*
X50787805Y3102888D01*
X50787802Y3102885D01*
X50784696Y3100260D01*
X50782225Y3097028D01*
X50782224Y3097027D01*
X50777947Y3091433D01*
X50727574Y3025549D01*
X50727001Y3024321D01*
X50699725Y2998161D01*
X50661923Y2988873D01*
X50624542Y2999732D01*
X50595802Y3031873D01*
X50595246Y3033526D01*
X50591168Y3040314D01*
X50555148Y3100260D01*
X50546809Y3114139D01*
X50511803Y3151157D01*
X50484985Y3179517D01*
X50484982Y3179519D01*
X50482191Y3182471D01*
X50464275Y3194647D01*
X50414284Y3228620D01*
X50404408Y3235332D01*
X50317088Y3270258D01*
X50224305Y3285618D01*
X50220238Y3285405D01*
X50220235Y3285405D01*
X50173248Y3282942D01*
X50130388Y3280696D01*
X50126461Y3279614D01*
X50126459Y3279614D01*
X50043647Y3256804D01*
X50039719Y3255722D01*
X50036116Y3253823D01*
X50036115Y3253822D01*
X50004431Y3237117D01*
X49966472Y3228493D01*
X49929286Y3240004D01*
X49902838Y3268566D01*
X49894214Y3306525D01*
X49898256Y3328121D01*
X49898462Y3328717D01*
X49907335Y3354488D01*
X59666985Y3354488D01*
X59667845Y3350512D01*
X59667845Y3350509D01*
X59677355Y3306525D01*
X59686859Y3262566D01*
X59726009Y3177057D01*
X59728459Y3173806D01*
X59728460Y3173804D01*
X59773421Y3114139D01*
X59782607Y3101948D01*
X59785695Y3099302D01*
X59785698Y3099298D01*
X59850916Y3043400D01*
X59850919Y3043398D01*
X59854013Y3040746D01*
X59936896Y2996304D01*
X59972253Y2986299D01*
X60023472Y2971805D01*
X60023476Y2971804D01*
X60027389Y2970697D01*
X60081307Y2967494D01*
X60117207Y2965361D01*
X60117210Y2965361D01*
X60121269Y2965120D01*
X60214157Y2979832D01*
X60217946Y2981317D01*
X60217950Y2981318D01*
X60269672Y3001588D01*
X60301719Y3014147D01*
X60305106Y3016415D01*
X60305109Y3016416D01*
X60376484Y3064197D01*
X60376486Y3064198D01*
X60379870Y3066464D01*
X60444963Y3134343D01*
X60448872Y3140746D01*
X60473370Y3180881D01*
X60493962Y3214616D01*
X60524580Y3303538D01*
X60525460Y3311139D01*
X60535150Y3394895D01*
X60535389Y3396960D01*
X60535400Y3400000D01*
X60532429Y3427353D01*
X60529481Y3454488D01*
X60525243Y3493496D01*
X60522995Y3500177D01*
X60496545Y3578771D01*
X60496543Y3578776D01*
X60495246Y3582629D01*
X60491445Y3588956D01*
X60460585Y3640314D01*
X60446809Y3663242D01*
X60409318Y3702888D01*
X60384985Y3728620D01*
X60384982Y3728622D01*
X60382191Y3731574D01*
X60364790Y3743400D01*
X60317095Y3775813D01*
X60304408Y3784435D01*
X60217088Y3819361D01*
X60124305Y3834721D01*
X60120238Y3834508D01*
X60120235Y3834508D01*
X60073248Y3832045D01*
X60030388Y3829799D01*
X60026461Y3828717D01*
X60026459Y3828717D01*
X59986999Y3817848D01*
X59939719Y3804825D01*
X59856527Y3760963D01*
X59844215Y3750558D01*
X59787805Y3702888D01*
X59787802Y3702885D01*
X59784696Y3700260D01*
X59727574Y3625549D01*
X59725853Y3621858D01*
X59689548Y3544002D01*
X59689546Y3543996D01*
X59687829Y3540314D01*
X59667313Y3448534D01*
X59666985Y3354488D01*
X49907335Y3354488D01*
X49921884Y3396741D01*
X49922671Y3403538D01*
X49929036Y3458558D01*
X49932693Y3490163D01*
X49932704Y3493203D01*
X49932132Y3498473D01*
X49926094Y3554048D01*
X49922547Y3586699D01*
X49920260Y3593496D01*
X49893849Y3671974D01*
X49893847Y3671979D01*
X49892550Y3675832D01*
X49844113Y3756445D01*
X49803589Y3799298D01*
X49782289Y3821823D01*
X49782286Y3821825D01*
X49779495Y3824777D01*
X49773698Y3828717D01*
X49723453Y3862863D01*
X49701712Y3877638D01*
X49614392Y3912564D01*
X49521609Y3927924D01*
X49517542Y3927711D01*
X49517539Y3927711D01*
X49470552Y3925248D01*
X49427692Y3923002D01*
X49423765Y3921920D01*
X49423763Y3921920D01*
X49340951Y3899110D01*
X49337023Y3898028D01*
X49253831Y3854166D01*
X49250720Y3851537D01*
X49250717Y3851535D01*
X49218325Y3824161D01*
X49183870Y3807948D01*
X49183368Y3801347D01*
X49172156Y3780588D01*
X49124878Y3718752D01*
X49123157Y3715061D01*
X49086852Y3637205D01*
X49086850Y3637199D01*
X49085133Y3633517D01*
X49084246Y3629549D01*
X49084245Y3629546D01*
X49077050Y3597359D01*
X49064617Y3541737D01*
X49064289Y3447691D01*
X46702900Y3447691D01*
X46702900Y3892068D01*
X46719207Y3938830D01*
X46763574Y3994706D01*
X46765798Y3997507D01*
X46814594Y4091045D01*
X46844822Y4192122D01*
X46850518Y4248697D01*
X48146975Y4248697D01*
X48166653Y4145048D01*
X48205576Y4046990D01*
X48207501Y4043975D01*
X48207501Y4043974D01*
X48260414Y3961077D01*
X48260417Y3961073D01*
X48262339Y3958062D01*
X48264798Y3955466D01*
X48264799Y3955465D01*
X48318184Y3899110D01*
X48334894Y3881471D01*
X48420623Y3819982D01*
X48516432Y3775813D01*
X48542431Y3769403D01*
X48615392Y3751414D01*
X48615395Y3751414D01*
X48618865Y3750558D01*
X48687565Y3747018D01*
X48720652Y3745313D01*
X48720654Y3745313D01*
X48724226Y3745129D01*
X48828713Y3759720D01*
X48928555Y3793807D01*
X48977573Y3821823D01*
X49017041Y3844380D01*
X49017045Y3844383D01*
X49020151Y3846158D01*
X49022868Y3848491D01*
X49022871Y3848493D01*
X49054153Y3875353D01*
X49063429Y3883317D01*
X49098450Y3900135D01*
X49099032Y3907071D01*
X49110894Y3928360D01*
X49163570Y3994700D01*
X49163574Y3994706D01*
X49165798Y3997507D01*
X49195523Y4054488D01*
X63666985Y4054488D01*
X63686859Y3962566D01*
X63726009Y3877057D01*
X63728459Y3873806D01*
X63728460Y3873804D01*
X63770149Y3818481D01*
X63782607Y3801948D01*
X63785695Y3799302D01*
X63785698Y3799298D01*
X63850916Y3743400D01*
X63850919Y3743398D01*
X63854013Y3740746D01*
X63936896Y3696304D01*
X63972580Y3686206D01*
X64023472Y3671805D01*
X64023476Y3671804D01*
X64027389Y3670697D01*
X64079522Y3667600D01*
X64117207Y3665361D01*
X64117210Y3665361D01*
X64121269Y3665120D01*
X64214157Y3679832D01*
X64217946Y3681317D01*
X64217950Y3681318D01*
X64280889Y3705984D01*
X64301719Y3714147D01*
X64305106Y3716415D01*
X64305109Y3716416D01*
X64376484Y3764197D01*
X64376486Y3764198D01*
X64379870Y3766464D01*
X64444963Y3834343D01*
X64493962Y3914616D01*
X64524580Y4003538D01*
X64531570Y4063958D01*
X68050868Y4063958D01*
X68052069Y4058537D01*
X68081452Y3995527D01*
X68084724Y3989859D01*
X68146430Y3901733D01*
X68150645Y3896710D01*
X68226710Y3820645D01*
X68231733Y3816430D01*
X68319859Y3754724D01*
X68325527Y3751452D01*
X68423032Y3705984D01*
X68429183Y3703745D01*
X68533107Y3675899D01*
X68539549Y3674763D01*
X68619781Y3667744D01*
X68623075Y3667600D01*
X68936098Y3667600D01*
X68943908Y3669692D01*
X68946000Y3677502D01*
X68946000Y4056098D01*
X68946000Y4056099D01*
X69453999Y4056099D01*
X69453999Y3677502D01*
X69456091Y3669692D01*
X69463901Y3667600D01*
X69776925Y3667600D01*
X69780219Y3667744D01*
X69860451Y3674763D01*
X69866893Y3675899D01*
X69970817Y3703745D01*
X69976968Y3705984D01*
X70074473Y3751452D01*
X70080141Y3754724D01*
X70168267Y3816430D01*
X70173290Y3820645D01*
X70249355Y3896710D01*
X70253570Y3901733D01*
X70315276Y3989859D01*
X70318548Y3995527D01*
X70347227Y4057028D01*
X70348448Y4063958D01*
X72380868Y4063958D01*
X72382069Y4058537D01*
X72411452Y3995527D01*
X72414724Y3989859D01*
X72476430Y3901733D01*
X72480645Y3896710D01*
X72556710Y3820645D01*
X72561733Y3816430D01*
X72649859Y3754724D01*
X72655527Y3751452D01*
X72753032Y3705984D01*
X72759183Y3703745D01*
X72863107Y3675899D01*
X72869549Y3674763D01*
X72949781Y3667744D01*
X72953075Y3667600D01*
X73116098Y3667600D01*
X73123908Y3669692D01*
X73126000Y3677502D01*
X73126000Y4056098D01*
X73126000Y4056099D01*
X73633999Y4056099D01*
X73633999Y3677502D01*
X73636091Y3669692D01*
X73643901Y3667600D01*
X73806925Y3667600D01*
X73810219Y3667744D01*
X73890451Y3674763D01*
X73896893Y3675899D01*
X74000817Y3703745D01*
X74006968Y3705984D01*
X74104473Y3751452D01*
X74110141Y3754724D01*
X74198267Y3816430D01*
X74203290Y3820645D01*
X74279355Y3896710D01*
X74283570Y3901733D01*
X74345276Y3989859D01*
X74348548Y3995527D01*
X74377227Y4057028D01*
X74378597Y4064798D01*
X74373176Y4066000D01*
X73643901Y4066001D01*
X73636091Y4063909D01*
X73633999Y4056099D01*
X73126000Y4056099D01*
X73123908Y4063908D01*
X73116098Y4066000D01*
X72388491Y4066001D01*
X72380868Y4063958D01*
X70348448Y4063958D01*
X70348597Y4064798D01*
X70343176Y4066000D01*
X69463901Y4066001D01*
X69456091Y4063909D01*
X69453999Y4056099D01*
X68946000Y4056099D01*
X68943908Y4063908D01*
X68936098Y4066000D01*
X68058491Y4066001D01*
X68050868Y4063958D01*
X64531570Y4063958D01*
X64535389Y4096960D01*
X64535400Y4100000D01*
X64525243Y4193496D01*
X64523943Y4197359D01*
X64496545Y4278771D01*
X64496543Y4278776D01*
X64495246Y4282629D01*
X64484809Y4300000D01*
X64451482Y4355465D01*
X64446809Y4363242D01*
X64407298Y4405024D01*
X64384985Y4428620D01*
X64384982Y4428622D01*
X64382191Y4431574D01*
X64304408Y4484435D01*
X64217088Y4519361D01*
X64124305Y4534721D01*
X64120238Y4534508D01*
X64120235Y4534508D01*
X64073248Y4532045D01*
X64030388Y4529799D01*
X64026461Y4528717D01*
X64026459Y4528717D01*
X63943647Y4505907D01*
X63939719Y4504825D01*
X63856527Y4460963D01*
X63836424Y4443974D01*
X63787805Y4402888D01*
X63787802Y4402885D01*
X63784696Y4400260D01*
X63782225Y4397028D01*
X63782224Y4397027D01*
X63772669Y4384529D01*
X63727574Y4325549D01*
X63722601Y4314885D01*
X63689548Y4244002D01*
X63689546Y4243996D01*
X63687829Y4240314D01*
X63686942Y4236346D01*
X63686941Y4236343D01*
X63678227Y4197359D01*
X63667313Y4148534D01*
X63666985Y4054488D01*
X49195523Y4054488D01*
X49214594Y4091045D01*
X49244822Y4192122D01*
X49255392Y4297092D01*
X49255400Y4300000D01*
X49255225Y4301838D01*
X49245720Y4401465D01*
X49245719Y4401470D01*
X49245380Y4405024D01*
X49215681Y4506258D01*
X49167375Y4600049D01*
X49102205Y4683015D01*
X49022522Y4752160D01*
X48931202Y4804990D01*
X48927829Y4806161D01*
X48927823Y4806164D01*
X48866493Y4827460D01*
X48831540Y4839598D01*
X48828004Y4840111D01*
X48828003Y4840111D01*
X48759628Y4850025D01*
X48727131Y4854737D01*
X48723564Y4854572D01*
X48723562Y4854572D01*
X48625319Y4850025D01*
X48625314Y4850024D01*
X48621743Y4849859D01*
X48519179Y4825141D01*
X48515919Y4823659D01*
X48515917Y4823658D01*
X48470919Y4803198D01*
X48423140Y4781474D01*
X48420222Y4779404D01*
X48420220Y4779403D01*
X48340008Y4722505D01*
X48337090Y4720435D01*
X48334619Y4717854D01*
X48334617Y4717852D01*
X48306252Y4688221D01*
X48264135Y4644225D01*
X48262196Y4641222D01*
X48262192Y4641217D01*
X48225198Y4583922D01*
X48206907Y4555595D01*
X48205571Y4552280D01*
X48205570Y4552278D01*
X48201314Y4541717D01*
X48167472Y4457742D01*
X48147251Y4354198D01*
X48147148Y4314885D01*
X48147068Y4284071D01*
X48146975Y4248697D01*
X46850518Y4248697D01*
X46855392Y4297092D01*
X46855400Y4300000D01*
X46855225Y4301838D01*
X46845720Y4401465D01*
X46845719Y4401470D01*
X46845380Y4405024D01*
X46815681Y4506258D01*
X46767375Y4600049D01*
X46702205Y4683015D01*
X46622522Y4752160D01*
X46531202Y4804990D01*
X46527829Y4806161D01*
X46527823Y4806164D01*
X46466493Y4827460D01*
X46431540Y4839598D01*
X46428004Y4840111D01*
X46428003Y4840111D01*
X46359628Y4850025D01*
X46327131Y4854737D01*
X46323564Y4854572D01*
X46323562Y4854572D01*
X46225319Y4850025D01*
X46225314Y4850024D01*
X46221743Y4849859D01*
X46119179Y4825141D01*
X46115919Y4823659D01*
X46115917Y4823658D01*
X46070919Y4803198D01*
X46023140Y4781474D01*
X46020222Y4779404D01*
X46020220Y4779403D01*
X45940008Y4722505D01*
X45937090Y4720435D01*
X45934619Y4717854D01*
X45934617Y4717852D01*
X45906252Y4688221D01*
X45864135Y4644225D01*
X45862196Y4641222D01*
X45862192Y4641217D01*
X45825198Y4583922D01*
X45806907Y4555595D01*
X45805571Y4552280D01*
X45805570Y4552278D01*
X45801314Y4541717D01*
X45767472Y4457742D01*
X45747251Y4354198D01*
X45747148Y4314885D01*
X45747068Y4284071D01*
X45746975Y4248697D01*
X45766653Y4145048D01*
X45805576Y4046990D01*
X45807501Y4043975D01*
X45807501Y4043974D01*
X45856922Y3966549D01*
X45862339Y3958062D01*
X45864799Y3955465D01*
X45864800Y3955464D01*
X45876495Y3943118D01*
X45897101Y3891402D01*
X45897100Y589444D01*
X45897100Y-2712469D01*
X45897096Y-2713256D01*
X45896676Y-2753380D01*
X45896971Y-2754742D01*
X45890940Y-2791974D01*
X45866338Y-2822140D01*
X45826285Y-2836245D01*
X45794985Y-2837885D01*
X45791058Y-2838967D01*
X45791056Y-2838967D01*
X45708244Y-2861777D01*
X45704316Y-2862859D01*
X45700713Y-2864758D01*
X45700712Y-2864759D01*
X45628018Y-2903086D01*
X45590059Y-2911710D01*
X45552873Y-2900199D01*
X45521674Y-2860552D01*
X45513832Y-2837252D01*
X45499954Y-2796014D01*
X45496263Y-2789870D01*
X45453612Y-2718888D01*
X45451517Y-2715401D01*
X45409728Y-2671210D01*
X45389693Y-2650023D01*
X45389690Y-2650021D01*
X45386899Y-2647069D01*
X45379738Y-2642202D01*
X45323077Y-2603696D01*
X45309116Y-2594208D01*
X45221796Y-2559282D01*
X45129013Y-2543922D01*
X45124946Y-2544135D01*
X45124943Y-2544135D01*
X45077956Y-2546598D01*
X45035096Y-2548844D01*
X45031169Y-2549926D01*
X45031167Y-2549926D01*
X44967172Y-2567553D01*
X44944427Y-2573818D01*
X44861235Y-2617680D01*
X44847817Y-2629019D01*
X44792513Y-2675755D01*
X44792510Y-2675758D01*
X44789404Y-2678383D01*
X44732282Y-2753094D01*
X44730547Y-2756816D01*
X44730531Y-2756834D01*
X44728451Y-2760269D01*
X44727919Y-2759947D01*
X44705529Y-2786636D01*
X44668952Y-2799953D01*
X44630616Y-2793198D01*
X44595403Y-2757867D01*
X44595246Y-2757961D01*
X44594866Y-2757328D01*
X44594865Y-2757327D01*
X44592595Y-2753548D01*
X44558294Y-2696463D01*
X44546809Y-2677348D01*
X44501603Y-2629544D01*
X44484985Y-2611970D01*
X44484982Y-2611968D01*
X44482191Y-2609016D01*
X44476450Y-2605114D01*
X44422464Y-2568426D01*
X44404408Y-2556155D01*
X44317088Y-2521229D01*
X44224305Y-2505869D01*
X44220238Y-2506082D01*
X44220235Y-2506082D01*
X44173248Y-2508545D01*
X44130388Y-2510791D01*
X44126461Y-2511873D01*
X44126459Y-2511873D01*
X44048327Y-2533394D01*
X44039719Y-2535765D01*
X43956527Y-2579627D01*
X43953414Y-2582258D01*
X43887805Y-2637702D01*
X43887802Y-2637705D01*
X43884696Y-2640330D01*
X43882225Y-2643562D01*
X43882224Y-2643563D01*
X43877691Y-2649492D01*
X43827574Y-2715041D01*
X43825853Y-2718732D01*
X43789548Y-2796588D01*
X43789546Y-2796594D01*
X43787829Y-2800276D01*
X43786942Y-2804244D01*
X43786941Y-2804247D01*
X43782762Y-2822944D01*
X43767313Y-2892056D01*
X43767180Y-2930109D01*
X43767006Y-2980176D01*
X43766985Y-2986102D01*
X43767845Y-2990078D01*
X43767845Y-2990081D01*
X43777531Y-3034881D01*
X43786859Y-3078024D01*
X43826009Y-3163533D01*
X43828459Y-3166784D01*
X43828460Y-3166786D01*
X43871647Y-3224098D01*
X43882607Y-3238642D01*
X43885695Y-3241288D01*
X43885698Y-3241292D01*
X43950916Y-3297190D01*
X43950919Y-3297192D01*
X43954013Y-3299844D01*
X44036896Y-3344286D01*
X44062270Y-3351466D01*
X44123472Y-3368785D01*
X44123476Y-3368786D01*
X44127389Y-3369893D01*
X44181307Y-3373096D01*
X44217207Y-3375229D01*
X44217210Y-3375229D01*
X44221269Y-3375470D01*
X44314157Y-3360758D01*
X44317946Y-3359273D01*
X44317950Y-3359272D01*
X44367577Y-3339823D01*
X44401719Y-3326443D01*
X44405106Y-3324175D01*
X44405109Y-3324174D01*
X44476484Y-3276393D01*
X44476486Y-3276392D01*
X44479870Y-3274126D01*
X44544963Y-3206247D01*
X44550127Y-3197788D01*
X44571036Y-3163533D01*
X44578637Y-3151080D01*
X44606826Y-3124236D01*
X44644661Y-3115082D01*
X44682004Y-3126073D01*
X44711198Y-3158954D01*
X44728335Y-3196384D01*
X44730717Y-3201586D01*
X44787315Y-3276695D01*
X44790403Y-3279341D01*
X44790406Y-3279345D01*
X44855624Y-3335243D01*
X44855627Y-3335245D01*
X44858721Y-3337897D01*
X44941604Y-3382339D01*
X44977222Y-3392418D01*
X45028180Y-3406838D01*
X45028184Y-3406839D01*
X45032097Y-3407946D01*
X45086015Y-3411149D01*
X45121915Y-3413282D01*
X45121918Y-3413282D01*
X45125977Y-3413523D01*
X45218865Y-3398811D01*
X45222654Y-3397326D01*
X45222658Y-3397325D01*
X45275398Y-3376656D01*
X45306427Y-3364496D01*
X45309814Y-3362229D01*
X45309819Y-3362226D01*
X45331823Y-3347495D01*
X45333495Y-3346376D01*
X45370343Y-3333830D01*
X45408528Y-3341391D01*
X45437817Y-3367031D01*
X45448829Y-3392971D01*
X45449771Y-3397325D01*
X45451456Y-3405118D01*
X45453153Y-3408824D01*
X45490454Y-3490295D01*
X45496946Y-3528676D01*
X45483378Y-3565161D01*
X45453385Y-3589974D01*
X45422080Y-3596800D01*
X32495457Y-3596800D01*
X32457857Y-3586725D01*
X32430332Y-3559200D01*
X32420257Y-3521600D01*
X32423131Y-3504460D01*
X32422352Y-3504283D01*
X32423254Y-3500312D01*
X32424580Y-3496462D01*
X32425294Y-3490296D01*
X32434821Y-3407946D01*
X32435389Y-3403040D01*
X32435400Y-3400000D01*
X32435110Y-3397325D01*
X32429626Y-3346851D01*
X32425243Y-3306504D01*
X32423002Y-3299844D01*
X32396545Y-3221229D01*
X32396543Y-3221224D01*
X32395246Y-3217371D01*
X32391152Y-3210556D01*
X32360146Y-3158954D01*
X32346809Y-3136758D01*
X32309318Y-3097112D01*
X32284985Y-3071380D01*
X32284982Y-3071378D01*
X32282191Y-3068426D01*
X32204408Y-3015565D01*
X32117088Y-2980639D01*
X32024305Y-2965279D01*
X32020238Y-2965492D01*
X32020235Y-2965492D01*
X31973248Y-2967955D01*
X31930388Y-2970201D01*
X31926461Y-2971283D01*
X31926459Y-2971283D01*
X31858213Y-2990081D01*
X31839719Y-2995175D01*
X31756527Y-3039037D01*
X31743429Y-3050106D01*
X31687805Y-3097112D01*
X31687802Y-3097115D01*
X31684696Y-3099740D01*
X31682225Y-3102972D01*
X31682224Y-3102973D01*
X31678415Y-3107955D01*
X31627574Y-3174451D01*
X31625853Y-3178142D01*
X31589548Y-3255998D01*
X31589546Y-3256004D01*
X31587829Y-3259686D01*
X31586942Y-3263654D01*
X31586941Y-3263657D01*
X31579285Y-3297907D01*
X31567313Y-3351466D01*
X31567170Y-3392418D01*
X31567097Y-3413523D01*
X31566985Y-3445512D01*
X31577127Y-3492418D01*
X31580000Y-3505708D01*
X31578098Y-3544588D01*
X31557011Y-3577309D01*
X31506498Y-3596800D01*
X23603285Y-3596800D01*
X23602928Y-3596808D01*
X23602907Y-3596808D01*
X23600077Y-3596870D01*
X23594426Y-3596993D01*
X23587872Y-3597279D01*
X23587475Y-3597305D01*
X23587457Y-3597306D01*
X23579461Y-3597830D01*
X23579452Y-3597831D01*
X23579020Y-3597859D01*
X23517861Y-3603210D01*
X23468114Y-3607562D01*
X23468097Y-3607564D01*
X23467284Y-3607635D01*
X23466462Y-3607743D01*
X23466446Y-3607745D01*
X23450521Y-3609842D01*
X23450506Y-3609844D01*
X23449711Y-3609949D01*
X23448927Y-3610087D01*
X23448922Y-3610088D01*
X23437611Y-3612082D01*
X23437591Y-3612086D01*
X23436814Y-3612223D01*
X23426392Y-3614534D01*
X23420309Y-3615882D01*
X23420300Y-3615884D01*
X23419507Y-3616060D01*
X23418737Y-3616266D01*
X23418726Y-3616269D01*
X23315127Y-3644028D01*
X23314347Y-3644237D01*
X23313588Y-3644476D01*
X23313572Y-3644481D01*
X23302952Y-3647830D01*
X23297431Y-3649571D01*
X23296696Y-3649839D01*
X23296677Y-3649845D01*
X23285868Y-3653780D01*
X23285113Y-3654055D01*
X23284394Y-3654353D01*
X23284373Y-3654361D01*
X23269498Y-3660523D01*
X23268745Y-3660835D01*
X23170084Y-3706841D01*
X23169356Y-3707220D01*
X23155078Y-3714652D01*
X23155057Y-3714664D01*
X23154353Y-3715030D01*
X23153675Y-3715422D01*
X23153654Y-3715433D01*
X23146125Y-3719781D01*
X23143009Y-3721580D01*
X23128065Y-3731101D01*
X23047507Y-3787508D01*
X23047500Y-3787513D01*
X23038879Y-3793550D01*
X23024816Y-3804341D01*
X23014775Y-3812767D01*
X23001711Y-3824739D01*
X22924739Y-3901711D01*
X22912767Y-3914775D01*
X22904341Y-3924816D01*
X22893546Y-3938884D01*
X22893077Y-3939554D01*
X22893071Y-3939562D01*
X22831568Y-4027396D01*
X22831104Y-4028059D01*
X22830680Y-4028724D01*
X22830671Y-4028738D01*
X22822031Y-4042300D01*
X22822019Y-4042319D01*
X22821578Y-4043012D01*
X22815024Y-4054364D01*
X22806839Y-4070088D01*
X22760835Y-4168745D01*
X22760525Y-4169495D01*
X22760523Y-4169498D01*
X22754361Y-4184373D01*
X22754353Y-4184394D01*
X22754055Y-4185113D01*
X22749571Y-4197431D01*
X22744237Y-4214347D01*
X22716060Y-4319507D01*
X22712223Y-4336815D01*
X22709948Y-4349718D01*
X22707634Y-4367290D01*
X22698146Y-4475735D01*
X22697373Y-4493446D01*
X22697373Y-4506554D01*
X22698146Y-4524265D01*
X22707634Y-4632710D01*
X22709948Y-4650282D01*
X22712223Y-4663185D01*
X22716060Y-4680493D01*
X22744237Y-4785653D01*
X22749571Y-4802569D01*
X22754055Y-4814887D01*
X22754353Y-4815606D01*
X22754361Y-4815627D01*
X22760523Y-4830502D01*
X22760835Y-4831255D01*
X22806839Y-4929912D01*
X22815024Y-4945636D01*
X22821578Y-4956988D01*
X22822019Y-4957681D01*
X22822031Y-4957700D01*
X22830671Y-4971262D01*
X22831104Y-4971941D01*
X22893546Y-5061116D01*
X22904341Y-5075184D01*
X22912767Y-5085225D01*
X22924739Y-5098289D01*
X22998076Y-5171626D01*
X23017540Y-5205337D01*
X23017540Y-5244263D01*
X22998076Y-5277974D01*
X22964365Y-5297438D01*
X22944902Y-5300000D01*
X275200Y-5300000D01*
X237600Y-5289925D01*
X210075Y-5262400D01*
X200000Y-5224800D01*
X200000Y-3278100D01*
X210075Y-3240500D01*
X237600Y-3212975D01*
X275200Y-3202900D01*
X15476250Y-3202900D01*
X15479276Y-3203048D01*
X15484836Y-3204658D01*
X15501901Y-3203180D01*
X15508390Y-3202900D01*
X15513424Y-3202900D01*
X15517011Y-3202232D01*
X15524290Y-3201242D01*
X15535385Y-3200281D01*
X15541874Y-3200000D01*
X15700000Y-3200000D01*
X15700000Y-2245512D01*
X26066985Y-2245512D01*
X26067845Y-2249488D01*
X26067845Y-2249491D01*
X26071445Y-2266142D01*
X26086859Y-2337434D01*
X26126009Y-2422943D01*
X26128459Y-2426194D01*
X26128460Y-2426196D01*
X26170016Y-2481343D01*
X26182607Y-2498052D01*
X26185695Y-2500698D01*
X26185698Y-2500702D01*
X26250916Y-2556600D01*
X26250919Y-2556602D01*
X26254013Y-2559254D01*
X26336896Y-2603696D01*
X26366136Y-2611970D01*
X26423472Y-2628195D01*
X26423476Y-2628196D01*
X26427389Y-2629303D01*
X26481307Y-2632506D01*
X26517207Y-2634639D01*
X26517210Y-2634639D01*
X26521269Y-2634880D01*
X26614157Y-2620168D01*
X26617946Y-2618683D01*
X26617950Y-2618682D01*
X26670953Y-2597910D01*
X26701719Y-2585853D01*
X26705106Y-2583585D01*
X26705109Y-2583584D01*
X26776484Y-2535803D01*
X26776486Y-2535802D01*
X26779870Y-2533536D01*
X26844963Y-2465657D01*
X26848629Y-2459652D01*
X26875427Y-2415749D01*
X26893962Y-2385384D01*
X26924580Y-2296462D01*
X26925808Y-2285853D01*
X26933940Y-2215566D01*
X26935389Y-2203040D01*
X26935400Y-2200000D01*
X26925243Y-2106504D01*
X26923943Y-2102641D01*
X26896545Y-2021229D01*
X26896543Y-2021224D01*
X26895246Y-2017371D01*
X26887030Y-2003696D01*
X26848904Y-1940245D01*
X26846809Y-1936758D01*
X26800461Y-1887746D01*
X26779900Y-1836077D01*
X26779900Y-1645512D01*
X36566985Y-1645512D01*
X36567845Y-1649488D01*
X36567845Y-1649491D01*
X36575618Y-1685442D01*
X36586859Y-1737434D01*
X36626009Y-1822943D01*
X36628459Y-1826194D01*
X36628460Y-1826196D01*
X36674536Y-1887341D01*
X36682607Y-1898052D01*
X36685695Y-1900698D01*
X36685698Y-1900702D01*
X36750916Y-1956600D01*
X36750919Y-1956602D01*
X36754013Y-1959254D01*
X36836896Y-2003696D01*
X36849802Y-2007348D01*
X36923472Y-2028195D01*
X36923476Y-2028196D01*
X36927389Y-2029303D01*
X36981307Y-2032506D01*
X37017207Y-2034639D01*
X37017210Y-2034639D01*
X37021269Y-2034880D01*
X37114157Y-2020168D01*
X37117946Y-2018683D01*
X37117950Y-2018682D01*
X37164821Y-2000313D01*
X37201719Y-1985853D01*
X37205106Y-1983585D01*
X37205109Y-1983584D01*
X37276484Y-1935803D01*
X37276486Y-1935802D01*
X37279870Y-1933536D01*
X37344963Y-1865657D01*
X37347697Y-1861179D01*
X37375152Y-1816199D01*
X37393962Y-1785384D01*
X37424580Y-1696462D01*
X37425460Y-1688861D01*
X37435150Y-1605105D01*
X37435389Y-1603040D01*
X37435400Y-1600000D01*
X37433568Y-1583131D01*
X37426626Y-1519238D01*
X37425243Y-1506504D01*
X37423568Y-1501527D01*
X37396545Y-1421229D01*
X37396543Y-1421224D01*
X37395246Y-1417371D01*
X37391152Y-1410556D01*
X37358731Y-1356600D01*
X37346809Y-1336758D01*
X37308703Y-1296462D01*
X37284985Y-1271380D01*
X37284982Y-1271378D01*
X37282191Y-1268426D01*
X37273744Y-1262685D01*
X37215264Y-1222943D01*
X37204408Y-1215565D01*
X37117088Y-1180639D01*
X37024305Y-1165279D01*
X37020238Y-1165492D01*
X37020235Y-1165492D01*
X36973248Y-1167955D01*
X36930388Y-1170201D01*
X36926461Y-1171283D01*
X36926459Y-1171283D01*
X36853435Y-1191397D01*
X36839719Y-1195175D01*
X36756527Y-1239037D01*
X36737692Y-1254954D01*
X36687805Y-1297112D01*
X36687802Y-1297115D01*
X36684696Y-1299740D01*
X36627574Y-1374451D01*
X36625853Y-1378142D01*
X36589548Y-1455998D01*
X36589546Y-1456004D01*
X36587829Y-1459686D01*
X36586942Y-1463654D01*
X36586941Y-1463657D01*
X36578659Y-1500707D01*
X36567313Y-1551466D01*
X36567193Y-1585853D01*
X36567016Y-1636758D01*
X36566985Y-1645512D01*
X26779900Y-1645512D01*
X26779900Y-1045512D01*
X38366985Y-1045512D01*
X38367845Y-1049488D01*
X38367845Y-1049491D01*
X38378133Y-1097075D01*
X38386859Y-1137434D01*
X38426009Y-1222943D01*
X38428459Y-1226194D01*
X38428460Y-1226196D01*
X38455956Y-1262685D01*
X38482607Y-1298052D01*
X38485695Y-1300698D01*
X38485698Y-1300702D01*
X38550916Y-1356600D01*
X38550919Y-1356602D01*
X38554013Y-1359254D01*
X38636896Y-1403696D01*
X38657354Y-1409485D01*
X38723472Y-1428195D01*
X38723476Y-1428196D01*
X38727389Y-1429303D01*
X38781307Y-1432506D01*
X38817207Y-1434639D01*
X38817210Y-1434639D01*
X38821269Y-1434880D01*
X38914157Y-1420168D01*
X38917946Y-1418683D01*
X38917950Y-1418682D01*
X38970810Y-1397966D01*
X39001719Y-1385853D01*
X39005106Y-1383585D01*
X39005109Y-1383584D01*
X39076484Y-1335803D01*
X39076486Y-1335802D01*
X39079870Y-1333536D01*
X39144963Y-1265657D01*
X39193962Y-1185384D01*
X39224580Y-1096462D01*
X39225222Y-1090918D01*
X39235149Y-1005113D01*
X39235389Y-1003040D01*
X39235400Y-1000000D01*
X39225243Y-906504D01*
X39221066Y-894093D01*
X39196545Y-821229D01*
X39196543Y-821224D01*
X39195246Y-817371D01*
X39187030Y-803696D01*
X39148904Y-740245D01*
X39146809Y-736758D01*
X39109318Y-697112D01*
X39084985Y-671380D01*
X39084982Y-671378D01*
X39082191Y-668426D01*
X39004408Y-615565D01*
X38917088Y-580639D01*
X38824305Y-565279D01*
X38820238Y-565492D01*
X38820235Y-565492D01*
X38773248Y-567955D01*
X38730388Y-570201D01*
X38726461Y-571283D01*
X38726459Y-571283D01*
X38662642Y-588861D01*
X38639719Y-595175D01*
X38556527Y-639037D01*
X38544527Y-649178D01*
X38487805Y-697112D01*
X38487802Y-697115D01*
X38484696Y-699740D01*
X38427574Y-774451D01*
X38425853Y-778142D01*
X38389548Y-855998D01*
X38389546Y-856004D01*
X38387829Y-859686D01*
X38386942Y-863654D01*
X38386941Y-863657D01*
X38381307Y-888861D01*
X38367313Y-951466D01*
X38367299Y-955534D01*
X38367005Y-1039890D01*
X38366985Y-1045512D01*
X26779900Y-1045512D01*
X26779900Y-445512D01*
X27466985Y-445512D01*
X27467845Y-449488D01*
X27467845Y-449491D01*
X27470049Y-459683D01*
X27486859Y-537434D01*
X27526009Y-622943D01*
X27528459Y-626194D01*
X27528460Y-626196D01*
X27558196Y-665657D01*
X27582607Y-698052D01*
X27585695Y-700698D01*
X27585698Y-700702D01*
X27650916Y-756600D01*
X27650919Y-756602D01*
X27654013Y-759254D01*
X27736896Y-803696D01*
X27772580Y-813794D01*
X27823472Y-828195D01*
X27823476Y-828196D01*
X27827389Y-829303D01*
X27881307Y-832506D01*
X27917207Y-834639D01*
X27917210Y-834639D01*
X27921269Y-834880D01*
X28014157Y-820168D01*
X28017946Y-818683D01*
X28017950Y-818682D01*
X28064821Y-800313D01*
X28101719Y-785853D01*
X28105106Y-783585D01*
X28105109Y-783584D01*
X28176484Y-735803D01*
X28176486Y-735802D01*
X28179870Y-733536D01*
X28244963Y-665657D01*
X28293962Y-585384D01*
X28324580Y-496462D01*
X28326455Y-480261D01*
X28329254Y-456068D01*
X28335389Y-403040D01*
X28335400Y-400000D01*
X28325243Y-306504D01*
X28322399Y-298052D01*
X28296545Y-221229D01*
X28296543Y-221224D01*
X28295246Y-217371D01*
X28288020Y-205344D01*
X28248904Y-140245D01*
X28246809Y-136758D01*
X28204879Y-92418D01*
X28184985Y-71380D01*
X28184982Y-71378D01*
X28182191Y-68426D01*
X28104408Y-15565D01*
X28017088Y19361D01*
X27924305Y34721D01*
X27920238Y34508D01*
X27920235Y34508D01*
X27873248Y32045D01*
X27830388Y29799D01*
X27826461Y28717D01*
X27826459Y28717D01*
X27786999Y17848D01*
X27739719Y4825D01*
X27656527Y-39037D01*
X27637006Y-55534D01*
X27587805Y-97112D01*
X27587802Y-97115D01*
X27584696Y-99740D01*
X27527574Y-174451D01*
X27525853Y-178142D01*
X27489548Y-255998D01*
X27489546Y-256004D01*
X27487829Y-259686D01*
X27486942Y-263654D01*
X27486941Y-263657D01*
X27478574Y-301087D01*
X27467313Y-351466D01*
X27467203Y-383124D01*
X27467010Y-438441D01*
X27466985Y-445512D01*
X26779900Y-445512D01*
X26779900Y630899D01*
X38566985Y630899D01*
X38567845Y626923D01*
X38567845Y626920D01*
X38577671Y581474D01*
X38586859Y538977D01*
X38626009Y453468D01*
X38628459Y450217D01*
X38628460Y450215D01*
X38644660Y428717D01*
X38682607Y378359D01*
X38685695Y375713D01*
X38685698Y375709D01*
X38750916Y319811D01*
X38750919Y319809D01*
X38754013Y317157D01*
X38794257Y295578D01*
X38822632Y268932D01*
X38833883Y231667D01*
X38826874Y197524D01*
X38789550Y117482D01*
X38789548Y117477D01*
X38787829Y113790D01*
X38786942Y109822D01*
X38786941Y109819D01*
X38780001Y78771D01*
X38767313Y22010D01*
X38767194Y-12104D01*
X38767006Y-66141D01*
X38766985Y-72036D01*
X38767845Y-76012D01*
X38767845Y-76015D01*
X38778833Y-126837D01*
X38786859Y-163958D01*
X38826009Y-249467D01*
X38828459Y-252718D01*
X38828460Y-252720D01*
X38866512Y-303217D01*
X38882607Y-324576D01*
X38885695Y-327222D01*
X38885698Y-327226D01*
X38950916Y-383124D01*
X38950919Y-383126D01*
X38954013Y-385778D01*
X39036896Y-430220D01*
X39072580Y-440318D01*
X39123472Y-454719D01*
X39123476Y-454720D01*
X39127389Y-455827D01*
X39181307Y-459030D01*
X39217207Y-461163D01*
X39217210Y-461163D01*
X39221269Y-461404D01*
X39314157Y-446692D01*
X39317946Y-445207D01*
X39317950Y-445206D01*
X39380213Y-420805D01*
X39401719Y-412377D01*
X39405106Y-410109D01*
X39405109Y-410108D01*
X39476484Y-362327D01*
X39476486Y-362326D01*
X39479870Y-360060D01*
X39544963Y-292181D01*
X39547918Y-287341D01*
X39562374Y-263657D01*
X39593962Y-211908D01*
X39597821Y-200702D01*
X39620977Y-133451D01*
X39624580Y-122986D01*
X39627240Y-100000D01*
X39633544Y-45512D01*
X41966985Y-45512D01*
X41967845Y-49488D01*
X41967845Y-49491D01*
X41976357Y-88861D01*
X41986859Y-137434D01*
X42026009Y-222943D01*
X42028459Y-226194D01*
X42028460Y-226196D01*
X42074536Y-287341D01*
X42082607Y-298052D01*
X42085695Y-300698D01*
X42085698Y-300702D01*
X42150916Y-356600D01*
X42150919Y-356602D01*
X42154013Y-359254D01*
X42236896Y-403696D01*
X42267574Y-412377D01*
X42323472Y-428195D01*
X42323476Y-428196D01*
X42327389Y-429303D01*
X42381307Y-432506D01*
X42417207Y-434639D01*
X42417210Y-434639D01*
X42421269Y-434880D01*
X42514157Y-420168D01*
X42517946Y-418683D01*
X42517950Y-418682D01*
X42566283Y-399740D01*
X42601719Y-385853D01*
X42605106Y-383585D01*
X42605109Y-383584D01*
X42676484Y-335803D01*
X42676486Y-335802D01*
X42679870Y-333536D01*
X42744963Y-265657D01*
X42748872Y-259254D01*
X42772082Y-221229D01*
X42793962Y-185384D01*
X42797727Y-174451D01*
X42804087Y-155979D01*
X42825853Y-123707D01*
X42860840Y-106642D01*
X42899671Y-109357D01*
X42935248Y-135204D01*
X42955885Y-162590D01*
X42982607Y-198052D01*
X42985695Y-200698D01*
X42985698Y-200702D01*
X43050916Y-256600D01*
X43050919Y-256602D01*
X43054013Y-259254D01*
X43136896Y-303696D01*
X43161139Y-310556D01*
X43223472Y-328195D01*
X43223476Y-328196D01*
X43227389Y-329303D01*
X43281307Y-332506D01*
X43317207Y-334639D01*
X43317210Y-334639D01*
X43321269Y-334880D01*
X43414157Y-320168D01*
X43417946Y-318683D01*
X43417950Y-318682D01*
X43466204Y-299771D01*
X43501719Y-285853D01*
X43505106Y-283585D01*
X43505109Y-283584D01*
X43576484Y-235803D01*
X43576486Y-235802D01*
X43579870Y-233536D01*
X43644963Y-165657D01*
X43648432Y-159975D01*
X43670569Y-123707D01*
X43693962Y-85384D01*
X43724580Y3538D01*
X43735389Y96960D01*
X43735400Y100000D01*
X43732625Y125549D01*
X43727883Y169191D01*
X43725243Y193496D01*
X43723051Y200010D01*
X43696545Y278771D01*
X43696543Y278776D01*
X43695246Y282629D01*
X43684809Y300000D01*
X43658899Y343121D01*
X43646809Y363242D01*
X43604879Y407582D01*
X43584985Y428620D01*
X43584982Y428622D01*
X43582191Y431574D01*
X43578541Y434055D01*
X43507770Y482150D01*
X43504408Y484435D01*
X43417088Y519361D01*
X43324305Y534721D01*
X43320238Y534508D01*
X43320235Y534508D01*
X43273248Y532045D01*
X43230388Y529799D01*
X43226461Y528717D01*
X43226459Y528717D01*
X43186999Y517848D01*
X43139719Y504825D01*
X43056527Y460963D01*
X43048865Y454488D01*
X42987805Y402888D01*
X42987802Y402885D01*
X42984696Y400260D01*
X42927574Y325549D01*
X42896895Y259755D01*
X42892001Y249260D01*
X42866980Y219440D01*
X42830401Y206126D01*
X42792066Y212885D01*
X42759387Y242309D01*
X42748904Y259755D01*
X42746809Y263242D01*
X42703119Y309443D01*
X42684985Y328620D01*
X42684982Y328622D01*
X42682191Y331574D01*
X42604408Y384435D01*
X42517088Y419361D01*
X42424305Y434721D01*
X42420238Y434508D01*
X42420235Y434508D01*
X42373248Y432045D01*
X42330388Y429799D01*
X42326461Y428717D01*
X42326459Y428717D01*
X42292492Y419361D01*
X42239719Y404825D01*
X42156527Y360963D01*
X42153414Y358332D01*
X42087805Y302888D01*
X42087802Y302885D01*
X42084696Y300260D01*
X42027574Y225549D01*
X42025853Y221858D01*
X41989548Y144002D01*
X41989546Y143996D01*
X41987829Y140314D01*
X41986942Y136346D01*
X41986941Y136343D01*
X41983702Y121853D01*
X41967313Y48534D01*
X41967214Y20026D01*
X41967008Y-39037D01*
X41966985Y-45512D01*
X39633544Y-45512D01*
X39635389Y-29564D01*
X39635400Y-26524D01*
X39634448Y-17756D01*
X39626840Y52273D01*
X39625243Y66972D01*
X39616317Y93496D01*
X39596545Y152247D01*
X39596543Y152252D01*
X39595246Y156105D01*
X39577213Y186118D01*
X39548904Y233231D01*
X39546809Y236718D01*
X39507042Y278771D01*
X39484985Y302096D01*
X39484982Y302098D01*
X39482191Y305050D01*
X39473232Y311139D01*
X39426171Y343121D01*
X39404408Y357911D01*
X39404227Y357983D01*
X39376939Y383429D01*
X39365557Y420654D01*
X39376525Y462461D01*
X39376771Y462863D01*
X39387351Y480197D01*
X39391838Y487547D01*
X39391839Y487548D01*
X39393962Y491027D01*
X39403199Y517852D01*
X39423254Y576098D01*
X39424580Y579949D01*
X39435389Y673371D01*
X39435400Y676411D01*
X39434346Y686118D01*
X39429516Y730574D01*
X39425243Y769907D01*
X39415688Y798300D01*
X39396545Y855182D01*
X39396543Y855187D01*
X39395246Y859040D01*
X39379080Y885946D01*
X39352602Y930012D01*
X39346809Y939653D01*
X39301188Y987896D01*
X39284985Y1005031D01*
X39284982Y1005033D01*
X39282191Y1007985D01*
X39275314Y1012659D01*
X39207770Y1058561D01*
X39204408Y1060846D01*
X39117088Y1095772D01*
X39024305Y1111132D01*
X39020238Y1110919D01*
X39020235Y1110919D01*
X38973248Y1108456D01*
X38930388Y1106210D01*
X38926461Y1105128D01*
X38926459Y1105128D01*
X38843647Y1082318D01*
X38839719Y1081236D01*
X38756527Y1037374D01*
X38753414Y1034743D01*
X38687805Y979299D01*
X38687802Y979296D01*
X38684696Y976671D01*
X38682225Y973439D01*
X38682224Y973438D01*
X38680128Y970697D01*
X38627574Y901960D01*
X38623850Y893973D01*
X38589548Y820413D01*
X38589546Y820407D01*
X38587829Y816725D01*
X38586942Y812757D01*
X38586941Y812754D01*
X38579771Y780676D01*
X38567313Y724945D01*
X38567222Y698913D01*
X38567068Y654572D01*
X38566985Y630899D01*
X26779900Y630899D01*
X26779900Y952915D01*
X26789975Y990515D01*
X26801926Y1006089D01*
X27940442Y2144604D01*
X27974153Y2164068D01*
X27998075Y2166498D01*
X28004705Y2166104D01*
X28017207Y2165361D01*
X28017210Y2165361D01*
X28021269Y2165120D01*
X28114157Y2179832D01*
X28117946Y2181317D01*
X28117950Y2181318D01*
X28165620Y2200000D01*
X28201719Y2214147D01*
X28205106Y2216415D01*
X28205109Y2216416D01*
X28261980Y2254488D01*
X37866985Y2254488D01*
X37867845Y2250512D01*
X37867845Y2250509D01*
X37875216Y2216416D01*
X37886859Y2162566D01*
X37926009Y2077057D01*
X37928459Y2073806D01*
X37928460Y2073804D01*
X37939721Y2058860D01*
X37982607Y2001948D01*
X37985695Y1999302D01*
X37985698Y1999298D01*
X38050916Y1943400D01*
X38050919Y1943398D01*
X38054013Y1940746D01*
X38136896Y1896304D01*
X38172097Y1886343D01*
X38223472Y1871805D01*
X38223476Y1871804D01*
X38227389Y1870697D01*
X38281307Y1867494D01*
X38317207Y1865361D01*
X38317210Y1865361D01*
X38321269Y1865120D01*
X38414157Y1879832D01*
X38417946Y1881317D01*
X38417950Y1881318D01*
X38463844Y1899304D01*
X38501719Y1914147D01*
X38505106Y1916415D01*
X38505109Y1916416D01*
X38574047Y1962566D01*
X38579870Y1966464D01*
X38580995Y1967637D01*
X38615351Y1983654D01*
X38654129Y1980259D01*
X38686014Y1957930D01*
X38696778Y1940901D01*
X38724312Y1880762D01*
X38724315Y1880757D01*
X38726009Y1877057D01*
X38728459Y1873806D01*
X38728460Y1873804D01*
X38776607Y1809911D01*
X38782607Y1801948D01*
X38785695Y1799302D01*
X38785698Y1799298D01*
X38850916Y1743400D01*
X38850919Y1743398D01*
X38854013Y1740746D01*
X38936896Y1696304D01*
X38941904Y1694887D01*
X39023472Y1671805D01*
X39023476Y1671804D01*
X39027389Y1670697D01*
X39081307Y1667494D01*
X39117207Y1665361D01*
X39117210Y1665361D01*
X39121269Y1665120D01*
X39214157Y1679832D01*
X39217946Y1681317D01*
X39217950Y1681318D01*
X39266919Y1700509D01*
X39301719Y1714147D01*
X39305106Y1716415D01*
X39305109Y1716416D01*
X39376484Y1764197D01*
X39376486Y1764198D01*
X39379870Y1766464D01*
X39444963Y1834343D01*
X39448872Y1840746D01*
X39463749Y1865120D01*
X39493962Y1914616D01*
X39497727Y1925549D01*
X39523254Y1999687D01*
X39524580Y2003538D01*
X39525460Y2011139D01*
X39535150Y2094895D01*
X39535389Y2096960D01*
X39535400Y2100000D01*
X39533225Y2120026D01*
X39529444Y2154825D01*
X39525243Y2193496D01*
X39522399Y2201948D01*
X39496545Y2278771D01*
X39496543Y2278776D01*
X39495246Y2282629D01*
X39491152Y2289444D01*
X39460352Y2340702D01*
X39446809Y2363242D01*
X39402778Y2409804D01*
X39384985Y2428620D01*
X39384982Y2428622D01*
X39382191Y2431574D01*
X39370985Y2439190D01*
X39326527Y2469403D01*
X39304408Y2484435D01*
X39217088Y2519361D01*
X39124305Y2534721D01*
X39120238Y2534508D01*
X39120235Y2534508D01*
X39073248Y2532045D01*
X39030388Y2529799D01*
X39026461Y2528717D01*
X39026459Y2528717D01*
X38949754Y2507589D01*
X38939719Y2504825D01*
X38856527Y2460963D01*
X38821751Y2431574D01*
X38821152Y2431068D01*
X38785931Y2414494D01*
X38747141Y2417750D01*
X38715176Y2439966D01*
X38701341Y2464518D01*
X38701164Y2465044D01*
X38695246Y2482629D01*
X38688236Y2494297D01*
X38648904Y2559755D01*
X38646809Y2563242D01*
X38611803Y2600260D01*
X38584985Y2628620D01*
X38584982Y2628622D01*
X38582191Y2631574D01*
X38578541Y2634055D01*
X38512742Y2678771D01*
X38504408Y2684435D01*
X38417088Y2719361D01*
X38324305Y2734721D01*
X38320238Y2734508D01*
X38320235Y2734508D01*
X38273248Y2732045D01*
X38230388Y2729799D01*
X38226461Y2728717D01*
X38226459Y2728717D01*
X38149728Y2707582D01*
X38139719Y2704825D01*
X38056527Y2660963D01*
X38045716Y2651827D01*
X37987805Y2602888D01*
X37987802Y2602885D01*
X37984696Y2600260D01*
X37927574Y2525549D01*
X37925853Y2521858D01*
X37889548Y2444002D01*
X37889546Y2443996D01*
X37887829Y2440314D01*
X37886942Y2436346D01*
X37886941Y2436343D01*
X37878747Y2399687D01*
X37867313Y2348534D01*
X37867208Y2318467D01*
X37867135Y2297359D01*
X37866985Y2254488D01*
X28261980Y2254488D01*
X28276484Y2264197D01*
X28276486Y2264198D01*
X28279870Y2266464D01*
X28344963Y2334343D01*
X28347832Y2339042D01*
X28363749Y2365120D01*
X28393962Y2414616D01*
X28397727Y2425549D01*
X28423254Y2499687D01*
X28424580Y2503538D01*
X28425636Y2512659D01*
X28435149Y2594887D01*
X28435389Y2596960D01*
X28435400Y2600000D01*
X28433225Y2620026D01*
X28430127Y2648534D01*
X28425243Y2693496D01*
X28423943Y2697359D01*
X28396545Y2778771D01*
X28396543Y2778776D01*
X28395246Y2782629D01*
X28384809Y2800000D01*
X28354460Y2850509D01*
X28352070Y2854488D01*
X35966985Y2854488D01*
X35967845Y2850512D01*
X35967845Y2850509D01*
X35968469Y2847624D01*
X35986859Y2762566D01*
X36026009Y2677057D01*
X36028459Y2673806D01*
X36028460Y2673804D01*
X36070159Y2618467D01*
X36082607Y2601948D01*
X36085695Y2599302D01*
X36085698Y2599298D01*
X36150916Y2543400D01*
X36150919Y2543398D01*
X36154013Y2540746D01*
X36236896Y2496304D01*
X36243989Y2494297D01*
X36323472Y2471805D01*
X36323476Y2471804D01*
X36327389Y2470697D01*
X36381307Y2467494D01*
X36417207Y2465361D01*
X36417210Y2465361D01*
X36421269Y2465120D01*
X36514157Y2479832D01*
X36517946Y2481317D01*
X36517950Y2481318D01*
X36561723Y2498473D01*
X36601719Y2514147D01*
X36605106Y2516415D01*
X36605109Y2516416D01*
X36676484Y2564197D01*
X36676486Y2564198D01*
X36679870Y2566464D01*
X36744963Y2634343D01*
X36793962Y2714616D01*
X36797727Y2725549D01*
X36823254Y2799687D01*
X36824580Y2803538D01*
X36830474Y2854488D01*
X42866985Y2854488D01*
X42867845Y2850512D01*
X42867845Y2850509D01*
X42868469Y2847624D01*
X42886859Y2762566D01*
X42926009Y2677057D01*
X42928459Y2673806D01*
X42928460Y2673804D01*
X42970159Y2618467D01*
X42982607Y2601948D01*
X42985695Y2599302D01*
X42985698Y2599298D01*
X43050916Y2543400D01*
X43050919Y2543398D01*
X43054013Y2540746D01*
X43136896Y2496304D01*
X43143989Y2494297D01*
X43223472Y2471805D01*
X43223476Y2471804D01*
X43227389Y2470697D01*
X43281307Y2467494D01*
X43317207Y2465361D01*
X43317210Y2465361D01*
X43321269Y2465120D01*
X43414157Y2479832D01*
X43417946Y2481317D01*
X43417950Y2481318D01*
X43461723Y2498473D01*
X43501719Y2514147D01*
X43505106Y2516415D01*
X43505109Y2516416D01*
X43576484Y2564197D01*
X43576486Y2564198D01*
X43579870Y2566464D01*
X43644963Y2634343D01*
X43693962Y2714616D01*
X43697727Y2725549D01*
X43723254Y2799687D01*
X43724580Y2803538D01*
X43735389Y2896960D01*
X43735400Y2900000D01*
X43735031Y2903402D01*
X43727599Y2971805D01*
X43725243Y2993496D01*
X43718293Y3014147D01*
X43696545Y3078771D01*
X43696543Y3078776D01*
X43695246Y3082629D01*
X43693150Y3086118D01*
X43691440Y3089818D01*
X43692307Y3090218D01*
X43683060Y3122483D01*
X43692483Y3160251D01*
X43719528Y3188249D01*
X43756948Y3198973D01*
X43807186Y3180881D01*
X43854013Y3140746D01*
X43936896Y3096304D01*
X43959817Y3089818D01*
X44023472Y3071805D01*
X44023476Y3071804D01*
X44027389Y3070697D01*
X44081307Y3067494D01*
X44117207Y3065361D01*
X44117210Y3065361D01*
X44121269Y3065120D01*
X44214157Y3079832D01*
X44217946Y3081317D01*
X44217950Y3081318D01*
X44266771Y3100451D01*
X44301719Y3114147D01*
X44305106Y3116415D01*
X44305109Y3116416D01*
X44376484Y3164197D01*
X44376486Y3164198D01*
X44379870Y3166464D01*
X44444963Y3234343D01*
X44448419Y3240004D01*
X44466887Y3270260D01*
X44493962Y3314616D01*
X44524580Y3403538D01*
X44535389Y3496960D01*
X44535400Y3500000D01*
X44525243Y3593496D01*
X44513111Y3629546D01*
X44496545Y3678771D01*
X44496543Y3678776D01*
X44495246Y3682629D01*
X44487030Y3696304D01*
X44448904Y3759755D01*
X44446809Y3763242D01*
X44407486Y3804825D01*
X44384985Y3828620D01*
X44384982Y3828622D01*
X44382191Y3831574D01*
X44378541Y3834055D01*
X44315264Y3877057D01*
X44304408Y3884435D01*
X44217088Y3919361D01*
X44124305Y3934721D01*
X44120238Y3934508D01*
X44120235Y3934508D01*
X44073248Y3932045D01*
X44030388Y3929799D01*
X44026461Y3928717D01*
X44026459Y3928717D01*
X43947873Y3907071D01*
X43939719Y3904825D01*
X43856527Y3860963D01*
X43848484Y3854166D01*
X43787805Y3802888D01*
X43787802Y3802885D01*
X43784696Y3800260D01*
X43727574Y3725549D01*
X43725853Y3721858D01*
X43689548Y3644002D01*
X43689546Y3643996D01*
X43687829Y3640314D01*
X43686942Y3636346D01*
X43686941Y3636343D01*
X43683703Y3621858D01*
X43667313Y3548534D01*
X43667270Y3536075D01*
X43667066Y3477579D01*
X43666985Y3454488D01*
X43667845Y3450512D01*
X43667845Y3450509D01*
X43669152Y3444466D01*
X43686859Y3362566D01*
X43688555Y3358861D01*
X43688556Y3358859D01*
X43712260Y3307086D01*
X43718752Y3268704D01*
X43705184Y3232219D01*
X43675191Y3207407D01*
X43636809Y3200915D01*
X43589246Y3224114D01*
X43584988Y3228617D01*
X43584984Y3228620D01*
X43582191Y3231574D01*
X43578541Y3234055D01*
X43533815Y3264450D01*
X43504408Y3284435D01*
X43417088Y3319361D01*
X43324305Y3334721D01*
X43320238Y3334508D01*
X43320235Y3334508D01*
X43273248Y3332045D01*
X43230388Y3329799D01*
X43226461Y3328717D01*
X43226459Y3328717D01*
X43143647Y3305907D01*
X43139719Y3304825D01*
X43056527Y3260963D01*
X43048077Y3253822D01*
X42987805Y3202888D01*
X42987802Y3202885D01*
X42984696Y3200260D01*
X42927574Y3125549D01*
X42923809Y3117475D01*
X42889548Y3044002D01*
X42889546Y3043996D01*
X42887829Y3040314D01*
X42886942Y3036346D01*
X42886941Y3036343D01*
X42878422Y2998230D01*
X42867313Y2948534D01*
X42867248Y2929799D01*
X42867008Y2860963D01*
X42866985Y2854488D01*
X36830474Y2854488D01*
X36835389Y2896960D01*
X36835400Y2900000D01*
X36835031Y2903402D01*
X36827599Y2971805D01*
X36825243Y2993496D01*
X36818293Y3014147D01*
X36796545Y3078771D01*
X36796543Y3078776D01*
X36795246Y3082629D01*
X36791114Y3089507D01*
X36748904Y3159755D01*
X36746809Y3163242D01*
X36708967Y3203259D01*
X36684985Y3228620D01*
X36684982Y3228622D01*
X36682191Y3231574D01*
X36678541Y3234055D01*
X36633815Y3264450D01*
X36604408Y3284435D01*
X36517088Y3319361D01*
X36424305Y3334721D01*
X36420238Y3334508D01*
X36420235Y3334508D01*
X36373248Y3332045D01*
X36330388Y3329799D01*
X36326461Y3328717D01*
X36326459Y3328717D01*
X36243647Y3305907D01*
X36239719Y3304825D01*
X36156527Y3260963D01*
X36148077Y3253822D01*
X36087805Y3202888D01*
X36087802Y3202885D01*
X36084696Y3200260D01*
X36027574Y3125549D01*
X36023809Y3117475D01*
X35989548Y3044002D01*
X35989546Y3043996D01*
X35987829Y3040314D01*
X35986942Y3036346D01*
X35986941Y3036343D01*
X35978422Y2998230D01*
X35967313Y2948534D01*
X35967248Y2929799D01*
X35967008Y2860963D01*
X35966985Y2854488D01*
X28352070Y2854488D01*
X28346809Y2863242D01*
X28295171Y2917848D01*
X28284985Y2928620D01*
X28284982Y2928622D01*
X28282191Y2931574D01*
X28278541Y2934055D01*
X28231892Y2965757D01*
X28204408Y2984435D01*
X28117088Y3019361D01*
X28024305Y3034721D01*
X28020238Y3034508D01*
X28020235Y3034508D01*
X27973248Y3032045D01*
X27930388Y3029799D01*
X27926461Y3028717D01*
X27926459Y3028717D01*
X27852956Y3008471D01*
X27839719Y3004825D01*
X27756527Y2960963D01*
X27746082Y2952136D01*
X27687805Y2902888D01*
X27687802Y2902885D01*
X27684696Y2900260D01*
X27627574Y2825549D01*
X27625853Y2821858D01*
X27589548Y2744002D01*
X27589546Y2743996D01*
X27587829Y2740314D01*
X27586942Y2736346D01*
X27586941Y2736343D01*
X27581827Y2713463D01*
X27567313Y2648534D01*
X27567262Y2633859D01*
X27567122Y2593846D01*
X27545096Y2540935D01*
X26305464Y1301301D01*
X26303191Y1299121D01*
X26282407Y1280009D01*
X26271026Y1261651D01*
X26267024Y1255828D01*
X26253970Y1238631D01*
X26251519Y1232441D01*
X26245521Y1220516D01*
X26242015Y1214861D01*
X26235988Y1194116D01*
X26233701Y1187436D01*
X26225752Y1167361D01*
X26225216Y1162260D01*
X26225215Y1162257D01*
X26225056Y1160749D01*
X26222484Y1147639D01*
X26220629Y1141253D01*
X26220100Y1134048D01*
X26220100Y1117525D01*
X26219688Y1109665D01*
X26217740Y1091130D01*
X26218595Y1086075D01*
X26218595Y1086074D01*
X26219047Y1083402D01*
X26220100Y1070862D01*
X26220101Y-394650D01*
X26220101Y-1834914D01*
X26210026Y-1872514D01*
X26193438Y-1892352D01*
X26184696Y-1899740D01*
X26127574Y-1974451D01*
X26125853Y-1978142D01*
X26089548Y-2055998D01*
X26089546Y-2056004D01*
X26087829Y-2059686D01*
X26086942Y-2063654D01*
X26086941Y-2063657D01*
X26081913Y-2086152D01*
X26067313Y-2151466D01*
X26067248Y-2170202D01*
X26067008Y-2239038D01*
X26066985Y-2245512D01*
X15700000Y-2245512D01*
X15700000Y454488D01*
X18166985Y454488D01*
X18167845Y450512D01*
X18167845Y450509D01*
X18177126Y407582D01*
X18186859Y362566D01*
X18226009Y277057D01*
X18228459Y273806D01*
X18228460Y273804D01*
X18249934Y245307D01*
X18264516Y209215D01*
X18249616Y154378D01*
X18227574Y125549D01*
X18225852Y121857D01*
X18225850Y121853D01*
X18189548Y44002D01*
X18189546Y43996D01*
X18187829Y40314D01*
X18186942Y36346D01*
X18186941Y36343D01*
X18184625Y25981D01*
X18167313Y-51466D01*
X18167195Y-85384D01*
X18167016Y-136758D01*
X18166985Y-145512D01*
X18167845Y-149488D01*
X18167845Y-149491D01*
X18175618Y-185442D01*
X18186859Y-237434D01*
X18226009Y-322943D01*
X18228459Y-326194D01*
X18228460Y-326196D01*
X18249934Y-354693D01*
X18264516Y-390785D01*
X18249616Y-445622D01*
X18227574Y-474451D01*
X18225852Y-478143D01*
X18225850Y-478147D01*
X18189548Y-555998D01*
X18189546Y-556004D01*
X18187829Y-559686D01*
X18186942Y-563654D01*
X18186941Y-563657D01*
X18181307Y-588861D01*
X18167313Y-651466D01*
X18167254Y-668426D01*
X18167016Y-736758D01*
X18166985Y-745512D01*
X18167845Y-749488D01*
X18167845Y-749491D01*
X18170767Y-763006D01*
X18186859Y-837434D01*
X18226009Y-922943D01*
X18228459Y-926194D01*
X18228460Y-926196D01*
X18258196Y-965657D01*
X18282607Y-998052D01*
X18285695Y-1000698D01*
X18285698Y-1000702D01*
X18350916Y-1056600D01*
X18350919Y-1056602D01*
X18354013Y-1059254D01*
X18436896Y-1103696D01*
X18445134Y-1106027D01*
X18462477Y-1110935D01*
X18495913Y-1130868D01*
X18517201Y-1183556D01*
X18517008Y-1239037D01*
X18516985Y-1245512D01*
X18517845Y-1249488D01*
X18517845Y-1249491D01*
X18528313Y-1297909D01*
X18536859Y-1337434D01*
X18576009Y-1422943D01*
X18578459Y-1426194D01*
X18578460Y-1426196D01*
X18620159Y-1481533D01*
X18632607Y-1498052D01*
X18635695Y-1500698D01*
X18635698Y-1500702D01*
X18700916Y-1556600D01*
X18700919Y-1556602D01*
X18704013Y-1559254D01*
X18786896Y-1603696D01*
X18801675Y-1607878D01*
X18873472Y-1628195D01*
X18873476Y-1628196D01*
X18877389Y-1629303D01*
X18931307Y-1632506D01*
X18967207Y-1634639D01*
X18967210Y-1634639D01*
X18971269Y-1634880D01*
X19064157Y-1620168D01*
X19067946Y-1618683D01*
X19067950Y-1618682D01*
X19116283Y-1599740D01*
X19151719Y-1585853D01*
X19155106Y-1583585D01*
X19155109Y-1583584D01*
X19226484Y-1535803D01*
X19226486Y-1535802D01*
X19229870Y-1533536D01*
X19269331Y-1492386D01*
X19302627Y-1472221D01*
X19341545Y-1471406D01*
X19378427Y-1492957D01*
X19380151Y-1494793D01*
X19382607Y-1498052D01*
X19392468Y-1506504D01*
X19450916Y-1556600D01*
X19450919Y-1556602D01*
X19454013Y-1559254D01*
X19536896Y-1603696D01*
X19551675Y-1607878D01*
X19623472Y-1628195D01*
X19623476Y-1628196D01*
X19627389Y-1629303D01*
X19681307Y-1632506D01*
X19717207Y-1634639D01*
X19717210Y-1634639D01*
X19721269Y-1634880D01*
X19814157Y-1620168D01*
X19817946Y-1618683D01*
X19817950Y-1618682D01*
X19866283Y-1599740D01*
X19901719Y-1585853D01*
X19905106Y-1583585D01*
X19905109Y-1583584D01*
X19976484Y-1535803D01*
X19976486Y-1535802D01*
X19979870Y-1533536D01*
X20019331Y-1492386D01*
X20052627Y-1472221D01*
X20091545Y-1471406D01*
X20128427Y-1492957D01*
X20130151Y-1494793D01*
X20132607Y-1498052D01*
X20142468Y-1506504D01*
X20200916Y-1556600D01*
X20200919Y-1556602D01*
X20204013Y-1559254D01*
X20286896Y-1603696D01*
X20301675Y-1607878D01*
X20373472Y-1628195D01*
X20373476Y-1628196D01*
X20377389Y-1629303D01*
X20431307Y-1632506D01*
X20467207Y-1634639D01*
X20467210Y-1634639D01*
X20471269Y-1634880D01*
X20564157Y-1620168D01*
X20567946Y-1618683D01*
X20567950Y-1618682D01*
X20616283Y-1599740D01*
X20651719Y-1585853D01*
X20655106Y-1583585D01*
X20655109Y-1583584D01*
X20726484Y-1535803D01*
X20726486Y-1535802D01*
X20729870Y-1533536D01*
X20794963Y-1465657D01*
X20843962Y-1385384D01*
X20847727Y-1374451D01*
X20872836Y-1301527D01*
X20874580Y-1296462D01*
X20875743Y-1286415D01*
X20880219Y-1247722D01*
X20885389Y-1203040D01*
X20885400Y-1200000D01*
X20884465Y-1191395D01*
X20890419Y-1152929D01*
X20931785Y-1113260D01*
X21001719Y-1085853D01*
X21005106Y-1083585D01*
X21005109Y-1083584D01*
X21076484Y-1035803D01*
X21076486Y-1035802D01*
X21079870Y-1033536D01*
X21144963Y-965657D01*
X21193962Y-885384D01*
X21224580Y-796462D01*
X21225808Y-785853D01*
X21235149Y-705113D01*
X21235389Y-703040D01*
X21235400Y-700000D01*
X21233819Y-685442D01*
X21226626Y-619238D01*
X21225243Y-606504D01*
X21221066Y-594093D01*
X21196545Y-521229D01*
X21196543Y-521224D01*
X21195246Y-517371D01*
X21147820Y-438440D01*
X21137090Y-401022D01*
X21148092Y-360532D01*
X21181070Y-306504D01*
X21191840Y-288861D01*
X21191841Y-288858D01*
X21193962Y-285384D01*
X21224580Y-196462D01*
X21225460Y-188861D01*
X21235150Y-105105D01*
X21235389Y-103040D01*
X21235400Y-100000D01*
X21233568Y-83131D01*
X21229063Y-41668D01*
X21225243Y-6504D01*
X21223568Y-1527D01*
X21196545Y78771D01*
X21196543Y78776D01*
X21195246Y82629D01*
X21191152Y89444D01*
X21160585Y140314D01*
X21147820Y161560D01*
X21137090Y198978D01*
X21148092Y239468D01*
X21156080Y252555D01*
X22916120Y252555D01*
X22916874Y248816D01*
X22931609Y175744D01*
X22935544Y156227D01*
X22973940Y65771D01*
X23029740Y-15116D01*
X23032493Y-17756D01*
X23093245Y-76015D01*
X23100665Y-83131D01*
X23103882Y-85157D01*
X23103886Y-85160D01*
X23183818Y-135495D01*
X23183256Y-136388D01*
X23208295Y-158470D01*
X23220705Y-195365D01*
X23213006Y-233523D01*
X23185280Y-263988D01*
X23182588Y-265657D01*
X23103347Y-314789D01*
X23100582Y-317403D01*
X23100579Y-317406D01*
X23064562Y-351466D01*
X23031949Y-382307D01*
X23029761Y-385432D01*
X23029760Y-385433D01*
X23029466Y-385853D01*
X22975585Y-462803D01*
X22974073Y-466298D01*
X22974072Y-466299D01*
X22938073Y-549488D01*
X22938071Y-549493D01*
X22936559Y-552988D01*
X22935780Y-556717D01*
X22918582Y-639037D01*
X22916463Y-649178D01*
X22916396Y-668426D01*
X22916140Y-741853D01*
X22916120Y-747445D01*
X22935544Y-843773D01*
X22973940Y-934229D01*
X23029740Y-1015116D01*
X23032493Y-1017756D01*
X23095463Y-1078142D01*
X23100665Y-1083131D01*
X23103882Y-1085157D01*
X23103886Y-1085160D01*
X23135083Y-1104805D01*
X23183818Y-1135495D01*
X23187379Y-1136834D01*
X23187382Y-1136835D01*
X23271428Y-1168426D01*
X23275802Y-1170070D01*
X23372860Y-1185442D01*
X23414390Y-1183556D01*
X23467221Y-1181157D01*
X23467223Y-1181157D01*
X23471026Y-1180984D01*
X23522497Y-1167960D01*
X23561418Y-1168504D01*
X23594854Y-1188437D01*
X23615628Y-1239853D01*
X23615761Y-1239840D01*
X23615805Y-1240292D01*
X23616142Y-1241125D01*
X23616120Y-1247445D01*
X23620351Y-1268426D01*
X23629526Y-1313926D01*
X23635544Y-1343773D01*
X23673940Y-1434229D01*
X23729740Y-1515116D01*
X23800665Y-1583131D01*
X23803882Y-1585157D01*
X23803886Y-1585160D01*
X23845405Y-1611305D01*
X23883818Y-1635495D01*
X23887379Y-1636834D01*
X23887382Y-1636835D01*
X23947027Y-1659254D01*
X23975802Y-1670070D01*
X24072860Y-1685442D01*
X24117231Y-1683427D01*
X24167221Y-1681157D01*
X24167223Y-1681157D01*
X24171026Y-1680984D01*
X24174719Y-1680050D01*
X24174723Y-1680049D01*
X24262597Y-1657814D01*
X24262602Y-1657812D01*
X24266290Y-1656879D01*
X24340913Y-1620805D01*
X24351331Y-1615769D01*
X24351334Y-1615767D01*
X24354762Y-1614110D01*
X24432827Y-1554425D01*
X24435400Y-1551466D01*
X24494796Y-1483137D01*
X24497296Y-1480261D01*
X24545536Y-1394650D01*
X24548361Y-1385853D01*
X24574408Y-1304721D01*
X24575575Y-1301087D01*
X24586188Y-1203394D01*
X24586200Y-1200000D01*
X24585191Y-1190059D01*
X24576654Y-1106027D01*
X24576269Y-1102236D01*
X24546884Y-1008465D01*
X24540591Y-997112D01*
X24501092Y-925854D01*
X24501090Y-925851D01*
X24499243Y-922519D01*
X24495242Y-917850D01*
X24437771Y-850799D01*
X24435293Y-847908D01*
X24374733Y-800932D01*
X24360660Y-790016D01*
X24360659Y-790015D01*
X24357647Y-787679D01*
X24354230Y-785998D01*
X24354221Y-785992D01*
X24316627Y-767493D01*
X24287338Y-741853D01*
X24274794Y-705003D01*
X24282356Y-666818D01*
X24317099Y-632317D01*
X24354762Y-614110D01*
X24432827Y-554425D01*
X24444376Y-541140D01*
X24494796Y-483137D01*
X24497296Y-480261D01*
X24545536Y-394650D01*
X24547767Y-387704D01*
X24569449Y-320168D01*
X24575575Y-301087D01*
X24586188Y-203394D01*
X24586200Y-200000D01*
X24576269Y-102236D01*
X24546884Y-8465D01*
X24545022Y-5105D01*
X24501092Y74146D01*
X24501090Y74149D01*
X24499243Y77481D01*
X24491841Y86118D01*
X24437771Y149201D01*
X24435293Y152092D01*
X24366359Y205563D01*
X24360660Y209984D01*
X24360659Y209985D01*
X24357647Y212321D01*
X24354230Y214002D01*
X24354221Y214008D01*
X24316627Y232507D01*
X24287338Y258147D01*
X24274794Y294997D01*
X24282356Y333182D01*
X24317099Y367683D01*
X24354762Y385890D01*
X24432827Y445575D01*
X24436861Y450215D01*
X24494796Y516863D01*
X24497296Y519739D01*
X24545536Y605350D01*
X24548496Y614567D01*
X24566709Y671298D01*
X24575575Y698913D01*
X24586188Y796606D01*
X24586200Y800000D01*
X24584905Y812754D01*
X24576654Y893973D01*
X24576269Y897764D01*
X24546884Y991535D01*
X24544855Y995195D01*
X24501092Y1074146D01*
X24501090Y1074149D01*
X24499243Y1077481D01*
X24495098Y1082318D01*
X24437771Y1149201D01*
X24435293Y1152092D01*
X24357647Y1212321D01*
X24269476Y1255707D01*
X24265796Y1256666D01*
X24265792Y1256667D01*
X24211053Y1270925D01*
X24174382Y1280477D01*
X24128850Y1282863D01*
X24080053Y1285421D01*
X24080049Y1285421D01*
X24076249Y1285620D01*
X24062113Y1283482D01*
X23982854Y1271495D01*
X23982851Y1271494D01*
X23979087Y1270925D01*
X23886864Y1236994D01*
X23803347Y1185211D01*
X23800582Y1182597D01*
X23800579Y1182594D01*
X23798642Y1180762D01*
X23731949Y1117693D01*
X23729761Y1114568D01*
X23729760Y1114567D01*
X23723200Y1105198D01*
X23675585Y1037197D01*
X23674073Y1033702D01*
X23674072Y1033701D01*
X23638073Y950512D01*
X23638071Y950507D01*
X23636559Y947012D01*
X23635780Y943283D01*
X23617374Y855182D01*
X23616463Y850822D01*
X23616450Y847016D01*
X23616427Y840512D01*
X23606220Y802948D01*
X23578599Y775519D01*
X23522272Y768003D01*
X23478068Y779517D01*
X23478067Y779517D01*
X23474382Y780477D01*
X23428850Y782863D01*
X23380053Y785421D01*
X23380049Y785421D01*
X23376249Y785620D01*
X23345064Y780903D01*
X23282854Y771495D01*
X23282851Y771494D01*
X23279087Y770925D01*
X23186864Y736994D01*
X23103347Y685211D01*
X23100582Y682597D01*
X23100579Y682594D01*
X23088634Y671298D01*
X23031949Y617693D01*
X22975585Y537197D01*
X22974073Y533702D01*
X22974072Y533701D01*
X22938073Y450512D01*
X22938072Y450509D01*
X22936559Y447012D01*
X22935780Y443283D01*
X22917467Y355626D01*
X22916463Y350822D01*
X22916319Y309443D01*
X22916140Y258147D01*
X22916120Y252555D01*
X21156080Y252555D01*
X21176567Y286118D01*
X21191840Y311139D01*
X21191841Y311142D01*
X21193962Y314616D01*
X21197727Y325549D01*
X21223254Y399687D01*
X21224580Y403538D01*
X21235389Y496960D01*
X21235400Y500000D01*
X21233225Y520026D01*
X21225683Y589444D01*
X21225243Y593496D01*
X21214311Y625980D01*
X21196545Y678771D01*
X21196543Y678776D01*
X21195246Y682629D01*
X21192490Y687217D01*
X21148904Y759755D01*
X21146809Y763242D01*
X21096233Y816725D01*
X21084985Y828620D01*
X21084982Y828622D01*
X21082191Y831574D01*
X21004408Y884435D01*
X20917088Y919361D01*
X20824305Y934721D01*
X20820238Y934508D01*
X20820235Y934508D01*
X20773248Y932045D01*
X20730388Y929799D01*
X20726461Y928717D01*
X20726459Y928717D01*
X20692492Y919361D01*
X20639719Y904825D01*
X20556527Y860963D01*
X20553414Y858332D01*
X20487805Y802888D01*
X20487802Y802885D01*
X20484696Y800260D01*
X20482225Y797028D01*
X20482224Y797027D01*
X20473067Y785050D01*
X20427574Y725549D01*
X20420995Y711441D01*
X20389548Y644002D01*
X20389546Y643996D01*
X20387829Y640314D01*
X20386942Y636346D01*
X20386941Y636343D01*
X20380823Y608974D01*
X20367313Y548534D01*
X20367248Y529799D01*
X20367008Y460963D01*
X20366985Y454488D01*
X20367845Y450512D01*
X20367845Y450509D01*
X20377126Y407582D01*
X20386859Y362566D01*
X20426009Y277057D01*
X20428459Y273806D01*
X20428460Y273804D01*
X20449934Y245307D01*
X20464516Y209215D01*
X20449616Y154378D01*
X20427574Y125549D01*
X20425852Y121857D01*
X20425850Y121853D01*
X20389548Y44002D01*
X20389546Y43996D01*
X20387829Y40314D01*
X20386942Y36346D01*
X20386941Y36343D01*
X20384625Y25981D01*
X20367313Y-51466D01*
X20367195Y-85384D01*
X20367016Y-136758D01*
X20366985Y-145512D01*
X20367845Y-149488D01*
X20367845Y-149491D01*
X20383268Y-220825D01*
X20381366Y-259705D01*
X20360279Y-292425D01*
X20325657Y-310218D01*
X20281839Y-306538D01*
X20272096Y-302641D01*
X20217088Y-280639D01*
X20124305Y-265279D01*
X20120238Y-265492D01*
X20120235Y-265492D01*
X20073248Y-267955D01*
X20030388Y-270201D01*
X20026461Y-271283D01*
X20026459Y-271283D01*
X19962642Y-288861D01*
X19939719Y-295175D01*
X19856527Y-339037D01*
X19841820Y-351466D01*
X19787805Y-397112D01*
X19787802Y-397115D01*
X19784696Y-399740D01*
X19762865Y-428294D01*
X19761071Y-430640D01*
X19730230Y-454391D01*
X19691645Y-459539D01*
X19646693Y-436634D01*
X19584990Y-371385D01*
X19584986Y-371381D01*
X19582191Y-368426D01*
X19570573Y-360530D01*
X19526527Y-330597D01*
X19504408Y-315565D01*
X19417088Y-280639D01*
X19324305Y-265279D01*
X19320238Y-265492D01*
X19320235Y-265492D01*
X19273248Y-267955D01*
X19230388Y-270201D01*
X19226461Y-271283D01*
X19226459Y-271283D01*
X19162642Y-288861D01*
X19139719Y-295175D01*
X19136116Y-297074D01*
X19136115Y-297075D01*
X19125524Y-302659D01*
X19087565Y-311283D01*
X19050379Y-299771D01*
X19023931Y-271210D01*
X19015307Y-233251D01*
X19019348Y-211657D01*
X19019386Y-211547D01*
X19024580Y-196462D01*
X19025460Y-188861D01*
X19035150Y-105105D01*
X19035389Y-103040D01*
X19035400Y-100000D01*
X19033568Y-83131D01*
X19029063Y-41668D01*
X19025243Y-6504D01*
X19023568Y-1527D01*
X18996545Y78771D01*
X18996543Y78776D01*
X18995246Y82629D01*
X18991152Y89444D01*
X18960585Y140314D01*
X18947820Y161560D01*
X18937090Y198978D01*
X18948092Y239468D01*
X18976567Y286118D01*
X18991840Y311139D01*
X18991841Y311142D01*
X18993962Y314616D01*
X18997727Y325549D01*
X19023254Y399687D01*
X19024580Y403538D01*
X19035389Y496960D01*
X19035400Y500000D01*
X19033225Y520026D01*
X19025683Y589444D01*
X19025243Y593496D01*
X19014311Y625980D01*
X18996545Y678771D01*
X18996543Y678776D01*
X18995246Y682629D01*
X18992490Y687217D01*
X18948904Y759755D01*
X18946809Y763242D01*
X18896233Y816725D01*
X18884985Y828620D01*
X18884982Y828622D01*
X18882191Y831574D01*
X18804408Y884435D01*
X18717088Y919361D01*
X18624305Y934721D01*
X18620238Y934508D01*
X18620235Y934508D01*
X18573248Y932045D01*
X18530388Y929799D01*
X18526461Y928717D01*
X18526459Y928717D01*
X18492492Y919361D01*
X18439719Y904825D01*
X18356527Y860963D01*
X18353414Y858332D01*
X18287805Y802888D01*
X18287802Y802885D01*
X18284696Y800260D01*
X18282225Y797028D01*
X18282224Y797027D01*
X18273067Y785050D01*
X18227574Y725549D01*
X18220995Y711441D01*
X18189548Y644002D01*
X18189546Y643996D01*
X18187829Y640314D01*
X18186942Y636346D01*
X18186941Y636343D01*
X18180823Y608974D01*
X18167313Y548534D01*
X18167248Y529799D01*
X18167008Y460963D01*
X18166985Y454488D01*
X15700000Y454488D01*
X15700000Y2454488D01*
X26066985Y2454488D01*
X26067845Y2450512D01*
X26067845Y2450509D01*
X26075632Y2414494D01*
X26086859Y2362566D01*
X26126009Y2277057D01*
X26128459Y2273806D01*
X26128460Y2273804D01*
X26174536Y2212659D01*
X26182607Y2201948D01*
X26185695Y2199302D01*
X26185698Y2199298D01*
X26250916Y2143400D01*
X26250919Y2143398D01*
X26254013Y2140746D01*
X26336896Y2096304D01*
X26372580Y2086206D01*
X26423472Y2071805D01*
X26423476Y2071804D01*
X26427389Y2070697D01*
X26481307Y2067494D01*
X26517207Y2065361D01*
X26517210Y2065361D01*
X26521269Y2065120D01*
X26614157Y2079832D01*
X26617946Y2081317D01*
X26617950Y2081318D01*
X26665620Y2100000D01*
X26701719Y2114147D01*
X26705106Y2116415D01*
X26705109Y2116416D01*
X26776484Y2164197D01*
X26776486Y2164198D01*
X26779870Y2166464D01*
X26844963Y2234343D01*
X26893962Y2314616D01*
X26924580Y2403538D01*
X26925460Y2411139D01*
X26935150Y2494895D01*
X26935389Y2496960D01*
X26935400Y2500000D01*
X26933225Y2520026D01*
X26929659Y2552845D01*
X26925243Y2593496D01*
X26922399Y2601948D01*
X26896545Y2678771D01*
X26896543Y2678776D01*
X26895246Y2682629D01*
X26891152Y2689444D01*
X26858869Y2743170D01*
X26846809Y2763242D01*
X26787889Y2825549D01*
X26784985Y2828620D01*
X26784982Y2828622D01*
X26782191Y2831574D01*
X26752053Y2852056D01*
X26707770Y2882150D01*
X26704408Y2884435D01*
X26617088Y2919361D01*
X26524305Y2934721D01*
X26520238Y2934508D01*
X26520235Y2934508D01*
X26473248Y2932045D01*
X26430388Y2929799D01*
X26426461Y2928717D01*
X26426459Y2928717D01*
X26343647Y2905907D01*
X26339719Y2904825D01*
X26256527Y2860963D01*
X26240743Y2847624D01*
X26187805Y2802888D01*
X26187802Y2802885D01*
X26184696Y2800260D01*
X26127574Y2725549D01*
X26125853Y2721858D01*
X26089548Y2644002D01*
X26089546Y2643996D01*
X26087829Y2640314D01*
X26086942Y2636346D01*
X26086941Y2636343D01*
X26078476Y2598473D01*
X26067313Y2548534D01*
X26067248Y2529799D01*
X26067006Y2460416D01*
X26066985Y2454488D01*
X15700000Y2454488D01*
X15700000Y3200000D01*
X15546077Y3200000D01*
X15532100Y3201676D01*
X15530184Y3202440D01*
X15525493Y3202900D01*
X15523656Y3202900D01*
X15521819Y3202990D01*
X15521819Y3202994D01*
X15520725Y3203048D01*
X15515164Y3204658D01*
X15499011Y3203259D01*
X15498099Y3203180D01*
X15491610Y3202900D01*
X275200Y3202900D01*
X237600Y3212975D01*
X210075Y3240500D01*
X200000Y3278100D01*
X200000Y4054488D01*
X6666985Y4054488D01*
X6686859Y3962566D01*
X6726009Y3877057D01*
X6728459Y3873806D01*
X6728460Y3873804D01*
X6770149Y3818481D01*
X6782607Y3801948D01*
X6785695Y3799302D01*
X6785698Y3799298D01*
X6850916Y3743400D01*
X6850919Y3743398D01*
X6854013Y3740746D01*
X6936896Y3696304D01*
X6972580Y3686206D01*
X7023472Y3671805D01*
X7023476Y3671804D01*
X7027389Y3670697D01*
X7079522Y3667600D01*
X7117207Y3665361D01*
X7117210Y3665361D01*
X7121269Y3665120D01*
X7214157Y3679832D01*
X7217946Y3681317D01*
X7217950Y3681318D01*
X7280889Y3705984D01*
X7301719Y3714147D01*
X7305106Y3716415D01*
X7305109Y3716416D01*
X7376484Y3764197D01*
X7376486Y3764198D01*
X7379870Y3766464D01*
X7444963Y3834343D01*
X7493962Y3914616D01*
X7524580Y4003538D01*
X7530474Y4054488D01*
X30766985Y4054488D01*
X30786859Y3962566D01*
X30826009Y3877057D01*
X30828459Y3873806D01*
X30828460Y3873804D01*
X30870149Y3818481D01*
X30882607Y3801948D01*
X30885695Y3799302D01*
X30885698Y3799298D01*
X30950916Y3743400D01*
X30950919Y3743398D01*
X30954013Y3740746D01*
X31036896Y3696304D01*
X31072580Y3686206D01*
X31123472Y3671805D01*
X31123476Y3671804D01*
X31127389Y3670697D01*
X31179522Y3667600D01*
X31217207Y3665361D01*
X31217210Y3665361D01*
X31221269Y3665120D01*
X31314157Y3679832D01*
X31317946Y3681317D01*
X31317950Y3681318D01*
X31380889Y3705984D01*
X31401719Y3714147D01*
X31405106Y3716415D01*
X31405109Y3716416D01*
X31476484Y3764197D01*
X31476486Y3764198D01*
X31479870Y3766464D01*
X31544963Y3834343D01*
X31593962Y3914616D01*
X31624580Y4003538D01*
X31635389Y4096960D01*
X31635400Y4100000D01*
X31625243Y4193496D01*
X31623943Y4197359D01*
X31606666Y4248697D01*
X33546975Y4248697D01*
X33566653Y4145048D01*
X33605576Y4046990D01*
X33607501Y4043975D01*
X33607501Y4043974D01*
X33660414Y3961077D01*
X33660417Y3961073D01*
X33662339Y3958062D01*
X33664798Y3955466D01*
X33664799Y3955465D01*
X33718184Y3899110D01*
X33734894Y3881471D01*
X33820623Y3819982D01*
X33916432Y3775813D01*
X33942431Y3769403D01*
X34015392Y3751414D01*
X34015395Y3751414D01*
X34018865Y3750558D01*
X34087565Y3747018D01*
X34120652Y3745313D01*
X34120654Y3745313D01*
X34124226Y3745129D01*
X34228713Y3759720D01*
X34328555Y3793807D01*
X34377573Y3821823D01*
X34417041Y3844380D01*
X34417045Y3844383D01*
X34420151Y3846158D01*
X34422868Y3848491D01*
X34422871Y3848493D01*
X34483015Y3900135D01*
X34500194Y3914885D01*
X34565798Y3997507D01*
X34614594Y4091045D01*
X34644822Y4192122D01*
X34650518Y4248697D01*
X40546975Y4248697D01*
X40566653Y4145048D01*
X40605576Y4046990D01*
X40607501Y4043975D01*
X40607501Y4043974D01*
X40660414Y3961077D01*
X40660417Y3961073D01*
X40662339Y3958062D01*
X40664798Y3955466D01*
X40664799Y3955465D01*
X40718184Y3899110D01*
X40734894Y3881471D01*
X40820623Y3819982D01*
X40916432Y3775813D01*
X40942431Y3769403D01*
X41015392Y3751414D01*
X41015395Y3751414D01*
X41018865Y3750558D01*
X41087565Y3747018D01*
X41120652Y3745313D01*
X41120654Y3745313D01*
X41124226Y3745129D01*
X41228713Y3759720D01*
X41328555Y3793807D01*
X41377573Y3821823D01*
X41417041Y3844380D01*
X41417045Y3844383D01*
X41420151Y3846158D01*
X41422868Y3848491D01*
X41422871Y3848493D01*
X41483015Y3900135D01*
X41500194Y3914885D01*
X41565798Y3997507D01*
X41614594Y4091045D01*
X41644822Y4192122D01*
X41655392Y4297092D01*
X41655400Y4300000D01*
X41655225Y4301838D01*
X41645720Y4401465D01*
X41645719Y4401470D01*
X41645380Y4405024D01*
X41615681Y4506258D01*
X41567375Y4600049D01*
X41502205Y4683015D01*
X41422522Y4752160D01*
X41331202Y4804990D01*
X41327829Y4806161D01*
X41327823Y4806164D01*
X41266493Y4827460D01*
X41231540Y4839598D01*
X41228004Y4840111D01*
X41228003Y4840111D01*
X41159628Y4850025D01*
X41127131Y4854737D01*
X41123564Y4854572D01*
X41123562Y4854572D01*
X41025319Y4850025D01*
X41025314Y4850024D01*
X41021743Y4849859D01*
X40919179Y4825141D01*
X40915919Y4823659D01*
X40915917Y4823658D01*
X40870919Y4803198D01*
X40823140Y4781474D01*
X40820222Y4779404D01*
X40820220Y4779403D01*
X40740008Y4722505D01*
X40737090Y4720435D01*
X40734619Y4717854D01*
X40734617Y4717852D01*
X40706252Y4688221D01*
X40664135Y4644225D01*
X40662196Y4641222D01*
X40662192Y4641217D01*
X40625198Y4583922D01*
X40606907Y4555595D01*
X40605571Y4552280D01*
X40605570Y4552278D01*
X40601314Y4541717D01*
X40567472Y4457742D01*
X40547251Y4354198D01*
X40547148Y4314885D01*
X40547068Y4284071D01*
X40546975Y4248697D01*
X34650518Y4248697D01*
X34655392Y4297092D01*
X34655400Y4300000D01*
X34655225Y4301838D01*
X34645720Y4401465D01*
X34645719Y4401470D01*
X34645380Y4405024D01*
X34615681Y4506258D01*
X34567375Y4600049D01*
X34502205Y4683015D01*
X34422522Y4752160D01*
X34331202Y4804990D01*
X34327829Y4806161D01*
X34327823Y4806164D01*
X34266493Y4827460D01*
X34231540Y4839598D01*
X34228004Y4840111D01*
X34228003Y4840111D01*
X34159628Y4850025D01*
X34127131Y4854737D01*
X34123564Y4854572D01*
X34123562Y4854572D01*
X34025319Y4850025D01*
X34025314Y4850024D01*
X34021743Y4849859D01*
X33919179Y4825141D01*
X33915919Y4823659D01*
X33915917Y4823658D01*
X33870919Y4803198D01*
X33823140Y4781474D01*
X33820222Y4779404D01*
X33820220Y4779403D01*
X33740008Y4722505D01*
X33737090Y4720435D01*
X33734619Y4717854D01*
X33734617Y4717852D01*
X33706252Y4688221D01*
X33664135Y4644225D01*
X33662196Y4641222D01*
X33662192Y4641217D01*
X33625198Y4583922D01*
X33606907Y4555595D01*
X33605571Y4552280D01*
X33605570Y4552278D01*
X33601314Y4541717D01*
X33567472Y4457742D01*
X33547251Y4354198D01*
X33547148Y4314885D01*
X33547068Y4284071D01*
X33546975Y4248697D01*
X31606666Y4248697D01*
X31596545Y4278771D01*
X31596543Y4278776D01*
X31595246Y4282629D01*
X31584809Y4300000D01*
X31551482Y4355465D01*
X31546809Y4363242D01*
X31507298Y4405024D01*
X31484985Y4428620D01*
X31484982Y4428622D01*
X31482191Y4431574D01*
X31404408Y4484435D01*
X31317088Y4519361D01*
X31224305Y4534721D01*
X31220238Y4534508D01*
X31220235Y4534508D01*
X31173248Y4532045D01*
X31130388Y4529799D01*
X31126461Y4528717D01*
X31126459Y4528717D01*
X31043647Y4505907D01*
X31039719Y4504825D01*
X30956527Y4460963D01*
X30936424Y4443974D01*
X30887805Y4402888D01*
X30887802Y4402885D01*
X30884696Y4400260D01*
X30882225Y4397028D01*
X30882224Y4397027D01*
X30872669Y4384529D01*
X30827574Y4325549D01*
X30822601Y4314885D01*
X30789548Y4244002D01*
X30789546Y4243996D01*
X30787829Y4240314D01*
X30786942Y4236346D01*
X30786941Y4236343D01*
X30778227Y4197359D01*
X30767313Y4148534D01*
X30766985Y4054488D01*
X7530474Y4054488D01*
X7535389Y4096960D01*
X7535400Y4100000D01*
X7525243Y4193496D01*
X7523943Y4197359D01*
X7496545Y4278771D01*
X7496543Y4278776D01*
X7495246Y4282629D01*
X7484809Y4300000D01*
X7451482Y4355465D01*
X7446809Y4363242D01*
X7407298Y4405024D01*
X7384985Y4428620D01*
X7384982Y4428622D01*
X7382191Y4431574D01*
X7304408Y4484435D01*
X7217088Y4519361D01*
X7124305Y4534721D01*
X7120238Y4534508D01*
X7120235Y4534508D01*
X7073248Y4532045D01*
X7030388Y4529799D01*
X7026461Y4528717D01*
X7026459Y4528717D01*
X6943647Y4505907D01*
X6939719Y4504825D01*
X6856527Y4460963D01*
X6836424Y4443974D01*
X6787805Y4402888D01*
X6787802Y4402885D01*
X6784696Y4400260D01*
X6782225Y4397028D01*
X6782224Y4397027D01*
X6772669Y4384529D01*
X6727574Y4325549D01*
X6722601Y4314885D01*
X6689548Y4244002D01*
X6689546Y4243996D01*
X6687829Y4240314D01*
X6686942Y4236346D01*
X6686941Y4236343D01*
X6678227Y4197359D01*
X6667313Y4148534D01*
X6666985Y4054488D01*
X200000Y4054488D01*
X200000Y5224800D01*
X210075Y5262400D01*
X237600Y5289925D01*
X275200Y5300000D01*
X61154242Y5300000D01*
X61191842Y5289925D01*
G37*
G04 #@! TD.AperFunction*
G04 #@! TD*
G04 #@! TA.AperFunction,Conductor*
G04 #@! TO.N,IN*
G36*
X67705486Y-1400480D02*
G01*
X67810568Y-1409674D01*
X67832197Y-1413487D01*
X67928766Y-1439362D01*
X67949405Y-1446874D01*
X68040010Y-1489124D01*
X68059031Y-1500106D01*
X68140925Y-1557449D01*
X68157749Y-1571567D01*
X68228433Y-1642251D01*
X68242551Y-1659075D01*
X68299894Y-1740969D01*
X68310876Y-1759990D01*
X68353126Y-1850595D01*
X68360638Y-1871234D01*
X68386513Y-1967803D01*
X68390326Y-1989432D01*
X68399520Y-2094514D01*
X68400000Y-2105496D01*
X68400000Y-2505095D01*
X68399612Y-2514981D01*
X68392160Y-2609670D01*
X68389067Y-2629198D01*
X68368055Y-2716721D01*
X68361947Y-2735520D01*
X68327496Y-2818693D01*
X68318529Y-2836291D01*
X68271493Y-2913046D01*
X68259872Y-2929040D01*
X68198188Y-3001263D01*
X68191472Y-3008528D01*
X66208528Y-4991472D01*
X66201263Y-4998188D01*
X66129040Y-5059872D01*
X66113049Y-5071491D01*
X66036291Y-5118529D01*
X66018693Y-5127496D01*
X65935520Y-5161947D01*
X65935504Y-5161952D01*
X65931825Y-5163476D01*
X65920604Y-5167122D01*
X65916726Y-5168053D01*
X65829198Y-5189067D01*
X65829193Y-5189068D01*
X65825310Y-5190000D01*
X65813655Y-5191846D01*
X65809677Y-5192159D01*
X65809671Y-5192160D01*
X65716913Y-5199460D01*
X65712999Y-5199768D01*
X65707099Y-5200000D01*
X23603285Y-5200000D01*
X23596731Y-5199714D01*
X23484995Y-5189938D01*
X23472098Y-5187664D01*
X23366938Y-5159487D01*
X23354620Y-5155003D01*
X23351420Y-5153511D01*
X23255959Y-5108997D01*
X23244615Y-5102447D01*
X23155436Y-5040003D01*
X23145395Y-5031577D01*
X23068423Y-4954605D01*
X23059997Y-4944564D01*
X22997555Y-4855389D01*
X22991001Y-4844037D01*
X22944997Y-4745380D01*
X22940513Y-4733062D01*
X22912336Y-4627902D01*
X22910061Y-4614999D01*
X22900573Y-4506554D01*
X22900573Y-4493446D01*
X22910061Y-4385001D01*
X22912336Y-4372098D01*
X22940513Y-4266938D01*
X22944997Y-4254620D01*
X22991001Y-4155963D01*
X22997555Y-4144611D01*
X23059997Y-4055436D01*
X23068423Y-4045395D01*
X23145395Y-3968423D01*
X23155436Y-3959997D01*
X23164057Y-3953960D01*
X23244615Y-3897553D01*
X23255959Y-3891003D01*
X23354620Y-3844997D01*
X23366938Y-3840513D01*
X23472098Y-3812336D01*
X23484995Y-3810062D01*
X23596731Y-3800286D01*
X23603285Y-3800000D01*
X31705747Y-3800000D01*
X31745819Y-3811566D01*
X31783818Y-3835495D01*
X31787382Y-3836835D01*
X31875802Y-3870070D01*
X31972860Y-3885442D01*
X32071026Y-3880984D01*
X32074723Y-3880049D01*
X32166290Y-3856879D01*
X32254762Y-3814110D01*
X32257787Y-3811797D01*
X32258839Y-3811150D01*
X32298242Y-3800000D01*
X64612245Y-3800000D01*
X64636905Y-3763095D01*
X66791472Y-1608528D01*
X66798737Y-1601812D01*
X66870960Y-1540128D01*
X66886951Y-1528509D01*
X66963709Y-1481471D01*
X66981307Y-1472504D01*
X67064480Y-1438053D01*
X67083274Y-1431947D01*
X67170803Y-1410933D01*
X67190329Y-1407840D01*
X67285019Y-1400388D01*
X67294905Y-1400000D01*
X67694504Y-1400000D01*
X67705486Y-1400480D01*
G37*
G04 #@! TD.AperFunction*
G04 #@! TD*
M02*
