G04 #@! TF.GenerationSoftware,KiCad,Pcbnew,(5.99.0-7570-gd0e008053a)*
G04 #@! TF.CreationDate,2021-04-03T16:08:25-07:00*
G04 #@! TF.ProjectId,RT_USB_PD_Soldering_Iron,52545f55-5342-45f5-9044-5f536f6c6465,rev?*
G04 #@! TF.SameCoordinates,PX5f5e100PY7735940*
G04 #@! TF.FileFunction,Paste,Top*
G04 #@! TF.FilePolarity,Positive*
%FSLAX46Y46*%
G04 Gerber Fmt 4.6, Leading zero omitted, Abs format (unit mm)*
G04 Created by KiCad (PCBNEW (5.99.0-7570-gd0e008053a)) date 2021-04-03 16:08:25*
%MOMM*%
%LPD*%
G01*
G04 APERTURE LIST*
G04 Aperture macros list*
%AMRoundRect*
0 Rectangle with rounded corners*
0 $1 Rounding radius*
0 $2 $3 $4 $5 $6 $7 $8 $9 X,Y pos of 4 corners*
0 Add a 4 corners polygon primitive as box body*
4,1,4,$2,$3,$4,$5,$6,$7,$8,$9,$2,$3,0*
0 Add four circle primitives for the rounded corners*
1,1,$1+$1,$2,$3,0*
1,1,$1+$1,$4,$5,0*
1,1,$1+$1,$6,$7,0*
1,1,$1+$1,$8,$9,0*
0 Add four rect primitives between the rounded corners*
20,1,$1+$1,$2,$3,$4,$5,0*
20,1,$1+$1,$4,$5,$6,$7,0*
20,1,$1+$1,$6,$7,$8,$9,0*
20,1,$1+$1,$8,$9,$2,$3,0*%
G04 Aperture macros list end*
%ADD10R,1.200000X0.600000*%
%ADD11R,1.200000X0.300000*%
%ADD12R,0.650000X0.550000*%
%ADD13R,2.800000X0.320000*%
%ADD14RoundRect,0.062500X0.268750X-0.062500X0.268750X0.062500X-0.268750X0.062500X-0.268750X-0.062500X0*%
%ADD15RoundRect,0.062500X0.062500X-0.268750X0.062500X0.268750X-0.062500X0.268750X-0.062500X-0.268750X0*%
%ADD16RoundRect,0.132500X0.132500X-0.197500X0.132500X0.197500X-0.132500X0.197500X-0.132500X-0.197500X0*%
%ADD17RoundRect,0.137500X0.137500X-0.192500X0.137500X0.192500X-0.137500X0.192500X-0.137500X-0.192500X0*%
%ADD18RoundRect,0.140000X-0.170000X0.140000X-0.170000X-0.140000X0.170000X-0.140000X0.170000X0.140000X0*%
%ADD19RoundRect,0.135000X0.185000X-0.135000X0.185000X0.135000X-0.185000X0.135000X-0.185000X-0.135000X0*%
%ADD20RoundRect,0.135000X0.135000X0.185000X-0.135000X0.185000X-0.135000X-0.185000X0.135000X-0.185000X0*%
%ADD21RoundRect,0.135000X-0.185000X0.135000X-0.185000X-0.135000X0.185000X-0.135000X0.185000X0.135000X0*%
%ADD22RoundRect,0.135000X-0.135000X-0.185000X0.135000X-0.185000X0.135000X0.185000X-0.135000X0.185000X0*%
%ADD23RoundRect,0.140000X0.170000X-0.140000X0.170000X0.140000X-0.170000X0.140000X-0.170000X-0.140000X0*%
%ADD24RoundRect,0.140000X-0.140000X-0.170000X0.140000X-0.170000X0.140000X0.170000X-0.140000X0.170000X0*%
%ADD25RoundRect,0.140000X0.140000X0.170000X-0.140000X0.170000X-0.140000X-0.170000X0.140000X-0.170000X0*%
%ADD26RoundRect,0.175000X-0.192500X-0.175000X0.192500X-0.175000X0.192500X0.175000X-0.192500X0.175000X0*%
%ADD27R,0.480000X0.200000*%
%ADD28R,0.650000X0.400000*%
%ADD29R,0.250000X0.675000*%
%ADD30R,0.675000X0.250000*%
G04 APERTURE END LIST*
D10*
G04 #@! TO.C,J1*
X68375000Y-3200000D03*
X68375000Y-2400000D03*
D11*
X68375000Y-1750000D03*
X68375000Y-750000D03*
X68375000Y750000D03*
X68375000Y1750000D03*
D10*
X68375000Y2400000D03*
X68375000Y3200000D03*
X68375000Y3200000D03*
X68375000Y2400000D03*
D11*
X68375000Y1250000D03*
X68375000Y250000D03*
X68375000Y-250000D03*
X68375000Y-1250000D03*
D10*
X68375000Y-2400000D03*
X68375000Y-3200000D03*
G04 #@! TD*
D12*
G04 #@! TO.C,SW1*
X65775000Y3825000D03*
X62625000Y3825000D03*
X62625000Y2175000D03*
X65775000Y2175000D03*
G04 #@! TD*
G04 #@! TO.C,SW2*
X62625000Y-3825000D03*
X65775000Y-3825000D03*
X65775000Y-2175000D03*
X62625000Y-2175000D03*
G04 #@! TD*
D13*
G04 #@! TO.C,OLED1*
X50500000Y4030000D03*
X50500000Y3410000D03*
X50500000Y2790000D03*
X50500000Y2170000D03*
X50500000Y1550000D03*
X50500000Y930000D03*
X50500000Y310000D03*
X50500000Y-310000D03*
X50500000Y-930000D03*
X50500000Y-1550000D03*
X50500000Y-2170000D03*
X50500000Y-2790000D03*
X50500000Y-3410000D03*
X50500000Y-4030000D03*
G04 #@! TD*
D14*
G04 #@! TO.C,U5*
X22475000Y-1450000D03*
X22475000Y-950000D03*
X22475000Y-450000D03*
X22475000Y50000D03*
X22475000Y550000D03*
X22475000Y1050000D03*
D15*
X23150000Y1725000D03*
X23650000Y1725000D03*
X24150000Y1725000D03*
X24650000Y1725000D03*
X25150000Y1725000D03*
X25650000Y1725000D03*
D14*
X26325000Y1050000D03*
X26325000Y550000D03*
X26325000Y50000D03*
X26325000Y-450000D03*
X26325000Y-950000D03*
X26325000Y-1450000D03*
D15*
X25650000Y-2125000D03*
X25150000Y-2125000D03*
X24650000Y-2125000D03*
X24150000Y-2125000D03*
X23650000Y-2125000D03*
X23150000Y-2125000D03*
D16*
X25325000Y-200000D03*
X23400000Y700000D03*
X24100000Y-1100000D03*
X25325000Y700000D03*
X24100000Y700000D03*
X24100000Y-220000D03*
X23400000Y-220000D03*
X25325000Y-1100000D03*
D17*
X23400000Y-1100000D03*
G04 #@! TD*
D18*
G04 #@! TO.C,C13*
X56403524Y-2680573D03*
X56403524Y-1720573D03*
G04 #@! TD*
D19*
G04 #@! TO.C,R6*
X55397976Y-1688064D03*
X55397976Y-2708064D03*
G04 #@! TD*
D20*
G04 #@! TO.C,TH1*
X7490000Y3800000D03*
X8510000Y3800000D03*
G04 #@! TD*
D21*
G04 #@! TO.C,R13*
X36100000Y-1410000D03*
X36100000Y-390000D03*
G04 #@! TD*
D22*
G04 #@! TO.C,R7*
X27890000Y200000D03*
X28910000Y200000D03*
G04 #@! TD*
D21*
G04 #@! TO.C,R4*
X55400585Y2108587D03*
X55400585Y1088587D03*
G04 #@! TD*
D22*
G04 #@! TO.C,R14*
X30691726Y-2201726D03*
X31711726Y-2201726D03*
G04 #@! TD*
D23*
G04 #@! TO.C,C5*
X59900000Y2820000D03*
X59900000Y3780000D03*
G04 #@! TD*
D18*
G04 #@! TO.C,C18*
X41293709Y3581441D03*
X41293709Y2621441D03*
G04 #@! TD*
D23*
G04 #@! TO.C,C19*
X34700000Y-130000D03*
X34700000Y830000D03*
G04 #@! TD*
D24*
G04 #@! TO.C,C10*
X47120000Y-2600000D03*
X48080000Y-2600000D03*
G04 #@! TD*
D25*
G04 #@! TO.C,C26*
X25380000Y3300000D03*
X24420000Y3300000D03*
G04 #@! TD*
D22*
G04 #@! TO.C,R9*
X27890000Y-1200000D03*
X28910000Y-1200000D03*
G04 #@! TD*
D26*
G04 #@! TO.C,C11*
X46532500Y3000000D03*
X47667500Y3000000D03*
G04 #@! TD*
D22*
G04 #@! TO.C,R15*
X32890000Y-2200000D03*
X33910000Y-2200000D03*
G04 #@! TD*
D21*
G04 #@! TO.C,R1*
X61000000Y3810000D03*
X61000000Y2790000D03*
G04 #@! TD*
D22*
G04 #@! TO.C,R8*
X27890000Y-3200000D03*
X28910000Y-3200000D03*
G04 #@! TD*
D18*
G04 #@! TO.C,C17*
X43011224Y3573073D03*
X43011224Y2613073D03*
G04 #@! TD*
D25*
G04 #@! TO.C,C25*
X28880000Y-2200000D03*
X27920000Y-2200000D03*
G04 #@! TD*
D27*
G04 #@! TO.C,U2*
X65950000Y-500000D03*
X65950000Y0D03*
X65950000Y500000D03*
X64650000Y500000D03*
X64650000Y0D03*
X64650000Y-500000D03*
G04 #@! TD*
D18*
G04 #@! TO.C,C29*
X30300000Y530000D03*
X30300000Y-430000D03*
G04 #@! TD*
D22*
G04 #@! TO.C,R3*
X46589675Y1900000D03*
X47609675Y1900000D03*
G04 #@! TD*
D28*
G04 #@! TO.C,U7*
X31460396Y548787D03*
X31460396Y-101213D03*
X31460396Y-751213D03*
X33360396Y-751213D03*
X33360396Y548787D03*
G04 #@! TD*
D25*
G04 #@! TO.C,C27*
X28880000Y1200000D03*
X27920000Y1200000D03*
G04 #@! TD*
D18*
G04 #@! TO.C,C20*
X34700000Y3030000D03*
X34700000Y2070000D03*
G04 #@! TD*
D22*
G04 #@! TO.C,R10*
X32590000Y3000000D03*
X33610000Y3000000D03*
G04 #@! TD*
D25*
G04 #@! TO.C,C30*
X31685176Y-3214839D03*
X30725176Y-3214839D03*
G04 #@! TD*
G04 #@! TO.C,C7*
X48080000Y-3600000D03*
X47120000Y-3600000D03*
G04 #@! TD*
D26*
G04 #@! TO.C,C12*
X46532500Y4000000D03*
X47667500Y4000000D03*
G04 #@! TD*
D29*
G04 #@! TO.C,U6*
X37650000Y3312500D03*
X37150000Y3312500D03*
X36650000Y3312500D03*
X36150000Y3312500D03*
D30*
X35887500Y2550000D03*
X35887500Y2050000D03*
X35887500Y1550000D03*
D29*
X36150000Y787500D03*
X36650000Y787500D03*
X37150000Y787500D03*
X37650000Y787500D03*
D30*
X37912500Y1550000D03*
X37912500Y2050000D03*
X37912500Y2550000D03*
G04 #@! TD*
D21*
G04 #@! TO.C,R11*
X31300000Y2810000D03*
X31300000Y1790000D03*
G04 #@! TD*
G04 #@! TO.C,R5*
X56392876Y2110000D03*
X56392876Y1090000D03*
G04 #@! TD*
D25*
G04 #@! TO.C,C28*
X33582598Y2000000D03*
X32622598Y2000000D03*
G04 #@! TD*
D24*
G04 #@! TO.C,C16*
X41700848Y-2519372D03*
X42660848Y-2519372D03*
G04 #@! TD*
D18*
G04 #@! TO.C,C6*
X59900000Y-2820000D03*
X59900000Y-3780000D03*
G04 #@! TD*
D20*
G04 #@! TO.C,R12*
X33910000Y-3200000D03*
X32890000Y-3200000D03*
G04 #@! TD*
D19*
G04 #@! TO.C,R2*
X61000000Y-3810000D03*
X61000000Y-2790000D03*
G04 #@! TD*
M02*
