G04 #@! TF.GenerationSoftware,KiCad,Pcbnew,(5.99.0-7570-gd0e008053a)*
G04 #@! TF.CreationDate,2021-04-03T15:26:54-07:00*
G04 #@! TF.ProjectId,RT_USB_PD_Soldering_Iron,52545f55-5342-45f5-9044-5f536f6c6465,rev?*
G04 #@! TF.SameCoordinates,PX5f5e100PY7735940*
G04 #@! TF.FileFunction,Soldermask,Bot*
G04 #@! TF.FilePolarity,Negative*
%FSLAX46Y46*%
G04 Gerber Fmt 4.6, Leading zero omitted, Abs format (unit mm)*
G04 Created by KiCad (PCBNEW (5.99.0-7570-gd0e008053a)) date 2021-04-03 15:26:54*
%MOMM*%
%LPD*%
G01*
G04 APERTURE LIST*
G04 Aperture macros list*
%AMRoundRect*
0 Rectangle with rounded corners*
0 $1 Rounding radius*
0 $2 $3 $4 $5 $6 $7 $8 $9 X,Y pos of 4 corners*
0 Add a 4 corners polygon primitive as box body*
4,1,4,$2,$3,$4,$5,$6,$7,$8,$9,$2,$3,0*
0 Add four circle primitives for the rounded corners*
1,1,$1+$1,$2,$3,0*
1,1,$1+$1,$4,$5,0*
1,1,$1+$1,$6,$7,0*
1,1,$1+$1,$8,$9,0*
0 Add four rect primitives between the rounded corners*
20,1,$1+$1,$2,$3,$4,$5,0*
20,1,$1+$1,$4,$5,$6,$7,0*
20,1,$1+$1,$6,$7,$8,$9,0*
20,1,$1+$1,$8,$9,$2,$3,0*%
%AMRotRect*
0 Rectangle, with rotation*
0 The origin of the aperture is its center*
0 $1 length*
0 $2 width*
0 $3 Rotation angle, in degrees counterclockwise*
0 Add horizontal line*
21,1,$1,$2,0,0,$3*%
G04 Aperture macros list end*
%ADD10C,1.150000*%
%ADD11R,2.100000X2.700000*%
%ADD12R,2.800000X2.100000*%
%ADD13R,2.200000X2.100000*%
%ADD14O,1.900000X1.000000*%
%ADD15O,2.200000X1.000000*%
%ADD16C,0.700000*%
%ADD17RoundRect,0.140000X0.170000X-0.140000X0.170000X0.140000X-0.170000X0.140000X-0.170000X-0.140000X0*%
%ADD18RoundRect,0.140000X-0.140000X-0.170000X0.140000X-0.170000X0.140000X0.170000X-0.140000X0.170000X0*%
%ADD19RoundRect,0.140000X-0.170000X0.140000X-0.170000X-0.140000X0.170000X-0.140000X0.170000X0.140000X0*%
%ADD20RoundRect,0.140000X0.140000X0.170000X-0.140000X0.170000X-0.140000X-0.170000X0.140000X-0.170000X0*%
%ADD21RoundRect,0.175000X-0.175000X0.342500X-0.175000X-0.342500X0.175000X-0.342500X0.175000X0.342500X0*%
%ADD22RoundRect,0.050050X-0.299950X0.142450X-0.299950X-0.142450X0.299950X-0.142450X0.299950X0.142450X0*%
%ADD23RoundRect,0.237500X-0.287500X-0.237500X0.287500X-0.237500X0.287500X0.237500X-0.287500X0.237500X0*%
%ADD24RoundRect,0.237500X0.237500X-0.287500X0.237500X0.287500X-0.237500X0.287500X-0.237500X-0.287500X0*%
%ADD25RoundRect,0.062500X0.062500X-0.275000X0.062500X0.275000X-0.062500X0.275000X-0.062500X-0.275000X0*%
%ADD26RoundRect,0.062500X0.275000X-0.062500X0.275000X0.062500X-0.275000X0.062500X-0.275000X-0.062500X0*%
%ADD27R,1.450000X1.450000*%
%ADD28RoundRect,0.150000X0.512500X0.150000X-0.512500X0.150000X-0.512500X-0.150000X0.512500X-0.150000X0*%
%ADD29RoundRect,0.237500X-0.237500X0.287500X-0.237500X-0.287500X0.237500X-0.287500X0.237500X0.287500X0*%
%ADD30R,0.700000X2.400000*%
%ADD31RoundRect,0.062500X-0.220971X-0.309359X0.309359X0.220971X0.220971X0.309359X-0.309359X-0.220971X0*%
%ADD32RoundRect,0.062500X0.220971X-0.309359X0.309359X-0.220971X-0.220971X0.309359X-0.309359X0.220971X0*%
%ADD33RotRect,3.450000X3.450000X45.000000*%
%ADD34RoundRect,0.137500X0.137500X0.262500X-0.137500X0.262500X-0.137500X-0.262500X0.137500X-0.262500X0*%
G04 APERTURE END LIST*
G04 #@! TO.C,H2*
D10*
X20075000Y0D02*
G75*
G03*
X20075000Y0I-575000J0D01*
G01*
G04 #@! TO.C,H1*
X61075000Y0D02*
G75*
G03*
X61075000Y0I-575000J0D01*
G01*
G04 #@! TD*
D11*
G04 #@! TO.C,J2*
X16000000Y750000D03*
D12*
X11700000Y-4050000D03*
D13*
X1600000Y4050000D03*
X4500000Y4050000D03*
X2400000Y-4050000D03*
G04 #@! TD*
D14*
G04 #@! TO.C,J1*
X73380000Y-4320000D03*
D15*
X69200000Y4320000D03*
X69200000Y-4320000D03*
D14*
X73380000Y4320000D03*
D16*
X69700000Y-2890000D03*
X69700000Y2890000D03*
G04 #@! TD*
D17*
G04 #@! TO.C,C2*
X59294771Y3778908D03*
X59294771Y2818908D03*
G04 #@! TD*
D18*
G04 #@! TO.C,C14*
X57880000Y600000D03*
X56920000Y600000D03*
G04 #@! TD*
D19*
G04 #@! TO.C,C31*
X36100000Y-1380000D03*
X36100000Y-420000D03*
G04 #@! TD*
D20*
G04 #@! TO.C,C15*
X59220000Y-3200000D03*
X60180000Y-3200000D03*
G04 #@! TD*
D21*
G04 #@! TO.C,D1*
X21800000Y-3593500D03*
D22*
X21800000Y-2681500D03*
G04 #@! TD*
D23*
G04 #@! TO.C,C21*
X18325000Y-3600000D03*
X20075000Y-3600000D03*
G04 #@! TD*
D24*
G04 #@! TO.C,C22*
X29200000Y-3675000D03*
X29200000Y-1925000D03*
G04 #@! TD*
D25*
G04 #@! TO.C,U3*
X57303521Y-3130951D03*
X56803521Y-3130951D03*
X56303521Y-3130951D03*
D26*
X55541021Y-2618451D03*
X55541021Y-2118451D03*
X55541021Y-1618451D03*
X55541021Y-1118451D03*
D25*
X56303521Y-605951D03*
X56803521Y-605951D03*
X57303521Y-605951D03*
D26*
X58066021Y-1118451D03*
X58066021Y-1618451D03*
X58066021Y-2118451D03*
X58066021Y-2618451D03*
D27*
X56803521Y-1868451D03*
G04 #@! TD*
D28*
G04 #@! TO.C,U1*
X57737500Y3750000D03*
X57737500Y2800000D03*
X57737500Y1850000D03*
X55462500Y1850000D03*
X55462500Y3750000D03*
G04 #@! TD*
D19*
G04 #@! TO.C,C8*
X53209757Y457705D03*
X53209757Y-502295D03*
G04 #@! TD*
D29*
G04 #@! TO.C,C4*
X53500000Y3575000D03*
X53500000Y1825000D03*
G04 #@! TD*
D18*
G04 #@! TO.C,C3*
X54920000Y600000D03*
X55880000Y600000D03*
G04 #@! TD*
D24*
G04 #@! TO.C,C23*
X31000000Y-3675000D03*
X31000000Y-1925000D03*
G04 #@! TD*
G04 #@! TO.C,C24*
X27400000Y-3675000D03*
X27400000Y-1925000D03*
G04 #@! TD*
D30*
G04 #@! TO.C,J3*
X51320000Y-1950000D03*
X51320000Y1950000D03*
X50050000Y-1950000D03*
X50050000Y1950000D03*
X48780000Y-1950000D03*
X48780000Y1950000D03*
G04 #@! TD*
D17*
G04 #@! TO.C,C9*
X53200000Y-2484524D03*
X53200000Y-1524524D03*
G04 #@! TD*
D31*
G04 #@! TO.C,U4*
X41713864Y-2961010D03*
X41360311Y-2607456D03*
X41006757Y-2253903D03*
X40653204Y-1900349D03*
X40299651Y-1546796D03*
X39946097Y-1193243D03*
X39592544Y-839689D03*
X39238990Y-486136D03*
D32*
X39238990Y486136D03*
X39592544Y839689D03*
X39946097Y1193243D03*
X40299651Y1546796D03*
X40653204Y1900349D03*
X41006757Y2253903D03*
X41360311Y2607456D03*
X41713864Y2961010D03*
D31*
X42686136Y2961010D03*
X43039689Y2607456D03*
X43393243Y2253903D03*
X43746796Y1900349D03*
X44100349Y1546796D03*
X44453903Y1193243D03*
X44807456Y839689D03*
X45161010Y486136D03*
D32*
X45161010Y-486136D03*
X44807456Y-839689D03*
X44453903Y-1193243D03*
X44100349Y-1546796D03*
X43746796Y-1900349D03*
X43393243Y-2253903D03*
X43039689Y-2607456D03*
X42686136Y-2961010D03*
D33*
X42200000Y0D03*
G04 #@! TD*
D29*
G04 #@! TO.C,C1*
X64823980Y3600222D03*
X64823980Y1850222D03*
G04 #@! TD*
D34*
G04 #@! TO.C,D2*
X25325000Y2300000D03*
X23912500Y2300000D03*
G04 #@! TD*
M02*
