G04 #@! TF.GenerationSoftware,KiCad,Pcbnew,(5.99.0-7570-gd0e008053a)*
G04 #@! TF.CreationDate,2021-04-03T16:08:25-07:00*
G04 #@! TF.ProjectId,RT_USB_PD_Soldering_Iron,52545f55-5342-45f5-9044-5f536f6c6465,rev?*
G04 #@! TF.SameCoordinates,PX5f5e100PY7735940*
G04 #@! TF.FileFunction,Legend,Top*
G04 #@! TF.FilePolarity,Positive*
%FSLAX46Y46*%
G04 Gerber Fmt 4.6, Leading zero omitted, Abs format (unit mm)*
G04 Created by KiCad (PCBNEW (5.99.0-7570-gd0e008053a)) date 2021-04-03 16:08:25*
%MOMM*%
%LPD*%
G01*
G04 APERTURE LIST*
%ADD10C,0.200000*%
%ADD11C,0.150000*%
%ADD12C,0.120000*%
%ADD13C,0.100000*%
G04 APERTURE END LIST*
D10*
X22100000Y-2100000D02*
G75*
G03*
X22100000Y-2100000I-100000J0D01*
G01*
D11*
X27500000Y-1600000D02*
X26600000Y-3000000D01*
D10*
X66600000Y-1000000D02*
G75*
G03*
X66600000Y-1000000I-100000J0D01*
G01*
X38700000Y3650000D02*
G75*
G03*
X38700000Y3650000I-100000J0D01*
G01*
D11*
X27000000Y-4000000D02*
X27500000Y-2600000D01*
D10*
X31100000Y1200000D02*
G75*
G03*
X31100000Y1200000I-100000J0D01*
G01*
D11*
G04 #@! TO.C,J2*
X-4447620Y-333333D02*
X-3733334Y-333333D01*
X-3590477Y-380952D01*
X-3495239Y-476190D01*
X-3447620Y-619047D01*
X-3447620Y-714285D01*
X-4352381Y95239D02*
X-4400000Y142858D01*
X-4447620Y238096D01*
X-4447620Y476191D01*
X-4400000Y571429D01*
X-4352381Y619048D01*
X-4257143Y666667D01*
X-4161905Y666667D01*
X-4019048Y619048D01*
X-3447620Y47620D01*
X-3447620Y666667D01*
G04 #@! TO.C,J1*
X66652380Y-3025833D02*
X67366666Y-3025833D01*
X67509523Y-3073452D01*
X67604761Y-3168690D01*
X67652380Y-3311547D01*
X67652380Y-3406785D01*
X67652380Y-2025833D02*
X67652380Y-2597261D01*
X67652380Y-2311547D02*
X66652380Y-2311547D01*
X66795238Y-2406785D01*
X66890476Y-2502023D01*
X66938095Y-2597261D01*
G04 #@! TO.C,SW1*
X63133333Y4576191D02*
X63247619Y4538096D01*
X63438095Y4538096D01*
X63514285Y4576191D01*
X63552380Y4614286D01*
X63590476Y4690477D01*
X63590476Y4766667D01*
X63552380Y4842858D01*
X63514285Y4880953D01*
X63438095Y4919048D01*
X63285714Y4957143D01*
X63209523Y4995239D01*
X63171428Y5033334D01*
X63133333Y5109524D01*
X63133333Y5185715D01*
X63171428Y5261905D01*
X63209523Y5300000D01*
X63285714Y5338096D01*
X63476190Y5338096D01*
X63590476Y5300000D01*
X63857142Y5338096D02*
X64047619Y4538096D01*
X64200000Y5109524D01*
X64352380Y4538096D01*
X64542857Y5338096D01*
X65266666Y4538096D02*
X64809523Y4538096D01*
X65038095Y4538096D02*
X65038095Y5338096D01*
X64961904Y5223810D01*
X64885714Y5147620D01*
X64809523Y5109524D01*
G04 #@! TO.C,SW2*
X63133333Y-5323809D02*
X63247619Y-5361904D01*
X63438095Y-5361904D01*
X63514285Y-5323809D01*
X63552380Y-5285714D01*
X63590476Y-5209523D01*
X63590476Y-5133333D01*
X63552380Y-5057142D01*
X63514285Y-5019047D01*
X63438095Y-4980952D01*
X63285714Y-4942857D01*
X63209523Y-4904761D01*
X63171428Y-4866666D01*
X63133333Y-4790476D01*
X63133333Y-4714285D01*
X63171428Y-4638095D01*
X63209523Y-4600000D01*
X63285714Y-4561904D01*
X63476190Y-4561904D01*
X63590476Y-4600000D01*
X63857142Y-4561904D02*
X64047619Y-5361904D01*
X64200000Y-4790476D01*
X64352380Y-5361904D01*
X64542857Y-4561904D01*
X64809523Y-4638095D02*
X64847619Y-4600000D01*
X64923809Y-4561904D01*
X65114285Y-4561904D01*
X65190476Y-4600000D01*
X65228571Y-4638095D01*
X65266666Y-4714285D01*
X65266666Y-4790476D01*
X65228571Y-4904761D01*
X64771428Y-5361904D01*
X65266666Y-5361904D01*
G04 #@! TO.C,OLED1*
X52602380Y-1928571D02*
X52602380Y-1738095D01*
X52650000Y-1642857D01*
X52745238Y-1547619D01*
X52935714Y-1500000D01*
X53269047Y-1500000D01*
X53459523Y-1547619D01*
X53554761Y-1642857D01*
X53602380Y-1738095D01*
X53602380Y-1928571D01*
X53554761Y-2023809D01*
X53459523Y-2119047D01*
X53269047Y-2166666D01*
X52935714Y-2166666D01*
X52745238Y-2119047D01*
X52650000Y-2023809D01*
X52602380Y-1928571D01*
X53602380Y-595238D02*
X53602380Y-1071428D01*
X52602380Y-1071428D01*
X53078571Y-261904D02*
X53078571Y71429D01*
X53602380Y214286D02*
X53602380Y-261904D01*
X52602380Y-261904D01*
X52602380Y214286D01*
X53602380Y642858D02*
X52602380Y642858D01*
X52602380Y880953D01*
X52650000Y1023810D01*
X52745238Y1119048D01*
X52840476Y1166667D01*
X53030952Y1214286D01*
X53173809Y1214286D01*
X53364285Y1166667D01*
X53459523Y1119048D01*
X53554761Y1023810D01*
X53602380Y880953D01*
X53602380Y642858D01*
X53602380Y2166667D02*
X53602380Y1595239D01*
X53602380Y1880953D02*
X52602380Y1880953D01*
X52745238Y1785715D01*
X52840476Y1690477D01*
X52888095Y1595239D01*
G04 #@! TO.C,U5*
X21890476Y-2961904D02*
X21890476Y-3609523D01*
X21928571Y-3685714D01*
X21966666Y-3723809D01*
X22042857Y-3761904D01*
X22195238Y-3761904D01*
X22271428Y-3723809D01*
X22309523Y-3685714D01*
X22347619Y-3609523D01*
X22347619Y-2961904D01*
X23109523Y-2961904D02*
X22728571Y-2961904D01*
X22690476Y-3342857D01*
X22728571Y-3304761D01*
X22804761Y-3266666D01*
X22995238Y-3266666D01*
X23071428Y-3304761D01*
X23109523Y-3342857D01*
X23147619Y-3419047D01*
X23147619Y-3609523D01*
X23109523Y-3685714D01*
X23071428Y-3723809D01*
X22995238Y-3761904D01*
X22804761Y-3761904D01*
X22728571Y-3723809D01*
X22690476Y-3685714D01*
G04 #@! TO.C,C13*
X56689238Y-4714858D02*
X56727333Y-4752953D01*
X56765428Y-4867239D01*
X56765428Y-4943430D01*
X56727333Y-5057715D01*
X56651143Y-5133906D01*
X56574952Y-5172001D01*
X56422571Y-5210096D01*
X56308285Y-5210096D01*
X56155904Y-5172001D01*
X56079714Y-5133906D01*
X56003524Y-5057715D01*
X55965428Y-4943430D01*
X55965428Y-4867239D01*
X56003524Y-4752953D01*
X56041619Y-4714858D01*
X56765428Y-3952953D02*
X56765428Y-4410096D01*
X56765428Y-4181525D02*
X55965428Y-4181525D01*
X56079714Y-4257715D01*
X56155904Y-4333906D01*
X56194000Y-4410096D01*
X55965428Y-3686287D02*
X55965428Y-3191049D01*
X56270190Y-3457715D01*
X56270190Y-3343430D01*
X56308285Y-3267239D01*
X56346381Y-3229144D01*
X56422571Y-3191049D01*
X56613047Y-3191049D01*
X56689238Y-3229144D01*
X56727333Y-3267239D01*
X56765428Y-3343430D01*
X56765428Y-3572001D01*
X56727333Y-3648192D01*
X56689238Y-3686287D01*
G04 #@! TO.C,R6*
X55759880Y-4331397D02*
X55378928Y-4598064D01*
X55759880Y-4788540D02*
X54959880Y-4788540D01*
X54959880Y-4483778D01*
X54997976Y-4407587D01*
X55036071Y-4369492D01*
X55112261Y-4331397D01*
X55226547Y-4331397D01*
X55302737Y-4369492D01*
X55340833Y-4407587D01*
X55378928Y-4483778D01*
X55378928Y-4788540D01*
X54959880Y-3645683D02*
X54959880Y-3798064D01*
X54997976Y-3874254D01*
X55036071Y-3912349D01*
X55150356Y-3988540D01*
X55302737Y-4026635D01*
X55607499Y-4026635D01*
X55683690Y-3988540D01*
X55721785Y-3950444D01*
X55759880Y-3874254D01*
X55759880Y-3721873D01*
X55721785Y-3645683D01*
X55683690Y-3607587D01*
X55607499Y-3569492D01*
X55417023Y-3569492D01*
X55340833Y-3607587D01*
X55302737Y-3645683D01*
X55264642Y-3721873D01*
X55264642Y-3874254D01*
X55302737Y-3950444D01*
X55340833Y-3988540D01*
X55417023Y-4026635D01*
G04 #@! TO.C,TH1*
X9371428Y4238096D02*
X9828571Y4238096D01*
X9600000Y3438096D02*
X9600000Y4238096D01*
X10095238Y3438096D02*
X10095238Y4238096D01*
X10095238Y3857143D02*
X10552380Y3857143D01*
X10552380Y3438096D02*
X10552380Y4238096D01*
X11352380Y3438096D02*
X10895238Y3438096D01*
X11123809Y3438096D02*
X11123809Y4238096D01*
X11047619Y4123810D01*
X10971428Y4047620D01*
X10895238Y4009524D01*
G04 #@! TO.C,R13*
X37631904Y-1414285D02*
X37250952Y-1680952D01*
X37631904Y-1871428D02*
X36831904Y-1871428D01*
X36831904Y-1566666D01*
X36870000Y-1490476D01*
X36908095Y-1452380D01*
X36984285Y-1414285D01*
X37098571Y-1414285D01*
X37174761Y-1452380D01*
X37212857Y-1490476D01*
X37250952Y-1566666D01*
X37250952Y-1871428D01*
X37631904Y-652380D02*
X37631904Y-1109523D01*
X37631904Y-880952D02*
X36831904Y-880952D01*
X36946190Y-957142D01*
X37022380Y-1033333D01*
X37060476Y-1109523D01*
X36831904Y-385714D02*
X36831904Y109524D01*
X37136666Y-157142D01*
X37136666Y-42857D01*
X37174761Y33334D01*
X37212857Y71429D01*
X37289047Y109524D01*
X37479523Y109524D01*
X37555714Y71429D01*
X37593809Y33334D01*
X37631904Y-42857D01*
X37631904Y-271428D01*
X37593809Y-347619D01*
X37555714Y-385714D01*
G04 #@! TO.C,R7*
X28266666Y1838096D02*
X28000000Y2219048D01*
X27809523Y1838096D02*
X27809523Y2638096D01*
X28114285Y2638096D01*
X28190476Y2600000D01*
X28228571Y2561905D01*
X28266666Y2485715D01*
X28266666Y2371429D01*
X28228571Y2295239D01*
X28190476Y2257143D01*
X28114285Y2219048D01*
X27809523Y2219048D01*
X28533333Y2638096D02*
X29066666Y2638096D01*
X28723809Y1838096D01*
G04 #@! TO.C,R4*
X55762489Y3165254D02*
X55381537Y2898587D01*
X55762489Y2708111D02*
X54962489Y2708111D01*
X54962489Y3012873D01*
X55000585Y3089064D01*
X55038680Y3127159D01*
X55114870Y3165254D01*
X55229156Y3165254D01*
X55305346Y3127159D01*
X55343442Y3089064D01*
X55381537Y3012873D01*
X55381537Y2708111D01*
X55229156Y3850968D02*
X55762489Y3850968D01*
X54924394Y3660492D02*
X55495823Y3470016D01*
X55495823Y3965254D01*
G04 #@! TO.C,R14*
X36185714Y-3061904D02*
X35919047Y-2680952D01*
X35728571Y-3061904D02*
X35728571Y-2261904D01*
X36033333Y-2261904D01*
X36109523Y-2300000D01*
X36147619Y-2338095D01*
X36185714Y-2414285D01*
X36185714Y-2528571D01*
X36147619Y-2604761D01*
X36109523Y-2642857D01*
X36033333Y-2680952D01*
X35728571Y-2680952D01*
X36947619Y-3061904D02*
X36490476Y-3061904D01*
X36719047Y-3061904D02*
X36719047Y-2261904D01*
X36642857Y-2376190D01*
X36566666Y-2452380D01*
X36490476Y-2490476D01*
X37633333Y-2528571D02*
X37633333Y-3061904D01*
X37442857Y-2223809D02*
X37252380Y-2795238D01*
X37747619Y-2795238D01*
G04 #@! TO.C,C5*
X58185714Y3166667D02*
X58223809Y3128572D01*
X58261904Y3014286D01*
X58261904Y2938096D01*
X58223809Y2823810D01*
X58147619Y2747620D01*
X58071428Y2709524D01*
X57919047Y2671429D01*
X57804761Y2671429D01*
X57652380Y2709524D01*
X57576190Y2747620D01*
X57500000Y2823810D01*
X57461904Y2938096D01*
X57461904Y3014286D01*
X57500000Y3128572D01*
X57538095Y3166667D01*
X57461904Y3890477D02*
X57461904Y3509524D01*
X57842857Y3471429D01*
X57804761Y3509524D01*
X57766666Y3585715D01*
X57766666Y3776191D01*
X57804761Y3852381D01*
X57842857Y3890477D01*
X57919047Y3928572D01*
X58109523Y3928572D01*
X58185714Y3890477D01*
X58223809Y3852381D01*
X58261904Y3776191D01*
X58261904Y3585715D01*
X58223809Y3509524D01*
X58185714Y3471429D01*
G04 #@! TO.C,C18*
X41585714Y485715D02*
X41623809Y447620D01*
X41661904Y333334D01*
X41661904Y257143D01*
X41623809Y142858D01*
X41547619Y66667D01*
X41471428Y28572D01*
X41319047Y-9523D01*
X41204761Y-9523D01*
X41052380Y28572D01*
X40976190Y66667D01*
X40900000Y142858D01*
X40861904Y257143D01*
X40861904Y333334D01*
X40900000Y447620D01*
X40938095Y485715D01*
X41661904Y1247620D02*
X41661904Y790477D01*
X41661904Y1019048D02*
X40861904Y1019048D01*
X40976190Y942858D01*
X41052380Y866667D01*
X41090476Y790477D01*
X41204761Y1704762D02*
X41166666Y1628572D01*
X41128571Y1590477D01*
X41052380Y1552381D01*
X41014285Y1552381D01*
X40938095Y1590477D01*
X40900000Y1628572D01*
X40861904Y1704762D01*
X40861904Y1857143D01*
X40900000Y1933334D01*
X40938095Y1971429D01*
X41014285Y2009524D01*
X41052380Y2009524D01*
X41128571Y1971429D01*
X41166666Y1933334D01*
X41204761Y1857143D01*
X41204761Y1704762D01*
X41242857Y1628572D01*
X41280952Y1590477D01*
X41357142Y1552381D01*
X41509523Y1552381D01*
X41585714Y1590477D01*
X41623809Y1628572D01*
X41661904Y1704762D01*
X41661904Y1857143D01*
X41623809Y1933334D01*
X41585714Y1971429D01*
X41509523Y2009524D01*
X41357142Y2009524D01*
X41280952Y1971429D01*
X41242857Y1933334D01*
X41204761Y1857143D01*
G04 #@! TO.C,C19*
X35285714Y-2214285D02*
X35323809Y-2252380D01*
X35361904Y-2366666D01*
X35361904Y-2442857D01*
X35323809Y-2557142D01*
X35247619Y-2633333D01*
X35171428Y-2671428D01*
X35019047Y-2709523D01*
X34904761Y-2709523D01*
X34752380Y-2671428D01*
X34676190Y-2633333D01*
X34600000Y-2557142D01*
X34561904Y-2442857D01*
X34561904Y-2366666D01*
X34600000Y-2252380D01*
X34638095Y-2214285D01*
X35361904Y-1452380D02*
X35361904Y-1909523D01*
X35361904Y-1680952D02*
X34561904Y-1680952D01*
X34676190Y-1757142D01*
X34752380Y-1833333D01*
X34790476Y-1909523D01*
X35361904Y-1071428D02*
X35361904Y-919047D01*
X35323809Y-842857D01*
X35285714Y-804761D01*
X35171428Y-728571D01*
X35019047Y-690476D01*
X34714285Y-690476D01*
X34638095Y-728571D01*
X34600000Y-766666D01*
X34561904Y-842857D01*
X34561904Y-995238D01*
X34600000Y-1071428D01*
X34638095Y-1109523D01*
X34714285Y-1147619D01*
X34904761Y-1147619D01*
X34980952Y-1109523D01*
X35019047Y-1071428D01*
X35057142Y-995238D01*
X35057142Y-842857D01*
X35019047Y-766666D01*
X34980952Y-728571D01*
X34904761Y-690476D01*
G04 #@! TO.C,C10*
X44985714Y-2885714D02*
X44947619Y-2923809D01*
X44833333Y-2961904D01*
X44757142Y-2961904D01*
X44642857Y-2923809D01*
X44566666Y-2847619D01*
X44528571Y-2771428D01*
X44490476Y-2619047D01*
X44490476Y-2504761D01*
X44528571Y-2352380D01*
X44566666Y-2276190D01*
X44642857Y-2200000D01*
X44757142Y-2161904D01*
X44833333Y-2161904D01*
X44947619Y-2200000D01*
X44985714Y-2238095D01*
X45747619Y-2961904D02*
X45290476Y-2961904D01*
X45519047Y-2961904D02*
X45519047Y-2161904D01*
X45442857Y-2276190D01*
X45366666Y-2352380D01*
X45290476Y-2390476D01*
X46242857Y-2161904D02*
X46319047Y-2161904D01*
X46395238Y-2200000D01*
X46433333Y-2238095D01*
X46471428Y-2314285D01*
X46509523Y-2466666D01*
X46509523Y-2657142D01*
X46471428Y-2809523D01*
X46433333Y-2885714D01*
X46395238Y-2923809D01*
X46319047Y-2961904D01*
X46242857Y-2961904D01*
X46166666Y-2923809D01*
X46128571Y-2885714D01*
X46090476Y-2809523D01*
X46052380Y-2657142D01*
X46052380Y-2466666D01*
X46090476Y-2314285D01*
X46128571Y-2238095D01*
X46166666Y-2200000D01*
X46242857Y-2161904D01*
G04 #@! TO.C,C26*
X24385714Y4014286D02*
X24347619Y3976191D01*
X24233333Y3938096D01*
X24157142Y3938096D01*
X24042857Y3976191D01*
X23966666Y4052381D01*
X23928571Y4128572D01*
X23890476Y4280953D01*
X23890476Y4395239D01*
X23928571Y4547620D01*
X23966666Y4623810D01*
X24042857Y4700000D01*
X24157142Y4738096D01*
X24233333Y4738096D01*
X24347619Y4700000D01*
X24385714Y4661905D01*
X24690476Y4661905D02*
X24728571Y4700000D01*
X24804761Y4738096D01*
X24995238Y4738096D01*
X25071428Y4700000D01*
X25109523Y4661905D01*
X25147619Y4585715D01*
X25147619Y4509524D01*
X25109523Y4395239D01*
X24652380Y3938096D01*
X25147619Y3938096D01*
X25833333Y4738096D02*
X25680952Y4738096D01*
X25604761Y4700000D01*
X25566666Y4661905D01*
X25490476Y4547620D01*
X25452380Y4395239D01*
X25452380Y4090477D01*
X25490476Y4014286D01*
X25528571Y3976191D01*
X25604761Y3938096D01*
X25757142Y3938096D01*
X25833333Y3976191D01*
X25871428Y4014286D01*
X25909523Y4090477D01*
X25909523Y4280953D01*
X25871428Y4357143D01*
X25833333Y4395239D01*
X25757142Y4433334D01*
X25604761Y4433334D01*
X25528571Y4395239D01*
X25490476Y4357143D01*
X25452380Y4280953D01*
G04 #@! TO.C,R9*
X25666666Y-3461904D02*
X25400000Y-3080952D01*
X25209523Y-3461904D02*
X25209523Y-2661904D01*
X25514285Y-2661904D01*
X25590476Y-2700000D01*
X25628571Y-2738095D01*
X25666666Y-2814285D01*
X25666666Y-2928571D01*
X25628571Y-3004761D01*
X25590476Y-3042857D01*
X25514285Y-3080952D01*
X25209523Y-3080952D01*
X26047619Y-3461904D02*
X26200000Y-3461904D01*
X26276190Y-3423809D01*
X26314285Y-3385714D01*
X26390476Y-3271428D01*
X26428571Y-3119047D01*
X26428571Y-2814285D01*
X26390476Y-2738095D01*
X26352380Y-2700000D01*
X26276190Y-2661904D01*
X26123809Y-2661904D01*
X26047619Y-2700000D01*
X26009523Y-2738095D01*
X25971428Y-2814285D01*
X25971428Y-3004761D01*
X26009523Y-3080952D01*
X26047619Y-3119047D01*
X26123809Y-3157142D01*
X26276190Y-3157142D01*
X26352380Y-3119047D01*
X26390476Y-3080952D01*
X26428571Y-3004761D01*
G04 #@! TO.C,C11*
X44385714Y2714286D02*
X44347619Y2676191D01*
X44233333Y2638096D01*
X44157142Y2638096D01*
X44042857Y2676191D01*
X43966666Y2752381D01*
X43928571Y2828572D01*
X43890476Y2980953D01*
X43890476Y3095239D01*
X43928571Y3247620D01*
X43966666Y3323810D01*
X44042857Y3400000D01*
X44157142Y3438096D01*
X44233333Y3438096D01*
X44347619Y3400000D01*
X44385714Y3361905D01*
X45147619Y2638096D02*
X44690476Y2638096D01*
X44919047Y2638096D02*
X44919047Y3438096D01*
X44842857Y3323810D01*
X44766666Y3247620D01*
X44690476Y3209524D01*
X45909523Y2638096D02*
X45452380Y2638096D01*
X45680952Y2638096D02*
X45680952Y3438096D01*
X45604761Y3323810D01*
X45528571Y3247620D01*
X45452380Y3209524D01*
G04 #@! TO.C,R15*
X38585714Y-3061904D02*
X38319047Y-2680952D01*
X38128571Y-3061904D02*
X38128571Y-2261904D01*
X38433333Y-2261904D01*
X38509523Y-2300000D01*
X38547619Y-2338095D01*
X38585714Y-2414285D01*
X38585714Y-2528571D01*
X38547619Y-2604761D01*
X38509523Y-2642857D01*
X38433333Y-2680952D01*
X38128571Y-2680952D01*
X39347619Y-3061904D02*
X38890476Y-3061904D01*
X39119047Y-3061904D02*
X39119047Y-2261904D01*
X39042857Y-2376190D01*
X38966666Y-2452380D01*
X38890476Y-2490476D01*
X40071428Y-2261904D02*
X39690476Y-2261904D01*
X39652380Y-2642857D01*
X39690476Y-2604761D01*
X39766666Y-2566666D01*
X39957142Y-2566666D01*
X40033333Y-2604761D01*
X40071428Y-2642857D01*
X40109523Y-2719047D01*
X40109523Y-2909523D01*
X40071428Y-2985714D01*
X40033333Y-3023809D01*
X39957142Y-3061904D01*
X39766666Y-3061904D01*
X39690476Y-3023809D01*
X39652380Y-2985714D01*
G04 #@! TO.C,R1*
X59361904Y3166667D02*
X58980952Y2900000D01*
X59361904Y2709524D02*
X58561904Y2709524D01*
X58561904Y3014286D01*
X58600000Y3090477D01*
X58638095Y3128572D01*
X58714285Y3166667D01*
X58828571Y3166667D01*
X58904761Y3128572D01*
X58942857Y3090477D01*
X58980952Y3014286D01*
X58980952Y2709524D01*
X59361904Y3928572D02*
X59361904Y3471429D01*
X59361904Y3700000D02*
X58561904Y3700000D01*
X58676190Y3623810D01*
X58752380Y3547620D01*
X58790476Y3471429D01*
G04 #@! TO.C,R8*
X28266666Y-4661904D02*
X28000000Y-4280952D01*
X27809523Y-4661904D02*
X27809523Y-3861904D01*
X28114285Y-3861904D01*
X28190476Y-3900000D01*
X28228571Y-3938095D01*
X28266666Y-4014285D01*
X28266666Y-4128571D01*
X28228571Y-4204761D01*
X28190476Y-4242857D01*
X28114285Y-4280952D01*
X27809523Y-4280952D01*
X28723809Y-4204761D02*
X28647619Y-4166666D01*
X28609523Y-4128571D01*
X28571428Y-4052380D01*
X28571428Y-4014285D01*
X28609523Y-3938095D01*
X28647619Y-3900000D01*
X28723809Y-3861904D01*
X28876190Y-3861904D01*
X28952380Y-3900000D01*
X28990476Y-3938095D01*
X29028571Y-4014285D01*
X29028571Y-4052380D01*
X28990476Y-4128571D01*
X28952380Y-4166666D01*
X28876190Y-4204761D01*
X28723809Y-4204761D01*
X28647619Y-4242857D01*
X28609523Y-4280952D01*
X28571428Y-4357142D01*
X28571428Y-4509523D01*
X28609523Y-4585714D01*
X28647619Y-4623809D01*
X28723809Y-4661904D01*
X28876190Y-4661904D01*
X28952380Y-4623809D01*
X28990476Y-4585714D01*
X29028571Y-4509523D01*
X29028571Y-4357142D01*
X28990476Y-4280952D01*
X28952380Y-4242857D01*
X28876190Y-4204761D01*
G04 #@! TO.C,C17*
X43291739Y487972D02*
X43329834Y449877D01*
X43367929Y335591D01*
X43367929Y259400D01*
X43329834Y145115D01*
X43253644Y68924D01*
X43177453Y30829D01*
X43025072Y-7266D01*
X42910786Y-7266D01*
X42758405Y30829D01*
X42682215Y68924D01*
X42606025Y145115D01*
X42567929Y259400D01*
X42567929Y335591D01*
X42606025Y449877D01*
X42644120Y487972D01*
X43367929Y1249877D02*
X43367929Y792734D01*
X43367929Y1021305D02*
X42567929Y1021305D01*
X42682215Y945115D01*
X42758405Y868924D01*
X42796501Y792734D01*
X42567929Y1516543D02*
X42567929Y2049877D01*
X43367929Y1707019D01*
G04 #@! TO.C,C25*
X25285797Y-4385714D02*
X25247702Y-4423809D01*
X25133416Y-4461904D01*
X25057225Y-4461904D01*
X24942940Y-4423809D01*
X24866749Y-4347619D01*
X24828654Y-4271428D01*
X24790559Y-4119047D01*
X24790559Y-4004761D01*
X24828654Y-3852380D01*
X24866749Y-3776190D01*
X24942940Y-3700000D01*
X25057225Y-3661904D01*
X25133416Y-3661904D01*
X25247702Y-3700000D01*
X25285797Y-3738095D01*
X25590559Y-3738095D02*
X25628654Y-3700000D01*
X25704844Y-3661904D01*
X25895321Y-3661904D01*
X25971511Y-3700000D01*
X26009606Y-3738095D01*
X26047702Y-3814285D01*
X26047702Y-3890476D01*
X26009606Y-4004761D01*
X25552463Y-4461904D01*
X26047702Y-4461904D01*
X26771511Y-3661904D02*
X26390559Y-3661904D01*
X26352463Y-4042857D01*
X26390559Y-4004761D01*
X26466749Y-3966666D01*
X26657225Y-3966666D01*
X26733416Y-4004761D01*
X26771511Y-4042857D01*
X26809606Y-4119047D01*
X26809606Y-4309523D01*
X26771511Y-4385714D01*
X26733416Y-4423809D01*
X26657225Y-4461904D01*
X26466749Y-4461904D01*
X26390559Y-4423809D01*
X26352463Y-4385714D01*
G04 #@! TO.C,U2*
X62490476Y438096D02*
X62490476Y-209523D01*
X62528571Y-285714D01*
X62566666Y-323809D01*
X62642857Y-361904D01*
X62795238Y-361904D01*
X62871428Y-323809D01*
X62909523Y-285714D01*
X62947619Y-209523D01*
X62947619Y438096D01*
X63290476Y361905D02*
X63328571Y400000D01*
X63404761Y438096D01*
X63595238Y438096D01*
X63671428Y400000D01*
X63709523Y361905D01*
X63747619Y285715D01*
X63747619Y209524D01*
X63709523Y95239D01*
X63252380Y-361904D01*
X63747619Y-361904D01*
G04 #@! TO.C,C29*
X30485714Y1485715D02*
X30523809Y1447620D01*
X30561904Y1333334D01*
X30561904Y1257143D01*
X30523809Y1142858D01*
X30447619Y1066667D01*
X30371428Y1028572D01*
X30219047Y990477D01*
X30104761Y990477D01*
X29952380Y1028572D01*
X29876190Y1066667D01*
X29800000Y1142858D01*
X29761904Y1257143D01*
X29761904Y1333334D01*
X29800000Y1447620D01*
X29838095Y1485715D01*
X29838095Y1790477D02*
X29800000Y1828572D01*
X29761904Y1904762D01*
X29761904Y2095239D01*
X29800000Y2171429D01*
X29838095Y2209524D01*
X29914285Y2247620D01*
X29990476Y2247620D01*
X30104761Y2209524D01*
X30561904Y1752381D01*
X30561904Y2247620D01*
X30561904Y2628572D02*
X30561904Y2780953D01*
X30523809Y2857143D01*
X30485714Y2895239D01*
X30371428Y2971429D01*
X30219047Y3009524D01*
X29914285Y3009524D01*
X29838095Y2971429D01*
X29800000Y2933334D01*
X29761904Y2857143D01*
X29761904Y2704762D01*
X29800000Y2628572D01*
X29838095Y2590477D01*
X29914285Y2552381D01*
X30104761Y2552381D01*
X30180952Y2590477D01*
X30219047Y2628572D01*
X30257142Y2704762D01*
X30257142Y2857143D01*
X30219047Y2933334D01*
X30180952Y2971429D01*
X30104761Y3009524D01*
G04 #@! TO.C,R3*
X46966341Y467424D02*
X46699675Y848376D01*
X46509198Y467424D02*
X46509198Y1267424D01*
X46813960Y1267424D01*
X46890151Y1229328D01*
X46928246Y1191233D01*
X46966341Y1115043D01*
X46966341Y1000757D01*
X46928246Y924567D01*
X46890151Y886471D01*
X46813960Y848376D01*
X46509198Y848376D01*
X47233008Y1267424D02*
X47728246Y1267424D01*
X47461579Y962662D01*
X47575865Y962662D01*
X47652055Y924567D01*
X47690151Y886471D01*
X47728246Y810281D01*
X47728246Y619805D01*
X47690151Y543614D01*
X47652055Y505519D01*
X47575865Y467424D01*
X47347294Y467424D01*
X47271103Y505519D01*
X47233008Y543614D01*
G04 #@! TO.C,U7*
X29490476Y-961904D02*
X29490476Y-1609523D01*
X29528571Y-1685714D01*
X29566666Y-1723809D01*
X29642857Y-1761904D01*
X29795238Y-1761904D01*
X29871428Y-1723809D01*
X29909523Y-1685714D01*
X29947619Y-1609523D01*
X29947619Y-961904D01*
X30252380Y-961904D02*
X30785714Y-961904D01*
X30442857Y-1761904D01*
G04 #@! TO.C,C27*
X27185714Y3014286D02*
X27147619Y2976191D01*
X27033333Y2938096D01*
X26957142Y2938096D01*
X26842857Y2976191D01*
X26766666Y3052381D01*
X26728571Y3128572D01*
X26690476Y3280953D01*
X26690476Y3395239D01*
X26728571Y3547620D01*
X26766666Y3623810D01*
X26842857Y3700000D01*
X26957142Y3738096D01*
X27033333Y3738096D01*
X27147619Y3700000D01*
X27185714Y3661905D01*
X27490476Y3661905D02*
X27528571Y3700000D01*
X27604761Y3738096D01*
X27795238Y3738096D01*
X27871428Y3700000D01*
X27909523Y3661905D01*
X27947619Y3585715D01*
X27947619Y3509524D01*
X27909523Y3395239D01*
X27452380Y2938096D01*
X27947619Y2938096D01*
X28214285Y3738096D02*
X28747619Y3738096D01*
X28404761Y2938096D01*
G04 #@! TO.C,C20*
X34885714Y4114286D02*
X34847619Y4076191D01*
X34733333Y4038096D01*
X34657142Y4038096D01*
X34542857Y4076191D01*
X34466666Y4152381D01*
X34428571Y4228572D01*
X34390476Y4380953D01*
X34390476Y4495239D01*
X34428571Y4647620D01*
X34466666Y4723810D01*
X34542857Y4800000D01*
X34657142Y4838096D01*
X34733333Y4838096D01*
X34847619Y4800000D01*
X34885714Y4761905D01*
X35190476Y4761905D02*
X35228571Y4800000D01*
X35304761Y4838096D01*
X35495238Y4838096D01*
X35571428Y4800000D01*
X35609523Y4761905D01*
X35647619Y4685715D01*
X35647619Y4609524D01*
X35609523Y4495239D01*
X35152380Y4038096D01*
X35647619Y4038096D01*
X36142857Y4838096D02*
X36219047Y4838096D01*
X36295238Y4800000D01*
X36333333Y4761905D01*
X36371428Y4685715D01*
X36409523Y4533334D01*
X36409523Y4342858D01*
X36371428Y4190477D01*
X36333333Y4114286D01*
X36295238Y4076191D01*
X36219047Y4038096D01*
X36142857Y4038096D01*
X36066666Y4076191D01*
X36028571Y4114286D01*
X35990476Y4190477D01*
X35952380Y4342858D01*
X35952380Y4533334D01*
X35990476Y4685715D01*
X36028571Y4761905D01*
X36066666Y4800000D01*
X36142857Y4838096D01*
G04 #@! TO.C,R10*
X32585714Y4538096D02*
X32319047Y4919048D01*
X32128571Y4538096D02*
X32128571Y5338096D01*
X32433333Y5338096D01*
X32509523Y5300000D01*
X32547619Y5261905D01*
X32585714Y5185715D01*
X32585714Y5071429D01*
X32547619Y4995239D01*
X32509523Y4957143D01*
X32433333Y4919048D01*
X32128571Y4919048D01*
X33347619Y4538096D02*
X32890476Y4538096D01*
X33119047Y4538096D02*
X33119047Y5338096D01*
X33042857Y5223810D01*
X32966666Y5147620D01*
X32890476Y5109524D01*
X33842857Y5338096D02*
X33919047Y5338096D01*
X33995238Y5300000D01*
X34033333Y5261905D01*
X34071428Y5185715D01*
X34109523Y5033334D01*
X34109523Y4842858D01*
X34071428Y4690477D01*
X34033333Y4614286D01*
X33995238Y4576191D01*
X33919047Y4538096D01*
X33842857Y4538096D01*
X33766666Y4576191D01*
X33728571Y4614286D01*
X33690476Y4690477D01*
X33652380Y4842858D01*
X33652380Y5033334D01*
X33690476Y5185715D01*
X33728571Y5261905D01*
X33766666Y5300000D01*
X33842857Y5338096D01*
G04 #@! TO.C,C30*
X30593009Y-4602901D02*
X30554914Y-4640996D01*
X30440628Y-4679091D01*
X30364437Y-4679091D01*
X30250152Y-4640996D01*
X30173961Y-4564806D01*
X30135866Y-4488615D01*
X30097771Y-4336234D01*
X30097771Y-4221948D01*
X30135866Y-4069567D01*
X30173961Y-3993377D01*
X30250152Y-3917187D01*
X30364437Y-3879091D01*
X30440628Y-3879091D01*
X30554914Y-3917187D01*
X30593009Y-3955282D01*
X30859675Y-3879091D02*
X31354914Y-3879091D01*
X31088247Y-4183853D01*
X31202533Y-4183853D01*
X31278723Y-4221948D01*
X31316818Y-4260044D01*
X31354914Y-4336234D01*
X31354914Y-4526710D01*
X31316818Y-4602901D01*
X31278723Y-4640996D01*
X31202533Y-4679091D01*
X30973961Y-4679091D01*
X30897771Y-4640996D01*
X30859675Y-4602901D01*
X31850152Y-3879091D02*
X31926342Y-3879091D01*
X32002533Y-3917187D01*
X32040628Y-3955282D01*
X32078723Y-4031472D01*
X32116818Y-4183853D01*
X32116818Y-4374329D01*
X32078723Y-4526710D01*
X32040628Y-4602901D01*
X32002533Y-4640996D01*
X31926342Y-4679091D01*
X31850152Y-4679091D01*
X31773961Y-4640996D01*
X31735866Y-4602901D01*
X31697771Y-4526710D01*
X31659675Y-4374329D01*
X31659675Y-4183853D01*
X31697771Y-4031472D01*
X31735866Y-3955282D01*
X31773961Y-3917187D01*
X31850152Y-3879091D01*
G04 #@! TO.C,C7*
X45666666Y-3885714D02*
X45628571Y-3923809D01*
X45514285Y-3961904D01*
X45438095Y-3961904D01*
X45323809Y-3923809D01*
X45247619Y-3847619D01*
X45209523Y-3771428D01*
X45171428Y-3619047D01*
X45171428Y-3504761D01*
X45209523Y-3352380D01*
X45247619Y-3276190D01*
X45323809Y-3200000D01*
X45438095Y-3161904D01*
X45514285Y-3161904D01*
X45628571Y-3200000D01*
X45666666Y-3238095D01*
X45933333Y-3161904D02*
X46466666Y-3161904D01*
X46123809Y-3961904D01*
G04 #@! TO.C,C12*
X44385714Y3714286D02*
X44347619Y3676191D01*
X44233333Y3638096D01*
X44157142Y3638096D01*
X44042857Y3676191D01*
X43966666Y3752381D01*
X43928571Y3828572D01*
X43890476Y3980953D01*
X43890476Y4095239D01*
X43928571Y4247620D01*
X43966666Y4323810D01*
X44042857Y4400000D01*
X44157142Y4438096D01*
X44233333Y4438096D01*
X44347619Y4400000D01*
X44385714Y4361905D01*
X45147619Y3638096D02*
X44690476Y3638096D01*
X44919047Y3638096D02*
X44919047Y4438096D01*
X44842857Y4323810D01*
X44766666Y4247620D01*
X44690476Y4209524D01*
X45452380Y4361905D02*
X45490476Y4400000D01*
X45566666Y4438096D01*
X45757142Y4438096D01*
X45833333Y4400000D01*
X45871428Y4361905D01*
X45909523Y4285715D01*
X45909523Y4209524D01*
X45871428Y4095239D01*
X45414285Y3638096D01*
X45909523Y3638096D01*
G04 #@! TO.C,U6*
X37190476Y4888096D02*
X37190476Y4240477D01*
X37228571Y4164286D01*
X37266666Y4126191D01*
X37342857Y4088096D01*
X37495238Y4088096D01*
X37571428Y4126191D01*
X37609523Y4164286D01*
X37647619Y4240477D01*
X37647619Y4888096D01*
X38371428Y4888096D02*
X38219047Y4888096D01*
X38142857Y4850000D01*
X38104761Y4811905D01*
X38028571Y4697620D01*
X37990476Y4545239D01*
X37990476Y4240477D01*
X38028571Y4164286D01*
X38066666Y4126191D01*
X38142857Y4088096D01*
X38295238Y4088096D01*
X38371428Y4126191D01*
X38409523Y4164286D01*
X38447619Y4240477D01*
X38447619Y4430953D01*
X38409523Y4507143D01*
X38371428Y4545239D01*
X38295238Y4583334D01*
X38142857Y4583334D01*
X38066666Y4545239D01*
X38028571Y4507143D01*
X37990476Y4430953D01*
G04 #@! TO.C,R11*
X31661904Y3785715D02*
X31280952Y3519048D01*
X31661904Y3328572D02*
X30861904Y3328572D01*
X30861904Y3633334D01*
X30900000Y3709524D01*
X30938095Y3747620D01*
X31014285Y3785715D01*
X31128571Y3785715D01*
X31204761Y3747620D01*
X31242857Y3709524D01*
X31280952Y3633334D01*
X31280952Y3328572D01*
X31661904Y4547620D02*
X31661904Y4090477D01*
X31661904Y4319048D02*
X30861904Y4319048D01*
X30976190Y4242858D01*
X31052380Y4166667D01*
X31090476Y4090477D01*
X31661904Y5309524D02*
X31661904Y4852381D01*
X31661904Y5080953D02*
X30861904Y5080953D01*
X30976190Y5004762D01*
X31052380Y4928572D01*
X31090476Y4852381D01*
G04 #@! TO.C,R5*
X56758834Y3166667D02*
X56377882Y2900000D01*
X56758834Y2709524D02*
X55958834Y2709524D01*
X55958834Y3014286D01*
X55996930Y3090477D01*
X56035025Y3128572D01*
X56111215Y3166667D01*
X56225501Y3166667D01*
X56301691Y3128572D01*
X56339787Y3090477D01*
X56377882Y3014286D01*
X56377882Y2709524D01*
X55958834Y3890477D02*
X55958834Y3509524D01*
X56339787Y3471429D01*
X56301691Y3509524D01*
X56263596Y3585715D01*
X56263596Y3776191D01*
X56301691Y3852381D01*
X56339787Y3890477D01*
X56415977Y3928572D01*
X56606453Y3928572D01*
X56682644Y3890477D01*
X56720739Y3852381D01*
X56758834Y3776191D01*
X56758834Y3585715D01*
X56720739Y3509524D01*
X56682644Y3471429D01*
G04 #@! TO.C,C28*
X32585714Y3614286D02*
X32547619Y3576191D01*
X32433333Y3538096D01*
X32357142Y3538096D01*
X32242857Y3576191D01*
X32166666Y3652381D01*
X32128571Y3728572D01*
X32090476Y3880953D01*
X32090476Y3995239D01*
X32128571Y4147620D01*
X32166666Y4223810D01*
X32242857Y4300000D01*
X32357142Y4338096D01*
X32433333Y4338096D01*
X32547619Y4300000D01*
X32585714Y4261905D01*
X32890476Y4261905D02*
X32928571Y4300000D01*
X33004761Y4338096D01*
X33195238Y4338096D01*
X33271428Y4300000D01*
X33309523Y4261905D01*
X33347619Y4185715D01*
X33347619Y4109524D01*
X33309523Y3995239D01*
X32852380Y3538096D01*
X33347619Y3538096D01*
X33804761Y3995239D02*
X33728571Y4033334D01*
X33690476Y4071429D01*
X33652380Y4147620D01*
X33652380Y4185715D01*
X33690476Y4261905D01*
X33728571Y4300000D01*
X33804761Y4338096D01*
X33957142Y4338096D01*
X34033333Y4300000D01*
X34071428Y4261905D01*
X34109523Y4185715D01*
X34109523Y4147620D01*
X34071428Y4071429D01*
X34033333Y4033334D01*
X33957142Y3995239D01*
X33804761Y3995239D01*
X33728571Y3957143D01*
X33690476Y3919048D01*
X33652380Y3842858D01*
X33652380Y3690477D01*
X33690476Y3614286D01*
X33728571Y3576191D01*
X33804761Y3538096D01*
X33957142Y3538096D01*
X34033333Y3576191D01*
X34071428Y3614286D01*
X34109523Y3690477D01*
X34109523Y3842858D01*
X34071428Y3919048D01*
X34033333Y3957143D01*
X33957142Y3995239D01*
G04 #@! TO.C,C16*
X41666562Y-1785714D02*
X41628467Y-1823809D01*
X41514181Y-1861904D01*
X41437990Y-1861904D01*
X41323705Y-1823809D01*
X41247514Y-1747619D01*
X41209419Y-1671428D01*
X41171324Y-1519047D01*
X41171324Y-1404761D01*
X41209419Y-1252380D01*
X41247514Y-1176190D01*
X41323705Y-1100000D01*
X41437990Y-1061904D01*
X41514181Y-1061904D01*
X41628467Y-1100000D01*
X41666562Y-1138095D01*
X42428467Y-1861904D02*
X41971324Y-1861904D01*
X42199895Y-1861904D02*
X42199895Y-1061904D01*
X42123705Y-1176190D01*
X42047514Y-1252380D01*
X41971324Y-1290476D01*
X43114181Y-1061904D02*
X42961800Y-1061904D01*
X42885609Y-1100000D01*
X42847514Y-1138095D01*
X42771324Y-1252380D01*
X42733228Y-1404761D01*
X42733228Y-1709523D01*
X42771324Y-1785714D01*
X42809419Y-1823809D01*
X42885609Y-1861904D01*
X43037990Y-1861904D01*
X43114181Y-1823809D01*
X43152276Y-1785714D01*
X43190371Y-1709523D01*
X43190371Y-1519047D01*
X43152276Y-1442857D01*
X43114181Y-1404761D01*
X43037990Y-1366666D01*
X42885609Y-1366666D01*
X42809419Y-1404761D01*
X42771324Y-1442857D01*
X42733228Y-1519047D01*
G04 #@! TO.C,C6*
X58185714Y-3333333D02*
X58223809Y-3371428D01*
X58261904Y-3485714D01*
X58261904Y-3561904D01*
X58223809Y-3676190D01*
X58147619Y-3752380D01*
X58071428Y-3790476D01*
X57919047Y-3828571D01*
X57804761Y-3828571D01*
X57652380Y-3790476D01*
X57576190Y-3752380D01*
X57500000Y-3676190D01*
X57461904Y-3561904D01*
X57461904Y-3485714D01*
X57500000Y-3371428D01*
X57538095Y-3333333D01*
X57461904Y-2647619D02*
X57461904Y-2800000D01*
X57500000Y-2876190D01*
X57538095Y-2914285D01*
X57652380Y-2990476D01*
X57804761Y-3028571D01*
X58109523Y-3028571D01*
X58185714Y-2990476D01*
X58223809Y-2952380D01*
X58261904Y-2876190D01*
X58261904Y-2723809D01*
X58223809Y-2647619D01*
X58185714Y-2609523D01*
X58109523Y-2571428D01*
X57919047Y-2571428D01*
X57842857Y-2609523D01*
X57804761Y-2647619D01*
X57766666Y-2723809D01*
X57766666Y-2876190D01*
X57804761Y-2952380D01*
X57842857Y-2990476D01*
X57919047Y-3028571D01*
G04 #@! TO.C,R12*
X32985714Y-4666364D02*
X32719047Y-4285412D01*
X32528571Y-4666364D02*
X32528571Y-3866364D01*
X32833333Y-3866364D01*
X32909523Y-3904460D01*
X32947619Y-3942555D01*
X32985714Y-4018745D01*
X32985714Y-4133031D01*
X32947619Y-4209221D01*
X32909523Y-4247317D01*
X32833333Y-4285412D01*
X32528571Y-4285412D01*
X33747619Y-4666364D02*
X33290476Y-4666364D01*
X33519047Y-4666364D02*
X33519047Y-3866364D01*
X33442857Y-3980650D01*
X33366666Y-4056840D01*
X33290476Y-4094936D01*
X34052380Y-3942555D02*
X34090476Y-3904460D01*
X34166666Y-3866364D01*
X34357142Y-3866364D01*
X34433333Y-3904460D01*
X34471428Y-3942555D01*
X34509523Y-4018745D01*
X34509523Y-4094936D01*
X34471428Y-4209221D01*
X34014285Y-4666364D01*
X34509523Y-4666364D01*
G04 #@! TO.C,R2*
X59361904Y-3333333D02*
X58980952Y-3600000D01*
X59361904Y-3790476D02*
X58561904Y-3790476D01*
X58561904Y-3485714D01*
X58600000Y-3409523D01*
X58638095Y-3371428D01*
X58714285Y-3333333D01*
X58828571Y-3333333D01*
X58904761Y-3371428D01*
X58942857Y-3409523D01*
X58980952Y-3485714D01*
X58980952Y-3790476D01*
X58638095Y-3028571D02*
X58600000Y-2990476D01*
X58561904Y-2914285D01*
X58561904Y-2723809D01*
X58600000Y-2647619D01*
X58638095Y-2609523D01*
X58714285Y-2571428D01*
X58790476Y-2571428D01*
X58904761Y-2609523D01*
X59361904Y-3066666D01*
X59361904Y-2571428D01*
D12*
G04 #@! TO.C,J2*
X15100000Y-850000D02*
X15100000Y-3100000D01*
X-100000Y-2600000D02*
X-2600000Y-2600000D01*
X-100000Y-3100000D02*
X-100000Y-2600000D01*
X1100000Y-3100000D02*
X1100000Y-5100000D01*
X10200000Y-3100000D02*
X3700000Y-3100000D01*
X-100000Y2600000D02*
X-100000Y3100000D01*
X-2600000Y-2600000D02*
X-2600000Y2600000D01*
X-100000Y3100000D02*
X200000Y3100000D01*
X15100000Y3100000D02*
X15100000Y2350000D01*
X3700000Y-3100000D02*
X3700000Y-5100000D01*
X15100000Y-3100000D02*
X13200000Y-3100000D01*
X-2600000Y2600000D02*
X-100000Y2600000D01*
X1100000Y-3100000D02*
X-100000Y-3100000D01*
X5800000Y3100000D02*
X15100000Y3100000D01*
G04 #@! TO.C,SW1*
X62600000Y3050000D02*
X62600000Y2950000D01*
X65800000Y3000000D02*
X65800000Y2900000D01*
X65800000Y4400000D02*
X62600000Y4400000D01*
X62600000Y1600000D02*
X65800000Y1600000D01*
G04 #@! TO.C,SW2*
X65800000Y-3050000D02*
X65800000Y-2950000D01*
X62600000Y-3000000D02*
X62600000Y-2900000D01*
X62600000Y-4400000D02*
X65800000Y-4400000D01*
X65800000Y-1600000D02*
X62600000Y-1600000D01*
G04 #@! TO.C,OLED1*
X52200000Y-4600000D02*
G75*
G03*
X52200000Y-4600000I-100000J0D01*
G01*
X56900000Y-4400000D02*
X52200000Y-4400000D01*
X52200000Y4400000D02*
X56900000Y4400000D01*
X56900000Y-4400000D02*
X56900000Y4400000D01*
X52200000Y-4400000D02*
X48900000Y-4400000D01*
X48900000Y-4400000D02*
X48900000Y4400000D01*
X54900000Y4400000D02*
X54900000Y-4400000D01*
X52200000Y4400000D02*
X48900000Y4400000D01*
X52100000Y-4400000D02*
X52100000Y4400000D01*
G04 #@! TO.C,U5*
X26510000Y-2310000D02*
X26035000Y-2310000D01*
X26510000Y-1835000D02*
X26510000Y-2310000D01*
X22290000Y1910000D02*
X22765000Y1910000D01*
X22290000Y1435000D02*
X22290000Y1910000D01*
X26510000Y1910000D02*
X26035000Y1910000D01*
X22290000Y-1835000D02*
X22290000Y-2310000D01*
X26510000Y1435000D02*
X26510000Y1910000D01*
G04 #@! TO.C,C13*
X56003524Y-1500573D02*
X56003524Y-2900573D01*
X56803524Y-1500573D02*
X56803524Y-2900573D01*
G04 #@! TO.C,R6*
X55797976Y-2898064D02*
X55797976Y-1498064D01*
X54997976Y-2898064D02*
X54997976Y-1498064D01*
G04 #@! TO.C,TH1*
X8700000Y4200000D02*
X7300000Y4200000D01*
X8700000Y3400000D02*
X7300000Y3400000D01*
G04 #@! TO.C,R13*
X35700000Y-200000D02*
X35700000Y-1600000D01*
X36500000Y-200000D02*
X36500000Y-1600000D01*
G04 #@! TO.C,R7*
X27700000Y600000D02*
X29100000Y600000D01*
X27700000Y-200000D02*
X29100000Y-200000D01*
G04 #@! TO.C,R4*
X55800585Y2298587D02*
X55800585Y898587D01*
X55000585Y2298587D02*
X55000585Y898587D01*
G04 #@! TO.C,R14*
X30501726Y-2601726D02*
X31901726Y-2601726D01*
X30501726Y-1801726D02*
X31901726Y-1801726D01*
G04 #@! TO.C,C5*
X59500000Y2600000D02*
X59500000Y4000000D01*
X60300000Y2600000D02*
X60300000Y4000000D01*
G04 #@! TO.C,C18*
X40893709Y3801441D02*
X40893709Y2401441D01*
X41693709Y3801441D02*
X41693709Y2401441D01*
G04 #@! TO.C,C19*
X35100000Y-350000D02*
X35100000Y1050000D01*
X34300000Y-350000D02*
X34300000Y1050000D01*
G04 #@! TO.C,C10*
X46900000Y-2200000D02*
X48300000Y-2200000D01*
X46900000Y-3000000D02*
X48300000Y-3000000D01*
G04 #@! TO.C,C26*
X25600000Y3700000D02*
X24200000Y3700000D01*
X25600000Y2900000D02*
X24200000Y2900000D01*
G04 #@! TO.C,R9*
X27700000Y-1600000D02*
X29100000Y-1600000D01*
X27700000Y-800000D02*
X29100000Y-800000D01*
D13*
G04 #@! TO.C,C11*
X46200000Y2600000D02*
X48000000Y2600000D01*
X46200000Y3400000D02*
X48000000Y3400000D01*
D12*
G04 #@! TO.C,R15*
X32700000Y-2600000D02*
X34100000Y-2600000D01*
X32700000Y-1800000D02*
X34100000Y-1800000D01*
G04 #@! TO.C,R1*
X61400000Y4000000D02*
X61400000Y2600000D01*
X60600000Y4000000D02*
X60600000Y2600000D01*
G04 #@! TO.C,R8*
X27700000Y-3600000D02*
X29100000Y-3600000D01*
X27700000Y-2800000D02*
X29100000Y-2800000D01*
G04 #@! TO.C,C17*
X42611224Y3793073D02*
X42611224Y2393073D01*
X43411224Y3793073D02*
X43411224Y2393073D01*
G04 #@! TO.C,C25*
X29100000Y-1800000D02*
X27700000Y-1800000D01*
X29100000Y-2600000D02*
X27700000Y-2600000D01*
G04 #@! TO.C,U2*
X64600000Y910000D02*
X66000000Y910000D01*
X64600000Y-910000D02*
X66190000Y-910000D01*
G04 #@! TO.C,C29*
X30700000Y750000D02*
X30700000Y-650000D01*
X29900000Y750000D02*
X29900000Y-650000D01*
G04 #@! TO.C,R3*
X46399675Y2300000D02*
X47799675Y2300000D01*
X46399675Y1500000D02*
X47799675Y1500000D01*
G04 #@! TO.C,U7*
X33110396Y1058787D02*
X31210396Y1058787D01*
X31710396Y-1261213D02*
X33110396Y-1261213D01*
G04 #@! TO.C,C27*
X29100000Y1600000D02*
X27700000Y1600000D01*
X29100000Y800000D02*
X27700000Y800000D01*
G04 #@! TO.C,C20*
X35100000Y3250000D02*
X35100000Y1850000D01*
X34300000Y3250000D02*
X34300000Y1850000D01*
G04 #@! TO.C,R10*
X32400000Y3400000D02*
X33800000Y3400000D01*
X32400000Y2600000D02*
X33800000Y2600000D01*
G04 #@! TO.C,C30*
X31905176Y-2814839D02*
X30505176Y-2814839D01*
X31905176Y-3614839D02*
X30505176Y-3614839D01*
G04 #@! TO.C,C7*
X48300000Y-3200000D02*
X46900000Y-3200000D01*
X48300000Y-4000000D02*
X46900000Y-4000000D01*
D13*
G04 #@! TO.C,C12*
X46200000Y3600000D02*
X48000000Y3600000D01*
X46200000Y4400000D02*
X48000000Y4400000D01*
G04 #@! TO.C,U6*
X35550000Y3650000D02*
X35550000Y2930000D01*
X38250000Y450000D02*
X38030000Y450000D01*
X35550000Y450000D02*
X35550000Y1170000D01*
X38250000Y3750000D02*
X38250000Y2930000D01*
X35550000Y3650000D02*
X35770000Y3650000D01*
X35770000Y450000D02*
X35550000Y450000D01*
X38250000Y1170000D02*
X38250000Y450000D01*
D12*
G04 #@! TO.C,R11*
X30900000Y3000000D02*
X30900000Y1600000D01*
X31700000Y3000000D02*
X31700000Y1600000D01*
G04 #@! TO.C,R5*
X55992876Y2300000D02*
X55992876Y900000D01*
X56792876Y2300000D02*
X56792876Y900000D01*
G04 #@! TO.C,C28*
X33802598Y1600000D02*
X32402598Y1600000D01*
X33802598Y2400000D02*
X32402598Y2400000D01*
G04 #@! TO.C,C16*
X41480848Y-2919372D02*
X42880848Y-2919372D01*
X41480848Y-2119372D02*
X42880848Y-2119372D01*
G04 #@! TO.C,C6*
X59500000Y-2600000D02*
X59500000Y-4000000D01*
X60300000Y-2600000D02*
X60300000Y-4000000D01*
G04 #@! TO.C,R12*
X34100000Y-3600000D02*
X32700000Y-3600000D01*
X34100000Y-2800000D02*
X32700000Y-2800000D01*
G04 #@! TO.C,R2*
X61400000Y-4000000D02*
X61400000Y-2600000D01*
X60600000Y-4000000D02*
X60600000Y-2600000D01*
G04 #@! TD*
M02*
