G04 #@! TF.GenerationSoftware,KiCad,Pcbnew,(5.99.0-3540-g0818bd05d)*
G04 #@! TF.CreationDate,2020-09-30T20:14:19-07:00*
G04 #@! TF.ProjectId,RT_USB_PD_Soldering_Iron,52545f55-5342-45f5-9044-5f536f6c6465,rev?*
G04 #@! TF.SameCoordinates,PX5f5e100PY7735940*
G04 #@! TF.FileFunction,Copper,L4,Bot*
G04 #@! TF.FilePolarity,Positive*
%FSLAX46Y46*%
G04 Gerber Fmt 4.6, Leading zero omitted, Abs format (unit mm)*
G04 Created by KiCad (PCBNEW (5.99.0-3540-g0818bd05d)) date 2020-09-30 20:14:19*
%MOMM*%
%LPD*%
G01*
G04 APERTURE LIST*
G04 #@! TA.AperFunction,ComponentPad*
%ADD10O,1.800000X1.000000*%
G04 #@! TD*
G04 #@! TA.AperFunction,ComponentPad*
%ADD11O,2.100000X1.000000*%
G04 #@! TD*
G04 #@! TA.AperFunction,SMDPad,CuDef*
%ADD12R,2.200000X2.100000*%
G04 #@! TD*
G04 #@! TA.AperFunction,SMDPad,CuDef*
%ADD13R,2.800000X2.100000*%
G04 #@! TD*
G04 #@! TA.AperFunction,SMDPad,CuDef*
%ADD14R,2.600000X2.700000*%
G04 #@! TD*
G04 #@! TA.AperFunction,SMDPad,CuDef*
%ADD15R,2.400000X0.740000*%
G04 #@! TD*
G04 #@! TA.AperFunction,ViaPad*
%ADD16C,0.800000*%
G04 #@! TD*
G04 #@! TA.AperFunction,ViaPad*
%ADD17C,0.560000*%
G04 #@! TD*
G04 #@! TA.AperFunction,ViaPad*
%ADD18C,1.000000*%
G04 #@! TD*
G04 #@! TA.AperFunction,ViaPad*
%ADD19C,0.700000*%
G04 #@! TD*
G04 #@! TA.AperFunction,Conductor*
%ADD20C,0.400000*%
G04 #@! TD*
G04 #@! TA.AperFunction,Conductor*
%ADD21C,0.254000*%
G04 #@! TD*
G04 #@! TA.AperFunction,Conductor*
%ADD22C,0.500000*%
G04 #@! TD*
G04 #@! TA.AperFunction,Conductor*
%ADD23C,0.203200*%
G04 #@! TD*
G04 #@! TA.AperFunction,Conductor*
%ADD24C,0.600000*%
G04 #@! TD*
G04 #@! TA.AperFunction,Conductor*
%ADD25C,0.750000*%
G04 #@! TD*
G04 #@! TA.AperFunction,Conductor*
%ADD26C,1.400000*%
G04 #@! TD*
G04 #@! TA.AperFunction,Conductor*
%ADD27C,0.300000*%
G04 #@! TD*
G04 APERTURE END LIST*
D10*
G04 #@! TO.P,J1,S1,SHIELD*
G04 #@! TO.N,GND*
X87880000Y4320000D03*
X87880000Y-4320000D03*
D11*
X83700000Y4320000D03*
X83700000Y-4320000D03*
G04 #@! TD*
D12*
G04 #@! TO.P,J2,G*
G04 #@! TO.N,GND*
X3000000Y-4050000D03*
G04 #@! TO.P,J2,S*
G04 #@! TO.N,/TIP_TC*
X5200000Y4050000D03*
G04 #@! TO.P,J2,SN*
X2100000Y4050000D03*
D13*
G04 #@! TO.P,J2,T*
G04 #@! TO.N,/HEATER*
X12800000Y-4050000D03*
D14*
G04 #@! TO.P,J2,TN*
X16800000Y750000D03*
G04 #@! TD*
G04 #@! TO.P,C16,1*
G04 #@! TO.N,/HEATER*
G04 #@! TA.AperFunction,SMDPad,CuDef*
G36*
G01*
X19937500Y-300000D02*
X19462500Y-300000D01*
G75*
G02*
X19225000Y-62500I0J237500D01*
G01*
X19225000Y512500D01*
G75*
G02*
X19462500Y750000I237500J0D01*
G01*
X19937500Y750000D01*
G75*
G02*
X20175000Y512500I0J-237500D01*
G01*
X20175000Y-62500D01*
G75*
G02*
X19937500Y-300000I-237500J0D01*
G01*
G37*
G04 #@! TD.AperFunction*
G04 #@! TO.P,C16,2*
G04 #@! TO.N,GND*
G04 #@! TA.AperFunction,SMDPad,CuDef*
G36*
G01*
X19937500Y1450000D02*
X19462500Y1450000D01*
G75*
G02*
X19225000Y1687500I0J237500D01*
G01*
X19225000Y2262500D01*
G75*
G02*
X19462500Y2500000I237500J0D01*
G01*
X19937500Y2500000D01*
G75*
G02*
X20175000Y2262500I0J-237500D01*
G01*
X20175000Y1687500D01*
G75*
G02*
X19937500Y1450000I-237500J0D01*
G01*
G37*
G04 #@! TD.AperFunction*
G04 #@! TD*
G04 #@! TO.P,C1,1*
G04 #@! TO.N,IN*
G04 #@! TA.AperFunction,SMDPad,CuDef*
G36*
G01*
X79432515Y-1195724D02*
X78957515Y-1195724D01*
G75*
G02*
X78720015Y-958224I0J237500D01*
G01*
X78720015Y-383224D01*
G75*
G02*
X78957515Y-145724I237500J0D01*
G01*
X79432515Y-145724D01*
G75*
G02*
X79670015Y-383224I0J-237500D01*
G01*
X79670015Y-958224D01*
G75*
G02*
X79432515Y-1195724I-237500J0D01*
G01*
G37*
G04 #@! TD.AperFunction*
G04 #@! TO.P,C1,2*
G04 #@! TO.N,GND*
G04 #@! TA.AperFunction,SMDPad,CuDef*
G36*
G01*
X79432515Y554276D02*
X78957515Y554276D01*
G75*
G02*
X78720015Y791776I0J237500D01*
G01*
X78720015Y1366776D01*
G75*
G02*
X78957515Y1604276I237500J0D01*
G01*
X79432515Y1604276D01*
G75*
G02*
X79670015Y1366776I0J-237500D01*
G01*
X79670015Y791776D01*
G75*
G02*
X79432515Y554276I-237500J0D01*
G01*
G37*
G04 #@! TD.AperFunction*
G04 #@! TD*
D15*
G04 #@! TO.P,J3,1,Pin_1*
G04 #@! TO.N,/NRST*
X58750000Y2170000D03*
G04 #@! TO.P,J3,2,Pin_2*
G04 #@! TO.N,/SWDIO*
X54850000Y2170000D03*
G04 #@! TO.P,J3,3,Pin_3*
G04 #@! TO.N,GND*
X58750000Y900000D03*
G04 #@! TO.P,J3,4,Pin_4*
G04 #@! TO.N,/SWCLK*
X54850000Y900000D03*
G04 #@! TO.P,J3,5,Pin_5*
G04 #@! TO.N,+3V3*
X58750000Y-370000D03*
G04 #@! TO.P,J3,6,Pin_6*
G04 #@! TO.N,/SWO*
X54850000Y-370000D03*
G04 #@! TD*
G04 #@! TO.P,R6,1*
G04 #@! TO.N,+3V3*
G04 #@! TA.AperFunction,SMDPad,CuDef*
G36*
G01*
X62482880Y319564D02*
X62112880Y319564D01*
G75*
G02*
X61977880Y454564I0J135000D01*
G01*
X61977880Y724564D01*
G75*
G02*
X62112880Y859564I135000J0D01*
G01*
X62482880Y859564D01*
G75*
G02*
X62617880Y724564I0J-135000D01*
G01*
X62617880Y454564D01*
G75*
G02*
X62482880Y319564I-135000J0D01*
G01*
G37*
G04 #@! TD.AperFunction*
G04 #@! TO.P,R6,2*
G04 #@! TO.N,/I2C1_SCL*
G04 #@! TA.AperFunction,SMDPad,CuDef*
G36*
G01*
X62482880Y1339564D02*
X62112880Y1339564D01*
G75*
G02*
X61977880Y1474564I0J135000D01*
G01*
X61977880Y1744564D01*
G75*
G02*
X62112880Y1879564I135000J0D01*
G01*
X62482880Y1879564D01*
G75*
G02*
X62617880Y1744564I0J-135000D01*
G01*
X62617880Y1474564D01*
G75*
G02*
X62482880Y1339564I-135000J0D01*
G01*
G37*
G04 #@! TD.AperFunction*
G04 #@! TD*
G04 #@! TO.P,C8,1*
G04 #@! TO.N,/BTN2*
G04 #@! TA.AperFunction,SMDPad,CuDef*
G36*
G01*
X67359311Y3692591D02*
X67359311Y3352591D01*
G75*
G02*
X67219311Y3212591I-140000J0D01*
G01*
X66939311Y3212591D01*
G75*
G02*
X66799311Y3352591I0J140000D01*
G01*
X66799311Y3692591D01*
G75*
G02*
X66939311Y3832591I140000J0D01*
G01*
X67219311Y3832591D01*
G75*
G02*
X67359311Y3692591I0J-140000D01*
G01*
G37*
G04 #@! TD.AperFunction*
G04 #@! TO.P,C8,2*
G04 #@! TO.N,GND*
G04 #@! TA.AperFunction,SMDPad,CuDef*
G36*
G01*
X66399311Y3692591D02*
X66399311Y3352591D01*
G75*
G02*
X66259311Y3212591I-140000J0D01*
G01*
X65979311Y3212591D01*
G75*
G02*
X65839311Y3352591I0J140000D01*
G01*
X65839311Y3692591D01*
G75*
G02*
X65979311Y3832591I140000J0D01*
G01*
X66259311Y3832591D01*
G75*
G02*
X66399311Y3692591I0J-140000D01*
G01*
G37*
G04 #@! TD.AperFunction*
G04 #@! TD*
G04 #@! TO.P,R4,1*
G04 #@! TO.N,/PVD_IN*
G04 #@! TA.AperFunction,SMDPad,CuDef*
G36*
G01*
X33515000Y-2024522D02*
X33885000Y-2024522D01*
G75*
G02*
X34020000Y-2159522I0J-135000D01*
G01*
X34020000Y-2429522D01*
G75*
G02*
X33885000Y-2564522I-135000J0D01*
G01*
X33515000Y-2564522D01*
G75*
G02*
X33380000Y-2429522I0J135000D01*
G01*
X33380000Y-2159522D01*
G75*
G02*
X33515000Y-2024522I135000J0D01*
G01*
G37*
G04 #@! TD.AperFunction*
G04 #@! TO.P,R4,2*
G04 #@! TO.N,GND*
G04 #@! TA.AperFunction,SMDPad,CuDef*
G36*
G01*
X33515000Y-3044522D02*
X33885000Y-3044522D01*
G75*
G02*
X34020000Y-3179522I0J-135000D01*
G01*
X34020000Y-3449522D01*
G75*
G02*
X33885000Y-3584522I-135000J0D01*
G01*
X33515000Y-3584522D01*
G75*
G02*
X33380000Y-3449522I0J135000D01*
G01*
X33380000Y-3179522D01*
G75*
G02*
X33515000Y-3044522I135000J0D01*
G01*
G37*
G04 #@! TD.AperFunction*
G04 #@! TD*
G04 #@! TO.P,U1,1,EN*
G04 #@! TO.N,Net-(R3-Pad2)*
G04 #@! TA.AperFunction,SMDPad,CuDef*
G36*
G01*
X77275000Y-3325000D02*
X77075000Y-3325000D01*
G75*
G02*
X76975000Y-3225000I0J100000D01*
G01*
X76975000Y-1800000D01*
G75*
G02*
X77075000Y-1700000I100000J0D01*
G01*
X77275000Y-1700000D01*
G75*
G02*
X77375000Y-1800000I0J-100000D01*
G01*
X77375000Y-3225000D01*
G75*
G02*
X77275000Y-3325000I-100000J0D01*
G01*
G37*
G04 #@! TD.AperFunction*
G04 #@! TO.P,U1,2,FLG*
G04 #@! TO.N,Net-(R1-Pad2)*
G04 #@! TA.AperFunction,SMDPad,CuDef*
G36*
G01*
X76625000Y-3325000D02*
X76425000Y-3325000D01*
G75*
G02*
X76325000Y-3225000I0J100000D01*
G01*
X76325000Y-1800000D01*
G75*
G02*
X76425000Y-1700000I100000J0D01*
G01*
X76625000Y-1700000D01*
G75*
G02*
X76725000Y-1800000I0J-100000D01*
G01*
X76725000Y-3225000D01*
G75*
G02*
X76625000Y-3325000I-100000J0D01*
G01*
G37*
G04 #@! TD.AperFunction*
G04 #@! TO.P,U1,3,IN*
G04 #@! TO.N,IN*
G04 #@! TA.AperFunction,SMDPad,CuDef*
G36*
G01*
X75975000Y-3325000D02*
X75775000Y-3325000D01*
G75*
G02*
X75675000Y-3225000I0J100000D01*
G01*
X75675000Y-1800000D01*
G75*
G02*
X75775000Y-1700000I100000J0D01*
G01*
X75975000Y-1700000D01*
G75*
G02*
X76075000Y-1800000I0J-100000D01*
G01*
X76075000Y-3225000D01*
G75*
G02*
X75975000Y-3325000I-100000J0D01*
G01*
G37*
G04 #@! TD.AperFunction*
G04 #@! TO.P,U1,4,OUT*
G04 #@! TO.N,+3V3*
G04 #@! TA.AperFunction,SMDPad,CuDef*
G36*
G01*
X75325000Y-3325000D02*
X75125000Y-3325000D01*
G75*
G02*
X75025000Y-3225000I0J100000D01*
G01*
X75025000Y-1800000D01*
G75*
G02*
X75125000Y-1700000I100000J0D01*
G01*
X75325000Y-1700000D01*
G75*
G02*
X75425000Y-1800000I0J-100000D01*
G01*
X75425000Y-3225000D01*
G75*
G02*
X75325000Y-3325000I-100000J0D01*
G01*
G37*
G04 #@! TD.AperFunction*
G04 #@! TO.P,U1,5,GND*
G04 #@! TO.N,GND*
G04 #@! TA.AperFunction,SMDPad,CuDef*
G36*
G01*
X75325000Y900000D02*
X75125000Y900000D01*
G75*
G02*
X75025000Y1000000I0J100000D01*
G01*
X75025000Y2425000D01*
G75*
G02*
X75125000Y2525000I100000J0D01*
G01*
X75325000Y2525000D01*
G75*
G02*
X75425000Y2425000I0J-100000D01*
G01*
X75425000Y1000000D01*
G75*
G02*
X75325000Y900000I-100000J0D01*
G01*
G37*
G04 #@! TD.AperFunction*
G04 #@! TO.P,U1,6,GND*
G04 #@! TA.AperFunction,SMDPad,CuDef*
G36*
G01*
X75975000Y900000D02*
X75775000Y900000D01*
G75*
G02*
X75675000Y1000000I0J100000D01*
G01*
X75675000Y2425000D01*
G75*
G02*
X75775000Y2525000I100000J0D01*
G01*
X75975000Y2525000D01*
G75*
G02*
X76075000Y2425000I0J-100000D01*
G01*
X76075000Y1000000D01*
G75*
G02*
X75975000Y900000I-100000J0D01*
G01*
G37*
G04 #@! TD.AperFunction*
G04 #@! TO.P,U1,7,GND*
G04 #@! TA.AperFunction,SMDPad,CuDef*
G36*
G01*
X76625000Y900000D02*
X76425000Y900000D01*
G75*
G02*
X76325000Y1000000I0J100000D01*
G01*
X76325000Y2425000D01*
G75*
G02*
X76425000Y2525000I100000J0D01*
G01*
X76625000Y2525000D01*
G75*
G02*
X76725000Y2425000I0J-100000D01*
G01*
X76725000Y1000000D01*
G75*
G02*
X76625000Y900000I-100000J0D01*
G01*
G37*
G04 #@! TD.AperFunction*
G04 #@! TO.P,U1,8,GND*
G04 #@! TA.AperFunction,SMDPad,CuDef*
G36*
G01*
X77275000Y900000D02*
X77075000Y900000D01*
G75*
G02*
X76975000Y1000000I0J100000D01*
G01*
X76975000Y2425000D01*
G75*
G02*
X77075000Y2525000I100000J0D01*
G01*
X77275000Y2525000D01*
G75*
G02*
X77375000Y2425000I0J-100000D01*
G01*
X77375000Y1000000D01*
G75*
G02*
X77275000Y900000I-100000J0D01*
G01*
G37*
G04 #@! TD.AperFunction*
G04 #@! TD*
G04 #@! TO.P,R1,1*
G04 #@! TO.N,IN*
G04 #@! TA.AperFunction,SMDPad,CuDef*
G36*
G01*
X80020523Y-2342002D02*
X80390523Y-2342002D01*
G75*
G02*
X80525523Y-2477002I0J-135000D01*
G01*
X80525523Y-2747002D01*
G75*
G02*
X80390523Y-2882002I-135000J0D01*
G01*
X80020523Y-2882002D01*
G75*
G02*
X79885523Y-2747002I0J135000D01*
G01*
X79885523Y-2477002D01*
G75*
G02*
X80020523Y-2342002I135000J0D01*
G01*
G37*
G04 #@! TD.AperFunction*
G04 #@! TO.P,R1,2*
G04 #@! TO.N,Net-(R1-Pad2)*
G04 #@! TA.AperFunction,SMDPad,CuDef*
G36*
G01*
X80020523Y-3362002D02*
X80390523Y-3362002D01*
G75*
G02*
X80525523Y-3497002I0J-135000D01*
G01*
X80525523Y-3767002D01*
G75*
G02*
X80390523Y-3902002I-135000J0D01*
G01*
X80020523Y-3902002D01*
G75*
G02*
X79885523Y-3767002I0J135000D01*
G01*
X79885523Y-3497002D01*
G75*
G02*
X80020523Y-3362002I135000J0D01*
G01*
G37*
G04 #@! TD.AperFunction*
G04 #@! TD*
G04 #@! TO.P,R18,1*
G04 #@! TO.N,Net-(R17-Pad2)*
G04 #@! TA.AperFunction,SMDPad,CuDef*
G36*
G01*
X31035000Y-980000D02*
X30665000Y-980000D01*
G75*
G02*
X30530000Y-845000I0J135000D01*
G01*
X30530000Y-575000D01*
G75*
G02*
X30665000Y-440000I135000J0D01*
G01*
X31035000Y-440000D01*
G75*
G02*
X31170000Y-575000I0J-135000D01*
G01*
X31170000Y-845000D01*
G75*
G02*
X31035000Y-980000I-135000J0D01*
G01*
G37*
G04 #@! TD.AperFunction*
G04 #@! TO.P,R18,2*
G04 #@! TO.N,Net-(R16-Pad1)*
G04 #@! TA.AperFunction,SMDPad,CuDef*
G36*
G01*
X31035000Y40000D02*
X30665000Y40000D01*
G75*
G02*
X30530000Y175000I0J135000D01*
G01*
X30530000Y445000D01*
G75*
G02*
X30665000Y580000I135000J0D01*
G01*
X31035000Y580000D01*
G75*
G02*
X31170000Y445000I0J-135000D01*
G01*
X31170000Y175000D01*
G75*
G02*
X31035000Y40000I-135000J0D01*
G01*
G37*
G04 #@! TD.AperFunction*
G04 #@! TD*
G04 #@! TO.P,C2,1*
G04 #@! TO.N,+3V3*
G04 #@! TA.AperFunction,SMDPad,CuDef*
G36*
G01*
X73339318Y-1493809D02*
X72864318Y-1493809D01*
G75*
G02*
X72626818Y-1256309I0J237500D01*
G01*
X72626818Y-681309D01*
G75*
G02*
X72864318Y-443809I237500J0D01*
G01*
X73339318Y-443809D01*
G75*
G02*
X73576818Y-681309I0J-237500D01*
G01*
X73576818Y-1256309D01*
G75*
G02*
X73339318Y-1493809I-237500J0D01*
G01*
G37*
G04 #@! TD.AperFunction*
G04 #@! TO.P,C2,2*
G04 #@! TO.N,GND*
G04 #@! TA.AperFunction,SMDPad,CuDef*
G36*
G01*
X73339318Y256191D02*
X72864318Y256191D01*
G75*
G02*
X72626818Y493691I0J237500D01*
G01*
X72626818Y1068691D01*
G75*
G02*
X72864318Y1306191I237500J0D01*
G01*
X73339318Y1306191D01*
G75*
G02*
X73576818Y1068691I0J-237500D01*
G01*
X73576818Y493691D01*
G75*
G02*
X73339318Y256191I-237500J0D01*
G01*
G37*
G04 #@! TD.AperFunction*
G04 #@! TD*
G04 #@! TO.P,C6,1*
G04 #@! TO.N,+3V3*
G04 #@! TA.AperFunction,SMDPad,CuDef*
G36*
G01*
X67070000Y-960000D02*
X66730000Y-960000D01*
G75*
G02*
X66590000Y-820000I0J140000D01*
G01*
X66590000Y-540000D01*
G75*
G02*
X66730000Y-400000I140000J0D01*
G01*
X67070000Y-400000D01*
G75*
G02*
X67210000Y-540000I0J-140000D01*
G01*
X67210000Y-820000D01*
G75*
G02*
X67070000Y-960000I-140000J0D01*
G01*
G37*
G04 #@! TD.AperFunction*
G04 #@! TO.P,C6,2*
G04 #@! TO.N,GND*
G04 #@! TA.AperFunction,SMDPad,CuDef*
G36*
G01*
X67070000Y0D02*
X66730000Y0D01*
G75*
G02*
X66590000Y140000I0J140000D01*
G01*
X66590000Y420000D01*
G75*
G02*
X66730000Y560000I140000J0D01*
G01*
X67070000Y560000D01*
G75*
G02*
X67210000Y420000I0J-140000D01*
G01*
X67210000Y140000D01*
G75*
G02*
X67070000Y0I-140000J0D01*
G01*
G37*
G04 #@! TD.AperFunction*
G04 #@! TD*
G04 #@! TO.P,C7,1*
G04 #@! TO.N,+3V3*
G04 #@! TA.AperFunction,SMDPad,CuDef*
G36*
G01*
X65470000Y-960000D02*
X65130000Y-960000D01*
G75*
G02*
X64990000Y-820000I0J140000D01*
G01*
X64990000Y-540000D01*
G75*
G02*
X65130000Y-400000I140000J0D01*
G01*
X65470000Y-400000D01*
G75*
G02*
X65610000Y-540000I0J-140000D01*
G01*
X65610000Y-820000D01*
G75*
G02*
X65470000Y-960000I-140000J0D01*
G01*
G37*
G04 #@! TD.AperFunction*
G04 #@! TO.P,C7,2*
G04 #@! TO.N,GND*
G04 #@! TA.AperFunction,SMDPad,CuDef*
G36*
G01*
X65470000Y0D02*
X65130000Y0D01*
G75*
G02*
X64990000Y140000I0J140000D01*
G01*
X64990000Y420000D01*
G75*
G02*
X65130000Y560000I140000J0D01*
G01*
X65470000Y560000D01*
G75*
G02*
X65610000Y420000I0J-140000D01*
G01*
X65610000Y140000D01*
G75*
G02*
X65470000Y0I-140000J0D01*
G01*
G37*
G04 #@! TD.AperFunction*
G04 #@! TD*
G04 #@! TO.P,C10,1*
G04 #@! TO.N,Net-(C10-Pad1)*
G04 #@! TA.AperFunction,SMDPad,CuDef*
G36*
G01*
X70970000Y-260000D02*
X70630000Y-260000D01*
G75*
G02*
X70490000Y-120000I0J140000D01*
G01*
X70490000Y160000D01*
G75*
G02*
X70630000Y300000I140000J0D01*
G01*
X70970000Y300000D01*
G75*
G02*
X71110000Y160000I0J-140000D01*
G01*
X71110000Y-120000D01*
G75*
G02*
X70970000Y-260000I-140000J0D01*
G01*
G37*
G04 #@! TD.AperFunction*
G04 #@! TO.P,C10,2*
G04 #@! TO.N,GND*
G04 #@! TA.AperFunction,SMDPad,CuDef*
G36*
G01*
X70970000Y700000D02*
X70630000Y700000D01*
G75*
G02*
X70490000Y840000I0J140000D01*
G01*
X70490000Y1120000D01*
G75*
G02*
X70630000Y1260000I140000J0D01*
G01*
X70970000Y1260000D01*
G75*
G02*
X71110000Y1120000I0J-140000D01*
G01*
X71110000Y840000D01*
G75*
G02*
X70970000Y700000I-140000J0D01*
G01*
G37*
G04 #@! TD.AperFunction*
G04 #@! TD*
G04 #@! TO.P,C15,1*
G04 #@! TO.N,IN*
G04 #@! TA.AperFunction,SMDPad,CuDef*
G36*
G01*
X23200000Y-3037500D02*
X23200000Y-2562500D01*
G75*
G02*
X23437500Y-2325000I237500J0D01*
G01*
X24012500Y-2325000D01*
G75*
G02*
X24250000Y-2562500I0J-237500D01*
G01*
X24250000Y-3037500D01*
G75*
G02*
X24012500Y-3275000I-237500J0D01*
G01*
X23437500Y-3275000D01*
G75*
G02*
X23200000Y-3037500I0J237500D01*
G01*
G37*
G04 #@! TD.AperFunction*
G04 #@! TO.P,C15,2*
G04 #@! TO.N,GND*
G04 #@! TA.AperFunction,SMDPad,CuDef*
G36*
G01*
X24950000Y-3037500D02*
X24950000Y-2562500D01*
G75*
G02*
X25187500Y-2325000I237500J0D01*
G01*
X25762500Y-2325000D01*
G75*
G02*
X26000000Y-2562500I0J-237500D01*
G01*
X26000000Y-3037500D01*
G75*
G02*
X25762500Y-3275000I-237500J0D01*
G01*
X25187500Y-3275000D01*
G75*
G02*
X24950000Y-3037500I0J237500D01*
G01*
G37*
G04 #@! TD.AperFunction*
G04 #@! TD*
G04 #@! TO.P,R5,1*
G04 #@! TO.N,GND*
G04 #@! TA.AperFunction,SMDPad,CuDef*
G36*
G01*
X66580000Y1985000D02*
X66580000Y1615000D01*
G75*
G02*
X66445000Y1480000I-135000J0D01*
G01*
X66175000Y1480000D01*
G75*
G02*
X66040000Y1615000I0J135000D01*
G01*
X66040000Y1985000D01*
G75*
G02*
X66175000Y2120000I135000J0D01*
G01*
X66445000Y2120000D01*
G75*
G02*
X66580000Y1985000I0J-135000D01*
G01*
G37*
G04 #@! TD.AperFunction*
G04 #@! TO.P,R5,2*
G04 #@! TO.N,Net-(R5-Pad2)*
G04 #@! TA.AperFunction,SMDPad,CuDef*
G36*
G01*
X65560000Y1985000D02*
X65560000Y1615000D01*
G75*
G02*
X65425000Y1480000I-135000J0D01*
G01*
X65155000Y1480000D01*
G75*
G02*
X65020000Y1615000I0J135000D01*
G01*
X65020000Y1985000D01*
G75*
G02*
X65155000Y2120000I135000J0D01*
G01*
X65425000Y2120000D01*
G75*
G02*
X65560000Y1985000I0J-135000D01*
G01*
G37*
G04 #@! TD.AperFunction*
G04 #@! TD*
G04 #@! TO.P,R2,1*
G04 #@! TO.N,IN*
G04 #@! TA.AperFunction,SMDPad,CuDef*
G36*
G01*
X36085000Y-3582168D02*
X35715000Y-3582168D01*
G75*
G02*
X35580000Y-3447168I0J135000D01*
G01*
X35580000Y-3177168D01*
G75*
G02*
X35715000Y-3042168I135000J0D01*
G01*
X36085000Y-3042168D01*
G75*
G02*
X36220000Y-3177168I0J-135000D01*
G01*
X36220000Y-3447168D01*
G75*
G02*
X36085000Y-3582168I-135000J0D01*
G01*
G37*
G04 #@! TD.AperFunction*
G04 #@! TO.P,R2,2*
G04 #@! TO.N,/PVD_IN*
G04 #@! TA.AperFunction,SMDPad,CuDef*
G36*
G01*
X36085000Y-2562168D02*
X35715000Y-2562168D01*
G75*
G02*
X35580000Y-2427168I0J135000D01*
G01*
X35580000Y-2157168D01*
G75*
G02*
X35715000Y-2022168I135000J0D01*
G01*
X36085000Y-2022168D01*
G75*
G02*
X36220000Y-2157168I0J-135000D01*
G01*
X36220000Y-2427168D01*
G75*
G02*
X36085000Y-2562168I-135000J0D01*
G01*
G37*
G04 #@! TD.AperFunction*
G04 #@! TD*
G04 #@! TO.P,U5,1,VDD*
G04 #@! TO.N,+3V3*
G04 #@! TA.AperFunction,SMDPad,CuDef*
G36*
G01*
X47248699Y-2514563D02*
X47160311Y-2426175D01*
G75*
G02*
X47160311Y-2337787I44194J44194D01*
G01*
X47690641Y-1807457D01*
G75*
G02*
X47779029Y-1807457I44194J-44194D01*
G01*
X47867417Y-1895845D01*
G75*
G02*
X47867417Y-1984233I-44194J-44194D01*
G01*
X47337087Y-2514563D01*
G75*
G02*
X47248699Y-2514563I-44194J44194D01*
G01*
G37*
G04 #@! TD.AperFunction*
G04 #@! TO.P,U5,2,PF0-OSC_IN*
G04 #@! TO.N,/OSC_IN*
G04 #@! TA.AperFunction,SMDPad,CuDef*
G36*
G01*
X46895146Y-2161009D02*
X46806758Y-2072621D01*
G75*
G02*
X46806758Y-1984233I44194J44194D01*
G01*
X47337088Y-1453903D01*
G75*
G02*
X47425476Y-1453903I44194J-44194D01*
G01*
X47513864Y-1542291D01*
G75*
G02*
X47513864Y-1630679I-44194J-44194D01*
G01*
X46983534Y-2161009D01*
G75*
G02*
X46895146Y-2161009I-44194J44194D01*
G01*
G37*
G04 #@! TD.AperFunction*
G04 #@! TO.P,U5,3,PF1-OSC_OUT*
G04 #@! TO.N,/OSC_OUT*
G04 #@! TA.AperFunction,SMDPad,CuDef*
G36*
G01*
X46541592Y-1807456D02*
X46453204Y-1719068D01*
G75*
G02*
X46453204Y-1630680I44194J44194D01*
G01*
X46983534Y-1100350D01*
G75*
G02*
X47071922Y-1100350I44194J-44194D01*
G01*
X47160310Y-1188738D01*
G75*
G02*
X47160310Y-1277126I-44194J-44194D01*
G01*
X46629980Y-1807456D01*
G75*
G02*
X46541592Y-1807456I-44194J44194D01*
G01*
G37*
G04 #@! TD.AperFunction*
G04 #@! TO.P,U5,4,PG10-NRST*
G04 #@! TO.N,/NRST*
G04 #@! TA.AperFunction,SMDPad,CuDef*
G36*
G01*
X46188039Y-1453902D02*
X46099651Y-1365514D01*
G75*
G02*
X46099651Y-1277126I44194J44194D01*
G01*
X46629981Y-746796D01*
G75*
G02*
X46718369Y-746796I44194J-44194D01*
G01*
X46806757Y-835184D01*
G75*
G02*
X46806757Y-923572I-44194J-44194D01*
G01*
X46276427Y-1453902D01*
G75*
G02*
X46188039Y-1453902I-44194J44194D01*
G01*
G37*
G04 #@! TD.AperFunction*
G04 #@! TO.P,U5,5,PA0*
G04 #@! TO.N,/TEMP_SENS*
G04 #@! TA.AperFunction,SMDPad,CuDef*
G36*
G01*
X45834486Y-1100349D02*
X45746098Y-1011961D01*
G75*
G02*
X45746098Y-923573I44194J44194D01*
G01*
X46276428Y-393243D01*
G75*
G02*
X46364816Y-393243I44194J-44194D01*
G01*
X46453204Y-481631D01*
G75*
G02*
X46453204Y-570019I-44194J-44194D01*
G01*
X45922874Y-1100349D01*
G75*
G02*
X45834486Y-1100349I-44194J44194D01*
G01*
G37*
G04 #@! TD.AperFunction*
G04 #@! TO.P,U5,6,PA1*
G04 #@! TO.N,/VSENSE*
G04 #@! TA.AperFunction,SMDPad,CuDef*
G36*
G01*
X45480932Y-746796D02*
X45392544Y-658408D01*
G75*
G02*
X45392544Y-570020I44194J44194D01*
G01*
X45922874Y-39690D01*
G75*
G02*
X46011262Y-39690I44194J-44194D01*
G01*
X46099650Y-128078D01*
G75*
G02*
X46099650Y-216466I-44194J-44194D01*
G01*
X45569320Y-746796D01*
G75*
G02*
X45480932Y-746796I-44194J44194D01*
G01*
G37*
G04 #@! TD.AperFunction*
G04 #@! TO.P,U5,7,PA2*
G04 #@! TO.N,/PVD_IN*
G04 #@! TA.AperFunction,SMDPad,CuDef*
G36*
G01*
X45127379Y-393242D02*
X45038991Y-304854D01*
G75*
G02*
X45038991Y-216466I44194J44194D01*
G01*
X45569321Y313864D01*
G75*
G02*
X45657709Y313864I44194J-44194D01*
G01*
X45746097Y225476D01*
G75*
G02*
X45746097Y137088I-44194J-44194D01*
G01*
X45215767Y-393242D01*
G75*
G02*
X45127379Y-393242I-44194J44194D01*
G01*
G37*
G04 #@! TD.AperFunction*
G04 #@! TO.P,U5,8,PA3*
G04 #@! TO.N,/INT0*
G04 #@! TA.AperFunction,SMDPad,CuDef*
G36*
G01*
X44773825Y-39689D02*
X44685437Y48699D01*
G75*
G02*
X44685437Y137087I44194J44194D01*
G01*
X45215767Y667417D01*
G75*
G02*
X45304155Y667417I44194J-44194D01*
G01*
X45392543Y579029D01*
G75*
G02*
X45392543Y490641I-44194J-44194D01*
G01*
X44862213Y-39689D01*
G75*
G02*
X44773825Y-39689I-44194J44194D01*
G01*
G37*
G04 #@! TD.AperFunction*
G04 #@! TO.P,U5,9,PA4*
G04 #@! TO.N,/SPI1_NSS*
G04 #@! TA.AperFunction,SMDPad,CuDef*
G36*
G01*
X45215767Y932583D02*
X44685437Y1462913D01*
G75*
G02*
X44685437Y1551301I44194J44194D01*
G01*
X44773825Y1639689D01*
G75*
G02*
X44862213Y1639689I44194J-44194D01*
G01*
X45392543Y1109359D01*
G75*
G02*
X45392543Y1020971I-44194J-44194D01*
G01*
X45304155Y932583D01*
G75*
G02*
X45215767Y932583I-44194J44194D01*
G01*
G37*
G04 #@! TD.AperFunction*
G04 #@! TO.P,U5,10,PA5*
G04 #@! TO.N,/SPI1_SCK*
G04 #@! TA.AperFunction,SMDPad,CuDef*
G36*
G01*
X45569321Y1286136D02*
X45038991Y1816466D01*
G75*
G02*
X45038991Y1904854I44194J44194D01*
G01*
X45127379Y1993242D01*
G75*
G02*
X45215767Y1993242I44194J-44194D01*
G01*
X45746097Y1462912D01*
G75*
G02*
X45746097Y1374524I-44194J-44194D01*
G01*
X45657709Y1286136D01*
G75*
G02*
X45569321Y1286136I-44194J44194D01*
G01*
G37*
G04 #@! TD.AperFunction*
G04 #@! TO.P,U5,11,PA6*
G04 #@! TO.N,/SPI1_MISO*
G04 #@! TA.AperFunction,SMDPad,CuDef*
G36*
G01*
X45922874Y1639690D02*
X45392544Y2170020D01*
G75*
G02*
X45392544Y2258408I44194J44194D01*
G01*
X45480932Y2346796D01*
G75*
G02*
X45569320Y2346796I44194J-44194D01*
G01*
X46099650Y1816466D01*
G75*
G02*
X46099650Y1728078I-44194J-44194D01*
G01*
X46011262Y1639690D01*
G75*
G02*
X45922874Y1639690I-44194J44194D01*
G01*
G37*
G04 #@! TD.AperFunction*
G04 #@! TO.P,U5,12,PA7*
G04 #@! TO.N,/SPI1_MOSI*
G04 #@! TA.AperFunction,SMDPad,CuDef*
G36*
G01*
X46276428Y1993243D02*
X45746098Y2523573D01*
G75*
G02*
X45746098Y2611961I44194J44194D01*
G01*
X45834486Y2700349D01*
G75*
G02*
X45922874Y2700349I44194J-44194D01*
G01*
X46453204Y2170019D01*
G75*
G02*
X46453204Y2081631I-44194J-44194D01*
G01*
X46364816Y1993243D01*
G75*
G02*
X46276428Y1993243I-44194J44194D01*
G01*
G37*
G04 #@! TD.AperFunction*
G04 #@! TO.P,U5,13,PB0*
G04 #@! TO.N,/HEAT_ON*
G04 #@! TA.AperFunction,SMDPad,CuDef*
G36*
G01*
X46629981Y2346796D02*
X46099651Y2877126D01*
G75*
G02*
X46099651Y2965514I44194J44194D01*
G01*
X46188039Y3053902D01*
G75*
G02*
X46276427Y3053902I44194J-44194D01*
G01*
X46806757Y2523572D01*
G75*
G02*
X46806757Y2435184I-44194J-44194D01*
G01*
X46718369Y2346796D01*
G75*
G02*
X46629981Y2346796I-44194J44194D01*
G01*
G37*
G04 #@! TD.AperFunction*
G04 #@! TO.P,U5,14,VSSA*
G04 #@! TO.N,GND*
G04 #@! TA.AperFunction,SMDPad,CuDef*
G36*
G01*
X46983534Y2700350D02*
X46453204Y3230680D01*
G75*
G02*
X46453204Y3319068I44194J44194D01*
G01*
X46541592Y3407456D01*
G75*
G02*
X46629980Y3407456I44194J-44194D01*
G01*
X47160310Y2877126D01*
G75*
G02*
X47160310Y2788738I-44194J-44194D01*
G01*
X47071922Y2700350D01*
G75*
G02*
X46983534Y2700350I-44194J44194D01*
G01*
G37*
G04 #@! TD.AperFunction*
G04 #@! TO.P,U5,15,VDDA*
G04 #@! TO.N,+3V3*
G04 #@! TA.AperFunction,SMDPad,CuDef*
G36*
G01*
X47337088Y3053903D02*
X46806758Y3584233D01*
G75*
G02*
X46806758Y3672621I44194J44194D01*
G01*
X46895146Y3761009D01*
G75*
G02*
X46983534Y3761009I44194J-44194D01*
G01*
X47513864Y3230679D01*
G75*
G02*
X47513864Y3142291I-44194J-44194D01*
G01*
X47425476Y3053903D01*
G75*
G02*
X47337088Y3053903I-44194J44194D01*
G01*
G37*
G04 #@! TD.AperFunction*
G04 #@! TO.P,U5,16,VSS*
G04 #@! TO.N,GND*
G04 #@! TA.AperFunction,SMDPad,CuDef*
G36*
G01*
X47690641Y3407457D02*
X47160311Y3937787D01*
G75*
G02*
X47160311Y4026175I44194J44194D01*
G01*
X47248699Y4114563D01*
G75*
G02*
X47337087Y4114563I44194J-44194D01*
G01*
X47867417Y3584233D01*
G75*
G02*
X47867417Y3495845I-44194J-44194D01*
G01*
X47779029Y3407457D01*
G75*
G02*
X47690641Y3407457I-44194J44194D01*
G01*
G37*
G04 #@! TD.AperFunction*
G04 #@! TO.P,U5,17,VDD*
G04 #@! TO.N,+3V3*
G04 #@! TA.AperFunction,SMDPad,CuDef*
G36*
G01*
X48220971Y3407457D02*
X48132583Y3495845D01*
G75*
G02*
X48132583Y3584233I44194J44194D01*
G01*
X48662913Y4114563D01*
G75*
G02*
X48751301Y4114563I44194J-44194D01*
G01*
X48839689Y4026175D01*
G75*
G02*
X48839689Y3937787I-44194J-44194D01*
G01*
X48309359Y3407457D01*
G75*
G02*
X48220971Y3407457I-44194J44194D01*
G01*
G37*
G04 #@! TD.AperFunction*
G04 #@! TO.P,U5,18,PA8*
G04 #@! TO.N,/BTN2*
G04 #@! TA.AperFunction,SMDPad,CuDef*
G36*
G01*
X48574524Y3053903D02*
X48486136Y3142291D01*
G75*
G02*
X48486136Y3230679I44194J44194D01*
G01*
X49016466Y3761009D01*
G75*
G02*
X49104854Y3761009I44194J-44194D01*
G01*
X49193242Y3672621D01*
G75*
G02*
X49193242Y3584233I-44194J-44194D01*
G01*
X48662912Y3053903D01*
G75*
G02*
X48574524Y3053903I-44194J44194D01*
G01*
G37*
G04 #@! TD.AperFunction*
G04 #@! TO.P,U5,19,PA9*
G04 #@! TO.N,GND*
G04 #@! TA.AperFunction,SMDPad,CuDef*
G36*
G01*
X48928078Y2700350D02*
X48839690Y2788738D01*
G75*
G02*
X48839690Y2877126I44194J44194D01*
G01*
X49370020Y3407456D01*
G75*
G02*
X49458408Y3407456I44194J-44194D01*
G01*
X49546796Y3319068D01*
G75*
G02*
X49546796Y3230680I-44194J-44194D01*
G01*
X49016466Y2700350D01*
G75*
G02*
X48928078Y2700350I-44194J44194D01*
G01*
G37*
G04 #@! TD.AperFunction*
G04 #@! TO.P,U5,20,PA10*
G04 #@! TA.AperFunction,SMDPad,CuDef*
G36*
G01*
X49281631Y2346796D02*
X49193243Y2435184D01*
G75*
G02*
X49193243Y2523572I44194J44194D01*
G01*
X49723573Y3053902D01*
G75*
G02*
X49811961Y3053902I44194J-44194D01*
G01*
X49900349Y2965514D01*
G75*
G02*
X49900349Y2877126I-44194J-44194D01*
G01*
X49370019Y2346796D01*
G75*
G02*
X49281631Y2346796I-44194J44194D01*
G01*
G37*
G04 #@! TD.AperFunction*
G04 #@! TO.P,U5,21,PA11*
G04 #@! TO.N,/USB_DM*
G04 #@! TA.AperFunction,SMDPad,CuDef*
G36*
G01*
X49635184Y1993243D02*
X49546796Y2081631D01*
G75*
G02*
X49546796Y2170019I44194J44194D01*
G01*
X50077126Y2700349D01*
G75*
G02*
X50165514Y2700349I44194J-44194D01*
G01*
X50253902Y2611961D01*
G75*
G02*
X50253902Y2523573I-44194J-44194D01*
G01*
X49723572Y1993243D01*
G75*
G02*
X49635184Y1993243I-44194J44194D01*
G01*
G37*
G04 #@! TD.AperFunction*
G04 #@! TO.P,U5,22,PA12*
G04 #@! TO.N,/USB_DP*
G04 #@! TA.AperFunction,SMDPad,CuDef*
G36*
G01*
X49988738Y1639690D02*
X49900350Y1728078D01*
G75*
G02*
X49900350Y1816466I44194J44194D01*
G01*
X50430680Y2346796D01*
G75*
G02*
X50519068Y2346796I44194J-44194D01*
G01*
X50607456Y2258408D01*
G75*
G02*
X50607456Y2170020I-44194J-44194D01*
G01*
X50077126Y1639690D01*
G75*
G02*
X49988738Y1639690I-44194J44194D01*
G01*
G37*
G04 #@! TD.AperFunction*
G04 #@! TO.P,U5,23,PA13*
G04 #@! TO.N,/SWDIO*
G04 #@! TA.AperFunction,SMDPad,CuDef*
G36*
G01*
X50342291Y1286136D02*
X50253903Y1374524D01*
G75*
G02*
X50253903Y1462912I44194J44194D01*
G01*
X50784233Y1993242D01*
G75*
G02*
X50872621Y1993242I44194J-44194D01*
G01*
X50961009Y1904854D01*
G75*
G02*
X50961009Y1816466I-44194J-44194D01*
G01*
X50430679Y1286136D01*
G75*
G02*
X50342291Y1286136I-44194J44194D01*
G01*
G37*
G04 #@! TD.AperFunction*
G04 #@! TO.P,U5,24,PA14*
G04 #@! TO.N,/SWCLK*
G04 #@! TA.AperFunction,SMDPad,CuDef*
G36*
G01*
X50695845Y932583D02*
X50607457Y1020971D01*
G75*
G02*
X50607457Y1109359I44194J44194D01*
G01*
X51137787Y1639689D01*
G75*
G02*
X51226175Y1639689I44194J-44194D01*
G01*
X51314563Y1551301D01*
G75*
G02*
X51314563Y1462913I-44194J-44194D01*
G01*
X50784233Y932583D01*
G75*
G02*
X50695845Y932583I-44194J44194D01*
G01*
G37*
G04 #@! TD.AperFunction*
G04 #@! TO.P,U5,25,PA15*
G04 #@! TO.N,/I2C1_SCL*
G04 #@! TA.AperFunction,SMDPad,CuDef*
G36*
G01*
X51137787Y-39689D02*
X50607457Y490641D01*
G75*
G02*
X50607457Y579029I44194J44194D01*
G01*
X50695845Y667417D01*
G75*
G02*
X50784233Y667417I44194J-44194D01*
G01*
X51314563Y137087D01*
G75*
G02*
X51314563Y48699I-44194J-44194D01*
G01*
X51226175Y-39689D01*
G75*
G02*
X51137787Y-39689I-44194J44194D01*
G01*
G37*
G04 #@! TD.AperFunction*
G04 #@! TO.P,U5,26,PB3*
G04 #@! TO.N,/SWO*
G04 #@! TA.AperFunction,SMDPad,CuDef*
G36*
G01*
X50784233Y-393242D02*
X50253903Y137088D01*
G75*
G02*
X50253903Y225476I44194J44194D01*
G01*
X50342291Y313864D01*
G75*
G02*
X50430679Y313864I44194J-44194D01*
G01*
X50961009Y-216466D01*
G75*
G02*
X50961009Y-304854I-44194J-44194D01*
G01*
X50872621Y-393242D01*
G75*
G02*
X50784233Y-393242I-44194J44194D01*
G01*
G37*
G04 #@! TD.AperFunction*
G04 #@! TO.P,U5,27,PB4*
G04 #@! TO.N,/CC2*
G04 #@! TA.AperFunction,SMDPad,CuDef*
G36*
G01*
X50430680Y-746796D02*
X49900350Y-216466D01*
G75*
G02*
X49900350Y-128078I44194J44194D01*
G01*
X49988738Y-39690D01*
G75*
G02*
X50077126Y-39690I44194J-44194D01*
G01*
X50607456Y-570020D01*
G75*
G02*
X50607456Y-658408I-44194J-44194D01*
G01*
X50519068Y-746796D01*
G75*
G02*
X50430680Y-746796I-44194J44194D01*
G01*
G37*
G04 #@! TD.AperFunction*
G04 #@! TO.P,U5,28,PB5*
G04 #@! TO.N,/BTN1*
G04 #@! TA.AperFunction,SMDPad,CuDef*
G36*
G01*
X50077126Y-1100349D02*
X49546796Y-570019D01*
G75*
G02*
X49546796Y-481631I44194J44194D01*
G01*
X49635184Y-393243D01*
G75*
G02*
X49723572Y-393243I44194J-44194D01*
G01*
X50253902Y-923573D01*
G75*
G02*
X50253902Y-1011961I-44194J-44194D01*
G01*
X50165514Y-1100349D01*
G75*
G02*
X50077126Y-1100349I-44194J44194D01*
G01*
G37*
G04 #@! TD.AperFunction*
G04 #@! TO.P,U5,29,PB6*
G04 #@! TO.N,/CC1*
G04 #@! TA.AperFunction,SMDPad,CuDef*
G36*
G01*
X49723573Y-1453902D02*
X49193243Y-923572D01*
G75*
G02*
X49193243Y-835184I44194J44194D01*
G01*
X49281631Y-746796D01*
G75*
G02*
X49370019Y-746796I44194J-44194D01*
G01*
X49900349Y-1277126D01*
G75*
G02*
X49900349Y-1365514I-44194J-44194D01*
G01*
X49811961Y-1453902D01*
G75*
G02*
X49723573Y-1453902I-44194J44194D01*
G01*
G37*
G04 #@! TD.AperFunction*
G04 #@! TO.P,U5,30,PB7*
G04 #@! TO.N,/I2C1_SDA*
G04 #@! TA.AperFunction,SMDPad,CuDef*
G36*
G01*
X49370020Y-1807456D02*
X48839690Y-1277126D01*
G75*
G02*
X48839690Y-1188738I44194J44194D01*
G01*
X48928078Y-1100350D01*
G75*
G02*
X49016466Y-1100350I44194J-44194D01*
G01*
X49546796Y-1630680D01*
G75*
G02*
X49546796Y-1719068I-44194J-44194D01*
G01*
X49458408Y-1807456D01*
G75*
G02*
X49370020Y-1807456I-44194J44194D01*
G01*
G37*
G04 #@! TD.AperFunction*
G04 #@! TO.P,U5,31,PB8-BOOT0*
G04 #@! TO.N,/DISP_RST#*
G04 #@! TA.AperFunction,SMDPad,CuDef*
G36*
G01*
X49016466Y-2161009D02*
X48486136Y-1630679D01*
G75*
G02*
X48486136Y-1542291I44194J44194D01*
G01*
X48574524Y-1453903D01*
G75*
G02*
X48662912Y-1453903I44194J-44194D01*
G01*
X49193242Y-1984233D01*
G75*
G02*
X49193242Y-2072621I-44194J-44194D01*
G01*
X49104854Y-2161009D01*
G75*
G02*
X49016466Y-2161009I-44194J44194D01*
G01*
G37*
G04 #@! TD.AperFunction*
G04 #@! TO.P,U5,32,VSS*
G04 #@! TO.N,GND*
G04 #@! TA.AperFunction,SMDPad,CuDef*
G36*
G01*
X48662913Y-2514563D02*
X48132583Y-1984233D01*
G75*
G02*
X48132583Y-1895845I44194J44194D01*
G01*
X48220971Y-1807457D01*
G75*
G02*
X48309359Y-1807457I44194J-44194D01*
G01*
X48839689Y-2337787D01*
G75*
G02*
X48839689Y-2426175I-44194J-44194D01*
G01*
X48751301Y-2514563D01*
G75*
G02*
X48662913Y-2514563I-44194J44194D01*
G01*
G37*
G04 #@! TD.AperFunction*
G04 #@! TA.AperFunction,SMDPad,CuDef*
G04 #@! TO.P,U5,33,VSS-PAD*
G36*
X48000000Y-1639518D02*
G01*
X45560482Y800000D01*
X48000000Y3239518D01*
X50439518Y800000D01*
X48000000Y-1639518D01*
G37*
G04 #@! TD.AperFunction*
G04 #@! TD*
G04 #@! TO.P,C33,1*
G04 #@! TO.N,IN*
G04 #@! TA.AperFunction,SMDPad,CuDef*
G36*
G01*
X81433964Y-1203589D02*
X80958964Y-1203589D01*
G75*
G02*
X80721464Y-966089I0J237500D01*
G01*
X80721464Y-391089D01*
G75*
G02*
X80958964Y-153589I237500J0D01*
G01*
X81433964Y-153589D01*
G75*
G02*
X81671464Y-391089I0J-237500D01*
G01*
X81671464Y-966089D01*
G75*
G02*
X81433964Y-1203589I-237500J0D01*
G01*
G37*
G04 #@! TD.AperFunction*
G04 #@! TO.P,C33,2*
G04 #@! TO.N,GND*
G04 #@! TA.AperFunction,SMDPad,CuDef*
G36*
G01*
X81433964Y546411D02*
X80958964Y546411D01*
G75*
G02*
X80721464Y783911I0J237500D01*
G01*
X80721464Y1358911D01*
G75*
G02*
X80958964Y1596411I237500J0D01*
G01*
X81433964Y1596411D01*
G75*
G02*
X81671464Y1358911I0J-237500D01*
G01*
X81671464Y783911D01*
G75*
G02*
X81433964Y546411I-237500J0D01*
G01*
G37*
G04 #@! TD.AperFunction*
G04 #@! TD*
G04 #@! TO.P,R3,1*
G04 #@! TO.N,IN*
G04 #@! TA.AperFunction,SMDPad,CuDef*
G36*
G01*
X78784572Y-2342002D02*
X79154572Y-2342002D01*
G75*
G02*
X79289572Y-2477002I0J-135000D01*
G01*
X79289572Y-2747002D01*
G75*
G02*
X79154572Y-2882002I-135000J0D01*
G01*
X78784572Y-2882002D01*
G75*
G02*
X78649572Y-2747002I0J135000D01*
G01*
X78649572Y-2477002D01*
G75*
G02*
X78784572Y-2342002I135000J0D01*
G01*
G37*
G04 #@! TD.AperFunction*
G04 #@! TO.P,R3,2*
G04 #@! TO.N,Net-(R3-Pad2)*
G04 #@! TA.AperFunction,SMDPad,CuDef*
G36*
G01*
X78784572Y-3362002D02*
X79154572Y-3362002D01*
G75*
G02*
X79289572Y-3497002I0J-135000D01*
G01*
X79289572Y-3767002D01*
G75*
G02*
X79154572Y-3902002I-135000J0D01*
G01*
X78784572Y-3902002D01*
G75*
G02*
X78649572Y-3767002I0J135000D01*
G01*
X78649572Y-3497002D01*
G75*
G02*
X78784572Y-3362002I135000J0D01*
G01*
G37*
G04 #@! TD.AperFunction*
G04 #@! TD*
G04 #@! TO.P,R7,1*
G04 #@! TO.N,+3V3*
G04 #@! TA.AperFunction,SMDPad,CuDef*
G36*
G01*
X63585000Y313531D02*
X63215000Y313531D01*
G75*
G02*
X63080000Y448531I0J135000D01*
G01*
X63080000Y718531D01*
G75*
G02*
X63215000Y853531I135000J0D01*
G01*
X63585000Y853531D01*
G75*
G02*
X63720000Y718531I0J-135000D01*
G01*
X63720000Y448531D01*
G75*
G02*
X63585000Y313531I-135000J0D01*
G01*
G37*
G04 #@! TD.AperFunction*
G04 #@! TO.P,R7,2*
G04 #@! TO.N,/I2C1_SDA*
G04 #@! TA.AperFunction,SMDPad,CuDef*
G36*
G01*
X63585000Y1333531D02*
X63215000Y1333531D01*
G75*
G02*
X63080000Y1468531I0J135000D01*
G01*
X63080000Y1738531D01*
G75*
G02*
X63215000Y1873531I135000J0D01*
G01*
X63585000Y1873531D01*
G75*
G02*
X63720000Y1738531I0J-135000D01*
G01*
X63720000Y1468531D01*
G75*
G02*
X63585000Y1333531I-135000J0D01*
G01*
G37*
G04 #@! TD.AperFunction*
G04 #@! TD*
G04 #@! TO.P,C28,1*
G04 #@! TO.N,+3V3*
G04 #@! TA.AperFunction,SMDPad,CuDef*
G36*
G01*
X32920000Y-960000D02*
X32580000Y-960000D01*
G75*
G02*
X32440000Y-820000I0J140000D01*
G01*
X32440000Y-540000D01*
G75*
G02*
X32580000Y-400000I140000J0D01*
G01*
X32920000Y-400000D01*
G75*
G02*
X33060000Y-540000I0J-140000D01*
G01*
X33060000Y-820000D01*
G75*
G02*
X32920000Y-960000I-140000J0D01*
G01*
G37*
G04 #@! TD.AperFunction*
G04 #@! TO.P,C28,2*
G04 #@! TO.N,GND*
G04 #@! TA.AperFunction,SMDPad,CuDef*
G36*
G01*
X32920000Y0D02*
X32580000Y0D01*
G75*
G02*
X32440000Y140000I0J140000D01*
G01*
X32440000Y420000D01*
G75*
G02*
X32580000Y560000I140000J0D01*
G01*
X32920000Y560000D01*
G75*
G02*
X33060000Y420000I0J-140000D01*
G01*
X33060000Y140000D01*
G75*
G02*
X32920000Y0I-140000J0D01*
G01*
G37*
G04 #@! TD.AperFunction*
G04 #@! TD*
G04 #@! TO.P,D2,1,A1*
G04 #@! TO.N,GND*
G04 #@! TA.AperFunction,SMDPad,CuDef*
G36*
G01*
X25600000Y2562500D02*
X25600000Y2037500D01*
G75*
G02*
X25462500Y1900000I-137500J0D01*
G01*
X25187500Y1900000D01*
G75*
G02*
X25050000Y2037500I0J137500D01*
G01*
X25050000Y2562500D01*
G75*
G02*
X25187500Y2700000I137500J0D01*
G01*
X25462500Y2700000D01*
G75*
G02*
X25600000Y2562500I0J-137500D01*
G01*
G37*
G04 #@! TD.AperFunction*
G04 #@! TO.P,D2,2,A2*
G04 #@! TO.N,IN*
G04 #@! TA.AperFunction,SMDPad,CuDef*
G36*
G01*
X24187500Y2562500D02*
X24187500Y2037500D01*
G75*
G02*
X24050000Y1900000I-137500J0D01*
G01*
X23775000Y1900000D01*
G75*
G02*
X23637500Y2037500I0J137500D01*
G01*
X23637500Y2562500D01*
G75*
G02*
X23775000Y2700000I137500J0D01*
G01*
X24050000Y2700000D01*
G75*
G02*
X24187500Y2562500I0J-137500D01*
G01*
G37*
G04 #@! TD.AperFunction*
G04 #@! TD*
G04 #@! TO.P,C9,1*
G04 #@! TO.N,/BTN1*
G04 #@! TA.AperFunction,SMDPad,CuDef*
G36*
G01*
X70440000Y-3170000D02*
X70440000Y-2830000D01*
G75*
G02*
X70580000Y-2690000I140000J0D01*
G01*
X70860000Y-2690000D01*
G75*
G02*
X71000000Y-2830000I0J-140000D01*
G01*
X71000000Y-3170000D01*
G75*
G02*
X70860000Y-3310000I-140000J0D01*
G01*
X70580000Y-3310000D01*
G75*
G02*
X70440000Y-3170000I0J140000D01*
G01*
G37*
G04 #@! TD.AperFunction*
G04 #@! TO.P,C9,2*
G04 #@! TO.N,GND*
G04 #@! TA.AperFunction,SMDPad,CuDef*
G36*
G01*
X71400000Y-3170000D02*
X71400000Y-2830000D01*
G75*
G02*
X71540000Y-2690000I140000J0D01*
G01*
X71820000Y-2690000D01*
G75*
G02*
X71960000Y-2830000I0J-140000D01*
G01*
X71960000Y-3170000D01*
G75*
G02*
X71820000Y-3310000I-140000J0D01*
G01*
X71540000Y-3310000D01*
G75*
G02*
X71400000Y-3170000I0J140000D01*
G01*
G37*
G04 #@! TD.AperFunction*
G04 #@! TD*
G04 #@! TO.P,C4,1*
G04 #@! TO.N,GND*
G04 #@! TA.AperFunction,SMDPad,CuDef*
G36*
G01*
X34969327Y-3562925D02*
X34629327Y-3562925D01*
G75*
G02*
X34489327Y-3422925I0J140000D01*
G01*
X34489327Y-3142925D01*
G75*
G02*
X34629327Y-3002925I140000J0D01*
G01*
X34969327Y-3002925D01*
G75*
G02*
X35109327Y-3142925I0J-140000D01*
G01*
X35109327Y-3422925D01*
G75*
G02*
X34969327Y-3562925I-140000J0D01*
G01*
G37*
G04 #@! TD.AperFunction*
G04 #@! TO.P,C4,2*
G04 #@! TO.N,/PVD_IN*
G04 #@! TA.AperFunction,SMDPad,CuDef*
G36*
G01*
X34969327Y-2602925D02*
X34629327Y-2602925D01*
G75*
G02*
X34489327Y-2462925I0J140000D01*
G01*
X34489327Y-2182925D01*
G75*
G02*
X34629327Y-2042925I140000J0D01*
G01*
X34969327Y-2042925D01*
G75*
G02*
X35109327Y-2182925I0J-140000D01*
G01*
X35109327Y-2462925D01*
G75*
G02*
X34969327Y-2602925I-140000J0D01*
G01*
G37*
G04 #@! TD.AperFunction*
G04 #@! TD*
D16*
G04 #@! TO.N,+3V3*
X47500000Y-2800000D03*
D17*
G04 #@! TO.N,GND*
X41750000Y800000D03*
G04 #@! TO.N,/I2C1_SDA*
X56900000Y2100000D03*
G04 #@! TO.N,/I2C1_SCL*
X56900000Y1200000D03*
G04 #@! TO.N,/CC1*
X77800000Y-100000D03*
G04 #@! TO.N,Net-(C10-Pad1)*
X64000000Y-100000D03*
G04 #@! TO.N,Net-(R5-Pad2)*
X64449349Y1017183D03*
D16*
G04 #@! TO.N,+3V3*
X62300000Y-1000000D03*
X64000000Y-1000000D03*
D17*
G04 #@! TO.N,GND*
X62900000Y-100000D03*
G04 #@! TO.N,/I2C1_SDA*
X51400000Y-2700000D03*
G04 #@! TO.N,/DISP_RST#*
X52200000Y-3100000D03*
G04 #@! TO.N,/USB_DM*
X73000000Y4000000D03*
G04 #@! TO.N,/USB_DP*
X77100000Y3200000D03*
D16*
G04 #@! TO.N,+3V3*
X74300000Y-1500000D03*
D17*
G04 #@! TO.N,IN*
X23400000Y300000D03*
X23400000Y-700000D03*
X24100000Y800000D03*
D18*
X81700000Y2400000D03*
X74400000Y-4500000D03*
D17*
X24100000Y-200000D03*
D18*
X73000000Y-4500000D03*
X81700000Y-2400000D03*
X23650000Y-4500000D03*
D17*
X24100000Y-1200000D03*
D16*
G04 #@! TO.N,+3V3*
X34700000Y1450000D03*
X33400000Y-1300000D03*
X56800000Y0D03*
D17*
X48700000Y4600000D03*
D19*
X30200000Y4000000D03*
D16*
X46500000Y4400000D03*
X39000000Y4000000D03*
D17*
G04 #@! TO.N,/BTN1*
X69570952Y-2900000D03*
X53300000Y-2800000D03*
G04 #@! TO.N,/BTN2*
X67100000Y4700000D03*
X50100000Y4700000D03*
G04 #@! TO.N,Net-(C10-Pad1)*
X71900000Y100000D03*
G04 #@! TO.N,/HEATER*
X18600000Y-700000D03*
X19300000Y-700000D03*
X19700000Y-1200000D03*
X20800000Y-100000D03*
X18600000Y-100000D03*
X18950000Y-1200000D03*
X20450000Y-1200000D03*
X18600000Y500000D03*
X20100000Y-700000D03*
X20800000Y500000D03*
X20800000Y-700000D03*
G04 #@! TO.N,/OSC_IN*
X45400000Y-3200000D03*
G04 #@! TO.N,/OSC_OUT*
X44900000Y-2600000D03*
G04 #@! TO.N,/TEMP_SENS*
X34900000Y3266790D03*
X44500000Y-1500000D03*
G04 #@! TO.N,/USB_DP*
X52080045Y3419790D03*
G04 #@! TO.N,/CC2*
X84400000Y1700000D03*
X74600000Y-100000D03*
X54395563Y-1495563D03*
G04 #@! TO.N,/USB_DM*
X51000000Y3501874D03*
G04 #@! TO.N,/CC1*
X50800000Y-2081180D03*
G04 #@! TO.N,/TIP_TC*
X27700000Y4100000D03*
X7100000Y4100000D03*
G04 #@! TO.N,/I2C1_SCL*
X61600000Y1550000D03*
X51578164Y700000D03*
G04 #@! TO.N,/I2C1_SDA*
X63400000Y2200000D03*
G04 #@! TO.N,/VSENSE*
X29700000Y-600000D03*
X37100000Y-2900000D03*
G04 #@! TO.N,/HEAT_ON*
X39000000Y2700000D03*
X26500000Y-2200000D03*
G04 #@! TO.N,Net-(R16-Pad1)*
X32750000Y1600000D03*
G04 #@! TO.N,Net-(R17-Pad2)*
X30800000Y-2300000D03*
G04 #@! TO.N,/INT0*
X44100000Y200000D03*
X36450000Y1900000D03*
G04 #@! TO.N,/SPI1_MISO*
X38400000Y1300000D03*
G04 #@! TO.N,/SPI1_NSS*
X38800000Y-712413D03*
G04 #@! TO.N,/SPI1_MOSI*
X39770964Y2462091D03*
G04 #@! TO.N,/SPI1_SCK*
X38854437Y45563D03*
G04 #@! TO.N,/DISP_RST#*
X61200000Y900000D03*
G04 #@! TO.N,/NRST*
X52964354Y2740590D03*
X45200000Y-1900000D03*
G04 #@! TO.N,GND*
X20400000Y3300000D03*
X45600000Y4733210D03*
X38400000Y3300000D03*
X25300000Y-525000D03*
X1300000Y-4850000D03*
X26600000Y-3200000D03*
X40058981Y-2132145D03*
X4700000Y-3650000D03*
X71900000Y1300000D03*
X29100000Y1900000D03*
X19750000Y3300000D03*
X48587573Y-2781163D03*
X21050000Y3300000D03*
X25300000Y-1150000D03*
X47400000Y4800000D03*
X33100000Y4800000D03*
X26000000Y3300000D03*
X19100000Y3300000D03*
X4700000Y-4850000D03*
X10500000Y-3700000D03*
X1300000Y-3650000D03*
X66900000Y1800000D03*
X31800000Y-200000D03*
X49900000Y800000D03*
X46100000Y800000D03*
X31800000Y1800000D03*
X73400000Y-3200000D03*
X48000000Y2700000D03*
X18450000Y3300000D03*
X18000000Y-4900000D03*
X80200000Y2000000D03*
X25300000Y750000D03*
X61600000Y2800000D03*
X43300000Y-2500000D03*
X76500000Y-4800000D03*
X42400000Y800000D03*
X10500000Y-4800000D03*
X29850000Y-2300000D03*
X56800000Y-1100000D03*
X50100000Y3600000D03*
X76200000Y4000165D03*
X48000000Y-1100000D03*
X1300000Y-4250000D03*
X69900000Y2700000D03*
X4700000Y-4250000D03*
X35400000Y-700000D03*
X25300000Y125000D03*
X19200000Y-3700000D03*
X35400000Y2100000D03*
X73100000Y1900000D03*
X78200000Y2300000D03*
X18800000Y-4100000D03*
X31800000Y-2500000D03*
X18400000Y-4500000D03*
G04 #@! TO.N,/HEATER_PG*
X27000000Y2400000D03*
G04 #@! TD*
D20*
G04 #@! TO.N,IN*
X75875000Y-2512500D02*
X75875000Y-1599605D01*
X75875000Y-1599605D02*
X76224605Y-1250000D01*
X76224605Y-1250000D02*
X78615739Y-1250000D01*
X78615739Y-1250000D02*
X79195015Y-670724D01*
D21*
G04 #@! TO.N,+3V3*
X47513864Y-2786136D02*
X47500000Y-2800000D01*
X47513864Y-2161010D02*
X47513864Y-2786136D01*
D22*
X65300000Y-680000D02*
X64820000Y-680000D01*
X64820000Y-680000D02*
X64500000Y-1000000D01*
X64500000Y-1000000D02*
X64000000Y-1000000D01*
D23*
G04 #@! TO.N,Net-(R5-Pad2)*
X65315000Y1800000D02*
X65232166Y1800000D01*
X65232166Y1800000D02*
X64449349Y1017183D01*
D21*
G04 #@! TO.N,+3V3*
X62297880Y-997880D02*
X62300000Y-1000000D01*
X62297880Y589564D02*
X62297880Y-997880D01*
D22*
X61670000Y-370000D02*
X62300000Y-1000000D01*
X58750000Y-370000D02*
X61670000Y-370000D01*
D21*
G04 #@! TO.N,/I2C1_SDA*
X49193243Y-1453903D02*
X50439340Y-2700000D01*
X50439340Y-2700000D02*
X51400000Y-2700000D01*
G04 #@! TO.N,/DISP_RST#*
X50412232Y-3379999D02*
X51920001Y-3379999D01*
X48839689Y-1807456D02*
X50412232Y-3379999D01*
X51920001Y-3379999D02*
X52200000Y-3100000D01*
D22*
G04 #@! TO.N,+3V3*
X74300000Y-1500000D02*
X74900000Y-2100000D01*
X73768809Y-968809D02*
X74300000Y-1500000D01*
X73101818Y-968809D02*
X73768809Y-968809D01*
X73101818Y-968809D02*
X67968809Y-968809D01*
X67968809Y-968809D02*
X67680000Y-680000D01*
X67680000Y-680000D02*
X66900000Y-680000D01*
X65300000Y-680000D02*
X66900000Y-680000D01*
D21*
X63400000Y583531D02*
X62303913Y583531D01*
X62303913Y583531D02*
X62297880Y589564D01*
D24*
G04 #@! TO.N,IN*
X23912500Y987500D02*
X24100000Y800000D01*
D22*
X81462998Y-2637002D02*
X81700000Y-2400000D01*
D25*
X81196464Y-678589D02*
X79202880Y-678589D01*
D24*
X23912500Y2300000D02*
X23912500Y987500D01*
D25*
X79202880Y-678589D02*
X79195015Y-670724D01*
D22*
X78969572Y-2637002D02*
X80205523Y-2637002D01*
X80205523Y-2637002D02*
X81462998Y-2637002D01*
D26*
X81700000Y-2400000D02*
X80900000Y-1600000D01*
D27*
X35900000Y-3287168D02*
X35900000Y-4400000D01*
D22*
G04 #@! TO.N,+3V3*
X57170000Y-370000D02*
X56800000Y0D01*
D21*
X47160311Y3407456D02*
X46500000Y4067767D01*
D22*
X32750000Y-685000D02*
X32785000Y-685000D01*
X32785000Y-685000D02*
X33400000Y-1300000D01*
D21*
X48700000Y4600000D02*
X48700000Y3974874D01*
D22*
X58750000Y-370000D02*
X57170000Y-370000D01*
D21*
X46500000Y4067767D02*
X46500000Y4400000D01*
X48700000Y3974874D02*
X48486136Y3761010D01*
D27*
G04 #@! TO.N,/PVD_IN*
X33700000Y-2319522D02*
X34797730Y-2319522D01*
D21*
X40101795Y-398205D02*
X38182832Y-2317168D01*
X38182832Y-2317168D02*
X35900000Y-2317168D01*
D27*
X34800084Y-2317168D02*
X35900000Y-2317168D01*
D21*
X45392544Y-39689D02*
X45034028Y-398205D01*
D27*
X34799327Y-2317925D02*
X34800084Y-2317168D01*
X34797730Y-2319522D02*
X34799327Y-2317925D01*
D21*
X45034028Y-398205D02*
X40101795Y-398205D01*
G04 #@! TO.N,/BTN1*
X50675331Y-1521778D02*
X52021778Y-1521778D01*
X70715000Y-3000000D02*
X69670952Y-3000000D01*
X69670952Y-3000000D02*
X69570952Y-2900000D01*
X49900349Y-746796D02*
X50675331Y-1521778D01*
X52021778Y-1521778D02*
X53300000Y-2800000D01*
G04 #@! TO.N,/BTN2*
X48839689Y3407456D02*
X50100000Y4667767D01*
X67084311Y4684311D02*
X67100000Y4700000D01*
X67084311Y3522591D02*
X67084311Y4684311D01*
X50100000Y4667767D02*
X50100000Y4700000D01*
D23*
G04 #@! TO.N,Net-(C10-Pad1)*
X70800000Y15000D02*
X71315000Y15000D01*
X71400000Y100000D02*
X71900000Y100000D01*
X71315000Y15000D02*
X71400000Y100000D01*
D21*
G04 #@! TO.N,/OSC_IN*
X47160311Y-1807456D02*
X45767767Y-3200000D01*
X45767767Y-3200000D02*
X45400000Y-3200000D01*
G04 #@! TO.N,/OSC_OUT*
X45660660Y-2600000D02*
X44900000Y-2600000D01*
X46806757Y-1453903D02*
X45660660Y-2600000D01*
G04 #@! TO.N,/TEMP_SENS*
X46099651Y-746796D02*
X45533820Y-1312627D01*
X45533820Y-1312627D02*
X44687373Y-1312627D01*
X44687373Y-1312627D02*
X44500000Y-1500000D01*
G04 #@! TO.N,/USB_DP*
X52080045Y3380045D02*
X52080045Y3419790D01*
X50253903Y1993243D02*
X51060660Y2800000D01*
X51500000Y2800000D02*
X52080045Y3380045D01*
X51060660Y2800000D02*
X51500000Y2800000D01*
G04 #@! TO.N,/CC2*
X52819401Y-1019401D02*
X53295563Y-1495563D01*
X50880061Y-1019401D02*
X52819401Y-1019401D01*
X50253903Y-393243D02*
X50880061Y-1019401D01*
X53295563Y-1495563D02*
X54395563Y-1495563D01*
G04 #@! TO.N,/USB_DM*
X51000000Y3446447D02*
X51000000Y3501874D01*
X49900349Y2346796D02*
X51000000Y3446447D01*
G04 #@! TO.N,/CC1*
X50527627Y-2081180D02*
X50800000Y-2081180D01*
X49546796Y-1100349D02*
X50527627Y-2081180D01*
D22*
G04 #@! TO.N,/TIP_TC*
X7100000Y4100000D02*
X5350000Y4100000D01*
D21*
X5350000Y4100000D02*
X5300000Y4050000D01*
X7050000Y4050000D02*
X7100000Y4100000D01*
G04 #@! TO.N,Net-(R1-Pad2)*
X80205523Y-3994477D02*
X79962788Y-4237212D01*
X77432212Y-4237212D02*
X76525000Y-3330000D01*
X79962788Y-4237212D02*
X77432212Y-4237212D01*
X76525000Y-3330000D02*
X76525000Y-2512500D01*
X80205523Y-3607002D02*
X80205523Y-3994477D01*
G04 #@! TO.N,Net-(R3-Pad2)*
X77175000Y-3275000D02*
X77175000Y-2512500D01*
X77507002Y-3607002D02*
X77175000Y-3275000D01*
X78969572Y-3607002D02*
X77507002Y-3607002D01*
D23*
G04 #@! TO.N,/I2C1_SCL*
X62297880Y1584564D02*
X62263316Y1550000D01*
D21*
X51192028Y313864D02*
X51578164Y700000D01*
X50961010Y313864D02*
X51192028Y313864D01*
D23*
X62263316Y1550000D02*
X61600000Y1550000D01*
G04 #@! TO.N,/I2C1_SDA*
X63400000Y2200000D02*
X63400000Y1578531D01*
D21*
G04 #@! TO.N,/VSENSE*
X38300000Y-2900000D02*
X37100000Y-2900000D01*
X45746097Y-393243D02*
X45298742Y-840598D01*
X45298742Y-840598D02*
X40359402Y-840598D01*
X40359402Y-840598D02*
X38300000Y-2900000D01*
G04 #@! TO.N,/HEAT_ON*
X45653553Y3500000D02*
X39800000Y3500000D01*
X46453204Y2700349D02*
X45653553Y3500000D01*
X39800000Y3500000D02*
X39000000Y2700000D01*
G04 #@! TO.N,Net-(R16-Pad1)*
X30800546Y309012D02*
X30800546Y700546D01*
X31300000Y1200000D02*
X32350000Y1200000D01*
X30800546Y700546D02*
X31300000Y1200000D01*
X32350000Y1200000D02*
X32750000Y1600000D01*
G04 #@! TO.N,Net-(R17-Pad2)*
X30800000Y-1400000D02*
X30850000Y-1350000D01*
X30800000Y-2300000D02*
X30800000Y-1400000D01*
X30800546Y-2299454D02*
X30800000Y-2300000D01*
X30850000Y-1350000D02*
X30850000Y-685000D01*
G04 #@! TO.N,/INT0*
X45038990Y313864D02*
X44925126Y200000D01*
X44925126Y200000D02*
X44100000Y200000D01*
G04 #@! TO.N,/SPI1_MISO*
X45746097Y1993243D02*
X45239340Y2500000D01*
X40600000Y2500000D02*
X39400000Y1300000D01*
X45239340Y2500000D02*
X40600000Y2500000D01*
X39400000Y1300000D02*
X38400000Y1300000D01*
G04 #@! TO.N,/SPI1_NSS*
X38962337Y-712413D02*
X38800000Y-712413D01*
X44825126Y1500000D02*
X41174750Y1500000D01*
X45038990Y1286136D02*
X44825126Y1500000D01*
X41174750Y1500000D02*
X38962337Y-712413D01*
G04 #@! TO.N,/SPI1_MOSI*
X45446447Y3000000D02*
X40308873Y3000000D01*
X46099651Y2346796D02*
X45446447Y3000000D01*
X40308873Y3000000D02*
X39770964Y2462091D01*
G04 #@! TO.N,/SPI1_SCK*
X45392544Y1639689D02*
X45032233Y2000000D01*
X40808874Y2000000D02*
X38854437Y45563D01*
X45032233Y2000000D02*
X40808874Y2000000D01*
G04 #@! TO.N,/SWO*
X50937767Y-370000D02*
X50607456Y-39689D01*
X54850000Y-370000D02*
X50937767Y-370000D01*
G04 #@! TO.N,/SWCLK*
X53420000Y900000D02*
X52720000Y1600000D01*
X54850000Y900000D02*
X53420000Y900000D01*
X51274874Y1600000D02*
X50961010Y1286136D01*
X52720000Y1600000D02*
X51274874Y1600000D01*
G04 #@! TO.N,/SWDIO*
X50965972Y1998205D02*
X50607456Y1639689D01*
X54850000Y2170000D02*
X51137767Y2170000D01*
X51137767Y2170000D02*
X50965972Y1998205D01*
G04 #@! TO.N,/NRST*
X58750000Y2170000D02*
X57899411Y3020589D01*
X57899411Y3020589D02*
X53244353Y3020589D01*
X45653553Y-1900000D02*
X45200000Y-1900000D01*
X46453204Y-1100349D02*
X45653553Y-1900000D01*
X53244353Y3020589D02*
X52964354Y2740590D01*
D23*
G04 #@! TO.N,GND*
X48149733Y-1849733D02*
X48149733Y-1249733D01*
D21*
X46806757Y3053903D02*
X45600000Y4260660D01*
X46806757Y3053903D02*
X48000000Y1860660D01*
D23*
X48461010Y-2161010D02*
X48149733Y-1849733D01*
D21*
X45600000Y4260660D02*
X45600000Y4300000D01*
D23*
X48000000Y3190288D02*
X47800000Y3390288D01*
D21*
X48000000Y1153553D02*
X49546796Y2700349D01*
D23*
X48149733Y-1249733D02*
X48000000Y-1100000D01*
D21*
X49193243Y3053903D02*
X48000000Y1860660D01*
D23*
X48000000Y2700000D02*
X48000000Y3190288D01*
D21*
X48000000Y800000D02*
X48000000Y1153553D01*
X48000000Y1860660D02*
X48000000Y800000D01*
D23*
X48486136Y-2161010D02*
X48461010Y-2161010D01*
X47800000Y3474874D02*
X47513864Y3761010D01*
X47800000Y3390288D02*
X47800000Y3474874D01*
G04 #@! TD*
G04 #@! TA.AperFunction,Conductor*
G04 #@! TO.N,GND*
G36*
X11047600Y-5300000D02*
G01*
X200000Y-5300000D01*
X200000Y-3202900D01*
X11047600Y-3202900D01*
X11047600Y-5300000D01*
G37*
G04 #@! TD.AperFunction*
G04 #@! TA.AperFunction,Conductor*
G36*
X89800000Y-5300000D02*
G01*
X75055098Y-5300000D01*
X75017498Y-5289925D01*
X74989973Y-5262400D01*
X74979898Y-5224800D01*
X74989973Y-5187200D01*
X75001924Y-5171626D01*
X75079912Y-5093638D01*
X75102673Y-5066514D01*
X75102679Y-5066507D01*
X75128914Y-5029041D01*
X75128916Y-5029038D01*
X75172670Y-4966551D01*
X75190380Y-4935876D01*
X75206370Y-4901585D01*
X75241947Y-4825291D01*
X75254059Y-4792011D01*
X75255238Y-4787614D01*
X75285641Y-4674145D01*
X75291792Y-4639265D01*
X75297502Y-4573999D01*
X82494288Y-4573999D01*
X82517897Y-4633782D01*
X82579802Y-4735796D01*
X82658011Y-4825924D01*
X82750286Y-4901585D01*
X82853996Y-4960620D01*
X82966159Y-5001333D01*
X83083586Y-5022568D01*
X83096999Y-5023200D01*
X83446000Y-5023200D01*
X83953999Y-5023200D01*
X84279461Y-5023200D01*
X84368906Y-5015610D01*
X84484402Y-4985633D01*
X84593210Y-4936619D01*
X84692194Y-4869979D01*
X84778536Y-4787614D01*
X84849770Y-4691872D01*
X84903851Y-4585501D01*
X84907422Y-4574000D01*
X83953999Y-4573999D01*
X86824288Y-4573999D01*
X86847897Y-4633782D01*
X86909802Y-4735796D01*
X86988011Y-4825924D01*
X87080286Y-4901585D01*
X87183996Y-4960620D01*
X87296159Y-5001333D01*
X87413586Y-5022568D01*
X87426999Y-5023200D01*
X87626000Y-5023200D01*
X88133999Y-5023200D01*
X88309461Y-5023200D01*
X88398906Y-5015610D01*
X88514402Y-4985633D01*
X88623210Y-4936619D01*
X88722194Y-4869979D01*
X88808536Y-4787614D01*
X88879770Y-4691872D01*
X88933851Y-4585501D01*
X88937422Y-4574000D01*
X88133999Y-4573999D01*
X88133999Y-5023200D01*
X87626000Y-5023200D01*
X87626000Y-4574000D01*
X86824288Y-4573999D01*
X83953999Y-4573999D01*
X83953999Y-5023200D01*
X83446000Y-5023200D01*
X83446000Y-4574000D01*
X82494288Y-4573999D01*
X75297502Y-4573999D01*
X75302427Y-4517711D01*
X75302427Y-4482289D01*
X75297110Y-4421512D01*
X75291792Y-4360733D01*
X75285642Y-4325860D01*
X75254059Y-4207989D01*
X75241947Y-4174709D01*
X75190383Y-4064130D01*
X75189061Y-4061839D01*
X75172670Y-4033449D01*
X75172668Y-4033445D01*
X75128916Y-3970962D01*
X75102678Y-3933491D01*
X75079912Y-3906362D01*
X74993638Y-3820088D01*
X74966514Y-3797326D01*
X74950324Y-3785989D01*
X74929041Y-3771086D01*
X74929038Y-3771084D01*
X74866551Y-3727330D01*
X74866548Y-3727328D01*
X74835879Y-3709620D01*
X74725293Y-3658053D01*
X74692008Y-3645939D01*
X74692007Y-3645939D01*
X74692005Y-3645938D01*
X74574143Y-3614358D01*
X74574142Y-3614358D01*
X74574139Y-3614357D01*
X74539268Y-3608208D01*
X74465254Y-3601733D01*
X74417709Y-3597573D01*
X74417704Y-3597573D01*
X74417695Y-3597572D01*
X74400009Y-3596800D01*
X72055699Y-3596800D01*
X72018099Y-3586725D01*
X71990574Y-3559200D01*
X71980499Y-3521600D01*
X71990574Y-3484000D01*
X72011825Y-3463589D01*
X72010965Y-3462618D01*
X72080631Y-3400898D01*
X72128317Y-3331816D01*
X72157828Y-3254000D01*
X71426000Y-3254000D01*
X71426000Y-2746000D01*
X71934000Y-2746000D01*
X72152807Y-2746000D01*
X72145573Y-2706526D01*
X72106564Y-2632202D01*
X72050898Y-2569369D01*
X71981816Y-2521684D01*
X71934000Y-2503550D01*
X71934000Y-2746000D01*
X71426000Y-2746000D01*
X71426000Y-2502691D01*
X71416527Y-2504427D01*
X71342202Y-2543436D01*
X71279369Y-2599102D01*
X71172869Y-2753388D01*
X71117557Y-2681303D01*
X71117556Y-2681300D01*
X71070294Y-2619706D01*
X71008700Y-2572444D01*
X70936973Y-2542734D01*
X70878989Y-2535100D01*
X70561011Y-2535100D01*
X70503027Y-2542734D01*
X70431300Y-2572444D01*
X70369706Y-2619706D01*
X70322444Y-2681300D01*
X70306373Y-2720100D01*
X69967838Y-2720100D01*
X69917761Y-2636757D01*
X69853144Y-2568427D01*
X69849071Y-2565659D01*
X69775360Y-2515565D01*
X69688040Y-2480639D01*
X69614267Y-2468426D01*
X69595258Y-2465279D01*
X69595257Y-2465279D01*
X69501340Y-2470201D01*
X69473238Y-2477941D01*
X69410671Y-2495174D01*
X69360392Y-2521684D01*
X69327479Y-2539037D01*
X69256403Y-2599102D01*
X69255646Y-2599742D01*
X69199468Y-2673219D01*
X69198526Y-2674451D01*
X69158781Y-2759686D01*
X69138265Y-2851466D01*
X69137937Y-2945512D01*
X69157250Y-3034836D01*
X69157812Y-3037437D01*
X69196160Y-3121193D01*
X69196961Y-3122943D01*
X69244367Y-3185853D01*
X69253561Y-3198054D01*
X69324965Y-3259255D01*
X69374569Y-3285852D01*
X69407848Y-3303696D01*
X69498341Y-3329303D01*
X69592221Y-3334880D01*
X69592223Y-3334880D01*
X69659740Y-3324186D01*
X69685109Y-3320168D01*
X69747083Y-3295881D01*
X69787862Y-3279900D01*
X70306373Y-3279900D01*
X70322444Y-3318700D01*
X70369706Y-3380294D01*
X70431300Y-3427556D01*
X70490615Y-3452125D01*
X70521497Y-3475821D01*
X70536394Y-3511784D01*
X70531313Y-3550377D01*
X70507616Y-3581260D01*
X70461837Y-3596800D01*
X52483501Y-3596800D01*
X52445901Y-3586725D01*
X52418376Y-3559200D01*
X52408301Y-3521600D01*
X52418376Y-3484000D01*
X52441666Y-3459111D01*
X52479870Y-3433536D01*
X52490030Y-3422941D01*
X52544962Y-3365659D01*
X52560040Y-3340957D01*
X52593962Y-3285384D01*
X52619340Y-3211681D01*
X52624580Y-3196463D01*
X52625832Y-3185641D01*
X52635389Y-3103040D01*
X52635396Y-3101235D01*
X52635401Y-3100002D01*
X52625243Y-3006505D01*
X52625243Y-3006504D01*
X52595246Y-2917371D01*
X52570168Y-2875634D01*
X52546810Y-2836758D01*
X52482192Y-2768427D01*
X52480953Y-2767585D01*
X52404408Y-2715565D01*
X52317088Y-2680639D01*
X52254037Y-2670201D01*
X52224306Y-2665279D01*
X52224305Y-2665279D01*
X52130388Y-2670201D01*
X52104934Y-2677212D01*
X52039719Y-2695174D01*
X51949301Y-2742847D01*
X51948975Y-2742229D01*
X51922272Y-2754795D01*
X51883482Y-2751537D01*
X51851517Y-2729321D01*
X51834195Y-2688905D01*
X51826720Y-2620100D01*
X51825243Y-2606504D01*
X51795246Y-2517371D01*
X51774736Y-2483237D01*
X51746810Y-2436758D01*
X51682190Y-2368425D01*
X51651899Y-2347840D01*
X51604408Y-2315565D01*
X51517088Y-2280639D01*
X51454037Y-2270201D01*
X51424306Y-2265279D01*
X51424305Y-2265279D01*
X51330388Y-2270201D01*
X51315790Y-2274222D01*
X51276867Y-2274494D01*
X51243020Y-2255267D01*
X51223322Y-2221692D01*
X51224448Y-2185850D01*
X51223641Y-2185757D01*
X51224580Y-2177642D01*
X51235389Y-2084220D01*
X51235390Y-2083843D01*
X51235401Y-2081182D01*
X51225243Y-1987685D01*
X51225243Y-1987684D01*
X51195246Y-1898551D01*
X51195244Y-1898548D01*
X51162643Y-1801678D01*
X51905841Y-1801678D01*
X52627103Y-2522941D01*
X52867271Y-2763109D01*
X52867055Y-2825289D01*
X52866985Y-2845512D01*
X52886730Y-2936834D01*
X52886860Y-2937437D01*
X52918482Y-3006504D01*
X52926009Y-3022943D01*
X52979697Y-3094190D01*
X52982609Y-3098054D01*
X53054013Y-3159255D01*
X53103619Y-3185853D01*
X53136896Y-3203696D01*
X53227389Y-3229303D01*
X53321269Y-3234880D01*
X53321271Y-3234880D01*
X53383194Y-3225072D01*
X53414157Y-3220168D01*
X53501719Y-3185853D01*
X53579870Y-3133536D01*
X53584741Y-3128457D01*
X53644962Y-3065659D01*
X53661169Y-3039107D01*
X53693962Y-2985384D01*
X53723275Y-2900252D01*
X53724580Y-2896463D01*
X53727262Y-2873279D01*
X53735389Y-2803040D01*
X53735389Y-2802908D01*
X53735401Y-2800002D01*
X53725243Y-2706505D01*
X53725243Y-2706504D01*
X53695246Y-2617371D01*
X53670642Y-2576423D01*
X53646810Y-2536758D01*
X53582192Y-2468427D01*
X53578119Y-2465659D01*
X53504408Y-2415565D01*
X53417088Y-2380639D01*
X53405548Y-2378729D01*
X53324306Y-2365278D01*
X53264262Y-2368425D01*
X52323512Y-1427675D01*
X52304048Y-1393964D01*
X52304048Y-1355038D01*
X52323512Y-1321327D01*
X52357223Y-1301863D01*
X52376686Y-1299301D01*
X52703464Y-1299301D01*
X53095401Y-1691240D01*
X53115554Y-1713156D01*
X53136917Y-1726401D01*
X53156932Y-1741593D01*
X53156935Y-1741595D01*
X53169351Y-1746511D01*
X53180702Y-1753549D01*
X53204844Y-1760564D01*
X53216754Y-1765279D01*
X53228201Y-1769811D01*
X53229970Y-1769997D01*
X53241484Y-1771208D01*
X53254309Y-1774934D01*
X53261514Y-1775463D01*
X53281978Y-1775463D01*
X53293206Y-1776643D01*
X53304432Y-1777823D01*
X53304433Y-1777823D01*
X53318386Y-1775463D01*
X54056993Y-1775463D01*
X54078168Y-1793613D01*
X54078170Y-1793615D01*
X54129123Y-1837287D01*
X54149578Y-1854819D01*
X54191105Y-1877085D01*
X54232459Y-1899259D01*
X54322952Y-1924866D01*
X54416832Y-1930443D01*
X54416834Y-1930443D01*
X54492054Y-1918529D01*
X54509720Y-1915731D01*
X54597282Y-1881416D01*
X54675433Y-1829099D01*
X54675435Y-1829097D01*
X54740525Y-1761222D01*
X54760510Y-1728481D01*
X54789525Y-1680947D01*
X54813573Y-1611106D01*
X54820143Y-1592026D01*
X54823054Y-1566862D01*
X54830952Y-1498603D01*
X54830952Y-1498488D01*
X54830964Y-1495565D01*
X54821025Y-1404084D01*
X54820806Y-1402067D01*
X54790809Y-1312934D01*
X54774108Y-1285138D01*
X54742373Y-1232321D01*
X54677755Y-1163990D01*
X54677754Y-1163989D01*
X54599971Y-1111128D01*
X54512651Y-1076202D01*
X54449600Y-1065764D01*
X54419869Y-1060842D01*
X54419868Y-1060842D01*
X54325951Y-1065764D01*
X54297849Y-1073504D01*
X54235282Y-1090737D01*
X54152088Y-1134601D01*
X54056165Y-1215663D01*
X53411501Y-1215663D01*
X53019585Y-823748D01*
X52999410Y-801808D01*
X52989972Y-795956D01*
X52978040Y-788557D01*
X52973354Y-785001D01*
X52949495Y-754243D01*
X52944211Y-715677D01*
X52958917Y-679636D01*
X52989675Y-655777D01*
X53018818Y-649900D01*
X53495100Y-649900D01*
X53495100Y-740000D01*
X53502794Y-772712D01*
X53511339Y-809046D01*
X53545645Y-854472D01*
X53594044Y-884440D01*
X53608033Y-887055D01*
X53649997Y-894900D01*
X56050000Y-894900D01*
X56097722Y-883676D01*
X56119046Y-878661D01*
X56164472Y-844355D01*
X56165771Y-842257D01*
X56194440Y-795956D01*
X56198750Y-772900D01*
X56204900Y-740003D01*
X56204900Y-352865D01*
X56214975Y-315265D01*
X56242500Y-287740D01*
X56280100Y-277665D01*
X56317700Y-287740D01*
X56343487Y-312404D01*
X56362338Y-341937D01*
X56434894Y-418529D01*
X56520625Y-480020D01*
X56616428Y-524186D01*
X56616432Y-524187D01*
X56718865Y-549442D01*
X56782958Y-552745D01*
X56885415Y-655202D01*
X56913775Y-684163D01*
X56934595Y-697580D01*
X56951169Y-710810D01*
X56953971Y-713047D01*
X56959412Y-715677D01*
X56972471Y-721990D01*
X56984980Y-730051D01*
X56989745Y-733122D01*
X57013036Y-741599D01*
X57035342Y-752382D01*
X57055357Y-757003D01*
X57064696Y-760402D01*
X57074672Y-764033D01*
X57078829Y-764558D01*
X57099268Y-767140D01*
X57123404Y-772712D01*
X57123476Y-772712D01*
X57143945Y-772785D01*
X57144859Y-772900D01*
X57177042Y-772900D01*
X57212969Y-773025D01*
X57213783Y-773028D01*
X57213786Y-773028D01*
X57214358Y-772900D01*
X57384042Y-772900D01*
X57445645Y-854472D01*
X57494044Y-884440D01*
X57508033Y-887055D01*
X57549997Y-894900D01*
X59950000Y-894900D01*
X59997722Y-883676D01*
X60019046Y-878661D01*
X60064472Y-844355D01*
X60065771Y-842257D01*
X60094440Y-795956D01*
X60094440Y-795954D01*
X60108715Y-772900D01*
X61503115Y-772900D01*
X61747065Y-1016851D01*
X61746975Y-1051303D01*
X61751702Y-1076202D01*
X61766652Y-1154950D01*
X61805576Y-1253011D01*
X61862338Y-1341937D01*
X61934894Y-1418529D01*
X62020625Y-1480020D01*
X62116428Y-1524186D01*
X62116432Y-1524187D01*
X62218865Y-1549442D01*
X62236135Y-1550332D01*
X62324225Y-1554872D01*
X62428711Y-1540281D01*
X62528558Y-1506192D01*
X62620152Y-1453842D01*
X62700192Y-1385118D01*
X62742423Y-1331931D01*
X62765798Y-1302493D01*
X62814594Y-1208955D01*
X62833728Y-1144974D01*
X62844822Y-1107880D01*
X62855392Y-1002908D01*
X62855400Y-999997D01*
X62845381Y-894978D01*
X62824247Y-822941D01*
X62815681Y-793742D01*
X62808865Y-780508D01*
X62767376Y-699952D01*
X62702204Y-616983D01*
X62622524Y-547841D01*
X62616451Y-544328D01*
X62577780Y-521956D01*
X62577780Y180089D01*
X62629080Y201338D01*
X62689638Y247806D01*
X62732474Y303631D01*
X62960776Y303631D01*
X63008242Y241773D01*
X63068798Y195306D01*
X63068800Y195305D01*
X63139321Y166094D01*
X63196010Y158631D01*
X63642997Y158631D01*
X63588859Y42523D01*
X63587829Y40314D01*
X63567313Y-51466D01*
X63566985Y-145512D01*
X63586017Y-233536D01*
X63586860Y-237437D01*
X63620361Y-310607D01*
X63626009Y-322943D01*
X63682607Y-398052D01*
X63725824Y-435093D01*
X63777870Y-479702D01*
X63715159Y-524187D01*
X63637090Y-579565D01*
X63564135Y-655775D01*
X63506907Y-744405D01*
X63490547Y-785001D01*
X63467472Y-842257D01*
X63447251Y-945801D01*
X63446975Y-1051306D01*
X63459444Y-1116983D01*
X63466653Y-1154952D01*
X63481379Y-1192050D01*
X63505576Y-1253011D01*
X63562338Y-1341937D01*
X63634894Y-1418529D01*
X63720625Y-1480020D01*
X63816428Y-1524186D01*
X63816432Y-1524187D01*
X63918865Y-1549442D01*
X63936135Y-1550332D01*
X64024225Y-1554872D01*
X64128711Y-1540281D01*
X64228558Y-1506192D01*
X64320149Y-1453843D01*
X64320151Y-1453842D01*
X64379481Y-1402900D01*
X64500450Y-1402900D01*
X64540966Y-1403324D01*
X64540967Y-1403324D01*
X64565179Y-1398089D01*
X64589816Y-1395326D01*
X64609229Y-1388566D01*
X64629306Y-1384225D01*
X64651759Y-1373755D01*
X64675168Y-1365603D01*
X64692599Y-1354711D01*
X64699901Y-1351306D01*
X64711218Y-1346029D01*
X64730793Y-1330844D01*
X64751813Y-1317709D01*
X64766405Y-1303220D01*
X64767120Y-1302665D01*
X64789562Y-1280223D01*
X64815944Y-1254025D01*
X64816263Y-1253522D01*
X64986886Y-1082900D01*
X64994202Y-1082900D01*
X65053027Y-1107266D01*
X65111011Y-1114900D01*
X65488989Y-1114900D01*
X65546973Y-1107266D01*
X65579628Y-1093740D01*
X65605799Y-1082900D01*
X66594201Y-1082900D01*
X66620372Y-1093740D01*
X66653027Y-1107266D01*
X66711011Y-1114900D01*
X67088989Y-1114900D01*
X67146973Y-1107266D01*
X67179628Y-1093740D01*
X67205799Y-1082900D01*
X67513114Y-1082900D01*
X67684221Y-1254008D01*
X67712584Y-1282971D01*
X67733412Y-1296394D01*
X67752780Y-1311856D01*
X67771283Y-1320801D01*
X67779545Y-1326125D01*
X67788554Y-1331931D01*
X67811840Y-1340406D01*
X67834151Y-1351192D01*
X67834153Y-1351192D01*
X67834154Y-1351193D01*
X67854176Y-1355815D01*
X67873482Y-1362842D01*
X67898067Y-1365948D01*
X67922213Y-1371522D01*
X67942762Y-1371595D01*
X67943667Y-1371709D01*
X67975565Y-1371709D01*
X68011245Y-1371833D01*
X68012592Y-1371838D01*
X68012597Y-1371838D01*
X68013173Y-1371709D01*
X72488951Y-1371709D01*
X72499441Y-1401689D01*
X72508525Y-1427652D01*
X72555574Y-1502527D01*
X72618100Y-1565053D01*
X72692977Y-1612103D01*
X72776445Y-1641309D01*
X72842128Y-1648709D01*
X73361508Y-1648709D01*
X73427191Y-1641309D01*
X73510659Y-1612103D01*
X73585536Y-1565053D01*
X73622875Y-1527714D01*
X73656586Y-1508250D01*
X73695512Y-1508250D01*
X73729223Y-1527714D01*
X73749929Y-1566862D01*
X73766652Y-1654950D01*
X73805576Y-1753011D01*
X73862338Y-1841937D01*
X73934894Y-1918529D01*
X74020625Y-1980020D01*
X74116428Y-2024186D01*
X74116432Y-2024187D01*
X74197600Y-2044199D01*
X74197600Y-3100001D01*
X74199477Y-3123843D01*
X74209266Y-3185644D01*
X74223999Y-3230988D01*
X74224001Y-3230992D01*
X74251087Y-3284153D01*
X74251110Y-3284200D01*
X74251394Y-3284757D01*
X74251395Y-3284759D01*
X74252418Y-3286766D01*
X74261122Y-3298744D01*
X74279611Y-3324187D01*
X74280434Y-3325320D01*
X74324680Y-3369566D01*
X74363256Y-3397593D01*
X74419011Y-3426001D01*
X74464358Y-3440735D01*
X74495258Y-3445629D01*
X74518260Y-3449272D01*
X74526157Y-3450523D01*
X74526162Y-3450523D01*
X74538010Y-3452400D01*
X75009621Y-3452400D01*
X75052481Y-3471973D01*
X75070859Y-3474615D01*
X75107613Y-3479900D01*
X75336494Y-3479900D01*
X75411228Y-3463642D01*
X75431928Y-3459139D01*
X75454445Y-3444668D01*
X75523286Y-3400429D01*
X75564021Y-3449666D01*
X75564023Y-3449668D01*
X75626524Y-3495078D01*
X75626525Y-3495079D01*
X75626526Y-3495079D01*
X75634854Y-3498376D01*
X75698354Y-3523517D01*
X75755211Y-3530700D01*
X75990786Y-3530700D01*
X76048241Y-3521600D01*
X76070239Y-3518116D01*
X76140143Y-3485222D01*
X76188002Y-3445628D01*
X76199668Y-3435977D01*
X76199668Y-3435976D01*
X76230284Y-3410648D01*
X76283445Y-3476290D01*
X76291849Y-3486668D01*
X76298284Y-3498374D01*
X76298286Y-3498376D01*
X76303009Y-3503847D01*
X76310234Y-3511071D01*
X76317463Y-3518300D01*
X76331682Y-3535860D01*
X76333181Y-3536925D01*
X76343227Y-3544064D01*
X77232050Y-4432889D01*
X77241159Y-4442795D01*
X77252203Y-4454806D01*
X77273562Y-4468048D01*
X77293581Y-4483243D01*
X77293582Y-4483244D01*
X77293583Y-4483244D01*
X77305997Y-4488159D01*
X77317350Y-4495198D01*
X77341491Y-4502212D01*
X77364849Y-4511460D01*
X77375875Y-4512619D01*
X77378130Y-4512856D01*
X77390958Y-4516583D01*
X77398163Y-4517112D01*
X77418621Y-4517112D01*
X77441082Y-4519473D01*
X77455041Y-4517112D01*
X79959613Y-4517112D01*
X79989363Y-4518359D01*
X79989365Y-4518359D01*
X80013836Y-4512619D01*
X80022298Y-4511460D01*
X80038731Y-4509209D01*
X80050993Y-4503903D01*
X80063991Y-4500854D01*
X80086008Y-4488751D01*
X80109079Y-4478767D01*
X80109081Y-4478766D01*
X80119458Y-4470364D01*
X80131160Y-4463929D01*
X80131162Y-4463928D01*
X80136630Y-4459207D01*
X80136635Y-4459203D01*
X80143860Y-4451977D01*
X80151090Y-4444747D01*
X80168649Y-4430528D01*
X80176852Y-4418985D01*
X80401188Y-4194650D01*
X80423116Y-4174486D01*
X80436361Y-4153123D01*
X80451553Y-4133109D01*
X80456470Y-4120691D01*
X80463508Y-4109339D01*
X80470519Y-4085208D01*
X80474768Y-4074473D01*
X80478123Y-4066000D01*
X82492578Y-4066000D01*
X83446001Y-4066001D01*
X83446001Y-3616800D01*
X83954000Y-3616800D01*
X83954000Y-4066000D01*
X84905712Y-4066001D01*
X84905712Y-4066000D01*
X86822578Y-4066000D01*
X87626001Y-4066001D01*
X87626001Y-3616800D01*
X88134000Y-3616800D01*
X88134000Y-4066000D01*
X88935712Y-4066001D01*
X88912103Y-4006218D01*
X88850198Y-3904204D01*
X88771989Y-3814076D01*
X88679714Y-3738415D01*
X88576004Y-3679380D01*
X88463841Y-3638667D01*
X88346414Y-3617432D01*
X88333001Y-3616800D01*
X88134000Y-3616800D01*
X87626001Y-3616800D01*
X87450539Y-3616800D01*
X87361094Y-3624390D01*
X87245598Y-3654367D01*
X87136790Y-3703381D01*
X87037806Y-3770021D01*
X86951464Y-3852386D01*
X86880230Y-3948128D01*
X86826149Y-4054499D01*
X86822578Y-4066000D01*
X84905712Y-4066000D01*
X84882103Y-4006218D01*
X84820198Y-3904204D01*
X84741989Y-3814076D01*
X84649714Y-3738415D01*
X84546004Y-3679380D01*
X84433841Y-3638667D01*
X84316414Y-3617432D01*
X84303001Y-3616800D01*
X83954000Y-3616800D01*
X83446001Y-3616800D01*
X83120539Y-3616800D01*
X83031094Y-3624390D01*
X82915598Y-3654367D01*
X82806790Y-3703381D01*
X82707806Y-3770021D01*
X82621464Y-3852386D01*
X82550230Y-3948128D01*
X82496149Y-4054499D01*
X82492578Y-4066000D01*
X80478123Y-4066000D01*
X80479771Y-4061839D01*
X80479771Y-4061835D01*
X80488302Y-4040285D01*
X80527954Y-4023860D01*
X80536724Y-4020228D01*
X80597281Y-3973760D01*
X80643748Y-3913204D01*
X80653665Y-3889262D01*
X80672960Y-3842681D01*
X80680423Y-3785992D01*
X80680423Y-3478012D01*
X80672960Y-3421323D01*
X80643749Y-3350802D01*
X80643748Y-3350800D01*
X80597281Y-3290244D01*
X80580456Y-3277334D01*
X80536723Y-3243776D01*
X80516447Y-3235377D01*
X80485566Y-3211681D01*
X80470669Y-3175718D01*
X80475750Y-3137124D01*
X80499447Y-3106242D01*
X80545226Y-3090702D01*
X81117156Y-3090702D01*
X81143255Y-3113190D01*
X81160971Y-3128455D01*
X81160974Y-3128457D01*
X81274565Y-3200126D01*
X81397502Y-3254221D01*
X81527088Y-3289551D01*
X81532944Y-3290244D01*
X81660472Y-3305337D01*
X81660473Y-3305337D01*
X81794724Y-3301235D01*
X81808483Y-3298747D01*
X81926894Y-3277335D01*
X81957808Y-3266841D01*
X82054080Y-3234162D01*
X82173486Y-3172663D01*
X82173488Y-3172662D01*
X82282494Y-3094190D01*
X82378703Y-3000466D01*
X82378706Y-3000463D01*
X82427093Y-2936830D01*
X83722390Y-2936830D01*
X83723425Y-2941962D01*
X83741561Y-3031909D01*
X83755886Y-3065657D01*
X83779460Y-3121194D01*
X83834538Y-3201033D01*
X83904544Y-3268166D01*
X83957057Y-3301235D01*
X83984799Y-3318705D01*
X83986620Y-3319852D01*
X84077412Y-3353979D01*
X84134891Y-3363083D01*
X84173209Y-3369152D01*
X84173211Y-3369152D01*
X84270105Y-3364752D01*
X84364135Y-3340958D01*
X84374948Y-3335731D01*
X84451457Y-3298747D01*
X84467127Y-3286766D01*
X84528514Y-3239832D01*
X84534032Y-3233485D01*
X84592148Y-3166630D01*
X84608774Y-3137124D01*
X84639762Y-3082128D01*
X84639877Y-3081772D01*
X84669413Y-2989777D01*
X84669890Y-2985384D01*
X84679888Y-2893350D01*
X84679888Y-2893287D01*
X84679901Y-2890003D01*
X84670098Y-2793502D01*
X84641093Y-2700946D01*
X84596261Y-2620068D01*
X84594070Y-2616115D01*
X84530948Y-2542470D01*
X84454308Y-2483022D01*
X84367280Y-2440198D01*
X84273418Y-2415749D01*
X84176557Y-2410673D01*
X84176554Y-2410673D01*
X84080659Y-2425176D01*
X84080658Y-2425176D01*
X84080654Y-2425177D01*
X83989626Y-2458669D01*
X83989621Y-2458671D01*
X83907191Y-2509779D01*
X83836718Y-2576422D01*
X83781084Y-2655876D01*
X83742564Y-2744891D01*
X83729269Y-2808533D01*
X83722729Y-2839837D01*
X83722390Y-2936830D01*
X82427093Y-2936830D01*
X82460002Y-2893553D01*
X82524606Y-2775794D01*
X82530195Y-2760644D01*
X82571094Y-2649782D01*
X82587821Y-2569369D01*
X82598447Y-2518283D01*
X82606061Y-2384188D01*
X82605390Y-2376887D01*
X82593771Y-2250434D01*
X82593523Y-2249419D01*
X82561848Y-2119970D01*
X82510989Y-1995654D01*
X82442315Y-1880225D01*
X82371158Y-1793134D01*
X82225675Y-1647651D01*
X81908774Y-1059121D01*
X81904615Y-1048413D01*
X81903200Y-1037014D01*
X81903200Y-399999D01*
X81900698Y-368209D01*
X81890909Y-306408D01*
X81871264Y-245949D01*
X81855783Y-215565D01*
X81842858Y-190197D01*
X81828331Y-170201D01*
X81805487Y-138759D01*
X81805484Y-138755D01*
X81787359Y-120631D01*
X81780060Y-113332D01*
X81765184Y-92857D01*
X81748935Y-78226D01*
X81695940Y-30510D01*
X81615250Y16077D01*
X81612403Y17002D01*
X81526630Y44871D01*
X81457749Y52111D01*
X80943180Y52111D01*
X80821235Y32797D01*
X80805971Y26001D01*
X80754758Y3200D01*
X79649727Y3200D01*
X79613801Y23941D01*
X79613802Y23941D01*
X79613798Y23943D01*
X79525181Y52736D01*
X79456300Y59976D01*
X78941731Y59976D01*
X78819786Y40662D01*
X78734665Y2764D01*
X78734663Y2763D01*
X78659284Y-52003D01*
X78596936Y-121248D01*
X78550349Y-201938D01*
X78550348Y-201941D01*
X78521555Y-290558D01*
X78514315Y-359439D01*
X78514315Y-780507D01*
X78448522Y-846300D01*
X76223630Y-846300D01*
X76183555Y-845881D01*
X76159297Y-851125D01*
X76134612Y-853894D01*
X76115161Y-860667D01*
X76095042Y-865017D01*
X76072539Y-875511D01*
X76049092Y-883676D01*
X76031636Y-894583D01*
X76012971Y-903287D01*
X75993346Y-918510D01*
X75989875Y-920679D01*
X75972295Y-931664D01*
X75957686Y-946172D01*
X75956926Y-946761D01*
X75933296Y-970391D01*
X75908041Y-995470D01*
X75908039Y-995473D01*
X75908038Y-995474D01*
X75907734Y-995953D01*
X75588898Y-1314790D01*
X75560219Y-1342875D01*
X75546771Y-1363742D01*
X75531277Y-1383151D01*
X75522316Y-1401689D01*
X75511463Y-1418529D01*
X75511163Y-1418994D01*
X75502666Y-1442336D01*
X75491864Y-1464682D01*
X75487234Y-1484738D01*
X75483294Y-1495563D01*
X75459149Y-1561889D01*
X75342390Y-1545100D01*
X75113508Y-1545100D01*
X75102016Y-1547600D01*
X74917386Y-1547600D01*
X74853883Y-1484097D01*
X74852031Y-1464682D01*
X74845381Y-1394978D01*
X74829820Y-1341937D01*
X74815681Y-1293742D01*
X74812422Y-1287414D01*
X74767376Y-1199952D01*
X74702204Y-1116983D01*
X74622522Y-1047840D01*
X74531202Y-995010D01*
X74431540Y-960402D01*
X74346463Y-948066D01*
X74313002Y-943214D01*
X74053427Y-683641D01*
X74025035Y-654648D01*
X74025034Y-654647D01*
X74004205Y-641223D01*
X73984837Y-625762D01*
X73984838Y-625762D01*
X73984836Y-625761D01*
X73966335Y-616818D01*
X73949064Y-605687D01*
X73925768Y-597208D01*
X73909694Y-589438D01*
X73903466Y-586427D01*
X73883456Y-581808D01*
X73864136Y-574776D01*
X73839539Y-571669D01*
X73815404Y-566097D01*
X73815332Y-566097D01*
X73794864Y-566024D01*
X73793950Y-565909D01*
X73761635Y-565909D01*
X73725026Y-565781D01*
X73724453Y-565909D01*
X73714685Y-565909D01*
X73703169Y-532998D01*
X73695111Y-509966D01*
X73648062Y-435091D01*
X73585536Y-372565D01*
X73510659Y-325515D01*
X73427191Y-296309D01*
X73361508Y-288909D01*
X72842128Y-288909D01*
X72776445Y-296309D01*
X72692977Y-325515D01*
X72618100Y-372565D01*
X72555574Y-435091D01*
X72508525Y-509966D01*
X72500467Y-532998D01*
X72488951Y-565909D01*
X68135696Y-565909D01*
X67964626Y-394840D01*
X67936225Y-365838D01*
X67915396Y-352414D01*
X67896028Y-336953D01*
X67896029Y-336953D01*
X67896027Y-336952D01*
X67877526Y-328009D01*
X67860255Y-316878D01*
X67836959Y-308399D01*
X67825808Y-303009D01*
X67814657Y-297618D01*
X67794647Y-292999D01*
X67775327Y-285967D01*
X67750730Y-282860D01*
X67726595Y-277288D01*
X67726523Y-277288D01*
X67706055Y-277215D01*
X67705141Y-277100D01*
X67672958Y-277100D01*
X67637031Y-276975D01*
X67636217Y-276972D01*
X67636214Y-276972D01*
X67635642Y-277100D01*
X67318740Y-277100D01*
X67281140Y-267025D01*
X67253615Y-239500D01*
X67243540Y-201900D01*
X67253615Y-164300D01*
X67268873Y-145612D01*
X67330631Y-90898D01*
X67378316Y-21817D01*
X67396451Y26000D01*
X67153999Y26000D01*
X66402691Y26001D01*
X66404427Y16528D01*
X66443436Y-57798D01*
X66499102Y-120631D01*
X66527179Y-140012D01*
X66552400Y-169663D01*
X66559416Y-207952D01*
X66546348Y-244619D01*
X66516697Y-269840D01*
X66484460Y-277100D01*
X65718740Y-277100D01*
X65681140Y-267025D01*
X65653615Y-239500D01*
X65643540Y-201900D01*
X65653615Y-164300D01*
X65668873Y-145612D01*
X65730631Y-90898D01*
X65778316Y-21817D01*
X65796451Y26000D01*
X65553999Y26000D01*
X64802691Y26001D01*
X64804427Y16528D01*
X64843436Y-57798D01*
X64899102Y-120631D01*
X64927179Y-140012D01*
X64952400Y-169663D01*
X64959416Y-207952D01*
X64946348Y-244619D01*
X64916697Y-269840D01*
X64884460Y-277100D01*
X64819550Y-277100D01*
X64784819Y-276737D01*
X64779032Y-276676D01*
X64779030Y-276676D01*
X64754812Y-281912D01*
X64730184Y-284674D01*
X64726799Y-285853D01*
X64710770Y-291434D01*
X64690693Y-295775D01*
X64668238Y-306245D01*
X64644833Y-314396D01*
X64627404Y-325287D01*
X64608783Y-333970D01*
X64589202Y-349159D01*
X64572751Y-359439D01*
X64568187Y-362291D01*
X64553606Y-376770D01*
X64552878Y-377335D01*
X64530214Y-399999D01*
X64504056Y-425975D01*
X64503740Y-426473D01*
X64360433Y-569781D01*
X64322530Y-547847D01*
X64322522Y-547840D01*
X64308549Y-539756D01*
X64224598Y-491176D01*
X64344964Y-365656D01*
X64366907Y-329707D01*
X64393962Y-285384D01*
X64418833Y-213154D01*
X64424580Y-196463D01*
X64427618Y-170201D01*
X64435389Y-103040D01*
X64435389Y-102925D01*
X64435401Y-100002D01*
X64425243Y-6505D01*
X64425243Y-6504D01*
X64395246Y82629D01*
X64381428Y105627D01*
X64346810Y163242D01*
X64282192Y231573D01*
X64282191Y231574D01*
X64204408Y284435D01*
X64117088Y319361D01*
X64024305Y334721D01*
X63930388Y329799D01*
X63930382Y329797D01*
X63861289Y326176D01*
X63867435Y372846D01*
X63867437Y372852D01*
X63874083Y423332D01*
X63874900Y429538D01*
X63874900Y533999D01*
X65554000Y533999D01*
X65797309Y533999D01*
X67154000Y533999D01*
X67397309Y533999D01*
X67395573Y543472D01*
X67356564Y617798D01*
X67300898Y680631D01*
X67235172Y726001D01*
X70302691Y726001D01*
X70304427Y716528D01*
X70343436Y642202D01*
X70399102Y579369D01*
X70553388Y472869D01*
X70481303Y417557D01*
X70481300Y417556D01*
X70419706Y370294D01*
X70372444Y308700D01*
X70342734Y236973D01*
X70335100Y178989D01*
X70335100Y-138989D01*
X70342734Y-196973D01*
X70372444Y-268700D01*
X70419706Y-330294D01*
X70481300Y-377556D01*
X70553027Y-407266D01*
X70611011Y-414900D01*
X70988989Y-414900D01*
X71046973Y-407266D01*
X71118700Y-377556D01*
X71180294Y-330294D01*
X71227556Y-268700D01*
X71227557Y-268698D01*
X71249961Y-239500D01*
X71287001Y-239500D01*
X71294389Y-241172D01*
X71294390Y-241172D01*
X71298882Y-240893D01*
X71321345Y-239500D01*
X71332458Y-239500D01*
X71340958Y-238283D01*
X71367116Y-236660D01*
X71376866Y-233140D01*
X71387132Y-231670D01*
X71411001Y-220818D01*
X71428688Y-214432D01*
X71435653Y-211917D01*
X71444023Y-205803D01*
X71453464Y-201510D01*
X71457477Y-198052D01*
X71473329Y-184394D01*
X71475992Y-182449D01*
X71514279Y-154500D01*
X71549789Y-154500D01*
X71580440Y-195175D01*
X71582609Y-198054D01*
X71654013Y-259255D01*
X71709319Y-288909D01*
X71736896Y-303696D01*
X71827389Y-329303D01*
X71921269Y-334880D01*
X71921271Y-334880D01*
X71996649Y-322941D01*
X72014157Y-320168D01*
X72101719Y-285853D01*
X72179870Y-233536D01*
X72181000Y-232358D01*
X72244962Y-165659D01*
X72256618Y-146563D01*
X72257259Y-145512D01*
X74166985Y-145512D01*
X74186017Y-233536D01*
X74186860Y-237437D01*
X74220361Y-310607D01*
X74226009Y-322943D01*
X74282607Y-398052D01*
X74282609Y-398054D01*
X74354013Y-459255D01*
X74401922Y-484943D01*
X74436896Y-503696D01*
X74527389Y-529303D01*
X74621269Y-534880D01*
X74621271Y-534880D01*
X74688788Y-524186D01*
X74714157Y-520168D01*
X74801719Y-485853D01*
X74879870Y-433536D01*
X74895372Y-417371D01*
X74944962Y-365659D01*
X74962484Y-336953D01*
X74993962Y-285384D01*
X75018833Y-213154D01*
X75024580Y-196463D01*
X75027618Y-170201D01*
X75030474Y-145512D01*
X77366985Y-145512D01*
X77386017Y-233536D01*
X77386860Y-237437D01*
X77420361Y-310607D01*
X77426009Y-322943D01*
X77482607Y-398052D01*
X77482609Y-398054D01*
X77554013Y-459255D01*
X77601922Y-484943D01*
X77636896Y-503696D01*
X77727389Y-529303D01*
X77821269Y-534880D01*
X77821271Y-534880D01*
X77888788Y-524186D01*
X77914157Y-520168D01*
X78001719Y-485853D01*
X78079870Y-433536D01*
X78095372Y-417371D01*
X78144962Y-365659D01*
X78162484Y-336953D01*
X78193962Y-285384D01*
X78218833Y-213154D01*
X78224580Y-196463D01*
X78227618Y-170201D01*
X78235389Y-103040D01*
X78235389Y-102925D01*
X78235401Y-100002D01*
X78225243Y-6505D01*
X78225243Y-6504D01*
X78195246Y82629D01*
X78181428Y105627D01*
X78146810Y163242D01*
X78082192Y231573D01*
X78082191Y231574D01*
X78004408Y284435D01*
X77917088Y319361D01*
X77854037Y329799D01*
X77824306Y334721D01*
X77824305Y334721D01*
X77730388Y329799D01*
X77702286Y322059D01*
X77639719Y304826D01*
X77600285Y284034D01*
X77556527Y260963D01*
X77485973Y201339D01*
X77484694Y200258D01*
X77427576Y125552D01*
X77427574Y125549D01*
X77387829Y40314D01*
X77367313Y-51466D01*
X77366985Y-145512D01*
X75030474Y-145512D01*
X75035389Y-103040D01*
X75035389Y-102925D01*
X75035401Y-100002D01*
X75025243Y-6505D01*
X75025243Y-6504D01*
X74995246Y82629D01*
X74981428Y105627D01*
X74946810Y163242D01*
X74882192Y231573D01*
X74882191Y231574D01*
X74804408Y284435D01*
X74717088Y319361D01*
X74654037Y329799D01*
X74624306Y334721D01*
X74624305Y334721D01*
X74530388Y329799D01*
X74502286Y322059D01*
X74439719Y304826D01*
X74400285Y284034D01*
X74356527Y260963D01*
X74285973Y201339D01*
X74284694Y200258D01*
X74227576Y125552D01*
X74227574Y125549D01*
X74187829Y40314D01*
X74167313Y-51466D01*
X74166985Y-145512D01*
X72257259Y-145512D01*
X72293962Y-85384D01*
X72323363Y3D01*
X72324580Y3537D01*
X72326138Y17002D01*
X72335389Y96960D01*
X72335398Y99321D01*
X72335401Y99998D01*
X72325243Y193495D01*
X72322967Y200258D01*
X72295246Y282629D01*
X72276308Y314147D01*
X72246810Y363242D01*
X72182192Y431573D01*
X72182191Y431574D01*
X72104408Y484435D01*
X72017088Y519361D01*
X71969785Y527192D01*
X72421118Y527192D01*
X72421118Y477907D01*
X72440432Y355963D01*
X72478331Y270839D01*
X72533097Y195460D01*
X72602342Y133112D01*
X72683032Y86525D01*
X72771654Y57731D01*
X72840533Y50491D01*
X72847818Y50491D01*
X72847818Y50604D01*
X73355817Y50604D01*
X73477046Y69805D01*
X73562170Y107704D01*
X73637549Y162470D01*
X73699897Y231715D01*
X73746484Y312405D01*
X73775278Y401027D01*
X73782518Y469906D01*
X73782518Y527191D01*
X73355818Y527191D01*
X73355817Y50604D01*
X72847818Y50604D01*
X72847819Y527192D01*
X72421118Y527192D01*
X71969785Y527192D01*
X71952829Y529999D01*
X71924306Y534721D01*
X71924305Y534721D01*
X71830388Y529799D01*
X71802286Y522059D01*
X71739719Y504826D01*
X71656527Y460963D01*
X71584694Y400259D01*
X71549709Y354500D01*
X71427996Y354500D01*
X71420610Y356171D01*
X71393672Y354500D01*
X71382543Y354500D01*
X71374034Y353281D01*
X71347884Y351659D01*
X71338138Y348141D01*
X71327869Y346670D01*
X71303994Y335815D01*
X71287330Y329799D01*
X71227843Y308325D01*
X71227557Y308698D01*
X71227556Y308700D01*
X71180294Y370294D01*
X71118700Y417556D01*
X71118697Y417557D01*
X71033485Y482942D01*
X71167799Y553437D01*
X71230631Y609102D01*
X71278316Y678183D01*
X71290050Y709124D01*
X75424999Y709124D01*
X75490142Y739777D01*
X75547570Y787287D01*
X75626526Y729921D01*
X75675000Y710729D01*
X75675000Y1512501D01*
X75668200Y1512501D01*
X75668200Y1512500D01*
X75425000Y1512500D01*
X75424999Y709124D01*
X76074999Y709124D01*
X76140142Y739777D01*
X76197570Y787287D01*
X76276526Y729921D01*
X76325000Y710729D01*
X76325000Y1512501D01*
X76318200Y1512501D01*
X76318200Y1512500D01*
X76075000Y1512500D01*
X76074999Y709124D01*
X76724999Y709124D01*
X76790142Y739777D01*
X76847570Y787287D01*
X76926526Y729921D01*
X76975000Y710729D01*
X76975000Y1512501D01*
X76968200Y1512501D01*
X76968200Y1512500D01*
X76725000Y1512500D01*
X76724999Y709124D01*
X77374999Y709124D01*
X77440141Y739777D01*
X77499667Y789022D01*
X77526007Y825277D01*
X78514315Y825277D01*
X78514315Y775992D01*
X78533629Y654048D01*
X78571528Y568924D01*
X78626294Y493545D01*
X78695539Y431197D01*
X78776229Y384610D01*
X78864851Y355816D01*
X78933730Y348576D01*
X78941015Y348576D01*
X78941015Y348689D01*
X79449014Y348689D01*
X79570243Y367890D01*
X79655367Y405789D01*
X79730746Y460555D01*
X79793094Y529800D01*
X79839681Y610490D01*
X79868475Y699112D01*
X79875715Y767991D01*
X79875715Y817412D01*
X80515764Y817412D01*
X80515764Y768127D01*
X80535078Y646183D01*
X80572977Y561059D01*
X80627743Y485680D01*
X80696988Y423332D01*
X80777678Y376745D01*
X80866300Y347951D01*
X80935179Y340711D01*
X80942464Y340711D01*
X80942464Y340824D01*
X81450463Y340824D01*
X81571692Y360025D01*
X81656816Y397924D01*
X81732195Y452690D01*
X81794543Y521935D01*
X81841130Y602625D01*
X81869925Y691250D01*
X81877164Y760126D01*
X81877164Y817411D01*
X81450464Y817411D01*
X81450463Y340824D01*
X80942464Y340824D01*
X80942465Y817412D01*
X80515764Y817412D01*
X79875715Y817412D01*
X79875715Y825276D01*
X79449015Y825276D01*
X79449014Y348689D01*
X78941015Y348689D01*
X78941016Y825277D01*
X78514315Y825277D01*
X77526007Y825277D01*
X77545079Y851526D01*
X77573516Y923352D01*
X77580700Y980212D01*
X77580700Y1333275D01*
X79449014Y1333275D01*
X79875715Y1333275D01*
X79875715Y1382560D01*
X79875694Y1382696D01*
X80515764Y1382696D01*
X80515764Y1325411D01*
X80942465Y1325411D01*
X81877164Y1325410D01*
X81877164Y1374695D01*
X81857850Y1496639D01*
X81819952Y1581760D01*
X81767113Y1654488D01*
X83966985Y1654488D01*
X83986798Y1562852D01*
X83986860Y1562563D01*
X84017043Y1496639D01*
X84026009Y1477057D01*
X84078400Y1407531D01*
X84082609Y1401946D01*
X84154013Y1340745D01*
X84192517Y1320100D01*
X84236896Y1296304D01*
X84327389Y1270697D01*
X84421269Y1265120D01*
X84421271Y1265120D01*
X84494521Y1276722D01*
X84514157Y1279832D01*
X84601719Y1314147D01*
X84679870Y1366464D01*
X84694554Y1381776D01*
X84744962Y1434341D01*
X84754522Y1450003D01*
X84793962Y1514616D01*
X84818002Y1584435D01*
X84824580Y1603537D01*
X84826587Y1620887D01*
X84835389Y1696960D01*
X84835393Y1697997D01*
X84835401Y1699998D01*
X84825243Y1793495D01*
X84824998Y1794224D01*
X84795246Y1882629D01*
X84776026Y1914616D01*
X84746810Y1963242D01*
X84682192Y2031573D01*
X84682191Y2031574D01*
X84604408Y2084435D01*
X84517088Y2119361D01*
X84445562Y2131202D01*
X84424306Y2134721D01*
X84424305Y2134721D01*
X84330388Y2129799D01*
X84302286Y2122059D01*
X84239719Y2104826D01*
X84197622Y2082630D01*
X84156527Y2060963D01*
X84088575Y2003538D01*
X84084694Y2000258D01*
X84032104Y1931474D01*
X84027574Y1925549D01*
X83987829Y1840314D01*
X83967313Y1748534D01*
X83966985Y1654488D01*
X81767113Y1654488D01*
X81747685Y1681228D01*
X81838374Y1707490D01*
X81838377Y1707490D01*
X81920909Y1731390D01*
X81953080Y1740706D01*
X82060542Y1792770D01*
X82060656Y1792851D01*
X82157702Y1862202D01*
X82157706Y1862205D01*
X82241768Y1947002D01*
X82262852Y1977057D01*
X82310351Y2044767D01*
X82314957Y2054488D01*
X82361478Y2152684D01*
X82368306Y2177057D01*
X82393691Y2267671D01*
X82402564Y2352809D01*
X82406070Y2386440D01*
X82406200Y2400002D01*
X82401893Y2450758D01*
X82396104Y2518987D01*
X82366104Y2634572D01*
X82317185Y2743170D01*
X83722390Y2743170D01*
X83722391Y2743166D01*
X83741561Y2648091D01*
X83760635Y2603156D01*
X83779460Y2558806D01*
X83834538Y2478967D01*
X83904544Y2411834D01*
X83944869Y2386440D01*
X83981707Y2363242D01*
X83986620Y2360148D01*
X84077412Y2326021D01*
X84134891Y2316917D01*
X84173209Y2310848D01*
X84173211Y2310848D01*
X84270105Y2315248D01*
X84364135Y2339042D01*
X84380701Y2347050D01*
X84451457Y2381253D01*
X84459768Y2387607D01*
X84528514Y2440168D01*
X84592148Y2513370D01*
X84639762Y2597872D01*
X84641995Y2604825D01*
X84669413Y2690223D01*
X84669940Y2695078D01*
X84679888Y2786650D01*
X84679888Y2786713D01*
X84679901Y2789997D01*
X84670098Y2886498D01*
X84641093Y2979054D01*
X84595690Y3060963D01*
X84594070Y3063885D01*
X84530948Y3137530D01*
X84454308Y3196978D01*
X84367280Y3239802D01*
X84273418Y3264251D01*
X84176557Y3269327D01*
X84176554Y3269327D01*
X84080659Y3254824D01*
X84080658Y3254824D01*
X84080654Y3254823D01*
X83989626Y3221331D01*
X83989621Y3221329D01*
X83907191Y3170221D01*
X83836718Y3103578D01*
X83781084Y3024124D01*
X83742564Y2935109D01*
X83722729Y2840164D01*
X83722729Y2840163D01*
X83722390Y2743170D01*
X82317185Y2743170D01*
X82317058Y2743450D01*
X82250368Y2842508D01*
X82167942Y2928913D01*
X82162105Y2933256D01*
X82072137Y3000194D01*
X81965694Y3054313D01*
X81965690Y3054315D01*
X81851646Y3089726D01*
X81851645Y3089726D01*
X81851642Y3089727D01*
X81733267Y3105416D01*
X81613934Y3100936D01*
X81497069Y3076415D01*
X81497067Y3076414D01*
X81497066Y3076414D01*
X81441533Y3054483D01*
X81385996Y3032551D01*
X81283910Y2970602D01*
X81193718Y2892338D01*
X81118003Y2799998D01*
X81118002Y2799996D01*
X81058928Y2696217D01*
X81018183Y2583968D01*
X80996934Y2466459D01*
X80995914Y2360149D01*
X80995788Y2347047D01*
X81011656Y2248534D01*
X81014777Y2229155D01*
X81053359Y2116144D01*
X81110430Y2011251D01*
X81177992Y1925549D01*
X81179318Y1923867D01*
X81194684Y1888101D01*
X81190108Y1849445D01*
X81166818Y1818255D01*
X81120262Y1802111D01*
X80943180Y1802111D01*
X80821236Y1782797D01*
X80736112Y1744898D01*
X80660733Y1690132D01*
X80598385Y1620887D01*
X80551798Y1540197D01*
X80523004Y1451575D01*
X80515764Y1382696D01*
X79875694Y1382696D01*
X79856401Y1504504D01*
X79818502Y1589628D01*
X79763736Y1665007D01*
X79694491Y1727355D01*
X79613801Y1773942D01*
X79525179Y1802736D01*
X79456300Y1809976D01*
X79449015Y1809976D01*
X79449014Y1333275D01*
X77580700Y1333275D01*
X77580700Y1390561D01*
X78514315Y1390561D01*
X78514315Y1333276D01*
X78941015Y1333276D01*
X78941016Y1809863D01*
X78819787Y1790662D01*
X78734663Y1752763D01*
X78659284Y1697997D01*
X78596936Y1628752D01*
X78550349Y1548062D01*
X78521555Y1459440D01*
X78514315Y1390561D01*
X77580700Y1390561D01*
X77580700Y1512500D01*
X77375000Y1512500D01*
X77374999Y709124D01*
X76724999Y709124D01*
X76074999Y709124D01*
X75424999Y709124D01*
X71290050Y709124D01*
X71296451Y726000D01*
X71053999Y726000D01*
X70302691Y726001D01*
X67235172Y726001D01*
X67231816Y728317D01*
X67154000Y757828D01*
X67154000Y533999D01*
X65797309Y533999D01*
X65797309Y534000D01*
X66403549Y534000D01*
X66646001Y534000D01*
X66646001Y752807D01*
X66606527Y745573D01*
X66532202Y706564D01*
X66469369Y650898D01*
X66421684Y581817D01*
X66403549Y534000D01*
X65797309Y534000D01*
X65795573Y543472D01*
X65756564Y617798D01*
X65700898Y680631D01*
X65631816Y728317D01*
X65554000Y757828D01*
X65554000Y533999D01*
X63874900Y533999D01*
X63874900Y737518D01*
X63874603Y739777D01*
X63867437Y794210D01*
X63838226Y864731D01*
X63838225Y864733D01*
X63791758Y925289D01*
X63731313Y971671D01*
X64016334Y971671D01*
X64035586Y882629D01*
X64036209Y879746D01*
X64075356Y794243D01*
X64075358Y794241D01*
X64075358Y794240D01*
X64126780Y726001D01*
X64131958Y719129D01*
X64203362Y657928D01*
X64255825Y629798D01*
X64286245Y613487D01*
X64376738Y587880D01*
X64470618Y582303D01*
X64470620Y582303D01*
X64532543Y592111D01*
X64563506Y597015D01*
X64651068Y631330D01*
X64709284Y670302D01*
X64746132Y682846D01*
X64784317Y675285D01*
X64813606Y649645D01*
X64826151Y612795D01*
X64821429Y581144D01*
X64803549Y534000D01*
X65046001Y534000D01*
X65046001Y752807D01*
X65006528Y745573D01*
X64929789Y705297D01*
X64891813Y696744D01*
X64854649Y708325D01*
X64828255Y736935D01*
X64819702Y774911D01*
X64830653Y811062D01*
X64833306Y815408D01*
X64843311Y831799D01*
X64866794Y900000D01*
X64873929Y920720D01*
X64876600Y943808D01*
X64884738Y1014143D01*
X64884740Y1014616D01*
X64884750Y1017182D01*
X64882794Y1035190D01*
X73355817Y1035190D01*
X73782518Y1035190D01*
X73782518Y1084475D01*
X73763204Y1206419D01*
X73725305Y1291543D01*
X73670539Y1366922D01*
X73601294Y1429270D01*
X73520604Y1475857D01*
X73431982Y1504651D01*
X73363103Y1511891D01*
X73355818Y1511891D01*
X73355817Y1035190D01*
X64882794Y1035190D01*
X64877353Y1085270D01*
X64884559Y1092476D01*
X72421118Y1092476D01*
X72421118Y1035191D01*
X72847818Y1035191D01*
X72847819Y1511778D01*
X72726590Y1492577D01*
X72641466Y1454678D01*
X72566087Y1399912D01*
X72503739Y1330667D01*
X72457152Y1249977D01*
X72428358Y1161355D01*
X72421118Y1092476D01*
X64884559Y1092476D01*
X65026082Y1233999D01*
X71054000Y1233999D01*
X71297309Y1233999D01*
X71295573Y1243472D01*
X71256564Y1317798D01*
X71200898Y1380631D01*
X71131816Y1428317D01*
X71054000Y1457828D01*
X71054000Y1233999D01*
X65026082Y1233999D01*
X65026083Y1234000D01*
X70303549Y1234000D01*
X70546001Y1234000D01*
X70546001Y1452807D01*
X70506527Y1445573D01*
X70432202Y1406564D01*
X70369369Y1350898D01*
X70321684Y1281817D01*
X70303549Y1234000D01*
X65026083Y1234000D01*
X65117184Y1325100D01*
X65443990Y1325100D01*
X65500679Y1332563D01*
X65571200Y1361774D01*
X65571202Y1361775D01*
X65631758Y1408242D01*
X65678225Y1468798D01*
X65681647Y1477059D01*
X65705759Y1535269D01*
X65729454Y1566149D01*
X65765417Y1581046D01*
X65804011Y1575965D01*
X65834893Y1552268D01*
X65849201Y1520044D01*
X65854102Y1493299D01*
X65892551Y1420042D01*
X65947417Y1358111D01*
X66015508Y1311111D01*
X66056000Y1295754D01*
X66056000Y1546000D01*
X66563999Y1546000D01*
X66563999Y1293607D01*
X66566701Y1294102D01*
X66639958Y1332551D01*
X66701889Y1387417D01*
X66748889Y1455506D01*
X66770503Y1512501D01*
X74819300Y1512501D01*
X74819300Y984214D01*
X74831884Y904762D01*
X74864778Y834857D01*
X74914022Y775333D01*
X74976525Y729921D01*
X75025000Y710729D01*
X75025000Y1512501D01*
X74819300Y1512501D01*
X66770503Y1512501D01*
X66778228Y1532870D01*
X66779823Y1546000D01*
X66563999Y1546000D01*
X66056000Y1546000D01*
X66056001Y1648534D01*
X66056001Y2053999D01*
X66564000Y2053999D01*
X66775556Y2053999D01*
X66765898Y2106701D01*
X66727449Y2179958D01*
X66672583Y2241889D01*
X66604492Y2288889D01*
X66564000Y2304246D01*
X66564000Y2053999D01*
X66056001Y2053999D01*
X66056001Y2306393D01*
X66053299Y2305898D01*
X65980042Y2267449D01*
X65918111Y2212583D01*
X65871112Y2144495D01*
X65843520Y2071739D01*
X65820767Y2040155D01*
X65785270Y2024179D01*
X65746540Y2028091D01*
X65714956Y2050844D01*
X65703732Y2069624D01*
X65678226Y2131200D01*
X65631758Y2191758D01*
X65624966Y2196970D01*
X65571202Y2238225D01*
X65566159Y2240314D01*
X65500679Y2267437D01*
X65443990Y2274900D01*
X65136010Y2274900D01*
X65079321Y2267437D01*
X65013841Y2240314D01*
X65008798Y2238225D01*
X64948242Y2191758D01*
X64901775Y2131202D01*
X64901775Y2131201D01*
X64901774Y2131200D01*
X64872563Y2060679D01*
X64865100Y2003990D01*
X64865100Y1792851D01*
X64516981Y1444731D01*
X64473655Y1451904D01*
X64473654Y1451904D01*
X64442348Y1450263D01*
X64379735Y1446982D01*
X64289068Y1422009D01*
X64244849Y1398694D01*
X64205876Y1378146D01*
X64144119Y1325956D01*
X64134043Y1317441D01*
X64076925Y1242735D01*
X64076923Y1242732D01*
X64037178Y1157497D01*
X64016662Y1065717D01*
X64016334Y971671D01*
X63731313Y971671D01*
X63731202Y971756D01*
X63731200Y971757D01*
X63660679Y1000968D01*
X63603990Y1008431D01*
X63196010Y1008431D01*
X63139321Y1000968D01*
X63068800Y971757D01*
X63068798Y971756D01*
X63008242Y925289D01*
X62960776Y863431D01*
X62741733Y863431D01*
X62689638Y931322D01*
X62629082Y977789D01*
X62628551Y978009D01*
X62558559Y1007001D01*
X62501870Y1014464D01*
X62093890Y1014464D01*
X62037201Y1007001D01*
X61967209Y978009D01*
X61966678Y977789D01*
X61906122Y931322D01*
X61859655Y870766D01*
X61859654Y870764D01*
X61830443Y800243D01*
X61822980Y743554D01*
X61822980Y435574D01*
X61830443Y378885D01*
X61854502Y320803D01*
X61859655Y308362D01*
X61888448Y270839D01*
X61906122Y247806D01*
X61966680Y201338D01*
X62017980Y180089D01*
X62017980Y23965D01*
X62007905Y-13635D01*
X61980380Y-41160D01*
X61942780Y-51235D01*
X61895864Y-34805D01*
X61886027Y-26952D01*
X61867526Y-18009D01*
X61850255Y-6878D01*
X61826959Y1601D01*
X61815808Y6991D01*
X61804657Y12382D01*
X61784647Y17001D01*
X61765327Y24033D01*
X61740730Y27140D01*
X61716595Y32712D01*
X61716523Y32712D01*
X61696055Y32785D01*
X61695141Y32900D01*
X61662958Y32900D01*
X61627031Y33025D01*
X61626217Y33028D01*
X61626214Y33028D01*
X61625642Y32900D01*
X60115958Y32900D01*
X60054355Y114472D01*
X60036465Y125549D01*
X60005956Y144440D01*
X59991967Y147055D01*
X59950003Y154900D01*
X57550000Y154900D01*
X57505526Y144440D01*
X57480954Y138661D01*
X57361892Y48745D01*
X57319851Y192044D01*
X57315681Y206258D01*
X57299861Y236974D01*
X57267376Y300048D01*
X57202204Y383017D01*
X57122522Y452160D01*
X57091847Y469906D01*
X57031202Y504990D01*
X56959183Y529999D01*
X57344300Y529999D01*
X57354368Y466436D01*
X57383586Y409091D01*
X57429091Y363586D01*
X57486436Y334368D01*
X57549999Y324300D01*
X58496000Y324300D01*
X59003999Y324300D01*
X59950001Y324300D01*
X60013564Y334368D01*
X60070909Y363586D01*
X60116414Y409091D01*
X60145632Y466436D01*
X60155700Y529999D01*
X60155700Y646000D01*
X59003999Y646001D01*
X59003999Y324300D01*
X58496000Y324300D01*
X58496000Y646000D01*
X57344300Y646001D01*
X57344300Y529999D01*
X56959183Y529999D01*
X56931540Y539598D01*
X56827131Y554737D01*
X56730671Y550272D01*
X56721741Y549859D01*
X56679166Y539598D01*
X56619179Y525141D01*
X56619177Y525140D01*
X56523141Y481476D01*
X56458432Y435574D01*
X56437090Y420435D01*
X56364135Y344225D01*
X56306907Y255595D01*
X56297226Y231573D01*
X56267472Y157743D01*
X56265283Y146532D01*
X56247731Y56654D01*
X56154357Y114470D01*
X56154355Y114472D01*
X56105956Y144440D01*
X56083574Y148624D01*
X56050003Y154900D01*
X53650000Y154900D01*
X53605526Y144440D01*
X53580954Y138661D01*
X53543709Y110533D01*
X53535528Y104355D01*
X53505560Y55956D01*
X53504212Y48745D01*
X53495100Y3D01*
X53495100Y-90100D01*
X51446451Y-90100D01*
X51472409Y6778D01*
X51488886Y68272D01*
X51488478Y79185D01*
X51486436Y133774D01*
X51466046Y192044D01*
X51542504Y268502D01*
X51561480Y267375D01*
X51599433Y265120D01*
X51599435Y265120D01*
X51661358Y274928D01*
X51692321Y279832D01*
X51779883Y314147D01*
X51858034Y366464D01*
X51858036Y366466D01*
X51923126Y434341D01*
X51941222Y463987D01*
X51972126Y514616D01*
X51997353Y587881D01*
X52002744Y603537D01*
X52004969Y622771D01*
X52013553Y696960D01*
X52013561Y699112D01*
X52013565Y699998D01*
X52004190Y786292D01*
X52003407Y793496D01*
X51973410Y882629D01*
X51950522Y920721D01*
X51924974Y963242D01*
X51860356Y1031573D01*
X51855034Y1035190D01*
X51782572Y1084435D01*
X51695252Y1119361D01*
X51632201Y1129799D01*
X51602470Y1134721D01*
X51602469Y1134721D01*
X51508552Y1129799D01*
X51469429Y1119023D01*
X51417881Y1104825D01*
X51345108Y1066456D01*
X51307149Y1057831D01*
X51269964Y1069342D01*
X51243516Y1097904D01*
X51234891Y1135863D01*
X51256862Y1186150D01*
X51390812Y1320100D01*
X52604063Y1320100D01*
X53219827Y704335D01*
X53239991Y682407D01*
X53242856Y680631D01*
X53261358Y669159D01*
X53281368Y653970D01*
X53293787Y649053D01*
X53305138Y642015D01*
X53305140Y642014D01*
X53329281Y634999D01*
X53352637Y625752D01*
X53355759Y625424D01*
X53365921Y624355D01*
X53378746Y620629D01*
X53385951Y620100D01*
X53406415Y620100D01*
X53411747Y619540D01*
X53495100Y610776D01*
X53495100Y530000D01*
X53501021Y504826D01*
X53511339Y460954D01*
X53541939Y420435D01*
X53545645Y415528D01*
X53594044Y385560D01*
X53607648Y383017D01*
X53649997Y375100D01*
X56050000Y375100D01*
X56096030Y385926D01*
X56119046Y391339D01*
X56164472Y425645D01*
X56167910Y431197D01*
X56194440Y474044D01*
X56198601Y496304D01*
X56204900Y529997D01*
X56204900Y1270001D01*
X56191868Y1325411D01*
X56188661Y1339046D01*
X56154355Y1384472D01*
X56140821Y1392852D01*
X56105956Y1414440D01*
X56091967Y1417055D01*
X56050003Y1424900D01*
X53650000Y1424900D01*
X53605526Y1414440D01*
X53580954Y1408661D01*
X53545348Y1381771D01*
X53535528Y1374355D01*
X53508549Y1330782D01*
X53461325Y1254514D01*
X53081117Y1634721D01*
X52954112Y1761725D01*
X52934648Y1795437D01*
X52934648Y1834363D01*
X52954111Y1868074D01*
X52987823Y1887538D01*
X53007286Y1890100D01*
X53495100Y1890100D01*
X53495100Y1800000D01*
X53503672Y1763554D01*
X53511339Y1730954D01*
X53545645Y1685528D01*
X53594044Y1655560D01*
X53599779Y1654488D01*
X53649997Y1645100D01*
X56050000Y1645100D01*
X56097450Y1656260D01*
X56119046Y1661339D01*
X56164472Y1695645D01*
X56176001Y1714265D01*
X56194440Y1744044D01*
X56197902Y1762566D01*
X56204900Y1799997D01*
X56204900Y2539998D01*
X56201608Y2553999D01*
X56191740Y2595955D01*
X56188661Y2609046D01*
X56180260Y2620170D01*
X56165640Y2656247D01*
X56171018Y2694800D01*
X56194951Y2725499D01*
X56240270Y2740689D01*
X57360166Y2740689D01*
X57397766Y2730614D01*
X57425291Y2703089D01*
X57435366Y2665489D01*
X57424102Y2625902D01*
X57405560Y2595956D01*
X57404907Y2592462D01*
X57395100Y2540003D01*
X57395100Y2387607D01*
X57385025Y2350007D01*
X57357500Y2322482D01*
X57319900Y2312407D01*
X57282300Y2322482D01*
X57255441Y2348877D01*
X57246810Y2363242D01*
X57182192Y2431573D01*
X57169545Y2440168D01*
X57104408Y2484435D01*
X57017088Y2519361D01*
X56970696Y2527041D01*
X56924306Y2534721D01*
X56924305Y2534721D01*
X56830388Y2529799D01*
X56811484Y2524592D01*
X56739719Y2504826D01*
X56690675Y2478967D01*
X56656527Y2460963D01*
X56586691Y2401946D01*
X56584694Y2400258D01*
X56530151Y2328920D01*
X56527574Y2325549D01*
X56487829Y2240314D01*
X56467313Y2148534D01*
X56466985Y2054488D01*
X56486211Y1965566D01*
X56486860Y1962563D01*
X56525212Y1878798D01*
X56526009Y1877057D01*
X56582607Y1801948D01*
X56582609Y1801946D01*
X56654013Y1740745D01*
X56699674Y1716262D01*
X56728051Y1689615D01*
X56739302Y1652350D01*
X56730413Y1614453D01*
X56699212Y1583468D01*
X56656527Y1560963D01*
X56591742Y1506214D01*
X56584694Y1500258D01*
X56528466Y1426716D01*
X56527574Y1425549D01*
X56487829Y1340314D01*
X56467313Y1248534D01*
X56466985Y1154488D01*
X56486359Y1064882D01*
X56486860Y1062563D01*
X56523517Y982500D01*
X56526009Y977057D01*
X56580487Y904762D01*
X56582609Y901946D01*
X56654013Y840745D01*
X56701269Y815407D01*
X56736896Y796304D01*
X56827389Y770697D01*
X56921269Y765120D01*
X56921271Y765120D01*
X56989912Y775992D01*
X57014157Y779832D01*
X57101719Y814147D01*
X57161980Y854488D01*
X60766985Y854488D01*
X60785705Y767907D01*
X60786860Y762563D01*
X60825493Y678183D01*
X60826009Y677057D01*
X60881409Y603538D01*
X60882609Y601946D01*
X60954013Y540745D01*
X61003619Y514147D01*
X61036896Y496304D01*
X61127389Y470697D01*
X61221269Y465120D01*
X61221271Y465120D01*
X61283194Y474928D01*
X61314157Y479832D01*
X61401719Y514147D01*
X61479870Y566464D01*
X61488743Y575717D01*
X61544962Y634341D01*
X61566215Y669159D01*
X61593962Y714616D01*
X61621368Y794210D01*
X61624580Y803537D01*
X61627850Y831800D01*
X61635389Y896960D01*
X61635389Y897075D01*
X61635401Y899998D01*
X61625243Y993496D01*
X61586183Y1109562D01*
X61695512Y1126879D01*
X61714157Y1129832D01*
X61801719Y1164147D01*
X61801718Y1164147D01*
X61801722Y1164148D01*
X61929624Y1249772D01*
X61966680Y1221338D01*
X62037201Y1192127D01*
X62093890Y1184664D01*
X62501870Y1184664D01*
X62558559Y1192127D01*
X62629080Y1221338D01*
X62629082Y1221339D01*
X62689638Y1267806D01*
X62736105Y1328362D01*
X62737060Y1330667D01*
X62765317Y1398885D01*
X62772780Y1455574D01*
X62772780Y1757521D01*
X62925100Y1757521D01*
X62925100Y1449541D01*
X62932563Y1392852D01*
X62960498Y1325411D01*
X62961775Y1322329D01*
X63008242Y1261773D01*
X63068798Y1215306D01*
X63068800Y1215305D01*
X63139321Y1186094D01*
X63196010Y1178631D01*
X63603990Y1178631D01*
X63660679Y1186094D01*
X63731200Y1215305D01*
X63731202Y1215306D01*
X63791758Y1261773D01*
X63838225Y1322329D01*
X63839502Y1325411D01*
X63867437Y1392852D01*
X63874900Y1449541D01*
X63874900Y1757521D01*
X63867437Y1814210D01*
X63838226Y1884731D01*
X63838225Y1884733D01*
X63769417Y1974404D01*
X63793962Y2014616D01*
X63798226Y2027000D01*
X63824580Y2103537D01*
X63825563Y2112031D01*
X63835389Y2196960D01*
X63835389Y2197075D01*
X63835401Y2199998D01*
X63825243Y2293495D01*
X63824297Y2296306D01*
X63795246Y2382629D01*
X63774847Y2416579D01*
X63757898Y2444788D01*
X74819300Y2444788D01*
X74819300Y1912500D01*
X75025000Y1912500D01*
X75025000Y2714271D01*
X75425000Y2714271D01*
X75425000Y1912499D01*
X75431800Y1912499D01*
X75431800Y1912500D01*
X75675000Y1912500D01*
X75675000Y2714271D01*
X76075000Y2714271D01*
X76075000Y1912499D01*
X76081800Y1912499D01*
X76081800Y1912500D01*
X76325000Y1912500D01*
X76325001Y2715876D01*
X76259858Y2685223D01*
X76202430Y2637713D01*
X76123474Y2695079D01*
X76075000Y2714271D01*
X75675000Y2714271D01*
X75675001Y2715876D01*
X75609858Y2685223D01*
X75552430Y2637713D01*
X75473474Y2695079D01*
X75425000Y2714271D01*
X75025000Y2714271D01*
X75025001Y2715876D01*
X74959859Y2685223D01*
X74900333Y2635978D01*
X74854921Y2573474D01*
X74826484Y2501648D01*
X74819300Y2444788D01*
X63757898Y2444788D01*
X63746810Y2463242D01*
X63682192Y2531573D01*
X63677560Y2534721D01*
X63604408Y2584435D01*
X63517088Y2619361D01*
X63454037Y2629799D01*
X63424306Y2634721D01*
X63424305Y2634721D01*
X63330388Y2629799D01*
X63305991Y2623079D01*
X63239719Y2604826D01*
X63188850Y2578005D01*
X63156527Y2560963D01*
X63084696Y2500260D01*
X63084694Y2500258D01*
X63027576Y2425552D01*
X63027574Y2425549D01*
X62987829Y2340314D01*
X62967313Y2248534D01*
X62966985Y2154488D01*
X62986017Y2066464D01*
X62986860Y2062563D01*
X63028478Y1971663D01*
X62961775Y1884733D01*
X62961774Y1884731D01*
X62932563Y1814210D01*
X62925100Y1757521D01*
X62772780Y1757521D01*
X62772780Y1763554D01*
X62765317Y1820243D01*
X62736106Y1890764D01*
X62736105Y1890766D01*
X62689638Y1951322D01*
X62629082Y1997789D01*
X62629080Y1997790D01*
X62558559Y2027001D01*
X62501870Y2034464D01*
X62093890Y2034464D01*
X62037201Y2027001D01*
X61966680Y1997790D01*
X61966678Y1997789D01*
X61906121Y1951322D01*
X61862744Y1894790D01*
X61804408Y1934435D01*
X61717088Y1969361D01*
X61654037Y1979799D01*
X61624306Y1984721D01*
X61624305Y1984721D01*
X61530388Y1979799D01*
X61510805Y1974405D01*
X61439719Y1954826D01*
X61385247Y1926106D01*
X61356527Y1910963D01*
X61289699Y1854488D01*
X61284694Y1850258D01*
X61227576Y1775552D01*
X61227574Y1775549D01*
X61187829Y1690314D01*
X61167313Y1598534D01*
X61166985Y1504488D01*
X61186859Y1412566D01*
X61186860Y1412563D01*
X61200575Y1349131D01*
X61039719Y1304826D01*
X60992315Y1279832D01*
X60956527Y1260963D01*
X60884696Y1200260D01*
X60884694Y1200258D01*
X60830043Y1128778D01*
X60827574Y1125549D01*
X60787829Y1040314D01*
X60767313Y948534D01*
X60766985Y854488D01*
X57161980Y854488D01*
X57179870Y866464D01*
X57183994Y870764D01*
X57244962Y934341D01*
X57285199Y1000260D01*
X57293962Y1014616D01*
X57324580Y1103538D01*
X57324580Y1103540D01*
X57341955Y1154000D01*
X58496001Y1153999D01*
X58496001Y1475700D01*
X59004000Y1475700D01*
X59004000Y1154000D01*
X60155700Y1153999D01*
X60155700Y1270001D01*
X60145632Y1333564D01*
X60116414Y1390909D01*
X60070909Y1436414D01*
X60013564Y1465632D01*
X59950001Y1475700D01*
X59004000Y1475700D01*
X58496001Y1475700D01*
X57549999Y1475700D01*
X57486436Y1465632D01*
X57429091Y1436414D01*
X57325294Y1332616D01*
X57295248Y1382622D01*
X57295246Y1382629D01*
X57246809Y1463242D01*
X57246808Y1463243D01*
X57246807Y1463245D01*
X57182192Y1531573D01*
X57182191Y1531574D01*
X57104408Y1584435D01*
X57104404Y1584437D01*
X57006922Y1650684D01*
X57153086Y1748534D01*
X57179870Y1766464D01*
X57179872Y1766466D01*
X57244962Y1834341D01*
X57255713Y1851954D01*
X57283902Y1878798D01*
X57321737Y1887952D01*
X57359080Y1876961D01*
X57385924Y1848772D01*
X57395100Y1812774D01*
X57395100Y1800000D01*
X57403672Y1763554D01*
X57411339Y1730954D01*
X57445645Y1685528D01*
X57494044Y1655560D01*
X57499779Y1654488D01*
X57549997Y1645100D01*
X59950000Y1645100D01*
X59997450Y1656260D01*
X60019046Y1661339D01*
X60064472Y1695645D01*
X60076001Y1714265D01*
X60094440Y1744044D01*
X60097902Y1762566D01*
X60104900Y1799997D01*
X60104900Y2539998D01*
X60101608Y2553999D01*
X60091740Y2595955D01*
X60088661Y2609046D01*
X60054355Y2654472D01*
X60029816Y2669666D01*
X60005956Y2684440D01*
X59991967Y2687055D01*
X59950003Y2694900D01*
X58620938Y2694900D01*
X58290556Y3025282D01*
X66373309Y3025282D01*
X66382783Y3027018D01*
X66457109Y3066027D01*
X66519942Y3121693D01*
X66626442Y3275979D01*
X66681754Y3203894D01*
X66681755Y3203891D01*
X66729017Y3142297D01*
X66790611Y3095035D01*
X66862338Y3065325D01*
X66920322Y3057691D01*
X67238300Y3057691D01*
X67296284Y3065325D01*
X67368011Y3095035D01*
X67429605Y3142297D01*
X67438959Y3154488D01*
X76666985Y3154488D01*
X76686674Y3063424D01*
X76686860Y3062563D01*
X76724185Y2981040D01*
X76726009Y2977057D01*
X76781097Y2903952D01*
X76782609Y2901946D01*
X76854012Y2840745D01*
X76893895Y2819361D01*
X76936896Y2796304D01*
X76936900Y2796303D01*
X77001959Y2761420D01*
X76852431Y2637712D01*
X76773474Y2695079D01*
X76725000Y2714271D01*
X76725000Y1912499D01*
X76731800Y1912499D01*
X76731800Y1912500D01*
X77375000Y1912500D01*
X77375000Y1912499D01*
X77580700Y1912499D01*
X77580700Y2440786D01*
X77568116Y2520238D01*
X77535222Y2590143D01*
X77485978Y2649667D01*
X77423477Y2695077D01*
X77368382Y2716890D01*
X77337131Y2740099D01*
X77321671Y2775824D01*
X77326144Y2814492D01*
X77354230Y2849300D01*
X77379870Y2866464D01*
X77379872Y2866466D01*
X77444962Y2934341D01*
X77464909Y2967020D01*
X77493962Y3014616D01*
X77520513Y3091726D01*
X77524580Y3103537D01*
X77526024Y3116021D01*
X77535389Y3196960D01*
X77535389Y3197075D01*
X77535401Y3199998D01*
X77526250Y3284230D01*
X77525243Y3293496D01*
X77495246Y3382629D01*
X77472918Y3419790D01*
X77446810Y3463242D01*
X77382192Y3531573D01*
X77360731Y3546158D01*
X77304408Y3584435D01*
X77217088Y3619361D01*
X77154037Y3629799D01*
X77124306Y3634721D01*
X77124305Y3634721D01*
X77030388Y3629799D01*
X77002286Y3622059D01*
X76939719Y3604826D01*
X76895424Y3581471D01*
X76856527Y3560963D01*
X76786606Y3501874D01*
X76784694Y3500258D01*
X76731085Y3430141D01*
X76727574Y3425549D01*
X76687829Y3340314D01*
X76667313Y3248534D01*
X76666985Y3154488D01*
X67438959Y3154488D01*
X67476867Y3203891D01*
X67506577Y3275618D01*
X67514211Y3333602D01*
X67514211Y3711580D01*
X67506577Y3769564D01*
X67476867Y3841291D01*
X67429605Y3902885D01*
X67368011Y3950147D01*
X67368009Y3950148D01*
X67364211Y3953062D01*
X67364211Y3954488D01*
X72566985Y3954488D01*
X72586801Y3862837D01*
X72586860Y3862563D01*
X72626008Y3777059D01*
X72626009Y3777057D01*
X72682607Y3701948D01*
X72682609Y3701946D01*
X72754013Y3640745D01*
X72802243Y3614885D01*
X72836896Y3596304D01*
X72927389Y3570697D01*
X73021269Y3565120D01*
X73021271Y3565120D01*
X73083194Y3574928D01*
X73114157Y3579832D01*
X73201719Y3614147D01*
X73279870Y3666464D01*
X73292256Y3679380D01*
X73344962Y3734341D01*
X73358501Y3756522D01*
X73393962Y3814616D01*
X73424580Y3903538D01*
X73435389Y3996960D01*
X73435389Y3997092D01*
X73435401Y3999998D01*
X73428231Y4066001D01*
X82494288Y4066001D01*
X82517897Y4006218D01*
X82579802Y3904204D01*
X82658011Y3814076D01*
X82750286Y3738415D01*
X82853996Y3679380D01*
X82966159Y3638667D01*
X83083586Y3617432D01*
X83096999Y3616800D01*
X83446000Y3616800D01*
X83953999Y3616800D01*
X84279461Y3616800D01*
X84368906Y3624390D01*
X84484402Y3654367D01*
X84593210Y3703381D01*
X84692194Y3770021D01*
X84778536Y3852386D01*
X84849770Y3948128D01*
X84903851Y4054499D01*
X84907422Y4066000D01*
X83953999Y4066001D01*
X86824288Y4066001D01*
X86847897Y4006218D01*
X86909802Y3904204D01*
X86988011Y3814076D01*
X87080286Y3738415D01*
X87183996Y3679380D01*
X87296159Y3638667D01*
X87413586Y3617432D01*
X87426999Y3616800D01*
X87626000Y3616800D01*
X88133999Y3616800D01*
X88309461Y3616800D01*
X88398906Y3624390D01*
X88514402Y3654367D01*
X88623210Y3703381D01*
X88722194Y3770021D01*
X88808536Y3852386D01*
X88879770Y3948128D01*
X88933851Y4054499D01*
X88937422Y4066000D01*
X88133999Y4066001D01*
X88133999Y3616800D01*
X87626000Y3616800D01*
X87626000Y4066000D01*
X86824288Y4066001D01*
X83953999Y4066001D01*
X83953999Y3616800D01*
X83446000Y3616800D01*
X83446000Y4066000D01*
X82494288Y4066001D01*
X73428231Y4066001D01*
X73426195Y4084733D01*
X73425243Y4093496D01*
X73395246Y4182629D01*
X73381047Y4206260D01*
X73346810Y4263242D01*
X73282192Y4331573D01*
X73279545Y4333372D01*
X73204408Y4384435D01*
X73117088Y4419361D01*
X73043315Y4431574D01*
X73024306Y4434721D01*
X73024305Y4434721D01*
X72930388Y4429799D01*
X72902286Y4422059D01*
X72839719Y4404826D01*
X72798830Y4383267D01*
X72756527Y4360963D01*
X72684696Y4300260D01*
X72684694Y4300258D01*
X72643642Y4246565D01*
X72627574Y4225549D01*
X72587829Y4140314D01*
X72567313Y4048534D01*
X72566985Y3954488D01*
X67364211Y3954488D01*
X67364211Y4350135D01*
X67444962Y4434341D01*
X67461212Y4460963D01*
X67493962Y4514616D01*
X67514409Y4574000D01*
X82492578Y4574000D01*
X83446001Y4573999D01*
X83446001Y5023200D01*
X83954000Y5023200D01*
X83954000Y4574000D01*
X84905712Y4573999D01*
X84905712Y4574000D01*
X86822578Y4574000D01*
X87626001Y4573999D01*
X87626001Y5023200D01*
X88134000Y5023200D01*
X88134000Y4574000D01*
X88935712Y4573999D01*
X88912103Y4633782D01*
X88850198Y4735796D01*
X88771989Y4825924D01*
X88679714Y4901585D01*
X88576004Y4960620D01*
X88463841Y5001333D01*
X88346414Y5022568D01*
X88333001Y5023200D01*
X88134000Y5023200D01*
X87626001Y5023200D01*
X87450539Y5023200D01*
X87361094Y5015610D01*
X87245598Y4985633D01*
X87136790Y4936619D01*
X87037806Y4869979D01*
X86951464Y4787614D01*
X86880230Y4691872D01*
X86826149Y4585501D01*
X86822578Y4574000D01*
X84905712Y4574000D01*
X84882103Y4633782D01*
X84820198Y4735796D01*
X84741989Y4825924D01*
X84649714Y4901585D01*
X84546004Y4960620D01*
X84433841Y5001333D01*
X84316414Y5022568D01*
X84303001Y5023200D01*
X83954000Y5023200D01*
X83446001Y5023200D01*
X83120539Y5023200D01*
X83031094Y5015610D01*
X82915598Y4985633D01*
X82806790Y4936619D01*
X82707806Y4869979D01*
X82621464Y4787614D01*
X82550230Y4691872D01*
X82496149Y4585501D01*
X82492578Y4574000D01*
X67514409Y4574000D01*
X67522315Y4596960D01*
X67524580Y4603537D01*
X67529786Y4648535D01*
X67535389Y4696960D01*
X67535389Y4697075D01*
X67535401Y4699998D01*
X67525243Y4793495D01*
X67525243Y4793496D01*
X67495246Y4882629D01*
X67469703Y4925140D01*
X67446810Y4963242D01*
X67382192Y5031573D01*
X67377560Y5034721D01*
X67304408Y5084435D01*
X67217088Y5119361D01*
X67154037Y5129799D01*
X67124306Y5134721D01*
X67124305Y5134721D01*
X67030388Y5129799D01*
X67002286Y5122059D01*
X66939719Y5104826D01*
X66885247Y5076106D01*
X66856527Y5060963D01*
X66807299Y5019361D01*
X66784694Y5000258D01*
X66727576Y4925552D01*
X66727574Y4925549D01*
X66687829Y4840314D01*
X66667313Y4748534D01*
X66666985Y4654488D01*
X66681901Y4585501D01*
X66686860Y4562563D01*
X66713308Y4504797D01*
X66726009Y4477057D01*
X66782607Y4401948D01*
X66804412Y4383259D01*
X66804411Y3960736D01*
X66790611Y3950147D01*
X66729017Y3902885D01*
X66681755Y3841291D01*
X66681754Y3841288D01*
X66616369Y3756076D01*
X66545874Y3890390D01*
X66490209Y3953222D01*
X66421128Y4000907D01*
X66373311Y4019042D01*
X66373311Y3374278D01*
X66373310Y3268592D01*
X66373309Y3025282D01*
X58290556Y3025282D01*
X58099595Y3216242D01*
X58079420Y3238182D01*
X58072329Y3242579D01*
X58058049Y3251433D01*
X58055013Y3253738D01*
X58038042Y3266619D01*
X58038043Y3266619D01*
X58038041Y3266620D01*
X58033061Y3268592D01*
X65646504Y3268592D01*
X65653738Y3229118D01*
X65692747Y3154793D01*
X65748413Y3091960D01*
X65817494Y3044275D01*
X65865311Y3026140D01*
X65865311Y3268592D01*
X65646504Y3268592D01*
X58033061Y3268592D01*
X58025623Y3271537D01*
X58014275Y3278573D01*
X58014274Y3278573D01*
X58014273Y3278574D01*
X57990133Y3285587D01*
X57966772Y3294837D01*
X57966771Y3294837D01*
X57966769Y3294838D01*
X57953496Y3296232D01*
X57947080Y3298096D01*
X57940665Y3299960D01*
X57937063Y3300224D01*
X57933461Y3300489D01*
X57912995Y3300489D01*
X57890542Y3302849D01*
X57890541Y3302849D01*
X57876588Y3300489D01*
X53247513Y3300489D01*
X53227688Y3301320D01*
X53217777Y3301735D01*
X53217776Y3301735D01*
X53193315Y3295998D01*
X53168410Y3292586D01*
X53156149Y3287280D01*
X53143149Y3284231D01*
X53121132Y3272127D01*
X53098062Y3262144D01*
X53087681Y3253738D01*
X53083488Y3251433D01*
X53075978Y3247304D01*
X53070503Y3242579D01*
X53066107Y3238182D01*
X53056041Y3228116D01*
X53048859Y3222300D01*
X53038490Y3213904D01*
X53030300Y3202379D01*
X53023707Y3195781D01*
X53004042Y3176117D01*
X52988660Y3175311D01*
X52988659Y3175311D01*
X52894742Y3170389D01*
X52866640Y3162649D01*
X52804073Y3145416D01*
X52759080Y3121693D01*
X52720881Y3101553D01*
X52650534Y3042104D01*
X52649048Y3040848D01*
X52591930Y2966142D01*
X52591928Y2966139D01*
X52552183Y2880904D01*
X52531667Y2789124D01*
X52531339Y2695078D01*
X52551213Y2603156D01*
X52590363Y2517647D01*
X52590364Y2517645D01*
X52621382Y2449900D01*
X51727286Y2449900D01*
X51689686Y2459975D01*
X51662161Y2487500D01*
X51652086Y2525100D01*
X51674109Y2578272D01*
X51688302Y2592465D01*
X51705861Y2606684D01*
X51714064Y2618227D01*
X51982689Y2886851D01*
X52076879Y2981040D01*
X52101313Y2984910D01*
X52101314Y2984910D01*
X52194202Y2999622D01*
X52281764Y3033937D01*
X52359915Y3086254D01*
X52359917Y3086256D01*
X52425007Y3154131D01*
X52434893Y3170327D01*
X52474007Y3234406D01*
X52501869Y3315324D01*
X52504625Y3323327D01*
X52508901Y3360286D01*
X52515434Y3416750D01*
X52515437Y3417642D01*
X52515446Y3419788D01*
X52505288Y3513285D01*
X52503035Y3519980D01*
X52475291Y3602419D01*
X52460069Y3627753D01*
X52426855Y3683032D01*
X52362237Y3751363D01*
X52361981Y3751537D01*
X52325116Y3776591D01*
X65641483Y3776591D01*
X65865312Y3776591D01*
X65865312Y4019900D01*
X65855839Y4018164D01*
X65781513Y3979155D01*
X65718680Y3923489D01*
X65670994Y3854407D01*
X65641483Y3776591D01*
X52325116Y3776591D01*
X52284453Y3804225D01*
X52197133Y3839151D01*
X52128283Y3850549D01*
X52104351Y3854511D01*
X52104350Y3854511D01*
X52010433Y3849589D01*
X51993947Y3845048D01*
X51919764Y3824616D01*
X51877121Y3802132D01*
X51836572Y3780753D01*
X51767043Y3721995D01*
X51764739Y3720048D01*
X51712119Y3651225D01*
X51707619Y3645339D01*
X51667874Y3560104D01*
X51647358Y3468324D01*
X51647030Y3374278D01*
X51647031Y3374274D01*
X51646921Y3342758D01*
X51484726Y3180563D01*
X51451015Y3161099D01*
X51412089Y3161099D01*
X51378378Y3180563D01*
X51358914Y3214274D01*
X51358914Y3253200D01*
X51367365Y3272917D01*
X51375098Y3285586D01*
X51393962Y3316490D01*
X51424580Y3405412D01*
X51435389Y3498834D01*
X51435390Y3499157D01*
X51435401Y3501872D01*
X51425243Y3595369D01*
X51425243Y3595370D01*
X51395246Y3684503D01*
X51375364Y3717593D01*
X51346810Y3765116D01*
X51282192Y3833447D01*
X51270650Y3841291D01*
X51204408Y3886309D01*
X51117088Y3921235D01*
X51054037Y3931673D01*
X51024306Y3936595D01*
X51024305Y3936595D01*
X50930388Y3931673D01*
X50902286Y3923933D01*
X50839719Y3906700D01*
X50788080Y3879473D01*
X50756527Y3862837D01*
X50684696Y3802134D01*
X50684694Y3802132D01*
X50630188Y3730842D01*
X50627574Y3727423D01*
X50587829Y3642188D01*
X50567313Y3550408D01*
X50566985Y3456362D01*
X50575356Y3417642D01*
X50143695Y2985979D01*
X50085688Y3062466D01*
X49153857Y2130633D01*
X48977080Y2307410D01*
X49370020Y2700349D01*
X49198051Y2872317D01*
X49198052Y2872318D01*
X49016466Y3053903D01*
X49016467Y3053904D01*
X49370019Y3053904D01*
X49541988Y2881935D01*
X49541986Y2881934D01*
X49546796Y2877124D01*
X49909118Y3239447D01*
X49849659Y3267723D01*
X49771547Y3281192D01*
X49765605Y3338967D01*
X49738561Y3407546D01*
X49732135Y3416020D01*
X49370019Y3053904D01*
X49016467Y3053904D01*
X49555565Y3593001D01*
X49464418Y3636347D01*
X50094765Y4266694D01*
X50121269Y4265120D01*
X50121276Y4265121D01*
X50121278Y4265121D01*
X50197615Y4277212D01*
X50214157Y4279832D01*
X50301719Y4314147D01*
X50379870Y4366464D01*
X50395976Y4383259D01*
X50444962Y4434341D01*
X50461212Y4460963D01*
X50493962Y4514616D01*
X50522315Y4596960D01*
X50524580Y4603537D01*
X50529786Y4648535D01*
X50535389Y4696960D01*
X50535389Y4697075D01*
X50535401Y4699998D01*
X50525243Y4793495D01*
X50525243Y4793496D01*
X50495246Y4882629D01*
X50469703Y4925140D01*
X50446810Y4963242D01*
X50382192Y5031573D01*
X50377560Y5034721D01*
X50304408Y5084435D01*
X50217088Y5119361D01*
X50154037Y5129799D01*
X50124306Y5134721D01*
X50124305Y5134721D01*
X50030388Y5129799D01*
X50002286Y5122059D01*
X49939719Y5104826D01*
X49885247Y5076106D01*
X49856527Y5060963D01*
X49807299Y5019361D01*
X49784694Y5000258D01*
X49727576Y4925552D01*
X49727574Y4925549D01*
X49707023Y4881476D01*
X49687829Y4840314D01*
X49667313Y4748535D01*
X49666901Y4630506D01*
X49108274Y4071879D01*
X49074563Y4052415D01*
X49035637Y4052415D01*
X49001926Y4071879D01*
X48982462Y4105590D01*
X48979900Y4125053D01*
X48979900Y4266495D01*
X49044964Y4334344D01*
X49062603Y4363242D01*
X49093962Y4414616D01*
X49123173Y4499451D01*
X49124580Y4503537D01*
X49129939Y4549859D01*
X49135389Y4596960D01*
X49135389Y4597075D01*
X49135401Y4599998D01*
X49125243Y4693495D01*
X49124074Y4696970D01*
X49095246Y4782629D01*
X49072530Y4820435D01*
X49046810Y4863242D01*
X48982192Y4931573D01*
X48970385Y4939597D01*
X48904408Y4984435D01*
X48817088Y5019361D01*
X48743315Y5031574D01*
X48724306Y5034721D01*
X48724305Y5034721D01*
X48630388Y5029799D01*
X48606430Y5023200D01*
X48539719Y5004826D01*
X48485247Y4976106D01*
X48456527Y4960963D01*
X48390292Y4904989D01*
X48384694Y4900258D01*
X48327576Y4825552D01*
X48327574Y4825549D01*
X48287829Y4740314D01*
X48267313Y4648534D01*
X48266985Y4554488D01*
X48284452Y4473702D01*
X48286860Y4462563D01*
X48316836Y4397092D01*
X48326009Y4377057D01*
X48382607Y4301948D01*
X48420101Y4269812D01*
X48420101Y4090813D01*
X48035921Y3706633D01*
X47836092Y3906462D01*
X47513864Y3584233D01*
X47337087Y3761010D01*
X47659316Y4083238D01*
X47465341Y4277212D01*
X47441359Y4296724D01*
X47374782Y4328385D01*
X47302138Y4340911D01*
X47228801Y4333372D01*
X47041539Y4259525D01*
X47044821Y4292119D01*
X47044822Y4292122D01*
X47055392Y4397092D01*
X47055400Y4400000D01*
X47055400Y4400003D01*
X47045381Y4505022D01*
X47025145Y4573999D01*
X47015681Y4606258D01*
X46990271Y4655595D01*
X46967376Y4700048D01*
X46902204Y4783017D01*
X46822522Y4852160D01*
X46803366Y4863242D01*
X46731202Y4904990D01*
X46631540Y4939598D01*
X46527131Y4954737D01*
X46430671Y4950272D01*
X46421741Y4949859D01*
X46379166Y4939598D01*
X46319179Y4925141D01*
X46319177Y4925140D01*
X46223141Y4881476D01*
X46158169Y4835387D01*
X46137090Y4820435D01*
X46064135Y4744225D01*
X46006907Y4655595D01*
X45996796Y4630506D01*
X45967472Y4557743D01*
X45947251Y4454199D01*
X45946975Y4348694D01*
X45956171Y4300260D01*
X45966653Y4245048D01*
X45982050Y4206258D01*
X46005576Y4146989D01*
X46057272Y4066000D01*
X46062339Y4058062D01*
X46134894Y3981471D01*
X46220623Y3919982D01*
X46278741Y3893189D01*
X46292462Y3879468D01*
X46294415Y3877057D01*
X46306684Y3861906D01*
X46318227Y3853703D01*
X46521128Y3650801D01*
X46444641Y3592794D01*
X46983534Y3053903D01*
X46806757Y2877126D01*
X46267659Y3416225D01*
X46224313Y3325078D01*
X45853737Y3695653D01*
X45833562Y3717593D01*
X45829599Y3720050D01*
X45812191Y3730844D01*
X45792183Y3746031D01*
X45779765Y3750948D01*
X45768417Y3757984D01*
X45768416Y3757984D01*
X45768415Y3757985D01*
X45744275Y3764998D01*
X45720914Y3774248D01*
X45720913Y3774248D01*
X45720911Y3774249D01*
X45707638Y3775643D01*
X45701222Y3777507D01*
X45694807Y3779371D01*
X45691205Y3779635D01*
X45687603Y3779900D01*
X45667137Y3779900D01*
X45644684Y3782260D01*
X45644683Y3782260D01*
X45630730Y3779900D01*
X39803175Y3779900D01*
X39773424Y3781147D01*
X39748957Y3775408D01*
X39724057Y3771997D01*
X39711796Y3766691D01*
X39702778Y3764576D01*
X39698795Y3763642D01*
X39676774Y3751537D01*
X39653710Y3741556D01*
X39653708Y3741555D01*
X39653709Y3741555D01*
X39643331Y3733151D01*
X39631625Y3726716D01*
X39631623Y3726714D01*
X39629418Y3725502D01*
X39591616Y3716218D01*
X39554235Y3727078D01*
X39527292Y3755174D01*
X39518008Y3792976D01*
X39521144Y3812948D01*
X39521482Y3814076D01*
X39533332Y3853702D01*
X39544822Y3892120D01*
X39555392Y3997092D01*
X39555400Y4000003D01*
X39545381Y4105022D01*
X39519425Y4193496D01*
X39515681Y4206258D01*
X39515680Y4206260D01*
X39467376Y4300048D01*
X39402204Y4383017D01*
X39322522Y4452160D01*
X39304540Y4462563D01*
X39231202Y4504990D01*
X39131540Y4539598D01*
X39027131Y4554737D01*
X38930671Y4550272D01*
X38921741Y4549859D01*
X38879166Y4539598D01*
X38819179Y4525141D01*
X38819177Y4525140D01*
X38723141Y4481476D01*
X38681814Y4452160D01*
X38637090Y4420435D01*
X38564135Y4344225D01*
X38506907Y4255595D01*
X38487190Y4206669D01*
X38467472Y4157743D01*
X38447251Y4054199D01*
X38447251Y4054198D01*
X38447007Y3960736D01*
X38446975Y3948694D01*
X38460039Y3879885D01*
X38466653Y3845048D01*
X38471258Y3833447D01*
X38505576Y3746989D01*
X38562338Y3658063D01*
X38634894Y3581471D01*
X38720625Y3519980D01*
X38816428Y3475814D01*
X38816432Y3475813D01*
X38918865Y3450558D01*
X38936135Y3449668D01*
X39024225Y3445128D01*
X39128713Y3459720D01*
X39179364Y3477012D01*
X39218202Y3479626D01*
X39253144Y3462470D01*
X39274827Y3430141D01*
X39277441Y3391303D01*
X39256834Y3352672D01*
X39039691Y3135528D01*
X38930386Y3129799D01*
X38839719Y3104826D01*
X38792444Y3079900D01*
X38756527Y3060963D01*
X38685729Y3001133D01*
X38684694Y3000258D01*
X38632998Y2932643D01*
X38627574Y2925549D01*
X38587829Y2840314D01*
X38567313Y2748534D01*
X38566985Y2654488D01*
X38583924Y2576144D01*
X38586860Y2562563D01*
X38626008Y2477059D01*
X38626009Y2477057D01*
X38680125Y2405242D01*
X38682609Y2401946D01*
X38754013Y2340745D01*
X38793895Y2319361D01*
X38836896Y2296304D01*
X38927389Y2270697D01*
X39021269Y2265120D01*
X39021271Y2265120D01*
X39104383Y2278284D01*
X39114157Y2279832D01*
X39201719Y2314147D01*
X39279870Y2366464D01*
X39279872Y2366466D01*
X39324884Y2396599D01*
X39386985Y2260963D01*
X39396973Y2239148D01*
X39445369Y2174924D01*
X39453573Y2164037D01*
X39524977Y2102836D01*
X39559296Y2084435D01*
X39607860Y2058395D01*
X39616577Y2055928D01*
X39728434Y2024272D01*
X39284063Y1579900D01*
X38731056Y1579900D01*
X38682193Y1631574D01*
X38604408Y1684435D01*
X38590165Y1690132D01*
X38517088Y1719361D01*
X38447054Y1730955D01*
X38424306Y1734721D01*
X38424305Y1734721D01*
X38330388Y1729799D01*
X38302286Y1722059D01*
X38239719Y1704826D01*
X38196008Y1681779D01*
X38156527Y1660963D01*
X38086691Y1601946D01*
X38084694Y1600258D01*
X38027576Y1525552D01*
X38027574Y1525549D01*
X37987829Y1440314D01*
X37967313Y1348534D01*
X37966985Y1254488D01*
X37986518Y1164147D01*
X37986860Y1162563D01*
X38020247Y1089642D01*
X38026009Y1077057D01*
X38082607Y1001948D01*
X38082609Y1001946D01*
X38154013Y940745D01*
X38203617Y914148D01*
X38236896Y896304D01*
X38327389Y870697D01*
X38421269Y865120D01*
X38421271Y865120D01*
X38491225Y876200D01*
X38514157Y879832D01*
X38601719Y914147D01*
X38601718Y914147D01*
X38601722Y914148D01*
X38679870Y966463D01*
X38713898Y1001948D01*
X38731305Y1020100D01*
X39251588Y1020100D01*
X39289188Y1010025D01*
X39316713Y982500D01*
X39326788Y944900D01*
X39304762Y891726D01*
X38894128Y481091D01*
X38784823Y475362D01*
X38694156Y450389D01*
X38639684Y421669D01*
X38610964Y406526D01*
X38539133Y345823D01*
X38539131Y345821D01*
X38488678Y279832D01*
X38482011Y271112D01*
X38442266Y185877D01*
X38421750Y94097D01*
X38421422Y51D01*
X38439894Y-85384D01*
X38441297Y-91874D01*
X38477749Y-171489D01*
X38480446Y-177380D01*
X38537044Y-252489D01*
X38604854Y-310609D01*
X38556527Y-351450D01*
X38499080Y-399998D01*
X38484694Y-412155D01*
X38428891Y-485141D01*
X38427574Y-486864D01*
X38387829Y-572099D01*
X38367313Y-663879D01*
X38366985Y-757925D01*
X38385219Y-842258D01*
X38386860Y-849850D01*
X38426008Y-935354D01*
X38426009Y-935356D01*
X38482607Y-1010465D01*
X38482609Y-1010467D01*
X38554013Y-1071668D01*
X38603619Y-1098266D01*
X38636896Y-1116109D01*
X38727389Y-1141716D01*
X38782233Y-1144974D01*
X38819169Y-1157262D01*
X38845013Y-1186371D01*
X38852841Y-1224502D01*
X38830948Y-1273215D01*
X38066895Y-2037268D01*
X36358407Y-2037268D01*
X36291758Y-1950410D01*
X36231202Y-1903943D01*
X36221060Y-1899742D01*
X36160679Y-1874731D01*
X36103990Y-1867268D01*
X35696010Y-1867268D01*
X35639321Y-1874731D01*
X35578940Y-1899742D01*
X35568798Y-1903943D01*
X35553436Y-1915731D01*
X35508242Y-1950410D01*
X35461774Y-2010968D01*
X35461773Y-2010971D01*
X35459243Y-2014268D01*
X35211570Y-2014268D01*
X35179621Y-1972631D01*
X35118027Y-1925369D01*
X35046300Y-1895659D01*
X34988316Y-1888025D01*
X34610338Y-1888025D01*
X34552354Y-1895659D01*
X34480627Y-1925369D01*
X34419033Y-1972631D01*
X34385278Y-2016622D01*
X34140757Y-2016622D01*
X34138227Y-2013325D01*
X34138226Y-2013322D01*
X34091758Y-1952764D01*
X34055401Y-1924866D01*
X34031202Y-1906297D01*
X34025519Y-1903943D01*
X33960679Y-1877085D01*
X33903990Y-1869622D01*
X33788326Y-1869622D01*
X33750726Y-1859547D01*
X33723201Y-1832022D01*
X33713126Y-1794422D01*
X33723201Y-1756822D01*
X33739338Y-1737368D01*
X33800192Y-1685118D01*
X33836547Y-1639332D01*
X33865798Y-1602493D01*
X33914594Y-1508955D01*
X33934519Y-1442330D01*
X33944822Y-1407880D01*
X33955392Y-1302908D01*
X33955400Y-1299997D01*
X33945381Y-1194978D01*
X33927668Y-1134601D01*
X33915681Y-1093742D01*
X33893825Y-1051306D01*
X33867376Y-999952D01*
X33802204Y-916983D01*
X33722522Y-847840D01*
X33679486Y-822943D01*
X33631202Y-795010D01*
X33531540Y-760402D01*
X33446463Y-748066D01*
X33413002Y-743214D01*
X33218555Y-548769D01*
X33212044Y-499321D01*
X33207266Y-463027D01*
X33177556Y-391300D01*
X33130294Y-329706D01*
X33068700Y-282444D01*
X33068697Y-282443D01*
X32983485Y-217058D01*
X33117799Y-146563D01*
X33180631Y-90898D01*
X33228316Y-21817D01*
X33246451Y26000D01*
X33003999Y26000D01*
X32252691Y26001D01*
X32254427Y16528D01*
X32293436Y-57798D01*
X32349102Y-120631D01*
X32503388Y-227131D01*
X32431303Y-282443D01*
X32431300Y-282444D01*
X32369706Y-329706D01*
X32322444Y-391300D01*
X32292734Y-463027D01*
X32285100Y-521011D01*
X32285100Y-838989D01*
X32292734Y-896973D01*
X32322444Y-968700D01*
X32369706Y-1030294D01*
X32431300Y-1077556D01*
X32503027Y-1107266D01*
X32561011Y-1114900D01*
X32645115Y-1114900D01*
X32847065Y-1316851D01*
X32846975Y-1351303D01*
X32854050Y-1388567D01*
X32866652Y-1454950D01*
X32905576Y-1553011D01*
X32962338Y-1641937D01*
X33034894Y-1718529D01*
X33120625Y-1780020D01*
X33216427Y-1824185D01*
X33216428Y-1824185D01*
X33216432Y-1824187D01*
X33318865Y-1849442D01*
X33318867Y-1849442D01*
X33376602Y-1863677D01*
X33261775Y-2013320D01*
X33261774Y-2013322D01*
X33232563Y-2083843D01*
X33225100Y-2140532D01*
X33225100Y-2448512D01*
X33232563Y-2505201D01*
X33260250Y-2572043D01*
X33261775Y-2575724D01*
X33308242Y-2636280D01*
X33368798Y-2682747D01*
X33368800Y-2682748D01*
X33435269Y-2710281D01*
X33466149Y-2733976D01*
X33481046Y-2769939D01*
X33475965Y-2808533D01*
X33452268Y-2839415D01*
X33420044Y-2853723D01*
X33393299Y-2858624D01*
X33320042Y-2897073D01*
X33258111Y-2951939D01*
X33211111Y-3020030D01*
X33195754Y-3060522D01*
X33446001Y-3060522D01*
X34206393Y-3060523D01*
X34200602Y-3028925D01*
X34205168Y-3028925D01*
X34178183Y-3005017D01*
X34167448Y-2984562D01*
X34112583Y-2922633D01*
X34044495Y-2875634D01*
X33971739Y-2848042D01*
X33940155Y-2825289D01*
X33924179Y-2789792D01*
X33928091Y-2751062D01*
X33950844Y-2719478D01*
X33969624Y-2708254D01*
X34031200Y-2682748D01*
X34031202Y-2682747D01*
X34109819Y-2622422D01*
X34380056Y-2622422D01*
X34419033Y-2673219D01*
X34480627Y-2720481D01*
X34480630Y-2720482D01*
X34565842Y-2785867D01*
X34431528Y-2856362D01*
X34368696Y-2912027D01*
X34321012Y-2981108D01*
X34315083Y-2996739D01*
X34292328Y-3028322D01*
X34290988Y-3028925D01*
X35053327Y-3028926D01*
X35053326Y-3536925D01*
X34302018Y-3536924D01*
X34307808Y-3568522D01*
X33953999Y-3568522D01*
X33193608Y-3568521D01*
X33198791Y-3596800D01*
X25949872Y-3596800D01*
X25912272Y-3586725D01*
X25884747Y-3559200D01*
X25874672Y-3521600D01*
X25884747Y-3484000D01*
X25919286Y-3452901D01*
X25985352Y-3423487D01*
X26060731Y-3368721D01*
X26123079Y-3299476D01*
X26169666Y-3218786D01*
X26198460Y-3130164D01*
X26205700Y-3061285D01*
X26205700Y-3054000D01*
X24744413Y-3054000D01*
X24763614Y-3175228D01*
X24801513Y-3260352D01*
X24856279Y-3335731D01*
X24925524Y-3398079D01*
X25006219Y-3444668D01*
X25022878Y-3450081D01*
X25055525Y-3471282D01*
X25073197Y-3505965D01*
X25071159Y-3544838D01*
X25049958Y-3577485D01*
X24999640Y-3596800D01*
X24478200Y-3596800D01*
X24478200Y-2538715D01*
X24744300Y-2538715D01*
X24744300Y-2546000D01*
X25221000Y-2546000D01*
X25221000Y-2119300D01*
X25729000Y-2119300D01*
X25729000Y-2546000D01*
X26238549Y-2546000D01*
X26254015Y-2559256D01*
X26303619Y-2585853D01*
X26336896Y-2603696D01*
X26427389Y-2629303D01*
X26521269Y-2634880D01*
X26521271Y-2634880D01*
X26583194Y-2625072D01*
X26614157Y-2620168D01*
X26701719Y-2585853D01*
X26779870Y-2533536D01*
X26795372Y-2517371D01*
X26844962Y-2465659D01*
X26860503Y-2440198D01*
X26893962Y-2385384D01*
X26907690Y-2345512D01*
X30366985Y-2345512D01*
X30373769Y-2376887D01*
X30386860Y-2437437D01*
X30426008Y-2522941D01*
X30426009Y-2522943D01*
X30481866Y-2597068D01*
X30482609Y-2598054D01*
X30554013Y-2659255D01*
X30603619Y-2685853D01*
X30636896Y-2703696D01*
X30727389Y-2729303D01*
X30821269Y-2734880D01*
X30821271Y-2734880D01*
X30883194Y-2725072D01*
X30914157Y-2720168D01*
X31001719Y-2685853D01*
X31079870Y-2633536D01*
X31090528Y-2622422D01*
X31144962Y-2565659D01*
X31161212Y-2539037D01*
X31193962Y-2485384D01*
X31224580Y-2396462D01*
X31224765Y-2394868D01*
X31229118Y-2357240D01*
X31235389Y-2303040D01*
X31235389Y-2302925D01*
X31235401Y-2300002D01*
X31225243Y-2206505D01*
X31224074Y-2203030D01*
X31195246Y-2117371D01*
X31169455Y-2074448D01*
X31146810Y-2036759D01*
X31100402Y-1987684D01*
X31082191Y-1968426D01*
X31082189Y-1968425D01*
X31079900Y-1966004D01*
X31079900Y-1510159D01*
X31080842Y-1508641D01*
X31096030Y-1488630D01*
X31100945Y-1476217D01*
X31104018Y-1471260D01*
X31107985Y-1464863D01*
X31115000Y-1440718D01*
X31124249Y-1417360D01*
X31125643Y-1404085D01*
X31128289Y-1394978D01*
X31129371Y-1391254D01*
X31129900Y-1384049D01*
X31129900Y-1363584D01*
X31130310Y-1359686D01*
X31132260Y-1341131D01*
X31132138Y-1340406D01*
X31129900Y-1327177D01*
X31129900Y-1119475D01*
X31181200Y-1098226D01*
X31241758Y-1051758D01*
X31258228Y-1030294D01*
X31288225Y-991202D01*
X31296845Y-970391D01*
X31317437Y-920679D01*
X31324900Y-863990D01*
X31324900Y-556010D01*
X31317437Y-499321D01*
X31288226Y-428800D01*
X31288225Y-428798D01*
X31241758Y-368242D01*
X31181202Y-321775D01*
X31181200Y-321774D01*
X31110679Y-292563D01*
X31053990Y-285100D01*
X30646010Y-285100D01*
X30589321Y-292563D01*
X30518800Y-321774D01*
X30518798Y-321775D01*
X30458242Y-368242D01*
X30411775Y-428798D01*
X30411774Y-428800D01*
X30382563Y-499321D01*
X30375100Y-556010D01*
X30375100Y-863990D01*
X30382563Y-920679D01*
X30403155Y-970391D01*
X30411775Y-991202D01*
X30441772Y-1030294D01*
X30458242Y-1051758D01*
X30518800Y-1098226D01*
X30570100Y-1119475D01*
X30570100Y-1239842D01*
X30569164Y-1241352D01*
X30553970Y-1261369D01*
X30549053Y-1273789D01*
X30542016Y-1285138D01*
X30535005Y-1309268D01*
X30525752Y-1332639D01*
X30524356Y-1345922D01*
X30520630Y-1358745D01*
X30520127Y-1365603D01*
X30520101Y-1365951D01*
X30520101Y-1386406D01*
X30517740Y-1408870D01*
X30520101Y-1422829D01*
X30520100Y-1969820D01*
X30498962Y-1987684D01*
X30484694Y-1999742D01*
X30438863Y-2059686D01*
X30427574Y-2074451D01*
X30387829Y-2159686D01*
X30367313Y-2251466D01*
X30366985Y-2345512D01*
X26907690Y-2345512D01*
X26922315Y-2303040D01*
X26924580Y-2296463D01*
X26929906Y-2250429D01*
X26935389Y-2203040D01*
X26935389Y-2202925D01*
X26935401Y-2200002D01*
X26925243Y-2106505D01*
X26925243Y-2106504D01*
X26895246Y-2017371D01*
X26875335Y-1984233D01*
X26846810Y-1936758D01*
X26782192Y-1868427D01*
X26775203Y-1863677D01*
X26704408Y-1815565D01*
X26617088Y-1780639D01*
X26570696Y-1772959D01*
X26524306Y-1765279D01*
X26524305Y-1765279D01*
X26430388Y-1770201D01*
X26402716Y-1777823D01*
X26339719Y-1795174D01*
X26296545Y-1817938D01*
X26256527Y-1839037D01*
X26184696Y-1899740D01*
X26184694Y-1899742D01*
X26127576Y-1974448D01*
X26127574Y-1974451D01*
X26087829Y-2059686D01*
X26069033Y-2143775D01*
X26052428Y-2218059D01*
X25943786Y-2155334D01*
X25855164Y-2126540D01*
X25786285Y-2119300D01*
X25729000Y-2119300D01*
X25221000Y-2119300D01*
X25171716Y-2119300D01*
X25049772Y-2138614D01*
X24964648Y-2176513D01*
X24889269Y-2231279D01*
X24826921Y-2300524D01*
X24780334Y-2381214D01*
X24751540Y-2469836D01*
X24744300Y-2538715D01*
X24478200Y-2538715D01*
X24478200Y-1741562D01*
X24551146Y-1711351D01*
X24565577Y-1701710D01*
X24565585Y-1701704D01*
X24569337Y-1699197D01*
X24583601Y-1689667D01*
X24639667Y-1633601D01*
X24651704Y-1615585D01*
X24651710Y-1615577D01*
X24661351Y-1601146D01*
X24691683Y-1527909D01*
X24699295Y-1489642D01*
X24703200Y-1449999D01*
X24703200Y-645512D01*
X29266985Y-645512D01*
X29281587Y-713047D01*
X29286860Y-737437D01*
X29313653Y-795956D01*
X29326009Y-822943D01*
X29380291Y-894978D01*
X29382609Y-898054D01*
X29454013Y-959255D01*
X29495454Y-981475D01*
X29536896Y-1003696D01*
X29627389Y-1029303D01*
X29721269Y-1034880D01*
X29721271Y-1034880D01*
X29783194Y-1025072D01*
X29814157Y-1020168D01*
X29901719Y-985853D01*
X29979870Y-933536D01*
X29983612Y-929634D01*
X30044962Y-865659D01*
X30070544Y-823748D01*
X30093962Y-785384D01*
X30118870Y-713046D01*
X30124580Y-696463D01*
X30129287Y-655776D01*
X30135389Y-603040D01*
X30135389Y-602925D01*
X30135401Y-600002D01*
X30125243Y-506505D01*
X30123459Y-501204D01*
X30095246Y-417371D01*
X30071323Y-377556D01*
X30046810Y-336758D01*
X29982192Y-268427D01*
X29968696Y-259255D01*
X29904408Y-215565D01*
X29817088Y-180639D01*
X29750787Y-169663D01*
X29724306Y-165279D01*
X29724305Y-165279D01*
X29630388Y-170201D01*
X29602286Y-177941D01*
X29539719Y-195174D01*
X29490034Y-221371D01*
X29456527Y-239037D01*
X29392674Y-292998D01*
X29384694Y-299742D01*
X29329016Y-372565D01*
X29327574Y-374451D01*
X29287829Y-459686D01*
X29267313Y-551466D01*
X29266985Y-645512D01*
X24703200Y-645512D01*
X24703200Y463990D01*
X30375100Y463990D01*
X30375100Y156010D01*
X30382563Y99321D01*
X30410124Y32784D01*
X30411775Y28798D01*
X30458242Y-31758D01*
X30518798Y-78225D01*
X30518800Y-78226D01*
X30589321Y-107437D01*
X30646010Y-114900D01*
X31053990Y-114900D01*
X31110679Y-107437D01*
X31181200Y-78226D01*
X31181202Y-78225D01*
X31241758Y-31758D01*
X31288225Y28798D01*
X31289876Y32784D01*
X31317437Y99321D01*
X31324900Y156010D01*
X31324900Y463990D01*
X31317437Y520679D01*
X31311921Y533999D01*
X33004000Y533999D01*
X33247309Y533999D01*
X33245573Y543472D01*
X33206564Y617798D01*
X33150898Y680631D01*
X33081816Y728317D01*
X33004000Y757828D01*
X33004000Y533999D01*
X31311921Y533999D01*
X31311920Y534000D01*
X32253549Y534000D01*
X32496001Y534000D01*
X32496001Y752807D01*
X32456527Y745573D01*
X32382202Y706564D01*
X32319369Y650898D01*
X32271684Y581817D01*
X32253549Y534000D01*
X31311920Y534000D01*
X31288226Y591200D01*
X31241758Y651758D01*
X31241754Y651761D01*
X31200874Y705036D01*
X31306901Y811062D01*
X31415939Y920100D01*
X32346825Y920100D01*
X32376575Y918853D01*
X32376577Y918853D01*
X32401048Y924593D01*
X32408028Y925549D01*
X32425943Y928003D01*
X32438205Y933309D01*
X32451203Y936358D01*
X32473220Y948461D01*
X32496291Y958445D01*
X32496293Y958446D01*
X32506670Y966848D01*
X32518372Y973283D01*
X32518374Y973284D01*
X32523842Y978005D01*
X32523847Y978009D01*
X32531072Y985235D01*
X32538302Y992465D01*
X32555861Y1006684D01*
X32556087Y1007001D01*
X32564064Y1018227D01*
X32714338Y1168501D01*
X32768247Y1165300D01*
X32771269Y1165120D01*
X32771270Y1165120D01*
X32817713Y1172476D01*
X32864157Y1179832D01*
X32951719Y1214147D01*
X33029870Y1266464D01*
X33039707Y1276722D01*
X33094962Y1334341D01*
X33106473Y1353200D01*
X33134243Y1398694D01*
X34146975Y1398694D01*
X34160889Y1325410D01*
X34166653Y1295048D01*
X34179861Y1261773D01*
X34205576Y1196989D01*
X34262338Y1108063D01*
X34334894Y1031471D01*
X34420625Y969980D01*
X34516428Y925814D01*
X34516432Y925813D01*
X34618865Y900558D01*
X34636135Y899668D01*
X34724225Y895128D01*
X34828711Y909719D01*
X34928558Y943808D01*
X35020152Y996158D01*
X35100192Y1064882D01*
X35143676Y1119647D01*
X35165798Y1147507D01*
X35214594Y1241045D01*
X35232735Y1301704D01*
X35244822Y1342120D01*
X35255392Y1447092D01*
X35255400Y1450003D01*
X35245381Y1555022D01*
X35223303Y1630276D01*
X35215681Y1656258D01*
X35204968Y1677059D01*
X35167376Y1750048D01*
X35102204Y1833017D01*
X35077461Y1854488D01*
X36016985Y1854488D01*
X36036646Y1763554D01*
X36036860Y1762563D01*
X36072631Y1684435D01*
X36076009Y1677057D01*
X36131409Y1603538D01*
X36132609Y1601946D01*
X36204013Y1540745D01*
X36253619Y1514147D01*
X36286896Y1496304D01*
X36377389Y1470697D01*
X36471269Y1465120D01*
X36471271Y1465120D01*
X36536225Y1475408D01*
X36564157Y1479832D01*
X36651719Y1514147D01*
X36729870Y1566464D01*
X36746175Y1583467D01*
X36794962Y1634341D01*
X36808341Y1656260D01*
X36843962Y1714616D01*
X36867438Y1782797D01*
X36874580Y1803537D01*
X36877739Y1830842D01*
X36885389Y1896960D01*
X36885389Y1897075D01*
X36885401Y1899998D01*
X36876196Y1984721D01*
X36875243Y1993496D01*
X36845246Y2082629D01*
X36825107Y2116146D01*
X36796810Y2163242D01*
X36732192Y2231573D01*
X36722404Y2238225D01*
X36654408Y2284435D01*
X36567088Y2319361D01*
X36474306Y2334721D01*
X36474305Y2334721D01*
X36380388Y2329799D01*
X36361720Y2324657D01*
X36289719Y2304826D01*
X36247620Y2282629D01*
X36206527Y2260963D01*
X36134696Y2200260D01*
X36134694Y2200258D01*
X36077576Y2125552D01*
X36077574Y2125549D01*
X36037829Y2040314D01*
X36017313Y1948534D01*
X36016985Y1854488D01*
X35077461Y1854488D01*
X35022522Y1902160D01*
X34985000Y1923867D01*
X34931202Y1954990D01*
X34831540Y1989598D01*
X34727131Y2004737D01*
X34630671Y2000272D01*
X34621741Y1999859D01*
X34595336Y1993495D01*
X34519179Y1975141D01*
X34519177Y1975140D01*
X34423141Y1931476D01*
X34371420Y1894787D01*
X34337090Y1870435D01*
X34264135Y1794225D01*
X34206907Y1705595D01*
X34190550Y1665007D01*
X34167472Y1607743D01*
X34147251Y1504199D01*
X34147251Y1504198D01*
X34146984Y1401946D01*
X34146975Y1398694D01*
X33134243Y1398694D01*
X33143962Y1414616D01*
X33170806Y1492577D01*
X33174580Y1503537D01*
X33177127Y1525552D01*
X33185389Y1596960D01*
X33185395Y1598535D01*
X33185401Y1599998D01*
X33175589Y1690314D01*
X33175243Y1693496D01*
X33145246Y1782629D01*
X33123440Y1818920D01*
X33096810Y1863242D01*
X33032192Y1931573D01*
X33027981Y1934435D01*
X32954408Y1984435D01*
X32867088Y2019361D01*
X32804037Y2029799D01*
X32774306Y2034721D01*
X32774305Y2034721D01*
X32680388Y2029799D01*
X32658812Y2023856D01*
X32589719Y2004826D01*
X32542315Y1979832D01*
X32506527Y1960963D01*
X32434696Y1900260D01*
X32434694Y1900258D01*
X32384296Y1834341D01*
X32377574Y1825549D01*
X32341662Y1748534D01*
X32337829Y1740314D01*
X32317313Y1648535D01*
X32317013Y1562852D01*
X32234063Y1479900D01*
X31303175Y1479900D01*
X31273424Y1481147D01*
X31248957Y1475408D01*
X31224057Y1471997D01*
X31211795Y1466691D01*
X31198797Y1463642D01*
X31176780Y1451539D01*
X31153709Y1441555D01*
X31143330Y1433151D01*
X31131629Y1426718D01*
X31131628Y1426717D01*
X31131626Y1426716D01*
X31126157Y1421995D01*
X31111695Y1407533D01*
X31094139Y1393317D01*
X31086544Y1382629D01*
X31085938Y1381776D01*
X30604881Y900718D01*
X30582954Y880555D01*
X30569710Y859194D01*
X30554516Y839177D01*
X30549599Y826757D01*
X30542562Y815408D01*
X30535550Y791275D01*
X30526298Y767907D01*
X30526298Y767905D01*
X30524901Y754626D01*
X30521175Y741800D01*
X30520646Y734595D01*
X30520646Y714130D01*
X30518989Y698372D01*
X30458242Y651758D01*
X30411775Y591202D01*
X30411774Y591200D01*
X30382563Y520679D01*
X30375100Y463990D01*
X24703200Y463990D01*
X24703200Y1049999D01*
X24699295Y1089642D01*
X24691683Y1127909D01*
X24661351Y1201146D01*
X24651710Y1215577D01*
X24651704Y1215585D01*
X24648260Y1220739D01*
X24639667Y1233601D01*
X24583601Y1289667D01*
X24565585Y1301704D01*
X24565577Y1301710D01*
X24560915Y1304825D01*
X24551146Y1311351D01*
X24477907Y1341684D01*
X24416200Y1353962D01*
X24416200Y2046001D01*
X24844300Y2046001D01*
X24844300Y2023856D01*
X24864265Y1914912D01*
X24902993Y1841121D01*
X24958258Y1778740D01*
X25026846Y1731398D01*
X25071000Y1714652D01*
X25071000Y2046000D01*
X25578999Y2046000D01*
X25578999Y1713149D01*
X25585087Y1714265D01*
X25658879Y1752993D01*
X25721260Y1808258D01*
X25768602Y1876846D01*
X25798155Y1954768D01*
X25805700Y2016912D01*
X25805700Y2046000D01*
X25578999Y2046000D01*
X25071000Y2046000D01*
X25071000Y2046001D01*
X24844300Y2046001D01*
X24416200Y2046001D01*
X24416200Y2325497D01*
X24413358Y2354488D01*
X26566985Y2354488D01*
X26585804Y2267449D01*
X26586860Y2262563D01*
X26616892Y2196970D01*
X26626009Y2177057D01*
X26681938Y2102836D01*
X26682609Y2101946D01*
X26754013Y2040745D01*
X26803619Y2014147D01*
X26836896Y1996304D01*
X26927389Y1970697D01*
X27021269Y1965120D01*
X27021271Y1965120D01*
X27096636Y1977057D01*
X27114157Y1979832D01*
X27201719Y2014147D01*
X27279870Y2066464D01*
X27282903Y2069627D01*
X27344962Y2134341D01*
X27363088Y2164037D01*
X27393962Y2214616D01*
X27424580Y2303538D01*
X27435389Y2396960D01*
X27435394Y2398321D01*
X27435401Y2399998D01*
X27425243Y2493495D01*
X27422967Y2500258D01*
X27395246Y2582629D01*
X27373857Y2618227D01*
X27346810Y2663242D01*
X27282192Y2731573D01*
X27276140Y2735686D01*
X27204408Y2784435D01*
X27117088Y2819361D01*
X27054037Y2829799D01*
X27024306Y2834721D01*
X27024305Y2834721D01*
X26930388Y2829799D01*
X26905900Y2823054D01*
X26839719Y2804826D01*
X26792315Y2779832D01*
X26756527Y2760963D01*
X26684696Y2700260D01*
X26684694Y2700258D01*
X26627843Y2625901D01*
X26627574Y2625549D01*
X26587829Y2540314D01*
X26567313Y2448534D01*
X26566985Y2354488D01*
X24413358Y2354488D01*
X24409060Y2398321D01*
X24393899Y2448534D01*
X24393200Y2450849D01*
X24393200Y2553999D01*
X25579000Y2553999D01*
X25805700Y2553999D01*
X25805700Y2576144D01*
X25785735Y2685088D01*
X25747007Y2758879D01*
X25691742Y2821260D01*
X25623154Y2868602D01*
X25579000Y2885348D01*
X25579000Y2553999D01*
X24393200Y2553999D01*
X24393200Y2576142D01*
X24392012Y2582629D01*
X24391928Y2583088D01*
X24844300Y2583088D01*
X24844300Y2554000D01*
X25071001Y2554000D01*
X25071001Y2886851D01*
X25064913Y2885735D01*
X24991121Y2847007D01*
X24928740Y2791742D01*
X24881398Y2723154D01*
X24851845Y2645232D01*
X24844300Y2583088D01*
X24391928Y2583088D01*
X24373235Y2685088D01*
X24334507Y2758879D01*
X24279242Y2821260D01*
X24276643Y2823054D01*
X24210655Y2868602D01*
X24166025Y2885528D01*
X24132732Y2898155D01*
X24101508Y2901946D01*
X24070590Y2905700D01*
X23761356Y2905700D01*
X23652412Y2885735D01*
X23578621Y2847007D01*
X23573543Y2842508D01*
X23516240Y2791742D01*
X23468898Y2723155D01*
X23465529Y2714271D01*
X23439345Y2645232D01*
X23438069Y2634721D01*
X23431800Y2583090D01*
X23431800Y2450758D01*
X23417362Y2405244D01*
X23416434Y2396970D01*
X23408899Y2329798D01*
X23408800Y2328917D01*
X23408801Y1353200D01*
X23150001Y1353200D01*
X23110358Y1349295D01*
X23074298Y1342122D01*
X23072091Y1341683D01*
X22998854Y1311351D01*
X22989086Y1304825D01*
X22984423Y1301710D01*
X22984415Y1301704D01*
X22966399Y1289667D01*
X22910333Y1233601D01*
X22901740Y1220739D01*
X22898296Y1215585D01*
X22898290Y1215577D01*
X22888649Y1201146D01*
X22858317Y1127910D01*
X22850705Y1089644D01*
X22847880Y1060963D01*
X22846800Y1049999D01*
X22846800Y-1542178D01*
X22835335Y-1691240D01*
X22822753Y-1854817D01*
X22822689Y-1855644D01*
X22822430Y-1859502D01*
X22822428Y-1859547D01*
X22822211Y-1863303D01*
X22821912Y-1871077D01*
X22821912Y-1871101D01*
X22821849Y-1874346D01*
X22821846Y-1874460D01*
X22821834Y-1875072D01*
X22821816Y-1877085D01*
X22821800Y-1878846D01*
X22821800Y-4043027D01*
X22818606Y-4048560D01*
X22809619Y-4064126D01*
X22758053Y-4174709D01*
X22745941Y-4207989D01*
X22714358Y-4325860D01*
X22708208Y-4360733D01*
X22702890Y-4421512D01*
X22697573Y-4482289D01*
X22697573Y-4517711D01*
X22708208Y-4639265D01*
X22714359Y-4674145D01*
X22744763Y-4787614D01*
X22745941Y-4792011D01*
X22758053Y-4825291D01*
X22809617Y-4935870D01*
X22827332Y-4966555D01*
X22866996Y-5023200D01*
X22871084Y-5029037D01*
X22897326Y-5066514D01*
X22920088Y-5093638D01*
X22998076Y-5171626D01*
X23017540Y-5205337D01*
X23017540Y-5244263D01*
X22998076Y-5277974D01*
X22964365Y-5297438D01*
X22944902Y-5300000D01*
X17147074Y-5300000D01*
X17109474Y-5289925D01*
X17081949Y-5262400D01*
X17071874Y-5224800D01*
X17081949Y-5187200D01*
X17093900Y-5171626D01*
X18180323Y-4085203D01*
X18963125Y-3302400D01*
X21200001Y-3302400D01*
X21276200Y-3281982D01*
X21331982Y-3226200D01*
X21352400Y-3150001D01*
X21352400Y800001D01*
X21331982Y876200D01*
X21276200Y931982D01*
X21200001Y952400D01*
X18963125Y952400D01*
X18357763Y1557763D01*
X18254900Y1660626D01*
X18254900Y1721001D01*
X19019300Y1721001D01*
X19019300Y1671716D01*
X19038614Y1549772D01*
X19076513Y1464648D01*
X19131279Y1389269D01*
X19200524Y1326921D01*
X19281214Y1280334D01*
X19369836Y1251540D01*
X19438715Y1244300D01*
X19446000Y1244300D01*
X19446000Y1244413D01*
X19953999Y1244413D01*
X20075228Y1263614D01*
X20160352Y1301513D01*
X20235731Y1356279D01*
X20298079Y1425524D01*
X20344666Y1506214D01*
X20373460Y1594836D01*
X20380700Y1663715D01*
X20380700Y1721000D01*
X19954000Y1721000D01*
X19953999Y1244413D01*
X19446000Y1244413D01*
X19446001Y1721001D01*
X19019300Y1721001D01*
X18254900Y1721001D01*
X18254900Y2100000D01*
X18239839Y2164037D01*
X18238661Y2169046D01*
X18204355Y2214472D01*
X18186486Y2225536D01*
X18180894Y2228999D01*
X19953999Y2228999D01*
X20380700Y2228999D01*
X20380700Y2278284D01*
X20361386Y2400228D01*
X20323487Y2485352D01*
X20268721Y2560731D01*
X20199476Y2623079D01*
X20118786Y2669666D01*
X20030164Y2698460D01*
X19961285Y2705700D01*
X19954000Y2705700D01*
X19953999Y2228999D01*
X18180894Y2228999D01*
X18155956Y2244440D01*
X18141967Y2247055D01*
X18100003Y2254900D01*
X15700000Y2254900D01*
X15700000Y2286285D01*
X19019300Y2286285D01*
X19019300Y2229000D01*
X19446000Y2229000D01*
X19446001Y2705587D01*
X19324772Y2686386D01*
X19239648Y2648487D01*
X19164269Y2593721D01*
X19101921Y2524476D01*
X19055334Y2443786D01*
X19026540Y2355164D01*
X19019300Y2286285D01*
X15700000Y2286285D01*
X15700000Y3200000D01*
X15536302Y3200000D01*
X15530186Y3202440D01*
X15519059Y3203531D01*
X15515166Y3204658D01*
X15515164Y3204658D01*
X15510090Y3204219D01*
X15494860Y3202900D01*
X6552400Y3202900D01*
X6552400Y3221278D01*
X34466985Y3221278D01*
X34486764Y3129799D01*
X34486860Y3129353D01*
X34520841Y3055135D01*
X34526009Y3043847D01*
X34582607Y2968738D01*
X34582609Y2968736D01*
X34654013Y2907535D01*
X34701579Y2882031D01*
X34736896Y2863094D01*
X34827389Y2837487D01*
X34921269Y2831910D01*
X34921271Y2831910D01*
X35004547Y2845100D01*
X35014157Y2846622D01*
X35101719Y2880937D01*
X35179870Y2933254D01*
X35197977Y2952136D01*
X35244962Y3001131D01*
X35260763Y3027018D01*
X35293962Y3081406D01*
X35319004Y3154133D01*
X35324580Y3170327D01*
X35327661Y3196960D01*
X35335389Y3263750D01*
X35335391Y3264251D01*
X35335401Y3266788D01*
X35325243Y3360285D01*
X35320534Y3374278D01*
X35295246Y3449419D01*
X35277096Y3479626D01*
X35246810Y3530032D01*
X35182192Y3598363D01*
X35182191Y3598364D01*
X35104408Y3651225D01*
X35017088Y3686151D01*
X34959691Y3695653D01*
X34924306Y3701511D01*
X34924305Y3701511D01*
X34830388Y3696589D01*
X34802286Y3688849D01*
X34739719Y3671616D01*
X34689882Y3645339D01*
X34656527Y3627753D01*
X34587639Y3569537D01*
X34584694Y3567048D01*
X34532540Y3498834D01*
X34527574Y3492339D01*
X34487829Y3407104D01*
X34467313Y3315324D01*
X34466985Y3221278D01*
X6552400Y3221278D01*
X6552400Y3697100D01*
X6934083Y3697100D01*
X6936896Y3696304D01*
X7027389Y3670697D01*
X7121269Y3665120D01*
X7121271Y3665120D01*
X7183194Y3674928D01*
X7214157Y3679832D01*
X7301719Y3714147D01*
X7379870Y3766464D01*
X7387335Y3774248D01*
X7444962Y3834341D01*
X7454855Y3850549D01*
X7493962Y3914616D01*
X7522315Y3996960D01*
X7524580Y4003537D01*
X7530235Y4052415D01*
X7530474Y4054488D01*
X27266985Y4054488D01*
X27283273Y3979155D01*
X27286860Y3962563D01*
X27321773Y3886309D01*
X27326009Y3877057D01*
X27382607Y3801948D01*
X27382609Y3801946D01*
X27454013Y3740745D01*
X27499757Y3716218D01*
X27536896Y3696304D01*
X27627389Y3670697D01*
X27721269Y3665120D01*
X27721271Y3665120D01*
X27783194Y3674928D01*
X27814157Y3679832D01*
X27901719Y3714147D01*
X27979870Y3766464D01*
X27987335Y3774248D01*
X28044962Y3834341D01*
X28054855Y3850549D01*
X28093962Y3914616D01*
X28106380Y3950682D01*
X29697012Y3950682D01*
X29717202Y3850549D01*
X29757115Y3756522D01*
X29815119Y3672440D01*
X29815121Y3672438D01*
X29888841Y3601742D01*
X29888844Y3601740D01*
X29888845Y3601739D01*
X29970357Y3550408D01*
X29975283Y3547306D01*
X30013315Y3533011D01*
X30070898Y3511367D01*
X30104528Y3506041D01*
X30171786Y3495388D01*
X30171788Y3495388D01*
X30273830Y3500022D01*
X30273834Y3500023D01*
X30273835Y3500023D01*
X30372853Y3525077D01*
X30386292Y3531574D01*
X30464822Y3569537D01*
X30464825Y3569539D01*
X30545971Y3631579D01*
X30612984Y3708669D01*
X30663130Y3797664D01*
X30694356Y3894921D01*
X30695610Y3906462D01*
X30705388Y3996472D01*
X30705400Y4000000D01*
X30704769Y4006218D01*
X30695077Y4101626D01*
X30664531Y4199099D01*
X30619780Y4279832D01*
X30615009Y4288439D01*
X30548534Y4365996D01*
X30467821Y4428604D01*
X30376168Y4473702D01*
X30277319Y4499451D01*
X30175311Y4504797D01*
X30175309Y4504797D01*
X30074314Y4489523D01*
X29978447Y4454251D01*
X29891632Y4400423D01*
X29817415Y4330240D01*
X29780285Y4277212D01*
X29758825Y4246564D01*
X29731158Y4182630D01*
X29718257Y4152818D01*
X29697716Y4054488D01*
X29697369Y4052829D01*
X29697012Y3950682D01*
X28106380Y3950682D01*
X28122315Y3996960D01*
X28124580Y4003537D01*
X28130235Y4052415D01*
X28135389Y4096960D01*
X28135394Y4098299D01*
X28135401Y4099998D01*
X28125243Y4193495D01*
X28125243Y4193496D01*
X28095246Y4282629D01*
X28076308Y4314147D01*
X28046810Y4363242D01*
X27982192Y4431573D01*
X27978119Y4434341D01*
X27904408Y4484435D01*
X27817088Y4519361D01*
X27754037Y4529799D01*
X27724306Y4534721D01*
X27724305Y4534721D01*
X27630388Y4529799D01*
X27602286Y4522059D01*
X27539719Y4504826D01*
X27487056Y4477059D01*
X27456527Y4460963D01*
X27384889Y4400423D01*
X27384694Y4400258D01*
X27331160Y4330239D01*
X27327574Y4325549D01*
X27287829Y4240314D01*
X27267313Y4148534D01*
X27266985Y4054488D01*
X7530474Y4054488D01*
X7535389Y4096960D01*
X7535394Y4098299D01*
X7535401Y4099998D01*
X7525243Y4193495D01*
X7525243Y4193496D01*
X7495246Y4282629D01*
X7476308Y4314147D01*
X7446810Y4363242D01*
X7382192Y4431573D01*
X7378119Y4434341D01*
X7304408Y4484435D01*
X7217088Y4519361D01*
X7154037Y4529799D01*
X7124306Y4534721D01*
X7124305Y4534721D01*
X7030388Y4529799D01*
X6975266Y4514616D01*
X6932729Y4502900D01*
X6552400Y4502900D01*
X6552400Y5100000D01*
X6543097Y5134721D01*
X6530308Y5182447D01*
X6517092Y5205337D01*
X6517092Y5244263D01*
X6536556Y5277974D01*
X6570267Y5297438D01*
X6589730Y5300000D01*
X89800000Y5300000D01*
X89800000Y-5300000D01*
G37*
G04 #@! TD.AperFunction*
G04 #@! TA.AperFunction,Conductor*
G36*
X49025234Y-2523332D02*
G01*
X49068580Y-2432184D01*
X49331371Y-2694976D01*
X50104820Y-3468426D01*
X50124284Y-3502137D01*
X50124284Y-3541063D01*
X50104820Y-3574774D01*
X50051646Y-3596800D01*
X45919642Y-3596800D01*
X45882042Y-3586725D01*
X45854517Y-3559200D01*
X45844442Y-3521600D01*
X45854517Y-3484000D01*
X45883414Y-3455702D01*
X45883624Y-3455587D01*
X45890987Y-3451539D01*
X45914058Y-3441555D01*
X45914060Y-3441554D01*
X45924437Y-3433152D01*
X45936139Y-3426717D01*
X45936141Y-3426716D01*
X45941609Y-3421995D01*
X45941614Y-3421991D01*
X45948840Y-3414764D01*
X45956069Y-3407535D01*
X45973628Y-3393316D01*
X45981832Y-3381773D01*
X46872846Y-2490760D01*
X46906557Y-2471296D01*
X46945483Y-2471296D01*
X46979194Y-2490760D01*
X46998658Y-2524471D01*
X46995769Y-2572042D01*
X46994004Y-2576422D01*
X46967472Y-2642257D01*
X46947251Y-2745801D01*
X46946975Y-2851306D01*
X46959264Y-2916031D01*
X46966653Y-2954952D01*
X46978733Y-2985384D01*
X47005576Y-3053011D01*
X47062338Y-3141937D01*
X47134894Y-3218529D01*
X47220625Y-3280020D01*
X47316428Y-3324186D01*
X47316432Y-3324187D01*
X47418865Y-3349442D01*
X47436135Y-3350332D01*
X47524225Y-3354872D01*
X47628711Y-3340281D01*
X47728558Y-3306192D01*
X47820152Y-3253842D01*
X47900192Y-3185118D01*
X47934782Y-3141555D01*
X47965798Y-3102493D01*
X48014594Y-3008955D01*
X48032349Y-2949585D01*
X48044822Y-2907880D01*
X48055392Y-2802908D01*
X48055400Y-2799997D01*
X48045381Y-2694978D01*
X48026964Y-2632202D01*
X48015681Y-2593742D01*
X48001216Y-2565657D01*
X47967376Y-2499952D01*
X47954247Y-2483237D01*
X48340684Y-2483237D01*
X48534659Y-2677212D01*
X48558641Y-2696724D01*
X48625218Y-2728385D01*
X48697862Y-2740911D01*
X48771200Y-2733372D01*
X48839779Y-2706328D01*
X48848253Y-2699902D01*
X48486136Y-2337785D01*
X48340684Y-2483237D01*
X47954247Y-2483237D01*
X47933176Y-2456413D01*
X47902205Y-2416985D01*
X47822522Y-2347840D01*
X47822518Y-2347838D01*
X47793764Y-2322887D01*
X47793764Y-2276948D01*
X47964079Y-2106633D01*
X48163908Y-2306462D01*
X48486136Y-1984233D01*
X49025234Y-2523332D01*
G37*
G04 #@! TD.AperFunction*
G04 #@! TA.AperFunction,Conductor*
G36*
X44130725Y-1130573D02*
G01*
X44158250Y-1158098D01*
X44168325Y-1195698D01*
X44152864Y-1241373D01*
X44127574Y-1274451D01*
X44087829Y-1359686D01*
X44067313Y-1451466D01*
X44066985Y-1545512D01*
X44086460Y-1635585D01*
X44086860Y-1637437D01*
X44121528Y-1713156D01*
X44126009Y-1722943D01*
X44182607Y-1798052D01*
X44182609Y-1798054D01*
X44254013Y-1859255D01*
X44290551Y-1878846D01*
X44336896Y-1903696D01*
X44427389Y-1929303D01*
X44521269Y-1934880D01*
X44521271Y-1934880D01*
X44584501Y-1924865D01*
X44614157Y-1920168D01*
X44649552Y-1906297D01*
X44749997Y-1866935D01*
X44766985Y-1945509D01*
X44766985Y-1945512D01*
X44786859Y-2037434D01*
X44786860Y-2037436D01*
X44845713Y-2165980D01*
X44739719Y-2195174D01*
X44696315Y-2218059D01*
X44656527Y-2239037D01*
X44608191Y-2279885D01*
X44584694Y-2299742D01*
X44527576Y-2374448D01*
X44527574Y-2374451D01*
X44487829Y-2459686D01*
X44467313Y-2551466D01*
X44466985Y-2645512D01*
X44486112Y-2733976D01*
X44486860Y-2737437D01*
X44516836Y-2802908D01*
X44526009Y-2822943D01*
X44581890Y-2897100D01*
X44582609Y-2898054D01*
X44654013Y-2959255D01*
X44710937Y-2989777D01*
X44736896Y-3003696D01*
X44827389Y-3029303D01*
X44921269Y-3034880D01*
X44921272Y-3034880D01*
X44992428Y-3039107D01*
X44975670Y-3114081D01*
X44967313Y-3151466D01*
X44966985Y-3245512D01*
X44985645Y-3331816D01*
X44986860Y-3337437D01*
X45018955Y-3407537D01*
X45026009Y-3422943D01*
X45062435Y-3471282D01*
X45066249Y-3476344D01*
X45080831Y-3512436D01*
X45075413Y-3550984D01*
X45051447Y-3581658D01*
X45006191Y-3596800D01*
X36410030Y-3596800D01*
X36418226Y-3529303D01*
X36418227Y-3529301D01*
X36425700Y-3467757D01*
X36425700Y-3163525D01*
X36405898Y-3055467D01*
X36367449Y-2982210D01*
X36367448Y-2982208D01*
X36312584Y-2920279D01*
X36262030Y-2885384D01*
X36244495Y-2873280D01*
X36244494Y-2873280D01*
X36244493Y-2873279D01*
X36171738Y-2845688D01*
X36140155Y-2822935D01*
X36124179Y-2787438D01*
X36128091Y-2748708D01*
X36150844Y-2717124D01*
X36169624Y-2705900D01*
X36231200Y-2680394D01*
X36271094Y-2649782D01*
X36291757Y-2633927D01*
X36300585Y-2622422D01*
X36320040Y-2597068D01*
X36763658Y-2597068D01*
X36727576Y-2674448D01*
X36727574Y-2674451D01*
X36687829Y-2759686D01*
X36667313Y-2851466D01*
X36666985Y-2945512D01*
X36686298Y-3034836D01*
X36686860Y-3037437D01*
X36725208Y-3121193D01*
X36726009Y-3122943D01*
X36773415Y-3185853D01*
X36782609Y-3198054D01*
X36854013Y-3259255D01*
X36903617Y-3285852D01*
X36936896Y-3303696D01*
X37027389Y-3329303D01*
X37121269Y-3334880D01*
X37121271Y-3334880D01*
X37188788Y-3324186D01*
X37214157Y-3320168D01*
X37274618Y-3296474D01*
X37301722Y-3285852D01*
X37379870Y-3233537D01*
X37408487Y-3203694D01*
X37431305Y-3179900D01*
X38296825Y-3179900D01*
X38326575Y-3181147D01*
X38326577Y-3181147D01*
X38351048Y-3175407D01*
X38375943Y-3171997D01*
X38388205Y-3166691D01*
X38401203Y-3163642D01*
X38401416Y-3163525D01*
X38423220Y-3151539D01*
X38446291Y-3141555D01*
X38446293Y-3141554D01*
X38456670Y-3133152D01*
X38468372Y-3126717D01*
X38468374Y-3126716D01*
X38473842Y-3121995D01*
X38473847Y-3121991D01*
X38481756Y-3114081D01*
X38488302Y-3107535D01*
X38505861Y-3093316D01*
X38514065Y-3081772D01*
X40475340Y-1120498D01*
X44093125Y-1120498D01*
X44130725Y-1130573D01*
G37*
G04 #@! TD.AperFunction*
G04 #@! TA.AperFunction,Conductor*
G36*
X45129288Y800000D02*
G01*
X44809188Y479900D01*
X44431056Y479900D01*
X44382193Y531574D01*
X44304408Y584435D01*
X44295795Y587880D01*
X44217088Y619361D01*
X44144789Y631330D01*
X44124306Y634721D01*
X44124305Y634721D01*
X44030388Y629799D01*
X44004873Y622771D01*
X43939719Y604826D01*
X43891437Y579369D01*
X43856527Y560963D01*
X43790292Y504989D01*
X43784694Y500258D01*
X43731892Y431197D01*
X43727574Y425549D01*
X43687829Y340314D01*
X43667313Y248534D01*
X43666985Y154488D01*
X43685626Y68272D01*
X43686860Y62563D01*
X43769670Y-118305D01*
X40133830Y-118305D01*
X40096230Y-108230D01*
X40068705Y-80705D01*
X40058630Y-43105D01*
X40068705Y-5505D01*
X40080656Y10069D01*
X40236682Y166095D01*
X41290688Y1220100D01*
X44709188Y1220100D01*
X45129288Y800000D01*
G37*
G04 #@! TD.AperFunction*
G04 #@! TD*
G04 #@! TA.AperFunction,Conductor*
G04 #@! TO.N,IN*
G36*
X24438266Y1142388D02*
G01*
X24470711Y1120711D01*
X24492388Y1088266D01*
X24500000Y1049999D01*
X24500000Y-1449999D01*
X24492388Y-1488266D01*
X24470711Y-1520711D01*
X24438266Y-1542388D01*
X24399999Y-1550000D01*
X24275000Y-1550000D01*
X24275000Y-3800000D01*
X74399998Y-3800000D01*
X74521553Y-3810635D01*
X74639415Y-3842215D01*
X74750000Y-3893782D01*
X74849953Y-3963771D01*
X74936229Y-4050047D01*
X75006218Y-4150000D01*
X75057785Y-4260586D01*
X75089365Y-4378446D01*
X75100000Y-4500000D01*
X75089365Y-4621554D01*
X75057785Y-4739414D01*
X75006218Y-4850000D01*
X74936229Y-4949953D01*
X74849953Y-5036229D01*
X74750000Y-5106218D01*
X74639415Y-5157785D01*
X74521553Y-5189365D01*
X74399998Y-5200000D01*
X23600002Y-5200000D01*
X23478447Y-5189365D01*
X23360585Y-5157785D01*
X23250000Y-5106218D01*
X23150047Y-5036229D01*
X23063771Y-4949953D01*
X22993782Y-4850000D01*
X22942215Y-4739414D01*
X22910635Y-4621554D01*
X22900000Y-4500000D01*
X22910635Y-4378446D01*
X22942215Y-4260586D01*
X22993782Y-4150000D01*
X23025000Y-4105417D01*
X23025000Y-1878846D01*
X23025008Y-1878418D01*
X23025074Y-1875003D01*
X23025295Y-1871171D01*
X23050000Y-1550000D01*
X23050000Y1050000D01*
X23057612Y1088266D01*
X23079289Y1120711D01*
X23111734Y1142388D01*
X23150001Y1150000D01*
X24399999Y1150000D01*
X24438266Y1142388D01*
G37*
G04 #@! TD.AperFunction*
G04 #@! TA.AperFunction,Conductor*
G36*
X81530902Y-204895D02*
G01*
X81561802Y-209789D01*
X81617557Y-238197D01*
X81661803Y-282443D01*
X81690211Y-338198D01*
X81700000Y-399999D01*
X81700000Y-1049579D01*
X81706068Y-1098468D01*
X81723908Y-1144401D01*
X82241249Y-2105176D01*
X82261210Y-2160466D01*
X82264236Y-2219167D01*
X82250066Y-2276213D01*
X82219925Y-2326675D01*
X82176416Y-2366196D01*
X82123299Y-2391362D01*
X82065156Y-2400000D01*
X80182843Y-2400000D01*
X80106306Y-2384776D01*
X80041421Y-2341421D01*
X78858579Y-1158579D01*
X78815224Y-1093694D01*
X78800000Y-1017157D01*
X78800000Y-400000D01*
X78809789Y-338198D01*
X78838197Y-282443D01*
X78882443Y-238197D01*
X78884450Y-237174D01*
X78938198Y-209789D01*
X79000000Y-200000D01*
X81500000Y-200000D01*
X81530902Y-204895D01*
G37*
G04 #@! TD.AperFunction*
G04 #@! TD*
G04 #@! TA.AperFunction,Conductor*
G04 #@! TO.N,/HEATER*
G36*
X18250000Y1450000D02*
G01*
X18899999Y800000D01*
X21200000Y800000D01*
X21200000Y-3150000D01*
X18899999Y-3150000D01*
X17825000Y-4225000D01*
X16750000Y-5300000D01*
X11200000Y-5300000D01*
X11200000Y-3202900D01*
X15478762Y-3202900D01*
X15484834Y-3204658D01*
X15484836Y-3204658D01*
X15489911Y-3204218D01*
X15505140Y-3202900D01*
X15513425Y-3202900D01*
X15520626Y-3201559D01*
X15538623Y-3200000D01*
X15700000Y-3200000D01*
X15700000Y2100000D01*
X17600000Y2100000D01*
X18250000Y1450000D01*
G37*
G04 #@! TD.AperFunction*
G04 #@! TD*
G04 #@! TA.AperFunction,Conductor*
G04 #@! TO.N,+3V3*
G36*
X75230902Y-1704895D02*
G01*
X75261802Y-1709789D01*
X75315550Y-1737174D01*
X75317557Y-1738197D01*
X75361803Y-1782443D01*
X75390211Y-1838198D01*
X75400000Y-1899999D01*
X75400000Y-3100001D01*
X75390211Y-3161802D01*
X75362826Y-3215550D01*
X75361803Y-3217557D01*
X75317557Y-3261803D01*
X75261802Y-3290211D01*
X75230902Y-3295105D01*
X75200000Y-3300000D01*
X74550000Y-3300000D01*
X74519098Y-3295105D01*
X74488198Y-3290211D01*
X74432443Y-3261803D01*
X74388197Y-3217557D01*
X74387174Y-3215550D01*
X74359789Y-3161802D01*
X74350000Y-3100001D01*
X74350000Y-1899999D01*
X74359789Y-1838198D01*
X74388197Y-1782443D01*
X74432443Y-1738197D01*
X74434450Y-1737174D01*
X74488198Y-1709789D01*
X74519098Y-1704895D01*
X74550000Y-1700000D01*
X75200000Y-1700000D01*
X75230902Y-1704895D01*
G37*
G04 #@! TD.AperFunction*
G04 #@! TD*
G04 #@! TA.AperFunction,Conductor*
G04 #@! TO.N,/TIP_TC*
G36*
X6400000Y3202900D02*
G01*
X1000000Y3202900D01*
X1000000Y5100000D01*
X6400000Y5100000D01*
X6400000Y3202900D01*
G37*
G04 #@! TD.AperFunction*
G04 #@! TD*
M02*
