G04 #@! TF.GenerationSoftware,KiCad,Pcbnew,(5.99.0-3798-g06f04ad99b)*
G04 #@! TF.CreationDate,2020-10-05T20:32:41-07:00*
G04 #@! TF.ProjectId,RT_USB_PD_Soldering_Iron,52545f55-5342-45f5-9044-5f536f6c6465,rev?*
G04 #@! TF.SameCoordinates,PX5f5e100PY7735940*
G04 #@! TF.FileFunction,Copper,L4,Bot*
G04 #@! TF.FilePolarity,Positive*
%FSLAX46Y46*%
G04 Gerber Fmt 4.6, Leading zero omitted, Abs format (unit mm)*
G04 Created by KiCad (PCBNEW (5.99.0-3798-g06f04ad99b)) date 2020-10-05 20:32:41*
%MOMM*%
%LPD*%
G01*
G04 APERTURE LIST*
G04 #@! TA.AperFunction,ComponentPad*
%ADD10O,2.100000X1.000000*%
G04 #@! TD*
G04 #@! TA.AperFunction,ComponentPad*
%ADD11O,1.800000X1.000000*%
G04 #@! TD*
G04 #@! TA.AperFunction,SMDPad,CuDef*
%ADD12R,2.200000X2.100000*%
G04 #@! TD*
G04 #@! TA.AperFunction,SMDPad,CuDef*
%ADD13R,2.800000X2.100000*%
G04 #@! TD*
G04 #@! TA.AperFunction,SMDPad,CuDef*
%ADD14R,2.600000X2.700000*%
G04 #@! TD*
G04 #@! TA.AperFunction,SMDPad,CuDef*
%ADD15C,1.000000*%
G04 #@! TD*
G04 #@! TA.AperFunction,SMDPad,CuDef*
%ADD16R,1.060000X0.650000*%
G04 #@! TD*
G04 #@! TA.AperFunction,ViaPad*
%ADD17C,1.000000*%
G04 #@! TD*
G04 #@! TA.AperFunction,ViaPad*
%ADD18C,0.560000*%
G04 #@! TD*
G04 #@! TA.AperFunction,ViaPad*
%ADD19C,0.800000*%
G04 #@! TD*
G04 #@! TA.AperFunction,Conductor*
%ADD20C,1.000000*%
G04 #@! TD*
G04 #@! TA.AperFunction,Conductor*
%ADD21C,0.600000*%
G04 #@! TD*
G04 #@! TA.AperFunction,Conductor*
%ADD22C,0.254000*%
G04 #@! TD*
G04 #@! TA.AperFunction,Conductor*
%ADD23C,0.500000*%
G04 #@! TD*
G04 #@! TA.AperFunction,Conductor*
%ADD24C,0.300000*%
G04 #@! TD*
G04 #@! TA.AperFunction,Conductor*
%ADD25C,0.203200*%
G04 #@! TD*
G04 APERTURE END LIST*
D10*
G04 #@! TO.P,J1,S1,SHIELD*
G04 #@! TO.N,GND*
X69200000Y-4320000D03*
D11*
X73380000Y4320000D03*
D10*
X69200000Y4320000D03*
D11*
X73380000Y-4320000D03*
G04 #@! TD*
D12*
G04 #@! TO.P,J2,G*
G04 #@! TO.N,GND*
X3000000Y-4050000D03*
G04 #@! TO.P,J2,S*
G04 #@! TO.N,/TIP_TC*
X5200000Y4050000D03*
G04 #@! TO.P,J2,SN*
X2100000Y4050000D03*
D13*
G04 #@! TO.P,J2,T*
G04 #@! TO.N,/HEATER*
X12800000Y-4050000D03*
D14*
G04 #@! TO.P,J2,TN*
X16800000Y750000D03*
G04 #@! TD*
G04 #@! TO.P,C16,1*
G04 #@! TO.N,/HEATER*
G04 #@! TA.AperFunction,SMDPad,CuDef*
G36*
G01*
X19937500Y-300000D02*
X19462500Y-300000D01*
G75*
G02*
X19225000Y-62500I0J237500D01*
G01*
X19225000Y512500D01*
G75*
G02*
X19462500Y750000I237500J0D01*
G01*
X19937500Y750000D01*
G75*
G02*
X20175000Y512500I0J-237500D01*
G01*
X20175000Y-62500D01*
G75*
G02*
X19937500Y-300000I-237500J0D01*
G01*
G37*
G04 #@! TD.AperFunction*
G04 #@! TO.P,C16,2*
G04 #@! TO.N,GND*
G04 #@! TA.AperFunction,SMDPad,CuDef*
G36*
G01*
X19937500Y1450000D02*
X19462500Y1450000D01*
G75*
G02*
X19225000Y1687500I0J237500D01*
G01*
X19225000Y2262500D01*
G75*
G02*
X19462500Y2500000I237500J0D01*
G01*
X19937500Y2500000D01*
G75*
G02*
X20175000Y2262500I0J-237500D01*
G01*
X20175000Y1687500D01*
G75*
G02*
X19937500Y1450000I-237500J0D01*
G01*
G37*
G04 #@! TD.AperFunction*
G04 #@! TD*
G04 #@! TO.P,C1,1*
G04 #@! TO.N,IN*
G04 #@! TA.AperFunction,SMDPad,CuDef*
G36*
G01*
X67637500Y-1600000D02*
X67162500Y-1600000D01*
G75*
G02*
X66925000Y-1362500I0J237500D01*
G01*
X66925000Y-787500D01*
G75*
G02*
X67162500Y-550000I237500J0D01*
G01*
X67637500Y-550000D01*
G75*
G02*
X67875000Y-787500I0J-237500D01*
G01*
X67875000Y-1362500D01*
G75*
G02*
X67637500Y-1600000I-237500J0D01*
G01*
G37*
G04 #@! TD.AperFunction*
G04 #@! TO.P,C1,2*
G04 #@! TO.N,GND*
G04 #@! TA.AperFunction,SMDPad,CuDef*
G36*
G01*
X67637500Y150000D02*
X67162500Y150000D01*
G75*
G02*
X66925000Y387500I0J237500D01*
G01*
X66925000Y962500D01*
G75*
G02*
X67162500Y1200000I237500J0D01*
G01*
X67637500Y1200000D01*
G75*
G02*
X67875000Y962500I0J-237500D01*
G01*
X67875000Y387500D01*
G75*
G02*
X67637500Y150000I-237500J0D01*
G01*
G37*
G04 #@! TD.AperFunction*
G04 #@! TD*
G04 #@! TO.P,R6,1*
G04 #@! TO.N,+3V3*
G04 #@! TA.AperFunction,SMDPad,CuDef*
G36*
G01*
X60284400Y1492528D02*
X60284400Y1122528D01*
G75*
G02*
X60149400Y987528I-135000J0D01*
G01*
X59879400Y987528D01*
G75*
G02*
X59744400Y1122528I0J135000D01*
G01*
X59744400Y1492528D01*
G75*
G02*
X59879400Y1627528I135000J0D01*
G01*
X60149400Y1627528D01*
G75*
G02*
X60284400Y1492528I0J-135000D01*
G01*
G37*
G04 #@! TD.AperFunction*
G04 #@! TO.P,R6,2*
G04 #@! TO.N,/I2C1_SCL*
G04 #@! TA.AperFunction,SMDPad,CuDef*
G36*
G01*
X59264400Y1492528D02*
X59264400Y1122528D01*
G75*
G02*
X59129400Y987528I-135000J0D01*
G01*
X58859400Y987528D01*
G75*
G02*
X58724400Y1122528I0J135000D01*
G01*
X58724400Y1492528D01*
G75*
G02*
X58859400Y1627528I135000J0D01*
G01*
X59129400Y1627528D01*
G75*
G02*
X59264400Y1492528I0J-135000D01*
G01*
G37*
G04 #@! TD.AperFunction*
G04 #@! TD*
G04 #@! TO.P,R4,1*
G04 #@! TO.N,/PVD_IN*
G04 #@! TA.AperFunction,SMDPad,CuDef*
G36*
G01*
X34915000Y-2020000D02*
X35285000Y-2020000D01*
G75*
G02*
X35420000Y-2155000I0J-135000D01*
G01*
X35420000Y-2425000D01*
G75*
G02*
X35285000Y-2560000I-135000J0D01*
G01*
X34915000Y-2560000D01*
G75*
G02*
X34780000Y-2425000I0J135000D01*
G01*
X34780000Y-2155000D01*
G75*
G02*
X34915000Y-2020000I135000J0D01*
G01*
G37*
G04 #@! TD.AperFunction*
G04 #@! TO.P,R4,2*
G04 #@! TO.N,GND*
G04 #@! TA.AperFunction,SMDPad,CuDef*
G36*
G01*
X34915000Y-3040000D02*
X35285000Y-3040000D01*
G75*
G02*
X35420000Y-3175000I0J-135000D01*
G01*
X35420000Y-3445000D01*
G75*
G02*
X35285000Y-3580000I-135000J0D01*
G01*
X34915000Y-3580000D01*
G75*
G02*
X34780000Y-3445000I0J135000D01*
G01*
X34780000Y-3175000D01*
G75*
G02*
X34915000Y-3040000I135000J0D01*
G01*
G37*
G04 #@! TD.AperFunction*
G04 #@! TD*
D15*
G04 #@! TO.P,TP3,1,1*
G04 #@! TO.N,/SWCLK*
X57300000Y2000000D03*
G04 #@! TD*
D16*
G04 #@! TO.P,U1,1,IN*
G04 #@! TO.N,IN*
X63800940Y754003D03*
G04 #@! TO.P,U1,2,GND*
G04 #@! TO.N,GND*
X63800940Y-195997D03*
G04 #@! TO.P,U1,3,EN*
G04 #@! TO.N,IN*
X63800940Y-1145997D03*
G04 #@! TO.P,U1,4,BP*
G04 #@! TO.N,Net-(C3-Pad1)*
X61600940Y-1145997D03*
G04 #@! TO.P,U1,5,OUT*
G04 #@! TO.N,+3V3*
X61600940Y754003D03*
G04 #@! TD*
G04 #@! TO.P,C18,1*
G04 #@! TO.N,+3V3*
G04 #@! TA.AperFunction,SMDPad,CuDef*
G36*
G01*
X59831364Y371866D02*
X60171364Y371866D01*
G75*
G02*
X60311364Y231866I0J-140000D01*
G01*
X60311364Y-48134D01*
G75*
G02*
X60171364Y-188134I-140000J0D01*
G01*
X59831364Y-188134D01*
G75*
G02*
X59691364Y-48134I0J140000D01*
G01*
X59691364Y231866D01*
G75*
G02*
X59831364Y371866I140000J0D01*
G01*
G37*
G04 #@! TD.AperFunction*
G04 #@! TO.P,C18,2*
G04 #@! TO.N,GND*
G04 #@! TA.AperFunction,SMDPad,CuDef*
G36*
G01*
X59831364Y-588134D02*
X60171364Y-588134D01*
G75*
G02*
X60311364Y-728134I0J-140000D01*
G01*
X60311364Y-1008134D01*
G75*
G02*
X60171364Y-1148134I-140000J0D01*
G01*
X59831364Y-1148134D01*
G75*
G02*
X59691364Y-1008134I0J140000D01*
G01*
X59691364Y-728134D01*
G75*
G02*
X59831364Y-588134I140000J0D01*
G01*
G37*
G04 #@! TD.AperFunction*
G04 #@! TD*
G04 #@! TO.P,C2,1*
G04 #@! TO.N,+3V3*
G04 #@! TA.AperFunction,SMDPad,CuDef*
G36*
G01*
X61000000Y2462500D02*
X61000000Y2937500D01*
G75*
G02*
X61237500Y3175000I237500J0D01*
G01*
X61812500Y3175000D01*
G75*
G02*
X62050000Y2937500I0J-237500D01*
G01*
X62050000Y2462500D01*
G75*
G02*
X61812500Y2225000I-237500J0D01*
G01*
X61237500Y2225000D01*
G75*
G02*
X61000000Y2462500I0J237500D01*
G01*
G37*
G04 #@! TD.AperFunction*
G04 #@! TO.P,C2,2*
G04 #@! TO.N,GND*
G04 #@! TA.AperFunction,SMDPad,CuDef*
G36*
G01*
X62750000Y2462500D02*
X62750000Y2937500D01*
G75*
G02*
X62987500Y3175000I237500J0D01*
G01*
X63562500Y3175000D01*
G75*
G02*
X63800000Y2937500I0J-237500D01*
G01*
X63800000Y2462500D01*
G75*
G02*
X63562500Y2225000I-237500J0D01*
G01*
X62987500Y2225000D01*
G75*
G02*
X62750000Y2462500I0J237500D01*
G01*
G37*
G04 #@! TD.AperFunction*
G04 #@! TD*
D15*
G04 #@! TO.P,TP5,1,1*
G04 #@! TO.N,+3V3*
X57300000Y-2000000D03*
G04 #@! TD*
G04 #@! TO.P,C3,1*
G04 #@! TO.N,Net-(C3-Pad1)*
G04 #@! TA.AperFunction,SMDPad,CuDef*
G36*
G01*
X61860000Y-2530000D02*
X61860000Y-2870000D01*
G75*
G02*
X61720000Y-3010000I-140000J0D01*
G01*
X61440000Y-3010000D01*
G75*
G02*
X61300000Y-2870000I0J140000D01*
G01*
X61300000Y-2530000D01*
G75*
G02*
X61440000Y-2390000I140000J0D01*
G01*
X61720000Y-2390000D01*
G75*
G02*
X61860000Y-2530000I0J-140000D01*
G01*
G37*
G04 #@! TD.AperFunction*
G04 #@! TO.P,C3,2*
G04 #@! TO.N,GND*
G04 #@! TA.AperFunction,SMDPad,CuDef*
G36*
G01*
X60900000Y-2530000D02*
X60900000Y-2870000D01*
G75*
G02*
X60760000Y-3010000I-140000J0D01*
G01*
X60480000Y-3010000D01*
G75*
G02*
X60340000Y-2870000I0J140000D01*
G01*
X60340000Y-2530000D01*
G75*
G02*
X60480000Y-2390000I140000J0D01*
G01*
X60760000Y-2390000D01*
G75*
G02*
X60900000Y-2530000I0J-140000D01*
G01*
G37*
G04 #@! TD.AperFunction*
G04 #@! TD*
G04 #@! TO.P,C15,1*
G04 #@! TO.N,IN*
G04 #@! TA.AperFunction,SMDPad,CuDef*
G36*
G01*
X23200000Y-3037500D02*
X23200000Y-2562500D01*
G75*
G02*
X23437500Y-2325000I237500J0D01*
G01*
X24012500Y-2325000D01*
G75*
G02*
X24250000Y-2562500I0J-237500D01*
G01*
X24250000Y-3037500D01*
G75*
G02*
X24012500Y-3275000I-237500J0D01*
G01*
X23437500Y-3275000D01*
G75*
G02*
X23200000Y-3037500I0J237500D01*
G01*
G37*
G04 #@! TD.AperFunction*
G04 #@! TO.P,C15,2*
G04 #@! TO.N,GND*
G04 #@! TA.AperFunction,SMDPad,CuDef*
G36*
G01*
X24950000Y-3037500D02*
X24950000Y-2562500D01*
G75*
G02*
X25187500Y-2325000I237500J0D01*
G01*
X25762500Y-2325000D01*
G75*
G02*
X26000000Y-2562500I0J-237500D01*
G01*
X26000000Y-3037500D01*
G75*
G02*
X25762500Y-3275000I-237500J0D01*
G01*
X25187500Y-3275000D01*
G75*
G02*
X24950000Y-3037500I0J237500D01*
G01*
G37*
G04 #@! TD.AperFunction*
G04 #@! TD*
G04 #@! TO.P,TP2,1,1*
G04 #@! TO.N,/SWDIO*
X55300000Y2000000D03*
G04 #@! TD*
G04 #@! TO.P,TP4,1,1*
G04 #@! TO.N,/SWO*
X55300000Y0D03*
G04 #@! TD*
G04 #@! TO.P,TP1,1,1*
G04 #@! TO.N,/NRST*
X55300000Y-2000000D03*
G04 #@! TD*
G04 #@! TO.P,R2,1*
G04 #@! TO.N,IN*
G04 #@! TA.AperFunction,SMDPad,CuDef*
G36*
G01*
X37785000Y-3580000D02*
X37415000Y-3580000D01*
G75*
G02*
X37280000Y-3445000I0J135000D01*
G01*
X37280000Y-3175000D01*
G75*
G02*
X37415000Y-3040000I135000J0D01*
G01*
X37785000Y-3040000D01*
G75*
G02*
X37920000Y-3175000I0J-135000D01*
G01*
X37920000Y-3445000D01*
G75*
G02*
X37785000Y-3580000I-135000J0D01*
G01*
G37*
G04 #@! TD.AperFunction*
G04 #@! TO.P,R2,2*
G04 #@! TO.N,/PVD_IN*
G04 #@! TA.AperFunction,SMDPad,CuDef*
G36*
G01*
X37785000Y-2560000D02*
X37415000Y-2560000D01*
G75*
G02*
X37280000Y-2425000I0J135000D01*
G01*
X37280000Y-2155000D01*
G75*
G02*
X37415000Y-2020000I135000J0D01*
G01*
X37785000Y-2020000D01*
G75*
G02*
X37920000Y-2155000I0J-135000D01*
G01*
X37920000Y-2425000D01*
G75*
G02*
X37785000Y-2560000I-135000J0D01*
G01*
G37*
G04 #@! TD.AperFunction*
G04 #@! TD*
G04 #@! TO.P,U5,1,VDD*
G04 #@! TO.N,+3V3*
G04 #@! TA.AperFunction,SMDPad,CuDef*
G36*
G01*
X46448699Y-3314563D02*
X46360311Y-3226175D01*
G75*
G02*
X46360311Y-3137787I44194J44194D01*
G01*
X46890641Y-2607457D01*
G75*
G02*
X46979029Y-2607457I44194J-44194D01*
G01*
X47067417Y-2695845D01*
G75*
G02*
X47067417Y-2784233I-44194J-44194D01*
G01*
X46537087Y-3314563D01*
G75*
G02*
X46448699Y-3314563I-44194J44194D01*
G01*
G37*
G04 #@! TD.AperFunction*
G04 #@! TO.P,U5,2,PF0-OSC_IN*
G04 #@! TO.N,/OSC_IN*
G04 #@! TA.AperFunction,SMDPad,CuDef*
G36*
G01*
X46095146Y-2961009D02*
X46006758Y-2872621D01*
G75*
G02*
X46006758Y-2784233I44194J44194D01*
G01*
X46537088Y-2253903D01*
G75*
G02*
X46625476Y-2253903I44194J-44194D01*
G01*
X46713864Y-2342291D01*
G75*
G02*
X46713864Y-2430679I-44194J-44194D01*
G01*
X46183534Y-2961009D01*
G75*
G02*
X46095146Y-2961009I-44194J44194D01*
G01*
G37*
G04 #@! TD.AperFunction*
G04 #@! TO.P,U5,3,PF1-OSC_OUT*
G04 #@! TO.N,/OSC_OUT*
G04 #@! TA.AperFunction,SMDPad,CuDef*
G36*
G01*
X45741592Y-2607456D02*
X45653204Y-2519068D01*
G75*
G02*
X45653204Y-2430680I44194J44194D01*
G01*
X46183534Y-1900350D01*
G75*
G02*
X46271922Y-1900350I44194J-44194D01*
G01*
X46360310Y-1988738D01*
G75*
G02*
X46360310Y-2077126I-44194J-44194D01*
G01*
X45829980Y-2607456D01*
G75*
G02*
X45741592Y-2607456I-44194J44194D01*
G01*
G37*
G04 #@! TD.AperFunction*
G04 #@! TO.P,U5,4,PG10-NRST*
G04 #@! TO.N,/NRST*
G04 #@! TA.AperFunction,SMDPad,CuDef*
G36*
G01*
X45388039Y-2253902D02*
X45299651Y-2165514D01*
G75*
G02*
X45299651Y-2077126I44194J44194D01*
G01*
X45829981Y-1546796D01*
G75*
G02*
X45918369Y-1546796I44194J-44194D01*
G01*
X46006757Y-1635184D01*
G75*
G02*
X46006757Y-1723572I-44194J-44194D01*
G01*
X45476427Y-2253902D01*
G75*
G02*
X45388039Y-2253902I-44194J44194D01*
G01*
G37*
G04 #@! TD.AperFunction*
G04 #@! TO.P,U5,5,PA0*
G04 #@! TO.N,/PVD_IN*
G04 #@! TA.AperFunction,SMDPad,CuDef*
G36*
G01*
X45034486Y-1900349D02*
X44946098Y-1811961D01*
G75*
G02*
X44946098Y-1723573I44194J44194D01*
G01*
X45476428Y-1193243D01*
G75*
G02*
X45564816Y-1193243I44194J-44194D01*
G01*
X45653204Y-1281631D01*
G75*
G02*
X45653204Y-1370019I-44194J-44194D01*
G01*
X45122874Y-1900349D01*
G75*
G02*
X45034486Y-1900349I-44194J44194D01*
G01*
G37*
G04 #@! TD.AperFunction*
G04 #@! TO.P,U5,6,PA1*
G04 #@! TO.N,/TEMP_SENS*
G04 #@! TA.AperFunction,SMDPad,CuDef*
G36*
G01*
X44680932Y-1546796D02*
X44592544Y-1458408D01*
G75*
G02*
X44592544Y-1370020I44194J44194D01*
G01*
X45122874Y-839690D01*
G75*
G02*
X45211262Y-839690I44194J-44194D01*
G01*
X45299650Y-928078D01*
G75*
G02*
X45299650Y-1016466I-44194J-44194D01*
G01*
X44769320Y-1546796D01*
G75*
G02*
X44680932Y-1546796I-44194J44194D01*
G01*
G37*
G04 #@! TD.AperFunction*
G04 #@! TO.P,U5,7,PA2*
G04 #@! TO.N,/VSENSE*
G04 #@! TA.AperFunction,SMDPad,CuDef*
G36*
G01*
X44327379Y-1193242D02*
X44238991Y-1104854D01*
G75*
G02*
X44238991Y-1016466I44194J44194D01*
G01*
X44769321Y-486136D01*
G75*
G02*
X44857709Y-486136I44194J-44194D01*
G01*
X44946097Y-574524D01*
G75*
G02*
X44946097Y-662912I-44194J-44194D01*
G01*
X44415767Y-1193242D01*
G75*
G02*
X44327379Y-1193242I-44194J44194D01*
G01*
G37*
G04 #@! TD.AperFunction*
G04 #@! TO.P,U5,8,PA3*
G04 #@! TO.N,/INT0*
G04 #@! TA.AperFunction,SMDPad,CuDef*
G36*
G01*
X43973825Y-839689D02*
X43885437Y-751301D01*
G75*
G02*
X43885437Y-662913I44194J44194D01*
G01*
X44415767Y-132583D01*
G75*
G02*
X44504155Y-132583I44194J-44194D01*
G01*
X44592543Y-220971D01*
G75*
G02*
X44592543Y-309359I-44194J-44194D01*
G01*
X44062213Y-839689D01*
G75*
G02*
X43973825Y-839689I-44194J44194D01*
G01*
G37*
G04 #@! TD.AperFunction*
G04 #@! TO.P,U5,9,PA4*
G04 #@! TO.N,/SPI1_NSS*
G04 #@! TA.AperFunction,SMDPad,CuDef*
G36*
G01*
X44415767Y132583D02*
X43885437Y662913D01*
G75*
G02*
X43885437Y751301I44194J44194D01*
G01*
X43973825Y839689D01*
G75*
G02*
X44062213Y839689I44194J-44194D01*
G01*
X44592543Y309359D01*
G75*
G02*
X44592543Y220971I-44194J-44194D01*
G01*
X44504155Y132583D01*
G75*
G02*
X44415767Y132583I-44194J44194D01*
G01*
G37*
G04 #@! TD.AperFunction*
G04 #@! TO.P,U5,10,PA5*
G04 #@! TO.N,/SPI1_SCK*
G04 #@! TA.AperFunction,SMDPad,CuDef*
G36*
G01*
X44769321Y486136D02*
X44238991Y1016466D01*
G75*
G02*
X44238991Y1104854I44194J44194D01*
G01*
X44327379Y1193242D01*
G75*
G02*
X44415767Y1193242I44194J-44194D01*
G01*
X44946097Y662912D01*
G75*
G02*
X44946097Y574524I-44194J-44194D01*
G01*
X44857709Y486136D01*
G75*
G02*
X44769321Y486136I-44194J44194D01*
G01*
G37*
G04 #@! TD.AperFunction*
G04 #@! TO.P,U5,11,PA6*
G04 #@! TO.N,/SPI1_MISO*
G04 #@! TA.AperFunction,SMDPad,CuDef*
G36*
G01*
X45122874Y839690D02*
X44592544Y1370020D01*
G75*
G02*
X44592544Y1458408I44194J44194D01*
G01*
X44680932Y1546796D01*
G75*
G02*
X44769320Y1546796I44194J-44194D01*
G01*
X45299650Y1016466D01*
G75*
G02*
X45299650Y928078I-44194J-44194D01*
G01*
X45211262Y839690D01*
G75*
G02*
X45122874Y839690I-44194J44194D01*
G01*
G37*
G04 #@! TD.AperFunction*
G04 #@! TO.P,U5,12,PA7*
G04 #@! TO.N,/SPI1_MOSI*
G04 #@! TA.AperFunction,SMDPad,CuDef*
G36*
G01*
X45476428Y1193243D02*
X44946098Y1723573D01*
G75*
G02*
X44946098Y1811961I44194J44194D01*
G01*
X45034486Y1900349D01*
G75*
G02*
X45122874Y1900349I44194J-44194D01*
G01*
X45653204Y1370019D01*
G75*
G02*
X45653204Y1281631I-44194J-44194D01*
G01*
X45564816Y1193243D01*
G75*
G02*
X45476428Y1193243I-44194J44194D01*
G01*
G37*
G04 #@! TD.AperFunction*
G04 #@! TO.P,U5,13,PB0*
G04 #@! TO.N,/HEAT_ON*
G04 #@! TA.AperFunction,SMDPad,CuDef*
G36*
G01*
X45829981Y1546796D02*
X45299651Y2077126D01*
G75*
G02*
X45299651Y2165514I44194J44194D01*
G01*
X45388039Y2253902D01*
G75*
G02*
X45476427Y2253902I44194J-44194D01*
G01*
X46006757Y1723572D01*
G75*
G02*
X46006757Y1635184I-44194J-44194D01*
G01*
X45918369Y1546796D01*
G75*
G02*
X45829981Y1546796I-44194J44194D01*
G01*
G37*
G04 #@! TD.AperFunction*
G04 #@! TO.P,U5,14,VSSA*
G04 #@! TO.N,GND*
G04 #@! TA.AperFunction,SMDPad,CuDef*
G36*
G01*
X46183534Y1900350D02*
X45653204Y2430680D01*
G75*
G02*
X45653204Y2519068I44194J44194D01*
G01*
X45741592Y2607456D01*
G75*
G02*
X45829980Y2607456I44194J-44194D01*
G01*
X46360310Y2077126D01*
G75*
G02*
X46360310Y1988738I-44194J-44194D01*
G01*
X46271922Y1900350D01*
G75*
G02*
X46183534Y1900350I-44194J44194D01*
G01*
G37*
G04 #@! TD.AperFunction*
G04 #@! TO.P,U5,15,VDDA*
G04 #@! TO.N,+3V3*
G04 #@! TA.AperFunction,SMDPad,CuDef*
G36*
G01*
X46537088Y2253903D02*
X46006758Y2784233D01*
G75*
G02*
X46006758Y2872621I44194J44194D01*
G01*
X46095146Y2961009D01*
G75*
G02*
X46183534Y2961009I44194J-44194D01*
G01*
X46713864Y2430679D01*
G75*
G02*
X46713864Y2342291I-44194J-44194D01*
G01*
X46625476Y2253903D01*
G75*
G02*
X46537088Y2253903I-44194J44194D01*
G01*
G37*
G04 #@! TD.AperFunction*
G04 #@! TO.P,U5,16,VSS*
G04 #@! TO.N,GND*
G04 #@! TA.AperFunction,SMDPad,CuDef*
G36*
G01*
X46890641Y2607457D02*
X46360311Y3137787D01*
G75*
G02*
X46360311Y3226175I44194J44194D01*
G01*
X46448699Y3314563D01*
G75*
G02*
X46537087Y3314563I44194J-44194D01*
G01*
X47067417Y2784233D01*
G75*
G02*
X47067417Y2695845I-44194J-44194D01*
G01*
X46979029Y2607457D01*
G75*
G02*
X46890641Y2607457I-44194J44194D01*
G01*
G37*
G04 #@! TD.AperFunction*
G04 #@! TO.P,U5,17,VDD*
G04 #@! TO.N,+3V3*
G04 #@! TA.AperFunction,SMDPad,CuDef*
G36*
G01*
X47420971Y2607457D02*
X47332583Y2695845D01*
G75*
G02*
X47332583Y2784233I44194J44194D01*
G01*
X47862913Y3314563D01*
G75*
G02*
X47951301Y3314563I44194J-44194D01*
G01*
X48039689Y3226175D01*
G75*
G02*
X48039689Y3137787I-44194J-44194D01*
G01*
X47509359Y2607457D01*
G75*
G02*
X47420971Y2607457I-44194J44194D01*
G01*
G37*
G04 #@! TD.AperFunction*
G04 #@! TO.P,U5,18,PA8*
G04 #@! TO.N,/BTN2*
G04 #@! TA.AperFunction,SMDPad,CuDef*
G36*
G01*
X47774524Y2253903D02*
X47686136Y2342291D01*
G75*
G02*
X47686136Y2430679I44194J44194D01*
G01*
X48216466Y2961009D01*
G75*
G02*
X48304854Y2961009I44194J-44194D01*
G01*
X48393242Y2872621D01*
G75*
G02*
X48393242Y2784233I-44194J-44194D01*
G01*
X47862912Y2253903D01*
G75*
G02*
X47774524Y2253903I-44194J44194D01*
G01*
G37*
G04 #@! TD.AperFunction*
G04 #@! TO.P,U5,19,PA9*
G04 #@! TO.N,GND*
G04 #@! TA.AperFunction,SMDPad,CuDef*
G36*
G01*
X48128078Y1900350D02*
X48039690Y1988738D01*
G75*
G02*
X48039690Y2077126I44194J44194D01*
G01*
X48570020Y2607456D01*
G75*
G02*
X48658408Y2607456I44194J-44194D01*
G01*
X48746796Y2519068D01*
G75*
G02*
X48746796Y2430680I-44194J-44194D01*
G01*
X48216466Y1900350D01*
G75*
G02*
X48128078Y1900350I-44194J44194D01*
G01*
G37*
G04 #@! TD.AperFunction*
G04 #@! TO.P,U5,20,PA10*
G04 #@! TA.AperFunction,SMDPad,CuDef*
G36*
G01*
X48481631Y1546796D02*
X48393243Y1635184D01*
G75*
G02*
X48393243Y1723572I44194J44194D01*
G01*
X48923573Y2253902D01*
G75*
G02*
X49011961Y2253902I44194J-44194D01*
G01*
X49100349Y2165514D01*
G75*
G02*
X49100349Y2077126I-44194J-44194D01*
G01*
X48570019Y1546796D01*
G75*
G02*
X48481631Y1546796I-44194J44194D01*
G01*
G37*
G04 #@! TD.AperFunction*
G04 #@! TO.P,U5,21,PA11*
G04 #@! TO.N,/USB_DM*
G04 #@! TA.AperFunction,SMDPad,CuDef*
G36*
G01*
X48835184Y1193243D02*
X48746796Y1281631D01*
G75*
G02*
X48746796Y1370019I44194J44194D01*
G01*
X49277126Y1900349D01*
G75*
G02*
X49365514Y1900349I44194J-44194D01*
G01*
X49453902Y1811961D01*
G75*
G02*
X49453902Y1723573I-44194J-44194D01*
G01*
X48923572Y1193243D01*
G75*
G02*
X48835184Y1193243I-44194J44194D01*
G01*
G37*
G04 #@! TD.AperFunction*
G04 #@! TO.P,U5,22,PA12*
G04 #@! TO.N,/USB_DP*
G04 #@! TA.AperFunction,SMDPad,CuDef*
G36*
G01*
X49188738Y839690D02*
X49100350Y928078D01*
G75*
G02*
X49100350Y1016466I44194J44194D01*
G01*
X49630680Y1546796D01*
G75*
G02*
X49719068Y1546796I44194J-44194D01*
G01*
X49807456Y1458408D01*
G75*
G02*
X49807456Y1370020I-44194J-44194D01*
G01*
X49277126Y839690D01*
G75*
G02*
X49188738Y839690I-44194J44194D01*
G01*
G37*
G04 #@! TD.AperFunction*
G04 #@! TO.P,U5,23,PA13*
G04 #@! TO.N,/SWDIO*
G04 #@! TA.AperFunction,SMDPad,CuDef*
G36*
G01*
X49542291Y486136D02*
X49453903Y574524D01*
G75*
G02*
X49453903Y662912I44194J44194D01*
G01*
X49984233Y1193242D01*
G75*
G02*
X50072621Y1193242I44194J-44194D01*
G01*
X50161009Y1104854D01*
G75*
G02*
X50161009Y1016466I-44194J-44194D01*
G01*
X49630679Y486136D01*
G75*
G02*
X49542291Y486136I-44194J44194D01*
G01*
G37*
G04 #@! TD.AperFunction*
G04 #@! TO.P,U5,24,PA14*
G04 #@! TO.N,/SWCLK*
G04 #@! TA.AperFunction,SMDPad,CuDef*
G36*
G01*
X49895845Y132583D02*
X49807457Y220971D01*
G75*
G02*
X49807457Y309359I44194J44194D01*
G01*
X50337787Y839689D01*
G75*
G02*
X50426175Y839689I44194J-44194D01*
G01*
X50514563Y751301D01*
G75*
G02*
X50514563Y662913I-44194J-44194D01*
G01*
X49984233Y132583D01*
G75*
G02*
X49895845Y132583I-44194J44194D01*
G01*
G37*
G04 #@! TD.AperFunction*
G04 #@! TO.P,U5,25,PA15*
G04 #@! TO.N,/I2C1_SCL*
G04 #@! TA.AperFunction,SMDPad,CuDef*
G36*
G01*
X50337787Y-839689D02*
X49807457Y-309359D01*
G75*
G02*
X49807457Y-220971I44194J44194D01*
G01*
X49895845Y-132583D01*
G75*
G02*
X49984233Y-132583I44194J-44194D01*
G01*
X50514563Y-662913D01*
G75*
G02*
X50514563Y-751301I-44194J-44194D01*
G01*
X50426175Y-839689D01*
G75*
G02*
X50337787Y-839689I-44194J44194D01*
G01*
G37*
G04 #@! TD.AperFunction*
G04 #@! TO.P,U5,26,PB3*
G04 #@! TO.N,/SWO*
G04 #@! TA.AperFunction,SMDPad,CuDef*
G36*
G01*
X49984233Y-1193242D02*
X49453903Y-662912D01*
G75*
G02*
X49453903Y-574524I44194J44194D01*
G01*
X49542291Y-486136D01*
G75*
G02*
X49630679Y-486136I44194J-44194D01*
G01*
X50161009Y-1016466D01*
G75*
G02*
X50161009Y-1104854I-44194J-44194D01*
G01*
X50072621Y-1193242D01*
G75*
G02*
X49984233Y-1193242I-44194J44194D01*
G01*
G37*
G04 #@! TD.AperFunction*
G04 #@! TO.P,U5,27,PB4*
G04 #@! TO.N,/CC2*
G04 #@! TA.AperFunction,SMDPad,CuDef*
G36*
G01*
X49630680Y-1546796D02*
X49100350Y-1016466D01*
G75*
G02*
X49100350Y-928078I44194J44194D01*
G01*
X49188738Y-839690D01*
G75*
G02*
X49277126Y-839690I44194J-44194D01*
G01*
X49807456Y-1370020D01*
G75*
G02*
X49807456Y-1458408I-44194J-44194D01*
G01*
X49719068Y-1546796D01*
G75*
G02*
X49630680Y-1546796I-44194J44194D01*
G01*
G37*
G04 #@! TD.AperFunction*
G04 #@! TO.P,U5,28,PB5*
G04 #@! TO.N,/DISP_RST#*
G04 #@! TA.AperFunction,SMDPad,CuDef*
G36*
G01*
X49277126Y-1900349D02*
X48746796Y-1370019D01*
G75*
G02*
X48746796Y-1281631I44194J44194D01*
G01*
X48835184Y-1193243D01*
G75*
G02*
X48923572Y-1193243I44194J-44194D01*
G01*
X49453902Y-1723573D01*
G75*
G02*
X49453902Y-1811961I-44194J-44194D01*
G01*
X49365514Y-1900349D01*
G75*
G02*
X49277126Y-1900349I-44194J44194D01*
G01*
G37*
G04 #@! TD.AperFunction*
G04 #@! TO.P,U5,29,PB6*
G04 #@! TO.N,/CC1*
G04 #@! TA.AperFunction,SMDPad,CuDef*
G36*
G01*
X48923573Y-2253902D02*
X48393243Y-1723572D01*
G75*
G02*
X48393243Y-1635184I44194J44194D01*
G01*
X48481631Y-1546796D01*
G75*
G02*
X48570019Y-1546796I44194J-44194D01*
G01*
X49100349Y-2077126D01*
G75*
G02*
X49100349Y-2165514I-44194J-44194D01*
G01*
X49011961Y-2253902D01*
G75*
G02*
X48923573Y-2253902I-44194J44194D01*
G01*
G37*
G04 #@! TD.AperFunction*
G04 #@! TO.P,U5,30,PB7*
G04 #@! TO.N,/I2C1_SDA*
G04 #@! TA.AperFunction,SMDPad,CuDef*
G36*
G01*
X48570020Y-2607456D02*
X48039690Y-2077126D01*
G75*
G02*
X48039690Y-1988738I44194J44194D01*
G01*
X48128078Y-1900350D01*
G75*
G02*
X48216466Y-1900350I44194J-44194D01*
G01*
X48746796Y-2430680D01*
G75*
G02*
X48746796Y-2519068I-44194J-44194D01*
G01*
X48658408Y-2607456D01*
G75*
G02*
X48570020Y-2607456I-44194J44194D01*
G01*
G37*
G04 #@! TD.AperFunction*
G04 #@! TO.P,U5,31,PB8-BOOT0*
G04 #@! TO.N,/BTN1*
G04 #@! TA.AperFunction,SMDPad,CuDef*
G36*
G01*
X48216466Y-2961009D02*
X47686136Y-2430679D01*
G75*
G02*
X47686136Y-2342291I44194J44194D01*
G01*
X47774524Y-2253903D01*
G75*
G02*
X47862912Y-2253903I44194J-44194D01*
G01*
X48393242Y-2784233D01*
G75*
G02*
X48393242Y-2872621I-44194J-44194D01*
G01*
X48304854Y-2961009D01*
G75*
G02*
X48216466Y-2961009I-44194J44194D01*
G01*
G37*
G04 #@! TD.AperFunction*
G04 #@! TO.P,U5,32,VSS*
G04 #@! TO.N,GND*
G04 #@! TA.AperFunction,SMDPad,CuDef*
G36*
G01*
X47862913Y-3314563D02*
X47332583Y-2784233D01*
G75*
G02*
X47332583Y-2695845I44194J44194D01*
G01*
X47420971Y-2607457D01*
G75*
G02*
X47509359Y-2607457I44194J-44194D01*
G01*
X48039689Y-3137787D01*
G75*
G02*
X48039689Y-3226175I-44194J-44194D01*
G01*
X47951301Y-3314563D01*
G75*
G02*
X47862913Y-3314563I-44194J44194D01*
G01*
G37*
G04 #@! TD.AperFunction*
G04 #@! TA.AperFunction,SMDPad,CuDef*
G04 #@! TO.P,U5,33,VSS-PAD*
G36*
X47200000Y-2439518D02*
G01*
X44760482Y0D01*
X47200000Y2439518D01*
X49639518Y0D01*
X47200000Y-2439518D01*
G37*
G04 #@! TD.AperFunction*
G04 #@! TD*
G04 #@! TO.P,C33,1*
G04 #@! TO.N,IN*
G04 #@! TA.AperFunction,SMDPad,CuDef*
G36*
G01*
X65445177Y2871374D02*
X65920177Y2871374D01*
G75*
G02*
X66157677Y2633874I0J-237500D01*
G01*
X66157677Y2058874D01*
G75*
G02*
X65920177Y1821374I-237500J0D01*
G01*
X65445177Y1821374D01*
G75*
G02*
X65207677Y2058874I0J237500D01*
G01*
X65207677Y2633874D01*
G75*
G02*
X65445177Y2871374I237500J0D01*
G01*
G37*
G04 #@! TD.AperFunction*
G04 #@! TO.P,C33,2*
G04 #@! TO.N,GND*
G04 #@! TA.AperFunction,SMDPad,CuDef*
G36*
G01*
X65445177Y1121374D02*
X65920177Y1121374D01*
G75*
G02*
X66157677Y883874I0J-237500D01*
G01*
X66157677Y308874D01*
G75*
G02*
X65920177Y71374I-237500J0D01*
G01*
X65445177Y71374D01*
G75*
G02*
X65207677Y308874I0J237500D01*
G01*
X65207677Y883874D01*
G75*
G02*
X65445177Y1121374I237500J0D01*
G01*
G37*
G04 #@! TD.AperFunction*
G04 #@! TD*
G04 #@! TO.P,R7,1*
G04 #@! TO.N,+3V3*
G04 #@! TA.AperFunction,SMDPad,CuDef*
G36*
G01*
X60280000Y2693649D02*
X60280000Y2323649D01*
G75*
G02*
X60145000Y2188649I-135000J0D01*
G01*
X59875000Y2188649D01*
G75*
G02*
X59740000Y2323649I0J135000D01*
G01*
X59740000Y2693649D01*
G75*
G02*
X59875000Y2828649I135000J0D01*
G01*
X60145000Y2828649D01*
G75*
G02*
X60280000Y2693649I0J-135000D01*
G01*
G37*
G04 #@! TD.AperFunction*
G04 #@! TO.P,R7,2*
G04 #@! TO.N,/I2C1_SDA*
G04 #@! TA.AperFunction,SMDPad,CuDef*
G36*
G01*
X59260000Y2693649D02*
X59260000Y2323649D01*
G75*
G02*
X59125000Y2188649I-135000J0D01*
G01*
X58855000Y2188649D01*
G75*
G02*
X58720000Y2323649I0J135000D01*
G01*
X58720000Y2693649D01*
G75*
G02*
X58855000Y2828649I135000J0D01*
G01*
X59125000Y2828649D01*
G75*
G02*
X59260000Y2693649I0J-135000D01*
G01*
G37*
G04 #@! TD.AperFunction*
G04 #@! TD*
G04 #@! TO.P,D2,1,A1*
G04 #@! TO.N,GND*
G04 #@! TA.AperFunction,SMDPad,CuDef*
G36*
G01*
X25600000Y2562500D02*
X25600000Y2037500D01*
G75*
G02*
X25462500Y1900000I-137500J0D01*
G01*
X25187500Y1900000D01*
G75*
G02*
X25050000Y2037500I0J137500D01*
G01*
X25050000Y2562500D01*
G75*
G02*
X25187500Y2700000I137500J0D01*
G01*
X25462500Y2700000D01*
G75*
G02*
X25600000Y2562500I0J-137500D01*
G01*
G37*
G04 #@! TD.AperFunction*
G04 #@! TO.P,D2,2,A2*
G04 #@! TO.N,IN*
G04 #@! TA.AperFunction,SMDPad,CuDef*
G36*
G01*
X24187500Y2562500D02*
X24187500Y2037500D01*
G75*
G02*
X24050000Y1900000I-137500J0D01*
G01*
X23775000Y1900000D01*
G75*
G02*
X23637500Y2037500I0J137500D01*
G01*
X23637500Y2562500D01*
G75*
G02*
X23775000Y2700000I137500J0D01*
G01*
X24050000Y2700000D01*
G75*
G02*
X24187500Y2562500I0J-137500D01*
G01*
G37*
G04 #@! TD.AperFunction*
G04 #@! TD*
G04 #@! TO.P,C4,1*
G04 #@! TO.N,GND*
G04 #@! TA.AperFunction,SMDPad,CuDef*
G36*
G01*
X36570000Y-3560000D02*
X36230000Y-3560000D01*
G75*
G02*
X36090000Y-3420000I0J140000D01*
G01*
X36090000Y-3140000D01*
G75*
G02*
X36230000Y-3000000I140000J0D01*
G01*
X36570000Y-3000000D01*
G75*
G02*
X36710000Y-3140000I0J-140000D01*
G01*
X36710000Y-3420000D01*
G75*
G02*
X36570000Y-3560000I-140000J0D01*
G01*
G37*
G04 #@! TD.AperFunction*
G04 #@! TO.P,C4,2*
G04 #@! TO.N,/PVD_IN*
G04 #@! TA.AperFunction,SMDPad,CuDef*
G36*
G01*
X36570000Y-2600000D02*
X36230000Y-2600000D01*
G75*
G02*
X36090000Y-2460000I0J140000D01*
G01*
X36090000Y-2180000D01*
G75*
G02*
X36230000Y-2040000I140000J0D01*
G01*
X36570000Y-2040000D01*
G75*
G02*
X36710000Y-2180000I0J-140000D01*
G01*
X36710000Y-2460000D01*
G75*
G02*
X36570000Y-2600000I-140000J0D01*
G01*
G37*
G04 #@! TD.AperFunction*
G04 #@! TD*
G04 #@! TO.P,TP6,1,1*
G04 #@! TO.N,GND*
X57300000Y0D03*
G04 #@! TD*
D17*
G04 #@! TO.N,IN*
X67400000Y2400000D03*
D18*
X23400000Y300000D03*
X23400000Y-700000D03*
X24100000Y800000D03*
D17*
X67400000Y-2400000D03*
D18*
X24100000Y-200000D03*
D17*
X23650000Y-4500000D03*
D18*
X24100000Y-1200000D03*
D19*
G04 #@! TO.N,+3V3*
X59000000Y100000D03*
D18*
X46887587Y-3300000D03*
D19*
X61500000Y4700000D03*
X41100000Y4300000D03*
D18*
X61600000Y0D03*
D19*
X46300000Y4300000D03*
X59000000Y-1500000D03*
X34100000Y4300000D03*
X48700000Y4300000D03*
D18*
G04 #@! TO.N,/BTN1*
X48600000Y-3300000D03*
X63300000Y-3300000D03*
G04 #@! TO.N,/BTN2*
X49497304Y3493203D03*
X64100000Y4100000D03*
G04 #@! TO.N,/HEATER*
X18600000Y-700000D03*
X19300000Y-700000D03*
X19700000Y-1200000D03*
X20800000Y-100000D03*
X18600000Y-100000D03*
X18950000Y-1200000D03*
X20450000Y-1200000D03*
X18600000Y500000D03*
X20100000Y-700000D03*
X20800000Y500000D03*
X20800000Y-700000D03*
G04 #@! TO.N,/OSC_IN*
X45864597Y-3267684D03*
G04 #@! TO.N,/OSC_OUT*
X45104708Y-2978643D03*
G04 #@! TO.N,/TEMP_SENS*
X32000000Y-3400000D03*
X37000000Y-1600000D03*
G04 #@! TO.N,/USB_DP*
X63150000Y1750000D03*
X51100000Y2800000D03*
G04 #@! TO.N,/CC2*
X51700000Y-1900000D03*
X62200000Y-1900000D03*
X69700000Y1700000D03*
G04 #@! TO.N,/USB_DM*
X60100000Y3400000D03*
X50200000Y2850897D03*
G04 #@! TO.N,/CC1*
X69700000Y-1300000D03*
X51400000Y-2900000D03*
X62799999Y-2600001D03*
G04 #@! TO.N,/TIP_TC*
X7100000Y4100000D03*
X31200000Y4100000D03*
G04 #@! TO.N,GND*
X35750000Y-3300000D03*
X45200000Y3300000D03*
X39800000Y-2600000D03*
X20350000Y3350000D03*
X25300000Y-525000D03*
X34800000Y3300000D03*
X1300000Y-4850000D03*
X26600000Y-3200000D03*
X4700000Y-3650000D03*
X47600000Y-3300000D03*
X65700000Y4100000D03*
X64100000Y-3200000D03*
X37000000Y750000D03*
X32700000Y4300000D03*
X19700000Y3350000D03*
X39300000Y-3300000D03*
X47200000Y-1700000D03*
X21000000Y3350000D03*
X52700000Y-600000D03*
X25300000Y-1150000D03*
X60000000Y-1500000D03*
X26000000Y3300000D03*
X19050000Y3350000D03*
X4700000Y-4850000D03*
X10500000Y-3700000D03*
X1300000Y-3650000D03*
X47200000Y2000000D03*
X62450000Y1600000D03*
X32410396Y-101213D03*
X34800000Y400000D03*
X51400000Y2100000D03*
X29750000Y-2400000D03*
X18400000Y3350000D03*
X18000000Y-4900000D03*
X25300000Y750000D03*
X32400000Y1000000D03*
X30200000Y-1300000D03*
X49200000Y0D03*
X47200000Y3500000D03*
X10500000Y-4800000D03*
X58197565Y-364362D03*
X30400000Y3300000D03*
X29100000Y1900000D03*
X64100000Y2700000D03*
X1300000Y-4250000D03*
X4700000Y-4250000D03*
X40400000Y100000D03*
X25300000Y125000D03*
X19200000Y-3700000D03*
X49400000Y2700000D03*
X60800000Y1700000D03*
X18800000Y-4100000D03*
X18400000Y-4500000D03*
X45200000Y0D03*
X39800000Y-500000D03*
X43300000Y-2700000D03*
G04 #@! TO.N,/I2C1_SCL*
X43300000Y2900000D03*
X51700000Y0D03*
X58300000Y1400000D03*
G04 #@! TO.N,/I2C1_SDA*
X58300000Y2200000D03*
X43300000Y100000D03*
X50800000Y0D03*
X49500000Y-2926046D03*
G04 #@! TO.N,/VSENSE*
X38800000Y-1000000D03*
X27900000Y-400000D03*
G04 #@! TO.N,/HEAT_ON*
X44100000Y3500000D03*
X28000000Y2600000D03*
X26500000Y-2200000D03*
G04 #@! TO.N,/INT0*
X42400000Y0D03*
X36400000Y2900000D03*
G04 #@! TO.N,/SPI1_MISO*
X38300000Y2300000D03*
G04 #@! TO.N,/SPI1_NSS*
X39200000Y-26524D03*
G04 #@! TO.N,/SPI1_MOSI*
X39100000Y2100000D03*
G04 #@! TO.N,/SPI1_SCK*
X39000000Y676411D03*
G04 #@! TO.N,/DISP_RST#*
X50900143Y-2113226D03*
G04 #@! TO.N,/NRST*
X52500000Y-1500000D03*
X44200000Y-2940590D03*
G04 #@! TO.N,/HEATER_PG*
X26500000Y2500000D03*
G04 #@! TD*
D20*
G04 #@! TO.N,IN*
X67346374Y2346374D02*
X67400000Y2400000D01*
X65682677Y2346374D02*
X67346374Y2346374D01*
D21*
X23912500Y987500D02*
X24100000Y800000D01*
D22*
X37600000Y-3310000D02*
X37600000Y-4500000D01*
D21*
X63800940Y754003D02*
X64090306Y754003D01*
X23912500Y2300000D02*
X23912500Y987500D01*
D22*
X63800940Y-1145997D02*
X67329003Y-1145997D01*
D20*
X67400000Y-2400000D02*
X67400000Y-1075000D01*
D21*
X64090306Y754003D02*
X65682677Y2346374D01*
D23*
G04 #@! TO.N,+3V3*
X60010000Y2508649D02*
X60010000Y1311928D01*
X60800000Y2700000D02*
X60608649Y2508649D01*
X60010000Y2592939D02*
X60010000Y2508649D01*
X60608649Y2508649D02*
X60010000Y2508649D01*
X60014400Y914400D02*
X60001364Y901364D01*
X60017061Y2600000D02*
X60010000Y2592939D01*
D24*
X57300000Y-2000000D02*
X58500000Y-2000000D01*
D23*
X59008134Y91866D02*
X59000000Y100000D01*
D22*
X61600940Y754003D02*
X61600940Y940D01*
D23*
X60014400Y1307528D02*
X60014400Y914400D01*
X61600940Y754003D02*
X61600940Y1500940D01*
D22*
X45900001Y3067766D02*
X45900001Y3900001D01*
X46360311Y2607456D02*
X45900001Y3067766D01*
D23*
X61525000Y4675000D02*
X61500000Y4700000D01*
X61525000Y2700000D02*
X61525000Y4675000D01*
X61525000Y2700000D02*
X60800000Y2700000D01*
X61525000Y1576880D02*
X61525000Y2700000D01*
D24*
X58500000Y-2000000D02*
X59000000Y-1500000D01*
D23*
X60001364Y91866D02*
X59008134Y91866D01*
X61600940Y1500940D02*
X61525000Y1576880D01*
D22*
X45900001Y3900001D02*
X46300000Y4300000D01*
X61600940Y940D02*
X61600000Y0D01*
X48700000Y3974874D02*
X48700000Y4300000D01*
X47686136Y2961010D02*
X48700000Y3974874D01*
D23*
X60001364Y901364D02*
X60001364Y91866D01*
D22*
G04 #@! TO.N,/PVD_IN*
X36400000Y-2320000D02*
X35130000Y-2320000D01*
X38010000Y-2290000D02*
X37600000Y-2290000D01*
X44833625Y-2012822D02*
X38287178Y-2012822D01*
X36400000Y-2320000D02*
X37570000Y-2320000D01*
X38287178Y-2012822D02*
X38010000Y-2290000D01*
X45299651Y-1546796D02*
X44833625Y-2012822D01*
G04 #@! TO.N,/BTN1*
X48039689Y-2607456D02*
X48600000Y-3167767D01*
X48600000Y-3167767D02*
X48600000Y-3300000D01*
G04 #@! TO.N,/BTN2*
X48925436Y3493203D02*
X49497304Y3493203D01*
X48039689Y2607456D02*
X48925436Y3493203D01*
G04 #@! TO.N,/OSC_IN*
X45864597Y-3103170D02*
X45864597Y-3267684D01*
X46360311Y-2607456D02*
X45864597Y-3103170D01*
G04 #@! TO.N,/OSC_OUT*
X45282017Y-2978643D02*
X45104708Y-2978643D01*
X46006757Y-2253903D02*
X45282017Y-2978643D01*
G04 #@! TO.N,/TEMP_SENS*
X44532929Y-1606411D02*
X37006411Y-1606411D01*
X37006411Y-1606411D02*
X37000000Y-1600000D01*
X44946097Y-1193243D02*
X44532929Y-1606411D01*
G04 #@! TO.N,/USB_DP*
X49453903Y1193243D02*
X51060660Y2800000D01*
X51060660Y2800000D02*
X51100000Y2800000D01*
G04 #@! TO.N,/CC2*
X49814476Y-1553816D02*
X51353816Y-1553816D01*
X49453903Y-1193243D02*
X49814476Y-1553816D01*
X51353816Y-1553816D02*
X51700000Y-1900000D01*
G04 #@! TO.N,/USB_DM*
X50200000Y2646447D02*
X50200000Y2850897D01*
X49100349Y1546796D02*
X50200000Y2646447D01*
G04 #@! TO.N,/CC1*
X50787326Y-2900000D02*
X51400000Y-2900000D01*
X48746796Y-1900349D02*
X49213084Y-2366637D01*
X49213084Y-2366637D02*
X50253963Y-2366637D01*
X50253963Y-2366637D02*
X50787326Y-2900000D01*
D23*
G04 #@! TO.N,/TIP_TC*
X7100000Y4100000D02*
X5350000Y4100000D01*
D22*
X7050000Y4050000D02*
X7100000Y4100000D01*
G04 #@! TO.N,Net-(C3-Pad1)*
X61600940Y-2699060D02*
X61600000Y-2700000D01*
X61600940Y-1145997D02*
X61600940Y-2699060D01*
D25*
G04 #@! TO.N,GND*
X47686136Y-2948266D02*
X47300000Y-2562130D01*
X48393243Y2253903D02*
X47939340Y1800000D01*
X47300000Y-2562130D02*
X47300000Y-100000D01*
X48746796Y1900349D02*
X47200000Y353553D01*
X46713864Y2925654D02*
X47200000Y2439518D01*
D22*
X46006757Y2253903D02*
X47200000Y1060660D01*
D25*
X47200000Y2439518D02*
X47200000Y2000000D01*
X47939340Y1800000D02*
X47939340Y739340D01*
X46713864Y2961010D02*
X46713864Y2925654D01*
D22*
G04 #@! TO.N,/I2C1_SCL*
X51000000Y-700000D02*
X50374874Y-700000D01*
X58994400Y1307528D02*
X58392472Y1307528D01*
X51000000Y-700000D02*
X51700000Y0D01*
X58392472Y1307528D02*
X58300000Y1400000D01*
G04 #@! TO.N,/I2C1_SDA*
X58990000Y2508649D02*
X58608649Y2508649D01*
X49065386Y-2926046D02*
X49500000Y-2926046D01*
X58608649Y2508649D02*
X58300000Y2200000D01*
X48393243Y-2253903D02*
X49065386Y-2926046D01*
G04 #@! TO.N,/VSENSE*
X39000000Y-1200000D02*
X38800000Y-1000000D01*
X44232233Y-1200000D02*
X39000000Y-1200000D01*
X44592544Y-839689D02*
X44232233Y-1200000D01*
G04 #@! TO.N,/HEAT_ON*
X45653204Y1900349D02*
X44100000Y3453553D01*
X44100000Y3453553D02*
X44100000Y3500000D01*
G04 #@! TO.N,/INT0*
X42886136Y-486136D02*
X42400000Y0D01*
X44238990Y-486136D02*
X42886136Y-486136D01*
G04 #@! TO.N,/SPI1_MISO*
X39224248Y1324248D02*
X38879773Y1324248D01*
X39600000Y1700000D02*
X39224248Y1324248D01*
X38879773Y1324248D02*
X38300000Y1904021D01*
X44439340Y1700000D02*
X39600000Y1700000D01*
X44946097Y1193243D02*
X44439340Y1700000D01*
X38300000Y1904021D02*
X38300000Y2300000D01*
G04 #@! TO.N,/SPI1_NSS*
X44025126Y700000D02*
X40000000Y700000D01*
X40000000Y700000D02*
X39273476Y-26524D01*
X39273476Y-26524D02*
X39200000Y-26524D01*
G04 #@! TO.N,/SPI1_MOSI*
X44646447Y2200000D02*
X39200000Y2200000D01*
X39200000Y2200000D02*
X39100000Y2100000D01*
X45299651Y1546796D02*
X44646447Y2200000D01*
G04 #@! TO.N,/SPI1_SCK*
X44592544Y839689D02*
X44232233Y1200000D01*
X39276411Y676411D02*
X39000000Y676411D01*
X39800000Y1200000D02*
X39276411Y676411D01*
X44232233Y1200000D02*
X39800000Y1200000D01*
G04 #@! TO.N,/DISP_RST#*
X49513780Y-1960227D02*
X50747144Y-1960227D01*
X49100349Y-1546796D02*
X49513780Y-1960227D01*
X50747144Y-1960227D02*
X50900143Y-2113226D01*
G04 #@! TO.N,/SWO*
X50115172Y-1147405D02*
X51352595Y-1147405D01*
X49807456Y-839689D02*
X50115172Y-1147405D01*
X52500000Y0D02*
X55300000Y0D01*
X51352595Y-1147405D02*
X52500000Y0D01*
G04 #@! TO.N,/SWCLK*
X56300000Y1000000D02*
X57300000Y2000000D01*
X50674874Y1000000D02*
X56300000Y1000000D01*
X50161010Y486136D02*
X50674874Y1000000D01*
G04 #@! TO.N,/SWDIO*
X54800000Y1500000D02*
X55300000Y2000000D01*
X49807456Y839689D02*
X50467767Y1500000D01*
X50467767Y1500000D02*
X54800000Y1500000D01*
G04 #@! TO.N,/NRST*
X45134320Y-2419233D02*
X44721357Y-2419233D01*
X55251485Y-1963182D02*
X54788303Y-1500000D01*
X45653204Y-1900349D02*
X45134320Y-2419233D01*
X54788303Y-1500000D02*
X52500000Y-1500000D01*
X44721357Y-2419233D02*
X44200000Y-2940590D01*
G04 #@! TD*
G04 #@! TA.AperFunction,Conductor*
G04 #@! TO.N,GND*
G36*
X61191842Y5289925D02*
G01*
X61219367Y5262400D01*
X61229442Y5224800D01*
X61219367Y5187200D01*
X61197750Y5163464D01*
X61177513Y5149109D01*
X61137090Y5120435D01*
X61064135Y5044225D01*
X61062196Y5041222D01*
X61062192Y5041217D01*
X61035611Y5000049D01*
X61006907Y4955595D01*
X61005571Y4952280D01*
X61005570Y4952278D01*
X60988308Y4909443D01*
X60967472Y4857742D01*
X60947251Y4754198D01*
X60946975Y4648697D01*
X60966653Y4545048D01*
X60967974Y4541719D01*
X60967975Y4541717D01*
X60972621Y4530012D01*
X61005576Y4446990D01*
X61007501Y4443975D01*
X61007501Y4443974D01*
X61060414Y4361077D01*
X61060417Y4361073D01*
X61062339Y4358062D01*
X61064798Y4355466D01*
X61064799Y4355465D01*
X61101494Y4316729D01*
X61122101Y4265012D01*
X61122100Y3366224D01*
X61112025Y3328624D01*
X61073758Y3296921D01*
X61073951Y3296520D01*
X61072336Y3295742D01*
X61071734Y3295244D01*
X61066159Y3293293D01*
X60991284Y3246245D01*
X60928755Y3183716D01*
X60900086Y3138090D01*
X60871551Y3111614D01*
X60836413Y3102900D01*
X60799943Y3102900D01*
X60799156Y3102904D01*
X60796162Y3102935D01*
X60759032Y3103324D01*
X60754927Y3102437D01*
X60754922Y3102436D01*
X60738534Y3098893D01*
X60731027Y3097664D01*
X60717085Y3096100D01*
X60710184Y3095326D01*
X60706215Y3093944D01*
X60706207Y3093942D01*
X60695116Y3090079D01*
X60686272Y3087593D01*
X60674804Y3085114D01*
X60674802Y3085113D01*
X60670693Y3084225D01*
X60666885Y3082449D01*
X60666881Y3082448D01*
X60651693Y3075365D01*
X60644643Y3072502D01*
X60630518Y3067583D01*
X60624832Y3065603D01*
X60611302Y3057148D01*
X60603238Y3052770D01*
X60592596Y3047808D01*
X60592589Y3047804D01*
X60588783Y3046029D01*
X60585465Y3043455D01*
X60585463Y3043454D01*
X60572212Y3033175D01*
X60565975Y3028824D01*
X60548187Y3017709D01*
X60534085Y3003704D01*
X60533430Y3003092D01*
X60532879Y3002665D01*
X60510311Y2980097D01*
X60484056Y2954025D01*
X60483799Y2953620D01*
X60483491Y2953277D01*
X60463789Y2933575D01*
X60430078Y2914111D01*
X60410615Y2911549D01*
X60395972Y2911549D01*
X60358372Y2921624D01*
X60330847Y2949149D01*
X60320772Y2986749D01*
X60330847Y3024349D01*
X60354139Y3049239D01*
X60355387Y3050074D01*
X60373713Y3062342D01*
X60376484Y3064197D01*
X60376486Y3064198D01*
X60379870Y3066464D01*
X60444963Y3134343D01*
X60448872Y3140746D01*
X60473370Y3180881D01*
X60493962Y3214616D01*
X60524580Y3303538D01*
X60526485Y3319998D01*
X60535149Y3394887D01*
X60535389Y3396960D01*
X60535400Y3400000D01*
X60525243Y3493496D01*
X60523054Y3500000D01*
X60496545Y3578771D01*
X60496543Y3578776D01*
X60495246Y3582629D01*
X60491152Y3589444D01*
X60460585Y3640314D01*
X60446809Y3663242D01*
X60409318Y3702888D01*
X60384985Y3728620D01*
X60384982Y3728622D01*
X60382191Y3731574D01*
X60364790Y3743400D01*
X60326527Y3769403D01*
X60304408Y3784435D01*
X60217088Y3819361D01*
X60124305Y3834721D01*
X60120238Y3834508D01*
X60120235Y3834508D01*
X60073248Y3832045D01*
X60030388Y3829799D01*
X60026461Y3828717D01*
X60026459Y3828717D01*
X59943647Y3805907D01*
X59939719Y3804825D01*
X59856527Y3760963D01*
X59844215Y3750558D01*
X59787805Y3702888D01*
X59787802Y3702885D01*
X59784696Y3700260D01*
X59727574Y3625549D01*
X59725853Y3621858D01*
X59689548Y3544002D01*
X59689546Y3543996D01*
X59687829Y3540314D01*
X59667313Y3448534D01*
X59666985Y3354488D01*
X59667845Y3350512D01*
X59667845Y3350509D01*
X59677355Y3306525D01*
X59686859Y3262566D01*
X59726009Y3177057D01*
X59728459Y3173806D01*
X59728460Y3173804D01*
X59755794Y3137530D01*
X59782607Y3101948D01*
X59794064Y3092128D01*
X59816054Y3060012D01*
X59819041Y3021200D01*
X59802222Y2986095D01*
X59773902Y2965557D01*
X59728800Y2946875D01*
X59713464Y2935107D01*
X59690508Y2917492D01*
X59668242Y2900407D01*
X59621774Y2839849D01*
X59615928Y2825735D01*
X59596157Y2778004D01*
X59592563Y2769328D01*
X59585100Y2712639D01*
X59585100Y2304659D01*
X59587452Y2286793D01*
X59591920Y2252857D01*
X59592563Y2247970D01*
X59594448Y2243419D01*
X59601376Y2226693D01*
X59607100Y2197916D01*
X59607101Y1607641D01*
X59601376Y1578862D01*
X59598850Y1572765D01*
X59598849Y1572761D01*
X59596963Y1568207D01*
X59589500Y1511518D01*
X59589500Y1103538D01*
X59596963Y1046849D01*
X59598849Y1042296D01*
X59598850Y1042292D01*
X59602134Y1034363D01*
X59607264Y996166D01*
X59604702Y975880D01*
X59603370Y968394D01*
X59598652Y947959D01*
X59598637Y943765D01*
X59598637Y943762D01*
X59598582Y928118D01*
X59598551Y927188D01*
X59598464Y926497D01*
X59598464Y894201D01*
X59598336Y857581D01*
X59598440Y857117D01*
X59598464Y856665D01*
X59598465Y676681D01*
X59598465Y569966D01*
X59588390Y532366D01*
X59560865Y504841D01*
X59523265Y494766D01*
X59416741Y494766D01*
X59367455Y513169D01*
X59364232Y515966D01*
X59322522Y552160D01*
X59231202Y604990D01*
X59227829Y606161D01*
X59227823Y606164D01*
X59135145Y638346D01*
X59131540Y639598D01*
X59128004Y640111D01*
X59128003Y640111D01*
X59059628Y650025D01*
X59027131Y654737D01*
X59023564Y654572D01*
X59023562Y654572D01*
X58925319Y650025D01*
X58925314Y650024D01*
X58921743Y649859D01*
X58819179Y625141D01*
X58815919Y623659D01*
X58815917Y623658D01*
X58770919Y603198D01*
X58723140Y581474D01*
X58720222Y579404D01*
X58720220Y579403D01*
X58658005Y535271D01*
X58637090Y520435D01*
X58634619Y517854D01*
X58634617Y517852D01*
X58626572Y509448D01*
X58564135Y444225D01*
X58562196Y441222D01*
X58562192Y441217D01*
X58525555Y384475D01*
X58506907Y355595D01*
X58505571Y352280D01*
X58505570Y352278D01*
X58489897Y313388D01*
X58467472Y257742D01*
X58447251Y154198D01*
X58447150Y115408D01*
X58446987Y53174D01*
X58446975Y48697D01*
X58459175Y-15565D01*
X58463632Y-39037D01*
X58466653Y-54952D01*
X58467974Y-58281D01*
X58467975Y-58283D01*
X58470509Y-64666D01*
X58505576Y-153010D01*
X58507501Y-156025D01*
X58507501Y-156026D01*
X58560414Y-238923D01*
X58560417Y-238927D01*
X58562339Y-241938D01*
X58564798Y-244534D01*
X58564799Y-244535D01*
X58606642Y-288705D01*
X58634894Y-318529D01*
X58720623Y-380018D01*
X58816432Y-424187D01*
X58858825Y-434639D01*
X58915392Y-448586D01*
X58915395Y-448586D01*
X58918865Y-449442D01*
X58987565Y-452982D01*
X59020652Y-454687D01*
X59020654Y-454687D01*
X59024226Y-454871D01*
X59128713Y-440280D01*
X59228555Y-406193D01*
X59277327Y-378318D01*
X59317041Y-355620D01*
X59317045Y-355617D01*
X59320151Y-353842D01*
X59348874Y-329179D01*
X59397861Y-311034D01*
X59680607Y-311034D01*
X59709385Y-316758D01*
X59713972Y-318658D01*
X59744854Y-342355D01*
X59759751Y-378318D01*
X59754670Y-416912D01*
X59730973Y-447794D01*
X59713971Y-457610D01*
X59687217Y-468692D01*
X59678756Y-473577D01*
X59624977Y-514842D01*
X59618072Y-521747D01*
X59576807Y-575526D01*
X59571922Y-583986D01*
X59563224Y-604986D01*
X59562169Y-613002D01*
X59562526Y-613276D01*
X59566841Y-614134D01*
X59747365Y-614134D01*
X60433391Y-614135D01*
X60441201Y-612043D01*
X60441317Y-611608D01*
X60440459Y-607292D01*
X60430805Y-583986D01*
X60425921Y-575526D01*
X60384656Y-521747D01*
X60377751Y-514842D01*
X60323972Y-473577D01*
X60315511Y-468692D01*
X60288757Y-457610D01*
X60257874Y-433913D01*
X60242977Y-397950D01*
X60248058Y-359357D01*
X60271755Y-328474D01*
X60288757Y-318658D01*
X60315511Y-307576D01*
X60315512Y-307576D01*
X60320064Y-305690D01*
X60381658Y-258428D01*
X60428920Y-196834D01*
X60440600Y-168636D01*
X60456746Y-129656D01*
X60456746Y-129654D01*
X60458630Y-125107D01*
X60459712Y-116893D01*
X60465944Y-69556D01*
X60465944Y-69551D01*
X60466264Y-67123D01*
X60466264Y250855D01*
X60465944Y253288D01*
X60459273Y303958D01*
X60459272Y303961D01*
X60458630Y308839D01*
X60456273Y314531D01*
X60430805Y376015D01*
X60428920Y380566D01*
X60419803Y392448D01*
X60404264Y438226D01*
X60404264Y794866D01*
X60406372Y812548D01*
X60406994Y815121D01*
X60408433Y819073D01*
X60411062Y839882D01*
X60412396Y847372D01*
X60416168Y863710D01*
X60416168Y863713D01*
X60417113Y867805D01*
X60417129Y872300D01*
X60417183Y887662D01*
X60417213Y888578D01*
X60417300Y889266D01*
X60417300Y921288D01*
X60417429Y958183D01*
X60417325Y958649D01*
X60417300Y959107D01*
X60417300Y996795D01*
X60423024Y1025573D01*
X60429951Y1042295D01*
X60429952Y1042297D01*
X60431837Y1046849D01*
X60439300Y1103538D01*
X60439300Y1511518D01*
X60431837Y1568207D01*
X60428594Y1576038D01*
X60418624Y1600106D01*
X60412900Y1628884D01*
X60412900Y2030549D01*
X60422975Y2068149D01*
X60450500Y2095674D01*
X60488100Y2105749D01*
X60608706Y2105749D01*
X60609493Y2105745D01*
X60649616Y2105325D01*
X60653720Y2106212D01*
X60653726Y2106213D01*
X60670101Y2109754D01*
X60677609Y2110984D01*
X60685447Y2111863D01*
X60694286Y2112854D01*
X60694289Y2112855D01*
X60698465Y2113323D01*
X60713539Y2118572D01*
X60722365Y2121053D01*
X60737955Y2124424D01*
X60756955Y2133284D01*
X60764003Y2136146D01*
X60783817Y2143046D01*
X60787377Y2145271D01*
X60787380Y2145272D01*
X60797346Y2151500D01*
X60805412Y2155880D01*
X60816058Y2160844D01*
X60816060Y2160845D01*
X60819866Y2162620D01*
X60823187Y2165196D01*
X60823190Y2165198D01*
X60831833Y2171903D01*
X60836432Y2175471D01*
X60842662Y2179818D01*
X60860462Y2190940D01*
X60861142Y2191615D01*
X60895585Y2206518D01*
X60934253Y2202042D01*
X60959741Y2185298D01*
X60991284Y2153755D01*
X61066159Y2106707D01*
X61070147Y2105312D01*
X61070150Y2105310D01*
X61071739Y2104754D01*
X61072784Y2104042D01*
X61073952Y2103479D01*
X61073867Y2103303D01*
X61103901Y2082825D01*
X61122100Y2033775D01*
X61122100Y1576825D01*
X61122096Y1576038D01*
X61121676Y1535913D01*
X61122563Y1531808D01*
X61122564Y1531803D01*
X61126107Y1515415D01*
X61127336Y1507908D01*
X61129674Y1487065D01*
X61131056Y1483096D01*
X61131058Y1483088D01*
X61134921Y1471997D01*
X61137407Y1463153D01*
X61139127Y1455198D01*
X61140775Y1447574D01*
X61142550Y1443768D01*
X61142552Y1443761D01*
X61149636Y1428569D01*
X61152497Y1421523D01*
X61158012Y1405688D01*
X61158014Y1405683D01*
X61159397Y1401713D01*
X61161626Y1398146D01*
X61167850Y1388185D01*
X61172231Y1380116D01*
X61178971Y1365663D01*
X61181551Y1362337D01*
X61182261Y1361422D01*
X61182454Y1360858D01*
X61183738Y1358755D01*
X61183272Y1358470D01*
X61198041Y1315332D01*
X61198041Y1309103D01*
X61187966Y1271503D01*
X61160441Y1243978D01*
X61122841Y1233903D01*
X61070940Y1233903D01*
X61066715Y1232909D01*
X61066712Y1232909D01*
X61038579Y1226292D01*
X61001895Y1217664D01*
X60956468Y1183358D01*
X60952798Y1177431D01*
X60952379Y1176754D01*
X60926500Y1134959D01*
X60925220Y1128112D01*
X60919387Y1096906D01*
X60916040Y1079003D01*
X60916040Y429003D01*
X60917034Y424778D01*
X60917034Y424775D01*
X60922173Y402925D01*
X60932279Y359958D01*
X60966585Y314531D01*
X61014984Y284563D01*
X61021831Y283283D01*
X61067531Y274740D01*
X61067534Y274740D01*
X61070940Y274103D01*
X61132175Y274103D01*
X61169775Y264028D01*
X61197300Y236503D01*
X61207375Y198903D01*
X61200330Y167123D01*
X61189548Y144002D01*
X61189546Y143996D01*
X61187829Y140314D01*
X61186942Y136346D01*
X61186941Y136343D01*
X61181012Y109819D01*
X61167313Y48534D01*
X61167214Y20026D01*
X61167008Y-39037D01*
X61166985Y-45512D01*
X61167845Y-49488D01*
X61167845Y-49491D01*
X61176357Y-88861D01*
X61186859Y-137434D01*
X61226009Y-222943D01*
X61228459Y-226194D01*
X61228460Y-226196D01*
X61256689Y-263657D01*
X61282607Y-298052D01*
X61285695Y-300698D01*
X61285698Y-300702D01*
X61350916Y-356600D01*
X61350919Y-356602D01*
X61354013Y-359254D01*
X61436896Y-403696D01*
X61467574Y-412377D01*
X61523472Y-428195D01*
X61523476Y-428196D01*
X61527389Y-429303D01*
X61580364Y-432450D01*
X61617207Y-434639D01*
X61617210Y-434639D01*
X61621269Y-434880D01*
X61627375Y-433913D01*
X61654959Y-429544D01*
X61714157Y-420168D01*
X61717946Y-418683D01*
X61717950Y-418682D01*
X61770851Y-397950D01*
X61801719Y-385853D01*
X61805106Y-383585D01*
X61805109Y-383584D01*
X61876484Y-335803D01*
X61876486Y-335802D01*
X61879870Y-333536D01*
X61944963Y-265657D01*
X61951761Y-254521D01*
X61972082Y-221229D01*
X61993962Y-185384D01*
X61997727Y-174451D01*
X62012675Y-131036D01*
X62024580Y-96462D01*
X62025270Y-90503D01*
X62035150Y-5105D01*
X62035389Y-3040D01*
X62035400Y0D01*
X62035062Y3117D01*
X62028872Y60094D01*
X62025243Y93496D01*
X61997841Y174919D01*
X61995396Y213766D01*
X62012704Y248633D01*
X62045127Y270175D01*
X62069113Y274103D01*
X62130940Y274103D01*
X62135165Y275097D01*
X62135168Y275097D01*
X62167191Y282629D01*
X62199985Y290342D01*
X62245412Y324648D01*
X62249701Y331574D01*
X62262520Y352278D01*
X62275380Y373047D01*
X62279007Y392448D01*
X62285203Y425594D01*
X62285203Y425597D01*
X62285840Y429003D01*
X62285840Y1079003D01*
X62281630Y1096906D01*
X62277788Y1113240D01*
X62269601Y1148048D01*
X62235295Y1193475D01*
X62186896Y1223443D01*
X62180049Y1224723D01*
X62134349Y1233266D01*
X62134346Y1233266D01*
X62130940Y1233903D01*
X62079040Y1233903D01*
X62041440Y1243978D01*
X62013915Y1271503D01*
X62003840Y1309103D01*
X62003840Y1500998D01*
X62003844Y1501785D01*
X62004220Y1537706D01*
X62004264Y1541908D01*
X62003377Y1546011D01*
X62003376Y1546020D01*
X61999833Y1562404D01*
X61998606Y1569895D01*
X61996266Y1590756D01*
X61991715Y1603826D01*
X61991020Y1605822D01*
X61988536Y1614660D01*
X61986056Y1626131D01*
X61986052Y1626142D01*
X61985165Y1630246D01*
X61981270Y1638600D01*
X61976306Y1649244D01*
X61973443Y1656294D01*
X61966543Y1676108D01*
X61963943Y1680270D01*
X61958089Y1689637D01*
X61953709Y1697703D01*
X61952638Y1700000D01*
X61946969Y1712157D01*
X61944396Y1715475D01*
X61944391Y1715482D01*
X61943680Y1716398D01*
X61943487Y1716963D01*
X61942201Y1719069D01*
X61942668Y1719354D01*
X61927900Y1762488D01*
X61927900Y2033776D01*
X61937975Y2071376D01*
X61976242Y2103079D01*
X61976049Y2103480D01*
X61977664Y2104258D01*
X61978266Y2104756D01*
X61983841Y2106707D01*
X62058716Y2153755D01*
X62121245Y2216284D01*
X62168293Y2291159D01*
X62197499Y2374626D01*
X62203374Y2426766D01*
X62204565Y2437346D01*
X62595434Y2437346D01*
X62602028Y2378826D01*
X62603897Y2370637D01*
X62630312Y2295147D01*
X62633956Y2287580D01*
X62676507Y2219862D01*
X62681743Y2213296D01*
X62738296Y2156743D01*
X62744858Y2151510D01*
X62788032Y2124381D01*
X62814508Y2095846D01*
X62823169Y2057895D01*
X62807762Y2015033D01*
X62806393Y2013242D01*
X62777574Y1975549D01*
X62774899Y1969813D01*
X62739548Y1894002D01*
X62739546Y1893996D01*
X62737829Y1890314D01*
X62736942Y1886346D01*
X62736941Y1886343D01*
X62732498Y1866464D01*
X62717313Y1798534D01*
X62717233Y1775608D01*
X62717014Y1712664D01*
X62716985Y1704488D01*
X62717845Y1700512D01*
X62717845Y1700509D01*
X62725910Y1663207D01*
X62736859Y1612566D01*
X62776009Y1527057D01*
X62778459Y1523806D01*
X62778460Y1523804D01*
X62817499Y1471997D01*
X62832607Y1451948D01*
X62835695Y1449302D01*
X62835698Y1449298D01*
X62900916Y1393400D01*
X62900919Y1393398D01*
X62904013Y1390746D01*
X62986896Y1346304D01*
X62990816Y1345195D01*
X62990818Y1345194D01*
X63069914Y1322812D01*
X63103351Y1302880D01*
X63122341Y1268900D01*
X63121798Y1229978D01*
X63110276Y1206250D01*
X63108711Y1204096D01*
X63104525Y1199910D01*
X63101839Y1194638D01*
X63101838Y1194637D01*
X63091223Y1173804D01*
X63075308Y1142568D01*
X63074382Y1136721D01*
X63065910Y1083231D01*
X63065240Y1079003D01*
X63065240Y429003D01*
X63065702Y426087D01*
X63065702Y426085D01*
X63069370Y402925D01*
X63075308Y365438D01*
X63077995Y360165D01*
X63077995Y360164D01*
X63101829Y313388D01*
X63104525Y308096D01*
X63123066Y289555D01*
X63142530Y255844D01*
X63142530Y216918D01*
X63133827Y196791D01*
X63130167Y190880D01*
X63125220Y178112D01*
X63116677Y132412D01*
X63116040Y125532D01*
X63116040Y67905D01*
X63118132Y60095D01*
X63125942Y58003D01*
X63546941Y58003D01*
X64475938Y58002D01*
X64483748Y60094D01*
X64485840Y67904D01*
X64485840Y124658D01*
X64484846Y133231D01*
X64471397Y190411D01*
X64464531Y205036D01*
X64457671Y243354D01*
X64479428Y290169D01*
X64497355Y308096D01*
X64500052Y313388D01*
X64509776Y332473D01*
X65052777Y332473D01*
X65052777Y288803D01*
X65053014Y284581D01*
X65059705Y225200D01*
X65061574Y217011D01*
X65087989Y141521D01*
X65091633Y133954D01*
X65134184Y66236D01*
X65139420Y59670D01*
X65195973Y3117D01*
X65202539Y-2119D01*
X65270257Y-44670D01*
X65277824Y-48314D01*
X65353314Y-74729D01*
X65361503Y-76598D01*
X65420023Y-83192D01*
X65426585Y-81434D01*
X65428677Y-73624D01*
X65428677Y332472D01*
X65936676Y332472D01*
X65936676Y-73624D01*
X65938768Y-81434D01*
X65945331Y-83192D01*
X66003851Y-76598D01*
X66012040Y-74729D01*
X66087530Y-48314D01*
X66095097Y-44670D01*
X66162815Y-2119D01*
X66169381Y3117D01*
X66225934Y59670D01*
X66231170Y66236D01*
X66273721Y133954D01*
X66277365Y141521D01*
X66303780Y217011D01*
X66305649Y225200D01*
X66312340Y284581D01*
X66312577Y288803D01*
X66312577Y332472D01*
X66310485Y340282D01*
X66302675Y342374D01*
X65946578Y342374D01*
X65938768Y340282D01*
X65936676Y332472D01*
X65428677Y332472D01*
X65428677Y332473D01*
X65426585Y340283D01*
X65418775Y342375D01*
X65062679Y342375D01*
X65054869Y340283D01*
X65052777Y332473D01*
X64509776Y332473D01*
X64523885Y360164D01*
X64523885Y360165D01*
X64526572Y365438D01*
X64532510Y402925D01*
X64533804Y411099D01*
X66770100Y411099D01*
X66770100Y367429D01*
X66770337Y363207D01*
X66777028Y303826D01*
X66778897Y295637D01*
X66805312Y220147D01*
X66808956Y212580D01*
X66851507Y144862D01*
X66856743Y138296D01*
X66913296Y81743D01*
X66919862Y76507D01*
X66987580Y33956D01*
X66995147Y30312D01*
X67070637Y3897D01*
X67078826Y2028D01*
X67137346Y-4566D01*
X67143908Y-2808D01*
X67146000Y5002D01*
X67146000Y411098D01*
X67653999Y411098D01*
X67653999Y5002D01*
X67656091Y-2808D01*
X67662654Y-4566D01*
X67721174Y2028D01*
X67729363Y3897D01*
X67804853Y30312D01*
X67812420Y33956D01*
X67880138Y76507D01*
X67886704Y81743D01*
X67943257Y138296D01*
X67948493Y144862D01*
X67991044Y212580D01*
X67994688Y220147D01*
X68021103Y295637D01*
X68022972Y303826D01*
X68029663Y363207D01*
X68029900Y367429D01*
X68029900Y411098D01*
X68027808Y418908D01*
X68019998Y421000D01*
X67663901Y421000D01*
X67656091Y418908D01*
X67653999Y411098D01*
X67146000Y411098D01*
X67146000Y411099D01*
X67143908Y418909D01*
X67136098Y421001D01*
X66780002Y421001D01*
X66772192Y418909D01*
X66770100Y411099D01*
X64533804Y411099D01*
X64536178Y426085D01*
X64536178Y426087D01*
X64536640Y429003D01*
X64536640Y456851D01*
X64546715Y494451D01*
X64558663Y510022D01*
X64930277Y881635D01*
X64963986Y901097D01*
X65002912Y901097D01*
X65036624Y881633D01*
X65052309Y854465D01*
X65054102Y852672D01*
X65062679Y850374D01*
X65418776Y850374D01*
X65426586Y852466D01*
X65428678Y860276D01*
X65428678Y1266372D01*
X65936677Y1266372D01*
X65936677Y860275D01*
X65938769Y852465D01*
X65946579Y850373D01*
X66302675Y850373D01*
X66310485Y852465D01*
X66312577Y860275D01*
X66312577Y903945D01*
X66312340Y908167D01*
X66305649Y967548D01*
X66303780Y975737D01*
X66301389Y982571D01*
X66770100Y982571D01*
X66770100Y938902D01*
X66772192Y931092D01*
X66780002Y929000D01*
X67136099Y929000D01*
X67143909Y931092D01*
X67146001Y938902D01*
X67146001Y1344998D01*
X67654000Y1344998D01*
X67654000Y938901D01*
X67656092Y931091D01*
X67663902Y928999D01*
X68019998Y928999D01*
X68027808Y931091D01*
X68029900Y938901D01*
X68029900Y982571D01*
X68029663Y986793D01*
X68022972Y1046174D01*
X68021103Y1054363D01*
X67994688Y1129853D01*
X67991044Y1137420D01*
X67948493Y1205138D01*
X67943257Y1211704D01*
X67886704Y1268257D01*
X67880138Y1273493D01*
X67812420Y1316044D01*
X67804853Y1319688D01*
X67729363Y1346103D01*
X67721174Y1347972D01*
X67662654Y1354566D01*
X67656092Y1352808D01*
X67654000Y1344998D01*
X67146001Y1344998D01*
X67143909Y1352808D01*
X67137346Y1354566D01*
X67078826Y1347972D01*
X67070637Y1346103D01*
X66995147Y1319688D01*
X66987580Y1316044D01*
X66919862Y1273493D01*
X66913296Y1268257D01*
X66856743Y1211704D01*
X66851507Y1205138D01*
X66808956Y1137420D01*
X66805312Y1129853D01*
X66778897Y1054363D01*
X66777028Y1046174D01*
X66770337Y986793D01*
X66770100Y982571D01*
X66301389Y982571D01*
X66277365Y1051227D01*
X66273721Y1058794D01*
X66231170Y1126512D01*
X66225934Y1133078D01*
X66169381Y1189631D01*
X66162815Y1194867D01*
X66095097Y1237418D01*
X66087530Y1241062D01*
X66012040Y1267477D01*
X66003851Y1269346D01*
X65945331Y1275940D01*
X65938769Y1274182D01*
X65936677Y1266372D01*
X65428678Y1266372D01*
X65425728Y1277381D01*
X65408696Y1306880D01*
X65408696Y1345806D01*
X65428160Y1379517D01*
X65642291Y1593648D01*
X65676002Y1613112D01*
X65695465Y1615674D01*
X65935961Y1615674D01*
X65938877Y1616136D01*
X65938879Y1616136D01*
X65998310Y1625549D01*
X66057906Y1634988D01*
X66062408Y1636992D01*
X66067137Y1638393D01*
X66067366Y1637619D01*
X66091155Y1642674D01*
X67319258Y1642674D01*
X67324569Y1642486D01*
X67353052Y1640469D01*
X67353055Y1640469D01*
X67356233Y1640244D01*
X67410224Y1645586D01*
X67411170Y1645672D01*
X67465361Y1650270D01*
X67468448Y1651071D01*
X67469628Y1651273D01*
X67469811Y1651298D01*
X67470559Y1651432D01*
X67470733Y1651470D01*
X67471905Y1651687D01*
X67475068Y1652000D01*
X67478135Y1652842D01*
X67478141Y1652843D01*
X67484133Y1654488D01*
X69266985Y1654488D01*
X69267845Y1650512D01*
X69267845Y1650509D01*
X69277126Y1607582D01*
X69286859Y1562566D01*
X69326009Y1477057D01*
X69328459Y1473806D01*
X69328460Y1473804D01*
X69357909Y1434724D01*
X69382607Y1401948D01*
X69385695Y1399302D01*
X69385698Y1399298D01*
X69450916Y1343400D01*
X69450919Y1343398D01*
X69454013Y1340746D01*
X69536896Y1296304D01*
X69568839Y1287265D01*
X69623472Y1271805D01*
X69623476Y1271804D01*
X69627389Y1270697D01*
X69681307Y1267494D01*
X69717207Y1265361D01*
X69717210Y1265361D01*
X69721269Y1265120D01*
X69814157Y1279832D01*
X69817946Y1281317D01*
X69817950Y1281318D01*
X69868692Y1301204D01*
X69901719Y1314147D01*
X69905106Y1316415D01*
X69905109Y1316416D01*
X69976484Y1364197D01*
X69976486Y1364198D01*
X69979870Y1366464D01*
X70044963Y1434343D01*
X70093962Y1514616D01*
X70124580Y1603538D01*
X70135389Y1696960D01*
X70135400Y1700000D01*
X70134913Y1704488D01*
X70128617Y1762437D01*
X70125243Y1793496D01*
X70123548Y1798534D01*
X70096545Y1878771D01*
X70096543Y1878776D01*
X70095246Y1882629D01*
X70093054Y1886278D01*
X70048904Y1959755D01*
X70046809Y1963242D01*
X70008958Y2003269D01*
X69984985Y2028620D01*
X69984982Y2028622D01*
X69982191Y2031574D01*
X69978519Y2034070D01*
X69925026Y2070423D01*
X69904408Y2084435D01*
X69817088Y2119361D01*
X69724305Y2134721D01*
X69720238Y2134508D01*
X69720235Y2134508D01*
X69673248Y2132045D01*
X69630388Y2129799D01*
X69626461Y2128717D01*
X69626459Y2128717D01*
X69544758Y2106213D01*
X69539719Y2104825D01*
X69456527Y2060963D01*
X69435439Y2043142D01*
X69387805Y2002888D01*
X69387802Y2002885D01*
X69384696Y2000260D01*
X69382225Y1997028D01*
X69382224Y1997027D01*
X69379747Y1993787D01*
X69327574Y1925549D01*
X69325853Y1921858D01*
X69289548Y1844002D01*
X69289546Y1843996D01*
X69287829Y1840314D01*
X69286942Y1836346D01*
X69286941Y1836343D01*
X69279691Y1803908D01*
X69267313Y1748534D01*
X69267237Y1726780D01*
X69267039Y1669859D01*
X69266985Y1654488D01*
X67484133Y1654488D01*
X67527338Y1666348D01*
X67528352Y1666619D01*
X67562672Y1675527D01*
X67580946Y1680270D01*
X67583856Y1681581D01*
X67584995Y1681982D01*
X67585159Y1682033D01*
X67585860Y1682286D01*
X67586054Y1682365D01*
X67587144Y1682766D01*
X67590223Y1683611D01*
X67593111Y1684961D01*
X67593117Y1684963D01*
X67639386Y1706587D01*
X67640338Y1707024D01*
X67686916Y1728006D01*
X67689824Y1729316D01*
X67692470Y1731097D01*
X67693532Y1731688D01*
X67693700Y1731774D01*
X67694316Y1732122D01*
X67694481Y1732225D01*
X67695523Y1732824D01*
X67698406Y1734172D01*
X67703414Y1737646D01*
X67743007Y1765113D01*
X67743874Y1765705D01*
X67786237Y1794225D01*
X67786239Y1794227D01*
X67788882Y1796006D01*
X67791189Y1798207D01*
X67792121Y1798956D01*
X67792551Y1799278D01*
X67792548Y1799282D01*
X67794484Y1800823D01*
X67796523Y1802238D01*
X67806477Y1811296D01*
X67838277Y1843096D01*
X67839544Y1844335D01*
X67872983Y1876234D01*
X67872984Y1876235D01*
X67875287Y1878432D01*
X67877190Y1880990D01*
X67879296Y1883371D01*
X67879314Y1883355D01*
X67883530Y1888257D01*
X67894140Y1898959D01*
X67918425Y1923244D01*
X67919287Y1924266D01*
X67920841Y1925895D01*
X67941772Y1947008D01*
X67943603Y1949618D01*
X67943608Y1949624D01*
X67956150Y1967502D01*
X67960232Y1972803D01*
X67974301Y1989481D01*
X67976356Y1991917D01*
X67986802Y2009685D01*
X67990761Y2016420D01*
X67994027Y2021497D01*
X68008521Y2042158D01*
X68008522Y2042160D01*
X68010351Y2044767D01*
X68011714Y2047644D01*
X68011717Y2047649D01*
X68021072Y2067394D01*
X68024195Y2073294D01*
X68036874Y2094862D01*
X68040423Y2104228D01*
X68046943Y2121438D01*
X68049306Y2126991D01*
X68060115Y2149806D01*
X68060117Y2149811D01*
X68061478Y2152684D01*
X68068235Y2176804D01*
X68070312Y2183123D01*
X68079181Y2206531D01*
X68083977Y2231092D01*
X68084628Y2234423D01*
X68086022Y2240296D01*
X68092833Y2264609D01*
X68093691Y2267671D01*
X68094020Y2270824D01*
X68094021Y2270831D01*
X68096286Y2292567D01*
X68097275Y2299184D01*
X68102069Y2323732D01*
X68102739Y2352142D01*
X68103123Y2358164D01*
X68105276Y2378826D01*
X68106070Y2386443D01*
X68106200Y2400000D01*
X68105458Y2408751D01*
X68104718Y2417465D01*
X68104470Y2425595D01*
X68104808Y2439927D01*
X68104808Y2439928D01*
X68104883Y2443113D01*
X68103858Y2450099D01*
X68102263Y2460963D01*
X68099665Y2478659D01*
X68099139Y2483209D01*
X68098893Y2486118D01*
X68097551Y2501926D01*
X68096374Y2515809D01*
X68096373Y2515813D01*
X68096104Y2518987D01*
X68091700Y2535954D01*
X68090086Y2543922D01*
X68088003Y2558116D01*
X68088002Y2558120D01*
X68087541Y2561261D01*
X68076416Y2595401D01*
X68075127Y2599808D01*
X68066904Y2631490D01*
X68066904Y2631491D01*
X68066104Y2634572D01*
X68058902Y2650560D01*
X68055972Y2658136D01*
X68051528Y2671774D01*
X68051527Y2671776D01*
X68050542Y2674799D01*
X68033816Y2706589D01*
X68031805Y2710713D01*
X68018369Y2740540D01*
X68018368Y2740541D01*
X68017185Y2743170D01*
X69222390Y2743170D01*
X69225043Y2730012D01*
X69240672Y2652505D01*
X69241562Y2648090D01*
X69279460Y2558806D01*
X69334538Y2478967D01*
X69337281Y2476337D01*
X69337284Y2476333D01*
X69398375Y2417750D01*
X69404544Y2411834D01*
X69486620Y2360148D01*
X69490181Y2358809D01*
X69490184Y2358808D01*
X69545261Y2338106D01*
X69577412Y2326021D01*
X69673211Y2310848D01*
X69705701Y2312323D01*
X69766301Y2315075D01*
X69766304Y2315075D01*
X69770105Y2315248D01*
X69832418Y2331016D01*
X69860437Y2338106D01*
X69860439Y2338107D01*
X69864135Y2339042D01*
X69867566Y2340700D01*
X69867570Y2340702D01*
X69918081Y2365120D01*
X69951461Y2381256D01*
X69954483Y2383567D01*
X69954487Y2383569D01*
X70025492Y2437857D01*
X70025495Y2437860D01*
X70028514Y2440168D01*
X70084992Y2505138D01*
X70089648Y2510494D01*
X70089648Y2510495D01*
X70092148Y2513370D01*
X70139762Y2597872D01*
X70169413Y2690223D01*
X70170860Y2703538D01*
X70179676Y2784698D01*
X70179676Y2784699D01*
X70179888Y2786650D01*
X70179900Y2790000D01*
X70170098Y2886497D01*
X70141093Y2979053D01*
X70138227Y2984225D01*
X70095917Y3060553D01*
X70094070Y3063885D01*
X70035668Y3132023D01*
X70033427Y3134638D01*
X70033426Y3134639D01*
X70030948Y3137530D01*
X70024344Y3142653D01*
X69957313Y3194647D01*
X69957314Y3194647D01*
X69954308Y3196978D01*
X69867280Y3239802D01*
X69773418Y3264251D01*
X69724987Y3266789D01*
X69680361Y3269128D01*
X69680358Y3269128D01*
X69676557Y3269327D01*
X69672788Y3268757D01*
X69584427Y3255394D01*
X69584423Y3255393D01*
X69580654Y3254823D01*
X69577078Y3253507D01*
X69577077Y3253507D01*
X69506518Y3227546D01*
X69489626Y3221331D01*
X69486393Y3219326D01*
X69486390Y3219325D01*
X69459157Y3202440D01*
X69407191Y3170220D01*
X69404426Y3167605D01*
X69404423Y3167603D01*
X69376023Y3140746D01*
X69336718Y3103577D01*
X69334530Y3100452D01*
X69334529Y3100451D01*
X69326866Y3089507D01*
X69281085Y3024124D01*
X69271799Y3002665D01*
X69244413Y2939379D01*
X69242564Y2935107D01*
X69222729Y2840163D01*
X69222601Y2803538D01*
X69222415Y2750204D01*
X69222390Y2743170D01*
X68017185Y2743170D01*
X68017058Y2743450D01*
X68007276Y2757979D01*
X68003103Y2764964D01*
X67996421Y2777665D01*
X67994940Y2780480D01*
X67978204Y2802330D01*
X67973102Y2808991D01*
X67970422Y2812721D01*
X67952149Y2839863D01*
X67952147Y2839865D01*
X67950368Y2842508D01*
X67938263Y2855198D01*
X67932986Y2861366D01*
X67932574Y2861905D01*
X67922328Y2875281D01*
X67914924Y2882150D01*
X67895999Y2899705D01*
X67892733Y2902925D01*
X67867942Y2928913D01*
X67862562Y2932916D01*
X67853876Y2939379D01*
X67847625Y2944578D01*
X67837981Y2953524D01*
X67834780Y2956493D01*
X67804708Y2976134D01*
X67800966Y2978745D01*
X67772136Y3000194D01*
X67756509Y3008140D01*
X67749478Y3012207D01*
X67737465Y3020054D01*
X67737457Y3020058D01*
X67734801Y3021793D01*
X67731884Y3023058D01*
X67731879Y3023061D01*
X67701860Y3036082D01*
X67697724Y3038028D01*
X67665690Y3054315D01*
X67662653Y3055258D01*
X67662648Y3055260D01*
X67648952Y3059512D01*
X67641322Y3062342D01*
X67628175Y3068045D01*
X67628172Y3068046D01*
X67625249Y3069314D01*
X67596103Y3076446D01*
X67590378Y3077847D01*
X67585955Y3079074D01*
X67554685Y3088783D01*
X67554679Y3088784D01*
X67551646Y3089726D01*
X67537356Y3091620D01*
X67534263Y3092030D01*
X67526273Y3093533D01*
X67512358Y3096937D01*
X67509256Y3097696D01*
X67488517Y3099165D01*
X67473449Y3100232D01*
X67468882Y3100696D01*
X67447143Y3103577D01*
X67433267Y3105416D01*
X67430091Y3105297D01*
X67430088Y3105297D01*
X67415747Y3104759D01*
X67407620Y3104894D01*
X67393324Y3105906D01*
X67393319Y3105906D01*
X67390140Y3106131D01*
X67377221Y3104853D01*
X67354401Y3102596D01*
X67349822Y3102284D01*
X67336613Y3101788D01*
X67313936Y3100936D01*
X67296775Y3097335D01*
X67288750Y3096100D01*
X67285668Y3095795D01*
X67271306Y3094374D01*
X67236660Y3084863D01*
X67232257Y3083798D01*
X67197066Y3076414D01*
X67194105Y3075245D01*
X67194103Y3075244D01*
X67180762Y3069975D01*
X67173047Y3067401D01*
X67156151Y3062763D01*
X67153273Y3061418D01*
X67153265Y3061415D01*
X67144136Y3057148D01*
X67112295Y3050074D01*
X66085571Y3050074D01*
X66062333Y3053754D01*
X66016587Y3068618D01*
X66016583Y3068619D01*
X66012843Y3069834D01*
X66008929Y3070245D01*
X66008926Y3070246D01*
X65945922Y3076868D01*
X65943962Y3077074D01*
X65429393Y3077074D01*
X65426477Y3076612D01*
X65426475Y3076612D01*
X65312320Y3058532D01*
X65312317Y3058531D01*
X65307448Y3057760D01*
X65222327Y3019862D01*
X65219143Y3017549D01*
X65219140Y3017547D01*
X65150135Y2967412D01*
X65146945Y2965094D01*
X65130541Y2946875D01*
X65088335Y2900000D01*
X65084598Y2895850D01*
X65068563Y2868077D01*
X65041534Y2821260D01*
X65038010Y2815157D01*
X65036792Y2811408D01*
X65011659Y2734055D01*
X65009217Y2726540D01*
X65008806Y2722626D01*
X65008805Y2722623D01*
X65003674Y2673804D01*
X65001977Y2657659D01*
X65001977Y2538497D01*
X64998595Y2516197D01*
X64992951Y2498020D01*
X64992534Y2494876D01*
X64992533Y2494870D01*
X64986091Y2446261D01*
X64977433Y2380935D01*
X64977432Y2380934D01*
X64977286Y2379832D01*
X64977261Y2379641D01*
X64976883Y2379691D01*
X64955668Y2331705D01*
X63930693Y1306729D01*
X63896982Y1287265D01*
X63877519Y1284703D01*
X63478769Y1284703D01*
X63441169Y1294778D01*
X63413644Y1322303D01*
X63403569Y1359903D01*
X63413644Y1397503D01*
X63429153Y1415984D01*
X63429870Y1416464D01*
X63432684Y1419399D01*
X63432687Y1419401D01*
X63468307Y1456546D01*
X63494963Y1484343D01*
X63543962Y1564616D01*
X63574580Y1653538D01*
X63576094Y1666619D01*
X63582385Y1721000D01*
X63585389Y1746960D01*
X63585400Y1750000D01*
X63582196Y1779498D01*
X63580031Y1799420D01*
X63575243Y1843496D01*
X63568904Y1862332D01*
X63546545Y1928771D01*
X63546543Y1928776D01*
X63545246Y1932629D01*
X63535035Y1949624D01*
X63530680Y1956871D01*
X63519950Y1994290D01*
X63529368Y2032060D01*
X63556408Y2060061D01*
X63586719Y2070329D01*
X63646174Y2077028D01*
X63654363Y2078897D01*
X63729853Y2105312D01*
X63737420Y2108956D01*
X63805138Y2151507D01*
X63811704Y2156743D01*
X63868257Y2213296D01*
X63873493Y2219862D01*
X63916044Y2287580D01*
X63919688Y2295147D01*
X63946103Y2370637D01*
X63947972Y2378826D01*
X63954566Y2437346D01*
X63952808Y2443908D01*
X63944998Y2446000D01*
X62605002Y2446000D01*
X62597192Y2443908D01*
X62595434Y2437346D01*
X62204565Y2437346D01*
X62204663Y2438207D01*
X62204663Y2438210D01*
X62204900Y2440312D01*
X62204900Y2959688D01*
X62204632Y2962072D01*
X62204567Y2962654D01*
X62595434Y2962654D01*
X62597192Y2956092D01*
X62605002Y2954000D01*
X63011098Y2954000D01*
X63018908Y2956092D01*
X63021000Y2963902D01*
X63021000Y3319998D01*
X63529000Y3319998D01*
X63529000Y2963902D01*
X63531092Y2956092D01*
X63538902Y2954000D01*
X63944998Y2954000D01*
X63952808Y2956092D01*
X63954566Y2962654D01*
X63947972Y3021174D01*
X63946103Y3029363D01*
X63919688Y3104853D01*
X63916044Y3112420D01*
X63873493Y3180138D01*
X63868257Y3186704D01*
X63811704Y3243257D01*
X63805138Y3248493D01*
X63737420Y3291044D01*
X63729853Y3294688D01*
X63654363Y3321103D01*
X63646174Y3322972D01*
X63586793Y3329663D01*
X63582571Y3329900D01*
X63538902Y3329900D01*
X63531092Y3327808D01*
X63529000Y3319998D01*
X63021000Y3319998D01*
X63018908Y3327808D01*
X63011098Y3329900D01*
X62967429Y3329900D01*
X62963207Y3329663D01*
X62903826Y3322972D01*
X62895637Y3321103D01*
X62820147Y3294688D01*
X62812580Y3291044D01*
X62744862Y3248493D01*
X62738296Y3243257D01*
X62681743Y3186704D01*
X62676507Y3180138D01*
X62633956Y3112420D01*
X62630312Y3104853D01*
X62603897Y3029363D01*
X62602028Y3021174D01*
X62595434Y2962654D01*
X62204567Y2962654D01*
X62200707Y2996905D01*
X62197499Y3025374D01*
X62168293Y3108841D01*
X62121245Y3183716D01*
X62058716Y3246245D01*
X61983841Y3293293D01*
X61978265Y3295244D01*
X61977222Y3295955D01*
X61976049Y3296520D01*
X61976134Y3296697D01*
X61946104Y3317168D01*
X61927900Y3366224D01*
X61927900Y4054488D01*
X63666985Y4054488D01*
X63667845Y4050512D01*
X63667845Y4050509D01*
X63671750Y4032448D01*
X63686859Y3962566D01*
X63726009Y3877057D01*
X63728459Y3873806D01*
X63728460Y3873804D01*
X63770149Y3818481D01*
X63782607Y3801948D01*
X63785695Y3799302D01*
X63785698Y3799298D01*
X63850916Y3743400D01*
X63850919Y3743398D01*
X63854013Y3740746D01*
X63936896Y3696304D01*
X63969687Y3687025D01*
X64023472Y3671805D01*
X64023476Y3671804D01*
X64027389Y3670697D01*
X64079522Y3667600D01*
X64117207Y3665361D01*
X64117210Y3665361D01*
X64121269Y3665120D01*
X64214157Y3679832D01*
X64217946Y3681317D01*
X64217950Y3681318D01*
X64280889Y3705984D01*
X64301719Y3714147D01*
X64305106Y3716415D01*
X64305109Y3716416D01*
X64376484Y3764197D01*
X64376486Y3764198D01*
X64379870Y3766464D01*
X64444963Y3834343D01*
X64493962Y3914616D01*
X64524580Y4003538D01*
X64531570Y4063958D01*
X68050868Y4063958D01*
X68052069Y4058537D01*
X68081452Y3995527D01*
X68084724Y3989859D01*
X68146430Y3901733D01*
X68150645Y3896710D01*
X68226710Y3820645D01*
X68231733Y3816430D01*
X68319859Y3754724D01*
X68325527Y3751452D01*
X68423032Y3705984D01*
X68429183Y3703745D01*
X68533107Y3675899D01*
X68539549Y3674763D01*
X68619781Y3667744D01*
X68623075Y3667600D01*
X68936098Y3667600D01*
X68943908Y3669692D01*
X68946000Y3677502D01*
X68946000Y4056098D01*
X68946000Y4056099D01*
X69453999Y4056099D01*
X69453999Y3677502D01*
X69456091Y3669692D01*
X69463901Y3667600D01*
X69776925Y3667600D01*
X69780219Y3667744D01*
X69860451Y3674763D01*
X69866893Y3675899D01*
X69970817Y3703745D01*
X69976968Y3705984D01*
X70074473Y3751452D01*
X70080141Y3754724D01*
X70168267Y3816430D01*
X70173290Y3820645D01*
X70249355Y3896710D01*
X70253570Y3901733D01*
X70315276Y3989859D01*
X70318548Y3995527D01*
X70347227Y4057028D01*
X70348448Y4063958D01*
X72380868Y4063958D01*
X72382069Y4058537D01*
X72411452Y3995527D01*
X72414724Y3989859D01*
X72476430Y3901733D01*
X72480645Y3896710D01*
X72556710Y3820645D01*
X72561733Y3816430D01*
X72649859Y3754724D01*
X72655527Y3751452D01*
X72753032Y3705984D01*
X72759183Y3703745D01*
X72863107Y3675899D01*
X72869549Y3674763D01*
X72949781Y3667744D01*
X72953075Y3667600D01*
X73116098Y3667600D01*
X73123908Y3669692D01*
X73126000Y3677502D01*
X73126000Y4056098D01*
X73126000Y4056099D01*
X73633999Y4056099D01*
X73633999Y3677502D01*
X73636091Y3669692D01*
X73643901Y3667600D01*
X73806925Y3667600D01*
X73810219Y3667744D01*
X73890451Y3674763D01*
X73896893Y3675899D01*
X74000817Y3703745D01*
X74006968Y3705984D01*
X74104473Y3751452D01*
X74110141Y3754724D01*
X74198267Y3816430D01*
X74203290Y3820645D01*
X74279355Y3896710D01*
X74283570Y3901733D01*
X74345276Y3989859D01*
X74348548Y3995527D01*
X74377227Y4057028D01*
X74378597Y4064798D01*
X74373176Y4066000D01*
X73643901Y4066001D01*
X73636091Y4063909D01*
X73633999Y4056099D01*
X73126000Y4056099D01*
X73123908Y4063908D01*
X73116098Y4066000D01*
X72388491Y4066001D01*
X72380868Y4063958D01*
X70348448Y4063958D01*
X70348597Y4064798D01*
X70343176Y4066000D01*
X69463901Y4066001D01*
X69456091Y4063909D01*
X69453999Y4056099D01*
X68946000Y4056099D01*
X68943908Y4063908D01*
X68936098Y4066000D01*
X68058491Y4066001D01*
X68050868Y4063958D01*
X64531570Y4063958D01*
X64535389Y4096960D01*
X64535400Y4100000D01*
X64525243Y4193496D01*
X64523464Y4198782D01*
X64496545Y4278771D01*
X64496543Y4278776D01*
X64495246Y4282629D01*
X64487828Y4294976D01*
X64451482Y4355465D01*
X64446809Y4363242D01*
X64407298Y4405024D01*
X64384985Y4428620D01*
X64384982Y4428622D01*
X64382191Y4431574D01*
X64304408Y4484435D01*
X64217088Y4519361D01*
X64124305Y4534721D01*
X64120238Y4534508D01*
X64120235Y4534508D01*
X64073248Y4532045D01*
X64030388Y4529799D01*
X64026461Y4528717D01*
X64026459Y4528717D01*
X63943647Y4505907D01*
X63939719Y4504825D01*
X63856527Y4460963D01*
X63836424Y4443974D01*
X63787805Y4402888D01*
X63787802Y4402885D01*
X63784696Y4400260D01*
X63782225Y4397028D01*
X63782224Y4397027D01*
X63772669Y4384529D01*
X63727574Y4325549D01*
X63725853Y4321858D01*
X63689548Y4244002D01*
X63689546Y4243996D01*
X63687829Y4240314D01*
X63667313Y4148534D01*
X63667299Y4144466D01*
X63667000Y4058649D01*
X63666985Y4054488D01*
X61927900Y4054488D01*
X61927900Y4323553D01*
X61944207Y4370315D01*
X61963574Y4394706D01*
X61965798Y4397507D01*
X62014594Y4491045D01*
X62039761Y4575202D01*
X68051403Y4575202D01*
X68056824Y4574000D01*
X68936099Y4573999D01*
X68943909Y4576091D01*
X68946001Y4583901D01*
X68946001Y4962498D01*
X69454000Y4962498D01*
X69454000Y4583902D01*
X69456092Y4576092D01*
X69463902Y4574000D01*
X70341509Y4573999D01*
X70345997Y4575202D01*
X72381403Y4575202D01*
X72386824Y4574000D01*
X73116099Y4573999D01*
X73123909Y4576091D01*
X73126001Y4583901D01*
X73126001Y4962498D01*
X73634000Y4962498D01*
X73634000Y4583902D01*
X73636092Y4576092D01*
X73643902Y4574000D01*
X74371509Y4573999D01*
X74379132Y4576042D01*
X74377931Y4581463D01*
X74348548Y4644473D01*
X74345276Y4650141D01*
X74283570Y4738267D01*
X74279355Y4743290D01*
X74203290Y4819355D01*
X74198267Y4823570D01*
X74110141Y4885276D01*
X74104473Y4888548D01*
X74006968Y4934016D01*
X74000817Y4936255D01*
X73896893Y4964101D01*
X73890451Y4965237D01*
X73810219Y4972256D01*
X73806925Y4972400D01*
X73643902Y4972400D01*
X73636092Y4970308D01*
X73634000Y4962498D01*
X73126001Y4962498D01*
X73123909Y4970308D01*
X73116099Y4972400D01*
X72953075Y4972400D01*
X72949781Y4972256D01*
X72869549Y4965237D01*
X72863107Y4964101D01*
X72759183Y4936255D01*
X72753032Y4934016D01*
X72655527Y4888548D01*
X72649859Y4885276D01*
X72561733Y4823570D01*
X72556710Y4819355D01*
X72480645Y4743290D01*
X72476430Y4738267D01*
X72414724Y4650141D01*
X72411452Y4644473D01*
X72382773Y4582972D01*
X72381403Y4575202D01*
X70345997Y4575202D01*
X70349132Y4576042D01*
X70347931Y4581463D01*
X70318548Y4644473D01*
X70315276Y4650141D01*
X70253570Y4738267D01*
X70249355Y4743290D01*
X70173290Y4819355D01*
X70168267Y4823570D01*
X70080141Y4885276D01*
X70074473Y4888548D01*
X69976968Y4934016D01*
X69970817Y4936255D01*
X69866893Y4964101D01*
X69860451Y4965237D01*
X69780219Y4972256D01*
X69776925Y4972400D01*
X69463902Y4972400D01*
X69456092Y4970308D01*
X69454000Y4962498D01*
X68946001Y4962498D01*
X68943909Y4970308D01*
X68936099Y4972400D01*
X68623075Y4972400D01*
X68619781Y4972256D01*
X68539549Y4965237D01*
X68533107Y4964101D01*
X68429183Y4936255D01*
X68423032Y4934016D01*
X68325527Y4888548D01*
X68319859Y4885276D01*
X68231733Y4823570D01*
X68226710Y4819355D01*
X68150645Y4743290D01*
X68146430Y4738267D01*
X68084724Y4650141D01*
X68081452Y4644473D01*
X68052773Y4582972D01*
X68051403Y4575202D01*
X62039761Y4575202D01*
X62044822Y4592122D01*
X62055392Y4697092D01*
X62055400Y4700000D01*
X62053697Y4717852D01*
X62045720Y4801465D01*
X62045719Y4801470D01*
X62045380Y4805024D01*
X62015681Y4906258D01*
X61967375Y5000049D01*
X61902205Y5083015D01*
X61822522Y5152160D01*
X61819428Y5153950D01*
X61819425Y5153952D01*
X61809475Y5159708D01*
X61781974Y5187257D01*
X61771932Y5224866D01*
X61782040Y5262457D01*
X61809589Y5289958D01*
X61847132Y5300000D01*
X74771900Y5300000D01*
X74809500Y5289925D01*
X74837025Y5262400D01*
X74847100Y5224800D01*
X74847101Y-5224800D01*
X74837026Y-5262400D01*
X74809501Y-5289925D01*
X74771901Y-5300000D01*
X66364607Y-5300000D01*
X66327007Y-5289925D01*
X66299482Y-5262400D01*
X66289407Y-5224800D01*
X66299482Y-5187200D01*
X66315768Y-5167618D01*
X66332930Y-5152960D01*
X66333231Y-5152703D01*
X66339199Y-5147399D01*
X66346464Y-5140683D01*
X66352212Y-5135156D01*
X66911326Y-4576042D01*
X68050868Y-4576042D01*
X68052069Y-4581463D01*
X68081452Y-4644473D01*
X68084724Y-4650141D01*
X68146430Y-4738267D01*
X68150645Y-4743290D01*
X68226710Y-4819355D01*
X68231733Y-4823570D01*
X68319859Y-4885276D01*
X68325527Y-4888548D01*
X68423032Y-4934016D01*
X68429183Y-4936255D01*
X68533107Y-4964101D01*
X68539549Y-4965237D01*
X68619781Y-4972256D01*
X68623075Y-4972400D01*
X68936098Y-4972400D01*
X68943908Y-4970308D01*
X68946000Y-4962498D01*
X68946000Y-4583902D01*
X68946000Y-4583901D01*
X69453999Y-4583901D01*
X69453999Y-4962498D01*
X69456091Y-4970308D01*
X69463901Y-4972400D01*
X69776925Y-4972400D01*
X69780219Y-4972256D01*
X69860451Y-4965237D01*
X69866893Y-4964101D01*
X69970817Y-4936255D01*
X69976968Y-4934016D01*
X70074473Y-4888548D01*
X70080141Y-4885276D01*
X70168267Y-4823570D01*
X70173290Y-4819355D01*
X70249355Y-4743290D01*
X70253570Y-4738267D01*
X70315276Y-4650141D01*
X70318548Y-4644473D01*
X70347227Y-4582972D01*
X70348448Y-4576042D01*
X72380868Y-4576042D01*
X72382069Y-4581463D01*
X72411452Y-4644473D01*
X72414724Y-4650141D01*
X72476430Y-4738267D01*
X72480645Y-4743290D01*
X72556710Y-4819355D01*
X72561733Y-4823570D01*
X72649859Y-4885276D01*
X72655527Y-4888548D01*
X72753032Y-4934016D01*
X72759183Y-4936255D01*
X72863107Y-4964101D01*
X72869549Y-4965237D01*
X72949781Y-4972256D01*
X72953075Y-4972400D01*
X73116098Y-4972400D01*
X73123908Y-4970308D01*
X73126000Y-4962498D01*
X73126000Y-4583902D01*
X73126000Y-4583901D01*
X73633999Y-4583901D01*
X73633999Y-4962498D01*
X73636091Y-4970308D01*
X73643901Y-4972400D01*
X73806925Y-4972400D01*
X73810219Y-4972256D01*
X73890451Y-4965237D01*
X73896893Y-4964101D01*
X74000817Y-4936255D01*
X74006968Y-4934016D01*
X74104473Y-4888548D01*
X74110141Y-4885276D01*
X74198267Y-4823570D01*
X74203290Y-4819355D01*
X74279355Y-4743290D01*
X74283570Y-4738267D01*
X74345276Y-4650141D01*
X74348548Y-4644473D01*
X74377227Y-4582972D01*
X74378597Y-4575202D01*
X74373176Y-4574000D01*
X73643901Y-4573999D01*
X73636091Y-4576091D01*
X73633999Y-4583901D01*
X73126000Y-4583901D01*
X73123908Y-4576092D01*
X73116098Y-4574000D01*
X72388491Y-4573999D01*
X72380868Y-4576042D01*
X70348448Y-4576042D01*
X70348597Y-4575202D01*
X70343176Y-4574000D01*
X69463901Y-4573999D01*
X69456091Y-4576091D01*
X69453999Y-4583901D01*
X68946000Y-4583901D01*
X68943908Y-4576092D01*
X68936098Y-4574000D01*
X68058491Y-4573999D01*
X68050868Y-4576042D01*
X66911326Y-4576042D01*
X67422570Y-4064798D01*
X68051403Y-4064798D01*
X68056824Y-4066000D01*
X68936099Y-4066001D01*
X68943909Y-4063909D01*
X68946001Y-4056099D01*
X68946001Y-3677502D01*
X69454000Y-3677502D01*
X69454000Y-4056098D01*
X69456092Y-4063908D01*
X69463902Y-4066000D01*
X70341509Y-4066001D01*
X70345997Y-4064798D01*
X72381403Y-4064798D01*
X72386824Y-4066000D01*
X73116099Y-4066001D01*
X73123909Y-4063909D01*
X73126001Y-4056099D01*
X73126001Y-3677502D01*
X73634000Y-3677502D01*
X73634000Y-4056098D01*
X73636092Y-4063908D01*
X73643902Y-4066000D01*
X74371509Y-4066001D01*
X74379132Y-4063958D01*
X74377931Y-4058537D01*
X74348548Y-3995527D01*
X74345276Y-3989859D01*
X74283570Y-3901733D01*
X74279355Y-3896710D01*
X74203290Y-3820645D01*
X74198267Y-3816430D01*
X74110141Y-3754724D01*
X74104473Y-3751452D01*
X74006968Y-3705984D01*
X74000817Y-3703745D01*
X73896893Y-3675899D01*
X73890451Y-3674763D01*
X73810219Y-3667744D01*
X73806925Y-3667600D01*
X73643902Y-3667600D01*
X73636092Y-3669692D01*
X73634000Y-3677502D01*
X73126001Y-3677502D01*
X73123909Y-3669692D01*
X73116099Y-3667600D01*
X72953075Y-3667600D01*
X72949781Y-3667744D01*
X72869549Y-3674763D01*
X72863107Y-3675899D01*
X72759183Y-3703745D01*
X72753032Y-3705984D01*
X72655527Y-3751452D01*
X72649859Y-3754724D01*
X72561733Y-3816430D01*
X72556710Y-3820645D01*
X72480645Y-3896710D01*
X72476430Y-3901733D01*
X72414724Y-3989859D01*
X72411452Y-3995527D01*
X72382773Y-4057028D01*
X72381403Y-4064798D01*
X70345997Y-4064798D01*
X70349132Y-4063958D01*
X70347931Y-4058537D01*
X70318548Y-3995527D01*
X70315276Y-3989859D01*
X70253570Y-3901733D01*
X70249355Y-3896710D01*
X70173290Y-3820645D01*
X70168267Y-3816430D01*
X70080141Y-3754724D01*
X70074473Y-3751452D01*
X69976968Y-3705984D01*
X69970817Y-3703745D01*
X69866893Y-3675899D01*
X69860451Y-3674763D01*
X69780219Y-3667744D01*
X69776925Y-3667600D01*
X69463902Y-3667600D01*
X69456092Y-3669692D01*
X69454000Y-3677502D01*
X68946001Y-3677502D01*
X68943909Y-3669692D01*
X68936099Y-3667600D01*
X68623075Y-3667600D01*
X68619781Y-3667744D01*
X68539549Y-3674763D01*
X68533107Y-3675899D01*
X68429183Y-3703745D01*
X68423032Y-3705984D01*
X68325527Y-3751452D01*
X68319859Y-3754724D01*
X68231733Y-3816430D01*
X68226710Y-3820645D01*
X68150645Y-3896710D01*
X68146430Y-3901733D01*
X68084724Y-3989859D01*
X68081452Y-3995527D01*
X68052773Y-4057028D01*
X68051403Y-4064798D01*
X67422570Y-4064798D01*
X68335156Y-3152212D01*
X68336245Y-3151080D01*
X68340388Y-3146771D01*
X68340398Y-3146761D01*
X68340683Y-3146464D01*
X68347399Y-3139199D01*
X68352703Y-3133231D01*
X68352926Y-3132969D01*
X68352953Y-3132939D01*
X68413895Y-3061584D01*
X68414387Y-3061008D01*
X68416052Y-3058896D01*
X68423793Y-3049077D01*
X68423799Y-3049068D01*
X68424261Y-3048483D01*
X68435882Y-3032489D01*
X68444749Y-3019218D01*
X68478648Y-2963901D01*
X68491395Y-2943100D01*
X68491403Y-2943087D01*
X68491785Y-2942463D01*
X68494939Y-2936830D01*
X69222390Y-2936830D01*
X69228169Y-2965492D01*
X69240443Y-3026359D01*
X69241562Y-3031910D01*
X69269238Y-3097112D01*
X69276330Y-3113819D01*
X69279460Y-3121194D01*
X69334538Y-3201033D01*
X69337281Y-3203663D01*
X69337284Y-3203667D01*
X69399137Y-3262981D01*
X69404544Y-3268166D01*
X69486620Y-3319852D01*
X69490181Y-3321191D01*
X69490184Y-3321192D01*
X69560162Y-3347495D01*
X69577412Y-3353979D01*
X69673211Y-3369152D01*
X69705701Y-3367677D01*
X69766301Y-3364925D01*
X69766304Y-3364925D01*
X69770105Y-3364752D01*
X69842724Y-3346376D01*
X69860437Y-3341894D01*
X69860439Y-3341893D01*
X69864135Y-3340958D01*
X69867566Y-3339300D01*
X69867570Y-3339298D01*
X69905310Y-3321054D01*
X69951461Y-3298744D01*
X69954483Y-3296433D01*
X69954487Y-3296431D01*
X70025492Y-3242143D01*
X70025495Y-3242140D01*
X70028514Y-3239832D01*
X70092148Y-3166630D01*
X70139762Y-3082128D01*
X70169413Y-2989777D01*
X70170034Y-2984067D01*
X70179676Y-2895302D01*
X70179676Y-2895301D01*
X70179888Y-2893350D01*
X70179900Y-2890000D01*
X70172581Y-2817944D01*
X70170483Y-2797291D01*
X70170483Y-2797289D01*
X70170098Y-2793503D01*
X70141093Y-2700947D01*
X70138608Y-2696463D01*
X70095917Y-2619447D01*
X70094070Y-2616115D01*
X70040524Y-2553642D01*
X70033427Y-2545362D01*
X70033426Y-2545361D01*
X70030948Y-2542470D01*
X70026523Y-2539037D01*
X69957313Y-2485353D01*
X69957314Y-2485353D01*
X69954308Y-2483022D01*
X69867280Y-2440198D01*
X69773418Y-2415749D01*
X69724987Y-2413211D01*
X69680361Y-2410872D01*
X69680358Y-2410872D01*
X69676557Y-2410673D01*
X69672788Y-2411243D01*
X69584427Y-2424606D01*
X69584423Y-2424607D01*
X69580654Y-2425177D01*
X69577078Y-2426493D01*
X69577077Y-2426493D01*
X69496883Y-2455999D01*
X69489626Y-2458669D01*
X69486393Y-2460674D01*
X69486390Y-2460675D01*
X69455264Y-2479974D01*
X69407191Y-2509780D01*
X69404426Y-2512395D01*
X69404423Y-2512397D01*
X69371102Y-2543908D01*
X69336718Y-2576423D01*
X69334530Y-2579548D01*
X69334529Y-2579549D01*
X69321673Y-2597910D01*
X69281085Y-2655876D01*
X69272711Y-2675228D01*
X69244188Y-2741141D01*
X69242564Y-2744893D01*
X69222729Y-2839837D01*
X69222625Y-2869499D01*
X69222417Y-2929193D01*
X69222390Y-2936830D01*
X68494939Y-2936830D01*
X68499580Y-2928545D01*
X68505030Y-2917850D01*
X68508201Y-2911627D01*
X68508211Y-2911607D01*
X68508547Y-2910947D01*
X68515229Y-2896454D01*
X68515565Y-2895645D01*
X68549397Y-2813965D01*
X68549402Y-2813951D01*
X68549680Y-2813281D01*
X68553012Y-2804247D01*
X68554951Y-2798992D01*
X68554954Y-2798983D01*
X68555202Y-2798311D01*
X68555422Y-2797635D01*
X68561082Y-2780215D01*
X68561088Y-2780196D01*
X68561310Y-2779512D01*
X68564475Y-2768290D01*
X68565439Y-2764874D01*
X68565445Y-2764850D01*
X68565641Y-2764156D01*
X68577711Y-2713882D01*
X68585818Y-2680110D01*
X68586653Y-2676633D01*
X68586933Y-2675228D01*
X68589616Y-2661737D01*
X68589619Y-2661719D01*
X68589765Y-2660986D01*
X68590021Y-2659373D01*
X68591431Y-2650465D01*
X68592858Y-2641458D01*
X68594734Y-2625612D01*
X68594833Y-2624363D01*
X68602155Y-2531317D01*
X68602155Y-2531316D01*
X68602186Y-2530923D01*
X68602656Y-2522950D01*
X68603044Y-2513064D01*
X68603200Y-2505095D01*
X68603200Y-2105496D01*
X68603006Y-2096623D01*
X68602526Y-2085641D01*
X68602290Y-2082031D01*
X68601974Y-2077220D01*
X68601947Y-2076803D01*
X68601686Y-2073814D01*
X68592824Y-1972533D01*
X68592753Y-1971721D01*
X68590440Y-1954154D01*
X68589974Y-1951507D01*
X68586766Y-1933311D01*
X68586762Y-1933292D01*
X68586627Y-1932525D01*
X68582789Y-1915212D01*
X68579704Y-1903696D01*
X68557126Y-1819434D01*
X68557125Y-1819432D01*
X68556914Y-1818643D01*
X68556676Y-1817889D01*
X68556669Y-1817864D01*
X68551822Y-1802493D01*
X68551583Y-1801735D01*
X68551311Y-1800989D01*
X68551304Y-1800967D01*
X68546847Y-1788723D01*
X68544071Y-1781096D01*
X68537288Y-1764719D01*
X68530484Y-1750127D01*
X68495384Y-1674855D01*
X68495376Y-1674838D01*
X68495038Y-1674114D01*
X68490310Y-1665033D01*
X68487239Y-1659133D01*
X68487236Y-1659128D01*
X68486851Y-1658388D01*
X68475869Y-1639367D01*
X68475315Y-1638496D01*
X68466797Y-1625126D01*
X68466346Y-1624418D01*
X68418113Y-1555534D01*
X68409483Y-1543209D01*
X68409475Y-1543198D01*
X68409003Y-1542524D01*
X68407099Y-1540042D01*
X68398707Y-1529107D01*
X68398207Y-1528455D01*
X68384089Y-1511631D01*
X68372117Y-1498567D01*
X68301433Y-1427883D01*
X68288369Y-1415911D01*
X68271545Y-1401793D01*
X68259328Y-1392418D01*
X68258141Y-1391507D01*
X68258132Y-1391501D01*
X68257476Y-1390997D01*
X68256802Y-1390525D01*
X68256791Y-1390517D01*
X68222786Y-1366707D01*
X68192517Y-1345512D01*
X69266985Y-1345512D01*
X69267845Y-1349488D01*
X69267845Y-1349491D01*
X69272542Y-1371216D01*
X69286859Y-1437434D01*
X69326009Y-1522943D01*
X69328459Y-1526194D01*
X69328460Y-1526196D01*
X69368279Y-1579038D01*
X69382607Y-1598052D01*
X69385695Y-1600698D01*
X69385698Y-1600702D01*
X69450916Y-1656600D01*
X69450919Y-1656602D01*
X69454013Y-1659254D01*
X69536896Y-1703696D01*
X69572580Y-1713794D01*
X69623472Y-1728195D01*
X69623476Y-1728196D01*
X69627389Y-1729303D01*
X69681307Y-1732506D01*
X69717207Y-1734639D01*
X69717210Y-1734639D01*
X69721269Y-1734880D01*
X69814157Y-1720168D01*
X69817946Y-1718683D01*
X69817950Y-1718682D01*
X69868113Y-1699023D01*
X69901719Y-1685853D01*
X69905106Y-1683585D01*
X69905109Y-1683584D01*
X69976484Y-1635803D01*
X69976486Y-1635802D01*
X69979870Y-1633536D01*
X70044963Y-1565657D01*
X70051584Y-1554811D01*
X70059489Y-1541859D01*
X70093962Y-1485384D01*
X70124580Y-1396462D01*
X70135389Y-1303040D01*
X70135400Y-1300000D01*
X70134370Y-1290514D01*
X70130569Y-1255534D01*
X70125243Y-1206504D01*
X70116809Y-1181444D01*
X70096545Y-1121229D01*
X70096543Y-1121224D01*
X70095246Y-1117371D01*
X70081910Y-1095175D01*
X70053042Y-1047131D01*
X70046809Y-1036758D01*
X69989677Y-976342D01*
X69984985Y-971380D01*
X69984982Y-971378D01*
X69982191Y-968426D01*
X69968585Y-959179D01*
X69907770Y-917850D01*
X69904408Y-915565D01*
X69817088Y-880639D01*
X69724305Y-865279D01*
X69720238Y-865492D01*
X69720235Y-865492D01*
X69673248Y-867955D01*
X69630388Y-870201D01*
X69626461Y-871283D01*
X69626459Y-871283D01*
X69543647Y-894093D01*
X69539719Y-895175D01*
X69456527Y-939037D01*
X69437006Y-955534D01*
X69387805Y-997112D01*
X69387802Y-997115D01*
X69384696Y-999740D01*
X69327574Y-1074451D01*
X69325853Y-1078142D01*
X69289548Y-1155998D01*
X69289546Y-1156004D01*
X69287829Y-1159686D01*
X69286942Y-1163654D01*
X69286941Y-1163657D01*
X69278828Y-1199951D01*
X69267313Y-1251466D01*
X69267196Y-1284943D01*
X69267060Y-1324131D01*
X69266985Y-1345512D01*
X68192517Y-1345512D01*
X68175582Y-1333654D01*
X68168556Y-1329178D01*
X68161329Y-1324574D01*
X68161317Y-1324567D01*
X68160633Y-1324131D01*
X68141612Y-1313149D01*
X68141768Y-1312879D01*
X68114584Y-1286819D01*
X68103700Y-1247852D01*
X68103700Y-1045536D01*
X68097408Y-971380D01*
X68096373Y-959179D01*
X68096372Y-959175D01*
X68096104Y-956013D01*
X68083112Y-905957D01*
X68080700Y-887065D01*
X68080700Y-771716D01*
X68079866Y-766448D01*
X68062158Y-654643D01*
X68062157Y-654640D01*
X68061386Y-649771D01*
X68023488Y-564650D01*
X67995062Y-525524D01*
X67971038Y-492458D01*
X67971036Y-492456D01*
X67968720Y-489268D01*
X67931997Y-456203D01*
X67902403Y-429556D01*
X67902400Y-429554D01*
X67899476Y-426921D01*
X67831550Y-387704D01*
X67822199Y-382305D01*
X67822197Y-382304D01*
X67818783Y-380333D01*
X67778551Y-367261D01*
X67733910Y-352756D01*
X67733906Y-352755D01*
X67730166Y-351540D01*
X67726252Y-351129D01*
X67726249Y-351128D01*
X67663245Y-344506D01*
X67661285Y-344300D01*
X67146716Y-344300D01*
X67143800Y-344762D01*
X67143798Y-344762D01*
X67029643Y-362842D01*
X67029640Y-362843D01*
X67024771Y-363614D01*
X66939650Y-401512D01*
X66936466Y-403825D01*
X66936463Y-403827D01*
X66870036Y-452089D01*
X66864268Y-456280D01*
X66853092Y-468692D01*
X66805322Y-521747D01*
X66801921Y-525524D01*
X66795045Y-537434D01*
X66758630Y-600507D01*
X66755333Y-606217D01*
X66752799Y-614016D01*
X66728284Y-689467D01*
X66726540Y-694834D01*
X66726129Y-698748D01*
X66726128Y-698751D01*
X66720956Y-747958D01*
X66707006Y-784299D01*
X66676754Y-808796D01*
X66646168Y-815297D01*
X64599036Y-815297D01*
X64561436Y-805222D01*
X64527516Y-763334D01*
X64527498Y-763279D01*
X64526572Y-757432D01*
X64505789Y-716642D01*
X64500044Y-705367D01*
X64500043Y-705366D01*
X64497355Y-700090D01*
X64478814Y-681549D01*
X64459350Y-647838D01*
X64459350Y-608912D01*
X64468053Y-588785D01*
X64471713Y-582874D01*
X64476660Y-570106D01*
X64485203Y-524406D01*
X64485840Y-517526D01*
X64485840Y-459899D01*
X64483748Y-452089D01*
X64475938Y-449997D01*
X64054939Y-449997D01*
X63125942Y-449996D01*
X63118132Y-452088D01*
X63116040Y-459898D01*
X63116040Y-516652D01*
X63117034Y-525225D01*
X63130483Y-582405D01*
X63137349Y-597030D01*
X63144209Y-635348D01*
X63122452Y-682163D01*
X63104525Y-700090D01*
X63101837Y-705366D01*
X63101836Y-705367D01*
X63087347Y-733804D01*
X63075308Y-757432D01*
X63073707Y-767541D01*
X63065910Y-816769D01*
X63065240Y-820997D01*
X63065240Y-1470997D01*
X63065702Y-1473913D01*
X63065702Y-1473915D01*
X63069202Y-1496013D01*
X63075308Y-1534562D01*
X63077995Y-1539835D01*
X63077995Y-1539836D01*
X63099343Y-1581733D01*
X63104525Y-1591904D01*
X63150033Y-1637412D01*
X63155309Y-1640100D01*
X63155310Y-1640101D01*
X63201228Y-1663497D01*
X63207375Y-1666629D01*
X63227768Y-1669859D01*
X63268022Y-1676235D01*
X63268024Y-1676235D01*
X63270940Y-1676697D01*
X64330940Y-1676697D01*
X64333856Y-1676235D01*
X64333858Y-1676235D01*
X64374112Y-1669859D01*
X64394505Y-1666629D01*
X64400652Y-1663497D01*
X64446570Y-1640101D01*
X64446571Y-1640100D01*
X64451847Y-1637412D01*
X64497355Y-1591904D01*
X64502538Y-1581733D01*
X64511131Y-1564867D01*
X64526572Y-1534562D01*
X64527498Y-1528715D01*
X64527516Y-1528660D01*
X64548717Y-1496013D01*
X64599036Y-1476697D01*
X66454387Y-1476697D01*
X66491987Y-1486772D01*
X66519512Y-1514297D01*
X66529587Y-1551897D01*
X66519512Y-1589497D01*
X66507561Y-1605071D01*
X64537858Y-3574774D01*
X64504147Y-3594238D01*
X64484684Y-3596800D01*
X63759544Y-3596800D01*
X63721944Y-3586725D01*
X63694419Y-3559200D01*
X63684344Y-3521600D01*
X63691501Y-3489582D01*
X63691843Y-3488856D01*
X63693962Y-3485384D01*
X63700002Y-3467844D01*
X63723254Y-3400313D01*
X63724580Y-3396462D01*
X63727083Y-3374833D01*
X63730130Y-3348493D01*
X63735389Y-3303040D01*
X63735400Y-3300000D01*
X63735132Y-3297528D01*
X63729338Y-3244201D01*
X63725243Y-3206504D01*
X63717084Y-3182260D01*
X63696545Y-3121229D01*
X63696543Y-3121224D01*
X63695246Y-3117371D01*
X63691677Y-3111430D01*
X63657855Y-3055141D01*
X63646809Y-3036758D01*
X63600126Y-2987392D01*
X63584985Y-2971380D01*
X63584982Y-2971378D01*
X63582191Y-2968426D01*
X63578541Y-2965945D01*
X63524461Y-2929193D01*
X63504408Y-2915565D01*
X63417088Y-2880639D01*
X63324305Y-2865279D01*
X63320238Y-2865492D01*
X63320235Y-2865492D01*
X63286429Y-2867264D01*
X63274887Y-2867869D01*
X63236811Y-2859776D01*
X63207883Y-2833729D01*
X63195854Y-2796708D01*
X63199848Y-2768290D01*
X63223252Y-2700317D01*
X63224579Y-2696463D01*
X63228771Y-2660236D01*
X63231704Y-2634880D01*
X63235388Y-2603041D01*
X63235399Y-2600001D01*
X63233472Y-2582258D01*
X63228421Y-2535765D01*
X63225242Y-2506505D01*
X63218524Y-2486542D01*
X63196544Y-2421230D01*
X63196542Y-2421225D01*
X63195245Y-2417372D01*
X63191563Y-2411243D01*
X63148903Y-2340246D01*
X63146808Y-2336759D01*
X63111802Y-2299741D01*
X63084984Y-2271381D01*
X63084981Y-2271379D01*
X63082190Y-2268427D01*
X63071527Y-2261180D01*
X63034185Y-2235803D01*
X63004407Y-2215566D01*
X62917087Y-2180640D01*
X62824304Y-2165280D01*
X62820237Y-2165493D01*
X62820234Y-2165493D01*
X62773247Y-2167956D01*
X62730387Y-2170202D01*
X62726455Y-2171285D01*
X62684857Y-2182742D01*
X62645931Y-2183013D01*
X62612085Y-2163786D01*
X62592388Y-2130211D01*
X62596192Y-2086152D01*
X62593962Y-2085384D01*
X62623254Y-2000313D01*
X62624580Y-1996462D01*
X62625091Y-1992050D01*
X62631959Y-1932682D01*
X62635389Y-1903040D01*
X62635400Y-1900000D01*
X62633202Y-1879762D01*
X62629966Y-1849984D01*
X62625243Y-1806504D01*
X62616692Y-1781096D01*
X62596545Y-1721229D01*
X62596543Y-1721224D01*
X62595246Y-1717371D01*
X62590190Y-1708955D01*
X62549623Y-1641442D01*
X62546809Y-1636758D01*
X62508355Y-1596094D01*
X62484985Y-1571380D01*
X62484982Y-1571378D01*
X62482191Y-1568426D01*
X62468863Y-1559368D01*
X62429186Y-1532404D01*
X62404408Y-1515565D01*
X62400633Y-1514055D01*
X62400631Y-1514054D01*
X62365493Y-1500000D01*
X62333112Y-1487048D01*
X62301944Y-1463731D01*
X62285840Y-1417227D01*
X62285840Y-820997D01*
X62284500Y-815297D01*
X62274944Y-774670D01*
X62269601Y-751952D01*
X62235295Y-706525D01*
X62186896Y-676557D01*
X62180049Y-675277D01*
X62134349Y-666734D01*
X62134346Y-666734D01*
X62130940Y-666097D01*
X61070940Y-666097D01*
X61066715Y-667091D01*
X61066712Y-667091D01*
X61043388Y-672577D01*
X61001895Y-682336D01*
X60956468Y-716642D01*
X60926500Y-765041D01*
X60925220Y-771888D01*
X60917106Y-815297D01*
X60916040Y-820997D01*
X60916040Y-1470997D01*
X60917034Y-1475222D01*
X60917034Y-1475225D01*
X60922524Y-1498567D01*
X60932279Y-1540042D01*
X60966585Y-1585469D01*
X61014984Y-1615437D01*
X61021831Y-1616717D01*
X61067531Y-1625260D01*
X61067534Y-1625260D01*
X61070940Y-1625897D01*
X61245840Y-1625897D01*
X61283440Y-1635972D01*
X61310965Y-1663497D01*
X61321040Y-1701097D01*
X61321041Y-2212599D01*
X61310966Y-2250199D01*
X61290177Y-2270980D01*
X61291300Y-2272444D01*
X61248352Y-2305399D01*
X61229706Y-2319706D01*
X61182444Y-2381300D01*
X61180558Y-2385852D01*
X61180558Y-2385853D01*
X61169476Y-2412607D01*
X61145779Y-2443490D01*
X61109816Y-2458387D01*
X61071223Y-2453306D01*
X61040340Y-2429609D01*
X61030524Y-2412607D01*
X61019442Y-2385853D01*
X61014557Y-2377392D01*
X60973292Y-2323613D01*
X60966387Y-2316708D01*
X60912608Y-2275443D01*
X60904148Y-2270558D01*
X60883148Y-2261860D01*
X60875132Y-2260805D01*
X60874858Y-2261162D01*
X60874000Y-2265477D01*
X60874000Y-2446001D01*
X60873999Y-2827975D01*
X60873999Y-3132027D01*
X60876091Y-3139837D01*
X60876526Y-3139953D01*
X60880842Y-3139095D01*
X60904148Y-3129441D01*
X60912608Y-3124557D01*
X60966387Y-3083292D01*
X60973292Y-3076387D01*
X61014557Y-3022608D01*
X61019442Y-3014147D01*
X61030524Y-2987393D01*
X61054221Y-2956510D01*
X61090184Y-2941613D01*
X61128777Y-2946694D01*
X61159660Y-2970391D01*
X61169476Y-2987393D01*
X61180558Y-3014147D01*
X61182444Y-3018700D01*
X61213287Y-3058896D01*
X61225223Y-3074451D01*
X61229706Y-3080294D01*
X61233613Y-3083292D01*
X61237975Y-3086639D01*
X61291300Y-3127556D01*
X61295851Y-3129441D01*
X61358478Y-3155382D01*
X61358480Y-3155382D01*
X61363027Y-3157266D01*
X61367905Y-3157908D01*
X61367908Y-3157909D01*
X61418578Y-3164580D01*
X61418583Y-3164580D01*
X61421011Y-3164900D01*
X61738989Y-3164900D01*
X61741417Y-3164580D01*
X61741422Y-3164580D01*
X61792092Y-3157909D01*
X61792095Y-3157908D01*
X61796973Y-3157266D01*
X61801520Y-3155382D01*
X61801522Y-3155382D01*
X61864149Y-3129441D01*
X61868700Y-3127556D01*
X61922025Y-3086639D01*
X61926387Y-3083292D01*
X61930294Y-3080294D01*
X61934778Y-3074451D01*
X61946713Y-3058896D01*
X61977556Y-3018700D01*
X61996838Y-2972149D01*
X62005382Y-2951522D01*
X62005382Y-2951520D01*
X62007266Y-2946973D01*
X62008107Y-2940590D01*
X62014580Y-2891422D01*
X62014580Y-2891417D01*
X62014900Y-2888989D01*
X62014900Y-2511011D01*
X62014223Y-2505869D01*
X62007909Y-2457908D01*
X62007908Y-2457905D01*
X62007266Y-2453027D01*
X61992662Y-2417769D01*
X61987581Y-2379177D01*
X62002478Y-2343213D01*
X62033360Y-2319516D01*
X62082613Y-2316633D01*
X62123469Y-2328194D01*
X62123471Y-2328194D01*
X62127389Y-2329303D01*
X62181307Y-2332506D01*
X62217207Y-2334639D01*
X62217210Y-2334639D01*
X62221269Y-2334880D01*
X62314157Y-2320168D01*
X62317237Y-2318961D01*
X62355844Y-2318826D01*
X62389623Y-2338171D01*
X62409204Y-2371814D01*
X62404790Y-2423311D01*
X62387828Y-2459687D01*
X62386941Y-2463655D01*
X62386940Y-2463658D01*
X62378961Y-2499355D01*
X62367312Y-2551467D01*
X62367214Y-2579549D01*
X62367015Y-2636758D01*
X62366984Y-2645513D01*
X62367844Y-2649489D01*
X62367844Y-2649492D01*
X62373551Y-2675886D01*
X62386858Y-2737435D01*
X62426008Y-2822944D01*
X62428458Y-2826195D01*
X62428459Y-2826197D01*
X62454940Y-2861339D01*
X62482606Y-2898053D01*
X62485694Y-2900699D01*
X62485697Y-2900703D01*
X62550915Y-2956601D01*
X62550918Y-2956603D01*
X62554012Y-2959255D01*
X62636895Y-3003697D01*
X62665396Y-3011762D01*
X62723471Y-3028196D01*
X62723475Y-3028197D01*
X62727388Y-3029304D01*
X62777555Y-3032284D01*
X62817205Y-3034640D01*
X62817208Y-3034640D01*
X62821268Y-3034881D01*
X62824825Y-3034318D01*
X62862681Y-3042500D01*
X62891519Y-3068647D01*
X62903420Y-3105709D01*
X62896464Y-3141167D01*
X62889550Y-3155994D01*
X62889548Y-3155999D01*
X62887829Y-3159686D01*
X62886942Y-3163654D01*
X62886941Y-3163657D01*
X62878463Y-3201586D01*
X62867313Y-3251466D01*
X62867264Y-3265530D01*
X62867007Y-3339298D01*
X62866985Y-3345512D01*
X62867845Y-3349488D01*
X62867845Y-3349491D01*
X62878646Y-3399448D01*
X62886859Y-3437434D01*
X62888555Y-3441139D01*
X62888556Y-3441141D01*
X62911061Y-3490295D01*
X62917553Y-3528677D01*
X62903985Y-3565162D01*
X62873992Y-3589974D01*
X62842687Y-3596800D01*
X49059544Y-3596800D01*
X49021944Y-3586725D01*
X48994419Y-3559200D01*
X48984344Y-3521600D01*
X48991501Y-3489582D01*
X48991843Y-3488856D01*
X48993962Y-3485384D01*
X49000002Y-3467844D01*
X49023254Y-3400313D01*
X49024580Y-3396462D01*
X49027083Y-3374833D01*
X49030130Y-3348493D01*
X49035389Y-3303040D01*
X49035400Y-3300000D01*
X49035132Y-3297528D01*
X49034234Y-3289268D01*
X49040189Y-3250800D01*
X49064580Y-3220463D01*
X49108994Y-3205946D01*
X49133623Y-3205946D01*
X49171223Y-3216021D01*
X49182124Y-3224662D01*
X49182607Y-3224098D01*
X49250916Y-3282646D01*
X49250919Y-3282648D01*
X49254013Y-3285300D01*
X49336896Y-3329742D01*
X49365715Y-3337897D01*
X49423472Y-3354241D01*
X49423476Y-3354242D01*
X49427389Y-3355349D01*
X49481307Y-3358552D01*
X49517207Y-3360685D01*
X49517210Y-3360685D01*
X49521269Y-3360926D01*
X49614157Y-3346214D01*
X49617946Y-3344729D01*
X49617950Y-3344728D01*
X49664607Y-3326443D01*
X49701719Y-3311899D01*
X49705106Y-3309631D01*
X49705109Y-3309630D01*
X49776484Y-3261849D01*
X49776486Y-3261848D01*
X49779870Y-3259582D01*
X49844963Y-3191703D01*
X49854766Y-3175644D01*
X49865532Y-3158005D01*
X49893962Y-3111430D01*
X49924580Y-3022508D01*
X49925235Y-3016852D01*
X49932264Y-2956091D01*
X49935389Y-2929086D01*
X49935400Y-2926046D01*
X49934262Y-2915565D01*
X49928822Y-2865492D01*
X49925243Y-2832550D01*
X49920328Y-2817944D01*
X49901983Y-2763436D01*
X49896022Y-2745723D01*
X49893578Y-2706874D01*
X49910885Y-2672007D01*
X49943308Y-2650465D01*
X49967294Y-2646537D01*
X50106878Y-2646537D01*
X50144478Y-2656612D01*
X50160052Y-2668563D01*
X50373640Y-2882152D01*
X50586036Y-3094548D01*
X50588216Y-3096821D01*
X50603846Y-3113819D01*
X50603849Y-3113821D01*
X50607317Y-3117593D01*
X50611670Y-3120292D01*
X50611675Y-3120296D01*
X50625668Y-3128971D01*
X50631508Y-3132984D01*
X50648694Y-3146030D01*
X50654884Y-3148481D01*
X50666809Y-3154479D01*
X50672464Y-3157985D01*
X50693209Y-3164012D01*
X50699889Y-3166299D01*
X50719964Y-3174248D01*
X50725065Y-3174784D01*
X50725068Y-3174785D01*
X50726576Y-3174944D01*
X50739686Y-3177516D01*
X50741578Y-3178065D01*
X50746072Y-3179371D01*
X50750726Y-3179713D01*
X50751912Y-3179800D01*
X50751918Y-3179800D01*
X50753277Y-3179900D01*
X50769801Y-3179900D01*
X50777661Y-3180312D01*
X50796196Y-3182260D01*
X50803925Y-3180953D01*
X50816464Y-3179900D01*
X51033623Y-3179900D01*
X51071223Y-3189975D01*
X51082124Y-3198616D01*
X51082607Y-3198052D01*
X51150916Y-3256600D01*
X51150919Y-3256602D01*
X51154013Y-3259254D01*
X51236896Y-3303696D01*
X51261139Y-3310556D01*
X51323472Y-3328195D01*
X51323476Y-3328196D01*
X51327389Y-3329303D01*
X51381307Y-3332506D01*
X51417207Y-3334639D01*
X51417210Y-3334639D01*
X51421269Y-3334880D01*
X51427899Y-3333830D01*
X51454959Y-3329544D01*
X51514157Y-3320168D01*
X51517946Y-3318683D01*
X51517950Y-3318682D01*
X51568825Y-3298744D01*
X51601719Y-3285853D01*
X51605106Y-3283585D01*
X51605109Y-3283584D01*
X51676484Y-3235803D01*
X51676486Y-3235802D01*
X51679870Y-3233536D01*
X51744963Y-3165657D01*
X51748200Y-3160355D01*
X51761113Y-3139199D01*
X51793962Y-3085384D01*
X51797727Y-3074451D01*
X51823254Y-3000313D01*
X51824580Y-2996462D01*
X51825354Y-2989777D01*
X51829200Y-2956527D01*
X60197620Y-2956527D01*
X60198478Y-2960840D01*
X60220559Y-3014149D01*
X60225443Y-3022608D01*
X60266708Y-3076387D01*
X60273613Y-3083292D01*
X60327392Y-3124557D01*
X60335852Y-3129442D01*
X60356852Y-3138140D01*
X60364868Y-3139195D01*
X60365142Y-3138838D01*
X60366000Y-3134523D01*
X60366000Y-2963901D01*
X60363908Y-2956091D01*
X60356098Y-2953999D01*
X60205546Y-2953999D01*
X60197736Y-2956091D01*
X60197620Y-2956527D01*
X51829200Y-2956527D01*
X51832516Y-2927873D01*
X51835389Y-2903040D01*
X51835400Y-2900000D01*
X51834919Y-2895567D01*
X51828201Y-2833729D01*
X51825243Y-2806504D01*
X51822258Y-2797635D01*
X51796545Y-2721229D01*
X51796543Y-2721224D01*
X51795246Y-2717371D01*
X51791903Y-2711806D01*
X51757538Y-2654614D01*
X51746809Y-2636758D01*
X51710198Y-2598043D01*
X51684985Y-2571380D01*
X51684982Y-2571378D01*
X51682191Y-2568426D01*
X51668844Y-2559355D01*
X51636458Y-2537346D01*
X51604408Y-2515565D01*
X51517088Y-2480639D01*
X51424305Y-2465279D01*
X51420238Y-2465492D01*
X51420235Y-2465492D01*
X51330388Y-2470201D01*
X51330348Y-2469432D01*
X51296253Y-2465966D01*
X51264683Y-2443193D01*
X51248728Y-2407687D01*
X51258775Y-2356489D01*
X51271913Y-2334967D01*
X51285141Y-2313296D01*
X51291983Y-2302087D01*
X51291984Y-2302084D01*
X51294105Y-2298610D01*
X51304982Y-2267021D01*
X51326749Y-2234750D01*
X51361736Y-2217686D01*
X51400568Y-2220401D01*
X51425021Y-2234405D01*
X51454013Y-2259254D01*
X51536896Y-2303696D01*
X51558983Y-2309946D01*
X51623472Y-2328195D01*
X51623476Y-2328196D01*
X51627389Y-2329303D01*
X51681307Y-2332506D01*
X51717207Y-2334639D01*
X51717210Y-2334639D01*
X51721269Y-2334880D01*
X51814157Y-2320168D01*
X51817946Y-2318683D01*
X51817950Y-2318682D01*
X51859808Y-2302278D01*
X51901719Y-2285853D01*
X51905106Y-2283585D01*
X51905109Y-2283584D01*
X51976484Y-2235803D01*
X51976486Y-2235802D01*
X51979870Y-2233536D01*
X52044963Y-2165657D01*
X52048725Y-2159495D01*
X52066599Y-2130211D01*
X52093962Y-2085384D01*
X52124580Y-1996462D01*
X52125091Y-1992050D01*
X52129511Y-1953842D01*
X52134520Y-1910547D01*
X52148850Y-1874355D01*
X52179356Y-1850176D01*
X52217865Y-1844489D01*
X52251427Y-1857037D01*
X52254013Y-1859254D01*
X52257598Y-1861176D01*
X52257602Y-1861179D01*
X52292260Y-1879762D01*
X52336896Y-1903696D01*
X52372580Y-1913794D01*
X52423472Y-1928195D01*
X52423476Y-1928196D01*
X52427389Y-1929303D01*
X52481307Y-1932506D01*
X52517207Y-1934639D01*
X52517210Y-1934639D01*
X52521269Y-1934880D01*
X52614157Y-1920168D01*
X52617946Y-1918683D01*
X52617950Y-1918682D01*
X52665620Y-1900000D01*
X52701719Y-1885853D01*
X52705106Y-1883585D01*
X52705109Y-1883584D01*
X52776485Y-1835802D01*
X52779870Y-1833536D01*
X52809104Y-1803051D01*
X52842400Y-1782886D01*
X52863380Y-1779900D01*
X54585550Y-1779900D01*
X54623150Y-1789975D01*
X54650675Y-1817500D01*
X54658188Y-1874563D01*
X54655049Y-1886278D01*
X54645100Y-2000000D01*
X54655049Y-2113722D01*
X54684595Y-2223989D01*
X54685984Y-2226967D01*
X54685984Y-2226968D01*
X54693042Y-2242104D01*
X54732840Y-2327450D01*
X54798317Y-2420962D01*
X54879038Y-2501683D01*
X54881733Y-2503570D01*
X54964010Y-2561180D01*
X54972550Y-2567160D01*
X55004928Y-2582258D01*
X55071330Y-2613222D01*
X55076011Y-2615405D01*
X55186278Y-2644951D01*
X55300000Y-2654900D01*
X55413722Y-2644951D01*
X55523989Y-2615405D01*
X55528671Y-2613222D01*
X55595072Y-2582258D01*
X55627450Y-2567160D01*
X55635991Y-2561180D01*
X55718267Y-2503570D01*
X55720962Y-2501683D01*
X55801683Y-2420962D01*
X55867160Y-2327450D01*
X55906958Y-2242104D01*
X55914016Y-2226968D01*
X55914016Y-2226967D01*
X55915405Y-2223989D01*
X55944951Y-2113722D01*
X55954900Y-2000000D01*
X56645100Y-2000000D01*
X56655049Y-2113722D01*
X56684595Y-2223989D01*
X56685984Y-2226967D01*
X56685984Y-2226968D01*
X56693042Y-2242104D01*
X56732840Y-2327450D01*
X56798317Y-2420962D01*
X56879038Y-2501683D01*
X56881733Y-2503570D01*
X56964010Y-2561180D01*
X56972550Y-2567160D01*
X57004928Y-2582258D01*
X57071330Y-2613222D01*
X57076011Y-2615405D01*
X57186278Y-2644951D01*
X57300000Y-2654900D01*
X57413722Y-2644951D01*
X57523989Y-2615405D01*
X57528671Y-2613222D01*
X57595072Y-2582258D01*
X57627450Y-2567160D01*
X57635991Y-2561180D01*
X57718267Y-2503570D01*
X57720962Y-2501683D01*
X57777777Y-2444868D01*
X60198379Y-2444868D01*
X60198736Y-2445142D01*
X60203051Y-2446000D01*
X60356099Y-2446000D01*
X60363909Y-2443908D01*
X60366001Y-2436098D01*
X60366001Y-2267973D01*
X60363909Y-2260163D01*
X60363474Y-2260047D01*
X60359158Y-2260905D01*
X60335852Y-2270559D01*
X60327392Y-2275443D01*
X60273613Y-2316708D01*
X60266708Y-2323613D01*
X60225443Y-2377392D01*
X60220558Y-2385852D01*
X60199434Y-2436852D01*
X60198379Y-2444868D01*
X57777777Y-2444868D01*
X57801683Y-2420962D01*
X57834249Y-2374452D01*
X57861897Y-2334967D01*
X57891716Y-2309946D01*
X57923497Y-2302900D01*
X58476087Y-2302900D01*
X58485902Y-2303543D01*
X58500000Y-2305399D01*
X58518977Y-2302901D01*
X58518985Y-2302900D01*
X58518990Y-2302900D01*
X58518999Y-2302899D01*
X58519009Y-2302898D01*
X58551576Y-2298610D01*
X58579043Y-2294994D01*
X58583595Y-2293109D01*
X58583597Y-2293108D01*
X58637017Y-2270980D01*
X58652700Y-2264484D01*
X58701591Y-2226968D01*
X58712043Y-2218948D01*
X58715950Y-2215950D01*
X58724614Y-2204659D01*
X58731100Y-2197264D01*
X58857617Y-2070747D01*
X58891328Y-2051283D01*
X58918852Y-2049697D01*
X58918865Y-2049442D01*
X58921192Y-2049562D01*
X58921193Y-2049562D01*
X58922443Y-2049626D01*
X58922447Y-2049627D01*
X59020652Y-2054687D01*
X59020654Y-2054687D01*
X59024226Y-2054871D01*
X59128713Y-2040280D01*
X59228555Y-2006193D01*
X59267319Y-1984038D01*
X59317041Y-1955620D01*
X59317045Y-1955617D01*
X59320151Y-1953842D01*
X59322868Y-1951509D01*
X59322871Y-1951507D01*
X59389126Y-1894618D01*
X59400194Y-1885115D01*
X59452346Y-1819434D01*
X59463574Y-1805294D01*
X59465798Y-1802493D01*
X59514594Y-1708955D01*
X59544822Y-1607878D01*
X59555392Y-1502908D01*
X59555400Y-1500000D01*
X59555105Y-1496906D01*
X59545720Y-1398535D01*
X59545719Y-1398530D01*
X59545380Y-1394976D01*
X59544374Y-1391546D01*
X59521415Y-1313286D01*
X59520498Y-1274370D01*
X59539162Y-1240210D01*
X59572405Y-1219958D01*
X59611321Y-1219041D01*
X59639352Y-1232457D01*
X59678751Y-1262688D01*
X59687216Y-1267576D01*
X59738216Y-1288700D01*
X59746232Y-1289755D01*
X59746506Y-1289398D01*
X59747364Y-1285083D01*
X59747364Y-1132036D01*
X60255363Y-1132036D01*
X60255363Y-1282588D01*
X60257455Y-1290398D01*
X60257891Y-1290514D01*
X60262204Y-1289656D01*
X60315513Y-1267575D01*
X60323972Y-1262691D01*
X60377751Y-1221426D01*
X60384656Y-1214521D01*
X60425921Y-1160742D01*
X60430806Y-1152282D01*
X60439504Y-1131282D01*
X60440559Y-1123266D01*
X60440202Y-1122992D01*
X60435887Y-1122134D01*
X60265265Y-1122134D01*
X60257455Y-1124226D01*
X60255363Y-1132036D01*
X59747364Y-1132036D01*
X59747364Y-1132035D01*
X59745272Y-1124225D01*
X59737462Y-1122133D01*
X59569337Y-1122133D01*
X59561528Y-1124225D01*
X59561360Y-1124851D01*
X59541897Y-1158563D01*
X59508186Y-1178026D01*
X59469260Y-1178027D01*
X59429585Y-1151842D01*
X59402205Y-1116985D01*
X59322522Y-1047840D01*
X59231202Y-995010D01*
X59227829Y-993839D01*
X59227823Y-993836D01*
X59154647Y-968426D01*
X59131540Y-960402D01*
X59128004Y-959889D01*
X59128003Y-959889D01*
X59042524Y-947495D01*
X59027131Y-945263D01*
X59023564Y-945428D01*
X59023562Y-945428D01*
X58925319Y-949975D01*
X58925314Y-949976D01*
X58921743Y-950141D01*
X58819179Y-974859D01*
X58815919Y-976341D01*
X58815917Y-976342D01*
X58734955Y-1013154D01*
X58723140Y-1018526D01*
X58720222Y-1020596D01*
X58720220Y-1020597D01*
X58647779Y-1071983D01*
X58637090Y-1079565D01*
X58634619Y-1082146D01*
X58634617Y-1082148D01*
X58622147Y-1095175D01*
X58564135Y-1155775D01*
X58562196Y-1158778D01*
X58562192Y-1158783D01*
X58526203Y-1214521D01*
X58506907Y-1244405D01*
X58467472Y-1342258D01*
X58447251Y-1445802D01*
X58447144Y-1486772D01*
X58447000Y-1541859D01*
X58446975Y-1551303D01*
X58450226Y-1568426D01*
X58451262Y-1573882D01*
X58448376Y-1612701D01*
X58430555Y-1641081D01*
X58396562Y-1675074D01*
X58362851Y-1694538D01*
X58343388Y-1697100D01*
X57923497Y-1697100D01*
X57885897Y-1687025D01*
X57861897Y-1665033D01*
X57803570Y-1581733D01*
X57801683Y-1579038D01*
X57720962Y-1498317D01*
X57675739Y-1466652D01*
X57630141Y-1434724D01*
X57630139Y-1434723D01*
X57627450Y-1432840D01*
X57546251Y-1394976D01*
X57526968Y-1385984D01*
X57526967Y-1385984D01*
X57523989Y-1384595D01*
X57413722Y-1355049D01*
X57300000Y-1345100D01*
X57186278Y-1355049D01*
X57076011Y-1384595D01*
X57073033Y-1385984D01*
X57073032Y-1385984D01*
X57053749Y-1394976D01*
X56972550Y-1432840D01*
X56969861Y-1434723D01*
X56969859Y-1434724D01*
X56924261Y-1466652D01*
X56879038Y-1498317D01*
X56798317Y-1579038D01*
X56796430Y-1581733D01*
X56742235Y-1659133D01*
X56732840Y-1672550D01*
X56711328Y-1718682D01*
X56687404Y-1769988D01*
X56684595Y-1776011D01*
X56683745Y-1779182D01*
X56683745Y-1779183D01*
X56682753Y-1782886D01*
X56655049Y-1886278D01*
X56645100Y-2000000D01*
X55954900Y-2000000D01*
X55944951Y-1886278D01*
X55917247Y-1782886D01*
X55916255Y-1779183D01*
X55916255Y-1779182D01*
X55915405Y-1776011D01*
X55912597Y-1769988D01*
X55888672Y-1718682D01*
X55867160Y-1672550D01*
X55857766Y-1659133D01*
X55803570Y-1581733D01*
X55801683Y-1579038D01*
X55720962Y-1498317D01*
X55675739Y-1466652D01*
X55630141Y-1434724D01*
X55630139Y-1434723D01*
X55627450Y-1432840D01*
X55546251Y-1394976D01*
X55526968Y-1385984D01*
X55526967Y-1385984D01*
X55523989Y-1384595D01*
X55413722Y-1355049D01*
X55300000Y-1345100D01*
X55186278Y-1355049D01*
X55183106Y-1355899D01*
X55183100Y-1355900D01*
X55112211Y-1374895D01*
X55073284Y-1374896D01*
X55039572Y-1355432D01*
X55029653Y-1345512D01*
X54989602Y-1305461D01*
X54987424Y-1303190D01*
X54971780Y-1286178D01*
X54971779Y-1286177D01*
X54968312Y-1282407D01*
X54963960Y-1279708D01*
X54963958Y-1279707D01*
X54957779Y-1275876D01*
X54949949Y-1271021D01*
X54944115Y-1267011D01*
X54931016Y-1257068D01*
X54931014Y-1257067D01*
X54926934Y-1253970D01*
X54920755Y-1251523D01*
X54908815Y-1245518D01*
X54903165Y-1242015D01*
X54882409Y-1235985D01*
X54875737Y-1233700D01*
X54855664Y-1225752D01*
X54849059Y-1225058D01*
X54835939Y-1222483D01*
X54829557Y-1220629D01*
X54825630Y-1220341D01*
X54825626Y-1220340D01*
X54823717Y-1220200D01*
X54823711Y-1220200D01*
X54822352Y-1220100D01*
X54805828Y-1220100D01*
X54797967Y-1219688D01*
X54791811Y-1219041D01*
X54779433Y-1217740D01*
X54771704Y-1219047D01*
X54759165Y-1220100D01*
X52863443Y-1220100D01*
X52825843Y-1210025D01*
X52808804Y-1196568D01*
X52784989Y-1171384D01*
X52784985Y-1171381D01*
X52782191Y-1168426D01*
X52778541Y-1165945D01*
X52736150Y-1137137D01*
X52704408Y-1115565D01*
X52617088Y-1080639D01*
X52524305Y-1065279D01*
X52520238Y-1065492D01*
X52520235Y-1065492D01*
X52473248Y-1067955D01*
X52430388Y-1070201D01*
X52426461Y-1071283D01*
X52426459Y-1071283D01*
X52386999Y-1082152D01*
X52339719Y-1095175D01*
X52256527Y-1139037D01*
X52253414Y-1141668D01*
X52187805Y-1197112D01*
X52187802Y-1197115D01*
X52184696Y-1199740D01*
X52127574Y-1274451D01*
X52125853Y-1278142D01*
X52089548Y-1355998D01*
X52089546Y-1356004D01*
X52087829Y-1359686D01*
X52086942Y-1363654D01*
X52086941Y-1363657D01*
X52084429Y-1374895D01*
X52067313Y-1451466D01*
X52067270Y-1463731D01*
X52067198Y-1484430D01*
X52056992Y-1521995D01*
X52029371Y-1549424D01*
X51991736Y-1559368D01*
X51949729Y-1546365D01*
X51929186Y-1532404D01*
X51904408Y-1515565D01*
X51817088Y-1480639D01*
X51724305Y-1465279D01*
X51720238Y-1465492D01*
X51720236Y-1465492D01*
X51712249Y-1465911D01*
X51697697Y-1466674D01*
X51659623Y-1458581D01*
X51640588Y-1444751D01*
X51599012Y-1403175D01*
X51579548Y-1369464D01*
X51579548Y-1330538D01*
X51599012Y-1296827D01*
X52593913Y-301926D01*
X52627624Y-282462D01*
X52647087Y-279900D01*
X54662760Y-279900D01*
X54700360Y-289975D01*
X54729520Y-321799D01*
X54729811Y-321631D01*
X54730570Y-322945D01*
X54730915Y-323322D01*
X54732840Y-327450D01*
X54734723Y-330139D01*
X54734724Y-330141D01*
X54768186Y-377930D01*
X54798317Y-420962D01*
X54879038Y-501683D01*
X54881733Y-503570D01*
X54964414Y-561463D01*
X54972550Y-567160D01*
X54981392Y-571283D01*
X55053668Y-604986D01*
X55076011Y-615405D01*
X55186278Y-644951D01*
X55300000Y-654900D01*
X55413722Y-644951D01*
X55523989Y-615405D01*
X55545953Y-605163D01*
X57057005Y-605163D01*
X57057661Y-606298D01*
X57060014Y-607945D01*
X57073032Y-614016D01*
X57079183Y-616255D01*
X57183107Y-644101D01*
X57189549Y-645237D01*
X57296731Y-654614D01*
X57303269Y-654614D01*
X57410451Y-645237D01*
X57416893Y-644101D01*
X57520817Y-616255D01*
X57526968Y-614016D01*
X57536978Y-609348D01*
X57543173Y-604150D01*
X57542946Y-602861D01*
X57541297Y-600507D01*
X57307000Y-366210D01*
X57300000Y-362168D01*
X57293000Y-366210D01*
X57061047Y-598163D01*
X57057005Y-605163D01*
X55545953Y-605163D01*
X55546333Y-604986D01*
X55618608Y-571283D01*
X55627450Y-567160D01*
X55635587Y-561463D01*
X55718267Y-503570D01*
X55720962Y-501683D01*
X55801683Y-420962D01*
X55831814Y-377930D01*
X55865276Y-330141D01*
X55865277Y-330139D01*
X55867160Y-327450D01*
X55907685Y-240544D01*
X55914016Y-226968D01*
X55914016Y-226967D01*
X55915405Y-223989D01*
X55944951Y-113722D01*
X55954900Y0D01*
X55954615Y3269D01*
X56645386Y3269D01*
X56645386Y-3269D01*
X56654763Y-110451D01*
X56655899Y-116893D01*
X56683745Y-220817D01*
X56685984Y-226968D01*
X56690652Y-236978D01*
X56695850Y-243173D01*
X56697139Y-242946D01*
X56699493Y-241297D01*
X56933790Y-7000D01*
X56937832Y0D01*
X57662168Y0D01*
X57666210Y-7000D01*
X57898163Y-238953D01*
X57905163Y-242995D01*
X57906298Y-242339D01*
X57907945Y-239986D01*
X57914016Y-226968D01*
X57916255Y-220817D01*
X57944101Y-116893D01*
X57945237Y-110451D01*
X57954614Y-3269D01*
X57954614Y3269D01*
X57945237Y110451D01*
X57944101Y116893D01*
X57916255Y220817D01*
X57914016Y226968D01*
X57909348Y236978D01*
X57904150Y243173D01*
X57902861Y242946D01*
X57900507Y241297D01*
X57666210Y7000D01*
X57662168Y0D01*
X56937832Y0D01*
X56933790Y7000D01*
X56701837Y238953D01*
X56694837Y242995D01*
X56693702Y242339D01*
X56692055Y239986D01*
X56685984Y226968D01*
X56683745Y220817D01*
X56655899Y116893D01*
X56654763Y110451D01*
X56645386Y3269D01*
X55954615Y3269D01*
X55944951Y113722D01*
X55916624Y219441D01*
X55916255Y220817D01*
X55916255Y220818D01*
X55915405Y223989D01*
X55909164Y237374D01*
X55891739Y274740D01*
X55867160Y327450D01*
X55864273Y331574D01*
X55803570Y418267D01*
X55801683Y420962D01*
X55720962Y501683D01*
X55662012Y542960D01*
X55630141Y565276D01*
X55630139Y565277D01*
X55627450Y567160D01*
X55606893Y576746D01*
X55577074Y601767D01*
X55576207Y604150D01*
X57056827Y604150D01*
X57057054Y602861D01*
X57058703Y600507D01*
X57293000Y366210D01*
X57300000Y362168D01*
X57307000Y366210D01*
X57538953Y598163D01*
X57542995Y605163D01*
X57542339Y606298D01*
X57539986Y607945D01*
X57526968Y614016D01*
X57520817Y616255D01*
X57416893Y644101D01*
X57410451Y645237D01*
X57303269Y654614D01*
X57296731Y654614D01*
X57189549Y645237D01*
X57183107Y644101D01*
X57079183Y616255D01*
X57073032Y614016D01*
X57063022Y609348D01*
X57056827Y604150D01*
X55576207Y604150D01*
X55563760Y638346D01*
X55570520Y676681D01*
X55595541Y706500D01*
X55638674Y720100D01*
X56295251Y720100D01*
X56298399Y720034D01*
X56326575Y718853D01*
X56331560Y720022D01*
X56331567Y720023D01*
X56347596Y723783D01*
X56354561Y725074D01*
X56363953Y726361D01*
X56375943Y728003D01*
X56380653Y730041D01*
X56382050Y730645D01*
X56394735Y734840D01*
X56396213Y735187D01*
X56396216Y735188D01*
X56401203Y736358D01*
X56420128Y746761D01*
X56426451Y749859D01*
X56446291Y758445D01*
X56451457Y762628D01*
X56462553Y770084D01*
X56468374Y773284D01*
X56473842Y778005D01*
X56485513Y789676D01*
X56491362Y794943D01*
X56501877Y803458D01*
X56505861Y806684D01*
X56510409Y813083D01*
X56518529Y822692D01*
X57048799Y1352960D01*
X57082510Y1372423D01*
X57121436Y1372423D01*
X57132420Y1369480D01*
X57186278Y1355049D01*
X57300000Y1345100D01*
X57413722Y1355049D01*
X57520500Y1383660D01*
X57520817Y1383745D01*
X57520818Y1383745D01*
X57523989Y1384595D01*
X57533050Y1388820D01*
X57598630Y1419401D01*
X57627450Y1432840D01*
X57644620Y1444862D01*
X57718267Y1496430D01*
X57720962Y1498317D01*
X57740749Y1518104D01*
X57774460Y1537568D01*
X57813386Y1537568D01*
X57847097Y1518104D01*
X57866561Y1484393D01*
X57868654Y1456546D01*
X57868201Y1452506D01*
X57867313Y1448534D01*
X57867253Y1431405D01*
X57867016Y1363239D01*
X57866985Y1354488D01*
X57867845Y1350512D01*
X57867845Y1350509D01*
X57875707Y1314147D01*
X57886859Y1262566D01*
X57926009Y1177057D01*
X57928459Y1173806D01*
X57928460Y1173804D01*
X57964097Y1126512D01*
X57982607Y1101948D01*
X57985695Y1099302D01*
X57985698Y1099298D01*
X58050916Y1043400D01*
X58050919Y1043398D01*
X58054013Y1040746D01*
X58136896Y996304D01*
X58155435Y991058D01*
X58223472Y971805D01*
X58223476Y971804D01*
X58227389Y970697D01*
X58281307Y967494D01*
X58317207Y965361D01*
X58317210Y965361D01*
X58321269Y965120D01*
X58414157Y979832D01*
X58417946Y981317D01*
X58417950Y981318D01*
X58497920Y1012658D01*
X58497921Y1012659D01*
X58501719Y1014147D01*
X58502807Y1014875D01*
X58539667Y1023115D01*
X58576813Y1011475D01*
X58599866Y984022D01*
X58601822Y985151D01*
X58604290Y980877D01*
X58606174Y976328D01*
X58652642Y915770D01*
X58713200Y869302D01*
X58734991Y860276D01*
X58779167Y841977D01*
X58779169Y841976D01*
X58783721Y840091D01*
X58840410Y832628D01*
X59148390Y832628D01*
X59205079Y840091D01*
X59209631Y841976D01*
X59209633Y841977D01*
X59253809Y860276D01*
X59275600Y869302D01*
X59336158Y915770D01*
X59382626Y976328D01*
X59395805Y1008144D01*
X59409951Y1042295D01*
X59409952Y1042297D01*
X59411837Y1046849D01*
X59419300Y1103538D01*
X59419300Y1511518D01*
X59411837Y1568207D01*
X59408594Y1576038D01*
X59387844Y1626131D01*
X59382626Y1638728D01*
X59340509Y1693616D01*
X59339156Y1695379D01*
X59336158Y1699286D01*
X59314744Y1715718D01*
X59288332Y1735984D01*
X59275600Y1745754D01*
X59228864Y1765113D01*
X59209633Y1773079D01*
X59209631Y1773080D01*
X59205079Y1774965D01*
X59148390Y1782428D01*
X58840410Y1782428D01*
X58783721Y1774965D01*
X58779169Y1773080D01*
X58779167Y1773079D01*
X58759936Y1765113D01*
X58713200Y1745754D01*
X58709296Y1742758D01*
X58709292Y1742756D01*
X58683322Y1722828D01*
X58647358Y1707931D01*
X58608765Y1713012D01*
X58588770Y1726780D01*
X58588087Y1725978D01*
X58584990Y1728614D01*
X58582191Y1731574D01*
X58578826Y1733861D01*
X58578820Y1733866D01*
X58573258Y1737646D01*
X58547824Y1767114D01*
X58540531Y1805351D01*
X58553334Y1842112D01*
X58573693Y1862329D01*
X58579870Y1866464D01*
X58644963Y1934343D01*
X58662191Y1962566D01*
X58690952Y2009685D01*
X58719141Y2036529D01*
X58774604Y2043142D01*
X58774767Y2043098D01*
X58779321Y2041212D01*
X58836010Y2033749D01*
X59143990Y2033749D01*
X59200679Y2041212D01*
X59205231Y2043097D01*
X59205233Y2043098D01*
X59248362Y2060963D01*
X59271200Y2070423D01*
X59331758Y2116891D01*
X59378226Y2177449D01*
X59399579Y2228999D01*
X59405551Y2243416D01*
X59405552Y2243419D01*
X59407437Y2247970D01*
X59414900Y2304659D01*
X59414900Y2712639D01*
X59407437Y2769328D01*
X59403844Y2778004D01*
X59384072Y2825735D01*
X59378226Y2839849D01*
X59331758Y2900407D01*
X59309493Y2917492D01*
X59286536Y2935107D01*
X59271200Y2946875D01*
X59234512Y2962072D01*
X59205233Y2974200D01*
X59205231Y2974201D01*
X59200679Y2976086D01*
X59143990Y2983549D01*
X58836010Y2983549D01*
X58779321Y2976086D01*
X58774769Y2974201D01*
X58774767Y2974200D01*
X58745488Y2962072D01*
X58708800Y2946875D01*
X58693464Y2935107D01*
X58670508Y2917492D01*
X58648242Y2900407D01*
X58601774Y2839849D01*
X58599890Y2835302D01*
X58599886Y2835294D01*
X58596444Y2826984D01*
X58572747Y2796101D01*
X58542508Y2783483D01*
X58542721Y2782720D01*
X58537785Y2781342D01*
X58532706Y2780646D01*
X58528001Y2778610D01*
X58526599Y2778004D01*
X58513914Y2773809D01*
X58512436Y2773462D01*
X58512433Y2773461D01*
X58507446Y2772291D01*
X58488521Y2761888D01*
X58482198Y2758790D01*
X58462358Y2750204D01*
X58457192Y2746021D01*
X58446098Y2738566D01*
X58440275Y2735365D01*
X58434806Y2730644D01*
X58423131Y2718969D01*
X58417283Y2713703D01*
X58402788Y2701965D01*
X58399821Y2697790D01*
X58399818Y2697787D01*
X58398242Y2695569D01*
X58390120Y2685959D01*
X58360101Y2655940D01*
X58310863Y2634017D01*
X58264331Y2631578D01*
X58230388Y2629799D01*
X58226461Y2628717D01*
X58226459Y2628717D01*
X58148156Y2607149D01*
X58139719Y2604825D01*
X58056527Y2560963D01*
X58044157Y2550509D01*
X57987805Y2502888D01*
X57987802Y2502885D01*
X57984696Y2500260D01*
X57982225Y2497028D01*
X57982224Y2497027D01*
X57953043Y2458860D01*
X57927574Y2425549D01*
X57926950Y2424211D01*
X57899635Y2398017D01*
X57861832Y2388733D01*
X57824452Y2399593D01*
X57806482Y2416430D01*
X57805678Y2415755D01*
X57803570Y2418267D01*
X57801683Y2420962D01*
X57720962Y2501683D01*
X57680808Y2529799D01*
X57630141Y2565276D01*
X57630139Y2565277D01*
X57627450Y2567160D01*
X57563400Y2597027D01*
X57526968Y2614016D01*
X57526967Y2614016D01*
X57523989Y2615405D01*
X57512562Y2618467D01*
X57474308Y2628717D01*
X57413722Y2644951D01*
X57300000Y2654900D01*
X57186278Y2644951D01*
X57125692Y2628717D01*
X57087439Y2618467D01*
X57076011Y2615405D01*
X57073033Y2614016D01*
X57073032Y2614016D01*
X57036600Y2597027D01*
X56972550Y2567160D01*
X56969861Y2565277D01*
X56969859Y2565276D01*
X56919192Y2529799D01*
X56879038Y2501683D01*
X56798317Y2420962D01*
X56796430Y2418267D01*
X56740957Y2339042D01*
X56732840Y2327450D01*
X56715917Y2291159D01*
X56686657Y2228410D01*
X56684595Y2223989D01*
X56655049Y2113722D01*
X56645100Y2000000D01*
X56655049Y1886278D01*
X56666288Y1844335D01*
X56672424Y1821434D01*
X56672424Y1782508D01*
X56652960Y1748797D01*
X56206089Y1301926D01*
X56172378Y1282462D01*
X56152915Y1279900D01*
X55638674Y1279900D01*
X55601074Y1289975D01*
X55573549Y1317500D01*
X55563474Y1355100D01*
X55573549Y1392700D01*
X55606893Y1423254D01*
X55618291Y1428569D01*
X55627450Y1432840D01*
X55644620Y1444862D01*
X55718267Y1496430D01*
X55720962Y1498317D01*
X55801683Y1579038D01*
X55820437Y1605822D01*
X55865276Y1669859D01*
X55865277Y1669861D01*
X55867160Y1672550D01*
X55901858Y1746960D01*
X55914016Y1773032D01*
X55914016Y1773033D01*
X55915405Y1776011D01*
X55944951Y1886278D01*
X55954900Y2000000D01*
X55944951Y2113722D01*
X55915405Y2223989D01*
X55913344Y2228410D01*
X55884083Y2291159D01*
X55867160Y2327450D01*
X55859044Y2339042D01*
X55803570Y2418267D01*
X55801683Y2420962D01*
X55720962Y2501683D01*
X55680808Y2529799D01*
X55630141Y2565276D01*
X55630139Y2565277D01*
X55627450Y2567160D01*
X55563400Y2597027D01*
X55526968Y2614016D01*
X55526967Y2614016D01*
X55523989Y2615405D01*
X55512562Y2618467D01*
X55474308Y2628717D01*
X55413722Y2644951D01*
X55300000Y2654900D01*
X55186278Y2644951D01*
X55125692Y2628717D01*
X55087439Y2618467D01*
X55076011Y2615405D01*
X55073033Y2614016D01*
X55073032Y2614016D01*
X55036600Y2597027D01*
X54972550Y2567160D01*
X54969861Y2565277D01*
X54969859Y2565276D01*
X54919192Y2529799D01*
X54879038Y2501683D01*
X54798317Y2420962D01*
X54796430Y2418267D01*
X54740957Y2339042D01*
X54732840Y2327450D01*
X54715917Y2291159D01*
X54686657Y2228410D01*
X54684595Y2223989D01*
X54655049Y2113722D01*
X54645100Y2000000D01*
X54655049Y1886278D01*
X54655899Y1883107D01*
X54658188Y1874563D01*
X54658188Y1835637D01*
X54638724Y1801925D01*
X54585550Y1779900D01*
X50617946Y1779900D01*
X50580346Y1789975D01*
X50552821Y1817500D01*
X50542746Y1855100D01*
X50552821Y1892700D01*
X50564772Y1908274D01*
X51003308Y2346810D01*
X51037019Y2366274D01*
X51060941Y2368704D01*
X51085510Y2367244D01*
X51117207Y2365361D01*
X51117210Y2365361D01*
X51121269Y2365120D01*
X51214157Y2379832D01*
X51217946Y2381317D01*
X51217950Y2381318D01*
X51270320Y2401842D01*
X51301719Y2414147D01*
X51305106Y2416415D01*
X51305109Y2416416D01*
X51376484Y2464197D01*
X51376486Y2464198D01*
X51379870Y2466464D01*
X51444963Y2534343D01*
X51448872Y2540746D01*
X51466364Y2569403D01*
X51493962Y2614616D01*
X51524580Y2703538D01*
X51525460Y2711139D01*
X51533266Y2778610D01*
X51535389Y2796960D01*
X51535400Y2800000D01*
X51533754Y2815157D01*
X51529063Y2858332D01*
X51525243Y2893496D01*
X51522628Y2901265D01*
X51496545Y2978771D01*
X51496543Y2978776D01*
X51495246Y2982629D01*
X51492771Y2986749D01*
X51460326Y3040746D01*
X51446809Y3063242D01*
X51412707Y3099304D01*
X51384985Y3128620D01*
X51384982Y3128622D01*
X51382191Y3131574D01*
X51378697Y3133949D01*
X51315264Y3177057D01*
X51304408Y3184435D01*
X51217088Y3219361D01*
X51124305Y3234721D01*
X51120238Y3234508D01*
X51120235Y3234508D01*
X51076564Y3232219D01*
X51030388Y3229799D01*
X51026461Y3228717D01*
X51026459Y3228717D01*
X50962642Y3211139D01*
X50939719Y3204825D01*
X50856527Y3160963D01*
X50835744Y3143400D01*
X50787805Y3102888D01*
X50787802Y3102885D01*
X50784696Y3100260D01*
X50782225Y3097028D01*
X50782224Y3097027D01*
X50777947Y3091433D01*
X50727574Y3025549D01*
X50727001Y3024321D01*
X50699725Y2998161D01*
X50661923Y2988873D01*
X50624542Y2999732D01*
X50595802Y3031873D01*
X50595246Y3033526D01*
X50591168Y3040314D01*
X50559190Y3093533D01*
X50546809Y3114139D01*
X50511803Y3151157D01*
X50484985Y3179517D01*
X50484982Y3179519D01*
X50482191Y3182471D01*
X50475963Y3186704D01*
X50414284Y3228620D01*
X50404408Y3235332D01*
X50317088Y3270258D01*
X50224305Y3285618D01*
X50220238Y3285405D01*
X50220235Y3285405D01*
X50173248Y3282942D01*
X50130388Y3280696D01*
X50126461Y3279614D01*
X50126459Y3279614D01*
X50043647Y3256804D01*
X50039719Y3255722D01*
X50036116Y3253823D01*
X50036115Y3253822D01*
X50004431Y3237117D01*
X49966472Y3228493D01*
X49929286Y3240004D01*
X49902838Y3268566D01*
X49894214Y3306525D01*
X49898256Y3328121D01*
X49898430Y3328624D01*
X49921884Y3396741D01*
X49932693Y3490163D01*
X49932704Y3493203D01*
X49932132Y3498473D01*
X49922987Y3582647D01*
X49922547Y3586699D01*
X49920260Y3593496D01*
X49893849Y3671974D01*
X49893847Y3671979D01*
X49892550Y3675832D01*
X49871425Y3710991D01*
X49846208Y3752958D01*
X49844113Y3756445D01*
X49803589Y3799298D01*
X49782289Y3821823D01*
X49782286Y3821825D01*
X49779495Y3824777D01*
X49773698Y3828717D01*
X49711690Y3870857D01*
X49701712Y3877638D01*
X49614392Y3912564D01*
X49521609Y3927924D01*
X49517542Y3927711D01*
X49517539Y3927711D01*
X49470552Y3925248D01*
X49427692Y3923002D01*
X49423765Y3921920D01*
X49423763Y3921920D01*
X49350474Y3901733D01*
X49337023Y3898028D01*
X49253831Y3854166D01*
X49250720Y3851537D01*
X49250717Y3851535D01*
X49218325Y3824161D01*
X49183103Y3807587D01*
X49144313Y3810844D01*
X49112349Y3833059D01*
X49095775Y3868281D01*
X49099032Y3907071D01*
X49110894Y3928360D01*
X49163570Y3994700D01*
X49163574Y3994706D01*
X49165798Y3997507D01*
X49214594Y4091045D01*
X49244822Y4192122D01*
X49255392Y4297092D01*
X49255400Y4300000D01*
X49253153Y4323553D01*
X49245720Y4401465D01*
X49245719Y4401470D01*
X49245380Y4405024D01*
X49215681Y4506258D01*
X49167375Y4600049D01*
X49102205Y4683015D01*
X49022522Y4752160D01*
X48931202Y4804990D01*
X48927829Y4806161D01*
X48927823Y4806164D01*
X48866493Y4827460D01*
X48831540Y4839598D01*
X48828004Y4840111D01*
X48828003Y4840111D01*
X48759628Y4850025D01*
X48727131Y4854737D01*
X48723564Y4854572D01*
X48723562Y4854572D01*
X48625319Y4850025D01*
X48625314Y4850024D01*
X48621743Y4849859D01*
X48519179Y4825141D01*
X48515919Y4823659D01*
X48515917Y4823658D01*
X48470919Y4803198D01*
X48423140Y4781474D01*
X48420222Y4779404D01*
X48420220Y4779403D01*
X48340008Y4722505D01*
X48337090Y4720435D01*
X48334619Y4717854D01*
X48334617Y4717852D01*
X48306252Y4688221D01*
X48264135Y4644225D01*
X48262196Y4641222D01*
X48262192Y4641217D01*
X48225198Y4583922D01*
X48206907Y4555595D01*
X48205571Y4552280D01*
X48205570Y4552278D01*
X48198495Y4534721D01*
X48167472Y4457742D01*
X48147251Y4354198D01*
X48147153Y4316729D01*
X48147018Y4265012D01*
X48146975Y4248697D01*
X48156722Y4197359D01*
X48163822Y4159962D01*
X48166653Y4145048D01*
X48205576Y4046990D01*
X48207501Y4043975D01*
X48207501Y4043974D01*
X48239582Y3993714D01*
X48251320Y3956600D01*
X48242928Y3918589D01*
X48229368Y3900080D01*
X47997033Y3667744D01*
X47765113Y3435824D01*
X47765111Y3435823D01*
X47253174Y2923886D01*
X47219463Y2904422D01*
X47180537Y2904422D01*
X47146826Y2923886D01*
X47007171Y3063541D01*
X47000171Y3067583D01*
X46993171Y3063541D01*
X46767038Y2837408D01*
X46733327Y2817944D01*
X46694401Y2817944D01*
X46660690Y2837408D01*
X46220182Y3277916D01*
X46217501Y3279464D01*
X46189976Y3306989D01*
X46179901Y3344589D01*
X46179901Y3464492D01*
X46392408Y3464492D01*
X46397288Y3454362D01*
X46706864Y3144786D01*
X46713864Y3140744D01*
X46720864Y3144786D01*
X46816395Y3240317D01*
X46820437Y3247317D01*
X46816395Y3254317D01*
X46639770Y3430942D01*
X46634358Y3435426D01*
X46586069Y3468348D01*
X46574705Y3473562D01*
X46522954Y3487428D01*
X46511884Y3488675D01*
X46457643Y3486646D01*
X46446693Y3484574D01*
X46395466Y3466649D01*
X46393152Y3465426D01*
X46392408Y3464492D01*
X46179901Y3464492D01*
X46179901Y3673391D01*
X46189976Y3710991D01*
X46217501Y3738516D01*
X46258970Y3748491D01*
X46320652Y3745313D01*
X46320654Y3745313D01*
X46324226Y3745129D01*
X46428713Y3759720D01*
X46528555Y3793807D01*
X46577573Y3821823D01*
X46617041Y3844380D01*
X46617045Y3844383D01*
X46620151Y3846158D01*
X46622868Y3848491D01*
X46622871Y3848493D01*
X46682951Y3900080D01*
X46700194Y3914885D01*
X46765798Y3997507D01*
X46814594Y4091045D01*
X46844822Y4192122D01*
X46855392Y4297092D01*
X46855400Y4300000D01*
X46853153Y4323553D01*
X46845720Y4401465D01*
X46845719Y4401470D01*
X46845380Y4405024D01*
X46815681Y4506258D01*
X46767375Y4600049D01*
X46702205Y4683015D01*
X46622522Y4752160D01*
X46531202Y4804990D01*
X46527829Y4806161D01*
X46527823Y4806164D01*
X46466493Y4827460D01*
X46431540Y4839598D01*
X46428004Y4840111D01*
X46428003Y4840111D01*
X46359628Y4850025D01*
X46327131Y4854737D01*
X46323564Y4854572D01*
X46323562Y4854572D01*
X46225319Y4850025D01*
X46225314Y4850024D01*
X46221743Y4849859D01*
X46119179Y4825141D01*
X46115919Y4823659D01*
X46115917Y4823658D01*
X46070919Y4803198D01*
X46023140Y4781474D01*
X46020222Y4779404D01*
X46020220Y4779403D01*
X45940008Y4722505D01*
X45937090Y4720435D01*
X45934619Y4717854D01*
X45934617Y4717852D01*
X45906252Y4688221D01*
X45864135Y4644225D01*
X45862196Y4641222D01*
X45862192Y4641217D01*
X45825198Y4583922D01*
X45806907Y4555595D01*
X45805571Y4552280D01*
X45805570Y4552278D01*
X45798495Y4534721D01*
X45767472Y4457742D01*
X45747251Y4354198D01*
X45747153Y4316729D01*
X45747018Y4265012D01*
X45746975Y4248697D01*
X45751937Y4222563D01*
X45756451Y4198782D01*
X45753566Y4159962D01*
X45735745Y4131582D01*
X45705453Y4101290D01*
X45703180Y4099110D01*
X45682409Y4080010D01*
X45672426Y4063908D01*
X45671037Y4061668D01*
X45667024Y4055830D01*
X45657074Y4042721D01*
X45657072Y4042717D01*
X45653971Y4038632D01*
X45652085Y4033867D01*
X45652084Y4033866D01*
X45651523Y4032448D01*
X45645519Y4020511D01*
X45642017Y4014863D01*
X45640588Y4009945D01*
X45640584Y4009936D01*
X45635991Y3994127D01*
X45633704Y3987444D01*
X45625753Y3967362D01*
X45625217Y3962261D01*
X45625059Y3960759D01*
X45622485Y3947636D01*
X45620631Y3941255D01*
X45620102Y3934050D01*
X45620102Y3917535D01*
X45619690Y3909675D01*
X45617741Y3891131D01*
X45618596Y3886077D01*
X45619049Y3883399D01*
X45620102Y3870857D01*
X45620101Y3468348D01*
X45620101Y3072516D01*
X45620036Y3069403D01*
X45618854Y3041191D01*
X45623550Y3021174D01*
X45623784Y3020175D01*
X45625075Y3013208D01*
X45628004Y2991824D01*
X45630040Y2987119D01*
X45630041Y2987116D01*
X45630645Y2985720D01*
X45634842Y2973031D01*
X45636359Y2966563D01*
X45643265Y2954000D01*
X45646756Y2947650D01*
X45649869Y2941296D01*
X45658446Y2921476D01*
X45662626Y2916315D01*
X45670083Y2905218D01*
X45673285Y2899392D01*
X45675861Y2896409D01*
X45675864Y2896404D01*
X45677102Y2894971D01*
X45678006Y2893924D01*
X45689672Y2882258D01*
X45694940Y2876408D01*
X45701686Y2868077D01*
X45717518Y2832515D01*
X45713449Y2793802D01*
X45693511Y2771321D01*
X45695283Y2769909D01*
X45685301Y2757385D01*
X45690181Y2747255D01*
X46130359Y2307077D01*
X46149823Y2273366D01*
X46149823Y2234440D01*
X46130359Y2200729D01*
X46059931Y2130301D01*
X46026220Y2110837D01*
X45987294Y2110837D01*
X45953583Y2130301D01*
X45513073Y2570811D01*
X45508249Y2573596D01*
X45487456Y2558842D01*
X45487064Y2559394D01*
X45473176Y2547442D01*
X45434929Y2540204D01*
X45387372Y2562020D01*
X44552492Y3396898D01*
X44533028Y3430609D01*
X44530964Y3458715D01*
X44531632Y3464492D01*
X44535389Y3496960D01*
X44535400Y3500000D01*
X44525243Y3593496D01*
X44513367Y3628784D01*
X44496545Y3678771D01*
X44496543Y3678776D01*
X44495246Y3682629D01*
X44487030Y3696304D01*
X44448904Y3759755D01*
X44446809Y3763242D01*
X44407486Y3804825D01*
X44384985Y3828620D01*
X44384982Y3828622D01*
X44382191Y3831574D01*
X44378541Y3834055D01*
X44328178Y3868281D01*
X44304408Y3884435D01*
X44217088Y3919361D01*
X44124305Y3934721D01*
X44120238Y3934508D01*
X44120235Y3934508D01*
X44073248Y3932045D01*
X44030388Y3929799D01*
X44026461Y3928717D01*
X44026459Y3928717D01*
X43957327Y3909675D01*
X43939719Y3904825D01*
X43856527Y3860963D01*
X43848484Y3854166D01*
X43787805Y3802888D01*
X43787802Y3802885D01*
X43784696Y3800260D01*
X43727574Y3725549D01*
X43725853Y3721858D01*
X43689548Y3644002D01*
X43689546Y3643996D01*
X43687829Y3640314D01*
X43686942Y3636346D01*
X43686941Y3636343D01*
X43683713Y3621900D01*
X43667313Y3548534D01*
X43667152Y3502295D01*
X43667052Y3473562D01*
X43666985Y3454488D01*
X43686859Y3362566D01*
X43688555Y3358861D01*
X43688556Y3358859D01*
X43712260Y3307086D01*
X43718752Y3268704D01*
X43705184Y3232219D01*
X43675191Y3207407D01*
X43636809Y3200915D01*
X43589246Y3224114D01*
X43584988Y3228617D01*
X43584984Y3228620D01*
X43582191Y3231574D01*
X43578541Y3234055D01*
X43533815Y3264450D01*
X43504408Y3284435D01*
X43417088Y3319361D01*
X43324305Y3334721D01*
X43320238Y3334508D01*
X43320235Y3334508D01*
X43273248Y3332045D01*
X43230388Y3329799D01*
X43226461Y3328717D01*
X43226459Y3328717D01*
X43147575Y3306989D01*
X43139719Y3304825D01*
X43056527Y3260963D01*
X43039111Y3246245D01*
X42987805Y3202888D01*
X42987802Y3202885D01*
X42984696Y3200260D01*
X42982225Y3197028D01*
X42982224Y3197027D01*
X42977829Y3191278D01*
X42927574Y3125549D01*
X42925853Y3121858D01*
X42889548Y3044002D01*
X42889546Y3043996D01*
X42887829Y3040314D01*
X42886942Y3036346D01*
X42886941Y3036343D01*
X42878406Y2998161D01*
X42867313Y2948534D01*
X42867248Y2929799D01*
X42867008Y2860963D01*
X42866985Y2854488D01*
X42867845Y2850512D01*
X42867845Y2850509D01*
X42875546Y2814893D01*
X42886859Y2762566D01*
X42926009Y2677057D01*
X42928459Y2673806D01*
X42928460Y2673804D01*
X42982607Y2601948D01*
X42981708Y2601270D01*
X42997257Y2572272D01*
X42996035Y2533365D01*
X42975522Y2500282D01*
X42924044Y2479900D01*
X39330227Y2479900D01*
X39302300Y2485278D01*
X39300200Y2486118D01*
X39217088Y2519361D01*
X39124305Y2534721D01*
X39120238Y2534508D01*
X39120235Y2534508D01*
X39073248Y2532045D01*
X39030388Y2529799D01*
X39026461Y2528717D01*
X39026459Y2528717D01*
X38958957Y2510124D01*
X38939719Y2504825D01*
X38856527Y2460963D01*
X38823597Y2433134D01*
X38821152Y2431068D01*
X38785931Y2414494D01*
X38747141Y2417750D01*
X38715176Y2439966D01*
X38701341Y2464518D01*
X38695246Y2482629D01*
X38687030Y2496304D01*
X38658091Y2544466D01*
X38646809Y2563242D01*
X38610848Y2601270D01*
X38584985Y2628620D01*
X38584982Y2628622D01*
X38582191Y2631574D01*
X38578597Y2634017D01*
X38536150Y2662863D01*
X38504408Y2684435D01*
X38417088Y2719361D01*
X38324305Y2734721D01*
X38320238Y2734508D01*
X38320235Y2734508D01*
X38273248Y2732045D01*
X38230388Y2729799D01*
X38226461Y2728717D01*
X38226459Y2728717D01*
X38153493Y2708619D01*
X38139719Y2704825D01*
X38056527Y2660963D01*
X38041820Y2648534D01*
X37987805Y2602888D01*
X37987802Y2602885D01*
X37984696Y2600260D01*
X37927574Y2525549D01*
X37925853Y2521858D01*
X37889548Y2444002D01*
X37889546Y2443996D01*
X37887829Y2440314D01*
X37886942Y2436346D01*
X37886941Y2436343D01*
X37878817Y2400000D01*
X37867313Y2348534D01*
X37867226Y2323662D01*
X37867022Y2264975D01*
X37866985Y2254488D01*
X37867845Y2250512D01*
X37867845Y2250509D01*
X37877356Y2206518D01*
X37886859Y2162566D01*
X37926009Y2077057D01*
X37928459Y2073806D01*
X37928460Y2073804D01*
X37959916Y2032060D01*
X37982607Y2001948D01*
X37993840Y1992321D01*
X38015830Y1960204D01*
X38020100Y1935225D01*
X38020100Y1908770D01*
X38020034Y1905622D01*
X38018853Y1877446D01*
X38022399Y1862332D01*
X38023783Y1856430D01*
X38025074Y1849463D01*
X38028003Y1828079D01*
X38030039Y1823374D01*
X38030040Y1823371D01*
X38030644Y1821975D01*
X38034841Y1809286D01*
X38036358Y1802818D01*
X38038827Y1798327D01*
X38046755Y1783905D01*
X38049868Y1777551D01*
X38058445Y1757731D01*
X38062625Y1752570D01*
X38070082Y1741473D01*
X38073284Y1735647D01*
X38075860Y1732664D01*
X38075863Y1732659D01*
X38077101Y1731226D01*
X38078005Y1730179D01*
X38089671Y1718513D01*
X38094939Y1712664D01*
X38106684Y1698160D01*
X38113083Y1693612D01*
X38122692Y1685492D01*
X38539925Y1268257D01*
X38678506Y1129676D01*
X38680685Y1127403D01*
X38696293Y1110429D01*
X38696295Y1110427D01*
X38699764Y1106655D01*
X38701909Y1105325D01*
X38723667Y1074707D01*
X38727330Y1035953D01*
X38701722Y991059D01*
X38684696Y976671D01*
X38682225Y973439D01*
X38682224Y973438D01*
X38680128Y970697D01*
X38627574Y901960D01*
X38625853Y898269D01*
X38589548Y820413D01*
X38589546Y820407D01*
X38587829Y816725D01*
X38586942Y812757D01*
X38586941Y812754D01*
X38579393Y778988D01*
X38567313Y724945D01*
X38567299Y720877D01*
X38567068Y654572D01*
X38566985Y630899D01*
X38567845Y626923D01*
X38567845Y626920D01*
X38577671Y581474D01*
X38586859Y538977D01*
X38626009Y453468D01*
X38628459Y450217D01*
X38628460Y450215D01*
X38652742Y417992D01*
X38682607Y378359D01*
X38685695Y375713D01*
X38685698Y375709D01*
X38750916Y319811D01*
X38750919Y319809D01*
X38754013Y317157D01*
X38794257Y295578D01*
X38822632Y268932D01*
X38833883Y231667D01*
X38826874Y197524D01*
X38789550Y117482D01*
X38789548Y117477D01*
X38787829Y113790D01*
X38786942Y109822D01*
X38786941Y109819D01*
X38782387Y89444D01*
X38767313Y22010D01*
X38767212Y-7000D01*
X38767006Y-66141D01*
X38766985Y-72036D01*
X38786859Y-163958D01*
X38826009Y-249467D01*
X38828459Y-252718D01*
X38828460Y-252720D01*
X38874836Y-314264D01*
X38882607Y-324576D01*
X38885695Y-327222D01*
X38885698Y-327226D01*
X38950916Y-383124D01*
X38950919Y-383126D01*
X38954013Y-385778D01*
X39036896Y-430220D01*
X39068355Y-439122D01*
X39123472Y-454719D01*
X39123476Y-454720D01*
X39127389Y-455827D01*
X39181307Y-459030D01*
X39217207Y-461163D01*
X39217210Y-461163D01*
X39221269Y-461404D01*
X39314157Y-446692D01*
X39317946Y-445207D01*
X39317950Y-445206D01*
X39364607Y-426921D01*
X39401719Y-412377D01*
X39405106Y-410109D01*
X39405109Y-410108D01*
X39476484Y-362327D01*
X39476486Y-362326D01*
X39479870Y-360060D01*
X39544963Y-292181D01*
X39552460Y-279900D01*
X39574046Y-244535D01*
X39593962Y-211908D01*
X39624580Y-122986D01*
X39628338Y-90502D01*
X39649866Y-45971D01*
X40093912Y398074D01*
X40147086Y420100D01*
X42024165Y420100D01*
X42061765Y410025D01*
X42089290Y382500D01*
X42099365Y344900D01*
X42083904Y299225D01*
X42030051Y228790D01*
X42030047Y228784D01*
X42027574Y225549D01*
X42025055Y220147D01*
X41989548Y144002D01*
X41989546Y143996D01*
X41987829Y140314D01*
X41986942Y136346D01*
X41986941Y136343D01*
X41981012Y109819D01*
X41967313Y48534D01*
X41967214Y20026D01*
X41967008Y-39037D01*
X41966985Y-45512D01*
X41967845Y-49488D01*
X41967845Y-49491D01*
X41976357Y-88861D01*
X41986859Y-137434D01*
X42026009Y-222943D01*
X42028459Y-226194D01*
X42028460Y-226196D01*
X42056689Y-263657D01*
X42082607Y-298052D01*
X42085695Y-300698D01*
X42085698Y-300702D01*
X42150916Y-356600D01*
X42150919Y-356602D01*
X42154013Y-359254D01*
X42236896Y-403696D01*
X42267574Y-412377D01*
X42323472Y-428195D01*
X42323476Y-428196D01*
X42327389Y-429303D01*
X42372200Y-431965D01*
X42411651Y-434309D01*
X42460365Y-456203D01*
X42684846Y-680684D01*
X42687026Y-682957D01*
X42702656Y-699955D01*
X42702659Y-699957D01*
X42706127Y-703729D01*
X42710480Y-706428D01*
X42710485Y-706432D01*
X42724478Y-715107D01*
X42730318Y-719120D01*
X42747504Y-732166D01*
X42753694Y-734617D01*
X42765619Y-740615D01*
X42771274Y-744121D01*
X42792019Y-750148D01*
X42798699Y-752435D01*
X42818774Y-760384D01*
X42823875Y-760920D01*
X42823878Y-760921D01*
X42825386Y-761080D01*
X42838496Y-763652D01*
X42840388Y-764201D01*
X42844882Y-765507D01*
X42849536Y-765849D01*
X42850722Y-765936D01*
X42850728Y-765936D01*
X42852087Y-766036D01*
X42868611Y-766036D01*
X42876471Y-766448D01*
X42895006Y-768396D01*
X42902735Y-767089D01*
X42915274Y-766036D01*
X43667690Y-766036D01*
X43705290Y-776111D01*
X43733737Y-805639D01*
X43735214Y-809859D01*
X43736545Y-811662D01*
X43744775Y-847703D01*
X43733305Y-884902D01*
X43704773Y-911382D01*
X43669627Y-920100D01*
X39283855Y-920100D01*
X39246255Y-910025D01*
X39212583Y-868886D01*
X39196545Y-821229D01*
X39196543Y-821224D01*
X39195246Y-817371D01*
X39190733Y-809859D01*
X39154850Y-750141D01*
X39146809Y-736758D01*
X39107164Y-694834D01*
X39084985Y-671380D01*
X39084982Y-671378D01*
X39082191Y-668426D01*
X39004408Y-615565D01*
X38917088Y-580639D01*
X38824305Y-565279D01*
X38820238Y-565492D01*
X38820235Y-565492D01*
X38773248Y-567955D01*
X38730388Y-570201D01*
X38726461Y-571283D01*
X38726459Y-571283D01*
X38662918Y-588785D01*
X38639719Y-595175D01*
X38556527Y-639037D01*
X38538060Y-654643D01*
X38487805Y-697112D01*
X38487802Y-697115D01*
X38484696Y-699740D01*
X38427574Y-774451D01*
X38425853Y-778142D01*
X38389548Y-855998D01*
X38389546Y-856004D01*
X38387829Y-859686D01*
X38386942Y-863654D01*
X38386941Y-863657D01*
X38383294Y-879974D01*
X38367313Y-951466D01*
X38367226Y-976342D01*
X38367016Y-1036758D01*
X38366985Y-1045512D01*
X38386859Y-1137434D01*
X38388555Y-1141139D01*
X38388556Y-1141141D01*
X38424664Y-1220006D01*
X38431156Y-1258388D01*
X38417588Y-1294873D01*
X38387595Y-1319685D01*
X38356290Y-1326511D01*
X37369506Y-1326511D01*
X37331906Y-1316436D01*
X37314868Y-1302980D01*
X37284990Y-1271385D01*
X37284986Y-1271381D01*
X37282191Y-1268426D01*
X37267421Y-1258388D01*
X37218612Y-1225218D01*
X37204408Y-1215565D01*
X37117088Y-1180639D01*
X37024305Y-1165279D01*
X37020238Y-1165492D01*
X37020235Y-1165492D01*
X36973248Y-1167955D01*
X36930388Y-1170201D01*
X36926461Y-1171283D01*
X36926459Y-1171283D01*
X36886999Y-1182152D01*
X36839719Y-1195175D01*
X36756527Y-1239037D01*
X36746250Y-1247722D01*
X36687805Y-1297112D01*
X36687802Y-1297115D01*
X36684696Y-1299740D01*
X36627574Y-1374451D01*
X36625853Y-1378142D01*
X36589548Y-1455998D01*
X36589546Y-1456004D01*
X36587829Y-1459686D01*
X36586942Y-1463654D01*
X36586941Y-1463657D01*
X36581774Y-1486772D01*
X36567313Y-1551466D01*
X36567194Y-1585469D01*
X36567016Y-1636758D01*
X36566985Y-1645512D01*
X36567845Y-1649488D01*
X36567845Y-1649491D01*
X36572831Y-1672550D01*
X36586859Y-1737434D01*
X36605705Y-1778596D01*
X36612196Y-1816977D01*
X36598628Y-1853462D01*
X36568634Y-1878275D01*
X36537330Y-1885100D01*
X36211011Y-1885100D01*
X36208583Y-1885420D01*
X36208578Y-1885420D01*
X36157908Y-1892091D01*
X36157905Y-1892092D01*
X36153027Y-1892734D01*
X36148480Y-1894618D01*
X36148478Y-1894618D01*
X36123141Y-1905113D01*
X36081300Y-1922444D01*
X36019706Y-1969706D01*
X35992707Y-2004893D01*
X35988268Y-2010678D01*
X35957386Y-2034375D01*
X35928607Y-2040100D01*
X35598971Y-2040100D01*
X35561371Y-2030025D01*
X35539311Y-2007967D01*
X35538226Y-2008800D01*
X35494756Y-1952149D01*
X35491758Y-1948242D01*
X35431200Y-1901774D01*
X35399277Y-1888551D01*
X35365233Y-1874449D01*
X35365231Y-1874448D01*
X35360679Y-1872563D01*
X35303990Y-1865100D01*
X34896010Y-1865100D01*
X34839321Y-1872563D01*
X34834769Y-1874448D01*
X34834767Y-1874449D01*
X34800723Y-1888551D01*
X34768800Y-1901774D01*
X34708242Y-1948242D01*
X34705244Y-1952149D01*
X34703945Y-1953842D01*
X34661774Y-2008800D01*
X34659890Y-2013349D01*
X34642691Y-2054871D01*
X34632563Y-2079321D01*
X34625100Y-2136010D01*
X34625100Y-2443990D01*
X34632563Y-2500679D01*
X34634448Y-2505231D01*
X34634449Y-2505233D01*
X34645254Y-2531317D01*
X34661774Y-2571200D01*
X34708242Y-2631758D01*
X34712149Y-2634756D01*
X34724328Y-2644101D01*
X34768800Y-2678226D01*
X34800524Y-2691367D01*
X34834767Y-2705551D01*
X34834769Y-2705552D01*
X34839321Y-2707437D01*
X34896010Y-2714900D01*
X35303990Y-2714900D01*
X35360679Y-2707437D01*
X35365231Y-2705552D01*
X35365233Y-2705551D01*
X35399476Y-2691367D01*
X35431200Y-2678226D01*
X35475672Y-2644101D01*
X35487851Y-2634756D01*
X35491758Y-2631758D01*
X35494756Y-2627851D01*
X35498244Y-2624363D01*
X35499045Y-2625164D01*
X35524511Y-2605624D01*
X35553288Y-2599900D01*
X35928607Y-2599900D01*
X35966207Y-2609975D01*
X35988267Y-2629321D01*
X36019706Y-2670294D01*
X36081300Y-2717556D01*
X36085852Y-2719442D01*
X36085853Y-2719442D01*
X36112607Y-2730524D01*
X36143490Y-2754221D01*
X36158387Y-2790184D01*
X36153306Y-2828777D01*
X36129609Y-2859660D01*
X36112607Y-2869476D01*
X36085853Y-2880558D01*
X36077392Y-2885443D01*
X36023613Y-2926708D01*
X36016708Y-2933613D01*
X35975443Y-2987392D01*
X35970558Y-2995852D01*
X35961860Y-3016852D01*
X35960805Y-3024868D01*
X35961162Y-3025142D01*
X35965477Y-3026000D01*
X36146001Y-3026000D01*
X36832027Y-3026001D01*
X36839837Y-3023909D01*
X36839953Y-3023474D01*
X36839095Y-3019158D01*
X36829441Y-2995852D01*
X36824557Y-2987392D01*
X36783292Y-2933613D01*
X36776387Y-2926708D01*
X36722608Y-2885443D01*
X36714147Y-2880558D01*
X36687393Y-2869476D01*
X36656510Y-2845779D01*
X36641613Y-2809816D01*
X36646694Y-2771223D01*
X36670391Y-2740340D01*
X36687393Y-2730524D01*
X36714147Y-2719442D01*
X36714148Y-2719442D01*
X36718700Y-2717556D01*
X36780294Y-2670294D01*
X36811733Y-2629321D01*
X36842614Y-2605625D01*
X36871393Y-2599900D01*
X37146712Y-2599900D01*
X37184312Y-2609975D01*
X37201271Y-2624848D01*
X37201756Y-2624363D01*
X37205244Y-2627851D01*
X37208242Y-2631758D01*
X37212149Y-2634756D01*
X37224328Y-2644101D01*
X37268800Y-2678226D01*
X37335267Y-2705758D01*
X37366148Y-2729454D01*
X37381045Y-2765417D01*
X37375964Y-2804011D01*
X37352267Y-2834893D01*
X37320044Y-2849201D01*
X37293300Y-2854102D01*
X37288263Y-2856746D01*
X37288262Y-2856746D01*
X37224067Y-2890438D01*
X37224064Y-2890440D01*
X37220040Y-2892552D01*
X37158111Y-2947416D01*
X37111111Y-3015507D01*
X37081773Y-3092867D01*
X37081225Y-3097378D01*
X37081225Y-3097379D01*
X37074603Y-3151917D01*
X37074300Y-3154411D01*
X37074300Y-3458642D01*
X37074914Y-3461990D01*
X37074914Y-3461995D01*
X37083353Y-3508045D01*
X37080221Y-3546846D01*
X37058108Y-3578881D01*
X37009385Y-3596800D01*
X36915416Y-3596800D01*
X36877816Y-3586725D01*
X36845941Y-3550380D01*
X36839825Y-3535616D01*
X36838838Y-3534858D01*
X36834523Y-3534000D01*
X36653999Y-3534000D01*
X35967973Y-3533999D01*
X35960162Y-3536092D01*
X35958830Y-3541064D01*
X35939367Y-3574775D01*
X35886193Y-3596800D01*
X35610553Y-3596800D01*
X35572953Y-3586725D01*
X35564226Y-3576773D01*
X35563375Y-3577882D01*
X35546404Y-3564859D01*
X35542085Y-3564000D01*
X35353999Y-3564000D01*
X34660409Y-3563999D01*
X34651832Y-3566297D01*
X34643355Y-3574774D01*
X34609644Y-3594238D01*
X34590181Y-3596800D01*
X32495457Y-3596800D01*
X32457857Y-3586725D01*
X32430332Y-3559200D01*
X32420257Y-3521600D01*
X32423131Y-3504460D01*
X32422352Y-3504283D01*
X32423254Y-3500312D01*
X32424580Y-3496462D01*
X32428861Y-3459466D01*
X32434821Y-3407946D01*
X32435389Y-3403040D01*
X32435400Y-3400000D01*
X32435110Y-3397325D01*
X32429913Y-3349490D01*
X32425243Y-3306504D01*
X32423002Y-3299844D01*
X32396545Y-3221229D01*
X32396543Y-3221224D01*
X32395246Y-3217371D01*
X32392272Y-3212420D01*
X32355917Y-3151917D01*
X32346809Y-3136758D01*
X32309043Y-3096821D01*
X32284985Y-3071380D01*
X32284982Y-3071378D01*
X32282191Y-3068426D01*
X32262241Y-3054868D01*
X34653240Y-3054868D01*
X34653596Y-3055141D01*
X34657915Y-3056000D01*
X34836099Y-3056000D01*
X34843909Y-3053908D01*
X34846001Y-3046098D01*
X34846001Y-2904100D01*
X35354000Y-2904100D01*
X35354000Y-3046099D01*
X35356092Y-3053909D01*
X35363902Y-3056001D01*
X35539591Y-3056001D01*
X35547401Y-3053909D01*
X35547517Y-3053473D01*
X35546659Y-3049160D01*
X35540110Y-3033349D01*
X35535228Y-3024893D01*
X35494756Y-2972149D01*
X35487851Y-2965244D01*
X35435107Y-2924772D01*
X35426651Y-2919890D01*
X35365236Y-2894450D01*
X35361078Y-2893337D01*
X35357493Y-2893809D01*
X35354000Y-2904100D01*
X34846001Y-2904100D01*
X34846001Y-2901586D01*
X34844350Y-2895424D01*
X34836762Y-2893915D01*
X34834766Y-2894450D01*
X34773349Y-2919890D01*
X34764893Y-2924772D01*
X34712149Y-2965244D01*
X34705244Y-2972149D01*
X34664774Y-3024890D01*
X34659888Y-3033354D01*
X34654295Y-3046854D01*
X34653240Y-3054868D01*
X32262241Y-3054868D01*
X32204408Y-3015565D01*
X32117088Y-2980639D01*
X32024305Y-2965279D01*
X32020238Y-2965492D01*
X32020235Y-2965492D01*
X31973248Y-2967955D01*
X31930388Y-2970201D01*
X31926461Y-2971283D01*
X31926459Y-2971283D01*
X31858213Y-2990081D01*
X31839719Y-2995175D01*
X31756527Y-3039037D01*
X31734362Y-3057768D01*
X31687805Y-3097112D01*
X31687802Y-3097115D01*
X31684696Y-3099740D01*
X31682225Y-3102972D01*
X31682224Y-3102973D01*
X31675758Y-3111430D01*
X31627574Y-3174451D01*
X31625853Y-3178142D01*
X31589548Y-3255998D01*
X31589546Y-3256004D01*
X31587829Y-3259686D01*
X31586942Y-3263654D01*
X31586941Y-3263657D01*
X31579442Y-3297207D01*
X31567313Y-3351466D01*
X31567175Y-3391044D01*
X31567003Y-3440450D01*
X31566985Y-3445512D01*
X31577127Y-3492418D01*
X31580000Y-3505708D01*
X31578098Y-3544588D01*
X31557011Y-3577309D01*
X31506498Y-3596800D01*
X24553400Y-3596800D01*
X24515800Y-3586725D01*
X24488275Y-3559200D01*
X24478200Y-3521600D01*
X24478200Y-3062654D01*
X24795434Y-3062654D01*
X24802028Y-3121174D01*
X24803897Y-3129363D01*
X24830312Y-3204853D01*
X24833956Y-3212420D01*
X24876507Y-3280138D01*
X24881743Y-3286704D01*
X24938296Y-3343257D01*
X24944862Y-3348493D01*
X25012580Y-3391044D01*
X25020147Y-3394688D01*
X25095637Y-3421103D01*
X25103826Y-3422972D01*
X25163207Y-3429663D01*
X25167429Y-3429900D01*
X25211098Y-3429900D01*
X25218908Y-3427808D01*
X25221000Y-3419998D01*
X25221000Y-3063902D01*
X25729000Y-3063902D01*
X25729000Y-3419998D01*
X25731092Y-3427808D01*
X25738902Y-3429900D01*
X25782571Y-3429900D01*
X25786793Y-3429663D01*
X25846174Y-3422972D01*
X25854363Y-3421103D01*
X25929853Y-3394688D01*
X25937420Y-3391044D01*
X26005138Y-3348493D01*
X26011704Y-3343257D01*
X26068257Y-3286704D01*
X26073493Y-3280138D01*
X26116044Y-3212420D01*
X26119688Y-3204853D01*
X26146103Y-3129363D01*
X26147972Y-3121174D01*
X26154566Y-3062654D01*
X26152808Y-3056092D01*
X26144998Y-3054000D01*
X25738902Y-3054000D01*
X25731092Y-3056092D01*
X25729000Y-3063902D01*
X25221000Y-3063902D01*
X25218908Y-3056092D01*
X25211098Y-3054000D01*
X24805002Y-3054000D01*
X24797192Y-3056092D01*
X24795434Y-3062654D01*
X24478200Y-3062654D01*
X24478200Y-2537346D01*
X24795434Y-2537346D01*
X24797192Y-2543908D01*
X24805002Y-2546000D01*
X25211098Y-2546000D01*
X25218908Y-2543908D01*
X25221000Y-2536098D01*
X25221000Y-2180002D01*
X25729000Y-2180002D01*
X25729000Y-2536098D01*
X25731092Y-2543908D01*
X25738902Y-2546000D01*
X26144998Y-2546000D01*
X26168953Y-2539581D01*
X26176027Y-2535497D01*
X26214953Y-2535497D01*
X26244429Y-2551039D01*
X26244928Y-2551467D01*
X26250916Y-2556600D01*
X26250919Y-2556602D01*
X26254013Y-2559254D01*
X26336896Y-2603696D01*
X26370560Y-2613222D01*
X26423472Y-2628195D01*
X26423476Y-2628196D01*
X26427389Y-2629303D01*
X26481307Y-2632506D01*
X26517207Y-2634639D01*
X26517210Y-2634639D01*
X26521269Y-2634880D01*
X26614157Y-2620168D01*
X26617946Y-2618683D01*
X26617950Y-2618682D01*
X26666283Y-2599740D01*
X26701719Y-2585853D01*
X26705106Y-2583585D01*
X26705109Y-2583584D01*
X26776484Y-2535803D01*
X26776486Y-2535802D01*
X26779870Y-2533536D01*
X26844963Y-2465657D01*
X26852673Y-2453027D01*
X26875427Y-2415749D01*
X26893962Y-2385384D01*
X26924580Y-2296462D01*
X26925808Y-2285853D01*
X26932304Y-2229702D01*
X26935389Y-2203040D01*
X26935400Y-2200000D01*
X26933108Y-2178897D01*
X26927818Y-2130211D01*
X26925243Y-2106504D01*
X26921781Y-2096218D01*
X26896545Y-2021229D01*
X26896543Y-2021224D01*
X26895246Y-2017371D01*
X26892830Y-2013349D01*
X26857733Y-1954939D01*
X26846809Y-1936758D01*
X26809318Y-1897112D01*
X26784985Y-1871380D01*
X26784982Y-1871378D01*
X26782191Y-1868426D01*
X26778750Y-1866087D01*
X26734186Y-1835802D01*
X26704408Y-1815565D01*
X26617088Y-1780639D01*
X26524305Y-1765279D01*
X26520238Y-1765492D01*
X26520235Y-1765492D01*
X26473248Y-1767955D01*
X26430388Y-1770201D01*
X26426461Y-1771283D01*
X26426459Y-1771283D01*
X26348058Y-1792878D01*
X26339719Y-1795175D01*
X26256527Y-1839037D01*
X26253414Y-1841668D01*
X26187805Y-1897112D01*
X26187802Y-1897115D01*
X26184696Y-1899740D01*
X26127574Y-1974451D01*
X26125853Y-1978142D01*
X26089548Y-2055998D01*
X26089546Y-2056004D01*
X26087829Y-2059686D01*
X26086942Y-2063654D01*
X26086941Y-2063657D01*
X26082027Y-2085641D01*
X26067313Y-2151466D01*
X26067299Y-2155535D01*
X26066844Y-2159588D01*
X26066018Y-2159495D01*
X26057089Y-2192339D01*
X26029464Y-2219763D01*
X25991827Y-2229702D01*
X25952092Y-2218175D01*
X25937420Y-2208956D01*
X25929853Y-2205312D01*
X25854363Y-2178897D01*
X25846174Y-2177028D01*
X25786793Y-2170337D01*
X25782571Y-2170100D01*
X25738902Y-2170100D01*
X25731092Y-2172192D01*
X25729000Y-2180002D01*
X25221000Y-2180002D01*
X25218908Y-2172192D01*
X25211098Y-2170100D01*
X25167429Y-2170100D01*
X25163207Y-2170337D01*
X25103826Y-2177028D01*
X25095637Y-2178897D01*
X25020147Y-2205312D01*
X25012580Y-2208956D01*
X24944862Y-2251507D01*
X24938296Y-2256743D01*
X24881743Y-2313296D01*
X24876507Y-2319862D01*
X24833956Y-2387580D01*
X24830312Y-2395147D01*
X24803897Y-2470637D01*
X24802028Y-2478826D01*
X24795434Y-2537346D01*
X24478200Y-2537346D01*
X24478200Y-1792878D01*
X24488275Y-1755278D01*
X24524626Y-1723401D01*
X24528460Y-1721813D01*
X24563581Y-1703043D01*
X24565115Y-1702018D01*
X24565122Y-1702014D01*
X24569598Y-1699023D01*
X24571149Y-1697987D01*
X24588700Y-1683584D01*
X24600517Y-1673887D01*
X24600524Y-1673881D01*
X24601953Y-1672708D01*
X24622708Y-1651953D01*
X24623881Y-1650524D01*
X24623887Y-1650517D01*
X24640234Y-1630597D01*
X24647987Y-1621149D01*
X24650948Y-1616717D01*
X24652014Y-1615122D01*
X24652018Y-1615115D01*
X24653043Y-1613581D01*
X24671813Y-1578460D01*
X24673710Y-1573882D01*
X24682333Y-1553061D01*
X24683039Y-1551357D01*
X24688134Y-1534562D01*
X24694067Y-1515005D01*
X24694069Y-1514997D01*
X24694602Y-1513240D01*
X24697236Y-1500000D01*
X24697670Y-1497817D01*
X24697671Y-1497809D01*
X24697851Y-1496906D01*
X24700131Y-1481533D01*
X24700639Y-1478108D01*
X24700641Y-1478095D01*
X24700776Y-1477182D01*
X24700959Y-1475332D01*
X24702130Y-1463435D01*
X24702221Y-1462511D01*
X24702959Y-1447495D01*
X24703155Y-1443518D01*
X24703155Y-1443499D01*
X24703200Y-1442593D01*
X24703200Y-445512D01*
X27466985Y-445512D01*
X27467845Y-449488D01*
X27467845Y-449491D01*
X27473053Y-473577D01*
X27486859Y-537434D01*
X27526009Y-622943D01*
X27528459Y-626194D01*
X27528460Y-626196D01*
X27569174Y-680225D01*
X27582607Y-698052D01*
X27585695Y-700698D01*
X27585698Y-700702D01*
X27650916Y-756600D01*
X27650919Y-756602D01*
X27654013Y-759254D01*
X27736896Y-803696D01*
X27758676Y-809859D01*
X27823472Y-828195D01*
X27823476Y-828196D01*
X27827389Y-829303D01*
X27881307Y-832506D01*
X27917207Y-834639D01*
X27917210Y-834639D01*
X27921269Y-834880D01*
X28014157Y-820168D01*
X28017946Y-818683D01*
X28017950Y-818682D01*
X28061103Y-801770D01*
X28101719Y-785853D01*
X28105106Y-783585D01*
X28105109Y-783584D01*
X28176484Y-735803D01*
X28176486Y-735802D01*
X28179870Y-733536D01*
X28244963Y-665657D01*
X28293962Y-585384D01*
X28324580Y-496462D01*
X28335389Y-403040D01*
X28335400Y-400000D01*
X28333264Y-380333D01*
X28330268Y-352756D01*
X28325243Y-306504D01*
X28322399Y-298052D01*
X28296545Y-221229D01*
X28296543Y-221224D01*
X28295246Y-217371D01*
X28288556Y-206236D01*
X28248904Y-140245D01*
X28246809Y-136758D01*
X28203068Y-90503D01*
X28184985Y-71380D01*
X28184982Y-71378D01*
X28182191Y-68426D01*
X28176659Y-64666D01*
X28136150Y-37137D01*
X28104408Y-15565D01*
X28017088Y19361D01*
X27924305Y34721D01*
X27920238Y34508D01*
X27920235Y34508D01*
X27873248Y32045D01*
X27830388Y29799D01*
X27826461Y28717D01*
X27826459Y28717D01*
X27786999Y17848D01*
X27739719Y4825D01*
X27656527Y-39037D01*
X27634362Y-57768D01*
X27587805Y-97112D01*
X27587802Y-97115D01*
X27584696Y-99740D01*
X27527574Y-174451D01*
X27525853Y-178142D01*
X27489548Y-255998D01*
X27489546Y-256004D01*
X27487829Y-259686D01*
X27486942Y-263654D01*
X27486941Y-263657D01*
X27478387Y-301926D01*
X27467313Y-351466D01*
X27467203Y-383124D01*
X27467002Y-440776D01*
X27466985Y-445512D01*
X24703200Y-445512D01*
X24703200Y1042593D01*
X24703131Y1044008D01*
X24702267Y1061575D01*
X24702221Y1062511D01*
X24702130Y1063435D01*
X24700867Y1076263D01*
X24700865Y1076282D01*
X24700776Y1077182D01*
X24700623Y1078218D01*
X24697989Y1095977D01*
X24697987Y1095986D01*
X24697851Y1096906D01*
X24694602Y1113240D01*
X24690091Y1128112D01*
X24683573Y1149596D01*
X24683039Y1151357D01*
X24671813Y1178460D01*
X24653043Y1213581D01*
X24652018Y1215115D01*
X24652014Y1215122D01*
X24649023Y1219598D01*
X24647987Y1221149D01*
X24634636Y1237418D01*
X24623887Y1250517D01*
X24623881Y1250524D01*
X24622708Y1251953D01*
X24601953Y1272708D01*
X24600524Y1273881D01*
X24600517Y1273887D01*
X24572589Y1296805D01*
X24571149Y1297987D01*
X24566334Y1301204D01*
X24565122Y1302014D01*
X24565115Y1302018D01*
X24563581Y1303043D01*
X24528460Y1321813D01*
X24526760Y1322517D01*
X24526754Y1322520D01*
X24507941Y1330312D01*
X24501357Y1333039D01*
X24475951Y1340746D01*
X24469570Y1342682D01*
X24436513Y1363239D01*
X24416200Y1414644D01*
X24416200Y2036099D01*
X24895100Y2036099D01*
X24895100Y2020968D01*
X24895421Y2016075D01*
X24902005Y1966061D01*
X24904534Y1956620D01*
X24930225Y1894599D01*
X24935107Y1886143D01*
X24975976Y1832881D01*
X24982881Y1825976D01*
X25036143Y1785107D01*
X25044599Y1780225D01*
X25061853Y1773078D01*
X25069868Y1772023D01*
X25070142Y1772379D01*
X25071000Y1776694D01*
X25071000Y2036098D01*
X25578999Y2036098D01*
X25578999Y1779190D01*
X25581091Y1771380D01*
X25581525Y1771264D01*
X25585844Y1772123D01*
X25605396Y1780223D01*
X25613860Y1785109D01*
X25667119Y1825976D01*
X25674024Y1832881D01*
X25714893Y1886143D01*
X25719775Y1894599D01*
X25745466Y1956620D01*
X25747995Y1966061D01*
X25754579Y2016075D01*
X25754900Y2020968D01*
X25754900Y2036098D01*
X25752808Y2043908D01*
X25744998Y2046000D01*
X25588901Y2046000D01*
X25581091Y2043908D01*
X25578999Y2036098D01*
X25071000Y2036098D01*
X25071000Y2036099D01*
X25068908Y2043909D01*
X25061098Y2046001D01*
X24905002Y2046001D01*
X24897192Y2043909D01*
X24895100Y2036099D01*
X24416200Y2036099D01*
X24416200Y2325496D01*
X24415591Y2331705D01*
X24409418Y2394663D01*
X24409417Y2394666D01*
X24409059Y2398321D01*
X24401521Y2423290D01*
X24396410Y2440217D01*
X24394303Y2454488D01*
X26066985Y2454488D01*
X26067845Y2450512D01*
X26067845Y2450509D01*
X26075632Y2414494D01*
X26086859Y2362566D01*
X26126009Y2277057D01*
X26128459Y2273806D01*
X26128460Y2273804D01*
X26174056Y2213296D01*
X26182607Y2201948D01*
X26185695Y2199302D01*
X26185698Y2199298D01*
X26250916Y2143400D01*
X26250919Y2143398D01*
X26254013Y2140746D01*
X26336896Y2096304D01*
X26351682Y2092120D01*
X26423472Y2071805D01*
X26423476Y2071804D01*
X26427389Y2070697D01*
X26481307Y2067494D01*
X26517207Y2065361D01*
X26517210Y2065361D01*
X26521269Y2065120D01*
X26614157Y2079832D01*
X26617946Y2081317D01*
X26617950Y2081318D01*
X26665620Y2100000D01*
X26701719Y2114147D01*
X26705106Y2116415D01*
X26705109Y2116416D01*
X26776484Y2164197D01*
X26776486Y2164198D01*
X26779870Y2166464D01*
X26844963Y2234343D01*
X26848872Y2240746D01*
X26863186Y2264197D01*
X26893962Y2314616D01*
X26898197Y2326914D01*
X26923254Y2399687D01*
X26924580Y2403538D01*
X26925460Y2411139D01*
X26935150Y2494895D01*
X26935389Y2496960D01*
X26935400Y2500000D01*
X26933641Y2516197D01*
X26930685Y2543400D01*
X26929481Y2554488D01*
X27566985Y2554488D01*
X27567845Y2550512D01*
X27567845Y2550509D01*
X27575707Y2514147D01*
X27586859Y2462566D01*
X27626009Y2377057D01*
X27628459Y2373806D01*
X27628460Y2373804D01*
X27668544Y2320611D01*
X27682607Y2301948D01*
X27685695Y2299302D01*
X27685698Y2299298D01*
X27750916Y2243400D01*
X27750919Y2243398D01*
X27754013Y2240746D01*
X27836896Y2196304D01*
X27872580Y2186206D01*
X27923472Y2171805D01*
X27923476Y2171804D01*
X27927389Y2170697D01*
X27981307Y2167494D01*
X28017207Y2165361D01*
X28017210Y2165361D01*
X28021269Y2165120D01*
X28114157Y2179832D01*
X28117946Y2181317D01*
X28117950Y2181318D01*
X28167480Y2200729D01*
X28201719Y2214147D01*
X28205106Y2216415D01*
X28205109Y2216416D01*
X28276484Y2264197D01*
X28276486Y2264198D01*
X28279870Y2266464D01*
X28344963Y2334343D01*
X28347832Y2339042D01*
X28363749Y2365120D01*
X28393962Y2414616D01*
X28397727Y2425549D01*
X28423254Y2499687D01*
X28424580Y2503538D01*
X28425808Y2514147D01*
X28430015Y2550509D01*
X28435389Y2596960D01*
X28435400Y2600000D01*
X28434624Y2607149D01*
X28426626Y2680762D01*
X28425243Y2693496D01*
X28423338Y2699157D01*
X28396545Y2778771D01*
X28396543Y2778776D01*
X28395246Y2782629D01*
X28392023Y2787994D01*
X28357710Y2845100D01*
X28352070Y2854488D01*
X35966985Y2854488D01*
X35967845Y2850512D01*
X35967845Y2850509D01*
X35975546Y2814893D01*
X35986859Y2762566D01*
X36026009Y2677057D01*
X36028459Y2673806D01*
X36028460Y2673804D01*
X36061620Y2629799D01*
X36082607Y2601948D01*
X36085695Y2599302D01*
X36085698Y2599298D01*
X36150916Y2543400D01*
X36150919Y2543398D01*
X36154013Y2540746D01*
X36236896Y2496304D01*
X36261870Y2489237D01*
X36323472Y2471805D01*
X36323476Y2471804D01*
X36327389Y2470697D01*
X36381307Y2467494D01*
X36417207Y2465361D01*
X36417210Y2465361D01*
X36421269Y2465120D01*
X36514157Y2479832D01*
X36517946Y2481317D01*
X36517950Y2481318D01*
X36566283Y2500260D01*
X36601719Y2514147D01*
X36605106Y2516415D01*
X36605109Y2516416D01*
X36676484Y2564197D01*
X36676486Y2564198D01*
X36679870Y2566464D01*
X36744963Y2634343D01*
X36793962Y2714616D01*
X36797727Y2725549D01*
X36823254Y2799687D01*
X36824580Y2803538D01*
X36825643Y2812721D01*
X36833132Y2877453D01*
X36835389Y2896960D01*
X36835400Y2900000D01*
X36835031Y2903402D01*
X36830308Y2946875D01*
X36825243Y2993496D01*
X36822070Y3002925D01*
X36796545Y3078771D01*
X36796543Y3078776D01*
X36795246Y3082629D01*
X36792264Y3087593D01*
X36748904Y3159755D01*
X36746809Y3163242D01*
X36708967Y3203259D01*
X36684985Y3228620D01*
X36684982Y3228622D01*
X36682191Y3231574D01*
X36678541Y3234055D01*
X36633815Y3264450D01*
X36604408Y3284435D01*
X36517088Y3319361D01*
X36424305Y3334721D01*
X36420238Y3334508D01*
X36420235Y3334508D01*
X36373248Y3332045D01*
X36330388Y3329799D01*
X36326461Y3328717D01*
X36326459Y3328717D01*
X36247575Y3306989D01*
X36239719Y3304825D01*
X36156527Y3260963D01*
X36139111Y3246245D01*
X36087805Y3202888D01*
X36087802Y3202885D01*
X36084696Y3200260D01*
X36082225Y3197028D01*
X36082224Y3197027D01*
X36077829Y3191278D01*
X36027574Y3125549D01*
X36025853Y3121858D01*
X35989548Y3044002D01*
X35989546Y3043996D01*
X35987829Y3040314D01*
X35986942Y3036346D01*
X35986941Y3036343D01*
X35978406Y2998161D01*
X35967313Y2948534D01*
X35967248Y2929799D01*
X35967008Y2860963D01*
X35966985Y2854488D01*
X28352070Y2854488D01*
X28346809Y2863242D01*
X28295171Y2917848D01*
X28284985Y2928620D01*
X28284982Y2928622D01*
X28282191Y2931574D01*
X28278541Y2934055D01*
X28236150Y2962863D01*
X28204408Y2984435D01*
X28117088Y3019361D01*
X28024305Y3034721D01*
X28020238Y3034508D01*
X28020235Y3034508D01*
X27973248Y3032045D01*
X27930388Y3029799D01*
X27926461Y3028717D01*
X27926459Y3028717D01*
X27858445Y3009983D01*
X27839719Y3004825D01*
X27756527Y2960963D01*
X27739856Y2946875D01*
X27687805Y2902888D01*
X27687802Y2902885D01*
X27684696Y2900260D01*
X27682225Y2897028D01*
X27682224Y2897027D01*
X27681821Y2896500D01*
X27627574Y2825549D01*
X27625853Y2821858D01*
X27589548Y2744002D01*
X27589546Y2743996D01*
X27587829Y2740314D01*
X27586942Y2736346D01*
X27586941Y2736343D01*
X27579896Y2704825D01*
X27567313Y2648534D01*
X27567195Y2614616D01*
X27567008Y2560963D01*
X27566985Y2554488D01*
X26929481Y2554488D01*
X26925243Y2593496D01*
X26922399Y2601948D01*
X26896545Y2678771D01*
X26896543Y2678776D01*
X26895246Y2682629D01*
X26891152Y2689444D01*
X26858701Y2743450D01*
X26846809Y2763242D01*
X26801261Y2811408D01*
X26784985Y2828620D01*
X26784982Y2828622D01*
X26782191Y2831574D01*
X26776709Y2835300D01*
X26725331Y2870216D01*
X26704408Y2884435D01*
X26617088Y2919361D01*
X26524305Y2934721D01*
X26520238Y2934508D01*
X26520235Y2934508D01*
X26473248Y2932045D01*
X26430388Y2929799D01*
X26426461Y2928717D01*
X26426459Y2928717D01*
X26362493Y2911098D01*
X26339719Y2904825D01*
X26256527Y2860963D01*
X26236444Y2843991D01*
X26187805Y2802888D01*
X26187802Y2802885D01*
X26184696Y2800260D01*
X26127574Y2725549D01*
X26125853Y2721858D01*
X26089548Y2644002D01*
X26089546Y2643996D01*
X26087829Y2640314D01*
X26086942Y2636346D01*
X26086941Y2636343D01*
X26078476Y2598473D01*
X26067313Y2548534D01*
X26067248Y2529799D01*
X26067008Y2460963D01*
X26066985Y2454488D01*
X24394303Y2454488D01*
X24393200Y2461952D01*
X24393200Y2576142D01*
X24392671Y2579032D01*
X24895100Y2579032D01*
X24895100Y2563902D01*
X24897192Y2556092D01*
X24905002Y2554000D01*
X25061099Y2554000D01*
X25068909Y2556092D01*
X25071001Y2563902D01*
X25071001Y2820810D01*
X25070333Y2823306D01*
X25579000Y2823306D01*
X25579000Y2563901D01*
X25581092Y2556091D01*
X25588902Y2553999D01*
X25744998Y2553999D01*
X25752808Y2556091D01*
X25754900Y2563901D01*
X25754900Y2579032D01*
X25754579Y2583925D01*
X25747995Y2633939D01*
X25745466Y2643380D01*
X25719775Y2705401D01*
X25714893Y2713857D01*
X25674024Y2767119D01*
X25667119Y2774024D01*
X25613857Y2814893D01*
X25605401Y2819775D01*
X25588147Y2826922D01*
X25580132Y2827977D01*
X25579858Y2827621D01*
X25579000Y2823306D01*
X25070333Y2823306D01*
X25068909Y2828620D01*
X25068475Y2828736D01*
X25064156Y2827877D01*
X25044604Y2819777D01*
X25036140Y2814891D01*
X24982881Y2774024D01*
X24975976Y2767119D01*
X24935107Y2713857D01*
X24930225Y2705401D01*
X24904534Y2643380D01*
X24902005Y2633939D01*
X24895421Y2583925D01*
X24895100Y2579032D01*
X24392671Y2579032D01*
X24392586Y2579495D01*
X24374261Y2679491D01*
X24374260Y2679494D01*
X24373235Y2685087D01*
X24370540Y2690223D01*
X24358217Y2713702D01*
X24334506Y2758880D01*
X24279242Y2821260D01*
X24210655Y2868602D01*
X24206402Y2870215D01*
X24206400Y2870216D01*
X24136988Y2896541D01*
X24136984Y2896542D01*
X24132731Y2898155D01*
X24128215Y2898703D01*
X24128212Y2898704D01*
X24105324Y2901483D01*
X24070590Y2905700D01*
X23761358Y2905700D01*
X23758010Y2905086D01*
X23758005Y2905086D01*
X23658009Y2886761D01*
X23658006Y2886760D01*
X23652413Y2885735D01*
X23647376Y2883091D01*
X23647375Y2883091D01*
X23636633Y2877453D01*
X23578620Y2847006D01*
X23516240Y2791742D01*
X23468898Y2723155D01*
X23467285Y2718902D01*
X23467284Y2718900D01*
X23441847Y2651827D01*
X23439345Y2645231D01*
X23438797Y2640715D01*
X23438796Y2640712D01*
X23437497Y2630012D01*
X23431800Y2583090D01*
X23431800Y2462400D01*
X23428280Y2439662D01*
X23427569Y2437420D01*
X23417362Y2405244D01*
X23414680Y2381336D01*
X23409113Y2331705D01*
X23408800Y2328917D01*
X23408801Y1842112D01*
X23408801Y1428400D01*
X23398726Y1390800D01*
X23371201Y1363275D01*
X23333601Y1353200D01*
X23157407Y1353200D01*
X23156501Y1353155D01*
X23156482Y1353155D01*
X23138648Y1352278D01*
X23137489Y1352221D01*
X23136565Y1352130D01*
X23123737Y1350867D01*
X23123718Y1350865D01*
X23122818Y1350776D01*
X23121905Y1350641D01*
X23121892Y1350639D01*
X23104023Y1347989D01*
X23104014Y1347987D01*
X23103094Y1347851D01*
X23102191Y1347671D01*
X23102183Y1347670D01*
X23097724Y1346783D01*
X23086760Y1344602D01*
X23085003Y1344069D01*
X23084995Y1344067D01*
X23071164Y1339871D01*
X23048643Y1333039D01*
X23042059Y1330312D01*
X23023246Y1322520D01*
X23023240Y1322517D01*
X23021540Y1321813D01*
X22986419Y1303043D01*
X22984885Y1302018D01*
X22984878Y1302014D01*
X22983666Y1301204D01*
X22978851Y1297987D01*
X22977411Y1296805D01*
X22949483Y1273887D01*
X22949476Y1273881D01*
X22948047Y1272708D01*
X22927292Y1251953D01*
X22926119Y1250524D01*
X22926113Y1250517D01*
X22915364Y1237418D01*
X22902013Y1221149D01*
X22900977Y1219598D01*
X22897986Y1215122D01*
X22897982Y1215115D01*
X22896957Y1213581D01*
X22878187Y1178460D01*
X22866961Y1151357D01*
X22866427Y1149596D01*
X22859910Y1128112D01*
X22855398Y1113240D01*
X22852149Y1096906D01*
X22852013Y1095986D01*
X22852011Y1095977D01*
X22849378Y1078218D01*
X22849224Y1077182D01*
X22849135Y1076282D01*
X22849133Y1076263D01*
X22847870Y1063435D01*
X22847779Y1062511D01*
X22847733Y1061575D01*
X22846870Y1044008D01*
X22846800Y1042593D01*
X22846800Y-1539287D01*
X22846579Y-1545054D01*
X22822745Y-1854905D01*
X22822602Y-1856891D01*
X22822513Y-1858218D01*
X22822397Y-1860089D01*
X22822293Y-1861888D01*
X22822101Y-1865885D01*
X22821993Y-1868722D01*
X22821883Y-1872573D01*
X22821851Y-1874249D01*
X22821824Y-1876147D01*
X22821810Y-1877583D01*
X22821800Y-1879564D01*
X22821800Y-4022946D01*
X22813304Y-4057668D01*
X22806839Y-4070088D01*
X22760835Y-4168745D01*
X22760525Y-4169495D01*
X22760523Y-4169498D01*
X22754361Y-4184373D01*
X22754353Y-4184394D01*
X22754055Y-4185113D01*
X22749571Y-4197431D01*
X22744237Y-4214347D01*
X22716060Y-4319507D01*
X22712223Y-4336815D01*
X22709948Y-4349718D01*
X22707634Y-4367290D01*
X22698146Y-4475735D01*
X22697373Y-4493446D01*
X22697373Y-4506554D01*
X22698146Y-4524265D01*
X22707634Y-4632710D01*
X22709948Y-4650282D01*
X22712223Y-4663185D01*
X22716060Y-4680493D01*
X22744237Y-4785653D01*
X22749571Y-4802569D01*
X22754055Y-4814887D01*
X22754353Y-4815606D01*
X22754361Y-4815627D01*
X22760523Y-4830502D01*
X22760835Y-4831255D01*
X22806839Y-4929912D01*
X22815024Y-4945636D01*
X22821578Y-4956988D01*
X22822019Y-4957681D01*
X22822031Y-4957700D01*
X22830671Y-4971262D01*
X22831104Y-4971941D01*
X22893546Y-5061116D01*
X22904341Y-5075184D01*
X22912767Y-5085225D01*
X22924739Y-5098289D01*
X22998076Y-5171626D01*
X23017540Y-5205337D01*
X23017540Y-5244263D01*
X22998076Y-5277974D01*
X22964365Y-5297438D01*
X22944902Y-5300000D01*
X17147074Y-5300000D01*
X17109474Y-5289925D01*
X17081949Y-5262400D01*
X17071874Y-5224800D01*
X17081949Y-5187200D01*
X17093900Y-5171626D01*
X18941100Y-3324426D01*
X18974811Y-3304962D01*
X18994274Y-3302400D01*
X21124800Y-3302400D01*
X21127228Y-3302080D01*
X21127233Y-3302080D01*
X21161809Y-3297528D01*
X21161815Y-3297527D01*
X21164244Y-3297207D01*
X21191994Y-3289771D01*
X21197086Y-3288407D01*
X21197087Y-3288407D01*
X21201844Y-3287132D01*
X21270163Y-3247688D01*
X21297688Y-3220163D01*
X21337132Y-3151844D01*
X21347207Y-3114244D01*
X21347578Y-3111430D01*
X21352080Y-3077233D01*
X21352080Y-3077228D01*
X21352400Y-3074800D01*
X21352400Y724800D01*
X21352070Y727307D01*
X21347528Y761809D01*
X21347527Y761815D01*
X21347207Y764244D01*
X21337132Y801844D01*
X21297688Y870163D01*
X21270163Y897688D01*
X21201844Y937132D01*
X21195239Y938902D01*
X21191994Y939771D01*
X21164244Y947207D01*
X21161815Y947527D01*
X21161809Y947528D01*
X21127233Y952080D01*
X21127228Y952080D01*
X21124800Y952400D01*
X18994274Y952400D01*
X18956674Y962475D01*
X18941100Y974426D01*
X18276926Y1638600D01*
X18257462Y1672311D01*
X18254900Y1691774D01*
X18254900Y1711099D01*
X19070100Y1711099D01*
X19070100Y1667429D01*
X19070337Y1663207D01*
X19077028Y1603826D01*
X19078897Y1595637D01*
X19105312Y1520147D01*
X19108956Y1512580D01*
X19151507Y1444862D01*
X19156743Y1438296D01*
X19213296Y1381743D01*
X19219862Y1376507D01*
X19287580Y1333956D01*
X19295147Y1330312D01*
X19370637Y1303897D01*
X19378826Y1302028D01*
X19437346Y1295434D01*
X19443908Y1297192D01*
X19446000Y1305002D01*
X19446000Y1711098D01*
X19953999Y1711098D01*
X19953999Y1305002D01*
X19956091Y1297192D01*
X19962654Y1295434D01*
X20021174Y1302028D01*
X20029363Y1303897D01*
X20104853Y1330312D01*
X20112420Y1333956D01*
X20180138Y1376507D01*
X20186704Y1381743D01*
X20243257Y1438296D01*
X20248493Y1444862D01*
X20291044Y1512580D01*
X20294688Y1520147D01*
X20321103Y1595637D01*
X20322972Y1603826D01*
X20329663Y1663207D01*
X20329900Y1667429D01*
X20329900Y1711098D01*
X20327808Y1718908D01*
X20319998Y1721000D01*
X19963901Y1721000D01*
X19956091Y1718908D01*
X19953999Y1711098D01*
X19446000Y1711098D01*
X19446000Y1711099D01*
X19443908Y1718909D01*
X19436098Y1721001D01*
X19080002Y1721001D01*
X19072192Y1718909D01*
X19070100Y1711099D01*
X18254900Y1711099D01*
X18254900Y2100000D01*
X18253766Y2104825D01*
X18244776Y2143046D01*
X18238661Y2169045D01*
X18204355Y2214472D01*
X18155956Y2244440D01*
X18142791Y2246901D01*
X18103409Y2254263D01*
X18103406Y2254263D01*
X18100000Y2254900D01*
X15775200Y2254900D01*
X15737600Y2264975D01*
X15720004Y2282571D01*
X19070100Y2282571D01*
X19070100Y2238902D01*
X19072192Y2231092D01*
X19080002Y2229000D01*
X19436099Y2229000D01*
X19443909Y2231092D01*
X19446001Y2238902D01*
X19446001Y2644998D01*
X19954000Y2644998D01*
X19954000Y2238901D01*
X19956092Y2231091D01*
X19963902Y2228999D01*
X20319998Y2228999D01*
X20327808Y2231091D01*
X20329900Y2238901D01*
X20329900Y2282571D01*
X20329663Y2286793D01*
X20322972Y2346174D01*
X20321103Y2354363D01*
X20294688Y2429853D01*
X20291044Y2437420D01*
X20248493Y2505138D01*
X20243257Y2511704D01*
X20186704Y2568257D01*
X20180138Y2573493D01*
X20112420Y2616044D01*
X20104853Y2619688D01*
X20029363Y2646103D01*
X20021174Y2647972D01*
X19962654Y2654566D01*
X19956092Y2652808D01*
X19954000Y2644998D01*
X19446001Y2644998D01*
X19443909Y2652808D01*
X19437346Y2654566D01*
X19378826Y2647972D01*
X19370637Y2646103D01*
X19295147Y2619688D01*
X19287580Y2616044D01*
X19219862Y2573493D01*
X19213296Y2568257D01*
X19156743Y2511704D01*
X19151507Y2505138D01*
X19108956Y2437420D01*
X19105312Y2429853D01*
X19078897Y2354363D01*
X19077028Y2346174D01*
X19070337Y2286793D01*
X19070100Y2282571D01*
X15720004Y2282571D01*
X15710075Y2292500D01*
X15700000Y2330100D01*
X15700000Y3200000D01*
X15546077Y3200000D01*
X15532100Y3201676D01*
X15530184Y3202440D01*
X15525493Y3202900D01*
X15523656Y3202900D01*
X15521819Y3202990D01*
X15521819Y3202994D01*
X15520725Y3203048D01*
X15515164Y3204658D01*
X15499011Y3203259D01*
X15498099Y3203180D01*
X15491610Y3202900D01*
X6627600Y3202900D01*
X6590000Y3212975D01*
X6562475Y3240500D01*
X6552400Y3278100D01*
X6552400Y3621900D01*
X6562475Y3659500D01*
X6590000Y3687025D01*
X6627600Y3697100D01*
X6923647Y3697100D01*
X6944123Y3694259D01*
X7023472Y3671805D01*
X7023476Y3671804D01*
X7027389Y3670697D01*
X7079522Y3667600D01*
X7117207Y3665361D01*
X7117210Y3665361D01*
X7121269Y3665120D01*
X7214157Y3679832D01*
X7217946Y3681317D01*
X7217950Y3681318D01*
X7280889Y3705984D01*
X7301719Y3714147D01*
X7305106Y3716415D01*
X7305109Y3716416D01*
X7376484Y3764197D01*
X7376486Y3764198D01*
X7379870Y3766464D01*
X7444963Y3834343D01*
X7493962Y3914616D01*
X7524580Y4003538D01*
X7530474Y4054488D01*
X30766985Y4054488D01*
X30767845Y4050512D01*
X30767845Y4050509D01*
X30771750Y4032448D01*
X30786859Y3962566D01*
X30826009Y3877057D01*
X30828459Y3873806D01*
X30828460Y3873804D01*
X30870149Y3818481D01*
X30882607Y3801948D01*
X30885695Y3799302D01*
X30885698Y3799298D01*
X30950916Y3743400D01*
X30950919Y3743398D01*
X30954013Y3740746D01*
X31036896Y3696304D01*
X31069687Y3687025D01*
X31123472Y3671805D01*
X31123476Y3671804D01*
X31127389Y3670697D01*
X31179522Y3667600D01*
X31217207Y3665361D01*
X31217210Y3665361D01*
X31221269Y3665120D01*
X31314157Y3679832D01*
X31317946Y3681317D01*
X31317950Y3681318D01*
X31380889Y3705984D01*
X31401719Y3714147D01*
X31405106Y3716415D01*
X31405109Y3716416D01*
X31476484Y3764197D01*
X31476486Y3764198D01*
X31479870Y3766464D01*
X31544963Y3834343D01*
X31593962Y3914616D01*
X31624580Y4003538D01*
X31635389Y4096960D01*
X31635400Y4100000D01*
X31625243Y4193496D01*
X31623464Y4198782D01*
X31606666Y4248697D01*
X33546975Y4248697D01*
X33556722Y4197359D01*
X33563822Y4159962D01*
X33566653Y4145048D01*
X33605576Y4046990D01*
X33607501Y4043975D01*
X33607501Y4043974D01*
X33660414Y3961077D01*
X33660417Y3961073D01*
X33662339Y3958062D01*
X33664798Y3955466D01*
X33664799Y3955465D01*
X33715700Y3901733D01*
X33734894Y3881471D01*
X33820623Y3819982D01*
X33916432Y3775813D01*
X33942431Y3769403D01*
X34015392Y3751414D01*
X34015395Y3751414D01*
X34018865Y3750558D01*
X34087565Y3747018D01*
X34120652Y3745313D01*
X34120654Y3745313D01*
X34124226Y3745129D01*
X34228713Y3759720D01*
X34328555Y3793807D01*
X34377573Y3821823D01*
X34417041Y3844380D01*
X34417045Y3844383D01*
X34420151Y3846158D01*
X34422868Y3848491D01*
X34422871Y3848493D01*
X34482951Y3900080D01*
X34500194Y3914885D01*
X34565798Y3997507D01*
X34614594Y4091045D01*
X34644822Y4192122D01*
X34650518Y4248697D01*
X40546975Y4248697D01*
X40556722Y4197359D01*
X40563822Y4159962D01*
X40566653Y4145048D01*
X40605576Y4046990D01*
X40607501Y4043975D01*
X40607501Y4043974D01*
X40660414Y3961077D01*
X40660417Y3961073D01*
X40662339Y3958062D01*
X40664798Y3955466D01*
X40664799Y3955465D01*
X40715700Y3901733D01*
X40734894Y3881471D01*
X40820623Y3819982D01*
X40916432Y3775813D01*
X40942431Y3769403D01*
X41015392Y3751414D01*
X41015395Y3751414D01*
X41018865Y3750558D01*
X41087565Y3747018D01*
X41120652Y3745313D01*
X41120654Y3745313D01*
X41124226Y3745129D01*
X41228713Y3759720D01*
X41328555Y3793807D01*
X41377573Y3821823D01*
X41417041Y3844380D01*
X41417045Y3844383D01*
X41420151Y3846158D01*
X41422868Y3848491D01*
X41422871Y3848493D01*
X41482951Y3900080D01*
X41500194Y3914885D01*
X41565798Y3997507D01*
X41614594Y4091045D01*
X41644822Y4192122D01*
X41655392Y4297092D01*
X41655400Y4300000D01*
X41653153Y4323553D01*
X41645720Y4401465D01*
X41645719Y4401470D01*
X41645380Y4405024D01*
X41615681Y4506258D01*
X41567375Y4600049D01*
X41502205Y4683015D01*
X41422522Y4752160D01*
X41331202Y4804990D01*
X41327829Y4806161D01*
X41327823Y4806164D01*
X41266493Y4827460D01*
X41231540Y4839598D01*
X41228004Y4840111D01*
X41228003Y4840111D01*
X41159628Y4850025D01*
X41127131Y4854737D01*
X41123564Y4854572D01*
X41123562Y4854572D01*
X41025319Y4850025D01*
X41025314Y4850024D01*
X41021743Y4849859D01*
X40919179Y4825141D01*
X40915919Y4823659D01*
X40915917Y4823658D01*
X40870919Y4803198D01*
X40823140Y4781474D01*
X40820222Y4779404D01*
X40820220Y4779403D01*
X40740008Y4722505D01*
X40737090Y4720435D01*
X40734619Y4717854D01*
X40734617Y4717852D01*
X40706252Y4688221D01*
X40664135Y4644225D01*
X40662196Y4641222D01*
X40662192Y4641217D01*
X40625198Y4583922D01*
X40606907Y4555595D01*
X40605571Y4552280D01*
X40605570Y4552278D01*
X40598495Y4534721D01*
X40567472Y4457742D01*
X40547251Y4354198D01*
X40547153Y4316729D01*
X40547018Y4265012D01*
X40546975Y4248697D01*
X34650518Y4248697D01*
X34655392Y4297092D01*
X34655400Y4300000D01*
X34653153Y4323553D01*
X34645720Y4401465D01*
X34645719Y4401470D01*
X34645380Y4405024D01*
X34615681Y4506258D01*
X34567375Y4600049D01*
X34502205Y4683015D01*
X34422522Y4752160D01*
X34331202Y4804990D01*
X34327829Y4806161D01*
X34327823Y4806164D01*
X34266493Y4827460D01*
X34231540Y4839598D01*
X34228004Y4840111D01*
X34228003Y4840111D01*
X34159628Y4850025D01*
X34127131Y4854737D01*
X34123564Y4854572D01*
X34123562Y4854572D01*
X34025319Y4850025D01*
X34025314Y4850024D01*
X34021743Y4849859D01*
X33919179Y4825141D01*
X33915919Y4823659D01*
X33915917Y4823658D01*
X33870919Y4803198D01*
X33823140Y4781474D01*
X33820222Y4779404D01*
X33820220Y4779403D01*
X33740008Y4722505D01*
X33737090Y4720435D01*
X33734619Y4717854D01*
X33734617Y4717852D01*
X33706252Y4688221D01*
X33664135Y4644225D01*
X33662196Y4641222D01*
X33662192Y4641217D01*
X33625198Y4583922D01*
X33606907Y4555595D01*
X33605571Y4552280D01*
X33605570Y4552278D01*
X33598495Y4534721D01*
X33567472Y4457742D01*
X33547251Y4354198D01*
X33547153Y4316729D01*
X33547018Y4265012D01*
X33546975Y4248697D01*
X31606666Y4248697D01*
X31596545Y4278771D01*
X31596543Y4278776D01*
X31595246Y4282629D01*
X31587828Y4294976D01*
X31551482Y4355465D01*
X31546809Y4363242D01*
X31507298Y4405024D01*
X31484985Y4428620D01*
X31484982Y4428622D01*
X31482191Y4431574D01*
X31404408Y4484435D01*
X31317088Y4519361D01*
X31224305Y4534721D01*
X31220238Y4534508D01*
X31220235Y4534508D01*
X31173248Y4532045D01*
X31130388Y4529799D01*
X31126461Y4528717D01*
X31126459Y4528717D01*
X31043647Y4505907D01*
X31039719Y4504825D01*
X30956527Y4460963D01*
X30936424Y4443974D01*
X30887805Y4402888D01*
X30887802Y4402885D01*
X30884696Y4400260D01*
X30882225Y4397028D01*
X30882224Y4397027D01*
X30872669Y4384529D01*
X30827574Y4325549D01*
X30825853Y4321858D01*
X30789548Y4244002D01*
X30789546Y4243996D01*
X30787829Y4240314D01*
X30767313Y4148534D01*
X30767299Y4144466D01*
X30767000Y4058649D01*
X30766985Y4054488D01*
X7530474Y4054488D01*
X7535389Y4096960D01*
X7535400Y4100000D01*
X7525243Y4193496D01*
X7523464Y4198782D01*
X7496545Y4278771D01*
X7496543Y4278776D01*
X7495246Y4282629D01*
X7487828Y4294976D01*
X7451482Y4355465D01*
X7446809Y4363242D01*
X7407298Y4405024D01*
X7384985Y4428620D01*
X7384982Y4428622D01*
X7382191Y4431574D01*
X7304408Y4484435D01*
X7217088Y4519361D01*
X7124305Y4534721D01*
X7120238Y4534508D01*
X7120235Y4534508D01*
X7073248Y4532045D01*
X7030388Y4529799D01*
X7026461Y4528717D01*
X7026459Y4528717D01*
X6992492Y4519361D01*
X6943648Y4505907D01*
X6942533Y4505600D01*
X6922563Y4502900D01*
X6627600Y4502900D01*
X6590000Y4512975D01*
X6562475Y4540500D01*
X6552400Y4578100D01*
X6552400Y5024800D01*
X6549843Y5044225D01*
X6547528Y5061809D01*
X6547527Y5061815D01*
X6547207Y5064244D01*
X6537132Y5101844D01*
X6497688Y5170163D01*
X6494201Y5173650D01*
X6491203Y5177557D01*
X6492310Y5178407D01*
X6476761Y5205337D01*
X6476761Y5244263D01*
X6496225Y5277974D01*
X6529936Y5297438D01*
X6549399Y5300000D01*
X61154242Y5300000D01*
X61191842Y5289925D01*
G37*
G04 #@! TD.AperFunction*
G04 #@! TA.AperFunction,Conductor*
G36*
X11010000Y-3212975D02*
G01*
X11037525Y-3240500D01*
X11047600Y-3278100D01*
X11047600Y-5224800D01*
X11037525Y-5262400D01*
X11010000Y-5289925D01*
X10972400Y-5300000D01*
X275200Y-5300000D01*
X237600Y-5289925D01*
X210075Y-5262400D01*
X200000Y-5224800D01*
X200000Y-3278100D01*
X210075Y-3240500D01*
X237600Y-3212975D01*
X275200Y-3202900D01*
X10972400Y-3202900D01*
X11010000Y-3212975D01*
G37*
G04 #@! TD.AperFunction*
G04 #@! TA.AperFunction,Conductor*
G36*
X44308081Y-2302797D02*
G01*
X44335606Y-2330322D01*
X44345681Y-2367922D01*
X44335606Y-2405522D01*
X44323655Y-2421096D01*
X44260101Y-2484650D01*
X44210863Y-2506573D01*
X44164331Y-2509012D01*
X44130388Y-2510791D01*
X44126461Y-2511873D01*
X44126459Y-2511873D01*
X44048327Y-2533394D01*
X44039719Y-2535765D01*
X43956527Y-2579627D01*
X43934892Y-2597910D01*
X43887805Y-2637702D01*
X43887802Y-2637705D01*
X43884696Y-2640330D01*
X43827574Y-2715041D01*
X43825853Y-2718732D01*
X43789548Y-2796588D01*
X43789546Y-2796594D01*
X43787829Y-2800276D01*
X43786942Y-2804244D01*
X43786941Y-2804247D01*
X43783590Y-2819239D01*
X43767313Y-2892056D01*
X43767180Y-2930109D01*
X43767006Y-2980176D01*
X43766985Y-2986102D01*
X43767845Y-2990078D01*
X43767845Y-2990081D01*
X43777531Y-3034881D01*
X43786859Y-3078024D01*
X43826009Y-3163533D01*
X43828459Y-3166784D01*
X43828460Y-3166786D01*
X43871310Y-3223650D01*
X43882607Y-3238642D01*
X43885695Y-3241288D01*
X43885698Y-3241292D01*
X43950916Y-3297190D01*
X43950919Y-3297192D01*
X43954013Y-3299844D01*
X44036896Y-3344286D01*
X44062270Y-3351466D01*
X44123472Y-3368785D01*
X44123476Y-3368786D01*
X44127389Y-3369893D01*
X44181307Y-3373096D01*
X44217207Y-3375229D01*
X44217210Y-3375229D01*
X44221269Y-3375470D01*
X44314157Y-3360758D01*
X44317946Y-3359273D01*
X44317950Y-3359272D01*
X44367577Y-3339823D01*
X44401719Y-3326443D01*
X44405106Y-3324175D01*
X44405109Y-3324174D01*
X44476484Y-3276393D01*
X44476486Y-3276392D01*
X44479870Y-3274126D01*
X44544963Y-3206247D01*
X44552048Y-3194641D01*
X44571036Y-3163533D01*
X44578637Y-3151080D01*
X44606826Y-3124236D01*
X44644661Y-3115082D01*
X44682004Y-3126073D01*
X44711198Y-3158954D01*
X44719697Y-3177516D01*
X44730717Y-3201586D01*
X44787315Y-3276695D01*
X44790403Y-3279341D01*
X44790406Y-3279345D01*
X44855624Y-3335243D01*
X44855627Y-3335245D01*
X44858721Y-3337897D01*
X44941604Y-3382339D01*
X44972367Y-3391044D01*
X45028180Y-3406838D01*
X45028184Y-3406839D01*
X45032097Y-3407946D01*
X45086015Y-3411149D01*
X45121915Y-3413282D01*
X45121918Y-3413282D01*
X45125977Y-3413523D01*
X45218865Y-3398811D01*
X45222654Y-3397326D01*
X45222658Y-3397325D01*
X45265811Y-3380413D01*
X45306427Y-3364496D01*
X45309814Y-3362229D01*
X45309819Y-3362226D01*
X45331823Y-3347495D01*
X45333495Y-3346376D01*
X45370343Y-3333830D01*
X45408528Y-3341391D01*
X45437817Y-3367031D01*
X45448829Y-3392971D01*
X45449771Y-3397325D01*
X45451456Y-3405118D01*
X45480175Y-3467844D01*
X45490454Y-3490295D01*
X45496946Y-3528676D01*
X45483378Y-3565161D01*
X45453385Y-3589974D01*
X45422080Y-3596800D01*
X38194652Y-3596800D01*
X38157052Y-3586725D01*
X38129527Y-3559200D01*
X38120000Y-3512536D01*
X38125426Y-3467844D01*
X38125700Y-3465589D01*
X38125700Y-3161358D01*
X38125068Y-3157909D01*
X38106924Y-3058896D01*
X38106923Y-3058893D01*
X38105898Y-3053300D01*
X38097415Y-3037137D01*
X38069562Y-2984067D01*
X38069560Y-2984064D01*
X38067448Y-2980040D01*
X38012584Y-2918111D01*
X37944493Y-2871111D01*
X37871738Y-2843519D01*
X37840155Y-2820768D01*
X37824179Y-2785271D01*
X37828091Y-2746542D01*
X37850844Y-2714957D01*
X37869627Y-2703732D01*
X37926645Y-2680114D01*
X37926653Y-2680110D01*
X37931200Y-2678226D01*
X37975672Y-2644101D01*
X37987851Y-2634756D01*
X37991758Y-2631758D01*
X38011811Y-2605625D01*
X38021691Y-2592749D01*
X38071145Y-2564024D01*
X38071690Y-2563949D01*
X38085943Y-2561997D01*
X38090653Y-2559959D01*
X38092050Y-2559355D01*
X38104735Y-2555160D01*
X38106213Y-2554813D01*
X38106216Y-2554812D01*
X38111203Y-2553642D01*
X38130128Y-2543239D01*
X38136457Y-2540138D01*
X38156291Y-2531555D01*
X38161457Y-2527372D01*
X38172553Y-2519916D01*
X38178374Y-2516716D01*
X38182133Y-2513471D01*
X38182795Y-2512899D01*
X38182796Y-2512899D01*
X38183842Y-2511995D01*
X38195513Y-2500324D01*
X38201362Y-2495057D01*
X38211877Y-2486542D01*
X38215861Y-2483316D01*
X38219052Y-2478826D01*
X38220409Y-2476917D01*
X38228529Y-2467310D01*
X38381091Y-2314748D01*
X38414802Y-2295284D01*
X38434265Y-2292722D01*
X44270481Y-2292722D01*
X44308081Y-2302797D01*
G37*
G04 #@! TD.AperFunction*
G04 #@! TA.AperFunction,Conductor*
G36*
X47739310Y-2837408D02*
G01*
X48145130Y-3243228D01*
X48164594Y-3276939D01*
X48167155Y-3296660D01*
X48167059Y-3324426D01*
X48167012Y-3337897D01*
X48166985Y-3345512D01*
X48167845Y-3349489D01*
X48167845Y-3349490D01*
X48171967Y-3368555D01*
X48186859Y-3437434D01*
X48188555Y-3441139D01*
X48188556Y-3441141D01*
X48211061Y-3490295D01*
X48217553Y-3528677D01*
X48203985Y-3565162D01*
X48173992Y-3589974D01*
X48142687Y-3596800D01*
X48058239Y-3596800D01*
X48020639Y-3586725D01*
X47993114Y-3559200D01*
X47983039Y-3521600D01*
X47999433Y-3474729D01*
X48007592Y-3464492D01*
X48002712Y-3454362D01*
X47693136Y-3144786D01*
X47686136Y-3140744D01*
X47679136Y-3144786D01*
X47583605Y-3240317D01*
X47579563Y-3247317D01*
X47583605Y-3254317D01*
X47760230Y-3430942D01*
X47765642Y-3435426D01*
X47800904Y-3459467D01*
X47826296Y-3488972D01*
X47833533Y-3527219D01*
X47820676Y-3563961D01*
X47791171Y-3589353D01*
X47758543Y-3596800D01*
X47347131Y-3596800D01*
X47309531Y-3586725D01*
X47282006Y-3559200D01*
X47271931Y-3521600D01*
X47279088Y-3489582D01*
X47279430Y-3488856D01*
X47281549Y-3485384D01*
X47287589Y-3467844D01*
X47310841Y-3400313D01*
X47312167Y-3396462D01*
X47314670Y-3374833D01*
X47317717Y-3348493D01*
X47322976Y-3303040D01*
X47322987Y-3300000D01*
X47322719Y-3297528D01*
X47316925Y-3244201D01*
X47312830Y-3206504D01*
X47304671Y-3182260D01*
X47297299Y-3160355D01*
X47294855Y-3121505D01*
X47312163Y-3086639D01*
X47344585Y-3065097D01*
X47383435Y-3062653D01*
X47397531Y-3067979D01*
X47399142Y-3067979D01*
X47406829Y-3063541D01*
X47632962Y-2837408D01*
X47666673Y-2817944D01*
X47705599Y-2817944D01*
X47739310Y-2837408D01*
G37*
G04 #@! TD.AperFunction*
G04 #@! TA.AperFunction,Conductor*
G36*
X49168527Y3203228D02*
G01*
X49179428Y3194587D01*
X49179911Y3195151D01*
X49248220Y3136603D01*
X49248223Y3136601D01*
X49251317Y3133949D01*
X49334200Y3089507D01*
X49359146Y3082448D01*
X49420776Y3065008D01*
X49420780Y3065007D01*
X49424693Y3063900D01*
X49478611Y3060697D01*
X49514511Y3058564D01*
X49514514Y3058564D01*
X49518573Y3058323D01*
X49611461Y3073035D01*
X49615252Y3074521D01*
X49615257Y3074522D01*
X49698902Y3107302D01*
X49737585Y3111641D01*
X49773256Y3096057D01*
X49796355Y3064725D01*
X49800694Y3026042D01*
X49794495Y3005507D01*
X49793291Y3002925D01*
X49787829Y2991211D01*
X49786942Y2987243D01*
X49786941Y2987240D01*
X49778289Y2948534D01*
X49767313Y2899431D01*
X49767182Y2861905D01*
X49767011Y2812721D01*
X49766985Y2805385D01*
X49767845Y2801409D01*
X49767845Y2801406D01*
X49776699Y2760454D01*
X49786859Y2713463D01*
X49790550Y2705401D01*
X49791584Y2703143D01*
X49798074Y2664761D01*
X49776382Y2618667D01*
X49367368Y2209653D01*
X49333657Y2190189D01*
X49294731Y2190189D01*
X49261020Y2209653D01*
X49254580Y2218376D01*
X49250278Y2221805D01*
X49240148Y2216925D01*
X48442952Y1419729D01*
X48409241Y1400265D01*
X48370315Y1400265D01*
X48336604Y1419729D01*
X48266176Y1490157D01*
X48246712Y1523868D01*
X48246712Y1562794D01*
X48266176Y1596505D01*
X48563020Y1893349D01*
X48567061Y1900348D01*
X48563018Y1907351D01*
X48433974Y2036394D01*
X48433969Y2036401D01*
X48269641Y2200729D01*
X48250177Y2234440D01*
X48250177Y2253904D01*
X48572978Y2253904D01*
X48577021Y2246901D01*
X48706065Y2117858D01*
X48706070Y2117851D01*
X48739796Y2084125D01*
X48746796Y2080083D01*
X48753796Y2084125D01*
X49063704Y2394033D01*
X49066489Y2398857D01*
X49059876Y2408177D01*
X49049577Y2412902D01*
X48997834Y2426766D01*
X48985988Y2428100D01*
X48949751Y2442320D01*
X48925480Y2472753D01*
X48919257Y2500016D01*
X48918879Y2510124D01*
X48916807Y2521074D01*
X48898882Y2572301D01*
X48897659Y2574615D01*
X48896725Y2575359D01*
X48886595Y2570479D01*
X48577019Y2260903D01*
X48572978Y2253904D01*
X48250177Y2253904D01*
X48250177Y2273366D01*
X48269641Y2307077D01*
X48710151Y2747587D01*
X48712936Y2752411D01*
X48698182Y2773204D01*
X48698734Y2773596D01*
X48686780Y2787487D01*
X48679543Y2825735D01*
X48701358Y2873287D01*
X49019350Y3191279D01*
X49072522Y3213303D01*
X49130927Y3213303D01*
X49168527Y3203228D01*
G37*
G04 #@! TD.AperFunction*
G04 #@! TD*
G04 #@! TA.AperFunction,Conductor*
G04 #@! TO.N,IN*
G36*
X24407264Y1148555D02*
G01*
X24423598Y1145306D01*
X24450701Y1134080D01*
X24458269Y1129024D01*
X24479024Y1108269D01*
X24484080Y1100701D01*
X24495306Y1073598D01*
X24498555Y1057264D01*
X24500000Y1042593D01*
X24500000Y-1442593D01*
X24498555Y-1457264D01*
X24495306Y-1473598D01*
X24484080Y-1500701D01*
X24479024Y-1508269D01*
X24458269Y-1529024D01*
X24450701Y-1534080D01*
X24423598Y-1545306D01*
X24407264Y-1548555D01*
X24392593Y-1550000D01*
X24275000Y-1550000D01*
X24275000Y-3800000D01*
X31705747Y-3800000D01*
X31745819Y-3811566D01*
X31783818Y-3835495D01*
X31787382Y-3836835D01*
X31875802Y-3870070D01*
X31972860Y-3885442D01*
X32071026Y-3880984D01*
X32074723Y-3880049D01*
X32166290Y-3856879D01*
X32254762Y-3814110D01*
X32257787Y-3811797D01*
X32258839Y-3811150D01*
X32298242Y-3800000D01*
X64612245Y-3800000D01*
X64636905Y-3763095D01*
X66791472Y-1608528D01*
X66798737Y-1601812D01*
X66870960Y-1540128D01*
X66886951Y-1528509D01*
X66963709Y-1481471D01*
X66981307Y-1472504D01*
X67064480Y-1438053D01*
X67083274Y-1431947D01*
X67170803Y-1410933D01*
X67190329Y-1407840D01*
X67285019Y-1400388D01*
X67294905Y-1400000D01*
X67694504Y-1400000D01*
X67705486Y-1400480D01*
X67810568Y-1409674D01*
X67832197Y-1413487D01*
X67928766Y-1439362D01*
X67949405Y-1446874D01*
X68040010Y-1489124D01*
X68059031Y-1500106D01*
X68140925Y-1557449D01*
X68157749Y-1571567D01*
X68228433Y-1642251D01*
X68242551Y-1659075D01*
X68299894Y-1740969D01*
X68310876Y-1759990D01*
X68353126Y-1850595D01*
X68360638Y-1871234D01*
X68386513Y-1967803D01*
X68390326Y-1989432D01*
X68399520Y-2094514D01*
X68400000Y-2105496D01*
X68400000Y-2505095D01*
X68399612Y-2514981D01*
X68392160Y-2609670D01*
X68389067Y-2629198D01*
X68368055Y-2716721D01*
X68361947Y-2735520D01*
X68327496Y-2818693D01*
X68318529Y-2836291D01*
X68271493Y-2913046D01*
X68259872Y-2929040D01*
X68198188Y-3001263D01*
X68191472Y-3008528D01*
X66208528Y-4991472D01*
X66201263Y-4998188D01*
X66129040Y-5059872D01*
X66113049Y-5071491D01*
X66036291Y-5118529D01*
X66018693Y-5127496D01*
X65935520Y-5161947D01*
X65935504Y-5161952D01*
X65931825Y-5163476D01*
X65920604Y-5167122D01*
X65916726Y-5168053D01*
X65829198Y-5189067D01*
X65829193Y-5189068D01*
X65825310Y-5190000D01*
X65813655Y-5191846D01*
X65809677Y-5192159D01*
X65809671Y-5192160D01*
X65716913Y-5199460D01*
X65712999Y-5199768D01*
X65707099Y-5200000D01*
X23603285Y-5200000D01*
X23596731Y-5199714D01*
X23484995Y-5189938D01*
X23472098Y-5187664D01*
X23366938Y-5159487D01*
X23354620Y-5155003D01*
X23351420Y-5153511D01*
X23255959Y-5108997D01*
X23244615Y-5102447D01*
X23155436Y-5040003D01*
X23145395Y-5031577D01*
X23068423Y-4954605D01*
X23059997Y-4944564D01*
X22997555Y-4855389D01*
X22991001Y-4844037D01*
X22944997Y-4745380D01*
X22940513Y-4733062D01*
X22912336Y-4627902D01*
X22910061Y-4614999D01*
X22900573Y-4506554D01*
X22900573Y-4493446D01*
X22910061Y-4385001D01*
X22912336Y-4372098D01*
X22940513Y-4266938D01*
X22944997Y-4254620D01*
X22991001Y-4155963D01*
X22997555Y-4144611D01*
X23025000Y-4105416D01*
X23025000Y-1879564D01*
X23025014Y-1878128D01*
X23025046Y-1876452D01*
X23025154Y-1873615D01*
X23025258Y-1871816D01*
X23025347Y-1870489D01*
X23050000Y-1550000D01*
X23050000Y1042593D01*
X23051445Y1057264D01*
X23054694Y1073598D01*
X23065920Y1100701D01*
X23070976Y1108269D01*
X23091731Y1129024D01*
X23099299Y1134080D01*
X23126402Y1145306D01*
X23142736Y1148555D01*
X23157407Y1150000D01*
X24392593Y1150000D01*
X24407264Y1148555D01*
G37*
G04 #@! TD.AperFunction*
G04 #@! TD*
G04 #@! TA.AperFunction,Conductor*
G04 #@! TO.N,/HEATER*
G36*
X17606452Y2089925D02*
G01*
X17622026Y2077974D01*
X18900000Y800000D01*
X21124800Y800000D01*
X21162400Y789925D01*
X21189925Y762400D01*
X21200000Y724800D01*
X21200000Y-3074800D01*
X21189925Y-3112400D01*
X21162400Y-3139925D01*
X21124800Y-3150000D01*
X18900000Y-3150000D01*
X16772026Y-5277974D01*
X16738315Y-5297438D01*
X16718852Y-5300000D01*
X11275200Y-5300000D01*
X11237600Y-5289925D01*
X11210075Y-5262400D01*
X11200000Y-5224800D01*
X11200000Y-3278100D01*
X11210075Y-3240500D01*
X11237600Y-3212975D01*
X11275200Y-3202900D01*
X15476250Y-3202900D01*
X15479276Y-3203048D01*
X15484836Y-3204658D01*
X15501901Y-3203180D01*
X15508390Y-3202900D01*
X15513424Y-3202900D01*
X15517011Y-3202232D01*
X15524290Y-3201242D01*
X15535385Y-3200281D01*
X15541874Y-3200000D01*
X15700000Y-3200000D01*
X15700000Y2024800D01*
X15710075Y2062400D01*
X15737600Y2089925D01*
X15775200Y2100000D01*
X17568852Y2100000D01*
X17606452Y2089925D01*
G37*
G04 #@! TD.AperFunction*
G04 #@! TD*
G04 #@! TA.AperFunction,Conductor*
G04 #@! TO.N,/TIP_TC*
G36*
X6362400Y5089925D02*
G01*
X6389925Y5062400D01*
X6400000Y5024800D01*
X6400000Y3278100D01*
X6389925Y3240500D01*
X6362400Y3212975D01*
X6324800Y3202900D01*
X1075200Y3202900D01*
X1037600Y3212975D01*
X1010075Y3240500D01*
X1000000Y3278100D01*
X1000000Y5024800D01*
X1010075Y5062400D01*
X1037600Y5089925D01*
X1075200Y5100000D01*
X6324800Y5100000D01*
X6362400Y5089925D01*
G37*
G04 #@! TD.AperFunction*
G04 #@! TD*
M02*
