G04 #@! TF.GenerationSoftware,KiCad,Pcbnew,(5.99.0-4092-g1ee3df61c)*
G04 #@! TF.CreationDate,2020-10-21T20:22:12-07:00*
G04 #@! TF.ProjectId,RT_USB_PD_Soldering_Iron,52545f55-5342-45f5-9044-5f536f6c6465,rev?*
G04 #@! TF.SameCoordinates,PX5f5e100PY7735940*
G04 #@! TF.FileFunction,Paste,Top*
G04 #@! TF.FilePolarity,Positive*
%FSLAX46Y46*%
G04 Gerber Fmt 4.6, Leading zero omitted, Abs format (unit mm)*
G04 Created by KiCad (PCBNEW (5.99.0-4092-g1ee3df61c)) date 2020-10-21 20:22:12*
%MOMM*%
%LPD*%
G01*
G04 APERTURE LIST*
G04 Aperture macros list*
%AMRoundRect*
0 Rectangle with rounded corners*
0 $1 Rounding radius*
0 $2 $3 $4 $5 $6 $7 $8 $9 X,Y pos of 4 corners*
0 Add a 4 corners polygon primitive as box body*
4,1,4,$2,$3,$4,$5,$6,$7,$8,$9,$2,$3,0*
0 Add four circle primitives for the rounded corners*
1,1,$1+$1,$2,$3,0*
1,1,$1+$1,$4,$5,0*
1,1,$1+$1,$6,$7,0*
1,1,$1+$1,$8,$9,0*
0 Add four rect primitives between the rounded corners*
20,1,$1+$1,$2,$3,$4,$5,0*
20,1,$1+$1,$4,$5,$6,$7,0*
20,1,$1+$1,$6,$7,$8,$9,0*
20,1,$1+$1,$8,$9,$2,$3,0*%
%AMRotRect*
0 Rectangle, with rotation*
0 The origin of the aperture is its center*
0 $1 length*
0 $2 width*
0 $3 Rotation angle, in degrees counterclockwise*
0 Add horizontal line*
21,1,$1,$2,0,0,$3*%
G04 Aperture macros list end*
%ADD10R,1.200000X0.600000*%
%ADD11R,1.200000X0.300000*%
%ADD12RoundRect,0.135000X-0.135000X-0.185000X0.135000X-0.185000X0.135000X0.185000X-0.135000X0.185000X0*%
%ADD13RoundRect,0.140000X0.021213X-0.219203X0.219203X-0.021213X-0.021213X0.219203X-0.219203X0.021213X0*%
%ADD14R,3.000000X0.320000*%
%ADD15R,0.550000X0.650000*%
%ADD16RoundRect,0.135000X0.135000X0.185000X-0.135000X0.185000X-0.135000X-0.185000X0.135000X-0.185000X0*%
%ADD17RoundRect,0.140000X0.140000X0.170000X-0.140000X0.170000X-0.140000X-0.170000X0.140000X-0.170000X0*%
%ADD18RoundRect,0.140000X-0.170000X0.140000X-0.170000X-0.140000X0.170000X-0.140000X0.170000X0.140000X0*%
%ADD19RoundRect,0.140000X0.170000X-0.140000X0.170000X0.140000X-0.170000X0.140000X-0.170000X-0.140000X0*%
%ADD20RoundRect,0.140000X-0.140000X-0.170000X0.140000X-0.170000X0.140000X0.170000X-0.140000X0.170000X0*%
%ADD21R,0.630000X0.820000*%
%ADD22R,0.350000X0.650000*%
%ADD23R,2.100000X1.400000*%
%ADD24RoundRect,0.132500X0.132500X-0.197500X0.132500X0.197500X-0.132500X0.197500X-0.132500X-0.197500X0*%
%ADD25RoundRect,0.137500X0.137500X-0.192500X0.137500X0.192500X-0.137500X0.192500X-0.137500X-0.192500X0*%
%ADD26RoundRect,0.062500X0.062500X-0.225000X0.062500X0.225000X-0.062500X0.225000X-0.062500X-0.225000X0*%
%ADD27RoundRect,0.062500X0.225000X-0.062500X0.225000X0.062500X-0.225000X0.062500X-0.225000X-0.062500X0*%
%ADD28R,0.650000X0.400000*%
%ADD29R,0.400000X0.650000*%
%ADD30R,0.250000X0.675000*%
%ADD31R,0.675000X0.250000*%
%ADD32RotRect,0.900000X0.800000X225.000000*%
%ADD33RoundRect,0.135000X-0.185000X0.135000X-0.185000X-0.135000X0.185000X-0.135000X0.185000X0.135000X0*%
%ADD34RoundRect,0.140000X-0.219203X-0.021213X-0.021213X-0.219203X0.219203X0.021213X0.021213X0.219203X0*%
G04 APERTURE END LIST*
D10*
G04 #@! TO.C,J1*
X68375000Y-3200000D03*
X68375000Y-2400000D03*
D11*
X68375000Y-1750000D03*
X68375000Y-750000D03*
X68375000Y750000D03*
X68375000Y1750000D03*
D10*
X68375000Y2400000D03*
X68375000Y3200000D03*
X68375000Y3200000D03*
X68375000Y2400000D03*
D11*
X68375000Y1250000D03*
X68375000Y250000D03*
X68375000Y-250000D03*
X68375000Y-1250000D03*
D10*
X68375000Y-2400000D03*
X68375000Y-3200000D03*
G04 #@! TD*
D12*
G04 #@! TO.C,R10*
X27890000Y200000D03*
X28910000Y200000D03*
G04 #@! TD*
D13*
G04 #@! TO.C,C21*
X40398436Y-1254091D03*
X41077258Y-575269D03*
G04 #@! TD*
D14*
G04 #@! TO.C,OLED1*
X55500000Y-4030000D03*
X55500000Y-3410000D03*
X55500000Y-2790000D03*
X55500000Y-2170000D03*
X55500000Y-1550000D03*
X55500000Y-930000D03*
X55500000Y-310000D03*
X55500000Y310000D03*
X55500000Y930000D03*
X55500000Y1550000D03*
X55500000Y2170000D03*
X55500000Y2790000D03*
X55500000Y3410000D03*
X55500000Y4030000D03*
G04 #@! TD*
D15*
G04 #@! TO.C,SW1*
X64685016Y4081016D03*
X64685016Y931016D03*
X66335016Y931016D03*
X66335016Y4081016D03*
G04 #@! TD*
D16*
G04 #@! TO.C,R6*
X44510000Y2100000D03*
X43490000Y2100000D03*
G04 #@! TD*
D12*
G04 #@! TO.C,R17*
X30390000Y-2312064D03*
X31410000Y-2312064D03*
G04 #@! TD*
D17*
G04 #@! TO.C,C8*
X63287614Y4006516D03*
X62327614Y4006516D03*
G04 #@! TD*
D18*
G04 #@! TO.C,C12*
X46293709Y3581441D03*
X46293709Y2621441D03*
G04 #@! TD*
D19*
G04 #@! TO.C,C5*
X34900000Y-1180000D03*
X34900000Y-220000D03*
G04 #@! TD*
D20*
G04 #@! TO.C,C20*
X52120000Y-2800000D03*
X53080000Y-2800000D03*
G04 #@! TD*
D17*
G04 #@! TO.C,C24*
X25380000Y3300000D03*
X24420000Y3300000D03*
G04 #@! TD*
D21*
G04 #@! TO.C,U8*
X41347498Y2000000D03*
X42147498Y2000000D03*
D22*
X42397498Y3050000D03*
X41747498Y3050000D03*
X41097498Y3050000D03*
X41097498Y950000D03*
X41747498Y950000D03*
X42397498Y950000D03*
G04 #@! TD*
D12*
G04 #@! TO.C,R12*
X27890000Y-1300000D03*
X28910000Y-1300000D03*
G04 #@! TD*
D15*
G04 #@! TO.C,SW2*
X64678905Y-925000D03*
X64678905Y-4075000D03*
X66328905Y-925000D03*
X66328905Y-4075000D03*
G04 #@! TD*
D20*
G04 #@! TO.C,C26*
X51720000Y3100000D03*
X52680000Y3100000D03*
G04 #@! TD*
D12*
G04 #@! TO.C,R18*
X32581420Y-2301007D03*
X33601420Y-2301007D03*
G04 #@! TD*
D23*
G04 #@! TO.C,D3*
X19700000Y-2200000D03*
X19700000Y2200000D03*
G04 #@! TD*
D24*
G04 #@! TO.C,U6*
X23400000Y-220000D03*
X25325000Y-1100000D03*
X24100000Y700000D03*
X24100000Y-220000D03*
X23400000Y700000D03*
X25325000Y700000D03*
X24100000Y-1100000D03*
D25*
X23400000Y-1100000D03*
D24*
X25325000Y-200000D03*
D26*
X23150000Y-2125000D03*
X23650000Y-2125000D03*
X24150000Y-2125000D03*
X24650000Y-2125000D03*
X25150000Y-2125000D03*
X25650000Y-2125000D03*
D27*
X26325000Y-1450000D03*
X26325000Y-950000D03*
X26325000Y-450000D03*
X26325000Y50000D03*
X26325000Y550000D03*
X26325000Y1050000D03*
D26*
X25650000Y1725000D03*
X25150000Y1725000D03*
X24650000Y1725000D03*
X24150000Y1725000D03*
X23650000Y1725000D03*
X23150000Y1725000D03*
D27*
X22475000Y1050000D03*
X22475000Y550000D03*
X22475000Y50000D03*
X22475000Y-450000D03*
X22475000Y-950000D03*
X22475000Y-1450000D03*
G04 #@! TD*
D12*
G04 #@! TO.C,R11*
X27890000Y-3303407D03*
X28910000Y-3303407D03*
G04 #@! TD*
D18*
G04 #@! TO.C,C13*
X48390250Y3570816D03*
X48390250Y2610816D03*
G04 #@! TD*
D17*
G04 #@! TO.C,C23*
X28880000Y-2305328D03*
X27920000Y-2305328D03*
G04 #@! TD*
D18*
G04 #@! TO.C,C30*
X30300000Y530000D03*
X30300000Y-430000D03*
G04 #@! TD*
D12*
G04 #@! TO.C,R13*
X51690000Y2100000D03*
X52710000Y2100000D03*
G04 #@! TD*
D28*
G04 #@! TO.C,U7*
X31460396Y548787D03*
X31460396Y-101213D03*
X31460396Y-751213D03*
X33360396Y-751213D03*
X33360396Y548787D03*
G04 #@! TD*
D17*
G04 #@! TO.C,C25*
X28880000Y1200000D03*
X27920000Y1200000D03*
G04 #@! TD*
D29*
G04 #@! TO.C,U3*
X62861544Y950000D03*
X62211544Y950000D03*
X61561544Y950000D03*
X61561544Y-950000D03*
X62211544Y-950000D03*
X62861544Y-950000D03*
G04 #@! TD*
D18*
G04 #@! TO.C,C32*
X34900000Y1980000D03*
X34900000Y1020000D03*
G04 #@! TD*
D12*
G04 #@! TO.C,R14*
X32590000Y3000000D03*
X33610000Y3000000D03*
G04 #@! TD*
D17*
G04 #@! TO.C,C31*
X31380814Y-3301950D03*
X30420814Y-3301950D03*
G04 #@! TD*
D19*
G04 #@! TO.C,C19*
X53000000Y-1580000D03*
X53000000Y-620000D03*
G04 #@! TD*
D18*
G04 #@! TO.C,C29*
X39947498Y2480000D03*
X39947498Y1520000D03*
G04 #@! TD*
D17*
G04 #@! TO.C,C17*
X53080000Y-3800000D03*
X52120000Y-3800000D03*
G04 #@! TD*
D20*
G04 #@! TO.C,C27*
X51720000Y4100000D03*
X52680000Y4100000D03*
G04 #@! TD*
D30*
G04 #@! TO.C,U2*
X37850000Y2262500D03*
X37350000Y2262500D03*
X36850000Y2262500D03*
X36350000Y2262500D03*
D31*
X36087500Y1500000D03*
X36087500Y1000000D03*
X36087500Y500000D03*
D30*
X36350000Y-262500D03*
X36850000Y-262500D03*
X37350000Y-262500D03*
X37850000Y-262500D03*
D31*
X38112500Y500000D03*
X38112500Y1000000D03*
X38112500Y1500000D03*
G04 #@! TD*
D32*
G04 #@! TO.C,Y1*
X42006066Y-1416117D03*
X41016117Y-2406066D03*
X41793934Y-3183883D03*
X42783883Y-2193934D03*
G04 #@! TD*
D33*
G04 #@! TO.C,R15*
X31300000Y3010000D03*
X31300000Y1990000D03*
G04 #@! TD*
D16*
G04 #@! TO.C,R7*
X44510000Y1000000D03*
X43490000Y1000000D03*
G04 #@! TD*
D17*
G04 #@! TO.C,C28*
X33582598Y2000000D03*
X32622598Y2000000D03*
G04 #@! TD*
D34*
G04 #@! TO.C,C22*
X40246590Y-3360589D03*
X40925412Y-4039411D03*
G04 #@! TD*
D20*
G04 #@! TO.C,C14*
X46700848Y-2519372D03*
X47660848Y-2519372D03*
G04 #@! TD*
D17*
G04 #@! TO.C,C9*
X63275865Y-4021245D03*
X62315865Y-4021245D03*
G04 #@! TD*
D16*
G04 #@! TO.C,R16*
X33609786Y-3300533D03*
X32589786Y-3300533D03*
G04 #@! TD*
M02*
