G04 #@! TF.GenerationSoftware,KiCad,Pcbnew,(5.99.0-4092-g1ee3df61c)*
G04 #@! TF.CreationDate,2020-10-21T20:22:12-07:00*
G04 #@! TF.ProjectId,RT_USB_PD_Soldering_Iron,52545f55-5342-45f5-9044-5f536f6c6465,rev?*
G04 #@! TF.SameCoordinates,PX5f5e100PY7735940*
G04 #@! TF.FileFunction,Paste,Bot*
G04 #@! TF.FilePolarity,Positive*
%FSLAX46Y46*%
G04 Gerber Fmt 4.6, Leading zero omitted, Abs format (unit mm)*
G04 Created by KiCad (PCBNEW (5.99.0-4092-g1ee3df61c)) date 2020-10-21 20:22:12*
%MOMM*%
%LPD*%
G01*
G04 APERTURE LIST*
G04 Aperture macros list*
%AMRoundRect*
0 Rectangle with rounded corners*
0 $1 Rounding radius*
0 $2 $3 $4 $5 $6 $7 $8 $9 X,Y pos of 4 corners*
0 Add a 4 corners polygon primitive as box body*
4,1,4,$2,$3,$4,$5,$6,$7,$8,$9,$2,$3,0*
0 Add four circle primitives for the rounded corners*
1,1,$1+$1,$2,$3,0*
1,1,$1+$1,$4,$5,0*
1,1,$1+$1,$6,$7,0*
1,1,$1+$1,$8,$9,0*
0 Add four rect primitives between the rounded corners*
20,1,$1+$1,$2,$3,$4,$5,0*
20,1,$1+$1,$4,$5,$6,$7,0*
20,1,$1+$1,$6,$7,$8,$9,0*
20,1,$1+$1,$8,$9,$2,$3,0*%
G04 Aperture macros list end*
%ADD10R,0.700000X2.400000*%
%ADD11R,2.200000X2.100000*%
%ADD12R,2.800000X2.100000*%
%ADD13R,2.600000X2.700000*%
%ADD14RoundRect,0.237500X0.237500X-0.287500X0.237500X0.287500X-0.237500X0.287500X-0.237500X-0.287500X0*%
%ADD15RoundRect,0.135000X-0.185000X0.135000X-0.185000X-0.135000X0.185000X-0.135000X0.185000X0.135000X0*%
%ADD16RoundRect,0.150000X0.512500X0.150000X-0.512500X0.150000X-0.512500X-0.150000X0.512500X-0.150000X0*%
%ADD17RoundRect,0.140000X-0.170000X0.140000X-0.170000X-0.140000X0.170000X-0.140000X0.170000X0.140000X0*%
%ADD18RoundRect,0.237500X-0.237500X0.287500X-0.237500X-0.287500X0.237500X-0.287500X0.237500X0.287500X0*%
%ADD19RoundRect,0.140000X0.140000X0.170000X-0.140000X0.170000X-0.140000X-0.170000X0.140000X-0.170000X0*%
%ADD20RoundRect,0.237500X-0.287500X-0.237500X0.287500X-0.237500X0.287500X0.237500X-0.287500X0.237500X0*%
%ADD21RoundRect,0.135000X0.185000X-0.135000X0.185000X0.135000X-0.185000X0.135000X-0.185000X-0.135000X0*%
%ADD22RoundRect,0.232500X0.000000X-0.328805X0.328805X0.000000X0.000000X0.328805X-0.328805X0.000000X0*%
%ADD23RoundRect,0.062500X-0.220971X-0.309359X0.309359X0.220971X0.220971X0.309359X-0.309359X-0.220971X0*%
%ADD24RoundRect,0.062500X0.220971X-0.309359X0.309359X-0.220971X-0.220971X0.309359X-0.309359X0.220971X0*%
%ADD25RoundRect,0.137500X0.137500X0.262500X-0.137500X0.262500X-0.137500X-0.262500X0.137500X-0.262500X0*%
%ADD26RoundRect,0.140000X0.170000X-0.140000X0.170000X0.140000X-0.170000X0.140000X-0.170000X-0.140000X0*%
G04 APERTURE END LIST*
D10*
G04 #@! TO.C,J3*
X53780000Y1950000D03*
X53780000Y-1950000D03*
X55050000Y1950000D03*
X55050000Y-1950000D03*
X56320000Y1950000D03*
X56320000Y-1950000D03*
G04 #@! TD*
D11*
G04 #@! TO.C,J2*
X2500000Y-4050000D03*
X4500000Y4050000D03*
X1600000Y4050000D03*
D12*
X12000000Y-4050000D03*
D13*
X16300000Y750000D03*
G04 #@! TD*
D14*
G04 #@! TO.C,C16*
X19700000Y225000D03*
X19700000Y1975000D03*
G04 #@! TD*
G04 #@! TO.C,C1*
X65700000Y-2575000D03*
X65700000Y-825000D03*
G04 #@! TD*
D15*
G04 #@! TO.C,R4*
X35100000Y-2290000D03*
X35100000Y-3310000D03*
G04 #@! TD*
D16*
G04 #@! TO.C,U1*
X63865953Y797193D03*
X63865953Y-152807D03*
X63865953Y-1102807D03*
X61590953Y-1102807D03*
X61590953Y797193D03*
G04 #@! TD*
D17*
G04 #@! TO.C,C18*
X58200000Y280000D03*
X58200000Y-680000D03*
G04 #@! TD*
D18*
G04 #@! TO.C,C2*
X59585706Y769274D03*
X59585706Y-980726D03*
G04 #@! TD*
D19*
G04 #@! TO.C,C3*
X60852200Y-2500000D03*
X59892200Y-2500000D03*
G04 #@! TD*
D20*
G04 #@! TO.C,C15*
X23725000Y-2800000D03*
X25475000Y-2800000D03*
G04 #@! TD*
D21*
G04 #@! TO.C,R2*
X37600000Y-3310000D03*
X37600000Y-2290000D03*
G04 #@! TD*
D22*
G04 #@! TO.C,U5*
X46386827Y813173D03*
X48013173Y-813173D03*
X47200000Y1626346D03*
X47200000Y0D03*
X45573654Y0D03*
X47200000Y-1626346D03*
X48826346Y0D03*
X48013173Y813173D03*
X46386827Y-813173D03*
D23*
X46713864Y-2961010D03*
X46360311Y-2607456D03*
X46006757Y-2253903D03*
X45653204Y-1900349D03*
X45299651Y-1546796D03*
X44946097Y-1193243D03*
X44592544Y-839689D03*
X44238990Y-486136D03*
D24*
X44238990Y486136D03*
X44592544Y839689D03*
X44946097Y1193243D03*
X45299651Y1546796D03*
X45653204Y1900349D03*
X46006757Y2253903D03*
X46360311Y2607456D03*
X46713864Y2961010D03*
D23*
X47686136Y2961010D03*
X48039689Y2607456D03*
X48393243Y2253903D03*
X48746796Y1900349D03*
X49100349Y1546796D03*
X49453903Y1193243D03*
X49807456Y839689D03*
X50161010Y486136D03*
D24*
X50161010Y-486136D03*
X49807456Y-839689D03*
X49453903Y-1193243D03*
X49100349Y-1546796D03*
X48746796Y-1900349D03*
X48393243Y-2253903D03*
X48039689Y-2607456D03*
X47686136Y-2961010D03*
G04 #@! TD*
D18*
G04 #@! TO.C,C33*
X65700000Y2575000D03*
X65700000Y825000D03*
G04 #@! TD*
D25*
G04 #@! TO.C,D2*
X25325000Y2300000D03*
X23912500Y2300000D03*
G04 #@! TD*
D26*
G04 #@! TO.C,C4*
X36400000Y-3280000D03*
X36400000Y-2320000D03*
G04 #@! TD*
M02*
