G04 #@! TF.GenerationSoftware,KiCad,Pcbnew,(5.99.0-3540-g0818bd05d)*
G04 #@! TF.CreationDate,2020-10-04T20:53:55-07:00*
G04 #@! TF.ProjectId,RT_USB_PD_Soldering_Iron,52545f55-5342-45f5-9044-5f536f6c6465,rev?*
G04 #@! TF.SameCoordinates,PX5f5e100PY7735940*
G04 #@! TF.FileFunction,Copper,L4,Bot*
G04 #@! TF.FilePolarity,Positive*
%FSLAX46Y46*%
G04 Gerber Fmt 4.6, Leading zero omitted, Abs format (unit mm)*
G04 Created by KiCad (PCBNEW (5.99.0-3540-g0818bd05d)) date 2020-10-04 20:53:55*
%MOMM*%
%LPD*%
G01*
G04 APERTURE LIST*
G04 #@! TA.AperFunction,ComponentPad*
%ADD10O,2.100000X1.000000*%
G04 #@! TD*
G04 #@! TA.AperFunction,ComponentPad*
%ADD11O,1.800000X1.000000*%
G04 #@! TD*
G04 #@! TA.AperFunction,SMDPad,CuDef*
%ADD12R,2.200000X2.100000*%
G04 #@! TD*
G04 #@! TA.AperFunction,SMDPad,CuDef*
%ADD13R,2.800000X2.100000*%
G04 #@! TD*
G04 #@! TA.AperFunction,SMDPad,CuDef*
%ADD14R,2.600000X2.700000*%
G04 #@! TD*
G04 #@! TA.AperFunction,SMDPad,CuDef*
%ADD15C,1.000000*%
G04 #@! TD*
G04 #@! TA.AperFunction,SMDPad,CuDef*
%ADD16R,1.060000X0.650000*%
G04 #@! TD*
G04 #@! TA.AperFunction,ViaPad*
%ADD17C,0.560000*%
G04 #@! TD*
G04 #@! TA.AperFunction,ViaPad*
%ADD18C,1.000000*%
G04 #@! TD*
G04 #@! TA.AperFunction,ViaPad*
%ADD19C,0.800000*%
G04 #@! TD*
G04 #@! TA.AperFunction,Conductor*
%ADD20C,0.254000*%
G04 #@! TD*
G04 #@! TA.AperFunction,Conductor*
%ADD21C,1.000000*%
G04 #@! TD*
G04 #@! TA.AperFunction,Conductor*
%ADD22C,0.600000*%
G04 #@! TD*
G04 #@! TA.AperFunction,Conductor*
%ADD23C,0.500000*%
G04 #@! TD*
G04 #@! TA.AperFunction,Conductor*
%ADD24C,0.300000*%
G04 #@! TD*
G04 #@! TA.AperFunction,Conductor*
%ADD25C,0.203200*%
G04 #@! TD*
G04 APERTURE END LIST*
D10*
G04 #@! TO.P,J1,S1,SHIELD*
G04 #@! TO.N,GND*
X69200000Y-4320000D03*
D11*
X73380000Y4320000D03*
D10*
X69200000Y4320000D03*
D11*
X73380000Y-4320000D03*
G04 #@! TD*
D12*
G04 #@! TO.P,J2,G*
G04 #@! TO.N,GND*
X3000000Y-4050000D03*
G04 #@! TO.P,J2,S*
G04 #@! TO.N,/TIP_TC*
X5200000Y4050000D03*
G04 #@! TO.P,J2,SN*
X2100000Y4050000D03*
D13*
G04 #@! TO.P,J2,T*
G04 #@! TO.N,/HEATER*
X12800000Y-4050000D03*
D14*
G04 #@! TO.P,J2,TN*
X16800000Y750000D03*
G04 #@! TD*
G04 #@! TO.P,C16,1*
G04 #@! TO.N,/HEATER*
G04 #@! TA.AperFunction,SMDPad,CuDef*
G36*
G01*
X19937500Y-300000D02*
X19462500Y-300000D01*
G75*
G02*
X19225000Y-62500I0J237500D01*
G01*
X19225000Y512500D01*
G75*
G02*
X19462500Y750000I237500J0D01*
G01*
X19937500Y750000D01*
G75*
G02*
X20175000Y512500I0J-237500D01*
G01*
X20175000Y-62500D01*
G75*
G02*
X19937500Y-300000I-237500J0D01*
G01*
G37*
G04 #@! TD.AperFunction*
G04 #@! TO.P,C16,2*
G04 #@! TO.N,GND*
G04 #@! TA.AperFunction,SMDPad,CuDef*
G36*
G01*
X19937500Y1450000D02*
X19462500Y1450000D01*
G75*
G02*
X19225000Y1687500I0J237500D01*
G01*
X19225000Y2262500D01*
G75*
G02*
X19462500Y2500000I237500J0D01*
G01*
X19937500Y2500000D01*
G75*
G02*
X20175000Y2262500I0J-237500D01*
G01*
X20175000Y1687500D01*
G75*
G02*
X19937500Y1450000I-237500J0D01*
G01*
G37*
G04 #@! TD.AperFunction*
G04 #@! TD*
G04 #@! TO.P,C1,1*
G04 #@! TO.N,IN*
G04 #@! TA.AperFunction,SMDPad,CuDef*
G36*
G01*
X67637500Y-1600000D02*
X67162500Y-1600000D01*
G75*
G02*
X66925000Y-1362500I0J237500D01*
G01*
X66925000Y-787500D01*
G75*
G02*
X67162500Y-550000I237500J0D01*
G01*
X67637500Y-550000D01*
G75*
G02*
X67875000Y-787500I0J-237500D01*
G01*
X67875000Y-1362500D01*
G75*
G02*
X67637500Y-1600000I-237500J0D01*
G01*
G37*
G04 #@! TD.AperFunction*
G04 #@! TO.P,C1,2*
G04 #@! TO.N,GND*
G04 #@! TA.AperFunction,SMDPad,CuDef*
G36*
G01*
X67637500Y150000D02*
X67162500Y150000D01*
G75*
G02*
X66925000Y387500I0J237500D01*
G01*
X66925000Y962500D01*
G75*
G02*
X67162500Y1200000I237500J0D01*
G01*
X67637500Y1200000D01*
G75*
G02*
X67875000Y962500I0J-237500D01*
G01*
X67875000Y387500D01*
G75*
G02*
X67637500Y150000I-237500J0D01*
G01*
G37*
G04 #@! TD.AperFunction*
G04 #@! TD*
G04 #@! TO.P,R6,1*
G04 #@! TO.N,+3V3*
G04 #@! TA.AperFunction,SMDPad,CuDef*
G36*
G01*
X60284400Y1492528D02*
X60284400Y1122528D01*
G75*
G02*
X60149400Y987528I-135000J0D01*
G01*
X59879400Y987528D01*
G75*
G02*
X59744400Y1122528I0J135000D01*
G01*
X59744400Y1492528D01*
G75*
G02*
X59879400Y1627528I135000J0D01*
G01*
X60149400Y1627528D01*
G75*
G02*
X60284400Y1492528I0J-135000D01*
G01*
G37*
G04 #@! TD.AperFunction*
G04 #@! TO.P,R6,2*
G04 #@! TO.N,/I2C1_SCL*
G04 #@! TA.AperFunction,SMDPad,CuDef*
G36*
G01*
X59264400Y1492528D02*
X59264400Y1122528D01*
G75*
G02*
X59129400Y987528I-135000J0D01*
G01*
X58859400Y987528D01*
G75*
G02*
X58724400Y1122528I0J135000D01*
G01*
X58724400Y1492528D01*
G75*
G02*
X58859400Y1627528I135000J0D01*
G01*
X59129400Y1627528D01*
G75*
G02*
X59264400Y1492528I0J-135000D01*
G01*
G37*
G04 #@! TD.AperFunction*
G04 #@! TD*
G04 #@! TO.P,R4,1*
G04 #@! TO.N,/PVD_IN*
G04 #@! TA.AperFunction,SMDPad,CuDef*
G36*
G01*
X34915000Y-2020000D02*
X35285000Y-2020000D01*
G75*
G02*
X35420000Y-2155000I0J-135000D01*
G01*
X35420000Y-2425000D01*
G75*
G02*
X35285000Y-2560000I-135000J0D01*
G01*
X34915000Y-2560000D01*
G75*
G02*
X34780000Y-2425000I0J135000D01*
G01*
X34780000Y-2155000D01*
G75*
G02*
X34915000Y-2020000I135000J0D01*
G01*
G37*
G04 #@! TD.AperFunction*
G04 #@! TO.P,R4,2*
G04 #@! TO.N,GND*
G04 #@! TA.AperFunction,SMDPad,CuDef*
G36*
G01*
X34915000Y-3040000D02*
X35285000Y-3040000D01*
G75*
G02*
X35420000Y-3175000I0J-135000D01*
G01*
X35420000Y-3445000D01*
G75*
G02*
X35285000Y-3580000I-135000J0D01*
G01*
X34915000Y-3580000D01*
G75*
G02*
X34780000Y-3445000I0J135000D01*
G01*
X34780000Y-3175000D01*
G75*
G02*
X34915000Y-3040000I135000J0D01*
G01*
G37*
G04 #@! TD.AperFunction*
G04 #@! TD*
D15*
G04 #@! TO.P,TP3,1,1*
G04 #@! TO.N,/SWCLK*
X57300000Y2000000D03*
G04 #@! TD*
D16*
G04 #@! TO.P,U1,1,IN*
G04 #@! TO.N,IN*
X63800940Y754003D03*
G04 #@! TO.P,U1,2,GND*
G04 #@! TO.N,GND*
X63800940Y-195997D03*
G04 #@! TO.P,U1,3,EN*
G04 #@! TO.N,IN*
X63800940Y-1145997D03*
G04 #@! TO.P,U1,4,BP*
G04 #@! TO.N,Net-(C3-Pad1)*
X61600940Y-1145997D03*
G04 #@! TO.P,U1,5,OUT*
G04 #@! TO.N,+3V3*
X61600940Y754003D03*
G04 #@! TD*
G04 #@! TO.P,C18,1*
G04 #@! TO.N,+3V3*
G04 #@! TA.AperFunction,SMDPad,CuDef*
G36*
G01*
X59831364Y371866D02*
X60171364Y371866D01*
G75*
G02*
X60311364Y231866I0J-140000D01*
G01*
X60311364Y-48134D01*
G75*
G02*
X60171364Y-188134I-140000J0D01*
G01*
X59831364Y-188134D01*
G75*
G02*
X59691364Y-48134I0J140000D01*
G01*
X59691364Y231866D01*
G75*
G02*
X59831364Y371866I140000J0D01*
G01*
G37*
G04 #@! TD.AperFunction*
G04 #@! TO.P,C18,2*
G04 #@! TO.N,GND*
G04 #@! TA.AperFunction,SMDPad,CuDef*
G36*
G01*
X59831364Y-588134D02*
X60171364Y-588134D01*
G75*
G02*
X60311364Y-728134I0J-140000D01*
G01*
X60311364Y-1008134D01*
G75*
G02*
X60171364Y-1148134I-140000J0D01*
G01*
X59831364Y-1148134D01*
G75*
G02*
X59691364Y-1008134I0J140000D01*
G01*
X59691364Y-728134D01*
G75*
G02*
X59831364Y-588134I140000J0D01*
G01*
G37*
G04 #@! TD.AperFunction*
G04 #@! TD*
G04 #@! TO.P,C2,1*
G04 #@! TO.N,+3V3*
G04 #@! TA.AperFunction,SMDPad,CuDef*
G36*
G01*
X61000000Y2462500D02*
X61000000Y2937500D01*
G75*
G02*
X61237500Y3175000I237500J0D01*
G01*
X61812500Y3175000D01*
G75*
G02*
X62050000Y2937500I0J-237500D01*
G01*
X62050000Y2462500D01*
G75*
G02*
X61812500Y2225000I-237500J0D01*
G01*
X61237500Y2225000D01*
G75*
G02*
X61000000Y2462500I0J237500D01*
G01*
G37*
G04 #@! TD.AperFunction*
G04 #@! TO.P,C2,2*
G04 #@! TO.N,GND*
G04 #@! TA.AperFunction,SMDPad,CuDef*
G36*
G01*
X62750000Y2462500D02*
X62750000Y2937500D01*
G75*
G02*
X62987500Y3175000I237500J0D01*
G01*
X63562500Y3175000D01*
G75*
G02*
X63800000Y2937500I0J-237500D01*
G01*
X63800000Y2462500D01*
G75*
G02*
X63562500Y2225000I-237500J0D01*
G01*
X62987500Y2225000D01*
G75*
G02*
X62750000Y2462500I0J237500D01*
G01*
G37*
G04 #@! TD.AperFunction*
G04 #@! TD*
D15*
G04 #@! TO.P,TP5,1,1*
G04 #@! TO.N,+3V3*
X57300000Y-2000000D03*
G04 #@! TD*
G04 #@! TO.P,C3,1*
G04 #@! TO.N,Net-(C3-Pad1)*
G04 #@! TA.AperFunction,SMDPad,CuDef*
G36*
G01*
X61860000Y-2530000D02*
X61860000Y-2870000D01*
G75*
G02*
X61720000Y-3010000I-140000J0D01*
G01*
X61440000Y-3010000D01*
G75*
G02*
X61300000Y-2870000I0J140000D01*
G01*
X61300000Y-2530000D01*
G75*
G02*
X61440000Y-2390000I140000J0D01*
G01*
X61720000Y-2390000D01*
G75*
G02*
X61860000Y-2530000I0J-140000D01*
G01*
G37*
G04 #@! TD.AperFunction*
G04 #@! TO.P,C3,2*
G04 #@! TO.N,GND*
G04 #@! TA.AperFunction,SMDPad,CuDef*
G36*
G01*
X60900000Y-2530000D02*
X60900000Y-2870000D01*
G75*
G02*
X60760000Y-3010000I-140000J0D01*
G01*
X60480000Y-3010000D01*
G75*
G02*
X60340000Y-2870000I0J140000D01*
G01*
X60340000Y-2530000D01*
G75*
G02*
X60480000Y-2390000I140000J0D01*
G01*
X60760000Y-2390000D01*
G75*
G02*
X60900000Y-2530000I0J-140000D01*
G01*
G37*
G04 #@! TD.AperFunction*
G04 #@! TD*
G04 #@! TO.P,C15,1*
G04 #@! TO.N,IN*
G04 #@! TA.AperFunction,SMDPad,CuDef*
G36*
G01*
X23200000Y-3037500D02*
X23200000Y-2562500D01*
G75*
G02*
X23437500Y-2325000I237500J0D01*
G01*
X24012500Y-2325000D01*
G75*
G02*
X24250000Y-2562500I0J-237500D01*
G01*
X24250000Y-3037500D01*
G75*
G02*
X24012500Y-3275000I-237500J0D01*
G01*
X23437500Y-3275000D01*
G75*
G02*
X23200000Y-3037500I0J237500D01*
G01*
G37*
G04 #@! TD.AperFunction*
G04 #@! TO.P,C15,2*
G04 #@! TO.N,GND*
G04 #@! TA.AperFunction,SMDPad,CuDef*
G36*
G01*
X24950000Y-3037500D02*
X24950000Y-2562500D01*
G75*
G02*
X25187500Y-2325000I237500J0D01*
G01*
X25762500Y-2325000D01*
G75*
G02*
X26000000Y-2562500I0J-237500D01*
G01*
X26000000Y-3037500D01*
G75*
G02*
X25762500Y-3275000I-237500J0D01*
G01*
X25187500Y-3275000D01*
G75*
G02*
X24950000Y-3037500I0J237500D01*
G01*
G37*
G04 #@! TD.AperFunction*
G04 #@! TD*
G04 #@! TO.P,TP2,1,1*
G04 #@! TO.N,/SWDIO*
X55300000Y2000000D03*
G04 #@! TD*
G04 #@! TO.P,TP4,1,1*
G04 #@! TO.N,/SWO*
X55300000Y0D03*
G04 #@! TD*
G04 #@! TO.P,TP1,1,1*
G04 #@! TO.N,/NRST*
X55300000Y-2000000D03*
G04 #@! TD*
G04 #@! TO.P,R2,1*
G04 #@! TO.N,IN*
G04 #@! TA.AperFunction,SMDPad,CuDef*
G36*
G01*
X37785000Y-3580000D02*
X37415000Y-3580000D01*
G75*
G02*
X37280000Y-3445000I0J135000D01*
G01*
X37280000Y-3175000D01*
G75*
G02*
X37415000Y-3040000I135000J0D01*
G01*
X37785000Y-3040000D01*
G75*
G02*
X37920000Y-3175000I0J-135000D01*
G01*
X37920000Y-3445000D01*
G75*
G02*
X37785000Y-3580000I-135000J0D01*
G01*
G37*
G04 #@! TD.AperFunction*
G04 #@! TO.P,R2,2*
G04 #@! TO.N,/PVD_IN*
G04 #@! TA.AperFunction,SMDPad,CuDef*
G36*
G01*
X37785000Y-2560000D02*
X37415000Y-2560000D01*
G75*
G02*
X37280000Y-2425000I0J135000D01*
G01*
X37280000Y-2155000D01*
G75*
G02*
X37415000Y-2020000I135000J0D01*
G01*
X37785000Y-2020000D01*
G75*
G02*
X37920000Y-2155000I0J-135000D01*
G01*
X37920000Y-2425000D01*
G75*
G02*
X37785000Y-2560000I-135000J0D01*
G01*
G37*
G04 #@! TD.AperFunction*
G04 #@! TD*
G04 #@! TO.P,U5,1,VDD*
G04 #@! TO.N,+3V3*
G04 #@! TA.AperFunction,SMDPad,CuDef*
G36*
G01*
X46448699Y-3314563D02*
X46360311Y-3226175D01*
G75*
G02*
X46360311Y-3137787I44194J44194D01*
G01*
X46890641Y-2607457D01*
G75*
G02*
X46979029Y-2607457I44194J-44194D01*
G01*
X47067417Y-2695845D01*
G75*
G02*
X47067417Y-2784233I-44194J-44194D01*
G01*
X46537087Y-3314563D01*
G75*
G02*
X46448699Y-3314563I-44194J44194D01*
G01*
G37*
G04 #@! TD.AperFunction*
G04 #@! TO.P,U5,2,PF0-OSC_IN*
G04 #@! TO.N,/OSC_IN*
G04 #@! TA.AperFunction,SMDPad,CuDef*
G36*
G01*
X46095146Y-2961009D02*
X46006758Y-2872621D01*
G75*
G02*
X46006758Y-2784233I44194J44194D01*
G01*
X46537088Y-2253903D01*
G75*
G02*
X46625476Y-2253903I44194J-44194D01*
G01*
X46713864Y-2342291D01*
G75*
G02*
X46713864Y-2430679I-44194J-44194D01*
G01*
X46183534Y-2961009D01*
G75*
G02*
X46095146Y-2961009I-44194J44194D01*
G01*
G37*
G04 #@! TD.AperFunction*
G04 #@! TO.P,U5,3,PF1-OSC_OUT*
G04 #@! TO.N,/OSC_OUT*
G04 #@! TA.AperFunction,SMDPad,CuDef*
G36*
G01*
X45741592Y-2607456D02*
X45653204Y-2519068D01*
G75*
G02*
X45653204Y-2430680I44194J44194D01*
G01*
X46183534Y-1900350D01*
G75*
G02*
X46271922Y-1900350I44194J-44194D01*
G01*
X46360310Y-1988738D01*
G75*
G02*
X46360310Y-2077126I-44194J-44194D01*
G01*
X45829980Y-2607456D01*
G75*
G02*
X45741592Y-2607456I-44194J44194D01*
G01*
G37*
G04 #@! TD.AperFunction*
G04 #@! TO.P,U5,4,PG10-NRST*
G04 #@! TO.N,/NRST*
G04 #@! TA.AperFunction,SMDPad,CuDef*
G36*
G01*
X45388039Y-2253902D02*
X45299651Y-2165514D01*
G75*
G02*
X45299651Y-2077126I44194J44194D01*
G01*
X45829981Y-1546796D01*
G75*
G02*
X45918369Y-1546796I44194J-44194D01*
G01*
X46006757Y-1635184D01*
G75*
G02*
X46006757Y-1723572I-44194J-44194D01*
G01*
X45476427Y-2253902D01*
G75*
G02*
X45388039Y-2253902I-44194J44194D01*
G01*
G37*
G04 #@! TD.AperFunction*
G04 #@! TO.P,U5,5,PA0*
G04 #@! TO.N,/PVD_IN*
G04 #@! TA.AperFunction,SMDPad,CuDef*
G36*
G01*
X45034486Y-1900349D02*
X44946098Y-1811961D01*
G75*
G02*
X44946098Y-1723573I44194J44194D01*
G01*
X45476428Y-1193243D01*
G75*
G02*
X45564816Y-1193243I44194J-44194D01*
G01*
X45653204Y-1281631D01*
G75*
G02*
X45653204Y-1370019I-44194J-44194D01*
G01*
X45122874Y-1900349D01*
G75*
G02*
X45034486Y-1900349I-44194J44194D01*
G01*
G37*
G04 #@! TD.AperFunction*
G04 #@! TO.P,U5,6,PA1*
G04 #@! TO.N,/TEMP_SENS*
G04 #@! TA.AperFunction,SMDPad,CuDef*
G36*
G01*
X44680932Y-1546796D02*
X44592544Y-1458408D01*
G75*
G02*
X44592544Y-1370020I44194J44194D01*
G01*
X45122874Y-839690D01*
G75*
G02*
X45211262Y-839690I44194J-44194D01*
G01*
X45299650Y-928078D01*
G75*
G02*
X45299650Y-1016466I-44194J-44194D01*
G01*
X44769320Y-1546796D01*
G75*
G02*
X44680932Y-1546796I-44194J44194D01*
G01*
G37*
G04 #@! TD.AperFunction*
G04 #@! TO.P,U5,7,PA2*
G04 #@! TO.N,/VSENSE*
G04 #@! TA.AperFunction,SMDPad,CuDef*
G36*
G01*
X44327379Y-1193242D02*
X44238991Y-1104854D01*
G75*
G02*
X44238991Y-1016466I44194J44194D01*
G01*
X44769321Y-486136D01*
G75*
G02*
X44857709Y-486136I44194J-44194D01*
G01*
X44946097Y-574524D01*
G75*
G02*
X44946097Y-662912I-44194J-44194D01*
G01*
X44415767Y-1193242D01*
G75*
G02*
X44327379Y-1193242I-44194J44194D01*
G01*
G37*
G04 #@! TD.AperFunction*
G04 #@! TO.P,U5,8,PA3*
G04 #@! TO.N,/INT0*
G04 #@! TA.AperFunction,SMDPad,CuDef*
G36*
G01*
X43973825Y-839689D02*
X43885437Y-751301D01*
G75*
G02*
X43885437Y-662913I44194J44194D01*
G01*
X44415767Y-132583D01*
G75*
G02*
X44504155Y-132583I44194J-44194D01*
G01*
X44592543Y-220971D01*
G75*
G02*
X44592543Y-309359I-44194J-44194D01*
G01*
X44062213Y-839689D01*
G75*
G02*
X43973825Y-839689I-44194J44194D01*
G01*
G37*
G04 #@! TD.AperFunction*
G04 #@! TO.P,U5,9,PA4*
G04 #@! TO.N,/SPI1_NSS*
G04 #@! TA.AperFunction,SMDPad,CuDef*
G36*
G01*
X44415767Y132583D02*
X43885437Y662913D01*
G75*
G02*
X43885437Y751301I44194J44194D01*
G01*
X43973825Y839689D01*
G75*
G02*
X44062213Y839689I44194J-44194D01*
G01*
X44592543Y309359D01*
G75*
G02*
X44592543Y220971I-44194J-44194D01*
G01*
X44504155Y132583D01*
G75*
G02*
X44415767Y132583I-44194J44194D01*
G01*
G37*
G04 #@! TD.AperFunction*
G04 #@! TO.P,U5,10,PA5*
G04 #@! TO.N,/SPI1_SCK*
G04 #@! TA.AperFunction,SMDPad,CuDef*
G36*
G01*
X44769321Y486136D02*
X44238991Y1016466D01*
G75*
G02*
X44238991Y1104854I44194J44194D01*
G01*
X44327379Y1193242D01*
G75*
G02*
X44415767Y1193242I44194J-44194D01*
G01*
X44946097Y662912D01*
G75*
G02*
X44946097Y574524I-44194J-44194D01*
G01*
X44857709Y486136D01*
G75*
G02*
X44769321Y486136I-44194J44194D01*
G01*
G37*
G04 #@! TD.AperFunction*
G04 #@! TO.P,U5,11,PA6*
G04 #@! TO.N,/SPI1_MISO*
G04 #@! TA.AperFunction,SMDPad,CuDef*
G36*
G01*
X45122874Y839690D02*
X44592544Y1370020D01*
G75*
G02*
X44592544Y1458408I44194J44194D01*
G01*
X44680932Y1546796D01*
G75*
G02*
X44769320Y1546796I44194J-44194D01*
G01*
X45299650Y1016466D01*
G75*
G02*
X45299650Y928078I-44194J-44194D01*
G01*
X45211262Y839690D01*
G75*
G02*
X45122874Y839690I-44194J44194D01*
G01*
G37*
G04 #@! TD.AperFunction*
G04 #@! TO.P,U5,12,PA7*
G04 #@! TO.N,/SPI1_MOSI*
G04 #@! TA.AperFunction,SMDPad,CuDef*
G36*
G01*
X45476428Y1193243D02*
X44946098Y1723573D01*
G75*
G02*
X44946098Y1811961I44194J44194D01*
G01*
X45034486Y1900349D01*
G75*
G02*
X45122874Y1900349I44194J-44194D01*
G01*
X45653204Y1370019D01*
G75*
G02*
X45653204Y1281631I-44194J-44194D01*
G01*
X45564816Y1193243D01*
G75*
G02*
X45476428Y1193243I-44194J44194D01*
G01*
G37*
G04 #@! TD.AperFunction*
G04 #@! TO.P,U5,13,PB0*
G04 #@! TO.N,/HEAT_ON*
G04 #@! TA.AperFunction,SMDPad,CuDef*
G36*
G01*
X45829981Y1546796D02*
X45299651Y2077126D01*
G75*
G02*
X45299651Y2165514I44194J44194D01*
G01*
X45388039Y2253902D01*
G75*
G02*
X45476427Y2253902I44194J-44194D01*
G01*
X46006757Y1723572D01*
G75*
G02*
X46006757Y1635184I-44194J-44194D01*
G01*
X45918369Y1546796D01*
G75*
G02*
X45829981Y1546796I-44194J44194D01*
G01*
G37*
G04 #@! TD.AperFunction*
G04 #@! TO.P,U5,14,VSSA*
G04 #@! TO.N,GND*
G04 #@! TA.AperFunction,SMDPad,CuDef*
G36*
G01*
X46183534Y1900350D02*
X45653204Y2430680D01*
G75*
G02*
X45653204Y2519068I44194J44194D01*
G01*
X45741592Y2607456D01*
G75*
G02*
X45829980Y2607456I44194J-44194D01*
G01*
X46360310Y2077126D01*
G75*
G02*
X46360310Y1988738I-44194J-44194D01*
G01*
X46271922Y1900350D01*
G75*
G02*
X46183534Y1900350I-44194J44194D01*
G01*
G37*
G04 #@! TD.AperFunction*
G04 #@! TO.P,U5,15,VDDA*
G04 #@! TO.N,+3V3*
G04 #@! TA.AperFunction,SMDPad,CuDef*
G36*
G01*
X46537088Y2253903D02*
X46006758Y2784233D01*
G75*
G02*
X46006758Y2872621I44194J44194D01*
G01*
X46095146Y2961009D01*
G75*
G02*
X46183534Y2961009I44194J-44194D01*
G01*
X46713864Y2430679D01*
G75*
G02*
X46713864Y2342291I-44194J-44194D01*
G01*
X46625476Y2253903D01*
G75*
G02*
X46537088Y2253903I-44194J44194D01*
G01*
G37*
G04 #@! TD.AperFunction*
G04 #@! TO.P,U5,16,VSS*
G04 #@! TO.N,GND*
G04 #@! TA.AperFunction,SMDPad,CuDef*
G36*
G01*
X46890641Y2607457D02*
X46360311Y3137787D01*
G75*
G02*
X46360311Y3226175I44194J44194D01*
G01*
X46448699Y3314563D01*
G75*
G02*
X46537087Y3314563I44194J-44194D01*
G01*
X47067417Y2784233D01*
G75*
G02*
X47067417Y2695845I-44194J-44194D01*
G01*
X46979029Y2607457D01*
G75*
G02*
X46890641Y2607457I-44194J44194D01*
G01*
G37*
G04 #@! TD.AperFunction*
G04 #@! TO.P,U5,17,VDD*
G04 #@! TO.N,+3V3*
G04 #@! TA.AperFunction,SMDPad,CuDef*
G36*
G01*
X47420971Y2607457D02*
X47332583Y2695845D01*
G75*
G02*
X47332583Y2784233I44194J44194D01*
G01*
X47862913Y3314563D01*
G75*
G02*
X47951301Y3314563I44194J-44194D01*
G01*
X48039689Y3226175D01*
G75*
G02*
X48039689Y3137787I-44194J-44194D01*
G01*
X47509359Y2607457D01*
G75*
G02*
X47420971Y2607457I-44194J44194D01*
G01*
G37*
G04 #@! TD.AperFunction*
G04 #@! TO.P,U5,18,PA8*
G04 #@! TO.N,/BTN2*
G04 #@! TA.AperFunction,SMDPad,CuDef*
G36*
G01*
X47774524Y2253903D02*
X47686136Y2342291D01*
G75*
G02*
X47686136Y2430679I44194J44194D01*
G01*
X48216466Y2961009D01*
G75*
G02*
X48304854Y2961009I44194J-44194D01*
G01*
X48393242Y2872621D01*
G75*
G02*
X48393242Y2784233I-44194J-44194D01*
G01*
X47862912Y2253903D01*
G75*
G02*
X47774524Y2253903I-44194J44194D01*
G01*
G37*
G04 #@! TD.AperFunction*
G04 #@! TO.P,U5,19,PA9*
G04 #@! TO.N,GND*
G04 #@! TA.AperFunction,SMDPad,CuDef*
G36*
G01*
X48128078Y1900350D02*
X48039690Y1988738D01*
G75*
G02*
X48039690Y2077126I44194J44194D01*
G01*
X48570020Y2607456D01*
G75*
G02*
X48658408Y2607456I44194J-44194D01*
G01*
X48746796Y2519068D01*
G75*
G02*
X48746796Y2430680I-44194J-44194D01*
G01*
X48216466Y1900350D01*
G75*
G02*
X48128078Y1900350I-44194J44194D01*
G01*
G37*
G04 #@! TD.AperFunction*
G04 #@! TO.P,U5,20,PA10*
G04 #@! TA.AperFunction,SMDPad,CuDef*
G36*
G01*
X48481631Y1546796D02*
X48393243Y1635184D01*
G75*
G02*
X48393243Y1723572I44194J44194D01*
G01*
X48923573Y2253902D01*
G75*
G02*
X49011961Y2253902I44194J-44194D01*
G01*
X49100349Y2165514D01*
G75*
G02*
X49100349Y2077126I-44194J-44194D01*
G01*
X48570019Y1546796D01*
G75*
G02*
X48481631Y1546796I-44194J44194D01*
G01*
G37*
G04 #@! TD.AperFunction*
G04 #@! TO.P,U5,21,PA11*
G04 #@! TO.N,/USB_DM*
G04 #@! TA.AperFunction,SMDPad,CuDef*
G36*
G01*
X48835184Y1193243D02*
X48746796Y1281631D01*
G75*
G02*
X48746796Y1370019I44194J44194D01*
G01*
X49277126Y1900349D01*
G75*
G02*
X49365514Y1900349I44194J-44194D01*
G01*
X49453902Y1811961D01*
G75*
G02*
X49453902Y1723573I-44194J-44194D01*
G01*
X48923572Y1193243D01*
G75*
G02*
X48835184Y1193243I-44194J44194D01*
G01*
G37*
G04 #@! TD.AperFunction*
G04 #@! TO.P,U5,22,PA12*
G04 #@! TO.N,/USB_DP*
G04 #@! TA.AperFunction,SMDPad,CuDef*
G36*
G01*
X49188738Y839690D02*
X49100350Y928078D01*
G75*
G02*
X49100350Y1016466I44194J44194D01*
G01*
X49630680Y1546796D01*
G75*
G02*
X49719068Y1546796I44194J-44194D01*
G01*
X49807456Y1458408D01*
G75*
G02*
X49807456Y1370020I-44194J-44194D01*
G01*
X49277126Y839690D01*
G75*
G02*
X49188738Y839690I-44194J44194D01*
G01*
G37*
G04 #@! TD.AperFunction*
G04 #@! TO.P,U5,23,PA13*
G04 #@! TO.N,/SWDIO*
G04 #@! TA.AperFunction,SMDPad,CuDef*
G36*
G01*
X49542291Y486136D02*
X49453903Y574524D01*
G75*
G02*
X49453903Y662912I44194J44194D01*
G01*
X49984233Y1193242D01*
G75*
G02*
X50072621Y1193242I44194J-44194D01*
G01*
X50161009Y1104854D01*
G75*
G02*
X50161009Y1016466I-44194J-44194D01*
G01*
X49630679Y486136D01*
G75*
G02*
X49542291Y486136I-44194J44194D01*
G01*
G37*
G04 #@! TD.AperFunction*
G04 #@! TO.P,U5,24,PA14*
G04 #@! TO.N,/SWCLK*
G04 #@! TA.AperFunction,SMDPad,CuDef*
G36*
G01*
X49895845Y132583D02*
X49807457Y220971D01*
G75*
G02*
X49807457Y309359I44194J44194D01*
G01*
X50337787Y839689D01*
G75*
G02*
X50426175Y839689I44194J-44194D01*
G01*
X50514563Y751301D01*
G75*
G02*
X50514563Y662913I-44194J-44194D01*
G01*
X49984233Y132583D01*
G75*
G02*
X49895845Y132583I-44194J44194D01*
G01*
G37*
G04 #@! TD.AperFunction*
G04 #@! TO.P,U5,25,PA15*
G04 #@! TO.N,/I2C1_SCL*
G04 #@! TA.AperFunction,SMDPad,CuDef*
G36*
G01*
X50337787Y-839689D02*
X49807457Y-309359D01*
G75*
G02*
X49807457Y-220971I44194J44194D01*
G01*
X49895845Y-132583D01*
G75*
G02*
X49984233Y-132583I44194J-44194D01*
G01*
X50514563Y-662913D01*
G75*
G02*
X50514563Y-751301I-44194J-44194D01*
G01*
X50426175Y-839689D01*
G75*
G02*
X50337787Y-839689I-44194J44194D01*
G01*
G37*
G04 #@! TD.AperFunction*
G04 #@! TO.P,U5,26,PB3*
G04 #@! TO.N,/SWO*
G04 #@! TA.AperFunction,SMDPad,CuDef*
G36*
G01*
X49984233Y-1193242D02*
X49453903Y-662912D01*
G75*
G02*
X49453903Y-574524I44194J44194D01*
G01*
X49542291Y-486136D01*
G75*
G02*
X49630679Y-486136I44194J-44194D01*
G01*
X50161009Y-1016466D01*
G75*
G02*
X50161009Y-1104854I-44194J-44194D01*
G01*
X50072621Y-1193242D01*
G75*
G02*
X49984233Y-1193242I-44194J44194D01*
G01*
G37*
G04 #@! TD.AperFunction*
G04 #@! TO.P,U5,27,PB4*
G04 #@! TO.N,/CC2*
G04 #@! TA.AperFunction,SMDPad,CuDef*
G36*
G01*
X49630680Y-1546796D02*
X49100350Y-1016466D01*
G75*
G02*
X49100350Y-928078I44194J44194D01*
G01*
X49188738Y-839690D01*
G75*
G02*
X49277126Y-839690I44194J-44194D01*
G01*
X49807456Y-1370020D01*
G75*
G02*
X49807456Y-1458408I-44194J-44194D01*
G01*
X49719068Y-1546796D01*
G75*
G02*
X49630680Y-1546796I-44194J44194D01*
G01*
G37*
G04 #@! TD.AperFunction*
G04 #@! TO.P,U5,28,PB5*
G04 #@! TO.N,/DISP_RST#*
G04 #@! TA.AperFunction,SMDPad,CuDef*
G36*
G01*
X49277126Y-1900349D02*
X48746796Y-1370019D01*
G75*
G02*
X48746796Y-1281631I44194J44194D01*
G01*
X48835184Y-1193243D01*
G75*
G02*
X48923572Y-1193243I44194J-44194D01*
G01*
X49453902Y-1723573D01*
G75*
G02*
X49453902Y-1811961I-44194J-44194D01*
G01*
X49365514Y-1900349D01*
G75*
G02*
X49277126Y-1900349I-44194J44194D01*
G01*
G37*
G04 #@! TD.AperFunction*
G04 #@! TO.P,U5,29,PB6*
G04 #@! TO.N,/CC1*
G04 #@! TA.AperFunction,SMDPad,CuDef*
G36*
G01*
X48923573Y-2253902D02*
X48393243Y-1723572D01*
G75*
G02*
X48393243Y-1635184I44194J44194D01*
G01*
X48481631Y-1546796D01*
G75*
G02*
X48570019Y-1546796I44194J-44194D01*
G01*
X49100349Y-2077126D01*
G75*
G02*
X49100349Y-2165514I-44194J-44194D01*
G01*
X49011961Y-2253902D01*
G75*
G02*
X48923573Y-2253902I-44194J44194D01*
G01*
G37*
G04 #@! TD.AperFunction*
G04 #@! TO.P,U5,30,PB7*
G04 #@! TO.N,/I2C1_SDA*
G04 #@! TA.AperFunction,SMDPad,CuDef*
G36*
G01*
X48570020Y-2607456D02*
X48039690Y-2077126D01*
G75*
G02*
X48039690Y-1988738I44194J44194D01*
G01*
X48128078Y-1900350D01*
G75*
G02*
X48216466Y-1900350I44194J-44194D01*
G01*
X48746796Y-2430680D01*
G75*
G02*
X48746796Y-2519068I-44194J-44194D01*
G01*
X48658408Y-2607456D01*
G75*
G02*
X48570020Y-2607456I-44194J44194D01*
G01*
G37*
G04 #@! TD.AperFunction*
G04 #@! TO.P,U5,31,PB8-BOOT0*
G04 #@! TO.N,/BTN1*
G04 #@! TA.AperFunction,SMDPad,CuDef*
G36*
G01*
X48216466Y-2961009D02*
X47686136Y-2430679D01*
G75*
G02*
X47686136Y-2342291I44194J44194D01*
G01*
X47774524Y-2253903D01*
G75*
G02*
X47862912Y-2253903I44194J-44194D01*
G01*
X48393242Y-2784233D01*
G75*
G02*
X48393242Y-2872621I-44194J-44194D01*
G01*
X48304854Y-2961009D01*
G75*
G02*
X48216466Y-2961009I-44194J44194D01*
G01*
G37*
G04 #@! TD.AperFunction*
G04 #@! TO.P,U5,32,VSS*
G04 #@! TO.N,GND*
G04 #@! TA.AperFunction,SMDPad,CuDef*
G36*
G01*
X47862913Y-3314563D02*
X47332583Y-2784233D01*
G75*
G02*
X47332583Y-2695845I44194J44194D01*
G01*
X47420971Y-2607457D01*
G75*
G02*
X47509359Y-2607457I44194J-44194D01*
G01*
X48039689Y-3137787D01*
G75*
G02*
X48039689Y-3226175I-44194J-44194D01*
G01*
X47951301Y-3314563D01*
G75*
G02*
X47862913Y-3314563I-44194J44194D01*
G01*
G37*
G04 #@! TD.AperFunction*
G04 #@! TA.AperFunction,SMDPad,CuDef*
G04 #@! TO.P,U5,33,VSS-PAD*
G36*
X47200000Y-2439518D02*
G01*
X44760482Y0D01*
X47200000Y2439518D01*
X49639518Y0D01*
X47200000Y-2439518D01*
G37*
G04 #@! TD.AperFunction*
G04 #@! TD*
G04 #@! TO.P,C33,1*
G04 #@! TO.N,IN*
G04 #@! TA.AperFunction,SMDPad,CuDef*
G36*
G01*
X65445177Y2871374D02*
X65920177Y2871374D01*
G75*
G02*
X66157677Y2633874I0J-237500D01*
G01*
X66157677Y2058874D01*
G75*
G02*
X65920177Y1821374I-237500J0D01*
G01*
X65445177Y1821374D01*
G75*
G02*
X65207677Y2058874I0J237500D01*
G01*
X65207677Y2633874D01*
G75*
G02*
X65445177Y2871374I237500J0D01*
G01*
G37*
G04 #@! TD.AperFunction*
G04 #@! TO.P,C33,2*
G04 #@! TO.N,GND*
G04 #@! TA.AperFunction,SMDPad,CuDef*
G36*
G01*
X65445177Y1121374D02*
X65920177Y1121374D01*
G75*
G02*
X66157677Y883874I0J-237500D01*
G01*
X66157677Y308874D01*
G75*
G02*
X65920177Y71374I-237500J0D01*
G01*
X65445177Y71374D01*
G75*
G02*
X65207677Y308874I0J237500D01*
G01*
X65207677Y883874D01*
G75*
G02*
X65445177Y1121374I237500J0D01*
G01*
G37*
G04 #@! TD.AperFunction*
G04 #@! TD*
G04 #@! TO.P,R7,1*
G04 #@! TO.N,+3V3*
G04 #@! TA.AperFunction,SMDPad,CuDef*
G36*
G01*
X60280000Y2693649D02*
X60280000Y2323649D01*
G75*
G02*
X60145000Y2188649I-135000J0D01*
G01*
X59875000Y2188649D01*
G75*
G02*
X59740000Y2323649I0J135000D01*
G01*
X59740000Y2693649D01*
G75*
G02*
X59875000Y2828649I135000J0D01*
G01*
X60145000Y2828649D01*
G75*
G02*
X60280000Y2693649I0J-135000D01*
G01*
G37*
G04 #@! TD.AperFunction*
G04 #@! TO.P,R7,2*
G04 #@! TO.N,/I2C1_SDA*
G04 #@! TA.AperFunction,SMDPad,CuDef*
G36*
G01*
X59260000Y2693649D02*
X59260000Y2323649D01*
G75*
G02*
X59125000Y2188649I-135000J0D01*
G01*
X58855000Y2188649D01*
G75*
G02*
X58720000Y2323649I0J135000D01*
G01*
X58720000Y2693649D01*
G75*
G02*
X58855000Y2828649I135000J0D01*
G01*
X59125000Y2828649D01*
G75*
G02*
X59260000Y2693649I0J-135000D01*
G01*
G37*
G04 #@! TD.AperFunction*
G04 #@! TD*
G04 #@! TO.P,D2,1,A1*
G04 #@! TO.N,GND*
G04 #@! TA.AperFunction,SMDPad,CuDef*
G36*
G01*
X25600000Y2562500D02*
X25600000Y2037500D01*
G75*
G02*
X25462500Y1900000I-137500J0D01*
G01*
X25187500Y1900000D01*
G75*
G02*
X25050000Y2037500I0J137500D01*
G01*
X25050000Y2562500D01*
G75*
G02*
X25187500Y2700000I137500J0D01*
G01*
X25462500Y2700000D01*
G75*
G02*
X25600000Y2562500I0J-137500D01*
G01*
G37*
G04 #@! TD.AperFunction*
G04 #@! TO.P,D2,2,A2*
G04 #@! TO.N,IN*
G04 #@! TA.AperFunction,SMDPad,CuDef*
G36*
G01*
X24187500Y2562500D02*
X24187500Y2037500D01*
G75*
G02*
X24050000Y1900000I-137500J0D01*
G01*
X23775000Y1900000D01*
G75*
G02*
X23637500Y2037500I0J137500D01*
G01*
X23637500Y2562500D01*
G75*
G02*
X23775000Y2700000I137500J0D01*
G01*
X24050000Y2700000D01*
G75*
G02*
X24187500Y2562500I0J-137500D01*
G01*
G37*
G04 #@! TD.AperFunction*
G04 #@! TD*
G04 #@! TO.P,C4,1*
G04 #@! TO.N,GND*
G04 #@! TA.AperFunction,SMDPad,CuDef*
G36*
G01*
X36570000Y-3560000D02*
X36230000Y-3560000D01*
G75*
G02*
X36090000Y-3420000I0J140000D01*
G01*
X36090000Y-3140000D01*
G75*
G02*
X36230000Y-3000000I140000J0D01*
G01*
X36570000Y-3000000D01*
G75*
G02*
X36710000Y-3140000I0J-140000D01*
G01*
X36710000Y-3420000D01*
G75*
G02*
X36570000Y-3560000I-140000J0D01*
G01*
G37*
G04 #@! TD.AperFunction*
G04 #@! TO.P,C4,2*
G04 #@! TO.N,/PVD_IN*
G04 #@! TA.AperFunction,SMDPad,CuDef*
G36*
G01*
X36570000Y-2600000D02*
X36230000Y-2600000D01*
G75*
G02*
X36090000Y-2460000I0J140000D01*
G01*
X36090000Y-2180000D01*
G75*
G02*
X36230000Y-2040000I140000J0D01*
G01*
X36570000Y-2040000D01*
G75*
G02*
X36710000Y-2180000I0J-140000D01*
G01*
X36710000Y-2460000D01*
G75*
G02*
X36570000Y-2600000I-140000J0D01*
G01*
G37*
G04 #@! TD.AperFunction*
G04 #@! TD*
G04 #@! TO.P,TP6,1,1*
G04 #@! TO.N,GND*
X57300000Y0D03*
G04 #@! TD*
D17*
G04 #@! TO.N,/INT0*
X36400000Y2900000D03*
G04 #@! TO.N,GND*
X34800000Y400000D03*
G04 #@! TO.N,/SPI1_MISO*
X38300000Y2300000D03*
G04 #@! TO.N,/SPI1_MOSI*
X39100000Y2100000D03*
G04 #@! TO.N,/TIP_TC*
X31200000Y4100000D03*
G04 #@! TO.N,/VSENSE*
X27900000Y-400000D03*
G04 #@! TO.N,GND*
X29100000Y1900000D03*
D18*
G04 #@! TO.N,IN*
X67400000Y2400000D03*
D17*
X23400000Y300000D03*
X23400000Y-700000D03*
X24100000Y800000D03*
D18*
X67400000Y-2400000D03*
D17*
X24100000Y-200000D03*
D18*
X23650000Y-4500000D03*
D17*
X24100000Y-1200000D03*
D19*
G04 #@! TO.N,+3V3*
X59000000Y100000D03*
D17*
X46887587Y-3300000D03*
D19*
X61500000Y4700000D03*
X41100000Y4300000D03*
X46300000Y4300000D03*
X59000000Y-1500000D03*
X34100000Y4300000D03*
D17*
X61600000Y200000D03*
D19*
X48700000Y4300000D03*
D17*
G04 #@! TO.N,/BTN1*
X48600000Y-3300000D03*
X63750000Y-3159411D03*
G04 #@! TO.N,/BTN2*
X49497304Y3493203D03*
X64100000Y4100000D03*
G04 #@! TO.N,/HEATER*
X18600000Y-700000D03*
X19300000Y-700000D03*
X19700000Y-1200000D03*
X20800000Y-100000D03*
X18600000Y-100000D03*
X18950000Y-1200000D03*
X20450000Y-1200000D03*
X18600000Y500000D03*
X20100000Y-700000D03*
X20800000Y500000D03*
X20800000Y-700000D03*
G04 #@! TO.N,/OSC_IN*
X45864597Y-3267684D03*
G04 #@! TO.N,/OSC_OUT*
X45104708Y-2978643D03*
G04 #@! TO.N,/TEMP_SENS*
X32000000Y-3400000D03*
X37000000Y-1600000D03*
G04 #@! TO.N,/USB_DP*
X51100000Y2800000D03*
X63700000Y1700000D03*
G04 #@! TO.N,/CC2*
X51700000Y-1900000D03*
X62300000Y-1900000D03*
X69700000Y1700000D03*
G04 #@! TO.N,/USB_DM*
X60300000Y3400000D03*
X50200000Y2850897D03*
G04 #@! TO.N,/CC1*
X69700000Y-1300000D03*
X51400000Y-2900000D03*
X62799999Y-2600001D03*
G04 #@! TO.N,/TIP_TC*
X7100000Y4100000D03*
G04 #@! TO.N,GND*
X35750000Y-3300000D03*
X45200000Y3300000D03*
X39800000Y-2600000D03*
X37000000Y800000D03*
X20350000Y3350000D03*
X25300000Y-525000D03*
X34800000Y3300000D03*
X1300000Y-4850000D03*
X26600000Y-3200000D03*
X4700000Y-3650000D03*
X47600000Y-3300000D03*
X49398275Y2787707D03*
X32700000Y4300000D03*
X19700000Y3350000D03*
X39300000Y-3300000D03*
X47200000Y-1700000D03*
X21000000Y3350000D03*
X25300000Y-1150000D03*
X60000000Y-1500000D03*
X26000000Y3300000D03*
X62900000Y1700000D03*
X19050000Y3350000D03*
X4700000Y-4850000D03*
X66000000Y3400000D03*
X10500000Y-3700000D03*
X1300000Y-3650000D03*
X47200000Y2000000D03*
X32410396Y-101213D03*
X29750000Y-2400000D03*
X18400000Y3350000D03*
X18000000Y-4900000D03*
X25300000Y750000D03*
X32400000Y1000000D03*
X30200000Y-1300000D03*
X49200000Y0D03*
X47200000Y3500000D03*
X10500000Y-4800000D03*
X64550000Y-3159411D03*
X58197565Y-364362D03*
X30400000Y3300000D03*
X64300000Y2600000D03*
X54200000Y-600000D03*
X1300000Y-4250000D03*
X4700000Y-4250000D03*
X40400000Y100000D03*
X25300000Y125000D03*
X19200000Y-3700000D03*
X60800000Y1700000D03*
X18800000Y-4100000D03*
X18400000Y-4500000D03*
X45200000Y0D03*
X39800000Y-500000D03*
X43300000Y-2700000D03*
G04 #@! TO.N,/I2C1_SCL*
X43300000Y2900000D03*
X51700000Y0D03*
X58300000Y1400000D03*
G04 #@! TO.N,/I2C1_SDA*
X58300000Y2200000D03*
X43300000Y100000D03*
X50800000Y0D03*
X49500000Y-2926046D03*
G04 #@! TO.N,/VSENSE*
X38800000Y-1000000D03*
G04 #@! TO.N,/HEAT_ON*
X44100000Y3500000D03*
X28000000Y2600000D03*
X26500000Y-2200000D03*
G04 #@! TO.N,/INT0*
X42400000Y0D03*
G04 #@! TO.N,/SPI1_NSS*
X39200000Y-26524D03*
G04 #@! TO.N,/SPI1_SCK*
X39000000Y676411D03*
G04 #@! TO.N,/DISP_RST#*
X50900143Y-2113226D03*
G04 #@! TO.N,/NRST*
X52500000Y-1500000D03*
X44200000Y-2940590D03*
G04 #@! TO.N,/HEATER_PG*
X26500000Y2500000D03*
G04 #@! TD*
D20*
G04 #@! TO.N,/SPI1_MISO*
X38300000Y1904021D02*
X38300000Y2300000D01*
X39224248Y1324248D02*
X38879773Y1324248D01*
X39600000Y1700000D02*
X39224248Y1324248D01*
X44439340Y1700000D02*
X39600000Y1700000D01*
X44946097Y1193243D02*
X44439340Y1700000D01*
X38879773Y1324248D02*
X38300000Y1904021D01*
G04 #@! TO.N,/SPI1_MOSI*
X44646447Y2200000D02*
X39200000Y2200000D01*
X45299651Y1546796D02*
X44646447Y2200000D01*
X39200000Y2200000D02*
X39100000Y2100000D01*
G04 #@! TO.N,Net-(C3-Pad1)*
X61600940Y-1145997D02*
X61600940Y-2699060D01*
X61600940Y-2699060D02*
X61600000Y-2700000D01*
D21*
G04 #@! TO.N,IN*
X67346374Y2346374D02*
X67400000Y2400000D01*
X65682677Y2346374D02*
X67346374Y2346374D01*
D22*
X23912500Y987500D02*
X24100000Y800000D01*
D20*
X37600000Y-3310000D02*
X37600000Y-4500000D01*
D22*
X63800940Y754003D02*
X64090306Y754003D01*
X23912500Y2300000D02*
X23912500Y987500D01*
D20*
X63800940Y-1145997D02*
X67329003Y-1145997D01*
D21*
X67400000Y-2400000D02*
X67400000Y-1075000D01*
D22*
X64090306Y754003D02*
X65682677Y2346374D01*
D23*
G04 #@! TO.N,+3V3*
X60010000Y2508649D02*
X60010000Y1311928D01*
X60800000Y2700000D02*
X60608649Y2508649D01*
X60010000Y2592939D02*
X60010000Y2508649D01*
X60608649Y2508649D02*
X60010000Y2508649D01*
X60014400Y914400D02*
X60001364Y901364D01*
X60017061Y2600000D02*
X60010000Y2592939D01*
D24*
X57300000Y-2000000D02*
X58500000Y-2000000D01*
D23*
X59008134Y91866D02*
X59000000Y100000D01*
X60014400Y1307528D02*
X60014400Y914400D01*
X61600940Y754003D02*
X61600940Y1500940D01*
D20*
X45900001Y3067766D02*
X45900001Y3900001D01*
X46360311Y2607456D02*
X45900001Y3067766D01*
D23*
X61525000Y4675000D02*
X61500000Y4700000D01*
X61525000Y2700000D02*
X61525000Y4675000D01*
X61525000Y2700000D02*
X60800000Y2700000D01*
X61525000Y1576880D02*
X61525000Y2700000D01*
D24*
X58500000Y-2000000D02*
X59000000Y-1500000D01*
D23*
X60001364Y91866D02*
X59008134Y91866D01*
X61600940Y1500940D02*
X61525000Y1576880D01*
D20*
X45900001Y3900001D02*
X46300000Y4300000D01*
X48700000Y3974874D02*
X48700000Y4300000D01*
X47686136Y2961010D02*
X48700000Y3974874D01*
D25*
X61600000Y200000D02*
X61600000Y753063D01*
D23*
X60001364Y901364D02*
X60001364Y91866D01*
D20*
G04 #@! TO.N,/PVD_IN*
X36400000Y-2320000D02*
X35130000Y-2320000D01*
X38010000Y-2290000D02*
X37600000Y-2290000D01*
X44833625Y-2012822D02*
X38287178Y-2012822D01*
X36400000Y-2320000D02*
X37570000Y-2320000D01*
X38287178Y-2012822D02*
X38010000Y-2290000D01*
X45299651Y-1546796D02*
X44833625Y-2012822D01*
G04 #@! TO.N,/BTN1*
X48039689Y-2607456D02*
X48600000Y-3167767D01*
X48600000Y-3167767D02*
X48600000Y-3300000D01*
G04 #@! TO.N,/BTN2*
X48925436Y3493203D02*
X49497304Y3493203D01*
X48039689Y2607456D02*
X48925436Y3493203D01*
G04 #@! TO.N,/OSC_IN*
X45864597Y-3103170D02*
X45864597Y-3267684D01*
X46360311Y-2607456D02*
X45864597Y-3103170D01*
G04 #@! TO.N,/OSC_OUT*
X45282017Y-2978643D02*
X45104708Y-2978643D01*
X46006757Y-2253903D02*
X45282017Y-2978643D01*
G04 #@! TO.N,/TEMP_SENS*
X44532929Y-1606411D02*
X37006411Y-1606411D01*
X37006411Y-1606411D02*
X37000000Y-1600000D01*
X44946097Y-1193243D02*
X44532929Y-1606411D01*
G04 #@! TO.N,/USB_DP*
X49453903Y1193243D02*
X51060660Y2800000D01*
X51060660Y2800000D02*
X51100000Y2800000D01*
G04 #@! TO.N,/CC2*
X49814476Y-1553816D02*
X51353816Y-1553816D01*
X49453903Y-1193243D02*
X49814476Y-1553816D01*
X51353816Y-1553816D02*
X51700000Y-1900000D01*
G04 #@! TO.N,/USB_DM*
X50200000Y2646447D02*
X50200000Y2850897D01*
X49100349Y1546796D02*
X50200000Y2646447D01*
G04 #@! TO.N,/CC1*
X50787326Y-2900000D02*
X51400000Y-2900000D01*
X48746796Y-1900349D02*
X49213084Y-2366637D01*
X49213084Y-2366637D02*
X50253963Y-2366637D01*
X50253963Y-2366637D02*
X50787326Y-2900000D01*
D23*
G04 #@! TO.N,/TIP_TC*
X7100000Y4100000D02*
X5350000Y4100000D01*
D20*
X7050000Y4050000D02*
X7100000Y4100000D01*
D25*
G04 #@! TO.N,GND*
X47686136Y-2948266D02*
X47300000Y-2562130D01*
X48393243Y2253903D02*
X47939340Y1800000D01*
X47300000Y-2562130D02*
X47300000Y-100000D01*
X48746796Y1900349D02*
X47200000Y353553D01*
X46713864Y2925654D02*
X47200000Y2439518D01*
D20*
X46006757Y2253903D02*
X47200000Y1060660D01*
D25*
X47200000Y2439518D02*
X47200000Y2000000D01*
X47939340Y1800000D02*
X47939340Y739340D01*
X46713864Y2961010D02*
X46713864Y2925654D01*
D20*
G04 #@! TO.N,/I2C1_SCL*
X51000000Y-700000D02*
X50374874Y-700000D01*
X58994400Y1307528D02*
X58392472Y1307528D01*
X51000000Y-700000D02*
X51700000Y0D01*
X58392472Y1307528D02*
X58300000Y1400000D01*
G04 #@! TO.N,/I2C1_SDA*
X58990000Y2508649D02*
X58608649Y2508649D01*
X49065386Y-2926046D02*
X49500000Y-2926046D01*
X58608649Y2508649D02*
X58300000Y2200000D01*
X48393243Y-2253903D02*
X49065386Y-2926046D01*
G04 #@! TO.N,/VSENSE*
X39000000Y-1200000D02*
X38800000Y-1000000D01*
X44232233Y-1200000D02*
X39000000Y-1200000D01*
X44592544Y-839689D02*
X44232233Y-1200000D01*
G04 #@! TO.N,/HEAT_ON*
X45653204Y1900349D02*
X44100000Y3453553D01*
X44100000Y3453553D02*
X44100000Y3500000D01*
G04 #@! TO.N,/INT0*
X42886136Y-486136D02*
X42400000Y0D01*
X44238990Y-486136D02*
X42886136Y-486136D01*
G04 #@! TO.N,/SPI1_NSS*
X44025126Y700000D02*
X40000000Y700000D01*
X40000000Y700000D02*
X39273476Y-26524D01*
X39273476Y-26524D02*
X39200000Y-26524D01*
G04 #@! TO.N,/SPI1_SCK*
X44592544Y839689D02*
X44232233Y1200000D01*
X39276411Y676411D02*
X39000000Y676411D01*
X39800000Y1200000D02*
X39276411Y676411D01*
X44232233Y1200000D02*
X39800000Y1200000D01*
G04 #@! TO.N,/DISP_RST#*
X49513780Y-1960227D02*
X50747144Y-1960227D01*
X49100349Y-1546796D02*
X49513780Y-1960227D01*
X50747144Y-1960227D02*
X50900143Y-2113226D01*
G04 #@! TO.N,/SWO*
X49807456Y-839689D02*
X50115172Y-1147405D01*
X50115172Y-1147405D02*
X51452595Y-1147405D01*
X52600000Y0D02*
X55300000Y0D01*
X51452595Y-1147405D02*
X52600000Y0D01*
G04 #@! TO.N,/SWCLK*
X56300000Y1000000D02*
X57300000Y2000000D01*
X50674874Y1000000D02*
X56300000Y1000000D01*
X50161010Y486136D02*
X50674874Y1000000D01*
G04 #@! TO.N,/SWDIO*
X50967767Y2000000D02*
X55300000Y2000000D01*
X49807456Y839689D02*
X50967767Y2000000D01*
G04 #@! TO.N,/NRST*
X45134320Y-2419233D02*
X44721357Y-2419233D01*
X55251485Y-1963182D02*
X54788303Y-1500000D01*
X45653204Y-1900349D02*
X45134320Y-2419233D01*
X54788303Y-1500000D02*
X52500000Y-1500000D01*
X44721357Y-2419233D02*
X44200000Y-2940590D01*
G04 #@! TD*
G04 #@! TA.AperFunction,Conductor*
G04 #@! TO.N,GND*
G36*
X11047600Y-5300000D02*
G01*
X200000Y-5300000D01*
X200000Y-3202900D01*
X11047600Y-3202900D01*
X11047600Y-5300000D01*
G37*
G04 #@! TD.AperFunction*
G04 #@! TA.AperFunction,Conductor*
G36*
X61191842Y5289925D02*
G01*
X61219367Y5262400D01*
X61229442Y5224800D01*
X61219367Y5187200D01*
X61197750Y5163464D01*
X61137090Y5120435D01*
X61064135Y5044225D01*
X61006907Y4955595D01*
X61006907Y4955594D01*
X60967472Y4857743D01*
X60947251Y4754199D01*
X60946975Y4648694D01*
X60947824Y4644224D01*
X60966653Y4545048D01*
X60982050Y4506258D01*
X61005576Y4446989D01*
X61062338Y4358063D01*
X61122101Y4294975D01*
X61122100Y3312867D01*
X61095436Y3303537D01*
X61066157Y3293293D01*
X60991282Y3246244D01*
X60928757Y3183719D01*
X60928755Y3183716D01*
X60895991Y3131574D01*
X60877974Y3102900D01*
X60799549Y3102900D01*
X60759242Y3103322D01*
X60721750Y3113790D01*
X60694515Y3141602D01*
X60684834Y3179306D01*
X60692614Y3206440D01*
X60691302Y3206892D01*
X60695596Y3219361D01*
X60716715Y3280696D01*
X60724580Y3303537D01*
X60728188Y3334721D01*
X60735389Y3396960D01*
X60735389Y3397075D01*
X60735401Y3399998D01*
X60725243Y3493495D01*
X60724077Y3496960D01*
X60695246Y3582629D01*
X60681428Y3605627D01*
X60646810Y3663242D01*
X60582192Y3731573D01*
X60568696Y3740745D01*
X60504408Y3784435D01*
X60417088Y3819361D01*
X60343315Y3831574D01*
X60324306Y3834721D01*
X60324305Y3834721D01*
X60230388Y3829799D01*
X60202286Y3822059D01*
X60139719Y3804826D01*
X60085247Y3776106D01*
X60056527Y3760963D01*
X60001129Y3714147D01*
X59984694Y3700258D01*
X59962093Y3670697D01*
X59927574Y3625549D01*
X59887829Y3540314D01*
X59867313Y3448534D01*
X59866985Y3354488D01*
X59885398Y3269327D01*
X59886860Y3262563D01*
X59915975Y3198972D01*
X59926009Y3177057D01*
X59982607Y3101948D01*
X59982609Y3101947D01*
X60045601Y3018352D01*
X59884628Y2983549D01*
X59856010Y2983549D01*
X59799321Y2976086D01*
X59728800Y2946875D01*
X59728798Y2946874D01*
X59668242Y2900407D01*
X59621775Y2839851D01*
X59621774Y2839849D01*
X59592563Y2769328D01*
X59585100Y2712639D01*
X59585100Y2304659D01*
X59588734Y2277057D01*
X59592563Y2247969D01*
X59596946Y2237388D01*
X59607100Y2212874D01*
X59607101Y1592682D01*
X59596963Y1568207D01*
X59589500Y1511518D01*
X59589500Y1103538D01*
X59596549Y1049998D01*
X59596964Y1046845D01*
X59609762Y1015947D01*
X59605815Y984690D01*
X59604759Y976326D01*
X59604225Y972100D01*
X59598652Y947959D01*
X59598579Y927418D01*
X59598464Y926504D01*
X59598464Y894333D01*
X59598336Y857578D01*
X59598464Y857006D01*
X59598465Y494766D01*
X59388663Y494766D01*
X59322522Y552160D01*
X59231202Y604990D01*
X59131540Y639598D01*
X59027131Y654737D01*
X58930671Y650272D01*
X58921741Y649859D01*
X58879166Y639598D01*
X58819179Y625141D01*
X58819177Y625140D01*
X58723141Y581476D01*
X58681814Y552160D01*
X58637090Y520435D01*
X58564135Y444225D01*
X58506907Y355595D01*
X58494435Y324648D01*
X58467472Y257743D01*
X58447251Y154199D01*
X58446975Y48694D01*
X58458370Y-11323D01*
X58466653Y-54952D01*
X58475058Y-76126D01*
X58505576Y-153011D01*
X58562338Y-241937D01*
X58634894Y-318529D01*
X58720625Y-380020D01*
X58816428Y-424186D01*
X58816432Y-424187D01*
X58918865Y-449442D01*
X58936135Y-450332D01*
X59024225Y-454872D01*
X59128711Y-440281D01*
X59228558Y-406192D01*
X59320152Y-353842D01*
X59370007Y-311034D01*
X59695562Y-311034D01*
X59713967Y-318656D01*
X59744852Y-342351D01*
X59759751Y-378313D01*
X59754673Y-416906D01*
X59730978Y-447791D01*
X59713973Y-457610D01*
X59682663Y-470579D01*
X59621070Y-517840D01*
X59573809Y-579433D01*
X59559436Y-614134D01*
X59747365Y-614134D01*
X60443293Y-614135D01*
X60428921Y-579434D01*
X60381658Y-517840D01*
X60320064Y-470578D01*
X60288755Y-457610D01*
X60257872Y-433913D01*
X60242975Y-397950D01*
X60248056Y-359357D01*
X60271753Y-328474D01*
X60288752Y-318660D01*
X60320064Y-305690D01*
X60381658Y-258428D01*
X60428920Y-196834D01*
X60458630Y-125107D01*
X60466264Y-67123D01*
X60466264Y250855D01*
X60458630Y308839D01*
X60428920Y380566D01*
X60404264Y412699D01*
X60404264Y807619D01*
X60408433Y819073D01*
X60411539Y843660D01*
X60417113Y867805D01*
X60417141Y875762D01*
X60417186Y888353D01*
X60417300Y889258D01*
X60417300Y921156D01*
X60417429Y958188D01*
X60417300Y958764D01*
X60417300Y1011753D01*
X60431836Y1046847D01*
X60431837Y1046849D01*
X60439300Y1103538D01*
X60439300Y1511518D01*
X60431837Y1568207D01*
X60422497Y1590756D01*
X60412900Y1613926D01*
X60412900Y2105749D01*
X60609099Y2105749D01*
X60649615Y2105325D01*
X60649616Y2105325D01*
X60673828Y2110560D01*
X60698465Y2113323D01*
X60717878Y2120083D01*
X60737955Y2124424D01*
X60760408Y2134894D01*
X60783817Y2143046D01*
X60801248Y2153938D01*
X60819867Y2162620D01*
X60839441Y2177805D01*
X60842970Y2180010D01*
X60860462Y2190940D01*
X60860464Y2190941D01*
X60918090Y2226951D01*
X60928752Y2216289D01*
X60928755Y2216284D01*
X60991284Y2153755D01*
X61048418Y2117855D01*
X61066161Y2106706D01*
X61122100Y2087130D01*
X61122100Y1576432D01*
X61121676Y1535911D01*
X61126912Y1511693D01*
X61126932Y1511518D01*
X61129674Y1487066D01*
X61136434Y1467651D01*
X61140775Y1447574D01*
X61151245Y1425119D01*
X61159396Y1401714D01*
X61170287Y1384285D01*
X61178970Y1365664D01*
X61178971Y1365663D01*
X61194159Y1346084D01*
X61198041Y1339871D01*
X61198041Y1233903D01*
X61070940Y1233903D01*
X61026466Y1223443D01*
X61001894Y1217664D01*
X60968730Y1192618D01*
X60956468Y1183358D01*
X60926500Y1134959D01*
X60926500Y1134958D01*
X60916040Y1079006D01*
X60916040Y429003D01*
X60921727Y404825D01*
X60932279Y359957D01*
X60956830Y327448D01*
X60966585Y314531D01*
X61014984Y284563D01*
X61028973Y281948D01*
X61070937Y274103D01*
X61167401Y274103D01*
X61167133Y196972D01*
X61166985Y154488D01*
X61172496Y129001D01*
X61186860Y62563D01*
X61216896Y-3040D01*
X61226009Y-22943D01*
X61282607Y-98052D01*
X61282609Y-98054D01*
X61354013Y-159255D01*
X61401607Y-184774D01*
X61436896Y-203696D01*
X61527389Y-229303D01*
X61621269Y-234880D01*
X61621271Y-234880D01*
X61696649Y-222941D01*
X61714157Y-220168D01*
X61801719Y-185853D01*
X61879870Y-133536D01*
X61879872Y-133534D01*
X61944962Y-65659D01*
X61963209Y-35765D01*
X61993962Y14616D01*
X62022315Y96960D01*
X62024580Y103537D01*
X62030441Y154198D01*
X62035389Y196960D01*
X62035389Y196963D01*
X62035390Y196972D01*
X62035678Y274103D01*
X62130940Y274103D01*
X62184432Y286684D01*
X62199986Y290342D01*
X62245412Y324648D01*
X62252387Y335913D01*
X62275380Y373047D01*
X62280467Y400260D01*
X62285840Y429000D01*
X62285840Y1079004D01*
X63065240Y1079004D01*
X63065240Y429002D01*
X63069793Y400260D01*
X63075308Y365438D01*
X63099908Y317157D01*
X63104526Y308094D01*
X63165187Y247434D01*
X63126499Y184956D01*
X63116040Y129006D01*
X63116040Y58003D01*
X63546941Y58003D01*
X64485840Y58002D01*
X64485840Y129001D01*
X64469601Y198048D01*
X64434192Y244933D01*
X64497354Y308094D01*
X64501972Y317157D01*
X64514821Y342375D01*
X65052777Y342375D01*
X65052777Y286684D01*
X65060177Y221001D01*
X65089383Y137533D01*
X65136433Y62656D01*
X65198959Y130D01*
X65273836Y-46920D01*
X65357304Y-76126D01*
X65422987Y-83526D01*
X65428677Y-83526D01*
X65428677Y342374D01*
X65936676Y342374D01*
X65936676Y-83526D01*
X65942367Y-83526D01*
X66008050Y-76126D01*
X66091518Y-46920D01*
X66166395Y130D01*
X66228921Y62656D01*
X66275971Y137533D01*
X66305177Y221001D01*
X66312577Y286684D01*
X66312577Y342374D01*
X65936676Y342374D01*
X65428677Y342374D01*
X65428677Y342375D01*
X65052777Y342375D01*
X64514821Y342375D01*
X64526572Y365438D01*
X64532087Y400260D01*
X64535372Y421001D01*
X66770100Y421001D01*
X66770100Y365310D01*
X66777500Y299627D01*
X66806706Y216159D01*
X66853756Y141282D01*
X66916282Y78756D01*
X66991159Y31706D01*
X67074627Y2500D01*
X67140310Y-4900D01*
X67146000Y-4900D01*
X67146000Y421000D01*
X67653999Y421000D01*
X67653999Y-4900D01*
X67659690Y-4900D01*
X67725373Y2500D01*
X67808841Y31706D01*
X67883718Y78756D01*
X67946244Y141282D01*
X67993294Y216159D01*
X68022500Y299627D01*
X68029900Y365310D01*
X68029900Y421000D01*
X67653999Y421000D01*
X67146000Y421000D01*
X67146000Y421001D01*
X66770100Y421001D01*
X64535372Y421001D01*
X64536640Y429002D01*
X64536640Y487999D01*
X64924405Y875763D01*
X64958114Y895225D01*
X64997040Y895225D01*
X65030752Y875761D01*
X65041267Y850374D01*
X65428678Y850374D01*
X65428678Y1276274D01*
X65936677Y1276274D01*
X65936677Y850373D01*
X66312577Y850373D01*
X66312577Y906064D01*
X66305177Y971747D01*
X66300649Y984690D01*
X66770100Y984690D01*
X66770100Y929000D01*
X67146001Y929000D01*
X67146001Y1354900D01*
X67654000Y1354900D01*
X67654000Y928999D01*
X68029900Y928999D01*
X68029900Y984690D01*
X68022500Y1050373D01*
X67993294Y1133841D01*
X67946244Y1208718D01*
X67883718Y1271244D01*
X67808841Y1318294D01*
X67725373Y1347500D01*
X67659690Y1354900D01*
X67654000Y1354900D01*
X67146001Y1354900D01*
X67140310Y1354900D01*
X67074627Y1347500D01*
X66991159Y1318294D01*
X66916282Y1271244D01*
X66853756Y1208718D01*
X66806706Y1133841D01*
X66777500Y1050373D01*
X66770100Y984690D01*
X66300649Y984690D01*
X66275971Y1055215D01*
X66228921Y1130092D01*
X66166395Y1192618D01*
X66091518Y1239668D01*
X66008050Y1268874D01*
X65942367Y1276274D01*
X65936677Y1276274D01*
X65428678Y1276274D01*
X65428678Y1380035D01*
X65664317Y1615674D01*
X65935961Y1615674D01*
X66057907Y1634988D01*
X66075170Y1642674D01*
X67321914Y1642674D01*
X67342505Y1641216D01*
X67356231Y1640244D01*
X67356233Y1640244D01*
X67374719Y1642073D01*
X67410698Y1645632D01*
X67465362Y1650270D01*
X67470153Y1651514D01*
X67475070Y1652000D01*
X67484133Y1654488D01*
X69266985Y1654488D01*
X69285640Y1568207D01*
X69286860Y1562563D01*
X69314862Y1501403D01*
X69326009Y1477057D01*
X69382607Y1401948D01*
X69382609Y1401946D01*
X69454013Y1340745D01*
X69495885Y1318294D01*
X69536896Y1296304D01*
X69627389Y1270697D01*
X69721269Y1265120D01*
X69721271Y1265120D01*
X69783194Y1274928D01*
X69814157Y1279832D01*
X69901719Y1314147D01*
X69979870Y1366464D01*
X69982366Y1369067D01*
X70044962Y1434341D01*
X70066854Y1470206D01*
X70093962Y1514616D01*
X70120842Y1592682D01*
X70124580Y1603537D01*
X70127670Y1630246D01*
X70135389Y1696960D01*
X70135389Y1697075D01*
X70135401Y1699998D01*
X70125243Y1793495D01*
X70124398Y1796006D01*
X70095246Y1882629D01*
X70070842Y1923244D01*
X70046810Y1963242D01*
X69982192Y2031573D01*
X69982191Y2031574D01*
X69904408Y2084435D01*
X69817088Y2119361D01*
X69754037Y2129799D01*
X69724306Y2134721D01*
X69724305Y2134721D01*
X69630388Y2129799D01*
X69602286Y2122059D01*
X69539719Y2104826D01*
X69496486Y2082031D01*
X69456527Y2060963D01*
X69384696Y2000260D01*
X69384694Y2000258D01*
X69327576Y1925552D01*
X69327574Y1925549D01*
X69287829Y1840314D01*
X69267313Y1748534D01*
X69266985Y1654488D01*
X67484133Y1654488D01*
X67527844Y1666487D01*
X67580947Y1680270D01*
X67585463Y1682305D01*
X67590223Y1683611D01*
X67590224Y1683611D01*
X67590226Y1683612D01*
X67639861Y1706809D01*
X67689824Y1729316D01*
X67693929Y1732079D01*
X67698406Y1734172D01*
X67743439Y1765412D01*
X67764360Y1779497D01*
X67788882Y1796006D01*
X67789186Y1796296D01*
X67792461Y1799419D01*
X67796521Y1802236D01*
X67806474Y1811293D01*
X67838925Y1843744D01*
X67875287Y1878431D01*
X67878410Y1882630D01*
X67879787Y1884481D01*
X67894140Y1898959D01*
X67906279Y1911098D01*
X67918418Y1923236D01*
X67918425Y1923244D01*
X67919628Y1924671D01*
X67941772Y1947008D01*
X67951710Y1961174D01*
X67958073Y1970244D01*
X67976356Y1991917D01*
X67992292Y2019024D01*
X68010351Y2044767D01*
X68022501Y2070412D01*
X68036874Y2094862D01*
X68041362Y2106707D01*
X68048013Y2124262D01*
X68061477Y2152681D01*
X68064261Y2162620D01*
X68069133Y2180010D01*
X68077445Y2201948D01*
X68079181Y2206530D01*
X68085207Y2237388D01*
X68093691Y2267671D01*
X68096633Y2295894D01*
X68102069Y2323732D01*
X68102697Y2350373D01*
X68102810Y2355161D01*
X68106070Y2386440D01*
X68106200Y2400002D01*
X68104374Y2421524D01*
X68104706Y2435585D01*
X68104883Y2443113D01*
X68104883Y2443116D01*
X68099334Y2480917D01*
X68097693Y2500258D01*
X68096104Y2518987D01*
X68090677Y2539897D01*
X68090553Y2540746D01*
X68087901Y2558807D01*
X68087541Y2561261D01*
X68075704Y2597585D01*
X68067343Y2629799D01*
X68066105Y2634569D01*
X68057234Y2654264D01*
X68050542Y2674799D01*
X68032749Y2708618D01*
X68017185Y2743170D01*
X69222390Y2743170D01*
X69223964Y2735365D01*
X69241561Y2648091D01*
X69261823Y2600356D01*
X69279460Y2558806D01*
X69334538Y2478967D01*
X69404544Y2411834D01*
X69444869Y2386440D01*
X69478725Y2365120D01*
X69486620Y2360148D01*
X69577412Y2326021D01*
X69631212Y2317500D01*
X69673209Y2310848D01*
X69673211Y2310848D01*
X69770105Y2315248D01*
X69864135Y2339042D01*
X69866772Y2340317D01*
X69951457Y2381253D01*
X69975977Y2400000D01*
X70028514Y2440168D01*
X70028638Y2440310D01*
X70092148Y2513370D01*
X70139763Y2597874D01*
X70169413Y2690223D01*
X70169769Y2693496D01*
X70179888Y2786650D01*
X70179890Y2787114D01*
X70179901Y2789997D01*
X70170098Y2886498D01*
X70141093Y2979054D01*
X70094426Y3063242D01*
X70094070Y3063885D01*
X70030948Y3137530D01*
X69954308Y3196978D01*
X69867280Y3239802D01*
X69773418Y3264251D01*
X69676557Y3269327D01*
X69676554Y3269327D01*
X69580659Y3254824D01*
X69580658Y3254824D01*
X69580654Y3254823D01*
X69489626Y3221331D01*
X69489621Y3221329D01*
X69407191Y3170221D01*
X69336718Y3103578D01*
X69281084Y3024124D01*
X69242564Y2935109D01*
X69223760Y2845100D01*
X69222729Y2840163D01*
X69222390Y2743170D01*
X68017185Y2743170D01*
X68017061Y2743444D01*
X68017060Y2743445D01*
X68017058Y2743450D01*
X68004997Y2761364D01*
X67994940Y2780480D01*
X67971704Y2810816D01*
X67950368Y2842508D01*
X67949711Y2843197D01*
X67935463Y2858134D01*
X67922330Y2875280D01*
X67902236Y2893919D01*
X67894317Y2901265D01*
X67867942Y2928913D01*
X67859617Y2935107D01*
X67850610Y2941809D01*
X67834783Y2956491D01*
X67827936Y2960963D01*
X67802792Y2977386D01*
X67772136Y3000194D01*
X67752889Y3009980D01*
X67739322Y3018840D01*
X67734801Y3021793D01*
X67734799Y3021794D01*
X67699751Y3036997D01*
X67665689Y3054316D01*
X67645060Y3060721D01*
X67630742Y3066931D01*
X67625249Y3069314D01*
X67588146Y3078393D01*
X67551646Y3089726D01*
X67551645Y3089726D01*
X67551642Y3089727D01*
X67530226Y3092565D01*
X67509258Y3097696D01*
X67471160Y3100394D01*
X67433268Y3105416D01*
X67433267Y3105416D01*
X67411681Y3104606D01*
X67400240Y3105416D01*
X67390141Y3106131D01*
X67390140Y3106131D01*
X67388250Y3105944D01*
X67352116Y3102370D01*
X67313939Y3100937D01*
X67306473Y3099370D01*
X67292796Y3096500D01*
X67289374Y3096162D01*
X67271306Y3094374D01*
X67234470Y3084262D01*
X67222528Y3081756D01*
X67197067Y3076415D01*
X67176973Y3068479D01*
X67156150Y3062763D01*
X67129001Y3050074D01*
X66073661Y3050074D01*
X66032571Y3063424D01*
X66012843Y3069834D01*
X65943962Y3077074D01*
X65429393Y3077074D01*
X65307448Y3057760D01*
X65226664Y3021793D01*
X65222325Y3019861D01*
X65146946Y2965095D01*
X65146945Y2965094D01*
X65124633Y2940314D01*
X65084598Y2895850D01*
X65038011Y2815160D01*
X65038010Y2815157D01*
X65009217Y2726540D01*
X65007333Y2708618D01*
X65001977Y2657659D01*
X65001977Y2527091D01*
X64992950Y2498019D01*
X64985302Y2440312D01*
X64977261Y2379641D01*
X64977261Y2379637D01*
X64973237Y2349274D01*
X64439782Y1815818D01*
X64263749Y1639785D01*
X64230038Y1620321D01*
X64191112Y1620321D01*
X64157401Y1639785D01*
X64137937Y1673496D01*
X64135375Y1693233D01*
X64135400Y1700006D01*
X64125243Y1793495D01*
X64124398Y1796006D01*
X64095246Y1882629D01*
X64070842Y1923244D01*
X64046810Y1963242D01*
X63982192Y2031573D01*
X63982191Y2031574D01*
X63904408Y2084435D01*
X63904407Y2084436D01*
X63904406Y2084436D01*
X63786543Y2131582D01*
X63871244Y2216282D01*
X63918294Y2291159D01*
X63947500Y2374627D01*
X63954900Y2440310D01*
X63954900Y2446000D01*
X63529000Y2446000D01*
X63529000Y2099174D01*
X63464411Y2065120D01*
X63456527Y2060963D01*
X63384696Y2000260D01*
X63384694Y2000258D01*
X63327576Y1925552D01*
X63327574Y1925549D01*
X63287829Y1840314D01*
X63267313Y1748534D01*
X63266985Y1654488D01*
X63285640Y1568207D01*
X63286860Y1562563D01*
X63314862Y1501403D01*
X63326009Y1477057D01*
X63348226Y1447574D01*
X63380187Y1405159D01*
X63394769Y1369067D01*
X63389351Y1330519D01*
X63365385Y1299845D01*
X63320129Y1284703D01*
X63270939Y1284703D01*
X63241620Y1280059D01*
X63207375Y1274635D01*
X63152097Y1246470D01*
X63150031Y1245417D01*
X63104526Y1199912D01*
X63104525Y1199910D01*
X63075308Y1142568D01*
X63075308Y1142567D01*
X63065240Y1079004D01*
X62285840Y1079004D01*
X62272680Y1134958D01*
X62269601Y1148049D01*
X62235295Y1193475D01*
X62210677Y1208718D01*
X62186896Y1223443D01*
X62172907Y1226058D01*
X62130943Y1233903D01*
X62003840Y1233903D01*
X62003840Y1501391D01*
X62004264Y1541907D01*
X61999029Y1566120D01*
X61996266Y1590756D01*
X61989506Y1610168D01*
X61988694Y1613926D01*
X61986819Y1622596D01*
X61985165Y1630246D01*
X61974695Y1652699D01*
X61966543Y1676108D01*
X61955651Y1693539D01*
X61952638Y1700000D01*
X61946970Y1712156D01*
X61931780Y1731739D01*
X61927900Y1737949D01*
X61927900Y2087133D01*
X61962312Y2099174D01*
X61983843Y2106707D01*
X62058718Y2153756D01*
X62121244Y2216282D01*
X62168294Y2291159D01*
X62197500Y2374627D01*
X62204900Y2440310D01*
X62204900Y2446000D01*
X62595100Y2446000D01*
X62595100Y2440310D01*
X62602500Y2374627D01*
X62631706Y2291159D01*
X62678756Y2216282D01*
X62741282Y2153756D01*
X62816159Y2106706D01*
X62899627Y2077500D01*
X62965310Y2070100D01*
X63021000Y2070100D01*
X63021000Y2446000D01*
X62595100Y2446000D01*
X62204900Y2446000D01*
X62204900Y2959690D01*
X62595100Y2959690D01*
X62595100Y2954000D01*
X63021000Y2954000D01*
X63021000Y3329900D01*
X63529000Y3329900D01*
X63529000Y2954000D01*
X63954900Y2954000D01*
X63954900Y2959690D01*
X63947500Y3025373D01*
X63918294Y3108841D01*
X63871244Y3183718D01*
X63808718Y3246244D01*
X63733841Y3293294D01*
X63650373Y3322500D01*
X63584690Y3329900D01*
X63529000Y3329900D01*
X63021000Y3329900D01*
X62965310Y3329900D01*
X62899627Y3322500D01*
X62816159Y3293294D01*
X62741282Y3246244D01*
X62678756Y3183718D01*
X62631706Y3108841D01*
X62602500Y3025373D01*
X62595100Y2959690D01*
X62204900Y2959690D01*
X62197500Y3025373D01*
X62168294Y3108841D01*
X62121244Y3183718D01*
X62058718Y3246244D01*
X61983843Y3293293D01*
X61954564Y3303537D01*
X61927900Y3312867D01*
X61927900Y4054488D01*
X63666985Y4054488D01*
X63680772Y3990723D01*
X63686860Y3962563D01*
X63719565Y3891132D01*
X63726009Y3877057D01*
X63782607Y3801948D01*
X63782609Y3801946D01*
X63854013Y3740745D01*
X63903619Y3714147D01*
X63936896Y3696304D01*
X64027389Y3670697D01*
X64121269Y3665120D01*
X64121271Y3665120D01*
X64188908Y3675833D01*
X64214157Y3679832D01*
X64301719Y3714147D01*
X64379870Y3766464D01*
X64386389Y3773262D01*
X64444962Y3834341D01*
X64465678Y3868280D01*
X64493962Y3914616D01*
X64516737Y3980762D01*
X64524580Y4003537D01*
X64529607Y4046990D01*
X64531806Y4066001D01*
X68048588Y4066001D01*
X68082839Y3992550D01*
X68148318Y3899036D01*
X68229036Y3818318D01*
X68322550Y3752839D01*
X68426008Y3704596D01*
X68536279Y3675049D01*
X68621426Y3667600D01*
X68946000Y3667600D01*
X69453999Y3667600D01*
X69778574Y3667600D01*
X69863721Y3675049D01*
X69973992Y3704596D01*
X70077450Y3752839D01*
X70170964Y3818318D01*
X70251682Y3899036D01*
X70317161Y3992550D01*
X70351411Y4066000D01*
X69453999Y4066001D01*
X72378588Y4066001D01*
X72412839Y3992550D01*
X72478318Y3899036D01*
X72559036Y3818318D01*
X72652550Y3752839D01*
X72756008Y3704596D01*
X72866279Y3675049D01*
X72951426Y3667600D01*
X73126000Y3667600D01*
X73633999Y3667600D01*
X73808574Y3667600D01*
X73893721Y3675049D01*
X74003992Y3704596D01*
X74107450Y3752839D01*
X74200964Y3818318D01*
X74281682Y3899036D01*
X74347161Y3992550D01*
X74381411Y4066000D01*
X73633999Y4066001D01*
X73633999Y3667600D01*
X73126000Y3667600D01*
X73126000Y4066000D01*
X72378588Y4066001D01*
X69453999Y4066001D01*
X69453999Y3667600D01*
X68946000Y3667600D01*
X68946000Y4066000D01*
X68048588Y4066001D01*
X64531806Y4066001D01*
X64535389Y4096960D01*
X64535389Y4097075D01*
X64535401Y4099998D01*
X64525243Y4193495D01*
X64525243Y4193496D01*
X64495246Y4282629D01*
X64481428Y4305627D01*
X64446810Y4363242D01*
X64382192Y4431573D01*
X64359508Y4446989D01*
X64304408Y4484435D01*
X64217088Y4519361D01*
X64154037Y4529799D01*
X64124306Y4534721D01*
X64124305Y4534721D01*
X64030388Y4529799D01*
X64002286Y4522059D01*
X63939719Y4504826D01*
X63885247Y4476106D01*
X63856527Y4460963D01*
X63790331Y4405022D01*
X63784694Y4400258D01*
X63746098Y4349777D01*
X63727574Y4325549D01*
X63687829Y4240314D01*
X63667313Y4148534D01*
X63666985Y4054488D01*
X61927900Y4054488D01*
X61927900Y4349777D01*
X61965797Y4397506D01*
X61983569Y4431573D01*
X62014594Y4491045D01*
X62033898Y4555595D01*
X62039402Y4574000D01*
X68048589Y4574000D01*
X68946001Y4573999D01*
X68946001Y4972400D01*
X69454000Y4972400D01*
X69454000Y4574000D01*
X70351412Y4573999D01*
X70351412Y4574000D01*
X72378589Y4574000D01*
X73126001Y4573999D01*
X73126001Y4972400D01*
X73634000Y4972400D01*
X73634000Y4574000D01*
X74381412Y4573999D01*
X74347161Y4647450D01*
X74281682Y4740964D01*
X74200964Y4821682D01*
X74107450Y4887161D01*
X74003992Y4935404D01*
X73893721Y4964951D01*
X73808574Y4972400D01*
X73634000Y4972400D01*
X73126001Y4972400D01*
X72951426Y4972400D01*
X72866279Y4964951D01*
X72756008Y4935404D01*
X72652550Y4887161D01*
X72559036Y4821682D01*
X72478318Y4740964D01*
X72412839Y4647450D01*
X72378589Y4574000D01*
X70351412Y4574000D01*
X70317161Y4647450D01*
X70251682Y4740964D01*
X70170964Y4821682D01*
X70077450Y4887161D01*
X69973992Y4935404D01*
X69863721Y4964951D01*
X69778574Y4972400D01*
X69454000Y4972400D01*
X68946001Y4972400D01*
X68621426Y4972400D01*
X68536279Y4964951D01*
X68426008Y4935404D01*
X68322550Y4887161D01*
X68229036Y4821682D01*
X68148318Y4740964D01*
X68082839Y4647450D01*
X68048589Y4574000D01*
X62039402Y4574000D01*
X62044822Y4592120D01*
X62055392Y4697092D01*
X62055400Y4700003D01*
X62045381Y4805022D01*
X62015680Y4906260D01*
X61967376Y5000048D01*
X61902204Y5083017D01*
X61822522Y5152161D01*
X61809476Y5159708D01*
X61781975Y5187257D01*
X61771933Y5224866D01*
X61782041Y5262457D01*
X61809590Y5289958D01*
X61847133Y5300000D01*
X74847100Y5300000D01*
X74847101Y-5300000D01*
X66364608Y-5300000D01*
X66327008Y-5289925D01*
X66299483Y-5262400D01*
X66289408Y-5224800D01*
X66299483Y-5187200D01*
X66315769Y-5167617D01*
X66336994Y-5149489D01*
X66348709Y-5138659D01*
X66348717Y-5138651D01*
X66348730Y-5138639D01*
X66913370Y-4573999D01*
X68048588Y-4573999D01*
X68082839Y-4647450D01*
X68148318Y-4740964D01*
X68229036Y-4821682D01*
X68322550Y-4887161D01*
X68426008Y-4935404D01*
X68536279Y-4964951D01*
X68621426Y-4972400D01*
X68946000Y-4972400D01*
X69453999Y-4972400D01*
X69778574Y-4972400D01*
X69863721Y-4964951D01*
X69973992Y-4935404D01*
X70077450Y-4887161D01*
X70170964Y-4821682D01*
X70251682Y-4740964D01*
X70317161Y-4647450D01*
X70351411Y-4574000D01*
X69453999Y-4573999D01*
X72378588Y-4573999D01*
X72412839Y-4647450D01*
X72478318Y-4740964D01*
X72559036Y-4821682D01*
X72652550Y-4887161D01*
X72756008Y-4935404D01*
X72866279Y-4964951D01*
X72951426Y-4972400D01*
X73126000Y-4972400D01*
X73633999Y-4972400D01*
X73808574Y-4972400D01*
X73893721Y-4964951D01*
X74003992Y-4935404D01*
X74107450Y-4887161D01*
X74200964Y-4821682D01*
X74281682Y-4740964D01*
X74347161Y-4647450D01*
X74381411Y-4574000D01*
X73633999Y-4573999D01*
X73633999Y-4972400D01*
X73126000Y-4972400D01*
X73126000Y-4574000D01*
X72378588Y-4573999D01*
X69453999Y-4573999D01*
X69453999Y-4972400D01*
X68946000Y-4972400D01*
X68946000Y-4574000D01*
X68048588Y-4573999D01*
X66913370Y-4573999D01*
X67421369Y-4066000D01*
X68048589Y-4066000D01*
X68946001Y-4066001D01*
X68946001Y-3667600D01*
X69454000Y-3667600D01*
X69454000Y-4066000D01*
X70351412Y-4066001D01*
X70351412Y-4066000D01*
X72378589Y-4066000D01*
X73126001Y-4066001D01*
X73126001Y-3667600D01*
X73634000Y-3667600D01*
X73634000Y-4066000D01*
X74381412Y-4066001D01*
X74347161Y-3992550D01*
X74281682Y-3899036D01*
X74200964Y-3818318D01*
X74107450Y-3752839D01*
X74003992Y-3704596D01*
X73893721Y-3675049D01*
X73808574Y-3667600D01*
X73634000Y-3667600D01*
X73126001Y-3667600D01*
X72951426Y-3667600D01*
X72866279Y-3675049D01*
X72756008Y-3704596D01*
X72652550Y-3752839D01*
X72559036Y-3818318D01*
X72478318Y-3899036D01*
X72412839Y-3992550D01*
X72378589Y-4066000D01*
X70351412Y-4066000D01*
X70317161Y-3992550D01*
X70251682Y-3899036D01*
X70170964Y-3818318D01*
X70077450Y-3752839D01*
X69973992Y-3704596D01*
X69863721Y-3675049D01*
X69778574Y-3667600D01*
X69454000Y-3667600D01*
X68946001Y-3667600D01*
X68621426Y-3667600D01*
X68536279Y-3675049D01*
X68426008Y-3704596D01*
X68322550Y-3752839D01*
X68229036Y-3818318D01*
X68148318Y-3899036D01*
X68082839Y-3992550D01*
X68048589Y-4066000D01*
X67421369Y-4066000D01*
X68338639Y-3148730D01*
X68338651Y-3148717D01*
X68338659Y-3148709D01*
X68349490Y-3136993D01*
X68349492Y-3136991D01*
X68349500Y-3136982D01*
X68397915Y-3080294D01*
X68420827Y-3053468D01*
X68439568Y-3027672D01*
X68444823Y-3019097D01*
X68495237Y-2936830D01*
X69222390Y-2936830D01*
X69224525Y-2947416D01*
X69241561Y-3031909D01*
X69255996Y-3065915D01*
X69279460Y-3121194D01*
X69334538Y-3201033D01*
X69404544Y-3268166D01*
X69486620Y-3319852D01*
X69577412Y-3353979D01*
X69634891Y-3363083D01*
X69673209Y-3369152D01*
X69673211Y-3369152D01*
X69770105Y-3364752D01*
X69864135Y-3340958D01*
X69870467Y-3337897D01*
X69951457Y-3298747D01*
X69953945Y-3296845D01*
X70028514Y-3239832D01*
X70029549Y-3238642D01*
X70092148Y-3166630D01*
X70120633Y-3116077D01*
X70139762Y-3082128D01*
X70140483Y-3079885D01*
X70169413Y-2989777D01*
X70170456Y-2980176D01*
X70179888Y-2893350D01*
X70179894Y-2891684D01*
X70179901Y-2890003D01*
X70170098Y-2793502D01*
X70141093Y-2700946D01*
X70094071Y-2616117D01*
X70094070Y-2616115D01*
X70030948Y-2542470D01*
X69954308Y-2483022D01*
X69867280Y-2440198D01*
X69773418Y-2415749D01*
X69676557Y-2410673D01*
X69676554Y-2410673D01*
X69580659Y-2425176D01*
X69580658Y-2425176D01*
X69580654Y-2425177D01*
X69504197Y-2453308D01*
X69489621Y-2458671D01*
X69407191Y-2509779D01*
X69336718Y-2576422D01*
X69281084Y-2655876D01*
X69242564Y-2744891D01*
X69224251Y-2832550D01*
X69222729Y-2839837D01*
X69222390Y-2936830D01*
X68495237Y-2936830D01*
X68496957Y-2934024D01*
X68501022Y-2926046D01*
X68511437Y-2905605D01*
X68553472Y-2804123D01*
X68553509Y-2804011D01*
X68563326Y-2773797D01*
X68567938Y-2754586D01*
X68588968Y-2666991D01*
X68592459Y-2644950D01*
X68593956Y-2635500D01*
X68602574Y-2525997D01*
X68603200Y-2510053D01*
X68603200Y-2099989D01*
X68602428Y-2082303D01*
X68601686Y-2073814D01*
X68591792Y-1960735D01*
X68590577Y-1953842D01*
X68585642Y-1925860D01*
X68581714Y-1911200D01*
X68554061Y-1807995D01*
X68541946Y-1774709D01*
X68524564Y-1737434D01*
X68490378Y-1664120D01*
X68472670Y-1633451D01*
X68402682Y-1533498D01*
X68379909Y-1506358D01*
X68293641Y-1420090D01*
X68266501Y-1397317D01*
X68192516Y-1345512D01*
X69266985Y-1345512D01*
X69285555Y-1431399D01*
X69286860Y-1437437D01*
X69318418Y-1506364D01*
X69326009Y-1522943D01*
X69377976Y-1591906D01*
X69382609Y-1598054D01*
X69454013Y-1659255D01*
X69503619Y-1685853D01*
X69536896Y-1703696D01*
X69627389Y-1729303D01*
X69721269Y-1734880D01*
X69721271Y-1734880D01*
X69796636Y-1722943D01*
X69814157Y-1720168D01*
X69901719Y-1685853D01*
X69979870Y-1633536D01*
X69979954Y-1633448D01*
X70044962Y-1565659D01*
X70060598Y-1540043D01*
X70093962Y-1485384D01*
X70116737Y-1419238D01*
X70124580Y-1396463D01*
X70127165Y-1374121D01*
X70135389Y-1303040D01*
X70135396Y-1301204D01*
X70135401Y-1300002D01*
X70125243Y-1206505D01*
X70125243Y-1206504D01*
X70095246Y-1117371D01*
X70081428Y-1094373D01*
X70046810Y-1036758D01*
X69982192Y-968427D01*
X69970385Y-960403D01*
X69904408Y-915565D01*
X69817088Y-880639D01*
X69749923Y-869520D01*
X69724306Y-865279D01*
X69724305Y-865279D01*
X69630388Y-870201D01*
X69602286Y-877941D01*
X69539719Y-895174D01*
X69492444Y-920100D01*
X69456527Y-939037D01*
X69390292Y-995011D01*
X69384694Y-999742D01*
X69329461Y-1071983D01*
X69327574Y-1074451D01*
X69287829Y-1159686D01*
X69267313Y-1251466D01*
X69266985Y-1345512D01*
X68192516Y-1345512D01*
X68166549Y-1327330D01*
X68103700Y-1291043D01*
X68103700Y-1045539D01*
X68103698Y-1045512D01*
X68096104Y-956013D01*
X68080700Y-896664D01*
X68080700Y-771716D01*
X68061386Y-649771D01*
X68023488Y-564650D01*
X67995062Y-525524D01*
X67968721Y-489269D01*
X67947964Y-470579D01*
X67899476Y-426921D01*
X67887662Y-420100D01*
X67818786Y-380334D01*
X67817820Y-380020D01*
X67730166Y-351540D01*
X67661285Y-344300D01*
X67146716Y-344300D01*
X67024771Y-363614D01*
X66943046Y-400000D01*
X66939648Y-401513D01*
X66864269Y-456279D01*
X66864268Y-456280D01*
X66859654Y-461404D01*
X66801921Y-525524D01*
X66755334Y-606214D01*
X66755333Y-606217D01*
X66726540Y-694834D01*
X66720537Y-751951D01*
X66713878Y-815297D01*
X64535738Y-815297D01*
X64527261Y-761780D01*
X64526572Y-757432D01*
X64497355Y-700090D01*
X64497354Y-700088D01*
X64436693Y-639428D01*
X64475381Y-576950D01*
X64485840Y-521000D01*
X64485840Y-449997D01*
X64054939Y-449997D01*
X63116040Y-449996D01*
X63116040Y-520995D01*
X63132279Y-590042D01*
X63167688Y-636927D01*
X63104526Y-700088D01*
X63104525Y-700090D01*
X63075308Y-757432D01*
X63073046Y-771716D01*
X63065815Y-817369D01*
X63065240Y-820997D01*
X63065240Y-1470997D01*
X63075308Y-1534562D01*
X63101246Y-1585469D01*
X63104526Y-1591906D01*
X63150031Y-1637411D01*
X63150033Y-1637412D01*
X63207375Y-1666629D01*
X63270939Y-1676697D01*
X64330941Y-1676697D01*
X64394505Y-1666629D01*
X64451847Y-1637412D01*
X64451849Y-1637411D01*
X64497354Y-1591906D01*
X64500634Y-1585469D01*
X64526572Y-1534562D01*
X64528413Y-1522941D01*
X64535738Y-1476697D01*
X66454387Y-1476697D01*
X66491987Y-1486772D01*
X66519512Y-1514297D01*
X66529587Y-1551897D01*
X66519512Y-1589497D01*
X66507561Y-1605071D01*
X64515832Y-3596800D01*
X64106582Y-3596800D01*
X64068982Y-3586725D01*
X64041457Y-3559200D01*
X64031382Y-3521600D01*
X64052306Y-3469551D01*
X64094962Y-3425070D01*
X64107139Y-3405120D01*
X64143962Y-3344795D01*
X64167410Y-3276697D01*
X64174580Y-3255874D01*
X64177164Y-3233536D01*
X64185389Y-3162451D01*
X64185393Y-3161357D01*
X64185401Y-3159413D01*
X64175243Y-3065916D01*
X64173148Y-3059690D01*
X64145246Y-2976782D01*
X64127166Y-2946692D01*
X64096810Y-2896169D01*
X64032192Y-2827838D01*
X64024988Y-2822942D01*
X63954408Y-2774976D01*
X63867088Y-2740050D01*
X63804037Y-2729612D01*
X63774306Y-2724690D01*
X63774305Y-2724690D01*
X63680388Y-2729612D01*
X63652286Y-2737352D01*
X63589719Y-2754585D01*
X63535247Y-2783305D01*
X63506527Y-2798448D01*
X63434696Y-2859151D01*
X63434694Y-2859153D01*
X63377824Y-2933535D01*
X63377574Y-2933862D01*
X63337829Y-3019097D01*
X63317313Y-3110877D01*
X63316985Y-3204923D01*
X63334483Y-3285853D01*
X63336860Y-3296848D01*
X63370303Y-3369892D01*
X63376009Y-3382354D01*
X63432607Y-3457463D01*
X63432609Y-3457465D01*
X63440820Y-3464503D01*
X63462812Y-3496621D01*
X63465799Y-3535433D01*
X63448979Y-3570538D01*
X63416861Y-3592530D01*
X63391882Y-3596800D01*
X49059958Y-3596800D01*
X49022358Y-3586725D01*
X48994833Y-3559200D01*
X48984758Y-3521600D01*
X48992637Y-3493568D01*
X48991302Y-3493108D01*
X48994439Y-3484000D01*
X49011848Y-3433438D01*
X49024580Y-3396463D01*
X49026212Y-3382354D01*
X49035389Y-3303040D01*
X49035391Y-3302400D01*
X49035401Y-3300005D01*
X49033631Y-3283718D01*
X49025243Y-3206504D01*
X49025238Y-3206489D01*
X49025179Y-3205946D01*
X49051801Y-3205946D01*
X49074256Y-3208306D01*
X49088209Y-3205946D01*
X49161430Y-3205946D01*
X49182605Y-3224096D01*
X49182607Y-3224098D01*
X49227973Y-3262981D01*
X49254015Y-3285302D01*
X49306038Y-3313196D01*
X49336896Y-3329742D01*
X49427389Y-3355349D01*
X49521269Y-3360926D01*
X49521271Y-3360926D01*
X49583194Y-3351118D01*
X49614157Y-3346214D01*
X49701719Y-3311899D01*
X49779870Y-3259582D01*
X49791632Y-3247317D01*
X49844962Y-3191705D01*
X49855494Y-3174451D01*
X49893962Y-3111430D01*
X49919572Y-3037052D01*
X49924580Y-3022509D01*
X49927593Y-2996463D01*
X49935389Y-2929086D01*
X49935389Y-2928971D01*
X49935401Y-2926048D01*
X49926035Y-2839837D01*
X49925243Y-2832550D01*
X49895246Y-2743417D01*
X49895245Y-2743415D01*
X49862641Y-2646537D01*
X50138026Y-2646537D01*
X50587153Y-3095665D01*
X50607317Y-3117593D01*
X50628680Y-3130838D01*
X50648694Y-3146030D01*
X50661112Y-3150947D01*
X50671305Y-3157266D01*
X50672466Y-3157986D01*
X50684074Y-3161358D01*
X50696600Y-3164997D01*
X50719964Y-3174248D01*
X50721525Y-3174412D01*
X50733245Y-3175645D01*
X50746072Y-3179371D01*
X50753277Y-3179900D01*
X50773741Y-3179900D01*
X50796195Y-3182260D01*
X50796196Y-3182260D01*
X50810149Y-3179900D01*
X51061430Y-3179900D01*
X51082605Y-3198050D01*
X51082607Y-3198052D01*
X51129967Y-3238644D01*
X51154015Y-3259256D01*
X51203619Y-3285853D01*
X51236896Y-3303696D01*
X51327389Y-3329303D01*
X51421269Y-3334880D01*
X51421271Y-3334880D01*
X51483194Y-3325072D01*
X51514157Y-3320168D01*
X51601719Y-3285853D01*
X51679870Y-3233536D01*
X51695372Y-3217371D01*
X51744962Y-3165659D01*
X51759445Y-3141930D01*
X60873998Y-3141930D01*
X60908699Y-3127557D01*
X60970294Y-3080294D01*
X61017556Y-3018700D01*
X61030524Y-2987391D01*
X61054221Y-2956508D01*
X61090184Y-2941611D01*
X61128777Y-2946692D01*
X61159660Y-2970389D01*
X61169474Y-2987388D01*
X61182444Y-3018700D01*
X61229706Y-3080294D01*
X61291300Y-3127556D01*
X61363027Y-3157266D01*
X61421011Y-3164900D01*
X61738989Y-3164900D01*
X61796973Y-3157266D01*
X61868700Y-3127556D01*
X61930294Y-3080294D01*
X61977556Y-3018700D01*
X62007266Y-2946973D01*
X62014900Y-2888989D01*
X62014900Y-2511011D01*
X62007266Y-2453027D01*
X61977556Y-2381300D01*
X61977555Y-2381299D01*
X61973767Y-2372153D01*
X61973795Y-2372141D01*
X61962731Y-2345435D01*
X61967809Y-2306842D01*
X61991504Y-2275958D01*
X62027467Y-2261059D01*
X62072822Y-2269340D01*
X62085165Y-2275958D01*
X62136896Y-2303696D01*
X62227389Y-2329303D01*
X62321269Y-2334880D01*
X62321271Y-2334880D01*
X62329424Y-2335364D01*
X62329324Y-2337040D01*
X62354990Y-2339734D01*
X62386485Y-2362611D01*
X62402322Y-2398170D01*
X62396204Y-2441722D01*
X62387829Y-2459684D01*
X62387828Y-2459687D01*
X62367312Y-2551467D01*
X62366984Y-2645513D01*
X62385133Y-2729454D01*
X62386859Y-2737438D01*
X62417391Y-2804123D01*
X62426008Y-2822944D01*
X62481888Y-2897100D01*
X62482608Y-2898055D01*
X62554012Y-2959256D01*
X62603618Y-2985854D01*
X62636895Y-3003697D01*
X62727388Y-3029304D01*
X62821268Y-3034881D01*
X62821270Y-3034881D01*
X62888989Y-3024155D01*
X62914156Y-3020169D01*
X63001718Y-2985854D01*
X63079869Y-2933537D01*
X63094662Y-2918111D01*
X63144961Y-2865660D01*
X63158475Y-2843520D01*
X63193961Y-2785385D01*
X63218231Y-2714900D01*
X63224579Y-2696464D01*
X63229275Y-2655876D01*
X63235388Y-2603041D01*
X63235388Y-2602926D01*
X63235400Y-2600003D01*
X63225732Y-2511014D01*
X63225242Y-2506505D01*
X63195245Y-2417372D01*
X63172119Y-2378883D01*
X63146809Y-2336759D01*
X63082191Y-2268428D01*
X63071348Y-2261059D01*
X63004407Y-2215566D01*
X62917087Y-2180640D01*
X62854036Y-2170202D01*
X62824305Y-2165280D01*
X62824304Y-2165280D01*
X62814911Y-2165772D01*
X62663549Y-2173704D01*
X62693960Y-2085388D01*
X62693962Y-2085384D01*
X62720332Y-2008800D01*
X62724580Y-1996463D01*
X62727127Y-1974448D01*
X62735389Y-1903040D01*
X62735394Y-1901774D01*
X62735401Y-1900002D01*
X62725243Y-1806505D01*
X62723892Y-1802491D01*
X62695246Y-1717371D01*
X62681428Y-1694373D01*
X62646810Y-1636758D01*
X62582192Y-1568427D01*
X62578119Y-1565659D01*
X62504408Y-1515565D01*
X62417088Y-1480639D01*
X62325882Y-1465540D01*
X62285840Y-1458911D01*
X62285840Y-820996D01*
X62273469Y-768396D01*
X62269601Y-751951D01*
X62235295Y-706525D01*
X62221611Y-698052D01*
X62186896Y-676557D01*
X62165605Y-672577D01*
X62130943Y-666097D01*
X61070940Y-666097D01*
X61026466Y-676557D01*
X61001894Y-682336D01*
X60956468Y-716642D01*
X60926500Y-765041D01*
X60926500Y-765042D01*
X60916040Y-820994D01*
X60916040Y-1470997D01*
X60923545Y-1502908D01*
X60932279Y-1540043D01*
X60953714Y-1568426D01*
X60966585Y-1585469D01*
X61014984Y-1615437D01*
X61028973Y-1618052D01*
X61070937Y-1625897D01*
X61321040Y-1625897D01*
X61321041Y-2249624D01*
X61291302Y-2272443D01*
X61291300Y-2272444D01*
X61229706Y-2319706D01*
X61182444Y-2381300D01*
X61170099Y-2411106D01*
X61169476Y-2412609D01*
X61145779Y-2443492D01*
X61109816Y-2458389D01*
X61071223Y-2453308D01*
X61040340Y-2429611D01*
X61030524Y-2412609D01*
X61017556Y-2381300D01*
X60970294Y-2319706D01*
X60908701Y-2272445D01*
X60874000Y-2258072D01*
X60874000Y-2822944D01*
X60873999Y-2953999D01*
X60873998Y-3141930D01*
X51759445Y-3141930D01*
X51761976Y-3137785D01*
X51793962Y-3085384D01*
X51824580Y-2996462D01*
X51829493Y-2953999D01*
X60195644Y-2953999D01*
X60222445Y-3018701D01*
X60269706Y-3080294D01*
X60331299Y-3127555D01*
X60366000Y-3141928D01*
X60366000Y-2953999D01*
X60195644Y-2953999D01*
X51829493Y-2953999D01*
X51835389Y-2903040D01*
X51835389Y-2902925D01*
X51835401Y-2900002D01*
X51825243Y-2806505D01*
X51825243Y-2806504D01*
X51795246Y-2717371D01*
X51781428Y-2694373D01*
X51746810Y-2636758D01*
X51682192Y-2568427D01*
X51682191Y-2568426D01*
X51604408Y-2515565D01*
X51517088Y-2480639D01*
X51424306Y-2465279D01*
X51424305Y-2465279D01*
X51330388Y-2470201D01*
X51330385Y-2470202D01*
X51327139Y-2470372D01*
X51289063Y-2462279D01*
X51260135Y-2436232D01*
X51248106Y-2399211D01*
X51259016Y-2356095D01*
X51294105Y-2298610D01*
X51341009Y-2162396D01*
X51382603Y-2198047D01*
X51382607Y-2198052D01*
X51454013Y-2259254D01*
X51454015Y-2259255D01*
X51454016Y-2259256D01*
X51471120Y-2268427D01*
X51536896Y-2303696D01*
X51627389Y-2329303D01*
X51721269Y-2334880D01*
X51721271Y-2334880D01*
X51783194Y-2325072D01*
X51814157Y-2320168D01*
X51901719Y-2285853D01*
X51979870Y-2233536D01*
X51994601Y-2218175D01*
X52044962Y-2165659D01*
X52063058Y-2136013D01*
X52093962Y-2085384D01*
X52124580Y-1996462D01*
X52134445Y-1911197D01*
X52148774Y-1875007D01*
X52179280Y-1850827D01*
X52217788Y-1845140D01*
X52245759Y-1857358D01*
X52246812Y-1855394D01*
X52304473Y-1886311D01*
X52336896Y-1903696D01*
X52427389Y-1929303D01*
X52521269Y-1934880D01*
X52521271Y-1934880D01*
X52583194Y-1925072D01*
X52614157Y-1920168D01*
X52688749Y-1890936D01*
X52701722Y-1885852D01*
X52779870Y-1833537D01*
X52813898Y-1798052D01*
X52831305Y-1779900D01*
X54672366Y-1779900D01*
X54681189Y-1788723D01*
X54655049Y-1886278D01*
X54645100Y-2000000D01*
X54655049Y-2113722D01*
X54683465Y-2219770D01*
X54684596Y-2223992D01*
X54732839Y-2327450D01*
X54798318Y-2420964D01*
X54879036Y-2501682D01*
X54972550Y-2567161D01*
X55076008Y-2615404D01*
X55076010Y-2615405D01*
X55076011Y-2615405D01*
X55186278Y-2644951D01*
X55300000Y-2654900D01*
X55413722Y-2644951D01*
X55523989Y-2615405D01*
X55523990Y-2615405D01*
X55523992Y-2615404D01*
X55627450Y-2567161D01*
X55720964Y-2501682D01*
X55801682Y-2420964D01*
X55867161Y-2327450D01*
X55915404Y-2223992D01*
X55916535Y-2219770D01*
X55944951Y-2113722D01*
X55954900Y-2000000D01*
X56645100Y-2000000D01*
X56655049Y-2113722D01*
X56683465Y-2219770D01*
X56684596Y-2223992D01*
X56732839Y-2327450D01*
X56798318Y-2420964D01*
X56879036Y-2501682D01*
X56972550Y-2567161D01*
X57076008Y-2615404D01*
X57076010Y-2615405D01*
X57076011Y-2615405D01*
X57186278Y-2644951D01*
X57300000Y-2654900D01*
X57413722Y-2644951D01*
X57523989Y-2615405D01*
X57523990Y-2615405D01*
X57523992Y-2615404D01*
X57627450Y-2567161D01*
X57720964Y-2501682D01*
X57776646Y-2446000D01*
X60195645Y-2446000D01*
X60366001Y-2446000D01*
X60366001Y-2258070D01*
X60331300Y-2272443D01*
X60269706Y-2319706D01*
X60222444Y-2381300D01*
X60195645Y-2446000D01*
X57776646Y-2446000D01*
X57801682Y-2420964D01*
X57884350Y-2302900D01*
X58481016Y-2302900D01*
X58500000Y-2305399D01*
X58518984Y-2302900D01*
X58518990Y-2302900D01*
X58579043Y-2294994D01*
X58652700Y-2264484D01*
X58715950Y-2215950D01*
X58727612Y-2200752D01*
X58880879Y-2047485D01*
X59024225Y-2054872D01*
X59128711Y-2040281D01*
X59228558Y-2006192D01*
X59320152Y-1953842D01*
X59400192Y-1885118D01*
X59461429Y-1807995D01*
X59465798Y-1802493D01*
X59514594Y-1708955D01*
X59533567Y-1645512D01*
X59544822Y-1607880D01*
X59555392Y-1502908D01*
X59555400Y-1499997D01*
X59545381Y-1394978D01*
X59532316Y-1350446D01*
X59521414Y-1313284D01*
X59520497Y-1274370D01*
X59539160Y-1240210D01*
X59572403Y-1219957D01*
X59611319Y-1219040D01*
X59639351Y-1232455D01*
X59682665Y-1265690D01*
X59747364Y-1292489D01*
X59747364Y-1122134D01*
X60255363Y-1122134D01*
X60255363Y-1292490D01*
X60320065Y-1265689D01*
X60381658Y-1218428D01*
X60428919Y-1156835D01*
X60443292Y-1122134D01*
X60255363Y-1122134D01*
X59747364Y-1122134D01*
X59747364Y-1122133D01*
X59493046Y-1122133D01*
X59481658Y-1130871D01*
X59443065Y-1135951D01*
X59403596Y-1118192D01*
X59322522Y-1047840D01*
X59301857Y-1035885D01*
X59231202Y-995010D01*
X59131540Y-960402D01*
X59027131Y-945263D01*
X58930671Y-949728D01*
X58921741Y-950141D01*
X58879166Y-960402D01*
X58819179Y-974859D01*
X58819177Y-974860D01*
X58723141Y-1018524D01*
X58685058Y-1045539D01*
X58637090Y-1079565D01*
X58564135Y-1155775D01*
X58506907Y-1244405D01*
X58491592Y-1282407D01*
X58467472Y-1342257D01*
X58447251Y-1445801D01*
X58446975Y-1551305D01*
X58450197Y-1568272D01*
X58458680Y-1612956D01*
X58374536Y-1697100D01*
X57884350Y-1697100D01*
X57801682Y-1579036D01*
X57720964Y-1498318D01*
X57627450Y-1432839D01*
X57523992Y-1384596D01*
X57523990Y-1384595D01*
X57523989Y-1384595D01*
X57413722Y-1355049D01*
X57300000Y-1345100D01*
X57186278Y-1355049D01*
X57076011Y-1384595D01*
X57076010Y-1384595D01*
X57076008Y-1384596D01*
X56972550Y-1432839D01*
X56879036Y-1498318D01*
X56798318Y-1579036D01*
X56732839Y-1672550D01*
X56685204Y-1774705D01*
X56684595Y-1776011D01*
X56655049Y-1886278D01*
X56645100Y-2000000D01*
X55954900Y-2000000D01*
X55944951Y-1886278D01*
X55915405Y-1776011D01*
X55914796Y-1774705D01*
X55867161Y-1672550D01*
X55801682Y-1579036D01*
X55720964Y-1498318D01*
X55627450Y-1432839D01*
X55523992Y-1384596D01*
X55523990Y-1384595D01*
X55523989Y-1384595D01*
X55413722Y-1355049D01*
X55300000Y-1345100D01*
X55186278Y-1355049D01*
X55076011Y-1384595D01*
X55076010Y-1384596D01*
X55070273Y-1386133D01*
X54988487Y-1304346D01*
X54984491Y-1300000D01*
X54968312Y-1282407D01*
X54946941Y-1269156D01*
X54945980Y-1268426D01*
X54926934Y-1253970D01*
X54926935Y-1253970D01*
X54926933Y-1253969D01*
X54914515Y-1249052D01*
X54903167Y-1242016D01*
X54903166Y-1242016D01*
X54903165Y-1242015D01*
X54879025Y-1235002D01*
X54855664Y-1225752D01*
X54855663Y-1225752D01*
X54855661Y-1225751D01*
X54842388Y-1224357D01*
X54835972Y-1222493D01*
X54829557Y-1220629D01*
X54825955Y-1220365D01*
X54822353Y-1220100D01*
X54801887Y-1220100D01*
X54779434Y-1217740D01*
X54779433Y-1217740D01*
X54765480Y-1220100D01*
X52831056Y-1220100D01*
X52782193Y-1168426D01*
X52704408Y-1115565D01*
X52617088Y-1080639D01*
X52554037Y-1070201D01*
X52524306Y-1065279D01*
X52524305Y-1065279D01*
X52430388Y-1070201D01*
X52402286Y-1077941D01*
X52339719Y-1095174D01*
X52285247Y-1123894D01*
X52256527Y-1139037D01*
X52203524Y-1183829D01*
X52184694Y-1199742D01*
X52131622Y-1269156D01*
X52127574Y-1274451D01*
X52087829Y-1359686D01*
X52067313Y-1451466D01*
X52067198Y-1484434D01*
X52056993Y-1521995D01*
X52029372Y-1549424D01*
X51991738Y-1559369D01*
X51949731Y-1546366D01*
X51904408Y-1515565D01*
X51881389Y-1506358D01*
X51817088Y-1480639D01*
X51803909Y-1478457D01*
X51724305Y-1465278D01*
X51719309Y-1465540D01*
X51681234Y-1457446D01*
X51652306Y-1431399D01*
X51640278Y-1394377D01*
X51654081Y-1346875D01*
X51666663Y-1329175D01*
X52715939Y-279900D01*
X54710667Y-279900D01*
X54732840Y-327450D01*
X54769869Y-380333D01*
X54798319Y-420965D01*
X54879036Y-501682D01*
X54972550Y-567161D01*
X55076008Y-615404D01*
X55076010Y-615405D01*
X55076011Y-615405D01*
X55186278Y-644951D01*
X55300000Y-654900D01*
X55413722Y-644951D01*
X55523989Y-615405D01*
X55523990Y-615405D01*
X55523992Y-615404D01*
X55545954Y-605163D01*
X57054046Y-605163D01*
X57076008Y-615404D01*
X57186279Y-644950D01*
X57300000Y-654900D01*
X57413721Y-644950D01*
X57523992Y-615404D01*
X57545954Y-605163D01*
X57300000Y-359209D01*
X57054046Y-605163D01*
X55545954Y-605163D01*
X55627450Y-567161D01*
X55720964Y-501682D01*
X55801682Y-420964D01*
X55867161Y-327450D01*
X55915404Y-223992D01*
X55917178Y-217371D01*
X55944951Y-113722D01*
X55954900Y0D01*
X56645100Y0D01*
X56655050Y-113721D01*
X56684596Y-223992D01*
X56694837Y-245954D01*
X56940791Y0D01*
X57659209Y0D01*
X57905163Y-245954D01*
X57915404Y-223992D01*
X57944950Y-113721D01*
X57954900Y0D01*
X57944950Y113721D01*
X57915404Y223992D01*
X57905163Y245954D01*
X57659209Y0D01*
X56940791Y0D01*
X56694837Y245954D01*
X56684596Y223992D01*
X56655050Y113721D01*
X56645100Y0D01*
X55954900Y0D01*
X55944951Y113722D01*
X55915405Y223989D01*
X55914678Y225549D01*
X55867161Y327450D01*
X55801682Y420964D01*
X55720964Y501682D01*
X55627450Y567161D01*
X55606894Y576746D01*
X55577075Y601767D01*
X55575839Y605163D01*
X57054046Y605163D01*
X57300000Y359209D01*
X57545954Y605163D01*
X57523992Y615404D01*
X57413721Y644950D01*
X57300000Y654900D01*
X57186279Y644950D01*
X57076008Y615404D01*
X57054046Y605163D01*
X55575839Y605163D01*
X55563761Y638346D01*
X55570521Y676681D01*
X55595542Y706500D01*
X55638675Y720100D01*
X56296825Y720100D01*
X56326575Y718853D01*
X56326577Y718853D01*
X56351048Y724593D01*
X56375943Y728003D01*
X56388205Y733309D01*
X56401203Y736358D01*
X56423220Y748461D01*
X56446291Y758445D01*
X56446293Y758446D01*
X56456670Y766848D01*
X56468372Y773283D01*
X56468374Y773284D01*
X56473842Y778005D01*
X56473847Y778009D01*
X56481073Y785236D01*
X56488302Y792465D01*
X56505861Y806684D01*
X56514064Y818227D01*
X57079498Y1383659D01*
X57147193Y1365522D01*
X57186278Y1355049D01*
X57300000Y1345100D01*
X57413722Y1355049D01*
X57523989Y1384595D01*
X57523990Y1384595D01*
X57523992Y1384596D01*
X57627450Y1432839D01*
X57720964Y1498318D01*
X57740748Y1518102D01*
X57774459Y1537566D01*
X57813385Y1537566D01*
X57847096Y1518102D01*
X57866560Y1484391D01*
X57867139Y1456705D01*
X57867342Y1456704D01*
X57867313Y1448536D01*
X57867313Y1448534D01*
X57866985Y1354488D01*
X57885496Y1268874D01*
X57886860Y1262563D01*
X57907417Y1217664D01*
X57926009Y1177057D01*
X57981407Y1103541D01*
X57982609Y1101946D01*
X58054013Y1040745D01*
X58100262Y1015947D01*
X58136896Y996304D01*
X58227389Y970697D01*
X58321269Y965120D01*
X58321271Y965120D01*
X58392021Y976326D01*
X58414157Y979832D01*
X58486401Y1008144D01*
X58501699Y1014139D01*
X58501700Y1014139D01*
X58501719Y1014147D01*
X58521857Y1027628D01*
X58584925Y1027628D01*
X58606174Y976328D01*
X58644411Y926497D01*
X58652642Y915770D01*
X58713198Y869303D01*
X58713200Y869302D01*
X58783721Y840091D01*
X58840410Y832628D01*
X59148390Y832628D01*
X59205079Y840091D01*
X59275600Y869302D01*
X59275602Y869303D01*
X59336158Y915770D01*
X59382625Y976326D01*
X59384077Y979832D01*
X59411837Y1046849D01*
X59419300Y1103538D01*
X59419300Y1511518D01*
X59411837Y1568207D01*
X59382626Y1638728D01*
X59382625Y1638730D01*
X59336158Y1699286D01*
X59275602Y1745753D01*
X59275600Y1745754D01*
X59205079Y1774965D01*
X59148390Y1782428D01*
X58840410Y1782428D01*
X58783721Y1774965D01*
X58713200Y1745754D01*
X58713198Y1745753D01*
X58629510Y1681536D01*
X58582191Y1731574D01*
X58577371Y1734850D01*
X58561327Y1745753D01*
X58504408Y1784435D01*
X58504401Y1784438D01*
X58481049Y1800307D01*
X58579871Y1866465D01*
X58644964Y1934343D01*
X58685040Y2000000D01*
X58693962Y2014616D01*
X58693963Y2014619D01*
X58724145Y2064067D01*
X58767762Y2046000D01*
X58779318Y2041213D01*
X58779319Y2041213D01*
X58779321Y2041212D01*
X58836010Y2033749D01*
X59143990Y2033749D01*
X59200679Y2041212D01*
X59271200Y2070423D01*
X59271202Y2070424D01*
X59331758Y2116891D01*
X59378225Y2177447D01*
X59379213Y2179832D01*
X59407437Y2247970D01*
X59414900Y2304659D01*
X59414900Y2712639D01*
X59407437Y2769328D01*
X59378226Y2839849D01*
X59378225Y2839851D01*
X59331758Y2900407D01*
X59271202Y2946874D01*
X59271200Y2946875D01*
X59200679Y2976086D01*
X59143990Y2983549D01*
X58836010Y2983549D01*
X58779321Y2976086D01*
X58708800Y2946875D01*
X58708798Y2946874D01*
X58648242Y2900407D01*
X58601773Y2839848D01*
X58580929Y2789528D01*
X58557606Y2784057D01*
X58532706Y2780646D01*
X58520444Y2775340D01*
X58507446Y2772291D01*
X58485429Y2760188D01*
X58462358Y2750204D01*
X58451979Y2741800D01*
X58440278Y2735367D01*
X58440277Y2735366D01*
X58440275Y2735365D01*
X58434806Y2730644D01*
X58420344Y2716182D01*
X58406321Y2704826D01*
X58402788Y2701965D01*
X58394586Y2690424D01*
X58378961Y2674799D01*
X58339689Y2635528D01*
X58230387Y2629799D01*
X58139719Y2604826D01*
X58095454Y2581487D01*
X58056527Y2560963D01*
X57986380Y2501683D01*
X57984694Y2500258D01*
X57922611Y2419059D01*
X57920614Y2420585D01*
X57906735Y2403631D01*
X57870321Y2389874D01*
X57831907Y2396168D01*
X57806910Y2416884D01*
X57806336Y2416310D01*
X57720964Y2501682D01*
X57627450Y2567161D01*
X57523992Y2615404D01*
X57523990Y2615405D01*
X57523989Y2615405D01*
X57413722Y2644951D01*
X57300000Y2654900D01*
X57186278Y2644951D01*
X57076011Y2615405D01*
X57076010Y2615405D01*
X57076008Y2615404D01*
X56972550Y2567161D01*
X56879036Y2501682D01*
X56798318Y2420964D01*
X56732839Y2327450D01*
X56685976Y2226951D01*
X56684595Y2223989D01*
X56655049Y2113722D01*
X56645100Y2000000D01*
X56655049Y1886278D01*
X56667365Y1840314D01*
X56683660Y1779497D01*
X56184063Y1279900D01*
X55638675Y1279900D01*
X55601075Y1289975D01*
X55573550Y1317500D01*
X55563475Y1355100D01*
X55573550Y1392700D01*
X55606894Y1423254D01*
X55627450Y1432839D01*
X55720964Y1498318D01*
X55801682Y1579036D01*
X55867161Y1672550D01*
X55915404Y1776008D01*
X55916687Y1780796D01*
X55944951Y1886278D01*
X55954900Y2000000D01*
X55944951Y2113722D01*
X55915405Y2223989D01*
X55914024Y2226951D01*
X55867161Y2327450D01*
X55801682Y2420964D01*
X55720964Y2501682D01*
X55627450Y2567161D01*
X55523992Y2615404D01*
X55523990Y2615405D01*
X55523989Y2615405D01*
X55413722Y2644951D01*
X55300000Y2654900D01*
X55186278Y2644951D01*
X55076011Y2615405D01*
X55076010Y2615405D01*
X55076008Y2615404D01*
X54972550Y2567161D01*
X54879036Y2501682D01*
X54798319Y2420965D01*
X54793545Y2414147D01*
X54732840Y2327450D01*
X54710667Y2279900D01*
X51348696Y2279900D01*
X51311096Y2289975D01*
X51283571Y2317500D01*
X51273496Y2355100D01*
X51283571Y2392700D01*
X51306862Y2417590D01*
X51379870Y2466464D01*
X51391860Y2478967D01*
X51444962Y2534341D01*
X51464571Y2566466D01*
X51493962Y2614616D01*
X51523072Y2699157D01*
X51524580Y2703537D01*
X51526411Y2719361D01*
X51535389Y2796960D01*
X51535389Y2797075D01*
X51535401Y2799998D01*
X51525243Y2893495D01*
X51525243Y2893496D01*
X51495246Y2982629D01*
X51473782Y3018352D01*
X51446810Y3063242D01*
X51382192Y3131573D01*
X51378696Y3133949D01*
X51304408Y3184435D01*
X51217088Y3219361D01*
X51143315Y3231574D01*
X51124306Y3234721D01*
X51124305Y3234721D01*
X51030388Y3229799D01*
X51002286Y3222059D01*
X50939719Y3204826D01*
X50895202Y3181354D01*
X50856527Y3160963D01*
X50785497Y3100937D01*
X50784694Y3100258D01*
X50656159Y2932145D01*
X50595248Y3033521D01*
X50595246Y3033526D01*
X50546809Y3114139D01*
X50546808Y3114140D01*
X50546807Y3114142D01*
X50482192Y3182470D01*
X50480356Y3183718D01*
X50404408Y3235332D01*
X50317088Y3270258D01*
X50254037Y3280696D01*
X50224306Y3285618D01*
X50224305Y3285618D01*
X50130388Y3280696D01*
X50086854Y3268705D01*
X50039721Y3255723D01*
X50004431Y3237117D01*
X49966472Y3228493D01*
X49929287Y3240004D01*
X49902838Y3268566D01*
X49894214Y3306525D01*
X49898256Y3328121D01*
X49898834Y3329798D01*
X49921884Y3396741D01*
X49921911Y3396970D01*
X49924876Y3422604D01*
X49932693Y3490163D01*
X49932693Y3490278D01*
X49932705Y3493201D01*
X49922547Y3586698D01*
X49922547Y3586699D01*
X49892550Y3675832D01*
X49869528Y3714147D01*
X49844114Y3756445D01*
X49779496Y3824776D01*
X49779495Y3824777D01*
X49701712Y3877638D01*
X49614392Y3912564D01*
X49551341Y3923002D01*
X49521610Y3927924D01*
X49521609Y3927924D01*
X49427692Y3923002D01*
X49399590Y3915262D01*
X49337023Y3898029D01*
X49253829Y3854165D01*
X49218323Y3824160D01*
X49183102Y3807585D01*
X49144312Y3810843D01*
X49112348Y3833059D01*
X49095773Y3868280D01*
X49099031Y3907070D01*
X49110890Y3928356D01*
X49165798Y3997507D01*
X49214594Y4091045D01*
X49235128Y4159707D01*
X49244822Y4192120D01*
X49255392Y4297092D01*
X49255400Y4300003D01*
X49245381Y4405022D01*
X49215680Y4506260D01*
X49167376Y4600048D01*
X49102204Y4683017D01*
X49022522Y4752160D01*
X49018997Y4754199D01*
X48931202Y4804990D01*
X48831540Y4839598D01*
X48727131Y4854737D01*
X48630671Y4850272D01*
X48621741Y4849859D01*
X48579166Y4839598D01*
X48519179Y4825141D01*
X48519177Y4825140D01*
X48423141Y4781476D01*
X48381814Y4752160D01*
X48337090Y4720435D01*
X48264135Y4644225D01*
X48206907Y4555595D01*
X48206907Y4555594D01*
X48167472Y4457743D01*
X48147251Y4354199D01*
X48146975Y4248694D01*
X48157455Y4193496D01*
X48166653Y4145048D01*
X48184535Y4099998D01*
X48205576Y4046990D01*
X48272084Y3942796D01*
X48011919Y3682630D01*
X47765113Y3435824D01*
X47765111Y3435823D01*
X47200000Y2870712D01*
X47000171Y3070541D01*
X46713864Y2784233D01*
X46179901Y3318197D01*
X46179901Y3463394D01*
X46388255Y3463394D01*
X46713864Y3137785D01*
X46823396Y3247317D01*
X46637278Y3433435D01*
X46580829Y3471921D01*
X46517512Y3488886D01*
X46452013Y3486436D01*
X46390141Y3464786D01*
X46388255Y3463394D01*
X46179901Y3463394D01*
X46179901Y3752566D01*
X46324226Y3745128D01*
X46428711Y3759719D01*
X46528558Y3793808D01*
X46620152Y3846158D01*
X46700192Y3914882D01*
X46734478Y3958063D01*
X46765798Y3997507D01*
X46814594Y4091045D01*
X46835128Y4159707D01*
X46844822Y4192120D01*
X46855392Y4297092D01*
X46855400Y4300003D01*
X46845381Y4405022D01*
X46815680Y4506260D01*
X46767376Y4600048D01*
X46702204Y4683017D01*
X46622522Y4752160D01*
X46618997Y4754199D01*
X46531202Y4804990D01*
X46431540Y4839598D01*
X46327131Y4854737D01*
X46230671Y4850272D01*
X46221741Y4849859D01*
X46179166Y4839598D01*
X46119179Y4825141D01*
X46119177Y4825140D01*
X46023141Y4781476D01*
X45981814Y4752160D01*
X45937090Y4720435D01*
X45864135Y4644225D01*
X45806907Y4555595D01*
X45806907Y4555594D01*
X45767472Y4457743D01*
X45747251Y4354199D01*
X45746975Y4248694D01*
X45757455Y4193496D01*
X45763870Y4159707D01*
X45704336Y4100173D01*
X45682409Y4080010D01*
X45669165Y4058649D01*
X45653971Y4038632D01*
X45649054Y4026212D01*
X45642017Y4014863D01*
X45635006Y3990733D01*
X45625753Y3967362D01*
X45624357Y3954079D01*
X45620631Y3941255D01*
X45620102Y3934050D01*
X45620102Y3913595D01*
X45617741Y3891131D01*
X45620102Y3877172D01*
X45620101Y3070942D01*
X45618854Y3041191D01*
X45624593Y3016724D01*
X45628004Y2991824D01*
X45633310Y2979563D01*
X45634126Y2976085D01*
X45636359Y2966562D01*
X45648464Y2944541D01*
X45658446Y2921476D01*
X45666850Y2911098D01*
X45673286Y2899390D01*
X45678010Y2893919D01*
X45685235Y2886695D01*
X45692464Y2879466D01*
X45750649Y2807609D01*
X45681149Y2756286D01*
X46183534Y2253903D01*
X46006757Y2077126D01*
X45506073Y2577811D01*
X45451552Y2497839D01*
X44526787Y3422603D01*
X44534171Y3486436D01*
X44535389Y3496960D01*
X44535389Y3497053D01*
X44535401Y3499998D01*
X44526423Y3582630D01*
X44525243Y3593496D01*
X44495246Y3682629D01*
X44476308Y3714147D01*
X44446810Y3763242D01*
X44382192Y3831573D01*
X44382191Y3831574D01*
X44304408Y3884435D01*
X44217088Y3919361D01*
X44154037Y3929799D01*
X44124306Y3934721D01*
X44124305Y3934721D01*
X44030388Y3929799D01*
X44005711Y3923002D01*
X43939719Y3904826D01*
X43895424Y3881471D01*
X43856527Y3860963D01*
X43786691Y3801946D01*
X43784694Y3800258D01*
X43727576Y3725552D01*
X43727574Y3725549D01*
X43687829Y3640314D01*
X43667313Y3548534D01*
X43666985Y3454488D01*
X43679471Y3396740D01*
X43686860Y3362563D01*
X43712260Y3307086D01*
X43718752Y3268705D01*
X43705184Y3232219D01*
X43675191Y3207407D01*
X43636810Y3200915D01*
X43589248Y3224112D01*
X43582192Y3231573D01*
X43582191Y3231574D01*
X43504408Y3284435D01*
X43417088Y3319361D01*
X43353427Y3329900D01*
X43324306Y3334721D01*
X43324305Y3334721D01*
X43230388Y3329799D01*
X43203889Y3322500D01*
X43139719Y3304826D01*
X43093954Y3280696D01*
X43056527Y3260963D01*
X42985471Y3200915D01*
X42984694Y3200258D01*
X42927576Y3125552D01*
X42927574Y3125549D01*
X42887829Y3040314D01*
X42867313Y2948534D01*
X42866985Y2854488D01*
X42886407Y2764660D01*
X42886860Y2762563D01*
X42918482Y2693496D01*
X42926009Y2677057D01*
X42980439Y2604825D01*
X42983807Y2600356D01*
X42998389Y2564264D01*
X42992971Y2525717D01*
X42969005Y2495042D01*
X42923749Y2479900D01*
X39315745Y2479900D01*
X39304410Y2484434D01*
X39304408Y2484435D01*
X39217088Y2519361D01*
X39154037Y2529799D01*
X39124306Y2534721D01*
X39124305Y2534721D01*
X39030388Y2529799D01*
X39002286Y2522059D01*
X38939719Y2504826D01*
X38892444Y2479900D01*
X38856527Y2460963D01*
X38832088Y2440310D01*
X38736633Y2359645D01*
X38725244Y2393489D01*
X38725243Y2393496D01*
X38699261Y2470698D01*
X38695246Y2482630D01*
X38646810Y2563242D01*
X38582192Y2631573D01*
X38582191Y2631574D01*
X38504408Y2684435D01*
X38417088Y2719361D01*
X38348975Y2730637D01*
X38324306Y2734721D01*
X38324305Y2734721D01*
X38230388Y2729799D01*
X38206267Y2723155D01*
X38139719Y2704826D01*
X38097622Y2682630D01*
X38056527Y2660963D01*
X37986691Y2601946D01*
X37984694Y2600258D01*
X37928753Y2527091D01*
X37927574Y2525549D01*
X37887829Y2440314D01*
X37867313Y2348534D01*
X37866985Y2254488D01*
X37886848Y2162620D01*
X37886860Y2162563D01*
X37922631Y2084435D01*
X37926009Y2077057D01*
X37982607Y2001948D01*
X38020100Y1969813D01*
X38020100Y1907196D01*
X38018853Y1877446D01*
X38024592Y1852979D01*
X38028003Y1828079D01*
X38033309Y1815818D01*
X38035424Y1806800D01*
X38036358Y1802817D01*
X38048463Y1780796D01*
X38058445Y1757731D01*
X38066849Y1747353D01*
X38073285Y1735645D01*
X38078009Y1730174D01*
X38085234Y1722950D01*
X38092463Y1715721D01*
X38106682Y1698161D01*
X38111545Y1694706D01*
X38118227Y1689957D01*
X38679611Y1128571D01*
X38699764Y1106655D01*
X38721127Y1093410D01*
X38741142Y1078218D01*
X38753558Y1073302D01*
X38764911Y1066263D01*
X38765064Y1066219D01*
X38779835Y1057070D01*
X38756530Y1037376D01*
X38756527Y1037374D01*
X38684696Y976671D01*
X38684694Y976669D01*
X38630712Y906064D01*
X38627574Y901960D01*
X38587829Y816725D01*
X38567313Y724945D01*
X38566985Y630899D01*
X38585846Y543666D01*
X38586860Y538974D01*
X38610199Y487999D01*
X38626009Y453468D01*
X38680944Y380566D01*
X38682609Y378357D01*
X38754011Y317157D01*
X38856926Y261975D01*
X38806671Y154198D01*
X38787829Y113790D01*
X38767313Y22010D01*
X38766985Y-72036D01*
X38785843Y-159255D01*
X38786860Y-163961D01*
X38826008Y-249465D01*
X38826009Y-249467D01*
X38878148Y-318658D01*
X38882609Y-324578D01*
X38954013Y-385779D01*
X38992084Y-406192D01*
X39036896Y-430220D01*
X39127389Y-455827D01*
X39221269Y-461404D01*
X39221271Y-461404D01*
X39296794Y-449442D01*
X39314157Y-446692D01*
X39401719Y-412377D01*
X39479870Y-360060D01*
X39503518Y-335400D01*
X39544962Y-292183D01*
X39565566Y-258428D01*
X39593962Y-211908D01*
X39624580Y-122986D01*
X39631348Y-64489D01*
X40115938Y420100D01*
X42024165Y420100D01*
X42061765Y410025D01*
X42089290Y382500D01*
X42099365Y344900D01*
X42083904Y299225D01*
X42033383Y233147D01*
X42027574Y225549D01*
X41987829Y140314D01*
X41967313Y48534D01*
X41966985Y-45512D01*
X41986017Y-133536D01*
X41986860Y-137437D01*
X42018360Y-206236D01*
X42026009Y-222943D01*
X42082607Y-298052D01*
X42082609Y-298054D01*
X42154013Y-359255D01*
X42203479Y-385778D01*
X42236896Y-403696D01*
X42327389Y-429303D01*
X42421269Y-434880D01*
X42421271Y-434880D01*
X42440164Y-436002D01*
X42685963Y-681801D01*
X42706127Y-703729D01*
X42727490Y-716974D01*
X42747504Y-732166D01*
X42759922Y-737083D01*
X42771276Y-744122D01*
X42789745Y-749487D01*
X42795410Y-751133D01*
X42818774Y-760384D01*
X42820335Y-760548D01*
X42832055Y-761781D01*
X42843278Y-765041D01*
X42844882Y-765507D01*
X42852087Y-766036D01*
X42872551Y-766036D01*
X42895005Y-768396D01*
X42895006Y-768396D01*
X42908959Y-766036D01*
X43719880Y-766036D01*
X43773786Y-920100D01*
X39229819Y-920100D01*
X39221430Y-895174D01*
X39195246Y-817371D01*
X39169457Y-774451D01*
X39146810Y-736758D01*
X39082192Y-668427D01*
X39081296Y-667818D01*
X39004408Y-615565D01*
X38917088Y-580639D01*
X38854037Y-570201D01*
X38824306Y-565279D01*
X38824305Y-565279D01*
X38730388Y-570201D01*
X38705886Y-576950D01*
X38639719Y-595174D01*
X38587056Y-622941D01*
X38556527Y-639037D01*
X38486691Y-698054D01*
X38484694Y-699742D01*
X38434768Y-765042D01*
X38427574Y-774451D01*
X38387829Y-859686D01*
X38367313Y-951466D01*
X38366985Y-1045512D01*
X38386539Y-1135951D01*
X38386860Y-1137437D01*
X38473427Y-1326511D01*
X37337120Y-1326511D01*
X37282192Y-1268427D01*
X37278165Y-1265690D01*
X37204408Y-1215565D01*
X37117088Y-1180639D01*
X37043315Y-1168426D01*
X37024306Y-1165279D01*
X37024305Y-1165279D01*
X36930388Y-1170201D01*
X36902286Y-1177941D01*
X36839719Y-1195174D01*
X36785247Y-1223894D01*
X36756527Y-1239037D01*
X36684696Y-1299740D01*
X36684694Y-1299742D01*
X36642408Y-1355049D01*
X36627574Y-1374451D01*
X36587829Y-1459686D01*
X36567313Y-1551466D01*
X36566985Y-1645512D01*
X36586087Y-1733861D01*
X36586860Y-1737437D01*
X36654467Y-1885100D01*
X36211011Y-1885100D01*
X36153027Y-1892734D01*
X36081300Y-1922444D01*
X36019706Y-1969706D01*
X35973977Y-2029303D01*
X35965692Y-2040100D01*
X35562244Y-2040100D01*
X35491758Y-1948242D01*
X35431202Y-1901775D01*
X35426294Y-1899742D01*
X35360679Y-1872563D01*
X35303990Y-1865100D01*
X34896010Y-1865100D01*
X34839321Y-1872563D01*
X34773706Y-1899742D01*
X34768798Y-1901775D01*
X34708242Y-1948242D01*
X34661775Y-2008798D01*
X34661774Y-2008800D01*
X34632563Y-2079321D01*
X34625100Y-2136010D01*
X34625100Y-2443990D01*
X34632563Y-2500679D01*
X34661572Y-2570712D01*
X34661775Y-2571202D01*
X34708242Y-2631758D01*
X34768798Y-2678225D01*
X34768800Y-2678226D01*
X34839321Y-2707437D01*
X34896010Y-2714900D01*
X35303990Y-2714900D01*
X35360679Y-2707437D01*
X35431200Y-2678226D01*
X35431202Y-2678225D01*
X35491759Y-2631757D01*
X35516205Y-2599900D01*
X35965692Y-2599900D01*
X35972444Y-2608699D01*
X35972444Y-2608700D01*
X36019706Y-2670294D01*
X36081300Y-2717556D01*
X36112610Y-2730525D01*
X36143492Y-2754221D01*
X36158389Y-2790184D01*
X36153308Y-2828777D01*
X36129611Y-2859660D01*
X36112609Y-2869476D01*
X36081300Y-2882444D01*
X36019706Y-2929706D01*
X35972445Y-2991299D01*
X35958072Y-3026000D01*
X36146001Y-3026000D01*
X36841929Y-3026001D01*
X36827557Y-2991300D01*
X36780294Y-2929706D01*
X36718700Y-2882444D01*
X36687391Y-2869476D01*
X36656508Y-2845779D01*
X36641611Y-2809816D01*
X36646692Y-2771223D01*
X36670389Y-2740340D01*
X36687388Y-2730526D01*
X36718700Y-2717556D01*
X36780294Y-2670294D01*
X36827556Y-2608700D01*
X36827556Y-2608699D01*
X36834308Y-2599900D01*
X37183795Y-2599900D01*
X37208241Y-2631757D01*
X37268798Y-2678225D01*
X37268800Y-2678226D01*
X37335269Y-2705759D01*
X37366149Y-2729454D01*
X37381046Y-2765417D01*
X37375965Y-2804011D01*
X37352268Y-2834893D01*
X37320044Y-2849201D01*
X37293299Y-2854102D01*
X37271278Y-2865660D01*
X37220040Y-2892552D01*
X37158111Y-2947416D01*
X37143736Y-2968242D01*
X37111111Y-3015506D01*
X37103052Y-3036758D01*
X37081773Y-3092867D01*
X37074343Y-3154058D01*
X37074300Y-3154414D01*
X37074300Y-3458643D01*
X37099618Y-3596800D01*
X36815917Y-3596800D01*
X36841929Y-3534000D01*
X36653999Y-3534000D01*
X35958071Y-3533999D01*
X35984083Y-3596800D01*
X35535905Y-3596800D01*
X35549492Y-3564000D01*
X35353999Y-3564000D01*
X34650508Y-3563999D01*
X34664095Y-3596800D01*
X32390037Y-3596800D01*
X32424579Y-3496466D01*
X32424579Y-3496464D01*
X32424580Y-3496462D01*
X32435389Y-3403040D01*
X32435389Y-3402925D01*
X32435401Y-3400002D01*
X32425970Y-3313196D01*
X32425243Y-3306504D01*
X32395246Y-3217371D01*
X32372731Y-3179900D01*
X32346810Y-3136758D01*
X32282192Y-3068427D01*
X32282191Y-3068426D01*
X32263909Y-3056001D01*
X35354000Y-3056001D01*
X35549493Y-3056001D01*
X35538225Y-3028799D01*
X35491758Y-2968242D01*
X35431201Y-2921775D01*
X35360678Y-2892563D01*
X35354000Y-2891684D01*
X35354000Y-3056001D01*
X32263909Y-3056001D01*
X32263907Y-3056000D01*
X34650506Y-3056000D01*
X34846001Y-3056000D01*
X34846001Y-2891684D01*
X34839323Y-2892563D01*
X34768799Y-2921775D01*
X34708242Y-2968242D01*
X34661772Y-3028802D01*
X34650506Y-3056000D01*
X32263907Y-3056000D01*
X32204408Y-3015565D01*
X32117088Y-2980639D01*
X32070696Y-2972959D01*
X32024306Y-2965279D01*
X32024305Y-2965279D01*
X31930388Y-2970201D01*
X31902286Y-2977941D01*
X31839719Y-2995174D01*
X31792983Y-3019816D01*
X31756527Y-3039037D01*
X31692829Y-3092867D01*
X31684694Y-3099742D01*
X31627729Y-3174248D01*
X31627574Y-3174451D01*
X31587829Y-3259686D01*
X31567313Y-3351466D01*
X31567027Y-3433438D01*
X31566985Y-3445514D01*
X31599694Y-3596800D01*
X24478200Y-3596800D01*
X24478200Y-3054000D01*
X24795100Y-3054000D01*
X24795100Y-3059690D01*
X24802500Y-3125373D01*
X24831706Y-3208841D01*
X24878756Y-3283718D01*
X24941282Y-3346244D01*
X25016159Y-3393294D01*
X25099627Y-3422500D01*
X25165310Y-3429900D01*
X25221000Y-3429900D01*
X25221000Y-3054000D01*
X25729000Y-3054000D01*
X25729000Y-3429900D01*
X25784690Y-3429900D01*
X25850373Y-3422500D01*
X25933841Y-3393294D01*
X26008718Y-3346244D01*
X26071244Y-3283718D01*
X26118294Y-3208841D01*
X26147500Y-3125373D01*
X26154900Y-3059690D01*
X26154900Y-3054000D01*
X25729000Y-3054000D01*
X25221000Y-3054000D01*
X24795100Y-3054000D01*
X24478200Y-3054000D01*
X24478200Y-2540310D01*
X24795100Y-2540310D01*
X24795100Y-2546000D01*
X25221000Y-2546000D01*
X25221000Y-2170100D01*
X25729000Y-2170100D01*
X25729000Y-2546000D01*
X26238549Y-2546000D01*
X26254015Y-2559256D01*
X26303619Y-2585853D01*
X26336896Y-2603696D01*
X26427389Y-2629303D01*
X26521269Y-2634880D01*
X26521271Y-2634880D01*
X26583194Y-2625072D01*
X26614157Y-2620168D01*
X26701719Y-2585853D01*
X26779870Y-2533536D01*
X26787100Y-2525997D01*
X26844962Y-2465659D01*
X26858190Y-2443987D01*
X26893962Y-2385384D01*
X26916737Y-2319238D01*
X26924580Y-2296463D01*
X26927718Y-2269340D01*
X26935389Y-2203040D01*
X26935389Y-2202925D01*
X26935401Y-2200002D01*
X26925243Y-2106505D01*
X26925243Y-2106504D01*
X26895246Y-2017371D01*
X26870322Y-1975890D01*
X26846810Y-1936758D01*
X26782192Y-1868427D01*
X26782191Y-1868426D01*
X26704408Y-1815565D01*
X26617088Y-1780639D01*
X26554037Y-1770201D01*
X26524306Y-1765279D01*
X26524305Y-1765279D01*
X26430388Y-1770201D01*
X26409295Y-1776011D01*
X26339719Y-1795174D01*
X26287052Y-1822943D01*
X26256527Y-1839037D01*
X26184696Y-1899740D01*
X26184694Y-1899742D01*
X26143331Y-1953842D01*
X26127574Y-1974451D01*
X26087829Y-2059686D01*
X26067313Y-2151466D01*
X26067301Y-2154766D01*
X26057096Y-2192329D01*
X26029475Y-2219758D01*
X25991840Y-2229702D01*
X25952092Y-2218175D01*
X25933840Y-2206706D01*
X25850373Y-2177500D01*
X25784690Y-2170100D01*
X25729000Y-2170100D01*
X25221000Y-2170100D01*
X25165310Y-2170100D01*
X25099627Y-2177500D01*
X25016159Y-2206706D01*
X24941282Y-2253756D01*
X24878756Y-2316282D01*
X24831706Y-2391159D01*
X24802500Y-2474627D01*
X24795100Y-2540310D01*
X24478200Y-2540310D01*
X24478200Y-1741562D01*
X24551146Y-1711351D01*
X24562151Y-1703999D01*
X24564606Y-1702359D01*
X24564607Y-1702358D01*
X24565577Y-1701710D01*
X24565585Y-1701704D01*
X24572476Y-1697100D01*
X24583601Y-1689667D01*
X24639667Y-1633601D01*
X24651704Y-1615585D01*
X24651710Y-1615577D01*
X24661351Y-1601146D01*
X24691683Y-1527909D01*
X24699295Y-1489642D01*
X24703200Y-1449999D01*
X24703200Y-445512D01*
X27466985Y-445512D01*
X27479130Y-501683D01*
X27486860Y-537437D01*
X27521976Y-614134D01*
X27526009Y-622943D01*
X27582607Y-698052D01*
X27582609Y-698054D01*
X27654013Y-759255D01*
X27703619Y-785853D01*
X27736896Y-803696D01*
X27827389Y-829303D01*
X27921269Y-834880D01*
X27921271Y-834880D01*
X27983194Y-825072D01*
X28014157Y-820168D01*
X28101719Y-785853D01*
X28179870Y-733536D01*
X28194356Y-718430D01*
X28244962Y-665659D01*
X28269557Y-625365D01*
X28293962Y-585384D01*
X28317864Y-515966D01*
X28324580Y-496463D01*
X28327140Y-474337D01*
X28335389Y-403040D01*
X28335395Y-401512D01*
X28335401Y-400002D01*
X28325243Y-306505D01*
X28322399Y-298054D01*
X28295246Y-217371D01*
X28275660Y-184774D01*
X28246810Y-136758D01*
X28182192Y-68427D01*
X28182191Y-68426D01*
X28104408Y-15565D01*
X28017088Y19361D01*
X27954037Y29799D01*
X27924306Y34721D01*
X27924305Y34721D01*
X27830388Y29799D01*
X27802286Y22059D01*
X27739719Y4826D01*
X27687056Y-22941D01*
X27656527Y-39037D01*
X27586691Y-98054D01*
X27584694Y-99742D01*
X27532020Y-168636D01*
X27527574Y-174451D01*
X27487829Y-259686D01*
X27467313Y-351466D01*
X27466985Y-445512D01*
X24703200Y-445512D01*
X24703200Y1049999D01*
X24699295Y1089642D01*
X24691683Y1127909D01*
X24661351Y1201146D01*
X24651710Y1215577D01*
X24651704Y1215585D01*
X24639668Y1233599D01*
X24639667Y1233601D01*
X24583601Y1289667D01*
X24565585Y1301704D01*
X24565577Y1301710D01*
X24564395Y1302500D01*
X24551146Y1311351D01*
X24477907Y1341684D01*
X24416200Y1353962D01*
X24416200Y2046001D01*
X24895100Y2046001D01*
X24895100Y2018513D01*
X24902649Y1961174D01*
X24932110Y1890048D01*
X24978974Y1828974D01*
X25040049Y1782110D01*
X25071000Y1769290D01*
X25071000Y2046000D01*
X25578999Y2046000D01*
X25578999Y1769288D01*
X25609949Y1782108D01*
X25671026Y1828974D01*
X25717890Y1890048D01*
X25747351Y1961174D01*
X25754900Y2018513D01*
X25754900Y2046000D01*
X25578999Y2046000D01*
X25071000Y2046000D01*
X25071000Y2046001D01*
X24895100Y2046001D01*
X24416200Y2046001D01*
X24416200Y2325497D01*
X24409060Y2398321D01*
X24393200Y2450848D01*
X24393200Y2454488D01*
X26066985Y2454488D01*
X26084252Y2374627D01*
X26086860Y2362563D01*
X26122514Y2284690D01*
X26126009Y2277057D01*
X26182607Y2201948D01*
X26182609Y2201946D01*
X26254013Y2140745D01*
X26303619Y2114147D01*
X26336896Y2096304D01*
X26427389Y2070697D01*
X26521269Y2065120D01*
X26521271Y2065120D01*
X26599433Y2077500D01*
X26614157Y2079832D01*
X26701719Y2114147D01*
X26779870Y2166464D01*
X26790746Y2177805D01*
X26844962Y2234341D01*
X26853825Y2248860D01*
X26893962Y2314616D01*
X26921122Y2393496D01*
X26924580Y2403537D01*
X26926596Y2420965D01*
X26935389Y2496960D01*
X26935393Y2498020D01*
X26935401Y2499998D01*
X26929481Y2554488D01*
X27566985Y2554488D01*
X27586017Y2466464D01*
X27586860Y2462563D01*
X27624088Y2381253D01*
X27626009Y2377057D01*
X27682607Y2301948D01*
X27682609Y2301946D01*
X27754013Y2240745D01*
X27805993Y2212874D01*
X27836896Y2196304D01*
X27927389Y2170697D01*
X28021269Y2165120D01*
X28021271Y2165120D01*
X28083194Y2174928D01*
X28114157Y2179832D01*
X28201719Y2214147D01*
X28279870Y2266464D01*
X28281025Y2267668D01*
X28344962Y2334341D01*
X28361762Y2361864D01*
X28393962Y2414616D01*
X28422315Y2496960D01*
X28424580Y2503537D01*
X28425807Y2514147D01*
X28435389Y2596960D01*
X28435391Y2597585D01*
X28435401Y2599998D01*
X28426227Y2684435D01*
X28425243Y2693496D01*
X28395246Y2782629D01*
X28375701Y2815157D01*
X28352070Y2854488D01*
X35966985Y2854488D01*
X35986407Y2764660D01*
X35986860Y2762563D01*
X36018482Y2693496D01*
X36026009Y2677057D01*
X36082607Y2601948D01*
X36082609Y2601946D01*
X36154013Y2540745D01*
X36197366Y2517500D01*
X36236896Y2496304D01*
X36327389Y2470697D01*
X36421269Y2465120D01*
X36421271Y2465120D01*
X36483194Y2474928D01*
X36514157Y2479832D01*
X36601719Y2514147D01*
X36679870Y2566464D01*
X36679872Y2566466D01*
X36744962Y2634341D01*
X36761212Y2660963D01*
X36793962Y2714616D01*
X36819919Y2790000D01*
X36824580Y2803537D01*
X36825925Y2815160D01*
X36835389Y2896960D01*
X36835391Y2897560D01*
X36835401Y2899998D01*
X36825243Y2993495D01*
X36824298Y2996304D01*
X36795246Y3082629D01*
X36779496Y3108841D01*
X36746810Y3163242D01*
X36682192Y3231573D01*
X36682191Y3231574D01*
X36604408Y3284435D01*
X36517088Y3319361D01*
X36453427Y3329900D01*
X36424306Y3334721D01*
X36424305Y3334721D01*
X36330388Y3329799D01*
X36303889Y3322500D01*
X36239719Y3304826D01*
X36193954Y3280696D01*
X36156527Y3260963D01*
X36085471Y3200915D01*
X36084694Y3200258D01*
X36027576Y3125552D01*
X36027574Y3125549D01*
X35987829Y3040314D01*
X35967313Y2948534D01*
X35966985Y2854488D01*
X28352070Y2854488D01*
X28346810Y2863242D01*
X28282192Y2931573D01*
X28282191Y2931574D01*
X28204408Y2984435D01*
X28117088Y3019361D01*
X28054037Y3029799D01*
X28024306Y3034721D01*
X28024305Y3034721D01*
X27930388Y3029799D01*
X27909785Y3024124D01*
X27839719Y3004826D01*
X27800647Y2984225D01*
X27756527Y2960963D01*
X27684870Y2900407D01*
X27684694Y2900258D01*
X27631521Y2830712D01*
X27627574Y2825549D01*
X27587829Y2740314D01*
X27567313Y2648534D01*
X27566985Y2554488D01*
X26929481Y2554488D01*
X26925243Y2593495D01*
X26923770Y2597872D01*
X26895246Y2682629D01*
X26875087Y2716180D01*
X26846810Y2763242D01*
X26782192Y2831573D01*
X26770016Y2839848D01*
X26704408Y2884435D01*
X26617088Y2919361D01*
X26543315Y2931574D01*
X26524306Y2934721D01*
X26524305Y2934721D01*
X26430388Y2929799D01*
X26402286Y2922059D01*
X26339719Y2904826D01*
X26285247Y2876106D01*
X26256527Y2860963D01*
X26184696Y2800260D01*
X26184694Y2800258D01*
X26128330Y2726538D01*
X26127574Y2725549D01*
X26087829Y2640314D01*
X26067313Y2548534D01*
X26066985Y2454488D01*
X24393200Y2454488D01*
X24393200Y2553999D01*
X25579000Y2553999D01*
X25754900Y2553999D01*
X25754900Y2581487D01*
X25747351Y2638826D01*
X25717890Y2709952D01*
X25671026Y2771026D01*
X25609951Y2817890D01*
X25579000Y2830710D01*
X25579000Y2553999D01*
X24393200Y2553999D01*
X24393200Y2576144D01*
X24392221Y2581487D01*
X24895100Y2581487D01*
X24895100Y2554000D01*
X25071001Y2554000D01*
X25071001Y2830712D01*
X25040051Y2817892D01*
X24978974Y2771026D01*
X24932110Y2709952D01*
X24902649Y2638826D01*
X24895100Y2581487D01*
X24392221Y2581487D01*
X24373235Y2685088D01*
X24334507Y2758879D01*
X24279242Y2821260D01*
X24273024Y2825552D01*
X24210655Y2868602D01*
X24166025Y2885528D01*
X24132732Y2898155D01*
X24107092Y2901268D01*
X24070590Y2905700D01*
X23761356Y2905700D01*
X23652412Y2885735D01*
X23578621Y2847007D01*
X23554400Y2825549D01*
X23516240Y2791742D01*
X23468898Y2723155D01*
X23465221Y2713460D01*
X23440206Y2647500D01*
X23439345Y2645231D01*
X23431800Y2583090D01*
X23431800Y2450758D01*
X23417362Y2405244D01*
X23416396Y2396632D01*
X23409409Y2334343D01*
X23408800Y2328917D01*
X23408801Y1353200D01*
X23150001Y1353200D01*
X23110358Y1349295D01*
X23094216Y1346084D01*
X23072091Y1341683D01*
X22998854Y1311351D01*
X22985606Y1302500D01*
X22984423Y1301710D01*
X22984415Y1301704D01*
X22966399Y1289667D01*
X22910333Y1233601D01*
X22910332Y1233599D01*
X22898296Y1215585D01*
X22898290Y1215577D01*
X22888649Y1201146D01*
X22858317Y1127910D01*
X22850705Y1089644D01*
X22847314Y1055215D01*
X22846800Y1049999D01*
X22846800Y-1542178D01*
X22834884Y-1697100D01*
X22822693Y-1855587D01*
X22822432Y-1859471D01*
X22822211Y-1863303D01*
X22821912Y-1871077D01*
X22821849Y-1874346D01*
X22821846Y-1874460D01*
X22821834Y-1875072D01*
X22821803Y-1878495D01*
X22821800Y-1878846D01*
X22821800Y-4043027D01*
X22809620Y-4064124D01*
X22809619Y-4064126D01*
X22758053Y-4174709D01*
X22745941Y-4207989D01*
X22714358Y-4325860D01*
X22708208Y-4360733D01*
X22697573Y-4482291D01*
X22697573Y-4517709D01*
X22708208Y-4639267D01*
X22714358Y-4674140D01*
X22745941Y-4792011D01*
X22758053Y-4825291D01*
X22809617Y-4935870D01*
X22827332Y-4966555D01*
X22869880Y-5027319D01*
X22869889Y-5027331D01*
X22897326Y-5066514D01*
X22920088Y-5093638D01*
X22998076Y-5171626D01*
X23017540Y-5205337D01*
X23017540Y-5244263D01*
X22998076Y-5277974D01*
X22964365Y-5297438D01*
X22944902Y-5300000D01*
X17147074Y-5300000D01*
X17109474Y-5289925D01*
X17081949Y-5262400D01*
X17071874Y-5224800D01*
X17081949Y-5187200D01*
X17093900Y-5171626D01*
X18090817Y-4174709D01*
X18963125Y-3302400D01*
X21200001Y-3302400D01*
X21276200Y-3281982D01*
X21331982Y-3226200D01*
X21352400Y-3150001D01*
X21352400Y800001D01*
X21331982Y876200D01*
X21276200Y931982D01*
X21200001Y952400D01*
X18963125Y952400D01*
X18357763Y1557763D01*
X18254900Y1660626D01*
X18254900Y1721001D01*
X19070100Y1721001D01*
X19070100Y1665310D01*
X19077500Y1599627D01*
X19106706Y1516159D01*
X19153756Y1441282D01*
X19216282Y1378756D01*
X19291159Y1331706D01*
X19374627Y1302500D01*
X19440310Y1295100D01*
X19446000Y1295100D01*
X19446000Y1721000D01*
X19953999Y1721000D01*
X19953999Y1295100D01*
X19959690Y1295100D01*
X20025373Y1302500D01*
X20108841Y1331706D01*
X20183718Y1378756D01*
X20246244Y1441282D01*
X20293294Y1516159D01*
X20322500Y1599627D01*
X20329900Y1665310D01*
X20329900Y1721000D01*
X19953999Y1721000D01*
X19446000Y1721000D01*
X19446000Y1721001D01*
X19070100Y1721001D01*
X18254900Y1721001D01*
X18254900Y2100000D01*
X18238661Y2169045D01*
X18238661Y2169046D01*
X18204355Y2214472D01*
X18188980Y2223992D01*
X18155956Y2244440D01*
X18137078Y2247969D01*
X18100003Y2254900D01*
X15700000Y2254900D01*
X15700000Y2284690D01*
X19070100Y2284690D01*
X19070100Y2229000D01*
X19446001Y2229000D01*
X19446001Y2654900D01*
X19954000Y2654900D01*
X19954000Y2228999D01*
X20329900Y2228999D01*
X20329900Y2284690D01*
X20322500Y2350373D01*
X20293294Y2433841D01*
X20246244Y2508718D01*
X20183718Y2571244D01*
X20108841Y2618294D01*
X20025373Y2647500D01*
X19959690Y2654900D01*
X19954000Y2654900D01*
X19446001Y2654900D01*
X19440310Y2654900D01*
X19374627Y2647500D01*
X19291159Y2618294D01*
X19216282Y2571244D01*
X19153756Y2508718D01*
X19106706Y2433841D01*
X19077500Y2350373D01*
X19070100Y2284690D01*
X15700000Y2284690D01*
X15700000Y3200000D01*
X15536302Y3200000D01*
X15530186Y3202440D01*
X15519059Y3203531D01*
X15515166Y3204658D01*
X15515164Y3204658D01*
X15510090Y3204219D01*
X15494860Y3202900D01*
X6552400Y3202900D01*
X6552400Y3697100D01*
X6934083Y3697100D01*
X6936896Y3696304D01*
X7027389Y3670697D01*
X7121269Y3665120D01*
X7121271Y3665120D01*
X7188908Y3675833D01*
X7214157Y3679832D01*
X7301719Y3714147D01*
X7379870Y3766464D01*
X7386389Y3773262D01*
X7444962Y3834341D01*
X7465678Y3868280D01*
X7493962Y3914616D01*
X7516737Y3980762D01*
X7524580Y4003537D01*
X7529607Y4046990D01*
X7530474Y4054488D01*
X30766985Y4054488D01*
X30780772Y3990723D01*
X30786860Y3962563D01*
X30819565Y3891132D01*
X30826009Y3877057D01*
X30882607Y3801948D01*
X30882609Y3801946D01*
X30954013Y3740745D01*
X31003619Y3714147D01*
X31036896Y3696304D01*
X31127389Y3670697D01*
X31221269Y3665120D01*
X31221271Y3665120D01*
X31288908Y3675833D01*
X31314157Y3679832D01*
X31401719Y3714147D01*
X31479870Y3766464D01*
X31486389Y3773262D01*
X31544962Y3834341D01*
X31565678Y3868280D01*
X31593962Y3914616D01*
X31616737Y3980762D01*
X31624580Y4003537D01*
X31629607Y4046990D01*
X31635389Y4096960D01*
X31635389Y4097075D01*
X31635401Y4099998D01*
X31625243Y4193495D01*
X31625243Y4193496D01*
X31606667Y4248694D01*
X33546975Y4248694D01*
X33566653Y4145049D01*
X33605576Y4046989D01*
X33662338Y3958063D01*
X33734894Y3881471D01*
X33820625Y3819980D01*
X33916428Y3775814D01*
X33916432Y3775813D01*
X34018865Y3750558D01*
X34036135Y3749668D01*
X34124225Y3745128D01*
X34228711Y3759719D01*
X34328558Y3793808D01*
X34420152Y3846158D01*
X34500192Y3914882D01*
X34534478Y3958063D01*
X34565798Y3997507D01*
X34614594Y4091045D01*
X34635128Y4159707D01*
X34644822Y4192120D01*
X34650518Y4248694D01*
X40546975Y4248694D01*
X40566653Y4145049D01*
X40605576Y4046989D01*
X40662338Y3958063D01*
X40734894Y3881471D01*
X40820625Y3819980D01*
X40916428Y3775814D01*
X40916432Y3775813D01*
X41018865Y3750558D01*
X41036135Y3749668D01*
X41124225Y3745128D01*
X41228711Y3759719D01*
X41328558Y3793808D01*
X41420152Y3846158D01*
X41500192Y3914882D01*
X41534478Y3958063D01*
X41565798Y3997507D01*
X41614594Y4091045D01*
X41635128Y4159707D01*
X41644822Y4192120D01*
X41655392Y4297092D01*
X41655400Y4300003D01*
X41645381Y4405022D01*
X41615680Y4506260D01*
X41567376Y4600048D01*
X41502204Y4683017D01*
X41422522Y4752160D01*
X41418997Y4754199D01*
X41331202Y4804990D01*
X41231540Y4839598D01*
X41127131Y4854737D01*
X41030671Y4850272D01*
X41021741Y4849859D01*
X40979166Y4839598D01*
X40919179Y4825141D01*
X40919177Y4825140D01*
X40823141Y4781476D01*
X40781814Y4752160D01*
X40737090Y4720435D01*
X40664135Y4644225D01*
X40606907Y4555595D01*
X40606907Y4555594D01*
X40567472Y4457743D01*
X40547251Y4354199D01*
X40546975Y4248694D01*
X34650518Y4248694D01*
X34655392Y4297092D01*
X34655400Y4300003D01*
X34645381Y4405022D01*
X34615680Y4506260D01*
X34567376Y4600048D01*
X34502204Y4683017D01*
X34422522Y4752160D01*
X34418997Y4754199D01*
X34331202Y4804990D01*
X34231540Y4839598D01*
X34127131Y4854737D01*
X34030671Y4850272D01*
X34021741Y4849859D01*
X33979166Y4839598D01*
X33919179Y4825141D01*
X33919177Y4825140D01*
X33823141Y4781476D01*
X33781814Y4752160D01*
X33737090Y4720435D01*
X33664135Y4644225D01*
X33606907Y4555595D01*
X33606907Y4555594D01*
X33567472Y4457743D01*
X33547251Y4354199D01*
X33546975Y4248694D01*
X31606667Y4248694D01*
X31595246Y4282629D01*
X31581428Y4305627D01*
X31546810Y4363242D01*
X31482192Y4431573D01*
X31459508Y4446989D01*
X31404408Y4484435D01*
X31317088Y4519361D01*
X31254037Y4529799D01*
X31224306Y4534721D01*
X31224305Y4534721D01*
X31130388Y4529799D01*
X31102286Y4522059D01*
X31039719Y4504826D01*
X30985247Y4476106D01*
X30956527Y4460963D01*
X30890331Y4405022D01*
X30884694Y4400258D01*
X30846098Y4349777D01*
X30827574Y4325549D01*
X30787829Y4240314D01*
X30767313Y4148534D01*
X30766985Y4054488D01*
X7530474Y4054488D01*
X7535389Y4096960D01*
X7535389Y4097075D01*
X7535401Y4099998D01*
X7525243Y4193495D01*
X7525243Y4193496D01*
X7495246Y4282629D01*
X7481428Y4305627D01*
X7446810Y4363242D01*
X7382192Y4431573D01*
X7359508Y4446989D01*
X7304408Y4484435D01*
X7217088Y4519361D01*
X7154037Y4529799D01*
X7124306Y4534721D01*
X7124305Y4534721D01*
X7030388Y4529799D01*
X6974499Y4514405D01*
X6932729Y4502900D01*
X6552400Y4502900D01*
X6552400Y5100000D01*
X6546925Y5120435D01*
X6530308Y5182447D01*
X6517092Y5205337D01*
X6517092Y5244263D01*
X6536556Y5277974D01*
X6570267Y5297438D01*
X6589730Y5300000D01*
X61154242Y5300000D01*
X61191842Y5289925D01*
G37*
G04 #@! TD.AperFunction*
G04 #@! TA.AperFunction,Conductor*
G36*
X48167265Y-3265362D02*
G01*
X48166985Y-3345512D01*
X48186859Y-3437434D01*
X48224051Y-3518665D01*
X48259825Y-3596800D01*
X48059513Y-3596800D01*
X48021913Y-3586725D01*
X47994388Y-3559200D01*
X47984313Y-3521600D01*
X47994388Y-3484000D01*
X48012301Y-3463950D01*
X47686136Y-3137785D01*
X47576604Y-3247317D01*
X47762725Y-3433438D01*
X47800903Y-3459467D01*
X47826295Y-3488972D01*
X47833532Y-3527219D01*
X47820675Y-3563961D01*
X47791170Y-3589353D01*
X47758542Y-3596800D01*
X47347545Y-3596800D01*
X47309945Y-3586725D01*
X47282420Y-3559200D01*
X47272345Y-3521600D01*
X47280224Y-3493568D01*
X47278889Y-3493108D01*
X47282026Y-3484000D01*
X47299435Y-3433438D01*
X47312167Y-3396463D01*
X47313799Y-3382354D01*
X47322976Y-3303040D01*
X47322978Y-3302400D01*
X47322988Y-3300002D01*
X47314741Y-3224098D01*
X47312830Y-3206504D01*
X47301997Y-3174314D01*
X47299552Y-3135467D01*
X47316860Y-3100600D01*
X47349282Y-3079058D01*
X47388132Y-3076613D01*
X47391794Y-3078576D01*
X47686136Y-2784233D01*
X48167265Y-3265362D01*
G37*
G04 #@! TD.AperFunction*
G04 #@! TA.AperFunction,Conductor*
G36*
X44308081Y-2302797D02*
G01*
X44335606Y-2330322D01*
X44345681Y-2367922D01*
X44323656Y-2421096D01*
X44239691Y-2505062D01*
X44130387Y-2510791D01*
X44039719Y-2535764D01*
X44000029Y-2556691D01*
X43956527Y-2579627D01*
X43888923Y-2636758D01*
X43884694Y-2640332D01*
X43827682Y-2714900D01*
X43827574Y-2715041D01*
X43787829Y-2800276D01*
X43767313Y-2892056D01*
X43766985Y-2986102D01*
X43782098Y-3056000D01*
X43786860Y-3078027D01*
X43821834Y-3154414D01*
X43826009Y-3163533D01*
X43882607Y-3238642D01*
X43882609Y-3238644D01*
X43954013Y-3299845D01*
X44003619Y-3326443D01*
X44036896Y-3344286D01*
X44127389Y-3369893D01*
X44221269Y-3375470D01*
X44221271Y-3375470D01*
X44290562Y-3364495D01*
X44314157Y-3360758D01*
X44401719Y-3326443D01*
X44479870Y-3274126D01*
X44479872Y-3274124D01*
X44544962Y-3206249D01*
X44578637Y-3151080D01*
X44606826Y-3124236D01*
X44644661Y-3115082D01*
X44682004Y-3126073D01*
X44711198Y-3158955D01*
X44726192Y-3191703D01*
X44730717Y-3201586D01*
X44787315Y-3276695D01*
X44787317Y-3276697D01*
X44858721Y-3337898D01*
X44917011Y-3369152D01*
X44941604Y-3382339D01*
X45032097Y-3407946D01*
X45125977Y-3413523D01*
X45125979Y-3413523D01*
X45211345Y-3400002D01*
X45218865Y-3398811D01*
X45288420Y-3371553D01*
X45306430Y-3364495D01*
X45425447Y-3284820D01*
X45431582Y-3313195D01*
X45431582Y-3313196D01*
X45451456Y-3405118D01*
X45482042Y-3471921D01*
X45539217Y-3596800D01*
X38109767Y-3596800D01*
X38118226Y-3527135D01*
X38118227Y-3527133D01*
X38125700Y-3465589D01*
X38125700Y-3161358D01*
X38124950Y-3157265D01*
X38105898Y-3053299D01*
X38067449Y-2980042D01*
X38067448Y-2980040D01*
X38012584Y-2918111D01*
X37960912Y-2882444D01*
X37944495Y-2871112D01*
X37944494Y-2871112D01*
X37944493Y-2871111D01*
X37871738Y-2843520D01*
X37840155Y-2820767D01*
X37824179Y-2785270D01*
X37828091Y-2746540D01*
X37850844Y-2714956D01*
X37869624Y-2703732D01*
X37931200Y-2678226D01*
X37991758Y-2631758D01*
X38013291Y-2603696D01*
X38038639Y-2570663D01*
X38061040Y-2565408D01*
X38085943Y-2561997D01*
X38098205Y-2556691D01*
X38111203Y-2553642D01*
X38133220Y-2541539D01*
X38156291Y-2531555D01*
X38156293Y-2531554D01*
X38166670Y-2523152D01*
X38178372Y-2516717D01*
X38178374Y-2516716D01*
X38183842Y-2511995D01*
X38183847Y-2511991D01*
X38194155Y-2501682D01*
X38198302Y-2497535D01*
X38215861Y-2483316D01*
X38224064Y-2471773D01*
X38403116Y-2292722D01*
X44270481Y-2292722D01*
X44308081Y-2302797D01*
G37*
G04 #@! TD.AperFunction*
G04 #@! TA.AperFunction,Conductor*
G36*
X49179909Y3195153D02*
G01*
X49179911Y3195151D01*
X49208999Y3170220D01*
X49251319Y3133947D01*
X49300923Y3107350D01*
X49334200Y3089507D01*
X49424693Y3063900D01*
X49518573Y3058323D01*
X49518575Y3058323D01*
X49582689Y3068478D01*
X49611461Y3073035D01*
X49654054Y3089727D01*
X49698902Y3107302D01*
X49737586Y3111640D01*
X49773256Y3096056D01*
X49796356Y3064724D01*
X49800694Y3026040D01*
X49794494Y3005505D01*
X49787829Y2991213D01*
X49780333Y2957677D01*
X49767313Y2899431D01*
X49766985Y2805385D01*
X49784246Y2725552D01*
X49786860Y2713460D01*
X49813339Y2655624D01*
X49306310Y2148594D01*
X49249180Y2225958D01*
X48389778Y1366554D01*
X48213001Y1543331D01*
X48570020Y1900349D01*
X48433972Y2036396D01*
X48433973Y2036397D01*
X48216466Y2253903D01*
X48216467Y2253904D01*
X48570019Y2253904D01*
X48706067Y2117856D01*
X48706065Y2117855D01*
X48746796Y2077124D01*
X49070705Y2401033D01*
X49055705Y2411259D01*
X48992385Y2428225D01*
X48922039Y2425595D01*
X48918669Y2515755D01*
X48897019Y2577626D01*
X48895627Y2579512D01*
X48570019Y2253904D01*
X48216467Y2253904D01*
X48717152Y2754587D01*
X48637179Y2809108D01*
X49041374Y3213303D01*
X49158734Y3213303D01*
X49179909Y3195153D01*
G37*
G04 #@! TD.AperFunction*
G04 #@! TD*
G04 #@! TA.AperFunction,Conductor*
G04 #@! TO.N,IN*
G36*
X24438266Y1142388D02*
G01*
X24470711Y1120711D01*
X24492388Y1088266D01*
X24500000Y1049999D01*
X24500000Y-1449999D01*
X24492388Y-1488266D01*
X24470711Y-1520711D01*
X24438266Y-1542388D01*
X24399999Y-1550000D01*
X24275000Y-1550000D01*
X24275000Y-3800000D01*
X31727452Y-3800000D01*
X31783816Y-3835494D01*
X31783818Y-3835495D01*
X31875802Y-3870070D01*
X31972860Y-3885442D01*
X32071031Y-3880983D01*
X32166286Y-3856881D01*
X32254762Y-3814110D01*
X32273218Y-3800000D01*
X64600000Y-3800000D01*
X66794975Y-1605025D01*
X66878500Y-1533688D01*
X66972156Y-1476295D01*
X67073638Y-1434260D01*
X67180445Y-1408618D01*
X67289955Y-1400000D01*
X67700000Y-1400000D01*
X67821552Y-1410635D01*
X67939414Y-1442215D01*
X68050001Y-1493783D01*
X68149951Y-1563769D01*
X68236230Y-1650048D01*
X68306217Y-1749999D01*
X68357785Y-1860586D01*
X68389365Y-1978446D01*
X68400000Y-2100000D01*
X68400000Y-2510051D01*
X68391382Y-2619555D01*
X68365740Y-2726362D01*
X68323705Y-2827844D01*
X68266312Y-2921500D01*
X68194975Y-3005025D01*
X66205025Y-4994975D01*
X66121500Y-5066312D01*
X66027844Y-5123705D01*
X65926362Y-5165740D01*
X65926358Y-5165741D01*
X65819555Y-5191382D01*
X65710051Y-5200000D01*
X23600002Y-5200000D01*
X23478447Y-5189365D01*
X23360585Y-5157785D01*
X23250000Y-5106218D01*
X23150047Y-5036229D01*
X23063771Y-4949953D01*
X22993782Y-4850000D01*
X22942215Y-4739414D01*
X22910635Y-4621554D01*
X22900000Y-4500000D01*
X22910635Y-4378446D01*
X22942215Y-4260586D01*
X22993782Y-4150000D01*
X23025000Y-4105417D01*
X23025000Y-1878846D01*
X23025008Y-1878418D01*
X23025074Y-1875003D01*
X23025295Y-1871171D01*
X23050000Y-1550000D01*
X23050000Y1050000D01*
X23057612Y1088266D01*
X23079289Y1120711D01*
X23111734Y1142388D01*
X23150001Y1150000D01*
X24399999Y1150000D01*
X24438266Y1142388D01*
G37*
G04 #@! TD.AperFunction*
G04 #@! TD*
G04 #@! TA.AperFunction,Conductor*
G04 #@! TO.N,/HEATER*
G36*
X18250000Y1450000D02*
G01*
X18899999Y800000D01*
X21200000Y800000D01*
X21200000Y-3150000D01*
X18899999Y-3150000D01*
X17825000Y-4225000D01*
X16750000Y-5300000D01*
X11200000Y-5300000D01*
X11200000Y-3202900D01*
X15478762Y-3202900D01*
X15484834Y-3204658D01*
X15484836Y-3204658D01*
X15489911Y-3204218D01*
X15505140Y-3202900D01*
X15513425Y-3202900D01*
X15520626Y-3201559D01*
X15538623Y-3200000D01*
X15700000Y-3200000D01*
X15700000Y2100000D01*
X17600000Y2100000D01*
X18250000Y1450000D01*
G37*
G04 #@! TD.AperFunction*
G04 #@! TD*
G04 #@! TA.AperFunction,Conductor*
G04 #@! TO.N,/TIP_TC*
G36*
X6400000Y3202900D02*
G01*
X1000000Y3202900D01*
X1000000Y5100000D01*
X6400000Y5100000D01*
X6400000Y3202900D01*
G37*
G04 #@! TD.AperFunction*
G04 #@! TD*
M02*
