G04 #@! TF.GenerationSoftware,KiCad,Pcbnew,(5.99.0-3540-g0818bd05d)*
G04 #@! TF.CreationDate,2020-09-30T20:14:19-07:00*
G04 #@! TF.ProjectId,RT_USB_PD_Soldering_Iron,52545f55-5342-45f5-9044-5f536f6c6465,rev?*
G04 #@! TF.SameCoordinates,PX5f5e100PY7735940*
G04 #@! TF.FileFunction,Paste,Top*
G04 #@! TF.FilePolarity,Positive*
%FSLAX46Y46*%
G04 Gerber Fmt 4.6, Leading zero omitted, Abs format (unit mm)*
G04 Created by KiCad (PCBNEW (5.99.0-3540-g0818bd05d)) date 2020-09-30 20:14:19*
%MOMM*%
%LPD*%
G01*
G04 APERTURE LIST*
%ADD10R,3.000000X0.320000*%
%ADD11R,1.150000X0.600000*%
%ADD12R,1.150000X0.300000*%
%ADD13R,0.650000X0.550000*%
%ADD14R,0.630000X0.820000*%
%ADD15R,0.350000X0.650000*%
%ADD16R,0.203200X0.750000*%
%ADD17R,0.640000X0.203200*%
%ADD18R,0.203200X0.650000*%
%ADD19R,0.603200X1.060000*%
%ADD20R,2.100000X1.400000*%
%ADD21R,0.700000X0.600000*%
%ADD22R,0.250000X0.675000*%
%ADD23R,0.675000X0.250000*%
G04 APERTURE END LIST*
G04 #@! TO.C,R10*
G36*
G01*
X27819958Y-84824D02*
X27819958Y285176D01*
G75*
G02*
X27954958Y420176I135000J0D01*
G01*
X28224958Y420176D01*
G75*
G02*
X28359958Y285176I0J-135000D01*
G01*
X28359958Y-84824D01*
G75*
G02*
X28224958Y-219824I-135000J0D01*
G01*
X27954958Y-219824D01*
G75*
G02*
X27819958Y-84824I0J135000D01*
G01*
G37*
G36*
G01*
X28839958Y-84824D02*
X28839958Y285176D01*
G75*
G02*
X28974958Y420176I135000J0D01*
G01*
X29244958Y420176D01*
G75*
G02*
X29379958Y285176I0J-135000D01*
G01*
X29379958Y-84824D01*
G75*
G02*
X29244958Y-219824I-135000J0D01*
G01*
X28974958Y-219824D01*
G75*
G02*
X28839958Y-84824I0J135000D01*
G01*
G37*
G04 #@! TD*
G04 #@! TO.C,C21*
G36*
G01*
X40320654Y-1372289D02*
X40080238Y-1131873D01*
G75*
G02*
X40080238Y-933883I98995J98995D01*
G01*
X40278228Y-735893D01*
G75*
G02*
X40476218Y-735893I98995J-98995D01*
G01*
X40716634Y-976309D01*
G75*
G02*
X40716634Y-1174299I-98995J-98995D01*
G01*
X40518644Y-1372289D01*
G75*
G02*
X40320654Y-1372289I-98995J98995D01*
G01*
G37*
G36*
G01*
X40999476Y-693467D02*
X40759060Y-453051D01*
G75*
G02*
X40759060Y-255061I98995J98995D01*
G01*
X40957050Y-57071D01*
G75*
G02*
X41155040Y-57071I98995J-98995D01*
G01*
X41395456Y-297487D01*
G75*
G02*
X41395456Y-495477I-98995J-98995D01*
G01*
X41197466Y-693467D01*
G75*
G02*
X40999476Y-693467I-98995J98995D01*
G01*
G37*
G04 #@! TD*
D10*
G04 #@! TO.C,OLED1*
X59381277Y-4030000D03*
X59381277Y-3410000D03*
X59381277Y-2790000D03*
X59381277Y-2170000D03*
X59381277Y-1550000D03*
X59381277Y-930000D03*
X59381277Y-310000D03*
X59381277Y310000D03*
X59381277Y930000D03*
X59381277Y1550000D03*
X59381277Y2170000D03*
X59381277Y2790000D03*
X59381277Y3410000D03*
X59381277Y4030000D03*
G04 #@! TD*
D11*
G04 #@! TO.C,J1*
X83125000Y-3200000D03*
X83125000Y-2400000D03*
D12*
X83125000Y-1250000D03*
X83125000Y-250000D03*
X83125000Y250000D03*
X83125000Y1250000D03*
D11*
X83125000Y2400000D03*
X83125000Y3200000D03*
X83125000Y3200000D03*
X83125000Y2400000D03*
D12*
X83125000Y1750000D03*
X83125000Y750000D03*
X83125000Y-750000D03*
X83125000Y-1750000D03*
D11*
X83125000Y-2400000D03*
X83125000Y-3200000D03*
G04 #@! TD*
D13*
G04 #@! TO.C,SW1*
X71575000Y4325000D03*
X68425000Y4325000D03*
X68425000Y2675000D03*
X71575000Y2675000D03*
G04 #@! TD*
G04 #@! TO.C,R17*
G36*
G01*
X32080000Y-2915000D02*
X32080000Y-3285000D01*
G75*
G02*
X31945000Y-3420000I-135000J0D01*
G01*
X31675000Y-3420000D01*
G75*
G02*
X31540000Y-3285000I0J135000D01*
G01*
X31540000Y-2915000D01*
G75*
G02*
X31675000Y-2780000I135000J0D01*
G01*
X31945000Y-2780000D01*
G75*
G02*
X32080000Y-2915000I0J-135000D01*
G01*
G37*
G36*
G01*
X31060000Y-2915000D02*
X31060000Y-3285000D01*
G75*
G02*
X30925000Y-3420000I-135000J0D01*
G01*
X30655000Y-3420000D01*
G75*
G02*
X30520000Y-3285000I0J135000D01*
G01*
X30520000Y-2915000D01*
G75*
G02*
X30655000Y-2780000I135000J0D01*
G01*
X30925000Y-2780000D01*
G75*
G02*
X31060000Y-2915000I0J-135000D01*
G01*
G37*
G04 #@! TD*
G04 #@! TO.C,C12*
G36*
G01*
X46330000Y3861441D02*
X46670000Y3861441D01*
G75*
G02*
X46810000Y3721441I0J-140000D01*
G01*
X46810000Y3441441D01*
G75*
G02*
X46670000Y3301441I-140000J0D01*
G01*
X46330000Y3301441D01*
G75*
G02*
X46190000Y3441441I0J140000D01*
G01*
X46190000Y3721441D01*
G75*
G02*
X46330000Y3861441I140000J0D01*
G01*
G37*
G36*
G01*
X46330000Y2901441D02*
X46670000Y2901441D01*
G75*
G02*
X46810000Y2761441I0J-140000D01*
G01*
X46810000Y2481441D01*
G75*
G02*
X46670000Y2341441I-140000J0D01*
G01*
X46330000Y2341441D01*
G75*
G02*
X46190000Y2481441I0J140000D01*
G01*
X46190000Y2761441D01*
G75*
G02*
X46330000Y2901441I140000J0D01*
G01*
G37*
G04 #@! TD*
G04 #@! TO.C,C5*
G36*
G01*
X34879207Y-2524671D02*
X34539207Y-2524671D01*
G75*
G02*
X34399207Y-2384671I0J140000D01*
G01*
X34399207Y-2104671D01*
G75*
G02*
X34539207Y-1964671I140000J0D01*
G01*
X34879207Y-1964671D01*
G75*
G02*
X35019207Y-2104671I0J-140000D01*
G01*
X35019207Y-2384671D01*
G75*
G02*
X34879207Y-2524671I-140000J0D01*
G01*
G37*
G36*
G01*
X34879207Y-1564671D02*
X34539207Y-1564671D01*
G75*
G02*
X34399207Y-1424671I0J140000D01*
G01*
X34399207Y-1144671D01*
G75*
G02*
X34539207Y-1004671I140000J0D01*
G01*
X34879207Y-1004671D01*
G75*
G02*
X35019207Y-1144671I0J-140000D01*
G01*
X35019207Y-1424671D01*
G75*
G02*
X34879207Y-1564671I-140000J0D01*
G01*
G37*
G04 #@! TD*
G04 #@! TO.C,C20*
G36*
G01*
X55240000Y-2670000D02*
X55240000Y-2330000D01*
G75*
G02*
X55380000Y-2190000I140000J0D01*
G01*
X55660000Y-2190000D01*
G75*
G02*
X55800000Y-2330000I0J-140000D01*
G01*
X55800000Y-2670000D01*
G75*
G02*
X55660000Y-2810000I-140000J0D01*
G01*
X55380000Y-2810000D01*
G75*
G02*
X55240000Y-2670000I0J140000D01*
G01*
G37*
G36*
G01*
X56200000Y-2670000D02*
X56200000Y-2330000D01*
G75*
G02*
X56340000Y-2190000I140000J0D01*
G01*
X56620000Y-2190000D01*
G75*
G02*
X56760000Y-2330000I0J-140000D01*
G01*
X56760000Y-2670000D01*
G75*
G02*
X56620000Y-2810000I-140000J0D01*
G01*
X56340000Y-2810000D01*
G75*
G02*
X56200000Y-2670000I0J140000D01*
G01*
G37*
G04 #@! TD*
G04 #@! TO.C,C24*
G36*
G01*
X25660000Y3470000D02*
X25660000Y3130000D01*
G75*
G02*
X25520000Y2990000I-140000J0D01*
G01*
X25240000Y2990000D01*
G75*
G02*
X25100000Y3130000I0J140000D01*
G01*
X25100000Y3470000D01*
G75*
G02*
X25240000Y3610000I140000J0D01*
G01*
X25520000Y3610000D01*
G75*
G02*
X25660000Y3470000I0J-140000D01*
G01*
G37*
G36*
G01*
X24700000Y3470000D02*
X24700000Y3130000D01*
G75*
G02*
X24560000Y2990000I-140000J0D01*
G01*
X24280000Y2990000D01*
G75*
G02*
X24140000Y3130000I0J140000D01*
G01*
X24140000Y3470000D01*
G75*
G02*
X24280000Y3610000I140000J0D01*
G01*
X24560000Y3610000D01*
G75*
G02*
X24700000Y3470000I0J-140000D01*
G01*
G37*
G04 #@! TD*
D14*
G04 #@! TO.C,U8*
X42800000Y2600000D03*
X42000000Y2600000D03*
D15*
X43050000Y3650000D03*
X42400000Y3650000D03*
X41750000Y3650000D03*
X41750000Y1550000D03*
X42400000Y1550000D03*
X43050000Y1550000D03*
G04 #@! TD*
G04 #@! TO.C,R12*
G36*
G01*
X27819970Y-1484648D02*
X27819970Y-1114648D01*
G75*
G02*
X27954970Y-979648I135000J0D01*
G01*
X28224970Y-979648D01*
G75*
G02*
X28359970Y-1114648I0J-135000D01*
G01*
X28359970Y-1484648D01*
G75*
G02*
X28224970Y-1619648I-135000J0D01*
G01*
X27954970Y-1619648D01*
G75*
G02*
X27819970Y-1484648I0J135000D01*
G01*
G37*
G36*
G01*
X28839970Y-1484648D02*
X28839970Y-1114648D01*
G75*
G02*
X28974970Y-979648I135000J0D01*
G01*
X29244970Y-979648D01*
G75*
G02*
X29379970Y-1114648I0J-135000D01*
G01*
X29379970Y-1484648D01*
G75*
G02*
X29244970Y-1619648I-135000J0D01*
G01*
X28974970Y-1619648D01*
G75*
G02*
X28839970Y-1484648I0J135000D01*
G01*
G37*
G04 #@! TD*
D16*
G04 #@! TO.C,U4*
X66758658Y-761425D03*
D17*
X67358658Y-706425D03*
X67358658Y-306425D03*
X67358658Y93575D03*
X67358658Y493575D03*
X67358658Y893575D03*
X65758658Y893575D03*
X65758658Y493575D03*
X65758658Y93575D03*
X65758658Y-306425D03*
X65758658Y-706425D03*
D18*
X66358658Y-811425D03*
D19*
X66558658Y488575D03*
G04 #@! TD*
D13*
G04 #@! TO.C,SW2*
X71575000Y-2675000D03*
X68425000Y-2675000D03*
X71575000Y-4325000D03*
X68425000Y-4325000D03*
G04 #@! TD*
G04 #@! TO.C,C26*
G36*
G01*
X54441208Y2930000D02*
X54441208Y3270000D01*
G75*
G02*
X54581208Y3410000I140000J0D01*
G01*
X54861208Y3410000D01*
G75*
G02*
X55001208Y3270000I0J-140000D01*
G01*
X55001208Y2930000D01*
G75*
G02*
X54861208Y2790000I-140000J0D01*
G01*
X54581208Y2790000D01*
G75*
G02*
X54441208Y2930000I0J140000D01*
G01*
G37*
G36*
G01*
X55401208Y2930000D02*
X55401208Y3270000D01*
G75*
G02*
X55541208Y3410000I140000J0D01*
G01*
X55821208Y3410000D01*
G75*
G02*
X55961208Y3270000I0J-140000D01*
G01*
X55961208Y2930000D01*
G75*
G02*
X55821208Y2790000I-140000J0D01*
G01*
X55541208Y2790000D01*
G75*
G02*
X55401208Y2930000I0J140000D01*
G01*
G37*
G04 #@! TD*
D20*
G04 #@! TO.C,D3*
X19700000Y-2200000D03*
X19700000Y2200000D03*
G04 #@! TD*
G04 #@! TO.C,C18*
G36*
G01*
X54448664Y760000D02*
X54788664Y760000D01*
G75*
G02*
X54928664Y620000I0J-140000D01*
G01*
X54928664Y340000D01*
G75*
G02*
X54788664Y200000I-140000J0D01*
G01*
X54448664Y200000D01*
G75*
G02*
X54308664Y340000I0J140000D01*
G01*
X54308664Y620000D01*
G75*
G02*
X54448664Y760000I140000J0D01*
G01*
G37*
G36*
G01*
X54448664Y-200000D02*
X54788664Y-200000D01*
G75*
G02*
X54928664Y-340000I0J-140000D01*
G01*
X54928664Y-620000D01*
G75*
G02*
X54788664Y-760000I-140000J0D01*
G01*
X54448664Y-760000D01*
G75*
G02*
X54308664Y-620000I0J140000D01*
G01*
X54308664Y-340000D01*
G75*
G02*
X54448664Y-200000I140000J0D01*
G01*
G37*
G04 #@! TD*
G04 #@! TO.C,U6*
G36*
G01*
X25457500Y370000D02*
X25192500Y370000D01*
G75*
G02*
X25060000Y502500I0J132500D01*
G01*
X25060000Y897500D01*
G75*
G02*
X25192500Y1030000I132500J0D01*
G01*
X25457500Y1030000D01*
G75*
G02*
X25590000Y897500I0J-132500D01*
G01*
X25590000Y502500D01*
G75*
G02*
X25457500Y370000I-132500J0D01*
G01*
G37*
G36*
G01*
X23537500Y-1430000D02*
X23262500Y-1430000D01*
G75*
G02*
X23125000Y-1292500I0J137500D01*
G01*
X23125000Y-907500D01*
G75*
G02*
X23262500Y-770000I137500J0D01*
G01*
X23537500Y-770000D01*
G75*
G02*
X23675000Y-907500I0J-137500D01*
G01*
X23675000Y-1292500D01*
G75*
G02*
X23537500Y-1430000I-137500J0D01*
G01*
G37*
G36*
G01*
X24232500Y370000D02*
X23967500Y370000D01*
G75*
G02*
X23835000Y502500I0J132500D01*
G01*
X23835000Y897500D01*
G75*
G02*
X23967500Y1030000I132500J0D01*
G01*
X24232500Y1030000D01*
G75*
G02*
X24365000Y897500I0J-132500D01*
G01*
X24365000Y502500D01*
G75*
G02*
X24232500Y370000I-132500J0D01*
G01*
G37*
G36*
G01*
X24232500Y-550000D02*
X23967500Y-550000D01*
G75*
G02*
X23835000Y-417500I0J132500D01*
G01*
X23835000Y-22500D01*
G75*
G02*
X23967500Y110000I132500J0D01*
G01*
X24232500Y110000D01*
G75*
G02*
X24365000Y-22500I0J-132500D01*
G01*
X24365000Y-417500D01*
G75*
G02*
X24232500Y-550000I-132500J0D01*
G01*
G37*
G36*
G01*
X25457500Y-530000D02*
X25192500Y-530000D01*
G75*
G02*
X25060000Y-397500I0J132500D01*
G01*
X25060000Y-2500D01*
G75*
G02*
X25192500Y130000I132500J0D01*
G01*
X25457500Y130000D01*
G75*
G02*
X25590000Y-2500I0J-132500D01*
G01*
X25590000Y-397500D01*
G75*
G02*
X25457500Y-530000I-132500J0D01*
G01*
G37*
G36*
G01*
X23532500Y-550000D02*
X23267500Y-550000D01*
G75*
G02*
X23135000Y-417500I0J132500D01*
G01*
X23135000Y-22500D01*
G75*
G02*
X23267500Y110000I132500J0D01*
G01*
X23532500Y110000D01*
G75*
G02*
X23665000Y-22500I0J-132500D01*
G01*
X23665000Y-417500D01*
G75*
G02*
X23532500Y-550000I-132500J0D01*
G01*
G37*
G36*
G01*
X24232500Y-1430000D02*
X23967500Y-1430000D01*
G75*
G02*
X23835000Y-1297500I0J132500D01*
G01*
X23835000Y-902500D01*
G75*
G02*
X23967500Y-770000I132500J0D01*
G01*
X24232500Y-770000D01*
G75*
G02*
X24365000Y-902500I0J-132500D01*
G01*
X24365000Y-1297500D01*
G75*
G02*
X24232500Y-1430000I-132500J0D01*
G01*
G37*
G36*
G01*
X25457500Y-1430000D02*
X25192500Y-1430000D01*
G75*
G02*
X25060000Y-1297500I0J132500D01*
G01*
X25060000Y-902500D01*
G75*
G02*
X25192500Y-770000I132500J0D01*
G01*
X25457500Y-770000D01*
G75*
G02*
X25590000Y-902500I0J-132500D01*
G01*
X25590000Y-1297500D01*
G75*
G02*
X25457500Y-1430000I-132500J0D01*
G01*
G37*
G36*
G01*
X23532500Y370000D02*
X23267500Y370000D01*
G75*
G02*
X23135000Y502500I0J132500D01*
G01*
X23135000Y897500D01*
G75*
G02*
X23267500Y1030000I132500J0D01*
G01*
X23532500Y1030000D01*
G75*
G02*
X23665000Y897500I0J-132500D01*
G01*
X23665000Y502500D01*
G75*
G02*
X23532500Y370000I-132500J0D01*
G01*
G37*
G36*
G01*
X23212500Y-2412500D02*
X23087500Y-2412500D01*
G75*
G02*
X23025000Y-2350000I0J62500D01*
G01*
X23025000Y-1900000D01*
G75*
G02*
X23087500Y-1837500I62500J0D01*
G01*
X23212500Y-1837500D01*
G75*
G02*
X23275000Y-1900000I0J-62500D01*
G01*
X23275000Y-2350000D01*
G75*
G02*
X23212500Y-2412500I-62500J0D01*
G01*
G37*
G36*
G01*
X23712500Y-2412500D02*
X23587500Y-2412500D01*
G75*
G02*
X23525000Y-2350000I0J62500D01*
G01*
X23525000Y-1900000D01*
G75*
G02*
X23587500Y-1837500I62500J0D01*
G01*
X23712500Y-1837500D01*
G75*
G02*
X23775000Y-1900000I0J-62500D01*
G01*
X23775000Y-2350000D01*
G75*
G02*
X23712500Y-2412500I-62500J0D01*
G01*
G37*
G36*
G01*
X24212500Y-2412500D02*
X24087500Y-2412500D01*
G75*
G02*
X24025000Y-2350000I0J62500D01*
G01*
X24025000Y-1900000D01*
G75*
G02*
X24087500Y-1837500I62500J0D01*
G01*
X24212500Y-1837500D01*
G75*
G02*
X24275000Y-1900000I0J-62500D01*
G01*
X24275000Y-2350000D01*
G75*
G02*
X24212500Y-2412500I-62500J0D01*
G01*
G37*
G36*
G01*
X24712500Y-2412500D02*
X24587500Y-2412500D01*
G75*
G02*
X24525000Y-2350000I0J62500D01*
G01*
X24525000Y-1900000D01*
G75*
G02*
X24587500Y-1837500I62500J0D01*
G01*
X24712500Y-1837500D01*
G75*
G02*
X24775000Y-1900000I0J-62500D01*
G01*
X24775000Y-2350000D01*
G75*
G02*
X24712500Y-2412500I-62500J0D01*
G01*
G37*
G36*
G01*
X25212500Y-2412500D02*
X25087500Y-2412500D01*
G75*
G02*
X25025000Y-2350000I0J62500D01*
G01*
X25025000Y-1900000D01*
G75*
G02*
X25087500Y-1837500I62500J0D01*
G01*
X25212500Y-1837500D01*
G75*
G02*
X25275000Y-1900000I0J-62500D01*
G01*
X25275000Y-2350000D01*
G75*
G02*
X25212500Y-2412500I-62500J0D01*
G01*
G37*
G36*
G01*
X25712500Y-2412500D02*
X25587500Y-2412500D01*
G75*
G02*
X25525000Y-2350000I0J62500D01*
G01*
X25525000Y-1900000D01*
G75*
G02*
X25587500Y-1837500I62500J0D01*
G01*
X25712500Y-1837500D01*
G75*
G02*
X25775000Y-1900000I0J-62500D01*
G01*
X25775000Y-2350000D01*
G75*
G02*
X25712500Y-2412500I-62500J0D01*
G01*
G37*
G36*
G01*
X26550000Y-1575000D02*
X26100000Y-1575000D01*
G75*
G02*
X26037500Y-1512500I0J62500D01*
G01*
X26037500Y-1387500D01*
G75*
G02*
X26100000Y-1325000I62500J0D01*
G01*
X26550000Y-1325000D01*
G75*
G02*
X26612500Y-1387500I0J-62500D01*
G01*
X26612500Y-1512500D01*
G75*
G02*
X26550000Y-1575000I-62500J0D01*
G01*
G37*
G36*
G01*
X26550000Y-1075000D02*
X26100000Y-1075000D01*
G75*
G02*
X26037500Y-1012500I0J62500D01*
G01*
X26037500Y-887500D01*
G75*
G02*
X26100000Y-825000I62500J0D01*
G01*
X26550000Y-825000D01*
G75*
G02*
X26612500Y-887500I0J-62500D01*
G01*
X26612500Y-1012500D01*
G75*
G02*
X26550000Y-1075000I-62500J0D01*
G01*
G37*
G36*
G01*
X26550000Y-575000D02*
X26100000Y-575000D01*
G75*
G02*
X26037500Y-512500I0J62500D01*
G01*
X26037500Y-387500D01*
G75*
G02*
X26100000Y-325000I62500J0D01*
G01*
X26550000Y-325000D01*
G75*
G02*
X26612500Y-387500I0J-62500D01*
G01*
X26612500Y-512500D01*
G75*
G02*
X26550000Y-575000I-62500J0D01*
G01*
G37*
G36*
G01*
X26550000Y-75000D02*
X26100000Y-75000D01*
G75*
G02*
X26037500Y-12500I0J62500D01*
G01*
X26037500Y112500D01*
G75*
G02*
X26100000Y175000I62500J0D01*
G01*
X26550000Y175000D01*
G75*
G02*
X26612500Y112500I0J-62500D01*
G01*
X26612500Y-12500D01*
G75*
G02*
X26550000Y-75000I-62500J0D01*
G01*
G37*
G36*
G01*
X26550000Y425000D02*
X26100000Y425000D01*
G75*
G02*
X26037500Y487500I0J62500D01*
G01*
X26037500Y612500D01*
G75*
G02*
X26100000Y675000I62500J0D01*
G01*
X26550000Y675000D01*
G75*
G02*
X26612500Y612500I0J-62500D01*
G01*
X26612500Y487500D01*
G75*
G02*
X26550000Y425000I-62500J0D01*
G01*
G37*
G36*
G01*
X26550000Y925000D02*
X26100000Y925000D01*
G75*
G02*
X26037500Y987500I0J62500D01*
G01*
X26037500Y1112500D01*
G75*
G02*
X26100000Y1175000I62500J0D01*
G01*
X26550000Y1175000D01*
G75*
G02*
X26612500Y1112500I0J-62500D01*
G01*
X26612500Y987500D01*
G75*
G02*
X26550000Y925000I-62500J0D01*
G01*
G37*
G36*
G01*
X25712500Y1437500D02*
X25587500Y1437500D01*
G75*
G02*
X25525000Y1500000I0J62500D01*
G01*
X25525000Y1950000D01*
G75*
G02*
X25587500Y2012500I62500J0D01*
G01*
X25712500Y2012500D01*
G75*
G02*
X25775000Y1950000I0J-62500D01*
G01*
X25775000Y1500000D01*
G75*
G02*
X25712500Y1437500I-62500J0D01*
G01*
G37*
G36*
G01*
X25212500Y1437500D02*
X25087500Y1437500D01*
G75*
G02*
X25025000Y1500000I0J62500D01*
G01*
X25025000Y1950000D01*
G75*
G02*
X25087500Y2012500I62500J0D01*
G01*
X25212500Y2012500D01*
G75*
G02*
X25275000Y1950000I0J-62500D01*
G01*
X25275000Y1500000D01*
G75*
G02*
X25212500Y1437500I-62500J0D01*
G01*
G37*
G36*
G01*
X24712500Y1437500D02*
X24587500Y1437500D01*
G75*
G02*
X24525000Y1500000I0J62500D01*
G01*
X24525000Y1950000D01*
G75*
G02*
X24587500Y2012500I62500J0D01*
G01*
X24712500Y2012500D01*
G75*
G02*
X24775000Y1950000I0J-62500D01*
G01*
X24775000Y1500000D01*
G75*
G02*
X24712500Y1437500I-62500J0D01*
G01*
G37*
G36*
G01*
X24212500Y1437500D02*
X24087500Y1437500D01*
G75*
G02*
X24025000Y1500000I0J62500D01*
G01*
X24025000Y1950000D01*
G75*
G02*
X24087500Y2012500I62500J0D01*
G01*
X24212500Y2012500D01*
G75*
G02*
X24275000Y1950000I0J-62500D01*
G01*
X24275000Y1500000D01*
G75*
G02*
X24212500Y1437500I-62500J0D01*
G01*
G37*
G36*
G01*
X23712500Y1437500D02*
X23587500Y1437500D01*
G75*
G02*
X23525000Y1500000I0J62500D01*
G01*
X23525000Y1950000D01*
G75*
G02*
X23587500Y2012500I62500J0D01*
G01*
X23712500Y2012500D01*
G75*
G02*
X23775000Y1950000I0J-62500D01*
G01*
X23775000Y1500000D01*
G75*
G02*
X23712500Y1437500I-62500J0D01*
G01*
G37*
G36*
G01*
X23212500Y1437500D02*
X23087500Y1437500D01*
G75*
G02*
X23025000Y1500000I0J62500D01*
G01*
X23025000Y1950000D01*
G75*
G02*
X23087500Y2012500I62500J0D01*
G01*
X23212500Y2012500D01*
G75*
G02*
X23275000Y1950000I0J-62500D01*
G01*
X23275000Y1500000D01*
G75*
G02*
X23212500Y1437500I-62500J0D01*
G01*
G37*
G36*
G01*
X22700000Y925000D02*
X22250000Y925000D01*
G75*
G02*
X22187500Y987500I0J62500D01*
G01*
X22187500Y1112500D01*
G75*
G02*
X22250000Y1175000I62500J0D01*
G01*
X22700000Y1175000D01*
G75*
G02*
X22762500Y1112500I0J-62500D01*
G01*
X22762500Y987500D01*
G75*
G02*
X22700000Y925000I-62500J0D01*
G01*
G37*
G36*
G01*
X22700000Y425000D02*
X22250000Y425000D01*
G75*
G02*
X22187500Y487500I0J62500D01*
G01*
X22187500Y612500D01*
G75*
G02*
X22250000Y675000I62500J0D01*
G01*
X22700000Y675000D01*
G75*
G02*
X22762500Y612500I0J-62500D01*
G01*
X22762500Y487500D01*
G75*
G02*
X22700000Y425000I-62500J0D01*
G01*
G37*
G36*
G01*
X22700000Y-75000D02*
X22250000Y-75000D01*
G75*
G02*
X22187500Y-12500I0J62500D01*
G01*
X22187500Y112500D01*
G75*
G02*
X22250000Y175000I62500J0D01*
G01*
X22700000Y175000D01*
G75*
G02*
X22762500Y112500I0J-62500D01*
G01*
X22762500Y-12500D01*
G75*
G02*
X22700000Y-75000I-62500J0D01*
G01*
G37*
G36*
G01*
X22700000Y-575000D02*
X22250000Y-575000D01*
G75*
G02*
X22187500Y-512500I0J62500D01*
G01*
X22187500Y-387500D01*
G75*
G02*
X22250000Y-325000I62500J0D01*
G01*
X22700000Y-325000D01*
G75*
G02*
X22762500Y-387500I0J-62500D01*
G01*
X22762500Y-512500D01*
G75*
G02*
X22700000Y-575000I-62500J0D01*
G01*
G37*
G36*
G01*
X22700000Y-1075000D02*
X22250000Y-1075000D01*
G75*
G02*
X22187500Y-1012500I0J62500D01*
G01*
X22187500Y-887500D01*
G75*
G02*
X22250000Y-825000I62500J0D01*
G01*
X22700000Y-825000D01*
G75*
G02*
X22762500Y-887500I0J-62500D01*
G01*
X22762500Y-1012500D01*
G75*
G02*
X22700000Y-1075000I-62500J0D01*
G01*
G37*
G36*
G01*
X22700000Y-1575000D02*
X22250000Y-1575000D01*
G75*
G02*
X22187500Y-1512500I0J62500D01*
G01*
X22187500Y-1387500D01*
G75*
G02*
X22250000Y-1325000I62500J0D01*
G01*
X22700000Y-1325000D01*
G75*
G02*
X22762500Y-1387500I0J-62500D01*
G01*
X22762500Y-1512500D01*
G75*
G02*
X22700000Y-1575000I-62500J0D01*
G01*
G37*
G04 #@! TD*
G04 #@! TO.C,R11*
G36*
G01*
X27820000Y-3485000D02*
X27820000Y-3115000D01*
G75*
G02*
X27955000Y-2980000I135000J0D01*
G01*
X28225000Y-2980000D01*
G75*
G02*
X28360000Y-3115000I0J-135000D01*
G01*
X28360000Y-3485000D01*
G75*
G02*
X28225000Y-3620000I-135000J0D01*
G01*
X27955000Y-3620000D01*
G75*
G02*
X27820000Y-3485000I0J135000D01*
G01*
G37*
G36*
G01*
X28840000Y-3485000D02*
X28840000Y-3115000D01*
G75*
G02*
X28975000Y-2980000I135000J0D01*
G01*
X29245000Y-2980000D01*
G75*
G02*
X29380000Y-3115000I0J-135000D01*
G01*
X29380000Y-3485000D01*
G75*
G02*
X29245000Y-3620000I-135000J0D01*
G01*
X28975000Y-3620000D01*
G75*
G02*
X28840000Y-3485000I0J135000D01*
G01*
G37*
G04 #@! TD*
G04 #@! TO.C,U7*
G36*
G01*
X32600000Y1597766D02*
X32900000Y1597766D01*
G75*
G02*
X33050000Y1447766I0J-150000D01*
G01*
X33050000Y422766D01*
G75*
G02*
X32900000Y272766I-150000J0D01*
G01*
X32600000Y272766D01*
G75*
G02*
X32450000Y422766I0J150000D01*
G01*
X32450000Y1447766D01*
G75*
G02*
X32600000Y1597766I150000J0D01*
G01*
G37*
G36*
G01*
X31650000Y1597766D02*
X31950000Y1597766D01*
G75*
G02*
X32100000Y1447766I0J-150000D01*
G01*
X32100000Y422766D01*
G75*
G02*
X31950000Y272766I-150000J0D01*
G01*
X31650000Y272766D01*
G75*
G02*
X31500000Y422766I0J150000D01*
G01*
X31500000Y1447766D01*
G75*
G02*
X31650000Y1597766I150000J0D01*
G01*
G37*
G36*
G01*
X30700000Y1597766D02*
X31000000Y1597766D01*
G75*
G02*
X31150000Y1447766I0J-150000D01*
G01*
X31150000Y422766D01*
G75*
G02*
X31000000Y272766I-150000J0D01*
G01*
X30700000Y272766D01*
G75*
G02*
X30550000Y422766I0J150000D01*
G01*
X30550000Y1447766D01*
G75*
G02*
X30700000Y1597766I150000J0D01*
G01*
G37*
G36*
G01*
X30700000Y-677234D02*
X31000000Y-677234D01*
G75*
G02*
X31150000Y-827234I0J-150000D01*
G01*
X31150000Y-1852234D01*
G75*
G02*
X31000000Y-2002234I-150000J0D01*
G01*
X30700000Y-2002234D01*
G75*
G02*
X30550000Y-1852234I0J150000D01*
G01*
X30550000Y-827234D01*
G75*
G02*
X30700000Y-677234I150000J0D01*
G01*
G37*
G36*
G01*
X31650000Y-677234D02*
X31950000Y-677234D01*
G75*
G02*
X32100000Y-827234I0J-150000D01*
G01*
X32100000Y-1852234D01*
G75*
G02*
X31950000Y-2002234I-150000J0D01*
G01*
X31650000Y-2002234D01*
G75*
G02*
X31500000Y-1852234I0J150000D01*
G01*
X31500000Y-827234D01*
G75*
G02*
X31650000Y-677234I150000J0D01*
G01*
G37*
G36*
G01*
X32600000Y-677234D02*
X32900000Y-677234D01*
G75*
G02*
X33050000Y-827234I0J-150000D01*
G01*
X33050000Y-1852234D01*
G75*
G02*
X32900000Y-2002234I-150000J0D01*
G01*
X32600000Y-2002234D01*
G75*
G02*
X32450000Y-1852234I0J150000D01*
G01*
X32450000Y-827234D01*
G75*
G02*
X32600000Y-677234I150000J0D01*
G01*
G37*
G04 #@! TD*
D21*
G04 #@! TO.C,D1*
X70850000Y-500000D03*
X70850000Y500000D03*
X69150000Y500000D03*
X69150000Y-500000D03*
G04 #@! TD*
G04 #@! TO.C,C13*
G36*
G01*
X48530000Y4160000D02*
X48870000Y4160000D01*
G75*
G02*
X49010000Y4020000I0J-140000D01*
G01*
X49010000Y3740000D01*
G75*
G02*
X48870000Y3600000I-140000J0D01*
G01*
X48530000Y3600000D01*
G75*
G02*
X48390000Y3740000I0J140000D01*
G01*
X48390000Y4020000D01*
G75*
G02*
X48530000Y4160000I140000J0D01*
G01*
G37*
G36*
G01*
X48530000Y3200000D02*
X48870000Y3200000D01*
G75*
G02*
X49010000Y3060000I0J-140000D01*
G01*
X49010000Y2780000D01*
G75*
G02*
X48870000Y2640000I-140000J0D01*
G01*
X48530000Y2640000D01*
G75*
G02*
X48390000Y2780000I0J140000D01*
G01*
X48390000Y3060000D01*
G75*
G02*
X48530000Y3200000I140000J0D01*
G01*
G37*
G04 #@! TD*
G04 #@! TO.C,C23*
G36*
G01*
X29359917Y-2130021D02*
X29359917Y-2470021D01*
G75*
G02*
X29219917Y-2610021I-140000J0D01*
G01*
X28939917Y-2610021D01*
G75*
G02*
X28799917Y-2470021I0J140000D01*
G01*
X28799917Y-2130021D01*
G75*
G02*
X28939917Y-1990021I140000J0D01*
G01*
X29219917Y-1990021D01*
G75*
G02*
X29359917Y-2130021I0J-140000D01*
G01*
G37*
G36*
G01*
X28399917Y-2130021D02*
X28399917Y-2470021D01*
G75*
G02*
X28259917Y-2610021I-140000J0D01*
G01*
X27979917Y-2610021D01*
G75*
G02*
X27839917Y-2470021I0J140000D01*
G01*
X27839917Y-2130021D01*
G75*
G02*
X27979917Y-1990021I140000J0D01*
G01*
X28259917Y-1990021D01*
G75*
G02*
X28399917Y-2130021I0J-140000D01*
G01*
G37*
G04 #@! TD*
G04 #@! TO.C,C30*
G36*
G01*
X30539964Y2526305D02*
X30539964Y2866305D01*
G75*
G02*
X30679964Y3006305I140000J0D01*
G01*
X30959964Y3006305D01*
G75*
G02*
X31099964Y2866305I0J-140000D01*
G01*
X31099964Y2526305D01*
G75*
G02*
X30959964Y2386305I-140000J0D01*
G01*
X30679964Y2386305D01*
G75*
G02*
X30539964Y2526305I0J140000D01*
G01*
G37*
G36*
G01*
X31499964Y2526305D02*
X31499964Y2866305D01*
G75*
G02*
X31639964Y3006305I140000J0D01*
G01*
X31919964Y3006305D01*
G75*
G02*
X32059964Y2866305I0J-140000D01*
G01*
X32059964Y2526305D01*
G75*
G02*
X31919964Y2386305I-140000J0D01*
G01*
X31639964Y2386305D01*
G75*
G02*
X31499964Y2526305I0J140000D01*
G01*
G37*
G04 #@! TD*
G04 #@! TO.C,R13*
G36*
G01*
X54415463Y1914167D02*
X54415463Y2284167D01*
G75*
G02*
X54550463Y2419167I135000J0D01*
G01*
X54820463Y2419167D01*
G75*
G02*
X54955463Y2284167I0J-135000D01*
G01*
X54955463Y1914167D01*
G75*
G02*
X54820463Y1779167I-135000J0D01*
G01*
X54550463Y1779167D01*
G75*
G02*
X54415463Y1914167I0J135000D01*
G01*
G37*
G36*
G01*
X55435463Y1914167D02*
X55435463Y2284167D01*
G75*
G02*
X55570463Y2419167I135000J0D01*
G01*
X55840463Y2419167D01*
G75*
G02*
X55975463Y2284167I0J-135000D01*
G01*
X55975463Y1914167D01*
G75*
G02*
X55840463Y1779167I-135000J0D01*
G01*
X55570463Y1779167D01*
G75*
G02*
X55435463Y1914167I0J135000D01*
G01*
G37*
G04 #@! TD*
G04 #@! TO.C,C25*
G36*
G01*
X29360665Y1268510D02*
X29360665Y928510D01*
G75*
G02*
X29220665Y788510I-140000J0D01*
G01*
X28940665Y788510D01*
G75*
G02*
X28800665Y928510I0J140000D01*
G01*
X28800665Y1268510D01*
G75*
G02*
X28940665Y1408510I140000J0D01*
G01*
X29220665Y1408510D01*
G75*
G02*
X29360665Y1268510I0J-140000D01*
G01*
G37*
G36*
G01*
X28400665Y1268510D02*
X28400665Y928510D01*
G75*
G02*
X28260665Y788510I-140000J0D01*
G01*
X27980665Y788510D01*
G75*
G02*
X27840665Y928510I0J140000D01*
G01*
X27840665Y1268510D01*
G75*
G02*
X27980665Y1408510I140000J0D01*
G01*
X28260665Y1408510D01*
G75*
G02*
X28400665Y1268510I0J-140000D01*
G01*
G37*
G04 #@! TD*
G04 #@! TO.C,U3*
G36*
G01*
X77000000Y2800000D02*
X77300000Y2800000D01*
G75*
G02*
X77450000Y2650000I0J-150000D01*
G01*
X77450000Y1625000D01*
G75*
G02*
X77300000Y1475000I-150000J0D01*
G01*
X77000000Y1475000D01*
G75*
G02*
X76850000Y1625000I0J150000D01*
G01*
X76850000Y2650000D01*
G75*
G02*
X77000000Y2800000I150000J0D01*
G01*
G37*
G36*
G01*
X76050000Y2800000D02*
X76350000Y2800000D01*
G75*
G02*
X76500000Y2650000I0J-150000D01*
G01*
X76500000Y1625000D01*
G75*
G02*
X76350000Y1475000I-150000J0D01*
G01*
X76050000Y1475000D01*
G75*
G02*
X75900000Y1625000I0J150000D01*
G01*
X75900000Y2650000D01*
G75*
G02*
X76050000Y2800000I150000J0D01*
G01*
G37*
G36*
G01*
X75100000Y2800000D02*
X75400000Y2800000D01*
G75*
G02*
X75550000Y2650000I0J-150000D01*
G01*
X75550000Y1625000D01*
G75*
G02*
X75400000Y1475000I-150000J0D01*
G01*
X75100000Y1475000D01*
G75*
G02*
X74950000Y1625000I0J150000D01*
G01*
X74950000Y2650000D01*
G75*
G02*
X75100000Y2800000I150000J0D01*
G01*
G37*
G36*
G01*
X75100000Y525000D02*
X75400000Y525000D01*
G75*
G02*
X75550000Y375000I0J-150000D01*
G01*
X75550000Y-650000D01*
G75*
G02*
X75400000Y-800000I-150000J0D01*
G01*
X75100000Y-800000D01*
G75*
G02*
X74950000Y-650000I0J150000D01*
G01*
X74950000Y375000D01*
G75*
G02*
X75100000Y525000I150000J0D01*
G01*
G37*
G36*
G01*
X76050000Y525000D02*
X76350000Y525000D01*
G75*
G02*
X76500000Y375000I0J-150000D01*
G01*
X76500000Y-650000D01*
G75*
G02*
X76350000Y-800000I-150000J0D01*
G01*
X76050000Y-800000D01*
G75*
G02*
X75900000Y-650000I0J150000D01*
G01*
X75900000Y375000D01*
G75*
G02*
X76050000Y525000I150000J0D01*
G01*
G37*
G36*
G01*
X77000000Y525000D02*
X77300000Y525000D01*
G75*
G02*
X77450000Y375000I0J-150000D01*
G01*
X77450000Y-650000D01*
G75*
G02*
X77300000Y-800000I-150000J0D01*
G01*
X77000000Y-800000D01*
G75*
G02*
X76850000Y-650000I0J150000D01*
G01*
X76850000Y375000D01*
G75*
G02*
X77000000Y525000I150000J0D01*
G01*
G37*
G04 #@! TD*
G04 #@! TO.C,C32*
G36*
G01*
X34530000Y1060000D02*
X34870000Y1060000D01*
G75*
G02*
X35010000Y920000I0J-140000D01*
G01*
X35010000Y640000D01*
G75*
G02*
X34870000Y500000I-140000J0D01*
G01*
X34530000Y500000D01*
G75*
G02*
X34390000Y640000I0J140000D01*
G01*
X34390000Y920000D01*
G75*
G02*
X34530000Y1060000I140000J0D01*
G01*
G37*
G36*
G01*
X34530000Y100000D02*
X34870000Y100000D01*
G75*
G02*
X35010000Y-40000I0J-140000D01*
G01*
X35010000Y-320000D01*
G75*
G02*
X34870000Y-460000I-140000J0D01*
G01*
X34530000Y-460000D01*
G75*
G02*
X34390000Y-320000I0J140000D01*
G01*
X34390000Y-40000D01*
G75*
G02*
X34530000Y100000I140000J0D01*
G01*
G37*
G04 #@! TD*
G04 #@! TO.C,R14*
G36*
G01*
X28220000Y3815000D02*
X28220000Y4185000D01*
G75*
G02*
X28355000Y4320000I135000J0D01*
G01*
X28625000Y4320000D01*
G75*
G02*
X28760000Y4185000I0J-135000D01*
G01*
X28760000Y3815000D01*
G75*
G02*
X28625000Y3680000I-135000J0D01*
G01*
X28355000Y3680000D01*
G75*
G02*
X28220000Y3815000I0J135000D01*
G01*
G37*
G36*
G01*
X29240000Y3815000D02*
X29240000Y4185000D01*
G75*
G02*
X29375000Y4320000I135000J0D01*
G01*
X29645000Y4320000D01*
G75*
G02*
X29780000Y4185000I0J-135000D01*
G01*
X29780000Y3815000D01*
G75*
G02*
X29645000Y3680000I-135000J0D01*
G01*
X29375000Y3680000D01*
G75*
G02*
X29240000Y3815000I0J135000D01*
G01*
G37*
G04 #@! TD*
G04 #@! TO.C,C31*
G36*
G01*
X34360000Y4170000D02*
X34360000Y3830000D01*
G75*
G02*
X34220000Y3690000I-140000J0D01*
G01*
X33940000Y3690000D01*
G75*
G02*
X33800000Y3830000I0J140000D01*
G01*
X33800000Y4170000D01*
G75*
G02*
X33940000Y4310000I140000J0D01*
G01*
X34220000Y4310000D01*
G75*
G02*
X34360000Y4170000I0J-140000D01*
G01*
G37*
G36*
G01*
X33400000Y4170000D02*
X33400000Y3830000D01*
G75*
G02*
X33260000Y3690000I-140000J0D01*
G01*
X32980000Y3690000D01*
G75*
G02*
X32840000Y3830000I0J140000D01*
G01*
X32840000Y4170000D01*
G75*
G02*
X32980000Y4310000I140000J0D01*
G01*
X33260000Y4310000D01*
G75*
G02*
X33400000Y4170000I0J-140000D01*
G01*
G37*
G04 #@! TD*
G04 #@! TO.C,C19*
G36*
G01*
X55528142Y760000D02*
X55868142Y760000D01*
G75*
G02*
X56008142Y620000I0J-140000D01*
G01*
X56008142Y340000D01*
G75*
G02*
X55868142Y200000I-140000J0D01*
G01*
X55528142Y200000D01*
G75*
G02*
X55388142Y340000I0J140000D01*
G01*
X55388142Y620000D01*
G75*
G02*
X55528142Y760000I140000J0D01*
G01*
G37*
G36*
G01*
X55528142Y-200000D02*
X55868142Y-200000D01*
G75*
G02*
X56008142Y-340000I0J-140000D01*
G01*
X56008142Y-620000D01*
G75*
G02*
X55868142Y-760000I-140000J0D01*
G01*
X55528142Y-760000D01*
G75*
G02*
X55388142Y-620000I0J140000D01*
G01*
X55388142Y-340000D01*
G75*
G02*
X55528142Y-200000I140000J0D01*
G01*
G37*
G04 #@! TD*
G04 #@! TO.C,C29*
G36*
G01*
X40430000Y3360000D02*
X40770000Y3360000D01*
G75*
G02*
X40910000Y3220000I0J-140000D01*
G01*
X40910000Y2940000D01*
G75*
G02*
X40770000Y2800000I-140000J0D01*
G01*
X40430000Y2800000D01*
G75*
G02*
X40290000Y2940000I0J140000D01*
G01*
X40290000Y3220000D01*
G75*
G02*
X40430000Y3360000I140000J0D01*
G01*
G37*
G36*
G01*
X40430000Y2400000D02*
X40770000Y2400000D01*
G75*
G02*
X40910000Y2260000I0J-140000D01*
G01*
X40910000Y1980000D01*
G75*
G02*
X40770000Y1840000I-140000J0D01*
G01*
X40430000Y1840000D01*
G75*
G02*
X40290000Y1980000I0J140000D01*
G01*
X40290000Y2260000D01*
G75*
G02*
X40430000Y2400000I140000J0D01*
G01*
G37*
G04 #@! TD*
G04 #@! TO.C,C17*
G36*
G01*
X56760000Y-3430000D02*
X56760000Y-3770000D01*
G75*
G02*
X56620000Y-3910000I-140000J0D01*
G01*
X56340000Y-3910000D01*
G75*
G02*
X56200000Y-3770000I0J140000D01*
G01*
X56200000Y-3430000D01*
G75*
G02*
X56340000Y-3290000I140000J0D01*
G01*
X56620000Y-3290000D01*
G75*
G02*
X56760000Y-3430000I0J-140000D01*
G01*
G37*
G36*
G01*
X55800000Y-3430000D02*
X55800000Y-3770000D01*
G75*
G02*
X55660000Y-3910000I-140000J0D01*
G01*
X55380000Y-3910000D01*
G75*
G02*
X55240000Y-3770000I0J140000D01*
G01*
X55240000Y-3430000D01*
G75*
G02*
X55380000Y-3290000I140000J0D01*
G01*
X55660000Y-3290000D01*
G75*
G02*
X55800000Y-3430000I0J-140000D01*
G01*
G37*
G04 #@! TD*
G04 #@! TO.C,C27*
G36*
G01*
X54444386Y3928856D02*
X54444386Y4268856D01*
G75*
G02*
X54584386Y4408856I140000J0D01*
G01*
X54864386Y4408856D01*
G75*
G02*
X55004386Y4268856I0J-140000D01*
G01*
X55004386Y3928856D01*
G75*
G02*
X54864386Y3788856I-140000J0D01*
G01*
X54584386Y3788856D01*
G75*
G02*
X54444386Y3928856I0J140000D01*
G01*
G37*
G36*
G01*
X55404386Y3928856D02*
X55404386Y4268856D01*
G75*
G02*
X55544386Y4408856I140000J0D01*
G01*
X55824386Y4408856D01*
G75*
G02*
X55964386Y4268856I0J-140000D01*
G01*
X55964386Y3928856D01*
G75*
G02*
X55824386Y3788856I-140000J0D01*
G01*
X55544386Y3788856D01*
G75*
G02*
X55404386Y3928856I0J140000D01*
G01*
G37*
G04 #@! TD*
D22*
G04 #@! TO.C,U2*
X37950000Y1262500D03*
X37450000Y1262500D03*
X36950000Y1262500D03*
X36450000Y1262500D03*
D23*
X36187500Y500000D03*
X36187500Y0D03*
X36187500Y-500000D03*
D22*
X36450000Y-1262500D03*
X36950000Y-1262500D03*
X37450000Y-1262500D03*
X37950000Y-1262500D03*
D23*
X38212500Y-500000D03*
X38212500Y0D03*
X38212500Y500000D03*
G04 #@! TD*
G04 #@! TO.C,Y1*
G36*
X42041421Y-615076D02*
G01*
X42607107Y-1180762D01*
X41970711Y-1817158D01*
X41405025Y-1251472D01*
X42041421Y-615076D01*
G37*
G36*
X41051472Y-1605025D02*
G01*
X41617158Y-2170711D01*
X40980762Y-2807107D01*
X40415076Y-2241421D01*
X41051472Y-1605025D01*
G37*
G36*
X41829289Y-2382842D02*
G01*
X42394975Y-2948528D01*
X41758579Y-3584924D01*
X41192893Y-3019238D01*
X41829289Y-2382842D01*
G37*
G36*
X42819238Y-1392893D02*
G01*
X43384924Y-1958579D01*
X42748528Y-2594975D01*
X42182842Y-2029289D01*
X42819238Y-1392893D01*
G37*
G04 #@! TD*
G04 #@! TO.C,R15*
G36*
G01*
X28220000Y2615000D02*
X28220000Y2985000D01*
G75*
G02*
X28355000Y3120000I135000J0D01*
G01*
X28625000Y3120000D01*
G75*
G02*
X28760000Y2985000I0J-135000D01*
G01*
X28760000Y2615000D01*
G75*
G02*
X28625000Y2480000I-135000J0D01*
G01*
X28355000Y2480000D01*
G75*
G02*
X28220000Y2615000I0J135000D01*
G01*
G37*
G36*
G01*
X29240000Y2615000D02*
X29240000Y2985000D01*
G75*
G02*
X29375000Y3120000I135000J0D01*
G01*
X29645000Y3120000D01*
G75*
G02*
X29780000Y2985000I0J-135000D01*
G01*
X29780000Y2615000D01*
G75*
G02*
X29645000Y2480000I-135000J0D01*
G01*
X29375000Y2480000D01*
G75*
G02*
X29240000Y2615000I0J135000D01*
G01*
G37*
G04 #@! TD*
G04 #@! TO.C,C22*
G36*
G01*
X39928392Y-3082807D02*
X40168808Y-2842391D01*
G75*
G02*
X40366798Y-2842391I98995J-98995D01*
G01*
X40564788Y-3040381D01*
G75*
G02*
X40564788Y-3238371I-98995J-98995D01*
G01*
X40324372Y-3478787D01*
G75*
G02*
X40126382Y-3478787I-98995J98995D01*
G01*
X39928392Y-3280797D01*
G75*
G02*
X39928392Y-3082807I98995J98995D01*
G01*
G37*
G36*
G01*
X40607214Y-3761629D02*
X40847630Y-3521213D01*
G75*
G02*
X41045620Y-3521213I98995J-98995D01*
G01*
X41243610Y-3719203D01*
G75*
G02*
X41243610Y-3917193I-98995J-98995D01*
G01*
X41003194Y-4157609D01*
G75*
G02*
X40805204Y-4157609I-98995J98995D01*
G01*
X40607214Y-3959619D01*
G75*
G02*
X40607214Y-3761629I98995J98995D01*
G01*
G37*
G04 #@! TD*
G04 #@! TO.C,C14*
G36*
G01*
X47229996Y-2077720D02*
X47229996Y-1737720D01*
G75*
G02*
X47369996Y-1597720I140000J0D01*
G01*
X47649996Y-1597720D01*
G75*
G02*
X47789996Y-1737720I0J-140000D01*
G01*
X47789996Y-2077720D01*
G75*
G02*
X47649996Y-2217720I-140000J0D01*
G01*
X47369996Y-2217720D01*
G75*
G02*
X47229996Y-2077720I0J140000D01*
G01*
G37*
G36*
G01*
X48189996Y-2077720D02*
X48189996Y-1737720D01*
G75*
G02*
X48329996Y-1597720I140000J0D01*
G01*
X48609996Y-1597720D01*
G75*
G02*
X48749996Y-1737720I0J-140000D01*
G01*
X48749996Y-2077720D01*
G75*
G02*
X48609996Y-2217720I-140000J0D01*
G01*
X48329996Y-2217720D01*
G75*
G02*
X48189996Y-2077720I0J140000D01*
G01*
G37*
G04 #@! TD*
G04 #@! TO.C,R16*
G36*
G01*
X32820000Y2515000D02*
X32820000Y2885000D01*
G75*
G02*
X32955000Y3020000I135000J0D01*
G01*
X33225000Y3020000D01*
G75*
G02*
X33360000Y2885000I0J-135000D01*
G01*
X33360000Y2515000D01*
G75*
G02*
X33225000Y2380000I-135000J0D01*
G01*
X32955000Y2380000D01*
G75*
G02*
X32820000Y2515000I0J135000D01*
G01*
G37*
G36*
G01*
X33840000Y2515000D02*
X33840000Y2885000D01*
G75*
G02*
X33975000Y3020000I135000J0D01*
G01*
X34245000Y3020000D01*
G75*
G02*
X34380000Y2885000I0J-135000D01*
G01*
X34380000Y2515000D01*
G75*
G02*
X34245000Y2380000I-135000J0D01*
G01*
X33975000Y2380000D01*
G75*
G02*
X33840000Y2515000I0J135000D01*
G01*
G37*
G04 #@! TD*
G04 #@! TO.C,C11*
G36*
G01*
X67233416Y-2233059D02*
X67233416Y-2573059D01*
G75*
G02*
X67093416Y-2713059I-140000J0D01*
G01*
X66813416Y-2713059D01*
G75*
G02*
X66673416Y-2573059I0J140000D01*
G01*
X66673416Y-2233059D01*
G75*
G02*
X66813416Y-2093059I140000J0D01*
G01*
X67093416Y-2093059D01*
G75*
G02*
X67233416Y-2233059I0J-140000D01*
G01*
G37*
G36*
G01*
X66273416Y-2233059D02*
X66273416Y-2573059D01*
G75*
G02*
X66133416Y-2713059I-140000J0D01*
G01*
X65853416Y-2713059D01*
G75*
G02*
X65713416Y-2573059I0J140000D01*
G01*
X65713416Y-2233059D01*
G75*
G02*
X65853416Y-2093059I140000J0D01*
G01*
X66133416Y-2093059D01*
G75*
G02*
X66273416Y-2233059I0J-140000D01*
G01*
G37*
G04 #@! TD*
M02*
