G04 #@! TF.GenerationSoftware,KiCad,Pcbnew,(5.99.0-3477-gacf13a186)*
G04 #@! TF.CreationDate,2020-09-29T20:18:12-07:00*
G04 #@! TF.ProjectId,RT_USB_PD_Soldering_Iron,52545f55-5342-45f5-9044-5f536f6c6465,rev?*
G04 #@! TF.SameCoordinates,Original*
G04 #@! TF.FileFunction,Copper,L2,Inr*
G04 #@! TF.FilePolarity,Positive*
%FSLAX46Y46*%
G04 Gerber Fmt 4.6, Leading zero omitted, Abs format (unit mm)*
G04 Created by KiCad (PCBNEW (5.99.0-3477-gacf13a186)) date 2020-09-29 20:18:12*
%MOMM*%
%LPD*%
G01*
G04 APERTURE LIST*
G04 #@! TA.AperFunction,ViaPad*
%ADD10C,0.700000*%
G04 #@! TD*
G04 #@! TA.AperFunction,ViaPad*
%ADD11C,1.000000*%
G04 #@! TD*
G04 #@! TA.AperFunction,ViaPad*
%ADD12C,0.800000*%
G04 #@! TD*
G04 #@! TA.AperFunction,Conductor*
%ADD13C,0.500000*%
G04 #@! TD*
G04 #@! TA.AperFunction,Conductor*
%ADD14C,0.600000*%
G04 #@! TD*
G04 #@! TA.AperFunction,Conductor*
%ADD15C,0.254000*%
G04 #@! TD*
G04 #@! TA.AperFunction,Conductor*
%ADD16C,0.203200*%
G04 #@! TD*
G04 APERTURE END LIST*
D10*
G04 #@! TO.N,IN*
X124700000Y-124700000D03*
X124700000Y-125700000D03*
X125400000Y-124200000D03*
D11*
X184400000Y-129300000D03*
X191700000Y-122600000D03*
X183000000Y-129300000D03*
D10*
X125400000Y-125200000D03*
D11*
X191700000Y-127400000D03*
X124950000Y-129300000D03*
D10*
X125400000Y-126200000D03*
D12*
G04 #@! TO.N,+3V3*
X173700000Y-125900000D03*
X171500000Y-125898157D03*
D10*
X136900000Y-125698616D03*
D12*
X152527335Y-127996790D03*
D10*
X151605846Y-121043882D03*
X185250000Y-126200000D03*
X140800000Y-125700000D03*
D12*
X162300000Y-125898157D03*
D10*
X136100000Y-120900000D03*
X153700000Y-120500000D03*
D12*
X182100000Y-125954332D03*
D10*
X140800000Y-120900000D03*
G04 #@! TO.N,/BTN1*
X179570952Y-128046790D03*
X156867571Y-126835625D03*
G04 #@! TO.N,/BTN2*
X177100000Y-120300000D03*
X155100000Y-120600000D03*
G04 #@! TO.N,Net-(C10-Pad1)*
X181800000Y-125000000D03*
X173300000Y-125000000D03*
G04 #@! TO.N,/HEATER*
X121800000Y-127700000D03*
X119050000Y-126200000D03*
X119850000Y-126200000D03*
X118700000Y-127700000D03*
X121450000Y-125400000D03*
X119050000Y-125400000D03*
X118700000Y-126900000D03*
X121800000Y-126900000D03*
X119050000Y-124600000D03*
X120650000Y-126200000D03*
X121450000Y-124600000D03*
X121450000Y-126200000D03*
G04 #@! TO.N,/OSC_IN*
X149251124Y-128046790D03*
G04 #@! TO.N,/OSC_OUT*
X151117218Y-127589579D03*
G04 #@! TO.N,/TEMP_SENS*
X149051001Y-127039470D03*
X139000000Y-127140630D03*
G04 #@! TO.N,/USB_DP*
X186900000Y-121700000D03*
X157080045Y-121880210D03*
G04 #@! TO.N,/CC2*
X157895284Y-126818064D03*
X184600000Y-125100000D03*
X194500000Y-123300000D03*
G04 #@! TO.N,/USB_DM*
X183200000Y-121000000D03*
X156000000Y-121798126D03*
G04 #@! TO.N,/CC1*
X158538610Y-127480210D03*
X187800000Y-125100000D03*
G04 #@! TO.N,/TIP_TC*
X107100000Y-120900000D03*
X131800000Y-120900000D03*
G04 #@! TO.N,/I2C1_SCL*
X157913030Y-124871366D03*
X171100000Y-123400000D03*
G04 #@! TO.N,/I2C1_SDA*
X160300000Y-122400000D03*
X175000000Y-123500000D03*
X171100000Y-122400000D03*
X155800000Y-127996790D03*
G04 #@! TO.N,/VSENSE*
X132000000Y-125600000D03*
X148918659Y-126027018D03*
G04 #@! TO.N,/HEAT_ON*
X148800000Y-120900000D03*
X128500000Y-127900000D03*
G04 #@! TO.N,Net-(R16-Pad1)*
X137000000Y-123819790D03*
G04 #@! TO.N,Net-(R17-Pad2)*
X134100000Y-127300000D03*
G04 #@! TO.N,/INT0*
X142000000Y-120700000D03*
G04 #@! TO.N,/SPI1_MISO*
X148500000Y-122480210D03*
G04 #@! TO.N,/SPI1_NSS*
X147600000Y-123840630D03*
G04 #@! TO.N,/SPI1_MOSI*
X146180982Y-121819018D03*
G04 #@! TO.N,/SPI1_SCK*
X146600000Y-123160420D03*
G04 #@! TO.N,/DISP_RST#*
X154487083Y-128009707D03*
X166550667Y-124446996D03*
G04 #@! TO.N,/NRST*
X149898389Y-127416838D03*
X158000000Y-122500000D03*
G04 #@! TO.N,GND*
X150600000Y-120600000D03*
X165600000Y-124400000D03*
X121100000Y-121700000D03*
X181900000Y-123700000D03*
X182600000Y-128046790D03*
X131900000Y-123700000D03*
X120300000Y-121700000D03*
X121700000Y-122300000D03*
X126600000Y-126150000D03*
X152400000Y-120500000D03*
X100700000Y-129200000D03*
X119500000Y-121700000D03*
X135100000Y-123100000D03*
X104700000Y-129700000D03*
X101300000Y-129700000D03*
X110500000Y-128700000D03*
X176200000Y-123400000D03*
X136900000Y-128046790D03*
X135100000Y-125200000D03*
X127700000Y-121550000D03*
X153500000Y-128046790D03*
X154800000Y-124500000D03*
X118800000Y-122300000D03*
X119200000Y-129700000D03*
X126600000Y-124300000D03*
X118800000Y-123100000D03*
X121700000Y-123100000D03*
X110500000Y-129800000D03*
X131900000Y-127000000D03*
X171700000Y-124600000D03*
X190000000Y-123000000D03*
X155100000Y-121700000D03*
X186200000Y-120999835D03*
X105300000Y-129200000D03*
X141600000Y-127900000D03*
X151200000Y-124500000D03*
X139900000Y-123200000D03*
X159200000Y-122400000D03*
X126600000Y-125200000D03*
X119200000Y-128700000D03*
X101300000Y-128700000D03*
X183100000Y-123100000D03*
X104700000Y-128700000D03*
X143900000Y-127900000D03*
X147600000Y-126700000D03*
X118700000Y-129200000D03*
X118200000Y-129700000D03*
D12*
G04 #@! TO.N,/HEATER_PG*
X128300000Y-122600000D03*
G04 #@! TD*
D13*
G04 #@! TO.N,+3V3*
X182045668Y-125900000D02*
X173700000Y-125900000D01*
X152527335Y-127224834D02*
X152527335Y-127996790D01*
D14*
X182043825Y-125898157D02*
X182100000Y-125954332D01*
D13*
X140798616Y-125698616D02*
X140800000Y-125700000D01*
X136900000Y-125698616D02*
X140798616Y-125698616D01*
X151955845Y-121393881D02*
X151605846Y-121043882D01*
X171500000Y-125898157D02*
X173698157Y-125898157D01*
X152806119Y-121393881D02*
X151955845Y-121393881D01*
X140800000Y-120900000D02*
X136100000Y-120900000D01*
X153854012Y-125898157D02*
X152527335Y-127224834D01*
X173698157Y-125898157D02*
X173700000Y-125900000D01*
X182100000Y-125954332D02*
X182045668Y-125900000D01*
X153700000Y-120500000D02*
X152806119Y-121393881D01*
X162300000Y-125898157D02*
X153854012Y-125898157D01*
D15*
G04 #@! TO.N,/BTN1*
X158231946Y-128200000D02*
X179417742Y-128200000D01*
X179417742Y-128200000D02*
X179570952Y-128046790D01*
X156867571Y-126835625D02*
X158231946Y-128200000D01*
G04 #@! TO.N,/BTN2*
X155400000Y-120300000D02*
X177100000Y-120300000D01*
X155100000Y-120600000D02*
X155400000Y-120300000D01*
D16*
G04 #@! TO.N,Net-(C10-Pad1)*
X173300000Y-125000000D02*
X181800000Y-125000000D01*
D15*
G04 #@! TO.N,/TEMP_SENS*
X139000000Y-127140630D02*
X141159370Y-127140630D01*
X148946168Y-127039470D02*
X149051001Y-127039470D01*
X141159370Y-127140630D02*
X143600000Y-124700000D01*
X146606698Y-124700000D02*
X148946168Y-127039470D01*
X143600000Y-124700000D02*
X146606698Y-124700000D01*
G04 #@! TO.N,/USB_DP*
X186900000Y-121700000D02*
X157260255Y-121700000D01*
X157260255Y-121700000D02*
X157080045Y-121880210D01*
G04 #@! TO.N,/CC2*
X193600000Y-124200000D02*
X185500000Y-124200000D01*
X185500000Y-124200000D02*
X184600000Y-125100000D01*
X194500000Y-123300000D02*
X193600000Y-124200000D01*
X184600000Y-125100000D02*
X182900000Y-126800000D01*
X157913348Y-126800000D02*
X157895284Y-126818064D01*
X182900000Y-126800000D02*
X157913348Y-126800000D01*
G04 #@! TO.N,/USB_DM*
X156798126Y-121000000D02*
X183200000Y-121000000D01*
X156000000Y-121798126D02*
X156798126Y-121000000D01*
G04 #@! TO.N,/CC1*
X158652232Y-127366588D02*
X158538610Y-127480210D01*
X185533412Y-127366588D02*
X158652232Y-127366588D01*
X187800000Y-125100000D02*
X185533412Y-127366588D01*
D13*
G04 #@! TO.N,/TIP_TC*
X131450001Y-120550001D02*
X131800000Y-120900000D01*
X107449999Y-120550001D02*
X131450001Y-120550001D01*
X107100000Y-120900000D02*
X107449999Y-120550001D01*
D15*
G04 #@! TO.N,/I2C1_SCL*
X159384396Y-123400000D02*
X171100000Y-123400000D01*
X157913030Y-124871366D02*
X159384396Y-123400000D01*
G04 #@! TO.N,/I2C1_SDA*
X175000000Y-123500000D02*
X172200000Y-123500000D01*
X160300000Y-122400000D02*
X171100000Y-122400000D01*
X172200000Y-123500000D02*
X171100000Y-122400000D01*
G04 #@! TO.N,/VSENSE*
X146796080Y-124242789D02*
X143263909Y-124242789D01*
X148580309Y-126027018D02*
X146796080Y-124242789D01*
X141126497Y-126380201D02*
X132780201Y-126380201D01*
X148918659Y-126027018D02*
X148580309Y-126027018D01*
X132780201Y-126380201D02*
X132000000Y-125600000D01*
X143263909Y-124242789D02*
X141126497Y-126380201D01*
G04 #@! TO.N,/HEAT_ON*
X141900000Y-124500000D02*
X131900000Y-124500000D01*
X145500000Y-120900000D02*
X141900000Y-124500000D01*
X131900000Y-124500000D02*
X128500000Y-127900000D01*
X148800000Y-120900000D02*
X145500000Y-120900000D01*
G04 #@! TO.N,/NRST*
X157650001Y-122849999D02*
X154465228Y-122849999D01*
X158000000Y-122500000D02*
X157650001Y-122849999D01*
X154465228Y-122849999D02*
X149898389Y-127416838D01*
G04 #@! TD*
G04 #@! TA.AperFunction,Conductor*
G04 #@! TO.N,IN*
G36*
X184555765Y-128617550D02*
G01*
X184665366Y-128655902D01*
X184703718Y-128669322D01*
X184836443Y-128752718D01*
X184947282Y-128863557D01*
X185030678Y-128996282D01*
X185082450Y-129144235D01*
X185100000Y-129300000D01*
X185082450Y-129455765D01*
X185048794Y-129551946D01*
X185030678Y-129603718D01*
X184947282Y-129736443D01*
X184836443Y-129847282D01*
X184703718Y-129930678D01*
X184665366Y-129944098D01*
X184555765Y-129982450D01*
X184400000Y-130000000D01*
X183000000Y-130000000D01*
X182844235Y-129982450D01*
X182734634Y-129944098D01*
X182696282Y-129930678D01*
X182563557Y-129847282D01*
X182452718Y-129736443D01*
X182369322Y-129603718D01*
X182351206Y-129551946D01*
X182317550Y-129455765D01*
X182300000Y-129300000D01*
X182317550Y-129144235D01*
X182369322Y-128996282D01*
X182452718Y-128863557D01*
X182563557Y-128752718D01*
X182696282Y-128669322D01*
X182734634Y-128655902D01*
X182844235Y-128617550D01*
X183000000Y-128600000D01*
X184400000Y-128600000D01*
X184555765Y-128617550D01*
G37*
G04 #@! TD.AperFunction*
G04 #@! TD*
G04 #@! TA.AperFunction,Conductor*
G04 #@! TO.N,GND*
G36*
X176799421Y-119718093D02*
G01*
X176825141Y-119762642D01*
X176816208Y-119813300D01*
X176785224Y-119842703D01*
X176782969Y-119843852D01*
X176692897Y-119926677D01*
X176643064Y-119972500D01*
X155413699Y-119972500D01*
X155371020Y-119968766D01*
X155329062Y-119980008D01*
X155286278Y-119987552D01*
X155286276Y-119987553D01*
X155273607Y-119994867D01*
X155259479Y-119998653D01*
X155223899Y-120023566D01*
X155202837Y-120035727D01*
X155186273Y-120045290D01*
X155186272Y-120045291D01*
X155172132Y-120053455D01*
X155146224Y-120051552D01*
X155065119Y-120045595D01*
X154917317Y-120075398D01*
X154917315Y-120075399D01*
X154782969Y-120143852D01*
X154702381Y-120217956D01*
X154671979Y-120245912D01*
X154641789Y-120294604D01*
X154592525Y-120374058D01*
X154582747Y-120407714D01*
X154550459Y-120518850D01*
X154548880Y-120669625D01*
X154587905Y-120815265D01*
X154664067Y-120944048D01*
X154664658Y-120945048D01*
X154773485Y-121049409D01*
X154906368Y-121120660D01*
X155053517Y-121153552D01*
X155204091Y-121145661D01*
X155346995Y-121097568D01*
X155471701Y-121012818D01*
X155482533Y-121000000D01*
X155569024Y-120897652D01*
X155631791Y-120760557D01*
X155652865Y-120627500D01*
X156521969Y-120627500D01*
X156570307Y-120645093D01*
X156596027Y-120689642D01*
X156579577Y-120751036D01*
X156565470Y-120767849D01*
X156556855Y-120778116D01*
X156082621Y-121252351D01*
X155965119Y-121243721D01*
X155817317Y-121273524D01*
X155817315Y-121273525D01*
X155682969Y-121341978D01*
X155571980Y-121444037D01*
X155571979Y-121444038D01*
X155541789Y-121492730D01*
X155492525Y-121572184D01*
X155486455Y-121593077D01*
X155450459Y-121716976D01*
X155448880Y-121867750D01*
X155487905Y-122013391D01*
X155562913Y-122140223D01*
X155564658Y-122143174D01*
X155673485Y-122247535D01*
X155806368Y-122318786D01*
X155953517Y-122351678D01*
X156104091Y-122343787D01*
X156246995Y-122295694D01*
X156371704Y-122210942D01*
X156527328Y-122026785D01*
X156567950Y-122095474D01*
X156567950Y-122095475D01*
X156594414Y-122140223D01*
X156641984Y-122220660D01*
X156644703Y-122225258D01*
X156753530Y-122329619D01*
X156816138Y-122363189D01*
X156849402Y-122381025D01*
X156883688Y-122419372D01*
X156885304Y-122470787D01*
X156853493Y-122511211D01*
X156813866Y-122522499D01*
X154478938Y-122522499D01*
X154436248Y-122518764D01*
X154394292Y-122530007D01*
X154351506Y-122537551D01*
X154338836Y-122544866D01*
X154328492Y-122547638D01*
X154324706Y-122548652D01*
X154323017Y-122549835D01*
X154289124Y-122573567D01*
X154266768Y-122586474D01*
X154251500Y-122595289D01*
X154223953Y-122628119D01*
X149981010Y-126871063D01*
X149863508Y-126862433D01*
X149715706Y-126892236D01*
X149610225Y-126945981D01*
X149586038Y-126890088D01*
X149586038Y-126890085D01*
X149526156Y-126751706D01*
X149513185Y-126735688D01*
X149431267Y-126634527D01*
X149240436Y-126498911D01*
X149290357Y-126439837D01*
X149290361Y-126439835D01*
X149387683Y-126324670D01*
X149450450Y-126187575D01*
X149472142Y-126050616D01*
X149474037Y-126038654D01*
X149474159Y-126027015D01*
X149453696Y-125877634D01*
X149439969Y-125845912D01*
X149393814Y-125739254D01*
X149342105Y-125675399D01*
X149298927Y-125622078D01*
X149298925Y-125622076D01*
X149176020Y-125534732D01*
X149176019Y-125534732D01*
X149176018Y-125534731D01*
X149034155Y-125483657D01*
X148958967Y-125478136D01*
X148883779Y-125472614D01*
X148883778Y-125472614D01*
X148834511Y-125482548D01*
X148735974Y-125502417D01*
X148672553Y-125534732D01*
X148592147Y-125575701D01*
X147537175Y-124520729D01*
X147515435Y-124474109D01*
X147528749Y-124424422D01*
X147586414Y-124392458D01*
X147704091Y-124386291D01*
X147846995Y-124338198D01*
X147971701Y-124253448D01*
X147971702Y-124253447D01*
X148069024Y-124138282D01*
X148131791Y-124001187D01*
X148139992Y-123949409D01*
X148155378Y-123852266D01*
X148155500Y-123840627D01*
X148135037Y-123691246D01*
X148130638Y-123681080D01*
X148075155Y-123552866D01*
X148032345Y-123500000D01*
X147980268Y-123435690D01*
X147980266Y-123435688D01*
X147857361Y-123348344D01*
X147857360Y-123348344D01*
X147857359Y-123348343D01*
X147715496Y-123297269D01*
X147640308Y-123291748D01*
X147565120Y-123286226D01*
X147565119Y-123286226D01*
X147520669Y-123295189D01*
X147417315Y-123316029D01*
X147285433Y-123383226D01*
X147282967Y-123384483D01*
X147246177Y-123418313D01*
X147198687Y-123438081D01*
X147149602Y-123422697D01*
X147121888Y-123379361D01*
X147126903Y-123331654D01*
X147131791Y-123320977D01*
X147131792Y-123320975D01*
X147155378Y-123172056D01*
X147155500Y-123160417D01*
X147137069Y-123025871D01*
X147135037Y-123011035D01*
X147075155Y-122872656D01*
X147014416Y-122797650D01*
X146980268Y-122755480D01*
X146980266Y-122755478D01*
X146857361Y-122668134D01*
X146857360Y-122668134D01*
X146857359Y-122668133D01*
X146715496Y-122617059D01*
X146640307Y-122611537D01*
X146565120Y-122606016D01*
X146565119Y-122606016D01*
X146515852Y-122615950D01*
X146417315Y-122635819D01*
X146282969Y-122704272D01*
X146171980Y-122806331D01*
X146171979Y-122806332D01*
X146148716Y-122843852D01*
X146092525Y-122934478D01*
X146079945Y-122977778D01*
X146051974Y-123074058D01*
X146050459Y-123079271D01*
X146049067Y-123212236D01*
X146048880Y-123230045D01*
X146087905Y-123375685D01*
X146161386Y-123499935D01*
X146164658Y-123505468D01*
X146273485Y-123609829D01*
X146406368Y-123681080D01*
X146553517Y-123713972D01*
X146704091Y-123706081D01*
X146846995Y-123657988D01*
X146964497Y-123578134D01*
X147014365Y-123565515D01*
X147060678Y-123587903D01*
X147081764Y-123634822D01*
X147078980Y-123661310D01*
X147050459Y-123759480D01*
X147049232Y-123876641D01*
X147031133Y-123924791D01*
X146986318Y-123950043D01*
X146950221Y-123941843D01*
X146949409Y-123944874D01*
X146936600Y-123941442D01*
X146922473Y-123937657D01*
X146909802Y-123930341D01*
X146909800Y-123930341D01*
X146909799Y-123930340D01*
X146867011Y-123922795D01*
X146825059Y-123911555D01*
X146782376Y-123915289D01*
X143277608Y-123915289D01*
X143234929Y-123911555D01*
X143192971Y-123922797D01*
X143175789Y-123925826D01*
X143150186Y-123930341D01*
X143137517Y-123937656D01*
X143130134Y-123939634D01*
X143118978Y-123942623D01*
X143067734Y-123938138D01*
X143031362Y-123901764D01*
X143026880Y-123850519D01*
X143046343Y-123816811D01*
X143887755Y-122975399D01*
X144313319Y-122549835D01*
X147948880Y-122549835D01*
X147987905Y-122695475D01*
X148054283Y-122807714D01*
X148064658Y-122825258D01*
X148173485Y-122929619D01*
X148306368Y-123000870D01*
X148453517Y-123033762D01*
X148604091Y-123025871D01*
X148746995Y-122977778D01*
X148871701Y-122893028D01*
X148871702Y-122893027D01*
X148969024Y-122777862D01*
X149031791Y-122640767D01*
X149038248Y-122600000D01*
X149055378Y-122491846D01*
X149055500Y-122480207D01*
X149037748Y-122350615D01*
X149035037Y-122330825D01*
X148975155Y-122192446D01*
X148935255Y-122143174D01*
X148880268Y-122075270D01*
X148880266Y-122075268D01*
X148757361Y-121987924D01*
X148757360Y-121987924D01*
X148757359Y-121987923D01*
X148615496Y-121936849D01*
X148540308Y-121931328D01*
X148465120Y-121925806D01*
X148465119Y-121925806D01*
X148417316Y-121935445D01*
X148317315Y-121955609D01*
X148182969Y-122024062D01*
X148104978Y-122095778D01*
X148071979Y-122126122D01*
X148042258Y-122174058D01*
X147992525Y-122254268D01*
X147986776Y-122274058D01*
X147950459Y-122399060D01*
X147948880Y-122549835D01*
X144313319Y-122549835D01*
X145635655Y-121227500D01*
X145818287Y-121227500D01*
X145866625Y-121245093D01*
X145892345Y-121289642D01*
X145869188Y-121358055D01*
X145863952Y-121362869D01*
X145863951Y-121362870D01*
X145752962Y-121464929D01*
X145673507Y-121593076D01*
X145673507Y-121593077D01*
X145634911Y-121725926D01*
X145631441Y-121737869D01*
X145630342Y-121842856D01*
X145629862Y-121888643D01*
X145668887Y-122034283D01*
X145737507Y-122150313D01*
X145745640Y-122164066D01*
X145854467Y-122268427D01*
X145987350Y-122339678D01*
X146134499Y-122372570D01*
X146285073Y-122364679D01*
X146427977Y-122316586D01*
X146552683Y-122231836D01*
X146558243Y-122225257D01*
X146650006Y-122116670D01*
X146712773Y-121979575D01*
X146719239Y-121938748D01*
X146736360Y-121830654D01*
X146736482Y-121819015D01*
X146716019Y-121669634D01*
X146682890Y-121593077D01*
X146656137Y-121531254D01*
X146561248Y-121414076D01*
X146490781Y-121363997D01*
X146461571Y-121321655D01*
X146466412Y-121270444D01*
X146503039Y-121234325D01*
X146534343Y-121227500D01*
X148346359Y-121227500D01*
X148364657Y-121245047D01*
X148364658Y-121245048D01*
X148473485Y-121349409D01*
X148606368Y-121420660D01*
X148753517Y-121453552D01*
X148904091Y-121445661D01*
X149046995Y-121397568D01*
X149171701Y-121312818D01*
X149184517Y-121297652D01*
X149269024Y-121197652D01*
X149307548Y-121113507D01*
X151054726Y-121113507D01*
X151093751Y-121259147D01*
X151152245Y-121358055D01*
X151170504Y-121388930D01*
X151279331Y-121493291D01*
X151412214Y-121564542D01*
X151511624Y-121586763D01*
X151618881Y-121694020D01*
X151644034Y-121725926D01*
X151693935Y-121760415D01*
X151742702Y-121796435D01*
X151749511Y-121798826D01*
X151755453Y-121802933D01*
X151813300Y-121821227D01*
X151870492Y-121841312D01*
X151877702Y-121841595D01*
X151884588Y-121843773D01*
X151892313Y-121844381D01*
X151948609Y-121844381D01*
X152005828Y-121846629D01*
X152014308Y-121844381D01*
X152780088Y-121844381D01*
X152806981Y-121847564D01*
X152820426Y-121849155D01*
X152820427Y-121849155D01*
X152828943Y-121847600D01*
X152880043Y-121838267D01*
X152931481Y-121830534D01*
X152940055Y-121829245D01*
X152946566Y-121826118D01*
X152950114Y-121825470D01*
X152953663Y-121824822D01*
X152995802Y-121802933D01*
X153007472Y-121796871D01*
X153062148Y-121770616D01*
X153067449Y-121765715D01*
X153073855Y-121762388D01*
X153076212Y-121760375D01*
X153079744Y-121757358D01*
X153119521Y-121717581D01*
X153161605Y-121678679D01*
X153166014Y-121671088D01*
X153785026Y-121052077D01*
X153946995Y-120997569D01*
X154071701Y-120912818D01*
X154082533Y-120900000D01*
X154169024Y-120797652D01*
X154231791Y-120660557D01*
X154234247Y-120645048D01*
X154255378Y-120511636D01*
X154255500Y-120499997D01*
X154235037Y-120350616D01*
X154235037Y-120350615D01*
X154175155Y-120212236D01*
X154102608Y-120122648D01*
X154080268Y-120095060D01*
X154080266Y-120095058D01*
X153957361Y-120007714D01*
X153957360Y-120007714D01*
X153957359Y-120007713D01*
X153815496Y-119956639D01*
X153740308Y-119951118D01*
X153665120Y-119945596D01*
X153665119Y-119945596D01*
X153615852Y-119955530D01*
X153517315Y-119975399D01*
X153382969Y-120043852D01*
X153297271Y-120122655D01*
X153271979Y-120145912D01*
X153246800Y-120186522D01*
X153192525Y-120274058D01*
X153170283Y-120350615D01*
X153153085Y-120409811D01*
X152619517Y-120943381D01*
X152162037Y-120943381D01*
X152121894Y-120850616D01*
X152081001Y-120756118D01*
X152037426Y-120702307D01*
X151986114Y-120638942D01*
X151986112Y-120638940D01*
X151863207Y-120551596D01*
X151863206Y-120551596D01*
X151863205Y-120551595D01*
X151721342Y-120500521D01*
X151646153Y-120494999D01*
X151570966Y-120489478D01*
X151570965Y-120489478D01*
X151521698Y-120499412D01*
X151423161Y-120519281D01*
X151288815Y-120587734D01*
X151188466Y-120680009D01*
X151177825Y-120689794D01*
X151147635Y-120738486D01*
X151098371Y-120817940D01*
X151088878Y-120850615D01*
X151056305Y-120962732D01*
X151054726Y-121113507D01*
X149307548Y-121113507D01*
X149331791Y-121060557D01*
X149341754Y-120997652D01*
X149355378Y-120911636D01*
X149355500Y-120899997D01*
X149335037Y-120750616D01*
X149335037Y-120750615D01*
X149275155Y-120612236D01*
X149219779Y-120543852D01*
X149180268Y-120495060D01*
X149180266Y-120495058D01*
X149057361Y-120407714D01*
X149057360Y-120407714D01*
X149057359Y-120407713D01*
X148915496Y-120356639D01*
X148833465Y-120350615D01*
X148765120Y-120345596D01*
X148765119Y-120345596D01*
X148718903Y-120354915D01*
X148617315Y-120375399D01*
X148482969Y-120443852D01*
X148413519Y-120507714D01*
X148343064Y-120572500D01*
X145513710Y-120572500D01*
X145471020Y-120568765D01*
X145429064Y-120580008D01*
X145386278Y-120587552D01*
X145373608Y-120594867D01*
X145363264Y-120597639D01*
X145359478Y-120598653D01*
X145340309Y-120612076D01*
X145323896Y-120623568D01*
X145301540Y-120636475D01*
X145286272Y-120645290D01*
X145258725Y-120678120D01*
X141764346Y-124172500D01*
X137443817Y-124172500D01*
X137531792Y-123980346D01*
X137555378Y-123831426D01*
X137555500Y-123819787D01*
X137535037Y-123670406D01*
X137530775Y-123660557D01*
X137475155Y-123532026D01*
X137421446Y-123465701D01*
X137380268Y-123414850D01*
X137380266Y-123414848D01*
X137257361Y-123327504D01*
X137257360Y-123327504D01*
X137257359Y-123327503D01*
X137115496Y-123276429D01*
X137040308Y-123270908D01*
X136965120Y-123265386D01*
X136965119Y-123265386D01*
X136915852Y-123275320D01*
X136817315Y-123295189D01*
X136682969Y-123363642D01*
X136618747Y-123422697D01*
X136571979Y-123465702D01*
X136547324Y-123505467D01*
X136492525Y-123593848D01*
X136480621Y-123634822D01*
X136453696Y-123727500D01*
X136450459Y-123738641D01*
X136448900Y-123887552D01*
X136448880Y-123889415D01*
X136487905Y-124035055D01*
X136502078Y-124059021D01*
X136511540Y-124109583D01*
X136486287Y-124154398D01*
X136437350Y-124172500D01*
X131913699Y-124172500D01*
X131871020Y-124168766D01*
X131829062Y-124180008D01*
X131786278Y-124187552D01*
X131786276Y-124187553D01*
X131773607Y-124194867D01*
X131759478Y-124198653D01*
X131723898Y-124223566D01*
X131686273Y-124245290D01*
X131658725Y-124278120D01*
X128582621Y-127354225D01*
X128465119Y-127345595D01*
X128317317Y-127375398D01*
X128317315Y-127375399D01*
X128182969Y-127443852D01*
X128102964Y-127517420D01*
X128071979Y-127545912D01*
X128044619Y-127590039D01*
X127992525Y-127674058D01*
X127978613Y-127721943D01*
X127950459Y-127818850D01*
X127948880Y-127969625D01*
X127987905Y-128115265D01*
X128061873Y-128240338D01*
X128064658Y-128245048D01*
X128173485Y-128349409D01*
X128306368Y-128420660D01*
X128453517Y-128453552D01*
X128604091Y-128445661D01*
X128746995Y-128397568D01*
X128871701Y-128312818D01*
X128887230Y-128294442D01*
X128969024Y-128197652D01*
X129031791Y-128060557D01*
X129040048Y-128008424D01*
X129055378Y-127911636D01*
X129055500Y-127899999D01*
X129050682Y-127864829D01*
X129044374Y-127818780D01*
X131321283Y-125541872D01*
X131367903Y-125520132D01*
X131417590Y-125533446D01*
X131449653Y-125595834D01*
X131449169Y-125642055D01*
X131448880Y-125669625D01*
X131487905Y-125815265D01*
X131545253Y-125912235D01*
X131564658Y-125945048D01*
X131673485Y-126049409D01*
X131806368Y-126120660D01*
X131879943Y-126137106D01*
X131953516Y-126153552D01*
X131953517Y-126153552D01*
X132083581Y-126146736D01*
X132538926Y-126602081D01*
X132566473Y-126634911D01*
X132581741Y-126643726D01*
X132604097Y-126656633D01*
X132620510Y-126668125D01*
X132639679Y-126681548D01*
X132643465Y-126682562D01*
X132653809Y-126685334D01*
X132666479Y-126692649D01*
X132709265Y-126700193D01*
X132751221Y-126711436D01*
X132793911Y-126707701D01*
X133738155Y-126707701D01*
X133786493Y-126725294D01*
X133812213Y-126769843D01*
X133789056Y-126838256D01*
X133782972Y-126843851D01*
X133782969Y-126843852D01*
X133685539Y-126933443D01*
X133671979Y-126945912D01*
X133652737Y-126976946D01*
X133592525Y-127074058D01*
X133582346Y-127109095D01*
X133550459Y-127218850D01*
X133548880Y-127369625D01*
X133587905Y-127515265D01*
X133663271Y-127642702D01*
X133664658Y-127645048D01*
X133773485Y-127749409D01*
X133906368Y-127820660D01*
X134053517Y-127853552D01*
X134204091Y-127845661D01*
X134346995Y-127797568D01*
X134471701Y-127712818D01*
X134472702Y-127711634D01*
X134569024Y-127597652D01*
X134631791Y-127460557D01*
X134642552Y-127392613D01*
X134655378Y-127311636D01*
X134655500Y-127299997D01*
X134635037Y-127150616D01*
X134635037Y-127150615D01*
X134575155Y-127012236D01*
X134521446Y-126945911D01*
X134480268Y-126895060D01*
X134480266Y-126895058D01*
X134408700Y-126844198D01*
X134379490Y-126801856D01*
X134384331Y-126750645D01*
X134420958Y-126714526D01*
X134452262Y-126707701D01*
X138485755Y-126707701D01*
X138534093Y-126725294D01*
X138559813Y-126769843D01*
X138549667Y-126822528D01*
X138492525Y-126914688D01*
X138471492Y-126987085D01*
X138450459Y-127059480D01*
X138448880Y-127210255D01*
X138487905Y-127355895D01*
X138564320Y-127485106D01*
X138564658Y-127485678D01*
X138673485Y-127590039D01*
X138806368Y-127661290D01*
X138953517Y-127694182D01*
X139104091Y-127686291D01*
X139246995Y-127638198D01*
X139371701Y-127553448D01*
X139372785Y-127552166D01*
X139443800Y-127468130D01*
X141145666Y-127468130D01*
X141188349Y-127471864D01*
X141230301Y-127460624D01*
X141273089Y-127453079D01*
X141273090Y-127453078D01*
X141273092Y-127453078D01*
X141285763Y-127445762D01*
X141299890Y-127441977D01*
X141335467Y-127417066D01*
X141365033Y-127399996D01*
X141373098Y-127395340D01*
X141400650Y-127362504D01*
X142563157Y-126199997D01*
X143735655Y-125027500D01*
X146471044Y-125027500D01*
X148500428Y-127056885D01*
X148499881Y-127109095D01*
X148538906Y-127254735D01*
X148608009Y-127371582D01*
X148615659Y-127384518D01*
X148724486Y-127488879D01*
X148839622Y-127550614D01*
X148926793Y-127597355D01*
X148823104Y-127692701D01*
X148823103Y-127692702D01*
X148811336Y-127711681D01*
X148743649Y-127820848D01*
X148728643Y-127872500D01*
X148710594Y-127934626D01*
X148701583Y-127965641D01*
X148700311Y-128087147D01*
X148700004Y-128116415D01*
X148739029Y-128262055D01*
X148799749Y-128364727D01*
X148815782Y-128391838D01*
X148924609Y-128496199D01*
X149057492Y-128567450D01*
X149204641Y-128600342D01*
X149355215Y-128592451D01*
X149498119Y-128544358D01*
X149622825Y-128459608D01*
X149627943Y-128453552D01*
X149720148Y-128344442D01*
X149782915Y-128207347D01*
X149791443Y-128153505D01*
X149806502Y-128058426D01*
X149807400Y-127972723D01*
X150002480Y-127962499D01*
X150145384Y-127914406D01*
X150270090Y-127829656D01*
X150270091Y-127829655D01*
X150367413Y-127714490D01*
X150399206Y-127645048D01*
X150422882Y-127593337D01*
X150459001Y-127556711D01*
X150510212Y-127551870D01*
X150552554Y-127581081D01*
X150566452Y-127625429D01*
X150566246Y-127645047D01*
X150566098Y-127659204D01*
X150605123Y-127804844D01*
X150678287Y-127928558D01*
X150681876Y-127934627D01*
X150790703Y-128038988D01*
X150923586Y-128110239D01*
X151070735Y-128143131D01*
X151221309Y-128135240D01*
X151364213Y-128087147D01*
X151488919Y-128002397D01*
X151492929Y-127997652D01*
X151586242Y-127887231D01*
X151649009Y-127750136D01*
X151653474Y-127721943D01*
X151672596Y-127601215D01*
X151672718Y-127589576D01*
X151655837Y-127466346D01*
X151652255Y-127440194D01*
X151592373Y-127301815D01*
X151525189Y-127218850D01*
X151497486Y-127184639D01*
X151497484Y-127184637D01*
X151374579Y-127097293D01*
X151374578Y-127097293D01*
X151374577Y-127097292D01*
X151232714Y-127046218D01*
X151135622Y-127039088D01*
X151082338Y-127035175D01*
X151082337Y-127035175D01*
X150934535Y-127064977D01*
X150934533Y-127064978D01*
X150906725Y-127079147D01*
X150855670Y-127085416D01*
X150812529Y-127057400D01*
X150797489Y-127008208D01*
X150819412Y-126958969D01*
X152517824Y-125260557D01*
X154600883Y-123177499D01*
X157636297Y-123177499D01*
X157678980Y-123181233D01*
X157720932Y-123169993D01*
X157763720Y-123162448D01*
X157763721Y-123162447D01*
X157763723Y-123162447D01*
X157776394Y-123155131D01*
X157790521Y-123151346D01*
X157826098Y-123126435D01*
X157863728Y-123104709D01*
X157891277Y-123071877D01*
X157917625Y-123045529D01*
X157953517Y-123053552D01*
X157953518Y-123053552D01*
X158104091Y-123045661D01*
X158246995Y-122997568D01*
X158371701Y-122912818D01*
X158380209Y-122902750D01*
X158469024Y-122797652D01*
X158531791Y-122660557D01*
X158536929Y-122628115D01*
X158555378Y-122511636D01*
X158555500Y-122499997D01*
X158538044Y-122372570D01*
X158535037Y-122350615D01*
X158475155Y-122212236D01*
X158424777Y-122150024D01*
X158408030Y-122101387D01*
X158426465Y-122053364D01*
X158483219Y-122027500D01*
X159748287Y-122027500D01*
X159796625Y-122045093D01*
X159822345Y-122089642D01*
X159812199Y-122142327D01*
X159792525Y-122174058D01*
X159750459Y-122318850D01*
X159748880Y-122469625D01*
X159787905Y-122615265D01*
X159856121Y-122730612D01*
X159864658Y-122745048D01*
X159973485Y-122849409D01*
X160106368Y-122920660D01*
X160120846Y-122923896D01*
X160120912Y-122923911D01*
X160164248Y-122951625D01*
X160179631Y-123000711D01*
X160159863Y-123048201D01*
X160104508Y-123072500D01*
X159398106Y-123072500D01*
X159355416Y-123068765D01*
X159313460Y-123080008D01*
X159270674Y-123087552D01*
X159258004Y-123094867D01*
X159247660Y-123097639D01*
X159243874Y-123098653D01*
X159224705Y-123112076D01*
X159208292Y-123123568D01*
X159185936Y-123136475D01*
X159170668Y-123145290D01*
X159143121Y-123178120D01*
X157995651Y-124325591D01*
X157878149Y-124316961D01*
X157730347Y-124346764D01*
X157730345Y-124346765D01*
X157595999Y-124415218D01*
X157485726Y-124516619D01*
X157485009Y-124517278D01*
X157468533Y-124543852D01*
X157405555Y-124645424D01*
X157400159Y-124663997D01*
X157363489Y-124790216D01*
X157361910Y-124940991D01*
X157400935Y-125086631D01*
X157472543Y-125207714D01*
X157477688Y-125216414D01*
X157583811Y-125318182D01*
X157606521Y-125364335D01*
X157594251Y-125414290D01*
X157531761Y-125447657D01*
X153880051Y-125447657D01*
X153853152Y-125444474D01*
X153839704Y-125442882D01*
X153839703Y-125442882D01*
X153831182Y-125444438D01*
X153780052Y-125453776D01*
X153720077Y-125462793D01*
X153713569Y-125465918D01*
X153706467Y-125467215D01*
X153652647Y-125495172D01*
X153597983Y-125521422D01*
X153597981Y-125521424D01*
X153592682Y-125526321D01*
X153586278Y-125529648D01*
X153580384Y-125534681D01*
X153540596Y-125574469D01*
X153500392Y-125611634D01*
X153498526Y-125613359D01*
X153494119Y-125620946D01*
X152227200Y-126887867D01*
X152195288Y-126913024D01*
X152160799Y-126962927D01*
X152124778Y-127011694D01*
X152122386Y-127018505D01*
X152118284Y-127024440D01*
X152099992Y-127082277D01*
X152079904Y-127139481D01*
X152079621Y-127146692D01*
X152077443Y-127153578D01*
X152076835Y-127161303D01*
X152076835Y-127217582D01*
X152074586Y-127274817D01*
X152076835Y-127283301D01*
X152076836Y-127597760D01*
X152002958Y-127694038D01*
X152002958Y-127694039D01*
X152002957Y-127694040D01*
X151942467Y-127840075D01*
X151921835Y-127996790D01*
X151942467Y-128153505D01*
X152002957Y-128299540D01*
X152099182Y-128424943D01*
X152224585Y-128521168D01*
X152370620Y-128581658D01*
X152527335Y-128602290D01*
X152684050Y-128581658D01*
X152830085Y-128521168D01*
X152955488Y-128424943D01*
X153051713Y-128299540D01*
X153112203Y-128153505D01*
X153121968Y-128079332D01*
X153935963Y-128079332D01*
X153974988Y-128224972D01*
X154045641Y-128344440D01*
X154051741Y-128354755D01*
X154160568Y-128459116D01*
X154293451Y-128530367D01*
X154440600Y-128563259D01*
X154591174Y-128555368D01*
X154734078Y-128507275D01*
X154858784Y-128422525D01*
X154869700Y-128409608D01*
X154956107Y-128307359D01*
X155018874Y-128170264D01*
X155030165Y-128098973D01*
X155035321Y-128066415D01*
X155248880Y-128066415D01*
X155287905Y-128212055D01*
X155347496Y-128312818D01*
X155364658Y-128341838D01*
X155473485Y-128446199D01*
X155606368Y-128517450D01*
X155753517Y-128550342D01*
X155904091Y-128542451D01*
X156046995Y-128494358D01*
X156171701Y-128409608D01*
X156178758Y-128401257D01*
X156269024Y-128294442D01*
X156331791Y-128157347D01*
X156335292Y-128135240D01*
X156355378Y-128008426D01*
X156355500Y-127996787D01*
X156336898Y-127860988D01*
X156335037Y-127847405D01*
X156275155Y-127709026D01*
X156202132Y-127618850D01*
X156180268Y-127591850D01*
X156180266Y-127591848D01*
X156057361Y-127504504D01*
X156057360Y-127504504D01*
X156057359Y-127504503D01*
X155915496Y-127453429D01*
X155828168Y-127447016D01*
X155765120Y-127442386D01*
X155765119Y-127442386D01*
X155715852Y-127452320D01*
X155617315Y-127472189D01*
X155482969Y-127540642D01*
X155401621Y-127615445D01*
X155371979Y-127642702D01*
X155344953Y-127686291D01*
X155292525Y-127770848D01*
X155275440Y-127829655D01*
X155250459Y-127915640D01*
X155248880Y-128066415D01*
X155035321Y-128066415D01*
X155042461Y-128021343D01*
X155042583Y-128009704D01*
X155022120Y-127860323D01*
X155019190Y-127853552D01*
X154962238Y-127721943D01*
X154878755Y-127618850D01*
X154867351Y-127604767D01*
X154867349Y-127604765D01*
X154744444Y-127517421D01*
X154744443Y-127517421D01*
X154744442Y-127517420D01*
X154602579Y-127466346D01*
X154506440Y-127459286D01*
X154452203Y-127455303D01*
X154452202Y-127455303D01*
X154426146Y-127460557D01*
X154304398Y-127485106D01*
X154170052Y-127553559D01*
X154078007Y-127638198D01*
X154059062Y-127655619D01*
X154040045Y-127686291D01*
X153979608Y-127783765D01*
X153968834Y-127820849D01*
X153941295Y-127915641D01*
X153937542Y-127928558D01*
X153936342Y-128043189D01*
X153935963Y-128079332D01*
X153121968Y-128079332D01*
X153132835Y-127996790D01*
X153112203Y-127840075D01*
X153051713Y-127694040D01*
X152977835Y-127597760D01*
X152977835Y-127411436D01*
X154040615Y-126348657D01*
X156391178Y-126348657D01*
X156439516Y-126366250D01*
X156465236Y-126410799D01*
X156444380Y-126472410D01*
X156444979Y-126472781D01*
X156443383Y-126475355D01*
X156442077Y-126479213D01*
X156439551Y-126481536D01*
X156360096Y-126609683D01*
X156346456Y-126656633D01*
X156318030Y-126754475D01*
X156316451Y-126905250D01*
X156355476Y-127050890D01*
X156420774Y-127161303D01*
X156432229Y-127180673D01*
X156541056Y-127285034D01*
X156673939Y-127356285D01*
X156733609Y-127369623D01*
X156821087Y-127389177D01*
X156821088Y-127389177D01*
X156886120Y-127385769D01*
X156951153Y-127382361D01*
X157739055Y-128170264D01*
X157990671Y-128421880D01*
X158018218Y-128454710D01*
X158026702Y-128459608D01*
X158055842Y-128476432D01*
X158061718Y-128480546D01*
X158091424Y-128501347D01*
X158095210Y-128502361D01*
X158105554Y-128505133D01*
X158118224Y-128512448D01*
X158161010Y-128519992D01*
X158202966Y-128531235D01*
X158245656Y-128527500D01*
X179302813Y-128527500D01*
X179377320Y-128567450D01*
X179524469Y-128600342D01*
X179675043Y-128592451D01*
X179817947Y-128544358D01*
X179942653Y-128459608D01*
X179947771Y-128453552D01*
X180039976Y-128344442D01*
X180102743Y-128207347D01*
X180111271Y-128153505D01*
X180126330Y-128058426D01*
X180126452Y-128046787D01*
X180105989Y-127897404D01*
X180018006Y-127694088D01*
X185519708Y-127694088D01*
X185562391Y-127697822D01*
X185604343Y-127686582D01*
X185647131Y-127679037D01*
X185647132Y-127679036D01*
X185647134Y-127679036D01*
X185659805Y-127671720D01*
X185673932Y-127667935D01*
X185709509Y-127643024D01*
X185728324Y-127632161D01*
X185747140Y-127621298D01*
X185774692Y-127588462D01*
X185970542Y-127392612D01*
X190994539Y-127392612D01*
X191013140Y-127561102D01*
X191071395Y-127720290D01*
X191137625Y-127818851D01*
X191165940Y-127860988D01*
X191291318Y-127975074D01*
X191341640Y-128002396D01*
X191440288Y-128055957D01*
X191480151Y-128066415D01*
X191604251Y-128098973D01*
X191717248Y-128100748D01*
X191773745Y-128101635D01*
X191773746Y-128101635D01*
X191804538Y-128094583D01*
X191938980Y-128063791D01*
X192049066Y-128008424D01*
X192090419Y-127987626D01*
X192126945Y-127956429D01*
X193724179Y-127956429D01*
X193757112Y-128079332D01*
X193761413Y-128095383D01*
X193834642Y-128219208D01*
X193938474Y-128318779D01*
X194065257Y-128386759D01*
X194205651Y-128418141D01*
X194349313Y-128410612D01*
X194485658Y-128364727D01*
X194604638Y-128283868D01*
X194604639Y-128283867D01*
X194697494Y-128173988D01*
X194723854Y-128116413D01*
X194757379Y-128043189D01*
X194779884Y-127901100D01*
X194780000Y-127889997D01*
X194760476Y-127747473D01*
X194757189Y-127739877D01*
X194703343Y-127615446D01*
X194686121Y-127594179D01*
X194612810Y-127503646D01*
X194495548Y-127420312D01*
X194360194Y-127371582D01*
X194252003Y-127363637D01*
X194216721Y-127361046D01*
X194216720Y-127361046D01*
X194174184Y-127369623D01*
X194075701Y-127389481D01*
X193947522Y-127454791D01*
X193879412Y-127517421D01*
X193841627Y-127552166D01*
X193765821Y-127674430D01*
X193726750Y-127808915D01*
X193725686Y-127812576D01*
X193724694Y-127907316D01*
X193724179Y-127956429D01*
X192126945Y-127956429D01*
X192179390Y-127911636D01*
X192219316Y-127877536D01*
X192312776Y-127747473D01*
X192318235Y-127739876D01*
X192381461Y-127582598D01*
X192405345Y-127414775D01*
X192405500Y-127399996D01*
X192385135Y-127231714D01*
X192325218Y-127073146D01*
X192229203Y-126933443D01*
X192102639Y-126820679D01*
X191952829Y-126741359D01*
X191788425Y-126700063D01*
X191675416Y-126699472D01*
X191618912Y-126699176D01*
X191618911Y-126699176D01*
X191454084Y-126738747D01*
X191454082Y-126738748D01*
X191303450Y-126816495D01*
X191298654Y-126820679D01*
X191175713Y-126927925D01*
X191126976Y-126997271D01*
X191084717Y-127057400D01*
X191078238Y-127066618D01*
X191016666Y-127224546D01*
X191016665Y-127224549D01*
X190994539Y-127392612D01*
X185970542Y-127392612D01*
X186744955Y-126618199D01*
X187717622Y-125645533D01*
X187753512Y-125653552D01*
X187753517Y-125653552D01*
X187878995Y-125646976D01*
X187904091Y-125645661D01*
X188046995Y-125597568D01*
X188171701Y-125512818D01*
X188171702Y-125512817D01*
X188269024Y-125397652D01*
X188331791Y-125260557D01*
X188339540Y-125211634D01*
X188355378Y-125111636D01*
X188355500Y-125099997D01*
X188335037Y-124950616D01*
X188335037Y-124950615D01*
X188275155Y-124812236D01*
X188233306Y-124760557D01*
X188180266Y-124695057D01*
X188136560Y-124663997D01*
X188107350Y-124621655D01*
X188112191Y-124570444D01*
X188148818Y-124534325D01*
X188180122Y-124527500D01*
X193586296Y-124527500D01*
X193628979Y-124531234D01*
X193670931Y-124519994D01*
X193713719Y-124512449D01*
X193713720Y-124512448D01*
X193713722Y-124512448D01*
X193726393Y-124505132D01*
X193740520Y-124501347D01*
X193776097Y-124476436D01*
X193794912Y-124465573D01*
X193813728Y-124454710D01*
X193841280Y-124421874D01*
X194417625Y-123845529D01*
X194453517Y-123853552D01*
X194453520Y-123853552D01*
X194604091Y-123845661D01*
X194746995Y-123797568D01*
X194871701Y-123712818D01*
X194884519Y-123697650D01*
X194969024Y-123597652D01*
X195031791Y-123460557D01*
X195038482Y-123418313D01*
X195055378Y-123311636D01*
X195055500Y-123299997D01*
X195036380Y-123160417D01*
X195035037Y-123150615D01*
X194975155Y-123012236D01*
X194900998Y-122920660D01*
X194880268Y-122895060D01*
X194880266Y-122895058D01*
X194757361Y-122807714D01*
X194757360Y-122807714D01*
X194757359Y-122807713D01*
X194605803Y-122753149D01*
X194606385Y-122751532D01*
X194571267Y-122735747D01*
X194548881Y-122689434D01*
X194561502Y-122639566D01*
X194581424Y-122619644D01*
X194604639Y-122603867D01*
X194697494Y-122493988D01*
X194723656Y-122436845D01*
X194757379Y-122363189D01*
X194779884Y-122221100D01*
X194780000Y-122209997D01*
X194761908Y-122077927D01*
X194760476Y-122067472D01*
X194703343Y-121935446D01*
X194677601Y-121903657D01*
X194612810Y-121823646D01*
X194495548Y-121740312D01*
X194360194Y-121691582D01*
X194288457Y-121686314D01*
X194216721Y-121681046D01*
X194216720Y-121681046D01*
X194169714Y-121690524D01*
X194075701Y-121709481D01*
X193947522Y-121774791D01*
X193846429Y-121867750D01*
X193841627Y-121872166D01*
X193765821Y-121994430D01*
X193725686Y-122132575D01*
X193724179Y-122276429D01*
X193760408Y-122411634D01*
X193761413Y-122415383D01*
X193834642Y-122539208D01*
X193938474Y-122638779D01*
X194065257Y-122706759D01*
X194139505Y-122723355D01*
X194182840Y-122751069D01*
X194198223Y-122800155D01*
X194174001Y-122852098D01*
X194084412Y-122934479D01*
X194071979Y-122945912D01*
X194041789Y-122994604D01*
X193992525Y-123074058D01*
X193985380Y-123098653D01*
X193950459Y-123218850D01*
X193948685Y-123388160D01*
X193464346Y-123872500D01*
X185513699Y-123872500D01*
X185471020Y-123868766D01*
X185429062Y-123880008D01*
X185386278Y-123887552D01*
X185386276Y-123887553D01*
X185373607Y-123894867D01*
X185359478Y-123898653D01*
X185323898Y-123923566D01*
X185286273Y-123945290D01*
X185258725Y-123978120D01*
X184682621Y-124554225D01*
X184565119Y-124545595D01*
X184417317Y-124575398D01*
X184417315Y-124575399D01*
X184282969Y-124643852D01*
X184208603Y-124712235D01*
X184171979Y-124745912D01*
X184144553Y-124790146D01*
X184092525Y-124874058D01*
X184081434Y-124912235D01*
X184050459Y-125018850D01*
X184048685Y-125188160D01*
X182764346Y-126472500D01*
X182611572Y-126472500D01*
X182563234Y-126454907D01*
X182537514Y-126410358D01*
X182551912Y-126351521D01*
X182552696Y-126350500D01*
X182624378Y-126257082D01*
X182684868Y-126111047D01*
X182705500Y-125954332D01*
X182684868Y-125797617D01*
X182624378Y-125651582D01*
X182528153Y-125526179D01*
X182402750Y-125429954D01*
X182256715Y-125369464D01*
X182239425Y-125362302D01*
X182331792Y-125160555D01*
X182355378Y-125011636D01*
X182355500Y-124999997D01*
X182338248Y-124874058D01*
X182335037Y-124850615D01*
X182275155Y-124712236D01*
X182221446Y-124645911D01*
X182180268Y-124595060D01*
X182180266Y-124595058D01*
X182057361Y-124507714D01*
X182057360Y-124507714D01*
X182057359Y-124507713D01*
X181915496Y-124456639D01*
X181833465Y-124450615D01*
X181765120Y-124445596D01*
X181765119Y-124445596D01*
X181719920Y-124454710D01*
X181617315Y-124475399D01*
X181482969Y-124543852D01*
X181371980Y-124645911D01*
X181339745Y-124697900D01*
X173763546Y-124697900D01*
X173680266Y-124595058D01*
X173557361Y-124507714D01*
X173557360Y-124507714D01*
X173557359Y-124507713D01*
X173415496Y-124456639D01*
X173333465Y-124450615D01*
X173265120Y-124445596D01*
X173265119Y-124445596D01*
X173219920Y-124454710D01*
X173117315Y-124475399D01*
X172982969Y-124543852D01*
X172874219Y-124643852D01*
X172871979Y-124645912D01*
X172841789Y-124694604D01*
X172792525Y-124774058D01*
X172776999Y-124827500D01*
X172750459Y-124918850D01*
X172748880Y-125069625D01*
X172787905Y-125215265D01*
X172858229Y-125334178D01*
X172867691Y-125384740D01*
X172842439Y-125429555D01*
X172793501Y-125447657D01*
X171899030Y-125447657D01*
X171826530Y-125392026D01*
X171802750Y-125373779D01*
X171656715Y-125313289D01*
X171500000Y-125292657D01*
X171343285Y-125313289D01*
X171197250Y-125373779D01*
X171071847Y-125470004D01*
X170975622Y-125595407D01*
X170915132Y-125741442D01*
X170894500Y-125898157D01*
X170915132Y-126054872D01*
X170975622Y-126200907D01*
X171008441Y-126243678D01*
X171071847Y-126326310D01*
X171086613Y-126337640D01*
X171114251Y-126381024D01*
X171107537Y-126432024D01*
X171069612Y-126466776D01*
X171040834Y-126472500D01*
X162759166Y-126472500D01*
X162710828Y-126454907D01*
X162685108Y-126410358D01*
X162694041Y-126359700D01*
X162713387Y-126337640D01*
X162728153Y-126326310D01*
X162791559Y-126243678D01*
X162824378Y-126200907D01*
X162884868Y-126054872D01*
X162905500Y-125898157D01*
X162884868Y-125741442D01*
X162824378Y-125595407D01*
X162728153Y-125470004D01*
X162602750Y-125373779D01*
X162456715Y-125313289D01*
X162300000Y-125292657D01*
X162143285Y-125313289D01*
X161997250Y-125373779D01*
X161900970Y-125447657D01*
X158288629Y-125447657D01*
X158240291Y-125430064D01*
X158214571Y-125385515D01*
X158223504Y-125334857D01*
X158246360Y-125310261D01*
X158284731Y-125284184D01*
X158284732Y-125284183D01*
X158382054Y-125169018D01*
X158444821Y-125031923D01*
X158451040Y-124992657D01*
X158468408Y-124883002D01*
X158468530Y-124871365D01*
X158466947Y-124859813D01*
X158457404Y-124790146D01*
X158730929Y-124516621D01*
X165999547Y-124516621D01*
X166038572Y-124662261D01*
X166114245Y-124790217D01*
X166115325Y-124792044D01*
X166224152Y-124896405D01*
X166357035Y-124967656D01*
X166504184Y-125000548D01*
X166654758Y-124992657D01*
X166797662Y-124944564D01*
X166922368Y-124859814D01*
X166946520Y-124831234D01*
X167019691Y-124744648D01*
X167082458Y-124607553D01*
X167087551Y-124575398D01*
X167106045Y-124458632D01*
X167106167Y-124446993D01*
X167085704Y-124297612D01*
X167077269Y-124278120D01*
X167025822Y-124159232D01*
X166985617Y-124109583D01*
X166930935Y-124042056D01*
X166930933Y-124042054D01*
X166808028Y-123954710D01*
X166808027Y-123954710D01*
X166808026Y-123954709D01*
X166666163Y-123903635D01*
X166546766Y-123894867D01*
X166515787Y-123892592D01*
X166515786Y-123892592D01*
X166504504Y-123894867D01*
X166367982Y-123922395D01*
X166233636Y-123990848D01*
X166159498Y-124059021D01*
X166122646Y-124092908D01*
X166106561Y-124118851D01*
X166043192Y-124221054D01*
X166035970Y-124245912D01*
X166001126Y-124365846D01*
X165999547Y-124516621D01*
X158730929Y-124516621D01*
X159520051Y-123727500D01*
X170646359Y-123727500D01*
X170664658Y-123745048D01*
X170773485Y-123849409D01*
X170906368Y-123920660D01*
X171053517Y-123953552D01*
X171204091Y-123945661D01*
X171346995Y-123897568D01*
X171471701Y-123812818D01*
X171484588Y-123797568D01*
X171569024Y-123697652D01*
X171614808Y-123597652D01*
X171636080Y-123551190D01*
X171637686Y-123551925D01*
X171656290Y-123518366D01*
X171704315Y-123499935D01*
X171758796Y-123521950D01*
X171958720Y-123721874D01*
X171986273Y-123754710D01*
X172023900Y-123776435D01*
X172059478Y-123801347D01*
X172073607Y-123805133D01*
X172086276Y-123812447D01*
X172086278Y-123812448D01*
X172111023Y-123816811D01*
X172129064Y-123819992D01*
X172171020Y-123831235D01*
X172213710Y-123827500D01*
X174546359Y-123827500D01*
X174564658Y-123845048D01*
X174673485Y-123949409D01*
X174806368Y-124020660D01*
X174953517Y-124053552D01*
X175104091Y-124045661D01*
X175246995Y-123997568D01*
X175371701Y-123912818D01*
X175379461Y-123903635D01*
X175469024Y-123797652D01*
X175531791Y-123660557D01*
X175539056Y-123614688D01*
X175555378Y-123511636D01*
X175555500Y-123499997D01*
X175535037Y-123350616D01*
X175534054Y-123348344D01*
X175475155Y-123212236D01*
X175403353Y-123123568D01*
X175380268Y-123095060D01*
X175380266Y-123095058D01*
X175257361Y-123007714D01*
X175257360Y-123007714D01*
X175257359Y-123007713D01*
X175115496Y-122956639D01*
X175040307Y-122951117D01*
X174965120Y-122945596D01*
X174965119Y-122945596D01*
X174925663Y-122953552D01*
X174817315Y-122975399D01*
X174682969Y-123043852D01*
X174623373Y-123098653D01*
X174543064Y-123172500D01*
X172335654Y-123172500D01*
X171755766Y-122592612D01*
X190994539Y-122592612D01*
X191013140Y-122761102D01*
X191071395Y-122920290D01*
X191133180Y-123012236D01*
X191165940Y-123060988D01*
X191291318Y-123175074D01*
X191347357Y-123205500D01*
X191440288Y-123255957D01*
X191470149Y-123263791D01*
X191604251Y-123298973D01*
X191717248Y-123300748D01*
X191773745Y-123301635D01*
X191773746Y-123301635D01*
X191804538Y-123294583D01*
X191938980Y-123263791D01*
X192041488Y-123212235D01*
X192090419Y-123187626D01*
X192164471Y-123124378D01*
X192219316Y-123077536D01*
X192309792Y-122951625D01*
X192318235Y-122939876D01*
X192381461Y-122782598D01*
X192405345Y-122614775D01*
X192405500Y-122599996D01*
X192385135Y-122431714D01*
X192325218Y-122273146D01*
X192229203Y-122133443D01*
X192102639Y-122020679D01*
X191952829Y-121941359D01*
X191788425Y-121900063D01*
X191675416Y-121899472D01*
X191618912Y-121899176D01*
X191618911Y-121899176D01*
X191454084Y-121938747D01*
X191454082Y-121938748D01*
X191303450Y-122016495D01*
X191303447Y-122016497D01*
X191303448Y-122016497D01*
X191175713Y-122127925D01*
X191078238Y-122266618D01*
X191018683Y-122419372D01*
X191016665Y-122424549D01*
X190994539Y-122592612D01*
X171755766Y-122592612D01*
X171644359Y-122481205D01*
X171646193Y-122469625D01*
X171655378Y-122411636D01*
X171655500Y-122399997D01*
X171637229Y-122266615D01*
X171635037Y-122250615D01*
X171575155Y-122112236D01*
X171575154Y-122112235D01*
X171538486Y-122027500D01*
X186446359Y-122027500D01*
X186464658Y-122045048D01*
X186573485Y-122149409D01*
X186706368Y-122220660D01*
X186853517Y-122253552D01*
X187004091Y-122245661D01*
X187146995Y-122197568D01*
X187271701Y-122112818D01*
X187286357Y-122095475D01*
X187369024Y-121997652D01*
X187431791Y-121860557D01*
X187436527Y-121830654D01*
X187455378Y-121711636D01*
X187455500Y-121699997D01*
X187437992Y-121572185D01*
X187435037Y-121550615D01*
X187375155Y-121412236D01*
X187294647Y-121312817D01*
X187280268Y-121295060D01*
X187280266Y-121295058D01*
X187157361Y-121207714D01*
X187157360Y-121207714D01*
X187157359Y-121207713D01*
X187015496Y-121156639D01*
X186917042Y-121149409D01*
X186865120Y-121145596D01*
X186865119Y-121145596D01*
X186825663Y-121153552D01*
X186717315Y-121175399D01*
X186582969Y-121243852D01*
X186507970Y-121312817D01*
X186443064Y-121372500D01*
X183634756Y-121372500D01*
X183731792Y-121160555D01*
X183755378Y-121011636D01*
X183755500Y-120999997D01*
X183746460Y-120933999D01*
X192539903Y-120933999D01*
X192614264Y-121078069D01*
X192726121Y-121206294D01*
X192865340Y-121304138D01*
X193023877Y-121365951D01*
X193154903Y-121383200D01*
X193496000Y-121383200D01*
X194003999Y-121383200D01*
X194341321Y-121383200D01*
X194468930Y-121367757D01*
X194628105Y-121307610D01*
X194768342Y-121211229D01*
X194881538Y-121084180D01*
X194961054Y-120934000D01*
X194003999Y-120933999D01*
X196869903Y-120933999D01*
X196944264Y-121078069D01*
X197056121Y-121206294D01*
X197195340Y-121304138D01*
X197353877Y-121365951D01*
X197484903Y-121383200D01*
X197676000Y-121383200D01*
X198183999Y-121383200D01*
X198371321Y-121383200D01*
X198498930Y-121367757D01*
X198658105Y-121307610D01*
X198798342Y-121211229D01*
X198911538Y-121084180D01*
X198991054Y-120934000D01*
X198183999Y-120933999D01*
X198183999Y-121383200D01*
X197676000Y-121383200D01*
X197676000Y-120934000D01*
X196869903Y-120933999D01*
X194003999Y-120933999D01*
X194003999Y-121383200D01*
X193496000Y-121383200D01*
X193496000Y-120934000D01*
X192539903Y-120933999D01*
X183746460Y-120933999D01*
X183735037Y-120850616D01*
X183721291Y-120818850D01*
X183675155Y-120712236D01*
X183599533Y-120618851D01*
X183580268Y-120595060D01*
X183580266Y-120595058D01*
X183457361Y-120507714D01*
X183457360Y-120507714D01*
X183457359Y-120507713D01*
X183315496Y-120456639D01*
X183240307Y-120451117D01*
X183165120Y-120445596D01*
X183165119Y-120445596D01*
X183115852Y-120455530D01*
X183017315Y-120475399D01*
X182882969Y-120543852D01*
X182801409Y-120618850D01*
X182743064Y-120672500D01*
X177534756Y-120672500D01*
X177631792Y-120460555D01*
X177637264Y-120426000D01*
X192538946Y-120426000D01*
X193496001Y-120426001D01*
X193496001Y-119976800D01*
X194004000Y-119976800D01*
X194004000Y-120426000D01*
X194960097Y-120426001D01*
X194960097Y-120426000D01*
X196868946Y-120426000D01*
X197676001Y-120426001D01*
X197676001Y-119976800D01*
X198184000Y-119976800D01*
X198184000Y-120426000D01*
X198990097Y-120426001D01*
X198915736Y-120281931D01*
X198803879Y-120153706D01*
X198664660Y-120055862D01*
X198506123Y-119994049D01*
X198375097Y-119976800D01*
X198184000Y-119976800D01*
X197676001Y-119976800D01*
X197488679Y-119976800D01*
X197361070Y-119992243D01*
X197201895Y-120052390D01*
X197061658Y-120148771D01*
X196948462Y-120275820D01*
X196868946Y-120426000D01*
X194960097Y-120426000D01*
X194885736Y-120281931D01*
X194773879Y-120153706D01*
X194634660Y-120055862D01*
X194476123Y-119994049D01*
X194345097Y-119976800D01*
X194004000Y-119976800D01*
X193496001Y-119976800D01*
X193158679Y-119976800D01*
X193031070Y-119992243D01*
X192871895Y-120052390D01*
X192731658Y-120148771D01*
X192618462Y-120275820D01*
X192538946Y-120426000D01*
X177637264Y-120426000D01*
X177655378Y-120311636D01*
X177655500Y-120299997D01*
X177635037Y-120150616D01*
X177634239Y-120148771D01*
X177575155Y-120012236D01*
X177480266Y-119895058D01*
X177398566Y-119836997D01*
X177369357Y-119794656D01*
X177374198Y-119743444D01*
X177410825Y-119707325D01*
X177442129Y-119700500D01*
X199799500Y-119700500D01*
X199799501Y-130199500D01*
X184912833Y-130199500D01*
X184864495Y-130181907D01*
X184838775Y-130137358D01*
X184847708Y-130086700D01*
X184872825Y-130060626D01*
X184942845Y-130016630D01*
X184953971Y-130007757D01*
X184977864Y-129988703D01*
X185088703Y-129877864D01*
X185116627Y-129842849D01*
X185200023Y-129710124D01*
X185200023Y-129710123D01*
X185200026Y-129710119D01*
X185219453Y-129669778D01*
X185237570Y-129618003D01*
X185252968Y-129573999D01*
X192539903Y-129573999D01*
X192614264Y-129718069D01*
X192726121Y-129846294D01*
X192865340Y-129944138D01*
X193023877Y-130005951D01*
X193154903Y-130023200D01*
X193496000Y-130023200D01*
X194003999Y-130023200D01*
X194341321Y-130023200D01*
X194468930Y-130007757D01*
X194628105Y-129947610D01*
X194768342Y-129851229D01*
X194881538Y-129724180D01*
X194961054Y-129574000D01*
X194003999Y-129573999D01*
X196869903Y-129573999D01*
X196944264Y-129718069D01*
X197056121Y-129846294D01*
X197195340Y-129944138D01*
X197353877Y-130005951D01*
X197484903Y-130023200D01*
X197676000Y-130023200D01*
X198183999Y-130023200D01*
X198371321Y-130023200D01*
X198498930Y-130007757D01*
X198658105Y-129947610D01*
X198798342Y-129851229D01*
X198911538Y-129724180D01*
X198991054Y-129574000D01*
X198183999Y-129573999D01*
X198183999Y-130023200D01*
X197676000Y-130023200D01*
X197676000Y-129574000D01*
X196869903Y-129573999D01*
X194003999Y-129573999D01*
X194003999Y-130023200D01*
X193496000Y-130023200D01*
X193496000Y-129574000D01*
X192539903Y-129573999D01*
X185252968Y-129573999D01*
X185271225Y-129521827D01*
X185272323Y-129517015D01*
X185281193Y-129478157D01*
X185298743Y-129322392D01*
X185298743Y-129277608D01*
X185281193Y-129121843D01*
X185271226Y-129078178D01*
X185266965Y-129066000D01*
X192538946Y-129066000D01*
X193496001Y-129066001D01*
X193496001Y-128616800D01*
X194004000Y-128616800D01*
X194004000Y-129066000D01*
X194960097Y-129066001D01*
X194960097Y-129066000D01*
X196868946Y-129066000D01*
X197676001Y-129066001D01*
X197676001Y-128616800D01*
X198184000Y-128616800D01*
X198184000Y-129066000D01*
X198990097Y-129066001D01*
X198915736Y-128921931D01*
X198803879Y-128793706D01*
X198664660Y-128695862D01*
X198506123Y-128634049D01*
X198375097Y-128616800D01*
X198184000Y-128616800D01*
X197676001Y-128616800D01*
X197488679Y-128616800D01*
X197361070Y-128632243D01*
X197201895Y-128692390D01*
X197061658Y-128788771D01*
X196948462Y-128915820D01*
X196868946Y-129066000D01*
X194960097Y-129066000D01*
X194885736Y-128921931D01*
X194773879Y-128793706D01*
X194634660Y-128695862D01*
X194476123Y-128634049D01*
X194345097Y-128616800D01*
X194004000Y-128616800D01*
X193496001Y-128616800D01*
X193158679Y-128616800D01*
X193031070Y-128632243D01*
X192871895Y-128692390D01*
X192731658Y-128788771D01*
X192618462Y-128915820D01*
X192538946Y-129066000D01*
X185266965Y-129066000D01*
X185219454Y-128930225D01*
X185212517Y-128915820D01*
X185200026Y-128889881D01*
X185200023Y-128889876D01*
X185116627Y-128757151D01*
X185088703Y-128722136D01*
X184977864Y-128611297D01*
X184942849Y-128583373D01*
X184942848Y-128583372D01*
X184942845Y-128583370D01*
X184853927Y-128527500D01*
X184810124Y-128499977D01*
X184802279Y-128496199D01*
X184769777Y-128480546D01*
X184631384Y-128432120D01*
X184621828Y-128428775D01*
X184591637Y-128421884D01*
X184578157Y-128418807D01*
X184578154Y-128418807D01*
X184578151Y-128418806D01*
X184458753Y-128405354D01*
X184422392Y-128401257D01*
X184400000Y-128400000D01*
X183000000Y-128400000D01*
X182977608Y-128401257D01*
X182941247Y-128405354D01*
X182821849Y-128418806D01*
X182821846Y-128418807D01*
X182821843Y-128418807D01*
X182808363Y-128421884D01*
X182778172Y-128428775D01*
X182768616Y-128432120D01*
X182630223Y-128480546D01*
X182597721Y-128496199D01*
X182589876Y-128499977D01*
X182546073Y-128527500D01*
X182457155Y-128583370D01*
X182457152Y-128583372D01*
X182457151Y-128583373D01*
X182422136Y-128611297D01*
X182311297Y-128722136D01*
X182283373Y-128757151D01*
X182199977Y-128889876D01*
X182199974Y-128889881D01*
X182187483Y-128915820D01*
X182180546Y-128930225D01*
X182128774Y-129078178D01*
X182118807Y-129121843D01*
X182101257Y-129277608D01*
X182101257Y-129322392D01*
X182118807Y-129478157D01*
X182118808Y-129478161D01*
X182128772Y-129521815D01*
X182128774Y-129521820D01*
X182128774Y-129521821D01*
X182162430Y-129618002D01*
X182180546Y-129669774D01*
X182199977Y-129710124D01*
X182283373Y-129842849D01*
X182311297Y-129877864D01*
X182422136Y-129988703D01*
X182446029Y-130007757D01*
X182457155Y-130016630D01*
X182527175Y-130060626D01*
X182558744Y-130101240D01*
X182556821Y-130152644D01*
X182522306Y-130190785D01*
X182487167Y-130199500D01*
X100200500Y-130199500D01*
X100200500Y-129292612D01*
X124244539Y-129292612D01*
X124263140Y-129461102D01*
X124321395Y-129620290D01*
X124381761Y-129710124D01*
X124415940Y-129760988D01*
X124541318Y-129875074D01*
X124609405Y-129912041D01*
X124690288Y-129955957D01*
X124720149Y-129963791D01*
X124854251Y-129998973D01*
X124967248Y-130000748D01*
X125023745Y-130001635D01*
X125023746Y-130001635D01*
X125054538Y-129994583D01*
X125188980Y-129963791D01*
X125289741Y-129913113D01*
X125340419Y-129887626D01*
X125404867Y-129832581D01*
X125469316Y-129777536D01*
X125568234Y-129639877D01*
X125568235Y-129639876D01*
X125631461Y-129482598D01*
X125655345Y-129314775D01*
X125655500Y-129299996D01*
X125635135Y-129131714D01*
X125575218Y-128973146D01*
X125479203Y-128833443D01*
X125352639Y-128720679D01*
X125202829Y-128641359D01*
X125038425Y-128600063D01*
X124925416Y-128599472D01*
X124868912Y-128599176D01*
X124868911Y-128599176D01*
X124704084Y-128638747D01*
X124704082Y-128638748D01*
X124553450Y-128716495D01*
X124546984Y-128722136D01*
X124425713Y-128827925D01*
X124425711Y-128827928D01*
X124359645Y-128921931D01*
X124328238Y-128966618D01*
X124284744Y-129078178D01*
X124266665Y-129124549D01*
X124244539Y-129292612D01*
X100200500Y-129292612D01*
X100200500Y-128250500D01*
X115521919Y-128250500D01*
X115522476Y-128250373D01*
X115545527Y-128250393D01*
X115545528Y-128250393D01*
X115566467Y-128240338D01*
X115589117Y-128235171D01*
X115589118Y-128235170D01*
X115589119Y-128235170D01*
X115607147Y-128220804D01*
X115650473Y-128200000D01*
X115700000Y-128200000D01*
X115700000Y-128096529D01*
X115700313Y-128095879D01*
X115700334Y-128072845D01*
X115700500Y-128072123D01*
X115700500Y-126969625D01*
X118148880Y-126969625D01*
X118187904Y-127115263D01*
X118187905Y-127115265D01*
X118264658Y-127245048D01*
X118264660Y-127245050D01*
X118308468Y-127287061D01*
X118249380Y-127382361D01*
X118192525Y-127474058D01*
X118189149Y-127485678D01*
X118150459Y-127618850D01*
X118148880Y-127769625D01*
X118187905Y-127915265D01*
X118263559Y-128043189D01*
X118264658Y-128045048D01*
X118373485Y-128149409D01*
X118506368Y-128220660D01*
X118653517Y-128253552D01*
X118804091Y-128245661D01*
X118946995Y-128197568D01*
X119071701Y-128112818D01*
X119071702Y-128112817D01*
X119169024Y-127997652D01*
X119231791Y-127860557D01*
X119238408Y-127818780D01*
X119255378Y-127711636D01*
X119255500Y-127699997D01*
X119235037Y-127550614D01*
X119175155Y-127412236D01*
X119083419Y-127298952D01*
X119169024Y-127197652D01*
X119231791Y-127060557D01*
X119239444Y-127012236D01*
X119255378Y-126911636D01*
X119255500Y-126899997D01*
X119230821Y-126719838D01*
X119296995Y-126697568D01*
X119389192Y-126634911D01*
X119458939Y-126587511D01*
X119523485Y-126649409D01*
X119656368Y-126720660D01*
X119803517Y-126753552D01*
X119954091Y-126745661D01*
X120096995Y-126697568D01*
X120258939Y-126587511D01*
X120323485Y-126649409D01*
X120456368Y-126720660D01*
X120603517Y-126753552D01*
X120754091Y-126745661D01*
X120896995Y-126697568D01*
X121058939Y-126587511D01*
X121123485Y-126649409D01*
X121216300Y-126699176D01*
X121275937Y-126731153D01*
X121250459Y-126818850D01*
X121248880Y-126969625D01*
X121287904Y-127115263D01*
X121287905Y-127115265D01*
X121364658Y-127245048D01*
X121364660Y-127245050D01*
X121408468Y-127287061D01*
X121349380Y-127382361D01*
X121292525Y-127474058D01*
X121289149Y-127485678D01*
X121250459Y-127618850D01*
X121248880Y-127769625D01*
X121287905Y-127915265D01*
X121363559Y-128043189D01*
X121364658Y-128045048D01*
X121473485Y-128149409D01*
X121606368Y-128220660D01*
X121753517Y-128253552D01*
X121904091Y-128245661D01*
X122046995Y-128197568D01*
X122171701Y-128112818D01*
X122171702Y-128112817D01*
X122269024Y-127997652D01*
X122331791Y-127860557D01*
X122338408Y-127818780D01*
X122355378Y-127711636D01*
X122355500Y-127699997D01*
X122335037Y-127550614D01*
X122275155Y-127412236D01*
X122183419Y-127298952D01*
X122269024Y-127197652D01*
X122331791Y-127060557D01*
X122339444Y-127012236D01*
X122355378Y-126911636D01*
X122355500Y-126899997D01*
X122335037Y-126750616D01*
X122332865Y-126745596D01*
X122275155Y-126612236D01*
X122180266Y-126495058D01*
X122057361Y-126407714D01*
X122057360Y-126407714D01*
X122057359Y-126407713D01*
X121978802Y-126379431D01*
X122005378Y-126211636D01*
X122005500Y-126199997D01*
X121985037Y-126050614D01*
X121925155Y-125912236D01*
X121833419Y-125798952D01*
X121919024Y-125697652D01*
X121981791Y-125560557D01*
X121986686Y-125529650D01*
X122005378Y-125411636D01*
X122005500Y-125399997D01*
X121985037Y-125250614D01*
X121925155Y-125112236D01*
X121833419Y-124998952D01*
X121919024Y-124897652D01*
X121977639Y-124769625D01*
X124148880Y-124769625D01*
X124187905Y-124915265D01*
X124249165Y-125018850D01*
X124264658Y-125045048D01*
X124373485Y-125149409D01*
X124373489Y-125149411D01*
X124428405Y-125202073D01*
X124382971Y-125243851D01*
X124382969Y-125243852D01*
X124284740Y-125334178D01*
X124271979Y-125345912D01*
X124260122Y-125365036D01*
X124192525Y-125474058D01*
X124174912Y-125534682D01*
X124152055Y-125613359D01*
X124150459Y-125618851D01*
X124148895Y-125768239D01*
X124148880Y-125769625D01*
X124187905Y-125915265D01*
X124263840Y-126043664D01*
X124264658Y-126045048D01*
X124373485Y-126149409D01*
X124506368Y-126220660D01*
X124653517Y-126253552D01*
X124804090Y-126245661D01*
X124841929Y-126243678D01*
X124848880Y-126269620D01*
X124848880Y-126269623D01*
X124887331Y-126413122D01*
X124887906Y-126415267D01*
X124937373Y-126498911D01*
X124964658Y-126545048D01*
X125073485Y-126649409D01*
X125206368Y-126720660D01*
X125353517Y-126753552D01*
X125504091Y-126745661D01*
X125646995Y-126697568D01*
X125771701Y-126612818D01*
X125772194Y-126612235D01*
X125869024Y-126497652D01*
X125931791Y-126360557D01*
X125946193Y-126269625D01*
X125955378Y-126211636D01*
X125955500Y-126199997D01*
X125935037Y-126050616D01*
X125935037Y-126050615D01*
X125875155Y-125912236D01*
X125821446Y-125845911D01*
X125780268Y-125795060D01*
X125780266Y-125795058D01*
X125657361Y-125707714D01*
X125644995Y-125698926D01*
X125646992Y-125697569D01*
X125646995Y-125697568D01*
X125771702Y-125612817D01*
X125869024Y-125497652D01*
X125931791Y-125360557D01*
X125934330Y-125344527D01*
X125955378Y-125211636D01*
X125955500Y-125199997D01*
X125935037Y-125050616D01*
X125932628Y-125045048D01*
X125875155Y-124912236D01*
X125842058Y-124871365D01*
X125780268Y-124795060D01*
X125780266Y-124795058D01*
X125657361Y-124707714D01*
X125644995Y-124698926D01*
X125646992Y-124697569D01*
X125646995Y-124697568D01*
X125771702Y-124612817D01*
X125869024Y-124497652D01*
X125931791Y-124360557D01*
X125939444Y-124312236D01*
X125955378Y-124211636D01*
X125955500Y-124199997D01*
X125935037Y-124050616D01*
X125931332Y-124042054D01*
X125875155Y-123912236D01*
X125826591Y-123852264D01*
X125780268Y-123795060D01*
X125780266Y-123795058D01*
X125657361Y-123707714D01*
X125657360Y-123707714D01*
X125657359Y-123707713D01*
X125515496Y-123656639D01*
X125440308Y-123651118D01*
X125365120Y-123645596D01*
X125365119Y-123645596D01*
X125315852Y-123655530D01*
X125217315Y-123675399D01*
X125082969Y-123743852D01*
X124972252Y-123845661D01*
X124971979Y-123845912D01*
X124967242Y-123853552D01*
X124892525Y-123974058D01*
X124871723Y-124045661D01*
X124838980Y-124158362D01*
X124672510Y-124146139D01*
X124665120Y-124145596D01*
X124665119Y-124145596D01*
X124621467Y-124154398D01*
X124517315Y-124175399D01*
X124382969Y-124243852D01*
X124308603Y-124312235D01*
X124271979Y-124345912D01*
X124259619Y-124365847D01*
X124192525Y-124474058D01*
X124178966Y-124520729D01*
X124150459Y-124618850D01*
X124148880Y-124769625D01*
X121977639Y-124769625D01*
X121981791Y-124760557D01*
X121989444Y-124712236D01*
X122005378Y-124611636D01*
X122005500Y-124599997D01*
X121985037Y-124450616D01*
X121985037Y-124450615D01*
X121925155Y-124312236D01*
X121853352Y-124223567D01*
X121830268Y-124195060D01*
X121830266Y-124195058D01*
X121707361Y-124107714D01*
X121707360Y-124107714D01*
X121707359Y-124107713D01*
X121565496Y-124056639D01*
X121483465Y-124050615D01*
X121415120Y-124045596D01*
X121415119Y-124045596D01*
X121375663Y-124053552D01*
X121267315Y-124075399D01*
X121132969Y-124143852D01*
X121021980Y-124245911D01*
X120942525Y-124374058D01*
X120930567Y-124415218D01*
X120900459Y-124518850D01*
X120898880Y-124669625D01*
X120937093Y-124812235D01*
X120937905Y-124815265D01*
X121014658Y-124945048D01*
X121014660Y-124945050D01*
X121058468Y-124987061D01*
X120996732Y-125086631D01*
X120942525Y-125174058D01*
X120932747Y-125207714D01*
X120900459Y-125318850D01*
X120898880Y-125469625D01*
X120902640Y-125483657D01*
X120927847Y-125577726D01*
X120931353Y-125590811D01*
X120926871Y-125642055D01*
X120890498Y-125678429D01*
X120833243Y-125681029D01*
X120765496Y-125656639D01*
X120690307Y-125651117D01*
X120615120Y-125645596D01*
X120615119Y-125645596D01*
X120585438Y-125651581D01*
X120467315Y-125675399D01*
X120332969Y-125743852D01*
X120256787Y-125813905D01*
X120151742Y-125739254D01*
X120107361Y-125707714D01*
X120107360Y-125707714D01*
X120107359Y-125707713D01*
X119965496Y-125656639D01*
X119890307Y-125651117D01*
X119815120Y-125645596D01*
X119815119Y-125645596D01*
X119659843Y-125676905D01*
X119608981Y-125669213D01*
X119574964Y-125630628D01*
X119576605Y-125571884D01*
X119581791Y-125560557D01*
X119581792Y-125560555D01*
X119605378Y-125411636D01*
X119605500Y-125399997D01*
X119585037Y-125250614D01*
X119525155Y-125112236D01*
X119433419Y-124998952D01*
X119519024Y-124897652D01*
X119581791Y-124760557D01*
X119589444Y-124712236D01*
X119605378Y-124611636D01*
X119605500Y-124599997D01*
X119585037Y-124450616D01*
X119585037Y-124450615D01*
X119525155Y-124312236D01*
X119453352Y-124223567D01*
X119430268Y-124195060D01*
X119430266Y-124195058D01*
X119307361Y-124107714D01*
X119307360Y-124107714D01*
X119307359Y-124107713D01*
X119165496Y-124056639D01*
X119083465Y-124050615D01*
X119015120Y-124045596D01*
X119015119Y-124045596D01*
X118975663Y-124053552D01*
X118867315Y-124075399D01*
X118732969Y-124143852D01*
X118621980Y-124245911D01*
X118542525Y-124374058D01*
X118530567Y-124415218D01*
X118500459Y-124518850D01*
X118498880Y-124669625D01*
X118537093Y-124812235D01*
X118537905Y-124815265D01*
X118614658Y-124945048D01*
X118614660Y-124945050D01*
X118658468Y-124987061D01*
X118596732Y-125086631D01*
X118542525Y-125174058D01*
X118532747Y-125207714D01*
X118500459Y-125318850D01*
X118498880Y-125469625D01*
X118536932Y-125611634D01*
X118537905Y-125615265D01*
X118614658Y-125745048D01*
X118614660Y-125745050D01*
X118658468Y-125787061D01*
X118621980Y-125845911D01*
X118542525Y-125974058D01*
X118527140Y-126027015D01*
X118519047Y-126054872D01*
X118500459Y-126118851D01*
X118498880Y-126269623D01*
X118526033Y-126370957D01*
X118517315Y-126375399D01*
X118382969Y-126443852D01*
X118272920Y-126545047D01*
X118271979Y-126545912D01*
X118246187Y-126587511D01*
X118192525Y-126674058D01*
X118174620Y-126735688D01*
X118150459Y-126818850D01*
X118148880Y-126969625D01*
X115700500Y-126969625D01*
X115700500Y-122600000D01*
X127694500Y-122600000D01*
X127715132Y-122756715D01*
X127775622Y-122902750D01*
X127871847Y-123028153D01*
X127997250Y-123124378D01*
X128143285Y-123184868D01*
X128300000Y-123205500D01*
X128456715Y-123184868D01*
X128602750Y-123124378D01*
X128728153Y-123028153D01*
X128824378Y-122902750D01*
X128884868Y-122756715D01*
X128905500Y-122600000D01*
X128884868Y-122443285D01*
X128824378Y-122297250D01*
X128728153Y-122171847D01*
X128602750Y-122075622D01*
X128456715Y-122015132D01*
X128300000Y-121994500D01*
X128143285Y-122015132D01*
X127997250Y-122075622D01*
X127871847Y-122171847D01*
X127775622Y-122297250D01*
X127715132Y-122443285D01*
X127694500Y-122600000D01*
X115700500Y-122600000D01*
X115700500Y-121928081D01*
X115700373Y-121927524D01*
X115700375Y-121925806D01*
X115700393Y-121904475D01*
X115700393Y-121904472D01*
X115700000Y-121903654D01*
X115700000Y-121800000D01*
X115650185Y-121800000D01*
X115607444Y-121779382D01*
X115601704Y-121774791D01*
X115589440Y-121764984D01*
X115566799Y-121759777D01*
X115545878Y-121749687D01*
X115522845Y-121749666D01*
X115522123Y-121749500D01*
X100200500Y-121749500D01*
X100200500Y-120969625D01*
X106548880Y-120969625D01*
X106587905Y-121115265D01*
X106663951Y-121243852D01*
X106664658Y-121245048D01*
X106773485Y-121349409D01*
X106906368Y-121420660D01*
X107053517Y-121453552D01*
X107204091Y-121445661D01*
X107346995Y-121397568D01*
X107471701Y-121312818D01*
X107484517Y-121297652D01*
X107569024Y-121197652D01*
X107607865Y-121112817D01*
X107631792Y-121060557D01*
X107641303Y-121000501D01*
X131257154Y-121000501D01*
X131287905Y-121115265D01*
X131364658Y-121245048D01*
X131473485Y-121349409D01*
X131606368Y-121420660D01*
X131753517Y-121453552D01*
X131904091Y-121445661D01*
X132046995Y-121397568D01*
X132171701Y-121312818D01*
X132184517Y-121297652D01*
X132269024Y-121197652D01*
X132331791Y-121060557D01*
X132341754Y-120997652D01*
X132346193Y-120969625D01*
X135548880Y-120969625D01*
X135587905Y-121115265D01*
X135663951Y-121243852D01*
X135664658Y-121245048D01*
X135773485Y-121349409D01*
X135906368Y-121420660D01*
X136053517Y-121453552D01*
X136204091Y-121445661D01*
X136346995Y-121397568D01*
X136359707Y-121388929D01*
X136416253Y-121350500D01*
X140475520Y-121350500D01*
X140606368Y-121420660D01*
X140753517Y-121453552D01*
X140904091Y-121445661D01*
X141046995Y-121397568D01*
X141171701Y-121312818D01*
X141184517Y-121297652D01*
X141269024Y-121197652D01*
X141331791Y-121060557D01*
X141350244Y-120944048D01*
X141375182Y-120899058D01*
X141423205Y-120880623D01*
X141471843Y-120897370D01*
X141489245Y-120917531D01*
X141564658Y-121045048D01*
X141673485Y-121149409D01*
X141806368Y-121220660D01*
X141953517Y-121253552D01*
X142104091Y-121245661D01*
X142246995Y-121197568D01*
X142371701Y-121112818D01*
X142401066Y-121078069D01*
X142469024Y-120997652D01*
X142531791Y-120860557D01*
X142555378Y-120711636D01*
X142555500Y-120699997D01*
X142535037Y-120550616D01*
X142535037Y-120550615D01*
X142475155Y-120412236D01*
X142380266Y-120295058D01*
X142257361Y-120207714D01*
X142257360Y-120207714D01*
X142257359Y-120207713D01*
X142115496Y-120156639D01*
X142033465Y-120150615D01*
X141965120Y-120145596D01*
X141965119Y-120145596D01*
X141924899Y-120153706D01*
X141817315Y-120175399D01*
X141682969Y-120243852D01*
X141609254Y-120311636D01*
X141571979Y-120345912D01*
X141541789Y-120394604D01*
X141492525Y-120474058D01*
X141482747Y-120507714D01*
X141450459Y-120618850D01*
X141450089Y-120654156D01*
X141431990Y-120702307D01*
X141387174Y-120727558D01*
X141336613Y-120718095D01*
X141305878Y-120683233D01*
X141304483Y-120680009D01*
X141275155Y-120612236D01*
X141210597Y-120532513D01*
X141180268Y-120495060D01*
X141180266Y-120495058D01*
X141057361Y-120407714D01*
X141057360Y-120407714D01*
X141057359Y-120407713D01*
X140915496Y-120356639D01*
X140833465Y-120350615D01*
X140765120Y-120345596D01*
X140765119Y-120345596D01*
X140718903Y-120354915D01*
X140617315Y-120375399D01*
X140486501Y-120442053D01*
X140471884Y-120449500D01*
X136416161Y-120449500D01*
X136357361Y-120407714D01*
X136215496Y-120356639D01*
X136133465Y-120350615D01*
X136065120Y-120345596D01*
X136065119Y-120345596D01*
X136018903Y-120354915D01*
X135917315Y-120375399D01*
X135782969Y-120443852D01*
X135709254Y-120511636D01*
X135671979Y-120545912D01*
X135668455Y-120551596D01*
X135592525Y-120674058D01*
X135585380Y-120698653D01*
X135550459Y-120818850D01*
X135548880Y-120969625D01*
X132346193Y-120969625D01*
X132355378Y-120911636D01*
X132355500Y-120899997D01*
X132335037Y-120750616D01*
X132335037Y-120750615D01*
X132275155Y-120612236D01*
X132219779Y-120543852D01*
X132180268Y-120495060D01*
X132180266Y-120495058D01*
X132057361Y-120407714D01*
X132057360Y-120407714D01*
X132057359Y-120407713D01*
X131915497Y-120356639D01*
X131913834Y-120356517D01*
X131892017Y-120354915D01*
X131786967Y-120249865D01*
X131761812Y-120217956D01*
X131761810Y-120217954D01*
X131711901Y-120183460D01*
X131663143Y-120147446D01*
X131661918Y-120147016D01*
X131656333Y-120145055D01*
X131650393Y-120140949D01*
X131636393Y-120136521D01*
X131592530Y-120122648D01*
X131535355Y-120102570D01*
X131528144Y-120102287D01*
X131521258Y-120100109D01*
X131513533Y-120099501D01*
X131457252Y-120099501D01*
X131400019Y-120097252D01*
X131400018Y-120097252D01*
X131391536Y-120099501D01*
X107476029Y-120099501D01*
X107449136Y-120096318D01*
X107435691Y-120094727D01*
X107435690Y-120094727D01*
X107427173Y-120096283D01*
X107376067Y-120105616D01*
X107316064Y-120114637D01*
X107316063Y-120114638D01*
X107316060Y-120114638D01*
X107309552Y-120117762D01*
X107302455Y-120119059D01*
X107248625Y-120147021D01*
X107193970Y-120173266D01*
X107193968Y-120173267D01*
X107188672Y-120178163D01*
X107182262Y-120181494D01*
X107176375Y-120186522D01*
X107136585Y-120226312D01*
X107094513Y-120265203D01*
X107090105Y-120272793D01*
X107005224Y-120357673D01*
X106917315Y-120375399D01*
X106782969Y-120443852D01*
X106709254Y-120511636D01*
X106671979Y-120545912D01*
X106668455Y-120551596D01*
X106592525Y-120674058D01*
X106585380Y-120698653D01*
X106550459Y-120818850D01*
X106548880Y-120969625D01*
X100200500Y-120969625D01*
X100200500Y-119700500D01*
X176751083Y-119700500D01*
X176799421Y-119718093D01*
G37*
G04 #@! TD.AperFunction*
G04 #@! TA.AperFunction,Conductor*
G36*
X142096178Y-124804651D02*
G01*
X142132549Y-124841026D01*
X142137029Y-124892271D01*
X142117568Y-124925976D01*
X141382727Y-125660817D01*
X141275155Y-125412236D01*
X141180268Y-125295060D01*
X141180266Y-125295058D01*
X141057361Y-125207714D01*
X141057360Y-125207714D01*
X141057359Y-125207713D01*
X140915496Y-125156639D01*
X140817042Y-125149409D01*
X140765120Y-125145596D01*
X140765119Y-125145596D01*
X140717217Y-125155255D01*
X140617315Y-125175399D01*
X140536821Y-125216413D01*
X140474600Y-125248116D01*
X137216161Y-125248116D01*
X137157361Y-125206330D01*
X137015496Y-125155255D01*
X136935889Y-125149409D01*
X136865120Y-125144212D01*
X136865119Y-125144212D01*
X136839346Y-125149409D01*
X136717315Y-125174015D01*
X136582969Y-125242468D01*
X136483235Y-125334178D01*
X136471979Y-125344528D01*
X136459698Y-125364335D01*
X136392525Y-125472674D01*
X136376939Y-125526321D01*
X136350459Y-125617466D01*
X136348880Y-125768241D01*
X136387464Y-125912235D01*
X136387905Y-125913881D01*
X136402892Y-125939224D01*
X136412354Y-125989783D01*
X136387102Y-126034598D01*
X136338164Y-126052701D01*
X132915856Y-126052701D01*
X132544359Y-125681205D01*
X132555378Y-125611634D01*
X132555500Y-125600000D01*
X132554930Y-125595834D01*
X132537311Y-125467215D01*
X132535037Y-125450615D01*
X132475155Y-125312236D01*
X132425255Y-125250615D01*
X132380268Y-125195060D01*
X132380266Y-125195058D01*
X132257361Y-125107714D01*
X132257360Y-125107714D01*
X132257359Y-125107713D01*
X132115496Y-125056639D01*
X132098569Y-125055396D01*
X131991462Y-125047530D01*
X131944544Y-125026445D01*
X131922155Y-124980133D01*
X131943796Y-124919359D01*
X132035655Y-124827500D01*
X141886296Y-124827500D01*
X141928979Y-124831234D01*
X141970931Y-124819994D01*
X142013718Y-124812449D01*
X142013719Y-124812449D01*
X142013722Y-124812448D01*
X142026393Y-124805132D01*
X142040520Y-124801347D01*
X142040521Y-124801346D01*
X142044934Y-124800164D01*
X142096178Y-124804651D01*
G37*
G04 #@! TD.AperFunction*
G04 #@! TD*
M02*
