G04 #@! TF.GenerationSoftware,KiCad,Pcbnew,(5.99.0-7570-gd0e008053a)*
G04 #@! TF.CreationDate,2021-04-03T15:26:54-07:00*
G04 #@! TF.ProjectId,RT_USB_PD_Soldering_Iron,52545f55-5342-45f5-9044-5f536f6c6465,rev?*
G04 #@! TF.SameCoordinates,PX5f5e100PY7735940*
G04 #@! TF.FileFunction,Copper,L2,Inr*
G04 #@! TF.FilePolarity,Positive*
%FSLAX46Y46*%
G04 Gerber Fmt 4.6, Leading zero omitted, Abs format (unit mm)*
G04 Created by KiCad (PCBNEW (5.99.0-7570-gd0e008053a)) date 2021-04-03 15:26:54*
%MOMM*%
%LPD*%
G01*
G04 APERTURE LIST*
G04 #@! TA.AperFunction,ComponentPad*
%ADD10C,2.500000*%
G04 #@! TD*
G04 #@! TA.AperFunction,ViaPad*
%ADD11C,0.560000*%
G04 #@! TD*
G04 #@! TA.AperFunction,ViaPad*
%ADD12C,0.800000*%
G04 #@! TD*
G04 #@! TA.AperFunction,ViaPad*
%ADD13C,1.000000*%
G04 #@! TD*
G04 #@! TA.AperFunction,Conductor*
%ADD14C,0.254000*%
G04 #@! TD*
G04 #@! TA.AperFunction,Conductor*
%ADD15C,0.152400*%
G04 #@! TD*
G04 #@! TA.AperFunction,Conductor*
%ADD16C,0.750000*%
G04 #@! TD*
G04 #@! TA.AperFunction,Conductor*
%ADD17C,0.500000*%
G04 #@! TD*
G04 #@! TA.AperFunction,Conductor*
%ADD18C,0.300000*%
G04 #@! TD*
G04 #@! TA.AperFunction,Conductor*
%ADD19C,0.400000*%
G04 #@! TD*
G04 APERTURE END LIST*
D10*
G04 #@! TO.N,GND*
G04 #@! TO.C,H1*
X60500000Y0D03*
G04 #@! TD*
D11*
G04 #@! TO.N,+3V3*
X62000000Y-2159410D03*
G04 #@! TO.N,/I2C1_SDA*
X54800000Y-400000D03*
G04 #@! TO.N,/USB_N*
X45100000Y2500000D03*
G04 #@! TO.N,+3V3*
X55500000Y-3200000D03*
G04 #@! TO.N,/USB_P*
X45700000Y2000000D03*
G04 #@! TO.N,/I2C1_SDA*
X46300000Y200000D03*
G04 #@! TO.N,/I2C1_SCL*
X47100000Y100000D03*
G04 #@! TO.N,/NRST*
X46500000Y-2000000D03*
D12*
G04 #@! TO.N,+3V3*
X53500000Y4300000D03*
D11*
G04 #@! TO.N,/BOARD_TEMP*
X36900000Y-1400000D03*
D12*
G04 #@! TO.N,+3V3*
X34500000Y4300000D03*
G04 #@! TO.N,IN*
X58600000Y3700000D03*
D11*
G04 #@! TO.N,/BTN2*
X61700000Y4600000D03*
G04 #@! TO.N,/CC1*
X63300000Y-1500000D03*
G04 #@! TO.N,/USB_N*
X63900000Y-508610D03*
G04 #@! TO.N,/USB_P*
X63300000Y0D03*
G04 #@! TO.N,/HEATER_PG*
X26500000Y2300000D03*
X38200000Y-400000D03*
G04 #@! TO.N,/VSENSE*
X38600000Y-2000000D03*
G04 #@! TO.N,/HEAT_ON*
X39200000Y-2600000D03*
G04 #@! TO.N,/TEMP_SENS*
X40600000Y-3200000D03*
X32300000Y-3200000D03*
G04 #@! TO.N,/BTN1*
X61800000Y-3300000D03*
G04 #@! TO.N,/CC2*
X58000000Y-3200000D03*
G04 #@! TO.N,/CC1*
X58000000Y-400000D03*
G04 #@! TO.N,/CC2*
X69600000Y1600000D03*
G04 #@! TO.N,/I2C1_SCL*
X54000000Y-1000000D03*
G04 #@! TO.N,/FUSB_INT_N*
X54000000Y-1800000D03*
D13*
G04 #@! TO.N,IN*
X67200000Y2500000D03*
D12*
G04 #@! TO.N,+3V3*
X41300000Y4300000D03*
X43000000Y4300000D03*
D11*
G04 #@! TO.N,/BTN1*
X43600000Y-3300000D03*
G04 #@! TO.N,/BTN2*
X43756456Y3492590D03*
G04 #@! TO.N,/TIP_TC*
X6000000Y4100000D03*
X31300000Y4100000D03*
G04 #@! TO.N,/VSENSE*
X27900000Y-400000D03*
G04 #@! TO.N,/HEAT_ON*
X26500000Y-2200000D03*
G04 #@! TO.N,/NRST*
X40017675Y-2619899D03*
G04 #@! TO.N,/BOARD_TEMP*
X9200000Y3800000D03*
G04 #@! TO.N,/FUSB_INT_N*
X44200000Y2800000D03*
G04 #@! TD*
D14*
G04 #@! TO.N,+3V3*
X55500000Y-3200000D02*
X56540590Y-2159410D01*
X56540590Y-2159410D02*
X62000000Y-2159410D01*
G04 #@! TO.N,/CC1*
X63270599Y-1529401D02*
X63300000Y-1500000D01*
X58000000Y-400000D02*
X59129401Y-1529401D01*
X59129401Y-1529401D02*
X63270599Y-1529401D01*
G04 #@! TO.N,/I2C1_SDA*
X47300000Y1200000D02*
X53200000Y1200000D01*
X46300000Y200000D02*
X47300000Y1200000D01*
X53200000Y1200000D02*
X54800000Y-400000D01*
D15*
G04 #@! TO.N,/USB_N*
X45404811Y2804811D02*
X45100000Y2500000D01*
X57095189Y2804811D02*
X45404811Y2804811D01*
G04 #@! TO.N,/USB_P*
X56968933Y2500000D02*
X46200000Y2500000D01*
G04 #@! TO.N,/USB_N*
X57800000Y2100000D02*
X57095189Y2804811D01*
G04 #@! TO.N,/USB_P*
X63300000Y0D02*
X61504811Y1795189D01*
G04 #@! TO.N,/USB_N*
X62000000Y2100000D02*
X57800000Y2100000D01*
X63900000Y200000D02*
X62000000Y2100000D01*
X63900000Y-508610D02*
X63900000Y200000D01*
G04 #@! TO.N,/USB_P*
X61504811Y1795189D02*
X57673744Y1795189D01*
X57673744Y1795189D02*
X56968933Y2500000D01*
X46200000Y2500000D02*
X45700000Y2000000D01*
D14*
G04 #@! TO.N,/I2C1_SCL*
X53200000Y-200000D02*
X52400000Y-200000D01*
X52400000Y-200000D02*
X51520001Y679999D01*
X51520001Y679999D02*
X47679999Y679999D01*
X47679999Y679999D02*
X47100000Y100000D01*
X54000000Y-1000000D02*
X53200000Y-200000D01*
G04 #@! TO.N,/NRST*
X45800000Y-1300000D02*
X46500000Y-2000000D01*
X41337574Y-1300000D02*
X45800000Y-1300000D01*
X40017675Y-2619899D02*
X41337574Y-1300000D01*
G04 #@! TO.N,/FUSB_INT_N*
X44200000Y2800000D02*
X44200000Y1200000D01*
X44200000Y1200000D02*
X46100000Y-700000D01*
X46100000Y-700000D02*
X52100000Y-700000D01*
X52100000Y-700000D02*
X53200000Y-1800000D01*
X53200000Y-1800000D02*
X54000000Y-1800000D01*
D16*
G04 #@! TO.N,+3V3*
X43000000Y4300000D02*
X53500000Y4300000D01*
D14*
G04 #@! TO.N,/BOARD_TEMP*
X32927914Y-1400000D02*
X36900000Y-1400000D01*
X29868513Y1659401D02*
X32927914Y-1400000D01*
X23940599Y1659401D02*
X29868513Y1659401D01*
X9200000Y3800000D02*
X21800000Y3800000D01*
X21800000Y3800000D02*
X23940599Y1659401D01*
D17*
G04 #@! TO.N,+3V3*
X41300000Y4300000D02*
X34500000Y4300000D01*
D16*
G04 #@! TO.N,IN*
X66000000Y3700000D02*
X58600000Y3700000D01*
X67200000Y2500000D02*
X66000000Y3700000D01*
D14*
G04 #@! TO.N,/BTN2*
X58000000Y4600000D02*
X61700000Y4600000D01*
X56892590Y3492590D02*
X58000000Y4600000D01*
X43756456Y3492590D02*
X56892590Y3492590D01*
G04 #@! TO.N,/HEAT_ON*
X31500000Y-2600000D02*
X30900000Y-3200000D01*
X30900000Y-3200000D02*
X27500000Y-3200000D01*
X27500000Y-3200000D02*
X26500000Y-2200000D01*
X31500000Y-2600000D02*
X39200000Y-2600000D01*
G04 #@! TO.N,/HEATER_PG*
X26500000Y2300000D02*
X30800000Y2300000D01*
X30800000Y2300000D02*
X33100000Y0D01*
X33100000Y0D02*
X37800000Y0D01*
X37800000Y0D02*
X38200000Y-400000D01*
D18*
G04 #@! TO.N,/VSENSE*
X32300000Y-2000000D02*
X38600000Y-2000000D01*
X27900000Y-400000D02*
X30700000Y-400000D01*
X30700000Y-400000D02*
X32300000Y-2000000D01*
D14*
G04 #@! TO.N,/TEMP_SENS*
X32300000Y-3200000D02*
X40600000Y-3200000D01*
G04 #@! TO.N,/BTN1*
X61300000Y-3800000D02*
X61800000Y-3300000D01*
X44100000Y-3800000D02*
X61300000Y-3800000D01*
X43600000Y-3300000D02*
X44100000Y-3800000D01*
G04 #@! TO.N,/CC2*
X58459401Y-2740599D02*
X58000000Y-3200000D01*
X65259401Y-2740599D02*
X58459401Y-2740599D01*
X69600000Y1600000D02*
X65259401Y-2740599D01*
D16*
G04 #@! TO.N,+3V3*
X41300000Y4300000D02*
X43000000Y4300000D01*
D19*
G04 #@! TO.N,/TIP_TC*
X30967598Y4432402D02*
X6332402Y4432402D01*
X6332402Y4432402D02*
X6000000Y4100000D01*
X31300000Y4100000D02*
X30967598Y4432402D01*
G04 #@! TD*
G04 #@! TA.AperFunction,Conductor*
G04 #@! TO.N,GND*
G36*
X74708400Y5235925D02*
G01*
X74735925Y5208400D01*
X74746000Y5170800D01*
X74746000Y-5170800D01*
X74735925Y-5208400D01*
X74708400Y-5235925D01*
X74670800Y-5246000D01*
X329200Y-5246000D01*
X291600Y-5235925D01*
X264075Y-5208400D01*
X254000Y-5170800D01*
X254000Y-4096301D01*
X26146819Y-4096301D01*
X26147316Y-4100803D01*
X26147316Y-4100806D01*
X26148044Y-4107397D01*
X26156132Y-4180654D01*
X26157688Y-4184906D01*
X26157689Y-4184910D01*
X26170714Y-4220501D01*
X26185296Y-4260349D01*
X26232629Y-4330788D01*
X26295398Y-4387903D01*
X26369978Y-4428397D01*
X26374357Y-4429546D01*
X26374360Y-4429547D01*
X26446595Y-4448497D01*
X26452065Y-4449932D01*
X26487198Y-4450484D01*
X26532387Y-4451194D01*
X26532389Y-4451194D01*
X26536919Y-4451265D01*
X26541336Y-4450253D01*
X26541339Y-4450253D01*
X26615219Y-4433332D01*
X26619642Y-4432319D01*
X26695458Y-4394188D01*
X26759989Y-4339073D01*
X26762633Y-4335394D01*
X26806866Y-4273838D01*
X26806868Y-4273835D01*
X26809512Y-4270155D01*
X26841165Y-4191415D01*
X26843338Y-4176150D01*
X26852776Y-4109837D01*
X26852776Y-4109833D01*
X26853123Y-4107397D01*
X26853200Y-4100000D01*
X26852753Y-4096301D01*
X27946819Y-4096301D01*
X27947316Y-4100803D01*
X27947316Y-4100806D01*
X27948044Y-4107397D01*
X27956132Y-4180654D01*
X27957688Y-4184906D01*
X27957689Y-4184910D01*
X27970714Y-4220501D01*
X27985296Y-4260349D01*
X28032629Y-4330788D01*
X28095398Y-4387903D01*
X28169978Y-4428397D01*
X28174357Y-4429546D01*
X28174360Y-4429547D01*
X28246595Y-4448497D01*
X28252065Y-4449932D01*
X28287198Y-4450484D01*
X28332387Y-4451194D01*
X28332389Y-4451194D01*
X28336919Y-4451265D01*
X28341336Y-4450253D01*
X28341339Y-4450253D01*
X28415219Y-4433332D01*
X28419642Y-4432319D01*
X28495458Y-4394188D01*
X28559989Y-4339073D01*
X28562633Y-4335394D01*
X28606866Y-4273838D01*
X28606868Y-4273835D01*
X28609512Y-4270155D01*
X28641165Y-4191415D01*
X28643338Y-4176150D01*
X28652776Y-4109837D01*
X28652776Y-4109833D01*
X28653123Y-4107397D01*
X28653200Y-4100000D01*
X28652753Y-4096301D01*
X29746819Y-4096301D01*
X29747316Y-4100803D01*
X29747316Y-4100806D01*
X29748044Y-4107397D01*
X29756132Y-4180654D01*
X29757688Y-4184906D01*
X29757689Y-4184910D01*
X29770714Y-4220501D01*
X29785296Y-4260349D01*
X29832629Y-4330788D01*
X29895398Y-4387903D01*
X29969978Y-4428397D01*
X29974357Y-4429546D01*
X29974360Y-4429547D01*
X30046595Y-4448497D01*
X30052065Y-4449932D01*
X30087198Y-4450484D01*
X30132387Y-4451194D01*
X30132389Y-4451194D01*
X30136919Y-4451265D01*
X30141336Y-4450253D01*
X30141339Y-4450253D01*
X30215219Y-4433332D01*
X30219642Y-4432319D01*
X30295458Y-4394188D01*
X30359989Y-4339073D01*
X30362633Y-4335394D01*
X30406866Y-4273838D01*
X30406868Y-4273835D01*
X30409512Y-4270155D01*
X30441165Y-4191415D01*
X30443338Y-4176150D01*
X30452776Y-4109837D01*
X30452776Y-4109833D01*
X30453123Y-4107397D01*
X30453200Y-4100000D01*
X30452753Y-4096301D01*
X31546819Y-4096301D01*
X31547316Y-4100803D01*
X31547316Y-4100806D01*
X31548044Y-4107397D01*
X31556132Y-4180654D01*
X31557688Y-4184906D01*
X31557689Y-4184910D01*
X31570714Y-4220501D01*
X31585296Y-4260349D01*
X31632629Y-4330788D01*
X31695398Y-4387903D01*
X31769978Y-4428397D01*
X31774357Y-4429546D01*
X31774360Y-4429547D01*
X31846595Y-4448497D01*
X31852065Y-4449932D01*
X31887198Y-4450484D01*
X31932387Y-4451194D01*
X31932389Y-4451194D01*
X31936919Y-4451265D01*
X31941157Y-4450294D01*
X68145063Y-4450294D01*
X68145587Y-4453234D01*
X68171849Y-4524611D01*
X68175169Y-4531418D01*
X68221736Y-4606522D01*
X68226359Y-4612526D01*
X68287069Y-4676724D01*
X68292817Y-4681686D01*
X68365195Y-4732366D01*
X68371811Y-4736064D01*
X68452910Y-4771158D01*
X68460130Y-4773448D01*
X68547530Y-4791707D01*
X68552762Y-4792386D01*
X68553278Y-4792400D01*
X69063098Y-4792400D01*
X69070908Y-4790308D01*
X69072999Y-4782499D01*
X69326999Y-4782499D01*
X69329091Y-4790308D01*
X69336901Y-4792400D01*
X69822701Y-4792400D01*
X69826511Y-4792207D01*
X69891704Y-4785585D01*
X69899125Y-4784061D01*
X69983451Y-4757635D01*
X69990412Y-4754652D01*
X70067701Y-4711811D01*
X70073923Y-4707486D01*
X70141018Y-4649978D01*
X70146244Y-4644489D01*
X70200405Y-4574667D01*
X70204418Y-4568244D01*
X70243433Y-4488956D01*
X70246075Y-4481850D01*
X70252658Y-4456579D01*
X70252614Y-4450294D01*
X72475063Y-4450294D01*
X72475587Y-4453234D01*
X72501849Y-4524611D01*
X72505169Y-4531418D01*
X72551736Y-4606522D01*
X72556359Y-4612526D01*
X72617069Y-4676724D01*
X72622817Y-4681686D01*
X72695195Y-4732366D01*
X72701811Y-4736064D01*
X72782910Y-4771158D01*
X72790130Y-4773448D01*
X72877530Y-4791707D01*
X72882762Y-4792386D01*
X72883278Y-4792400D01*
X73243098Y-4792400D01*
X73250908Y-4790308D01*
X73252999Y-4782499D01*
X73506999Y-4782499D01*
X73509091Y-4790308D01*
X73516901Y-4792400D01*
X73852701Y-4792400D01*
X73856511Y-4792207D01*
X73921704Y-4785585D01*
X73929125Y-4784061D01*
X74013451Y-4757635D01*
X74020412Y-4754652D01*
X74097701Y-4711811D01*
X74103923Y-4707486D01*
X74171018Y-4649978D01*
X74176244Y-4644489D01*
X74230405Y-4574667D01*
X74234418Y-4568244D01*
X74273433Y-4488956D01*
X74276075Y-4481850D01*
X74282658Y-4456579D01*
X74282601Y-4448497D01*
X74279965Y-4447000D01*
X73516902Y-4446999D01*
X73509092Y-4449091D01*
X73507000Y-4456901D01*
X73506999Y-4782499D01*
X73252999Y-4782499D01*
X73253000Y-4782498D01*
X73253001Y-4456901D01*
X73250909Y-4449092D01*
X73243099Y-4447000D01*
X72483195Y-4446999D01*
X72475385Y-4449091D01*
X72475063Y-4450294D01*
X70252614Y-4450294D01*
X70252601Y-4448497D01*
X70249965Y-4447000D01*
X69336902Y-4446999D01*
X69329092Y-4449091D01*
X69327000Y-4456901D01*
X69326999Y-4782499D01*
X69072999Y-4782499D01*
X69073000Y-4782498D01*
X69073001Y-4456901D01*
X69070909Y-4449092D01*
X69063099Y-4447000D01*
X68153195Y-4446999D01*
X68145385Y-4449091D01*
X68145063Y-4450294D01*
X31941157Y-4450294D01*
X31941336Y-4450253D01*
X31941339Y-4450253D01*
X32015219Y-4433332D01*
X32019642Y-4432319D01*
X32095458Y-4394188D01*
X32159989Y-4339073D01*
X32162633Y-4335394D01*
X32206866Y-4273838D01*
X32206868Y-4273835D01*
X32209512Y-4270155D01*
X32241165Y-4191415D01*
X32242302Y-4183421D01*
X68147342Y-4183421D01*
X68147399Y-4191503D01*
X68150035Y-4193000D01*
X69063098Y-4193001D01*
X69070908Y-4190909D01*
X69073000Y-4183099D01*
X69326999Y-4183099D01*
X69329091Y-4190908D01*
X69336901Y-4193000D01*
X70246805Y-4193001D01*
X70254615Y-4190909D01*
X70254937Y-4189706D01*
X70254413Y-4186766D01*
X70253183Y-4183421D01*
X72477342Y-4183421D01*
X72477399Y-4191503D01*
X72480035Y-4193000D01*
X73243098Y-4193001D01*
X73250908Y-4190909D01*
X73253000Y-4183099D01*
X73506999Y-4183099D01*
X73509091Y-4190908D01*
X73516901Y-4193000D01*
X74276805Y-4193001D01*
X74284615Y-4190909D01*
X74284937Y-4189706D01*
X74284413Y-4186766D01*
X74258151Y-4115389D01*
X74254831Y-4108582D01*
X74208264Y-4033478D01*
X74203641Y-4027474D01*
X74142931Y-3963276D01*
X74137183Y-3958314D01*
X74064805Y-3907634D01*
X74058189Y-3903936D01*
X73977090Y-3868842D01*
X73969870Y-3866552D01*
X73882470Y-3848293D01*
X73877238Y-3847614D01*
X73876722Y-3847600D01*
X73516902Y-3847600D01*
X73509092Y-3849692D01*
X73507000Y-3857502D01*
X73506999Y-4183099D01*
X73253000Y-4183099D01*
X73253001Y-3857501D01*
X73250909Y-3849692D01*
X73243099Y-3847600D01*
X72907299Y-3847600D01*
X72903489Y-3847793D01*
X72838296Y-3854415D01*
X72830875Y-3855939D01*
X72746549Y-3882365D01*
X72739588Y-3885348D01*
X72662299Y-3928189D01*
X72656077Y-3932514D01*
X72588982Y-3990022D01*
X72583756Y-3995511D01*
X72529595Y-4065333D01*
X72525582Y-4071756D01*
X72486567Y-4151044D01*
X72483925Y-4158150D01*
X72477342Y-4183421D01*
X70253183Y-4183421D01*
X70228151Y-4115389D01*
X70224831Y-4108582D01*
X70178264Y-4033478D01*
X70173641Y-4027474D01*
X70112931Y-3963276D01*
X70107183Y-3958314D01*
X70034805Y-3907634D01*
X70028189Y-3903936D01*
X69947090Y-3868842D01*
X69939870Y-3866552D01*
X69852470Y-3848293D01*
X69847238Y-3847614D01*
X69846722Y-3847600D01*
X69336902Y-3847600D01*
X69329092Y-3849692D01*
X69327000Y-3857502D01*
X69326999Y-4183099D01*
X69073000Y-4183099D01*
X69073001Y-3857501D01*
X69070909Y-3849692D01*
X69063099Y-3847600D01*
X68577299Y-3847600D01*
X68573489Y-3847793D01*
X68508296Y-3854415D01*
X68500875Y-3855939D01*
X68416549Y-3882365D01*
X68409588Y-3885348D01*
X68332299Y-3928189D01*
X68326077Y-3932514D01*
X68258982Y-3990022D01*
X68253756Y-3995511D01*
X68199595Y-4065333D01*
X68195582Y-4071756D01*
X68156567Y-4151044D01*
X68153925Y-4158150D01*
X68147342Y-4183421D01*
X32242302Y-4183421D01*
X32243338Y-4176150D01*
X32252776Y-4109837D01*
X32252776Y-4109833D01*
X32253123Y-4107397D01*
X32253200Y-4100000D01*
X32251053Y-4082260D01*
X32243550Y-4020250D01*
X32243549Y-4020246D01*
X32243005Y-4015750D01*
X32213007Y-3936364D01*
X32208211Y-3929385D01*
X32167507Y-3870162D01*
X32164939Y-3866425D01*
X32101576Y-3809970D01*
X32026576Y-3770259D01*
X31967399Y-3755395D01*
X31948668Y-3750690D01*
X31948667Y-3750690D01*
X31944268Y-3749585D01*
X31939735Y-3749561D01*
X31939733Y-3749561D01*
X31903564Y-3749372D01*
X31859404Y-3749141D01*
X31776884Y-3768952D01*
X31701472Y-3807875D01*
X31698058Y-3810853D01*
X31698054Y-3810856D01*
X31695615Y-3812984D01*
X31637521Y-3863663D01*
X31588724Y-3933095D01*
X31587077Y-3937318D01*
X31587077Y-3937319D01*
X31559542Y-4007940D01*
X31559541Y-4007944D01*
X31557896Y-4012163D01*
X31546819Y-4096301D01*
X30452753Y-4096301D01*
X30451053Y-4082260D01*
X30443550Y-4020250D01*
X30443549Y-4020246D01*
X30443005Y-4015750D01*
X30413007Y-3936364D01*
X30408211Y-3929385D01*
X30367507Y-3870162D01*
X30364939Y-3866425D01*
X30301576Y-3809970D01*
X30226576Y-3770259D01*
X30167399Y-3755395D01*
X30148668Y-3750690D01*
X30148667Y-3750690D01*
X30144268Y-3749585D01*
X30139735Y-3749561D01*
X30139733Y-3749561D01*
X30103564Y-3749372D01*
X30059404Y-3749141D01*
X29976884Y-3768952D01*
X29901472Y-3807875D01*
X29898058Y-3810853D01*
X29898054Y-3810856D01*
X29895615Y-3812984D01*
X29837521Y-3863663D01*
X29788724Y-3933095D01*
X29787077Y-3937318D01*
X29787077Y-3937319D01*
X29759542Y-4007940D01*
X29759541Y-4007944D01*
X29757896Y-4012163D01*
X29746819Y-4096301D01*
X28652753Y-4096301D01*
X28651053Y-4082260D01*
X28643550Y-4020250D01*
X28643549Y-4020246D01*
X28643005Y-4015750D01*
X28613007Y-3936364D01*
X28608211Y-3929385D01*
X28567507Y-3870162D01*
X28564939Y-3866425D01*
X28501576Y-3809970D01*
X28426576Y-3770259D01*
X28367399Y-3755395D01*
X28348668Y-3750690D01*
X28348667Y-3750690D01*
X28344268Y-3749585D01*
X28339735Y-3749561D01*
X28339733Y-3749561D01*
X28303564Y-3749372D01*
X28259404Y-3749141D01*
X28176884Y-3768952D01*
X28101472Y-3807875D01*
X28098058Y-3810853D01*
X28098054Y-3810856D01*
X28095615Y-3812984D01*
X28037521Y-3863663D01*
X27988724Y-3933095D01*
X27987077Y-3937318D01*
X27987077Y-3937319D01*
X27959542Y-4007940D01*
X27959541Y-4007944D01*
X27957896Y-4012163D01*
X27946819Y-4096301D01*
X26852753Y-4096301D01*
X26851053Y-4082260D01*
X26843550Y-4020250D01*
X26843549Y-4020246D01*
X26843005Y-4015750D01*
X26813007Y-3936364D01*
X26808211Y-3929385D01*
X26767507Y-3870162D01*
X26764939Y-3866425D01*
X26701576Y-3809970D01*
X26626576Y-3770259D01*
X26567399Y-3755395D01*
X26548668Y-3750690D01*
X26548667Y-3750690D01*
X26544268Y-3749585D01*
X26539735Y-3749561D01*
X26539733Y-3749561D01*
X26503564Y-3749372D01*
X26459404Y-3749141D01*
X26376884Y-3768952D01*
X26301472Y-3807875D01*
X26298058Y-3810853D01*
X26298054Y-3810856D01*
X26295615Y-3812984D01*
X26237521Y-3863663D01*
X26188724Y-3933095D01*
X26187077Y-3937318D01*
X26187077Y-3937319D01*
X26159542Y-4007940D01*
X26159541Y-4007944D01*
X26157896Y-4012163D01*
X26146819Y-4096301D01*
X254000Y-4096301D01*
X254000Y-3379200D01*
X264075Y-3341600D01*
X291600Y-3314075D01*
X329200Y-3304000D01*
X13502348Y-3304000D01*
X13537878Y-3313110D01*
X13538491Y-3313511D01*
X13541139Y-3314709D01*
X13541236Y-3314762D01*
X13541483Y-3314882D01*
X13542675Y-3315611D01*
X13551611Y-3319460D01*
X13552746Y-3319960D01*
X13694480Y-3384081D01*
X13695241Y-3384431D01*
X13703370Y-3388228D01*
X13733019Y-3396833D01*
X13867740Y-3435934D01*
X13868609Y-3436192D01*
X13874406Y-3437951D01*
X13874415Y-3437953D01*
X13877187Y-3438794D01*
X13880063Y-3439200D01*
X13880065Y-3439200D01*
X14046537Y-3462674D01*
X14047434Y-3462806D01*
X14053538Y-3463742D01*
X14053542Y-3463742D01*
X14056416Y-3464183D01*
X14194619Y-3463866D01*
X14227595Y-3463791D01*
X14228499Y-3463795D01*
X14234526Y-3463854D01*
X14234531Y-3463854D01*
X14237437Y-3463882D01*
X14406711Y-3439220D01*
X14407593Y-3439096D01*
X14416583Y-3437897D01*
X14419368Y-3437075D01*
X14419372Y-3437074D01*
X14485359Y-3417593D01*
X14580724Y-3389440D01*
X14581456Y-3389229D01*
X14590228Y-3386754D01*
X14719444Y-3327580D01*
X14745842Y-3315491D01*
X14746673Y-3315117D01*
X14752200Y-3312667D01*
X14752206Y-3312664D01*
X14754858Y-3311488D01*
X14784491Y-3292418D01*
X14831816Y-3261963D01*
X14872511Y-3250000D01*
X15250000Y-3250000D01*
X15250000Y-2844588D01*
X15259408Y-2808251D01*
X15260718Y-2806268D01*
X15331951Y-2650720D01*
X15332335Y-2649895D01*
X15334952Y-2644358D01*
X15336192Y-2641735D01*
X15338385Y-2634309D01*
X15378035Y-2500000D01*
X15384655Y-2477576D01*
X15384913Y-2476724D01*
X15386697Y-2470939D01*
X15386698Y-2470936D01*
X15387556Y-2468153D01*
X15389016Y-2458137D01*
X15403142Y-2361180D01*
X15412227Y-2298827D01*
X15412358Y-2297958D01*
X15412634Y-2296217D01*
X15413768Y-2289040D01*
X15413783Y-2282815D01*
X15414161Y-2117883D01*
X15414169Y-2116973D01*
X15414256Y-2110934D01*
X15414298Y-2108019D01*
X15413212Y-2100313D01*
X15390418Y-1938672D01*
X15390296Y-1937771D01*
X15389785Y-1933804D01*
X15389136Y-1928757D01*
X15387185Y-1922035D01*
X15341442Y-1764425D01*
X15341194Y-1763550D01*
X15339568Y-1757684D01*
X15338791Y-1754879D01*
X15333517Y-1743220D01*
X15310661Y-1692700D01*
X15271882Y-1606981D01*
X15270985Y-1604914D01*
X15267590Y-1596757D01*
X15267588Y-1596754D01*
X15266472Y-1594072D01*
X15264955Y-1591592D01*
X15264644Y-1590982D01*
X15264193Y-1589985D01*
X15263904Y-1589531D01*
X15263636Y-1589006D01*
X15264362Y-1588636D01*
X15254000Y-1552506D01*
X15254000Y-26379D01*
X15264075Y11221D01*
X15274924Y25670D01*
X15334221Y87504D01*
X15334223Y87506D01*
X15337040Y90444D01*
X15384913Y168873D01*
X15414829Y255753D01*
X15417347Y277517D01*
X15425149Y344945D01*
X15425149Y344949D01*
X15425390Y347030D01*
X15425400Y350000D01*
X15415476Y441348D01*
X15412963Y448817D01*
X15397231Y495563D01*
X15386169Y528435D01*
X15338844Y607196D01*
X15304642Y643364D01*
X15275710Y673958D01*
X15276656Y674853D01*
X15258358Y701377D01*
X15254000Y726604D01*
X15254000Y773621D01*
X15264075Y811221D01*
X15274924Y825670D01*
X15334221Y887504D01*
X15334223Y887506D01*
X15337040Y890444D01*
X15384913Y968873D01*
X15414829Y1055753D01*
X15418446Y1087016D01*
X15425149Y1144945D01*
X15425149Y1144949D01*
X15425390Y1147030D01*
X15425400Y1150000D01*
X15415476Y1241348D01*
X15413692Y1246651D01*
X15387468Y1324574D01*
X15386169Y1328435D01*
X15338844Y1407196D01*
X15328186Y1418467D01*
X15275710Y1473958D01*
X15276656Y1474853D01*
X15258358Y1501377D01*
X15254000Y1526604D01*
X15254000Y1552358D01*
X15263114Y1587894D01*
X15263507Y1588494D01*
X15264703Y1591137D01*
X15264749Y1591221D01*
X15264874Y1591479D01*
X15265606Y1592676D01*
X15268103Y1598473D01*
X15269448Y1601596D01*
X15270000Y1602847D01*
X15280638Y1626360D01*
X15334069Y1744464D01*
X15334443Y1745278D01*
X15336996Y1750743D01*
X15336997Y1750747D01*
X15338225Y1753375D01*
X15385943Y1917791D01*
X15386191Y1918626D01*
X15387945Y1924406D01*
X15387945Y1924408D01*
X15388789Y1927188D01*
X15389195Y1930066D01*
X15399056Y2000000D01*
X21497600Y2000000D01*
X21498243Y1995116D01*
X21507186Y1927188D01*
X21507904Y1921733D01*
X21538114Y1848800D01*
X21586171Y1786171D01*
X21590078Y1783173D01*
X21620721Y1759660D01*
X21644418Y1728778D01*
X21649499Y1690185D01*
X21634602Y1654221D01*
X21620722Y1640341D01*
X21586171Y1613829D01*
X21538114Y1551200D01*
X21507904Y1478267D01*
X21507262Y1473389D01*
X21507261Y1473386D01*
X21500496Y1421995D01*
X21497600Y1400000D01*
X21498243Y1395116D01*
X21507129Y1327622D01*
X21507904Y1321733D01*
X21538114Y1248800D01*
X21586171Y1186171D01*
X21590078Y1183173D01*
X21620721Y1159660D01*
X21644418Y1128778D01*
X21649499Y1090185D01*
X21634602Y1054221D01*
X21620722Y1040341D01*
X21586171Y1013829D01*
X21538114Y951200D01*
X21507904Y878267D01*
X21507262Y873389D01*
X21507261Y873386D01*
X21500949Y825437D01*
X21497600Y800000D01*
X21498243Y795116D01*
X21503597Y754451D01*
X21507904Y721733D01*
X21538114Y648800D01*
X21586171Y586171D01*
X21590078Y583173D01*
X21620721Y559660D01*
X21644418Y528778D01*
X21649499Y490185D01*
X21634602Y454221D01*
X21620722Y440341D01*
X21586171Y413829D01*
X21538114Y351200D01*
X21507904Y278267D01*
X21507262Y273389D01*
X21507261Y273386D01*
X21501414Y228974D01*
X21497600Y200000D01*
X21498243Y195116D01*
X21506952Y128967D01*
X21507904Y121733D01*
X21538114Y48800D01*
X21586171Y-13829D01*
X21613134Y-34518D01*
X21620721Y-40340D01*
X21644418Y-71222D01*
X21649499Y-109815D01*
X21634602Y-145779D01*
X21620722Y-159659D01*
X21586171Y-186171D01*
X21583173Y-190078D01*
X21577054Y-198052D01*
X21538114Y-248800D01*
X21507904Y-321733D01*
X21507262Y-326611D01*
X21507261Y-326614D01*
X21500932Y-374688D01*
X21497600Y-400000D01*
X21498243Y-404884D01*
X21506705Y-469158D01*
X21507904Y-478267D01*
X21538114Y-551200D01*
X21541112Y-555107D01*
X21579452Y-605072D01*
X21586171Y-613829D01*
X21608935Y-631296D01*
X21620721Y-640340D01*
X21644418Y-671222D01*
X21649499Y-709815D01*
X21634602Y-745779D01*
X21620722Y-759659D01*
X21586171Y-786171D01*
X21538114Y-848800D01*
X21507904Y-921733D01*
X21507262Y-926611D01*
X21507261Y-926614D01*
X21498920Y-989975D01*
X21497600Y-1000000D01*
X21498243Y-1004884D01*
X21506985Y-1071283D01*
X21507904Y-1078267D01*
X21538114Y-1151200D01*
X21586171Y-1213829D01*
X21590078Y-1216827D01*
X21620721Y-1240340D01*
X21644418Y-1271222D01*
X21649499Y-1309815D01*
X21634602Y-1345779D01*
X21620722Y-1359659D01*
X21586171Y-1386171D01*
X21583173Y-1390078D01*
X21575004Y-1400724D01*
X21538114Y-1448800D01*
X21507904Y-1521733D01*
X21507262Y-1526611D01*
X21507261Y-1526614D01*
X21500149Y-1580639D01*
X21497600Y-1600000D01*
X21498243Y-1604884D01*
X21506308Y-1666141D01*
X21507904Y-1678267D01*
X21538114Y-1751200D01*
X21541112Y-1755107D01*
X21582697Y-1809301D01*
X21586171Y-1813829D01*
X21608024Y-1830597D01*
X21620721Y-1840340D01*
X21644418Y-1871222D01*
X21649499Y-1909815D01*
X21634602Y-1945779D01*
X21620722Y-1959659D01*
X21586171Y-1986171D01*
X21538114Y-2048800D01*
X21507904Y-2121733D01*
X21507262Y-2126611D01*
X21507261Y-2126614D01*
X21501138Y-2173125D01*
X21497600Y-2200000D01*
X21498243Y-2204884D01*
X21507250Y-2273296D01*
X21507904Y-2278267D01*
X21538114Y-2351200D01*
X21586171Y-2413829D01*
X21590078Y-2416827D01*
X21602288Y-2426196D01*
X21648800Y-2461886D01*
X21721733Y-2492096D01*
X21726611Y-2492738D01*
X21726614Y-2492739D01*
X21795116Y-2501757D01*
X21800000Y-2502400D01*
X21804884Y-2501757D01*
X21873386Y-2492739D01*
X21873389Y-2492738D01*
X21878267Y-2492096D01*
X21951200Y-2461886D01*
X21997712Y-2426196D01*
X22009922Y-2416827D01*
X22013829Y-2413829D01*
X22061886Y-2351200D01*
X22092096Y-2278267D01*
X22092751Y-2273296D01*
X22101757Y-2204884D01*
X22102400Y-2200000D01*
X22098862Y-2173125D01*
X22092739Y-2126614D01*
X22092738Y-2126611D01*
X22092096Y-2121733D01*
X22061886Y-2048800D01*
X22013829Y-1986171D01*
X21979279Y-1959660D01*
X21955582Y-1928778D01*
X21950501Y-1890185D01*
X21965398Y-1854221D01*
X21979279Y-1840340D01*
X21991977Y-1830597D01*
X22013829Y-1813829D01*
X22017304Y-1809301D01*
X22058888Y-1755107D01*
X22061886Y-1751200D01*
X22092096Y-1678267D01*
X22093693Y-1666141D01*
X22101757Y-1604884D01*
X22102400Y-1600000D01*
X22099851Y-1580639D01*
X22092739Y-1526614D01*
X22092738Y-1526611D01*
X22092096Y-1521733D01*
X22061886Y-1448800D01*
X22024996Y-1400724D01*
X22016827Y-1390078D01*
X22013829Y-1386171D01*
X21979279Y-1359660D01*
X21955582Y-1328778D01*
X21950501Y-1290185D01*
X21965398Y-1254221D01*
X21979279Y-1240340D01*
X22009922Y-1216827D01*
X22013829Y-1213829D01*
X22061886Y-1151200D01*
X22092096Y-1078267D01*
X22093016Y-1071283D01*
X22101757Y-1004884D01*
X22102400Y-1000000D01*
X22101080Y-989975D01*
X22092739Y-926614D01*
X22092738Y-926611D01*
X22092096Y-921733D01*
X22061886Y-848800D01*
X22013829Y-786171D01*
X21979279Y-759660D01*
X21955582Y-728778D01*
X21950501Y-690185D01*
X21965398Y-654221D01*
X21979279Y-640340D01*
X21991066Y-631296D01*
X22013829Y-613829D01*
X22020549Y-605072D01*
X22058888Y-555107D01*
X22061886Y-551200D01*
X22092096Y-478267D01*
X22093296Y-469158D01*
X22101757Y-404884D01*
X22102400Y-400000D01*
X22099068Y-374688D01*
X22092739Y-326614D01*
X22092738Y-326611D01*
X22092096Y-321733D01*
X22061886Y-248800D01*
X22022946Y-198052D01*
X22016827Y-190078D01*
X22013829Y-186171D01*
X21979279Y-159660D01*
X21955582Y-128778D01*
X21950501Y-90185D01*
X21965398Y-54221D01*
X21979279Y-40340D01*
X21986867Y-34518D01*
X22013829Y-13829D01*
X22061886Y48800D01*
X22092096Y121733D01*
X22093049Y128967D01*
X22101757Y195116D01*
X22102400Y200000D01*
X22098586Y228974D01*
X22092739Y273386D01*
X22092738Y273389D01*
X22092096Y278267D01*
X22061886Y351200D01*
X22013829Y413829D01*
X21979279Y440340D01*
X21955582Y471222D01*
X21950501Y509815D01*
X21965398Y545779D01*
X21979279Y559660D01*
X22009922Y583173D01*
X22013829Y586171D01*
X22061886Y648800D01*
X22092096Y721733D01*
X22096404Y754451D01*
X22101757Y795116D01*
X22102400Y800000D01*
X22101913Y803699D01*
X23046819Y803699D01*
X23047316Y799197D01*
X23047316Y799194D01*
X23048044Y792603D01*
X23056132Y719346D01*
X23057688Y715094D01*
X23057689Y715090D01*
X23067218Y689052D01*
X23085296Y639651D01*
X23087824Y635889D01*
X23129526Y573830D01*
X23132629Y569212D01*
X23135983Y566161D01*
X23135983Y566160D01*
X23141695Y560963D01*
X23195398Y512097D01*
X23199384Y509933D01*
X23199385Y509932D01*
X23210721Y503777D01*
X23269978Y471603D01*
X23277160Y469719D01*
X23349824Y450656D01*
X23383636Y431369D01*
X23403276Y397760D01*
X23405298Y368102D01*
X23396819Y303699D01*
X23397316Y299197D01*
X23397316Y299193D01*
X23405016Y229453D01*
X23399128Y190975D01*
X23374790Y160595D01*
X23347826Y148079D01*
X23276884Y131048D01*
X23201472Y92125D01*
X23198058Y89147D01*
X23198054Y89144D01*
X23154268Y50946D01*
X23137521Y36337D01*
X23119508Y10707D01*
X23093667Y-26062D01*
X23088724Y-33095D01*
X23087077Y-37318D01*
X23087077Y-37319D01*
X23059542Y-107940D01*
X23059541Y-107944D01*
X23057896Y-112163D01*
X23046819Y-196301D01*
X23047316Y-200803D01*
X23047316Y-200806D01*
X23050489Y-229544D01*
X23056132Y-280654D01*
X23057688Y-284906D01*
X23057689Y-284910D01*
X23063468Y-300702D01*
X23085296Y-360349D01*
X23087824Y-364111D01*
X23129106Y-425545D01*
X23132629Y-430788D01*
X23195398Y-487903D01*
X23199384Y-490067D01*
X23199385Y-490068D01*
X23217827Y-500081D01*
X23269978Y-528397D01*
X23297576Y-535637D01*
X23349824Y-549344D01*
X23383636Y-568631D01*
X23403276Y-602240D01*
X23405298Y-631898D01*
X23396819Y-696301D01*
X23397316Y-700803D01*
X23397316Y-700807D01*
X23405016Y-770547D01*
X23399128Y-809025D01*
X23374790Y-839405D01*
X23347826Y-851921D01*
X23276884Y-868952D01*
X23201472Y-907875D01*
X23198058Y-910853D01*
X23198054Y-910856D01*
X23161376Y-942853D01*
X23137521Y-963663D01*
X23126297Y-979633D01*
X23092303Y-1028003D01*
X23088724Y-1033095D01*
X23087077Y-1037318D01*
X23087077Y-1037319D01*
X23059542Y-1107940D01*
X23059541Y-1107944D01*
X23057896Y-1112163D01*
X23046819Y-1196301D01*
X23047316Y-1200803D01*
X23047316Y-1200806D01*
X23051286Y-1236758D01*
X23056132Y-1280654D01*
X23057688Y-1284906D01*
X23057689Y-1284910D01*
X23063466Y-1300696D01*
X23085296Y-1360349D01*
X23087824Y-1364111D01*
X23122400Y-1415565D01*
X23132629Y-1430788D01*
X23195398Y-1487903D01*
X23199384Y-1490067D01*
X23199385Y-1490068D01*
X23214130Y-1498074D01*
X23269978Y-1528397D01*
X23274357Y-1529546D01*
X23274360Y-1529547D01*
X23332316Y-1544751D01*
X23352065Y-1549932D01*
X23387198Y-1550484D01*
X23432387Y-1551194D01*
X23432389Y-1551194D01*
X23436919Y-1551265D01*
X23441336Y-1550253D01*
X23441339Y-1550253D01*
X23515219Y-1533332D01*
X23519642Y-1532319D01*
X23563969Y-1510025D01*
X23591412Y-1496223D01*
X23591413Y-1496223D01*
X23595458Y-1494188D01*
X23659989Y-1439073D01*
X23662633Y-1435393D01*
X23662638Y-1435388D01*
X23688942Y-1398783D01*
X23719065Y-1374128D01*
X23757480Y-1367838D01*
X23793893Y-1381598D01*
X23812427Y-1400723D01*
X23813715Y-1402641D01*
X23822400Y-1415565D01*
X23832629Y-1430788D01*
X23895398Y-1487903D01*
X23899384Y-1490067D01*
X23899385Y-1490068D01*
X23914130Y-1498074D01*
X23969978Y-1528397D01*
X23974357Y-1529546D01*
X23974360Y-1529547D01*
X24032316Y-1544751D01*
X24052065Y-1549932D01*
X24087198Y-1550484D01*
X24132387Y-1551194D01*
X24132389Y-1551194D01*
X24136919Y-1551265D01*
X24141336Y-1550253D01*
X24141339Y-1550253D01*
X24215219Y-1533332D01*
X24219642Y-1532319D01*
X24263969Y-1510025D01*
X24291412Y-1496223D01*
X24291413Y-1496223D01*
X24295458Y-1494188D01*
X24359989Y-1439073D01*
X24362637Y-1435388D01*
X24406866Y-1373838D01*
X24406868Y-1373835D01*
X24409512Y-1370155D01*
X24430731Y-1317371D01*
X24439473Y-1295625D01*
X24439474Y-1295622D01*
X24441165Y-1291415D01*
X24446459Y-1254221D01*
X24452776Y-1209837D01*
X24452776Y-1209833D01*
X24453123Y-1207397D01*
X24453200Y-1200000D01*
X24447295Y-1151200D01*
X24443550Y-1120250D01*
X24443549Y-1120246D01*
X24443005Y-1115750D01*
X24418112Y-1049873D01*
X24414609Y-1040603D01*
X24414608Y-1040602D01*
X24413007Y-1036364D01*
X24408211Y-1029385D01*
X24388015Y-1000000D01*
X24364939Y-966425D01*
X24301576Y-909970D01*
X24272289Y-894463D01*
X24230584Y-872381D01*
X24230583Y-872381D01*
X24226576Y-870259D01*
X24170616Y-856203D01*
X24150675Y-851194D01*
X24116662Y-832263D01*
X24096672Y-798862D01*
X24094545Y-767666D01*
X24103123Y-707397D01*
X24103200Y-700000D01*
X24098588Y-661886D01*
X24094731Y-630010D01*
X24100216Y-591472D01*
X24124235Y-560839D01*
X24152598Y-547674D01*
X24215219Y-533332D01*
X24219642Y-532319D01*
X24254253Y-514911D01*
X24291412Y-496223D01*
X24291413Y-496223D01*
X24295458Y-494188D01*
X24359989Y-439073D01*
X24362633Y-435394D01*
X24406866Y-373838D01*
X24406868Y-373835D01*
X24409512Y-370155D01*
X24428977Y-321733D01*
X24439473Y-295625D01*
X24439474Y-295622D01*
X24441165Y-291415D01*
X24445720Y-259414D01*
X24452776Y-209837D01*
X24452776Y-209833D01*
X24453123Y-207397D01*
X24453200Y-200000D01*
X24449044Y-165657D01*
X24443550Y-120250D01*
X24443549Y-120246D01*
X24443005Y-115750D01*
X24418230Y-50186D01*
X24414609Y-40603D01*
X24414608Y-40602D01*
X24413007Y-36364D01*
X24408211Y-29385D01*
X24383955Y5907D01*
X24364939Y33575D01*
X24301576Y90030D01*
X24243355Y120857D01*
X24230584Y127619D01*
X24230583Y127619D01*
X24226576Y129741D01*
X24177304Y142117D01*
X24150675Y148806D01*
X24116662Y167737D01*
X24096672Y201138D01*
X24094545Y232334D01*
X24103123Y292603D01*
X24103200Y300000D01*
X24099930Y327021D01*
X24094731Y369990D01*
X24100216Y408528D01*
X24124235Y439161D01*
X24152598Y452326D01*
X24215219Y466668D01*
X24219642Y467681D01*
X24265369Y490679D01*
X24291412Y503777D01*
X24291413Y503777D01*
X24295458Y505812D01*
X24359989Y560927D01*
X24362673Y564662D01*
X24406866Y626162D01*
X24406868Y626165D01*
X24409512Y629845D01*
X24433313Y689052D01*
X24439473Y704375D01*
X24439474Y704378D01*
X24441165Y708585D01*
X24450263Y772507D01*
X24452776Y790163D01*
X24452776Y790167D01*
X24453123Y792603D01*
X24453200Y800000D01*
X24449911Y827183D01*
X24443550Y879750D01*
X24443549Y879754D01*
X24443005Y884250D01*
X24413007Y963636D01*
X24408211Y970615D01*
X24377208Y1015723D01*
X24364939Y1033575D01*
X24301576Y1090030D01*
X24272797Y1105268D01*
X24230584Y1127619D01*
X24230583Y1127619D01*
X24226576Y1129741D01*
X24167403Y1144604D01*
X24148668Y1149310D01*
X24148667Y1149310D01*
X24144268Y1150415D01*
X24139735Y1150439D01*
X24139733Y1150439D01*
X24103564Y1150628D01*
X24059404Y1150859D01*
X23976884Y1131048D01*
X23901472Y1092125D01*
X23898058Y1089147D01*
X23898054Y1089144D01*
X23880134Y1073511D01*
X23837521Y1036337D01*
X23818051Y1008633D01*
X23811521Y999342D01*
X23781658Y974373D01*
X23743311Y967681D01*
X23706755Y981058D01*
X23688022Y999989D01*
X23677208Y1015723D01*
X23664939Y1033575D01*
X23601576Y1090030D01*
X23572797Y1105268D01*
X23530584Y1127619D01*
X23530583Y1127619D01*
X23526576Y1129741D01*
X23467403Y1144604D01*
X23448668Y1149310D01*
X23448667Y1149310D01*
X23444268Y1150415D01*
X23439735Y1150439D01*
X23439733Y1150439D01*
X23403564Y1150628D01*
X23359404Y1150859D01*
X23276884Y1131048D01*
X23201472Y1092125D01*
X23198058Y1089147D01*
X23198054Y1089144D01*
X23180134Y1073511D01*
X23137521Y1036337D01*
X23118051Y1008633D01*
X23093973Y974373D01*
X23088724Y966905D01*
X23087077Y962682D01*
X23087077Y962681D01*
X23059542Y892060D01*
X23059541Y892056D01*
X23057896Y887837D01*
X23046819Y803699D01*
X22101913Y803699D01*
X22099051Y825437D01*
X22092739Y873386D01*
X22092738Y873389D01*
X22092096Y878267D01*
X22061886Y951200D01*
X22013829Y1013829D01*
X21979279Y1040340D01*
X21955582Y1071222D01*
X21950501Y1109815D01*
X21965398Y1145779D01*
X21979279Y1159660D01*
X22009922Y1183173D01*
X22013829Y1186171D01*
X22061886Y1248800D01*
X22092096Y1321733D01*
X22092872Y1327622D01*
X22101757Y1395116D01*
X22102400Y1400000D01*
X22099504Y1421995D01*
X22092739Y1473386D01*
X22092738Y1473389D01*
X22092096Y1478267D01*
X22061886Y1551200D01*
X22013829Y1613829D01*
X21979279Y1640340D01*
X21955582Y1671222D01*
X21950501Y1709815D01*
X21965398Y1745779D01*
X21979279Y1759660D01*
X22009922Y1783173D01*
X22013829Y1786171D01*
X22061886Y1848800D01*
X22092096Y1921733D01*
X22092815Y1927188D01*
X22101757Y1995116D01*
X22102400Y2000000D01*
X22096509Y2044749D01*
X22092739Y2073386D01*
X22092738Y2073389D01*
X22092096Y2078267D01*
X22061886Y2151200D01*
X22013829Y2213829D01*
X21951200Y2261886D01*
X21878267Y2292096D01*
X21873389Y2292738D01*
X21873386Y2292739D01*
X21804884Y2301757D01*
X21800000Y2302400D01*
X21795116Y2301757D01*
X21726614Y2292739D01*
X21726611Y2292738D01*
X21721733Y2292096D01*
X21648800Y2261886D01*
X21586171Y2213829D01*
X21538114Y2151200D01*
X21507904Y2078267D01*
X21507262Y2073389D01*
X21507261Y2073386D01*
X21503491Y2044749D01*
X21497600Y2000000D01*
X15399056Y2000000D01*
X15412668Y2096525D01*
X15412800Y2097423D01*
X15413738Y2103542D01*
X15413738Y2103548D01*
X15414179Y2106420D01*
X15413786Y2277600D01*
X15413790Y2278505D01*
X15413849Y2284528D01*
X15413849Y2284533D01*
X15413877Y2287439D01*
X15398051Y2396062D01*
X15389215Y2456713D01*
X15389090Y2457609D01*
X15388278Y2463695D01*
X15388276Y2463704D01*
X15387892Y2466584D01*
X15339423Y2630765D01*
X15339190Y2631574D01*
X15336748Y2640230D01*
X15265463Y2795891D01*
X15265171Y2796540D01*
X15261482Y2804859D01*
X15259910Y2807302D01*
X15259014Y2808963D01*
X15250000Y2844662D01*
X15250000Y3250000D01*
X14872504Y3250000D01*
X14831809Y3261963D01*
X14764560Y3305240D01*
X14763863Y3305694D01*
X14756266Y3310714D01*
X14741260Y3317586D01*
X14612551Y3376528D01*
X14582560Y3401344D01*
X14568995Y3437830D01*
X14575490Y3476211D01*
X14600306Y3506202D01*
X14636792Y3519767D01*
X14643862Y3520100D01*
X21652915Y3520100D01*
X21690515Y3510025D01*
X21706089Y3498074D01*
X22726693Y2477469D01*
X23739309Y1464853D01*
X23741489Y1462580D01*
X23757119Y1445582D01*
X23757122Y1445580D01*
X23760590Y1441808D01*
X23764943Y1439109D01*
X23764948Y1439105D01*
X23778941Y1430430D01*
X23784781Y1426417D01*
X23801967Y1413371D01*
X23808157Y1410920D01*
X23820082Y1404922D01*
X23825737Y1401416D01*
X23846482Y1395389D01*
X23853162Y1393102D01*
X23873237Y1385153D01*
X23878338Y1384617D01*
X23878341Y1384616D01*
X23879849Y1384457D01*
X23892959Y1381885D01*
X23894851Y1381336D01*
X23899345Y1380030D01*
X23903999Y1379688D01*
X23905185Y1379601D01*
X23905191Y1379601D01*
X23906550Y1379501D01*
X23923074Y1379501D01*
X23930934Y1379089D01*
X23949469Y1377141D01*
X23957198Y1378448D01*
X23969737Y1379501D01*
X29721428Y1379501D01*
X29759028Y1369426D01*
X29774602Y1357475D01*
X32700802Y-1568726D01*
X32720266Y-1602437D01*
X32720266Y-1641363D01*
X32700802Y-1675074D01*
X32667091Y-1694538D01*
X32647628Y-1697100D01*
X32456613Y-1697100D01*
X32419013Y-1687025D01*
X32403439Y-1675074D01*
X30931100Y-202736D01*
X30924614Y-195341D01*
X30918948Y-187957D01*
X30915950Y-184050D01*
X30903441Y-174451D01*
X30856607Y-138514D01*
X30852700Y-135516D01*
X30804981Y-115750D01*
X30783597Y-106892D01*
X30783595Y-106891D01*
X30779043Y-105006D01*
X30749670Y-101139D01*
X30719009Y-97102D01*
X30718999Y-97101D01*
X30718990Y-97100D01*
X30718985Y-97100D01*
X30718977Y-97099D01*
X30700000Y-94601D01*
X30695116Y-95244D01*
X30685902Y-96457D01*
X30676087Y-97100D01*
X28241693Y-97100D01*
X28204093Y-87025D01*
X28187057Y-73572D01*
X28184988Y-71384D01*
X28182191Y-68426D01*
X28178828Y-66140D01*
X28178825Y-66138D01*
X28107770Y-17850D01*
X28104408Y-15565D01*
X28017088Y19361D01*
X27924305Y34721D01*
X27920238Y34508D01*
X27920235Y34508D01*
X27873248Y32045D01*
X27830388Y29799D01*
X27826461Y28717D01*
X27826459Y28717D01*
X27749728Y7582D01*
X27739719Y4825D01*
X27656527Y-39037D01*
X27634362Y-57768D01*
X27587805Y-97112D01*
X27587802Y-97115D01*
X27584696Y-99740D01*
X27582225Y-102972D01*
X27582224Y-102973D01*
X27576993Y-109815D01*
X27527574Y-174451D01*
X27525853Y-178142D01*
X27489548Y-255998D01*
X27489546Y-256004D01*
X27487829Y-259686D01*
X27486942Y-263654D01*
X27486941Y-263657D01*
X27478387Y-301926D01*
X27467313Y-351466D01*
X27467269Y-364111D01*
X27467022Y-435002D01*
X27466985Y-445512D01*
X27467845Y-449488D01*
X27467845Y-449491D01*
X27470134Y-460076D01*
X27486859Y-537434D01*
X27526009Y-622943D01*
X27528459Y-626194D01*
X27528460Y-626196D01*
X27558196Y-665657D01*
X27582607Y-698052D01*
X27585695Y-700698D01*
X27585698Y-700702D01*
X27650916Y-756600D01*
X27650919Y-756602D01*
X27654013Y-759254D01*
X27736896Y-803696D01*
X27759817Y-810182D01*
X27823472Y-828195D01*
X27823476Y-828196D01*
X27827389Y-829303D01*
X27880364Y-832450D01*
X27917207Y-834639D01*
X27917210Y-834639D01*
X27921269Y-834880D01*
X28014157Y-820168D01*
X28017946Y-818683D01*
X28017950Y-818682D01*
X28087526Y-791415D01*
X28101719Y-785853D01*
X28105106Y-783585D01*
X28105109Y-783584D01*
X28176485Y-735802D01*
X28179870Y-733536D01*
X28187050Y-726049D01*
X28220345Y-705886D01*
X28241324Y-702900D01*
X30543388Y-702900D01*
X30580988Y-712975D01*
X30596562Y-724926D01*
X31333989Y-1462354D01*
X32063361Y-2191726D01*
X32082825Y-2225437D01*
X32082825Y-2264363D01*
X32063361Y-2298074D01*
X32029650Y-2317538D01*
X32010187Y-2320100D01*
X31504733Y-2320100D01*
X31501585Y-2320034D01*
X31501355Y-2320024D01*
X31473424Y-2318854D01*
X31468436Y-2320024D01*
X31468435Y-2320024D01*
X31468111Y-2320100D01*
X31452408Y-2323783D01*
X31445456Y-2325071D01*
X31424057Y-2328003D01*
X31419353Y-2330038D01*
X31419348Y-2330040D01*
X31417953Y-2330644D01*
X31405264Y-2334841D01*
X31398796Y-2336358D01*
X31394304Y-2338827D01*
X31394305Y-2338827D01*
X31379883Y-2346755D01*
X31373529Y-2349868D01*
X31353709Y-2358445D01*
X31348548Y-2362625D01*
X31337451Y-2370082D01*
X31331625Y-2373284D01*
X31326156Y-2378005D01*
X31314477Y-2389684D01*
X31308628Y-2394951D01*
X31294139Y-2406684D01*
X31289594Y-2413079D01*
X31281478Y-2422683D01*
X30910070Y-2794093D01*
X30806089Y-2898074D01*
X30772377Y-2917538D01*
X30752914Y-2920100D01*
X27647086Y-2920100D01*
X27609486Y-2910025D01*
X27593912Y-2898074D01*
X26957129Y-2261291D01*
X26937665Y-2227580D01*
X26935275Y-2204029D01*
X26935389Y-2203040D01*
X26935400Y-2200000D01*
X26934870Y-2195116D01*
X26925683Y-2110556D01*
X26925243Y-2106504D01*
X26923862Y-2102400D01*
X26896545Y-2021229D01*
X26896543Y-2021224D01*
X26895246Y-2017371D01*
X26893113Y-2013820D01*
X26855897Y-1951883D01*
X26846809Y-1936758D01*
X26804879Y-1892418D01*
X26784985Y-1871380D01*
X26784982Y-1871378D01*
X26782191Y-1868426D01*
X26764790Y-1856600D01*
X26722464Y-1827836D01*
X26704408Y-1815565D01*
X26617088Y-1780639D01*
X26524305Y-1765279D01*
X26520238Y-1765492D01*
X26520235Y-1765492D01*
X26473248Y-1767955D01*
X26430388Y-1770201D01*
X26426461Y-1771283D01*
X26426459Y-1771283D01*
X26372408Y-1786171D01*
X26339719Y-1795175D01*
X26256527Y-1839037D01*
X26235744Y-1856600D01*
X26187805Y-1897112D01*
X26187802Y-1897115D01*
X26184696Y-1899740D01*
X26127574Y-1974451D01*
X26125853Y-1978142D01*
X26089548Y-2055998D01*
X26089546Y-2056004D01*
X26087829Y-2059686D01*
X26086942Y-2063654D01*
X26086941Y-2063657D01*
X26079608Y-2096462D01*
X26067313Y-2151466D01*
X26067173Y-2191726D01*
X26067042Y-2229303D01*
X26066985Y-2245512D01*
X26067845Y-2249488D01*
X26067845Y-2249491D01*
X26077057Y-2292096D01*
X26086859Y-2337434D01*
X26126009Y-2422943D01*
X26128459Y-2426194D01*
X26128460Y-2426196D01*
X26166711Y-2476957D01*
X26182607Y-2498052D01*
X26185695Y-2500698D01*
X26185698Y-2500702D01*
X26250916Y-2556600D01*
X26250919Y-2556602D01*
X26254013Y-2559254D01*
X26336896Y-2603696D01*
X26369521Y-2612928D01*
X26423472Y-2628195D01*
X26423476Y-2628196D01*
X26427389Y-2629303D01*
X26474665Y-2632111D01*
X26511651Y-2634309D01*
X26548587Y-2646596D01*
X26560365Y-2656203D01*
X26929810Y-3025649D01*
X27298721Y-3394560D01*
X27300901Y-3396833D01*
X27316519Y-3413818D01*
X27316522Y-3413820D01*
X27319991Y-3417593D01*
X27324348Y-3420294D01*
X27324351Y-3420297D01*
X27338342Y-3428972D01*
X27344171Y-3432977D01*
X27361369Y-3446031D01*
X27366140Y-3447920D01*
X27367549Y-3448478D01*
X27379486Y-3454481D01*
X27385138Y-3457985D01*
X27390062Y-3459416D01*
X27390065Y-3459417D01*
X27405875Y-3464011D01*
X27412568Y-3466302D01*
X27432638Y-3474248D01*
X27438887Y-3474905D01*
X27439239Y-3474942D01*
X27452368Y-3477518D01*
X27454958Y-3478271D01*
X27454963Y-3478272D01*
X27458746Y-3479371D01*
X27462678Y-3479660D01*
X27462680Y-3479660D01*
X27464586Y-3479800D01*
X27464592Y-3479800D01*
X27465951Y-3479900D01*
X27482467Y-3479900D01*
X27490328Y-3480312D01*
X27498272Y-3481147D01*
X27508870Y-3482261D01*
X27516603Y-3480953D01*
X27529145Y-3479900D01*
X30895251Y-3479900D01*
X30898399Y-3479966D01*
X30926575Y-3481147D01*
X30931560Y-3479978D01*
X30931567Y-3479977D01*
X30947596Y-3476217D01*
X30954561Y-3474926D01*
X30963953Y-3473639D01*
X30975943Y-3471997D01*
X30980653Y-3469959D01*
X30982050Y-3469355D01*
X30994735Y-3465160D01*
X30996213Y-3464813D01*
X30996216Y-3464812D01*
X31001203Y-3463642D01*
X31020128Y-3453239D01*
X31026451Y-3450141D01*
X31046291Y-3441555D01*
X31051457Y-3437372D01*
X31062553Y-3429916D01*
X31064270Y-3428972D01*
X31068374Y-3426716D01*
X31073842Y-3421995D01*
X31085513Y-3410324D01*
X31091362Y-3405057D01*
X31101876Y-3396543D01*
X31105861Y-3393316D01*
X31108904Y-3389035D01*
X31110411Y-3386915D01*
X31118533Y-3377305D01*
X31593912Y-2901926D01*
X31627623Y-2882462D01*
X31647086Y-2879900D01*
X31853623Y-2879900D01*
X31891223Y-2889975D01*
X31918748Y-2917500D01*
X31928823Y-2955100D01*
X31921778Y-2986880D01*
X31916480Y-2998243D01*
X31887829Y-3059686D01*
X31886942Y-3063654D01*
X31886941Y-3063657D01*
X31881909Y-3086171D01*
X31867313Y-3151466D01*
X31867268Y-3164314D01*
X31867001Y-3241014D01*
X31866985Y-3245512D01*
X31867845Y-3249488D01*
X31867845Y-3249491D01*
X31879096Y-3301527D01*
X31886859Y-3337434D01*
X31926009Y-3422943D01*
X31928459Y-3426194D01*
X31928460Y-3426196D01*
X31965193Y-3474942D01*
X31982607Y-3498052D01*
X31985695Y-3500698D01*
X31985698Y-3500702D01*
X32050916Y-3556600D01*
X32050919Y-3556602D01*
X32054013Y-3559254D01*
X32136896Y-3603696D01*
X32172580Y-3613794D01*
X32223472Y-3628195D01*
X32223476Y-3628196D01*
X32227389Y-3629303D01*
X32281307Y-3632506D01*
X32317207Y-3634639D01*
X32317210Y-3634639D01*
X32321269Y-3634880D01*
X32414157Y-3620168D01*
X32417946Y-3618683D01*
X32417950Y-3618682D01*
X32463829Y-3600702D01*
X32501719Y-3585853D01*
X32505106Y-3583585D01*
X32505109Y-3583584D01*
X32576485Y-3535802D01*
X32579870Y-3533536D01*
X32609104Y-3503051D01*
X32642400Y-3482886D01*
X32663380Y-3479900D01*
X40233623Y-3479900D01*
X40271223Y-3489975D01*
X40282124Y-3498616D01*
X40282607Y-3498052D01*
X40350916Y-3556600D01*
X40350919Y-3556602D01*
X40354013Y-3559254D01*
X40436896Y-3603696D01*
X40472580Y-3613794D01*
X40523472Y-3628195D01*
X40523476Y-3628196D01*
X40527389Y-3629303D01*
X40581307Y-3632506D01*
X40617207Y-3634639D01*
X40617210Y-3634639D01*
X40621269Y-3634880D01*
X40714157Y-3620168D01*
X40717946Y-3618683D01*
X40717950Y-3618682D01*
X40763829Y-3600702D01*
X40801719Y-3585853D01*
X40805106Y-3583585D01*
X40805109Y-3583584D01*
X40876484Y-3535803D01*
X40876486Y-3535802D01*
X40879870Y-3533536D01*
X40944963Y-3465657D01*
X40953942Y-3450948D01*
X40962410Y-3437074D01*
X40993962Y-3385384D01*
X41023361Y-3300000D01*
X41585187Y-3300000D01*
X41585830Y-3304884D01*
X41594735Y-3372522D01*
X41595491Y-3378267D01*
X41625701Y-3451200D01*
X41673758Y-3513829D01*
X41677665Y-3516827D01*
X41685636Y-3522943D01*
X41736387Y-3561886D01*
X41809320Y-3592096D01*
X41814198Y-3592738D01*
X41814201Y-3592739D01*
X41882703Y-3601757D01*
X41887587Y-3602400D01*
X41892471Y-3601757D01*
X41960973Y-3592739D01*
X41960976Y-3592738D01*
X41965854Y-3592096D01*
X42038787Y-3561886D01*
X42089538Y-3522943D01*
X42097509Y-3516827D01*
X42101416Y-3513829D01*
X42149473Y-3451200D01*
X42179683Y-3378267D01*
X42180440Y-3372522D01*
X42183995Y-3345512D01*
X43166985Y-3345512D01*
X43167845Y-3349488D01*
X43167845Y-3349491D01*
X43177320Y-3393316D01*
X43186859Y-3437434D01*
X43226009Y-3522943D01*
X43228459Y-3526194D01*
X43228460Y-3526196D01*
X43274536Y-3587341D01*
X43282607Y-3598052D01*
X43285695Y-3600698D01*
X43285698Y-3600702D01*
X43350916Y-3656600D01*
X43350919Y-3656602D01*
X43354013Y-3659254D01*
X43436896Y-3703696D01*
X43472580Y-3713794D01*
X43523472Y-3728195D01*
X43523476Y-3728196D01*
X43527389Y-3729303D01*
X43611650Y-3734309D01*
X43648584Y-3746595D01*
X43660364Y-3756202D01*
X43786526Y-3882365D01*
X43898733Y-3994572D01*
X43900912Y-3996845D01*
X43916520Y-4013819D01*
X43916522Y-4013821D01*
X43919991Y-4017593D01*
X43924344Y-4020292D01*
X43924349Y-4020296D01*
X43938347Y-4028974D01*
X43944173Y-4032978D01*
X43961369Y-4046030D01*
X43966136Y-4047917D01*
X43966137Y-4047918D01*
X43967547Y-4048476D01*
X43979488Y-4054482D01*
X43985138Y-4057985D01*
X43990056Y-4059414D01*
X43990063Y-4059417D01*
X44005878Y-4064012D01*
X44012571Y-4066303D01*
X44032638Y-4074248D01*
X44037739Y-4074784D01*
X44037742Y-4074785D01*
X44039250Y-4074944D01*
X44052360Y-4077516D01*
X44054252Y-4078065D01*
X44058746Y-4079371D01*
X44063400Y-4079713D01*
X44064586Y-4079800D01*
X44064592Y-4079800D01*
X44065951Y-4079900D01*
X44082475Y-4079900D01*
X44090335Y-4080312D01*
X44108870Y-4082260D01*
X44116599Y-4080953D01*
X44129138Y-4079900D01*
X61295251Y-4079900D01*
X61298399Y-4079966D01*
X61326575Y-4081147D01*
X61331560Y-4079978D01*
X61331567Y-4079977D01*
X61347596Y-4076217D01*
X61354561Y-4074926D01*
X61363953Y-4073639D01*
X61375943Y-4071997D01*
X61380653Y-4069959D01*
X61382050Y-4069355D01*
X61394735Y-4065160D01*
X61396213Y-4064813D01*
X61396216Y-4064812D01*
X61401203Y-4063642D01*
X61420128Y-4053239D01*
X61426451Y-4050141D01*
X61446291Y-4041555D01*
X61451457Y-4037372D01*
X61462553Y-4029916D01*
X61468374Y-4026716D01*
X61473842Y-4021995D01*
X61485513Y-4010324D01*
X61491362Y-4005057D01*
X61501877Y-3996542D01*
X61505861Y-3993316D01*
X61510409Y-3986917D01*
X61518529Y-3977308D01*
X61740443Y-3755395D01*
X61774154Y-3735932D01*
X61798076Y-3733502D01*
X61806087Y-3733978D01*
X61817207Y-3734639D01*
X61817210Y-3734639D01*
X61821269Y-3734880D01*
X61914157Y-3720168D01*
X61917946Y-3718683D01*
X61917950Y-3718682D01*
X61961103Y-3701770D01*
X62001719Y-3685853D01*
X62005106Y-3683585D01*
X62005109Y-3683584D01*
X62076484Y-3635803D01*
X62076486Y-3635802D01*
X62079870Y-3633536D01*
X62144963Y-3565657D01*
X62148872Y-3559254D01*
X62176599Y-3513829D01*
X62193962Y-3485384D01*
X62224580Y-3396462D01*
X62225460Y-3388861D01*
X62233847Y-3316371D01*
X62235389Y-3303040D01*
X62235400Y-3300000D01*
X62234870Y-3295116D01*
X62229481Y-3245512D01*
X62225243Y-3206504D01*
X62210823Y-3163657D01*
X62196025Y-3119685D01*
X62193581Y-3080835D01*
X62210889Y-3045968D01*
X62243311Y-3024427D01*
X62267297Y-3020499D01*
X65254652Y-3020499D01*
X65257800Y-3020565D01*
X65285976Y-3021746D01*
X65290961Y-3020577D01*
X65290968Y-3020576D01*
X65306997Y-3016816D01*
X65313962Y-3015525D01*
X65323354Y-3014238D01*
X65335344Y-3012596D01*
X65340054Y-3010558D01*
X65341451Y-3009954D01*
X65354136Y-3005759D01*
X65355614Y-3005412D01*
X65355617Y-3005411D01*
X65360604Y-3004241D01*
X65379529Y-2993838D01*
X65385852Y-2990740D01*
X65405692Y-2982154D01*
X65410858Y-2977971D01*
X65421954Y-2970515D01*
X65427775Y-2967315D01*
X65433243Y-2962594D01*
X65444914Y-2950923D01*
X65450763Y-2945656D01*
X65461278Y-2937141D01*
X65465262Y-2933915D01*
X65469813Y-2927512D01*
X65477932Y-2917905D01*
X65903184Y-2492653D01*
X66673851Y-2492653D01*
X66674159Y-2496321D01*
X66674159Y-2496324D01*
X66675702Y-2514692D01*
X66682445Y-2594989D01*
X66710752Y-2693707D01*
X66757694Y-2785047D01*
X66821483Y-2865529D01*
X66899691Y-2932089D01*
X66902892Y-2933878D01*
X66902895Y-2933880D01*
X66986125Y-2980396D01*
X66986130Y-2980398D01*
X66989336Y-2982190D01*
X67087006Y-3013925D01*
X67150790Y-3021531D01*
X67185323Y-3025649D01*
X67185324Y-3025649D01*
X67188980Y-3026085D01*
X67291374Y-3018206D01*
X67357512Y-2999740D01*
X67386742Y-2991579D01*
X67386744Y-2991578D01*
X67390287Y-2990589D01*
X67406985Y-2982154D01*
X67478669Y-2945944D01*
X67478674Y-2945941D01*
X67481952Y-2944285D01*
X67492503Y-2936042D01*
X67519833Y-2914689D01*
X69195203Y-2914689D01*
X69195773Y-2918458D01*
X69209611Y-3009954D01*
X69210478Y-3015688D01*
X69211791Y-3019258D01*
X69211792Y-3019260D01*
X69239709Y-3095136D01*
X69245749Y-3111553D01*
X69247753Y-3114785D01*
X69247754Y-3114787D01*
X69274437Y-3157821D01*
X69299577Y-3198367D01*
X69302187Y-3201127D01*
X69302190Y-3201131D01*
X69359716Y-3261963D01*
X69369761Y-3272585D01*
X69453436Y-3331175D01*
X69547182Y-3371743D01*
X69607923Y-3384432D01*
X69644341Y-3392040D01*
X69644343Y-3392040D01*
X69647171Y-3392631D01*
X69652303Y-3392900D01*
X69724611Y-3392900D01*
X69729356Y-3392418D01*
X69797837Y-3385462D01*
X69797839Y-3385462D01*
X69801625Y-3385077D01*
X69899098Y-3354531D01*
X69902427Y-3352686D01*
X69985111Y-3306854D01*
X69985113Y-3306853D01*
X69988439Y-3305009D01*
X70065996Y-3238534D01*
X70079029Y-3221733D01*
X70093838Y-3202641D01*
X70128604Y-3157821D01*
X70130805Y-3153349D01*
X70172021Y-3069584D01*
X70173702Y-3066168D01*
X70199451Y-2967319D01*
X70202209Y-2914689D01*
X70204598Y-2869115D01*
X70204598Y-2869111D01*
X70204797Y-2865311D01*
X70197619Y-2817850D01*
X70190092Y-2768078D01*
X70190091Y-2768074D01*
X70189522Y-2764312D01*
X70177215Y-2730861D01*
X70155566Y-2672020D01*
X70155564Y-2672017D01*
X70154251Y-2668447D01*
X70131932Y-2632450D01*
X70102427Y-2584865D01*
X70100423Y-2581633D01*
X70097813Y-2578873D01*
X70097810Y-2578869D01*
X70032855Y-2510181D01*
X70032853Y-2510179D01*
X70030239Y-2507415D01*
X69946564Y-2448825D01*
X69852818Y-2408257D01*
X69785472Y-2394188D01*
X69755659Y-2387960D01*
X69755657Y-2387960D01*
X69752829Y-2387369D01*
X69747697Y-2387100D01*
X69675389Y-2387100D01*
X69673489Y-2387293D01*
X69602163Y-2394538D01*
X69602161Y-2394538D01*
X69598375Y-2394923D01*
X69500902Y-2425469D01*
X69497575Y-2427313D01*
X69497573Y-2427314D01*
X69414889Y-2473146D01*
X69414887Y-2473147D01*
X69411561Y-2474991D01*
X69334004Y-2541466D01*
X69331670Y-2544475D01*
X69331668Y-2544477D01*
X69322265Y-2556600D01*
X69271396Y-2622179D01*
X69226298Y-2713832D01*
X69200549Y-2812681D01*
X69199267Y-2837137D01*
X69195881Y-2901757D01*
X69195203Y-2914689D01*
X67519833Y-2914689D01*
X67559985Y-2883320D01*
X67559989Y-2883316D01*
X67562878Y-2881059D01*
X67594359Y-2844588D01*
X67627577Y-2806106D01*
X67627580Y-2806102D01*
X67629982Y-2803319D01*
X67631798Y-2800122D01*
X67631801Y-2800118D01*
X67678890Y-2717226D01*
X67678892Y-2717223D01*
X67680708Y-2714025D01*
X67704756Y-2641735D01*
X67711962Y-2620073D01*
X67711963Y-2620070D01*
X67713124Y-2616579D01*
X67725995Y-2514692D01*
X67726200Y-2500000D01*
X67725691Y-2494802D01*
X67720501Y-2441872D01*
X67716179Y-2397794D01*
X67686496Y-2299481D01*
X67638283Y-2208805D01*
X67573376Y-2129221D01*
X67494247Y-2063760D01*
X67403911Y-2014916D01*
X67348970Y-1997909D01*
X67309320Y-1985635D01*
X67309316Y-1985634D01*
X67305807Y-1984548D01*
X67231912Y-1976781D01*
X67207329Y-1974197D01*
X67207327Y-1974197D01*
X67203674Y-1973813D01*
X67156103Y-1978142D01*
X67105058Y-1982787D01*
X67105057Y-1982787D01*
X67101400Y-1983120D01*
X67097876Y-1984157D01*
X67097872Y-1984158D01*
X67006411Y-2011077D01*
X67006408Y-2011078D01*
X67002882Y-2012116D01*
X66999624Y-2013819D01*
X66999622Y-2013820D01*
X66915131Y-2057991D01*
X66911872Y-2059695D01*
X66909006Y-2062000D01*
X66909005Y-2062000D01*
X66839500Y-2117883D01*
X66831837Y-2124044D01*
X66765825Y-2202714D01*
X66764054Y-2205936D01*
X66764053Y-2205937D01*
X66735962Y-2257036D01*
X66716351Y-2292708D01*
X66685299Y-2390597D01*
X66673851Y-2492653D01*
X65903184Y-2492653D01*
X69540442Y1144604D01*
X69574153Y1164068D01*
X69598075Y1166498D01*
X69604705Y1166104D01*
X69617207Y1165361D01*
X69617210Y1165361D01*
X69621269Y1165120D01*
X69714157Y1179832D01*
X69717946Y1181317D01*
X69717950Y1181318D01*
X69769764Y1201624D01*
X69801719Y1214147D01*
X69805106Y1216415D01*
X69805109Y1216416D01*
X69876484Y1264197D01*
X69876486Y1264198D01*
X69879870Y1266464D01*
X69944963Y1334343D01*
X69993962Y1414616D01*
X70024580Y1503538D01*
X70028363Y1536230D01*
X70030095Y1551200D01*
X70035389Y1596960D01*
X70035400Y1600000D01*
X70032884Y1623165D01*
X70025683Y1689444D01*
X70025243Y1693496D01*
X70015740Y1721733D01*
X69996545Y1778771D01*
X69996543Y1778776D01*
X69995246Y1782629D01*
X69990771Y1790078D01*
X69957834Y1844893D01*
X69946809Y1863242D01*
X69895266Y1917748D01*
X69884985Y1928620D01*
X69884982Y1928622D01*
X69882191Y1931574D01*
X69873485Y1937491D01*
X69807770Y1982150D01*
X69804408Y1984435D01*
X69717088Y2019361D01*
X69624305Y2034721D01*
X69620238Y2034508D01*
X69620235Y2034508D01*
X69573248Y2032045D01*
X69530388Y2029799D01*
X69526461Y2028717D01*
X69526459Y2028717D01*
X69458224Y2009922D01*
X69439719Y2004825D01*
X69356527Y1960963D01*
X69348865Y1954488D01*
X69287805Y1902888D01*
X69287802Y1902885D01*
X69284696Y1900260D01*
X69227574Y1825549D01*
X69225853Y1821858D01*
X69189548Y1744002D01*
X69189546Y1743996D01*
X69187829Y1740314D01*
X69186942Y1736346D01*
X69186941Y1736343D01*
X69178227Y1697359D01*
X69167313Y1648534D01*
X69167202Y1616827D01*
X69167122Y1593845D01*
X69156915Y1556281D01*
X69145096Y1540934D01*
X65165490Y-2438673D01*
X65131779Y-2458137D01*
X65112316Y-2460699D01*
X62457218Y-2460699D01*
X62419618Y-2450624D01*
X62392093Y-2423099D01*
X62382018Y-2385499D01*
X62391292Y-2352513D01*
X62390106Y-2351955D01*
X62391840Y-2348271D01*
X62393962Y-2344794D01*
X62424580Y-2255872D01*
X62427083Y-2234243D01*
X62430355Y-2205960D01*
X62435389Y-2162450D01*
X62435400Y-2159410D01*
X62433577Y-2142624D01*
X62429817Y-2108019D01*
X62425243Y-2065914D01*
X62423147Y-2059686D01*
X62396545Y-1980639D01*
X62396543Y-1980634D01*
X62395246Y-1976781D01*
X62393153Y-1973297D01*
X62393148Y-1973287D01*
X62363071Y-1923231D01*
X62352341Y-1885813D01*
X62361759Y-1848043D01*
X62388800Y-1820042D01*
X62427530Y-1809301D01*
X62967915Y-1809301D01*
X63005515Y-1819376D01*
X63016853Y-1827404D01*
X63054013Y-1859254D01*
X63136896Y-1903696D01*
X63158520Y-1909815D01*
X63223472Y-1928195D01*
X63223476Y-1928196D01*
X63227389Y-1929303D01*
X63281307Y-1932506D01*
X63317207Y-1934639D01*
X63317210Y-1934639D01*
X63321269Y-1934880D01*
X63414157Y-1920168D01*
X63417946Y-1918683D01*
X63417950Y-1918682D01*
X63472989Y-1897112D01*
X63501719Y-1885853D01*
X63505106Y-1883585D01*
X63505109Y-1883584D01*
X63576484Y-1835803D01*
X63576486Y-1835802D01*
X63579870Y-1833536D01*
X63644963Y-1765657D01*
X63656737Y-1746369D01*
X63670039Y-1724576D01*
X63693962Y-1685384D01*
X63724580Y-1596462D01*
X63725486Y-1588636D01*
X63735150Y-1505105D01*
X63735389Y-1503040D01*
X63735400Y-1500000D01*
X63725243Y-1406504D01*
X63722645Y-1398783D01*
X63696545Y-1321229D01*
X63696543Y-1321224D01*
X63695246Y-1317371D01*
X63691152Y-1310556D01*
X63648904Y-1240245D01*
X63646809Y-1236758D01*
X63604302Y-1191808D01*
X63584985Y-1171380D01*
X63584982Y-1171378D01*
X63582191Y-1168426D01*
X63504408Y-1115565D01*
X63417088Y-1080639D01*
X63324305Y-1065279D01*
X63320238Y-1065492D01*
X63320235Y-1065492D01*
X63273248Y-1067955D01*
X63230388Y-1070201D01*
X63226461Y-1071283D01*
X63226459Y-1071283D01*
X63149728Y-1092418D01*
X63139719Y-1095175D01*
X63056527Y-1139037D01*
X62984696Y-1199740D01*
X62982222Y-1202976D01*
X62982220Y-1202978D01*
X62969224Y-1219976D01*
X62938383Y-1243727D01*
X62909485Y-1249501D01*
X59276488Y-1249501D01*
X59238888Y-1239426D01*
X59223314Y-1227475D01*
X58457129Y-461291D01*
X58437665Y-427580D01*
X58435275Y-404029D01*
X58435389Y-403040D01*
X58435400Y-400000D01*
X58434931Y-395677D01*
X58425683Y-310556D01*
X58425243Y-306504D01*
X58417976Y-284910D01*
X58396545Y-221229D01*
X58396543Y-221224D01*
X58395246Y-217371D01*
X58387766Y-204921D01*
X58348904Y-140245D01*
X58346809Y-136758D01*
X58309306Y-97099D01*
X58284985Y-71380D01*
X58284982Y-71378D01*
X58282191Y-68426D01*
X58278825Y-66138D01*
X58230203Y-33095D01*
X58204408Y-15565D01*
X58117088Y19361D01*
X58024305Y34721D01*
X58020238Y34508D01*
X58020235Y34508D01*
X57973248Y32045D01*
X57930388Y29799D01*
X57926461Y28717D01*
X57926459Y28717D01*
X57849728Y7582D01*
X57839719Y4825D01*
X57756527Y-39037D01*
X57734362Y-57768D01*
X57687805Y-97112D01*
X57687802Y-97115D01*
X57684696Y-99740D01*
X57682225Y-102972D01*
X57682224Y-102973D01*
X57676993Y-109815D01*
X57627574Y-174451D01*
X57625853Y-178142D01*
X57589548Y-255998D01*
X57589546Y-256004D01*
X57587829Y-259686D01*
X57586942Y-263654D01*
X57586941Y-263657D01*
X57578387Y-301926D01*
X57567313Y-351466D01*
X57567269Y-364111D01*
X57567022Y-435002D01*
X57566985Y-445512D01*
X57567845Y-449488D01*
X57567845Y-449491D01*
X57570134Y-460076D01*
X57586859Y-537434D01*
X57626009Y-622943D01*
X57628459Y-626194D01*
X57628460Y-626196D01*
X57658196Y-665657D01*
X57682607Y-698052D01*
X57685695Y-700698D01*
X57685698Y-700702D01*
X57750916Y-756600D01*
X57750919Y-756602D01*
X57754013Y-759254D01*
X57836896Y-803696D01*
X57859817Y-810182D01*
X57923472Y-828195D01*
X57923476Y-828196D01*
X57927389Y-829303D01*
X57977216Y-832263D01*
X58011652Y-834309D01*
X58048588Y-846596D01*
X58060366Y-856203D01*
X58494347Y-1290185D01*
X58928111Y-1723949D01*
X58930291Y-1726222D01*
X58945921Y-1743220D01*
X58945924Y-1743222D01*
X58949392Y-1746994D01*
X58950787Y-1747859D01*
X58972276Y-1778099D01*
X58975939Y-1816853D01*
X58959733Y-1852246D01*
X58928003Y-1874794D01*
X58901792Y-1879510D01*
X56545323Y-1879510D01*
X56542175Y-1879444D01*
X56541832Y-1879430D01*
X56514013Y-1878264D01*
X56494609Y-1882815D01*
X56493006Y-1883191D01*
X56486045Y-1884482D01*
X56464647Y-1887413D01*
X56459943Y-1889448D01*
X56459938Y-1889450D01*
X56458543Y-1890054D01*
X56445854Y-1894251D01*
X56439386Y-1895768D01*
X56424965Y-1903696D01*
X56420476Y-1906164D01*
X56414131Y-1909273D01*
X56394299Y-1917855D01*
X56389132Y-1922039D01*
X56378038Y-1929494D01*
X56372215Y-1932695D01*
X56369235Y-1935267D01*
X56369232Y-1935269D01*
X56367791Y-1936513D01*
X56366746Y-1937415D01*
X56355067Y-1949094D01*
X56349218Y-1954361D01*
X56334729Y-1966094D01*
X56330183Y-1972490D01*
X56322064Y-1982097D01*
X55736479Y-2567684D01*
X55560103Y-2744060D01*
X55526392Y-2763524D01*
X55510865Y-2765983D01*
X55470897Y-2768078D01*
X55430388Y-2770201D01*
X55426461Y-2771283D01*
X55426459Y-2771283D01*
X55366022Y-2787930D01*
X55339719Y-2795175D01*
X55256527Y-2839037D01*
X55249078Y-2845332D01*
X55187805Y-2897112D01*
X55187802Y-2897115D01*
X55184696Y-2899740D01*
X55127574Y-2974451D01*
X55124802Y-2980396D01*
X55089548Y-3055998D01*
X55089546Y-3056004D01*
X55087829Y-3059686D01*
X55086942Y-3063654D01*
X55086941Y-3063657D01*
X55081909Y-3086171D01*
X55067313Y-3151466D01*
X55067268Y-3164314D01*
X55067001Y-3241014D01*
X55066985Y-3245512D01*
X55067845Y-3249488D01*
X55067845Y-3249491D01*
X55079096Y-3301527D01*
X55086859Y-3337434D01*
X55110620Y-3389332D01*
X55121729Y-3413595D01*
X55128221Y-3451976D01*
X55114653Y-3488461D01*
X55084660Y-3513274D01*
X55053355Y-3520100D01*
X44247086Y-3520100D01*
X44209486Y-3510025D01*
X44193912Y-3498074D01*
X44057129Y-3361291D01*
X44037665Y-3327580D01*
X44035275Y-3304029D01*
X44035389Y-3303040D01*
X44035400Y-3300000D01*
X44034870Y-3295116D01*
X44029481Y-3245512D01*
X44025243Y-3206504D01*
X44022505Y-3198367D01*
X43996545Y-3121229D01*
X43996543Y-3121224D01*
X43995246Y-3117371D01*
X43991751Y-3111553D01*
X43959632Y-3058099D01*
X43946809Y-3036758D01*
X43903283Y-2990730D01*
X43884985Y-2971380D01*
X43884982Y-2971378D01*
X43882191Y-2968426D01*
X43876765Y-2964738D01*
X43807770Y-2917850D01*
X43804408Y-2915565D01*
X43717088Y-2880639D01*
X43624305Y-2865279D01*
X43620238Y-2865492D01*
X43620235Y-2865492D01*
X43574160Y-2867907D01*
X43530388Y-2870201D01*
X43526461Y-2871283D01*
X43526459Y-2871283D01*
X43457737Y-2890212D01*
X43439719Y-2895175D01*
X43356527Y-2939037D01*
X43342546Y-2950852D01*
X43287805Y-2997112D01*
X43287802Y-2997115D01*
X43284696Y-2999740D01*
X43282225Y-3002972D01*
X43282224Y-3002973D01*
X43273883Y-3013882D01*
X43227574Y-3074451D01*
X43225853Y-3078142D01*
X43189548Y-3155998D01*
X43189546Y-3156004D01*
X43187829Y-3159686D01*
X43167313Y-3251466D01*
X43167249Y-3269819D01*
X43167043Y-3328990D01*
X43166985Y-3345512D01*
X42183995Y-3345512D01*
X42189344Y-3304884D01*
X42189987Y-3300000D01*
X42188989Y-3292418D01*
X42180326Y-3226614D01*
X42180325Y-3226611D01*
X42179683Y-3221733D01*
X42149473Y-3148800D01*
X42101416Y-3086171D01*
X42038787Y-3038114D01*
X41965854Y-3007904D01*
X41960976Y-3007262D01*
X41960973Y-3007261D01*
X41892471Y-2998243D01*
X41887587Y-2997600D01*
X41882703Y-2998243D01*
X41814201Y-3007261D01*
X41814198Y-3007262D01*
X41809320Y-3007904D01*
X41736387Y-3038114D01*
X41673758Y-3086171D01*
X41625701Y-3148800D01*
X41595491Y-3221733D01*
X41594849Y-3226611D01*
X41594848Y-3226614D01*
X41586185Y-3292418D01*
X41585187Y-3300000D01*
X41023361Y-3300000D01*
X41024580Y-3296462D01*
X41035389Y-3203040D01*
X41035400Y-3200000D01*
X41034872Y-3195135D01*
X41026675Y-3119685D01*
X41025243Y-3106504D01*
X41018093Y-3085259D01*
X40996545Y-3021229D01*
X40996543Y-3021224D01*
X40995246Y-3017371D01*
X40992493Y-3012788D01*
X40951332Y-2944285D01*
X40946809Y-2936758D01*
X40905183Y-2892739D01*
X40884985Y-2871380D01*
X40884982Y-2871378D01*
X40882191Y-2868426D01*
X40878541Y-2865945D01*
X40807770Y-2817850D01*
X40804408Y-2815565D01*
X40717088Y-2780639D01*
X40624305Y-2765279D01*
X40620238Y-2765492D01*
X40620235Y-2765492D01*
X40534451Y-2769988D01*
X40534450Y-2769988D01*
X40530807Y-2770179D01*
X40530806Y-2770179D01*
X40530388Y-2770201D01*
X40530385Y-2770136D01*
X40493594Y-2766398D01*
X40462023Y-2743626D01*
X40446068Y-2708120D01*
X40445599Y-2687457D01*
X40446663Y-2678267D01*
X40453064Y-2622939D01*
X40453075Y-2619899D01*
X40452847Y-2617798D01*
X40452745Y-2615857D01*
X40456114Y-2600000D01*
X44297600Y-2600000D01*
X44298243Y-2604884D01*
X44307082Y-2672020D01*
X44307904Y-2678267D01*
X44338114Y-2751200D01*
X44386171Y-2813829D01*
X44448800Y-2861886D01*
X44521733Y-2892096D01*
X44526611Y-2892738D01*
X44526614Y-2892739D01*
X44595116Y-2901757D01*
X44600000Y-2902400D01*
X44604884Y-2901757D01*
X44673386Y-2892739D01*
X44673389Y-2892738D01*
X44678267Y-2892096D01*
X44751200Y-2861886D01*
X44813829Y-2813829D01*
X44861886Y-2751200D01*
X44892096Y-2678267D01*
X44892919Y-2672020D01*
X44901757Y-2604884D01*
X44902400Y-2600000D01*
X44896979Y-2558823D01*
X44892739Y-2526614D01*
X44892738Y-2526611D01*
X44892096Y-2521733D01*
X44861886Y-2448800D01*
X44813829Y-2386171D01*
X44802021Y-2377110D01*
X44761806Y-2346252D01*
X44751200Y-2338114D01*
X44678267Y-2307904D01*
X44673389Y-2307262D01*
X44673386Y-2307261D01*
X44604884Y-2298243D01*
X44600000Y-2297600D01*
X44595116Y-2298243D01*
X44526614Y-2307261D01*
X44526611Y-2307262D01*
X44521733Y-2307904D01*
X44448800Y-2338114D01*
X44438194Y-2346252D01*
X44397980Y-2377110D01*
X44386171Y-2386171D01*
X44338114Y-2448800D01*
X44307904Y-2521733D01*
X44307262Y-2526611D01*
X44307261Y-2526614D01*
X44303021Y-2558823D01*
X44297600Y-2600000D01*
X40456114Y-2600000D01*
X40460837Y-2577780D01*
X40474668Y-2558743D01*
X40951688Y-2081724D01*
X41431486Y-1601926D01*
X41465197Y-1582462D01*
X41484660Y-1579900D01*
X45252705Y-1579900D01*
X45290305Y-1589975D01*
X45317830Y-1617500D01*
X45327905Y-1655100D01*
X45317830Y-1692700D01*
X45290305Y-1720225D01*
X45281483Y-1724576D01*
X45276563Y-1726614D01*
X45248800Y-1738114D01*
X45186171Y-1786171D01*
X45138114Y-1848800D01*
X45107904Y-1921733D01*
X45107262Y-1926611D01*
X45107261Y-1926614D01*
X45100933Y-1974686D01*
X45097600Y-2000000D01*
X45098243Y-2004884D01*
X45106631Y-2068595D01*
X45107904Y-2078267D01*
X45138114Y-2151200D01*
X45186171Y-2213829D01*
X45190078Y-2216827D01*
X45217486Y-2237858D01*
X45248800Y-2261886D01*
X45321733Y-2292096D01*
X45326611Y-2292738D01*
X45326614Y-2292739D01*
X45395116Y-2301757D01*
X45400000Y-2302400D01*
X45404884Y-2301757D01*
X45473386Y-2292739D01*
X45473389Y-2292738D01*
X45478267Y-2292096D01*
X45551200Y-2261886D01*
X45582514Y-2237858D01*
X45609922Y-2216827D01*
X45613829Y-2213829D01*
X45661886Y-2151200D01*
X45692096Y-2078267D01*
X45693370Y-2068595D01*
X45701757Y-2004884D01*
X45702400Y-2000000D01*
X45699067Y-1974686D01*
X45692739Y-1926614D01*
X45692738Y-1926611D01*
X45692096Y-1921733D01*
X45661886Y-1848800D01*
X45613829Y-1786171D01*
X45551200Y-1738114D01*
X45523437Y-1726614D01*
X45518517Y-1724576D01*
X45487635Y-1700878D01*
X45472738Y-1664915D01*
X45477819Y-1626322D01*
X45501517Y-1595440D01*
X45537480Y-1580543D01*
X45547295Y-1579900D01*
X45652915Y-1579900D01*
X45690515Y-1589975D01*
X45706085Y-1601923D01*
X46045139Y-1940977D01*
X46064601Y-1974686D01*
X46067163Y-1994411D01*
X46067029Y-2032986D01*
X46066985Y-2045512D01*
X46067845Y-2049488D01*
X46067845Y-2049491D01*
X46074745Y-2081405D01*
X46086859Y-2137434D01*
X46126009Y-2222943D01*
X46128459Y-2226194D01*
X46128460Y-2226196D01*
X46156774Y-2263770D01*
X46182607Y-2298052D01*
X46185695Y-2300698D01*
X46185698Y-2300702D01*
X46250916Y-2356600D01*
X46250919Y-2356602D01*
X46254013Y-2359254D01*
X46336896Y-2403696D01*
X46372580Y-2413794D01*
X46423472Y-2428195D01*
X46423476Y-2428196D01*
X46427389Y-2429303D01*
X46481307Y-2432506D01*
X46517207Y-2434639D01*
X46517210Y-2434639D01*
X46521269Y-2434880D01*
X46614157Y-2420168D01*
X46617946Y-2418683D01*
X46617950Y-2418682D01*
X46671249Y-2397794D01*
X46701719Y-2385853D01*
X46705106Y-2383585D01*
X46705109Y-2383584D01*
X46776484Y-2335803D01*
X46776486Y-2335802D01*
X46779870Y-2333536D01*
X46844963Y-2265657D01*
X46893962Y-2185384D01*
X46924580Y-2096462D01*
X46926558Y-2079371D01*
X46932389Y-2028971D01*
X46935389Y-2003040D01*
X46935400Y-2000000D01*
X46934870Y-1995116D01*
X46927389Y-1926261D01*
X46925243Y-1906504D01*
X46923650Y-1901770D01*
X46896545Y-1821229D01*
X46896543Y-1821224D01*
X46895246Y-1817371D01*
X46890771Y-1809922D01*
X46856104Y-1752228D01*
X46846809Y-1736758D01*
X46805146Y-1692700D01*
X46784985Y-1671380D01*
X46784982Y-1671378D01*
X46782191Y-1668426D01*
X46777146Y-1664997D01*
X46726882Y-1630838D01*
X46704408Y-1615565D01*
X46617088Y-1580639D01*
X46524305Y-1565279D01*
X46520239Y-1565492D01*
X46520236Y-1565492D01*
X46512478Y-1565899D01*
X46497698Y-1566674D01*
X46459625Y-1558582D01*
X46440589Y-1544751D01*
X46003643Y-1107806D01*
X45984179Y-1074095D01*
X45984179Y-1035169D01*
X46003643Y-1001458D01*
X46037354Y-981994D01*
X46062315Y-979633D01*
X46065951Y-979900D01*
X46082475Y-979900D01*
X46090335Y-980312D01*
X46108870Y-982260D01*
X46116599Y-980953D01*
X46129138Y-979900D01*
X51952915Y-979900D01*
X51990515Y-989975D01*
X52006089Y-1001926D01*
X52375706Y-1371543D01*
X52395170Y-1405254D01*
X52395170Y-1444180D01*
X52375706Y-1477891D01*
X52341995Y-1497355D01*
X52312717Y-1499274D01*
X52304885Y-1498243D01*
X52304884Y-1498243D01*
X52300000Y-1497600D01*
X52295116Y-1498243D01*
X52226614Y-1507261D01*
X52226611Y-1507262D01*
X52221733Y-1507904D01*
X52148800Y-1538114D01*
X52144893Y-1541112D01*
X52093506Y-1580543D01*
X52086171Y-1586171D01*
X52083173Y-1590078D01*
X52080108Y-1594072D01*
X52038114Y-1648800D01*
X52007904Y-1721733D01*
X52007262Y-1726611D01*
X52007261Y-1726614D01*
X52000483Y-1778099D01*
X51997600Y-1800000D01*
X51998243Y-1804884D01*
X52006977Y-1871222D01*
X52007904Y-1878267D01*
X52038114Y-1951200D01*
X52086171Y-2013829D01*
X52148800Y-2061886D01*
X52221733Y-2092096D01*
X52226611Y-2092738D01*
X52226614Y-2092739D01*
X52295116Y-2101757D01*
X52300000Y-2102400D01*
X52304884Y-2101757D01*
X52373386Y-2092739D01*
X52373389Y-2092738D01*
X52378267Y-2092096D01*
X52451200Y-2061886D01*
X52513829Y-2013829D01*
X52561886Y-1951200D01*
X52592096Y-1878267D01*
X52593024Y-1871222D01*
X52601757Y-1804884D01*
X52602400Y-1800000D01*
X52600726Y-1787285D01*
X52605807Y-1748691D01*
X52629504Y-1717809D01*
X52665467Y-1702912D01*
X52704061Y-1707993D01*
X52728457Y-1724295D01*
X52998710Y-1994548D01*
X53000890Y-1996821D01*
X53016520Y-2013819D01*
X53016523Y-2013821D01*
X53019991Y-2017593D01*
X53024344Y-2020292D01*
X53024349Y-2020296D01*
X53038342Y-2028971D01*
X53044182Y-2032984D01*
X53061368Y-2046030D01*
X53067558Y-2048481D01*
X53079483Y-2054479D01*
X53085138Y-2057985D01*
X53105883Y-2064012D01*
X53112563Y-2066299D01*
X53132638Y-2074248D01*
X53137739Y-2074784D01*
X53137742Y-2074785D01*
X53139250Y-2074944D01*
X53152360Y-2077516D01*
X53154252Y-2078065D01*
X53158746Y-2079371D01*
X53163400Y-2079713D01*
X53164586Y-2079800D01*
X53164592Y-2079800D01*
X53165951Y-2079900D01*
X53182475Y-2079900D01*
X53190335Y-2080312D01*
X53208870Y-2082260D01*
X53216599Y-2080953D01*
X53229138Y-2079900D01*
X53633623Y-2079900D01*
X53671223Y-2089975D01*
X53682124Y-2098616D01*
X53682607Y-2098052D01*
X53750916Y-2156600D01*
X53750919Y-2156602D01*
X53754013Y-2159254D01*
X53836896Y-2203696D01*
X53866411Y-2212048D01*
X53923472Y-2228195D01*
X53923476Y-2228196D01*
X53927389Y-2229303D01*
X53981307Y-2232506D01*
X54017207Y-2234639D01*
X54017210Y-2234639D01*
X54021269Y-2234880D01*
X54114157Y-2220168D01*
X54117946Y-2218683D01*
X54117950Y-2218682D01*
X54165620Y-2200000D01*
X54201719Y-2185853D01*
X54205106Y-2183585D01*
X54205109Y-2183584D01*
X54276484Y-2135803D01*
X54276486Y-2135802D01*
X54279870Y-2133536D01*
X54344963Y-2065657D01*
X54347188Y-2062013D01*
X54363163Y-2035840D01*
X54393962Y-1985384D01*
X54397727Y-1974451D01*
X54423254Y-1900313D01*
X54424580Y-1896462D01*
X54425322Y-1890054D01*
X54432570Y-1827404D01*
X54435389Y-1803040D01*
X54435400Y-1800000D01*
X54434870Y-1795116D01*
X54426897Y-1721733D01*
X54425243Y-1706504D01*
X54423350Y-1700878D01*
X54396545Y-1621229D01*
X54396543Y-1621224D01*
X54395246Y-1617371D01*
X54389023Y-1607013D01*
X54355483Y-1551194D01*
X54346809Y-1536758D01*
X54311362Y-1499274D01*
X54284985Y-1471380D01*
X54284982Y-1471378D01*
X54282191Y-1468426D01*
X54278829Y-1466141D01*
X54278824Y-1466137D01*
X54273258Y-1462354D01*
X54247824Y-1432886D01*
X54240531Y-1394649D01*
X54253334Y-1357888D01*
X54273693Y-1337671D01*
X54279870Y-1333536D01*
X54344963Y-1265657D01*
X54393962Y-1185384D01*
X54424580Y-1096462D01*
X54426716Y-1078005D01*
X54430065Y-1049054D01*
X54435389Y-1003040D01*
X54435400Y-1000000D01*
X54434870Y-995116D01*
X54428535Y-936805D01*
X54425243Y-906504D01*
X54423943Y-902641D01*
X54396545Y-821229D01*
X54396543Y-821224D01*
X54395246Y-817371D01*
X54393151Y-813884D01*
X54391440Y-810182D01*
X54392307Y-809782D01*
X54383060Y-777517D01*
X54392483Y-739749D01*
X54419528Y-711751D01*
X54456948Y-701027D01*
X54494716Y-710450D01*
X54507184Y-719117D01*
X54554013Y-759254D01*
X54636896Y-803696D01*
X54659817Y-810182D01*
X54723472Y-828195D01*
X54723476Y-828196D01*
X54727389Y-829303D01*
X54780364Y-832450D01*
X54817207Y-834639D01*
X54817210Y-834639D01*
X54821269Y-834880D01*
X54914157Y-820168D01*
X54917946Y-818683D01*
X54917950Y-818682D01*
X54987526Y-791415D01*
X55001719Y-785853D01*
X55005106Y-783585D01*
X55005109Y-783584D01*
X55076484Y-735803D01*
X55076486Y-735802D01*
X55079870Y-733536D01*
X55144963Y-665657D01*
X55193962Y-585384D01*
X55224580Y-496462D01*
X55225184Y-491246D01*
X55232173Y-430836D01*
X55235389Y-403040D01*
X55235400Y-400000D01*
X55234931Y-395677D01*
X55225683Y-310556D01*
X55225243Y-306504D01*
X55217976Y-284910D01*
X55196545Y-221229D01*
X55196543Y-221224D01*
X55195246Y-217371D01*
X55187766Y-204921D01*
X55148904Y-140245D01*
X55146809Y-136758D01*
X55109306Y-97099D01*
X55084985Y-71380D01*
X55084982Y-71378D01*
X55082191Y-68426D01*
X55078825Y-66138D01*
X55030203Y-33095D01*
X55004408Y-15565D01*
X54917088Y19361D01*
X54824305Y34721D01*
X54820238Y34508D01*
X54820236Y34508D01*
X54812249Y34089D01*
X54797697Y33326D01*
X54759623Y41419D01*
X54740588Y55249D01*
X53401301Y1394536D01*
X53399121Y1396809D01*
X53396187Y1400000D01*
X53380009Y1417593D01*
X53361646Y1428979D01*
X53355812Y1432989D01*
X53342713Y1442932D01*
X53342711Y1442933D01*
X53338631Y1446030D01*
X53332452Y1448477D01*
X53320512Y1454482D01*
X53314862Y1457985D01*
X53294106Y1464015D01*
X53287434Y1466300D01*
X53267361Y1474248D01*
X53260756Y1474942D01*
X53247636Y1477517D01*
X53241254Y1479371D01*
X53237327Y1479659D01*
X53237323Y1479660D01*
X53235414Y1479800D01*
X53235408Y1479800D01*
X53234049Y1479900D01*
X53217525Y1479900D01*
X53209664Y1480312D01*
X53203565Y1480953D01*
X53191130Y1482260D01*
X53183401Y1480953D01*
X53170862Y1479900D01*
X47304749Y1479900D01*
X47301600Y1479966D01*
X47273424Y1481147D01*
X47252398Y1476215D01*
X47245441Y1474926D01*
X47242681Y1474548D01*
X47229135Y1472693D01*
X47229132Y1472692D01*
X47224057Y1471997D01*
X47219352Y1469961D01*
X47217950Y1469355D01*
X47205265Y1465160D01*
X47203787Y1464813D01*
X47203784Y1464812D01*
X47198797Y1463642D01*
X47179872Y1453239D01*
X47173549Y1450141D01*
X47153709Y1441555D01*
X47148543Y1437372D01*
X47137449Y1429917D01*
X47131626Y1426716D01*
X47126157Y1421995D01*
X47114482Y1410320D01*
X47108634Y1405054D01*
X47094139Y1393316D01*
X47091170Y1389138D01*
X47091169Y1389137D01*
X47089593Y1386920D01*
X47081469Y1377307D01*
X46712796Y1008633D01*
X46360103Y655940D01*
X46326392Y636476D01*
X46310865Y634017D01*
X46269050Y631825D01*
X46230388Y629799D01*
X46226461Y628717D01*
X46226459Y628717D01*
X46159073Y610156D01*
X46139719Y604825D01*
X46056527Y560963D01*
X46034362Y542232D01*
X45987805Y502888D01*
X45987802Y502885D01*
X45984696Y500260D01*
X45927574Y425549D01*
X45925853Y421858D01*
X45889548Y344002D01*
X45889546Y343996D01*
X45887829Y340314D01*
X45886942Y336346D01*
X45886941Y336343D01*
X45882189Y315085D01*
X45867313Y248534D01*
X45867217Y221092D01*
X45867049Y172725D01*
X45866985Y154488D01*
X45867845Y150512D01*
X45867845Y150509D01*
X45875231Y116348D01*
X45873329Y77468D01*
X45852242Y44748D01*
X45817620Y26955D01*
X45778740Y28857D01*
X45748555Y47283D01*
X44501926Y1293911D01*
X44482462Y1327622D01*
X44479900Y1347085D01*
X44479900Y2436265D01*
X44489975Y2473865D01*
X44500823Y2488314D01*
X44504668Y2492323D01*
X44537577Y2526641D01*
X44570874Y2546806D01*
X44609791Y2547621D01*
X44643903Y2528869D01*
X44664068Y2495572D01*
X44667054Y2474330D01*
X44667050Y2473146D01*
X44666985Y2454488D01*
X44686859Y2362566D01*
X44726009Y2277057D01*
X44728459Y2273806D01*
X44728460Y2273804D01*
X44739700Y2258888D01*
X44782607Y2201948D01*
X44785695Y2199302D01*
X44785698Y2199298D01*
X44850916Y2143400D01*
X44850919Y2143398D01*
X44854013Y2140746D01*
X44936896Y2096304D01*
X44951767Y2092096D01*
X45023472Y2071805D01*
X45023476Y2071804D01*
X45027389Y2070697D01*
X45081307Y2067494D01*
X45117207Y2065361D01*
X45117210Y2065361D01*
X45121269Y2065120D01*
X45125290Y2065757D01*
X45125292Y2065757D01*
X45180180Y2074450D01*
X45218893Y2070381D01*
X45250385Y2047500D01*
X45266217Y2011939D01*
X45267143Y1999914D01*
X45267005Y1960353D01*
X45266985Y1954488D01*
X45267845Y1950512D01*
X45267845Y1950509D01*
X45276741Y1909363D01*
X45286859Y1862566D01*
X45326009Y1777057D01*
X45328459Y1773806D01*
X45328460Y1773804D01*
X45356689Y1736343D01*
X45382607Y1701948D01*
X45385695Y1699302D01*
X45385698Y1699298D01*
X45450916Y1643400D01*
X45450919Y1643398D01*
X45454013Y1640746D01*
X45536896Y1596304D01*
X45564496Y1588494D01*
X45623472Y1571805D01*
X45623476Y1571804D01*
X45627389Y1570697D01*
X45681307Y1567494D01*
X45717207Y1565361D01*
X45717210Y1565361D01*
X45721269Y1565120D01*
X45814157Y1579832D01*
X45817946Y1581317D01*
X45817950Y1581318D01*
X45869692Y1601596D01*
X45901719Y1614147D01*
X45905106Y1616415D01*
X45905109Y1616416D01*
X45976484Y1664197D01*
X45976486Y1664198D01*
X45979870Y1666464D01*
X46044963Y1734343D01*
X46051133Y1744450D01*
X46074769Y1783173D01*
X46093962Y1814616D01*
X46097727Y1825549D01*
X46123254Y1899687D01*
X46124580Y1903538D01*
X46126995Y1924406D01*
X46130946Y1958558D01*
X46135389Y1996960D01*
X46135400Y2000000D01*
X46135083Y2002925D01*
X46128375Y2064670D01*
X46134330Y2103138D01*
X46149961Y2125966D01*
X46272871Y2248875D01*
X46306582Y2268338D01*
X46326045Y2270900D01*
X56842890Y2270900D01*
X56880490Y2260825D01*
X56896063Y2248875D01*
X57198286Y1946651D01*
X57499496Y1645441D01*
X57505378Y1638823D01*
X57515203Y1626360D01*
X57539640Y1609470D01*
X57541509Y1608134D01*
X57559899Y1594551D01*
X57565371Y1590509D01*
X57568835Y1589293D01*
X57571854Y1587206D01*
X57600169Y1578251D01*
X57602365Y1577518D01*
X57630346Y1567692D01*
X57634011Y1567548D01*
X57637514Y1566440D01*
X57641974Y1566089D01*
X57669663Y1566089D01*
X57672616Y1566031D01*
X57699158Y1564988D01*
X57702697Y1565926D01*
X57705652Y1566089D01*
X61378768Y1566089D01*
X61416368Y1556014D01*
X61431942Y1544063D01*
X62849070Y126934D01*
X62868534Y93223D01*
X62869285Y57356D01*
X62867313Y48534D01*
X62867181Y10707D01*
X62867008Y-39037D01*
X62866985Y-45512D01*
X62867845Y-49488D01*
X62867845Y-49491D01*
X62877057Y-92096D01*
X62886859Y-137434D01*
X62926009Y-222943D01*
X62928459Y-226194D01*
X62928460Y-226196D01*
X62974223Y-286926D01*
X62982607Y-298052D01*
X62985695Y-300698D01*
X62985698Y-300702D01*
X63050916Y-356600D01*
X63050919Y-356602D01*
X63054013Y-359254D01*
X63136896Y-403696D01*
X63163595Y-411251D01*
X63223472Y-428195D01*
X63223476Y-428196D01*
X63227389Y-429303D01*
X63281307Y-432506D01*
X63317207Y-434639D01*
X63317210Y-434639D01*
X63321269Y-434880D01*
X63347105Y-430788D01*
X63380209Y-425545D01*
X63418922Y-429614D01*
X63450415Y-452494D01*
X63466247Y-488055D01*
X63467173Y-500081D01*
X63466999Y-550052D01*
X63466985Y-554122D01*
X63467845Y-558098D01*
X63467845Y-558101D01*
X63470122Y-568631D01*
X63486859Y-646044D01*
X63526009Y-731553D01*
X63528459Y-734804D01*
X63528460Y-734806D01*
X63558196Y-774267D01*
X63582607Y-806662D01*
X63585695Y-809308D01*
X63585698Y-809312D01*
X63650916Y-865210D01*
X63650919Y-865212D01*
X63654013Y-867864D01*
X63736896Y-912306D01*
X63754138Y-917185D01*
X63823472Y-936805D01*
X63823476Y-936806D01*
X63827389Y-937913D01*
X63878933Y-940975D01*
X63917207Y-943249D01*
X63917210Y-943249D01*
X63921269Y-943490D01*
X64014157Y-928778D01*
X64017946Y-927293D01*
X64017950Y-927292D01*
X64070994Y-906504D01*
X64101719Y-894463D01*
X64105106Y-892195D01*
X64105109Y-892194D01*
X64176484Y-844413D01*
X64176486Y-844412D01*
X64179870Y-842146D01*
X64244963Y-774267D01*
X64293962Y-693994D01*
X64324580Y-605072D01*
X64327304Y-581533D01*
X64330475Y-554122D01*
X64335389Y-511650D01*
X64335400Y-508610D01*
X64334474Y-500081D01*
X64329136Y-450948D01*
X64325243Y-415114D01*
X64320752Y-401770D01*
X64296545Y-329839D01*
X64296543Y-329834D01*
X64295246Y-325981D01*
X64291754Y-320168D01*
X64255249Y-259414D01*
X64246809Y-245368D01*
X64182191Y-177036D01*
X64162030Y-163335D01*
X64136596Y-133868D01*
X64129100Y-101139D01*
X64129100Y182687D01*
X64129621Y191526D01*
X64130046Y195116D01*
X64131485Y207275D01*
X64126154Y236466D01*
X64125772Y238768D01*
X64122198Y262544D01*
X64122197Y262548D01*
X64121362Y268100D01*
X64119772Y271412D01*
X64119113Y275019D01*
X64105454Y301313D01*
X64104398Y303426D01*
X64103386Y305534D01*
X64091552Y330179D01*
X64089060Y332875D01*
X64087368Y336132D01*
X64084463Y339534D01*
X64064902Y359095D01*
X64062855Y361223D01*
X64048623Y376619D01*
X64048622Y376619D01*
X64044806Y380748D01*
X64041640Y382587D01*
X64039431Y384566D01*
X62323996Y2100000D01*
X62997600Y2100000D01*
X62998243Y2095116D01*
X63006985Y2028717D01*
X63007904Y2021733D01*
X63038114Y1948800D01*
X63086171Y1886171D01*
X63090078Y1883173D01*
X63111743Y1866549D01*
X63148800Y1838114D01*
X63221733Y1807904D01*
X63226611Y1807262D01*
X63226614Y1807261D01*
X63295116Y1798243D01*
X63300000Y1797600D01*
X63304884Y1798243D01*
X63373386Y1807261D01*
X63373389Y1807262D01*
X63378267Y1807904D01*
X63451200Y1838114D01*
X63488257Y1866549D01*
X63509922Y1883173D01*
X63513829Y1886171D01*
X63561886Y1948800D01*
X63592096Y2021733D01*
X63593016Y2028717D01*
X63601757Y2095116D01*
X63602400Y2100000D01*
X63597036Y2140746D01*
X63592739Y2173386D01*
X63592738Y2173389D01*
X63592096Y2178267D01*
X63561886Y2251200D01*
X63513829Y2313829D01*
X63493928Y2329100D01*
X63482514Y2337858D01*
X63451200Y2361886D01*
X63378267Y2392096D01*
X63373389Y2392738D01*
X63373386Y2392739D01*
X63304884Y2401757D01*
X63300000Y2402400D01*
X63295116Y2401757D01*
X63226614Y2392739D01*
X63226611Y2392738D01*
X63221733Y2392096D01*
X63148800Y2361886D01*
X63117486Y2337858D01*
X63106073Y2329100D01*
X63086171Y2313829D01*
X63038114Y2251200D01*
X63007904Y2178267D01*
X63007262Y2173389D01*
X63007261Y2173386D01*
X63002964Y2140746D01*
X62997600Y2100000D01*
X62323996Y2100000D01*
X62174252Y2249743D01*
X62168370Y2256361D01*
X62162019Y2264417D01*
X62162020Y2264417D01*
X62158541Y2268829D01*
X62153921Y2272022D01*
X62153919Y2272024D01*
X62134116Y2285711D01*
X62132195Y2287084D01*
X62112894Y2301340D01*
X62108372Y2304680D01*
X62104910Y2305896D01*
X62101890Y2307983D01*
X62073618Y2316924D01*
X62071379Y2317671D01*
X62048706Y2325634D01*
X62048703Y2325635D01*
X62043397Y2327498D01*
X62039730Y2327642D01*
X62036230Y2328749D01*
X62031770Y2329100D01*
X62004090Y2329100D01*
X62001138Y2329158D01*
X62000037Y2329201D01*
X61974586Y2330201D01*
X61971047Y2329263D01*
X61968089Y2329100D01*
X57926044Y2329100D01*
X57888444Y2339175D01*
X57872870Y2351126D01*
X57269441Y2954554D01*
X57263559Y2961172D01*
X57258713Y2967319D01*
X57253730Y2973640D01*
X57249110Y2976833D01*
X57249108Y2976835D01*
X57229305Y2990522D01*
X57227384Y2991895D01*
X57208083Y3006151D01*
X57203561Y3009491D01*
X57200099Y3010707D01*
X57197079Y3012794D01*
X57168807Y3021735D01*
X57166568Y3022482D01*
X57143895Y3030445D01*
X57143892Y3030446D01*
X57138586Y3032309D01*
X57134919Y3032453D01*
X57131419Y3033560D01*
X57126959Y3033911D01*
X57099279Y3033911D01*
X57096327Y3033969D01*
X57095226Y3034012D01*
X57069775Y3035012D01*
X57066236Y3034074D01*
X57063278Y3033911D01*
X45422124Y3033911D01*
X45413285Y3034432D01*
X45397536Y3036296D01*
X45392011Y3035287D01*
X45392010Y3035287D01*
X45387329Y3034432D01*
X45368345Y3030965D01*
X45366051Y3030584D01*
X45361960Y3029969D01*
X45342267Y3027009D01*
X45342263Y3027008D01*
X45336711Y3026173D01*
X45333399Y3024583D01*
X45329792Y3023924D01*
X45307899Y3012551D01*
X45303498Y3010265D01*
X45301386Y3009209D01*
X45274632Y2996363D01*
X45271936Y2993871D01*
X45268679Y2992179D01*
X45265277Y2989274D01*
X45245716Y2969713D01*
X45243589Y2967667D01*
X45224063Y2949617D01*
X45223029Y2950736D01*
X45198953Y2933048D01*
X45159350Y2928919D01*
X45124305Y2934721D01*
X45120238Y2934508D01*
X45120235Y2934508D01*
X45073248Y2932045D01*
X45030388Y2929799D01*
X45026461Y2928717D01*
X45026459Y2928717D01*
X44965060Y2911805D01*
X44939719Y2904825D01*
X44856527Y2860963D01*
X44837511Y2844893D01*
X44787805Y2802888D01*
X44787802Y2802885D01*
X44784696Y2800260D01*
X44782225Y2797028D01*
X44782224Y2797027D01*
X44768144Y2778611D01*
X44737303Y2754861D01*
X44698718Y2749712D01*
X44662729Y2764546D01*
X44638979Y2795387D01*
X44633644Y2816164D01*
X44630127Y2848534D01*
X44625243Y2893496D01*
X44622070Y2902925D01*
X44596545Y2978771D01*
X44596543Y2978776D01*
X44595246Y2982629D01*
X44591888Y2988219D01*
X44548904Y3059755D01*
X44546809Y3063242D01*
X44540812Y3069584D01*
X44525458Y3085821D01*
X44506943Y3120062D01*
X44508030Y3158974D01*
X44528427Y3192128D01*
X44562668Y3210643D01*
X44580096Y3212690D01*
X56887841Y3212690D01*
X56890989Y3212624D01*
X56919165Y3211443D01*
X56924150Y3212612D01*
X56924157Y3212613D01*
X56940186Y3216373D01*
X56947151Y3217664D01*
X56956543Y3218951D01*
X56968533Y3220593D01*
X56973243Y3222631D01*
X56974640Y3223235D01*
X56987325Y3227430D01*
X56988803Y3227777D01*
X56988806Y3227778D01*
X56993793Y3228948D01*
X57012718Y3239351D01*
X57019041Y3242449D01*
X57038881Y3251035D01*
X57044047Y3255218D01*
X57055143Y3262674D01*
X57060964Y3265874D01*
X57066432Y3270595D01*
X57078103Y3282266D01*
X57083952Y3287533D01*
X57094467Y3296048D01*
X57098451Y3299274D01*
X57103002Y3305677D01*
X57111121Y3315284D01*
X58093912Y4298074D01*
X58127623Y4317538D01*
X58147086Y4320100D01*
X58194748Y4320100D01*
X58232348Y4310025D01*
X58259873Y4282500D01*
X58269948Y4244900D01*
X58259873Y4207300D01*
X58240527Y4185240D01*
X58189678Y4146222D01*
X58187425Y4143746D01*
X58124187Y4074248D01*
X58117144Y4066508D01*
X58059872Y3975209D01*
X58019673Y3875211D01*
X57997817Y3769675D01*
X57997730Y3766333D01*
X57997729Y3766329D01*
X57997009Y3738820D01*
X57994996Y3661936D01*
X58011298Y3555401D01*
X58012383Y3552232D01*
X58043827Y3460394D01*
X58046209Y3453436D01*
X58056605Y3434758D01*
X58096996Y3362189D01*
X58096999Y3362185D01*
X58098624Y3359265D01*
X58166887Y3275864D01*
X58248840Y3205870D01*
X58341893Y3151494D01*
X58345037Y3150344D01*
X58345040Y3150342D01*
X58439958Y3115607D01*
X58439961Y3115606D01*
X58443104Y3114456D01*
X58549274Y3095926D01*
X58657048Y3096490D01*
X58660333Y3097099D01*
X58660335Y3097099D01*
X58759729Y3115521D01*
X58759731Y3115522D01*
X58763019Y3116131D01*
X58766150Y3117314D01*
X58769376Y3118215D01*
X58769578Y3117492D01*
X58790432Y3121300D01*
X65729148Y3121300D01*
X65766748Y3111225D01*
X65782322Y3099274D01*
X66490345Y2391250D01*
X66509809Y2357539D01*
X66511414Y2350034D01*
X66514777Y2329155D01*
X66515806Y2326141D01*
X66515807Y2326137D01*
X66542185Y2248874D01*
X66553359Y2216144D01*
X66576623Y2173386D01*
X66608912Y2114040D01*
X66608915Y2114035D01*
X66610430Y2111251D01*
X66612395Y2108758D01*
X66612396Y2108757D01*
X66682346Y2020026D01*
X66684359Y2017472D01*
X66686717Y2015345D01*
X66686720Y2015342D01*
X66770663Y1939627D01*
X66770668Y1939623D01*
X66773032Y1937491D01*
X66805091Y1917185D01*
X66871219Y1875299D01*
X66871222Y1875297D01*
X66873913Y1873593D01*
X66984118Y1827606D01*
X66987226Y1826891D01*
X66987227Y1826891D01*
X67069798Y1807904D01*
X67100496Y1800845D01*
X67219718Y1794075D01*
X67222884Y1794433D01*
X67222886Y1794433D01*
X67279600Y1800845D01*
X67338377Y1807490D01*
X67411910Y1828784D01*
X67450017Y1839819D01*
X67450020Y1839820D01*
X67453079Y1840706D01*
X67560545Y1892772D01*
X67639754Y1949376D01*
X67655115Y1960353D01*
X67655117Y1960355D01*
X67657702Y1962202D01*
X67659937Y1964457D01*
X67659941Y1964460D01*
X67739533Y2044749D01*
X67739535Y2044752D01*
X67741772Y2047008D01*
X67810351Y2144767D01*
X67859673Y2248874D01*
X67860112Y2249800D01*
X67860113Y2249803D01*
X67861478Y2252684D01*
X67865864Y2268338D01*
X67892831Y2364601D01*
X67893691Y2367671D01*
X67906070Y2486443D01*
X67906200Y2500000D01*
X67905759Y2505198D01*
X67896373Y2615821D01*
X67896372Y2615825D01*
X67896104Y2618987D01*
X67894515Y2625108D01*
X67866906Y2731484D01*
X67866904Y2731490D01*
X67866104Y2734572D01*
X67817058Y2843450D01*
X67802341Y2865311D01*
X69195203Y2865311D01*
X69195773Y2861542D01*
X69206526Y2790444D01*
X69210478Y2764312D01*
X69211791Y2760742D01*
X69211792Y2760740D01*
X69244071Y2673009D01*
X69245749Y2668447D01*
X69247753Y2665215D01*
X69247754Y2665213D01*
X69290032Y2597027D01*
X69299577Y2581633D01*
X69302187Y2578873D01*
X69302190Y2578869D01*
X69356103Y2521858D01*
X69369761Y2507415D01*
X69453436Y2448825D01*
X69547182Y2408257D01*
X69611011Y2394923D01*
X69644341Y2387960D01*
X69644343Y2387960D01*
X69647171Y2387369D01*
X69652303Y2387100D01*
X69724611Y2387100D01*
X69727259Y2387369D01*
X69797837Y2394538D01*
X69797839Y2394538D01*
X69801625Y2394923D01*
X69899098Y2425469D01*
X69906910Y2429799D01*
X69985111Y2473146D01*
X69985113Y2473147D01*
X69988439Y2474991D01*
X70065996Y2541466D01*
X70069537Y2546030D01*
X70095398Y2579371D01*
X70128604Y2622179D01*
X70132727Y2630557D01*
X70172021Y2710416D01*
X70173702Y2713832D01*
X70199451Y2812681D01*
X70203474Y2889444D01*
X70204598Y2910885D01*
X70204598Y2910889D01*
X70204797Y2914689D01*
X70203624Y2922446D01*
X70190092Y3011922D01*
X70190091Y3011926D01*
X70189522Y3015688D01*
X70187171Y3022078D01*
X70155566Y3107980D01*
X70155564Y3107983D01*
X70154251Y3111553D01*
X70151738Y3115607D01*
X70102427Y3195135D01*
X70100423Y3198367D01*
X70097813Y3201127D01*
X70097810Y3201131D01*
X70032855Y3269819D01*
X70032853Y3269821D01*
X70030239Y3272585D01*
X69946564Y3331175D01*
X69852818Y3371743D01*
X69783671Y3386188D01*
X69755659Y3392040D01*
X69755657Y3392040D01*
X69752829Y3392631D01*
X69747697Y3392900D01*
X69675389Y3392900D01*
X69673489Y3392707D01*
X69602163Y3385462D01*
X69602161Y3385462D01*
X69598375Y3385077D01*
X69500902Y3354531D01*
X69497575Y3352687D01*
X69497573Y3352686D01*
X69414889Y3306854D01*
X69414887Y3306853D01*
X69411561Y3305009D01*
X69334004Y3238534D01*
X69331670Y3235525D01*
X69331668Y3235523D01*
X69317166Y3216827D01*
X69271396Y3157821D01*
X69226298Y3066168D01*
X69200549Y2967319D01*
X69198806Y2934055D01*
X69195509Y2871144D01*
X69195203Y2865311D01*
X67802341Y2865311D01*
X67750368Y2942508D01*
X67677276Y3019128D01*
X67670140Y3026609D01*
X67670139Y3026610D01*
X67667942Y3028913D01*
X67572136Y3100194D01*
X67465690Y3154315D01*
X67424180Y3167204D01*
X67354688Y3188782D01*
X67354682Y3188783D01*
X67351646Y3189726D01*
X67348487Y3190145D01*
X67345382Y3190827D01*
X67345615Y3191888D01*
X67314487Y3204815D01*
X67307145Y3211260D01*
X66425028Y4093376D01*
X66421664Y4096967D01*
X66402350Y4118990D01*
X66400072Y4121588D01*
X66365005Y4149232D01*
X66363495Y4150455D01*
X66331839Y4176783D01*
X66329195Y4178982D01*
X66326193Y4180663D01*
X66323349Y4182618D01*
X66323401Y4182693D01*
X66322192Y4183501D01*
X66322142Y4183424D01*
X66319249Y4185302D01*
X66316544Y4187435D01*
X66313496Y4189038D01*
X66313494Y4189040D01*
X66312229Y4189706D01*
X68145063Y4189706D01*
X68145587Y4186766D01*
X68171849Y4115389D01*
X68175169Y4108582D01*
X68221736Y4033478D01*
X68226359Y4027474D01*
X68287069Y3963276D01*
X68292817Y3958314D01*
X68365195Y3907634D01*
X68371811Y3903936D01*
X68452910Y3868842D01*
X68460130Y3866552D01*
X68547530Y3848293D01*
X68552762Y3847614D01*
X68553278Y3847600D01*
X69063098Y3847600D01*
X69070908Y3849692D01*
X69072999Y3857501D01*
X69326999Y3857501D01*
X69329091Y3849692D01*
X69336901Y3847600D01*
X69822701Y3847600D01*
X69826511Y3847793D01*
X69891704Y3854415D01*
X69899125Y3855939D01*
X69983451Y3882365D01*
X69990412Y3885348D01*
X70067701Y3928189D01*
X70073923Y3932514D01*
X70141018Y3990022D01*
X70146244Y3995511D01*
X70200405Y4065333D01*
X70204418Y4071756D01*
X70243433Y4151044D01*
X70246075Y4158150D01*
X70252658Y4183421D01*
X70252614Y4189706D01*
X72475063Y4189706D01*
X72475587Y4186766D01*
X72501849Y4115389D01*
X72505169Y4108582D01*
X72551736Y4033478D01*
X72556359Y4027474D01*
X72617069Y3963276D01*
X72622817Y3958314D01*
X72695195Y3907634D01*
X72701811Y3903936D01*
X72782910Y3868842D01*
X72790130Y3866552D01*
X72877530Y3848293D01*
X72882762Y3847614D01*
X72883278Y3847600D01*
X73243098Y3847600D01*
X73250908Y3849692D01*
X73252999Y3857501D01*
X73506999Y3857501D01*
X73509091Y3849692D01*
X73516901Y3847600D01*
X73852701Y3847600D01*
X73856511Y3847793D01*
X73921704Y3854415D01*
X73929125Y3855939D01*
X74013451Y3882365D01*
X74020412Y3885348D01*
X74097701Y3928189D01*
X74103923Y3932514D01*
X74171018Y3990022D01*
X74176244Y3995511D01*
X74230405Y4065333D01*
X74234418Y4071756D01*
X74273433Y4151044D01*
X74276075Y4158150D01*
X74282658Y4183421D01*
X74282601Y4191503D01*
X74279965Y4193000D01*
X73516902Y4193001D01*
X73509092Y4190909D01*
X73507000Y4183099D01*
X73506999Y3857501D01*
X73252999Y3857501D01*
X73253000Y3857502D01*
X73253001Y4183099D01*
X73250909Y4190908D01*
X73243099Y4193000D01*
X72483195Y4193001D01*
X72475385Y4190909D01*
X72475063Y4189706D01*
X70252614Y4189706D01*
X70252601Y4191503D01*
X70249965Y4193000D01*
X69336902Y4193001D01*
X69329092Y4190909D01*
X69327000Y4183099D01*
X69326999Y3857501D01*
X69072999Y3857501D01*
X69073000Y3857502D01*
X69073001Y4183099D01*
X69070909Y4190908D01*
X69063099Y4193000D01*
X68153195Y4193001D01*
X68145385Y4190909D01*
X68145063Y4189706D01*
X66312229Y4189706D01*
X66277050Y4208214D01*
X66275320Y4209153D01*
X66239407Y4229265D01*
X66236395Y4230952D01*
X66233125Y4232062D01*
X66229981Y4233462D01*
X66230019Y4233547D01*
X66228686Y4234119D01*
X66228651Y4234035D01*
X66225468Y4235353D01*
X66222416Y4236959D01*
X66184612Y4248697D01*
X66179746Y4250208D01*
X66177873Y4250817D01*
X66147099Y4261263D01*
X66135678Y4265140D01*
X66132265Y4265635D01*
X66128912Y4266440D01*
X66128933Y4266529D01*
X66127520Y4266849D01*
X66127501Y4266760D01*
X66124131Y4267476D01*
X66120838Y4268499D01*
X66076481Y4273749D01*
X66074564Y4274002D01*
X66060719Y4276009D01*
X66033827Y4279909D01*
X66033822Y4279909D01*
X66030417Y4280403D01*
X66026977Y4280268D01*
X66026973Y4280268D01*
X65988552Y4278758D01*
X65985599Y4278700D01*
X62145003Y4278700D01*
X62107403Y4288775D01*
X62079878Y4316300D01*
X62069803Y4353900D01*
X62080815Y4393078D01*
X62093962Y4414616D01*
X62108410Y4456579D01*
X68147342Y4456579D01*
X68147399Y4448497D01*
X68150035Y4447000D01*
X69063098Y4446999D01*
X69070908Y4449091D01*
X69073000Y4456901D01*
X69326999Y4456901D01*
X69329091Y4449092D01*
X69336901Y4447000D01*
X70246805Y4446999D01*
X70254615Y4449091D01*
X70254937Y4450294D01*
X70254413Y4453234D01*
X70253183Y4456579D01*
X72477342Y4456579D01*
X72477399Y4448497D01*
X72480035Y4447000D01*
X73243098Y4446999D01*
X73250908Y4449091D01*
X73253000Y4456901D01*
X73506999Y4456901D01*
X73509091Y4449092D01*
X73516901Y4447000D01*
X74276805Y4446999D01*
X74284615Y4449091D01*
X74284937Y4450294D01*
X74284413Y4453234D01*
X74258151Y4524611D01*
X74254831Y4531418D01*
X74208264Y4606522D01*
X74203641Y4612526D01*
X74142931Y4676724D01*
X74137183Y4681686D01*
X74064805Y4732366D01*
X74058189Y4736064D01*
X73977090Y4771158D01*
X73969870Y4773448D01*
X73882470Y4791707D01*
X73877238Y4792386D01*
X73876722Y4792400D01*
X73516902Y4792400D01*
X73509092Y4790308D01*
X73507000Y4782498D01*
X73506999Y4456901D01*
X73253000Y4456901D01*
X73253001Y4782499D01*
X73250909Y4790308D01*
X73243099Y4792400D01*
X72907299Y4792400D01*
X72903489Y4792207D01*
X72838296Y4785585D01*
X72830875Y4784061D01*
X72746549Y4757635D01*
X72739588Y4754652D01*
X72662299Y4711811D01*
X72656077Y4707486D01*
X72588982Y4649978D01*
X72583756Y4644489D01*
X72529595Y4574667D01*
X72525582Y4568244D01*
X72486567Y4488956D01*
X72483925Y4481850D01*
X72477342Y4456579D01*
X70253183Y4456579D01*
X70228151Y4524611D01*
X70224831Y4531418D01*
X70178264Y4606522D01*
X70173641Y4612526D01*
X70112931Y4676724D01*
X70107183Y4681686D01*
X70034805Y4732366D01*
X70028189Y4736064D01*
X69947090Y4771158D01*
X69939870Y4773448D01*
X69852470Y4791707D01*
X69847238Y4792386D01*
X69846722Y4792400D01*
X69336902Y4792400D01*
X69329092Y4790308D01*
X69327000Y4782498D01*
X69326999Y4456901D01*
X69073000Y4456901D01*
X69073001Y4782499D01*
X69070909Y4790308D01*
X69063099Y4792400D01*
X68577299Y4792400D01*
X68573489Y4792207D01*
X68508296Y4785585D01*
X68500875Y4784061D01*
X68416549Y4757635D01*
X68409588Y4754652D01*
X68332299Y4711811D01*
X68326077Y4707486D01*
X68258982Y4649978D01*
X68253756Y4644489D01*
X68199595Y4574667D01*
X68195582Y4568244D01*
X68156567Y4488956D01*
X68153925Y4481850D01*
X68147342Y4456579D01*
X62108410Y4456579D01*
X62124580Y4503538D01*
X62126813Y4522833D01*
X62130951Y4558599D01*
X62135389Y4596960D01*
X62135400Y4600000D01*
X62134692Y4606522D01*
X62126526Y4681686D01*
X62125243Y4693496D01*
X62119079Y4711811D01*
X62096545Y4778771D01*
X62096543Y4778776D01*
X62095246Y4782629D01*
X62092717Y4786839D01*
X62061721Y4838424D01*
X62046809Y4863242D01*
X62011803Y4900260D01*
X61984985Y4928620D01*
X61984982Y4928622D01*
X61982191Y4931574D01*
X61904408Y4984435D01*
X61817088Y5019361D01*
X61724305Y5034721D01*
X61720238Y5034508D01*
X61720235Y5034508D01*
X61673248Y5032045D01*
X61630388Y5029799D01*
X61626461Y5028717D01*
X61626459Y5028717D01*
X61592492Y5019361D01*
X61539719Y5004825D01*
X61456527Y4960963D01*
X61384696Y4900260D01*
X61384207Y4900839D01*
X61354917Y4882960D01*
X61333684Y4879900D01*
X58004733Y4879900D01*
X58001585Y4879966D01*
X58001242Y4879980D01*
X57973423Y4881146D01*
X57952416Y4876219D01*
X57945455Y4874928D01*
X57924057Y4871997D01*
X57919353Y4869962D01*
X57919348Y4869960D01*
X57917953Y4869356D01*
X57905264Y4865159D01*
X57898796Y4863642D01*
X57891726Y4859755D01*
X57879886Y4853246D01*
X57873541Y4850137D01*
X57853709Y4841555D01*
X57848542Y4837371D01*
X57837448Y4829916D01*
X57831625Y4826715D01*
X57828645Y4824143D01*
X57828642Y4824141D01*
X57828083Y4823658D01*
X57826156Y4821995D01*
X57814477Y4810316D01*
X57808628Y4805049D01*
X57794139Y4793316D01*
X57789593Y4786920D01*
X57781474Y4777313D01*
X57029712Y4025549D01*
X56798679Y3794516D01*
X56764968Y3775052D01*
X56745505Y3772490D01*
X53937371Y3772490D01*
X53899771Y3782565D01*
X53872246Y3810090D01*
X53862171Y3847690D01*
X53872246Y3885290D01*
X53888379Y3904741D01*
X53900194Y3914885D01*
X53965798Y3997507D01*
X54014594Y4091045D01*
X54044822Y4192122D01*
X54055392Y4297092D01*
X54055400Y4300000D01*
X54055225Y4301838D01*
X54045720Y4401465D01*
X54045719Y4401470D01*
X54045380Y4405024D01*
X54015681Y4506258D01*
X53967375Y4600049D01*
X53902205Y4683015D01*
X53822522Y4752160D01*
X53731202Y4804990D01*
X53727829Y4806161D01*
X53727823Y4806164D01*
X53663174Y4828613D01*
X53631540Y4839598D01*
X53628004Y4840111D01*
X53628003Y4840111D01*
X53559628Y4850025D01*
X53527131Y4854737D01*
X53523564Y4854572D01*
X53523562Y4854572D01*
X53425319Y4850025D01*
X53425314Y4850024D01*
X53421743Y4849859D01*
X53369943Y4837375D01*
X53339312Y4829993D01*
X53321693Y4827900D01*
X43177913Y4827900D01*
X43153244Y4832061D01*
X43134922Y4838424D01*
X43134918Y4838425D01*
X43131540Y4839598D01*
X43127997Y4840112D01*
X43127996Y4840112D01*
X43059628Y4850025D01*
X43027131Y4854737D01*
X43023564Y4854572D01*
X43023562Y4854572D01*
X42925319Y4850025D01*
X42925314Y4850024D01*
X42921743Y4849859D01*
X42869943Y4837375D01*
X42839312Y4829993D01*
X42821693Y4827900D01*
X41477913Y4827900D01*
X41453244Y4832061D01*
X41434922Y4838424D01*
X41434918Y4838425D01*
X41431540Y4839598D01*
X41427997Y4840112D01*
X41427996Y4840112D01*
X41359628Y4850025D01*
X41327131Y4854737D01*
X41323564Y4854572D01*
X41323562Y4854572D01*
X41225319Y4850025D01*
X41225314Y4850024D01*
X41221743Y4849859D01*
X41119179Y4825141D01*
X41115919Y4823659D01*
X41115917Y4823658D01*
X41028830Y4784061D01*
X41023140Y4781474D01*
X41020222Y4779404D01*
X41020220Y4779403D01*
X40977306Y4748962D01*
X40937415Y4720665D01*
X40937412Y4720664D01*
X40937090Y4720435D01*
X40937052Y4720489D01*
X40903419Y4704232D01*
X40889329Y4702900D01*
X34907367Y4702900D01*
X34869767Y4712975D01*
X34858088Y4721297D01*
X34822522Y4752160D01*
X34731202Y4804990D01*
X34727829Y4806161D01*
X34727823Y4806164D01*
X34663174Y4828613D01*
X34631540Y4839598D01*
X34628004Y4840111D01*
X34628003Y4840111D01*
X34559628Y4850025D01*
X34527131Y4854737D01*
X34523564Y4854572D01*
X34523562Y4854572D01*
X34425319Y4850025D01*
X34425314Y4850024D01*
X34421743Y4849859D01*
X34319179Y4825141D01*
X34315919Y4823659D01*
X34315917Y4823658D01*
X34228830Y4784061D01*
X34223140Y4781474D01*
X34220222Y4779404D01*
X34220220Y4779403D01*
X34155651Y4733601D01*
X34137090Y4720435D01*
X34134619Y4717854D01*
X34134617Y4717852D01*
X34114193Y4696516D01*
X34064135Y4644225D01*
X34062196Y4641222D01*
X34062192Y4641217D01*
X34036929Y4602091D01*
X34006907Y4555595D01*
X34005571Y4552280D01*
X34005570Y4552278D01*
X33996519Y4529818D01*
X33967472Y4457742D01*
X33947251Y4354198D01*
X33947125Y4305901D01*
X33947022Y4266529D01*
X33946975Y4248697D01*
X33959353Y4183501D01*
X33964166Y4158150D01*
X33966653Y4145048D01*
X34005576Y4046990D01*
X34007501Y4043975D01*
X34007501Y4043974D01*
X34060414Y3961077D01*
X34060417Y3961073D01*
X34062339Y3958062D01*
X34064798Y3955466D01*
X34064799Y3955465D01*
X34100587Y3917686D01*
X34134894Y3881471D01*
X34220623Y3819982D01*
X34316432Y3775813D01*
X34354351Y3766464D01*
X34415392Y3751414D01*
X34415395Y3751414D01*
X34418865Y3750558D01*
X34487565Y3747018D01*
X34520652Y3745313D01*
X34520654Y3745313D01*
X34524226Y3745129D01*
X34628713Y3759720D01*
X34728555Y3793807D01*
X34774352Y3819982D01*
X34817041Y3844380D01*
X34817045Y3844383D01*
X34820151Y3846158D01*
X34822868Y3848491D01*
X34822871Y3848493D01*
X34858347Y3878954D01*
X34893437Y3895805D01*
X34907335Y3897100D01*
X40889304Y3897100D01*
X40926904Y3887025D01*
X40934820Y3881368D01*
X40934894Y3881471D01*
X41020623Y3819982D01*
X41116432Y3775813D01*
X41154351Y3766464D01*
X41215392Y3751414D01*
X41215395Y3751414D01*
X41218865Y3750558D01*
X41287565Y3747018D01*
X41320652Y3745313D01*
X41320654Y3745313D01*
X41324226Y3745129D01*
X41428713Y3759720D01*
X41432105Y3760878D01*
X41432109Y3760879D01*
X41453160Y3768066D01*
X41477458Y3772100D01*
X42822356Y3772100D01*
X42840358Y3769914D01*
X42915392Y3751414D01*
X42915395Y3751414D01*
X42918865Y3750558D01*
X42987565Y3747018D01*
X43020652Y3745313D01*
X43020654Y3745313D01*
X43024226Y3745129D01*
X43128713Y3759720D01*
X43132105Y3760878D01*
X43132109Y3760879D01*
X43153160Y3768066D01*
X43177458Y3772100D01*
X43291152Y3772100D01*
X43328752Y3762025D01*
X43356277Y3734500D01*
X43366352Y3696900D01*
X43359307Y3665120D01*
X43357799Y3661886D01*
X43344285Y3632904D01*
X43323769Y3541124D01*
X43323755Y3537056D01*
X43323467Y3454419D01*
X43323441Y3447078D01*
X43324301Y3443102D01*
X43324301Y3443099D01*
X43334419Y3396304D01*
X43343315Y3355156D01*
X43382465Y3269647D01*
X43384915Y3266396D01*
X43384916Y3266394D01*
X43422000Y3217182D01*
X43439063Y3194538D01*
X43442151Y3191892D01*
X43442154Y3191888D01*
X43507372Y3135990D01*
X43507375Y3135988D01*
X43510469Y3133336D01*
X43593352Y3088894D01*
X43614835Y3082815D01*
X43679928Y3064395D01*
X43679932Y3064394D01*
X43683845Y3063287D01*
X43730365Y3060523D01*
X43767299Y3048237D01*
X43793144Y3019128D01*
X43800972Y2980997D01*
X43794060Y2953678D01*
X43792522Y2950378D01*
X43787829Y2940314D01*
X43786942Y2936346D01*
X43786941Y2936343D01*
X43780154Y2905980D01*
X43767313Y2848534D01*
X43767299Y2844466D01*
X43767131Y2796210D01*
X43766985Y2754488D01*
X43767845Y2750512D01*
X43767845Y2750509D01*
X43774436Y2720026D01*
X43786859Y2662566D01*
X43826009Y2577057D01*
X43828459Y2573806D01*
X43828460Y2573804D01*
X43843017Y2554486D01*
X43882607Y2501948D01*
X43893840Y2492321D01*
X43915830Y2460204D01*
X43920100Y2435225D01*
X43920101Y1204773D01*
X43920035Y1201625D01*
X43918853Y1173425D01*
X43920023Y1168437D01*
X43920023Y1168436D01*
X43923785Y1152399D01*
X43925075Y1145436D01*
X43928004Y1124057D01*
X43930642Y1117962D01*
X43934840Y1105268D01*
X43936358Y1098797D01*
X43938824Y1094311D01*
X43938826Y1094306D01*
X43946760Y1079875D01*
X43949871Y1073526D01*
X43958446Y1053709D01*
X43961670Y1049727D01*
X43961671Y1049726D01*
X43962626Y1048547D01*
X43970079Y1037457D01*
X43973284Y1031626D01*
X43978005Y1026158D01*
X43989681Y1014482D01*
X43994947Y1008634D01*
X44006685Y994139D01*
X44010863Y991170D01*
X44010864Y991169D01*
X44013081Y989593D01*
X44022694Y981469D01*
X44492065Y512097D01*
X45896355Y-892194D01*
X45915819Y-925905D01*
X45915819Y-964831D01*
X45896355Y-998542D01*
X45862644Y-1018006D01*
X45837679Y-1020366D01*
X45835607Y-1020214D01*
X45834049Y-1020100D01*
X45817525Y-1020100D01*
X45809664Y-1019688D01*
X45803565Y-1019047D01*
X45791130Y-1017740D01*
X45783401Y-1019047D01*
X45770862Y-1020100D01*
X41342323Y-1020100D01*
X41339174Y-1020034D01*
X41310998Y-1018853D01*
X41289972Y-1023785D01*
X41283015Y-1025074D01*
X41261631Y-1028003D01*
X41256926Y-1030039D01*
X41256923Y-1030040D01*
X41255527Y-1030644D01*
X41242838Y-1034841D01*
X41236370Y-1036358D01*
X41219718Y-1045512D01*
X41217457Y-1046755D01*
X41211103Y-1049868D01*
X41191283Y-1058445D01*
X41186122Y-1062625D01*
X41175025Y-1070082D01*
X41169199Y-1073284D01*
X41166216Y-1075860D01*
X41166211Y-1075863D01*
X41164778Y-1077101D01*
X41163731Y-1078005D01*
X41152056Y-1089680D01*
X41146208Y-1094946D01*
X41131713Y-1106684D01*
X41128744Y-1110862D01*
X41128743Y-1110863D01*
X41127167Y-1113080D01*
X41119043Y-1122693D01*
X40590790Y-1650947D01*
X40077778Y-2163959D01*
X40044067Y-2183423D01*
X40028540Y-2185882D01*
X39986725Y-2188074D01*
X39948063Y-2190100D01*
X39944136Y-2191182D01*
X39944134Y-2191182D01*
X39868380Y-2212048D01*
X39857394Y-2215074D01*
X39774202Y-2258936D01*
X39770362Y-2262181D01*
X39705480Y-2317011D01*
X39705477Y-2317014D01*
X39702371Y-2319639D01*
X39699900Y-2322871D01*
X39699897Y-2322874D01*
X39676712Y-2353198D01*
X39645871Y-2376948D01*
X39607286Y-2382095D01*
X39571297Y-2367261D01*
X39552514Y-2346252D01*
X39548907Y-2340248D01*
X39548902Y-2340242D01*
X39546809Y-2336758D01*
X39508492Y-2296239D01*
X39484985Y-2271380D01*
X39484982Y-2271378D01*
X39482191Y-2268426D01*
X39476391Y-2264484D01*
X39442485Y-2241442D01*
X39404408Y-2215565D01*
X39317088Y-2180639D01*
X39224305Y-2165279D01*
X39220238Y-2165492D01*
X39220235Y-2165492D01*
X39173248Y-2167955D01*
X39130388Y-2170201D01*
X39126456Y-2171284D01*
X39119772Y-2173125D01*
X39080846Y-2173398D01*
X39047000Y-2154172D01*
X39027301Y-2120598D01*
X39025098Y-2091983D01*
X39025331Y-2089975D01*
X39035389Y-2003040D01*
X39035400Y-2000000D01*
X39034870Y-1995116D01*
X39027389Y-1926261D01*
X39025243Y-1906504D01*
X39023650Y-1901770D01*
X38996545Y-1821229D01*
X38996543Y-1821224D01*
X38995246Y-1817371D01*
X38990771Y-1809922D01*
X38956104Y-1752228D01*
X38946809Y-1736758D01*
X38905146Y-1692700D01*
X38884985Y-1671380D01*
X38884982Y-1671378D01*
X38882191Y-1668426D01*
X38877146Y-1664997D01*
X38826882Y-1630838D01*
X38804408Y-1615565D01*
X38717088Y-1580639D01*
X38624305Y-1565279D01*
X38620238Y-1565492D01*
X38620235Y-1565492D01*
X38573248Y-1567955D01*
X38530388Y-1570201D01*
X38526461Y-1571283D01*
X38526459Y-1571283D01*
X38449728Y-1592418D01*
X38439719Y-1595175D01*
X38356527Y-1639037D01*
X38332313Y-1659500D01*
X38308839Y-1679337D01*
X38273617Y-1695911D01*
X38260300Y-1697100D01*
X37359403Y-1697100D01*
X37321803Y-1687025D01*
X37294278Y-1659500D01*
X37284203Y-1621900D01*
X37291359Y-1589883D01*
X37291841Y-1588859D01*
X37293962Y-1585384D01*
X37324580Y-1496462D01*
X37325184Y-1491246D01*
X37331936Y-1432886D01*
X37335389Y-1403040D01*
X37335400Y-1400000D01*
X37325243Y-1306504D01*
X37317976Y-1284910D01*
X37296545Y-1221229D01*
X37296543Y-1221224D01*
X37295246Y-1217371D01*
X37290771Y-1209922D01*
X37257834Y-1155107D01*
X37246809Y-1136758D01*
X37211803Y-1099740D01*
X37184985Y-1071380D01*
X37184982Y-1071378D01*
X37182191Y-1068426D01*
X37178541Y-1065945D01*
X37133284Y-1035189D01*
X37104408Y-1015565D01*
X37017088Y-980639D01*
X36924305Y-965279D01*
X36920238Y-965492D01*
X36920235Y-965492D01*
X36873248Y-967955D01*
X36830388Y-970201D01*
X36826461Y-971283D01*
X36826459Y-971283D01*
X36743647Y-994093D01*
X36739719Y-995175D01*
X36656527Y-1039037D01*
X36584696Y-1099740D01*
X36584207Y-1099161D01*
X36554917Y-1117040D01*
X36533684Y-1120100D01*
X33075001Y-1120100D01*
X33037401Y-1110025D01*
X33021827Y-1098074D01*
X30069814Y1853937D01*
X30067634Y1856210D01*
X30058451Y1866196D01*
X30048522Y1876994D01*
X30042082Y1880987D01*
X30040260Y1882927D01*
X30040213Y1882966D01*
X30040218Y1882972D01*
X30015435Y1909363D01*
X30006545Y1947260D01*
X30017795Y1984526D01*
X30046171Y2011173D01*
X30081708Y2020100D01*
X30652915Y2020100D01*
X30690515Y2010025D01*
X30706089Y1998074D01*
X31806088Y898074D01*
X32898710Y-194548D01*
X32900890Y-196821D01*
X32916520Y-213819D01*
X32916523Y-213821D01*
X32919991Y-217593D01*
X32924344Y-220292D01*
X32924349Y-220296D01*
X32938342Y-228971D01*
X32944182Y-232984D01*
X32961368Y-246030D01*
X32967558Y-248481D01*
X32979483Y-254479D01*
X32985138Y-257985D01*
X33005883Y-264012D01*
X33012563Y-266299D01*
X33032638Y-274248D01*
X33037739Y-274784D01*
X33037742Y-274785D01*
X33039250Y-274944D01*
X33052360Y-277516D01*
X33054252Y-278065D01*
X33058746Y-279371D01*
X33063400Y-279713D01*
X33064586Y-279800D01*
X33064592Y-279800D01*
X33065951Y-279900D01*
X33082475Y-279900D01*
X33090335Y-280312D01*
X33108870Y-282260D01*
X33116599Y-280953D01*
X33129138Y-279900D01*
X37652914Y-279900D01*
X37690514Y-289975D01*
X37706089Y-301926D01*
X37745138Y-340976D01*
X37764601Y-374688D01*
X37767163Y-394412D01*
X37767022Y-435002D01*
X37766985Y-445512D01*
X37767845Y-449488D01*
X37767845Y-449491D01*
X37770134Y-460076D01*
X37786859Y-537434D01*
X37826009Y-622943D01*
X37828459Y-626194D01*
X37828460Y-626196D01*
X37858196Y-665657D01*
X37882607Y-698052D01*
X37885695Y-700698D01*
X37885698Y-700702D01*
X37950916Y-756600D01*
X37950919Y-756602D01*
X37954013Y-759254D01*
X38036896Y-803696D01*
X38059817Y-810182D01*
X38123472Y-828195D01*
X38123476Y-828196D01*
X38127389Y-829303D01*
X38180364Y-832450D01*
X38217207Y-834639D01*
X38217210Y-834639D01*
X38221269Y-834880D01*
X38314157Y-820168D01*
X38317946Y-818683D01*
X38317950Y-818682D01*
X38387526Y-791415D01*
X38401719Y-785853D01*
X38405106Y-783585D01*
X38405109Y-783584D01*
X38476484Y-735803D01*
X38476486Y-735802D01*
X38479870Y-733536D01*
X38544963Y-665657D01*
X38593962Y-585384D01*
X38624580Y-496462D01*
X38625184Y-491246D01*
X38632173Y-430836D01*
X38635389Y-403040D01*
X38635400Y-400000D01*
X38634931Y-395677D01*
X38625683Y-310556D01*
X38625243Y-306504D01*
X38617976Y-284910D01*
X38596545Y-221229D01*
X38596543Y-221224D01*
X38595246Y-217371D01*
X38587766Y-204921D01*
X38548904Y-140245D01*
X38546809Y-136758D01*
X38509306Y-97099D01*
X38484985Y-71380D01*
X38484982Y-71378D01*
X38482191Y-68426D01*
X38478825Y-66138D01*
X38430203Y-33095D01*
X38404408Y-15565D01*
X38317088Y19361D01*
X38224305Y34721D01*
X38220238Y34508D01*
X38220236Y34508D01*
X38212249Y34089D01*
X38197697Y33326D01*
X38159623Y41419D01*
X38140588Y55249D01*
X38001300Y194537D01*
X37999120Y196810D01*
X37993056Y203404D01*
X37980009Y217593D01*
X37961646Y228979D01*
X37955812Y232989D01*
X37942713Y242932D01*
X37942711Y242933D01*
X37938631Y246030D01*
X37932452Y248477D01*
X37920512Y254482D01*
X37914862Y257985D01*
X37894106Y264015D01*
X37887434Y266300D01*
X37867361Y274248D01*
X37860756Y274942D01*
X37847636Y277517D01*
X37841254Y279371D01*
X37837327Y279659D01*
X37837323Y279660D01*
X37835414Y279800D01*
X37835408Y279800D01*
X37834049Y279900D01*
X37817525Y279900D01*
X37809664Y280312D01*
X37803565Y280953D01*
X37791130Y282260D01*
X37783401Y280953D01*
X37770862Y279900D01*
X33247087Y279900D01*
X33209487Y289975D01*
X33193913Y301926D01*
X32395839Y1100000D01*
X38197600Y1100000D01*
X38198243Y1095116D01*
X38207184Y1027205D01*
X38207904Y1021733D01*
X38238114Y948800D01*
X38286171Y886171D01*
X38348800Y838114D01*
X38421733Y807904D01*
X38426611Y807262D01*
X38426614Y807261D01*
X38495116Y798243D01*
X38500000Y797600D01*
X38504884Y798243D01*
X38573386Y807261D01*
X38573389Y807262D01*
X38578267Y807904D01*
X38651200Y838114D01*
X38713829Y886171D01*
X38761886Y948800D01*
X38792096Y1021733D01*
X38792817Y1027205D01*
X38801757Y1095116D01*
X38802400Y1100000D01*
X38798611Y1128778D01*
X38792739Y1173386D01*
X38792738Y1173389D01*
X38792096Y1178267D01*
X38761886Y1251200D01*
X38713829Y1313829D01*
X38651200Y1361886D01*
X38651723Y1362568D01*
X38628285Y1386005D01*
X38618209Y1423605D01*
X38628283Y1461205D01*
X38655807Y1488731D01*
X38683593Y1498164D01*
X38752693Y1507261D01*
X38752696Y1507262D01*
X38757574Y1507904D01*
X38830507Y1538114D01*
X38884875Y1579832D01*
X38889229Y1583173D01*
X38893136Y1586171D01*
X38898128Y1592676D01*
X38938195Y1644893D01*
X38941193Y1648800D01*
X38971403Y1721733D01*
X38972331Y1728778D01*
X38981064Y1795116D01*
X38981707Y1800000D01*
X38978829Y1821858D01*
X38972046Y1873386D01*
X38972045Y1873389D01*
X38971403Y1878267D01*
X38941193Y1951200D01*
X38893136Y2013829D01*
X38884964Y2020100D01*
X38834414Y2058888D01*
X38830507Y2061886D01*
X38757574Y2092096D01*
X38752696Y2092738D01*
X38752693Y2092739D01*
X38684191Y2101757D01*
X38679307Y2102400D01*
X38674423Y2101757D01*
X38605921Y2092739D01*
X38605918Y2092738D01*
X38601040Y2092096D01*
X38528107Y2061886D01*
X38524200Y2058888D01*
X38473651Y2020100D01*
X38465478Y2013829D01*
X38417421Y1951200D01*
X38387211Y1878267D01*
X38386569Y1873389D01*
X38386568Y1873386D01*
X38379785Y1821858D01*
X38376907Y1800000D01*
X38377550Y1795116D01*
X38386284Y1728778D01*
X38387211Y1721733D01*
X38417421Y1648800D01*
X38420419Y1644893D01*
X38460487Y1592676D01*
X38465478Y1586171D01*
X38469385Y1583173D01*
X38528107Y1538114D01*
X38527584Y1537432D01*
X38551022Y1513995D01*
X38561098Y1476395D01*
X38551024Y1438795D01*
X38523500Y1411269D01*
X38495714Y1401836D01*
X38426614Y1392739D01*
X38426611Y1392738D01*
X38421733Y1392096D01*
X38348800Y1361886D01*
X38286171Y1313829D01*
X38238114Y1251200D01*
X38207904Y1178267D01*
X38207262Y1173389D01*
X38207261Y1173386D01*
X38201389Y1128778D01*
X38197600Y1100000D01*
X32395839Y1100000D01*
X31001301Y2494536D01*
X30999121Y2496809D01*
X30989368Y2507415D01*
X30980009Y2517593D01*
X30961646Y2528979D01*
X30955812Y2532989D01*
X30942713Y2542932D01*
X30942711Y2542933D01*
X30938631Y2546030D01*
X30932452Y2548477D01*
X30920512Y2554482D01*
X30914862Y2557985D01*
X30894106Y2564015D01*
X30887434Y2566300D01*
X30867361Y2574248D01*
X30860756Y2574942D01*
X30847636Y2577517D01*
X30841254Y2579371D01*
X30837327Y2579659D01*
X30837323Y2579660D01*
X30835414Y2579800D01*
X30835408Y2579800D01*
X30834049Y2579900D01*
X30817525Y2579900D01*
X30809664Y2580312D01*
X30791130Y2582260D01*
X30783401Y2580953D01*
X30770862Y2579900D01*
X26863443Y2579900D01*
X26825843Y2589975D01*
X26808804Y2603432D01*
X26784989Y2628616D01*
X26784985Y2628619D01*
X26782191Y2631574D01*
X26769331Y2640314D01*
X26732692Y2665213D01*
X26704408Y2684435D01*
X26617088Y2719361D01*
X26524305Y2734721D01*
X26520238Y2734508D01*
X26520235Y2734508D01*
X26473248Y2732045D01*
X26430388Y2729799D01*
X26426461Y2728717D01*
X26426459Y2728717D01*
X26392492Y2719361D01*
X26339719Y2704825D01*
X26256527Y2660963D01*
X26235117Y2642870D01*
X26187805Y2602888D01*
X26187802Y2602885D01*
X26184696Y2600260D01*
X26127574Y2525549D01*
X26125853Y2521858D01*
X26089548Y2444002D01*
X26089546Y2443996D01*
X26087829Y2440314D01*
X26086942Y2436346D01*
X26086941Y2436343D01*
X26080663Y2408257D01*
X26067313Y2348534D01*
X26067174Y2308667D01*
X26067020Y2264417D01*
X26066985Y2254488D01*
X26067845Y2250512D01*
X26067845Y2250509D01*
X26076620Y2209922D01*
X26086859Y2162566D01*
X26126009Y2077057D01*
X26128459Y2073806D01*
X26128463Y2073799D01*
X26139045Y2059756D01*
X26153627Y2023664D01*
X26148208Y1985117D01*
X26124242Y1954443D01*
X26088150Y1939861D01*
X26078987Y1939301D01*
X24087686Y1939301D01*
X24050086Y1949376D01*
X24034512Y1961327D01*
X22595839Y3400000D01*
X35497600Y3400000D01*
X35498243Y3395116D01*
X35507141Y3327531D01*
X35507904Y3321733D01*
X35538114Y3248800D01*
X35541112Y3244893D01*
X35566920Y3211260D01*
X35586171Y3186171D01*
X35648800Y3138114D01*
X35721733Y3107904D01*
X35726611Y3107262D01*
X35726614Y3107261D01*
X35795116Y3098243D01*
X35800000Y3097600D01*
X35804884Y3098243D01*
X35873386Y3107261D01*
X35873389Y3107262D01*
X35878267Y3107904D01*
X35951200Y3138114D01*
X36013829Y3186171D01*
X36033081Y3211260D01*
X36055586Y3240590D01*
X37697600Y3240590D01*
X37698243Y3235706D01*
X37704421Y3188782D01*
X37707904Y3162323D01*
X37738114Y3089390D01*
X37758759Y3062485D01*
X37782354Y3031736D01*
X37786171Y3026761D01*
X37790078Y3023763D01*
X37800602Y3015688D01*
X37848800Y2978704D01*
X37921733Y2948494D01*
X37926611Y2947852D01*
X37926614Y2947851D01*
X37995116Y2938833D01*
X38000000Y2938190D01*
X38004884Y2938833D01*
X38073386Y2947851D01*
X38073389Y2947852D01*
X38078267Y2948494D01*
X38151200Y2978704D01*
X38178953Y3000000D01*
X38497600Y3000000D01*
X38498243Y2995116D01*
X38506985Y2928717D01*
X38507904Y2921733D01*
X38538114Y2848800D01*
X38586171Y2786171D01*
X38648800Y2738114D01*
X38721733Y2707904D01*
X38726611Y2707262D01*
X38726614Y2707261D01*
X38795116Y2698243D01*
X38800000Y2697600D01*
X38804884Y2698243D01*
X38873386Y2707261D01*
X38873389Y2707262D01*
X38878267Y2707904D01*
X38951200Y2738114D01*
X39013829Y2786171D01*
X39061886Y2848800D01*
X39092096Y2921733D01*
X39093016Y2928717D01*
X39101757Y2995116D01*
X39102400Y3000000D01*
X39101188Y3009209D01*
X39092739Y3073386D01*
X39092738Y3073389D01*
X39092096Y3078267D01*
X39061886Y3151200D01*
X39013829Y3213829D01*
X38951200Y3261886D01*
X38878267Y3292096D01*
X38873389Y3292738D01*
X38873386Y3292739D01*
X38804884Y3301757D01*
X38800000Y3302400D01*
X38795116Y3301757D01*
X38726614Y3292739D01*
X38726611Y3292738D01*
X38721733Y3292096D01*
X38648800Y3261886D01*
X38586171Y3213829D01*
X38538114Y3151200D01*
X38507904Y3078267D01*
X38507262Y3073389D01*
X38507261Y3073386D01*
X38498812Y3009209D01*
X38497600Y3000000D01*
X38178953Y3000000D01*
X38199398Y3015688D01*
X38209922Y3023763D01*
X38213829Y3026761D01*
X38217647Y3031736D01*
X38241241Y3062485D01*
X38261886Y3089390D01*
X38292096Y3162323D01*
X38295580Y3188782D01*
X38301757Y3235706D01*
X38302400Y3240590D01*
X38298450Y3270595D01*
X38292739Y3313976D01*
X38292738Y3313979D01*
X38292096Y3318857D01*
X38261886Y3391790D01*
X38213829Y3454419D01*
X38151200Y3502476D01*
X38078267Y3532686D01*
X38073389Y3533328D01*
X38073386Y3533329D01*
X38004884Y3542347D01*
X38000000Y3542990D01*
X37995116Y3542347D01*
X37926614Y3533329D01*
X37926611Y3533328D01*
X37921733Y3532686D01*
X37848800Y3502476D01*
X37786171Y3454419D01*
X37738114Y3391790D01*
X37707904Y3318857D01*
X37707262Y3313979D01*
X37707261Y3313976D01*
X37701550Y3270595D01*
X37697600Y3240590D01*
X36055586Y3240590D01*
X36058888Y3244893D01*
X36061886Y3248800D01*
X36092096Y3321733D01*
X36092860Y3327531D01*
X36101757Y3395116D01*
X36102400Y3400000D01*
X36097824Y3434758D01*
X36092739Y3473386D01*
X36092738Y3473389D01*
X36092096Y3478267D01*
X36061886Y3551200D01*
X36013829Y3613829D01*
X35951200Y3661886D01*
X35878267Y3692096D01*
X35873389Y3692738D01*
X35873386Y3692739D01*
X35804884Y3701757D01*
X35800000Y3702400D01*
X35795116Y3701757D01*
X35726614Y3692739D01*
X35726611Y3692738D01*
X35721733Y3692096D01*
X35648800Y3661886D01*
X35586171Y3613829D01*
X35538114Y3551200D01*
X35507904Y3478267D01*
X35507262Y3473389D01*
X35507261Y3473386D01*
X35502176Y3434758D01*
X35497600Y3400000D01*
X22595839Y3400000D01*
X22542402Y3453436D01*
X22044709Y3951128D01*
X22025245Y3984839D01*
X22025245Y4023765D01*
X22044709Y4057476D01*
X22078420Y4076940D01*
X22097883Y4079502D01*
X30790274Y4079502D01*
X30827874Y4069427D01*
X30843450Y4057474D01*
X30857004Y4043919D01*
X30877330Y4006639D01*
X30886859Y3962566D01*
X30926009Y3877057D01*
X30928459Y3873806D01*
X30928460Y3873804D01*
X30958196Y3834343D01*
X30982607Y3801948D01*
X30985695Y3799302D01*
X30985698Y3799298D01*
X31050916Y3743400D01*
X31050919Y3743398D01*
X31054013Y3740746D01*
X31136896Y3696304D01*
X31151767Y3692096D01*
X31223472Y3671805D01*
X31223476Y3671804D01*
X31227389Y3670697D01*
X31281307Y3667494D01*
X31317207Y3665361D01*
X31317210Y3665361D01*
X31321269Y3665120D01*
X31414157Y3679832D01*
X31417946Y3681317D01*
X31417950Y3681318D01*
X31471744Y3702400D01*
X31501719Y3714147D01*
X31505106Y3716415D01*
X31505109Y3716416D01*
X31576484Y3764197D01*
X31576486Y3764198D01*
X31579870Y3766464D01*
X31644963Y3834343D01*
X31693962Y3914616D01*
X31724580Y4003538D01*
X31725353Y4010214D01*
X31733369Y4079502D01*
X31735389Y4096960D01*
X31735400Y4100000D01*
X31725243Y4193496D01*
X31723943Y4197359D01*
X31696545Y4278771D01*
X31696543Y4278776D01*
X31695246Y4282629D01*
X31684809Y4300000D01*
X31652243Y4354198D01*
X31646809Y4363242D01*
X31607298Y4405024D01*
X31584985Y4428620D01*
X31584982Y4428622D01*
X31582191Y4431574D01*
X31557290Y4448497D01*
X31536150Y4462863D01*
X31504408Y4484435D01*
X31458443Y4502820D01*
X31420872Y4517848D01*
X31420868Y4517849D01*
X31417088Y4519361D01*
X31401529Y4521937D01*
X31396118Y4522833D01*
X31360669Y4538915D01*
X31355228Y4543848D01*
X31226674Y4672401D01*
X31223180Y4676142D01*
X31208390Y4693096D01*
X31205407Y4696516D01*
X31201700Y4699121D01*
X31201697Y4699124D01*
X31179628Y4714634D01*
X31176469Y4716981D01*
X31155272Y4733601D01*
X31155269Y4733603D01*
X31151704Y4736398D01*
X31147574Y4738263D01*
X31143696Y4740611D01*
X31143747Y4740695D01*
X31143294Y4740954D01*
X31143248Y4740867D01*
X31139255Y4743008D01*
X31135543Y4745617D01*
X31106204Y4757056D01*
X31102578Y4758579D01*
X31099471Y4759982D01*
X31073877Y4771538D01*
X31069419Y4772364D01*
X31065097Y4773719D01*
X31065126Y4773813D01*
X31064619Y4773958D01*
X31064595Y4773863D01*
X31060202Y4774991D01*
X31055982Y4776636D01*
X31051493Y4777227D01*
X31051489Y4777228D01*
X31024749Y4780748D01*
X31020859Y4781364D01*
X30994371Y4786274D01*
X30994368Y4786274D01*
X30989913Y4787100D01*
X30985384Y4786839D01*
X30985383Y4786839D01*
X30960895Y4785427D01*
X30956567Y4785302D01*
X6345873Y4785302D01*
X6340757Y4785476D01*
X6318325Y4787006D01*
X6318321Y4787006D01*
X6313801Y4787314D01*
X6302272Y4785302D01*
X6282795Y4781903D01*
X6278902Y4781328D01*
X6274110Y4780748D01*
X6247627Y4777543D01*
X6243390Y4775942D01*
X6238981Y4774859D01*
X6238958Y4774952D01*
X6238463Y4774817D01*
X6238491Y4774724D01*
X6234147Y4773413D01*
X6229680Y4772633D01*
X6200837Y4759971D01*
X6197247Y4758506D01*
X6167747Y4747359D01*
X6164003Y4744785D01*
X6159991Y4742688D01*
X6159945Y4742776D01*
X6159489Y4742522D01*
X6159540Y4742436D01*
X6155643Y4740132D01*
X6151488Y4738308D01*
X6147890Y4735548D01*
X6147891Y4735548D01*
X6126495Y4719132D01*
X6123315Y4716822D01*
X6097372Y4698991D01*
X6094357Y4695607D01*
X6078019Y4677270D01*
X6075046Y4674122D01*
X5944901Y4543977D01*
X5911697Y4524651D01*
X5892492Y4519361D01*
X5839719Y4504825D01*
X5756527Y4460963D01*
X5748562Y4454232D01*
X5687805Y4402888D01*
X5687802Y4402885D01*
X5684696Y4400260D01*
X5627574Y4325549D01*
X5623261Y4316300D01*
X5589548Y4244002D01*
X5589546Y4243996D01*
X5587829Y4240314D01*
X5586942Y4236346D01*
X5586941Y4236343D01*
X5580449Y4207300D01*
X5567313Y4148534D01*
X5567219Y4121588D01*
X5567022Y4064998D01*
X5566985Y4054488D01*
X5567845Y4050512D01*
X5567845Y4050509D01*
X5573242Y4025549D01*
X5586859Y3962566D01*
X5626009Y3877057D01*
X5628459Y3873806D01*
X5628460Y3873804D01*
X5658196Y3834343D01*
X5682607Y3801948D01*
X5685695Y3799302D01*
X5685698Y3799298D01*
X5750916Y3743400D01*
X5750919Y3743398D01*
X5754013Y3740746D01*
X5836896Y3696304D01*
X5851767Y3692096D01*
X5923472Y3671805D01*
X5923476Y3671804D01*
X5927389Y3670697D01*
X5981307Y3667494D01*
X6017207Y3665361D01*
X6017210Y3665361D01*
X6021269Y3665120D01*
X6114157Y3679832D01*
X6117946Y3681317D01*
X6117950Y3681318D01*
X6171744Y3702400D01*
X6201719Y3714147D01*
X6205106Y3716415D01*
X6205109Y3716416D01*
X6276484Y3764197D01*
X6276486Y3764198D01*
X6279870Y3766464D01*
X6344963Y3834343D01*
X6393962Y3914616D01*
X6401443Y3936343D01*
X6423255Y3999689D01*
X6423256Y3999692D01*
X6424580Y4003538D01*
X6425048Y4007582D01*
X6425646Y4010214D01*
X6445805Y4046730D01*
X6456555Y4057479D01*
X6490267Y4076941D01*
X6509727Y4079502D01*
X8734693Y4079502D01*
X8772293Y4069427D01*
X8799818Y4041902D01*
X8809893Y4004302D01*
X8802847Y3972521D01*
X8792872Y3951128D01*
X8787829Y3940314D01*
X8786942Y3936346D01*
X8786941Y3936343D01*
X8781625Y3912560D01*
X8767313Y3848534D01*
X8767299Y3844466D01*
X8767002Y3759224D01*
X8766985Y3754488D01*
X8767845Y3750512D01*
X8767845Y3750509D01*
X8774844Y3718139D01*
X8786859Y3662566D01*
X8826009Y3577057D01*
X8828459Y3573806D01*
X8828460Y3573804D01*
X8860864Y3530802D01*
X8882607Y3501948D01*
X8885695Y3499302D01*
X8885698Y3499298D01*
X8935504Y3456610D01*
X8954013Y3440746D01*
X8954894Y3440273D01*
X8979391Y3411690D01*
X8986550Y3373427D01*
X8973619Y3336712D01*
X8944062Y3311381D01*
X8911572Y3304000D01*
X5274252Y3304000D01*
X5236652Y3314075D01*
X5219614Y3327531D01*
X5207701Y3340129D01*
X5175710Y3373958D01*
X5172139Y3376385D01*
X5103082Y3423317D01*
X5103078Y3423319D01*
X5099713Y3425606D01*
X5014398Y3459729D01*
X5010386Y3460393D01*
X5010383Y3460394D01*
X4931906Y3473386D01*
X4923746Y3474737D01*
X4919679Y3474524D01*
X4919676Y3474524D01*
X4873933Y3472126D01*
X4831987Y3469928D01*
X4828060Y3468846D01*
X4828058Y3468846D01*
X4809605Y3463763D01*
X4743400Y3445527D01*
X4739797Y3443627D01*
X4739796Y3443627D01*
X4731269Y3439131D01*
X4662119Y3402673D01*
X4591937Y3343364D01*
X4589466Y3340133D01*
X4589463Y3340129D01*
X4584416Y3333527D01*
X4553576Y3309775D01*
X4524675Y3304000D01*
X4474252Y3304000D01*
X4436652Y3314075D01*
X4419614Y3327531D01*
X4407701Y3340129D01*
X4375710Y3373958D01*
X4372139Y3376385D01*
X4303082Y3423317D01*
X4303078Y3423319D01*
X4299713Y3425606D01*
X4214398Y3459729D01*
X4210386Y3460393D01*
X4210383Y3460394D01*
X4131906Y3473386D01*
X4123746Y3474737D01*
X4119679Y3474524D01*
X4119676Y3474524D01*
X4073933Y3472126D01*
X4031987Y3469928D01*
X4028060Y3468846D01*
X4028058Y3468846D01*
X4009605Y3463763D01*
X3943400Y3445527D01*
X3939797Y3443627D01*
X3939796Y3443627D01*
X3931269Y3439131D01*
X3862119Y3402673D01*
X3791937Y3343364D01*
X3789466Y3340133D01*
X3789463Y3340129D01*
X3784416Y3333527D01*
X3753576Y3309775D01*
X3724675Y3304000D01*
X1974252Y3304000D01*
X1936652Y3314075D01*
X1919614Y3327531D01*
X1907701Y3340129D01*
X1875710Y3373958D01*
X1872139Y3376385D01*
X1803082Y3423317D01*
X1803078Y3423319D01*
X1799713Y3425606D01*
X1714398Y3459729D01*
X1710386Y3460393D01*
X1710383Y3460394D01*
X1631906Y3473386D01*
X1623746Y3474737D01*
X1619679Y3474524D01*
X1619676Y3474524D01*
X1573933Y3472126D01*
X1531987Y3469928D01*
X1528060Y3468846D01*
X1528058Y3468846D01*
X1509605Y3463763D01*
X1443400Y3445527D01*
X1439797Y3443627D01*
X1439796Y3443627D01*
X1431269Y3439131D01*
X1362119Y3402673D01*
X1291937Y3343364D01*
X1289466Y3340133D01*
X1289463Y3340129D01*
X1284416Y3333527D01*
X1253576Y3309775D01*
X1224675Y3304000D01*
X329200Y3304000D01*
X291600Y3314075D01*
X264075Y3341600D01*
X254000Y3379200D01*
X254000Y5170800D01*
X264075Y5208400D01*
X291600Y5235925D01*
X329200Y5246000D01*
X74670800Y5246000D01*
X74708400Y5235925D01*
G37*
G04 #@! TD.AperFunction*
G04 #@! TA.AperFunction,Conductor*
G36*
X53090515Y-489975D02*
G01*
X53106089Y-501926D01*
X53545137Y-940975D01*
X53564601Y-974686D01*
X53567163Y-994411D01*
X53567008Y-1039037D01*
X53566985Y-1045512D01*
X53567845Y-1049488D01*
X53567845Y-1049491D01*
X53569341Y-1056409D01*
X53586859Y-1137434D01*
X53626009Y-1222943D01*
X53628459Y-1226194D01*
X53628460Y-1226196D01*
X53658196Y-1265657D01*
X53682607Y-1298052D01*
X53735047Y-1342998D01*
X53757036Y-1375113D01*
X53760023Y-1413924D01*
X53743204Y-1449030D01*
X53734645Y-1457529D01*
X53724459Y-1466137D01*
X53684696Y-1499740D01*
X53684207Y-1499161D01*
X53654917Y-1517040D01*
X53633684Y-1520100D01*
X53347086Y-1520100D01*
X53309486Y-1510025D01*
X53293912Y-1498074D01*
X52849808Y-1053970D01*
X52404111Y-608274D01*
X52384647Y-574563D01*
X52384647Y-535637D01*
X52404111Y-501926D01*
X52437822Y-482462D01*
X52457285Y-479900D01*
X53052915Y-479900D01*
X53090515Y-489975D01*
G37*
G04 #@! TD.AperFunction*
G04 #@! TD*
M02*
