G04 #@! TF.GenerationSoftware,KiCad,Pcbnew,(5.99.0-3477-gacf13a186)*
G04 #@! TF.CreationDate,2020-09-30T00:07:38-07:00*
G04 #@! TF.ProjectId,RT_USB_PD_Soldering_Iron,52545f55-5342-45f5-9044-5f536f6c6465,rev?*
G04 #@! TF.SameCoordinates,PX5f5e100PY7735940*
G04 #@! TF.FileFunction,Copper,L3,Inr*
G04 #@! TF.FilePolarity,Positive*
%FSLAX46Y46*%
G04 Gerber Fmt 4.6, Leading zero omitted, Abs format (unit mm)*
G04 Created by KiCad (PCBNEW (5.99.0-3477-gacf13a186)) date 2020-09-30 00:07:38*
%MOMM*%
%LPD*%
G01*
G04 APERTURE LIST*
G04 #@! TA.AperFunction,ViaPad*
%ADD10C,0.700000*%
G04 #@! TD*
G04 #@! TA.AperFunction,ViaPad*
%ADD11C,1.000000*%
G04 #@! TD*
G04 #@! TA.AperFunction,ViaPad*
%ADD12C,0.800000*%
G04 #@! TD*
G04 #@! TA.AperFunction,ViaPad*
%ADD13C,0.605000*%
G04 #@! TD*
G04 #@! TA.AperFunction,Conductor*
%ADD14C,2.000000*%
G04 #@! TD*
G04 #@! TA.AperFunction,Conductor*
%ADD15C,0.500000*%
G04 #@! TD*
G04 #@! TA.AperFunction,Conductor*
%ADD16C,0.254000*%
G04 #@! TD*
G04 APERTURE END LIST*
D10*
G04 #@! TO.N,IN*
X24700000Y300000D03*
X24700000Y-700000D03*
D11*
X84400000Y-4400000D03*
D10*
X25400000Y800000D03*
D11*
X24950000Y-4400000D03*
X91700000Y2400000D03*
X83000000Y-4400000D03*
D10*
X25400000Y-200000D03*
D11*
X91700000Y-2400000D03*
D10*
X25400000Y-1200000D03*
D12*
G04 #@! TO.N,+3V3*
X73700000Y-900000D03*
X71500000Y-898157D03*
X52600000Y-3000000D03*
D10*
X36900000Y-698616D03*
X40800000Y-300000D03*
X51605846Y3956118D03*
X85250000Y-1200000D03*
D12*
X62300000Y-898157D03*
D10*
X36100000Y4100000D03*
X53700000Y4500000D03*
D12*
X82100000Y-954332D03*
D10*
X40800000Y4100000D03*
D13*
G04 #@! TO.N,/BTN1*
X79570952Y-3046790D03*
X56867571Y-1835625D03*
G04 #@! TO.N,/BTN2*
X77100000Y4700000D03*
X55100000Y4400000D03*
G04 #@! TO.N,Net-(C10-Pad1)*
X81800000Y0D03*
X73300000Y0D03*
G04 #@! TO.N,/HEATER*
X21800000Y-2700000D03*
X19050000Y-1200000D03*
X19850000Y-1200000D03*
X18700000Y-2700000D03*
X21450000Y-400000D03*
X19050000Y-400000D03*
X18700000Y-1900000D03*
X21800000Y-1900000D03*
X19050000Y400000D03*
X20650000Y-1200000D03*
X21450000Y400000D03*
X21450000Y-1200000D03*
G04 #@! TO.N,/OSC_IN*
X48800000Y-3100000D03*
G04 #@! TO.N,/OSC_OUT*
X50400000Y-2702548D03*
G04 #@! TO.N,/TEMP_SENS*
X39400000Y-2500000D03*
X43750000Y-2950000D03*
G04 #@! TO.N,/USB_DP*
X86900000Y3300000D03*
X57080045Y3119790D03*
G04 #@! TO.N,/CC2*
X94400000Y1700000D03*
X57895284Y-1818064D03*
X84600000Y-100000D03*
G04 #@! TO.N,/USB_DM*
X83200000Y4000000D03*
X56000000Y3201874D03*
G04 #@! TO.N,/CC1*
X58538610Y-2480210D03*
X87800000Y-100000D03*
G04 #@! TO.N,/TIP_TC*
X7100000Y4100000D03*
X31800000Y4100000D03*
G04 #@! TO.N,/I2C1_SCL*
X57913030Y128634D03*
X71100000Y1600000D03*
G04 #@! TO.N,/I2C1_SDA*
X60300000Y2600000D03*
X75000000Y1500000D03*
X71100000Y2600000D03*
X55800000Y-2994290D03*
G04 #@! TO.N,/VSENSE*
X32000000Y-600000D03*
X43800000Y-1150000D03*
G04 #@! TO.N,/HEAT_ON*
X48800000Y4100000D03*
X28500000Y-2900000D03*
G04 #@! TO.N,Net-(R16-Pad1)*
X37000000Y1180210D03*
G04 #@! TO.N,Net-(R17-Pad2)*
X34100000Y-2300000D03*
G04 #@! TO.N,/INT0*
X42000000Y4300000D03*
G04 #@! TO.N,/SPI1_MISO*
X48500000Y2519790D03*
G04 #@! TO.N,/SPI1_NSS*
X47600000Y1159370D03*
G04 #@! TO.N,/SPI1_MOSI*
X46180982Y3180982D03*
G04 #@! TO.N,/SPI1_SCK*
X46600000Y1839580D03*
G04 #@! TO.N,/DISP_RST#*
X54487083Y-2994290D03*
X66550667Y553004D03*
G04 #@! TO.N,/NRST*
X49500000Y-2600000D03*
X58000000Y2500000D03*
G04 #@! TO.N,GND*
X50600000Y4400000D03*
X65600000Y600000D03*
X21100000Y3300000D03*
X41600000Y-2000000D03*
X44850000Y-1900000D03*
X81900000Y1300000D03*
X31900000Y1300000D03*
X20300000Y3300000D03*
X53587573Y-3081163D03*
X21700000Y2700000D03*
X26600000Y-1150000D03*
X52400000Y4500000D03*
X700000Y-4200000D03*
X19500000Y3300000D03*
X35100000Y1900000D03*
X4700000Y-4700000D03*
X1300000Y-4700000D03*
X10500000Y-3700000D03*
X76200000Y1600000D03*
X36900000Y-3046790D03*
X35100000Y-200000D03*
X27700000Y3450000D03*
X53000000Y2400000D03*
X54800000Y500000D03*
X18800000Y2700000D03*
X19200000Y-4700000D03*
X26600000Y700000D03*
X82603811Y-2994290D03*
X18800000Y1900000D03*
X21700000Y1900000D03*
X10500000Y-4800000D03*
X31900000Y-2000000D03*
X71700000Y400000D03*
X90000000Y2000000D03*
X53000000Y-1200000D03*
X55100000Y3300000D03*
X86200000Y4000165D03*
X5300000Y-4200000D03*
X51200000Y500000D03*
X39900000Y1800000D03*
X59200000Y2600000D03*
X26600000Y-200000D03*
X19200000Y-3700000D03*
X1300000Y-3700000D03*
X83100000Y1900000D03*
X4700000Y-3700000D03*
X18700000Y-4200000D03*
X48550000Y-1650000D03*
X18200000Y-4700000D03*
G04 #@! TO.N,/HEATER_PG*
X28300000Y2400000D03*
G04 #@! TD*
D14*
G04 #@! TO.N,IN*
X91700000Y-2400000D02*
X91700000Y-1692894D01*
X91700000Y-1692894D02*
X91700000Y2400000D01*
D15*
G04 #@! TO.N,+3V3*
X40800000Y4100000D02*
X40800000Y-300000D01*
X51515625Y3800000D02*
X51515625Y3865897D01*
X51515625Y3865897D02*
X51605846Y3956118D01*
X52200001Y-2600001D02*
X52600000Y-3000000D01*
X51605846Y3956118D02*
X52200000Y3361964D01*
X52200000Y3361964D02*
X52200001Y-2600001D01*
X47349728Y-300000D02*
X40800000Y-300000D01*
X51605846Y3956118D02*
X47349728Y-300000D01*
D16*
G04 #@! TO.N,/DISP_RST#*
X58627887Y-1072113D02*
X56409260Y-1072113D01*
X65897663Y-100000D02*
X59600000Y-100000D01*
X59600000Y-100000D02*
X58627887Y-1072113D01*
X66550667Y553004D02*
X65897663Y-100000D01*
X56409260Y-1072113D02*
X54487083Y-2994290D01*
G04 #@! TD*
G04 #@! TA.AperFunction,Conductor*
G04 #@! TO.N,GND*
G36*
X76888366Y5289425D02*
G01*
X76915891Y5261900D01*
X76925966Y5224300D01*
X76915891Y5186700D01*
X76883985Y5159832D01*
X76884895Y5158365D01*
X76878404Y5154340D01*
X76878403Y5154340D01*
X76791572Y5100502D01*
X76724702Y5037267D01*
X76717337Y5030302D01*
X76712135Y5022872D01*
X76658738Y4946613D01*
X76630501Y4881361D01*
X76618162Y4852848D01*
X76597583Y4754340D01*
X76597269Y4752839D01*
X76596913Y4650672D01*
X76609223Y4589620D01*
X76617107Y4550518D01*
X76657026Y4456475D01*
X76662239Y4448919D01*
X76715042Y4372375D01*
X76788783Y4301661D01*
X76809689Y4288496D01*
X76873862Y4248084D01*
X76875237Y4247218D01*
X76970872Y4211271D01*
X77031418Y4201681D01*
X77071780Y4195288D01*
X77071782Y4195288D01*
X77173845Y4199923D01*
X77173849Y4199924D01*
X77272888Y4224984D01*
X77272889Y4224985D01*
X77272891Y4224985D01*
X77364875Y4269452D01*
X77446039Y4331506D01*
X77446043Y4331509D01*
X77513065Y4408610D01*
X77535777Y4448917D01*
X77563221Y4497624D01*
X77587743Y4574000D01*
X92542578Y4574000D01*
X93496001Y4573999D01*
X93496001Y5023200D01*
X94004000Y5023200D01*
X94004000Y4574000D01*
X94955712Y4573999D01*
X94955712Y4574000D01*
X96872578Y4574000D01*
X97676001Y4573999D01*
X97676001Y5023200D01*
X98184000Y5023200D01*
X98184000Y4574000D01*
X98985712Y4573999D01*
X98962103Y4633782D01*
X98900198Y4735796D01*
X98821989Y4825924D01*
X98729714Y4901585D01*
X98626004Y4960620D01*
X98513841Y5001333D01*
X98396414Y5022568D01*
X98383001Y5023200D01*
X98184000Y5023200D01*
X97676001Y5023200D01*
X97500539Y5023200D01*
X97411094Y5015610D01*
X97295598Y4985633D01*
X97186790Y4936619D01*
X97087806Y4869979D01*
X97001464Y4787614D01*
X96930230Y4691872D01*
X96876149Y4585501D01*
X96872578Y4574000D01*
X94955712Y4574000D01*
X94932103Y4633782D01*
X94870198Y4735796D01*
X94791989Y4825924D01*
X94699714Y4901585D01*
X94596004Y4960620D01*
X94483841Y5001333D01*
X94366414Y5022568D01*
X94353001Y5023200D01*
X94004000Y5023200D01*
X93496001Y5023200D01*
X93170539Y5023200D01*
X93081094Y5015610D01*
X92965598Y4985633D01*
X92856790Y4936619D01*
X92757806Y4869979D01*
X92671464Y4787614D01*
X92600230Y4691872D01*
X92546149Y4585501D01*
X92542578Y4574000D01*
X77587743Y4574000D01*
X77594454Y4594901D01*
X77605488Y4696471D01*
X77605500Y4700000D01*
X77600133Y4752841D01*
X77595175Y4801646D01*
X77564623Y4899138D01*
X77515091Y4988496D01*
X77448604Y5066068D01*
X77448603Y5066069D01*
X77367874Y5128688D01*
X77310687Y5156828D01*
X77281400Y5182466D01*
X77268855Y5219316D01*
X77276416Y5257501D01*
X77302056Y5286790D01*
X77343890Y5299500D01*
X99799500Y5299500D01*
X99799501Y-5199500D01*
X85051073Y-5199500D01*
X85013473Y-5189425D01*
X84985948Y-5161900D01*
X84975873Y-5124300D01*
X84985948Y-5086700D01*
X84997899Y-5071126D01*
X85077646Y-4991379D01*
X85083795Y-4984051D01*
X85100057Y-4964671D01*
X85126292Y-4927205D01*
X85126294Y-4927203D01*
X85170048Y-4864716D01*
X85187480Y-4834524D01*
X85239047Y-4723938D01*
X85250970Y-4691177D01*
X85282367Y-4573999D01*
X92544288Y-4573999D01*
X92567897Y-4633782D01*
X92629802Y-4735796D01*
X92708011Y-4825924D01*
X92800286Y-4901585D01*
X92903996Y-4960620D01*
X93016159Y-5001333D01*
X93133586Y-5022568D01*
X93146999Y-5023200D01*
X93496000Y-5023200D01*
X94003999Y-5023200D01*
X94329461Y-5023200D01*
X94418906Y-5015610D01*
X94534402Y-4985633D01*
X94643210Y-4936619D01*
X94742194Y-4869979D01*
X94828536Y-4787614D01*
X94899770Y-4691872D01*
X94953851Y-4585501D01*
X94957422Y-4574000D01*
X94003999Y-4573999D01*
X96874288Y-4573999D01*
X96897897Y-4633782D01*
X96959802Y-4735796D01*
X97038011Y-4825924D01*
X97130286Y-4901585D01*
X97233996Y-4960620D01*
X97346159Y-5001333D01*
X97463586Y-5022568D01*
X97476999Y-5023200D01*
X97676000Y-5023200D01*
X98183999Y-5023200D01*
X98359461Y-5023200D01*
X98448906Y-5015610D01*
X98564402Y-4985633D01*
X98673210Y-4936619D01*
X98772194Y-4869979D01*
X98858536Y-4787614D01*
X98929770Y-4691872D01*
X98983851Y-4585501D01*
X98987422Y-4574000D01*
X98183999Y-4573999D01*
X98183999Y-5023200D01*
X97676000Y-5023200D01*
X97676000Y-4574000D01*
X96874288Y-4573999D01*
X94003999Y-4573999D01*
X94003999Y-5023200D01*
X93496000Y-5023200D01*
X93496000Y-4574000D01*
X92544288Y-4573999D01*
X85282367Y-4573999D01*
X85282550Y-4573317D01*
X85288604Y-4538986D01*
X85299239Y-4417432D01*
X85299239Y-4382568D01*
X85288604Y-4261014D01*
X85282550Y-4226683D01*
X85250970Y-4108823D01*
X85239047Y-4076062D01*
X85234356Y-4066000D01*
X92542578Y-4066000D01*
X93496001Y-4066001D01*
X93496001Y-3616800D01*
X94004000Y-3616800D01*
X94004000Y-4066000D01*
X94955712Y-4066001D01*
X94955712Y-4066000D01*
X96872578Y-4066000D01*
X97676001Y-4066001D01*
X97676001Y-3616800D01*
X98184000Y-3616800D01*
X98184000Y-4066000D01*
X98985712Y-4066001D01*
X98962103Y-4006218D01*
X98900198Y-3904204D01*
X98821989Y-3814076D01*
X98729714Y-3738415D01*
X98626004Y-3679380D01*
X98513841Y-3638667D01*
X98396414Y-3617432D01*
X98383001Y-3616800D01*
X98184000Y-3616800D01*
X97676001Y-3616800D01*
X97500539Y-3616800D01*
X97411094Y-3624390D01*
X97295598Y-3654367D01*
X97186790Y-3703381D01*
X97087806Y-3770021D01*
X97001464Y-3852386D01*
X96930230Y-3948128D01*
X96876149Y-4054499D01*
X96872578Y-4066000D01*
X94955712Y-4066000D01*
X94932103Y-4006218D01*
X94870198Y-3904204D01*
X94791989Y-3814076D01*
X94699714Y-3738415D01*
X94596004Y-3679380D01*
X94483841Y-3638667D01*
X94366414Y-3617432D01*
X94353001Y-3616800D01*
X94004000Y-3616800D01*
X93496001Y-3616800D01*
X93170539Y-3616800D01*
X93081094Y-3624390D01*
X92965598Y-3654367D01*
X92856790Y-3703381D01*
X92757806Y-3770021D01*
X92671464Y-3852386D01*
X92600230Y-3948128D01*
X92546149Y-4054499D01*
X92542578Y-4066000D01*
X85234356Y-4066000D01*
X85187480Y-3965476D01*
X85170048Y-3935284D01*
X85148286Y-3904204D01*
X85126295Y-3872798D01*
X85126292Y-3872795D01*
X85100057Y-3835329D01*
X85077650Y-3808626D01*
X85077646Y-3808621D01*
X84991379Y-3722354D01*
X84968768Y-3703381D01*
X84964671Y-3699943D01*
X84927205Y-3673708D01*
X84927202Y-3673705D01*
X84864720Y-3629954D01*
X84843030Y-3617432D01*
X84834524Y-3612521D01*
X84834518Y-3612518D01*
X84723947Y-3560957D01*
X84723939Y-3560954D01*
X84691177Y-3549029D01*
X84612602Y-3527976D01*
X84573316Y-3517449D01*
X84561872Y-3515431D01*
X84538985Y-3511396D01*
X84417430Y-3500761D01*
X84417425Y-3500761D01*
X84417416Y-3500760D01*
X84400009Y-3500000D01*
X80008360Y-3500000D01*
X79970760Y-3489925D01*
X79943235Y-3462400D01*
X79933160Y-3424800D01*
X79951606Y-3375465D01*
X79984017Y-3338180D01*
X79985118Y-3336227D01*
X80034173Y-3249166D01*
X80065406Y-3151889D01*
X80076440Y-3050319D01*
X80076452Y-3046790D01*
X80075542Y-3037823D01*
X80066127Y-2945144D01*
X80035575Y-2847652D01*
X79986043Y-2758294D01*
X79919556Y-2680722D01*
X79919555Y-2680721D01*
X79838826Y-2618102D01*
X79747155Y-2572994D01*
X79648286Y-2547241D01*
X79546258Y-2541893D01*
X79546256Y-2541893D01*
X79445243Y-2557170D01*
X79445241Y-2557171D01*
X79445239Y-2557171D01*
X79349355Y-2592450D01*
X79349354Y-2592451D01*
X79349353Y-2592451D01*
X79318624Y-2611504D01*
X79262524Y-2646288D01*
X79199294Y-2706081D01*
X79188289Y-2716488D01*
X79162877Y-2752781D01*
X79129690Y-2800177D01*
X79099307Y-2870387D01*
X79089114Y-2893942D01*
X79068224Y-2993938D01*
X79068221Y-2993951D01*
X79067865Y-3096118D01*
X79079804Y-3155329D01*
X79088059Y-3196272D01*
X79127978Y-3290315D01*
X79136298Y-3302376D01*
X79185994Y-3374415D01*
X79185997Y-3374417D01*
X79190332Y-3380702D01*
X79188758Y-3381788D01*
X79202100Y-3403813D01*
X79202919Y-3442731D01*
X79184169Y-3476844D01*
X79150875Y-3497012D01*
X79129888Y-3500000D01*
X56188737Y-3500000D01*
X56151137Y-3489925D01*
X56123612Y-3462400D01*
X56113537Y-3424800D01*
X56123612Y-3387200D01*
X56143064Y-3365059D01*
X56146041Y-3362783D01*
X56213065Y-3285680D01*
X56217605Y-3277624D01*
X56263221Y-3196666D01*
X56294454Y-3099389D01*
X56305488Y-2997819D01*
X56305500Y-2994290D01*
X56305466Y-2993949D01*
X56295175Y-2892644D01*
X56264623Y-2795152D01*
X56215091Y-2705794D01*
X56148604Y-2628222D01*
X56148603Y-2628221D01*
X56067874Y-2565602D01*
X55976203Y-2520494D01*
X55877334Y-2494741D01*
X55775306Y-2489393D01*
X55775304Y-2489393D01*
X55674289Y-2504670D01*
X55624384Y-2523032D01*
X55585618Y-2526560D01*
X55550282Y-2510232D01*
X55527843Y-2478423D01*
X55524315Y-2439657D01*
X55545244Y-2399283D01*
X55773215Y-2171313D01*
X56240105Y-1704423D01*
X56273816Y-1684959D01*
X56312742Y-1684959D01*
X56346453Y-1704423D01*
X56365917Y-1738134D01*
X56366890Y-1772974D01*
X56364840Y-1782786D01*
X56364484Y-1884953D01*
X56377464Y-1949328D01*
X56384678Y-1985107D01*
X56424597Y-2079150D01*
X56438634Y-2099498D01*
X56482613Y-2163250D01*
X56556354Y-2233964D01*
X56642808Y-2288407D01*
X56738443Y-2324354D01*
X56798908Y-2333931D01*
X56839351Y-2340337D01*
X56839353Y-2340337D01*
X56941416Y-2335702D01*
X56986264Y-2324354D01*
X57040459Y-2310641D01*
X57040460Y-2310640D01*
X57040462Y-2310640D01*
X57132446Y-2266173D01*
X57213610Y-2204119D01*
X57213614Y-2204116D01*
X57280636Y-2127015D01*
X57281093Y-2126205D01*
X57319365Y-2058281D01*
X57346601Y-2030469D01*
X57384093Y-2020000D01*
X57421796Y-2029680D01*
X57445952Y-2056696D01*
X57447973Y-2055302D01*
X57452311Y-2061590D01*
X57510326Y-2145689D01*
X57584067Y-2216403D01*
X57634574Y-2248209D01*
X57668695Y-2269696D01*
X57670521Y-2270846D01*
X57766156Y-2306793D01*
X57811873Y-2314034D01*
X57867064Y-2322776D01*
X57867066Y-2322776D01*
X57969129Y-2318141D01*
X57969130Y-2318141D01*
X58059557Y-2314034D01*
X58056773Y-2327360D01*
X58056772Y-2327362D01*
X58046075Y-2378564D01*
X58036123Y-2426205D01*
X58035879Y-2427371D01*
X58035523Y-2529538D01*
X58048114Y-2591984D01*
X58055717Y-2629692D01*
X58095636Y-2723735D01*
X58113291Y-2749328D01*
X58153652Y-2807835D01*
X58227393Y-2878549D01*
X58269276Y-2904924D01*
X58310176Y-2930680D01*
X58313847Y-2932992D01*
X58409482Y-2968939D01*
X58470028Y-2978529D01*
X58510390Y-2984922D01*
X58510392Y-2984922D01*
X58612455Y-2980287D01*
X58657303Y-2968939D01*
X58711498Y-2955226D01*
X58711499Y-2955225D01*
X58711501Y-2955225D01*
X58803485Y-2910758D01*
X58884649Y-2848704D01*
X58884650Y-2848703D01*
X58884653Y-2848701D01*
X58951675Y-2771600D01*
X58956891Y-2762344D01*
X59001831Y-2682586D01*
X59033064Y-2585309D01*
X59044098Y-2483739D01*
X59044110Y-2480210D01*
X59043929Y-2478423D01*
X59033785Y-2378564D01*
X59003233Y-2281072D01*
X58953701Y-2191714D01*
X58887214Y-2114142D01*
X58887213Y-2114141D01*
X58806484Y-2051522D01*
X58714813Y-2006414D01*
X58615944Y-1980661D01*
X58513916Y-1975313D01*
X58513914Y-1975313D01*
X58493500Y-1978401D01*
X58412897Y-1990591D01*
X58412891Y-1990593D01*
X58381904Y-1995280D01*
X58393889Y-1884953D01*
X58400772Y-1821593D01*
X58400784Y-1818064D01*
X58400004Y-1810380D01*
X58390459Y-1716418D01*
X58359907Y-1618926D01*
X58310375Y-1529568D01*
X58305389Y-1523751D01*
X58288569Y-1488646D01*
X58291556Y-1449835D01*
X58313548Y-1417716D01*
X58362486Y-1399613D01*
X58592202Y-1399613D01*
X58596831Y-1400648D01*
X58596832Y-1400648D01*
X58605066Y-1400389D01*
X58629773Y-1399613D01*
X58647679Y-1399613D01*
X58653606Y-1398864D01*
X58679510Y-1398050D01*
X58694486Y-1393700D01*
X58709956Y-1391745D01*
X58734051Y-1382205D01*
X58758941Y-1374973D01*
X58758944Y-1374971D01*
X58758945Y-1374971D01*
X58772362Y-1367037D01*
X58786866Y-1361294D01*
X58807843Y-1346054D01*
X58808021Y-1345949D01*
X58830145Y-1332865D01*
X58831364Y-1331790D01*
X58841695Y-1321459D01*
X58853788Y-1312673D01*
X58869625Y-1293529D01*
X59735655Y-427500D01*
X61751374Y-427500D01*
X61788974Y-437575D01*
X61816499Y-465100D01*
X61826574Y-502700D01*
X61810430Y-549255D01*
X61807651Y-552781D01*
X61794282Y-569740D01*
X61750731Y-652517D01*
X61742901Y-667399D01*
X61710177Y-772784D01*
X61697207Y-882373D01*
X61699116Y-911504D01*
X61704424Y-992487D01*
X61731587Y-1099443D01*
X61777787Y-1199657D01*
X61841475Y-1289774D01*
X61920520Y-1366776D01*
X61920523Y-1366778D01*
X62012271Y-1428083D01*
X62012272Y-1428084D01*
X62012273Y-1428084D01*
X62016563Y-1429927D01*
X62113662Y-1471644D01*
X62140095Y-1477625D01*
X62221293Y-1495998D01*
X62258048Y-1497442D01*
X62331557Y-1500331D01*
X62331559Y-1500331D01*
X62440768Y-1484496D01*
X62536513Y-1451995D01*
X62545260Y-1449026D01*
X62551269Y-1445661D01*
X62641543Y-1395105D01*
X62726385Y-1324542D01*
X62796948Y-1239700D01*
X62850868Y-1143419D01*
X62886339Y-1038925D01*
X62902174Y-929716D01*
X62903000Y-898157D01*
X62901550Y-882373D01*
X70897207Y-882373D01*
X70899116Y-911504D01*
X70904424Y-992487D01*
X70931587Y-1099443D01*
X70977787Y-1199657D01*
X71041475Y-1289774D01*
X71120520Y-1366776D01*
X71120523Y-1366778D01*
X71212271Y-1428083D01*
X71212272Y-1428084D01*
X71212273Y-1428084D01*
X71216563Y-1429927D01*
X71313662Y-1471644D01*
X71340095Y-1477625D01*
X71421293Y-1495998D01*
X71458048Y-1497442D01*
X71531557Y-1500331D01*
X71531559Y-1500331D01*
X71640768Y-1484496D01*
X71736513Y-1451995D01*
X71745260Y-1449026D01*
X71751269Y-1445661D01*
X71841543Y-1395105D01*
X71926385Y-1324542D01*
X71996948Y-1239700D01*
X72050868Y-1143419D01*
X72086339Y-1038925D01*
X72102174Y-929716D01*
X72103000Y-898157D01*
X72092903Y-788269D01*
X72062949Y-682061D01*
X72014142Y-583090D01*
X71948116Y-494671D01*
X71867083Y-419765D01*
X71773756Y-360880D01*
X71671261Y-319989D01*
X71671260Y-319989D01*
X71671258Y-319988D01*
X71608034Y-307412D01*
X71563031Y-298460D01*
X71452689Y-297016D01*
X71452688Y-297016D01*
X71343931Y-315704D01*
X71283409Y-338032D01*
X71240402Y-353898D01*
X71240401Y-353899D01*
X71240400Y-353899D01*
X71145566Y-410319D01*
X71105438Y-445510D01*
X71062599Y-483079D01*
X70994282Y-569740D01*
X70994281Y-569742D01*
X70942901Y-667399D01*
X70910177Y-772784D01*
X70897207Y-882373D01*
X62901550Y-882373D01*
X62892903Y-788269D01*
X62862949Y-682061D01*
X62814142Y-583090D01*
X62791510Y-552782D01*
X62787711Y-547694D01*
X62773286Y-511539D01*
X62778872Y-473015D01*
X62802971Y-442446D01*
X62847965Y-427500D01*
X65861978Y-427500D01*
X65866607Y-428535D01*
X65866608Y-428535D01*
X65874843Y-428276D01*
X65899549Y-427500D01*
X65917455Y-427500D01*
X65923382Y-426751D01*
X65949286Y-425937D01*
X65964262Y-421587D01*
X65979732Y-419632D01*
X66003827Y-410092D01*
X66028717Y-402860D01*
X66028720Y-402858D01*
X66028721Y-402858D01*
X66042138Y-394924D01*
X66056642Y-389181D01*
X66077619Y-373941D01*
X66096588Y-362723D01*
X66099921Y-360752D01*
X66101140Y-359677D01*
X66111471Y-349346D01*
X66123564Y-340560D01*
X66139401Y-321416D01*
X66411489Y-49328D01*
X72796913Y-49328D01*
X72810502Y-116721D01*
X72817107Y-149482D01*
X72857026Y-243525D01*
X72875020Y-269609D01*
X72915042Y-327625D01*
X72988783Y-398339D01*
X73050009Y-436895D01*
X73066297Y-447152D01*
X73075237Y-452782D01*
X73160986Y-485013D01*
X73226810Y-509755D01*
X73142901Y-669242D01*
X73110177Y-774627D01*
X73097207Y-884216D01*
X73101803Y-954338D01*
X73104424Y-994330D01*
X73131587Y-1101286D01*
X73177787Y-1201500D01*
X73241475Y-1291617D01*
X73320520Y-1368619D01*
X73320523Y-1368621D01*
X73412271Y-1429926D01*
X73513662Y-1473487D01*
X73531950Y-1477625D01*
X73621293Y-1497841D01*
X73658048Y-1499285D01*
X73731557Y-1502174D01*
X73731559Y-1502174D01*
X73840768Y-1486339D01*
X73893015Y-1468603D01*
X73945260Y-1450869D01*
X73945262Y-1450868D01*
X74041543Y-1396948D01*
X74126385Y-1326385D01*
X74196948Y-1241543D01*
X74250868Y-1145262D01*
X74251495Y-1143417D01*
X74283659Y-1048662D01*
X74286339Y-1040768D01*
X74302174Y-931559D01*
X74302699Y-911504D01*
X74303000Y-900006D01*
X74303000Y-900000D01*
X74292903Y-790112D01*
X74262949Y-683904D01*
X74214142Y-584933D01*
X74154526Y-505098D01*
X74148117Y-496515D01*
X74067084Y-421609D01*
X74067083Y-421608D01*
X73973756Y-362723D01*
X73871261Y-321832D01*
X73871260Y-321832D01*
X73871258Y-321831D01*
X73713593Y-290469D01*
X73763220Y-202379D01*
X73775943Y-162753D01*
X73794454Y-105099D01*
X73800512Y-49328D01*
X81296913Y-49328D01*
X81310502Y-116721D01*
X81317107Y-149482D01*
X81357026Y-243525D01*
X81375020Y-269609D01*
X81415042Y-327625D01*
X81488783Y-398339D01*
X81575237Y-452782D01*
X81670872Y-488729D01*
X81670873Y-488729D01*
X81695216Y-497879D01*
X81594282Y-625914D01*
X81542901Y-723574D01*
X81510177Y-828959D01*
X81497207Y-938548D01*
X81503907Y-1040768D01*
X81504424Y-1048662D01*
X81531587Y-1155618D01*
X81577787Y-1255832D01*
X81641475Y-1345949D01*
X81720520Y-1422951D01*
X81720523Y-1422953D01*
X81812271Y-1484258D01*
X81812272Y-1484259D01*
X81812273Y-1484259D01*
X81820422Y-1487760D01*
X81913662Y-1527819D01*
X81967478Y-1539996D01*
X82021293Y-1552173D01*
X82058048Y-1553617D01*
X82131557Y-1556506D01*
X82131559Y-1556506D01*
X82240768Y-1540671D01*
X82307714Y-1517946D01*
X82345260Y-1505201D01*
X82353956Y-1500331D01*
X82441543Y-1451280D01*
X82526385Y-1380717D01*
X82596948Y-1295875D01*
X82622032Y-1251083D01*
X84699364Y-1251083D01*
X84707869Y-1295875D01*
X84718958Y-1354282D01*
X84748984Y-1429927D01*
X84757712Y-1451916D01*
X84814230Y-1540461D01*
X84886471Y-1616721D01*
X84971832Y-1677946D01*
X85067221Y-1721920D01*
X85067222Y-1721920D01*
X85067226Y-1721922D01*
X85169216Y-1747068D01*
X85169217Y-1747068D01*
X85169221Y-1747069D01*
X85274121Y-1752475D01*
X85378154Y-1737946D01*
X85389771Y-1733980D01*
X85477567Y-1704006D01*
X85479543Y-1702877D01*
X85568767Y-1651881D01*
X85590473Y-1633244D01*
X90499500Y-1633244D01*
X90499500Y-2439197D01*
X90506750Y-2552854D01*
X90535846Y-2703241D01*
X90583466Y-2847652D01*
X90583813Y-2848703D01*
X90649875Y-2986894D01*
X90732960Y-3115571D01*
X90754215Y-3140768D01*
X90810306Y-3207260D01*
X90831722Y-3232648D01*
X90944560Y-3336227D01*
X91069645Y-3424628D01*
X91069648Y-3424630D01*
X91069650Y-3424631D01*
X91204941Y-3496415D01*
X91204946Y-3496417D01*
X91204948Y-3496418D01*
X91348277Y-3550435D01*
X91441020Y-3572444D01*
X91497310Y-3585802D01*
X91649624Y-3601945D01*
X91802758Y-3598603D01*
X91903734Y-3583422D01*
X91954223Y-3575831D01*
X92043674Y-3550435D01*
X92101567Y-3533999D01*
X92242406Y-3473781D01*
X92374447Y-3396158D01*
X92449327Y-3338180D01*
X92495558Y-3302384D01*
X92603771Y-3193982D01*
X92607824Y-3188729D01*
X92697333Y-3072708D01*
X92774727Y-2940530D01*
X92799361Y-2882635D01*
X93722551Y-2882635D01*
X93731166Y-2985224D01*
X93755171Y-3068940D01*
X93759544Y-3084189D01*
X93806599Y-3175750D01*
X93870548Y-3256433D01*
X93924542Y-3302384D01*
X93948949Y-3323156D01*
X94016962Y-3361167D01*
X94038818Y-3373382D01*
X94136726Y-3405195D01*
X94170802Y-3409258D01*
X94238953Y-3417384D01*
X94238955Y-3417384D01*
X94341596Y-3409487D01*
X94389335Y-3396158D01*
X94440757Y-3381801D01*
X94473901Y-3365059D01*
X94532648Y-3335384D01*
X94613774Y-3272001D01*
X94681044Y-3194068D01*
X94731896Y-3104553D01*
X94764391Y-3006868D01*
X94777294Y-2904733D01*
X94777383Y-2898339D01*
X94777500Y-2890000D01*
X94767454Y-2787541D01*
X94765276Y-2780327D01*
X94737699Y-2688987D01*
X94735544Y-2684933D01*
X94696854Y-2612168D01*
X94689365Y-2598084D01*
X94624301Y-2518306D01*
X94544976Y-2452684D01*
X94534761Y-2447161D01*
X94454414Y-2403717D01*
X94356069Y-2373274D01*
X94322026Y-2369696D01*
X94253686Y-2362513D01*
X94253683Y-2362513D01*
X94151156Y-2371843D01*
X94101775Y-2386377D01*
X94054461Y-2400303D01*
X94052395Y-2400911D01*
X93961160Y-2448607D01*
X93910433Y-2489393D01*
X93891433Y-2504670D01*
X93880928Y-2513116D01*
X93814753Y-2591980D01*
X93765156Y-2682196D01*
X93734027Y-2780327D01*
X93722551Y-2882635D01*
X92799361Y-2882635D01*
X92834696Y-2799595D01*
X92876273Y-2652172D01*
X92898782Y-2500660D01*
X92900500Y-2459644D01*
X92900500Y2439198D01*
X92893250Y2552855D01*
X92864154Y2703242D01*
X92833117Y2797365D01*
X93722551Y2797365D01*
X93731166Y2694776D01*
X93752690Y2619714D01*
X93759544Y2595811D01*
X93806599Y2504250D01*
X93870548Y2423567D01*
X93933126Y2370310D01*
X93948949Y2356844D01*
X94026726Y2313376D01*
X94038818Y2306618D01*
X94137482Y2274559D01*
X94170128Y2253358D01*
X94187800Y2218674D01*
X94185762Y2179801D01*
X94153871Y2139129D01*
X94091572Y2100502D01*
X94032642Y2044775D01*
X94017337Y2030302D01*
X93990818Y1992428D01*
X93958738Y1946613D01*
X93923883Y1866069D01*
X93918162Y1852848D01*
X93897271Y1752848D01*
X93897269Y1752839D01*
X93896913Y1650672D01*
X93909538Y1588058D01*
X93917107Y1550518D01*
X93957026Y1456475D01*
X93962965Y1447866D01*
X94015042Y1372375D01*
X94088783Y1301661D01*
X94139930Y1269452D01*
X94170494Y1250205D01*
X94175237Y1247218D01*
X94270872Y1211271D01*
X94331418Y1201681D01*
X94371780Y1195288D01*
X94371782Y1195288D01*
X94473845Y1199923D01*
X94480714Y1201661D01*
X94572888Y1224984D01*
X94572889Y1224985D01*
X94572891Y1224985D01*
X94664875Y1269452D01*
X94746039Y1331506D01*
X94746043Y1331509D01*
X94813065Y1408610D01*
X94823328Y1426823D01*
X94863221Y1497624D01*
X94894454Y1594901D01*
X94905488Y1696471D01*
X94905500Y1700000D01*
X94901998Y1734481D01*
X94895175Y1801646D01*
X94864623Y1899138D01*
X94815091Y1988496D01*
X94748604Y2066068D01*
X94747391Y2067009D01*
X94667874Y2128688D01*
X94576203Y2173796D01*
X94516934Y2189234D01*
X94483089Y2208460D01*
X94463391Y2242035D01*
X94463119Y2280960D01*
X94482346Y2314807D01*
X94501985Y2329127D01*
X94532648Y2344616D01*
X94613774Y2407999D01*
X94681044Y2485932D01*
X94731896Y2575447D01*
X94764391Y2673132D01*
X94777294Y2775267D01*
X94777397Y2782643D01*
X94777500Y2790000D01*
X94767454Y2892459D01*
X94756063Y2930189D01*
X94737699Y2991013D01*
X94736332Y2993585D01*
X94702892Y3056475D01*
X94689365Y3081916D01*
X94624301Y3161694D01*
X94544976Y3227316D01*
X94535116Y3232647D01*
X94454414Y3276283D01*
X94356069Y3306726D01*
X94330472Y3309416D01*
X94253686Y3317487D01*
X94253683Y3317487D01*
X94151156Y3308157D01*
X94123442Y3300000D01*
X94064416Y3282627D01*
X94052395Y3279089D01*
X93961160Y3231393D01*
X93900733Y3182808D01*
X93883958Y3169320D01*
X93880928Y3166884D01*
X93814753Y3088020D01*
X93765156Y2997804D01*
X93734027Y2899673D01*
X93722551Y2797365D01*
X92833117Y2797365D01*
X92816188Y2848702D01*
X92803012Y2876264D01*
X92750125Y2986895D01*
X92741987Y2999498D01*
X92667042Y3115571D01*
X92568280Y3232647D01*
X92455440Y3336227D01*
X92401805Y3374132D01*
X92330355Y3424628D01*
X92330352Y3424630D01*
X92330350Y3424631D01*
X92195059Y3496415D01*
X92195054Y3496417D01*
X92195052Y3496418D01*
X92051723Y3550435D01*
X91944706Y3575831D01*
X91902690Y3585802D01*
X91750376Y3601945D01*
X91597242Y3598603D01*
X91512092Y3585801D01*
X91445777Y3575831D01*
X91397255Y3562055D01*
X91298433Y3533999D01*
X91157594Y3473781D01*
X91079030Y3427595D01*
X91025552Y3396157D01*
X90904443Y3302384D01*
X90904442Y3302383D01*
X90796229Y3193981D01*
X90702668Y3072708D01*
X90625274Y2940530D01*
X90565305Y2799595D01*
X90523728Y2652172D01*
X90501219Y2500660D01*
X90499501Y2459651D01*
X90499500Y-1633244D01*
X85590473Y-1633244D01*
X85648464Y-1583453D01*
X85713787Y-1501184D01*
X85762369Y-1408054D01*
X85762467Y-1407728D01*
X85778451Y-1354281D01*
X85792468Y-1307414D01*
X85802992Y-1202895D01*
X85803000Y-1199997D01*
X85793024Y-1095431D01*
X85773989Y-1030548D01*
X85763453Y-994634D01*
X85738152Y-945509D01*
X85715356Y-901248D01*
X85658574Y-828961D01*
X85650467Y-818640D01*
X85571129Y-749794D01*
X85487669Y-701511D01*
X85480205Y-697193D01*
X85480204Y-697193D01*
X85480203Y-697192D01*
X85380971Y-662733D01*
X85277014Y-647660D01*
X85180610Y-652122D01*
X85172080Y-652517D01*
X85107228Y-668147D01*
X85069961Y-677128D01*
X85069960Y-677129D01*
X85069958Y-677129D01*
X84974336Y-720605D01*
X84939015Y-745661D01*
X84888658Y-781382D01*
X84816019Y-857262D01*
X84759038Y-945510D01*
X84719773Y-1042940D01*
X84718656Y-1048662D01*
X84699639Y-1146036D01*
X84699364Y-1251083D01*
X82622032Y-1251083D01*
X82650868Y-1199594D01*
X82650959Y-1199328D01*
X82669938Y-1143417D01*
X82686339Y-1095100D01*
X82702174Y-985891D01*
X82703000Y-954332D01*
X82692903Y-844444D01*
X82662949Y-738236D01*
X82614142Y-639265D01*
X82573569Y-584932D01*
X82548117Y-550847D01*
X82491314Y-498339D01*
X82467083Y-475940D01*
X82373756Y-417055D01*
X82271261Y-376164D01*
X82271246Y-376158D01*
X82175996Y-357180D01*
X82263221Y-202376D01*
X82280253Y-149328D01*
X84096913Y-149328D01*
X84111006Y-219221D01*
X84117107Y-249482D01*
X84157026Y-343525D01*
X84175020Y-369609D01*
X84215042Y-427625D01*
X84288783Y-498339D01*
X84339930Y-530548D01*
X84373862Y-551916D01*
X84375237Y-552782D01*
X84470872Y-588729D01*
X84531418Y-598319D01*
X84571780Y-604712D01*
X84571782Y-604712D01*
X84673845Y-600077D01*
X84697680Y-594046D01*
X84772888Y-575016D01*
X84772889Y-575015D01*
X84772891Y-575015D01*
X84864875Y-530548D01*
X84946039Y-468494D01*
X84946043Y-468491D01*
X85013065Y-391390D01*
X85021645Y-376164D01*
X85063221Y-302376D01*
X85094454Y-205099D01*
X85100512Y-149328D01*
X87296913Y-149328D01*
X87311006Y-219221D01*
X87317107Y-249482D01*
X87357026Y-343525D01*
X87375020Y-369609D01*
X87415042Y-427625D01*
X87488783Y-498339D01*
X87539930Y-530548D01*
X87573862Y-551916D01*
X87575237Y-552782D01*
X87670872Y-588729D01*
X87731418Y-598319D01*
X87771780Y-604712D01*
X87771782Y-604712D01*
X87873845Y-600077D01*
X87897680Y-594046D01*
X87972888Y-575016D01*
X87972889Y-575015D01*
X87972891Y-575015D01*
X88064875Y-530548D01*
X88146039Y-468494D01*
X88146043Y-468491D01*
X88213065Y-391390D01*
X88221645Y-376164D01*
X88263221Y-302376D01*
X88294454Y-205099D01*
X88305488Y-103529D01*
X88305500Y-100000D01*
X88300133Y-47159D01*
X88295175Y1646D01*
X88264623Y99138D01*
X88215091Y188496D01*
X88148604Y266068D01*
X88119690Y288496D01*
X88067874Y328688D01*
X87976203Y373796D01*
X87877334Y399549D01*
X87775306Y404897D01*
X87775304Y404897D01*
X87674291Y389620D01*
X87674289Y389619D01*
X87674287Y389619D01*
X87578403Y354340D01*
X87578402Y354339D01*
X87578401Y354339D01*
X87539637Y330304D01*
X87491572Y300502D01*
X87417339Y230304D01*
X87417337Y230302D01*
X87388545Y189182D01*
X87358738Y146613D01*
X87329042Y77989D01*
X87318162Y52848D01*
X87298669Y-40461D01*
X87297269Y-47161D01*
X87296913Y-149328D01*
X85100512Y-149328D01*
X85105488Y-103529D01*
X85105500Y-100000D01*
X85100133Y-47159D01*
X85095175Y1646D01*
X85064623Y99138D01*
X85015091Y188496D01*
X84948604Y266068D01*
X84919690Y288496D01*
X84867874Y328688D01*
X84776203Y373796D01*
X84677334Y399549D01*
X84575306Y404897D01*
X84575304Y404897D01*
X84474291Y389620D01*
X84474289Y389619D01*
X84474287Y389619D01*
X84378403Y354340D01*
X84378402Y354339D01*
X84378401Y354339D01*
X84339637Y330304D01*
X84291572Y300502D01*
X84217339Y230304D01*
X84217337Y230302D01*
X84188545Y189182D01*
X84158738Y146613D01*
X84129042Y77989D01*
X84118162Y52848D01*
X84098669Y-40461D01*
X84097269Y-47161D01*
X84096913Y-149328D01*
X82280253Y-149328D01*
X82281233Y-146276D01*
X82294454Y-105099D01*
X82305488Y-3529D01*
X82305500Y0D01*
X82305486Y143D01*
X82295175Y101646D01*
X82264623Y199138D01*
X82215091Y288496D01*
X82148604Y366068D01*
X82148603Y366069D01*
X82067874Y428688D01*
X81976203Y473796D01*
X81877334Y499549D01*
X81775306Y504897D01*
X81775304Y504897D01*
X81674291Y489620D01*
X81674289Y489619D01*
X81674287Y489619D01*
X81578403Y454340D01*
X81578402Y454339D01*
X81578401Y454339D01*
X81537031Y428688D01*
X81491572Y400502D01*
X81436178Y348119D01*
X81417337Y330302D01*
X81378272Y274510D01*
X81358738Y246613D01*
X81330550Y181475D01*
X81318162Y152848D01*
X81297271Y52848D01*
X81297269Y52839D01*
X81296913Y-49328D01*
X73800512Y-49328D01*
X73805488Y-3529D01*
X73805500Y0D01*
X73805486Y143D01*
X73795175Y101646D01*
X73764623Y199138D01*
X73715091Y288496D01*
X73648604Y366068D01*
X73648603Y366069D01*
X73567874Y428688D01*
X73476203Y473796D01*
X73377334Y499549D01*
X73275306Y504897D01*
X73275304Y504897D01*
X73174291Y489620D01*
X73174289Y489619D01*
X73174287Y489619D01*
X73078403Y454340D01*
X73078402Y454339D01*
X73078401Y454339D01*
X73037031Y428688D01*
X72991572Y400502D01*
X72936178Y348119D01*
X72917337Y330302D01*
X72878272Y274510D01*
X72858738Y246613D01*
X72830550Y181475D01*
X72818162Y152848D01*
X72797271Y52848D01*
X72797269Y52839D01*
X72796913Y-49328D01*
X66411489Y-49328D01*
X66508475Y47657D01*
X66546378Y49379D01*
X66624512Y52927D01*
X66624516Y52928D01*
X66723555Y77988D01*
X66723556Y77989D01*
X66723558Y77989D01*
X66815542Y122456D01*
X66896706Y184510D01*
X66896710Y184513D01*
X66963732Y261614D01*
X66966243Y266069D01*
X67013888Y350628D01*
X67045121Y447905D01*
X67056155Y549475D01*
X67056167Y553004D01*
X67055729Y557321D01*
X67045842Y654650D01*
X67015290Y752142D01*
X66965758Y841500D01*
X66899271Y919072D01*
X66899270Y919073D01*
X66818541Y981692D01*
X66726870Y1026800D01*
X66628001Y1052553D01*
X66525973Y1057901D01*
X66525971Y1057901D01*
X66424958Y1042624D01*
X66424956Y1042623D01*
X66424954Y1042623D01*
X66329070Y1007344D01*
X66329069Y1007343D01*
X66329068Y1007343D01*
X66317103Y999924D01*
X66242239Y953506D01*
X66190489Y904569D01*
X66168004Y883306D01*
X66146322Y852340D01*
X66109405Y799617D01*
X66068829Y705852D01*
X66047936Y605844D01*
X66047612Y513103D01*
X65762009Y227500D01*
X59635682Y227500D01*
X59631056Y228534D01*
X59631055Y228534D01*
X59620082Y228189D01*
X59598134Y227500D01*
X59580211Y227500D01*
X59574280Y226751D01*
X59557010Y226208D01*
X59548373Y225937D01*
X59533397Y221586D01*
X59521799Y220120D01*
X59517932Y219632D01*
X59493829Y210089D01*
X59468941Y202858D01*
X59455522Y194922D01*
X59451804Y193450D01*
X59441022Y189182D01*
X59441020Y189181D01*
X59441021Y189181D01*
X59420049Y173944D01*
X59406857Y166143D01*
X59397741Y160752D01*
X59396515Y159671D01*
X59386189Y149344D01*
X59374100Y140561D01*
X59374099Y140560D01*
X59358266Y121421D01*
X58492233Y-744613D01*
X56444945Y-744613D01*
X56440316Y-743578D01*
X56440315Y-743578D01*
X56432080Y-743837D01*
X56407374Y-744613D01*
X56389468Y-744613D01*
X56383541Y-745362D01*
X56357635Y-746176D01*
X56342662Y-750527D01*
X56327193Y-752480D01*
X56303088Y-762023D01*
X56278202Y-769254D01*
X56264781Y-777191D01*
X56250283Y-782931D01*
X56250282Y-782931D01*
X56250281Y-782932D01*
X56229309Y-798169D01*
X56207000Y-811362D01*
X56205782Y-812436D01*
X56195449Y-822769D01*
X56183360Y-831552D01*
X56183359Y-831553D01*
X56167526Y-850692D01*
X54525518Y-2492701D01*
X54465247Y-2489543D01*
X54462389Y-2489393D01*
X54462388Y-2489393D01*
X54361374Y-2504670D01*
X54361372Y-2504671D01*
X54361370Y-2504671D01*
X54265486Y-2539950D01*
X54265485Y-2539951D01*
X54265484Y-2539951D01*
X54226015Y-2564423D01*
X54178655Y-2593788D01*
X54115630Y-2653387D01*
X54104420Y-2663988D01*
X54074947Y-2706081D01*
X54045821Y-2747677D01*
X54012758Y-2824081D01*
X54005245Y-2841442D01*
X53985356Y-2936646D01*
X53984352Y-2941451D01*
X53983996Y-3043618D01*
X53995844Y-3102376D01*
X54004190Y-3143772D01*
X54044109Y-3237815D01*
X54056952Y-3256432D01*
X54102125Y-3321915D01*
X54152817Y-3370526D01*
X54172980Y-3403819D01*
X54173795Y-3442737D01*
X54155043Y-3476849D01*
X54121747Y-3497014D01*
X54100766Y-3500000D01*
X53125512Y-3500000D01*
X53087912Y-3489925D01*
X53060387Y-3462400D01*
X53050312Y-3424800D01*
X53067696Y-3376714D01*
X53070468Y-3373382D01*
X53087601Y-3352782D01*
X53096946Y-3341546D01*
X53100398Y-3335383D01*
X53150868Y-3245262D01*
X53152183Y-3241390D01*
X53182261Y-3152781D01*
X53186339Y-3140768D01*
X53202174Y-3031559D01*
X53203000Y-3000000D01*
X53192903Y-2890112D01*
X53162949Y-2783904D01*
X53114142Y-2684933D01*
X53068480Y-2623784D01*
X53048117Y-2596515D01*
X53043721Y-2592451D01*
X52967083Y-2521608D01*
X52873756Y-2462723D01*
X52771261Y-2421832D01*
X52771260Y-2421832D01*
X52771258Y-2421831D01*
X52713690Y-2410380D01*
X52663031Y-2400303D01*
X52663029Y-2400303D01*
X52650501Y-2397811D01*
X52650501Y79306D01*
X57409943Y79306D01*
X57422475Y17156D01*
X57430137Y-20848D01*
X57470056Y-114891D01*
X57477860Y-126204D01*
X57528072Y-198991D01*
X57601813Y-269705D01*
X57647475Y-298460D01*
X57684588Y-321831D01*
X57688267Y-324148D01*
X57783902Y-360095D01*
X57844448Y-369685D01*
X57884810Y-376078D01*
X57884812Y-376078D01*
X57986875Y-371443D01*
X58021337Y-362723D01*
X58085918Y-346382D01*
X58085919Y-346381D01*
X58085921Y-346381D01*
X58177905Y-301914D01*
X58259069Y-239860D01*
X58259073Y-239857D01*
X58326095Y-162756D01*
X58333575Y-149482D01*
X58376251Y-73742D01*
X58407484Y23535D01*
X58418518Y125105D01*
X58418530Y128634D01*
X58417319Y140561D01*
X58408205Y230280D01*
X58377653Y327772D01*
X58328121Y417130D01*
X58261634Y494702D01*
X58261633Y494703D01*
X58180904Y557322D01*
X58089233Y602430D01*
X57990364Y628183D01*
X57888336Y633531D01*
X57888334Y633531D01*
X57787321Y618254D01*
X57787319Y618253D01*
X57787317Y618253D01*
X57691433Y582974D01*
X57604602Y529136D01*
X57568190Y494703D01*
X57530367Y458936D01*
X57500688Y416549D01*
X57471768Y375247D01*
X57451620Y328688D01*
X57431192Y281482D01*
X57413109Y194922D01*
X57410299Y181473D01*
X57409943Y79306D01*
X52650501Y79306D01*
X52650500Y3152546D01*
X55496913Y3152546D01*
X55511154Y3081916D01*
X55517107Y3052392D01*
X55557026Y2958349D01*
X55563836Y2948478D01*
X55615042Y2874249D01*
X55688783Y2803535D01*
X55733672Y2775267D01*
X55769273Y2752848D01*
X55775237Y2749092D01*
X55870872Y2713145D01*
X55931418Y2703555D01*
X55971780Y2697162D01*
X55971782Y2697162D01*
X56073845Y2701797D01*
X56118693Y2713145D01*
X56172888Y2726858D01*
X56172889Y2726859D01*
X56172891Y2726859D01*
X56264875Y2771326D01*
X56346039Y2833380D01*
X56346043Y2833383D01*
X56413065Y2910484D01*
X56418592Y2920292D01*
X56458257Y2990688D01*
X56485493Y3018501D01*
X56522985Y3028969D01*
X56560688Y3019289D01*
X56588501Y2992053D01*
X56594151Y2977334D01*
X56594167Y2977341D01*
X56637071Y2876265D01*
X56652874Y2853357D01*
X56695087Y2792165D01*
X56768828Y2721451D01*
X56811184Y2694778D01*
X56846342Y2672638D01*
X56855282Y2667008D01*
X56950917Y2631061D01*
X57011463Y2621471D01*
X57051825Y2615078D01*
X57051827Y2615078D01*
X57153890Y2619713D01*
X57153894Y2619714D01*
X57252933Y2644774D01*
X57252934Y2644775D01*
X57252936Y2644775D01*
X57344920Y2689242D01*
X57399507Y2730976D01*
X57435496Y2745809D01*
X57474080Y2740660D01*
X57504921Y2716909D01*
X57519754Y2680919D01*
X57518791Y2655857D01*
X57518163Y2652850D01*
X57518162Y2652848D01*
X57511240Y2619714D01*
X57497271Y2552848D01*
X57497269Y2552839D01*
X57496913Y2450672D01*
X57511304Y2379300D01*
X57517107Y2350518D01*
X57557026Y2256475D01*
X57568334Y2240083D01*
X57615042Y2172375D01*
X57688783Y2101661D01*
X57743811Y2067008D01*
X57758127Y2057993D01*
X57775237Y2047218D01*
X57870872Y2011271D01*
X57931418Y2001681D01*
X57971780Y1995288D01*
X57971782Y1995288D01*
X58073845Y1999923D01*
X58080714Y2001661D01*
X58172888Y2024984D01*
X58172889Y2024985D01*
X58172891Y2024985D01*
X58264875Y2069452D01*
X58346039Y2131506D01*
X58346043Y2131509D01*
X58413065Y2208610D01*
X58446680Y2268267D01*
X58463221Y2297624D01*
X58494454Y2394901D01*
X58505488Y2496471D01*
X58505500Y2500000D01*
X58505069Y2504249D01*
X58500354Y2550672D01*
X59796913Y2550672D01*
X59809967Y2485932D01*
X59817107Y2450518D01*
X59857026Y2356475D01*
X59865206Y2344617D01*
X59915042Y2272375D01*
X59988783Y2201661D01*
X60075237Y2147218D01*
X60170872Y2111271D01*
X60231418Y2101681D01*
X60271780Y2095288D01*
X60271782Y2095288D01*
X60373845Y2099923D01*
X60380714Y2101661D01*
X60472888Y2124984D01*
X60472889Y2124985D01*
X60472891Y2124985D01*
X60564875Y2169452D01*
X60640301Y2227119D01*
X60646043Y2231509D01*
X60713065Y2308610D01*
X60715751Y2313376D01*
X60763221Y2397624D01*
X60794454Y2494901D01*
X60800512Y2550672D01*
X70596913Y2550672D01*
X70609967Y2485932D01*
X70617107Y2450518D01*
X70657026Y2356475D01*
X70665206Y2344617D01*
X70715042Y2272375D01*
X70788783Y2201661D01*
X70807905Y2189619D01*
X70951124Y2099428D01*
X70878406Y2054341D01*
X70878403Y2054340D01*
X70791572Y2000502D01*
X70728889Y1941226D01*
X70717337Y1930302D01*
X70688065Y1888496D01*
X70658738Y1846613D01*
X70618162Y1752848D01*
X70597271Y1652848D01*
X70597269Y1652839D01*
X70596913Y1550672D01*
X70609212Y1489674D01*
X70617107Y1450518D01*
X70657026Y1356475D01*
X70663229Y1347483D01*
X70715042Y1272375D01*
X70788783Y1201661D01*
X70875237Y1147218D01*
X70970872Y1111271D01*
X71031418Y1101681D01*
X71071780Y1095288D01*
X71071782Y1095288D01*
X71173845Y1099923D01*
X71218693Y1111271D01*
X71272888Y1124984D01*
X71272889Y1124985D01*
X71272891Y1124985D01*
X71364875Y1169452D01*
X71446039Y1231506D01*
X71446043Y1231509D01*
X71513065Y1308610D01*
X71527861Y1334868D01*
X71563221Y1397624D01*
X71580253Y1450672D01*
X74496913Y1450672D01*
X74509792Y1386799D01*
X74517107Y1350518D01*
X74557026Y1256475D01*
X74563411Y1247219D01*
X74615042Y1172375D01*
X74688783Y1101661D01*
X74730942Y1075112D01*
X74763688Y1054491D01*
X74775237Y1047218D01*
X74870872Y1011271D01*
X74931418Y1001681D01*
X74971780Y995288D01*
X74971782Y995288D01*
X75073845Y999923D01*
X75118693Y1011271D01*
X75172888Y1024984D01*
X75172889Y1024985D01*
X75172891Y1024985D01*
X75264875Y1069452D01*
X75346039Y1131506D01*
X75346043Y1131509D01*
X75413065Y1208610D01*
X75414565Y1211271D01*
X75463221Y1297624D01*
X75494454Y1394901D01*
X75505488Y1496471D01*
X75505500Y1500000D01*
X75504433Y1510512D01*
X75495175Y1601646D01*
X75464623Y1699138D01*
X75415091Y1788496D01*
X75348604Y1866068D01*
X75314632Y1892419D01*
X75267874Y1928688D01*
X75176203Y1973796D01*
X75077334Y1999549D01*
X74975306Y2004897D01*
X74975304Y2004897D01*
X74874291Y1989620D01*
X74874289Y1989619D01*
X74874287Y1989619D01*
X74778403Y1954340D01*
X74778402Y1954339D01*
X74778401Y1954339D01*
X74757252Y1941226D01*
X74691572Y1900502D01*
X74623412Y1836047D01*
X74617337Y1830302D01*
X74595516Y1799138D01*
X74558738Y1746613D01*
X74520789Y1658919D01*
X74518162Y1652848D01*
X74504627Y1588058D01*
X74497269Y1552839D01*
X74496913Y1450672D01*
X71580253Y1450672D01*
X71594454Y1494901D01*
X71605488Y1596471D01*
X71605500Y1600000D01*
X71604597Y1608897D01*
X71595175Y1701646D01*
X71564623Y1799138D01*
X71515091Y1888496D01*
X71448604Y1966068D01*
X71448603Y1966069D01*
X71367874Y2028688D01*
X71360426Y2032353D01*
X71331138Y2057993D01*
X71318593Y2094842D01*
X71326154Y2133027D01*
X71360895Y2167528D01*
X71364875Y2169452D01*
X71446039Y2231506D01*
X71446043Y2231509D01*
X71513065Y2308610D01*
X71515751Y2313376D01*
X71563221Y2397624D01*
X71594454Y2494901D01*
X71605488Y2596471D01*
X71605500Y2600000D01*
X71603969Y2615078D01*
X71595175Y2701646D01*
X71564623Y2799138D01*
X71515091Y2888496D01*
X71448604Y2966068D01*
X71443135Y2970310D01*
X71367874Y3028688D01*
X71276203Y3073796D01*
X71177334Y3099549D01*
X71075306Y3104897D01*
X71075304Y3104897D01*
X70974291Y3089620D01*
X70974289Y3089619D01*
X70974287Y3089619D01*
X70878403Y3054340D01*
X70791572Y3000502D01*
X70759645Y2970310D01*
X70717337Y2930302D01*
X70686156Y2885770D01*
X70658738Y2846613D01*
X70631056Y2782643D01*
X70618162Y2752848D01*
X70597271Y2652848D01*
X70597269Y2652839D01*
X70596913Y2550672D01*
X60800512Y2550672D01*
X60805488Y2596471D01*
X60805500Y2600000D01*
X60803969Y2615078D01*
X60795175Y2701646D01*
X60764623Y2799138D01*
X60715091Y2888496D01*
X60648604Y2966068D01*
X60643135Y2970310D01*
X60567874Y3028688D01*
X60476203Y3073796D01*
X60377334Y3099549D01*
X60275306Y3104897D01*
X60275304Y3104897D01*
X60174291Y3089620D01*
X60174289Y3089619D01*
X60174287Y3089619D01*
X60078403Y3054340D01*
X59991572Y3000502D01*
X59959645Y2970310D01*
X59917337Y2930302D01*
X59886156Y2885770D01*
X59858738Y2846613D01*
X59831056Y2782643D01*
X59818162Y2752848D01*
X59797271Y2652848D01*
X59797269Y2652839D01*
X59796913Y2550672D01*
X58500354Y2550672D01*
X58495175Y2601646D01*
X58464623Y2699138D01*
X58415091Y2788496D01*
X58348604Y2866068D01*
X58348603Y2866069D01*
X58267874Y2928688D01*
X58176203Y2973796D01*
X58077334Y2999549D01*
X57975306Y3004897D01*
X57975304Y3004897D01*
X57874291Y2989620D01*
X57874289Y2989619D01*
X57874287Y2989619D01*
X57778403Y2954340D01*
X57778402Y2954339D01*
X57778401Y2954339D01*
X57691570Y2900501D01*
X57683610Y2892974D01*
X57649368Y2874461D01*
X57610457Y2875549D01*
X57577303Y2895947D01*
X57558790Y2930189D01*
X57560343Y2970601D01*
X57574499Y3014691D01*
X57585533Y3116261D01*
X57585545Y3119790D01*
X57582424Y3150520D01*
X57575220Y3221436D01*
X57566059Y3250672D01*
X86396913Y3250672D01*
X86408344Y3193982D01*
X86417107Y3150518D01*
X86457026Y3056475D01*
X86459843Y3052392D01*
X86515042Y2972375D01*
X86588783Y2901661D01*
X86675237Y2847218D01*
X86770872Y2811271D01*
X86819714Y2803535D01*
X86871780Y2795288D01*
X86871782Y2795288D01*
X86973845Y2799923D01*
X87018693Y2811271D01*
X87072888Y2824984D01*
X87072889Y2824985D01*
X87072891Y2824985D01*
X87164875Y2869452D01*
X87246039Y2931506D01*
X87246043Y2931509D01*
X87313065Y3008610D01*
X87313516Y3009409D01*
X87363221Y3097624D01*
X87394454Y3194901D01*
X87405488Y3296471D01*
X87405500Y3300000D01*
X87405238Y3302588D01*
X87395175Y3401646D01*
X87364623Y3499138D01*
X87315091Y3588496D01*
X87248604Y3666068D01*
X87248603Y3666069D01*
X87167874Y3728688D01*
X87076203Y3773796D01*
X86977334Y3799549D01*
X86875306Y3804897D01*
X86875304Y3804897D01*
X86774291Y3789620D01*
X86774289Y3789619D01*
X86774287Y3789619D01*
X86678403Y3754340D01*
X86591572Y3700502D01*
X86518613Y3631509D01*
X86517337Y3630302D01*
X86491629Y3593586D01*
X86458738Y3546613D01*
X86419590Y3456148D01*
X86418162Y3452848D01*
X86400103Y3366403D01*
X86397269Y3352839D01*
X86396913Y3250672D01*
X57566059Y3250672D01*
X57544668Y3318928D01*
X57495136Y3408286D01*
X57428649Y3485858D01*
X57415035Y3496418D01*
X57347919Y3548478D01*
X57256248Y3593586D01*
X57157379Y3619339D01*
X57055351Y3624687D01*
X57055349Y3624687D01*
X56954336Y3609410D01*
X56954334Y3609409D01*
X56954332Y3609409D01*
X56858448Y3574130D01*
X56858447Y3574129D01*
X56858446Y3574129D01*
X56824259Y3552932D01*
X56771617Y3520292D01*
X56703786Y3456148D01*
X56697382Y3450092D01*
X56668110Y3408286D01*
X56638783Y3366403D01*
X56624369Y3333094D01*
X56600190Y3302588D01*
X56563997Y3288258D01*
X56525488Y3293945D01*
X56494982Y3318124D01*
X56483595Y3340472D01*
X56464623Y3401014D01*
X56415091Y3490370D01*
X56348604Y3567942D01*
X56348603Y3567943D01*
X56267874Y3630562D01*
X56176203Y3675670D01*
X56077334Y3701423D01*
X55975306Y3706771D01*
X55975304Y3706771D01*
X55874291Y3691494D01*
X55874289Y3691493D01*
X55874287Y3691493D01*
X55778403Y3656214D01*
X55778402Y3656213D01*
X55778401Y3656213D01*
X55763894Y3647218D01*
X55691572Y3602376D01*
X55633568Y3547525D01*
X55617337Y3532176D01*
X55591508Y3495288D01*
X55558738Y3448487D01*
X55538194Y3401012D01*
X55518162Y3354722D01*
X55501014Y3272638D01*
X55497269Y3254713D01*
X55496913Y3152546D01*
X52650500Y3152546D01*
X52650499Y3326387D01*
X52651678Y3333830D01*
X52652379Y3338256D01*
X52650499Y3374131D01*
X52650499Y3385750D01*
X52649285Y3397304D01*
X52647423Y3432829D01*
X52644343Y3444325D01*
X52643100Y3456148D01*
X52632119Y3489943D01*
X52622912Y3524305D01*
X52617511Y3534906D01*
X52613835Y3546217D01*
X52596067Y3576991D01*
X52591578Y3585801D01*
X52579918Y3608686D01*
X52572428Y3617935D01*
X52566485Y3628230D01*
X52557087Y3638667D01*
X52542706Y3654639D01*
X52535371Y3663697D01*
X52527128Y3671940D01*
X52503115Y3698609D01*
X52503114Y3698609D01*
X52503113Y3698611D01*
X52493401Y3705667D01*
X52246135Y3952932D01*
X52153224Y4045842D01*
X52148869Y4060688D01*
X52119299Y4161484D01*
X52086594Y4224984D01*
X52071202Y4254870D01*
X52011004Y4331506D01*
X52006313Y4337478D01*
X51926975Y4406324D01*
X51853351Y4448917D01*
X53149364Y4448917D01*
X53153205Y4428688D01*
X53168958Y4345718D01*
X53204149Y4257060D01*
X53207712Y4248084D01*
X53264230Y4159539D01*
X53336471Y4083279D01*
X53421832Y4022054D01*
X53517221Y3978080D01*
X53517222Y3978080D01*
X53517226Y3978078D01*
X53619216Y3952932D01*
X53619217Y3952932D01*
X53619221Y3952931D01*
X53724121Y3947525D01*
X53828154Y3962054D01*
X53858388Y3972376D01*
X53927567Y3995994D01*
X53945456Y4006218D01*
X54018767Y4048119D01*
X54098464Y4116547D01*
X54163787Y4198816D01*
X54212369Y4291946D01*
X54213723Y4296471D01*
X54224465Y4332390D01*
X54229932Y4350672D01*
X54596913Y4350672D01*
X54608754Y4291948D01*
X54617107Y4250518D01*
X54657026Y4156475D01*
X54675020Y4130391D01*
X54715042Y4072375D01*
X54788783Y4001661D01*
X54839930Y3969452D01*
X54869997Y3950518D01*
X54875237Y3947218D01*
X54970872Y3911271D01*
X55031418Y3901681D01*
X55071780Y3895288D01*
X55071782Y3895288D01*
X55173845Y3899923D01*
X55218693Y3911271D01*
X55272888Y3924984D01*
X55272889Y3924985D01*
X55272891Y3924985D01*
X55326026Y3950672D01*
X82696913Y3950672D01*
X82708754Y3891948D01*
X82717107Y3850518D01*
X82757026Y3756475D01*
X82757027Y3756474D01*
X82815042Y3672375D01*
X82888783Y3601661D01*
X82932503Y3574129D01*
X82973238Y3548477D01*
X82975237Y3547218D01*
X83070872Y3511271D01*
X83131418Y3501681D01*
X83171780Y3495288D01*
X83171782Y3495288D01*
X83273845Y3499923D01*
X83318693Y3511271D01*
X83372888Y3524984D01*
X83372889Y3524985D01*
X83372891Y3524985D01*
X83464875Y3569452D01*
X83546039Y3631506D01*
X83546043Y3631509D01*
X83613065Y3708610D01*
X83617539Y3716549D01*
X83663221Y3797624D01*
X83694454Y3894901D01*
X83705488Y3996471D01*
X83705500Y4000000D01*
X83705332Y4001661D01*
X83698797Y4066001D01*
X92544288Y4066001D01*
X92567897Y4006218D01*
X92629802Y3904204D01*
X92708011Y3814076D01*
X92800286Y3738415D01*
X92903996Y3679380D01*
X93016159Y3638667D01*
X93133586Y3617432D01*
X93146999Y3616800D01*
X93496000Y3616800D01*
X94003999Y3616800D01*
X94329461Y3616800D01*
X94418906Y3624390D01*
X94534402Y3654367D01*
X94643210Y3703381D01*
X94742194Y3770021D01*
X94828536Y3852386D01*
X94899770Y3948128D01*
X94953851Y4054499D01*
X94957422Y4066000D01*
X94003999Y4066001D01*
X96874288Y4066001D01*
X96897897Y4006218D01*
X96959802Y3904204D01*
X97038011Y3814076D01*
X97130286Y3738415D01*
X97233996Y3679380D01*
X97346159Y3638667D01*
X97463586Y3617432D01*
X97476999Y3616800D01*
X97676000Y3616800D01*
X98183999Y3616800D01*
X98359461Y3616800D01*
X98448906Y3624390D01*
X98564402Y3654367D01*
X98673210Y3703381D01*
X98772194Y3770021D01*
X98858536Y3852386D01*
X98929770Y3948128D01*
X98983851Y4054499D01*
X98987422Y4066000D01*
X98183999Y4066001D01*
X98183999Y3616800D01*
X97676000Y3616800D01*
X97676000Y4066000D01*
X96874288Y4066001D01*
X94003999Y4066001D01*
X94003999Y3616800D01*
X93496000Y3616800D01*
X93496000Y4066000D01*
X92544288Y4066001D01*
X83698797Y4066001D01*
X83695175Y4101646D01*
X83664623Y4199138D01*
X83615091Y4288496D01*
X83548604Y4366068D01*
X83514414Y4392588D01*
X83467874Y4428688D01*
X83376203Y4473796D01*
X83277334Y4499549D01*
X83175306Y4504897D01*
X83175304Y4504897D01*
X83074291Y4489620D01*
X83074289Y4489619D01*
X83074287Y4489619D01*
X82978403Y4454340D01*
X82978402Y4454339D01*
X82978401Y4454339D01*
X82959691Y4442738D01*
X82891572Y4400502D01*
X82818613Y4331509D01*
X82817337Y4330302D01*
X82790482Y4291948D01*
X82758738Y4246613D01*
X82719732Y4156475D01*
X82718162Y4152848D01*
X82697616Y4054499D01*
X82697269Y4052839D01*
X82696913Y3950672D01*
X55326026Y3950672D01*
X55364875Y3969452D01*
X55446039Y4031506D01*
X55446043Y4031509D01*
X55513065Y4108610D01*
X55515639Y4113177D01*
X55563221Y4197624D01*
X55594454Y4294901D01*
X55605488Y4396471D01*
X55605500Y4400000D01*
X55604626Y4408610D01*
X55595175Y4501646D01*
X55564623Y4599138D01*
X55515091Y4688496D01*
X55448604Y4766068D01*
X55448603Y4766069D01*
X55367874Y4828688D01*
X55276203Y4873796D01*
X55177334Y4899549D01*
X55075306Y4904897D01*
X55075304Y4904897D01*
X54974291Y4889620D01*
X54974289Y4889619D01*
X54974287Y4889619D01*
X54878403Y4854340D01*
X54878402Y4854339D01*
X54878401Y4854339D01*
X54859691Y4842738D01*
X54791572Y4800502D01*
X54723147Y4735796D01*
X54717337Y4730302D01*
X54688065Y4688496D01*
X54658738Y4646613D01*
X54629650Y4579395D01*
X54618162Y4552848D01*
X54597271Y4452848D01*
X54597269Y4452839D01*
X54596913Y4350672D01*
X54229932Y4350672D01*
X54242468Y4392586D01*
X54252992Y4497105D01*
X54253000Y4500003D01*
X54243024Y4604569D01*
X54227624Y4657060D01*
X54213453Y4705366D01*
X54189003Y4752839D01*
X54165356Y4798752D01*
X54106409Y4873795D01*
X54100467Y4881360D01*
X54021129Y4950206D01*
X53930203Y5002808D01*
X53830971Y5037267D01*
X53727014Y5052340D01*
X53630610Y5047878D01*
X53622080Y5047483D01*
X53557228Y5031853D01*
X53519961Y5022872D01*
X53519960Y5022871D01*
X53519958Y5022871D01*
X53424336Y4979395D01*
X53384076Y4950836D01*
X53338658Y4918618D01*
X53266019Y4842738D01*
X53209038Y4754490D01*
X53169773Y4657060D01*
X53167903Y4647483D01*
X53149639Y4553964D01*
X53149364Y4448917D01*
X51853351Y4448917D01*
X51843976Y4454340D01*
X51836051Y4458925D01*
X51836050Y4458925D01*
X51836049Y4458926D01*
X51736817Y4493385D01*
X51632860Y4508458D01*
X51536456Y4503996D01*
X51527926Y4503601D01*
X51469915Y4489620D01*
X51425807Y4478990D01*
X51425806Y4478989D01*
X51425804Y4478989D01*
X51330182Y4435513D01*
X51292257Y4408610D01*
X51244504Y4374736D01*
X51171865Y4298856D01*
X51114884Y4210608D01*
X51075619Y4113178D01*
X51074727Y4108610D01*
X51063439Y4050814D01*
X49565485Y2552859D01*
X48223616Y1210990D01*
X48189905Y1191526D01*
X48150979Y1191526D01*
X48117268Y1210990D01*
X48095627Y1256565D01*
X48095175Y1261016D01*
X48064623Y1358508D01*
X48015091Y1447866D01*
X47948604Y1525438D01*
X47916072Y1550672D01*
X47867874Y1588058D01*
X47776203Y1633166D01*
X47677334Y1658919D01*
X47575306Y1664267D01*
X47575304Y1664267D01*
X47474291Y1648990D01*
X47474289Y1648989D01*
X47474287Y1648989D01*
X47378403Y1613710D01*
X47378402Y1613709D01*
X47378401Y1613709D01*
X47350593Y1596467D01*
X47291572Y1559872D01*
X47217339Y1489674D01*
X47217337Y1489672D01*
X47189923Y1450520D01*
X47158738Y1405983D01*
X47129002Y1337267D01*
X47118162Y1312218D01*
X47099938Y1224984D01*
X47097269Y1212209D01*
X47096913Y1110042D01*
X47110507Y1042624D01*
X47117107Y1009888D01*
X47157026Y915845D01*
X47157027Y915844D01*
X47215042Y831745D01*
X47288783Y761031D01*
X47375237Y706588D01*
X47470872Y670641D01*
X47500854Y665892D01*
X47508456Y664688D01*
X47544017Y648855D01*
X47566897Y617363D01*
X47570966Y578650D01*
X47549866Y537240D01*
X47163126Y150500D01*
X41250500Y150500D01*
X41250500Y1790252D01*
X46096913Y1790252D01*
X46111304Y1718880D01*
X46117107Y1690098D01*
X46157026Y1596055D01*
X46175020Y1569971D01*
X46215042Y1511955D01*
X46288783Y1441241D01*
X46340600Y1408610D01*
X46362370Y1394901D01*
X46375237Y1386798D01*
X46470872Y1350851D01*
X46531418Y1341261D01*
X46571780Y1334868D01*
X46571782Y1334868D01*
X46673845Y1339503D01*
X46673849Y1339504D01*
X46772888Y1364564D01*
X46772889Y1364565D01*
X46772891Y1364565D01*
X46864875Y1409032D01*
X46946039Y1471086D01*
X46946043Y1471089D01*
X47013065Y1548190D01*
X47019648Y1559872D01*
X47063221Y1637204D01*
X47094454Y1734481D01*
X47105488Y1836051D01*
X47105500Y1839580D01*
X47104786Y1846614D01*
X47095175Y1941226D01*
X47064623Y2038718D01*
X47015091Y2128076D01*
X46948604Y2205648D01*
X46944979Y2208460D01*
X46867874Y2268268D01*
X46776203Y2313376D01*
X46677334Y2339129D01*
X46575306Y2344477D01*
X46575304Y2344477D01*
X46474291Y2329200D01*
X46474289Y2329199D01*
X46474287Y2329199D01*
X46378403Y2293920D01*
X46291572Y2240082D01*
X46227826Y2179801D01*
X46217337Y2169882D01*
X46188065Y2128076D01*
X46158738Y2086193D01*
X46127964Y2015078D01*
X46118162Y1992428D01*
X46098673Y1899138D01*
X46097269Y1892419D01*
X46096913Y1790252D01*
X41250500Y1790252D01*
X41250500Y2470462D01*
X47996913Y2470462D01*
X48009508Y2407999D01*
X48017107Y2370308D01*
X48057026Y2276265D01*
X48074786Y2250520D01*
X48115042Y2192165D01*
X48188783Y2121451D01*
X48239930Y2089242D01*
X48266713Y2072376D01*
X48275237Y2067008D01*
X48370872Y2031061D01*
X48431418Y2021471D01*
X48471780Y2015078D01*
X48471782Y2015078D01*
X48573845Y2019713D01*
X48609315Y2028688D01*
X48672888Y2044774D01*
X48672889Y2044775D01*
X48672891Y2044775D01*
X48764875Y2089242D01*
X48846039Y2151296D01*
X48846043Y2151299D01*
X48913065Y2228400D01*
X48919648Y2240082D01*
X48963221Y2317414D01*
X48994454Y2414691D01*
X49005488Y2516261D01*
X49005500Y2519790D01*
X49002142Y2552855D01*
X48995175Y2621436D01*
X48964623Y2718928D01*
X48915091Y2808286D01*
X48848604Y2885858D01*
X48843790Y2889592D01*
X48767874Y2948478D01*
X48676203Y2993586D01*
X48577334Y3019339D01*
X48475306Y3024687D01*
X48475304Y3024687D01*
X48374291Y3009410D01*
X48374289Y3009409D01*
X48374287Y3009409D01*
X48278403Y2974130D01*
X48278402Y2974129D01*
X48278401Y2974129D01*
X48272242Y2970310D01*
X48191572Y2920292D01*
X48134231Y2866068D01*
X48117337Y2850092D01*
X48091009Y2812491D01*
X48058738Y2766403D01*
X48019734Y2676270D01*
X48018162Y2672638D01*
X47997858Y2575446D01*
X47997269Y2572629D01*
X47996913Y2470462D01*
X41250500Y2470462D01*
X41250500Y3131654D01*
X45677895Y3131654D01*
X45690540Y3068940D01*
X45698089Y3031500D01*
X45738008Y2937457D01*
X45744058Y2928687D01*
X45796024Y2853357D01*
X45869765Y2782643D01*
X45923043Y2749092D01*
X45951811Y2730976D01*
X45956219Y2728200D01*
X46051854Y2692253D01*
X46112400Y2682663D01*
X46152762Y2676270D01*
X46152764Y2676270D01*
X46254827Y2680905D01*
X46309654Y2694778D01*
X46353870Y2705966D01*
X46353871Y2705967D01*
X46353873Y2705967D01*
X46445857Y2750434D01*
X46527021Y2812488D01*
X46527025Y2812491D01*
X46594047Y2889592D01*
X46594063Y2889619D01*
X46644203Y2978606D01*
X46675436Y3075883D01*
X46686470Y3177453D01*
X46686482Y3180982D01*
X46685162Y3193982D01*
X46676157Y3282628D01*
X46645605Y3380120D01*
X46596073Y3469478D01*
X46529586Y3547050D01*
X46529585Y3547051D01*
X46448856Y3609670D01*
X46357185Y3654778D01*
X46258316Y3680531D01*
X46156288Y3685879D01*
X46156286Y3685879D01*
X46055273Y3670602D01*
X46055271Y3670601D01*
X46055269Y3670601D01*
X45959385Y3635322D01*
X45959384Y3635321D01*
X45959383Y3635321D01*
X45937989Y3622056D01*
X45872554Y3581484D01*
X45807846Y3520293D01*
X45798319Y3511284D01*
X45787910Y3496418D01*
X45739720Y3427595D01*
X45716584Y3374131D01*
X45699144Y3333830D01*
X45682258Y3253000D01*
X45678251Y3233821D01*
X45677895Y3131654D01*
X41250500Y3131654D01*
X41250500Y3782078D01*
X41263784Y3798812D01*
X41312369Y3891946D01*
X41342468Y3992586D01*
X41352992Y4097105D01*
X41353000Y4100003D01*
X41343024Y4204569D01*
X41329499Y4250672D01*
X41496913Y4250672D01*
X41511304Y4179300D01*
X41517107Y4150518D01*
X41557026Y4056475D01*
X41564361Y4045842D01*
X41615042Y3972375D01*
X41688783Y3901661D01*
X41739930Y3869452D01*
X41773862Y3848084D01*
X41775237Y3847218D01*
X41870872Y3811271D01*
X41931418Y3801681D01*
X41971780Y3795288D01*
X41971782Y3795288D01*
X42073845Y3799923D01*
X42073849Y3799924D01*
X42172888Y3824984D01*
X42172889Y3824985D01*
X42172891Y3824985D01*
X42264875Y3869452D01*
X42346039Y3931506D01*
X42346043Y3931509D01*
X42413065Y4008610D01*
X42420642Y4022056D01*
X42436765Y4050672D01*
X48296913Y4050672D01*
X48308625Y3992588D01*
X48317107Y3950518D01*
X48357026Y3856475D01*
X48362814Y3848085D01*
X48415042Y3772375D01*
X48488783Y3701661D01*
X48539930Y3669452D01*
X48563885Y3654367D01*
X48575237Y3647218D01*
X48670872Y3611271D01*
X48731418Y3601681D01*
X48771780Y3595288D01*
X48771782Y3595288D01*
X48873845Y3599923D01*
X48940544Y3616800D01*
X48972888Y3624984D01*
X48972889Y3624985D01*
X48972891Y3624985D01*
X49064875Y3669452D01*
X49146039Y3731506D01*
X49146043Y3731509D01*
X49213065Y3808610D01*
X49214565Y3811271D01*
X49263221Y3897624D01*
X49294454Y3994901D01*
X49305488Y4096471D01*
X49305500Y4100000D01*
X49304626Y4108610D01*
X49295175Y4201646D01*
X49264623Y4299138D01*
X49215091Y4388496D01*
X49148604Y4466068D01*
X49148603Y4466069D01*
X49067874Y4528688D01*
X48976203Y4573796D01*
X48877334Y4599549D01*
X48775306Y4604897D01*
X48775304Y4604897D01*
X48674291Y4589620D01*
X48674289Y4589619D01*
X48674287Y4589619D01*
X48578403Y4554340D01*
X48578402Y4554339D01*
X48578401Y4554339D01*
X48537031Y4528688D01*
X48491572Y4500502D01*
X48417339Y4430304D01*
X48417337Y4430302D01*
X48388065Y4388496D01*
X48358738Y4346613D01*
X48325347Y4269452D01*
X48318162Y4252848D01*
X48297271Y4152848D01*
X48297269Y4152839D01*
X48296913Y4050672D01*
X42436765Y4050672D01*
X42463221Y4097624D01*
X42494454Y4194901D01*
X42505488Y4296471D01*
X42505500Y4300000D01*
X42505332Y4301661D01*
X42495175Y4401646D01*
X42464623Y4499138D01*
X42415091Y4588496D01*
X42348604Y4666068D01*
X42319690Y4688496D01*
X42267874Y4728688D01*
X42176203Y4773796D01*
X42077334Y4799549D01*
X41975306Y4804897D01*
X41975304Y4804897D01*
X41874291Y4789620D01*
X41874289Y4789619D01*
X41874287Y4789619D01*
X41778403Y4754340D01*
X41691572Y4700502D01*
X41624702Y4637267D01*
X41617337Y4630302D01*
X41588852Y4589620D01*
X41558738Y4546613D01*
X41530501Y4481361D01*
X41518162Y4452848D01*
X41500033Y4366068D01*
X41497269Y4352839D01*
X41496913Y4250672D01*
X41329499Y4250672D01*
X41318402Y4288496D01*
X41313453Y4305366D01*
X41289003Y4352839D01*
X41265356Y4398752D01*
X41206409Y4473795D01*
X41200467Y4481360D01*
X41121129Y4550206D01*
X41036547Y4599138D01*
X41030205Y4602807D01*
X41030204Y4602807D01*
X41030203Y4602808D01*
X40930971Y4637267D01*
X40827014Y4652340D01*
X40730610Y4647878D01*
X40722080Y4647483D01*
X40665231Y4633782D01*
X40619961Y4622872D01*
X40619960Y4622871D01*
X40619958Y4622871D01*
X40524336Y4579395D01*
X40489015Y4554339D01*
X40438658Y4518618D01*
X40366019Y4442738D01*
X40309038Y4354490D01*
X40269773Y4257060D01*
X40268020Y4248084D01*
X40249639Y4153964D01*
X40249364Y4048917D01*
X40258651Y4000004D01*
X40268958Y3945718D01*
X40307712Y3848084D01*
X40349500Y3782616D01*
X40349501Y17156D01*
X40309038Y-45510D01*
X40269773Y-142940D01*
X40262937Y-177944D01*
X40249639Y-246036D01*
X40249364Y-351083D01*
X40258626Y-399863D01*
X40268958Y-454282D01*
X40302686Y-539254D01*
X40307712Y-551916D01*
X40364230Y-640461D01*
X40436471Y-716721D01*
X40521832Y-777946D01*
X40617221Y-821920D01*
X40617222Y-821920D01*
X40617226Y-821922D01*
X40719216Y-847068D01*
X40719217Y-847068D01*
X40719221Y-847069D01*
X40824121Y-852475D01*
X40928154Y-837946D01*
X41002849Y-812445D01*
X41027567Y-804006D01*
X41068894Y-780386D01*
X41121184Y-750500D01*
X43321333Y-750500D01*
X43358933Y-760575D01*
X43386458Y-788100D01*
X43396533Y-825700D01*
X43382933Y-868833D01*
X43358738Y-903387D01*
X43330565Y-968491D01*
X43318162Y-997152D01*
X43297631Y-1095430D01*
X43297269Y-1097161D01*
X43296913Y-1199328D01*
X43308306Y-1255830D01*
X43317107Y-1299482D01*
X43357026Y-1393525D01*
X43360148Y-1398050D01*
X43415042Y-1477625D01*
X43488783Y-1548339D01*
X43539930Y-1580548D01*
X43568182Y-1598339D01*
X43575237Y-1602782D01*
X43670872Y-1638729D01*
X43731418Y-1648319D01*
X43771780Y-1654712D01*
X43771782Y-1654712D01*
X43873845Y-1650077D01*
X43918693Y-1638729D01*
X43972888Y-1625016D01*
X43972889Y-1625015D01*
X43972891Y-1625015D01*
X44064875Y-1580548D01*
X44146039Y-1518494D01*
X44146043Y-1518491D01*
X44213065Y-1441390D01*
X44216597Y-1435123D01*
X44263221Y-1352376D01*
X44294454Y-1255099D01*
X44305488Y-1153529D01*
X44305500Y-1150000D01*
X44305212Y-1147159D01*
X44295175Y-1048354D01*
X44264623Y-950862D01*
X44253920Y-931554D01*
X44215091Y-861504D01*
X44215088Y-861500D01*
X44153558Y-750500D01*
X47314157Y-750500D01*
X47326020Y-752379D01*
X47326021Y-752379D01*
X47361877Y-750500D01*
X47373514Y-750500D01*
X47385088Y-749284D01*
X47414675Y-747733D01*
X47420594Y-747423D01*
X47432081Y-744344D01*
X47442098Y-743292D01*
X47443913Y-743101D01*
X47456481Y-739017D01*
X47477725Y-732114D01*
X47512068Y-722912D01*
X47522668Y-717512D01*
X47533980Y-713836D01*
X47560342Y-698616D01*
X47564787Y-696050D01*
X47596447Y-679918D01*
X47596449Y-679917D01*
X47601906Y-675498D01*
X47605690Y-672434D01*
X47615996Y-666485D01*
X47642433Y-642680D01*
X47651461Y-635369D01*
X47659674Y-627156D01*
X47686373Y-603116D01*
X47693438Y-593392D01*
X51605845Y3319015D01*
X51749500Y3175360D01*
X51749502Y-2564423D01*
X51747622Y-2576293D01*
X51747622Y-2576294D01*
X51749132Y-2605099D01*
X51749502Y-2612168D01*
X51749502Y-2623787D01*
X51750716Y-2635342D01*
X51752578Y-2670865D01*
X51755658Y-2682360D01*
X51756901Y-2694185D01*
X51767883Y-2727985D01*
X51774528Y-2752782D01*
X51777090Y-2762344D01*
X51782491Y-2772945D01*
X51786166Y-2784254D01*
X51803946Y-2815051D01*
X51817394Y-2841442D01*
X51820084Y-2846722D01*
X51827568Y-2855964D01*
X51833517Y-2866268D01*
X51857313Y-2892696D01*
X51864631Y-2901733D01*
X51872855Y-2909957D01*
X51891514Y-2930680D01*
X51896888Y-2936648D01*
X51902232Y-2940530D01*
X51906356Y-2943526D01*
X51906605Y-2943707D01*
X52000719Y-3037823D01*
X52004424Y-3094331D01*
X52018006Y-3147808D01*
X52031587Y-3201286D01*
X52077787Y-3301500D01*
X52133761Y-3380702D01*
X52134254Y-3381399D01*
X52147728Y-3417919D01*
X52141135Y-3456283D01*
X52116244Y-3486211D01*
X52072843Y-3500000D01*
X49151868Y-3500000D01*
X49263221Y-3302376D01*
X49271168Y-3277624D01*
X49294454Y-3205099D01*
X49305488Y-3103529D01*
X49305488Y-3103524D01*
X49308174Y-3078798D01*
X49370872Y-3088729D01*
X49393772Y-3092356D01*
X49471780Y-3104712D01*
X49471782Y-3104712D01*
X49573845Y-3100077D01*
X49574149Y-3100000D01*
X49672888Y-3075016D01*
X49672889Y-3075015D01*
X49672891Y-3075015D01*
X49764875Y-3030548D01*
X49816096Y-2991387D01*
X49846041Y-2968493D01*
X49916543Y-2887390D01*
X49972493Y-2968494D01*
X50015042Y-3030173D01*
X50088783Y-3100887D01*
X50135884Y-3130548D01*
X50171191Y-3152782D01*
X50175237Y-3155330D01*
X50270872Y-3191277D01*
X50326425Y-3200076D01*
X50371780Y-3207260D01*
X50371782Y-3207260D01*
X50473845Y-3202625D01*
X50497395Y-3196666D01*
X50572888Y-3177564D01*
X50572889Y-3177563D01*
X50572891Y-3177563D01*
X50664875Y-3133096D01*
X50746039Y-3071042D01*
X50746043Y-3071039D01*
X50813065Y-2993938D01*
X50814503Y-2991387D01*
X50863221Y-2904924D01*
X50894454Y-2807647D01*
X50905488Y-2706077D01*
X50905500Y-2702548D01*
X50905242Y-2700000D01*
X50895175Y-2600902D01*
X50864623Y-2503410D01*
X50815091Y-2414052D01*
X50748604Y-2336480D01*
X50724961Y-2318141D01*
X50667874Y-2273860D01*
X50576203Y-2228752D01*
X50477334Y-2202999D01*
X50375306Y-2197651D01*
X50375304Y-2197651D01*
X50274291Y-2212928D01*
X50274289Y-2212929D01*
X50274287Y-2212929D01*
X50178403Y-2248208D01*
X50178402Y-2248209D01*
X50178401Y-2248209D01*
X50091573Y-2302045D01*
X49972344Y-2414792D01*
X49963748Y-2399283D01*
X49915091Y-2311504D01*
X49860840Y-2248208D01*
X49848604Y-2233932D01*
X49840473Y-2227625D01*
X49767874Y-2171312D01*
X49676203Y-2126204D01*
X49577334Y-2100451D01*
X49475306Y-2095103D01*
X49475304Y-2095103D01*
X49374291Y-2110380D01*
X49374289Y-2110381D01*
X49374287Y-2110381D01*
X49278403Y-2145660D01*
X49278402Y-2145661D01*
X49278401Y-2145661D01*
X49250035Y-2163249D01*
X49191572Y-2199498D01*
X49121065Y-2266173D01*
X49117337Y-2269698D01*
X49096120Y-2300000D01*
X49058738Y-2353387D01*
X49018162Y-2447152D01*
X48997269Y-2547161D01*
X48997269Y-2547164D01*
X48980522Y-2627329D01*
X48877334Y-2600451D01*
X48775306Y-2595103D01*
X48775304Y-2595103D01*
X48674291Y-2610380D01*
X48674289Y-2610381D01*
X48674287Y-2610381D01*
X48578403Y-2645660D01*
X48578402Y-2645661D01*
X48578401Y-2645661D01*
X48552849Y-2661504D01*
X48491572Y-2699498D01*
X48425117Y-2762341D01*
X48417337Y-2769698D01*
X48390634Y-2807835D01*
X48358738Y-2853387D01*
X48318162Y-2947152D01*
X48297347Y-3046790D01*
X48297269Y-3047161D01*
X48296913Y-3149328D01*
X48311304Y-3220700D01*
X48317107Y-3249482D01*
X48357026Y-3343525D01*
X48363411Y-3352781D01*
X48383154Y-3381399D01*
X48383636Y-3382098D01*
X48396694Y-3418769D01*
X48389667Y-3457056D01*
X48364438Y-3486700D01*
X48321736Y-3500000D01*
X44080807Y-3500000D01*
X44043207Y-3489925D01*
X44015682Y-3462400D01*
X44005607Y-3424800D01*
X44015682Y-3387200D01*
X44035131Y-3365061D01*
X44096039Y-3318494D01*
X44096043Y-3318491D01*
X44163065Y-3241390D01*
X44165080Y-3237815D01*
X44213221Y-3152376D01*
X44244454Y-3055099D01*
X44255488Y-2953529D01*
X44255500Y-2950000D01*
X44255102Y-2946074D01*
X44245175Y-2848354D01*
X44214623Y-2750862D01*
X44165091Y-2661504D01*
X44098604Y-2583932D01*
X44084503Y-2572994D01*
X44017874Y-2521312D01*
X43926203Y-2476204D01*
X43827334Y-2450451D01*
X43725306Y-2445103D01*
X43725304Y-2445103D01*
X43624291Y-2460380D01*
X43624289Y-2460381D01*
X43624287Y-2460381D01*
X43528403Y-2495660D01*
X43528402Y-2495661D01*
X43528401Y-2495661D01*
X43491881Y-2518305D01*
X43441572Y-2549498D01*
X43376002Y-2611504D01*
X43367337Y-2619698D01*
X43344600Y-2652171D01*
X43308738Y-2703387D01*
X43272321Y-2787541D01*
X43268162Y-2797152D01*
X43248202Y-2892696D01*
X43247269Y-2897161D01*
X43246913Y-2999328D01*
X43259698Y-3062734D01*
X43267107Y-3099482D01*
X43307026Y-3193525D01*
X43316501Y-3207260D01*
X43365042Y-3277625D01*
X43426153Y-3336227D01*
X43438785Y-3348341D01*
X43459153Y-3361167D01*
X43485601Y-3389728D01*
X43494225Y-3427687D01*
X43482713Y-3464873D01*
X43454152Y-3491321D01*
X43419080Y-3500000D01*
X28742687Y-3500000D01*
X28705087Y-3489925D01*
X28677562Y-3462400D01*
X28667487Y-3424800D01*
X28677562Y-3387200D01*
X28709956Y-3357097D01*
X28764875Y-3330548D01*
X28846039Y-3268494D01*
X28846043Y-3268491D01*
X28913065Y-3191390D01*
X28914565Y-3188729D01*
X28963221Y-3102376D01*
X28994454Y-3005099D01*
X29005488Y-2903529D01*
X29005500Y-2900000D01*
X29005332Y-2898339D01*
X28995175Y-2798354D01*
X28964623Y-2700862D01*
X28915091Y-2611504D01*
X28848604Y-2533932D01*
X28848603Y-2533931D01*
X28767874Y-2471312D01*
X28676203Y-2426204D01*
X28577334Y-2400451D01*
X28475306Y-2395103D01*
X28475304Y-2395103D01*
X28374291Y-2410380D01*
X28374289Y-2410381D01*
X28374287Y-2410381D01*
X28278403Y-2445660D01*
X28278402Y-2445661D01*
X28278401Y-2445661D01*
X28255849Y-2459644D01*
X28191572Y-2499498D01*
X28141085Y-2547241D01*
X28117337Y-2569698D01*
X28088852Y-2610380D01*
X28058738Y-2653387D01*
X28019732Y-2743525D01*
X28018162Y-2747152D01*
X27997303Y-2847000D01*
X27997269Y-2847161D01*
X27996913Y-2949328D01*
X28008515Y-3006867D01*
X28017107Y-3049482D01*
X28057026Y-3143525D01*
X28061029Y-3149328D01*
X28115042Y-3227625D01*
X28188783Y-3298339D01*
X28226221Y-3321915D01*
X28268182Y-3348339D01*
X28275237Y-3352782D01*
X28279565Y-3354409D01*
X28311215Y-3377069D01*
X28327295Y-3412518D01*
X28323497Y-3451259D01*
X28300836Y-3482910D01*
X28253105Y-3500000D01*
X24999991Y-3500000D01*
X24982584Y-3500760D01*
X24982575Y-3500761D01*
X24982570Y-3500761D01*
X24861015Y-3511396D01*
X24838128Y-3515431D01*
X24826684Y-3517449D01*
X24787398Y-3527976D01*
X24708823Y-3549029D01*
X24676061Y-3560954D01*
X24676053Y-3560957D01*
X24565482Y-3612518D01*
X24565476Y-3612521D01*
X24556970Y-3617432D01*
X24535280Y-3629954D01*
X24472798Y-3673705D01*
X24472795Y-3673708D01*
X24435329Y-3699943D01*
X24431232Y-3703381D01*
X24408621Y-3722354D01*
X24322354Y-3808621D01*
X24322350Y-3808626D01*
X24299943Y-3835329D01*
X24273708Y-3872795D01*
X24273705Y-3872798D01*
X24251715Y-3904204D01*
X24229952Y-3935284D01*
X24212520Y-3965476D01*
X24160953Y-4076062D01*
X24149030Y-4108823D01*
X24117450Y-4226683D01*
X24111396Y-4261014D01*
X24100761Y-4382568D01*
X24100761Y-4417432D01*
X24111396Y-4538986D01*
X24117450Y-4573317D01*
X24149030Y-4691177D01*
X24160953Y-4723938D01*
X24212520Y-4834524D01*
X24229952Y-4864716D01*
X24273706Y-4927203D01*
X24273708Y-4927205D01*
X24299943Y-4964671D01*
X24316205Y-4984051D01*
X24322354Y-4991379D01*
X24402101Y-5071126D01*
X24421565Y-5104837D01*
X24421565Y-5143763D01*
X24402101Y-5177474D01*
X24368390Y-5196938D01*
X24348927Y-5199500D01*
X200500Y-5199500D01*
X200500Y-3250500D01*
X15484216Y-3250500D01*
X15500000Y-3253000D01*
X15515783Y-3250500D01*
X15515785Y-3250500D01*
X15562730Y-3243064D01*
X15619320Y-3214230D01*
X15633550Y-3200000D01*
X15700000Y-3200000D01*
X15700000Y-3068940D01*
X15703000Y-3050000D01*
X15700500Y-3034217D01*
X15700500Y-1949328D01*
X18196913Y-1949328D01*
X18208424Y-2006415D01*
X18217107Y-2049482D01*
X18257026Y-2143525D01*
X18257027Y-2143526D01*
X18315042Y-2227625D01*
X18315044Y-2227627D01*
X18390777Y-2300251D01*
X18317339Y-2369696D01*
X18258738Y-2453387D01*
X18234139Y-2510232D01*
X18218162Y-2547152D01*
X18197452Y-2646287D01*
X18197269Y-2647161D01*
X18196913Y-2749328D01*
X18208672Y-2807646D01*
X18217107Y-2849482D01*
X18257026Y-2943525D01*
X18259528Y-2947152D01*
X18315042Y-3027625D01*
X18388783Y-3098339D01*
X18475237Y-3152782D01*
X18570872Y-3188729D01*
X18620983Y-3196666D01*
X18671780Y-3204712D01*
X18671782Y-3204712D01*
X18773845Y-3200077D01*
X18774149Y-3200000D01*
X18872888Y-3175016D01*
X18872889Y-3175015D01*
X18872891Y-3175015D01*
X18964875Y-3130548D01*
X19046039Y-3068494D01*
X19046043Y-3068491D01*
X19113065Y-2991390D01*
X19114565Y-2988729D01*
X19163221Y-2902376D01*
X19194454Y-2805099D01*
X19205488Y-2703529D01*
X19205500Y-2700000D01*
X19205332Y-2698339D01*
X19195175Y-2598354D01*
X19164623Y-2500862D01*
X19115091Y-2411504D01*
X19059935Y-2347152D01*
X19048603Y-2333931D01*
X19048602Y-2333930D01*
X19019090Y-2299498D01*
X19113067Y-2191387D01*
X19163221Y-2102376D01*
X19177379Y-2058281D01*
X19194454Y-2005099D01*
X19205488Y-1903529D01*
X19205500Y-1900000D01*
X19200133Y-1847159D01*
X19195175Y-1798356D01*
X19195175Y-1798355D01*
X19165254Y-1702877D01*
X19222886Y-1675016D01*
X19222891Y-1675015D01*
X19314875Y-1630548D01*
X19396039Y-1568494D01*
X19413560Y-1548339D01*
X19446784Y-1510118D01*
X19508916Y-1569698D01*
X19538783Y-1598339D01*
X19589930Y-1630548D01*
X19620942Y-1650077D01*
X19625237Y-1652782D01*
X19720872Y-1688729D01*
X19781418Y-1698319D01*
X19821780Y-1704712D01*
X19821782Y-1704712D01*
X19923845Y-1700077D01*
X19923849Y-1700076D01*
X20022888Y-1675016D01*
X20022889Y-1675015D01*
X20022891Y-1675015D01*
X20114875Y-1630548D01*
X20196039Y-1568494D01*
X20213560Y-1548339D01*
X20246784Y-1510118D01*
X20308916Y-1569698D01*
X20338783Y-1598339D01*
X20389930Y-1630548D01*
X20420942Y-1650077D01*
X20425237Y-1652782D01*
X20520872Y-1688729D01*
X20581418Y-1698319D01*
X20621780Y-1704712D01*
X20621782Y-1704712D01*
X20723845Y-1700077D01*
X20723849Y-1700076D01*
X20822888Y-1675016D01*
X20822889Y-1675015D01*
X20822891Y-1675015D01*
X20914875Y-1630548D01*
X20996039Y-1568494D01*
X21013560Y-1548339D01*
X21046784Y-1510118D01*
X21108916Y-1569698D01*
X21138783Y-1598339D01*
X21189930Y-1630548D01*
X21220942Y-1650077D01*
X21225237Y-1652782D01*
X21226847Y-1653387D01*
X21329675Y-1692038D01*
X21297582Y-1845661D01*
X21297269Y-1847161D01*
X21296913Y-1949328D01*
X21308424Y-2006415D01*
X21317107Y-2049482D01*
X21357026Y-2143525D01*
X21357027Y-2143526D01*
X21415042Y-2227625D01*
X21415044Y-2227627D01*
X21490777Y-2300251D01*
X21417339Y-2369696D01*
X21358738Y-2453387D01*
X21334139Y-2510232D01*
X21318162Y-2547152D01*
X21297452Y-2646287D01*
X21297269Y-2647161D01*
X21296913Y-2749328D01*
X21308672Y-2807646D01*
X21317107Y-2849482D01*
X21357026Y-2943525D01*
X21359528Y-2947152D01*
X21415042Y-3027625D01*
X21488783Y-3098339D01*
X21575237Y-3152782D01*
X21670872Y-3188729D01*
X21720983Y-3196666D01*
X21771780Y-3204712D01*
X21771782Y-3204712D01*
X21873845Y-3200077D01*
X21874149Y-3200000D01*
X21972888Y-3175016D01*
X21972889Y-3175015D01*
X21972891Y-3175015D01*
X22064875Y-3130548D01*
X22146039Y-3068494D01*
X22146043Y-3068491D01*
X22213065Y-2991390D01*
X22214565Y-2988729D01*
X22263221Y-2902376D01*
X22294454Y-2805099D01*
X22305488Y-2703529D01*
X22305500Y-2700000D01*
X22305332Y-2698339D01*
X22295175Y-2598354D01*
X22264623Y-2500862D01*
X22215091Y-2411504D01*
X22161801Y-2349328D01*
X33596913Y-2349328D01*
X33609223Y-2410380D01*
X33617107Y-2449482D01*
X33657026Y-2543525D01*
X33666439Y-2557170D01*
X33715042Y-2627625D01*
X33788783Y-2698339D01*
X33839930Y-2730548D01*
X33866297Y-2747152D01*
X33875237Y-2752782D01*
X33970872Y-2788729D01*
X34031418Y-2798319D01*
X34071780Y-2804712D01*
X34071782Y-2804712D01*
X34173845Y-2800077D01*
X34175770Y-2799590D01*
X34272888Y-2775016D01*
X34272889Y-2775015D01*
X34272891Y-2775015D01*
X34364875Y-2730548D01*
X34446039Y-2668494D01*
X34446043Y-2668491D01*
X34513065Y-2591390D01*
X34516492Y-2585309D01*
X34536765Y-2549328D01*
X38896913Y-2549328D01*
X38909223Y-2610380D01*
X38917107Y-2649482D01*
X38957026Y-2743525D01*
X38970006Y-2762341D01*
X39015042Y-2827625D01*
X39088783Y-2898339D01*
X39143811Y-2932992D01*
X39166297Y-2947152D01*
X39175237Y-2952782D01*
X39270872Y-2988729D01*
X39328288Y-2997823D01*
X39371780Y-3004712D01*
X39371782Y-3004712D01*
X39473845Y-3000077D01*
X39482769Y-2997819D01*
X39572888Y-2975016D01*
X39572889Y-2975015D01*
X39572891Y-2975015D01*
X39664875Y-2930548D01*
X39746039Y-2868494D01*
X39746043Y-2868491D01*
X39813065Y-2791390D01*
X39814565Y-2788729D01*
X39863221Y-2702376D01*
X39894454Y-2605099D01*
X39905488Y-2503529D01*
X39905500Y-2500000D01*
X39905060Y-2495661D01*
X39895175Y-2398354D01*
X39864623Y-2300862D01*
X39815091Y-2211504D01*
X39748604Y-2133932D01*
X39739683Y-2127012D01*
X39667874Y-2071312D01*
X39576203Y-2026204D01*
X39477334Y-2000451D01*
X39375306Y-1995103D01*
X39375304Y-1995103D01*
X39274291Y-2010380D01*
X39274289Y-2010381D01*
X39274287Y-2010381D01*
X39178403Y-2045660D01*
X39178402Y-2045661D01*
X39178401Y-2045661D01*
X39152711Y-2061590D01*
X39091572Y-2099498D01*
X39042757Y-2145660D01*
X39017337Y-2169698D01*
X38996472Y-2199497D01*
X38958738Y-2253387D01*
X38932494Y-2314034D01*
X38918162Y-2347152D01*
X38897271Y-2447152D01*
X38897269Y-2447161D01*
X38896913Y-2549328D01*
X34536765Y-2549328D01*
X34563221Y-2502376D01*
X34594454Y-2405099D01*
X34605488Y-2303529D01*
X34605500Y-2300000D01*
X34605486Y-2299857D01*
X34595175Y-2198354D01*
X34564623Y-2100862D01*
X34515091Y-2011504D01*
X34448604Y-1933932D01*
X34434721Y-1923163D01*
X34367874Y-1871312D01*
X34276203Y-1826204D01*
X34177334Y-1800451D01*
X34075306Y-1795103D01*
X34075304Y-1795103D01*
X33974291Y-1810380D01*
X33974289Y-1810381D01*
X33974287Y-1810381D01*
X33878403Y-1845660D01*
X33791572Y-1899498D01*
X33738878Y-1949328D01*
X33717337Y-1969698D01*
X33691629Y-2006414D01*
X33658738Y-2053387D01*
X33626876Y-2127015D01*
X33618162Y-2147152D01*
X33600033Y-2233932D01*
X33597269Y-2247161D01*
X33596913Y-2349328D01*
X22161801Y-2349328D01*
X22159935Y-2347152D01*
X22148603Y-2333931D01*
X22148602Y-2333930D01*
X22119090Y-2299498D01*
X22213067Y-2191387D01*
X22263221Y-2102376D01*
X22277379Y-2058281D01*
X22294454Y-2005099D01*
X22305488Y-1903529D01*
X22305500Y-1900000D01*
X22300133Y-1847159D01*
X22295175Y-1798354D01*
X22264623Y-1700862D01*
X22215091Y-1611504D01*
X22148604Y-1533932D01*
X22128701Y-1518494D01*
X22067874Y-1471312D01*
X21976203Y-1426204D01*
X21976198Y-1426203D01*
X21915207Y-1396191D01*
X21944454Y-1305099D01*
X21955488Y-1203529D01*
X21955500Y-1200000D01*
X21955466Y-1199657D01*
X21945175Y-1098354D01*
X21914623Y-1000862D01*
X21865091Y-911504D01*
X21841702Y-884216D01*
X21798603Y-833931D01*
X21798602Y-833930D01*
X21769090Y-799498D01*
X21863067Y-691387D01*
X21913221Y-602376D01*
X21915896Y-594046D01*
X21944454Y-505099D01*
X21955488Y-403529D01*
X21955500Y-400000D01*
X21955487Y-399864D01*
X21945175Y-298354D01*
X21914623Y-200862D01*
X21865091Y-111504D01*
X21808527Y-45510D01*
X21798603Y-33931D01*
X21798602Y-33930D01*
X21769090Y502D01*
X21863067Y108613D01*
X21913221Y197624D01*
X21920287Y219632D01*
X21929689Y248917D01*
X24149364Y248917D01*
X24156736Y210090D01*
X24168958Y145718D01*
X24207712Y48084D01*
X24264230Y-40461D01*
X24336471Y-116721D01*
X24421830Y-177944D01*
X24452980Y-200286D01*
X24397197Y-239857D01*
X24338658Y-281382D01*
X24266019Y-357262D01*
X24209038Y-445510D01*
X24169773Y-542940D01*
X24168229Y-550846D01*
X24149639Y-646036D01*
X24149364Y-751083D01*
X24158557Y-799498D01*
X24168958Y-854282D01*
X24202406Y-938548D01*
X24207712Y-951916D01*
X24264230Y-1040461D01*
X24336471Y-1116721D01*
X24421832Y-1177946D01*
X24517221Y-1221920D01*
X24517222Y-1221920D01*
X24517226Y-1221922D01*
X24619216Y-1247068D01*
X24619217Y-1247068D01*
X24619221Y-1247069D01*
X24724120Y-1252475D01*
X24769283Y-1246167D01*
X24828157Y-1237945D01*
X24828162Y-1237943D01*
X24846386Y-1235398D01*
X24861058Y-1312672D01*
X24868958Y-1354282D01*
X24898984Y-1429927D01*
X24907712Y-1451916D01*
X24964230Y-1540461D01*
X25036471Y-1616721D01*
X25121832Y-1677946D01*
X25217221Y-1721920D01*
X25217222Y-1721920D01*
X25217226Y-1721922D01*
X25319216Y-1747068D01*
X25319217Y-1747068D01*
X25319221Y-1747069D01*
X25424121Y-1752475D01*
X25528154Y-1737946D01*
X25539771Y-1733980D01*
X25627567Y-1704006D01*
X25629543Y-1702877D01*
X25718767Y-1651881D01*
X25798464Y-1583453D01*
X25863787Y-1501184D01*
X25912369Y-1408054D01*
X25912467Y-1407728D01*
X25928451Y-1354281D01*
X25942468Y-1307414D01*
X25952992Y-1202895D01*
X25953000Y-1199997D01*
X25943024Y-1095431D01*
X25923989Y-1030548D01*
X25913453Y-994634D01*
X25888152Y-945509D01*
X25865356Y-901248D01*
X25827044Y-852474D01*
X25800467Y-818640D01*
X25792079Y-811361D01*
X25663239Y-699558D01*
X25721740Y-649328D01*
X31496913Y-649328D01*
X31509223Y-710380D01*
X31517107Y-749482D01*
X31557026Y-843525D01*
X31564447Y-854282D01*
X31615042Y-927625D01*
X31688783Y-998339D01*
X31739930Y-1030548D01*
X31768695Y-1048662D01*
X31775237Y-1052782D01*
X31870872Y-1088729D01*
X31924096Y-1097159D01*
X31971780Y-1104712D01*
X31971782Y-1104712D01*
X32073845Y-1100077D01*
X32076355Y-1099442D01*
X32172888Y-1075016D01*
X32172889Y-1075015D01*
X32172891Y-1075015D01*
X32264875Y-1030548D01*
X32346039Y-968494D01*
X32346043Y-968491D01*
X32413065Y-891390D01*
X32417108Y-884216D01*
X32463221Y-802376D01*
X32480134Y-749699D01*
X36349364Y-749699D01*
X36358913Y-799989D01*
X36368958Y-852898D01*
X36400179Y-931554D01*
X36407712Y-950532D01*
X36464230Y-1039077D01*
X36536471Y-1115337D01*
X36621832Y-1176562D01*
X36717221Y-1220536D01*
X36717222Y-1220536D01*
X36717226Y-1220538D01*
X36819216Y-1245684D01*
X36819217Y-1245684D01*
X36819221Y-1245685D01*
X36924121Y-1251091D01*
X37028154Y-1236562D01*
X37028157Y-1236561D01*
X37127567Y-1202622D01*
X37132869Y-1199592D01*
X37218767Y-1150497D01*
X37298464Y-1082069D01*
X37363787Y-999800D01*
X37412369Y-906670D01*
X37413352Y-903386D01*
X37428037Y-854282D01*
X37442468Y-806030D01*
X37452992Y-701511D01*
X37453000Y-698613D01*
X37443024Y-594047D01*
X37416929Y-505099D01*
X37413453Y-493250D01*
X37388865Y-445510D01*
X37365356Y-399864D01*
X37323956Y-347159D01*
X37300467Y-317256D01*
X37298679Y-315704D01*
X37280930Y-300303D01*
X37221129Y-248410D01*
X37137442Y-199996D01*
X37130205Y-195809D01*
X37130204Y-195809D01*
X37130203Y-195808D01*
X37030971Y-161349D01*
X36927014Y-146276D01*
X36830610Y-150738D01*
X36822080Y-151133D01*
X36773853Y-162756D01*
X36719961Y-175744D01*
X36719960Y-175745D01*
X36719958Y-175745D01*
X36624336Y-219221D01*
X36595246Y-239857D01*
X36538658Y-279998D01*
X36466019Y-355878D01*
X36409038Y-444126D01*
X36369773Y-541556D01*
X36349639Y-644652D01*
X36349364Y-749699D01*
X32480134Y-749699D01*
X32494454Y-705099D01*
X32505488Y-603529D01*
X32505500Y-600000D01*
X32504896Y-594047D01*
X32495175Y-498354D01*
X32464623Y-400862D01*
X32415091Y-311504D01*
X32348604Y-233932D01*
X32329640Y-219222D01*
X32267874Y-171312D01*
X32176203Y-126204D01*
X32077334Y-100451D01*
X31975306Y-95103D01*
X31975304Y-95103D01*
X31874291Y-110380D01*
X31874289Y-110381D01*
X31874287Y-110381D01*
X31778403Y-145660D01*
X31778402Y-145661D01*
X31778401Y-145661D01*
X31753099Y-161349D01*
X31691572Y-199498D01*
X31638717Y-249480D01*
X31617337Y-269698D01*
X31581124Y-321416D01*
X31558738Y-353387D01*
X31519472Y-444125D01*
X31518162Y-447152D01*
X31498151Y-542941D01*
X31497269Y-547161D01*
X31496913Y-649328D01*
X25721740Y-649328D01*
X25733462Y-639264D01*
X25798465Y-583451D01*
X25798752Y-583090D01*
X25863787Y-501184D01*
X25912369Y-408054D01*
X25913723Y-403529D01*
X25927973Y-355879D01*
X25942468Y-307414D01*
X25952992Y-202895D01*
X25953000Y-199997D01*
X25943024Y-95431D01*
X25921143Y-20848D01*
X25913453Y5366D01*
X25889003Y52839D01*
X25865356Y98752D01*
X25825616Y149343D01*
X25800467Y181360D01*
X25800337Y181473D01*
X25663239Y300442D01*
X25739672Y366068D01*
X25798465Y416549D01*
X25798466Y416550D01*
X25863787Y498816D01*
X25912369Y591946D01*
X25915505Y602429D01*
X25927560Y642738D01*
X25942468Y692586D01*
X25952992Y797105D01*
X25953000Y800003D01*
X25943024Y904569D01*
X25920398Y981692D01*
X25913453Y1005366D01*
X25865355Y1098753D01*
X25856488Y1110042D01*
X25840118Y1130882D01*
X36496913Y1130882D01*
X36509299Y1069452D01*
X36517107Y1030728D01*
X36557026Y936685D01*
X36557027Y936684D01*
X36615042Y852585D01*
X36688783Y781871D01*
X36775237Y727428D01*
X36870872Y691481D01*
X36931418Y681891D01*
X36971780Y675498D01*
X36971782Y675498D01*
X37073845Y680133D01*
X37123068Y692588D01*
X37172888Y705194D01*
X37172889Y705195D01*
X37172891Y705195D01*
X37264875Y749662D01*
X37346039Y811716D01*
X37346043Y811719D01*
X37413065Y888820D01*
X37413516Y889619D01*
X37463221Y977834D01*
X37494454Y1075111D01*
X37505488Y1176681D01*
X37505500Y1180210D01*
X37505384Y1181360D01*
X37495175Y1281856D01*
X37464623Y1379348D01*
X37415091Y1468706D01*
X37348604Y1546278D01*
X37343135Y1550520D01*
X37267874Y1608898D01*
X37176203Y1654006D01*
X37077334Y1679759D01*
X36975306Y1685107D01*
X36975304Y1685107D01*
X36874291Y1669830D01*
X36874289Y1669829D01*
X36874287Y1669829D01*
X36778403Y1634550D01*
X36778402Y1634549D01*
X36778401Y1634549D01*
X36776169Y1633165D01*
X36691572Y1580712D01*
X36657184Y1548193D01*
X36617337Y1510512D01*
X36602745Y1489672D01*
X36558738Y1426823D01*
X36531796Y1364564D01*
X36518162Y1333058D01*
X36502163Y1256474D01*
X36497269Y1233049D01*
X36496913Y1130882D01*
X25840118Y1130882D01*
X25807524Y1172376D01*
X25800467Y1181360D01*
X25721129Y1250206D01*
X25630203Y1302808D01*
X25530971Y1337267D01*
X25427014Y1352340D01*
X25330610Y1347878D01*
X25322080Y1347483D01*
X25269737Y1334868D01*
X25219961Y1322872D01*
X25219960Y1322871D01*
X25219958Y1322871D01*
X25124336Y1279395D01*
X25098426Y1261015D01*
X25038658Y1218618D01*
X24966019Y1142738D01*
X24909038Y1054490D01*
X24878145Y977834D01*
X24869773Y957060D01*
X24845954Y835095D01*
X24801435Y841549D01*
X24727014Y852340D01*
X24630277Y847862D01*
X24622080Y847483D01*
X24570679Y835095D01*
X24519961Y822872D01*
X24519960Y822871D01*
X24519958Y822871D01*
X24424336Y779395D01*
X24398449Y761031D01*
X24338658Y718618D01*
X24266019Y642738D01*
X24209038Y554490D01*
X24170530Y458938D01*
X24169773Y457059D01*
X24149639Y353964D01*
X24149364Y248917D01*
X21929689Y248917D01*
X21944454Y294901D01*
X21955488Y396471D01*
X21955500Y400000D01*
X21950133Y452841D01*
X21945175Y501646D01*
X21914623Y599138D01*
X21865091Y688496D01*
X21798604Y766068D01*
X21758591Y797105D01*
X21717874Y828688D01*
X21626203Y873796D01*
X21527334Y899549D01*
X21425306Y904897D01*
X21425304Y904897D01*
X21324291Y889620D01*
X21324289Y889619D01*
X21324287Y889619D01*
X21228403Y854340D01*
X21228402Y854339D01*
X21228401Y854339D01*
X21217344Y847483D01*
X21141572Y800502D01*
X21087810Y749662D01*
X21067337Y730302D01*
X21040155Y691481D01*
X21008738Y646613D01*
X20979328Y578650D01*
X20968162Y552848D01*
X20947583Y454340D01*
X20947269Y452839D01*
X20946913Y350672D01*
X20959450Y288496D01*
X20967107Y250518D01*
X21007026Y156475D01*
X21014447Y145718D01*
X21065042Y72375D01*
X21134920Y5366D01*
X21140777Y-251D01*
X21067339Y-69696D01*
X21008738Y-153387D01*
X20979650Y-220606D01*
X20968162Y-247152D01*
X20947432Y-346382D01*
X20947269Y-347161D01*
X20946913Y-449328D01*
X20959097Y-509755D01*
X20967107Y-549482D01*
X21007026Y-643526D01*
X21023427Y-667299D01*
X21036486Y-703970D01*
X21029459Y-742257D01*
X21004231Y-771901D01*
X20967560Y-784960D01*
X20925797Y-772513D01*
X20924728Y-774685D01*
X20917875Y-771313D01*
X20917874Y-771312D01*
X20826203Y-726204D01*
X20727334Y-700451D01*
X20625306Y-695103D01*
X20625304Y-695103D01*
X20524291Y-710380D01*
X20524289Y-710381D01*
X20524287Y-710381D01*
X20428403Y-745660D01*
X20428402Y-745661D01*
X20428401Y-745661D01*
X20341570Y-799499D01*
X20246304Y-889585D01*
X20198603Y-833931D01*
X20195538Y-831553D01*
X20135469Y-784960D01*
X20117874Y-771312D01*
X20026203Y-726204D01*
X19927334Y-700451D01*
X19825306Y-695103D01*
X19825304Y-695103D01*
X19724291Y-710380D01*
X19724289Y-710381D01*
X19724287Y-710381D01*
X19628403Y-745660D01*
X19628402Y-745661D01*
X19628401Y-745661D01*
X19576205Y-778024D01*
X19538940Y-789275D01*
X19501042Y-780386D01*
X19472666Y-753739D01*
X19461415Y-716474D01*
X19471062Y-677197D01*
X19471101Y-677129D01*
X19513221Y-602376D01*
X19544454Y-505099D01*
X19555488Y-403529D01*
X19555500Y-400000D01*
X19555487Y-399864D01*
X19545175Y-298354D01*
X19514623Y-200862D01*
X19465091Y-111504D01*
X19408527Y-45510D01*
X19398603Y-33931D01*
X19398602Y-33930D01*
X19369090Y502D01*
X19463067Y108613D01*
X19513221Y197624D01*
X19520287Y219632D01*
X19544454Y294901D01*
X19555488Y396471D01*
X19555500Y400000D01*
X19550133Y452841D01*
X19545175Y501646D01*
X19514623Y599138D01*
X19465091Y688496D01*
X19398604Y766068D01*
X19358591Y797105D01*
X19317874Y828688D01*
X19226203Y873796D01*
X19127334Y899549D01*
X19025306Y904897D01*
X19025304Y904897D01*
X18924291Y889620D01*
X18924289Y889619D01*
X18924287Y889619D01*
X18828403Y854340D01*
X18828402Y854339D01*
X18828401Y854339D01*
X18817344Y847483D01*
X18741572Y800502D01*
X18687810Y749662D01*
X18667337Y730302D01*
X18640155Y691481D01*
X18608738Y646613D01*
X18579328Y578650D01*
X18568162Y552848D01*
X18547583Y454340D01*
X18547269Y452839D01*
X18546913Y350672D01*
X18559450Y288496D01*
X18567107Y250518D01*
X18607026Y156475D01*
X18614447Y145718D01*
X18665042Y72375D01*
X18734920Y5366D01*
X18740777Y-251D01*
X18667339Y-69696D01*
X18608738Y-153387D01*
X18579650Y-220606D01*
X18568162Y-247152D01*
X18547432Y-346382D01*
X18547269Y-347161D01*
X18546913Y-449328D01*
X18559097Y-509755D01*
X18567107Y-549482D01*
X18607026Y-643525D01*
X18613229Y-652517D01*
X18665042Y-727625D01*
X18722717Y-782932D01*
X18740777Y-800251D01*
X18667339Y-869696D01*
X18608738Y-953387D01*
X18570925Y-1040768D01*
X18568162Y-1047152D01*
X18547504Y-1146037D01*
X18547269Y-1147161D01*
X18546913Y-1249328D01*
X18562079Y-1324542D01*
X18579034Y-1408635D01*
X18574290Y-1410381D01*
X18574287Y-1410381D01*
X18478403Y-1445660D01*
X18478402Y-1445661D01*
X18478401Y-1445661D01*
X18439863Y-1469556D01*
X18391572Y-1499498D01*
X18331287Y-1556506D01*
X18317337Y-1569698D01*
X18294172Y-1602782D01*
X18258738Y-1653387D01*
X18218198Y-1747068D01*
X18218162Y-1747152D01*
X18197583Y-1845660D01*
X18197269Y-1847161D01*
X18196913Y-1949328D01*
X15700500Y-1949328D01*
X15700500Y2350672D01*
X27796913Y2350672D01*
X27810969Y2280960D01*
X27817107Y2250518D01*
X27857026Y2156475D01*
X27857027Y2156474D01*
X27915042Y2072375D01*
X27988783Y2001661D01*
X28075237Y1947218D01*
X28170872Y1911271D01*
X28231418Y1901681D01*
X28271780Y1895288D01*
X28271782Y1895288D01*
X28373845Y1899923D01*
X28418693Y1911271D01*
X28472888Y1924984D01*
X28472889Y1924985D01*
X28472891Y1924985D01*
X28564875Y1969452D01*
X28646039Y2031506D01*
X28646043Y2031509D01*
X28713065Y2108610D01*
X28714565Y2111271D01*
X28763221Y2197624D01*
X28794454Y2294901D01*
X28805488Y2396471D01*
X28805500Y2400000D01*
X28804688Y2407999D01*
X28795175Y2501646D01*
X28764623Y2599138D01*
X28715091Y2688496D01*
X28648604Y2766068D01*
X28648171Y2766404D01*
X28567874Y2828688D01*
X28476203Y2873796D01*
X28377334Y2899549D01*
X28275306Y2904897D01*
X28275304Y2904897D01*
X28174291Y2889620D01*
X28174289Y2889619D01*
X28174287Y2889619D01*
X28078403Y2854340D01*
X28078402Y2854339D01*
X28078401Y2854339D01*
X28044603Y2833383D01*
X27991572Y2800502D01*
X27918050Y2730976D01*
X27917337Y2730302D01*
X27895516Y2699138D01*
X27858738Y2646613D01*
X27837038Y2596467D01*
X27818162Y2552848D01*
X27798692Y2459649D01*
X27797269Y2452839D01*
X27796913Y2350672D01*
X15700500Y2350672D01*
X15700500Y3034216D01*
X15703000Y3050000D01*
X15700000Y3068940D01*
X15700000Y3200000D01*
X15633550Y3200000D01*
X15619320Y3214230D01*
X15562730Y3243064D01*
X15515784Y3250500D01*
X15500000Y3253000D01*
X15484216Y3250500D01*
X200500Y3250500D01*
X200500Y4050672D01*
X6596913Y4050672D01*
X6608625Y3992588D01*
X6617107Y3950518D01*
X6657026Y3856475D01*
X6662814Y3848085D01*
X6715042Y3772375D01*
X6788783Y3701661D01*
X6839930Y3669452D01*
X6863885Y3654367D01*
X6875237Y3647218D01*
X6970872Y3611271D01*
X7031418Y3601681D01*
X7071780Y3595288D01*
X7071782Y3595288D01*
X7173845Y3599923D01*
X7240544Y3616800D01*
X7272888Y3624984D01*
X7272889Y3624985D01*
X7272891Y3624985D01*
X7364875Y3669452D01*
X7446039Y3731506D01*
X7446043Y3731509D01*
X7513065Y3808610D01*
X7514565Y3811271D01*
X7563221Y3897624D01*
X7594454Y3994901D01*
X7600512Y4050672D01*
X31296913Y4050672D01*
X31308625Y3992588D01*
X31317107Y3950518D01*
X31357026Y3856475D01*
X31362814Y3848085D01*
X31415042Y3772375D01*
X31488783Y3701661D01*
X31539930Y3669452D01*
X31563885Y3654367D01*
X31575237Y3647218D01*
X31670872Y3611271D01*
X31731418Y3601681D01*
X31771780Y3595288D01*
X31771782Y3595288D01*
X31873845Y3599923D01*
X31940544Y3616800D01*
X31972888Y3624984D01*
X31972889Y3624985D01*
X31972891Y3624985D01*
X32064875Y3669452D01*
X32146039Y3731506D01*
X32146043Y3731509D01*
X32213065Y3808610D01*
X32214565Y3811271D01*
X32263221Y3897624D01*
X32294454Y3994901D01*
X32300321Y4048917D01*
X35549364Y4048917D01*
X35558651Y4000004D01*
X35568958Y3945718D01*
X35604381Y3856475D01*
X35607712Y3848084D01*
X35664230Y3759539D01*
X35736471Y3683279D01*
X35821832Y3622054D01*
X35917221Y3578080D01*
X35917222Y3578080D01*
X35917226Y3578078D01*
X36019216Y3552932D01*
X36019217Y3552932D01*
X36019221Y3552931D01*
X36124121Y3547525D01*
X36228154Y3562054D01*
X36249823Y3569452D01*
X36327567Y3595994D01*
X36334442Y3599923D01*
X36418767Y3648119D01*
X36498464Y3716547D01*
X36563787Y3798816D01*
X36612369Y3891946D01*
X36642468Y3992586D01*
X36652992Y4097105D01*
X36653000Y4100003D01*
X36643024Y4204569D01*
X36618402Y4288496D01*
X36613453Y4305366D01*
X36589003Y4352839D01*
X36565356Y4398752D01*
X36506409Y4473795D01*
X36500467Y4481360D01*
X36421129Y4550206D01*
X36336547Y4599138D01*
X36330205Y4602807D01*
X36330204Y4602807D01*
X36330203Y4602808D01*
X36230971Y4637267D01*
X36127014Y4652340D01*
X36030610Y4647878D01*
X36022080Y4647483D01*
X35965231Y4633782D01*
X35919961Y4622872D01*
X35919960Y4622871D01*
X35919958Y4622871D01*
X35824336Y4579395D01*
X35789015Y4554339D01*
X35738658Y4518618D01*
X35666019Y4442738D01*
X35609038Y4354490D01*
X35569773Y4257060D01*
X35568020Y4248084D01*
X35549639Y4153964D01*
X35549364Y4048917D01*
X32300321Y4048917D01*
X32305488Y4096471D01*
X32305500Y4100000D01*
X32304626Y4108610D01*
X32295175Y4201646D01*
X32264623Y4299138D01*
X32215091Y4388496D01*
X32148604Y4466068D01*
X32148603Y4466069D01*
X32067874Y4528688D01*
X31976203Y4573796D01*
X31877334Y4599549D01*
X31775306Y4604897D01*
X31775304Y4604897D01*
X31674291Y4589620D01*
X31674289Y4589619D01*
X31674287Y4589619D01*
X31578403Y4554340D01*
X31578402Y4554339D01*
X31578401Y4554339D01*
X31537031Y4528688D01*
X31491572Y4500502D01*
X31417339Y4430304D01*
X31417337Y4430302D01*
X31388065Y4388496D01*
X31358738Y4346613D01*
X31325347Y4269452D01*
X31318162Y4252848D01*
X31297271Y4152848D01*
X31297269Y4152839D01*
X31296913Y4050672D01*
X7600512Y4050672D01*
X7605488Y4096471D01*
X7605500Y4100000D01*
X7604626Y4108610D01*
X7595175Y4201646D01*
X7564623Y4299138D01*
X7515091Y4388496D01*
X7448604Y4466068D01*
X7448603Y4466069D01*
X7367874Y4528688D01*
X7276203Y4573796D01*
X7177334Y4599549D01*
X7075306Y4604897D01*
X7075304Y4604897D01*
X6974291Y4589620D01*
X6974289Y4589619D01*
X6974287Y4589619D01*
X6878403Y4554340D01*
X6878402Y4554339D01*
X6878401Y4554339D01*
X6837031Y4528688D01*
X6791572Y4500502D01*
X6717339Y4430304D01*
X6717337Y4430302D01*
X6688065Y4388496D01*
X6658738Y4346613D01*
X6625347Y4269452D01*
X6618162Y4252848D01*
X6597271Y4152848D01*
X6597269Y4152839D01*
X6596913Y4050672D01*
X200500Y4050672D01*
X200500Y5299500D01*
X76850766Y5299500D01*
X76888366Y5289425D01*
G37*
G04 #@! TD.AperFunction*
G04 #@! TD*
G04 #@! TA.AperFunction,Conductor*
G04 #@! TO.N,IN*
G36*
X84521553Y-3710635D02*
G01*
X84639415Y-3742215D01*
X84750000Y-3793782D01*
X84812487Y-3837536D01*
X84849953Y-3863771D01*
X84936229Y-3950047D01*
X84962464Y-3987513D01*
X85006218Y-4050000D01*
X85057785Y-4160586D01*
X85089365Y-4278446D01*
X85100000Y-4400000D01*
X85089365Y-4521554D01*
X85057785Y-4639414D01*
X85006218Y-4750000D01*
X84962464Y-4812487D01*
X84936229Y-4849953D01*
X84849953Y-4936229D01*
X84812487Y-4962464D01*
X84750000Y-5006218D01*
X84639415Y-5057785D01*
X84521553Y-5089365D01*
X84399998Y-5100000D01*
X25000002Y-5100000D01*
X24878447Y-5089365D01*
X24760585Y-5057785D01*
X24650000Y-5006218D01*
X24587513Y-4962464D01*
X24550047Y-4936229D01*
X24463771Y-4849953D01*
X24437536Y-4812487D01*
X24393782Y-4750000D01*
X24342215Y-4639414D01*
X24310635Y-4521554D01*
X24300000Y-4400000D01*
X24310635Y-4278446D01*
X24342215Y-4160586D01*
X24393782Y-4050000D01*
X24437536Y-3987513D01*
X24463771Y-3950047D01*
X24550047Y-3863771D01*
X24587513Y-3837536D01*
X24650000Y-3793782D01*
X24760585Y-3742215D01*
X24878447Y-3710635D01*
X25000002Y-3700000D01*
X84399998Y-3700000D01*
X84521553Y-3710635D01*
G37*
G04 #@! TD.AperFunction*
G04 #@! TD*
M02*
