G04 #@! TF.GenerationSoftware,KiCad,Pcbnew,(5.99.0-3477-gacf13a186)*
G04 #@! TF.CreationDate,2020-09-30T00:07:38-07:00*
G04 #@! TF.ProjectId,RT_USB_PD_Soldering_Iron,52545f55-5342-45f5-9044-5f536f6c6465,rev?*
G04 #@! TF.SameCoordinates,PX5f5e100PY7735940*
G04 #@! TF.FileFunction,Copper,L2,Inr*
G04 #@! TF.FilePolarity,Positive*
%FSLAX46Y46*%
G04 Gerber Fmt 4.6, Leading zero omitted, Abs format (unit mm)*
G04 Created by KiCad (PCBNEW (5.99.0-3477-gacf13a186)) date 2020-09-30 00:07:38*
%MOMM*%
%LPD*%
G01*
G04 APERTURE LIST*
G04 #@! TA.AperFunction,ViaPad*
%ADD10C,0.700000*%
G04 #@! TD*
G04 #@! TA.AperFunction,ViaPad*
%ADD11C,1.000000*%
G04 #@! TD*
G04 #@! TA.AperFunction,ViaPad*
%ADD12C,0.800000*%
G04 #@! TD*
G04 #@! TA.AperFunction,ViaPad*
%ADD13C,0.605000*%
G04 #@! TD*
G04 #@! TA.AperFunction,Conductor*
%ADD14C,0.500000*%
G04 #@! TD*
G04 #@! TA.AperFunction,Conductor*
%ADD15C,0.600000*%
G04 #@! TD*
G04 #@! TA.AperFunction,Conductor*
%ADD16C,0.254000*%
G04 #@! TD*
G04 #@! TA.AperFunction,Conductor*
%ADD17C,0.203200*%
G04 #@! TD*
G04 APERTURE END LIST*
D10*
G04 #@! TO.N,IN*
X24700000Y300000D03*
X24700000Y-700000D03*
D11*
X84400000Y-4400000D03*
D10*
X25400000Y800000D03*
D11*
X24950000Y-4400000D03*
X91700000Y2400000D03*
X83000000Y-4400000D03*
D10*
X25400000Y-200000D03*
D11*
X91700000Y-2400000D03*
D10*
X25400000Y-1200000D03*
D12*
G04 #@! TO.N,+3V3*
X73700000Y-900000D03*
X71500000Y-898157D03*
X52600000Y-3000000D03*
D10*
X36900000Y-698616D03*
X40800000Y-300000D03*
X51605846Y3956118D03*
X85250000Y-1200000D03*
D12*
X62300000Y-898157D03*
D10*
X36100000Y4100000D03*
X53700000Y4500000D03*
D12*
X82100000Y-954332D03*
D10*
X40800000Y4100000D03*
D13*
G04 #@! TO.N,/BTN1*
X79570952Y-3046790D03*
X56867571Y-1835625D03*
G04 #@! TO.N,/BTN2*
X77100000Y4700000D03*
X55100000Y4400000D03*
G04 #@! TO.N,Net-(C10-Pad1)*
X81800000Y0D03*
X73300000Y0D03*
G04 #@! TO.N,/HEATER*
X21800000Y-2700000D03*
X19050000Y-1200000D03*
X19850000Y-1200000D03*
X18700000Y-2700000D03*
X21450000Y-400000D03*
X19050000Y-400000D03*
X18700000Y-1900000D03*
X21800000Y-1900000D03*
X19050000Y400000D03*
X20650000Y-1200000D03*
X21450000Y400000D03*
X21450000Y-1200000D03*
G04 #@! TO.N,/OSC_IN*
X48800000Y-3100000D03*
G04 #@! TO.N,/OSC_OUT*
X50400000Y-2702548D03*
G04 #@! TO.N,/TEMP_SENS*
X39400000Y-2500000D03*
X43750000Y-2950000D03*
G04 #@! TO.N,/USB_DP*
X86900000Y3300000D03*
X57080045Y3119790D03*
G04 #@! TO.N,/CC2*
X94400000Y1700000D03*
X57895284Y-1818064D03*
X84600000Y-100000D03*
G04 #@! TO.N,/USB_DM*
X83200000Y4000000D03*
X56000000Y3201874D03*
G04 #@! TO.N,/CC1*
X58538610Y-2480210D03*
X87800000Y-100000D03*
G04 #@! TO.N,/TIP_TC*
X7100000Y4100000D03*
X31800000Y4100000D03*
G04 #@! TO.N,/I2C1_SCL*
X57913030Y128634D03*
X71100000Y1600000D03*
G04 #@! TO.N,/I2C1_SDA*
X60300000Y2600000D03*
X75000000Y1500000D03*
X71100000Y2600000D03*
X55800000Y-2994290D03*
G04 #@! TO.N,/VSENSE*
X32000000Y-600000D03*
X43800000Y-1150000D03*
G04 #@! TO.N,/HEAT_ON*
X48800000Y4100000D03*
X28500000Y-2900000D03*
G04 #@! TO.N,Net-(R16-Pad1)*
X37000000Y1180210D03*
G04 #@! TO.N,Net-(R17-Pad2)*
X34100000Y-2300000D03*
G04 #@! TO.N,/INT0*
X42000000Y4300000D03*
G04 #@! TO.N,/SPI1_MISO*
X48500000Y2519790D03*
G04 #@! TO.N,/SPI1_NSS*
X47600000Y1159370D03*
G04 #@! TO.N,/SPI1_MOSI*
X46180982Y3180982D03*
G04 #@! TO.N,/SPI1_SCK*
X46600000Y1839580D03*
G04 #@! TO.N,/DISP_RST#*
X54487083Y-2994290D03*
X66550667Y553004D03*
G04 #@! TO.N,/NRST*
X49500000Y-2600000D03*
X58000000Y2500000D03*
G04 #@! TO.N,GND*
X50600000Y4400000D03*
X65600000Y600000D03*
X21100000Y3300000D03*
X41600000Y-2000000D03*
X44850000Y-1900000D03*
X81900000Y1300000D03*
X31900000Y1300000D03*
X20300000Y3300000D03*
X53587573Y-3081163D03*
X21700000Y2700000D03*
X26600000Y-1150000D03*
X52400000Y4500000D03*
X700000Y-4200000D03*
X19500000Y3300000D03*
X35100000Y1900000D03*
X4700000Y-4700000D03*
X1300000Y-4700000D03*
X10500000Y-3700000D03*
X76200000Y1600000D03*
X36900000Y-3046790D03*
X35100000Y-200000D03*
X27700000Y3450000D03*
X53000000Y2400000D03*
X54800000Y500000D03*
X18800000Y2700000D03*
X19200000Y-4700000D03*
X26600000Y700000D03*
X82603811Y-2994290D03*
X18800000Y1900000D03*
X21700000Y1900000D03*
X10500000Y-4800000D03*
X31900000Y-2000000D03*
X71700000Y400000D03*
X90000000Y2000000D03*
X53000000Y-1200000D03*
X55100000Y3300000D03*
X86200000Y4000165D03*
X5300000Y-4200000D03*
X51200000Y500000D03*
X39900000Y1800000D03*
X59200000Y2600000D03*
X26600000Y-200000D03*
X19200000Y-3700000D03*
X1300000Y-3700000D03*
X83100000Y1900000D03*
X4700000Y-3700000D03*
X18700000Y-4200000D03*
X48550000Y-1650000D03*
X18200000Y-4700000D03*
G04 #@! TO.N,/HEATER_PG*
X28300000Y2400000D03*
G04 #@! TD*
D14*
G04 #@! TO.N,+3V3*
X54701843Y-898157D02*
X52600000Y-3000000D01*
X82045668Y-900000D02*
X73700000Y-900000D01*
X40401384Y-698616D02*
X40800000Y-300000D01*
D15*
X82043825Y-898157D02*
X82100000Y-954332D01*
D14*
X62300000Y-898157D02*
X54701843Y-898157D01*
X51955845Y3606119D02*
X51605846Y3956118D01*
X71500000Y-898157D02*
X73698157Y-898157D01*
X36900000Y-698616D02*
X40401384Y-698616D01*
X52806119Y3606119D02*
X51955845Y3606119D01*
X40800000Y4100000D02*
X36100000Y4100000D01*
X73698157Y-898157D02*
X73700000Y-900000D01*
X82100000Y-954332D02*
X82045668Y-900000D01*
X53700000Y4500000D02*
X52806119Y3606119D01*
D16*
G04 #@! TO.N,/BTN1*
X58231946Y-3200000D02*
X79417742Y-3200000D01*
X79417742Y-3200000D02*
X79570952Y-3046790D01*
X56867571Y-1835625D02*
X58231946Y-3200000D01*
G04 #@! TO.N,/BTN2*
X55400000Y4700000D02*
X77100000Y4700000D01*
X55100000Y4400000D02*
X55400000Y4700000D01*
D17*
G04 #@! TO.N,Net-(C10-Pad1)*
X73300000Y0D02*
X81800000Y0D01*
G04 #@! TO.N,/TEMP_SENS*
X39850000Y-2950000D02*
X43750000Y-2950000D01*
X39400000Y-2500000D02*
X39850000Y-2950000D01*
D16*
G04 #@! TO.N,/USB_DP*
X86900000Y3300000D02*
X57260255Y3300000D01*
X57260255Y3300000D02*
X57080045Y3119790D01*
G04 #@! TO.N,/CC2*
X93500000Y800000D02*
X94400000Y1700000D01*
X85500000Y800000D02*
X93500000Y800000D01*
X84600000Y-100000D02*
X82900000Y-1800000D01*
X84600000Y-100000D02*
X85500000Y800000D01*
X57913348Y-1800000D02*
X57895284Y-1818064D01*
X82900000Y-1800000D02*
X57913348Y-1800000D01*
G04 #@! TO.N,/USB_DM*
X56000000Y3201874D02*
X56598126Y3800000D01*
X83000000Y3800000D02*
X83200000Y4000000D01*
X56598126Y3800000D02*
X83000000Y3800000D01*
G04 #@! TO.N,/CC1*
X87800000Y-100000D02*
X85538411Y-2361589D01*
X85538411Y-2361589D02*
X58657231Y-2361589D01*
X58657231Y-2361589D02*
X58538610Y-2480210D01*
D14*
G04 #@! TO.N,/TIP_TC*
X31450001Y4449999D02*
X31800000Y4100000D01*
X7449999Y4449999D02*
X31450001Y4449999D01*
X7100000Y4100000D02*
X7449999Y4449999D01*
D16*
G04 #@! TO.N,/I2C1_SCL*
X59384396Y1600000D02*
X71100000Y1600000D01*
X57913030Y128634D02*
X59384396Y1600000D01*
G04 #@! TO.N,/I2C1_SDA*
X75000000Y1500000D02*
X72200000Y1500000D01*
X60300000Y2600000D02*
X71100000Y2600000D01*
X72200000Y1500000D02*
X71100000Y2600000D01*
D17*
G04 #@! TO.N,/VSENSE*
X32800000Y-1400000D02*
X41000000Y-1400000D01*
X32000000Y-600000D02*
X32800000Y-1400000D01*
X41000000Y-1400000D02*
X41250000Y-1150000D01*
X41250000Y-1150000D02*
X43800000Y-1150000D01*
D16*
G04 #@! TO.N,/HEAT_ON*
X41900000Y500000D02*
X31900000Y500000D01*
X45500000Y4100000D02*
X41900000Y500000D01*
X31900000Y500000D02*
X28500000Y-2900000D01*
X48800000Y4100000D02*
X45500000Y4100000D01*
G04 #@! TO.N,/NRST*
X57650001Y2150001D02*
X54250001Y2150001D01*
X58000000Y2500000D02*
X57650001Y2150001D01*
X54250001Y2150001D02*
X49500000Y-2600000D01*
G04 #@! TD*
G04 #@! TA.AperFunction,Conductor*
G04 #@! TO.N,GND*
G36*
X76888366Y5289425D02*
G01*
X76915891Y5261900D01*
X76925966Y5224300D01*
X76915891Y5186700D01*
X76883985Y5159832D01*
X76884895Y5158365D01*
X76878404Y5154340D01*
X76878403Y5154340D01*
X76791572Y5100502D01*
X76717339Y5030304D01*
X76714374Y5027500D01*
X55435685Y5027500D01*
X55431056Y5028535D01*
X55431055Y5028535D01*
X55422820Y5028276D01*
X55398114Y5027500D01*
X55380208Y5027500D01*
X55374281Y5026751D01*
X55348375Y5025937D01*
X55333402Y5021586D01*
X55317933Y5019633D01*
X55293828Y5010090D01*
X55268942Y5002859D01*
X55255521Y4994922D01*
X55241023Y4989182D01*
X55241022Y4989182D01*
X55241021Y4989181D01*
X55220049Y4973944D01*
X55197740Y4960751D01*
X55196522Y4959677D01*
X55186189Y4949344D01*
X55174101Y4940562D01*
X55174099Y4940560D01*
X55158266Y4921421D01*
X55138433Y4901588D01*
X55103605Y4903414D01*
X55075306Y4904897D01*
X55075304Y4904897D01*
X54974291Y4889620D01*
X54974289Y4889619D01*
X54974287Y4889619D01*
X54878403Y4854340D01*
X54878402Y4854339D01*
X54878401Y4854339D01*
X54865031Y4846049D01*
X54791572Y4800502D01*
X54731174Y4743387D01*
X54717337Y4730302D01*
X54678272Y4674510D01*
X54658738Y4646613D01*
X54629650Y4579395D01*
X54618162Y4552848D01*
X54597271Y4452848D01*
X54597269Y4452839D01*
X54596913Y4350672D01*
X54608754Y4291948D01*
X54617107Y4250518D01*
X54657026Y4156475D01*
X54670064Y4137575D01*
X54715042Y4072375D01*
X54788783Y4001661D01*
X54839930Y3969452D01*
X54869997Y3950518D01*
X54875237Y3947218D01*
X54970872Y3911271D01*
X55031418Y3901681D01*
X55071780Y3895288D01*
X55071782Y3895288D01*
X55173845Y3899923D01*
X55218693Y3911271D01*
X55272888Y3924984D01*
X55272889Y3924985D01*
X55272891Y3924985D01*
X55364875Y3969452D01*
X55446039Y4031506D01*
X55446043Y4031509D01*
X55513065Y4108610D01*
X55513899Y4110089D01*
X55563221Y4197624D01*
X55594454Y4294901D01*
X55602884Y4372500D01*
X76714910Y4372500D01*
X76768177Y4321421D01*
X76788783Y4301661D01*
X76844883Y4266333D01*
X76871330Y4237772D01*
X76879955Y4199813D01*
X76868444Y4162628D01*
X76839882Y4136180D01*
X76804810Y4127500D01*
X56633811Y4127500D01*
X56629182Y4128535D01*
X56629181Y4128535D01*
X56620947Y4128276D01*
X56596240Y4127500D01*
X56578334Y4127500D01*
X56572407Y4126751D01*
X56546501Y4125937D01*
X56531528Y4121586D01*
X56516059Y4119633D01*
X56491954Y4110090D01*
X56467068Y4102859D01*
X56453647Y4094922D01*
X56439149Y4089182D01*
X56439148Y4089182D01*
X56439147Y4089181D01*
X56418175Y4073944D01*
X56395866Y4060751D01*
X56394648Y4059677D01*
X56384315Y4049344D01*
X56382629Y4048119D01*
X56372225Y4040560D01*
X56356392Y4021421D01*
X56038435Y3703463D01*
X55978300Y3706614D01*
X55975306Y3706771D01*
X55975305Y3706771D01*
X55874291Y3691494D01*
X55874289Y3691493D01*
X55874287Y3691493D01*
X55778403Y3656214D01*
X55778402Y3656213D01*
X55778401Y3656213D01*
X55763894Y3647218D01*
X55691572Y3602376D01*
X55633568Y3547525D01*
X55617337Y3532176D01*
X55602710Y3511286D01*
X55558738Y3448487D01*
X55538468Y3401646D01*
X55518162Y3354722D01*
X55501014Y3272638D01*
X55497269Y3254713D01*
X55496913Y3152546D01*
X55510210Y3086601D01*
X55517107Y3052392D01*
X55557026Y2958349D01*
X55559792Y2954340D01*
X55615042Y2874249D01*
X55688783Y2803535D01*
X55733672Y2775267D01*
X55769273Y2752848D01*
X55775237Y2749092D01*
X55870872Y2713145D01*
X55931418Y2703555D01*
X55971780Y2697162D01*
X55971782Y2697162D01*
X56073845Y2701797D01*
X56118693Y2713145D01*
X56172888Y2726858D01*
X56172889Y2726859D01*
X56172891Y2726859D01*
X56264875Y2771326D01*
X56346039Y2833380D01*
X56346043Y2833383D01*
X56413065Y2910484D01*
X56418592Y2920292D01*
X56458257Y2990688D01*
X56485493Y3018501D01*
X56522985Y3028969D01*
X56560688Y3019289D01*
X56588501Y2992053D01*
X56594151Y2977334D01*
X56594167Y2977341D01*
X56637071Y2876265D01*
X56652874Y2853357D01*
X56695087Y2792165D01*
X56768828Y2721451D01*
X56811030Y2694875D01*
X56846342Y2672638D01*
X56855282Y2667008D01*
X56950917Y2631061D01*
X56974363Y2627347D01*
X56976714Y2626975D01*
X57012275Y2611142D01*
X57035155Y2579650D01*
X57039224Y2540937D01*
X57023391Y2505376D01*
X56991899Y2482496D01*
X56964950Y2477501D01*
X54285686Y2477501D01*
X54281057Y2478536D01*
X54281056Y2478536D01*
X54272822Y2478277D01*
X54248115Y2477501D01*
X54230209Y2477501D01*
X54224282Y2476752D01*
X54198376Y2475938D01*
X54183403Y2471587D01*
X54167934Y2469634D01*
X54143829Y2460091D01*
X54118943Y2452860D01*
X54105522Y2444923D01*
X54091024Y2439183D01*
X54091023Y2439183D01*
X54091022Y2439182D01*
X54070050Y2423945D01*
X54047741Y2410752D01*
X54046523Y2409678D01*
X54036190Y2399345D01*
X54024101Y2390562D01*
X54024100Y2390561D01*
X54008267Y2371422D01*
X49538435Y-2098411D01*
X49478164Y-2095253D01*
X49475306Y-2095103D01*
X49475305Y-2095103D01*
X49374291Y-2110380D01*
X49374289Y-2110381D01*
X49374287Y-2110381D01*
X49278403Y-2145660D01*
X49278402Y-2145661D01*
X49278401Y-2145661D01*
X49256759Y-2159080D01*
X49191572Y-2199498D01*
X49118610Y-2268494D01*
X49117337Y-2269698D01*
X49096120Y-2300000D01*
X49058738Y-2353387D01*
X49018162Y-2447152D01*
X48997269Y-2547161D01*
X48997269Y-2547164D01*
X48980522Y-2627329D01*
X48877334Y-2600451D01*
X48775306Y-2595103D01*
X48775304Y-2595103D01*
X48674291Y-2610380D01*
X48674289Y-2610381D01*
X48674287Y-2610381D01*
X48578403Y-2645660D01*
X48578402Y-2645661D01*
X48578401Y-2645661D01*
X48560899Y-2656513D01*
X48491572Y-2699498D01*
X48417819Y-2769242D01*
X48417337Y-2769698D01*
X48390766Y-2807646D01*
X48358738Y-2853387D01*
X48318162Y-2947152D01*
X48297347Y-3046790D01*
X48297269Y-3047161D01*
X48296913Y-3149328D01*
X48311304Y-3220700D01*
X48317107Y-3249482D01*
X48357026Y-3343525D01*
X48357027Y-3343526D01*
X48415042Y-3427625D01*
X48488783Y-3498339D01*
X48538801Y-3529837D01*
X48572198Y-3550868D01*
X48575237Y-3552782D01*
X48670872Y-3588729D01*
X48731418Y-3598319D01*
X48771780Y-3604712D01*
X48771782Y-3604712D01*
X48873845Y-3600077D01*
X48918693Y-3588729D01*
X48972888Y-3575016D01*
X48972889Y-3575015D01*
X48972891Y-3575015D01*
X49064875Y-3530548D01*
X49146039Y-3468494D01*
X49146043Y-3468491D01*
X49213065Y-3391390D01*
X49214565Y-3388729D01*
X49263221Y-3302376D01*
X49294454Y-3205099D01*
X49305488Y-3103529D01*
X49305488Y-3103524D01*
X49308174Y-3078798D01*
X49370872Y-3088729D01*
X49374932Y-3089372D01*
X49471780Y-3104712D01*
X49471782Y-3104712D01*
X49573845Y-3100077D01*
X49590009Y-3095987D01*
X49672888Y-3075016D01*
X49672889Y-3075015D01*
X49672891Y-3075015D01*
X49764875Y-3030548D01*
X49816096Y-2991387D01*
X49846041Y-2968493D01*
X49916543Y-2887390D01*
X49972493Y-2968494D01*
X50015042Y-3030173D01*
X50088783Y-3100887D01*
X50135884Y-3130548D01*
X50171191Y-3152782D01*
X50175237Y-3155330D01*
X50270872Y-3191277D01*
X50326425Y-3200076D01*
X50371780Y-3207260D01*
X50371782Y-3207260D01*
X50473845Y-3202625D01*
X50507663Y-3194068D01*
X50572888Y-3177564D01*
X50572889Y-3177563D01*
X50572891Y-3177563D01*
X50664875Y-3133096D01*
X50746039Y-3071042D01*
X50746043Y-3071039D01*
X50813065Y-2993938D01*
X50814503Y-2991387D01*
X50863221Y-2904924D01*
X50894454Y-2807647D01*
X50905488Y-2706077D01*
X50905500Y-2702548D01*
X50905242Y-2700000D01*
X50895175Y-2600902D01*
X50864623Y-2503410D01*
X50815091Y-2414052D01*
X50748604Y-2336480D01*
X50745203Y-2333842D01*
X50667874Y-2273860D01*
X50576203Y-2228752D01*
X50511435Y-2211882D01*
X50477590Y-2192654D01*
X50457892Y-2159080D01*
X50457620Y-2120154D01*
X50477218Y-2085936D01*
X52367724Y-195430D01*
X54385656Y1822501D01*
X57614316Y1822501D01*
X57618945Y1821466D01*
X57618946Y1821466D01*
X57627181Y1821725D01*
X57651887Y1822501D01*
X57669793Y1822501D01*
X57675720Y1823250D01*
X57701624Y1824064D01*
X57716600Y1828414D01*
X57732070Y1830369D01*
X57756165Y1839909D01*
X57781055Y1847141D01*
X57781058Y1847143D01*
X57781059Y1847143D01*
X57794476Y1855077D01*
X57808980Y1860820D01*
X57829957Y1876060D01*
X57852259Y1889249D01*
X57853478Y1890324D01*
X57863809Y1900655D01*
X57875902Y1909441D01*
X57891739Y1928585D01*
X57957807Y1994653D01*
X57989398Y1996088D01*
X58073845Y1999923D01*
X58080714Y2001661D01*
X58172888Y2024984D01*
X58172889Y2024985D01*
X58172891Y2024985D01*
X58264875Y2069452D01*
X58346039Y2131506D01*
X58346043Y2131509D01*
X58413065Y2208610D01*
X58425078Y2229929D01*
X58463221Y2297624D01*
X58494454Y2394901D01*
X58505488Y2496471D01*
X58505500Y2500000D01*
X58505069Y2504249D01*
X58495175Y2601646D01*
X58464623Y2699138D01*
X58415091Y2788496D01*
X58363780Y2848362D01*
X58346960Y2883467D01*
X58349947Y2922279D01*
X58371939Y2954397D01*
X58420877Y2972500D01*
X59802427Y2972500D01*
X59840027Y2962425D01*
X59867552Y2934900D01*
X59877627Y2897300D01*
X59864028Y2854169D01*
X59859009Y2847000D01*
X59858738Y2846613D01*
X59827864Y2775267D01*
X59818162Y2752848D01*
X59797271Y2652848D01*
X59797269Y2652839D01*
X59796913Y2550672D01*
X59807130Y2500000D01*
X59817107Y2450518D01*
X59857026Y2356475D01*
X59865206Y2344617D01*
X59915042Y2272375D01*
X59988783Y2201661D01*
X60039244Y2169884D01*
X60064779Y2153804D01*
X60075237Y2147218D01*
X60170872Y2111271D01*
X60231418Y2101681D01*
X60271780Y2095288D01*
X60271782Y2095288D01*
X60373845Y2099923D01*
X60376137Y2100503D01*
X60472888Y2124984D01*
X60472889Y2124985D01*
X60472891Y2124985D01*
X60564875Y2169452D01*
X60629255Y2218674D01*
X60646038Y2231505D01*
X60681675Y2272500D01*
X70714910Y2272500D01*
X70781693Y2208460D01*
X70788783Y2201661D01*
X70822808Y2180235D01*
X70951124Y2099428D01*
X70878406Y2054341D01*
X70878403Y2054340D01*
X70791572Y2000502D01*
X70728889Y1941226D01*
X70714374Y1927500D01*
X59420081Y1927500D01*
X59415452Y1928535D01*
X59415451Y1928535D01*
X59407216Y1928276D01*
X59382510Y1927500D01*
X59364604Y1927500D01*
X59358677Y1926751D01*
X59332771Y1925937D01*
X59317798Y1921586D01*
X59302329Y1919633D01*
X59278224Y1910090D01*
X59253338Y1902859D01*
X59239917Y1894922D01*
X59225419Y1889182D01*
X59225418Y1889182D01*
X59225417Y1889181D01*
X59204445Y1873944D01*
X59182136Y1860751D01*
X59180918Y1859677D01*
X59170584Y1849343D01*
X59158495Y1840560D01*
X59142662Y1821421D01*
X57951465Y630223D01*
X57891194Y633381D01*
X57888336Y633531D01*
X57888335Y633531D01*
X57787321Y618254D01*
X57787319Y618253D01*
X57787317Y618253D01*
X57691433Y582974D01*
X57691432Y582973D01*
X57691431Y582973D01*
X57653477Y559440D01*
X57604602Y529136D01*
X57531269Y459789D01*
X57530367Y458936D01*
X57500688Y416549D01*
X57471768Y375247D01*
X57443307Y309478D01*
X57431192Y281482D01*
X57416430Y210819D01*
X57410299Y181473D01*
X57409943Y79306D01*
X57424334Y7934D01*
X57430137Y-20848D01*
X57470056Y-114891D01*
X57477860Y-126204D01*
X57528072Y-198991D01*
X57601813Y-269705D01*
X57601815Y-269706D01*
X57663932Y-308824D01*
X57690380Y-337385D01*
X57699004Y-375344D01*
X57687492Y-412530D01*
X57658931Y-438978D01*
X57623859Y-447657D01*
X54737414Y-447657D01*
X54725551Y-445778D01*
X54725550Y-445778D01*
X54689694Y-447657D01*
X54678057Y-447657D01*
X54666484Y-448873D01*
X54630978Y-450734D01*
X54619488Y-453813D01*
X54607659Y-455056D01*
X54573844Y-466043D01*
X54539502Y-475245D01*
X54539501Y-475245D01*
X54539499Y-475246D01*
X54528904Y-480644D01*
X54517591Y-484321D01*
X54486791Y-502103D01*
X54455119Y-518241D01*
X54445880Y-525723D01*
X54435577Y-531671D01*
X54435576Y-531672D01*
X54409146Y-555470D01*
X54400110Y-562787D01*
X54391887Y-571010D01*
X54365198Y-595041D01*
X54358136Y-604761D01*
X52566394Y-2396504D01*
X52552690Y-2398859D01*
X52552689Y-2398859D01*
X52516380Y-2405098D01*
X52443931Y-2417547D01*
X52383409Y-2439875D01*
X52340402Y-2455741D01*
X52340401Y-2455742D01*
X52340400Y-2455742D01*
X52245566Y-2512162D01*
X52178550Y-2570933D01*
X52162599Y-2584922D01*
X52094282Y-2671583D01*
X52077474Y-2703529D01*
X52042901Y-2769242D01*
X52010177Y-2874627D01*
X51997207Y-2984216D01*
X52001485Y-3049482D01*
X52004424Y-3094330D01*
X52031587Y-3201286D01*
X52077787Y-3301500D01*
X52141475Y-3391617D01*
X52220520Y-3468619D01*
X52220523Y-3468621D01*
X52312271Y-3529926D01*
X52312272Y-3529927D01*
X52312273Y-3529927D01*
X52325289Y-3535519D01*
X52413662Y-3573487D01*
X52467478Y-3585664D01*
X52521293Y-3597841D01*
X52558048Y-3599285D01*
X52631557Y-3602174D01*
X52631559Y-3602174D01*
X52740768Y-3586339D01*
X52839624Y-3552782D01*
X52845260Y-3550869D01*
X52852408Y-3546866D01*
X52941543Y-3496948D01*
X53026385Y-3426385D01*
X53096948Y-3341543D01*
X53150868Y-3245262D01*
X53151222Y-3244221D01*
X53186338Y-3140771D01*
X53186339Y-3140768D01*
X53193103Y-3094121D01*
X53200426Y-3043618D01*
X53983996Y-3043618D01*
X53995844Y-3102376D01*
X54004190Y-3143772D01*
X54044109Y-3237815D01*
X54055688Y-3254600D01*
X54102125Y-3321915D01*
X54175866Y-3392629D01*
X54227013Y-3424838D01*
X54259935Y-3445570D01*
X54262320Y-3447072D01*
X54357955Y-3483019D01*
X54418501Y-3492609D01*
X54458863Y-3499002D01*
X54458865Y-3499002D01*
X54560928Y-3494367D01*
X54605776Y-3483019D01*
X54659971Y-3469306D01*
X54659972Y-3469305D01*
X54659974Y-3469305D01*
X54751958Y-3424838D01*
X54833122Y-3362784D01*
X54833126Y-3362781D01*
X54900148Y-3285680D01*
X54909834Y-3268491D01*
X54950304Y-3196666D01*
X54981537Y-3099389D01*
X54987595Y-3043618D01*
X55296913Y-3043618D01*
X55308761Y-3102376D01*
X55317107Y-3143772D01*
X55357026Y-3237815D01*
X55368605Y-3254600D01*
X55415042Y-3321915D01*
X55488783Y-3392629D01*
X55539930Y-3424838D01*
X55572852Y-3445570D01*
X55575237Y-3447072D01*
X55670872Y-3483019D01*
X55731418Y-3492609D01*
X55771780Y-3499002D01*
X55771782Y-3499002D01*
X55873845Y-3494367D01*
X55918693Y-3483019D01*
X55972888Y-3469306D01*
X55972889Y-3469305D01*
X55972891Y-3469305D01*
X56064875Y-3424838D01*
X56146039Y-3362784D01*
X56146043Y-3362781D01*
X56213065Y-3285680D01*
X56222751Y-3268491D01*
X56263221Y-3196666D01*
X56294454Y-3099389D01*
X56305488Y-2997819D01*
X56305500Y-2994290D01*
X56305465Y-2993938D01*
X56295175Y-2892644D01*
X56264623Y-2795152D01*
X56215091Y-2705794D01*
X56148604Y-2628222D01*
X56148603Y-2628221D01*
X56067874Y-2565602D01*
X55976203Y-2520494D01*
X55877334Y-2494741D01*
X55775306Y-2489393D01*
X55775304Y-2489393D01*
X55674291Y-2504670D01*
X55674289Y-2504671D01*
X55674287Y-2504671D01*
X55578403Y-2539950D01*
X55578402Y-2539951D01*
X55578401Y-2539951D01*
X55566787Y-2547152D01*
X55491572Y-2593788D01*
X55428547Y-2653387D01*
X55417337Y-2663988D01*
X55387864Y-2706081D01*
X55358738Y-2747677D01*
X55324142Y-2827624D01*
X55318162Y-2841442D01*
X55304941Y-2904729D01*
X55297269Y-2941451D01*
X55296913Y-3043618D01*
X54987595Y-3043618D01*
X54992571Y-2997819D01*
X54992583Y-2994290D01*
X54992548Y-2993938D01*
X54982258Y-2892644D01*
X54951706Y-2795152D01*
X54902174Y-2705794D01*
X54835687Y-2628222D01*
X54835686Y-2628221D01*
X54754957Y-2565602D01*
X54663286Y-2520494D01*
X54564417Y-2494741D01*
X54462389Y-2489393D01*
X54462387Y-2489393D01*
X54361374Y-2504670D01*
X54361372Y-2504671D01*
X54361370Y-2504671D01*
X54265486Y-2539950D01*
X54265485Y-2539951D01*
X54265484Y-2539951D01*
X54253870Y-2547152D01*
X54178655Y-2593788D01*
X54115630Y-2653387D01*
X54104420Y-2663988D01*
X54074947Y-2706081D01*
X54045821Y-2747677D01*
X54011225Y-2827624D01*
X54005245Y-2841442D01*
X53992024Y-2904729D01*
X53984352Y-2941451D01*
X53983996Y-3043618D01*
X53200426Y-3043618D01*
X53201604Y-3035499D01*
X54888446Y-1348657D01*
X56461608Y-1348657D01*
X56499208Y-1358732D01*
X56526733Y-1386257D01*
X56536808Y-1423857D01*
X56526733Y-1461457D01*
X56513277Y-1478495D01*
X56484910Y-1505320D01*
X56454247Y-1549112D01*
X56426309Y-1589012D01*
X56390092Y-1672703D01*
X56385733Y-1682777D01*
X56364945Y-1782284D01*
X56364840Y-1782786D01*
X56364484Y-1884953D01*
X56369513Y-1909893D01*
X56384678Y-1985107D01*
X56424597Y-2079150D01*
X56438634Y-2099498D01*
X56482613Y-2163250D01*
X56556354Y-2233964D01*
X56613099Y-2269698D01*
X56631918Y-2281549D01*
X56642808Y-2288407D01*
X56738443Y-2324354D01*
X56798334Y-2333840D01*
X56839351Y-2340337D01*
X56839353Y-2340337D01*
X56883850Y-2338316D01*
X56906098Y-2337306D01*
X57975134Y-3406343D01*
X57977677Y-3410350D01*
X58001705Y-3432914D01*
X58014361Y-3445570D01*
X58019081Y-3449232D01*
X58037975Y-3466975D01*
X58037977Y-3466976D01*
X58051643Y-3474488D01*
X58062640Y-3483019D01*
X58063963Y-3484045D01*
X58087751Y-3494339D01*
X58110465Y-3506826D01*
X58125567Y-3510704D01*
X58139878Y-3516897D01*
X58143234Y-3517428D01*
X58165480Y-3520952D01*
X58190586Y-3527398D01*
X58190587Y-3527398D01*
X58190591Y-3527399D01*
X58192200Y-3527500D01*
X58206825Y-3527500D01*
X58221580Y-3529837D01*
X58246302Y-3527500D01*
X79382057Y-3527500D01*
X79386685Y-3528535D01*
X79386687Y-3528535D01*
X79419625Y-3527500D01*
X79420490Y-3527500D01*
X79441824Y-3535519D01*
X79475461Y-3540847D01*
X79542732Y-3551502D01*
X79542734Y-3551502D01*
X79644797Y-3546867D01*
X79689645Y-3535519D01*
X79743840Y-3521806D01*
X79743841Y-3521805D01*
X79743843Y-3521805D01*
X79835827Y-3477338D01*
X79916991Y-3415284D01*
X79916995Y-3415281D01*
X79984017Y-3338180D01*
X79985593Y-3335384D01*
X80034173Y-3249166D01*
X80065406Y-3151889D01*
X80076440Y-3050319D01*
X80076452Y-3046790D01*
X80075306Y-3035500D01*
X80066127Y-2945144D01*
X80035576Y-2847653D01*
X79947683Y-2689089D01*
X85502726Y-2689089D01*
X85507355Y-2690124D01*
X85507356Y-2690124D01*
X85515590Y-2689865D01*
X85540297Y-2689089D01*
X85558203Y-2689089D01*
X85564130Y-2688340D01*
X85590034Y-2687526D01*
X85605010Y-2683176D01*
X85620480Y-2681221D01*
X85644575Y-2671681D01*
X85669465Y-2664449D01*
X85669468Y-2664447D01*
X85669469Y-2664447D01*
X85682886Y-2656513D01*
X85697390Y-2650770D01*
X85718367Y-2635530D01*
X85740669Y-2622341D01*
X85741888Y-2621266D01*
X85752219Y-2610935D01*
X85764312Y-2602149D01*
X85780149Y-2583005D01*
X85910441Y-2452713D01*
X90998979Y-2452713D01*
X91014192Y-2547161D01*
X91017882Y-2570071D01*
X91056289Y-2682569D01*
X91113102Y-2786988D01*
X91145137Y-2827624D01*
X91186696Y-2880342D01*
X91213738Y-2904733D01*
X91274967Y-2959961D01*
X91375391Y-3023569D01*
X91375396Y-3023571D01*
X91485095Y-3069347D01*
X91600945Y-3095987D01*
X91719628Y-3102726D01*
X91719629Y-3102726D01*
X91837750Y-3089372D01*
X91934335Y-3061403D01*
X91951937Y-3056306D01*
X92058911Y-3004477D01*
X92109263Y-2968494D01*
X92155628Y-2935361D01*
X92207896Y-2882635D01*
X93722551Y-2882635D01*
X93731166Y-2985224D01*
X93755171Y-3068940D01*
X93759544Y-3084189D01*
X93806599Y-3175750D01*
X93870548Y-3256433D01*
X93923503Y-3301500D01*
X93948949Y-3323156D01*
X94019850Y-3362781D01*
X94038818Y-3373382D01*
X94136726Y-3405195D01*
X94170802Y-3409258D01*
X94238953Y-3417384D01*
X94238955Y-3417384D01*
X94341596Y-3409487D01*
X94375302Y-3400076D01*
X94440757Y-3381801D01*
X94457426Y-3373381D01*
X94532648Y-3335384D01*
X94613774Y-3272001D01*
X94681044Y-3194068D01*
X94731896Y-3104553D01*
X94764391Y-3006868D01*
X94777294Y-2904733D01*
X94777383Y-2898339D01*
X94777500Y-2890000D01*
X94767454Y-2787541D01*
X94765276Y-2780327D01*
X94737699Y-2688987D01*
X94734287Y-2682569D01*
X94690863Y-2600902D01*
X94689365Y-2598084D01*
X94624301Y-2518306D01*
X94544976Y-2452684D01*
X94534761Y-2447161D01*
X94454414Y-2403717D01*
X94356069Y-2373274D01*
X94322026Y-2369696D01*
X94253686Y-2362513D01*
X94253683Y-2362513D01*
X94151156Y-2371843D01*
X94151152Y-2371844D01*
X94151153Y-2371844D01*
X94060886Y-2398412D01*
X94052395Y-2400911D01*
X93961160Y-2448607D01*
X93910433Y-2489393D01*
X93882115Y-2512162D01*
X93880928Y-2513116D01*
X93814753Y-2591980D01*
X93765156Y-2682196D01*
X93734027Y-2780327D01*
X93722551Y-2882635D01*
X92207896Y-2882635D01*
X92239317Y-2850939D01*
X92239319Y-2850937D01*
X92307584Y-2753625D01*
X92310402Y-2747677D01*
X92358481Y-2646196D01*
X92390548Y-2531729D01*
X92402870Y-2413496D01*
X92402900Y-2410380D01*
X92403001Y-2400007D01*
X92397938Y-2340337D01*
X92392950Y-2281552D01*
X92363086Y-2166491D01*
X92314262Y-2058106D01*
X92247875Y-1959498D01*
X92165822Y-1873484D01*
X92162903Y-1871312D01*
X92070454Y-1802527D01*
X92020836Y-1777300D01*
X91964486Y-1748650D01*
X91959662Y-1747152D01*
X91850961Y-1713399D01*
X91733116Y-1697780D01*
X91614325Y-1702240D01*
X91497984Y-1726651D01*
X91387423Y-1770313D01*
X91285795Y-1831983D01*
X91200827Y-1905715D01*
X91196012Y-1909893D01*
X91120639Y-2001816D01*
X91120638Y-2001818D01*
X91061831Y-2105127D01*
X91059924Y-2110381D01*
X91021273Y-2216865D01*
X91000120Y-2333842D01*
X90999350Y-2414052D01*
X90998979Y-2452713D01*
X85910441Y-2452713D01*
X87757808Y-605347D01*
X87792677Y-603763D01*
X87873845Y-600077D01*
X87893744Y-595042D01*
X87972888Y-575016D01*
X87972889Y-575015D01*
X87972891Y-575015D01*
X88064875Y-530548D01*
X88146039Y-468494D01*
X88146043Y-468491D01*
X88213065Y-391390D01*
X88221645Y-376164D01*
X88263221Y-302376D01*
X88294454Y-205099D01*
X88305488Y-103529D01*
X88305500Y-100000D01*
X88302493Y-70392D01*
X88295175Y1646D01*
X88264623Y99138D01*
X88215091Y188496D01*
X88148604Y266068D01*
X88132469Y278584D01*
X88067874Y328688D01*
X88065561Y329826D01*
X88036272Y355465D01*
X88023726Y392315D01*
X88031287Y430500D01*
X88056926Y459789D01*
X88098761Y472500D01*
X93464315Y472500D01*
X93468944Y471465D01*
X93468945Y471465D01*
X93477179Y471724D01*
X93501886Y472500D01*
X93519792Y472500D01*
X93525719Y473249D01*
X93551623Y474063D01*
X93566599Y478413D01*
X93582069Y480368D01*
X93606164Y489908D01*
X93631054Y497140D01*
X93631057Y497142D01*
X93631058Y497142D01*
X93644475Y505076D01*
X93658979Y510819D01*
X93679956Y526059D01*
X93685161Y529137D01*
X93702258Y539248D01*
X93703477Y540323D01*
X93713808Y550654D01*
X93725901Y559440D01*
X93741738Y578584D01*
X94357808Y1194653D01*
X94392677Y1196237D01*
X94473845Y1199923D01*
X94496534Y1205664D01*
X94572888Y1224984D01*
X94572889Y1224985D01*
X94572891Y1224985D01*
X94664875Y1269452D01*
X94746039Y1331506D01*
X94746043Y1331509D01*
X94813065Y1408610D01*
X94823328Y1426823D01*
X94863221Y1497624D01*
X94894454Y1594901D01*
X94905488Y1696471D01*
X94905500Y1700000D01*
X94905093Y1704013D01*
X94895175Y1801646D01*
X94864623Y1899138D01*
X94815091Y1988496D01*
X94748604Y2066068D01*
X94747391Y2067009D01*
X94667874Y2128688D01*
X94576203Y2173796D01*
X94516934Y2189234D01*
X94483089Y2208460D01*
X94463391Y2242035D01*
X94463119Y2280960D01*
X94482346Y2314807D01*
X94501985Y2329127D01*
X94532648Y2344616D01*
X94613774Y2407999D01*
X94681044Y2485932D01*
X94731896Y2575447D01*
X94764391Y2673132D01*
X94777294Y2775267D01*
X94777397Y2782643D01*
X94777500Y2790000D01*
X94767454Y2892459D01*
X94757171Y2926517D01*
X94737699Y2991013D01*
X94736332Y2993585D01*
X94705062Y3052394D01*
X94689365Y3081916D01*
X94624301Y3161694D01*
X94544976Y3227316D01*
X94533200Y3233683D01*
X94454414Y3276283D01*
X94356069Y3306726D01*
X94330472Y3309416D01*
X94253686Y3317487D01*
X94253683Y3317487D01*
X94151156Y3308157D01*
X94123442Y3300000D01*
X94064416Y3282627D01*
X94052395Y3279089D01*
X93961160Y3231393D01*
X93907943Y3188605D01*
X93883958Y3169320D01*
X93880928Y3166884D01*
X93814753Y3088020D01*
X93765156Y2997804D01*
X93734027Y2899673D01*
X93722551Y2797365D01*
X93731166Y2694776D01*
X93752690Y2619713D01*
X93759544Y2595811D01*
X93806599Y2504250D01*
X93870548Y2423567D01*
X93909330Y2390562D01*
X93948949Y2356844D01*
X94026726Y2313376D01*
X94038818Y2306618D01*
X94137482Y2274559D01*
X94170128Y2253358D01*
X94187800Y2218674D01*
X94185762Y2179801D01*
X94153871Y2139129D01*
X94091572Y2100502D01*
X94056154Y2067009D01*
X94017337Y2030302D01*
X93992376Y1994653D01*
X93958738Y1946613D01*
X93921612Y1860820D01*
X93918162Y1852848D01*
X93897269Y1752840D01*
X93896945Y1660100D01*
X93364346Y1127500D01*
X85535685Y1127500D01*
X85531056Y1128535D01*
X85531055Y1128535D01*
X85522820Y1128276D01*
X85498114Y1127500D01*
X85480208Y1127500D01*
X85474281Y1126751D01*
X85448375Y1125937D01*
X85433402Y1121586D01*
X85417933Y1119633D01*
X85393828Y1110090D01*
X85368942Y1102859D01*
X85355521Y1094922D01*
X85341023Y1089182D01*
X85341022Y1089182D01*
X85341021Y1089181D01*
X85320049Y1073944D01*
X85297740Y1060751D01*
X85296522Y1059677D01*
X85286189Y1049344D01*
X85274100Y1040561D01*
X85274099Y1040560D01*
X85258266Y1021421D01*
X84638435Y401589D01*
X84578164Y404747D01*
X84575306Y404897D01*
X84575305Y404897D01*
X84474291Y389620D01*
X84474289Y389619D01*
X84474287Y389619D01*
X84378403Y354340D01*
X84378402Y354339D01*
X84378401Y354339D01*
X84344611Y333388D01*
X84291572Y300502D01*
X84227934Y240323D01*
X84217337Y230302D01*
X84214365Y226057D01*
X84158738Y146613D01*
X84129042Y77989D01*
X84118162Y52848D01*
X84097269Y-47160D01*
X84096945Y-139900D01*
X82764346Y-1472500D01*
X82610402Y-1472500D01*
X82572802Y-1462425D01*
X82545277Y-1434900D01*
X82535202Y-1397300D01*
X82552584Y-1349216D01*
X82596948Y-1295875D01*
X82650868Y-1199594D01*
X82686339Y-1095100D01*
X82702174Y-985891D01*
X82703000Y-954332D01*
X82692903Y-844444D01*
X82662949Y-738236D01*
X82614142Y-639265D01*
X82581118Y-595041D01*
X82548117Y-550847D01*
X82527374Y-531672D01*
X82467083Y-475940D01*
X82373756Y-417055D01*
X82271261Y-376164D01*
X82271246Y-376158D01*
X82175996Y-357180D01*
X82263221Y-202376D01*
X82283280Y-139900D01*
X82294454Y-105099D01*
X82305488Y-3529D01*
X82305500Y0D01*
X82305486Y143D01*
X82295175Y101646D01*
X82264623Y199138D01*
X82215091Y288496D01*
X82148604Y366068D01*
X82138641Y373796D01*
X82067874Y428688D01*
X81976203Y473796D01*
X81877334Y499549D01*
X81775306Y504897D01*
X81775304Y504897D01*
X81674291Y489620D01*
X81674289Y489619D01*
X81674287Y489619D01*
X81578403Y454340D01*
X81578402Y454339D01*
X81578401Y454339D01*
X81547050Y434900D01*
X81491572Y400502D01*
X81417339Y330304D01*
X81397590Y302100D01*
X73703431Y302100D01*
X73648604Y366068D01*
X73638641Y373796D01*
X73567874Y428688D01*
X73476203Y473796D01*
X73377334Y499549D01*
X73275306Y504897D01*
X73275304Y504897D01*
X73174291Y489620D01*
X73174289Y489619D01*
X73174287Y489619D01*
X73078403Y454340D01*
X73078402Y454339D01*
X73078401Y454339D01*
X73047050Y434900D01*
X72991572Y400502D01*
X72936178Y348119D01*
X72917337Y330302D01*
X72881124Y278584D01*
X72858738Y246613D01*
X72830550Y181475D01*
X72818162Y152848D01*
X72797271Y52848D01*
X72797269Y52839D01*
X72796913Y-49328D01*
X72810502Y-116721D01*
X72817107Y-149482D01*
X72857026Y-243525D01*
X72857027Y-243526D01*
X72915042Y-327625D01*
X72915044Y-327627D01*
X72916512Y-329755D01*
X72929570Y-366426D01*
X72922543Y-404713D01*
X72897314Y-434357D01*
X72854612Y-447657D01*
X71897257Y-447657D01*
X71867085Y-419767D01*
X71867086Y-419767D01*
X71867083Y-419765D01*
X71773756Y-360880D01*
X71671261Y-319989D01*
X71671260Y-319989D01*
X71671258Y-319988D01*
X71608034Y-307412D01*
X71563031Y-298460D01*
X71452689Y-297016D01*
X71452688Y-297016D01*
X71343931Y-315704D01*
X71292015Y-334857D01*
X71240402Y-353898D01*
X71240401Y-353899D01*
X71240400Y-353899D01*
X71145566Y-410319D01*
X71065374Y-480645D01*
X71062599Y-483079D01*
X70994282Y-569740D01*
X70977738Y-601185D01*
X70942901Y-667399D01*
X70910177Y-772784D01*
X70907015Y-799499D01*
X70897207Y-882372D01*
X70904424Y-992487D01*
X70931587Y-1099443D01*
X70977787Y-1199657D01*
X71041475Y-1289774D01*
X71096562Y-1343437D01*
X71116463Y-1376887D01*
X71116972Y-1415810D01*
X71097952Y-1449774D01*
X71064499Y-1469677D01*
X71044086Y-1472500D01*
X62756505Y-1472500D01*
X62718905Y-1462425D01*
X62691380Y-1434900D01*
X62681305Y-1397300D01*
X62691380Y-1359700D01*
X62708415Y-1339487D01*
X62726385Y-1324542D01*
X62796948Y-1239700D01*
X62850868Y-1143419D01*
X62886339Y-1038925D01*
X62902174Y-929716D01*
X62903000Y-898157D01*
X62892903Y-788269D01*
X62862949Y-682061D01*
X62814142Y-583090D01*
X62748116Y-494671D01*
X62667083Y-419765D01*
X62573756Y-360880D01*
X62471261Y-319989D01*
X62471260Y-319989D01*
X62471258Y-319988D01*
X62408034Y-307412D01*
X62363031Y-298460D01*
X62252689Y-297016D01*
X62252688Y-297016D01*
X62143931Y-315704D01*
X62092015Y-334857D01*
X62040402Y-353898D01*
X62040401Y-353899D01*
X62040400Y-353899D01*
X61945565Y-410319D01*
X61902988Y-447657D01*
X58204760Y-447657D01*
X58167160Y-437582D01*
X58139635Y-410057D01*
X58129560Y-372457D01*
X58139635Y-334857D01*
X58172030Y-304754D01*
X58177905Y-301914D01*
X58259069Y-239860D01*
X58259073Y-239857D01*
X58326095Y-162756D01*
X58333575Y-149482D01*
X58376251Y-73742D01*
X58407484Y23535D01*
X58418518Y125105D01*
X58418530Y128634D01*
X58418530Y128644D01*
X58414627Y167077D01*
X58751226Y503676D01*
X66047580Y503676D01*
X66061448Y434900D01*
X66067774Y403522D01*
X66107693Y309479D01*
X66113885Y300503D01*
X66165709Y225379D01*
X66239450Y154665D01*
X66286397Y125101D01*
X66323643Y101646D01*
X66325904Y100222D01*
X66421539Y64275D01*
X66482085Y54685D01*
X66522447Y48292D01*
X66522449Y48292D01*
X66624512Y52927D01*
X66669360Y64275D01*
X66723555Y77988D01*
X66723556Y77989D01*
X66723558Y77989D01*
X66815542Y122456D01*
X66896706Y184510D01*
X66896710Y184513D01*
X66963732Y261614D01*
X66966243Y266069D01*
X67013888Y350628D01*
X67045121Y447905D01*
X67056155Y549475D01*
X67056167Y553004D01*
X67055514Y559440D01*
X67045842Y654650D01*
X67015290Y752142D01*
X66965758Y841500D01*
X66899271Y919072D01*
X66899270Y919073D01*
X66818541Y981692D01*
X66726870Y1026800D01*
X66628001Y1052553D01*
X66525973Y1057901D01*
X66525971Y1057901D01*
X66424958Y1042624D01*
X66424956Y1042623D01*
X66424954Y1042623D01*
X66329070Y1007344D01*
X66329069Y1007343D01*
X66329068Y1007343D01*
X66317103Y999924D01*
X66242239Y953506D01*
X66190489Y904569D01*
X66168004Y883306D01*
X66146322Y852340D01*
X66109405Y799617D01*
X66068829Y705852D01*
X66050529Y618253D01*
X66047936Y605843D01*
X66047580Y503676D01*
X58751226Y503676D01*
X59520051Y1272500D01*
X70714910Y1272500D01*
X70784609Y1205664D01*
X70788783Y1201661D01*
X70875237Y1147218D01*
X70970872Y1111271D01*
X71031418Y1101681D01*
X71071780Y1095288D01*
X71071782Y1095288D01*
X71173845Y1099923D01*
X71213836Y1110042D01*
X71272888Y1124984D01*
X71272889Y1124985D01*
X71272891Y1124985D01*
X71364875Y1169452D01*
X71446039Y1231506D01*
X71446043Y1231509D01*
X71513065Y1308610D01*
X71515098Y1312218D01*
X71563221Y1397624D01*
X71579352Y1447866D01*
X71630301Y1606544D01*
X71943188Y1293657D01*
X71945731Y1289650D01*
X71969759Y1267086D01*
X71982415Y1254430D01*
X71987131Y1250772D01*
X72004023Y1234910D01*
X72006031Y1233024D01*
X72019698Y1225510D01*
X72027910Y1219141D01*
X72032017Y1215955D01*
X72055800Y1205664D01*
X72078518Y1193174D01*
X72083735Y1191835D01*
X72093622Y1189296D01*
X72107933Y1183103D01*
X72133534Y1179048D01*
X72158640Y1172602D01*
X72158643Y1172602D01*
X72158646Y1172601D01*
X72160254Y1172500D01*
X72174879Y1172500D01*
X72189634Y1170163D01*
X72214356Y1172500D01*
X74614910Y1172500D01*
X74679993Y1110090D01*
X74688783Y1101661D01*
X74730942Y1075112D01*
X74771863Y1049343D01*
X74775237Y1047218D01*
X74870872Y1011271D01*
X74931418Y1001681D01*
X74971780Y995288D01*
X74971782Y995288D01*
X75073845Y999923D01*
X75118693Y1011271D01*
X75172888Y1024984D01*
X75172889Y1024985D01*
X75172891Y1024985D01*
X75264875Y1069452D01*
X75346039Y1131506D01*
X75346043Y1131509D01*
X75413065Y1208610D01*
X75426822Y1233024D01*
X75463221Y1297624D01*
X75494454Y1394901D01*
X75505488Y1496471D01*
X75505500Y1500000D01*
X75504433Y1510512D01*
X75495175Y1601646D01*
X75464623Y1699138D01*
X75415091Y1788496D01*
X75348604Y1866068D01*
X75335725Y1876058D01*
X75267874Y1928688D01*
X75176203Y1973796D01*
X75077334Y1999549D01*
X74975306Y2004897D01*
X74975304Y2004897D01*
X74874291Y1989620D01*
X74874289Y1989619D01*
X74874287Y1989619D01*
X74778403Y1954340D01*
X74778402Y1954339D01*
X74778401Y1954339D01*
X74757252Y1941226D01*
X74691572Y1900502D01*
X74623412Y1836047D01*
X74614374Y1827500D01*
X72335655Y1827500D01*
X71815865Y2347290D01*
X90998979Y2347290D01*
X90998979Y2347287D01*
X91016247Y2240082D01*
X91017882Y2229929D01*
X91056289Y2117431D01*
X91113102Y2013012D01*
X91147442Y1969452D01*
X91186696Y1919658D01*
X91228769Y1881709D01*
X91274967Y1840039D01*
X91375391Y1776431D01*
X91375396Y1776429D01*
X91485095Y1730653D01*
X91600945Y1704013D01*
X91719628Y1697274D01*
X91719629Y1697274D01*
X91837750Y1710628D01*
X91934335Y1738597D01*
X91951937Y1743694D01*
X92058911Y1795523D01*
X92080384Y1810868D01*
X92155628Y1864639D01*
X92239317Y1949061D01*
X92239319Y1949063D01*
X92307584Y2046375D01*
X92316914Y2066068D01*
X92358481Y2153804D01*
X92390548Y2268271D01*
X92402870Y2386504D01*
X92402909Y2390562D01*
X92403001Y2399993D01*
X92398714Y2450518D01*
X92392950Y2518448D01*
X92363086Y2633509D01*
X92314262Y2741894D01*
X92247875Y2840502D01*
X92165822Y2926516D01*
X92165821Y2926517D01*
X92070454Y2997473D01*
X92048543Y3008613D01*
X91964486Y3051350D01*
X91961124Y3052394D01*
X91850961Y3086601D01*
X91733116Y3102220D01*
X91614325Y3097760D01*
X91497984Y3073349D01*
X91387423Y3029687D01*
X91285795Y2968017D01*
X91207035Y2899672D01*
X91196012Y2890107D01*
X91120639Y2798184D01*
X91065773Y2701798D01*
X91061831Y2694873D01*
X91056761Y2680905D01*
X91021273Y2583135D01*
X91000120Y2466158D01*
X90998979Y2347290D01*
X71815865Y2347290D01*
X71601689Y2561466D01*
X71605416Y2595811D01*
X71605488Y2596471D01*
X71605500Y2600000D01*
X71604369Y2611142D01*
X71595175Y2701646D01*
X71564623Y2799138D01*
X71545641Y2833383D01*
X71515091Y2888496D01*
X71515090Y2888497D01*
X71468526Y2972500D01*
X86514910Y2972500D01*
X86579579Y2910487D01*
X86588783Y2901661D01*
X86675237Y2847218D01*
X86770872Y2811271D01*
X86819714Y2803535D01*
X86871780Y2795288D01*
X86871782Y2795288D01*
X86973845Y2799923D01*
X87018693Y2811271D01*
X87072888Y2824984D01*
X87072889Y2824985D01*
X87072891Y2824985D01*
X87164875Y2869452D01*
X87246039Y2931506D01*
X87246043Y2931509D01*
X87313065Y3008610D01*
X87313516Y3009409D01*
X87363221Y3097624D01*
X87394454Y3194901D01*
X87405488Y3296471D01*
X87405500Y3300000D01*
X87404672Y3308157D01*
X87395175Y3401646D01*
X87364623Y3499138D01*
X87315091Y3588496D01*
X87248604Y3666068D01*
X87248603Y3666069D01*
X87167874Y3728688D01*
X87076203Y3773796D01*
X86977334Y3799549D01*
X86875306Y3804897D01*
X86875304Y3804897D01*
X86774291Y3789620D01*
X86774289Y3789619D01*
X86774287Y3789619D01*
X86678403Y3754340D01*
X86591572Y3700502D01*
X86518610Y3631506D01*
X86514374Y3627500D01*
X83567363Y3627500D01*
X83663221Y3797624D01*
X83668503Y3814076D01*
X83694454Y3894901D01*
X83705488Y3996471D01*
X83705500Y4000000D01*
X83705332Y4001661D01*
X83698797Y4066001D01*
X92544288Y4066001D01*
X92567897Y4006218D01*
X92629802Y3904204D01*
X92708011Y3814076D01*
X92800286Y3738415D01*
X92903996Y3679380D01*
X93016159Y3638667D01*
X93133586Y3617432D01*
X93146999Y3616800D01*
X93496000Y3616800D01*
X94003999Y3616800D01*
X94329461Y3616800D01*
X94418906Y3624390D01*
X94534402Y3654367D01*
X94643210Y3703381D01*
X94742194Y3770021D01*
X94828536Y3852386D01*
X94899770Y3948128D01*
X94953851Y4054499D01*
X94957422Y4066000D01*
X94003999Y4066001D01*
X96874288Y4066001D01*
X96897897Y4006218D01*
X96959802Y3904204D01*
X97038011Y3814076D01*
X97130286Y3738415D01*
X97233996Y3679380D01*
X97346159Y3638667D01*
X97463586Y3617432D01*
X97476999Y3616800D01*
X97676000Y3616800D01*
X98183999Y3616800D01*
X98359461Y3616800D01*
X98448906Y3624390D01*
X98564402Y3654367D01*
X98673210Y3703381D01*
X98772194Y3770021D01*
X98858536Y3852386D01*
X98929770Y3948128D01*
X98983851Y4054499D01*
X98987422Y4066000D01*
X98183999Y4066001D01*
X98183999Y3616800D01*
X97676000Y3616800D01*
X97676000Y4066000D01*
X96874288Y4066001D01*
X94003999Y4066001D01*
X94003999Y3616800D01*
X93496000Y3616800D01*
X93496000Y4066000D01*
X92544288Y4066001D01*
X83698797Y4066001D01*
X83695175Y4101646D01*
X83664623Y4199138D01*
X83615091Y4288496D01*
X83548604Y4366068D01*
X83518807Y4389181D01*
X83467874Y4428688D01*
X83376203Y4473796D01*
X83277334Y4499549D01*
X83175306Y4504897D01*
X83175304Y4504897D01*
X83074291Y4489620D01*
X83074289Y4489619D01*
X83074287Y4489619D01*
X82978403Y4454340D01*
X82978402Y4454339D01*
X82978401Y4454339D01*
X82975985Y4452841D01*
X82891572Y4400502D01*
X82818613Y4331509D01*
X82817337Y4330302D01*
X82790482Y4291948D01*
X82758738Y4246613D01*
X82736528Y4195288D01*
X82707193Y4127500D01*
X77399572Y4127500D01*
X77361972Y4137575D01*
X77334447Y4165100D01*
X77324372Y4202700D01*
X77334447Y4240300D01*
X77359646Y4263716D01*
X77358807Y4264814D01*
X77364871Y4269450D01*
X77364875Y4269452D01*
X77446039Y4331506D01*
X77446043Y4331509D01*
X77513065Y4408610D01*
X77513899Y4410089D01*
X77563221Y4497624D01*
X77587743Y4574000D01*
X92542578Y4574000D01*
X93496001Y4573999D01*
X93496001Y5023200D01*
X94004000Y5023200D01*
X94004000Y4574000D01*
X94955712Y4573999D01*
X94955712Y4574000D01*
X96872578Y4574000D01*
X97676001Y4573999D01*
X97676001Y5023200D01*
X98184000Y5023200D01*
X98184000Y4574000D01*
X98985712Y4573999D01*
X98962103Y4633782D01*
X98900198Y4735796D01*
X98821989Y4825924D01*
X98729714Y4901585D01*
X98626004Y4960620D01*
X98513841Y5001333D01*
X98396414Y5022568D01*
X98383001Y5023200D01*
X98184000Y5023200D01*
X97676001Y5023200D01*
X97500539Y5023200D01*
X97411094Y5015610D01*
X97295598Y4985633D01*
X97186790Y4936619D01*
X97087806Y4869979D01*
X97001464Y4787614D01*
X96930230Y4691872D01*
X96876149Y4585501D01*
X96872578Y4574000D01*
X94955712Y4574000D01*
X94932103Y4633782D01*
X94870198Y4735796D01*
X94791989Y4825924D01*
X94699714Y4901585D01*
X94596004Y4960620D01*
X94483841Y5001333D01*
X94366414Y5022568D01*
X94353001Y5023200D01*
X94004000Y5023200D01*
X93496001Y5023200D01*
X93170539Y5023200D01*
X93081094Y5015610D01*
X92965598Y4985633D01*
X92856790Y4936619D01*
X92757806Y4869979D01*
X92671464Y4787614D01*
X92600230Y4691872D01*
X92546149Y4585501D01*
X92542578Y4574000D01*
X77587743Y4574000D01*
X77594454Y4594901D01*
X77605488Y4696471D01*
X77605500Y4700000D01*
X77601093Y4743392D01*
X77595175Y4801646D01*
X77564623Y4899138D01*
X77515091Y4988496D01*
X77448604Y5066068D01*
X77448603Y5066069D01*
X77367874Y5128688D01*
X77310687Y5156828D01*
X77281400Y5182466D01*
X77268855Y5219316D01*
X77276416Y5257501D01*
X77302056Y5286790D01*
X77343890Y5299500D01*
X99799500Y5299500D01*
X99799501Y-5199500D01*
X84684067Y-5199500D01*
X84646467Y-5189425D01*
X84618942Y-5161900D01*
X84608867Y-5124300D01*
X84618942Y-5086700D01*
X84651278Y-5056625D01*
X84758911Y-5004477D01*
X84785280Y-4985633D01*
X84855628Y-4935361D01*
X84939317Y-4850939D01*
X84939319Y-4850937D01*
X85007584Y-4753625D01*
X85016031Y-4735796D01*
X85058481Y-4646196D01*
X85078706Y-4573999D01*
X92544288Y-4573999D01*
X92567897Y-4633782D01*
X92629802Y-4735796D01*
X92708011Y-4825924D01*
X92800286Y-4901585D01*
X92903996Y-4960620D01*
X93016159Y-5001333D01*
X93133586Y-5022568D01*
X93146999Y-5023200D01*
X93496000Y-5023200D01*
X94003999Y-5023200D01*
X94329461Y-5023200D01*
X94418906Y-5015610D01*
X94534402Y-4985633D01*
X94643210Y-4936619D01*
X94742194Y-4869979D01*
X94828536Y-4787614D01*
X94899770Y-4691872D01*
X94953851Y-4585501D01*
X94957422Y-4574000D01*
X94003999Y-4573999D01*
X96874288Y-4573999D01*
X96897897Y-4633782D01*
X96959802Y-4735796D01*
X97038011Y-4825924D01*
X97130286Y-4901585D01*
X97233996Y-4960620D01*
X97346159Y-5001333D01*
X97463586Y-5022568D01*
X97476999Y-5023200D01*
X97676000Y-5023200D01*
X98183999Y-5023200D01*
X98359461Y-5023200D01*
X98448906Y-5015610D01*
X98564402Y-4985633D01*
X98673210Y-4936619D01*
X98772194Y-4869979D01*
X98858536Y-4787614D01*
X98929770Y-4691872D01*
X98983851Y-4585501D01*
X98987422Y-4574000D01*
X98183999Y-4573999D01*
X98183999Y-5023200D01*
X97676000Y-5023200D01*
X97676000Y-4574000D01*
X96874288Y-4573999D01*
X94003999Y-4573999D01*
X94003999Y-5023200D01*
X93496000Y-5023200D01*
X93496000Y-4574000D01*
X92544288Y-4573999D01*
X85078706Y-4573999D01*
X85090548Y-4531729D01*
X85102870Y-4413496D01*
X85102879Y-4412580D01*
X85103001Y-4400007D01*
X85099456Y-4358235D01*
X85092950Y-4281552D01*
X85063086Y-4166491D01*
X85017818Y-4066000D01*
X92542578Y-4066000D01*
X93496001Y-4066001D01*
X93496001Y-3616800D01*
X94004000Y-3616800D01*
X94004000Y-4066000D01*
X94955712Y-4066001D01*
X94955712Y-4066000D01*
X96872578Y-4066000D01*
X97676001Y-4066001D01*
X97676001Y-3616800D01*
X98184000Y-3616800D01*
X98184000Y-4066000D01*
X98985712Y-4066001D01*
X98962103Y-4006218D01*
X98900198Y-3904204D01*
X98821989Y-3814076D01*
X98729714Y-3738415D01*
X98626004Y-3679380D01*
X98513841Y-3638667D01*
X98396414Y-3617432D01*
X98383001Y-3616800D01*
X98184000Y-3616800D01*
X97676001Y-3616800D01*
X97500539Y-3616800D01*
X97411094Y-3624390D01*
X97295598Y-3654367D01*
X97186790Y-3703381D01*
X97087806Y-3770021D01*
X97001464Y-3852386D01*
X96930230Y-3948128D01*
X96876149Y-4054499D01*
X96872578Y-4066000D01*
X94955712Y-4066000D01*
X94932103Y-4006218D01*
X94870198Y-3904204D01*
X94791989Y-3814076D01*
X94699714Y-3738415D01*
X94596004Y-3679380D01*
X94483841Y-3638667D01*
X94366414Y-3617432D01*
X94353001Y-3616800D01*
X94004000Y-3616800D01*
X93496001Y-3616800D01*
X93170539Y-3616800D01*
X93081094Y-3624390D01*
X92965598Y-3654367D01*
X92856790Y-3703381D01*
X92757806Y-3770021D01*
X92671464Y-3852386D01*
X92600230Y-3948128D01*
X92546149Y-4054499D01*
X92542578Y-4066000D01*
X85017818Y-4066000D01*
X85014262Y-4058106D01*
X84947875Y-3959498D01*
X84865822Y-3873484D01*
X84865821Y-3873483D01*
X84770454Y-3802527D01*
X84764064Y-3799278D01*
X84664486Y-3748650D01*
X84664483Y-3748649D01*
X84550961Y-3713399D01*
X84433116Y-3697780D01*
X84314325Y-3702240D01*
X84197984Y-3726651D01*
X84087423Y-3770313D01*
X83985795Y-3831983D01*
X83937970Y-3873484D01*
X83896012Y-3909893D01*
X83820639Y-4001816D01*
X83764446Y-4100533D01*
X83737090Y-4128224D01*
X83699552Y-4138529D01*
X83661891Y-4128684D01*
X83630528Y-4094216D01*
X83617818Y-4066001D01*
X83614262Y-4058106D01*
X83547875Y-3959498D01*
X83465822Y-3873484D01*
X83465821Y-3873483D01*
X83370454Y-3802527D01*
X83364064Y-3799278D01*
X83264486Y-3748650D01*
X83264483Y-3748649D01*
X83150961Y-3713399D01*
X83033116Y-3697780D01*
X82914325Y-3702240D01*
X82797984Y-3726651D01*
X82687423Y-3770313D01*
X82585795Y-3831983D01*
X82537970Y-3873484D01*
X82496012Y-3909893D01*
X82420639Y-4001816D01*
X82361832Y-4105125D01*
X82361831Y-4105127D01*
X82349707Y-4138529D01*
X82321273Y-4216865D01*
X82300120Y-4333842D01*
X82298979Y-4452710D01*
X82317882Y-4570071D01*
X82356289Y-4682569D01*
X82413102Y-4786988D01*
X82413596Y-4787614D01*
X82486696Y-4880342D01*
X82510248Y-4901585D01*
X82574967Y-4959961D01*
X82675391Y-5023569D01*
X82675396Y-5023571D01*
X82750474Y-5054900D01*
X82781295Y-5078677D01*
X82796097Y-5114679D01*
X82790915Y-5153259D01*
X82767138Y-5184080D01*
X82721515Y-5199500D01*
X25234067Y-5199500D01*
X25196467Y-5189425D01*
X25168942Y-5161900D01*
X25158867Y-5124300D01*
X25168942Y-5086700D01*
X25201278Y-5056625D01*
X25308911Y-5004477D01*
X25335280Y-4985633D01*
X25405628Y-4935361D01*
X25489317Y-4850939D01*
X25489319Y-4850937D01*
X25557584Y-4753625D01*
X25566031Y-4735796D01*
X25608481Y-4646196D01*
X25640548Y-4531729D01*
X25652870Y-4413496D01*
X25652879Y-4412580D01*
X25653001Y-4400007D01*
X25649456Y-4358235D01*
X25642950Y-4281552D01*
X25613086Y-4166491D01*
X25564262Y-4058106D01*
X25497875Y-3959498D01*
X25415822Y-3873484D01*
X25415821Y-3873483D01*
X25320454Y-3802527D01*
X25314064Y-3799278D01*
X25214486Y-3748650D01*
X25214483Y-3748649D01*
X25100961Y-3713399D01*
X24983116Y-3697780D01*
X24864325Y-3702240D01*
X24747984Y-3726651D01*
X24637423Y-3770313D01*
X24535795Y-3831983D01*
X24487970Y-3873484D01*
X24446012Y-3909893D01*
X24370639Y-4001816D01*
X24311832Y-4105125D01*
X24311831Y-4105127D01*
X24299707Y-4138529D01*
X24271273Y-4216865D01*
X24250120Y-4333842D01*
X24248979Y-4452710D01*
X24267882Y-4570071D01*
X24306289Y-4682569D01*
X24363102Y-4786988D01*
X24363596Y-4787614D01*
X24436696Y-4880342D01*
X24460248Y-4901585D01*
X24524967Y-4959961D01*
X24625391Y-5023569D01*
X24625396Y-5023571D01*
X24700474Y-5054900D01*
X24731295Y-5078677D01*
X24746097Y-5114679D01*
X24740915Y-5153259D01*
X24717138Y-5184080D01*
X24671515Y-5199500D01*
X200500Y-5199500D01*
X200500Y-3250500D01*
X15484216Y-3250500D01*
X15500000Y-3253000D01*
X15515783Y-3250500D01*
X15515785Y-3250500D01*
X15562730Y-3243064D01*
X15619320Y-3214230D01*
X15633550Y-3200000D01*
X15700000Y-3200000D01*
X15700000Y-3068940D01*
X15703000Y-3050000D01*
X15700500Y-3034217D01*
X15700500Y-1949328D01*
X18196913Y-1949328D01*
X18209223Y-2010380D01*
X18217107Y-2049482D01*
X18257026Y-2143525D01*
X18257027Y-2143526D01*
X18315042Y-2227625D01*
X18371278Y-2281552D01*
X18390777Y-2300251D01*
X18317339Y-2369696D01*
X18258738Y-2453387D01*
X18233304Y-2512162D01*
X18218162Y-2547152D01*
X18197471Y-2646196D01*
X18197269Y-2647161D01*
X18196913Y-2749328D01*
X18208672Y-2807646D01*
X18217107Y-2849482D01*
X18257026Y-2943525D01*
X18274250Y-2968493D01*
X18315042Y-3027625D01*
X18388783Y-3098339D01*
X18411636Y-3112730D01*
X18471118Y-3150188D01*
X18475237Y-3152782D01*
X18570872Y-3188729D01*
X18620983Y-3196666D01*
X18671780Y-3204712D01*
X18671782Y-3204712D01*
X18773845Y-3200077D01*
X18774149Y-3200000D01*
X18872888Y-3175016D01*
X18872889Y-3175015D01*
X18872891Y-3175015D01*
X18964875Y-3130548D01*
X19046039Y-3068494D01*
X19046043Y-3068491D01*
X19113065Y-2991390D01*
X19114565Y-2988729D01*
X19163221Y-2902376D01*
X19194454Y-2805099D01*
X19205488Y-2703529D01*
X19205500Y-2700000D01*
X19205332Y-2698339D01*
X19195175Y-2598354D01*
X19164623Y-2500862D01*
X19115091Y-2411504D01*
X19059935Y-2347152D01*
X19048603Y-2333931D01*
X19048602Y-2333930D01*
X19019090Y-2299498D01*
X19113067Y-2191387D01*
X19163221Y-2102376D01*
X19180204Y-2049480D01*
X19194454Y-2005099D01*
X19205488Y-1903529D01*
X19205500Y-1900000D01*
X19202807Y-1873483D01*
X19195175Y-1798356D01*
X19195175Y-1798355D01*
X19165254Y-1702877D01*
X19222886Y-1675016D01*
X19222891Y-1675015D01*
X19314875Y-1630548D01*
X19396039Y-1568494D01*
X19412888Y-1549112D01*
X19446784Y-1510118D01*
X19508916Y-1569698D01*
X19538783Y-1598339D01*
X19589930Y-1630548D01*
X19620942Y-1650077D01*
X19625237Y-1652782D01*
X19720872Y-1688729D01*
X19778016Y-1697780D01*
X19821780Y-1704712D01*
X19821782Y-1704712D01*
X19923845Y-1700077D01*
X19946992Y-1694220D01*
X20022888Y-1675016D01*
X20022889Y-1675015D01*
X20022891Y-1675015D01*
X20114875Y-1630548D01*
X20196039Y-1568494D01*
X20212888Y-1549112D01*
X20246784Y-1510118D01*
X20308916Y-1569698D01*
X20338783Y-1598339D01*
X20389930Y-1630548D01*
X20420942Y-1650077D01*
X20425237Y-1652782D01*
X20520872Y-1688729D01*
X20578016Y-1697780D01*
X20621780Y-1704712D01*
X20621782Y-1704712D01*
X20723845Y-1700077D01*
X20746992Y-1694220D01*
X20822888Y-1675016D01*
X20822889Y-1675015D01*
X20822891Y-1675015D01*
X20914875Y-1630548D01*
X20996039Y-1568494D01*
X21012888Y-1549112D01*
X21046784Y-1510118D01*
X21108916Y-1569698D01*
X21138783Y-1598339D01*
X21189930Y-1630548D01*
X21220942Y-1650077D01*
X21225237Y-1652782D01*
X21226847Y-1653387D01*
X21329675Y-1692038D01*
X21297269Y-1847159D01*
X21297269Y-1847161D01*
X21296913Y-1949328D01*
X21309223Y-2010380D01*
X21317107Y-2049482D01*
X21357026Y-2143525D01*
X21357027Y-2143526D01*
X21415042Y-2227625D01*
X21471278Y-2281552D01*
X21490777Y-2300251D01*
X21417339Y-2369696D01*
X21358738Y-2453387D01*
X21333304Y-2512162D01*
X21318162Y-2547152D01*
X21297471Y-2646196D01*
X21297269Y-2647161D01*
X21296913Y-2749328D01*
X21308672Y-2807646D01*
X21317107Y-2849482D01*
X21357026Y-2943525D01*
X21374250Y-2968493D01*
X21415042Y-3027625D01*
X21488783Y-3098339D01*
X21511636Y-3112730D01*
X21571118Y-3150188D01*
X21575237Y-3152782D01*
X21670872Y-3188729D01*
X21720983Y-3196666D01*
X21771780Y-3204712D01*
X21771782Y-3204712D01*
X21873845Y-3200077D01*
X21874149Y-3200000D01*
X21972888Y-3175016D01*
X21972889Y-3175015D01*
X21972891Y-3175015D01*
X22064875Y-3130548D01*
X22146039Y-3068494D01*
X22146043Y-3068491D01*
X22213065Y-2991390D01*
X22214565Y-2988729D01*
X22236765Y-2949328D01*
X27996913Y-2949328D01*
X28008515Y-3006867D01*
X28017107Y-3049482D01*
X28057026Y-3143525D01*
X28062795Y-3151888D01*
X28115042Y-3227625D01*
X28188783Y-3298339D01*
X28226221Y-3321915D01*
X28268182Y-3348339D01*
X28275237Y-3352782D01*
X28370872Y-3388729D01*
X28431418Y-3398319D01*
X28471780Y-3404712D01*
X28471782Y-3404712D01*
X28573845Y-3400077D01*
X28603280Y-3392629D01*
X28672888Y-3375016D01*
X28672889Y-3375015D01*
X28672891Y-3375015D01*
X28764875Y-3330548D01*
X28846039Y-3268494D01*
X28846043Y-3268491D01*
X28913065Y-3191390D01*
X28914565Y-3188729D01*
X28963221Y-3102376D01*
X28994454Y-3005099D01*
X29005488Y-2903529D01*
X29005500Y-2900000D01*
X29005500Y-2899990D01*
X29001597Y-2861557D01*
X31368893Y-494261D01*
X31402605Y-474797D01*
X31441531Y-474797D01*
X31475242Y-494261D01*
X31494706Y-527972D01*
X31497267Y-547690D01*
X31496913Y-649328D01*
X31507221Y-700451D01*
X31517107Y-749482D01*
X31557026Y-843525D01*
X31566503Y-857262D01*
X31615042Y-927625D01*
X31688783Y-998339D01*
X31750009Y-1036895D01*
X31766297Y-1047152D01*
X31775237Y-1052782D01*
X31870872Y-1088729D01*
X31928774Y-1097900D01*
X31971780Y-1104712D01*
X31971782Y-1104712D01*
X31979552Y-1104359D01*
X32072888Y-1100121D01*
X32572954Y-1600188D01*
X32584615Y-1615385D01*
X32599810Y-1627044D01*
X32635867Y-1654712D01*
X32647699Y-1663791D01*
X32669219Y-1672704D01*
X32721160Y-1694220D01*
X32721162Y-1694220D01*
X32721164Y-1694221D01*
X32781011Y-1702100D01*
X32781013Y-1702100D01*
X32800000Y-1704600D01*
X32818987Y-1702100D01*
X33846418Y-1702100D01*
X33884018Y-1712175D01*
X33911543Y-1739700D01*
X33921618Y-1777300D01*
X33911543Y-1814900D01*
X33883144Y-1838812D01*
X33884895Y-1841635D01*
X33878404Y-1845660D01*
X33878403Y-1845660D01*
X33791572Y-1899498D01*
X33755160Y-1933931D01*
X33717337Y-1969698D01*
X33688852Y-2010380D01*
X33658738Y-2053387D01*
X33629845Y-2120154D01*
X33618162Y-2147152D01*
X33601115Y-2228753D01*
X33597269Y-2247161D01*
X33596913Y-2349328D01*
X33609964Y-2414052D01*
X33617107Y-2449482D01*
X33657026Y-2543525D01*
X33672256Y-2565602D01*
X33715042Y-2627625D01*
X33788783Y-2698339D01*
X33817600Y-2716486D01*
X33866297Y-2747152D01*
X33875237Y-2752782D01*
X33970872Y-2788729D01*
X34031418Y-2798319D01*
X34071780Y-2804712D01*
X34071782Y-2804712D01*
X34173845Y-2800077D01*
X34223388Y-2787541D01*
X34272888Y-2775016D01*
X34272889Y-2775015D01*
X34272891Y-2775015D01*
X34364875Y-2730548D01*
X34446039Y-2668494D01*
X34446043Y-2668491D01*
X34513065Y-2591390D01*
X34516710Y-2584922D01*
X34536765Y-2549328D01*
X38896913Y-2549328D01*
X38909223Y-2610380D01*
X38917107Y-2649482D01*
X38957026Y-2743525D01*
X38974767Y-2769242D01*
X39015042Y-2827625D01*
X39088783Y-2898339D01*
X39140140Y-2930680D01*
X39166297Y-2947152D01*
X39175237Y-2952782D01*
X39270872Y-2988729D01*
X39321327Y-2996721D01*
X39371779Y-3004712D01*
X39371782Y-3004712D01*
X39447611Y-3001269D01*
X39472887Y-3000121D01*
X39622951Y-3150185D01*
X39628507Y-3157425D01*
X39634615Y-3165385D01*
X39664374Y-3188220D01*
X39697699Y-3213791D01*
X39714430Y-3220721D01*
X39771164Y-3244221D01*
X39831011Y-3252100D01*
X39831012Y-3252100D01*
X39849999Y-3254600D01*
X39868986Y-3252100D01*
X43338424Y-3252100D01*
X43365042Y-3277625D01*
X43438783Y-3348339D01*
X43489930Y-3380548D01*
X43520942Y-3400077D01*
X43525237Y-3402782D01*
X43620872Y-3438729D01*
X43681418Y-3448319D01*
X43721780Y-3454712D01*
X43721782Y-3454712D01*
X43823845Y-3450077D01*
X43823849Y-3450076D01*
X43922888Y-3425016D01*
X43922889Y-3425015D01*
X43922891Y-3425015D01*
X44014875Y-3380548D01*
X44096039Y-3318494D01*
X44096043Y-3318491D01*
X44163065Y-3241390D01*
X44165080Y-3237815D01*
X44213221Y-3152376D01*
X44244454Y-3055099D01*
X44255488Y-2953529D01*
X44255500Y-2950000D01*
X44255102Y-2946074D01*
X44245175Y-2848354D01*
X44214623Y-2750862D01*
X44165091Y-2661504D01*
X44098604Y-2583932D01*
X44081846Y-2570933D01*
X44017874Y-2521312D01*
X43926203Y-2476204D01*
X43827334Y-2450451D01*
X43725306Y-2445103D01*
X43725304Y-2445103D01*
X43624291Y-2460380D01*
X43624289Y-2460381D01*
X43624287Y-2460381D01*
X43528403Y-2495660D01*
X43528402Y-2495661D01*
X43528401Y-2495661D01*
X43491881Y-2518305D01*
X43441572Y-2549498D01*
X43367339Y-2619696D01*
X43347590Y-2647900D01*
X39975134Y-2647900D01*
X39898166Y-2570932D01*
X39905488Y-2503529D01*
X39905500Y-2500000D01*
X39905060Y-2495661D01*
X39895175Y-2398354D01*
X39864623Y-2300862D01*
X39815091Y-2211504D01*
X39748604Y-2133932D01*
X39748603Y-2133931D01*
X39667874Y-2071312D01*
X39576203Y-2026204D01*
X39477334Y-2000451D01*
X39375306Y-1995103D01*
X39375304Y-1995103D01*
X39274291Y-2010380D01*
X39274289Y-2010381D01*
X39274287Y-2010381D01*
X39178403Y-2045660D01*
X39178402Y-2045661D01*
X39178401Y-2045661D01*
X39158330Y-2058106D01*
X39091572Y-2099498D01*
X39042757Y-2145660D01*
X39017337Y-2169698D01*
X38996541Y-2199398D01*
X38958738Y-2253387D01*
X38930716Y-2318141D01*
X38918162Y-2347152D01*
X38897271Y-2447152D01*
X38897269Y-2447161D01*
X38896913Y-2549328D01*
X34536765Y-2549328D01*
X34563221Y-2502376D01*
X34594454Y-2405099D01*
X34605488Y-2303529D01*
X34605500Y-2300000D01*
X34605486Y-2299857D01*
X34595175Y-2198354D01*
X34564623Y-2100862D01*
X34515091Y-2011504D01*
X34448604Y-1933932D01*
X34417609Y-1909890D01*
X34367874Y-1871312D01*
X34313940Y-1844773D01*
X34284652Y-1819133D01*
X34272107Y-1782284D01*
X34279668Y-1744099D01*
X34305309Y-1714810D01*
X34347142Y-1702100D01*
X40981013Y-1702100D01*
X41000000Y-1704600D01*
X41018987Y-1702100D01*
X41018989Y-1702100D01*
X41078836Y-1694221D01*
X41152300Y-1663791D01*
X41164133Y-1654712D01*
X41215384Y-1615386D01*
X41227052Y-1600181D01*
X41375133Y-1452100D01*
X43388424Y-1452100D01*
X43415042Y-1477625D01*
X43488783Y-1548339D01*
X43533359Y-1576410D01*
X43571118Y-1600188D01*
X43575237Y-1602782D01*
X43670872Y-1638729D01*
X43731418Y-1648319D01*
X43771780Y-1654712D01*
X43771782Y-1654712D01*
X43873845Y-1650077D01*
X43918693Y-1638729D01*
X43972888Y-1625016D01*
X43972889Y-1625015D01*
X43972891Y-1625015D01*
X44064875Y-1580548D01*
X44146039Y-1518494D01*
X44146043Y-1518491D01*
X44213065Y-1441390D01*
X44216597Y-1435123D01*
X44263221Y-1352376D01*
X44294454Y-1255099D01*
X44305488Y-1153529D01*
X44305500Y-1150000D01*
X44305212Y-1147159D01*
X44295175Y-1048354D01*
X44264623Y-950862D01*
X44215091Y-861504D01*
X44148604Y-783932D01*
X44145317Y-781382D01*
X44067874Y-721312D01*
X43976203Y-676204D01*
X43877334Y-650451D01*
X43775306Y-645103D01*
X43775304Y-645103D01*
X43674291Y-660380D01*
X43674289Y-660381D01*
X43674287Y-660381D01*
X43578403Y-695660D01*
X43578402Y-695661D01*
X43578401Y-695661D01*
X43572116Y-699558D01*
X43491572Y-749498D01*
X43417339Y-819696D01*
X43397590Y-847900D01*
X41268986Y-847900D01*
X41249999Y-845400D01*
X41231012Y-847900D01*
X41231011Y-847900D01*
X41216851Y-849764D01*
X41178258Y-844682D01*
X41147376Y-820985D01*
X41132480Y-785021D01*
X41137562Y-746428D01*
X41158050Y-718152D01*
X41198464Y-683453D01*
X41263787Y-601184D01*
X41312369Y-508054D01*
X41314424Y-501185D01*
X41329881Y-449500D01*
X41342468Y-407414D01*
X41352992Y-302895D01*
X41353000Y-299997D01*
X41343024Y-195431D01*
X41322715Y-126205D01*
X41313453Y-94634D01*
X41282189Y-33931D01*
X41265356Y-1248D01*
X41224435Y50847D01*
X41209131Y86639D01*
X41213774Y125288D01*
X41237119Y156437D01*
X41283572Y172500D01*
X41864315Y172500D01*
X41868944Y171465D01*
X41868945Y171465D01*
X41877180Y171724D01*
X41901886Y172500D01*
X41919792Y172500D01*
X41925719Y173249D01*
X41951623Y174063D01*
X41966599Y178413D01*
X41982069Y180368D01*
X42006164Y189908D01*
X42031054Y197140D01*
X42031057Y197142D01*
X42031058Y197142D01*
X42044475Y205076D01*
X42058979Y210819D01*
X42079956Y226059D01*
X42102258Y239248D01*
X42103477Y240323D01*
X42113808Y250654D01*
X42125901Y259440D01*
X42141738Y278584D01*
X42973196Y1110042D01*
X47096913Y1110042D01*
X47110507Y1042624D01*
X47117107Y1009888D01*
X47157026Y915845D01*
X47157027Y915844D01*
X47215042Y831745D01*
X47288783Y761031D01*
X47375237Y706588D01*
X47470872Y670641D01*
X47531418Y661051D01*
X47571780Y654658D01*
X47571782Y654658D01*
X47673845Y659293D01*
X47718693Y670641D01*
X47772888Y684354D01*
X47772889Y684355D01*
X47772891Y684355D01*
X47864875Y728822D01*
X47946039Y790876D01*
X47946043Y790879D01*
X48013065Y867980D01*
X48025259Y889620D01*
X48063221Y956994D01*
X48094454Y1054271D01*
X48105488Y1155841D01*
X48105500Y1159370D01*
X48104167Y1172500D01*
X48095175Y1261016D01*
X48064623Y1358508D01*
X48015091Y1447866D01*
X47948604Y1525438D01*
X47919268Y1548193D01*
X47867874Y1588058D01*
X47776203Y1633166D01*
X47677334Y1658919D01*
X47575306Y1664267D01*
X47575304Y1664267D01*
X47474291Y1648990D01*
X47474289Y1648989D01*
X47474287Y1648989D01*
X47378403Y1613710D01*
X47378402Y1613709D01*
X47378401Y1613709D01*
X47349929Y1596055D01*
X47291572Y1559872D01*
X47217339Y1489674D01*
X47217337Y1489672D01*
X47202657Y1468706D01*
X47158738Y1405983D01*
X47129002Y1337267D01*
X47118162Y1312218D01*
X47098052Y1215955D01*
X47097269Y1212209D01*
X47096913Y1110042D01*
X42973196Y1110042D01*
X43653406Y1790252D01*
X46096913Y1790252D01*
X46108930Y1730653D01*
X46117107Y1690098D01*
X46157026Y1596055D01*
X46175020Y1569971D01*
X46215042Y1511955D01*
X46288783Y1441241D01*
X46340600Y1408610D01*
X46362370Y1394901D01*
X46375237Y1386798D01*
X46470872Y1350851D01*
X46531418Y1341261D01*
X46571780Y1334868D01*
X46571782Y1334868D01*
X46673845Y1339503D01*
X46673849Y1339504D01*
X46772888Y1364564D01*
X46772889Y1364565D01*
X46772891Y1364565D01*
X46864875Y1409032D01*
X46946039Y1471086D01*
X46946043Y1471089D01*
X47013065Y1548190D01*
X47019648Y1559872D01*
X47063221Y1637204D01*
X47094454Y1734481D01*
X47105488Y1836051D01*
X47105500Y1839580D01*
X47105467Y1839913D01*
X47095175Y1941226D01*
X47064623Y2038718D01*
X47015091Y2128076D01*
X46948604Y2205648D01*
X46944979Y2208460D01*
X46867874Y2268268D01*
X46776203Y2313376D01*
X46677334Y2339129D01*
X46575306Y2344477D01*
X46575304Y2344477D01*
X46474291Y2329200D01*
X46474289Y2329199D01*
X46474287Y2329199D01*
X46378403Y2293920D01*
X46291572Y2240082D01*
X46227826Y2179801D01*
X46217337Y2169882D01*
X46188065Y2128076D01*
X46158738Y2086193D01*
X46127964Y2015078D01*
X46118162Y1992428D01*
X46097792Y1894922D01*
X46097269Y1892419D01*
X46096913Y1790252D01*
X43653406Y1790252D01*
X44333616Y2470462D01*
X47996913Y2470462D01*
X48008952Y2410753D01*
X48017107Y2370308D01*
X48057026Y2276265D01*
X48074786Y2250520D01*
X48115042Y2192165D01*
X48188783Y2121451D01*
X48239930Y2089242D01*
X48266713Y2072376D01*
X48275237Y2067008D01*
X48370872Y2031061D01*
X48431418Y2021471D01*
X48471780Y2015078D01*
X48471782Y2015078D01*
X48573845Y2019713D01*
X48594680Y2024985D01*
X48672888Y2044774D01*
X48672889Y2044775D01*
X48672891Y2044775D01*
X48764875Y2089242D01*
X48846039Y2151296D01*
X48846043Y2151299D01*
X48913065Y2228400D01*
X48919648Y2240082D01*
X48963221Y2317414D01*
X48994454Y2414691D01*
X49005488Y2516261D01*
X49005500Y2519790D01*
X49001267Y2561469D01*
X48995175Y2621436D01*
X48964623Y2718928D01*
X48915091Y2808286D01*
X48848604Y2885858D01*
X48843790Y2889592D01*
X48767874Y2948478D01*
X48676203Y2993586D01*
X48577334Y3019339D01*
X48475306Y3024687D01*
X48475304Y3024687D01*
X48374291Y3009410D01*
X48374289Y3009409D01*
X48374287Y3009409D01*
X48278403Y2974130D01*
X48278402Y2974129D01*
X48278401Y2974129D01*
X48272242Y2970310D01*
X48191572Y2920292D01*
X48124574Y2856936D01*
X48117337Y2850092D01*
X48091009Y2812491D01*
X48058738Y2766403D01*
X48019734Y2676270D01*
X48018162Y2672638D01*
X47997858Y2575446D01*
X47997269Y2572629D01*
X47996913Y2470462D01*
X44333616Y2470462D01*
X45635655Y3772500D01*
X45916639Y3772500D01*
X45954239Y3762425D01*
X45981764Y3734900D01*
X45991839Y3697300D01*
X45981764Y3659700D01*
X45956266Y3633388D01*
X45872554Y3581484D01*
X45836142Y3547051D01*
X45798319Y3511284D01*
X45775136Y3478174D01*
X45739720Y3427595D01*
X45719176Y3380120D01*
X45699144Y3333830D01*
X45679608Y3240315D01*
X45678251Y3233821D01*
X45677895Y3131654D01*
X45690540Y3068940D01*
X45698089Y3031500D01*
X45738008Y2937457D01*
X45744877Y2927500D01*
X45796024Y2853357D01*
X45869765Y2782643D01*
X45923043Y2749092D01*
X45951811Y2730976D01*
X45956219Y2728200D01*
X46051854Y2692253D01*
X46112400Y2682663D01*
X46152762Y2676270D01*
X46152764Y2676270D01*
X46254827Y2680905D01*
X46309654Y2694778D01*
X46353870Y2705966D01*
X46353871Y2705967D01*
X46353873Y2705967D01*
X46445857Y2750434D01*
X46527021Y2812488D01*
X46527025Y2812491D01*
X46594047Y2889592D01*
X46594063Y2889619D01*
X46644203Y2978606D01*
X46675436Y3075883D01*
X46686470Y3177453D01*
X46686482Y3180982D01*
X46685708Y3188608D01*
X46676157Y3282628D01*
X46645605Y3380120D01*
X46596073Y3469478D01*
X46529586Y3547050D01*
X46528974Y3547525D01*
X46448856Y3609670D01*
X46407892Y3629827D01*
X46378604Y3655467D01*
X46366059Y3692316D01*
X46373620Y3730501D01*
X46399261Y3759790D01*
X46441094Y3772500D01*
X48414910Y3772500D01*
X48473260Y3716547D01*
X48488783Y3701661D01*
X48539930Y3669452D01*
X48563885Y3654367D01*
X48575237Y3647218D01*
X48670872Y3611271D01*
X48731418Y3601681D01*
X48771780Y3595288D01*
X48771782Y3595288D01*
X48873845Y3599923D01*
X48918693Y3611271D01*
X48972888Y3624984D01*
X48972889Y3624985D01*
X48972891Y3624985D01*
X49064875Y3669452D01*
X49146039Y3731506D01*
X49146043Y3731509D01*
X49213065Y3808610D01*
X49214565Y3811271D01*
X49263221Y3897624D01*
X49265600Y3905035D01*
X51055210Y3905035D01*
X51056181Y3899923D01*
X51074804Y3801836D01*
X51091593Y3759539D01*
X51113558Y3704202D01*
X51170076Y3615657D01*
X51242317Y3539397D01*
X51327678Y3478172D01*
X51423072Y3434196D01*
X51512785Y3412076D01*
X51612138Y3312723D01*
X51619200Y3303003D01*
X51645889Y3278972D01*
X51654112Y3270749D01*
X51663148Y3263432D01*
X51685769Y3243064D01*
X51689579Y3239633D01*
X51699882Y3233685D01*
X51709121Y3226203D01*
X51740795Y3210064D01*
X51771593Y3192283D01*
X51782912Y3188605D01*
X51793505Y3183207D01*
X51827822Y3174012D01*
X51861662Y3163017D01*
X51873496Y3161773D01*
X51884978Y3158697D01*
X51920468Y3156837D01*
X51932056Y3155619D01*
X51943703Y3155619D01*
X51979552Y3153740D01*
X51979553Y3153740D01*
X51991416Y3155619D01*
X52770548Y3155619D01*
X52782411Y3153740D01*
X52782412Y3153740D01*
X52818268Y3155619D01*
X52829905Y3155619D01*
X52841479Y3156835D01*
X52871066Y3158386D01*
X52876985Y3158696D01*
X52888472Y3161775D01*
X52898489Y3162827D01*
X52900304Y3163018D01*
X52919698Y3169320D01*
X52934116Y3174005D01*
X52968459Y3183207D01*
X52979059Y3188607D01*
X52990371Y3192283D01*
X53021169Y3210064D01*
X53021178Y3210069D01*
X53052838Y3226201D01*
X53052840Y3226202D01*
X53059250Y3231393D01*
X53062081Y3233685D01*
X53062321Y3233823D01*
X53065349Y3235571D01*
X53072387Y3239634D01*
X53098824Y3263439D01*
X53107852Y3270750D01*
X53116065Y3278963D01*
X53142764Y3303003D01*
X53149828Y3312726D01*
X53794451Y3957348D01*
X53828157Y3962055D01*
X53927567Y3995994D01*
X53933700Y3999499D01*
X54018767Y4048119D01*
X54098464Y4116547D01*
X54163787Y4198816D01*
X54212369Y4291946D01*
X54213723Y4296471D01*
X54224465Y4332390D01*
X54242468Y4392586D01*
X54252992Y4497105D01*
X54253000Y4500003D01*
X54243024Y4604569D01*
X54227624Y4657060D01*
X54213453Y4705366D01*
X54188152Y4754491D01*
X54165356Y4798752D01*
X54111346Y4867510D01*
X54100467Y4881360D01*
X54099601Y4882112D01*
X54086937Y4893101D01*
X54021129Y4950206D01*
X53930203Y5002808D01*
X53830971Y5037267D01*
X53727014Y5052340D01*
X53630610Y5047878D01*
X53622080Y5047483D01*
X53557228Y5031853D01*
X53519961Y5022872D01*
X53519960Y5022871D01*
X53519958Y5022871D01*
X53424336Y4979395D01*
X53384076Y4950836D01*
X53338658Y4918618D01*
X53266019Y4842738D01*
X53209038Y4754490D01*
X53199291Y4730304D01*
X53169772Y4657059D01*
X53157594Y4594698D01*
X52619517Y4056619D01*
X52150063Y4056619D01*
X52119299Y4161485D01*
X52071202Y4254870D01*
X52031536Y4305367D01*
X52006313Y4337478D01*
X51926975Y4406324D01*
X51836049Y4458926D01*
X51736817Y4493385D01*
X51632860Y4508458D01*
X51536456Y4503996D01*
X51527926Y4503601D01*
X51469915Y4489620D01*
X51425807Y4478990D01*
X51425806Y4478989D01*
X51425804Y4478989D01*
X51330182Y4435513D01*
X51292257Y4408610D01*
X51244504Y4374736D01*
X51171865Y4298856D01*
X51114884Y4210608D01*
X51075619Y4113178D01*
X51072054Y4094922D01*
X51055485Y4010082D01*
X51055210Y3905035D01*
X49265600Y3905035D01*
X49294454Y3994901D01*
X49305488Y4096471D01*
X49305500Y4100000D01*
X49304626Y4108610D01*
X49295175Y4201646D01*
X49264623Y4299138D01*
X49215091Y4388496D01*
X49148604Y4466068D01*
X49148603Y4466069D01*
X49067874Y4528688D01*
X48976203Y4573796D01*
X48877334Y4599549D01*
X48775306Y4604897D01*
X48775304Y4604897D01*
X48674291Y4589620D01*
X48674289Y4589619D01*
X48674287Y4589619D01*
X48578403Y4554340D01*
X48578402Y4554339D01*
X48578401Y4554339D01*
X48537031Y4528688D01*
X48491572Y4500502D01*
X48417339Y4430304D01*
X48414374Y4427500D01*
X45535685Y4427500D01*
X45531056Y4428535D01*
X45531055Y4428535D01*
X45522820Y4428276D01*
X45498114Y4427500D01*
X45480208Y4427500D01*
X45474281Y4426751D01*
X45448375Y4425937D01*
X45433402Y4421586D01*
X45417933Y4419633D01*
X45393828Y4410090D01*
X45368942Y4402859D01*
X45355521Y4394922D01*
X45341023Y4389182D01*
X45341022Y4389182D01*
X45341021Y4389181D01*
X45320049Y4373944D01*
X45297740Y4360751D01*
X45296522Y4359677D01*
X45286189Y4349344D01*
X45282430Y4346613D01*
X45274099Y4340560D01*
X45258266Y4321421D01*
X41764346Y827500D01*
X37378514Y827500D01*
X37413516Y889619D01*
X37463221Y977834D01*
X37494454Y1075111D01*
X37505488Y1176681D01*
X37505500Y1180210D01*
X37505384Y1181360D01*
X37495175Y1281856D01*
X37464623Y1379348D01*
X37415091Y1468706D01*
X37348604Y1546278D01*
X37346135Y1548193D01*
X37267874Y1608898D01*
X37176203Y1654006D01*
X37077334Y1679759D01*
X36975306Y1685107D01*
X36975304Y1685107D01*
X36874291Y1669830D01*
X36874289Y1669829D01*
X36874287Y1669829D01*
X36778403Y1634550D01*
X36778402Y1634549D01*
X36778401Y1634549D01*
X36776169Y1633165D01*
X36691572Y1580712D01*
X36657184Y1548193D01*
X36617337Y1510512D01*
X36602745Y1489672D01*
X36558738Y1426823D01*
X36531796Y1364564D01*
X36518162Y1333058D01*
X36500973Y1250777D01*
X36497269Y1233049D01*
X36496913Y1130882D01*
X36508394Y1073944D01*
X36517107Y1030728D01*
X36603373Y827500D01*
X31935685Y827500D01*
X31931056Y828535D01*
X31931055Y828535D01*
X31922821Y828276D01*
X31898114Y827500D01*
X31880208Y827500D01*
X31874281Y826751D01*
X31848375Y825937D01*
X31833402Y821586D01*
X31817933Y819633D01*
X31793828Y810090D01*
X31768942Y802859D01*
X31755521Y794922D01*
X31741023Y789182D01*
X31741022Y789182D01*
X31741021Y789181D01*
X31720049Y773944D01*
X31697740Y760751D01*
X31696522Y759677D01*
X31686188Y749343D01*
X31674099Y740560D01*
X31658266Y721421D01*
X28538435Y-2398411D01*
X28478164Y-2395253D01*
X28475306Y-2395103D01*
X28475305Y-2395103D01*
X28374291Y-2410380D01*
X28374289Y-2410381D01*
X28374287Y-2410381D01*
X28278403Y-2445660D01*
X28278402Y-2445661D01*
X28278401Y-2445661D01*
X28254662Y-2460380D01*
X28191572Y-2499498D01*
X28138878Y-2549328D01*
X28117337Y-2569698D01*
X28094616Y-2602148D01*
X28058738Y-2653387D01*
X28025347Y-2730548D01*
X28018162Y-2747152D01*
X27997303Y-2847000D01*
X27997269Y-2847161D01*
X27996913Y-2949328D01*
X22236765Y-2949328D01*
X22263221Y-2902376D01*
X22294454Y-2805099D01*
X22305488Y-2703529D01*
X22305500Y-2700000D01*
X22305332Y-2698339D01*
X22295175Y-2598354D01*
X22264623Y-2500862D01*
X22215091Y-2411504D01*
X22159935Y-2347152D01*
X22148603Y-2333931D01*
X22148602Y-2333930D01*
X22119090Y-2299498D01*
X22213067Y-2191387D01*
X22263221Y-2102376D01*
X22280204Y-2049480D01*
X22294454Y-2005099D01*
X22305488Y-1903529D01*
X22305500Y-1900000D01*
X22302807Y-1873483D01*
X22295175Y-1798354D01*
X22264623Y-1700862D01*
X22215091Y-1611504D01*
X22148604Y-1533932D01*
X22128701Y-1518494D01*
X22067874Y-1471312D01*
X21976203Y-1426204D01*
X21976198Y-1426203D01*
X21915207Y-1396191D01*
X21944454Y-1305099D01*
X21955488Y-1203529D01*
X21955500Y-1200000D01*
X21955466Y-1199657D01*
X21945175Y-1098354D01*
X21914623Y-1000862D01*
X21865091Y-911504D01*
X21816044Y-854280D01*
X21798603Y-833931D01*
X21798602Y-833930D01*
X21769090Y-799498D01*
X21863067Y-691387D01*
X21913221Y-602376D01*
X21919413Y-583090D01*
X21944454Y-505099D01*
X21955488Y-403529D01*
X21955500Y-400000D01*
X21955332Y-398339D01*
X21945175Y-298354D01*
X21914623Y-200862D01*
X21865091Y-111504D01*
X21809942Y-47161D01*
X21798603Y-33931D01*
X21798602Y-33930D01*
X21769090Y502D01*
X21863067Y108613D01*
X21913221Y197624D01*
X21929689Y248917D01*
X24149364Y248917D01*
X24153833Y225380D01*
X24168958Y145718D01*
X24207712Y48084D01*
X24264230Y-40461D01*
X24336471Y-116721D01*
X24421830Y-177944D01*
X24452980Y-200286D01*
X24397197Y-239857D01*
X24338658Y-281382D01*
X24266019Y-357262D01*
X24209038Y-445510D01*
X24169773Y-542940D01*
X24168229Y-550846D01*
X24149639Y-646036D01*
X24149364Y-751083D01*
X24158557Y-799498D01*
X24168958Y-854282D01*
X24195496Y-921139D01*
X24207712Y-951916D01*
X24264230Y-1040461D01*
X24336471Y-1116721D01*
X24421832Y-1177946D01*
X24517221Y-1221920D01*
X24517222Y-1221920D01*
X24517226Y-1221922D01*
X24619216Y-1247068D01*
X24619217Y-1247068D01*
X24619221Y-1247069D01*
X24724120Y-1252475D01*
X24769283Y-1246167D01*
X24828157Y-1237945D01*
X24828162Y-1237943D01*
X24846386Y-1235398D01*
X24861521Y-1315112D01*
X24868958Y-1354282D01*
X24894076Y-1417562D01*
X24907712Y-1451916D01*
X24964230Y-1540461D01*
X25036471Y-1616721D01*
X25121832Y-1677946D01*
X25217221Y-1721920D01*
X25217222Y-1721920D01*
X25217226Y-1721922D01*
X25319216Y-1747068D01*
X25319217Y-1747068D01*
X25319221Y-1747069D01*
X25424121Y-1752475D01*
X25528154Y-1737946D01*
X25561238Y-1726651D01*
X25627567Y-1704006D01*
X25629543Y-1702877D01*
X25718767Y-1651881D01*
X25798464Y-1583453D01*
X25863787Y-1501184D01*
X25912369Y-1408054D01*
X25912467Y-1407728D01*
X25926194Y-1361829D01*
X25942468Y-1307414D01*
X25952992Y-1202895D01*
X25953000Y-1199997D01*
X25943024Y-1095431D01*
X25922588Y-1025772D01*
X25913453Y-994634D01*
X25865355Y-901247D01*
X25800467Y-818640D01*
X25778822Y-799857D01*
X25663239Y-699558D01*
X25733462Y-639264D01*
X25798465Y-583451D01*
X25798752Y-583090D01*
X25863787Y-501184D01*
X25912369Y-408054D01*
X25912561Y-407414D01*
X25927973Y-355879D01*
X25942468Y-307414D01*
X25952992Y-202895D01*
X25953000Y-199997D01*
X25943024Y-95431D01*
X25921143Y-20848D01*
X25913453Y5366D01*
X25889003Y52839D01*
X25865356Y98752D01*
X25827760Y146614D01*
X25800467Y181360D01*
X25800337Y181473D01*
X25663239Y300442D01*
X25727323Y355465D01*
X25798465Y416549D01*
X25808103Y428687D01*
X25863787Y498816D01*
X25912369Y591946D01*
X25916526Y605843D01*
X25927560Y642738D01*
X25942468Y692586D01*
X25952992Y797105D01*
X25953000Y800003D01*
X25943024Y904569D01*
X25920398Y981692D01*
X25913453Y1005366D01*
X25870285Y1089181D01*
X25865356Y1098752D01*
X25807525Y1172375D01*
X25800467Y1181360D01*
X25721129Y1250206D01*
X25630203Y1302808D01*
X25530971Y1337267D01*
X25427014Y1352340D01*
X25330610Y1347878D01*
X25322080Y1347483D01*
X25269737Y1334868D01*
X25219961Y1322872D01*
X25219960Y1322871D01*
X25219958Y1322871D01*
X25124336Y1279395D01*
X25089143Y1254430D01*
X25038658Y1218618D01*
X24966019Y1142738D01*
X24909038Y1054490D01*
X24878145Y977834D01*
X24869773Y957060D01*
X24845954Y835095D01*
X24801435Y841549D01*
X24727014Y852340D01*
X24630277Y847862D01*
X24622080Y847483D01*
X24570679Y835095D01*
X24519961Y822872D01*
X24519960Y822871D01*
X24519958Y822871D01*
X24424336Y779395D01*
X24385918Y752142D01*
X24338658Y718618D01*
X24266019Y642738D01*
X24209038Y554490D01*
X24170873Y459789D01*
X24169773Y457059D01*
X24149639Y353964D01*
X24149364Y248917D01*
X21929689Y248917D01*
X21929690Y248919D01*
X21944454Y294901D01*
X21955488Y396471D01*
X21955500Y400000D01*
X21955143Y403522D01*
X21945175Y501646D01*
X21914623Y599138D01*
X21865091Y688496D01*
X21798604Y766068D01*
X21768807Y789181D01*
X21717874Y828688D01*
X21626203Y873796D01*
X21527334Y899549D01*
X21425306Y904897D01*
X21425304Y904897D01*
X21324291Y889620D01*
X21324289Y889619D01*
X21324287Y889619D01*
X21228403Y854340D01*
X21228402Y854339D01*
X21228401Y854339D01*
X21217344Y847483D01*
X21141572Y800502D01*
X21078186Y740561D01*
X21067337Y730302D01*
X21028272Y674510D01*
X21008738Y646613D01*
X20979302Y578590D01*
X20968162Y552848D01*
X20947583Y454340D01*
X20947269Y452839D01*
X20946913Y350672D01*
X20959450Y288496D01*
X20967107Y250518D01*
X21007026Y156475D01*
X21014447Y145718D01*
X21065042Y72375D01*
X21134920Y5366D01*
X21140777Y-251D01*
X21067339Y-69696D01*
X21008738Y-153387D01*
X20979650Y-220606D01*
X20968162Y-247152D01*
X20952077Y-324148D01*
X20947269Y-347161D01*
X20946913Y-449328D01*
X20958754Y-508052D01*
X20967107Y-549482D01*
X21007026Y-643526D01*
X21023427Y-667299D01*
X21036486Y-703970D01*
X21029459Y-742257D01*
X21004231Y-771901D01*
X20967560Y-784960D01*
X20925797Y-772513D01*
X20924728Y-774685D01*
X20917875Y-771313D01*
X20917874Y-771312D01*
X20826203Y-726204D01*
X20727334Y-700451D01*
X20625306Y-695103D01*
X20625304Y-695103D01*
X20524291Y-710380D01*
X20524289Y-710381D01*
X20524287Y-710381D01*
X20428403Y-745660D01*
X20428402Y-745661D01*
X20428401Y-745661D01*
X20341570Y-799499D01*
X20246304Y-889585D01*
X20198603Y-833931D01*
X20178889Y-818639D01*
X20134144Y-783932D01*
X20117874Y-771312D01*
X20026203Y-726204D01*
X19927334Y-700451D01*
X19825306Y-695103D01*
X19825304Y-695103D01*
X19724291Y-710380D01*
X19724289Y-710381D01*
X19724287Y-710381D01*
X19628403Y-745660D01*
X19628402Y-745661D01*
X19628401Y-745661D01*
X19576205Y-778024D01*
X19538940Y-789275D01*
X19501042Y-780386D01*
X19472666Y-753739D01*
X19461415Y-716474D01*
X19471062Y-677197D01*
X19471101Y-677129D01*
X19513221Y-602376D01*
X19544454Y-505099D01*
X19555488Y-403529D01*
X19555500Y-400000D01*
X19555332Y-398339D01*
X19545175Y-298354D01*
X19514623Y-200862D01*
X19465091Y-111504D01*
X19409942Y-47161D01*
X19398603Y-33931D01*
X19398602Y-33930D01*
X19369090Y502D01*
X19463067Y108613D01*
X19513221Y197624D01*
X19529690Y248919D01*
X19544454Y294901D01*
X19555488Y396471D01*
X19555500Y400000D01*
X19555143Y403522D01*
X19545175Y501646D01*
X19514623Y599138D01*
X19465091Y688496D01*
X19398604Y766068D01*
X19368807Y789181D01*
X19317874Y828688D01*
X19226203Y873796D01*
X19127334Y899549D01*
X19025306Y904897D01*
X19025304Y904897D01*
X18924291Y889620D01*
X18924289Y889619D01*
X18924287Y889619D01*
X18828403Y854340D01*
X18828402Y854339D01*
X18828401Y854339D01*
X18817344Y847483D01*
X18741572Y800502D01*
X18678186Y740561D01*
X18667337Y730302D01*
X18628272Y674510D01*
X18608738Y646613D01*
X18579302Y578590D01*
X18568162Y552848D01*
X18547583Y454340D01*
X18547269Y452839D01*
X18546913Y350672D01*
X18559450Y288496D01*
X18567107Y250518D01*
X18607026Y156475D01*
X18614447Y145718D01*
X18665042Y72375D01*
X18734920Y5366D01*
X18740777Y-251D01*
X18667339Y-69696D01*
X18608738Y-153387D01*
X18579650Y-220606D01*
X18568162Y-247152D01*
X18552077Y-324148D01*
X18547269Y-347161D01*
X18546913Y-449328D01*
X18558754Y-508052D01*
X18567107Y-549482D01*
X18607026Y-643525D01*
X18618654Y-660381D01*
X18665042Y-727625D01*
X18720062Y-780386D01*
X18740777Y-800251D01*
X18667339Y-869696D01*
X18608738Y-953387D01*
X18570697Y-1041295D01*
X18568162Y-1047152D01*
X18547504Y-1146037D01*
X18547269Y-1147161D01*
X18546913Y-1249328D01*
X18562079Y-1324542D01*
X18579034Y-1408635D01*
X18574290Y-1410381D01*
X18574287Y-1410381D01*
X18478403Y-1445660D01*
X18478402Y-1445661D01*
X18478401Y-1445661D01*
X18468016Y-1452100D01*
X18391572Y-1499498D01*
X18318613Y-1568491D01*
X18317337Y-1569698D01*
X18284412Y-1616721D01*
X18258738Y-1653387D01*
X18232158Y-1714810D01*
X18218162Y-1747152D01*
X18197583Y-1845660D01*
X18197269Y-1847161D01*
X18196913Y-1949328D01*
X15700500Y-1949328D01*
X15700500Y2350672D01*
X27796913Y2350672D01*
X27810969Y2280960D01*
X27817107Y2250518D01*
X27857026Y2156475D01*
X27857027Y2156474D01*
X27915042Y2072375D01*
X27988783Y2001661D01*
X28075237Y1947218D01*
X28170872Y1911271D01*
X28231418Y1901681D01*
X28271780Y1895288D01*
X28271782Y1895288D01*
X28373845Y1899923D01*
X28411461Y1909441D01*
X28472888Y1924984D01*
X28472889Y1924985D01*
X28472891Y1924985D01*
X28564875Y1969452D01*
X28646039Y2031506D01*
X28646043Y2031509D01*
X28713065Y2108610D01*
X28714565Y2111271D01*
X28763221Y2197624D01*
X28794454Y2294901D01*
X28805488Y2396471D01*
X28805500Y2400000D01*
X28804688Y2407999D01*
X28795175Y2501646D01*
X28764623Y2599138D01*
X28715091Y2688496D01*
X28648604Y2766068D01*
X28648171Y2766404D01*
X28567874Y2828688D01*
X28476203Y2873796D01*
X28377334Y2899549D01*
X28275306Y2904897D01*
X28275304Y2904897D01*
X28174291Y2889620D01*
X28174289Y2889619D01*
X28174287Y2889619D01*
X28078403Y2854340D01*
X28078402Y2854339D01*
X28078401Y2854339D01*
X28056085Y2840502D01*
X27991572Y2800502D01*
X27918050Y2730976D01*
X27917337Y2730302D01*
X27895516Y2699138D01*
X27858738Y2646613D01*
X27829760Y2579650D01*
X27818162Y2552848D01*
X27798784Y2460090D01*
X27797269Y2452839D01*
X27796913Y2350672D01*
X15700500Y2350672D01*
X15700500Y3034216D01*
X15703000Y3050000D01*
X15700000Y3068940D01*
X15700000Y3200000D01*
X15633550Y3200000D01*
X15619320Y3214230D01*
X15562730Y3243064D01*
X15515784Y3250500D01*
X15500000Y3253000D01*
X15484216Y3250500D01*
X200500Y3250500D01*
X200500Y4050672D01*
X6596913Y4050672D01*
X6608625Y3992588D01*
X6617107Y3950518D01*
X6657026Y3856475D01*
X6657027Y3856474D01*
X6715042Y3772375D01*
X6788783Y3701661D01*
X6839930Y3669452D01*
X6863885Y3654367D01*
X6875237Y3647218D01*
X6970872Y3611271D01*
X7031418Y3601681D01*
X7071780Y3595288D01*
X7071782Y3595288D01*
X7173845Y3599923D01*
X7218693Y3611271D01*
X7272888Y3624984D01*
X7272889Y3624985D01*
X7272891Y3624985D01*
X7364875Y3669452D01*
X7446039Y3731506D01*
X7446043Y3731509D01*
X7513065Y3808610D01*
X7514565Y3811271D01*
X7563221Y3897624D01*
X7563960Y3899924D01*
X7566773Y3908687D01*
X7576696Y3939594D01*
X7609479Y3972376D01*
X7636603Y3999499D01*
X31263399Y3999499D01*
X31320595Y3942302D01*
X31338584Y3899924D01*
X31357028Y3856472D01*
X31396038Y3799923D01*
X31415042Y3772375D01*
X31488783Y3701661D01*
X31539930Y3669452D01*
X31563885Y3654367D01*
X31575237Y3647218D01*
X31670872Y3611271D01*
X31731418Y3601681D01*
X31771780Y3595288D01*
X31771782Y3595288D01*
X31873845Y3599923D01*
X31918693Y3611271D01*
X31972888Y3624984D01*
X31972889Y3624985D01*
X31972891Y3624985D01*
X32064875Y3669452D01*
X32146039Y3731506D01*
X32146043Y3731509D01*
X32213065Y3808610D01*
X32214565Y3811271D01*
X32263221Y3897624D01*
X32294454Y3994901D01*
X32300321Y4048917D01*
X35549364Y4048917D01*
X35558651Y4000004D01*
X35568958Y3945718D01*
X35604381Y3856475D01*
X35607712Y3848084D01*
X35664230Y3759539D01*
X35736471Y3683279D01*
X35821832Y3622054D01*
X35917221Y3578080D01*
X35917222Y3578080D01*
X35917226Y3578078D01*
X36019216Y3552932D01*
X36019217Y3552932D01*
X36019221Y3552931D01*
X36124121Y3547525D01*
X36228154Y3562054D01*
X36327567Y3595994D01*
X36421184Y3649500D01*
X40483566Y3649500D01*
X40521832Y3622054D01*
X40617221Y3578080D01*
X40617222Y3578080D01*
X40617226Y3578078D01*
X40719216Y3552932D01*
X40719217Y3552932D01*
X40719221Y3552931D01*
X40824121Y3547525D01*
X40928154Y3562054D01*
X40928157Y3562055D01*
X41027567Y3595994D01*
X41034442Y3599923D01*
X41118767Y3648119D01*
X41198464Y3716547D01*
X41263787Y3798816D01*
X41312369Y3891946D01*
X41342468Y3992586D01*
X41352992Y4097105D01*
X41353000Y4100003D01*
X41343024Y4204569D01*
X41329499Y4250672D01*
X41496913Y4250672D01*
X41511304Y4179300D01*
X41517107Y4150518D01*
X41557026Y4056475D01*
X41568005Y4040560D01*
X41615042Y3972375D01*
X41688783Y3901661D01*
X41739930Y3869452D01*
X41773862Y3848084D01*
X41775237Y3847218D01*
X41870872Y3811271D01*
X41930428Y3801838D01*
X41971780Y3795288D01*
X41971782Y3795288D01*
X42073845Y3799923D01*
X42081413Y3801838D01*
X42172888Y3824984D01*
X42172889Y3824985D01*
X42172891Y3824985D01*
X42264875Y3869452D01*
X42346039Y3931506D01*
X42346043Y3931509D01*
X42413065Y4008610D01*
X42413895Y4010082D01*
X42463221Y4097624D01*
X42494454Y4194901D01*
X42505488Y4296471D01*
X42505500Y4300000D01*
X42505332Y4301661D01*
X42495175Y4401646D01*
X42464623Y4499138D01*
X42415091Y4588496D01*
X42348604Y4666068D01*
X42348603Y4666069D01*
X42267874Y4728688D01*
X42176203Y4773796D01*
X42077334Y4799549D01*
X41975306Y4804897D01*
X41975304Y4804897D01*
X41874291Y4789620D01*
X41874289Y4789619D01*
X41874287Y4789619D01*
X41778403Y4754340D01*
X41778402Y4754339D01*
X41778401Y4754339D01*
X41760746Y4743392D01*
X41691572Y4700502D01*
X41624702Y4637267D01*
X41617337Y4630302D01*
X41592407Y4594698D01*
X41558738Y4546613D01*
X41530501Y4481361D01*
X41518162Y4452848D01*
X41498696Y4359668D01*
X41497269Y4352839D01*
X41496913Y4250672D01*
X41329499Y4250672D01*
X41325672Y4263716D01*
X41313453Y4305366D01*
X41289003Y4352839D01*
X41265356Y4398752D01*
X41206409Y4473795D01*
X41200467Y4481360D01*
X41121129Y4550206D01*
X41042545Y4595668D01*
X41030205Y4602807D01*
X41030204Y4602807D01*
X41030203Y4602808D01*
X40930971Y4637267D01*
X40827014Y4652340D01*
X40730610Y4647878D01*
X40722080Y4647483D01*
X40665231Y4633782D01*
X40619961Y4622872D01*
X40619960Y4622871D01*
X40619958Y4622871D01*
X40524337Y4579395D01*
X40483603Y4550500D01*
X36420621Y4550500D01*
X36370674Y4579395D01*
X36330205Y4602807D01*
X36330204Y4602807D01*
X36330203Y4602808D01*
X36230971Y4637267D01*
X36127014Y4652340D01*
X36030610Y4647878D01*
X36022080Y4647483D01*
X35965231Y4633782D01*
X35919961Y4622872D01*
X35919960Y4622871D01*
X35919958Y4622871D01*
X35824336Y4579395D01*
X35789015Y4554339D01*
X35738658Y4518618D01*
X35666019Y4442738D01*
X35609038Y4354490D01*
X35569773Y4257060D01*
X35567851Y4247218D01*
X35549639Y4153964D01*
X35549364Y4048917D01*
X32300321Y4048917D01*
X32305488Y4096471D01*
X32305500Y4100000D01*
X32304626Y4108610D01*
X32295175Y4201646D01*
X32264623Y4299138D01*
X32215091Y4388496D01*
X32148604Y4466068D01*
X32148603Y4466069D01*
X32067874Y4528688D01*
X31976203Y4573796D01*
X31958764Y4578338D01*
X31793710Y4743392D01*
X31793707Y4743397D01*
X31786646Y4753115D01*
X31785287Y4754339D01*
X31759947Y4777155D01*
X31751733Y4785369D01*
X31742707Y4792678D01*
X31742698Y4792686D01*
X31716269Y4816484D01*
X31705963Y4822433D01*
X31702179Y4825497D01*
X31696722Y4829916D01*
X31665058Y4846050D01*
X31665057Y4846051D01*
X31658550Y4849807D01*
X31634253Y4863835D01*
X31622941Y4867511D01*
X31612341Y4872911D01*
X31577998Y4882113D01*
X31554895Y4889620D01*
X31544186Y4893100D01*
X31542371Y4893291D01*
X31532354Y4894343D01*
X31520867Y4897422D01*
X31514948Y4897732D01*
X31485361Y4899283D01*
X31473787Y4900499D01*
X31462150Y4900499D01*
X31426294Y4902378D01*
X31426293Y4902378D01*
X31414430Y4900499D01*
X7485570Y4900499D01*
X7473707Y4902378D01*
X7473706Y4902378D01*
X7437857Y4900499D01*
X7426210Y4900499D01*
X7414622Y4899281D01*
X7379132Y4897421D01*
X7367650Y4894345D01*
X7355816Y4893101D01*
X7321976Y4882106D01*
X7287659Y4872911D01*
X7277066Y4867513D01*
X7265747Y4863835D01*
X7234949Y4846054D01*
X7203275Y4829915D01*
X7194036Y4822433D01*
X7183733Y4816485D01*
X7183732Y4816484D01*
X7157302Y4792686D01*
X7148266Y4785369D01*
X7140043Y4777146D01*
X7113354Y4753115D01*
X7106292Y4743395D01*
X6939845Y4576947D01*
X6878405Y4554341D01*
X6878404Y4554340D01*
X6878403Y4554340D01*
X6791572Y4500502D01*
X6717339Y4430304D01*
X6717337Y4430302D01*
X6688545Y4389182D01*
X6658738Y4346613D01*
X6625347Y4269452D01*
X6618162Y4252848D01*
X6597271Y4152848D01*
X6597269Y4152839D01*
X6596913Y4050672D01*
X200500Y4050672D01*
X200500Y5299500D01*
X76850766Y5299500D01*
X76888366Y5289425D01*
G37*
G04 #@! TD.AperFunction*
G04 #@! TA.AperFunction,Conductor*
G36*
X40351748Y162425D02*
G01*
X40379273Y134900D01*
X40389348Y97300D01*
X40369872Y48790D01*
X40369911Y48765D01*
X40369783Y48566D01*
X40368471Y45300D01*
X40366019Y42738D01*
X40309038Y-45510D01*
X40269773Y-142940D01*
X40268173Y-151133D01*
X40257593Y-205305D01*
X40214782Y-248116D01*
X37220621Y-248116D01*
X37130205Y-195809D01*
X37130204Y-195809D01*
X37130203Y-195808D01*
X37030971Y-161349D01*
X36927014Y-146276D01*
X36830610Y-150738D01*
X36822080Y-151133D01*
X36773853Y-162756D01*
X36719961Y-175744D01*
X36719960Y-175745D01*
X36719958Y-175745D01*
X36624336Y-219221D01*
X36595246Y-239857D01*
X36538658Y-279998D01*
X36466019Y-355878D01*
X36409038Y-444126D01*
X36369773Y-541556D01*
X36368574Y-547697D01*
X36349639Y-644652D01*
X36349364Y-749699D01*
X36358913Y-799989D01*
X36368958Y-852898D01*
X36401394Y-934615D01*
X36407712Y-950532D01*
X36427951Y-982240D01*
X36439689Y-1019355D01*
X36431296Y-1057366D01*
X36405023Y-1086088D01*
X36364563Y-1097900D01*
X32925134Y-1097900D01*
X32498166Y-670932D01*
X32505488Y-603529D01*
X32505500Y-600000D01*
X32504997Y-595042D01*
X32495175Y-498354D01*
X32464623Y-400862D01*
X32415091Y-311504D01*
X32348604Y-233932D01*
X32329640Y-219222D01*
X32267874Y-171312D01*
X32176203Y-126204D01*
X32077334Y-100451D01*
X31975306Y-95103D01*
X31975304Y-95103D01*
X31957273Y-97830D01*
X31918589Y-93492D01*
X31887257Y-70392D01*
X31871673Y-34722D01*
X31876011Y3962D01*
X31892853Y29698D01*
X32035655Y172500D01*
X40314148Y172500D01*
X40351748Y162425D01*
G37*
G04 #@! TD.AperFunction*
G04 #@! TD*
M02*
