G04 #@! TF.GenerationSoftware,KiCad,Pcbnew,(5.99.0-3540-g0818bd05d)*
G04 #@! TF.CreationDate,2020-09-30T20:14:19-07:00*
G04 #@! TF.ProjectId,RT_USB_PD_Soldering_Iron,52545f55-5342-45f5-9044-5f536f6c6465,rev?*
G04 #@! TF.SameCoordinates,PX5f5e100PY7735940*
G04 #@! TF.FileFunction,Paste,Bot*
G04 #@! TF.FilePolarity,Positive*
%FSLAX46Y46*%
G04 Gerber Fmt 4.6, Leading zero omitted, Abs format (unit mm)*
G04 Created by KiCad (PCBNEW (5.99.0-3540-g0818bd05d)) date 2020-09-30 20:14:19*
%MOMM*%
%LPD*%
G01*
G04 APERTURE LIST*
%ADD10R,2.200000X2.100000*%
%ADD11R,2.800000X2.100000*%
%ADD12R,2.600000X2.700000*%
%ADD13R,2.400000X0.740000*%
G04 APERTURE END LIST*
D10*
G04 #@! TO.C,J2*
X3000000Y-4050000D03*
X5200000Y4050000D03*
X2100000Y4050000D03*
D11*
X12800000Y-4050000D03*
D12*
X16800000Y750000D03*
G04 #@! TD*
G04 #@! TO.C,C16*
G36*
G01*
X19937500Y-300000D02*
X19462500Y-300000D01*
G75*
G02*
X19225000Y-62500I0J237500D01*
G01*
X19225000Y512500D01*
G75*
G02*
X19462500Y750000I237500J0D01*
G01*
X19937500Y750000D01*
G75*
G02*
X20175000Y512500I0J-237500D01*
G01*
X20175000Y-62500D01*
G75*
G02*
X19937500Y-300000I-237500J0D01*
G01*
G37*
G36*
G01*
X19937500Y1450000D02*
X19462500Y1450000D01*
G75*
G02*
X19225000Y1687500I0J237500D01*
G01*
X19225000Y2262500D01*
G75*
G02*
X19462500Y2500000I237500J0D01*
G01*
X19937500Y2500000D01*
G75*
G02*
X20175000Y2262500I0J-237500D01*
G01*
X20175000Y1687500D01*
G75*
G02*
X19937500Y1450000I-237500J0D01*
G01*
G37*
G04 #@! TD*
G04 #@! TO.C,C1*
G36*
G01*
X79432515Y-1195724D02*
X78957515Y-1195724D01*
G75*
G02*
X78720015Y-958224I0J237500D01*
G01*
X78720015Y-383224D01*
G75*
G02*
X78957515Y-145724I237500J0D01*
G01*
X79432515Y-145724D01*
G75*
G02*
X79670015Y-383224I0J-237500D01*
G01*
X79670015Y-958224D01*
G75*
G02*
X79432515Y-1195724I-237500J0D01*
G01*
G37*
G36*
G01*
X79432515Y554276D02*
X78957515Y554276D01*
G75*
G02*
X78720015Y791776I0J237500D01*
G01*
X78720015Y1366776D01*
G75*
G02*
X78957515Y1604276I237500J0D01*
G01*
X79432515Y1604276D01*
G75*
G02*
X79670015Y1366776I0J-237500D01*
G01*
X79670015Y791776D01*
G75*
G02*
X79432515Y554276I-237500J0D01*
G01*
G37*
G04 #@! TD*
D13*
G04 #@! TO.C,J3*
X58750000Y2170000D03*
X54850000Y2170000D03*
X58750000Y900000D03*
X54850000Y900000D03*
X58750000Y-370000D03*
X54850000Y-370000D03*
G04 #@! TD*
G04 #@! TO.C,R6*
G36*
G01*
X62482880Y319564D02*
X62112880Y319564D01*
G75*
G02*
X61977880Y454564I0J135000D01*
G01*
X61977880Y724564D01*
G75*
G02*
X62112880Y859564I135000J0D01*
G01*
X62482880Y859564D01*
G75*
G02*
X62617880Y724564I0J-135000D01*
G01*
X62617880Y454564D01*
G75*
G02*
X62482880Y319564I-135000J0D01*
G01*
G37*
G36*
G01*
X62482880Y1339564D02*
X62112880Y1339564D01*
G75*
G02*
X61977880Y1474564I0J135000D01*
G01*
X61977880Y1744564D01*
G75*
G02*
X62112880Y1879564I135000J0D01*
G01*
X62482880Y1879564D01*
G75*
G02*
X62617880Y1744564I0J-135000D01*
G01*
X62617880Y1474564D01*
G75*
G02*
X62482880Y1339564I-135000J0D01*
G01*
G37*
G04 #@! TD*
G04 #@! TO.C,C8*
G36*
G01*
X67359311Y3692591D02*
X67359311Y3352591D01*
G75*
G02*
X67219311Y3212591I-140000J0D01*
G01*
X66939311Y3212591D01*
G75*
G02*
X66799311Y3352591I0J140000D01*
G01*
X66799311Y3692591D01*
G75*
G02*
X66939311Y3832591I140000J0D01*
G01*
X67219311Y3832591D01*
G75*
G02*
X67359311Y3692591I0J-140000D01*
G01*
G37*
G36*
G01*
X66399311Y3692591D02*
X66399311Y3352591D01*
G75*
G02*
X66259311Y3212591I-140000J0D01*
G01*
X65979311Y3212591D01*
G75*
G02*
X65839311Y3352591I0J140000D01*
G01*
X65839311Y3692591D01*
G75*
G02*
X65979311Y3832591I140000J0D01*
G01*
X66259311Y3832591D01*
G75*
G02*
X66399311Y3692591I0J-140000D01*
G01*
G37*
G04 #@! TD*
G04 #@! TO.C,R4*
G36*
G01*
X33515000Y-2024522D02*
X33885000Y-2024522D01*
G75*
G02*
X34020000Y-2159522I0J-135000D01*
G01*
X34020000Y-2429522D01*
G75*
G02*
X33885000Y-2564522I-135000J0D01*
G01*
X33515000Y-2564522D01*
G75*
G02*
X33380000Y-2429522I0J135000D01*
G01*
X33380000Y-2159522D01*
G75*
G02*
X33515000Y-2024522I135000J0D01*
G01*
G37*
G36*
G01*
X33515000Y-3044522D02*
X33885000Y-3044522D01*
G75*
G02*
X34020000Y-3179522I0J-135000D01*
G01*
X34020000Y-3449522D01*
G75*
G02*
X33885000Y-3584522I-135000J0D01*
G01*
X33515000Y-3584522D01*
G75*
G02*
X33380000Y-3449522I0J135000D01*
G01*
X33380000Y-3179522D01*
G75*
G02*
X33515000Y-3044522I135000J0D01*
G01*
G37*
G04 #@! TD*
G04 #@! TO.C,U1*
G36*
G01*
X77275000Y-3325000D02*
X77075000Y-3325000D01*
G75*
G02*
X76975000Y-3225000I0J100000D01*
G01*
X76975000Y-1800000D01*
G75*
G02*
X77075000Y-1700000I100000J0D01*
G01*
X77275000Y-1700000D01*
G75*
G02*
X77375000Y-1800000I0J-100000D01*
G01*
X77375000Y-3225000D01*
G75*
G02*
X77275000Y-3325000I-100000J0D01*
G01*
G37*
G36*
G01*
X76625000Y-3325000D02*
X76425000Y-3325000D01*
G75*
G02*
X76325000Y-3225000I0J100000D01*
G01*
X76325000Y-1800000D01*
G75*
G02*
X76425000Y-1700000I100000J0D01*
G01*
X76625000Y-1700000D01*
G75*
G02*
X76725000Y-1800000I0J-100000D01*
G01*
X76725000Y-3225000D01*
G75*
G02*
X76625000Y-3325000I-100000J0D01*
G01*
G37*
G36*
G01*
X75975000Y-3325000D02*
X75775000Y-3325000D01*
G75*
G02*
X75675000Y-3225000I0J100000D01*
G01*
X75675000Y-1800000D01*
G75*
G02*
X75775000Y-1700000I100000J0D01*
G01*
X75975000Y-1700000D01*
G75*
G02*
X76075000Y-1800000I0J-100000D01*
G01*
X76075000Y-3225000D01*
G75*
G02*
X75975000Y-3325000I-100000J0D01*
G01*
G37*
G36*
G01*
X75325000Y-3325000D02*
X75125000Y-3325000D01*
G75*
G02*
X75025000Y-3225000I0J100000D01*
G01*
X75025000Y-1800000D01*
G75*
G02*
X75125000Y-1700000I100000J0D01*
G01*
X75325000Y-1700000D01*
G75*
G02*
X75425000Y-1800000I0J-100000D01*
G01*
X75425000Y-3225000D01*
G75*
G02*
X75325000Y-3325000I-100000J0D01*
G01*
G37*
G36*
G01*
X75325000Y900000D02*
X75125000Y900000D01*
G75*
G02*
X75025000Y1000000I0J100000D01*
G01*
X75025000Y2425000D01*
G75*
G02*
X75125000Y2525000I100000J0D01*
G01*
X75325000Y2525000D01*
G75*
G02*
X75425000Y2425000I0J-100000D01*
G01*
X75425000Y1000000D01*
G75*
G02*
X75325000Y900000I-100000J0D01*
G01*
G37*
G36*
G01*
X75975000Y900000D02*
X75775000Y900000D01*
G75*
G02*
X75675000Y1000000I0J100000D01*
G01*
X75675000Y2425000D01*
G75*
G02*
X75775000Y2525000I100000J0D01*
G01*
X75975000Y2525000D01*
G75*
G02*
X76075000Y2425000I0J-100000D01*
G01*
X76075000Y1000000D01*
G75*
G02*
X75975000Y900000I-100000J0D01*
G01*
G37*
G36*
G01*
X76625000Y900000D02*
X76425000Y900000D01*
G75*
G02*
X76325000Y1000000I0J100000D01*
G01*
X76325000Y2425000D01*
G75*
G02*
X76425000Y2525000I100000J0D01*
G01*
X76625000Y2525000D01*
G75*
G02*
X76725000Y2425000I0J-100000D01*
G01*
X76725000Y1000000D01*
G75*
G02*
X76625000Y900000I-100000J0D01*
G01*
G37*
G36*
G01*
X77275000Y900000D02*
X77075000Y900000D01*
G75*
G02*
X76975000Y1000000I0J100000D01*
G01*
X76975000Y2425000D01*
G75*
G02*
X77075000Y2525000I100000J0D01*
G01*
X77275000Y2525000D01*
G75*
G02*
X77375000Y2425000I0J-100000D01*
G01*
X77375000Y1000000D01*
G75*
G02*
X77275000Y900000I-100000J0D01*
G01*
G37*
G04 #@! TD*
G04 #@! TO.C,R1*
G36*
G01*
X80020523Y-2342002D02*
X80390523Y-2342002D01*
G75*
G02*
X80525523Y-2477002I0J-135000D01*
G01*
X80525523Y-2747002D01*
G75*
G02*
X80390523Y-2882002I-135000J0D01*
G01*
X80020523Y-2882002D01*
G75*
G02*
X79885523Y-2747002I0J135000D01*
G01*
X79885523Y-2477002D01*
G75*
G02*
X80020523Y-2342002I135000J0D01*
G01*
G37*
G36*
G01*
X80020523Y-3362002D02*
X80390523Y-3362002D01*
G75*
G02*
X80525523Y-3497002I0J-135000D01*
G01*
X80525523Y-3767002D01*
G75*
G02*
X80390523Y-3902002I-135000J0D01*
G01*
X80020523Y-3902002D01*
G75*
G02*
X79885523Y-3767002I0J135000D01*
G01*
X79885523Y-3497002D01*
G75*
G02*
X80020523Y-3362002I135000J0D01*
G01*
G37*
G04 #@! TD*
G04 #@! TO.C,R18*
G36*
G01*
X31035000Y-980000D02*
X30665000Y-980000D01*
G75*
G02*
X30530000Y-845000I0J135000D01*
G01*
X30530000Y-575000D01*
G75*
G02*
X30665000Y-440000I135000J0D01*
G01*
X31035000Y-440000D01*
G75*
G02*
X31170000Y-575000I0J-135000D01*
G01*
X31170000Y-845000D01*
G75*
G02*
X31035000Y-980000I-135000J0D01*
G01*
G37*
G36*
G01*
X31035000Y40000D02*
X30665000Y40000D01*
G75*
G02*
X30530000Y175000I0J135000D01*
G01*
X30530000Y445000D01*
G75*
G02*
X30665000Y580000I135000J0D01*
G01*
X31035000Y580000D01*
G75*
G02*
X31170000Y445000I0J-135000D01*
G01*
X31170000Y175000D01*
G75*
G02*
X31035000Y40000I-135000J0D01*
G01*
G37*
G04 #@! TD*
G04 #@! TO.C,C2*
G36*
G01*
X73339318Y-1493809D02*
X72864318Y-1493809D01*
G75*
G02*
X72626818Y-1256309I0J237500D01*
G01*
X72626818Y-681309D01*
G75*
G02*
X72864318Y-443809I237500J0D01*
G01*
X73339318Y-443809D01*
G75*
G02*
X73576818Y-681309I0J-237500D01*
G01*
X73576818Y-1256309D01*
G75*
G02*
X73339318Y-1493809I-237500J0D01*
G01*
G37*
G36*
G01*
X73339318Y256191D02*
X72864318Y256191D01*
G75*
G02*
X72626818Y493691I0J237500D01*
G01*
X72626818Y1068691D01*
G75*
G02*
X72864318Y1306191I237500J0D01*
G01*
X73339318Y1306191D01*
G75*
G02*
X73576818Y1068691I0J-237500D01*
G01*
X73576818Y493691D01*
G75*
G02*
X73339318Y256191I-237500J0D01*
G01*
G37*
G04 #@! TD*
G04 #@! TO.C,C6*
G36*
G01*
X67070000Y-960000D02*
X66730000Y-960000D01*
G75*
G02*
X66590000Y-820000I0J140000D01*
G01*
X66590000Y-540000D01*
G75*
G02*
X66730000Y-400000I140000J0D01*
G01*
X67070000Y-400000D01*
G75*
G02*
X67210000Y-540000I0J-140000D01*
G01*
X67210000Y-820000D01*
G75*
G02*
X67070000Y-960000I-140000J0D01*
G01*
G37*
G36*
G01*
X67070000Y0D02*
X66730000Y0D01*
G75*
G02*
X66590000Y140000I0J140000D01*
G01*
X66590000Y420000D01*
G75*
G02*
X66730000Y560000I140000J0D01*
G01*
X67070000Y560000D01*
G75*
G02*
X67210000Y420000I0J-140000D01*
G01*
X67210000Y140000D01*
G75*
G02*
X67070000Y0I-140000J0D01*
G01*
G37*
G04 #@! TD*
G04 #@! TO.C,C7*
G36*
G01*
X65470000Y-960000D02*
X65130000Y-960000D01*
G75*
G02*
X64990000Y-820000I0J140000D01*
G01*
X64990000Y-540000D01*
G75*
G02*
X65130000Y-400000I140000J0D01*
G01*
X65470000Y-400000D01*
G75*
G02*
X65610000Y-540000I0J-140000D01*
G01*
X65610000Y-820000D01*
G75*
G02*
X65470000Y-960000I-140000J0D01*
G01*
G37*
G36*
G01*
X65470000Y0D02*
X65130000Y0D01*
G75*
G02*
X64990000Y140000I0J140000D01*
G01*
X64990000Y420000D01*
G75*
G02*
X65130000Y560000I140000J0D01*
G01*
X65470000Y560000D01*
G75*
G02*
X65610000Y420000I0J-140000D01*
G01*
X65610000Y140000D01*
G75*
G02*
X65470000Y0I-140000J0D01*
G01*
G37*
G04 #@! TD*
G04 #@! TO.C,C10*
G36*
G01*
X70970000Y-260000D02*
X70630000Y-260000D01*
G75*
G02*
X70490000Y-120000I0J140000D01*
G01*
X70490000Y160000D01*
G75*
G02*
X70630000Y300000I140000J0D01*
G01*
X70970000Y300000D01*
G75*
G02*
X71110000Y160000I0J-140000D01*
G01*
X71110000Y-120000D01*
G75*
G02*
X70970000Y-260000I-140000J0D01*
G01*
G37*
G36*
G01*
X70970000Y700000D02*
X70630000Y700000D01*
G75*
G02*
X70490000Y840000I0J140000D01*
G01*
X70490000Y1120000D01*
G75*
G02*
X70630000Y1260000I140000J0D01*
G01*
X70970000Y1260000D01*
G75*
G02*
X71110000Y1120000I0J-140000D01*
G01*
X71110000Y840000D01*
G75*
G02*
X70970000Y700000I-140000J0D01*
G01*
G37*
G04 #@! TD*
G04 #@! TO.C,C15*
G36*
G01*
X23200000Y-3037500D02*
X23200000Y-2562500D01*
G75*
G02*
X23437500Y-2325000I237500J0D01*
G01*
X24012500Y-2325000D01*
G75*
G02*
X24250000Y-2562500I0J-237500D01*
G01*
X24250000Y-3037500D01*
G75*
G02*
X24012500Y-3275000I-237500J0D01*
G01*
X23437500Y-3275000D01*
G75*
G02*
X23200000Y-3037500I0J237500D01*
G01*
G37*
G36*
G01*
X24950000Y-3037500D02*
X24950000Y-2562500D01*
G75*
G02*
X25187500Y-2325000I237500J0D01*
G01*
X25762500Y-2325000D01*
G75*
G02*
X26000000Y-2562500I0J-237500D01*
G01*
X26000000Y-3037500D01*
G75*
G02*
X25762500Y-3275000I-237500J0D01*
G01*
X25187500Y-3275000D01*
G75*
G02*
X24950000Y-3037500I0J237500D01*
G01*
G37*
G04 #@! TD*
G04 #@! TO.C,R5*
G36*
G01*
X66580000Y1985000D02*
X66580000Y1615000D01*
G75*
G02*
X66445000Y1480000I-135000J0D01*
G01*
X66175000Y1480000D01*
G75*
G02*
X66040000Y1615000I0J135000D01*
G01*
X66040000Y1985000D01*
G75*
G02*
X66175000Y2120000I135000J0D01*
G01*
X66445000Y2120000D01*
G75*
G02*
X66580000Y1985000I0J-135000D01*
G01*
G37*
G36*
G01*
X65560000Y1985000D02*
X65560000Y1615000D01*
G75*
G02*
X65425000Y1480000I-135000J0D01*
G01*
X65155000Y1480000D01*
G75*
G02*
X65020000Y1615000I0J135000D01*
G01*
X65020000Y1985000D01*
G75*
G02*
X65155000Y2120000I135000J0D01*
G01*
X65425000Y2120000D01*
G75*
G02*
X65560000Y1985000I0J-135000D01*
G01*
G37*
G04 #@! TD*
G04 #@! TO.C,R2*
G36*
G01*
X36085000Y-3582168D02*
X35715000Y-3582168D01*
G75*
G02*
X35580000Y-3447168I0J135000D01*
G01*
X35580000Y-3177168D01*
G75*
G02*
X35715000Y-3042168I135000J0D01*
G01*
X36085000Y-3042168D01*
G75*
G02*
X36220000Y-3177168I0J-135000D01*
G01*
X36220000Y-3447168D01*
G75*
G02*
X36085000Y-3582168I-135000J0D01*
G01*
G37*
G36*
G01*
X36085000Y-2562168D02*
X35715000Y-2562168D01*
G75*
G02*
X35580000Y-2427168I0J135000D01*
G01*
X35580000Y-2157168D01*
G75*
G02*
X35715000Y-2022168I135000J0D01*
G01*
X36085000Y-2022168D01*
G75*
G02*
X36220000Y-2157168I0J-135000D01*
G01*
X36220000Y-2427168D01*
G75*
G02*
X36085000Y-2562168I-135000J0D01*
G01*
G37*
G04 #@! TD*
G04 #@! TO.C,U5*
G36*
G01*
X47835598Y1933139D02*
X47506793Y2261944D01*
G75*
G02*
X47506793Y2590748I164402J164402D01*
G01*
X47835598Y2919553D01*
G75*
G02*
X48164402Y2919553I164402J-164402D01*
G01*
X48493207Y2590748D01*
G75*
G02*
X48493207Y2261944I-164402J-164402D01*
G01*
X48164402Y1933139D01*
G75*
G02*
X47835598Y1933139I-164402J164402D01*
G01*
G37*
G36*
G01*
X48648771Y-506380D02*
X48319966Y-177575D01*
G75*
G02*
X48319966Y151229I164402J164402D01*
G01*
X48648771Y480034D01*
G75*
G02*
X48977575Y480034I164402J-164402D01*
G01*
X49306380Y151229D01*
G75*
G02*
X49306380Y-177575I-164402J-164402D01*
G01*
X48977575Y-506380D01*
G75*
G02*
X48648771Y-506380I-164402J164402D01*
G01*
G37*
G36*
G01*
X48648771Y1119966D02*
X48319966Y1448771D01*
G75*
G02*
X48319966Y1777575I164402J164402D01*
G01*
X48648771Y2106380D01*
G75*
G02*
X48977575Y2106380I164402J-164402D01*
G01*
X49306380Y1777575D01*
G75*
G02*
X49306380Y1448771I-164402J-164402D01*
G01*
X48977575Y1119966D01*
G75*
G02*
X48648771Y1119966I-164402J164402D01*
G01*
G37*
G36*
G01*
X47022425Y1119966D02*
X46693620Y1448771D01*
G75*
G02*
X46693620Y1777575I164402J164402D01*
G01*
X47022425Y2106380D01*
G75*
G02*
X47351229Y2106380I164402J-164402D01*
G01*
X47680034Y1777575D01*
G75*
G02*
X47680034Y1448771I-164402J-164402D01*
G01*
X47351229Y1119966D01*
G75*
G02*
X47022425Y1119966I-164402J164402D01*
G01*
G37*
G36*
G01*
X47022425Y-506380D02*
X46693620Y-177575D01*
G75*
G02*
X46693620Y151229I164402J164402D01*
G01*
X47022425Y480034D01*
G75*
G02*
X47351229Y480034I164402J-164402D01*
G01*
X47680034Y151229D01*
G75*
G02*
X47680034Y-177575I-164402J-164402D01*
G01*
X47351229Y-506380D01*
G75*
G02*
X47022425Y-506380I-164402J164402D01*
G01*
G37*
G36*
G01*
X47835598Y-1319553D02*
X47506793Y-990748D01*
G75*
G02*
X47506793Y-661944I164402J164402D01*
G01*
X47835598Y-333139D01*
G75*
G02*
X48164402Y-333139I164402J-164402D01*
G01*
X48493207Y-661944D01*
G75*
G02*
X48493207Y-990748I-164402J-164402D01*
G01*
X48164402Y-1319553D01*
G75*
G02*
X47835598Y-1319553I-164402J164402D01*
G01*
G37*
G36*
G01*
X47835598Y306793D02*
X47506793Y635598D01*
G75*
G02*
X47506793Y964402I164402J164402D01*
G01*
X47835598Y1293207D01*
G75*
G02*
X48164402Y1293207I164402J-164402D01*
G01*
X48493207Y964402D01*
G75*
G02*
X48493207Y635598I-164402J-164402D01*
G01*
X48164402Y306793D01*
G75*
G02*
X47835598Y306793I-164402J164402D01*
G01*
G37*
G36*
G01*
X49461944Y306793D02*
X49133139Y635598D01*
G75*
G02*
X49133139Y964402I164402J164402D01*
G01*
X49461944Y1293207D01*
G75*
G02*
X49790748Y1293207I164402J-164402D01*
G01*
X50119553Y964402D01*
G75*
G02*
X50119553Y635598I-164402J-164402D01*
G01*
X49790748Y306793D01*
G75*
G02*
X49461944Y306793I-164402J164402D01*
G01*
G37*
G36*
G01*
X46209252Y306793D02*
X45880447Y635598D01*
G75*
G02*
X45880447Y964402I164402J164402D01*
G01*
X46209252Y1293207D01*
G75*
G02*
X46538056Y1293207I164402J-164402D01*
G01*
X46866861Y964402D01*
G75*
G02*
X46866861Y635598I-164402J-164402D01*
G01*
X46538056Y306793D01*
G75*
G02*
X46209252Y306793I-164402J164402D01*
G01*
G37*
G36*
G01*
X47248699Y-2514563D02*
X47160311Y-2426175D01*
G75*
G02*
X47160311Y-2337787I44194J44194D01*
G01*
X47690641Y-1807457D01*
G75*
G02*
X47779029Y-1807457I44194J-44194D01*
G01*
X47867417Y-1895845D01*
G75*
G02*
X47867417Y-1984233I-44194J-44194D01*
G01*
X47337087Y-2514563D01*
G75*
G02*
X47248699Y-2514563I-44194J44194D01*
G01*
G37*
G36*
G01*
X46895146Y-2161009D02*
X46806758Y-2072621D01*
G75*
G02*
X46806758Y-1984233I44194J44194D01*
G01*
X47337088Y-1453903D01*
G75*
G02*
X47425476Y-1453903I44194J-44194D01*
G01*
X47513864Y-1542291D01*
G75*
G02*
X47513864Y-1630679I-44194J-44194D01*
G01*
X46983534Y-2161009D01*
G75*
G02*
X46895146Y-2161009I-44194J44194D01*
G01*
G37*
G36*
G01*
X46541592Y-1807456D02*
X46453204Y-1719068D01*
G75*
G02*
X46453204Y-1630680I44194J44194D01*
G01*
X46983534Y-1100350D01*
G75*
G02*
X47071922Y-1100350I44194J-44194D01*
G01*
X47160310Y-1188738D01*
G75*
G02*
X47160310Y-1277126I-44194J-44194D01*
G01*
X46629980Y-1807456D01*
G75*
G02*
X46541592Y-1807456I-44194J44194D01*
G01*
G37*
G36*
G01*
X46188039Y-1453902D02*
X46099651Y-1365514D01*
G75*
G02*
X46099651Y-1277126I44194J44194D01*
G01*
X46629981Y-746796D01*
G75*
G02*
X46718369Y-746796I44194J-44194D01*
G01*
X46806757Y-835184D01*
G75*
G02*
X46806757Y-923572I-44194J-44194D01*
G01*
X46276427Y-1453902D01*
G75*
G02*
X46188039Y-1453902I-44194J44194D01*
G01*
G37*
G36*
G01*
X45834486Y-1100349D02*
X45746098Y-1011961D01*
G75*
G02*
X45746098Y-923573I44194J44194D01*
G01*
X46276428Y-393243D01*
G75*
G02*
X46364816Y-393243I44194J-44194D01*
G01*
X46453204Y-481631D01*
G75*
G02*
X46453204Y-570019I-44194J-44194D01*
G01*
X45922874Y-1100349D01*
G75*
G02*
X45834486Y-1100349I-44194J44194D01*
G01*
G37*
G36*
G01*
X45480932Y-746796D02*
X45392544Y-658408D01*
G75*
G02*
X45392544Y-570020I44194J44194D01*
G01*
X45922874Y-39690D01*
G75*
G02*
X46011262Y-39690I44194J-44194D01*
G01*
X46099650Y-128078D01*
G75*
G02*
X46099650Y-216466I-44194J-44194D01*
G01*
X45569320Y-746796D01*
G75*
G02*
X45480932Y-746796I-44194J44194D01*
G01*
G37*
G36*
G01*
X45127379Y-393242D02*
X45038991Y-304854D01*
G75*
G02*
X45038991Y-216466I44194J44194D01*
G01*
X45569321Y313864D01*
G75*
G02*
X45657709Y313864I44194J-44194D01*
G01*
X45746097Y225476D01*
G75*
G02*
X45746097Y137088I-44194J-44194D01*
G01*
X45215767Y-393242D01*
G75*
G02*
X45127379Y-393242I-44194J44194D01*
G01*
G37*
G36*
G01*
X44773825Y-39689D02*
X44685437Y48699D01*
G75*
G02*
X44685437Y137087I44194J44194D01*
G01*
X45215767Y667417D01*
G75*
G02*
X45304155Y667417I44194J-44194D01*
G01*
X45392543Y579029D01*
G75*
G02*
X45392543Y490641I-44194J-44194D01*
G01*
X44862213Y-39689D01*
G75*
G02*
X44773825Y-39689I-44194J44194D01*
G01*
G37*
G36*
G01*
X45215767Y932583D02*
X44685437Y1462913D01*
G75*
G02*
X44685437Y1551301I44194J44194D01*
G01*
X44773825Y1639689D01*
G75*
G02*
X44862213Y1639689I44194J-44194D01*
G01*
X45392543Y1109359D01*
G75*
G02*
X45392543Y1020971I-44194J-44194D01*
G01*
X45304155Y932583D01*
G75*
G02*
X45215767Y932583I-44194J44194D01*
G01*
G37*
G36*
G01*
X45569321Y1286136D02*
X45038991Y1816466D01*
G75*
G02*
X45038991Y1904854I44194J44194D01*
G01*
X45127379Y1993242D01*
G75*
G02*
X45215767Y1993242I44194J-44194D01*
G01*
X45746097Y1462912D01*
G75*
G02*
X45746097Y1374524I-44194J-44194D01*
G01*
X45657709Y1286136D01*
G75*
G02*
X45569321Y1286136I-44194J44194D01*
G01*
G37*
G36*
G01*
X45922874Y1639690D02*
X45392544Y2170020D01*
G75*
G02*
X45392544Y2258408I44194J44194D01*
G01*
X45480932Y2346796D01*
G75*
G02*
X45569320Y2346796I44194J-44194D01*
G01*
X46099650Y1816466D01*
G75*
G02*
X46099650Y1728078I-44194J-44194D01*
G01*
X46011262Y1639690D01*
G75*
G02*
X45922874Y1639690I-44194J44194D01*
G01*
G37*
G36*
G01*
X46276428Y1993243D02*
X45746098Y2523573D01*
G75*
G02*
X45746098Y2611961I44194J44194D01*
G01*
X45834486Y2700349D01*
G75*
G02*
X45922874Y2700349I44194J-44194D01*
G01*
X46453204Y2170019D01*
G75*
G02*
X46453204Y2081631I-44194J-44194D01*
G01*
X46364816Y1993243D01*
G75*
G02*
X46276428Y1993243I-44194J44194D01*
G01*
G37*
G36*
G01*
X46629981Y2346796D02*
X46099651Y2877126D01*
G75*
G02*
X46099651Y2965514I44194J44194D01*
G01*
X46188039Y3053902D01*
G75*
G02*
X46276427Y3053902I44194J-44194D01*
G01*
X46806757Y2523572D01*
G75*
G02*
X46806757Y2435184I-44194J-44194D01*
G01*
X46718369Y2346796D01*
G75*
G02*
X46629981Y2346796I-44194J44194D01*
G01*
G37*
G36*
G01*
X46983534Y2700350D02*
X46453204Y3230680D01*
G75*
G02*
X46453204Y3319068I44194J44194D01*
G01*
X46541592Y3407456D01*
G75*
G02*
X46629980Y3407456I44194J-44194D01*
G01*
X47160310Y2877126D01*
G75*
G02*
X47160310Y2788738I-44194J-44194D01*
G01*
X47071922Y2700350D01*
G75*
G02*
X46983534Y2700350I-44194J44194D01*
G01*
G37*
G36*
G01*
X47337088Y3053903D02*
X46806758Y3584233D01*
G75*
G02*
X46806758Y3672621I44194J44194D01*
G01*
X46895146Y3761009D01*
G75*
G02*
X46983534Y3761009I44194J-44194D01*
G01*
X47513864Y3230679D01*
G75*
G02*
X47513864Y3142291I-44194J-44194D01*
G01*
X47425476Y3053903D01*
G75*
G02*
X47337088Y3053903I-44194J44194D01*
G01*
G37*
G36*
G01*
X47690641Y3407457D02*
X47160311Y3937787D01*
G75*
G02*
X47160311Y4026175I44194J44194D01*
G01*
X47248699Y4114563D01*
G75*
G02*
X47337087Y4114563I44194J-44194D01*
G01*
X47867417Y3584233D01*
G75*
G02*
X47867417Y3495845I-44194J-44194D01*
G01*
X47779029Y3407457D01*
G75*
G02*
X47690641Y3407457I-44194J44194D01*
G01*
G37*
G36*
G01*
X48220971Y3407457D02*
X48132583Y3495845D01*
G75*
G02*
X48132583Y3584233I44194J44194D01*
G01*
X48662913Y4114563D01*
G75*
G02*
X48751301Y4114563I44194J-44194D01*
G01*
X48839689Y4026175D01*
G75*
G02*
X48839689Y3937787I-44194J-44194D01*
G01*
X48309359Y3407457D01*
G75*
G02*
X48220971Y3407457I-44194J44194D01*
G01*
G37*
G36*
G01*
X48574524Y3053903D02*
X48486136Y3142291D01*
G75*
G02*
X48486136Y3230679I44194J44194D01*
G01*
X49016466Y3761009D01*
G75*
G02*
X49104854Y3761009I44194J-44194D01*
G01*
X49193242Y3672621D01*
G75*
G02*
X49193242Y3584233I-44194J-44194D01*
G01*
X48662912Y3053903D01*
G75*
G02*
X48574524Y3053903I-44194J44194D01*
G01*
G37*
G36*
G01*
X48928078Y2700350D02*
X48839690Y2788738D01*
G75*
G02*
X48839690Y2877126I44194J44194D01*
G01*
X49370020Y3407456D01*
G75*
G02*
X49458408Y3407456I44194J-44194D01*
G01*
X49546796Y3319068D01*
G75*
G02*
X49546796Y3230680I-44194J-44194D01*
G01*
X49016466Y2700350D01*
G75*
G02*
X48928078Y2700350I-44194J44194D01*
G01*
G37*
G36*
G01*
X49281631Y2346796D02*
X49193243Y2435184D01*
G75*
G02*
X49193243Y2523572I44194J44194D01*
G01*
X49723573Y3053902D01*
G75*
G02*
X49811961Y3053902I44194J-44194D01*
G01*
X49900349Y2965514D01*
G75*
G02*
X49900349Y2877126I-44194J-44194D01*
G01*
X49370019Y2346796D01*
G75*
G02*
X49281631Y2346796I-44194J44194D01*
G01*
G37*
G36*
G01*
X49635184Y1993243D02*
X49546796Y2081631D01*
G75*
G02*
X49546796Y2170019I44194J44194D01*
G01*
X50077126Y2700349D01*
G75*
G02*
X50165514Y2700349I44194J-44194D01*
G01*
X50253902Y2611961D01*
G75*
G02*
X50253902Y2523573I-44194J-44194D01*
G01*
X49723572Y1993243D01*
G75*
G02*
X49635184Y1993243I-44194J44194D01*
G01*
G37*
G36*
G01*
X49988738Y1639690D02*
X49900350Y1728078D01*
G75*
G02*
X49900350Y1816466I44194J44194D01*
G01*
X50430680Y2346796D01*
G75*
G02*
X50519068Y2346796I44194J-44194D01*
G01*
X50607456Y2258408D01*
G75*
G02*
X50607456Y2170020I-44194J-44194D01*
G01*
X50077126Y1639690D01*
G75*
G02*
X49988738Y1639690I-44194J44194D01*
G01*
G37*
G36*
G01*
X50342291Y1286136D02*
X50253903Y1374524D01*
G75*
G02*
X50253903Y1462912I44194J44194D01*
G01*
X50784233Y1993242D01*
G75*
G02*
X50872621Y1993242I44194J-44194D01*
G01*
X50961009Y1904854D01*
G75*
G02*
X50961009Y1816466I-44194J-44194D01*
G01*
X50430679Y1286136D01*
G75*
G02*
X50342291Y1286136I-44194J44194D01*
G01*
G37*
G36*
G01*
X50695845Y932583D02*
X50607457Y1020971D01*
G75*
G02*
X50607457Y1109359I44194J44194D01*
G01*
X51137787Y1639689D01*
G75*
G02*
X51226175Y1639689I44194J-44194D01*
G01*
X51314563Y1551301D01*
G75*
G02*
X51314563Y1462913I-44194J-44194D01*
G01*
X50784233Y932583D01*
G75*
G02*
X50695845Y932583I-44194J44194D01*
G01*
G37*
G36*
G01*
X51137787Y-39689D02*
X50607457Y490641D01*
G75*
G02*
X50607457Y579029I44194J44194D01*
G01*
X50695845Y667417D01*
G75*
G02*
X50784233Y667417I44194J-44194D01*
G01*
X51314563Y137087D01*
G75*
G02*
X51314563Y48699I-44194J-44194D01*
G01*
X51226175Y-39689D01*
G75*
G02*
X51137787Y-39689I-44194J44194D01*
G01*
G37*
G36*
G01*
X50784233Y-393242D02*
X50253903Y137088D01*
G75*
G02*
X50253903Y225476I44194J44194D01*
G01*
X50342291Y313864D01*
G75*
G02*
X50430679Y313864I44194J-44194D01*
G01*
X50961009Y-216466D01*
G75*
G02*
X50961009Y-304854I-44194J-44194D01*
G01*
X50872621Y-393242D01*
G75*
G02*
X50784233Y-393242I-44194J44194D01*
G01*
G37*
G36*
G01*
X50430680Y-746796D02*
X49900350Y-216466D01*
G75*
G02*
X49900350Y-128078I44194J44194D01*
G01*
X49988738Y-39690D01*
G75*
G02*
X50077126Y-39690I44194J-44194D01*
G01*
X50607456Y-570020D01*
G75*
G02*
X50607456Y-658408I-44194J-44194D01*
G01*
X50519068Y-746796D01*
G75*
G02*
X50430680Y-746796I-44194J44194D01*
G01*
G37*
G36*
G01*
X50077126Y-1100349D02*
X49546796Y-570019D01*
G75*
G02*
X49546796Y-481631I44194J44194D01*
G01*
X49635184Y-393243D01*
G75*
G02*
X49723572Y-393243I44194J-44194D01*
G01*
X50253902Y-923573D01*
G75*
G02*
X50253902Y-1011961I-44194J-44194D01*
G01*
X50165514Y-1100349D01*
G75*
G02*
X50077126Y-1100349I-44194J44194D01*
G01*
G37*
G36*
G01*
X49723573Y-1453902D02*
X49193243Y-923572D01*
G75*
G02*
X49193243Y-835184I44194J44194D01*
G01*
X49281631Y-746796D01*
G75*
G02*
X49370019Y-746796I44194J-44194D01*
G01*
X49900349Y-1277126D01*
G75*
G02*
X49900349Y-1365514I-44194J-44194D01*
G01*
X49811961Y-1453902D01*
G75*
G02*
X49723573Y-1453902I-44194J44194D01*
G01*
G37*
G36*
G01*
X49370020Y-1807456D02*
X48839690Y-1277126D01*
G75*
G02*
X48839690Y-1188738I44194J44194D01*
G01*
X48928078Y-1100350D01*
G75*
G02*
X49016466Y-1100350I44194J-44194D01*
G01*
X49546796Y-1630680D01*
G75*
G02*
X49546796Y-1719068I-44194J-44194D01*
G01*
X49458408Y-1807456D01*
G75*
G02*
X49370020Y-1807456I-44194J44194D01*
G01*
G37*
G36*
G01*
X49016466Y-2161009D02*
X48486136Y-1630679D01*
G75*
G02*
X48486136Y-1542291I44194J44194D01*
G01*
X48574524Y-1453903D01*
G75*
G02*
X48662912Y-1453903I44194J-44194D01*
G01*
X49193242Y-1984233D01*
G75*
G02*
X49193242Y-2072621I-44194J-44194D01*
G01*
X49104854Y-2161009D01*
G75*
G02*
X49016466Y-2161009I-44194J44194D01*
G01*
G37*
G36*
G01*
X48662913Y-2514563D02*
X48132583Y-1984233D01*
G75*
G02*
X48132583Y-1895845I44194J44194D01*
G01*
X48220971Y-1807457D01*
G75*
G02*
X48309359Y-1807457I44194J-44194D01*
G01*
X48839689Y-2337787D01*
G75*
G02*
X48839689Y-2426175I-44194J-44194D01*
G01*
X48751301Y-2514563D01*
G75*
G02*
X48662913Y-2514563I-44194J44194D01*
G01*
G37*
G04 #@! TD*
G04 #@! TO.C,C33*
G36*
G01*
X81433964Y-1203589D02*
X80958964Y-1203589D01*
G75*
G02*
X80721464Y-966089I0J237500D01*
G01*
X80721464Y-391089D01*
G75*
G02*
X80958964Y-153589I237500J0D01*
G01*
X81433964Y-153589D01*
G75*
G02*
X81671464Y-391089I0J-237500D01*
G01*
X81671464Y-966089D01*
G75*
G02*
X81433964Y-1203589I-237500J0D01*
G01*
G37*
G36*
G01*
X81433964Y546411D02*
X80958964Y546411D01*
G75*
G02*
X80721464Y783911I0J237500D01*
G01*
X80721464Y1358911D01*
G75*
G02*
X80958964Y1596411I237500J0D01*
G01*
X81433964Y1596411D01*
G75*
G02*
X81671464Y1358911I0J-237500D01*
G01*
X81671464Y783911D01*
G75*
G02*
X81433964Y546411I-237500J0D01*
G01*
G37*
G04 #@! TD*
G04 #@! TO.C,R3*
G36*
G01*
X78784572Y-2342002D02*
X79154572Y-2342002D01*
G75*
G02*
X79289572Y-2477002I0J-135000D01*
G01*
X79289572Y-2747002D01*
G75*
G02*
X79154572Y-2882002I-135000J0D01*
G01*
X78784572Y-2882002D01*
G75*
G02*
X78649572Y-2747002I0J135000D01*
G01*
X78649572Y-2477002D01*
G75*
G02*
X78784572Y-2342002I135000J0D01*
G01*
G37*
G36*
G01*
X78784572Y-3362002D02*
X79154572Y-3362002D01*
G75*
G02*
X79289572Y-3497002I0J-135000D01*
G01*
X79289572Y-3767002D01*
G75*
G02*
X79154572Y-3902002I-135000J0D01*
G01*
X78784572Y-3902002D01*
G75*
G02*
X78649572Y-3767002I0J135000D01*
G01*
X78649572Y-3497002D01*
G75*
G02*
X78784572Y-3362002I135000J0D01*
G01*
G37*
G04 #@! TD*
G04 #@! TO.C,R7*
G36*
G01*
X63585000Y313531D02*
X63215000Y313531D01*
G75*
G02*
X63080000Y448531I0J135000D01*
G01*
X63080000Y718531D01*
G75*
G02*
X63215000Y853531I135000J0D01*
G01*
X63585000Y853531D01*
G75*
G02*
X63720000Y718531I0J-135000D01*
G01*
X63720000Y448531D01*
G75*
G02*
X63585000Y313531I-135000J0D01*
G01*
G37*
G36*
G01*
X63585000Y1333531D02*
X63215000Y1333531D01*
G75*
G02*
X63080000Y1468531I0J135000D01*
G01*
X63080000Y1738531D01*
G75*
G02*
X63215000Y1873531I135000J0D01*
G01*
X63585000Y1873531D01*
G75*
G02*
X63720000Y1738531I0J-135000D01*
G01*
X63720000Y1468531D01*
G75*
G02*
X63585000Y1333531I-135000J0D01*
G01*
G37*
G04 #@! TD*
G04 #@! TO.C,C28*
G36*
G01*
X32920000Y-960000D02*
X32580000Y-960000D01*
G75*
G02*
X32440000Y-820000I0J140000D01*
G01*
X32440000Y-540000D01*
G75*
G02*
X32580000Y-400000I140000J0D01*
G01*
X32920000Y-400000D01*
G75*
G02*
X33060000Y-540000I0J-140000D01*
G01*
X33060000Y-820000D01*
G75*
G02*
X32920000Y-960000I-140000J0D01*
G01*
G37*
G36*
G01*
X32920000Y0D02*
X32580000Y0D01*
G75*
G02*
X32440000Y140000I0J140000D01*
G01*
X32440000Y420000D01*
G75*
G02*
X32580000Y560000I140000J0D01*
G01*
X32920000Y560000D01*
G75*
G02*
X33060000Y420000I0J-140000D01*
G01*
X33060000Y140000D01*
G75*
G02*
X32920000Y0I-140000J0D01*
G01*
G37*
G04 #@! TD*
G04 #@! TO.C,D2*
G36*
G01*
X25600000Y2562500D02*
X25600000Y2037500D01*
G75*
G02*
X25462500Y1900000I-137500J0D01*
G01*
X25187500Y1900000D01*
G75*
G02*
X25050000Y2037500I0J137500D01*
G01*
X25050000Y2562500D01*
G75*
G02*
X25187500Y2700000I137500J0D01*
G01*
X25462500Y2700000D01*
G75*
G02*
X25600000Y2562500I0J-137500D01*
G01*
G37*
G36*
G01*
X24187500Y2562500D02*
X24187500Y2037500D01*
G75*
G02*
X24050000Y1900000I-137500J0D01*
G01*
X23775000Y1900000D01*
G75*
G02*
X23637500Y2037500I0J137500D01*
G01*
X23637500Y2562500D01*
G75*
G02*
X23775000Y2700000I137500J0D01*
G01*
X24050000Y2700000D01*
G75*
G02*
X24187500Y2562500I0J-137500D01*
G01*
G37*
G04 #@! TD*
G04 #@! TO.C,C9*
G36*
G01*
X70440000Y-3170000D02*
X70440000Y-2830000D01*
G75*
G02*
X70580000Y-2690000I140000J0D01*
G01*
X70860000Y-2690000D01*
G75*
G02*
X71000000Y-2830000I0J-140000D01*
G01*
X71000000Y-3170000D01*
G75*
G02*
X70860000Y-3310000I-140000J0D01*
G01*
X70580000Y-3310000D01*
G75*
G02*
X70440000Y-3170000I0J140000D01*
G01*
G37*
G36*
G01*
X71400000Y-3170000D02*
X71400000Y-2830000D01*
G75*
G02*
X71540000Y-2690000I140000J0D01*
G01*
X71820000Y-2690000D01*
G75*
G02*
X71960000Y-2830000I0J-140000D01*
G01*
X71960000Y-3170000D01*
G75*
G02*
X71820000Y-3310000I-140000J0D01*
G01*
X71540000Y-3310000D01*
G75*
G02*
X71400000Y-3170000I0J140000D01*
G01*
G37*
G04 #@! TD*
G04 #@! TO.C,C4*
G36*
G01*
X34969327Y-3562925D02*
X34629327Y-3562925D01*
G75*
G02*
X34489327Y-3422925I0J140000D01*
G01*
X34489327Y-3142925D01*
G75*
G02*
X34629327Y-3002925I140000J0D01*
G01*
X34969327Y-3002925D01*
G75*
G02*
X35109327Y-3142925I0J-140000D01*
G01*
X35109327Y-3422925D01*
G75*
G02*
X34969327Y-3562925I-140000J0D01*
G01*
G37*
G36*
G01*
X34969327Y-2602925D02*
X34629327Y-2602925D01*
G75*
G02*
X34489327Y-2462925I0J140000D01*
G01*
X34489327Y-2182925D01*
G75*
G02*
X34629327Y-2042925I140000J0D01*
G01*
X34969327Y-2042925D01*
G75*
G02*
X35109327Y-2182925I0J-140000D01*
G01*
X35109327Y-2462925D01*
G75*
G02*
X34969327Y-2602925I-140000J0D01*
G01*
G37*
G04 #@! TD*
M02*
