G04 #@! TF.GenerationSoftware,KiCad,Pcbnew,(5.99.0-7570-gd0e008053a)*
G04 #@! TF.CreationDate,2021-04-03T15:26:54-07:00*
G04 #@! TF.ProjectId,RT_USB_PD_Soldering_Iron,52545f55-5342-45f5-9044-5f536f6c6465,rev?*
G04 #@! TF.SameCoordinates,PX5f5e100PY7735940*
G04 #@! TF.FileFunction,Copper,L3,Inr*
G04 #@! TF.FilePolarity,Positive*
%FSLAX46Y46*%
G04 Gerber Fmt 4.6, Leading zero omitted, Abs format (unit mm)*
G04 Created by KiCad (PCBNEW (5.99.0-7570-gd0e008053a)) date 2021-04-03 15:26:54*
%MOMM*%
%LPD*%
G01*
G04 APERTURE LIST*
G04 #@! TA.AperFunction,ComponentPad*
%ADD10C,2.500000*%
G04 #@! TD*
G04 #@! TA.AperFunction,ViaPad*
%ADD11C,0.560000*%
G04 #@! TD*
G04 #@! TA.AperFunction,ViaPad*
%ADD12C,0.800000*%
G04 #@! TD*
G04 #@! TA.AperFunction,ViaPad*
%ADD13C,1.000000*%
G04 #@! TD*
G04 #@! TA.AperFunction,Conductor*
%ADD14C,0.254000*%
G04 #@! TD*
G04 #@! TA.AperFunction,Conductor*
%ADD15C,0.500000*%
G04 #@! TD*
G04 #@! TA.AperFunction,Conductor*
%ADD16C,2.000000*%
G04 #@! TD*
G04 APERTURE END LIST*
D10*
G04 #@! TO.N,GND*
G04 #@! TO.C,H1*
X60500000Y0D03*
G04 #@! TD*
D11*
G04 #@! TO.N,+3V3*
X62000000Y-2159410D03*
X63300000Y2100000D03*
G04 #@! TO.N,/I2C1_SDA*
X46300000Y200000D03*
G04 #@! TO.N,/DISP_RST#*
X45400000Y-2000000D03*
D12*
G04 #@! TO.N,+3V3*
X53500000Y4300000D03*
D11*
G04 #@! TO.N,/DISP_RST#*
X48000000Y120589D03*
G04 #@! TO.N,+3V3*
X52495563Y495563D03*
X52300000Y-1800000D03*
D13*
G04 #@! TO.N,IN*
X67200000Y-2500000D03*
X67200000Y2500000D03*
D11*
G04 #@! TO.N,+3V3*
X41887587Y-3300000D03*
D12*
X41300000Y4300000D03*
D11*
G04 #@! TO.N,/I2C1_SDA*
X44600000Y-2600000D03*
G04 #@! TD*
D14*
G04 #@! TO.N,+3V3*
X62600000Y-1559410D02*
X62000000Y-2159410D01*
X63300000Y2100000D02*
X62600000Y1400000D01*
X62600000Y1400000D02*
X62600000Y-1559410D01*
G04 #@! TO.N,/DISP_RST#*
X45400000Y-2000000D02*
X46400000Y-1000000D01*
X46400000Y-1000000D02*
X46879411Y-1000000D01*
X46879411Y-1000000D02*
X48000000Y120589D01*
G04 #@! TO.N,/I2C1_SDA*
X44600000Y-2600000D02*
X44600000Y-1500000D01*
X44600000Y-1500000D02*
X46300000Y200000D01*
D15*
G04 #@! TO.N,+3V3*
X52495563Y3295563D02*
X53500000Y4300000D01*
X52495563Y495563D02*
X52495563Y3295563D01*
X52495563Y495563D02*
X52300000Y300000D01*
X52300000Y300000D02*
X52300000Y-1800000D01*
D16*
G04 #@! TO.N,IN*
X67200000Y1792894D02*
X67200000Y-2500000D01*
X67200000Y2500000D02*
X67200000Y1792894D01*
D15*
G04 #@! TO.N,+3V3*
X41300000Y-2712413D02*
X41300000Y4300000D01*
X41887587Y-3300000D02*
X41300000Y-2712413D01*
G04 #@! TD*
G04 #@! TA.AperFunction,Conductor*
G04 #@! TO.N,GND*
G36*
X74708400Y5235925D02*
G01*
X74735925Y5208400D01*
X74746000Y5170800D01*
X74746000Y-5170800D01*
X74735925Y-5208400D01*
X74708400Y-5235925D01*
X74670800Y-5246000D01*
X66322916Y-5246000D01*
X66285316Y-5235925D01*
X66257791Y-5208400D01*
X66247716Y-5170800D01*
X66257791Y-5133200D01*
X66269742Y-5117626D01*
X66937074Y-4450294D01*
X68145063Y-4450294D01*
X68145587Y-4453234D01*
X68171849Y-4524611D01*
X68175169Y-4531418D01*
X68221736Y-4606522D01*
X68226359Y-4612526D01*
X68287069Y-4676724D01*
X68292817Y-4681686D01*
X68365195Y-4732366D01*
X68371811Y-4736064D01*
X68452910Y-4771158D01*
X68460130Y-4773448D01*
X68547530Y-4791707D01*
X68552762Y-4792386D01*
X68553278Y-4792400D01*
X69063098Y-4792400D01*
X69070908Y-4790308D01*
X69072999Y-4782499D01*
X69326999Y-4782499D01*
X69329091Y-4790308D01*
X69336901Y-4792400D01*
X69822701Y-4792400D01*
X69826511Y-4792207D01*
X69891704Y-4785585D01*
X69899125Y-4784061D01*
X69983451Y-4757635D01*
X69990412Y-4754652D01*
X70067701Y-4711811D01*
X70073923Y-4707486D01*
X70141018Y-4649978D01*
X70146244Y-4644489D01*
X70200405Y-4574667D01*
X70204418Y-4568244D01*
X70243433Y-4488956D01*
X70246075Y-4481850D01*
X70252658Y-4456579D01*
X70252614Y-4450294D01*
X72475063Y-4450294D01*
X72475587Y-4453234D01*
X72501849Y-4524611D01*
X72505169Y-4531418D01*
X72551736Y-4606522D01*
X72556359Y-4612526D01*
X72617069Y-4676724D01*
X72622817Y-4681686D01*
X72695195Y-4732366D01*
X72701811Y-4736064D01*
X72782910Y-4771158D01*
X72790130Y-4773448D01*
X72877530Y-4791707D01*
X72882762Y-4792386D01*
X72883278Y-4792400D01*
X73243098Y-4792400D01*
X73250908Y-4790308D01*
X73252999Y-4782499D01*
X73506999Y-4782499D01*
X73509091Y-4790308D01*
X73516901Y-4792400D01*
X73852701Y-4792400D01*
X73856511Y-4792207D01*
X73921704Y-4785585D01*
X73929125Y-4784061D01*
X74013451Y-4757635D01*
X74020412Y-4754652D01*
X74097701Y-4711811D01*
X74103923Y-4707486D01*
X74171018Y-4649978D01*
X74176244Y-4644489D01*
X74230405Y-4574667D01*
X74234418Y-4568244D01*
X74273433Y-4488956D01*
X74276075Y-4481850D01*
X74282658Y-4456579D01*
X74282601Y-4448497D01*
X74279965Y-4447000D01*
X73516902Y-4446999D01*
X73509092Y-4449091D01*
X73507000Y-4456901D01*
X73506999Y-4782499D01*
X73252999Y-4782499D01*
X73253000Y-4782498D01*
X73253001Y-4456901D01*
X73250909Y-4449092D01*
X73243099Y-4447000D01*
X72483195Y-4446999D01*
X72475385Y-4449091D01*
X72475063Y-4450294D01*
X70252614Y-4450294D01*
X70252601Y-4448497D01*
X70249965Y-4447000D01*
X69336902Y-4446999D01*
X69329092Y-4449091D01*
X69327000Y-4456901D01*
X69326999Y-4782499D01*
X69072999Y-4782499D01*
X69073000Y-4782498D01*
X69073001Y-4456901D01*
X69070909Y-4449092D01*
X69063099Y-4447000D01*
X68153195Y-4446999D01*
X68145385Y-4449091D01*
X68145063Y-4450294D01*
X66937074Y-4450294D01*
X67203947Y-4183421D01*
X68147342Y-4183421D01*
X68147399Y-4191503D01*
X68150035Y-4193000D01*
X69063098Y-4193001D01*
X69070908Y-4190909D01*
X69073000Y-4183099D01*
X69326999Y-4183099D01*
X69329091Y-4190908D01*
X69336901Y-4193000D01*
X70246805Y-4193001D01*
X70254615Y-4190909D01*
X70254937Y-4189706D01*
X70254413Y-4186766D01*
X70253183Y-4183421D01*
X72477342Y-4183421D01*
X72477399Y-4191503D01*
X72480035Y-4193000D01*
X73243098Y-4193001D01*
X73250908Y-4190909D01*
X73253000Y-4183099D01*
X73506999Y-4183099D01*
X73509091Y-4190908D01*
X73516901Y-4193000D01*
X74276805Y-4193001D01*
X74284615Y-4190909D01*
X74284937Y-4189706D01*
X74284413Y-4186766D01*
X74258151Y-4115389D01*
X74254831Y-4108582D01*
X74208264Y-4033478D01*
X74203641Y-4027474D01*
X74142931Y-3963276D01*
X74137183Y-3958314D01*
X74064805Y-3907634D01*
X74058189Y-3903936D01*
X73977090Y-3868842D01*
X73969870Y-3866552D01*
X73882470Y-3848293D01*
X73877238Y-3847614D01*
X73876722Y-3847600D01*
X73516902Y-3847600D01*
X73509092Y-3849692D01*
X73507000Y-3857502D01*
X73506999Y-4183099D01*
X73253000Y-4183099D01*
X73253001Y-3857501D01*
X73250909Y-3849692D01*
X73243099Y-3847600D01*
X72907299Y-3847600D01*
X72903489Y-3847793D01*
X72838296Y-3854415D01*
X72830875Y-3855939D01*
X72746549Y-3882365D01*
X72739588Y-3885348D01*
X72662299Y-3928189D01*
X72656077Y-3932514D01*
X72588982Y-3990022D01*
X72583756Y-3995511D01*
X72529595Y-4065333D01*
X72525582Y-4071756D01*
X72486567Y-4151044D01*
X72483925Y-4158150D01*
X72477342Y-4183421D01*
X70253183Y-4183421D01*
X70228151Y-4115389D01*
X70224831Y-4108582D01*
X70178264Y-4033478D01*
X70173641Y-4027474D01*
X70112931Y-3963276D01*
X70107183Y-3958314D01*
X70034805Y-3907634D01*
X70028189Y-3903936D01*
X69947090Y-3868842D01*
X69939870Y-3866552D01*
X69852470Y-3848293D01*
X69847238Y-3847614D01*
X69846722Y-3847600D01*
X69336902Y-3847600D01*
X69329092Y-3849692D01*
X69327000Y-3857502D01*
X69326999Y-4183099D01*
X69073000Y-4183099D01*
X69073001Y-3857501D01*
X69070909Y-3849692D01*
X69063099Y-3847600D01*
X68577299Y-3847600D01*
X68573489Y-3847793D01*
X68508296Y-3854415D01*
X68500875Y-3855939D01*
X68416549Y-3882365D01*
X68409588Y-3885348D01*
X68332299Y-3928189D01*
X68326077Y-3932514D01*
X68258982Y-3990022D01*
X68253756Y-3995511D01*
X68199595Y-4065333D01*
X68195582Y-4071756D01*
X68156567Y-4151044D01*
X68153925Y-4158150D01*
X68147342Y-4183421D01*
X67203947Y-4183421D01*
X67927446Y-3459922D01*
X67934581Y-3453636D01*
X67995775Y-3406255D01*
X67995781Y-3406250D01*
X67997674Y-3404784D01*
X68087487Y-3314815D01*
X68104484Y-3297788D01*
X68106175Y-3296094D01*
X68119929Y-3278267D01*
X68198520Y-3176397D01*
X68198520Y-3176396D01*
X68199985Y-3174498D01*
X68277585Y-3041969D01*
X68294580Y-3002027D01*
X68331742Y-2914689D01*
X69195203Y-2914689D01*
X69195773Y-2918458D01*
X69209586Y-3009788D01*
X69210478Y-3015688D01*
X69211791Y-3019258D01*
X69211792Y-3019260D01*
X69239709Y-3095136D01*
X69245749Y-3111553D01*
X69247753Y-3114785D01*
X69247754Y-3114787D01*
X69271664Y-3153349D01*
X69299577Y-3198367D01*
X69302187Y-3201127D01*
X69302190Y-3201131D01*
X69359716Y-3261963D01*
X69369761Y-3272585D01*
X69453436Y-3331175D01*
X69547182Y-3371743D01*
X69607923Y-3384432D01*
X69644341Y-3392040D01*
X69644343Y-3392040D01*
X69647171Y-3392631D01*
X69652303Y-3392900D01*
X69724611Y-3392900D01*
X69729356Y-3392418D01*
X69797837Y-3385462D01*
X69797839Y-3385462D01*
X69801625Y-3385077D01*
X69899098Y-3354531D01*
X69902427Y-3352686D01*
X69985111Y-3306854D01*
X69985113Y-3306853D01*
X69988439Y-3305009D01*
X70065996Y-3238534D01*
X70079029Y-3221733D01*
X70099675Y-3195116D01*
X70128604Y-3157821D01*
X70130805Y-3153349D01*
X70172021Y-3069584D01*
X70173702Y-3066168D01*
X70199451Y-2967319D01*
X70202209Y-2914689D01*
X70204598Y-2869115D01*
X70204598Y-2869111D01*
X70204797Y-2865311D01*
X70200048Y-2833911D01*
X70190092Y-2768078D01*
X70190091Y-2768074D01*
X70189522Y-2764312D01*
X70183024Y-2746651D01*
X70155566Y-2672020D01*
X70155564Y-2672017D01*
X70154251Y-2668447D01*
X70140031Y-2645512D01*
X70102427Y-2584865D01*
X70100423Y-2581633D01*
X70097813Y-2578873D01*
X70097810Y-2578869D01*
X70032855Y-2510181D01*
X70032853Y-2510179D01*
X70030239Y-2507415D01*
X69946564Y-2448825D01*
X69852818Y-2408257D01*
X69765797Y-2390078D01*
X69755659Y-2387960D01*
X69755657Y-2387960D01*
X69752829Y-2387369D01*
X69747697Y-2387100D01*
X69675389Y-2387100D01*
X69673489Y-2387293D01*
X69602163Y-2394538D01*
X69602161Y-2394538D01*
X69598375Y-2394923D01*
X69500902Y-2425469D01*
X69497575Y-2427313D01*
X69497573Y-2427314D01*
X69414889Y-2473146D01*
X69414887Y-2473147D01*
X69411561Y-2474991D01*
X69334004Y-2541466D01*
X69331670Y-2544475D01*
X69331668Y-2544477D01*
X69320650Y-2558682D01*
X69271396Y-2622179D01*
X69226298Y-2713832D01*
X69200549Y-2812681D01*
X69199289Y-2836726D01*
X69195460Y-2909788D01*
X69195203Y-2914689D01*
X68331742Y-2914689D01*
X68336774Y-2902865D01*
X68336775Y-2902862D01*
X68337715Y-2900653D01*
X68347585Y-2865657D01*
X68378753Y-2755144D01*
X68378754Y-2755141D01*
X68379402Y-2752842D01*
X68392420Y-2665213D01*
X68401678Y-2602900D01*
X68401679Y-2602893D01*
X68401970Y-2600932D01*
X68403700Y-2559652D01*
X68403700Y1600000D01*
X69297600Y1600000D01*
X69298243Y1595116D01*
X69306307Y1533867D01*
X69307904Y1521733D01*
X69338114Y1448800D01*
X69386171Y1386171D01*
X69390078Y1383173D01*
X69416931Y1362568D01*
X69448800Y1338114D01*
X69521733Y1307904D01*
X69526611Y1307262D01*
X69526614Y1307261D01*
X69595116Y1298243D01*
X69600000Y1297600D01*
X69604884Y1298243D01*
X69673386Y1307261D01*
X69673389Y1307262D01*
X69678267Y1307904D01*
X69751200Y1338114D01*
X69783069Y1362568D01*
X69809922Y1383173D01*
X69813829Y1386171D01*
X69861886Y1448800D01*
X69892096Y1521733D01*
X69893694Y1533867D01*
X69901757Y1595116D01*
X69902400Y1600000D01*
X69896528Y1644605D01*
X69892739Y1673386D01*
X69892738Y1673389D01*
X69892096Y1678267D01*
X69861886Y1751200D01*
X69813829Y1813829D01*
X69751200Y1861886D01*
X69678267Y1892096D01*
X69673389Y1892738D01*
X69673386Y1892739D01*
X69604884Y1901757D01*
X69600000Y1902400D01*
X69595116Y1901757D01*
X69526614Y1892739D01*
X69526611Y1892738D01*
X69521733Y1892096D01*
X69448800Y1861886D01*
X69386171Y1813829D01*
X69338114Y1751200D01*
X69307904Y1678267D01*
X69307262Y1673389D01*
X69307261Y1673386D01*
X69303472Y1644605D01*
X69297600Y1600000D01*
X68403700Y1600000D01*
X68403700Y2539190D01*
X68396423Y2653265D01*
X68394112Y2665213D01*
X68369953Y2790078D01*
X68367251Y2804046D01*
X68364582Y2812142D01*
X68347050Y2865311D01*
X69195203Y2865311D01*
X69195773Y2861542D01*
X69206526Y2790444D01*
X69210478Y2764312D01*
X69211791Y2760742D01*
X69211792Y2760740D01*
X69244071Y2673009D01*
X69245749Y2668447D01*
X69247753Y2665215D01*
X69247754Y2665213D01*
X69294258Y2590212D01*
X69299577Y2581633D01*
X69302187Y2578873D01*
X69302190Y2578869D01*
X69367145Y2510181D01*
X69369761Y2507415D01*
X69453436Y2448825D01*
X69547182Y2408257D01*
X69611011Y2394923D01*
X69644341Y2387960D01*
X69644343Y2387960D01*
X69647171Y2387369D01*
X69652303Y2387100D01*
X69724611Y2387100D01*
X69727259Y2387369D01*
X69797837Y2394538D01*
X69797839Y2394538D01*
X69801625Y2394923D01*
X69899098Y2425469D01*
X69910112Y2431574D01*
X69985111Y2473146D01*
X69985113Y2473147D01*
X69988439Y2474991D01*
X70065996Y2541466D01*
X70079509Y2558886D01*
X70098070Y2582815D01*
X70128604Y2622179D01*
X70132727Y2630557D01*
X70172021Y2710416D01*
X70173702Y2713832D01*
X70199451Y2812681D01*
X70202515Y2871144D01*
X70204598Y2910885D01*
X70204598Y2910889D01*
X70204797Y2914689D01*
X70203732Y2921733D01*
X70190092Y3011922D01*
X70190091Y3011926D01*
X70189522Y3015688D01*
X70172525Y3061886D01*
X70155566Y3107980D01*
X70155564Y3107983D01*
X70154251Y3111553D01*
X70139633Y3135130D01*
X70102427Y3195135D01*
X70100423Y3198367D01*
X70097813Y3201127D01*
X70097810Y3201131D01*
X70032855Y3269819D01*
X70032853Y3269821D01*
X70030239Y3272585D01*
X69946564Y3331175D01*
X69852818Y3371743D01*
X69783671Y3386188D01*
X69755659Y3392040D01*
X69755657Y3392040D01*
X69752829Y3392631D01*
X69747697Y3392900D01*
X69675389Y3392900D01*
X69673489Y3392707D01*
X69602163Y3385462D01*
X69602161Y3385462D01*
X69598375Y3385077D01*
X69500902Y3354531D01*
X69497575Y3352687D01*
X69497573Y3352686D01*
X69414889Y3306854D01*
X69414887Y3306853D01*
X69411561Y3305009D01*
X69334004Y3238534D01*
X69271396Y3157821D01*
X69226298Y3066168D01*
X69200549Y2967319D01*
X69198910Y2936041D01*
X69195509Y2871144D01*
X69195203Y2865311D01*
X68347050Y2865311D01*
X68319906Y2947624D01*
X68319905Y2947626D01*
X68319156Y2949898D01*
X68252919Y3088456D01*
X68212726Y3150704D01*
X68170910Y3215465D01*
X68170909Y3215467D01*
X68169612Y3217475D01*
X68070587Y3334863D01*
X68067214Y3337960D01*
X67959214Y3437097D01*
X67959213Y3437098D01*
X67957449Y3438717D01*
X67955499Y3440095D01*
X67955493Y3440100D01*
X67860456Y3507264D01*
X67832031Y3527353D01*
X67750040Y3570857D01*
X67698485Y3598212D01*
X67698482Y3598214D01*
X67696368Y3599335D01*
X67552658Y3653495D01*
X67403231Y3688956D01*
X67250509Y3705142D01*
X67248117Y3705090D01*
X67248112Y3705090D01*
X67173740Y3703467D01*
X67096970Y3701792D01*
X67032479Y3692096D01*
X66947465Y3679315D01*
X66947458Y3679314D01*
X66945100Y3678959D01*
X66942805Y3678307D01*
X66942803Y3678307D01*
X66799658Y3637666D01*
X66797362Y3637014D01*
X66750149Y3616827D01*
X66658354Y3577579D01*
X66658348Y3577576D01*
X66656152Y3576637D01*
X66654093Y3575426D01*
X66654086Y3575423D01*
X66597823Y3542347D01*
X66523757Y3498806D01*
X66521871Y3497346D01*
X66521870Y3497345D01*
X66404225Y3406255D01*
X66404219Y3406250D01*
X66402326Y3404784D01*
X66374041Y3376450D01*
X66311326Y3313625D01*
X66293825Y3296094D01*
X66200015Y3174497D01*
X66198807Y3172434D01*
X66198803Y3172428D01*
X66150810Y3090463D01*
X66122415Y3041968D01*
X66121475Y3039760D01*
X66121475Y3039759D01*
X66067031Y2911805D01*
X66062285Y2900652D01*
X66061634Y2898345D01*
X66061634Y2898344D01*
X66029153Y2783173D01*
X66020598Y2752841D01*
X66016702Y2726614D01*
X66000740Y2619171D01*
X65998030Y2600931D01*
X65996300Y2559651D01*
X65996300Y1852545D01*
X65996301Y-26379D01*
X65996301Y-1885183D01*
X65986226Y-1922783D01*
X65974275Y-1938357D01*
X64337858Y-3574774D01*
X64304147Y-3594238D01*
X64284684Y-3596800D01*
X62102654Y-3596800D01*
X62065054Y-3586725D01*
X62037529Y-3559200D01*
X62027454Y-3521600D01*
X62037529Y-3484000D01*
X62042993Y-3475822D01*
X62045541Y-3472501D01*
X62061886Y-3451200D01*
X62092096Y-3378267D01*
X62092853Y-3372522D01*
X62101757Y-3304884D01*
X62102400Y-3300000D01*
X62099539Y-3278267D01*
X62092739Y-3226614D01*
X62092738Y-3226611D01*
X62092096Y-3221733D01*
X62061886Y-3148800D01*
X62030564Y-3107980D01*
X62016827Y-3090078D01*
X62013829Y-3086171D01*
X61951200Y-3038114D01*
X61878267Y-3007904D01*
X61873389Y-3007262D01*
X61873386Y-3007261D01*
X61804884Y-2998243D01*
X61800000Y-2997600D01*
X61795116Y-2998243D01*
X61726614Y-3007261D01*
X61726611Y-3007262D01*
X61721733Y-3007904D01*
X61648800Y-3038114D01*
X61586171Y-3086171D01*
X61583173Y-3090078D01*
X61569436Y-3107980D01*
X61538114Y-3148800D01*
X61507904Y-3221733D01*
X61507262Y-3226611D01*
X61507261Y-3226614D01*
X61500461Y-3278267D01*
X61497600Y-3300000D01*
X61498243Y-3304884D01*
X61507148Y-3372522D01*
X61507904Y-3378267D01*
X61538114Y-3451200D01*
X61554459Y-3472501D01*
X61557007Y-3475822D01*
X61571903Y-3511785D01*
X61566821Y-3550378D01*
X61543124Y-3581261D01*
X61507161Y-3596157D01*
X61497346Y-3596800D01*
X58196885Y-3596800D01*
X58159285Y-3586725D01*
X58131760Y-3559200D01*
X58121685Y-3521600D01*
X58131760Y-3484000D01*
X58152380Y-3463424D01*
X58151200Y-3461886D01*
X58209922Y-3416827D01*
X58213829Y-3413829D01*
X58220770Y-3404784D01*
X58246123Y-3371743D01*
X58261886Y-3351200D01*
X58292096Y-3278267D01*
X58293209Y-3269819D01*
X58301757Y-3204884D01*
X58302400Y-3200000D01*
X58299043Y-3174498D01*
X58292739Y-3126614D01*
X58292738Y-3126611D01*
X58292096Y-3121733D01*
X58261886Y-3048800D01*
X58213829Y-2986171D01*
X58151200Y-2938114D01*
X58078267Y-2907904D01*
X58073389Y-2907262D01*
X58073386Y-2907261D01*
X58004884Y-2898243D01*
X58000000Y-2897600D01*
X57995116Y-2898243D01*
X57926614Y-2907261D01*
X57926611Y-2907262D01*
X57921733Y-2907904D01*
X57848800Y-2938114D01*
X57786171Y-2986171D01*
X57738114Y-3048800D01*
X57707904Y-3121733D01*
X57707262Y-3126611D01*
X57707261Y-3126614D01*
X57700957Y-3174498D01*
X57697600Y-3200000D01*
X57698243Y-3204884D01*
X57706792Y-3269819D01*
X57707904Y-3278267D01*
X57738114Y-3351200D01*
X57753877Y-3371743D01*
X57779231Y-3404784D01*
X57786171Y-3413829D01*
X57790078Y-3416827D01*
X57848800Y-3461886D01*
X57847626Y-3463416D01*
X57868159Y-3483859D01*
X57878315Y-3521437D01*
X57868321Y-3559059D01*
X57840856Y-3586644D01*
X57803115Y-3596800D01*
X55696885Y-3596800D01*
X55659285Y-3586725D01*
X55631760Y-3559200D01*
X55621685Y-3521600D01*
X55631760Y-3484000D01*
X55652380Y-3463424D01*
X55651200Y-3461886D01*
X55709922Y-3416827D01*
X55713829Y-3413829D01*
X55720770Y-3404784D01*
X55746123Y-3371743D01*
X55761886Y-3351200D01*
X55792096Y-3278267D01*
X55793209Y-3269819D01*
X55801757Y-3204884D01*
X55802400Y-3200000D01*
X55799043Y-3174498D01*
X55792739Y-3126614D01*
X55792738Y-3126611D01*
X55792096Y-3121733D01*
X55761886Y-3048800D01*
X55713829Y-2986171D01*
X55651200Y-2938114D01*
X55578267Y-2907904D01*
X55573389Y-2907262D01*
X55573386Y-2907261D01*
X55504884Y-2898243D01*
X55500000Y-2897600D01*
X55495116Y-2898243D01*
X55426614Y-2907261D01*
X55426611Y-2907262D01*
X55421733Y-2907904D01*
X55348800Y-2938114D01*
X55286171Y-2986171D01*
X55238114Y-3048800D01*
X55207904Y-3121733D01*
X55207262Y-3126611D01*
X55207261Y-3126614D01*
X55200957Y-3174498D01*
X55197600Y-3200000D01*
X55198243Y-3204884D01*
X55206792Y-3269819D01*
X55207904Y-3278267D01*
X55238114Y-3351200D01*
X55253877Y-3371743D01*
X55279231Y-3404784D01*
X55286171Y-3413829D01*
X55290078Y-3416827D01*
X55348800Y-3461886D01*
X55347626Y-3463416D01*
X55368159Y-3483859D01*
X55378315Y-3521437D01*
X55368321Y-3559059D01*
X55340856Y-3586644D01*
X55303115Y-3596800D01*
X43902654Y-3596800D01*
X43865054Y-3586725D01*
X43837529Y-3559200D01*
X43827454Y-3521600D01*
X43837529Y-3484000D01*
X43842993Y-3475822D01*
X43845541Y-3472501D01*
X43861886Y-3451200D01*
X43892096Y-3378267D01*
X43892853Y-3372522D01*
X43901757Y-3304884D01*
X43902400Y-3300000D01*
X43899539Y-3278267D01*
X43892739Y-3226614D01*
X43892738Y-3226611D01*
X43892096Y-3221733D01*
X43861886Y-3148800D01*
X43830564Y-3107980D01*
X43816827Y-3090078D01*
X43813829Y-3086171D01*
X43751200Y-3038114D01*
X43678267Y-3007904D01*
X43673389Y-3007262D01*
X43673386Y-3007261D01*
X43604884Y-2998243D01*
X43600000Y-2997600D01*
X43595116Y-2998243D01*
X43526614Y-3007261D01*
X43526611Y-3007262D01*
X43521733Y-3007904D01*
X43448800Y-3038114D01*
X43386171Y-3086171D01*
X43383173Y-3090078D01*
X43369436Y-3107980D01*
X43338114Y-3148800D01*
X43307904Y-3221733D01*
X43307262Y-3226611D01*
X43307261Y-3226614D01*
X43300461Y-3278267D01*
X43297600Y-3300000D01*
X43298243Y-3304884D01*
X43307148Y-3372522D01*
X43307904Y-3378267D01*
X43338114Y-3451200D01*
X43354459Y-3472501D01*
X43357007Y-3475822D01*
X43371903Y-3511785D01*
X43366821Y-3550378D01*
X43343124Y-3581261D01*
X43307161Y-3596157D01*
X43297346Y-3596800D01*
X42347131Y-3596800D01*
X42309531Y-3586725D01*
X42282006Y-3559200D01*
X42271931Y-3521600D01*
X42279088Y-3489582D01*
X42279430Y-3488856D01*
X42281549Y-3485384D01*
X42284842Y-3475822D01*
X42310841Y-3400313D01*
X42312167Y-3396462D01*
X42322976Y-3303040D01*
X42322987Y-3300000D01*
X42322457Y-3295116D01*
X42313270Y-3210556D01*
X42312830Y-3206504D01*
X42309004Y-3195135D01*
X42284132Y-3121229D01*
X42284130Y-3121224D01*
X42282833Y-3117371D01*
X42279338Y-3111553D01*
X42244365Y-3053349D01*
X42234396Y-3036758D01*
X42184112Y-2983584D01*
X42172572Y-2971380D01*
X42172569Y-2971378D01*
X42169778Y-2968426D01*
X42163597Y-2964225D01*
X42101904Y-2922299D01*
X42091995Y-2915565D01*
X42074569Y-2908595D01*
X42049322Y-2891948D01*
X41802886Y-2645512D01*
X44166985Y-2645512D01*
X44167845Y-2649488D01*
X44167845Y-2649491D01*
X44172716Y-2672020D01*
X44186859Y-2737434D01*
X44226009Y-2822943D01*
X44228459Y-2826194D01*
X44228460Y-2826196D01*
X44256774Y-2863770D01*
X44282607Y-2898052D01*
X44285695Y-2900698D01*
X44285698Y-2900702D01*
X44350916Y-2956600D01*
X44350919Y-2956602D01*
X44354013Y-2959254D01*
X44436896Y-3003696D01*
X44451767Y-3007904D01*
X44523472Y-3028195D01*
X44523476Y-3028196D01*
X44527389Y-3029303D01*
X44581307Y-3032506D01*
X44617207Y-3034639D01*
X44617210Y-3034639D01*
X44621269Y-3034880D01*
X44714157Y-3020168D01*
X44717946Y-3018683D01*
X44717950Y-3018682D01*
X44771744Y-2997600D01*
X44801719Y-2985853D01*
X44805106Y-2983585D01*
X44805109Y-2983584D01*
X44876484Y-2935803D01*
X44876486Y-2935802D01*
X44879870Y-2933536D01*
X44944963Y-2865657D01*
X44948076Y-2860558D01*
X44971036Y-2822943D01*
X44993962Y-2785384D01*
X45024580Y-2696462D01*
X45035389Y-2603040D01*
X45035400Y-2600000D01*
X45034870Y-2595116D01*
X45025683Y-2510556D01*
X45025243Y-2506504D01*
X45023862Y-2502400D01*
X44996545Y-2421229D01*
X44996543Y-2421224D01*
X44995246Y-2417371D01*
X44993151Y-2413884D01*
X44991440Y-2410182D01*
X44992307Y-2409782D01*
X44983060Y-2377517D01*
X44992483Y-2339749D01*
X45019528Y-2311751D01*
X45056948Y-2301027D01*
X45094716Y-2310450D01*
X45107184Y-2319117D01*
X45154013Y-2359254D01*
X45236896Y-2403696D01*
X45259093Y-2409977D01*
X45323472Y-2428195D01*
X45323476Y-2428196D01*
X45327389Y-2429303D01*
X45381307Y-2432506D01*
X45417207Y-2434639D01*
X45417210Y-2434639D01*
X45421269Y-2434880D01*
X45514157Y-2420168D01*
X45517946Y-2418683D01*
X45517950Y-2418682D01*
X45561103Y-2401770D01*
X45601719Y-2385853D01*
X45605106Y-2383585D01*
X45605109Y-2383584D01*
X45676484Y-2335803D01*
X45676486Y-2335802D01*
X45679870Y-2333536D01*
X45744963Y-2265657D01*
X45793962Y-2185384D01*
X45824580Y-2096462D01*
X45828363Y-2063770D01*
X45835149Y-2005113D01*
X45835389Y-2003040D01*
X45835400Y-2000000D01*
X46197600Y-2000000D01*
X46198243Y-2004884D01*
X46206631Y-2068595D01*
X46207904Y-2078267D01*
X46238114Y-2151200D01*
X46286171Y-2213829D01*
X46290078Y-2216827D01*
X46294432Y-2220168D01*
X46348800Y-2261886D01*
X46421733Y-2292096D01*
X46426611Y-2292738D01*
X46426614Y-2292739D01*
X46495116Y-2301757D01*
X46500000Y-2302400D01*
X46504884Y-2301757D01*
X46573386Y-2292739D01*
X46573389Y-2292738D01*
X46578267Y-2292096D01*
X46651200Y-2261886D01*
X46705568Y-2220168D01*
X46709922Y-2216827D01*
X46713829Y-2213829D01*
X46761886Y-2151200D01*
X46792096Y-2078267D01*
X46793370Y-2068595D01*
X46801757Y-2004884D01*
X46802400Y-2000000D01*
X46796490Y-1955107D01*
X46792739Y-1926614D01*
X46792738Y-1926611D01*
X46792096Y-1921733D01*
X46761886Y-1848800D01*
X46759364Y-1845512D01*
X51866985Y-1845512D01*
X51867845Y-1849488D01*
X51867845Y-1849491D01*
X51877057Y-1892096D01*
X51886859Y-1937434D01*
X51926009Y-2022943D01*
X51928459Y-2026194D01*
X51928460Y-2026196D01*
X51956774Y-2063770D01*
X51982607Y-2098052D01*
X51985695Y-2100698D01*
X51985698Y-2100702D01*
X52050916Y-2156600D01*
X52050919Y-2156602D01*
X52054013Y-2159254D01*
X52136896Y-2203696D01*
X52172580Y-2213794D01*
X52223472Y-2228195D01*
X52223476Y-2228196D01*
X52227389Y-2229303D01*
X52281307Y-2232506D01*
X52317207Y-2234639D01*
X52317210Y-2234639D01*
X52321269Y-2234880D01*
X52414157Y-2220168D01*
X52417946Y-2218683D01*
X52417950Y-2218682D01*
X52453060Y-2204922D01*
X61566985Y-2204922D01*
X61567845Y-2208898D01*
X61567845Y-2208901D01*
X61569559Y-2216827D01*
X61586859Y-2296844D01*
X61626009Y-2382353D01*
X61628459Y-2385604D01*
X61628460Y-2385606D01*
X61665110Y-2434243D01*
X61682607Y-2457462D01*
X61685695Y-2460108D01*
X61685698Y-2460112D01*
X61750916Y-2516010D01*
X61750919Y-2516012D01*
X61754013Y-2518664D01*
X61836896Y-2563106D01*
X61872580Y-2573204D01*
X61923472Y-2587605D01*
X61923476Y-2587606D01*
X61927389Y-2588713D01*
X61981307Y-2591916D01*
X62017207Y-2594049D01*
X62017210Y-2594049D01*
X62021269Y-2594290D01*
X62114157Y-2579578D01*
X62117946Y-2578093D01*
X62117950Y-2578092D01*
X62166954Y-2558887D01*
X62201719Y-2545263D01*
X62205106Y-2542995D01*
X62205109Y-2542994D01*
X62276484Y-2495213D01*
X62276486Y-2495212D01*
X62279870Y-2492946D01*
X62344963Y-2425067D01*
X62347954Y-2420168D01*
X62373606Y-2378142D01*
X62393962Y-2344794D01*
X62424580Y-2255872D01*
X62427083Y-2234243D01*
X62431044Y-2200000D01*
X62435389Y-2162450D01*
X62435400Y-2159410D01*
X62435172Y-2157308D01*
X62435070Y-2155369D01*
X62443161Y-2117293D01*
X62456993Y-2098254D01*
X62614108Y-1941140D01*
X62794560Y-1760688D01*
X62796833Y-1758509D01*
X62813819Y-1742890D01*
X62813821Y-1742887D01*
X62817593Y-1739419D01*
X62820292Y-1735066D01*
X62820296Y-1735061D01*
X62828971Y-1721068D01*
X62832986Y-1715226D01*
X62833437Y-1714632D01*
X62846030Y-1698042D01*
X62848481Y-1691852D01*
X62854479Y-1679927D01*
X62857985Y-1674272D01*
X62864012Y-1653527D01*
X62866302Y-1646839D01*
X62866377Y-1646651D01*
X62874248Y-1626772D01*
X62874784Y-1621674D01*
X62876007Y-1616695D01*
X62877532Y-1617070D01*
X62888365Y-1588852D01*
X62918617Y-1564356D01*
X62957064Y-1558267D01*
X62993405Y-1572218D01*
X63018677Y-1604276D01*
X63038114Y-1651200D01*
X63041112Y-1655107D01*
X63082209Y-1708665D01*
X63086171Y-1713829D01*
X63090078Y-1716827D01*
X63116102Y-1736796D01*
X63148800Y-1761886D01*
X63221733Y-1792096D01*
X63226611Y-1792738D01*
X63226614Y-1792739D01*
X63295116Y-1801757D01*
X63300000Y-1802400D01*
X63304884Y-1801757D01*
X63373386Y-1792739D01*
X63373389Y-1792738D01*
X63378267Y-1792096D01*
X63451200Y-1761886D01*
X63483898Y-1736796D01*
X63509922Y-1716827D01*
X63513829Y-1713829D01*
X63517792Y-1708665D01*
X63558888Y-1655107D01*
X63561886Y-1651200D01*
X63592096Y-1578267D01*
X63592893Y-1572218D01*
X63601757Y-1504884D01*
X63602400Y-1500000D01*
X63598896Y-1473386D01*
X63592739Y-1426614D01*
X63592738Y-1426611D01*
X63592096Y-1421733D01*
X63561886Y-1348800D01*
X63526282Y-1302400D01*
X63516827Y-1290078D01*
X63513829Y-1286171D01*
X63505743Y-1279966D01*
X63465126Y-1248800D01*
X63451200Y-1238114D01*
X63378267Y-1207904D01*
X63373389Y-1207262D01*
X63373386Y-1207261D01*
X63304884Y-1198243D01*
X63300000Y-1197600D01*
X63295116Y-1198243D01*
X63226614Y-1207261D01*
X63226611Y-1207262D01*
X63221733Y-1207904D01*
X63148800Y-1238114D01*
X63134874Y-1248800D01*
X63094258Y-1279966D01*
X63086171Y-1286171D01*
X63083173Y-1290078D01*
X63073718Y-1302400D01*
X63038114Y-1348800D01*
X63033616Y-1359660D01*
X63024576Y-1381483D01*
X63000878Y-1412365D01*
X62964915Y-1427262D01*
X62926322Y-1422181D01*
X62895440Y-1398483D01*
X62880543Y-1362520D01*
X62879900Y-1352705D01*
X62879900Y-508610D01*
X63597600Y-508610D01*
X63607904Y-586877D01*
X63638114Y-659810D01*
X63641112Y-663717D01*
X63676464Y-709788D01*
X63686171Y-722439D01*
X63748800Y-770496D01*
X63821733Y-800706D01*
X63826611Y-801348D01*
X63826614Y-801349D01*
X63895116Y-810367D01*
X63900000Y-811010D01*
X63904884Y-810367D01*
X63973386Y-801349D01*
X63973389Y-801348D01*
X63978267Y-800706D01*
X64051200Y-770496D01*
X64113829Y-722439D01*
X64123537Y-709788D01*
X64158888Y-663717D01*
X64161886Y-659810D01*
X64192096Y-586877D01*
X64202400Y-508610D01*
X64192096Y-430343D01*
X64161886Y-357410D01*
X64113829Y-294781D01*
X64051200Y-246724D01*
X63978267Y-216514D01*
X63973389Y-215872D01*
X63973386Y-215871D01*
X63904884Y-206853D01*
X63900000Y-206210D01*
X63895116Y-206853D01*
X63826614Y-215871D01*
X63826611Y-215872D01*
X63821733Y-216514D01*
X63748800Y-246724D01*
X63686171Y-294781D01*
X63638114Y-357410D01*
X63607904Y-430343D01*
X63597600Y-508610D01*
X62879900Y-508610D01*
X62879900Y-147295D01*
X62889975Y-109695D01*
X62917500Y-82170D01*
X62955100Y-72095D01*
X62992700Y-82170D01*
X63020225Y-109695D01*
X63024576Y-118517D01*
X63038114Y-151200D01*
X63086171Y-213829D01*
X63090078Y-216827D01*
X63094432Y-220168D01*
X63148800Y-261886D01*
X63221733Y-292096D01*
X63226611Y-292738D01*
X63226614Y-292739D01*
X63295116Y-301757D01*
X63300000Y-302400D01*
X63304884Y-301757D01*
X63373386Y-292739D01*
X63373389Y-292738D01*
X63378267Y-292096D01*
X63451200Y-261886D01*
X63505568Y-220168D01*
X63509922Y-216827D01*
X63513829Y-213829D01*
X63561886Y-151200D01*
X63592096Y-78267D01*
X63593024Y-71222D01*
X63601757Y-4884D01*
X63602400Y0D01*
X63599224Y24127D01*
X63592739Y73386D01*
X63592738Y73389D01*
X63592096Y78267D01*
X63561886Y151200D01*
X63513829Y213829D01*
X63451200Y261886D01*
X63378267Y292096D01*
X63373389Y292738D01*
X63373386Y292739D01*
X63304884Y301757D01*
X63300000Y302400D01*
X63295116Y301757D01*
X63226614Y292739D01*
X63226611Y292738D01*
X63221733Y292096D01*
X63148800Y261886D01*
X63086171Y213829D01*
X63038114Y151200D01*
X63036230Y146651D01*
X63024576Y118517D01*
X63000878Y87635D01*
X62964915Y72738D01*
X62926322Y77819D01*
X62895440Y101517D01*
X62880543Y137480D01*
X62879900Y147295D01*
X62879900Y1252915D01*
X62889975Y1290515D01*
X62901923Y1306085D01*
X63240444Y1644606D01*
X63274153Y1664068D01*
X63298075Y1666498D01*
X63304705Y1666104D01*
X63317207Y1665361D01*
X63317210Y1665361D01*
X63321269Y1665120D01*
X63414157Y1679832D01*
X63417946Y1681317D01*
X63417950Y1681318D01*
X63465620Y1700000D01*
X63501719Y1714147D01*
X63505106Y1716415D01*
X63505109Y1716416D01*
X63576484Y1764197D01*
X63576486Y1764198D01*
X63579870Y1766464D01*
X63644963Y1834343D01*
X63693962Y1914616D01*
X63724580Y2003538D01*
X63728363Y2036230D01*
X63734826Y2092096D01*
X63735389Y2096960D01*
X63735400Y2100000D01*
X63725243Y2193496D01*
X63723862Y2197600D01*
X63696545Y2278771D01*
X63696543Y2278776D01*
X63695246Y2282629D01*
X63690771Y2290078D01*
X63657834Y2344893D01*
X63646809Y2363242D01*
X63609318Y2402888D01*
X63584985Y2428620D01*
X63584982Y2428622D01*
X63582191Y2431574D01*
X63504408Y2484435D01*
X63417088Y2519361D01*
X63324305Y2534721D01*
X63320238Y2534508D01*
X63320235Y2534508D01*
X63273248Y2532045D01*
X63230388Y2529799D01*
X63226461Y2528717D01*
X63226459Y2528717D01*
X63172408Y2513829D01*
X63139719Y2504825D01*
X63056527Y2460963D01*
X63042164Y2448825D01*
X62987805Y2402888D01*
X62987802Y2402885D01*
X62984696Y2400260D01*
X62927574Y2325549D01*
X62925853Y2321858D01*
X62889548Y2244002D01*
X62889546Y2243996D01*
X62887829Y2240314D01*
X62886942Y2236346D01*
X62886941Y2236343D01*
X62878425Y2198243D01*
X62867313Y2148534D01*
X62867200Y2116178D01*
X62867122Y2093845D01*
X62856915Y2056281D01*
X62845096Y2040934D01*
X62405464Y1601301D01*
X62403191Y1599121D01*
X62382407Y1580009D01*
X62371026Y1561651D01*
X62367024Y1555828D01*
X62353970Y1538631D01*
X62351519Y1532441D01*
X62345521Y1520516D01*
X62342015Y1514861D01*
X62335988Y1494116D01*
X62333701Y1487436D01*
X62325752Y1467361D01*
X62325216Y1462260D01*
X62325215Y1462257D01*
X62325056Y1460749D01*
X62322484Y1447639D01*
X62320629Y1441253D01*
X62320100Y1434048D01*
X62320100Y1417525D01*
X62319688Y1409665D01*
X62317740Y1391130D01*
X62318595Y1386075D01*
X62318595Y1386074D01*
X62319047Y1383402D01*
X62320100Y1370862D01*
X62320101Y-26379D01*
X62320101Y-1412321D01*
X62310026Y-1449921D01*
X62298076Y-1465495D01*
X62060102Y-1703470D01*
X62026390Y-1722934D01*
X62010863Y-1725393D01*
X61964331Y-1727832D01*
X61930388Y-1729611D01*
X61926461Y-1730693D01*
X61926459Y-1730693D01*
X61843647Y-1753503D01*
X61839719Y-1754585D01*
X61756527Y-1798447D01*
X61738325Y-1813829D01*
X61687805Y-1856522D01*
X61687802Y-1856525D01*
X61684696Y-1859150D01*
X61627574Y-1933861D01*
X61624193Y-1941112D01*
X61589548Y-2015408D01*
X61589546Y-2015414D01*
X61587829Y-2019096D01*
X61567313Y-2110876D01*
X61567299Y-2114944D01*
X61567052Y-2185853D01*
X61566985Y-2204922D01*
X52453060Y-2204922D01*
X52494043Y-2188861D01*
X52501719Y-2185853D01*
X52505106Y-2183585D01*
X52505109Y-2183584D01*
X52576484Y-2135803D01*
X52576486Y-2135802D01*
X52579870Y-2133536D01*
X52644963Y-2065657D01*
X52693962Y-1985384D01*
X52724580Y-1896462D01*
X52735389Y-1803040D01*
X52735400Y-1800000D01*
X53697600Y-1800000D01*
X53698243Y-1804884D01*
X53706984Y-1871278D01*
X53707904Y-1878267D01*
X53738114Y-1951200D01*
X53786171Y-2013829D01*
X53848800Y-2061886D01*
X53921733Y-2092096D01*
X53926611Y-2092738D01*
X53926614Y-2092739D01*
X53995116Y-2101757D01*
X54000000Y-2102400D01*
X54004884Y-2101757D01*
X54073386Y-2092739D01*
X54073389Y-2092738D01*
X54078267Y-2092096D01*
X54151200Y-2061886D01*
X54213829Y-2013829D01*
X54261886Y-1951200D01*
X54292096Y-1878267D01*
X54293017Y-1871278D01*
X54301757Y-1804884D01*
X54302400Y-1800000D01*
X54299822Y-1780420D01*
X54292739Y-1726614D01*
X54292738Y-1726611D01*
X54292096Y-1721733D01*
X54261886Y-1648800D01*
X54232054Y-1609922D01*
X54216827Y-1590078D01*
X54213829Y-1586171D01*
X54190090Y-1567955D01*
X54173346Y-1555107D01*
X54151200Y-1538114D01*
X54078267Y-1507904D01*
X54073389Y-1507262D01*
X54073386Y-1507261D01*
X54004884Y-1498243D01*
X54000000Y-1497600D01*
X53995116Y-1498243D01*
X53926614Y-1507261D01*
X53926611Y-1507262D01*
X53921733Y-1507904D01*
X53848800Y-1538114D01*
X53826654Y-1555107D01*
X53809911Y-1567955D01*
X53786171Y-1586171D01*
X53783173Y-1590078D01*
X53767946Y-1609922D01*
X53738114Y-1648800D01*
X53707904Y-1721733D01*
X53707262Y-1726611D01*
X53707261Y-1726614D01*
X53700178Y-1780420D01*
X53697600Y-1800000D01*
X52735400Y-1800000D01*
X52735169Y-1797868D01*
X52728639Y-1737762D01*
X52725243Y-1706504D01*
X52706828Y-1651785D01*
X52702900Y-1627800D01*
X52702900Y-1000000D01*
X53697600Y-1000000D01*
X53707904Y-1078267D01*
X53738114Y-1151200D01*
X53786171Y-1213829D01*
X53790078Y-1216827D01*
X53816858Y-1237376D01*
X53848800Y-1261886D01*
X53921733Y-1292096D01*
X53926611Y-1292738D01*
X53926614Y-1292739D01*
X53995116Y-1301757D01*
X54000000Y-1302400D01*
X54004884Y-1301757D01*
X54073386Y-1292739D01*
X54073389Y-1292738D01*
X54078267Y-1292096D01*
X54151200Y-1261886D01*
X54183142Y-1237376D01*
X54209922Y-1216827D01*
X54213829Y-1213829D01*
X54261886Y-1151200D01*
X54292096Y-1078267D01*
X54302400Y-1000000D01*
X54292096Y-921733D01*
X54261886Y-848800D01*
X54224982Y-800706D01*
X54216827Y-790078D01*
X54213829Y-786171D01*
X54202021Y-777110D01*
X54155107Y-741112D01*
X54151200Y-738114D01*
X54078267Y-707904D01*
X54073389Y-707262D01*
X54073386Y-707261D01*
X54004884Y-698243D01*
X54000000Y-697600D01*
X53995116Y-698243D01*
X53926614Y-707261D01*
X53926611Y-707262D01*
X53921733Y-707904D01*
X53848800Y-738114D01*
X53844893Y-741112D01*
X53797980Y-777110D01*
X53786171Y-786171D01*
X53783173Y-790078D01*
X53775018Y-800706D01*
X53738114Y-848800D01*
X53707904Y-921733D01*
X53697600Y-1000000D01*
X52702900Y-1000000D01*
X52702900Y-400000D01*
X54497600Y-400000D01*
X54507904Y-478267D01*
X54538114Y-551200D01*
X54586171Y-613829D01*
X54648800Y-661886D01*
X54721733Y-692096D01*
X54726611Y-692738D01*
X54726614Y-692739D01*
X54795116Y-701757D01*
X54800000Y-702400D01*
X54804884Y-701757D01*
X54873386Y-692739D01*
X54873389Y-692738D01*
X54878267Y-692096D01*
X54951200Y-661886D01*
X55013829Y-613829D01*
X55061886Y-551200D01*
X55092096Y-478267D01*
X55102400Y-400000D01*
X57697600Y-400000D01*
X57707904Y-478267D01*
X57738114Y-551200D01*
X57786171Y-613829D01*
X57848800Y-661886D01*
X57921733Y-692096D01*
X57926611Y-692738D01*
X57926614Y-692739D01*
X57995116Y-701757D01*
X58000000Y-702400D01*
X58004884Y-701757D01*
X58073386Y-692739D01*
X58073389Y-692738D01*
X58078267Y-692096D01*
X58151200Y-661886D01*
X58213829Y-613829D01*
X58261886Y-551200D01*
X58292096Y-478267D01*
X58302400Y-400000D01*
X58296279Y-353503D01*
X58292739Y-326614D01*
X58292738Y-326611D01*
X58292096Y-321733D01*
X58261886Y-248800D01*
X58229699Y-206853D01*
X58216827Y-190078D01*
X58213829Y-186171D01*
X58184636Y-163770D01*
X58155107Y-141112D01*
X58151200Y-138114D01*
X58078267Y-107904D01*
X58073389Y-107262D01*
X58073386Y-107261D01*
X58004884Y-98243D01*
X58000000Y-97600D01*
X57995116Y-98243D01*
X57926614Y-107261D01*
X57926611Y-107262D01*
X57921733Y-107904D01*
X57848800Y-138114D01*
X57844893Y-141112D01*
X57815365Y-163770D01*
X57786171Y-186171D01*
X57783173Y-190078D01*
X57770301Y-206853D01*
X57738114Y-248800D01*
X57707904Y-321733D01*
X57707262Y-326611D01*
X57707261Y-326614D01*
X57703721Y-353503D01*
X57697600Y-400000D01*
X55102400Y-400000D01*
X55096279Y-353503D01*
X55092739Y-326614D01*
X55092738Y-326611D01*
X55092096Y-321733D01*
X55061886Y-248800D01*
X55029699Y-206853D01*
X55016827Y-190078D01*
X55013829Y-186171D01*
X54984636Y-163770D01*
X54955107Y-141112D01*
X54951200Y-138114D01*
X54878267Y-107904D01*
X54873389Y-107262D01*
X54873386Y-107261D01*
X54804884Y-98243D01*
X54800000Y-97600D01*
X54795116Y-98243D01*
X54726614Y-107261D01*
X54726611Y-107262D01*
X54721733Y-107904D01*
X54648800Y-138114D01*
X54644893Y-141112D01*
X54615365Y-163770D01*
X54586171Y-186171D01*
X54583173Y-190078D01*
X54570301Y-206853D01*
X54538114Y-248800D01*
X54507904Y-321733D01*
X54507262Y-326611D01*
X54507261Y-326614D01*
X54503721Y-353503D01*
X54497600Y-400000D01*
X52702900Y-400000D01*
X52702900Y73318D01*
X52712975Y110918D01*
X52736267Y135808D01*
X52772047Y159760D01*
X52772049Y159761D01*
X52775433Y162027D01*
X52840526Y229906D01*
X52849414Y244466D01*
X52867326Y273812D01*
X52889525Y310179D01*
X52920143Y399101D01*
X52930952Y492523D01*
X52930963Y495563D01*
X52930184Y502739D01*
X52922836Y570369D01*
X52920806Y589059D01*
X52902391Y643778D01*
X52898463Y667763D01*
X52898463Y3097530D01*
X52908538Y3135130D01*
X52920489Y3150704D01*
X53207337Y3437551D01*
X53425236Y3655450D01*
X58176135Y3655450D01*
X58176995Y3651473D01*
X58176995Y3651471D01*
X58193175Y3576637D01*
X58195589Y3565470D01*
X58197283Y3561770D01*
X58197284Y3561767D01*
X58221987Y3507811D01*
X58233911Y3481767D01*
X58236361Y3478516D01*
X58236362Y3478514D01*
X58286864Y3411497D01*
X58289314Y3408246D01*
X58292402Y3405600D01*
X58292405Y3405596D01*
X58326411Y3376450D01*
X58359211Y3348337D01*
X58440343Y3304834D01*
X58451217Y3301757D01*
X58525006Y3280876D01*
X58525010Y3280875D01*
X58528923Y3279768D01*
X58581856Y3276624D01*
X58616758Y3274550D01*
X58616761Y3274550D01*
X58620820Y3274309D01*
X58711745Y3288710D01*
X58715534Y3290195D01*
X58715538Y3290196D01*
X58793660Y3320812D01*
X58797457Y3322300D01*
X58800841Y3324566D01*
X58800844Y3324567D01*
X58870576Y3371249D01*
X58870578Y3371250D01*
X58873956Y3373512D01*
X58937674Y3439956D01*
X58985637Y3518533D01*
X59015609Y3605576D01*
X59019138Y3636075D01*
X59025949Y3694940D01*
X59025949Y3694944D01*
X59026190Y3697025D01*
X59026200Y3700000D01*
X59016258Y3791520D01*
X59013996Y3798243D01*
X58999568Y3841112D01*
X58986895Y3878770D01*
X58984250Y3883173D01*
X58948231Y3943118D01*
X58939481Y3957680D01*
X58876229Y4024568D01*
X58837771Y4050704D01*
X58803455Y4074025D01*
X58803452Y4074027D01*
X58800089Y4076312D01*
X58796314Y4077822D01*
X58796310Y4077824D01*
X58747328Y4097415D01*
X58714614Y4110500D01*
X58623791Y4125535D01*
X58619724Y4125322D01*
X58619721Y4125322D01*
X58535921Y4120930D01*
X58535920Y4120930D01*
X58531859Y4120717D01*
X58476208Y4105389D01*
X58447036Y4097354D01*
X58447034Y4097353D01*
X58443105Y4096271D01*
X58439499Y4094370D01*
X58439497Y4094369D01*
X58408117Y4077824D01*
X58361672Y4053336D01*
X58330337Y4026856D01*
X58294472Y3996548D01*
X58294470Y3996546D01*
X58291358Y3993916D01*
X58288884Y3990680D01*
X58288882Y3990678D01*
X58280353Y3979522D01*
X58235444Y3920783D01*
X58233724Y3917094D01*
X58233722Y3917091D01*
X58229899Y3908892D01*
X58196538Y3837350D01*
X58176456Y3747508D01*
X58176135Y3655450D01*
X53425236Y3655450D01*
X53495586Y3725800D01*
X53529297Y3745264D01*
X53538356Y3747102D01*
X53628713Y3759720D01*
X53728555Y3793807D01*
X53797782Y3833373D01*
X53817041Y3844380D01*
X53817045Y3844383D01*
X53820151Y3846158D01*
X53822868Y3848491D01*
X53822871Y3848493D01*
X53897479Y3912554D01*
X53900194Y3914885D01*
X53965798Y3997507D01*
X54014594Y4091045D01*
X54044099Y4189706D01*
X68145063Y4189706D01*
X68145587Y4186766D01*
X68171849Y4115389D01*
X68175169Y4108582D01*
X68221736Y4033478D01*
X68226359Y4027474D01*
X68287069Y3963276D01*
X68292817Y3958314D01*
X68365195Y3907634D01*
X68371811Y3903936D01*
X68452910Y3868842D01*
X68460130Y3866552D01*
X68547530Y3848293D01*
X68552762Y3847614D01*
X68553278Y3847600D01*
X69063098Y3847600D01*
X69070908Y3849692D01*
X69072999Y3857501D01*
X69326999Y3857501D01*
X69329091Y3849692D01*
X69336901Y3847600D01*
X69822701Y3847600D01*
X69826511Y3847793D01*
X69891704Y3854415D01*
X69899125Y3855939D01*
X69983451Y3882365D01*
X69990412Y3885348D01*
X70067701Y3928189D01*
X70073923Y3932514D01*
X70141018Y3990022D01*
X70146244Y3995511D01*
X70200405Y4065333D01*
X70204418Y4071756D01*
X70243433Y4151044D01*
X70246075Y4158150D01*
X70252658Y4183421D01*
X70252614Y4189706D01*
X72475063Y4189706D01*
X72475587Y4186766D01*
X72501849Y4115389D01*
X72505169Y4108582D01*
X72551736Y4033478D01*
X72556359Y4027474D01*
X72617069Y3963276D01*
X72622817Y3958314D01*
X72695195Y3907634D01*
X72701811Y3903936D01*
X72782910Y3868842D01*
X72790130Y3866552D01*
X72877530Y3848293D01*
X72882762Y3847614D01*
X72883278Y3847600D01*
X73243098Y3847600D01*
X73250908Y3849692D01*
X73252999Y3857501D01*
X73506999Y3857501D01*
X73509091Y3849692D01*
X73516901Y3847600D01*
X73852701Y3847600D01*
X73856511Y3847793D01*
X73921704Y3854415D01*
X73929125Y3855939D01*
X74013451Y3882365D01*
X74020412Y3885348D01*
X74097701Y3928189D01*
X74103923Y3932514D01*
X74171018Y3990022D01*
X74176244Y3995511D01*
X74230405Y4065333D01*
X74234418Y4071756D01*
X74273433Y4151044D01*
X74276075Y4158150D01*
X74282658Y4183421D01*
X74282601Y4191503D01*
X74279965Y4193000D01*
X73516902Y4193001D01*
X73509092Y4190909D01*
X73507000Y4183099D01*
X73506999Y3857501D01*
X73252999Y3857501D01*
X73253000Y3857502D01*
X73253001Y4183099D01*
X73250909Y4190908D01*
X73243099Y4193000D01*
X72483195Y4193001D01*
X72475385Y4190909D01*
X72475063Y4189706D01*
X70252614Y4189706D01*
X70252601Y4191503D01*
X70249965Y4193000D01*
X69336902Y4193001D01*
X69329092Y4190909D01*
X69327000Y4183099D01*
X69326999Y3857501D01*
X69072999Y3857501D01*
X69073000Y3857502D01*
X69073001Y4183099D01*
X69070909Y4190908D01*
X69063099Y4193000D01*
X68153195Y4193001D01*
X68145385Y4190909D01*
X68145063Y4189706D01*
X54044099Y4189706D01*
X54044822Y4192122D01*
X54055392Y4297092D01*
X54055400Y4300000D01*
X54055179Y4302317D01*
X54045720Y4401465D01*
X54045719Y4401470D01*
X54045380Y4405024D01*
X54015681Y4506258D01*
X53967401Y4600000D01*
X61397600Y4600000D01*
X61398243Y4595116D01*
X61405394Y4540800D01*
X61407904Y4521733D01*
X61438114Y4448800D01*
X61486171Y4386171D01*
X61490078Y4383173D01*
X61517486Y4362142D01*
X61548800Y4338114D01*
X61621733Y4307904D01*
X61626611Y4307262D01*
X61626614Y4307261D01*
X61695116Y4298243D01*
X61700000Y4297600D01*
X61704884Y4298243D01*
X61773386Y4307261D01*
X61773389Y4307262D01*
X61778267Y4307904D01*
X61851200Y4338114D01*
X61882515Y4362143D01*
X61909922Y4383173D01*
X61913829Y4386171D01*
X61961886Y4448800D01*
X61965108Y4456579D01*
X68147342Y4456579D01*
X68147399Y4448497D01*
X68150035Y4447000D01*
X69063098Y4446999D01*
X69070908Y4449091D01*
X69073000Y4456901D01*
X69326999Y4456901D01*
X69329091Y4449092D01*
X69336901Y4447000D01*
X70246805Y4446999D01*
X70254615Y4449091D01*
X70254937Y4450294D01*
X70254413Y4453234D01*
X70253183Y4456579D01*
X72477342Y4456579D01*
X72477399Y4448497D01*
X72480035Y4447000D01*
X73243098Y4446999D01*
X73250908Y4449091D01*
X73253000Y4456901D01*
X73506999Y4456901D01*
X73509091Y4449092D01*
X73516901Y4447000D01*
X74276805Y4446999D01*
X74284615Y4449091D01*
X74284937Y4450294D01*
X74284413Y4453234D01*
X74258151Y4524611D01*
X74254831Y4531418D01*
X74208264Y4606522D01*
X74203641Y4612526D01*
X74142931Y4676724D01*
X74137183Y4681686D01*
X74064805Y4732366D01*
X74058189Y4736064D01*
X73977090Y4771158D01*
X73969870Y4773448D01*
X73882470Y4791707D01*
X73877238Y4792386D01*
X73876722Y4792400D01*
X73516902Y4792400D01*
X73509092Y4790308D01*
X73507000Y4782498D01*
X73506999Y4456901D01*
X73253000Y4456901D01*
X73253001Y4782499D01*
X73250909Y4790308D01*
X73243099Y4792400D01*
X72907299Y4792400D01*
X72903489Y4792207D01*
X72838296Y4785585D01*
X72830875Y4784061D01*
X72746549Y4757635D01*
X72739588Y4754652D01*
X72662299Y4711811D01*
X72656077Y4707486D01*
X72588982Y4649978D01*
X72583756Y4644489D01*
X72529595Y4574667D01*
X72525582Y4568244D01*
X72486567Y4488956D01*
X72483925Y4481850D01*
X72477342Y4456579D01*
X70253183Y4456579D01*
X70228151Y4524611D01*
X70224831Y4531418D01*
X70178264Y4606522D01*
X70173641Y4612526D01*
X70112931Y4676724D01*
X70107183Y4681686D01*
X70034805Y4732366D01*
X70028189Y4736064D01*
X69947090Y4771158D01*
X69939870Y4773448D01*
X69852470Y4791707D01*
X69847238Y4792386D01*
X69846722Y4792400D01*
X69336902Y4792400D01*
X69329092Y4790308D01*
X69327000Y4782498D01*
X69326999Y4456901D01*
X69073000Y4456901D01*
X69073001Y4782499D01*
X69070909Y4790308D01*
X69063099Y4792400D01*
X68577299Y4792400D01*
X68573489Y4792207D01*
X68508296Y4785585D01*
X68500875Y4784061D01*
X68416549Y4757635D01*
X68409588Y4754652D01*
X68332299Y4711811D01*
X68326077Y4707486D01*
X68258982Y4649978D01*
X68253756Y4644489D01*
X68199595Y4574667D01*
X68195582Y4568244D01*
X68156567Y4488956D01*
X68153925Y4481850D01*
X68147342Y4456579D01*
X61965108Y4456579D01*
X61992096Y4521733D01*
X61994607Y4540800D01*
X62001757Y4595116D01*
X62002400Y4600000D01*
X61996237Y4646811D01*
X61992739Y4673386D01*
X61992738Y4673389D01*
X61992096Y4678267D01*
X61961886Y4751200D01*
X61930272Y4792400D01*
X61916827Y4809922D01*
X61913829Y4813829D01*
X61851200Y4861886D01*
X61778267Y4892096D01*
X61773389Y4892738D01*
X61773386Y4892739D01*
X61704884Y4901757D01*
X61700000Y4902400D01*
X61695116Y4901757D01*
X61626614Y4892739D01*
X61626611Y4892738D01*
X61621733Y4892096D01*
X61548800Y4861886D01*
X61486171Y4813829D01*
X61483173Y4809922D01*
X61469728Y4792400D01*
X61438114Y4751200D01*
X61407904Y4678267D01*
X61407262Y4673389D01*
X61407261Y4673386D01*
X61403763Y4646811D01*
X61397600Y4600000D01*
X53967401Y4600000D01*
X53967375Y4600049D01*
X53902205Y4683015D01*
X53822522Y4752160D01*
X53731202Y4804990D01*
X53727829Y4806161D01*
X53727823Y4806164D01*
X53666493Y4827460D01*
X53631540Y4839598D01*
X53628004Y4840111D01*
X53628003Y4840111D01*
X53559628Y4850025D01*
X53527131Y4854737D01*
X53523564Y4854572D01*
X53523562Y4854572D01*
X53425319Y4850025D01*
X53425314Y4850024D01*
X53421743Y4849859D01*
X53319179Y4825141D01*
X53315919Y4823659D01*
X53315917Y4823658D01*
X53228830Y4784061D01*
X53223140Y4781474D01*
X53220222Y4779404D01*
X53220220Y4779403D01*
X53174048Y4746651D01*
X53137090Y4720435D01*
X53064135Y4644225D01*
X53062196Y4641222D01*
X53062192Y4641217D01*
X53025198Y4583922D01*
X53006907Y4555595D01*
X53005571Y4552280D01*
X53005570Y4552278D01*
X52991428Y4517185D01*
X52967472Y4457742D01*
X52962221Y4430854D01*
X52947937Y4357709D01*
X52947251Y4354198D01*
X52947242Y4350624D01*
X52947235Y4347976D01*
X52937063Y4310402D01*
X52925209Y4294995D01*
X52210676Y3580462D01*
X52210117Y3579908D01*
X52181402Y3551788D01*
X52179129Y3548262D01*
X52179128Y3548260D01*
X52170043Y3534163D01*
X52165605Y3527987D01*
X52152516Y3511591D01*
X52150689Y3507811D01*
X52145575Y3497231D01*
X52141080Y3489221D01*
X52132442Y3475818D01*
X52126036Y3458217D01*
X52125270Y3456112D01*
X52122311Y3449107D01*
X52113181Y3430220D01*
X52112236Y3426127D01*
X52112235Y3426124D01*
X52109593Y3414678D01*
X52106987Y3405881D01*
X52104862Y3400042D01*
X52103281Y3395697D01*
X52101531Y3390890D01*
X52101004Y3386722D01*
X52101004Y3386720D01*
X52098903Y3370085D01*
X52097568Y3362591D01*
X52093833Y3346411D01*
X52092851Y3342158D01*
X52092836Y3337963D01*
X52092836Y3337960D01*
X52092781Y3322301D01*
X52092751Y3321384D01*
X52092664Y3320697D01*
X52092664Y3288710D01*
X52092535Y3251780D01*
X52092639Y3251314D01*
X52092664Y3250856D01*
X52092663Y693597D01*
X52082588Y655997D01*
X52070637Y640423D01*
X52015136Y584922D01*
X52014577Y584368D01*
X51989347Y559660D01*
X51985838Y556224D01*
X51983559Y552688D01*
X51983556Y552684D01*
X51974485Y538608D01*
X51970043Y532426D01*
X51959579Y519319D01*
X51959574Y519312D01*
X51956953Y516028D01*
X51950530Y502739D01*
X51950013Y501670D01*
X51945518Y493660D01*
X51936878Y480254D01*
X51930686Y463242D01*
X51929704Y460543D01*
X51926745Y453537D01*
X51917618Y434657D01*
X51916672Y430558D01*
X51914031Y419121D01*
X51911426Y410326D01*
X51905967Y395326D01*
X51905440Y391156D01*
X51905440Y391155D01*
X51903338Y374514D01*
X51902006Y367030D01*
X51897288Y346595D01*
X51897273Y342401D01*
X51897273Y342398D01*
X51897218Y326754D01*
X51897187Y325824D01*
X51897100Y325133D01*
X51897100Y292830D01*
X51896972Y256217D01*
X51897076Y255753D01*
X51897100Y255301D01*
X51897101Y-690212D01*
X51897101Y-1623131D01*
X51890683Y-1652081D01*
X51890862Y-1652142D01*
X51890311Y-1653762D01*
X51890056Y-1654910D01*
X51889550Y-1655994D01*
X51889548Y-1655999D01*
X51887829Y-1659686D01*
X51867313Y-1751466D01*
X51867287Y-1758888D01*
X51867033Y-1831857D01*
X51866985Y-1845512D01*
X46759364Y-1845512D01*
X46713829Y-1786171D01*
X46684636Y-1763770D01*
X46676704Y-1757684D01*
X46651200Y-1738114D01*
X46578267Y-1707904D01*
X46573389Y-1707262D01*
X46573386Y-1707261D01*
X46504884Y-1698243D01*
X46500000Y-1697600D01*
X46495116Y-1698243D01*
X46426614Y-1707261D01*
X46426611Y-1707262D01*
X46421733Y-1707904D01*
X46348800Y-1738114D01*
X46323296Y-1757684D01*
X46315365Y-1763770D01*
X46286171Y-1786171D01*
X46238114Y-1848800D01*
X46207904Y-1921733D01*
X46207262Y-1926611D01*
X46207261Y-1926614D01*
X46203510Y-1955107D01*
X46197600Y-2000000D01*
X45835400Y-2000000D01*
X45835172Y-1997898D01*
X45835070Y-1995959D01*
X45843161Y-1957883D01*
X45856993Y-1938844D01*
X46003065Y-1792773D01*
X46333160Y-1462678D01*
X46493914Y-1301925D01*
X46527625Y-1282462D01*
X46547088Y-1279900D01*
X46874662Y-1279900D01*
X46877810Y-1279966D01*
X46905986Y-1281147D01*
X46910971Y-1279978D01*
X46910978Y-1279977D01*
X46927007Y-1276217D01*
X46933972Y-1274926D01*
X46943364Y-1273639D01*
X46955354Y-1271997D01*
X46960064Y-1269959D01*
X46961461Y-1269355D01*
X46974146Y-1265160D01*
X46975624Y-1264813D01*
X46975627Y-1264812D01*
X46980614Y-1263642D01*
X46999539Y-1253239D01*
X47005862Y-1250141D01*
X47025702Y-1241555D01*
X47030868Y-1237372D01*
X47041964Y-1229916D01*
X47047785Y-1226716D01*
X47053253Y-1221995D01*
X47064924Y-1210324D01*
X47070773Y-1205057D01*
X47085272Y-1193316D01*
X47089823Y-1186913D01*
X47097942Y-1177306D01*
X47940442Y-334807D01*
X47974153Y-315343D01*
X47998075Y-312913D01*
X48004705Y-313307D01*
X48017207Y-314050D01*
X48017210Y-314050D01*
X48021269Y-314291D01*
X48114157Y-299579D01*
X48117946Y-298094D01*
X48117950Y-298093D01*
X48159808Y-281689D01*
X48201719Y-265264D01*
X48205106Y-262996D01*
X48205109Y-262995D01*
X48276484Y-215214D01*
X48276486Y-215213D01*
X48279870Y-212947D01*
X48344963Y-145068D01*
X48350619Y-135803D01*
X48366416Y-109922D01*
X48393962Y-64795D01*
X48424580Y24127D01*
X48435389Y117549D01*
X48435400Y120589D01*
X48434746Y126614D01*
X48426773Y200000D01*
X48425243Y214085D01*
X48415019Y244466D01*
X48396545Y299360D01*
X48396543Y299365D01*
X48395246Y303218D01*
X48391064Y310179D01*
X48348904Y380344D01*
X48346809Y383831D01*
X48309318Y423477D01*
X48284985Y449209D01*
X48284982Y449211D01*
X48282191Y452163D01*
X48204408Y505024D01*
X48117088Y539950D01*
X48024305Y555310D01*
X48020238Y555097D01*
X48020235Y555097D01*
X47974198Y552684D01*
X47930388Y550388D01*
X47926461Y549306D01*
X47926459Y549306D01*
X47865176Y532426D01*
X47839719Y525414D01*
X47756527Y481552D01*
X47744303Y471222D01*
X47687805Y423477D01*
X47687802Y423474D01*
X47684696Y420849D01*
X47682225Y417617D01*
X47682224Y417616D01*
X47672669Y405118D01*
X47627574Y346138D01*
X47625853Y342447D01*
X47589548Y264591D01*
X47589546Y264585D01*
X47587829Y260903D01*
X47586942Y256935D01*
X47586941Y256932D01*
X47584155Y244466D01*
X47567313Y169123D01*
X47567237Y147295D01*
X47567122Y114435D01*
X47556915Y76871D01*
X47545096Y61524D01*
X47530131Y46559D01*
X47496420Y27095D01*
X47457494Y27095D01*
X47423783Y46559D01*
X47404319Y80270D01*
X47402061Y97424D01*
X47402400Y100000D01*
X47399962Y118517D01*
X47392739Y173386D01*
X47392738Y173389D01*
X47392096Y178267D01*
X47361886Y251200D01*
X47327813Y295605D01*
X47316827Y309922D01*
X47313829Y313829D01*
X47251200Y361886D01*
X47178267Y392096D01*
X47173389Y392738D01*
X47173386Y392739D01*
X47104884Y401757D01*
X47100000Y402400D01*
X47095116Y401757D01*
X47026614Y392739D01*
X47026611Y392738D01*
X47021733Y392096D01*
X46948800Y361886D01*
X46886171Y313829D01*
X46883173Y309922D01*
X46855465Y273812D01*
X46824583Y250115D01*
X46785990Y245034D01*
X46750026Y259931D01*
X46726329Y290813D01*
X46724533Y295605D01*
X46695246Y382629D01*
X46689172Y392739D01*
X46653466Y452163D01*
X46646809Y463242D01*
X46605869Y506535D01*
X46584985Y528620D01*
X46584982Y528622D01*
X46582191Y531574D01*
X46572093Y538437D01*
X46536150Y562863D01*
X46504408Y584435D01*
X46417088Y619361D01*
X46324305Y634721D01*
X46320238Y634508D01*
X46320235Y634508D01*
X46273248Y632045D01*
X46230388Y629799D01*
X46226461Y628717D01*
X46226459Y628717D01*
X46192492Y619361D01*
X46139719Y604825D01*
X46056527Y560963D01*
X46034362Y542232D01*
X45987805Y502888D01*
X45987802Y502885D01*
X45984696Y500260D01*
X45982225Y497028D01*
X45982224Y497027D01*
X45976993Y490185D01*
X45927574Y425549D01*
X45925853Y421858D01*
X45889548Y344002D01*
X45889546Y343996D01*
X45887829Y340314D01*
X45886942Y336346D01*
X45886941Y336343D01*
X45880054Y305534D01*
X45867313Y248534D01*
X45867299Y244466D01*
X45867122Y193845D01*
X45856915Y156281D01*
X45845096Y140934D01*
X44405453Y-1298710D01*
X44403180Y-1300890D01*
X44382408Y-1319991D01*
X44378302Y-1326614D01*
X44371036Y-1338333D01*
X44367023Y-1344171D01*
X44357073Y-1357280D01*
X44357071Y-1357284D01*
X44353970Y-1361369D01*
X44352084Y-1366134D01*
X44352083Y-1366135D01*
X44351522Y-1367553D01*
X44345518Y-1379490D01*
X44342016Y-1385138D01*
X44340587Y-1390056D01*
X44340583Y-1390065D01*
X44335990Y-1405874D01*
X44333703Y-1412557D01*
X44325752Y-1432639D01*
X44325216Y-1437740D01*
X44325058Y-1439242D01*
X44322484Y-1452365D01*
X44320630Y-1458746D01*
X44320101Y-1465951D01*
X44320101Y-1482466D01*
X44319689Y-1490326D01*
X44317740Y-1508870D01*
X44318595Y-1513924D01*
X44319048Y-1516602D01*
X44320101Y-1529144D01*
X44320100Y-2234914D01*
X44310025Y-2272514D01*
X44293441Y-2292349D01*
X44284696Y-2299740D01*
X44227574Y-2374451D01*
X44225853Y-2378142D01*
X44189548Y-2455998D01*
X44189546Y-2456004D01*
X44187829Y-2459686D01*
X44186942Y-2463654D01*
X44186941Y-2463657D01*
X44180394Y-2492946D01*
X44167313Y-2551466D01*
X44166985Y-2645512D01*
X41802886Y-2645512D01*
X41724926Y-2567553D01*
X41705462Y-2533841D01*
X41702900Y-2514378D01*
X41702900Y2000000D01*
X45397600Y2000000D01*
X45398243Y1995116D01*
X45407186Y1927188D01*
X45407904Y1921733D01*
X45438114Y1848800D01*
X45486171Y1786171D01*
X45548800Y1738114D01*
X45621733Y1707904D01*
X45626611Y1707262D01*
X45626614Y1707261D01*
X45695116Y1698243D01*
X45700000Y1697600D01*
X45704884Y1698243D01*
X45773386Y1707261D01*
X45773389Y1707262D01*
X45778267Y1707904D01*
X45851200Y1738114D01*
X45913829Y1786171D01*
X45961886Y1848800D01*
X45992096Y1921733D01*
X45992815Y1927188D01*
X46001757Y1995116D01*
X46002400Y2000000D01*
X45996988Y2041112D01*
X45992739Y2073386D01*
X45992738Y2073389D01*
X45992096Y2078267D01*
X45961886Y2151200D01*
X45913829Y2213829D01*
X45884636Y2236230D01*
X45855107Y2258888D01*
X45851200Y2261886D01*
X45778267Y2292096D01*
X45773389Y2292738D01*
X45773386Y2292739D01*
X45704884Y2301757D01*
X45700000Y2302400D01*
X45695116Y2301757D01*
X45626614Y2292739D01*
X45626611Y2292738D01*
X45621733Y2292096D01*
X45548800Y2261886D01*
X45544893Y2258888D01*
X45515365Y2236230D01*
X45486171Y2213829D01*
X45438114Y2151200D01*
X45407904Y2078267D01*
X45407262Y2073389D01*
X45407261Y2073386D01*
X45403012Y2041112D01*
X45397600Y2000000D01*
X41702900Y2000000D01*
X41702900Y2800000D01*
X43897600Y2800000D01*
X43898243Y2795116D01*
X43905353Y2741112D01*
X43907904Y2721733D01*
X43938114Y2648800D01*
X43986171Y2586171D01*
X43990078Y2583173D01*
X44017486Y2562142D01*
X44048800Y2538114D01*
X44121733Y2507904D01*
X44126611Y2507262D01*
X44126614Y2507261D01*
X44195116Y2498243D01*
X44200000Y2497600D01*
X44204884Y2498243D01*
X44218230Y2500000D01*
X44797600Y2500000D01*
X44798243Y2495116D01*
X44806308Y2433859D01*
X44807904Y2421733D01*
X44838114Y2348800D01*
X44886171Y2286171D01*
X44890078Y2283173D01*
X44917486Y2262142D01*
X44948800Y2238114D01*
X45021733Y2207904D01*
X45026611Y2207262D01*
X45026614Y2207261D01*
X45095116Y2198243D01*
X45100000Y2197600D01*
X45104884Y2198243D01*
X45173386Y2207261D01*
X45173389Y2207262D01*
X45178267Y2207904D01*
X45251200Y2238114D01*
X45282514Y2262142D01*
X45309922Y2283173D01*
X45313829Y2286171D01*
X45361886Y2348800D01*
X45392096Y2421733D01*
X45393693Y2433859D01*
X45401757Y2495116D01*
X45402400Y2500000D01*
X45397382Y2538114D01*
X45392739Y2573386D01*
X45392738Y2573389D01*
X45392096Y2578267D01*
X45361886Y2651200D01*
X45313829Y2713829D01*
X45284636Y2736230D01*
X45255107Y2758888D01*
X45251200Y2761886D01*
X45178267Y2792096D01*
X45173389Y2792738D01*
X45173386Y2792739D01*
X45104884Y2801757D01*
X45100000Y2802400D01*
X45095116Y2801757D01*
X45026614Y2792739D01*
X45026611Y2792738D01*
X45021733Y2792096D01*
X44948800Y2761886D01*
X44944893Y2758888D01*
X44915365Y2736230D01*
X44886171Y2713829D01*
X44838114Y2651200D01*
X44807904Y2578267D01*
X44807262Y2573389D01*
X44807261Y2573386D01*
X44802618Y2538114D01*
X44797600Y2500000D01*
X44218230Y2500000D01*
X44273386Y2507261D01*
X44273389Y2507262D01*
X44278267Y2507904D01*
X44351200Y2538114D01*
X44382515Y2562143D01*
X44409922Y2583173D01*
X44413829Y2586171D01*
X44461886Y2648800D01*
X44492096Y2721733D01*
X44494648Y2741112D01*
X44501757Y2795116D01*
X44502400Y2800000D01*
X44501215Y2808998D01*
X44492739Y2873386D01*
X44492738Y2873389D01*
X44492096Y2878267D01*
X44461886Y2951200D01*
X44413829Y3013829D01*
X44351200Y3061886D01*
X44278267Y3092096D01*
X44273389Y3092738D01*
X44273386Y3092739D01*
X44204884Y3101757D01*
X44200000Y3102400D01*
X44195116Y3101757D01*
X44126614Y3092739D01*
X44126611Y3092738D01*
X44121733Y3092096D01*
X44048800Y3061886D01*
X43986171Y3013829D01*
X43938114Y2951200D01*
X43907904Y2878267D01*
X43907262Y2873389D01*
X43907261Y2873386D01*
X43898785Y2808998D01*
X43897600Y2800000D01*
X41702900Y2800000D01*
X41702900Y3492590D01*
X43454056Y3492590D01*
X43454699Y3487706D01*
X43462875Y3425606D01*
X43464360Y3414323D01*
X43494570Y3341390D01*
X43542627Y3278761D01*
X43605256Y3230704D01*
X43678189Y3200494D01*
X43683067Y3199852D01*
X43683070Y3199851D01*
X43751572Y3190833D01*
X43756456Y3190190D01*
X43761340Y3190833D01*
X43829842Y3199851D01*
X43829845Y3199852D01*
X43834723Y3200494D01*
X43907656Y3230704D01*
X43970285Y3278761D01*
X44018342Y3341390D01*
X44048552Y3414323D01*
X44050038Y3425606D01*
X44058213Y3487706D01*
X44058856Y3492590D01*
X44057878Y3500016D01*
X44049195Y3565976D01*
X44049194Y3565979D01*
X44048552Y3570857D01*
X44018342Y3643790D01*
X43983685Y3688956D01*
X43973283Y3702512D01*
X43970285Y3706419D01*
X43956255Y3717185D01*
X43911563Y3751478D01*
X43911560Y3751480D01*
X43907656Y3754476D01*
X43834723Y3784686D01*
X43829845Y3785328D01*
X43829842Y3785329D01*
X43761340Y3794347D01*
X43756456Y3794990D01*
X43751572Y3794347D01*
X43683070Y3785329D01*
X43683067Y3785328D01*
X43678189Y3784686D01*
X43605256Y3754476D01*
X43601352Y3751480D01*
X43601349Y3751478D01*
X43556658Y3717185D01*
X43542627Y3706419D01*
X43539629Y3702512D01*
X43529227Y3688956D01*
X43494570Y3643790D01*
X43464360Y3570857D01*
X43463718Y3565979D01*
X43463717Y3565976D01*
X43455034Y3500016D01*
X43454056Y3492590D01*
X41702900Y3492590D01*
X41702900Y3892068D01*
X41712975Y3929668D01*
X41719207Y3938830D01*
X41763574Y3994706D01*
X41765798Y3997507D01*
X41814594Y4091045D01*
X41844822Y4192122D01*
X41851602Y4259457D01*
X42626796Y4259457D01*
X42646132Y4174689D01*
X42648059Y4170765D01*
X42648059Y4170764D01*
X42680405Y4104884D01*
X42684451Y4096643D01*
X42687224Y4093273D01*
X42687226Y4093270D01*
X42701181Y4076312D01*
X42739697Y4029505D01*
X42743178Y4026858D01*
X42743180Y4026856D01*
X42756369Y4016827D01*
X42808906Y3976877D01*
X42888365Y3941583D01*
X42931089Y3933548D01*
X42969521Y3926321D01*
X42969522Y3926321D01*
X42973813Y3925514D01*
X42993240Y3926413D01*
X43056307Y3929332D01*
X43056309Y3929332D01*
X43060666Y3929534D01*
X43064860Y3930733D01*
X43064862Y3930733D01*
X43100000Y3940776D01*
X43144264Y3953427D01*
X43190861Y3979522D01*
X43216309Y3993773D01*
X43216312Y3993775D01*
X43220124Y3995910D01*
X43284176Y4054706D01*
X43322022Y4110500D01*
X43330530Y4123042D01*
X43330531Y4123043D01*
X43332984Y4126660D01*
X43342271Y4151044D01*
X43362375Y4203828D01*
X43362376Y4203832D01*
X43363930Y4207912D01*
X43375354Y4294103D01*
X43375400Y4300000D01*
X43374554Y4307261D01*
X43365837Y4382021D01*
X43365331Y4386361D01*
X43363250Y4392096D01*
X43346188Y4439099D01*
X43335666Y4468089D01*
X43287994Y4540800D01*
X43259024Y4568244D01*
X43228041Y4597594D01*
X43224873Y4600595D01*
X43180990Y4626084D01*
X43153466Y4642071D01*
X43153464Y4642072D01*
X43149690Y4644264D01*
X43145511Y4645530D01*
X43145508Y4645531D01*
X43070661Y4668200D01*
X43070662Y4668200D01*
X43066478Y4669467D01*
X43020539Y4672317D01*
X42984058Y4674581D01*
X42984054Y4674581D01*
X42979699Y4674851D01*
X42894009Y4660126D01*
X42889993Y4658417D01*
X42889989Y4658416D01*
X42818028Y4627796D01*
X42814005Y4626084D01*
X42743978Y4574550D01*
X42741153Y4571224D01*
X42741149Y4571221D01*
X42701551Y4524611D01*
X42687684Y4508289D01*
X42648144Y4430854D01*
X42627479Y4346400D01*
X42626796Y4259457D01*
X41851602Y4259457D01*
X41855392Y4297092D01*
X41855400Y4300000D01*
X41855179Y4302317D01*
X41845720Y4401465D01*
X41845719Y4401470D01*
X41845380Y4405024D01*
X41815681Y4506258D01*
X41767375Y4600049D01*
X41702205Y4683015D01*
X41622522Y4752160D01*
X41531202Y4804990D01*
X41527829Y4806161D01*
X41527823Y4806164D01*
X41466493Y4827460D01*
X41431540Y4839598D01*
X41428004Y4840111D01*
X41428003Y4840111D01*
X41359628Y4850025D01*
X41327131Y4854737D01*
X41323564Y4854572D01*
X41323562Y4854572D01*
X41225319Y4850025D01*
X41225314Y4850024D01*
X41221743Y4849859D01*
X41119179Y4825141D01*
X41115919Y4823659D01*
X41115917Y4823658D01*
X41028830Y4784061D01*
X41023140Y4781474D01*
X41020222Y4779404D01*
X41020220Y4779403D01*
X40974048Y4746651D01*
X40937090Y4720435D01*
X40864135Y4644225D01*
X40862196Y4641222D01*
X40862192Y4641217D01*
X40825198Y4583922D01*
X40806907Y4555595D01*
X40805571Y4552280D01*
X40805570Y4552278D01*
X40791428Y4517185D01*
X40767472Y4457742D01*
X40747251Y4354198D01*
X40747242Y4350624D01*
X40747242Y4350622D01*
X40746992Y4255107D01*
X40746975Y4248697D01*
X40757946Y4190909D01*
X40764166Y4158150D01*
X40766653Y4145048D01*
X40805576Y4046990D01*
X40807501Y4043975D01*
X40807501Y4043974D01*
X40851462Y3975103D01*
X40862339Y3958062D01*
X40864800Y3955464D01*
X40876495Y3943118D01*
X40895039Y3908892D01*
X40897101Y3891402D01*
X40897100Y589059D01*
X40897100Y-2712469D01*
X40897096Y-2713256D01*
X40896676Y-2753380D01*
X40897564Y-2757486D01*
X40897564Y-2757489D01*
X40901107Y-2773878D01*
X40902336Y-2781385D01*
X40904674Y-2802228D01*
X40906056Y-2806197D01*
X40906058Y-2806205D01*
X40909921Y-2817296D01*
X40912407Y-2826140D01*
X40914696Y-2836726D01*
X40915775Y-2841719D01*
X40917550Y-2845525D01*
X40917552Y-2845532D01*
X40924636Y-2860724D01*
X40927497Y-2867770D01*
X40933012Y-2883605D01*
X40933014Y-2883610D01*
X40934397Y-2887580D01*
X40936626Y-2891147D01*
X40942850Y-2901108D01*
X40947231Y-2909177D01*
X40952193Y-2919819D01*
X40952196Y-2919825D01*
X40953506Y-2922633D01*
X40953971Y-2923631D01*
X40953820Y-2923701D01*
X40962261Y-2952380D01*
X40968496Y-2954054D01*
X40984224Y-2966172D01*
X40996306Y-2978339D01*
X40996906Y-2978980D01*
X40997335Y-2979533D01*
X41019643Y-3001841D01*
X41019779Y-3002077D01*
X41019829Y-3002027D01*
X41045975Y-3028357D01*
X41046381Y-3028614D01*
X41046727Y-3028925D01*
X41481104Y-3463304D01*
X41496302Y-3485171D01*
X41496400Y-3485384D01*
X41498649Y-3490296D01*
X41505140Y-3528677D01*
X41491571Y-3565162D01*
X41461578Y-3589975D01*
X41430274Y-3596800D01*
X40796885Y-3596800D01*
X40759285Y-3586725D01*
X40731760Y-3559200D01*
X40721685Y-3521600D01*
X40731760Y-3484000D01*
X40752380Y-3463424D01*
X40751200Y-3461886D01*
X40809922Y-3416827D01*
X40813829Y-3413829D01*
X40820770Y-3404784D01*
X40846123Y-3371743D01*
X40861886Y-3351200D01*
X40892096Y-3278267D01*
X40893209Y-3269819D01*
X40901757Y-3204884D01*
X40902400Y-3200000D01*
X40899043Y-3174498D01*
X40892739Y-3126614D01*
X40892738Y-3126611D01*
X40892096Y-3121733D01*
X40861886Y-3048800D01*
X40863431Y-3048160D01*
X40857978Y-3027772D01*
X40852943Y-3026554D01*
X40829282Y-3006310D01*
X40813829Y-2986171D01*
X40751200Y-2938114D01*
X40678267Y-2907904D01*
X40673389Y-2907262D01*
X40673386Y-2907261D01*
X40604884Y-2898243D01*
X40600000Y-2897600D01*
X40595116Y-2898243D01*
X40526614Y-2907261D01*
X40526611Y-2907262D01*
X40521733Y-2907904D01*
X40448800Y-2938114D01*
X40386171Y-2986171D01*
X40338114Y-3048800D01*
X40307904Y-3121733D01*
X40307262Y-3126611D01*
X40307261Y-3126614D01*
X40300957Y-3174498D01*
X40297600Y-3200000D01*
X40298243Y-3204884D01*
X40306792Y-3269819D01*
X40307904Y-3278267D01*
X40338114Y-3351200D01*
X40353877Y-3371743D01*
X40379231Y-3404784D01*
X40386171Y-3413829D01*
X40390078Y-3416827D01*
X40448800Y-3461886D01*
X40447626Y-3463416D01*
X40468159Y-3483859D01*
X40478315Y-3521437D01*
X40468321Y-3559059D01*
X40440856Y-3586644D01*
X40403115Y-3596800D01*
X32496885Y-3596800D01*
X32459285Y-3586725D01*
X32431760Y-3559200D01*
X32421685Y-3521600D01*
X32431760Y-3484000D01*
X32452380Y-3463424D01*
X32451200Y-3461886D01*
X32509922Y-3416827D01*
X32513829Y-3413829D01*
X32520770Y-3404784D01*
X32546123Y-3371743D01*
X32561886Y-3351200D01*
X32592096Y-3278267D01*
X32593209Y-3269819D01*
X32601757Y-3204884D01*
X32602400Y-3200000D01*
X32599043Y-3174498D01*
X32592739Y-3126614D01*
X32592738Y-3126611D01*
X32592096Y-3121733D01*
X32561886Y-3048800D01*
X32513829Y-2986171D01*
X32451200Y-2938114D01*
X32378267Y-2907904D01*
X32373389Y-2907262D01*
X32373386Y-2907261D01*
X32304884Y-2898243D01*
X32300000Y-2897600D01*
X32295116Y-2898243D01*
X32226614Y-2907261D01*
X32226611Y-2907262D01*
X32221733Y-2907904D01*
X32148800Y-2938114D01*
X32086171Y-2986171D01*
X32038114Y-3048800D01*
X32007904Y-3121733D01*
X32007262Y-3126611D01*
X32007261Y-3126614D01*
X32000957Y-3174498D01*
X31997600Y-3200000D01*
X31998243Y-3204884D01*
X32006792Y-3269819D01*
X32007904Y-3278267D01*
X32038114Y-3351200D01*
X32053877Y-3371743D01*
X32079231Y-3404784D01*
X32086171Y-3413829D01*
X32090078Y-3416827D01*
X32148800Y-3461886D01*
X32147626Y-3463416D01*
X32168159Y-3483859D01*
X32178315Y-3521437D01*
X32168321Y-3559059D01*
X32140856Y-3586644D01*
X32103115Y-3596800D01*
X25015316Y-3596800D01*
X24977716Y-3586725D01*
X24962142Y-3574774D01*
X24525226Y-3137858D01*
X24505762Y-3104147D01*
X24503200Y-3084684D01*
X24503200Y-2600000D01*
X38897600Y-2600000D01*
X38898243Y-2604884D01*
X38907082Y-2672020D01*
X38907904Y-2678267D01*
X38938114Y-2751200D01*
X38986171Y-2813829D01*
X39048800Y-2861886D01*
X39121733Y-2892096D01*
X39126611Y-2892738D01*
X39126614Y-2892739D01*
X39195116Y-2901757D01*
X39200000Y-2902400D01*
X39204884Y-2901757D01*
X39273386Y-2892739D01*
X39273389Y-2892738D01*
X39278267Y-2892096D01*
X39351200Y-2861886D01*
X39413829Y-2813829D01*
X39461886Y-2751200D01*
X39492096Y-2678267D01*
X39492919Y-2672020D01*
X39499780Y-2619899D01*
X39715275Y-2619899D01*
X39715918Y-2624783D01*
X39722317Y-2673386D01*
X39725579Y-2698166D01*
X39755789Y-2771099D01*
X39758787Y-2775006D01*
X39798024Y-2826140D01*
X39803846Y-2833728D01*
X39866475Y-2881785D01*
X39939408Y-2911995D01*
X39944286Y-2912637D01*
X39944289Y-2912638D01*
X40012791Y-2921656D01*
X40017675Y-2922299D01*
X40022559Y-2921656D01*
X40091061Y-2912638D01*
X40091064Y-2912637D01*
X40095942Y-2911995D01*
X40168875Y-2881785D01*
X40231504Y-2833728D01*
X40237327Y-2826140D01*
X40276563Y-2775006D01*
X40279561Y-2771099D01*
X40309771Y-2698166D01*
X40313034Y-2673386D01*
X40319432Y-2624783D01*
X40320075Y-2619899D01*
X40318098Y-2604884D01*
X40310414Y-2546513D01*
X40310413Y-2546510D01*
X40309771Y-2541632D01*
X40279561Y-2468699D01*
X40231504Y-2406070D01*
X40168875Y-2358013D01*
X40095942Y-2327803D01*
X40091064Y-2327161D01*
X40091061Y-2327160D01*
X40022559Y-2318142D01*
X40017675Y-2317499D01*
X40012791Y-2318142D01*
X39944289Y-2327160D01*
X39944286Y-2327161D01*
X39939408Y-2327803D01*
X39866475Y-2358013D01*
X39803846Y-2406070D01*
X39755789Y-2468699D01*
X39725579Y-2541632D01*
X39724937Y-2546510D01*
X39724936Y-2546513D01*
X39717252Y-2604884D01*
X39715275Y-2619899D01*
X39499780Y-2619899D01*
X39501757Y-2604884D01*
X39502400Y-2600000D01*
X39497088Y-2559652D01*
X39492739Y-2526614D01*
X39492738Y-2526611D01*
X39492096Y-2521733D01*
X39461886Y-2448800D01*
X39413829Y-2386171D01*
X39351200Y-2338114D01*
X39278267Y-2307904D01*
X39273389Y-2307262D01*
X39273386Y-2307261D01*
X39204884Y-2298243D01*
X39200000Y-2297600D01*
X39195116Y-2298243D01*
X39126614Y-2307261D01*
X39126611Y-2307262D01*
X39121733Y-2307904D01*
X39048800Y-2338114D01*
X38986171Y-2386171D01*
X38938114Y-2448800D01*
X38907904Y-2521733D01*
X38907262Y-2526611D01*
X38907261Y-2526614D01*
X38902912Y-2559652D01*
X38897600Y-2600000D01*
X24503200Y-2600000D01*
X24503200Y-2200000D01*
X26197600Y-2200000D01*
X26198243Y-2204884D01*
X26207147Y-2272514D01*
X26207904Y-2278267D01*
X26238114Y-2351200D01*
X26286171Y-2413829D01*
X26290078Y-2416827D01*
X26303745Y-2427314D01*
X26348800Y-2461886D01*
X26421733Y-2492096D01*
X26426611Y-2492738D01*
X26426614Y-2492739D01*
X26495116Y-2501757D01*
X26500000Y-2502400D01*
X26504884Y-2501757D01*
X26573386Y-2492739D01*
X26573389Y-2492738D01*
X26578267Y-2492096D01*
X26651200Y-2461886D01*
X26696255Y-2427314D01*
X26709922Y-2416827D01*
X26713829Y-2413829D01*
X26761886Y-2351200D01*
X26792096Y-2278267D01*
X26792854Y-2272514D01*
X26801757Y-2204884D01*
X26802400Y-2200000D01*
X26799969Y-2181533D01*
X26792739Y-2126614D01*
X26792738Y-2126611D01*
X26792096Y-2121733D01*
X26761886Y-2048800D01*
X26724441Y-2000000D01*
X38297600Y-2000000D01*
X38298243Y-2004884D01*
X38306631Y-2068595D01*
X38307904Y-2078267D01*
X38338114Y-2151200D01*
X38386171Y-2213829D01*
X38390078Y-2216827D01*
X38394432Y-2220168D01*
X38448800Y-2261886D01*
X38521733Y-2292096D01*
X38526611Y-2292738D01*
X38526614Y-2292739D01*
X38595116Y-2301757D01*
X38600000Y-2302400D01*
X38604884Y-2301757D01*
X38673386Y-2292739D01*
X38673389Y-2292738D01*
X38678267Y-2292096D01*
X38751200Y-2261886D01*
X38805568Y-2220168D01*
X38809922Y-2216827D01*
X38813829Y-2213829D01*
X38861886Y-2151200D01*
X38892096Y-2078267D01*
X38893370Y-2068595D01*
X38901757Y-2004884D01*
X38902400Y-2000000D01*
X38896490Y-1955107D01*
X38892739Y-1926614D01*
X38892738Y-1926611D01*
X38892096Y-1921733D01*
X38861886Y-1848800D01*
X38813829Y-1786171D01*
X38784636Y-1763770D01*
X38776704Y-1757684D01*
X38751200Y-1738114D01*
X38678267Y-1707904D01*
X38673389Y-1707262D01*
X38673386Y-1707261D01*
X38604884Y-1698243D01*
X38600000Y-1697600D01*
X38595116Y-1698243D01*
X38526614Y-1707261D01*
X38526611Y-1707262D01*
X38521733Y-1707904D01*
X38448800Y-1738114D01*
X38423296Y-1757684D01*
X38415365Y-1763770D01*
X38386171Y-1786171D01*
X38338114Y-1848800D01*
X38307904Y-1921733D01*
X38307262Y-1926611D01*
X38307261Y-1926614D01*
X38303510Y-1955107D01*
X38297600Y-2000000D01*
X26724441Y-2000000D01*
X26713829Y-1986171D01*
X26651200Y-1938114D01*
X26578267Y-1907904D01*
X26573389Y-1907262D01*
X26573386Y-1907261D01*
X26504884Y-1898243D01*
X26500000Y-1897600D01*
X26495116Y-1898243D01*
X26426614Y-1907261D01*
X26426611Y-1907262D01*
X26421733Y-1907904D01*
X26348800Y-1938114D01*
X26286171Y-1986171D01*
X26238114Y-2048800D01*
X26207904Y-2121733D01*
X26207262Y-2126611D01*
X26207261Y-2126614D01*
X26200031Y-2181533D01*
X26197600Y-2200000D01*
X24503200Y-2200000D01*
X24503200Y-1897656D01*
X24513275Y-1860056D01*
X24519679Y-1850679D01*
X24520630Y-1849491D01*
X24558672Y-1801938D01*
X24610013Y-1737762D01*
X24610015Y-1737760D01*
X24610787Y-1736796D01*
X24625778Y-1718056D01*
X24632788Y-1709293D01*
X24642910Y-1695486D01*
X24644390Y-1693278D01*
X24649529Y-1685611D01*
X24649542Y-1685591D01*
X24649962Y-1684964D01*
X24658892Y-1670342D01*
X24665879Y-1657736D01*
X24667848Y-1653349D01*
X24679241Y-1627955D01*
X24679897Y-1626493D01*
X24681077Y-1623131D01*
X24684252Y-1614078D01*
X24688257Y-1602662D01*
X24688774Y-1600664D01*
X24696435Y-1571035D01*
X24696437Y-1571028D01*
X24696829Y-1569510D01*
X24697550Y-1565279D01*
X24699119Y-1556062D01*
X24699249Y-1555299D01*
X24701411Y-1538301D01*
X24702478Y-1525677D01*
X24702974Y-1513924D01*
X24703167Y-1509351D01*
X24703167Y-1509340D01*
X24703200Y-1508563D01*
X24703200Y-1400000D01*
X36597600Y-1400000D01*
X36598243Y-1404884D01*
X36606463Y-1467318D01*
X36607904Y-1478267D01*
X36638114Y-1551200D01*
X36686171Y-1613829D01*
X36748800Y-1661886D01*
X36821733Y-1692096D01*
X36826611Y-1692738D01*
X36826614Y-1692739D01*
X36895116Y-1701757D01*
X36900000Y-1702400D01*
X36904884Y-1701757D01*
X36973386Y-1692739D01*
X36973389Y-1692738D01*
X36978267Y-1692096D01*
X37051200Y-1661886D01*
X37113829Y-1613829D01*
X37161886Y-1551200D01*
X37192096Y-1478267D01*
X37193538Y-1467318D01*
X37201757Y-1404884D01*
X37202400Y-1400000D01*
X37196776Y-1357280D01*
X37192739Y-1326614D01*
X37192738Y-1326611D01*
X37192096Y-1321733D01*
X37161886Y-1248800D01*
X37113829Y-1186171D01*
X37051200Y-1138114D01*
X36978267Y-1107904D01*
X36973389Y-1107262D01*
X36973386Y-1107261D01*
X36904884Y-1098243D01*
X36900000Y-1097600D01*
X36895116Y-1098243D01*
X36826614Y-1107261D01*
X36826611Y-1107262D01*
X36821733Y-1107904D01*
X36748800Y-1138114D01*
X36686171Y-1186171D01*
X36638114Y-1248800D01*
X36607904Y-1321733D01*
X36607262Y-1326611D01*
X36607261Y-1326614D01*
X36603224Y-1357280D01*
X36597600Y-1400000D01*
X24703200Y-1400000D01*
X24703200Y-400000D01*
X27597600Y-400000D01*
X27607904Y-478267D01*
X27638114Y-551200D01*
X27686171Y-613829D01*
X27748800Y-661886D01*
X27821733Y-692096D01*
X27826611Y-692738D01*
X27826614Y-692739D01*
X27895116Y-701757D01*
X27900000Y-702400D01*
X27904884Y-701757D01*
X27973386Y-692739D01*
X27973389Y-692738D01*
X27978267Y-692096D01*
X28051200Y-661886D01*
X28113829Y-613829D01*
X28161886Y-551200D01*
X28192096Y-478267D01*
X28202400Y-400000D01*
X37897600Y-400000D01*
X37907904Y-478267D01*
X37938114Y-551200D01*
X37986171Y-613829D01*
X38048800Y-661886D01*
X38121733Y-692096D01*
X38126611Y-692738D01*
X38126614Y-692739D01*
X38195116Y-701757D01*
X38200000Y-702400D01*
X38204884Y-701757D01*
X38273386Y-692739D01*
X38273389Y-692738D01*
X38278267Y-692096D01*
X38351200Y-661886D01*
X38413829Y-613829D01*
X38461886Y-551200D01*
X38492096Y-478267D01*
X38502400Y-400000D01*
X38496279Y-353503D01*
X38492739Y-326614D01*
X38492738Y-326611D01*
X38492096Y-321733D01*
X38461886Y-248800D01*
X38429699Y-206853D01*
X38416827Y-190078D01*
X38413829Y-186171D01*
X38384636Y-163770D01*
X38355107Y-141112D01*
X38351200Y-138114D01*
X38278267Y-107904D01*
X38273389Y-107262D01*
X38273386Y-107261D01*
X38204884Y-98243D01*
X38200000Y-97600D01*
X38195116Y-98243D01*
X38126614Y-107261D01*
X38126611Y-107262D01*
X38121733Y-107904D01*
X38048800Y-138114D01*
X38044893Y-141112D01*
X38015365Y-163770D01*
X37986171Y-186171D01*
X37983173Y-190078D01*
X37970301Y-206853D01*
X37938114Y-248800D01*
X37907904Y-321733D01*
X37907262Y-326611D01*
X37907261Y-326614D01*
X37903721Y-353503D01*
X37897600Y-400000D01*
X28202400Y-400000D01*
X28196279Y-353503D01*
X28192739Y-326614D01*
X28192738Y-326611D01*
X28192096Y-321733D01*
X28161886Y-248800D01*
X28129699Y-206853D01*
X28116827Y-190078D01*
X28113829Y-186171D01*
X28084636Y-163770D01*
X28055107Y-141112D01*
X28051200Y-138114D01*
X27978267Y-107904D01*
X27973389Y-107262D01*
X27973386Y-107261D01*
X27904884Y-98243D01*
X27900000Y-97600D01*
X27895116Y-98243D01*
X27826614Y-107261D01*
X27826611Y-107262D01*
X27821733Y-107904D01*
X27748800Y-138114D01*
X27744893Y-141112D01*
X27715365Y-163770D01*
X27686171Y-186171D01*
X27683173Y-190078D01*
X27670301Y-206853D01*
X27638114Y-248800D01*
X27607904Y-321733D01*
X27607262Y-326611D01*
X27607261Y-326614D01*
X27603721Y-353503D01*
X27597600Y-400000D01*
X24703200Y-400000D01*
X24703200Y1042593D01*
X24702743Y1051903D01*
X24702267Y1061575D01*
X24702221Y1062511D01*
X24700776Y1077182D01*
X24698565Y1092096D01*
X24697989Y1095977D01*
X24697987Y1095986D01*
X24697851Y1096906D01*
X24697236Y1100000D01*
X38197600Y1100000D01*
X38198243Y1095116D01*
X38205158Y1042593D01*
X38207904Y1021733D01*
X38238114Y948800D01*
X38286171Y886171D01*
X38348800Y838114D01*
X38421733Y807904D01*
X38426611Y807262D01*
X38426614Y807261D01*
X38495116Y798243D01*
X38500000Y797600D01*
X38504884Y798243D01*
X38573386Y807261D01*
X38573389Y807262D01*
X38578267Y807904D01*
X38651200Y838114D01*
X38713829Y886171D01*
X38761886Y948800D01*
X38792096Y1021733D01*
X38794843Y1042593D01*
X38801757Y1095116D01*
X38802400Y1100000D01*
X38801108Y1109815D01*
X38792739Y1173386D01*
X38792738Y1173389D01*
X38792096Y1178267D01*
X38761886Y1251200D01*
X38734345Y1287092D01*
X38716827Y1309922D01*
X38713829Y1313829D01*
X38684636Y1336230D01*
X38651200Y1361886D01*
X38651723Y1362568D01*
X38628285Y1386005D01*
X38618209Y1423605D01*
X38628283Y1461205D01*
X38655807Y1488731D01*
X38683593Y1498164D01*
X38752693Y1507261D01*
X38752696Y1507262D01*
X38757574Y1507904D01*
X38830507Y1538114D01*
X38893136Y1586171D01*
X38898128Y1592676D01*
X38938195Y1644893D01*
X38941193Y1648800D01*
X38971403Y1721733D01*
X38972331Y1728778D01*
X38981064Y1795116D01*
X38981707Y1800000D01*
X38979492Y1816827D01*
X38972046Y1873386D01*
X38972045Y1873389D01*
X38971403Y1878267D01*
X38941193Y1951200D01*
X38898176Y2007261D01*
X38896134Y2009922D01*
X38893136Y2013829D01*
X38863943Y2036230D01*
X38834414Y2058888D01*
X38830507Y2061886D01*
X38757574Y2092096D01*
X38752696Y2092738D01*
X38752693Y2092739D01*
X38684191Y2101757D01*
X38679307Y2102400D01*
X38674423Y2101757D01*
X38605921Y2092739D01*
X38605918Y2092738D01*
X38601040Y2092096D01*
X38528107Y2061886D01*
X38524200Y2058888D01*
X38494672Y2036230D01*
X38465478Y2013829D01*
X38462480Y2009922D01*
X38460438Y2007261D01*
X38417421Y1951200D01*
X38387211Y1878267D01*
X38386569Y1873389D01*
X38386568Y1873386D01*
X38379122Y1816827D01*
X38376907Y1800000D01*
X38377550Y1795116D01*
X38386284Y1728778D01*
X38387211Y1721733D01*
X38417421Y1648800D01*
X38420419Y1644893D01*
X38460487Y1592676D01*
X38465478Y1586171D01*
X38469385Y1583173D01*
X38528107Y1538114D01*
X38527584Y1537432D01*
X38551022Y1513995D01*
X38561098Y1476395D01*
X38551024Y1438795D01*
X38523500Y1411269D01*
X38495714Y1401836D01*
X38426614Y1392739D01*
X38426611Y1392738D01*
X38421733Y1392096D01*
X38348800Y1361886D01*
X38344893Y1358888D01*
X38315365Y1336230D01*
X38286171Y1313829D01*
X38283173Y1309922D01*
X38265655Y1287092D01*
X38238114Y1251200D01*
X38207904Y1178267D01*
X38207262Y1173389D01*
X38207261Y1173386D01*
X38198892Y1109815D01*
X38197600Y1100000D01*
X24697236Y1100000D01*
X24694602Y1113240D01*
X24689889Y1128778D01*
X24684731Y1145779D01*
X24683039Y1151357D01*
X24671813Y1178460D01*
X24653043Y1213581D01*
X24652018Y1215115D01*
X24652014Y1215122D01*
X24649023Y1219598D01*
X24647987Y1221149D01*
X24639206Y1231849D01*
X24623887Y1250517D01*
X24623881Y1250524D01*
X24622708Y1251953D01*
X24601953Y1272708D01*
X24600524Y1273881D01*
X24600517Y1273887D01*
X24572589Y1296805D01*
X24571149Y1297987D01*
X24568393Y1299828D01*
X24565122Y1302014D01*
X24565115Y1302018D01*
X24563581Y1303043D01*
X24528460Y1321813D01*
X24526760Y1322517D01*
X24526754Y1322520D01*
X24511438Y1328864D01*
X24501357Y1333039D01*
X24488147Y1337046D01*
X24465005Y1344067D01*
X24464997Y1344069D01*
X24463240Y1344602D01*
X24452276Y1346783D01*
X24447817Y1347670D01*
X24447809Y1347671D01*
X24446906Y1347851D01*
X24445986Y1347987D01*
X24445977Y1347989D01*
X24428108Y1350639D01*
X24428095Y1350641D01*
X24427182Y1350776D01*
X24426282Y1350865D01*
X24426263Y1350867D01*
X24413435Y1352130D01*
X24412511Y1352221D01*
X24411352Y1352278D01*
X24393518Y1353155D01*
X24393499Y1353155D01*
X24392593Y1353200D01*
X23157407Y1353200D01*
X23156501Y1353155D01*
X23156482Y1353155D01*
X23138648Y1352278D01*
X23137489Y1352221D01*
X23136565Y1352130D01*
X23123737Y1350867D01*
X23123718Y1350865D01*
X23122818Y1350776D01*
X23121905Y1350641D01*
X23121892Y1350639D01*
X23104023Y1347989D01*
X23104014Y1347987D01*
X23103094Y1347851D01*
X23102191Y1347671D01*
X23102183Y1347670D01*
X23097724Y1346783D01*
X23086760Y1344602D01*
X23085003Y1344069D01*
X23084995Y1344067D01*
X23061853Y1337046D01*
X23048643Y1333039D01*
X23038562Y1328864D01*
X23023246Y1322520D01*
X23023240Y1322517D01*
X23021540Y1321813D01*
X22986419Y1303043D01*
X22984885Y1302018D01*
X22984878Y1302014D01*
X22981607Y1299828D01*
X22978851Y1297987D01*
X22977411Y1296805D01*
X22949483Y1273887D01*
X22949476Y1273881D01*
X22948047Y1272708D01*
X22927292Y1251953D01*
X22926119Y1250524D01*
X22926113Y1250517D01*
X22910794Y1231849D01*
X22902013Y1221149D01*
X22900977Y1219598D01*
X22897986Y1215122D01*
X22897982Y1215115D01*
X22896957Y1213581D01*
X22878187Y1178460D01*
X22866961Y1151357D01*
X22865269Y1145779D01*
X22860112Y1128778D01*
X22855398Y1113240D01*
X22852149Y1096906D01*
X22852013Y1095986D01*
X22852011Y1095977D01*
X22851436Y1092096D01*
X22849224Y1077182D01*
X22847779Y1062511D01*
X22847733Y1061575D01*
X22847258Y1051903D01*
X22846800Y1042593D01*
X22846800Y-1565727D01*
X22844555Y-1583965D01*
X22834117Y-1625718D01*
X22806412Y-1736540D01*
X22804994Y-1742607D01*
X22804948Y-1742818D01*
X22804944Y-1742836D01*
X22804114Y-1746651D01*
X22804015Y-1747105D01*
X22803966Y-1747347D01*
X22803962Y-1747367D01*
X22802982Y-1752228D01*
X22802787Y-1753193D01*
X22801813Y-1758434D01*
X22801721Y-1759031D01*
X22800950Y-1764026D01*
X22799916Y-1770719D01*
X22798791Y-1779852D01*
X22797649Y-1792245D01*
X22797617Y-1792773D01*
X22797339Y-1797287D01*
X22797336Y-1797340D01*
X22797323Y-1797556D01*
X22797036Y-1803789D01*
X22796895Y-1808396D01*
X22796800Y-1814612D01*
X22796800Y-4542715D01*
X22796993Y-4551574D01*
X22797279Y-4558128D01*
X22797859Y-4566979D01*
X22807634Y-4678709D01*
X22809948Y-4696282D01*
X22812223Y-4709185D01*
X22816060Y-4726493D01*
X22844237Y-4831653D01*
X22849571Y-4848569D01*
X22854055Y-4860887D01*
X22854353Y-4861606D01*
X22854361Y-4861627D01*
X22860523Y-4876502D01*
X22860835Y-4877255D01*
X22906839Y-4975912D01*
X22915024Y-4991636D01*
X22921578Y-5002988D01*
X22922019Y-5003681D01*
X22922031Y-5003700D01*
X22930671Y-5017262D01*
X22931104Y-5017941D01*
X22993546Y-5107116D01*
X23004341Y-5121184D01*
X23004855Y-5121797D01*
X23004857Y-5121799D01*
X23005407Y-5122454D01*
X23021863Y-5157731D01*
X23018476Y-5196510D01*
X22996153Y-5228400D01*
X22960876Y-5244856D01*
X22947807Y-5246000D01*
X329200Y-5246000D01*
X291600Y-5235925D01*
X264075Y-5208400D01*
X254000Y-5170800D01*
X254000Y-3379200D01*
X264075Y-3341600D01*
X291600Y-3314075D01*
X329200Y-3304000D01*
X13502348Y-3304000D01*
X13537878Y-3313110D01*
X13538491Y-3313511D01*
X13541139Y-3314709D01*
X13541236Y-3314762D01*
X13541483Y-3314882D01*
X13542675Y-3315611D01*
X13551611Y-3319460D01*
X13552746Y-3319960D01*
X13694480Y-3384081D01*
X13695241Y-3384431D01*
X13703370Y-3388228D01*
X13731740Y-3396462D01*
X13867740Y-3435934D01*
X13868609Y-3436192D01*
X13874406Y-3437951D01*
X13874415Y-3437953D01*
X13877187Y-3438794D01*
X13880063Y-3439200D01*
X13880065Y-3439200D01*
X14046537Y-3462674D01*
X14047434Y-3462806D01*
X14053538Y-3463742D01*
X14053542Y-3463742D01*
X14056416Y-3464183D01*
X14194619Y-3463866D01*
X14227595Y-3463791D01*
X14228499Y-3463795D01*
X14234526Y-3463854D01*
X14234531Y-3463854D01*
X14237437Y-3463882D01*
X14406711Y-3439220D01*
X14407593Y-3439096D01*
X14416583Y-3437897D01*
X14419368Y-3437075D01*
X14419372Y-3437074D01*
X14498109Y-3413829D01*
X14580724Y-3389440D01*
X14581456Y-3389229D01*
X14590228Y-3386754D01*
X14716365Y-3328990D01*
X14745842Y-3315491D01*
X14746673Y-3315117D01*
X14752200Y-3312667D01*
X14752206Y-3312664D01*
X14754858Y-3311488D01*
X14799413Y-3282815D01*
X14831816Y-3261963D01*
X14872511Y-3250000D01*
X15250000Y-3250000D01*
X15250000Y-2844588D01*
X15259408Y-2808251D01*
X15260718Y-2806268D01*
X15331951Y-2650720D01*
X15332335Y-2649895D01*
X15334952Y-2644358D01*
X15336192Y-2641735D01*
X15340958Y-2625593D01*
X15377517Y-2501757D01*
X15384655Y-2477576D01*
X15384913Y-2476724D01*
X15386697Y-2470939D01*
X15386698Y-2470936D01*
X15387556Y-2468153D01*
X15390593Y-2447313D01*
X15403167Y-2361011D01*
X15412227Y-2298827D01*
X15412358Y-2297958D01*
X15412492Y-2297115D01*
X15413768Y-2289040D01*
X15413783Y-2282815D01*
X15414161Y-2117883D01*
X15414169Y-2116973D01*
X15414256Y-2110934D01*
X15414298Y-2108019D01*
X15413212Y-2100313D01*
X15390418Y-1938672D01*
X15390296Y-1937771D01*
X15389740Y-1933451D01*
X15389136Y-1928757D01*
X15387402Y-1922783D01*
X15341442Y-1764425D01*
X15341194Y-1763550D01*
X15340401Y-1760688D01*
X15338791Y-1754879D01*
X15337459Y-1751933D01*
X15307454Y-1685611D01*
X15271882Y-1606981D01*
X15270985Y-1604914D01*
X15267590Y-1596757D01*
X15267588Y-1596754D01*
X15266472Y-1594072D01*
X15264955Y-1591592D01*
X15264644Y-1590982D01*
X15264193Y-1589985D01*
X15263904Y-1589531D01*
X15263636Y-1589006D01*
X15264362Y-1588636D01*
X15254000Y-1552506D01*
X15254000Y-26379D01*
X15264075Y11221D01*
X15274924Y25670D01*
X15334221Y87504D01*
X15334223Y87506D01*
X15337040Y90444D01*
X15384913Y168873D01*
X15414829Y255753D01*
X15416869Y273386D01*
X15425149Y344945D01*
X15425149Y344949D01*
X15425390Y347030D01*
X15425400Y350000D01*
X15415476Y441348D01*
X15411837Y452163D01*
X15397231Y495563D01*
X15386169Y528435D01*
X15338844Y607196D01*
X15304642Y643364D01*
X15275710Y673958D01*
X15276656Y674853D01*
X15258358Y701377D01*
X15254000Y726604D01*
X15254000Y773621D01*
X15264075Y811221D01*
X15274924Y825670D01*
X15334221Y887504D01*
X15334223Y887506D01*
X15337040Y890444D01*
X15384913Y968873D01*
X15414829Y1055753D01*
X15419696Y1097817D01*
X15425149Y1144945D01*
X15425149Y1144949D01*
X15425390Y1147030D01*
X15425400Y1150000D01*
X15415476Y1241348D01*
X15413692Y1246651D01*
X15396546Y1297600D01*
X15386169Y1328435D01*
X15371289Y1353200D01*
X15340941Y1403706D01*
X15338844Y1407196D01*
X15304642Y1443364D01*
X15275710Y1473958D01*
X15276656Y1474853D01*
X15258358Y1501377D01*
X15254000Y1526604D01*
X15254000Y1552358D01*
X15263114Y1587894D01*
X15263507Y1588494D01*
X15264703Y1591137D01*
X15264749Y1591221D01*
X15264874Y1591479D01*
X15265606Y1592676D01*
X15268382Y1599121D01*
X15269448Y1601596D01*
X15270000Y1602847D01*
X15290790Y1648800D01*
X15334069Y1744464D01*
X15334443Y1745278D01*
X15336996Y1750743D01*
X15336997Y1750747D01*
X15338225Y1753375D01*
X15385943Y1917791D01*
X15386191Y1918626D01*
X15387945Y1924406D01*
X15387945Y1924408D01*
X15388789Y1927188D01*
X15389195Y1930066D01*
X15399056Y2000000D01*
X21497600Y2000000D01*
X21498243Y1995116D01*
X21507186Y1927188D01*
X21507904Y1921733D01*
X21538114Y1848800D01*
X21586171Y1786171D01*
X21608024Y1769403D01*
X21620721Y1759660D01*
X21644418Y1728778D01*
X21649499Y1690185D01*
X21634602Y1654221D01*
X21620722Y1640341D01*
X21586171Y1613829D01*
X21538114Y1551200D01*
X21507904Y1478267D01*
X21507262Y1473389D01*
X21507261Y1473386D01*
X21500708Y1423605D01*
X21497600Y1400000D01*
X21498243Y1395116D01*
X21507022Y1328435D01*
X21507904Y1321733D01*
X21538114Y1248800D01*
X21586171Y1186171D01*
X21590078Y1183173D01*
X21620721Y1159660D01*
X21644418Y1128778D01*
X21649499Y1090185D01*
X21634602Y1054221D01*
X21620722Y1040341D01*
X21586171Y1013829D01*
X21538114Y951200D01*
X21507904Y878267D01*
X21507262Y873389D01*
X21507261Y873386D01*
X21500776Y824125D01*
X21497600Y800000D01*
X21507904Y721733D01*
X21538114Y648800D01*
X21586171Y586171D01*
X21590078Y583173D01*
X21620721Y559660D01*
X21644418Y528778D01*
X21649499Y490185D01*
X21634602Y454221D01*
X21620722Y440341D01*
X21586171Y413829D01*
X21538114Y351200D01*
X21507904Y278267D01*
X21507262Y273389D01*
X21507261Y273386D01*
X21503529Y245034D01*
X21497600Y200000D01*
X21498243Y195116D01*
X21504539Y147295D01*
X21507904Y121733D01*
X21538114Y48800D01*
X21586171Y-13829D01*
X21602527Y-26379D01*
X21620721Y-40340D01*
X21644418Y-71222D01*
X21649499Y-109815D01*
X21634602Y-145779D01*
X21620722Y-159659D01*
X21586171Y-186171D01*
X21583173Y-190078D01*
X21570301Y-206853D01*
X21538114Y-248800D01*
X21507904Y-321733D01*
X21507262Y-326611D01*
X21507261Y-326614D01*
X21503721Y-353503D01*
X21497600Y-400000D01*
X21507904Y-478267D01*
X21538114Y-551200D01*
X21586171Y-613829D01*
X21590078Y-616827D01*
X21620721Y-640340D01*
X21644418Y-671222D01*
X21649499Y-709815D01*
X21634602Y-745779D01*
X21620722Y-759659D01*
X21586171Y-786171D01*
X21583173Y-790078D01*
X21575018Y-800706D01*
X21538114Y-848800D01*
X21507904Y-921733D01*
X21497600Y-1000000D01*
X21507904Y-1078267D01*
X21538114Y-1151200D01*
X21586171Y-1213829D01*
X21590078Y-1216827D01*
X21620721Y-1240340D01*
X21644418Y-1271222D01*
X21649499Y-1309815D01*
X21634602Y-1345779D01*
X21620722Y-1359659D01*
X21602308Y-1373789D01*
X21592281Y-1381483D01*
X21586171Y-1386171D01*
X21538114Y-1448800D01*
X21507904Y-1521733D01*
X21507262Y-1526611D01*
X21507261Y-1526614D01*
X21501155Y-1572995D01*
X21497600Y-1600000D01*
X21498243Y-1604884D01*
X21506951Y-1671026D01*
X21507904Y-1678267D01*
X21538114Y-1751200D01*
X21586171Y-1813829D01*
X21590078Y-1816827D01*
X21620721Y-1840340D01*
X21644418Y-1871222D01*
X21649499Y-1909815D01*
X21634602Y-1945779D01*
X21620722Y-1959659D01*
X21586171Y-1986171D01*
X21538114Y-2048800D01*
X21507904Y-2121733D01*
X21507262Y-2126611D01*
X21507261Y-2126614D01*
X21500031Y-2181533D01*
X21497600Y-2200000D01*
X21498243Y-2204884D01*
X21507147Y-2272514D01*
X21507904Y-2278267D01*
X21538114Y-2351200D01*
X21586171Y-2413829D01*
X21590078Y-2416827D01*
X21603745Y-2427314D01*
X21648800Y-2461886D01*
X21721733Y-2492096D01*
X21726611Y-2492738D01*
X21726614Y-2492739D01*
X21795116Y-2501757D01*
X21800000Y-2502400D01*
X21804884Y-2501757D01*
X21873386Y-2492739D01*
X21873389Y-2492738D01*
X21878267Y-2492096D01*
X21951200Y-2461886D01*
X21996255Y-2427314D01*
X22009922Y-2416827D01*
X22013829Y-2413829D01*
X22061886Y-2351200D01*
X22092096Y-2278267D01*
X22092854Y-2272514D01*
X22101757Y-2204884D01*
X22102400Y-2200000D01*
X22099969Y-2181533D01*
X22092739Y-2126614D01*
X22092738Y-2126611D01*
X22092096Y-2121733D01*
X22061886Y-2048800D01*
X22013829Y-1986171D01*
X21979279Y-1959660D01*
X21955582Y-1928778D01*
X21950501Y-1890185D01*
X21965398Y-1854221D01*
X21979279Y-1840340D01*
X22009922Y-1816827D01*
X22013829Y-1813829D01*
X22061886Y-1751200D01*
X22092096Y-1678267D01*
X22093050Y-1671026D01*
X22101757Y-1604884D01*
X22102400Y-1600000D01*
X22098845Y-1572995D01*
X22092739Y-1526614D01*
X22092738Y-1526611D01*
X22092096Y-1521733D01*
X22061886Y-1448800D01*
X22013829Y-1386171D01*
X22007720Y-1381483D01*
X21997692Y-1373789D01*
X21979279Y-1359660D01*
X21955582Y-1328778D01*
X21950501Y-1290185D01*
X21965398Y-1254221D01*
X21979279Y-1240340D01*
X22009922Y-1216827D01*
X22013829Y-1213829D01*
X22061886Y-1151200D01*
X22092096Y-1078267D01*
X22102400Y-1000000D01*
X22092096Y-921733D01*
X22061886Y-848800D01*
X22024982Y-800706D01*
X22016827Y-790078D01*
X22013829Y-786171D01*
X21979279Y-759660D01*
X21955582Y-728778D01*
X21950501Y-690185D01*
X21965398Y-654221D01*
X21979279Y-640340D01*
X22009922Y-616827D01*
X22013829Y-613829D01*
X22061886Y-551200D01*
X22092096Y-478267D01*
X22102400Y-400000D01*
X22096279Y-353503D01*
X22092739Y-326614D01*
X22092738Y-326611D01*
X22092096Y-321733D01*
X22061886Y-248800D01*
X22029699Y-206853D01*
X22016827Y-190078D01*
X22013829Y-186171D01*
X21979279Y-159660D01*
X21955582Y-128778D01*
X21950501Y-90185D01*
X21965398Y-54221D01*
X21979279Y-40340D01*
X21997474Y-26379D01*
X22013829Y-13829D01*
X22061886Y48800D01*
X22092096Y121733D01*
X22095462Y147295D01*
X22101757Y195116D01*
X22102400Y200000D01*
X22096471Y245034D01*
X22092739Y273386D01*
X22092738Y273389D01*
X22092096Y278267D01*
X22061886Y351200D01*
X22013829Y413829D01*
X21979279Y440340D01*
X21955582Y471222D01*
X21950501Y509815D01*
X21965398Y545779D01*
X21979279Y559660D01*
X22009922Y583173D01*
X22013829Y586171D01*
X22061886Y648800D01*
X22092096Y721733D01*
X22102400Y800000D01*
X22099224Y824125D01*
X22092739Y873386D01*
X22092738Y873389D01*
X22092096Y878267D01*
X22061886Y951200D01*
X22013829Y1013829D01*
X21979279Y1040340D01*
X21955582Y1071222D01*
X21950501Y1109815D01*
X21965398Y1145779D01*
X21979279Y1159660D01*
X22009922Y1183173D01*
X22013829Y1186171D01*
X22061886Y1248800D01*
X22092096Y1321733D01*
X22092979Y1328435D01*
X22101757Y1395116D01*
X22102400Y1400000D01*
X22099292Y1423605D01*
X22092739Y1473386D01*
X22092738Y1473389D01*
X22092096Y1478267D01*
X22061886Y1551200D01*
X22013829Y1613829D01*
X21979279Y1640340D01*
X21955582Y1671222D01*
X21950501Y1709815D01*
X21965398Y1745779D01*
X21979279Y1759660D01*
X21991977Y1769403D01*
X22013829Y1786171D01*
X22061886Y1848800D01*
X22092096Y1921733D01*
X22092815Y1927188D01*
X22101757Y1995116D01*
X22102400Y2000000D01*
X22096988Y2041112D01*
X22092739Y2073386D01*
X22092738Y2073389D01*
X22092096Y2078267D01*
X22061886Y2151200D01*
X22013829Y2213829D01*
X21984636Y2236230D01*
X21955107Y2258888D01*
X21951200Y2261886D01*
X21878267Y2292096D01*
X21873389Y2292738D01*
X21873386Y2292739D01*
X21818231Y2300000D01*
X26197600Y2300000D01*
X26198243Y2295116D01*
X26205981Y2236343D01*
X26207904Y2221733D01*
X26238114Y2148800D01*
X26241112Y2144893D01*
X26280283Y2093845D01*
X26286171Y2086171D01*
X26290078Y2083173D01*
X26316561Y2062852D01*
X26348800Y2038114D01*
X26421733Y2007904D01*
X26426611Y2007262D01*
X26426614Y2007261D01*
X26495116Y1998243D01*
X26500000Y1997600D01*
X26504884Y1998243D01*
X26573386Y2007261D01*
X26573389Y2007262D01*
X26578267Y2007904D01*
X26651200Y2038114D01*
X26683439Y2062852D01*
X26709922Y2083173D01*
X26713829Y2086171D01*
X26719718Y2093845D01*
X26758888Y2144893D01*
X26761886Y2148800D01*
X26792096Y2221733D01*
X26794020Y2236343D01*
X26801757Y2295116D01*
X26802400Y2300000D01*
X26799522Y2321858D01*
X26792739Y2373386D01*
X26792738Y2373389D01*
X26792096Y2378267D01*
X26761886Y2451200D01*
X26713829Y2513829D01*
X26684636Y2536230D01*
X26673888Y2544477D01*
X26651200Y2561886D01*
X26578267Y2592096D01*
X26573389Y2592738D01*
X26573386Y2592739D01*
X26504884Y2601757D01*
X26500000Y2602400D01*
X26495116Y2601757D01*
X26426614Y2592739D01*
X26426611Y2592738D01*
X26421733Y2592096D01*
X26348800Y2561886D01*
X26326112Y2544477D01*
X26315365Y2536230D01*
X26286171Y2513829D01*
X26238114Y2451200D01*
X26207904Y2378267D01*
X26207262Y2373389D01*
X26207261Y2373386D01*
X26200478Y2321858D01*
X26197600Y2300000D01*
X21818231Y2300000D01*
X21804884Y2301757D01*
X21800000Y2302400D01*
X21795116Y2301757D01*
X21726614Y2292739D01*
X21726611Y2292738D01*
X21721733Y2292096D01*
X21648800Y2261886D01*
X21644893Y2258888D01*
X21615365Y2236230D01*
X21586171Y2213829D01*
X21538114Y2151200D01*
X21507904Y2078267D01*
X21507262Y2073389D01*
X21507261Y2073386D01*
X21503012Y2041112D01*
X21497600Y2000000D01*
X15399056Y2000000D01*
X15412668Y2096525D01*
X15412800Y2097423D01*
X15413738Y2103542D01*
X15413738Y2103548D01*
X15414179Y2106420D01*
X15413786Y2277600D01*
X15413790Y2278505D01*
X15413849Y2284528D01*
X15413849Y2284533D01*
X15413877Y2287439D01*
X15397911Y2397027D01*
X15389215Y2456713D01*
X15389090Y2457609D01*
X15388278Y2463695D01*
X15388276Y2463704D01*
X15387892Y2466584D01*
X15339423Y2630765D01*
X15339212Y2631497D01*
X15336748Y2640230D01*
X15265463Y2795891D01*
X15265171Y2796540D01*
X15261482Y2804859D01*
X15259910Y2807302D01*
X15259014Y2808963D01*
X15250000Y2844662D01*
X15250000Y3250000D01*
X14872504Y3250000D01*
X14831809Y3261963D01*
X14764560Y3305240D01*
X14763863Y3305694D01*
X14756266Y3310714D01*
X14738668Y3318773D01*
X14600670Y3381969D01*
X14599850Y3382351D01*
X14594361Y3384945D01*
X14591731Y3386188D01*
X14544945Y3400000D01*
X35497600Y3400000D01*
X35498243Y3395116D01*
X35507141Y3327531D01*
X35507904Y3321733D01*
X35538114Y3248800D01*
X35586171Y3186171D01*
X35648800Y3138114D01*
X35721733Y3107904D01*
X35726611Y3107262D01*
X35726614Y3107261D01*
X35795116Y3098243D01*
X35800000Y3097600D01*
X35804884Y3098243D01*
X35873386Y3107261D01*
X35873389Y3107262D01*
X35878267Y3107904D01*
X35951200Y3138114D01*
X36013829Y3186171D01*
X36055586Y3240590D01*
X37697600Y3240590D01*
X37698243Y3235706D01*
X37706574Y3172428D01*
X37707904Y3162323D01*
X37738114Y3089390D01*
X37786171Y3026761D01*
X37848800Y2978704D01*
X37921733Y2948494D01*
X37926611Y2947852D01*
X37926614Y2947851D01*
X37995116Y2938833D01*
X38000000Y2938190D01*
X38004884Y2938833D01*
X38073386Y2947851D01*
X38073389Y2947852D01*
X38078267Y2948494D01*
X38151200Y2978704D01*
X38178953Y3000000D01*
X38497600Y3000000D01*
X38498243Y2995116D01*
X38506928Y2929148D01*
X38507904Y2921733D01*
X38538114Y2848800D01*
X38586171Y2786171D01*
X38590078Y2783173D01*
X38617485Y2762143D01*
X38648800Y2738114D01*
X38721733Y2707904D01*
X38726611Y2707262D01*
X38726614Y2707261D01*
X38795116Y2698243D01*
X38800000Y2697600D01*
X38804884Y2698243D01*
X38873386Y2707261D01*
X38873389Y2707262D01*
X38878267Y2707904D01*
X38951200Y2738114D01*
X38982515Y2762143D01*
X39009922Y2783173D01*
X39013829Y2786171D01*
X39061886Y2848800D01*
X39092096Y2921733D01*
X39093073Y2929148D01*
X39101757Y2995116D01*
X39102400Y3000000D01*
X39098877Y3026761D01*
X39092739Y3073386D01*
X39092738Y3073389D01*
X39092096Y3078267D01*
X39061886Y3151200D01*
X39013829Y3213829D01*
X39009078Y3217475D01*
X38973346Y3244893D01*
X38951200Y3261886D01*
X38878267Y3292096D01*
X38873389Y3292738D01*
X38873386Y3292739D01*
X38804884Y3301757D01*
X38800000Y3302400D01*
X38795116Y3301757D01*
X38726614Y3292739D01*
X38726611Y3292738D01*
X38721733Y3292096D01*
X38648800Y3261886D01*
X38626654Y3244893D01*
X38590923Y3217475D01*
X38586171Y3213829D01*
X38538114Y3151200D01*
X38507904Y3078267D01*
X38507262Y3073389D01*
X38507261Y3073386D01*
X38501123Y3026761D01*
X38497600Y3000000D01*
X38178953Y3000000D01*
X38213829Y3026761D01*
X38261886Y3089390D01*
X38292096Y3162323D01*
X38293427Y3172428D01*
X38301757Y3235706D01*
X38302400Y3240590D01*
X38297877Y3274946D01*
X38292739Y3313976D01*
X38292738Y3313979D01*
X38292096Y3318857D01*
X38261886Y3391790D01*
X38213829Y3454419D01*
X38151200Y3502476D01*
X38078267Y3532686D01*
X38073389Y3533328D01*
X38073386Y3533329D01*
X38004884Y3542347D01*
X38000000Y3542990D01*
X37995116Y3542347D01*
X37926614Y3533329D01*
X37926611Y3533328D01*
X37921733Y3532686D01*
X37848800Y3502476D01*
X37786171Y3454419D01*
X37738114Y3391790D01*
X37707904Y3318857D01*
X37707262Y3313979D01*
X37707261Y3313976D01*
X37702123Y3274946D01*
X37697600Y3240590D01*
X36055586Y3240590D01*
X36061886Y3248800D01*
X36092096Y3321733D01*
X36092860Y3327531D01*
X36101757Y3395116D01*
X36102400Y3400000D01*
X36098830Y3427119D01*
X36092739Y3473386D01*
X36092738Y3473389D01*
X36092096Y3478267D01*
X36061886Y3551200D01*
X36013829Y3613829D01*
X35984838Y3636075D01*
X35961415Y3654048D01*
X35951200Y3661886D01*
X35878267Y3692096D01*
X35873389Y3692738D01*
X35873386Y3692739D01*
X35804884Y3701757D01*
X35800000Y3702400D01*
X35795116Y3701757D01*
X35726614Y3692739D01*
X35726611Y3692738D01*
X35721733Y3692096D01*
X35648800Y3661886D01*
X35638585Y3654048D01*
X35615163Y3636075D01*
X35586171Y3613829D01*
X35538114Y3551200D01*
X35507904Y3478267D01*
X35507262Y3473389D01*
X35507261Y3473386D01*
X35501170Y3427119D01*
X35497600Y3400000D01*
X14544945Y3400000D01*
X14427600Y3434642D01*
X14426760Y3434896D01*
X14420926Y3436696D01*
X14420916Y3436698D01*
X14418151Y3437551D01*
X14248790Y3462227D01*
X14247959Y3462353D01*
X14239039Y3463763D01*
X14236136Y3463770D01*
X14236132Y3463770D01*
X14082529Y3464122D01*
X14067876Y3464156D01*
X14066976Y3464164D01*
X14058017Y3464293D01*
X13888546Y3440395D01*
X13887878Y3440304D01*
X13878758Y3439131D01*
X13719468Y3392900D01*
X13714503Y3391459D01*
X13713634Y3391212D01*
X13704879Y3388786D01*
X13557920Y3322301D01*
X13557012Y3321890D01*
X13554915Y3320980D01*
X13546761Y3317586D01*
X13546754Y3317583D01*
X13544072Y3316466D01*
X13541595Y3314950D01*
X13540982Y3314638D01*
X13539985Y3314187D01*
X13539528Y3313896D01*
X13538997Y3313625D01*
X13538708Y3314192D01*
X13502516Y3304000D01*
X5274252Y3304000D01*
X5236652Y3314075D01*
X5219614Y3327531D01*
X5206508Y3341390D01*
X5175710Y3373958D01*
X5167997Y3379200D01*
X5103082Y3423317D01*
X5103078Y3423319D01*
X5099713Y3425606D01*
X5014398Y3459729D01*
X5010386Y3460393D01*
X5010383Y3460394D01*
X4931906Y3473386D01*
X4923746Y3474737D01*
X4919679Y3474524D01*
X4919676Y3474524D01*
X4873933Y3472126D01*
X4831987Y3469928D01*
X4828060Y3468846D01*
X4828058Y3468846D01*
X4804254Y3462289D01*
X4743400Y3445527D01*
X4739797Y3443627D01*
X4739796Y3443627D01*
X4729065Y3437969D01*
X4662119Y3402673D01*
X4591937Y3343364D01*
X4589466Y3340133D01*
X4589463Y3340129D01*
X4584416Y3333527D01*
X4553576Y3309775D01*
X4524675Y3304000D01*
X4474252Y3304000D01*
X4436652Y3314075D01*
X4419614Y3327531D01*
X4406508Y3341390D01*
X4375710Y3373958D01*
X4367997Y3379200D01*
X4303082Y3423317D01*
X4303078Y3423319D01*
X4299713Y3425606D01*
X4214398Y3459729D01*
X4210386Y3460393D01*
X4210383Y3460394D01*
X4131906Y3473386D01*
X4123746Y3474737D01*
X4119679Y3474524D01*
X4119676Y3474524D01*
X4073933Y3472126D01*
X4031987Y3469928D01*
X4028060Y3468846D01*
X4028058Y3468846D01*
X4004254Y3462289D01*
X3943400Y3445527D01*
X3939797Y3443627D01*
X3939796Y3443627D01*
X3929065Y3437969D01*
X3862119Y3402673D01*
X3791937Y3343364D01*
X3789466Y3340133D01*
X3789463Y3340129D01*
X3784416Y3333527D01*
X3753576Y3309775D01*
X3724675Y3304000D01*
X1974252Y3304000D01*
X1936652Y3314075D01*
X1919614Y3327531D01*
X1906508Y3341390D01*
X1875710Y3373958D01*
X1867997Y3379200D01*
X1803082Y3423317D01*
X1803078Y3423319D01*
X1799713Y3425606D01*
X1714398Y3459729D01*
X1710386Y3460393D01*
X1710383Y3460394D01*
X1631906Y3473386D01*
X1623746Y3474737D01*
X1619679Y3474524D01*
X1619676Y3474524D01*
X1573933Y3472126D01*
X1531987Y3469928D01*
X1528060Y3468846D01*
X1528058Y3468846D01*
X1504254Y3462289D01*
X1443400Y3445527D01*
X1439797Y3443627D01*
X1439796Y3443627D01*
X1429065Y3437969D01*
X1362119Y3402673D01*
X1291937Y3343364D01*
X1289466Y3340133D01*
X1289463Y3340129D01*
X1284416Y3333527D01*
X1253576Y3309775D01*
X1224675Y3304000D01*
X329200Y3304000D01*
X291600Y3314075D01*
X264075Y3341600D01*
X254000Y3379200D01*
X254000Y4100000D01*
X5697600Y4100000D01*
X5698243Y4095116D01*
X5707230Y4026856D01*
X5707904Y4021733D01*
X5738114Y3948800D01*
X5786171Y3886171D01*
X5848800Y3838114D01*
X5921733Y3807904D01*
X5926611Y3807262D01*
X5926614Y3807261D01*
X5995116Y3798243D01*
X6000000Y3797600D01*
X6004884Y3798243D01*
X6018230Y3800000D01*
X8897600Y3800000D01*
X8898243Y3795116D01*
X8904511Y3747508D01*
X8907904Y3721733D01*
X8938114Y3648800D01*
X8986171Y3586171D01*
X8990078Y3583173D01*
X9006129Y3570857D01*
X9048800Y3538114D01*
X9121733Y3507904D01*
X9126611Y3507262D01*
X9126614Y3507261D01*
X9195116Y3498243D01*
X9200000Y3497600D01*
X9204884Y3498243D01*
X9273386Y3507261D01*
X9273389Y3507262D01*
X9278267Y3507904D01*
X9351200Y3538114D01*
X9393871Y3570857D01*
X9409922Y3583173D01*
X9413829Y3586171D01*
X9461886Y3648800D01*
X9492096Y3721733D01*
X9495490Y3747508D01*
X9501757Y3795116D01*
X9502400Y3800000D01*
X9501111Y3809788D01*
X9492739Y3873386D01*
X9492738Y3873389D01*
X9492096Y3878267D01*
X9461886Y3951200D01*
X9413829Y4013829D01*
X9351200Y4061886D01*
X9278267Y4092096D01*
X9273389Y4092738D01*
X9273386Y4092739D01*
X9218231Y4100000D01*
X30997600Y4100000D01*
X30998243Y4095116D01*
X31007230Y4026856D01*
X31007904Y4021733D01*
X31038114Y3948800D01*
X31086171Y3886171D01*
X31148800Y3838114D01*
X31221733Y3807904D01*
X31226611Y3807262D01*
X31226614Y3807261D01*
X31295116Y3798243D01*
X31300000Y3797600D01*
X31304884Y3798243D01*
X31373386Y3807261D01*
X31373389Y3807262D01*
X31378267Y3807904D01*
X31451200Y3838114D01*
X31513829Y3886171D01*
X31561886Y3948800D01*
X31592096Y4021733D01*
X31592771Y4026856D01*
X31601757Y4095116D01*
X31602400Y4100000D01*
X31599645Y4120930D01*
X31592739Y4173386D01*
X31592738Y4173389D01*
X31592096Y4178267D01*
X31561886Y4251200D01*
X31555551Y4259457D01*
X34126796Y4259457D01*
X34146132Y4174689D01*
X34148059Y4170765D01*
X34148059Y4170764D01*
X34180405Y4104884D01*
X34184451Y4096643D01*
X34187224Y4093273D01*
X34187226Y4093270D01*
X34201181Y4076312D01*
X34239697Y4029505D01*
X34243178Y4026858D01*
X34243180Y4026856D01*
X34256369Y4016827D01*
X34308906Y3976877D01*
X34388365Y3941583D01*
X34431089Y3933548D01*
X34469521Y3926321D01*
X34469522Y3926321D01*
X34473813Y3925514D01*
X34493240Y3926413D01*
X34556307Y3929332D01*
X34556309Y3929332D01*
X34560666Y3929534D01*
X34564860Y3930733D01*
X34564862Y3930733D01*
X34600000Y3940776D01*
X34644264Y3953427D01*
X34690861Y3979522D01*
X34716309Y3993773D01*
X34716312Y3993775D01*
X34720124Y3995910D01*
X34784176Y4054706D01*
X34822022Y4110500D01*
X34830530Y4123042D01*
X34830531Y4123043D01*
X34832984Y4126660D01*
X34842271Y4151044D01*
X34862375Y4203828D01*
X34862376Y4203832D01*
X34863930Y4207912D01*
X34875354Y4294103D01*
X34875400Y4300000D01*
X34874554Y4307261D01*
X34865837Y4382021D01*
X34865331Y4386361D01*
X34863250Y4392096D01*
X34846188Y4439099D01*
X34835666Y4468089D01*
X34787994Y4540800D01*
X34759024Y4568244D01*
X34728041Y4597594D01*
X34724873Y4600595D01*
X34680990Y4626084D01*
X34653466Y4642071D01*
X34653464Y4642072D01*
X34649690Y4644264D01*
X34645511Y4645530D01*
X34645508Y4645531D01*
X34570661Y4668200D01*
X34570662Y4668200D01*
X34566478Y4669467D01*
X34520539Y4672317D01*
X34484058Y4674581D01*
X34484054Y4674581D01*
X34479699Y4674851D01*
X34394009Y4660126D01*
X34389993Y4658417D01*
X34389989Y4658416D01*
X34318028Y4627796D01*
X34314005Y4626084D01*
X34243978Y4574550D01*
X34241153Y4571224D01*
X34241149Y4571221D01*
X34201551Y4524611D01*
X34187684Y4508289D01*
X34148144Y4430854D01*
X34127479Y4346400D01*
X34126796Y4259457D01*
X31555551Y4259457D01*
X31523030Y4301838D01*
X31516827Y4309922D01*
X31513829Y4313829D01*
X31484636Y4336230D01*
X31469328Y4347976D01*
X31451200Y4361886D01*
X31378267Y4392096D01*
X31373389Y4392738D01*
X31373386Y4392739D01*
X31304884Y4401757D01*
X31300000Y4402400D01*
X31295116Y4401757D01*
X31226614Y4392739D01*
X31226611Y4392738D01*
X31221733Y4392096D01*
X31148800Y4361886D01*
X31130672Y4347976D01*
X31115365Y4336230D01*
X31086171Y4313829D01*
X31083173Y4309922D01*
X31076970Y4301838D01*
X31038114Y4251200D01*
X31007904Y4178267D01*
X31007262Y4173389D01*
X31007261Y4173386D01*
X31000355Y4120930D01*
X30997600Y4100000D01*
X9218231Y4100000D01*
X9204884Y4101757D01*
X9200000Y4102400D01*
X9195116Y4101757D01*
X9126614Y4092739D01*
X9126611Y4092738D01*
X9121733Y4092096D01*
X9048800Y4061886D01*
X8986171Y4013829D01*
X8938114Y3951200D01*
X8907904Y3878267D01*
X8907262Y3873389D01*
X8907261Y3873386D01*
X8898889Y3809788D01*
X8897600Y3800000D01*
X6018230Y3800000D01*
X6073386Y3807261D01*
X6073389Y3807262D01*
X6078267Y3807904D01*
X6151200Y3838114D01*
X6213829Y3886171D01*
X6261886Y3948800D01*
X6292096Y4021733D01*
X6292771Y4026856D01*
X6301757Y4095116D01*
X6302400Y4100000D01*
X6299645Y4120930D01*
X6292739Y4173386D01*
X6292738Y4173389D01*
X6292096Y4178267D01*
X6261886Y4251200D01*
X6223030Y4301838D01*
X6216827Y4309922D01*
X6213829Y4313829D01*
X6184636Y4336230D01*
X6169328Y4347976D01*
X6151200Y4361886D01*
X6078267Y4392096D01*
X6073389Y4392738D01*
X6073386Y4392739D01*
X6004884Y4401757D01*
X6000000Y4402400D01*
X5995116Y4401757D01*
X5926614Y4392739D01*
X5926611Y4392738D01*
X5921733Y4392096D01*
X5848800Y4361886D01*
X5830672Y4347976D01*
X5815365Y4336230D01*
X5786171Y4313829D01*
X5783173Y4309922D01*
X5776970Y4301838D01*
X5738114Y4251200D01*
X5707904Y4178267D01*
X5707262Y4173389D01*
X5707261Y4173386D01*
X5700355Y4120930D01*
X5697600Y4100000D01*
X254000Y4100000D01*
X254000Y5170800D01*
X264075Y5208400D01*
X291600Y5235925D01*
X329200Y5246000D01*
X74670800Y5246000D01*
X74708400Y5235925D01*
G37*
G04 #@! TD.AperFunction*
G04 #@! TD*
G04 #@! TA.AperFunction,Conductor*
G04 #@! TO.N,IN*
G36*
X65800000Y-5203605D02*
G01*
X65785827Y-5209476D01*
X65774604Y-5213122D01*
X65679310Y-5236000D01*
X65667655Y-5237846D01*
X65566999Y-5245768D01*
X65561099Y-5246000D01*
X23703285Y-5246000D01*
X23696731Y-5245714D01*
X23584995Y-5235938D01*
X23572098Y-5233664D01*
X23466938Y-5205487D01*
X23454620Y-5201003D01*
X23392354Y-5171968D01*
X23355959Y-5154997D01*
X23344615Y-5148447D01*
X23255436Y-5086003D01*
X23245395Y-5077577D01*
X23168423Y-5000605D01*
X23159997Y-4990564D01*
X23097555Y-4901389D01*
X23091001Y-4890037D01*
X23044997Y-4791380D01*
X23040513Y-4779062D01*
X23012336Y-4673902D01*
X23010061Y-4660999D01*
X23000286Y-4549269D01*
X23000000Y-4542715D01*
X23000000Y-3800000D01*
X65800000Y-3800000D01*
X65800000Y-5203605D01*
G37*
G04 #@! TD.AperFunction*
G04 #@! TD*
G04 #@! TA.AperFunction,Conductor*
G04 #@! TO.N,IN*
G36*
X67405486Y-1600480D02*
G01*
X67510568Y-1609674D01*
X67532197Y-1613487D01*
X67628766Y-1639362D01*
X67649405Y-1646874D01*
X67740010Y-1689124D01*
X67759031Y-1700106D01*
X67840925Y-1757449D01*
X67857749Y-1771567D01*
X67928433Y-1842251D01*
X67942551Y-1859075D01*
X67999894Y-1940969D01*
X68010876Y-1959990D01*
X68053126Y-2050595D01*
X68060638Y-2071234D01*
X68086513Y-2167803D01*
X68090326Y-2189432D01*
X68099520Y-2294514D01*
X68100000Y-2305496D01*
X68100000Y-2705095D01*
X68099612Y-2714981D01*
X68092160Y-2809670D01*
X68089067Y-2829198D01*
X68068055Y-2916721D01*
X68061947Y-2935520D01*
X68027496Y-3018693D01*
X68018529Y-3036291D01*
X67971493Y-3113046D01*
X67959872Y-3129040D01*
X67898188Y-3201263D01*
X67891472Y-3208528D01*
X66062528Y-5037472D01*
X66055263Y-5044188D01*
X65983040Y-5105872D01*
X65967049Y-5117491D01*
X65890291Y-5164529D01*
X65872693Y-5173496D01*
X65789520Y-5207947D01*
X65770726Y-5214053D01*
X65683198Y-5235067D01*
X65663671Y-5238160D01*
X65581808Y-5244602D01*
X65568981Y-5245612D01*
X65559095Y-5246000D01*
X64400000Y-5246000D01*
X64400000Y-3800000D01*
X66391472Y-1808528D01*
X66398737Y-1801812D01*
X66470960Y-1740128D01*
X66486951Y-1728509D01*
X66563709Y-1681471D01*
X66581307Y-1672504D01*
X66664480Y-1638053D01*
X66683274Y-1631947D01*
X66770803Y-1610933D01*
X66790329Y-1607840D01*
X66885019Y-1600388D01*
X66894905Y-1600000D01*
X67394504Y-1600000D01*
X67405486Y-1600480D01*
G37*
G04 #@! TD.AperFunction*
G04 #@! TD*
G04 #@! TA.AperFunction,Conductor*
G04 #@! TO.N,IN*
G36*
X24407264Y1148555D02*
G01*
X24423598Y1145306D01*
X24450701Y1134080D01*
X24458269Y1129024D01*
X24479024Y1108269D01*
X24484080Y1100701D01*
X24495306Y1073598D01*
X24498555Y1057264D01*
X24500000Y1042593D01*
X24500000Y-1508563D01*
X24498933Y-1521187D01*
X24496513Y-1535398D01*
X24488153Y-1559229D01*
X24481166Y-1571835D01*
X24474114Y-1582357D01*
X24451341Y-1610824D01*
X24400000Y-1675000D01*
X24300000Y-1800000D01*
X24300000Y-3200000D01*
X24900000Y-3800000D01*
X24900000Y-4500000D01*
X23000000Y-4500000D01*
X23000000Y-1814612D01*
X23000141Y-1810005D01*
X23000467Y-1804694D01*
X23001592Y-1795561D01*
X23002566Y-1790320D01*
X23003545Y-1785822D01*
X23031250Y-1675000D01*
X23047014Y-1611943D01*
X23050000Y-1600000D01*
X23050000Y1042593D01*
X23051445Y1057264D01*
X23054694Y1073598D01*
X23065920Y1100701D01*
X23070976Y1108269D01*
X23091731Y1129024D01*
X23099299Y1134080D01*
X23126402Y1145306D01*
X23142736Y1148555D01*
X23157407Y1150000D01*
X24392593Y1150000D01*
X24407264Y1148555D01*
G37*
G04 #@! TD.AperFunction*
G04 #@! TD*
M02*
