G04 #@! TF.GenerationSoftware,KiCad,Pcbnew,(5.99.0-4092-g1ee3df61c)*
G04 #@! TF.CreationDate,2020-10-21T20:22:12-07:00*
G04 #@! TF.ProjectId,RT_USB_PD_Soldering_Iron,52545f55-5342-45f5-9044-5f536f6c6465,rev?*
G04 #@! TF.SameCoordinates,PX5f5e100PY7735940*
G04 #@! TF.FileFunction,Copper,L2,Inr*
G04 #@! TF.FilePolarity,Positive*
%FSLAX46Y46*%
G04 Gerber Fmt 4.6, Leading zero omitted, Abs format (unit mm)*
G04 Created by KiCad (PCBNEW (5.99.0-4092-g1ee3df61c)) date 2020-10-21 20:22:12*
%MOMM*%
%LPD*%
G01*
G04 APERTURE LIST*
G04 #@! TA.AperFunction,ViaPad*
%ADD10C,0.560000*%
G04 #@! TD*
G04 #@! TA.AperFunction,ViaPad*
%ADD11C,0.800000*%
G04 #@! TD*
G04 #@! TA.AperFunction,Conductor*
%ADD12C,0.254000*%
G04 #@! TD*
G04 #@! TA.AperFunction,Conductor*
%ADD13C,0.152400*%
G04 #@! TD*
G04 #@! TA.AperFunction,Conductor*
%ADD14C,0.750000*%
G04 #@! TD*
G04 #@! TA.AperFunction,Conductor*
%ADD15C,0.500000*%
G04 #@! TD*
G04 #@! TA.AperFunction,Conductor*
%ADD16C,0.400000*%
G04 #@! TD*
G04 #@! TA.AperFunction,Conductor*
%ADD17C,0.300000*%
G04 #@! TD*
G04 APERTURE END LIST*
D10*
G04 #@! TO.N,/BTN1*
X63300000Y-3300000D03*
G04 #@! TO.N,/DISP_RST#*
X53000000Y400000D03*
G04 #@! TO.N,GND*
X47200000Y-1800000D03*
G04 #@! TO.N,/USB_N*
X60100000Y2900000D03*
G04 #@! TO.N,/CC2*
X69700000Y1200000D03*
D11*
G04 #@! TO.N,+3V3*
X58250000Y4500000D03*
X48400000Y4300000D03*
X41100000Y4300000D03*
X44500000Y4300000D03*
X46300000Y4300000D03*
X34100000Y4300000D03*
D10*
G04 #@! TO.N,/BTN1*
X48600000Y-3300000D03*
G04 #@! TO.N,/BTN2*
X64100000Y4100000D03*
X49300000Y3600000D03*
G04 #@! TO.N,/TEMP_SENS*
X32000000Y-3300000D03*
X37000000Y-1600000D03*
G04 #@! TO.N,/CC2*
X51500000Y-2200000D03*
X62000000Y-2200000D03*
G04 #@! TO.N,/CC1*
X69700000Y-1300000D03*
X63100000Y-2200000D03*
X51000000Y-2900000D03*
G04 #@! TO.N,/TIP_TC*
X6550000Y4100000D03*
X31300000Y4100000D03*
G04 #@! TO.N,/I2C1_SCL*
X52000000Y400000D03*
X43300000Y2900000D03*
G04 #@! TO.N,/I2C1_SDA*
X51100000Y400000D03*
X43500000Y100000D03*
G04 #@! TO.N,/VSENSE*
X38800000Y-1000000D03*
X27900000Y-400000D03*
G04 #@! TO.N,/HEAT_ON*
X43900000Y3500000D03*
X28000000Y2600000D03*
G04 #@! TO.N,/INT0*
X42400000Y0D03*
X36400000Y2900000D03*
G04 #@! TO.N,/NRST*
X44200000Y-2940590D03*
X52100000Y-1500000D03*
G04 #@! TO.N,/USB_N*
X50050000Y2750000D03*
G04 #@! TO.N,/USB_P*
X62200000Y2350000D03*
X50625000Y2125000D03*
G04 #@! TD*
D12*
G04 #@! TO.N,/BTN1*
X48600000Y-3300000D02*
X48800000Y-3500000D01*
X48800000Y-3500000D02*
X63100000Y-3500000D01*
X63100000Y-3500000D02*
X63300000Y-3300000D01*
D13*
G04 #@! TO.N,/USB_N*
X60100000Y2900000D02*
X59950000Y2750000D01*
X59950000Y2750000D02*
X50050000Y2750000D01*
D12*
G04 #@! TO.N,/CC2*
X68900000Y-1000000D02*
X63200000Y-1000000D01*
X69700000Y1200000D02*
X69700000Y-200000D01*
X69700000Y-200000D02*
X68900000Y-1000000D01*
X63200000Y-1000000D02*
X62000000Y-2200000D01*
D14*
G04 #@! TO.N,+3V3*
X46300000Y4300000D02*
X48400000Y4300000D01*
X48600000Y4500000D02*
X58250000Y4500000D01*
D15*
X44500000Y4300000D02*
X46300000Y4300000D01*
D14*
X48400000Y4300000D02*
X48600000Y4500000D01*
D15*
X41100000Y4300000D02*
X44500000Y4300000D01*
X41100000Y4300000D02*
X34100000Y4300000D01*
D12*
G04 #@! TO.N,/BTN2*
X63818011Y3818011D02*
X49518011Y3818011D01*
X64100000Y4100000D02*
X63818011Y3818011D01*
X49518011Y3818011D02*
X49300000Y3600000D01*
G04 #@! TO.N,/TEMP_SENS*
X33700000Y-1600000D02*
X32000000Y-3300000D01*
X37000000Y-1600000D02*
X33700000Y-1600000D01*
G04 #@! TO.N,/CC2*
X51500000Y-2200000D02*
X62000000Y-2200000D01*
G04 #@! TO.N,/CC1*
X69420001Y-1579999D02*
X63720001Y-1579999D01*
X63720001Y-1579999D02*
X63100000Y-2200000D01*
X51000000Y-2900000D02*
X62400000Y-2900000D01*
X62400000Y-2900000D02*
X63100000Y-2200000D01*
X69700000Y-1300000D02*
X69420001Y-1579999D01*
D16*
G04 #@! TO.N,/TIP_TC*
X31300000Y4100000D02*
X6550000Y4100000D01*
D12*
G04 #@! TO.N,/I2C1_SCL*
X51300000Y1100000D02*
X52000000Y400000D01*
X45100000Y1100000D02*
X51300000Y1100000D01*
X43300000Y2900000D02*
X45100000Y1100000D01*
G04 #@! TO.N,/I2C1_SDA*
X50900000Y600000D02*
X51100000Y400000D01*
X43500000Y100000D02*
X44000000Y600000D01*
X44000000Y600000D02*
X50900000Y600000D01*
D17*
G04 #@! TO.N,/VSENSE*
X31300000Y-1000000D02*
X30700000Y-400000D01*
X38800000Y-1000000D02*
X31300000Y-1000000D01*
X30700000Y-400000D02*
X27900000Y-400000D01*
D12*
G04 #@! TO.N,/HEAT_ON*
X35986043Y3500000D02*
X43900000Y3500000D01*
X35086043Y2600000D02*
X35986043Y3500000D01*
X28000000Y2600000D02*
X35086043Y2600000D01*
G04 #@! TO.N,/INT0*
X36500000Y3000000D02*
X36400000Y2900000D01*
X39400000Y3000000D02*
X36500000Y3000000D01*
X42400000Y0D02*
X39400000Y3000000D01*
G04 #@! TO.N,/NRST*
X44200000Y-2940590D02*
X46120589Y-1020001D01*
X51620001Y-1020001D02*
X52100000Y-1500000D01*
X46120589Y-1020001D02*
X51620001Y-1020001D01*
D13*
G04 #@! TO.N,/USB_P*
X62200000Y2350000D02*
X62125000Y2275000D01*
X50775000Y2275000D02*
X50625000Y2125000D01*
X62125000Y2275000D02*
X50775000Y2275000D01*
G04 #@! TD*
G04 #@! TA.AperFunction,Conductor*
G04 #@! TO.N,GND*
G36*
X74708400Y5235925D02*
G01*
X74735925Y5208400D01*
X74746000Y5170800D01*
X74746001Y-5170800D01*
X74735926Y-5208400D01*
X74708401Y-5235925D01*
X74670801Y-5246000D01*
X329200Y-5246000D01*
X291600Y-5235925D01*
X264075Y-5208400D01*
X254000Y-5170800D01*
X254000Y-4492653D01*
X23123851Y-4492653D01*
X23132445Y-4594989D01*
X23160752Y-4693707D01*
X23207694Y-4785047D01*
X23271483Y-4865529D01*
X23349691Y-4932089D01*
X23352892Y-4933878D01*
X23352895Y-4933880D01*
X23436125Y-4980396D01*
X23436130Y-4980398D01*
X23439336Y-4982190D01*
X23537006Y-5013925D01*
X23611616Y-5022822D01*
X23635323Y-5025649D01*
X23635324Y-5025649D01*
X23638980Y-5026085D01*
X23741374Y-5018206D01*
X23800516Y-5001693D01*
X23836742Y-4991579D01*
X23836744Y-4991578D01*
X23840287Y-4990589D01*
X23856914Y-4982190D01*
X23928669Y-4945944D01*
X23928674Y-4945941D01*
X23931952Y-4944285D01*
X23950606Y-4929711D01*
X24009985Y-4883320D01*
X24009989Y-4883316D01*
X24012878Y-4881059D01*
X24066140Y-4819355D01*
X24077577Y-4806106D01*
X24077580Y-4806102D01*
X24079982Y-4803319D01*
X24081798Y-4800122D01*
X24081801Y-4800118D01*
X24128890Y-4717226D01*
X24128892Y-4717223D01*
X24130708Y-4714025D01*
X24163124Y-4616579D01*
X24175995Y-4514692D01*
X24176200Y-4500000D01*
X24172421Y-4461448D01*
X68012479Y-4461448D01*
X68033745Y-4540817D01*
X68035984Y-4546968D01*
X68081452Y-4644473D01*
X68084724Y-4650141D01*
X68146430Y-4738267D01*
X68150645Y-4743290D01*
X68226710Y-4819355D01*
X68231733Y-4823570D01*
X68319859Y-4885276D01*
X68325527Y-4888548D01*
X68423032Y-4934016D01*
X68429183Y-4936255D01*
X68533107Y-4964101D01*
X68539549Y-4965237D01*
X68619781Y-4972256D01*
X68623075Y-4972400D01*
X69063098Y-4972400D01*
X69070908Y-4970308D01*
X69073000Y-4962498D01*
X69326999Y-4962498D01*
X69329091Y-4970308D01*
X69336901Y-4972400D01*
X69776925Y-4972400D01*
X69780219Y-4972256D01*
X69860451Y-4965237D01*
X69866893Y-4964101D01*
X69970817Y-4936255D01*
X69976968Y-4934016D01*
X70074473Y-4888548D01*
X70080141Y-4885276D01*
X70168267Y-4823570D01*
X70173290Y-4819355D01*
X70249355Y-4743290D01*
X70253570Y-4738267D01*
X70315276Y-4650141D01*
X70318548Y-4644473D01*
X70364016Y-4546968D01*
X70366255Y-4540817D01*
X70387521Y-4461448D01*
X72342479Y-4461448D01*
X72363745Y-4540817D01*
X72365984Y-4546968D01*
X72411452Y-4644473D01*
X72414724Y-4650141D01*
X72476430Y-4738267D01*
X72480645Y-4743290D01*
X72556710Y-4819355D01*
X72561733Y-4823570D01*
X72649859Y-4885276D01*
X72655527Y-4888548D01*
X72753032Y-4934016D01*
X72759183Y-4936255D01*
X72863107Y-4964101D01*
X72869549Y-4965237D01*
X72949781Y-4972256D01*
X72953075Y-4972400D01*
X73243098Y-4972400D01*
X73250908Y-4970308D01*
X73253000Y-4962498D01*
X73506999Y-4962498D01*
X73509091Y-4970308D01*
X73516901Y-4972400D01*
X73806925Y-4972400D01*
X73810219Y-4972256D01*
X73890451Y-4965237D01*
X73896893Y-4964101D01*
X74000817Y-4936255D01*
X74006968Y-4934016D01*
X74104473Y-4888548D01*
X74110141Y-4885276D01*
X74198267Y-4823570D01*
X74203290Y-4819355D01*
X74279355Y-4743290D01*
X74283570Y-4738267D01*
X74345276Y-4650141D01*
X74348548Y-4644473D01*
X74394016Y-4546968D01*
X74396255Y-4540817D01*
X74418831Y-4456562D01*
X74418831Y-4452134D01*
X74406436Y-4447000D01*
X73516902Y-4446999D01*
X73509092Y-4449091D01*
X73507000Y-4456901D01*
X73506999Y-4962498D01*
X73253000Y-4962498D01*
X73253001Y-4456902D01*
X73250909Y-4449092D01*
X73243099Y-4447000D01*
X72348509Y-4446999D01*
X72344230Y-4448145D01*
X72342479Y-4461448D01*
X70387521Y-4461448D01*
X70388831Y-4456562D01*
X70388831Y-4452134D01*
X70376436Y-4447000D01*
X69336902Y-4446999D01*
X69329092Y-4449091D01*
X69327000Y-4456901D01*
X69326999Y-4962498D01*
X69073000Y-4962498D01*
X69073001Y-4456902D01*
X69070909Y-4449092D01*
X69063099Y-4447000D01*
X68018509Y-4446999D01*
X68014230Y-4448145D01*
X68012479Y-4461448D01*
X24172421Y-4461448D01*
X24166179Y-4397794D01*
X24136496Y-4299481D01*
X24088283Y-4208805D01*
X24067595Y-4183438D01*
X68011169Y-4183438D01*
X68011169Y-4187866D01*
X68023564Y-4193000D01*
X69063098Y-4193001D01*
X69070908Y-4190909D01*
X69073000Y-4183099D01*
X69073000Y-4183098D01*
X69326999Y-4183098D01*
X69329091Y-4190908D01*
X69336901Y-4193000D01*
X70381491Y-4193001D01*
X70385770Y-4191855D01*
X70386877Y-4183438D01*
X72341169Y-4183438D01*
X72341169Y-4187866D01*
X72353564Y-4193000D01*
X73243098Y-4193001D01*
X73250908Y-4190909D01*
X73253000Y-4183099D01*
X73253000Y-4183098D01*
X73506999Y-4183098D01*
X73509091Y-4190908D01*
X73516901Y-4193000D01*
X74411491Y-4193001D01*
X74415770Y-4191855D01*
X74417521Y-4178552D01*
X74396255Y-4099183D01*
X74394016Y-4093032D01*
X74348548Y-3995527D01*
X74345276Y-3989859D01*
X74283570Y-3901733D01*
X74279355Y-3896710D01*
X74203290Y-3820645D01*
X74198267Y-3816430D01*
X74110141Y-3754724D01*
X74104473Y-3751452D01*
X74006968Y-3705984D01*
X74000817Y-3703745D01*
X73896893Y-3675899D01*
X73890451Y-3674763D01*
X73810219Y-3667744D01*
X73806925Y-3667600D01*
X73516902Y-3667600D01*
X73509092Y-3669692D01*
X73507000Y-3677502D01*
X73506999Y-4183098D01*
X73253000Y-4183098D01*
X73253001Y-3677502D01*
X73250909Y-3669692D01*
X73243099Y-3667600D01*
X72953075Y-3667600D01*
X72949781Y-3667744D01*
X72869549Y-3674763D01*
X72863107Y-3675899D01*
X72759183Y-3703745D01*
X72753032Y-3705984D01*
X72655527Y-3751452D01*
X72649859Y-3754724D01*
X72561733Y-3816430D01*
X72556710Y-3820645D01*
X72480645Y-3896710D01*
X72476430Y-3901733D01*
X72414724Y-3989859D01*
X72411452Y-3995527D01*
X72365984Y-4093032D01*
X72363745Y-4099183D01*
X72341169Y-4183438D01*
X70386877Y-4183438D01*
X70387521Y-4178552D01*
X70366255Y-4099183D01*
X70364016Y-4093032D01*
X70318548Y-3995527D01*
X70315276Y-3989859D01*
X70253570Y-3901733D01*
X70249355Y-3896710D01*
X70173290Y-3820645D01*
X70168267Y-3816430D01*
X70080141Y-3754724D01*
X70074473Y-3751452D01*
X69976968Y-3705984D01*
X69970817Y-3703745D01*
X69866893Y-3675899D01*
X69860451Y-3674763D01*
X69780219Y-3667744D01*
X69776925Y-3667600D01*
X69336902Y-3667600D01*
X69329092Y-3669692D01*
X69327000Y-3677502D01*
X69326999Y-4183098D01*
X69073000Y-4183098D01*
X69073001Y-3677502D01*
X69070909Y-3669692D01*
X69063099Y-3667600D01*
X68623075Y-3667600D01*
X68619781Y-3667744D01*
X68539549Y-3674763D01*
X68533107Y-3675899D01*
X68429183Y-3703745D01*
X68423032Y-3705984D01*
X68325527Y-3751452D01*
X68319859Y-3754724D01*
X68231733Y-3816430D01*
X68226710Y-3820645D01*
X68150645Y-3896710D01*
X68146430Y-3901733D01*
X68084724Y-3989859D01*
X68081452Y-3995527D01*
X68035984Y-4093032D01*
X68033745Y-4099183D01*
X68011169Y-4183438D01*
X24067595Y-4183438D01*
X24023376Y-4129221D01*
X23944247Y-4063760D01*
X23853911Y-4014916D01*
X23829077Y-4007229D01*
X23759320Y-3985635D01*
X23759316Y-3985634D01*
X23755807Y-3984548D01*
X23686620Y-3977276D01*
X23657329Y-3974197D01*
X23657327Y-3974197D01*
X23653674Y-3973813D01*
X23602537Y-3978466D01*
X23555058Y-3982787D01*
X23555057Y-3982787D01*
X23551400Y-3983120D01*
X23547876Y-3984157D01*
X23547872Y-3984158D01*
X23456411Y-4011077D01*
X23456408Y-4011078D01*
X23452882Y-4012116D01*
X23449624Y-4013819D01*
X23449622Y-4013820D01*
X23365131Y-4057991D01*
X23361872Y-4059695D01*
X23359006Y-4062000D01*
X23359005Y-4062000D01*
X23320409Y-4093032D01*
X23281837Y-4124044D01*
X23215825Y-4202714D01*
X23214054Y-4205936D01*
X23214053Y-4205937D01*
X23212476Y-4208805D01*
X23166351Y-4292708D01*
X23135299Y-4390597D01*
X23123851Y-4492653D01*
X254000Y-4492653D01*
X254000Y-3379200D01*
X264075Y-3341600D01*
X291600Y-3314075D01*
X329200Y-3304000D01*
X13513695Y-3304000D01*
X13546068Y-3311326D01*
X13609208Y-3341442D01*
X13667071Y-3369041D01*
X13668077Y-3369529D01*
X13678621Y-3374752D01*
X13681389Y-3375625D01*
X13681397Y-3375628D01*
X13797172Y-3412132D01*
X13830978Y-3422791D01*
X13835256Y-3424140D01*
X13836268Y-3424467D01*
X13841981Y-3426362D01*
X13844611Y-3427235D01*
X13844614Y-3427236D01*
X13847376Y-3428152D01*
X13879042Y-3433451D01*
X14009337Y-3455255D01*
X14010432Y-3455447D01*
X14018513Y-3456922D01*
X14021918Y-3457544D01*
X14186061Y-3461842D01*
X14187064Y-3461875D01*
X14194844Y-3462194D01*
X14195951Y-3462240D01*
X14195952Y-3462240D01*
X14198851Y-3462359D01*
X14245704Y-3457021D01*
X14361996Y-3443772D01*
X14363106Y-3443654D01*
X14366162Y-3443352D01*
X14374733Y-3442504D01*
X14533788Y-3401371D01*
X14534744Y-3401131D01*
X14546142Y-3398363D01*
X14639213Y-3359812D01*
X14697862Y-3335519D01*
X14698897Y-3335100D01*
X14707033Y-3331871D01*
X14707044Y-3331866D01*
X14709739Y-3330796D01*
X14829237Y-3260406D01*
X14867403Y-3250000D01*
X15250000Y-3250000D01*
X15250000Y-2830880D01*
X15258497Y-2796156D01*
X15301722Y-2713123D01*
X15302244Y-2712138D01*
X15306390Y-2704455D01*
X15306391Y-2704454D01*
X15307768Y-2701901D01*
X15362606Y-2547046D01*
X15362928Y-2546157D01*
X15367024Y-2535113D01*
X15371848Y-2511401D01*
X15399757Y-2374225D01*
X15399987Y-2373136D01*
X15401866Y-2364551D01*
X15401866Y-2364549D01*
X15402489Y-2361705D01*
X15412380Y-2200000D01*
X26197600Y-2200000D01*
X26198243Y-2204884D01*
X26204116Y-2249491D01*
X26207904Y-2278267D01*
X26238114Y-2351200D01*
X26286171Y-2413829D01*
X26348800Y-2461886D01*
X26421733Y-2492096D01*
X26426611Y-2492738D01*
X26426614Y-2492739D01*
X26495116Y-2501757D01*
X26500000Y-2502400D01*
X26504884Y-2501757D01*
X26573386Y-2492739D01*
X26573389Y-2492738D01*
X26578267Y-2492096D01*
X26651200Y-2461886D01*
X26713829Y-2413829D01*
X26761886Y-2351200D01*
X26792096Y-2278267D01*
X26795885Y-2249491D01*
X26801757Y-2204884D01*
X26802400Y-2200000D01*
X26800431Y-2185045D01*
X26792739Y-2126614D01*
X26792738Y-2126611D01*
X26792096Y-2121733D01*
X26761886Y-2048800D01*
X26713829Y-1986171D01*
X26651200Y-1938114D01*
X26578267Y-1907904D01*
X26573389Y-1907262D01*
X26573386Y-1907261D01*
X26504884Y-1898243D01*
X26500000Y-1897600D01*
X26495116Y-1898243D01*
X26426614Y-1907261D01*
X26426611Y-1907262D01*
X26421733Y-1907904D01*
X26348800Y-1938114D01*
X26286171Y-1986171D01*
X26238114Y-2048800D01*
X26207904Y-2121733D01*
X26207262Y-2126611D01*
X26207261Y-2126614D01*
X26199569Y-2185045D01*
X26197600Y-2200000D01*
X15412380Y-2200000D01*
X15412515Y-2197802D01*
X15412590Y-2196711D01*
X15412647Y-2195960D01*
X15413478Y-2185045D01*
X15411847Y-2164315D01*
X15405413Y-2082570D01*
X15400593Y-2021338D01*
X15400517Y-2020269D01*
X15399957Y-2011475D01*
X15399956Y-2011471D01*
X15399772Y-2008577D01*
X15394805Y-1986171D01*
X15364218Y-1848199D01*
X15363985Y-1847109D01*
X15363583Y-1845159D01*
X15361640Y-1835733D01*
X15356339Y-1821554D01*
X15304143Y-1681947D01*
X15303762Y-1680905D01*
X15300800Y-1672612D01*
X15300799Y-1672609D01*
X15299823Y-1669877D01*
X15263113Y-1602265D01*
X15254000Y-1566384D01*
X15254000Y-26379D01*
X15274924Y25670D01*
X15334221Y87504D01*
X15334223Y87506D01*
X15337040Y90444D01*
X15384913Y168873D01*
X15414829Y255753D01*
X15418002Y283173D01*
X15425149Y344945D01*
X15425149Y344949D01*
X15425390Y347030D01*
X15425400Y350000D01*
X15415476Y441348D01*
X15413692Y446651D01*
X15395738Y500000D01*
X18297600Y500000D01*
X18298243Y495116D01*
X18306378Y433326D01*
X18307904Y421733D01*
X18338114Y348800D01*
X18386171Y286171D01*
X18411746Y266547D01*
X18420721Y259660D01*
X18444418Y228778D01*
X18449499Y190185D01*
X18434602Y154221D01*
X18420722Y140341D01*
X18386171Y113829D01*
X18383173Y109922D01*
X18365971Y87504D01*
X18338114Y51200D01*
X18307904Y-21733D01*
X18307262Y-26611D01*
X18307261Y-26614D01*
X18304182Y-50003D01*
X18297600Y-100000D01*
X18298243Y-104884D01*
X18306976Y-171216D01*
X18307904Y-178267D01*
X18338114Y-251200D01*
X18386171Y-313829D01*
X18408024Y-330597D01*
X18420721Y-340340D01*
X18444418Y-371222D01*
X18449499Y-409815D01*
X18434602Y-445779D01*
X18420722Y-459659D01*
X18386171Y-486171D01*
X18338114Y-548800D01*
X18307904Y-621733D01*
X18307262Y-626611D01*
X18307261Y-626614D01*
X18300320Y-679337D01*
X18297600Y-700000D01*
X18298243Y-704884D01*
X18306827Y-770085D01*
X18307904Y-778267D01*
X18338114Y-851200D01*
X18341112Y-855107D01*
X18380006Y-905794D01*
X18386171Y-913829D01*
X18448800Y-961886D01*
X18521733Y-992096D01*
X18526611Y-992738D01*
X18526614Y-992739D01*
X18600000Y-1002400D01*
X18599913Y-1003059D01*
X18632655Y-1011832D01*
X18660180Y-1039357D01*
X18670255Y-1076957D01*
X18664530Y-1105736D01*
X18659789Y-1117181D01*
X18659788Y-1117184D01*
X18657904Y-1121733D01*
X18657262Y-1126611D01*
X18657261Y-1126614D01*
X18651757Y-1168426D01*
X18647600Y-1200000D01*
X18648243Y-1204884D01*
X18657079Y-1271997D01*
X18657904Y-1278267D01*
X18688114Y-1351200D01*
X18736171Y-1413829D01*
X18740078Y-1416827D01*
X18744432Y-1420168D01*
X18798800Y-1461886D01*
X18871733Y-1492096D01*
X18876611Y-1492738D01*
X18876614Y-1492739D01*
X18945116Y-1501757D01*
X18950000Y-1502400D01*
X18954884Y-1501757D01*
X19023386Y-1492739D01*
X19023389Y-1492738D01*
X19028267Y-1492096D01*
X19101200Y-1461886D01*
X19155568Y-1420168D01*
X19159922Y-1416827D01*
X19163829Y-1413829D01*
X19211886Y-1351200D01*
X19242096Y-1278267D01*
X19242922Y-1271997D01*
X19250443Y-1214865D01*
X19255280Y-1203187D01*
X19250443Y-1185135D01*
X19242739Y-1126614D01*
X19242738Y-1126611D01*
X19242096Y-1121733D01*
X19240212Y-1117184D01*
X19240211Y-1117181D01*
X19235470Y-1105736D01*
X19230388Y-1067143D01*
X19245284Y-1031179D01*
X19276166Y-1007482D01*
X19300044Y-1002732D01*
X19300000Y-1002400D01*
X19337272Y-997493D01*
X19375864Y-1002574D01*
X19406747Y-1026271D01*
X19421644Y-1062234D01*
X19416563Y-1100827D01*
X19409789Y-1117181D01*
X19409788Y-1117184D01*
X19407904Y-1121733D01*
X19407262Y-1126611D01*
X19407261Y-1126614D01*
X19399557Y-1185135D01*
X19394720Y-1196813D01*
X19399557Y-1214865D01*
X19407079Y-1271997D01*
X19407904Y-1278267D01*
X19438114Y-1351200D01*
X19486171Y-1413829D01*
X19490078Y-1416827D01*
X19494432Y-1420168D01*
X19548800Y-1461886D01*
X19621733Y-1492096D01*
X19626611Y-1492738D01*
X19626614Y-1492739D01*
X19695116Y-1501757D01*
X19700000Y-1502400D01*
X19704884Y-1501757D01*
X19773386Y-1492739D01*
X19773389Y-1492738D01*
X19778267Y-1492096D01*
X19851200Y-1461886D01*
X19905568Y-1420168D01*
X19909922Y-1416827D01*
X19913829Y-1413829D01*
X19961886Y-1351200D01*
X19992096Y-1278267D01*
X19992922Y-1271997D01*
X20000443Y-1214865D01*
X20005280Y-1203187D01*
X20000443Y-1185135D01*
X19992739Y-1126614D01*
X19992738Y-1126611D01*
X19992096Y-1121733D01*
X19990212Y-1117184D01*
X19990211Y-1117181D01*
X19983437Y-1100827D01*
X19978356Y-1062234D01*
X19993253Y-1026271D01*
X20024136Y-1002574D01*
X20062728Y-997493D01*
X20100000Y-1002400D01*
X20099913Y-1003059D01*
X20132655Y-1011832D01*
X20160180Y-1039357D01*
X20170255Y-1076957D01*
X20164530Y-1105736D01*
X20159789Y-1117181D01*
X20159788Y-1117184D01*
X20157904Y-1121733D01*
X20157262Y-1126611D01*
X20157261Y-1126614D01*
X20149557Y-1185135D01*
X20144720Y-1196813D01*
X20149557Y-1214865D01*
X20157079Y-1271997D01*
X20157904Y-1278267D01*
X20188114Y-1351200D01*
X20236171Y-1413829D01*
X20240078Y-1416827D01*
X20244432Y-1420168D01*
X20298800Y-1461886D01*
X20371733Y-1492096D01*
X20376611Y-1492738D01*
X20376614Y-1492739D01*
X20445116Y-1501757D01*
X20450000Y-1502400D01*
X20454884Y-1501757D01*
X20523386Y-1492739D01*
X20523389Y-1492738D01*
X20528267Y-1492096D01*
X20601200Y-1461886D01*
X20655568Y-1420168D01*
X20659922Y-1416827D01*
X20663829Y-1413829D01*
X20711886Y-1351200D01*
X20742096Y-1278267D01*
X20742922Y-1271997D01*
X20751757Y-1204884D01*
X20752400Y-1200000D01*
X20751913Y-1196301D01*
X23746819Y-1196301D01*
X23747316Y-1200803D01*
X23747316Y-1200806D01*
X23751286Y-1236758D01*
X23756132Y-1280654D01*
X23757688Y-1284906D01*
X23757689Y-1284910D01*
X23768195Y-1313617D01*
X23785296Y-1360349D01*
X23787824Y-1364111D01*
X23826206Y-1421229D01*
X23832629Y-1430788D01*
X23895398Y-1487903D01*
X23899384Y-1490067D01*
X23899385Y-1490068D01*
X23917678Y-1500000D01*
X23969978Y-1528397D01*
X23974357Y-1529546D01*
X23974360Y-1529547D01*
X24047685Y-1548783D01*
X24052065Y-1549932D01*
X24087198Y-1550484D01*
X24132387Y-1551194D01*
X24132389Y-1551194D01*
X24136919Y-1551265D01*
X24141336Y-1550253D01*
X24141339Y-1550253D01*
X24215219Y-1533332D01*
X24219642Y-1532319D01*
X24295458Y-1494188D01*
X24359989Y-1439073D01*
X24363002Y-1434880D01*
X24406866Y-1373838D01*
X24406868Y-1373835D01*
X24409512Y-1370155D01*
X24430731Y-1317371D01*
X24439473Y-1295625D01*
X24439474Y-1295622D01*
X24441165Y-1291415D01*
X24442439Y-1282462D01*
X24452776Y-1209837D01*
X24452776Y-1209833D01*
X24453123Y-1207397D01*
X24453152Y-1204663D01*
X24453167Y-1203187D01*
X24453200Y-1200000D01*
X24450911Y-1181083D01*
X24443550Y-1120250D01*
X24443549Y-1120246D01*
X24443005Y-1115750D01*
X24413007Y-1036364D01*
X24409444Y-1031179D01*
X24386577Y-997909D01*
X24364939Y-966425D01*
X24301576Y-909970D01*
X24277885Y-897426D01*
X24230584Y-872381D01*
X24230583Y-872381D01*
X24226576Y-870259D01*
X24170178Y-856093D01*
X24148668Y-850690D01*
X24148667Y-850690D01*
X24144268Y-849585D01*
X24139735Y-849561D01*
X24139733Y-849561D01*
X24103564Y-849372D01*
X24059404Y-849141D01*
X23976884Y-868952D01*
X23901472Y-907875D01*
X23898058Y-910853D01*
X23898054Y-910856D01*
X23869926Y-935394D01*
X23837521Y-963663D01*
X23818862Y-990212D01*
X23792026Y-1028397D01*
X23788724Y-1033095D01*
X23787077Y-1037318D01*
X23787077Y-1037319D01*
X23759542Y-1107940D01*
X23759541Y-1107944D01*
X23757896Y-1112163D01*
X23746819Y-1196301D01*
X20751913Y-1196301D01*
X20748243Y-1168426D01*
X20742739Y-1126614D01*
X20742738Y-1126611D01*
X20742096Y-1121733D01*
X20740212Y-1117184D01*
X20740211Y-1117181D01*
X20735470Y-1105736D01*
X20730388Y-1067143D01*
X20745284Y-1031179D01*
X20776166Y-1007482D01*
X20800044Y-1002732D01*
X20800000Y-1002400D01*
X20873386Y-992739D01*
X20873389Y-992738D01*
X20878267Y-992096D01*
X20951200Y-961886D01*
X21013829Y-913829D01*
X21019995Y-905794D01*
X21058888Y-855107D01*
X21061886Y-851200D01*
X21092096Y-778267D01*
X21093174Y-770085D01*
X21101757Y-704884D01*
X21102400Y-700000D01*
X21101914Y-696301D01*
X23046819Y-696301D01*
X23047316Y-700803D01*
X23047316Y-700806D01*
X23051074Y-734842D01*
X23056132Y-780654D01*
X23057688Y-784906D01*
X23057689Y-784910D01*
X23066754Y-809681D01*
X23085296Y-860349D01*
X23087824Y-864111D01*
X23123248Y-916827D01*
X23132629Y-930788D01*
X23195398Y-987903D01*
X23199384Y-990067D01*
X23199385Y-990068D01*
X23217199Y-999740D01*
X23269978Y-1028397D01*
X23274357Y-1029546D01*
X23274360Y-1029547D01*
X23332316Y-1044751D01*
X23352065Y-1049932D01*
X23387198Y-1050484D01*
X23432387Y-1051194D01*
X23432389Y-1051194D01*
X23436919Y-1051265D01*
X23441336Y-1050253D01*
X23441339Y-1050253D01*
X23515219Y-1033332D01*
X23519642Y-1032319D01*
X23560376Y-1011832D01*
X23591412Y-996223D01*
X23591413Y-996223D01*
X23595458Y-994188D01*
X23659989Y-939073D01*
X23662633Y-935394D01*
X23706866Y-873838D01*
X23706868Y-873835D01*
X23709512Y-870155D01*
X23729350Y-820805D01*
X23739473Y-795625D01*
X23739474Y-795622D01*
X23741165Y-791415D01*
X23742280Y-783584D01*
X23752776Y-709837D01*
X23752776Y-709833D01*
X23753123Y-707397D01*
X23753200Y-700000D01*
X23749103Y-666141D01*
X23743550Y-620250D01*
X23743549Y-620246D01*
X23743005Y-615750D01*
X23713007Y-536364D01*
X23708827Y-530281D01*
X23677600Y-484847D01*
X23664939Y-466425D01*
X23601576Y-409970D01*
X23551546Y-383480D01*
X23530584Y-372381D01*
X23530583Y-372381D01*
X23526576Y-370259D01*
X23480342Y-358646D01*
X23448668Y-350690D01*
X23448667Y-350690D01*
X23444268Y-349585D01*
X23439735Y-349561D01*
X23439733Y-349561D01*
X23403564Y-349372D01*
X23359404Y-349141D01*
X23276884Y-368952D01*
X23201472Y-407875D01*
X23198058Y-410853D01*
X23198054Y-410856D01*
X23162993Y-441442D01*
X23137521Y-463663D01*
X23118136Y-491246D01*
X23092026Y-528397D01*
X23088724Y-533095D01*
X23087077Y-537318D01*
X23087077Y-537319D01*
X23059542Y-607940D01*
X23059541Y-607944D01*
X23057896Y-612163D01*
X23046819Y-696301D01*
X21101914Y-696301D01*
X21099680Y-679337D01*
X21092739Y-626614D01*
X21092738Y-626611D01*
X21092096Y-621733D01*
X21061886Y-548800D01*
X21013829Y-486171D01*
X20979279Y-459660D01*
X20955582Y-428778D01*
X20950501Y-390185D01*
X20965398Y-354221D01*
X20979279Y-340340D01*
X20991977Y-330597D01*
X21013829Y-313829D01*
X21061886Y-251200D01*
X21084626Y-196301D01*
X23746819Y-196301D01*
X23747316Y-200803D01*
X23747316Y-200806D01*
X23751137Y-235414D01*
X23756132Y-280654D01*
X23757688Y-284906D01*
X23757689Y-284910D01*
X23763859Y-301770D01*
X23785296Y-360349D01*
X23787824Y-364111D01*
X23825921Y-420805D01*
X23832629Y-430788D01*
X23895398Y-487903D01*
X23899384Y-490067D01*
X23899385Y-490068D01*
X23901555Y-491246D01*
X23969978Y-528397D01*
X23974357Y-529546D01*
X23974360Y-529547D01*
X24032857Y-544893D01*
X24052065Y-549932D01*
X24087198Y-550484D01*
X24132387Y-551194D01*
X24132389Y-551194D01*
X24136919Y-551265D01*
X24141336Y-550253D01*
X24141339Y-550253D01*
X24215219Y-533332D01*
X24219642Y-532319D01*
X24295458Y-494188D01*
X24352449Y-445512D01*
X27466985Y-445512D01*
X27467845Y-449488D01*
X27467845Y-449491D01*
X27470909Y-463663D01*
X27486859Y-537434D01*
X27526009Y-622943D01*
X27528459Y-626194D01*
X27528460Y-626196D01*
X27538542Y-639575D01*
X27582607Y-698052D01*
X27585695Y-700698D01*
X27585698Y-700702D01*
X27650916Y-756600D01*
X27650919Y-756602D01*
X27654013Y-759254D01*
X27736896Y-803696D01*
X27762217Y-810861D01*
X27823472Y-828195D01*
X27823476Y-828196D01*
X27827389Y-829303D01*
X27881307Y-832506D01*
X27917207Y-834639D01*
X27917210Y-834639D01*
X27921269Y-834880D01*
X28014157Y-820168D01*
X28017946Y-818683D01*
X28017950Y-818682D01*
X28067730Y-799173D01*
X28101719Y-785853D01*
X28105106Y-783585D01*
X28105109Y-783584D01*
X28175057Y-736758D01*
X28179870Y-733536D01*
X28187050Y-726049D01*
X28220345Y-705886D01*
X28241324Y-702900D01*
X30543388Y-702900D01*
X30580988Y-712975D01*
X30596562Y-724926D01*
X30833521Y-961886D01*
X31068903Y-1197268D01*
X31075389Y-1204663D01*
X31084050Y-1215950D01*
X31099244Y-1227609D01*
X31099245Y-1227610D01*
X31147299Y-1264484D01*
X31171362Y-1274451D01*
X31220957Y-1294994D01*
X31225837Y-1295636D01*
X31225839Y-1295637D01*
X31258230Y-1299901D01*
X31281010Y-1302900D01*
X31281015Y-1302900D01*
X31281024Y-1302901D01*
X31295115Y-1304756D01*
X31299999Y-1305399D01*
X31304883Y-1304756D01*
X31314097Y-1303543D01*
X31323912Y-1302900D01*
X33419714Y-1302900D01*
X33457314Y-1312975D01*
X33484839Y-1340500D01*
X33494914Y-1378100D01*
X33472888Y-1431274D01*
X32765318Y-2138845D01*
X32060103Y-2844060D01*
X32010865Y-2865983D01*
X31969050Y-2868175D01*
X31930388Y-2870201D01*
X31926461Y-2871283D01*
X31926459Y-2871283D01*
X31850890Y-2892098D01*
X31839719Y-2895175D01*
X31756527Y-2939037D01*
X31751092Y-2943630D01*
X31687805Y-2997112D01*
X31687802Y-2997115D01*
X31684696Y-2999740D01*
X31682225Y-3002972D01*
X31682224Y-3002973D01*
X31680064Y-3005798D01*
X31627574Y-3074451D01*
X31625853Y-3078142D01*
X31589548Y-3155998D01*
X31589546Y-3156004D01*
X31587829Y-3159686D01*
X31586942Y-3163654D01*
X31586941Y-3163657D01*
X31581183Y-3189417D01*
X31567313Y-3251466D01*
X31567226Y-3276393D01*
X31567021Y-3335308D01*
X31566985Y-3345512D01*
X31567845Y-3349488D01*
X31567845Y-3349491D01*
X31577126Y-3392418D01*
X31586859Y-3437434D01*
X31626009Y-3522943D01*
X31628459Y-3526194D01*
X31628460Y-3526196D01*
X31656774Y-3563770D01*
X31682607Y-3598052D01*
X31685695Y-3600698D01*
X31685698Y-3600702D01*
X31750916Y-3656600D01*
X31750919Y-3656602D01*
X31754013Y-3659254D01*
X31836896Y-3703696D01*
X31844982Y-3705984D01*
X31923472Y-3728195D01*
X31923476Y-3728196D01*
X31927389Y-3729303D01*
X31981307Y-3732506D01*
X32017207Y-3734639D01*
X32017210Y-3734639D01*
X32021269Y-3734880D01*
X32114157Y-3720168D01*
X32117946Y-3718683D01*
X32117950Y-3718682D01*
X32161103Y-3701770D01*
X32201719Y-3685853D01*
X32205106Y-3683585D01*
X32205109Y-3683584D01*
X32276484Y-3635803D01*
X32276486Y-3635802D01*
X32279870Y-3633536D01*
X32344963Y-3565657D01*
X32348551Y-3559780D01*
X32366991Y-3529570D01*
X32393962Y-3485384D01*
X32424580Y-3396462D01*
X32426018Y-3384038D01*
X32430989Y-3341070D01*
X32435389Y-3303040D01*
X32435400Y-3300000D01*
X32435172Y-3297899D01*
X32435070Y-3295958D01*
X32443162Y-3257881D01*
X32456993Y-3238844D01*
X32709735Y-2986102D01*
X43766985Y-2986102D01*
X43767845Y-2990078D01*
X43767845Y-2990081D01*
X43776387Y-3029589D01*
X43786859Y-3078024D01*
X43826009Y-3163533D01*
X43828459Y-3166784D01*
X43828460Y-3166786D01*
X43860410Y-3209185D01*
X43882607Y-3238642D01*
X43885695Y-3241288D01*
X43885698Y-3241292D01*
X43950916Y-3297190D01*
X43950919Y-3297192D01*
X43954013Y-3299844D01*
X44036896Y-3344286D01*
X44072580Y-3354384D01*
X44123472Y-3368785D01*
X44123476Y-3368786D01*
X44127389Y-3369893D01*
X44181307Y-3373096D01*
X44217207Y-3375229D01*
X44217210Y-3375229D01*
X44221269Y-3375470D01*
X44314157Y-3360758D01*
X44317946Y-3359273D01*
X44317950Y-3359272D01*
X44364395Y-3341070D01*
X44401719Y-3326443D01*
X44405106Y-3324175D01*
X44405109Y-3324174D01*
X44476484Y-3276393D01*
X44476486Y-3276392D01*
X44479870Y-3274126D01*
X44544963Y-3206247D01*
X44593962Y-3125974D01*
X44624580Y-3037052D01*
X44625444Y-3029589D01*
X44635149Y-2945703D01*
X44635389Y-2943630D01*
X44635400Y-2940590D01*
X44635172Y-2938489D01*
X44635070Y-2936548D01*
X44643162Y-2898471D01*
X44656993Y-2879434D01*
X44682734Y-2853693D01*
X44716445Y-2834229D01*
X44755371Y-2834229D01*
X44789082Y-2853693D01*
X44808546Y-2887404D01*
X44810465Y-2916682D01*
X44804067Y-2965284D01*
X44802308Y-2978643D01*
X44802951Y-2983527D01*
X44810505Y-3040903D01*
X44812612Y-3056910D01*
X44842822Y-3129843D01*
X44890879Y-3192472D01*
X44953508Y-3240529D01*
X45026441Y-3270739D01*
X45031319Y-3271381D01*
X45031322Y-3271382D01*
X45099824Y-3280400D01*
X45104708Y-3281043D01*
X45109592Y-3280400D01*
X45178094Y-3271382D01*
X45178097Y-3271381D01*
X45182975Y-3270739D01*
X45190350Y-3267684D01*
X45562197Y-3267684D01*
X45562840Y-3272568D01*
X45571595Y-3339068D01*
X45572501Y-3345951D01*
X45602711Y-3418884D01*
X45650768Y-3481513D01*
X45713397Y-3529570D01*
X45786330Y-3559780D01*
X45791208Y-3560422D01*
X45791211Y-3560423D01*
X45859713Y-3569441D01*
X45864597Y-3570084D01*
X45869481Y-3569441D01*
X45937983Y-3560423D01*
X45937986Y-3560422D01*
X45942864Y-3559780D01*
X46015797Y-3529570D01*
X46078426Y-3481513D01*
X46126483Y-3418884D01*
X46156693Y-3345951D01*
X46157600Y-3339068D01*
X46162742Y-3300000D01*
X46585187Y-3300000D01*
X46585830Y-3304884D01*
X46594389Y-3369893D01*
X46595491Y-3378267D01*
X46625701Y-3451200D01*
X46673758Y-3513829D01*
X46736387Y-3561886D01*
X46809320Y-3592096D01*
X46814198Y-3592738D01*
X46814201Y-3592739D01*
X46882703Y-3601757D01*
X46887587Y-3602400D01*
X46892471Y-3601757D01*
X46960973Y-3592739D01*
X46960976Y-3592738D01*
X46965854Y-3592096D01*
X47038787Y-3561886D01*
X47101416Y-3513829D01*
X47149473Y-3451200D01*
X47179683Y-3378267D01*
X47180786Y-3369893D01*
X47189344Y-3304884D01*
X47189987Y-3300000D01*
X47186376Y-3272568D01*
X47180326Y-3226614D01*
X47180325Y-3226611D01*
X47179683Y-3221733D01*
X47149473Y-3148800D01*
X47101416Y-3086171D01*
X47038787Y-3038114D01*
X46965854Y-3007904D01*
X46960976Y-3007262D01*
X46960973Y-3007261D01*
X46892471Y-2998243D01*
X46887587Y-2997600D01*
X46882703Y-2998243D01*
X46814201Y-3007261D01*
X46814198Y-3007262D01*
X46809320Y-3007904D01*
X46736387Y-3038114D01*
X46673758Y-3086171D01*
X46625701Y-3148800D01*
X46595491Y-3221733D01*
X46594849Y-3226611D01*
X46594848Y-3226614D01*
X46588798Y-3272568D01*
X46585187Y-3300000D01*
X46162742Y-3300000D01*
X46166354Y-3272568D01*
X46166997Y-3267684D01*
X46163670Y-3242413D01*
X46157336Y-3194298D01*
X46157335Y-3194295D01*
X46156693Y-3189417D01*
X46126483Y-3116484D01*
X46078426Y-3053855D01*
X46015797Y-3005798D01*
X45942864Y-2975588D01*
X45937986Y-2974946D01*
X45937983Y-2974945D01*
X45869481Y-2965927D01*
X45864597Y-2965284D01*
X45859713Y-2965927D01*
X45791211Y-2974945D01*
X45791208Y-2974946D01*
X45786330Y-2975588D01*
X45713397Y-3005798D01*
X45650768Y-3053855D01*
X45602711Y-3116484D01*
X45572501Y-3189417D01*
X45571859Y-3194295D01*
X45571858Y-3194298D01*
X45565524Y-3242413D01*
X45562197Y-3267684D01*
X45190350Y-3267684D01*
X45255908Y-3240529D01*
X45318537Y-3192472D01*
X45366594Y-3129843D01*
X45396804Y-3056910D01*
X45398912Y-3040903D01*
X45406465Y-2983527D01*
X45407108Y-2978643D01*
X45402803Y-2945944D01*
X45397447Y-2905257D01*
X45397446Y-2905254D01*
X45396804Y-2900376D01*
X45366594Y-2827443D01*
X45336275Y-2787930D01*
X45321535Y-2768721D01*
X45318537Y-2764814D01*
X45255908Y-2716757D01*
X45182975Y-2686547D01*
X45178097Y-2685905D01*
X45178094Y-2685904D01*
X45109592Y-2676886D01*
X45104708Y-2676243D01*
X45099824Y-2676886D01*
X45099823Y-2676886D01*
X45042747Y-2684400D01*
X45004154Y-2679319D01*
X44973272Y-2655622D01*
X44958375Y-2619658D01*
X44963456Y-2581065D01*
X44979758Y-2556669D01*
X45453858Y-2082570D01*
X46214501Y-1321927D01*
X46267675Y-1299901D01*
X51472915Y-1299901D01*
X51510515Y-1309976D01*
X51526090Y-1321927D01*
X51645138Y-1440976D01*
X51664601Y-1474687D01*
X51667163Y-1494412D01*
X51667041Y-1529547D01*
X51666985Y-1545512D01*
X51667845Y-1549488D01*
X51667845Y-1549491D01*
X51675627Y-1585482D01*
X51686859Y-1637434D01*
X51705061Y-1677189D01*
X51711552Y-1715566D01*
X51697985Y-1752052D01*
X51667992Y-1776865D01*
X51617579Y-1780836D01*
X51617088Y-1780639D01*
X51613067Y-1779973D01*
X51613066Y-1779973D01*
X51567658Y-1772456D01*
X51524305Y-1765279D01*
X51520238Y-1765492D01*
X51520235Y-1765492D01*
X51473248Y-1767955D01*
X51430388Y-1770201D01*
X51426461Y-1771283D01*
X51426459Y-1771283D01*
X51367460Y-1787534D01*
X51339719Y-1795175D01*
X51256527Y-1839037D01*
X51244319Y-1849354D01*
X51187805Y-1897112D01*
X51187802Y-1897115D01*
X51184696Y-1899740D01*
X51127574Y-1974451D01*
X51125853Y-1978142D01*
X51089548Y-2055998D01*
X51089546Y-2056004D01*
X51087829Y-2059686D01*
X51086942Y-2063654D01*
X51086941Y-2063657D01*
X51077571Y-2105576D01*
X51067313Y-2151466D01*
X51066985Y-2245512D01*
X51086859Y-2337434D01*
X51088556Y-2341140D01*
X51096885Y-2359332D01*
X51103377Y-2397713D01*
X51089809Y-2434198D01*
X51059816Y-2459011D01*
X51025554Y-2465486D01*
X51024305Y-2465279D01*
X51020239Y-2465492D01*
X51020238Y-2465492D01*
X50988836Y-2467138D01*
X50930388Y-2470201D01*
X50926461Y-2471283D01*
X50926459Y-2471283D01*
X50857741Y-2490211D01*
X50839719Y-2495175D01*
X50836118Y-2497074D01*
X50836112Y-2497076D01*
X50827282Y-2501732D01*
X50789323Y-2510357D01*
X50752137Y-2498846D01*
X50725689Y-2470285D01*
X50717064Y-2432326D01*
X50732549Y-2389433D01*
X50758888Y-2355107D01*
X50761886Y-2351200D01*
X50792096Y-2278267D01*
X50795885Y-2249491D01*
X50801757Y-2204884D01*
X50802400Y-2200000D01*
X50800431Y-2185045D01*
X50792739Y-2126614D01*
X50792738Y-2126611D01*
X50792096Y-2121733D01*
X50761886Y-2048800D01*
X50713829Y-1986171D01*
X50651200Y-1938114D01*
X50578267Y-1907904D01*
X50573389Y-1907262D01*
X50573386Y-1907261D01*
X50504884Y-1898243D01*
X50500000Y-1897600D01*
X50495116Y-1898243D01*
X50426614Y-1907261D01*
X50426611Y-1907262D01*
X50421733Y-1907904D01*
X50348800Y-1938114D01*
X50286171Y-1986171D01*
X50238114Y-2048800D01*
X50207904Y-2121733D01*
X50207262Y-2126611D01*
X50207261Y-2126614D01*
X50199569Y-2185045D01*
X50197600Y-2200000D01*
X50198243Y-2204884D01*
X50204116Y-2249491D01*
X50207904Y-2278267D01*
X50238114Y-2351200D01*
X50286171Y-2413829D01*
X50348800Y-2461886D01*
X50421733Y-2492096D01*
X50426611Y-2492738D01*
X50426614Y-2492739D01*
X50495116Y-2501757D01*
X50500000Y-2502400D01*
X50504884Y-2501757D01*
X50573386Y-2492739D01*
X50573389Y-2492738D01*
X50578267Y-2492096D01*
X50582816Y-2490212D01*
X50582819Y-2490211D01*
X50596081Y-2484718D01*
X50634675Y-2479638D01*
X50670638Y-2494535D01*
X50694334Y-2525417D01*
X50699414Y-2564011D01*
X50684597Y-2599869D01*
X50669467Y-2619658D01*
X50630048Y-2671214D01*
X50630044Y-2671220D01*
X50627574Y-2674451D01*
X50621934Y-2686547D01*
X50589548Y-2755998D01*
X50589546Y-2756004D01*
X50587829Y-2759686D01*
X50586942Y-2763654D01*
X50586941Y-2763657D01*
X50577966Y-2803810D01*
X50567313Y-2851466D01*
X50567214Y-2879974D01*
X50567008Y-2939037D01*
X50566985Y-2945512D01*
X50567845Y-2949488D01*
X50567845Y-2949491D01*
X50575761Y-2986102D01*
X50586859Y-3037434D01*
X50608550Y-3084811D01*
X50621729Y-3113595D01*
X50628221Y-3151976D01*
X50614653Y-3188461D01*
X50584660Y-3213274D01*
X50553355Y-3220100D01*
X49804761Y-3220100D01*
X49767161Y-3210025D01*
X49739636Y-3182500D01*
X49729561Y-3144900D01*
X49745100Y-3099122D01*
X49749555Y-3093316D01*
X49761886Y-3077246D01*
X49792096Y-3004313D01*
X49792896Y-2998243D01*
X49801757Y-2930930D01*
X49802400Y-2926046D01*
X49801020Y-2915565D01*
X49792739Y-2852660D01*
X49792738Y-2852657D01*
X49792096Y-2847779D01*
X49761886Y-2774846D01*
X49713829Y-2712217D01*
X49651200Y-2664160D01*
X49578267Y-2633950D01*
X49573389Y-2633308D01*
X49573386Y-2633307D01*
X49504884Y-2624289D01*
X49500000Y-2623646D01*
X49495116Y-2624289D01*
X49426614Y-2633307D01*
X49426611Y-2633308D01*
X49421733Y-2633950D01*
X49348800Y-2664160D01*
X49286171Y-2712217D01*
X49238114Y-2774846D01*
X49207904Y-2847779D01*
X49207262Y-2852657D01*
X49207261Y-2852660D01*
X49198980Y-2915565D01*
X49197600Y-2926046D01*
X49198243Y-2930930D01*
X49207105Y-2998243D01*
X49207904Y-3004313D01*
X49238114Y-3077246D01*
X49250445Y-3093316D01*
X49254900Y-3099122D01*
X49269796Y-3135085D01*
X49264715Y-3173678D01*
X49241017Y-3204561D01*
X49195239Y-3220100D01*
X49083855Y-3220100D01*
X49046255Y-3210025D01*
X49012583Y-3168886D01*
X48996545Y-3121229D01*
X48996543Y-3121224D01*
X48995246Y-3117371D01*
X48992978Y-3113595D01*
X48955985Y-3052029D01*
X48946809Y-3036758D01*
X48904086Y-2991579D01*
X48884985Y-2971380D01*
X48884982Y-2971378D01*
X48882191Y-2968426D01*
X48804408Y-2915565D01*
X48717088Y-2880639D01*
X48624305Y-2865279D01*
X48620238Y-2865492D01*
X48620235Y-2865492D01*
X48574160Y-2867907D01*
X48530388Y-2870201D01*
X48526461Y-2871283D01*
X48526459Y-2871283D01*
X48450890Y-2892098D01*
X48439719Y-2895175D01*
X48356527Y-2939037D01*
X48351092Y-2943630D01*
X48287805Y-2997112D01*
X48287802Y-2997115D01*
X48284696Y-2999740D01*
X48282225Y-3002972D01*
X48282224Y-3002973D01*
X48280064Y-3005798D01*
X48227574Y-3074451D01*
X48225853Y-3078142D01*
X48189548Y-3155998D01*
X48189546Y-3156004D01*
X48187829Y-3159686D01*
X48186942Y-3163654D01*
X48186941Y-3163657D01*
X48181183Y-3189417D01*
X48167313Y-3251466D01*
X48167226Y-3276393D01*
X48167021Y-3335308D01*
X48166985Y-3345512D01*
X48167845Y-3349488D01*
X48167845Y-3349491D01*
X48177126Y-3392418D01*
X48186859Y-3437434D01*
X48226009Y-3522943D01*
X48228459Y-3526194D01*
X48228460Y-3526196D01*
X48256774Y-3563770D01*
X48282607Y-3598052D01*
X48285695Y-3600698D01*
X48285698Y-3600702D01*
X48350916Y-3656600D01*
X48350919Y-3656602D01*
X48354013Y-3659254D01*
X48436896Y-3703696D01*
X48444982Y-3705984D01*
X48523472Y-3728195D01*
X48523476Y-3728196D01*
X48527389Y-3729303D01*
X48605366Y-3733935D01*
X48617211Y-3734639D01*
X48617212Y-3734639D01*
X48621269Y-3734880D01*
X48621255Y-3735123D01*
X48658644Y-3743961D01*
X48661369Y-3746030D01*
X48666131Y-3747916D01*
X48666132Y-3747916D01*
X48667547Y-3748476D01*
X48679488Y-3754482D01*
X48685138Y-3757985D01*
X48690056Y-3759414D01*
X48690063Y-3759417D01*
X48705878Y-3764012D01*
X48712571Y-3766303D01*
X48732638Y-3774248D01*
X48737739Y-3774784D01*
X48737742Y-3774785D01*
X48739250Y-3774944D01*
X48752360Y-3777516D01*
X48754252Y-3778065D01*
X48758746Y-3779371D01*
X48763400Y-3779713D01*
X48764586Y-3779800D01*
X48764592Y-3779800D01*
X48765951Y-3779900D01*
X48782475Y-3779900D01*
X48790335Y-3780312D01*
X48808870Y-3782260D01*
X48816599Y-3780953D01*
X48829138Y-3779900D01*
X63095251Y-3779900D01*
X63098399Y-3779966D01*
X63126575Y-3781147D01*
X63131560Y-3779978D01*
X63131567Y-3779977D01*
X63147596Y-3776217D01*
X63154561Y-3774926D01*
X63163953Y-3773639D01*
X63175943Y-3771997D01*
X63180653Y-3769959D01*
X63182050Y-3769355D01*
X63194735Y-3765160D01*
X63196213Y-3764813D01*
X63196216Y-3764812D01*
X63201203Y-3763642D01*
X63220128Y-3753239D01*
X63226451Y-3750141D01*
X63246291Y-3741555D01*
X63246292Y-3741554D01*
X63246607Y-3742283D01*
X63285183Y-3732736D01*
X63302241Y-3733750D01*
X63317207Y-3734639D01*
X63317210Y-3734639D01*
X63321269Y-3734880D01*
X63414157Y-3720168D01*
X63417946Y-3718683D01*
X63417950Y-3718682D01*
X63461103Y-3701770D01*
X63501719Y-3685853D01*
X63505106Y-3683585D01*
X63505109Y-3683584D01*
X63576484Y-3635803D01*
X63576486Y-3635802D01*
X63579870Y-3633536D01*
X63644963Y-3565657D01*
X63648551Y-3559780D01*
X63666991Y-3529570D01*
X63693962Y-3485384D01*
X63724580Y-3396462D01*
X63726018Y-3384038D01*
X63730989Y-3341070D01*
X63735389Y-3303040D01*
X63735400Y-3300000D01*
X63734870Y-3295116D01*
X63725683Y-3210556D01*
X63725243Y-3206504D01*
X63717165Y-3182500D01*
X63696545Y-3121229D01*
X63696543Y-3121224D01*
X63695246Y-3117371D01*
X63692978Y-3113595D01*
X63655985Y-3052029D01*
X63646809Y-3036758D01*
X63604086Y-2991579D01*
X63584985Y-2971380D01*
X63584982Y-2971378D01*
X63582191Y-2968426D01*
X63504408Y-2915565D01*
X63417088Y-2880639D01*
X63324305Y-2865279D01*
X63320238Y-2865492D01*
X63320235Y-2865492D01*
X63274160Y-2867907D01*
X63230388Y-2870201D01*
X63226461Y-2871283D01*
X63226459Y-2871283D01*
X63150890Y-2892098D01*
X63139719Y-2895175D01*
X63056527Y-2939037D01*
X63051092Y-2943630D01*
X62987805Y-2997112D01*
X62987802Y-2997115D01*
X62984696Y-2999740D01*
X62982225Y-3002972D01*
X62982224Y-3002973D01*
X62980064Y-3005798D01*
X62927574Y-3074451D01*
X62925853Y-3078142D01*
X62889548Y-3155998D01*
X62889546Y-3156004D01*
X62887829Y-3159686D01*
X62886942Y-3163655D01*
X62885628Y-3167515D01*
X62884434Y-3167108D01*
X62869429Y-3195805D01*
X62836561Y-3216660D01*
X62814078Y-3220100D01*
X62659626Y-3220100D01*
X62622026Y-3210025D01*
X62594501Y-3182500D01*
X62584426Y-3144900D01*
X62604375Y-3094520D01*
X62605861Y-3093316D01*
X62608830Y-3089139D01*
X62610411Y-3086915D01*
X62618533Y-3077305D01*
X63040442Y-2655396D01*
X63074153Y-2635932D01*
X63098075Y-2633502D01*
X63104705Y-2633896D01*
X63117207Y-2634639D01*
X63117210Y-2634639D01*
X63121269Y-2634880D01*
X63214157Y-2620168D01*
X63217946Y-2618683D01*
X63217950Y-2618682D01*
X63265607Y-2600005D01*
X63301719Y-2585853D01*
X63305106Y-2583585D01*
X63305109Y-2583584D01*
X63376484Y-2535803D01*
X63376486Y-2535802D01*
X63379870Y-2533536D01*
X63444963Y-2465657D01*
X63455164Y-2448946D01*
X63478984Y-2409922D01*
X63493962Y-2385384D01*
X63524580Y-2296462D01*
X63535389Y-2203040D01*
X63535400Y-2200000D01*
X63535172Y-2197897D01*
X63535070Y-2195960D01*
X63543161Y-2157884D01*
X63556993Y-2138845D01*
X63684364Y-2011475D01*
X63813915Y-1881924D01*
X63867089Y-1859899D01*
X66998220Y-1859899D01*
X67035820Y-1869974D01*
X67063345Y-1897499D01*
X67073420Y-1935099D01*
X67063345Y-1972699D01*
X67019453Y-2007239D01*
X67014906Y-2008577D01*
X67006408Y-2011078D01*
X67006406Y-2011079D01*
X67002882Y-2012116D01*
X66999624Y-2013819D01*
X66999622Y-2013820D01*
X66915131Y-2057991D01*
X66911872Y-2059695D01*
X66831837Y-2124044D01*
X66765825Y-2202714D01*
X66764054Y-2205936D01*
X66764053Y-2205937D01*
X66718125Y-2289481D01*
X66716351Y-2292708D01*
X66685299Y-2390597D01*
X66673851Y-2492653D01*
X66674159Y-2496321D01*
X66674159Y-2496324D01*
X66680995Y-2577727D01*
X66682445Y-2594989D01*
X66699831Y-2655622D01*
X66708515Y-2685904D01*
X66710752Y-2693707D01*
X66712434Y-2696979D01*
X66712434Y-2696980D01*
X66720224Y-2712138D01*
X66757694Y-2785047D01*
X66821483Y-2865529D01*
X66899691Y-2932089D01*
X66902892Y-2933878D01*
X66902895Y-2933880D01*
X66986125Y-2980396D01*
X66986130Y-2980398D01*
X66989336Y-2982190D01*
X66992837Y-2983328D01*
X66992838Y-2983328D01*
X67000006Y-2985657D01*
X67087006Y-3013925D01*
X67161616Y-3022822D01*
X67185323Y-3025649D01*
X67185324Y-3025649D01*
X67188980Y-3026085D01*
X67291374Y-3018206D01*
X67358615Y-2999432D01*
X67386742Y-2991579D01*
X67386744Y-2991578D01*
X67390287Y-2990589D01*
X67407312Y-2981989D01*
X67478669Y-2945944D01*
X67478674Y-2945941D01*
X67481952Y-2944285D01*
X67505297Y-2926046D01*
X67559985Y-2883320D01*
X67559989Y-2883316D01*
X67560904Y-2882601D01*
X69170152Y-2882601D01*
X69170460Y-2886270D01*
X69170460Y-2886273D01*
X69176101Y-2953457D01*
X69178805Y-2985657D01*
X69187855Y-3017217D01*
X69199237Y-3056910D01*
X69207311Y-3085069D01*
X69254584Y-3177051D01*
X69318822Y-3258099D01*
X69397579Y-3325127D01*
X69409646Y-3331871D01*
X69484644Y-3373787D01*
X69484649Y-3373789D01*
X69487855Y-3375581D01*
X69491352Y-3376717D01*
X69491356Y-3376719D01*
X69538322Y-3391979D01*
X69586212Y-3407539D01*
X69622366Y-3411850D01*
X69685245Y-3419348D01*
X69685247Y-3419348D01*
X69688903Y-3419784D01*
X69792016Y-3411850D01*
X69865159Y-3391428D01*
X69888080Y-3385028D01*
X69888082Y-3385027D01*
X69891625Y-3384038D01*
X69937712Y-3360758D01*
X69980651Y-3339068D01*
X69980652Y-3339067D01*
X69983935Y-3337409D01*
X69992399Y-3330796D01*
X70062531Y-3276004D01*
X70062536Y-3275999D01*
X70065429Y-3273739D01*
X70070656Y-3267684D01*
X70130600Y-3198238D01*
X70130603Y-3198234D01*
X70133005Y-3195451D01*
X70164577Y-3139875D01*
X70182271Y-3108729D01*
X70182272Y-3108726D01*
X70184088Y-3105530D01*
X70205806Y-3040245D01*
X70215570Y-3010893D01*
X70215571Y-3010890D01*
X70216732Y-3007399D01*
X70229693Y-2904796D01*
X70229815Y-2896067D01*
X70229871Y-2892098D01*
X70229871Y-2892092D01*
X70229900Y-2890000D01*
X70229695Y-2887908D01*
X70220168Y-2790742D01*
X70220167Y-2790738D01*
X70219808Y-2787075D01*
X70189917Y-2688071D01*
X70141365Y-2596758D01*
X70136932Y-2591322D01*
X70078327Y-2519464D01*
X70078323Y-2519460D01*
X70076002Y-2516614D01*
X69996316Y-2450693D01*
X69905345Y-2401505D01*
X69806551Y-2370923D01*
X69742703Y-2364212D01*
X69707354Y-2360497D01*
X69707352Y-2360497D01*
X69703699Y-2360113D01*
X69600707Y-2369486D01*
X69551102Y-2384085D01*
X69505025Y-2397646D01*
X69505022Y-2397647D01*
X69501496Y-2398685D01*
X69498239Y-2400388D01*
X69498236Y-2400389D01*
X69413105Y-2444895D01*
X69409846Y-2446599D01*
X69406980Y-2448904D01*
X69406979Y-2448904D01*
X69333553Y-2507940D01*
X69329248Y-2511401D01*
X69262772Y-2590624D01*
X69261001Y-2593846D01*
X69261000Y-2593847D01*
X69227163Y-2655396D01*
X69212950Y-2681250D01*
X69181680Y-2779828D01*
X69170152Y-2882601D01*
X67560904Y-2882601D01*
X67562878Y-2881059D01*
X67603301Y-2834229D01*
X67627577Y-2806106D01*
X67627580Y-2806102D01*
X67629982Y-2803319D01*
X67631798Y-2800122D01*
X67631801Y-2800118D01*
X67678890Y-2717226D01*
X67678892Y-2717223D01*
X67680708Y-2714025D01*
X67707248Y-2634243D01*
X67711962Y-2620073D01*
X67711963Y-2620070D01*
X67713124Y-2616579D01*
X67725995Y-2514692D01*
X67726200Y-2500000D01*
X67725914Y-2497076D01*
X67716538Y-2401459D01*
X67716179Y-2397794D01*
X67686496Y-2299481D01*
X67638283Y-2208805D01*
X67573376Y-2129221D01*
X67494247Y-2063760D01*
X67403911Y-2014916D01*
X67383309Y-2008539D01*
X67378132Y-2006936D01*
X67345192Y-1986193D01*
X67327038Y-1951759D01*
X67328532Y-1912862D01*
X67349275Y-1879922D01*
X67400369Y-1859899D01*
X69415252Y-1859899D01*
X69418400Y-1859965D01*
X69446576Y-1861146D01*
X69451561Y-1859977D01*
X69451568Y-1859976D01*
X69467597Y-1856216D01*
X69474562Y-1854925D01*
X69483954Y-1853638D01*
X69495944Y-1851996D01*
X69500654Y-1849958D01*
X69502051Y-1849354D01*
X69514736Y-1845159D01*
X69516214Y-1844812D01*
X69516217Y-1844811D01*
X69521204Y-1843641D01*
X69540129Y-1833238D01*
X69546452Y-1830140D01*
X69566292Y-1821554D01*
X69571458Y-1817371D01*
X69582554Y-1809915D01*
X69588375Y-1806715D01*
X69593843Y-1801994D01*
X69605514Y-1790323D01*
X69611363Y-1785056D01*
X69625862Y-1773315D01*
X69630408Y-1766918D01*
X69638532Y-1757305D01*
X69640441Y-1755396D01*
X69674152Y-1735932D01*
X69698074Y-1733502D01*
X69703766Y-1733840D01*
X69717207Y-1734639D01*
X69717210Y-1734639D01*
X69721269Y-1734880D01*
X69814157Y-1720168D01*
X69817946Y-1718683D01*
X69817950Y-1718682D01*
X69864821Y-1700313D01*
X69901719Y-1685853D01*
X69905106Y-1683585D01*
X69905109Y-1683584D01*
X69976484Y-1635803D01*
X69976486Y-1635802D01*
X69979870Y-1633536D01*
X70044963Y-1565657D01*
X70093962Y-1485384D01*
X70124580Y-1396462D01*
X70125712Y-1386683D01*
X70129817Y-1351200D01*
X70135389Y-1303040D01*
X70135400Y-1300000D01*
X70134652Y-1293109D01*
X70125683Y-1210556D01*
X70125243Y-1206504D01*
X70121809Y-1196301D01*
X70096545Y-1121229D01*
X70096543Y-1121224D01*
X70095246Y-1117371D01*
X70089580Y-1107940D01*
X70062116Y-1062234D01*
X70046809Y-1036758D01*
X70005183Y-992739D01*
X69984985Y-971380D01*
X69984982Y-971378D01*
X69982191Y-968426D01*
X69975183Y-963663D01*
X69907770Y-917850D01*
X69904408Y-915565D01*
X69817088Y-880639D01*
X69724305Y-865279D01*
X69720238Y-865492D01*
X69720235Y-865492D01*
X69674427Y-867893D01*
X69630388Y-870201D01*
X69626461Y-871283D01*
X69626459Y-871283D01*
X69624459Y-871834D01*
X69622201Y-872456D01*
X69583276Y-872730D01*
X69549429Y-853504D01*
X69529730Y-819930D01*
X69529456Y-781004D01*
X69549055Y-746783D01*
X69894548Y-401290D01*
X69896821Y-399110D01*
X69913819Y-383480D01*
X69913821Y-383477D01*
X69917593Y-380009D01*
X69920292Y-375656D01*
X69920296Y-375651D01*
X69928971Y-361658D01*
X69932986Y-355816D01*
X69937734Y-349561D01*
X69946030Y-338632D01*
X69948481Y-332442D01*
X69954479Y-320517D01*
X69957985Y-314862D01*
X69964012Y-294117D01*
X69966302Y-287429D01*
X69966502Y-286926D01*
X69974248Y-267362D01*
X69974824Y-261886D01*
X69974944Y-260750D01*
X69977516Y-247640D01*
X69978269Y-245047D01*
X69979371Y-241254D01*
X69979900Y-234049D01*
X69979900Y-217525D01*
X69980312Y-209665D01*
X69981407Y-199248D01*
X69982260Y-191130D01*
X69980953Y-183401D01*
X69979900Y-170862D01*
X69979900Y836265D01*
X70000823Y888314D01*
X70002866Y890444D01*
X70044963Y934343D01*
X70093962Y1014616D01*
X70124580Y1103538D01*
X70127741Y1130854D01*
X70134826Y1192096D01*
X70135389Y1196960D01*
X70135400Y1200000D01*
X70134923Y1204396D01*
X70125683Y1289444D01*
X70125243Y1293496D01*
X70118403Y1313820D01*
X70096545Y1378771D01*
X70096543Y1378776D01*
X70095246Y1382629D01*
X70083652Y1401926D01*
X70048904Y1459755D01*
X70046809Y1463242D01*
X69986891Y1526604D01*
X69984985Y1528620D01*
X69984982Y1528622D01*
X69982191Y1531574D01*
X69904408Y1584435D01*
X69817088Y1619361D01*
X69724305Y1634721D01*
X69720238Y1634508D01*
X69720235Y1634508D01*
X69673248Y1632045D01*
X69630388Y1629799D01*
X69626461Y1628717D01*
X69626459Y1628717D01*
X69592492Y1619361D01*
X69539719Y1604825D01*
X69456527Y1560963D01*
X69453414Y1558332D01*
X69387805Y1502888D01*
X69387802Y1502885D01*
X69384696Y1500260D01*
X69327574Y1425549D01*
X69325853Y1421858D01*
X69289548Y1344002D01*
X69289546Y1343996D01*
X69287829Y1340314D01*
X69286942Y1336346D01*
X69286941Y1336343D01*
X69284069Y1323493D01*
X69267313Y1248534D01*
X69266985Y1154488D01*
X69267845Y1150512D01*
X69267845Y1150509D01*
X69272335Y1129741D01*
X69286859Y1062566D01*
X69326009Y977057D01*
X69328459Y973806D01*
X69328460Y973804D01*
X69357221Y935637D01*
X69382607Y901948D01*
X69393840Y892321D01*
X69415830Y860204D01*
X69420100Y835225D01*
X69420101Y-52913D01*
X69410026Y-90513D01*
X69398075Y-106087D01*
X68806089Y-698074D01*
X68772378Y-717538D01*
X68752915Y-720100D01*
X63204733Y-720100D01*
X63201585Y-720034D01*
X63201242Y-720020D01*
X63173423Y-718854D01*
X63152416Y-723781D01*
X63145455Y-725072D01*
X63124057Y-728003D01*
X63119353Y-730038D01*
X63119348Y-730040D01*
X63117953Y-730644D01*
X63105264Y-734841D01*
X63098796Y-736358D01*
X63082940Y-745075D01*
X63079886Y-746754D01*
X63073541Y-749863D01*
X63053709Y-758445D01*
X63048542Y-762629D01*
X63037448Y-770084D01*
X63031625Y-773285D01*
X63028645Y-775857D01*
X63028642Y-775859D01*
X63027201Y-777103D01*
X63026156Y-778005D01*
X63014477Y-789684D01*
X63008628Y-794951D01*
X62994139Y-806684D01*
X62989593Y-813080D01*
X62981474Y-822687D01*
X62274616Y-1529547D01*
X62060103Y-1744060D01*
X62010865Y-1765983D01*
X61969050Y-1768175D01*
X61930388Y-1770201D01*
X61926461Y-1771283D01*
X61926459Y-1771283D01*
X61867460Y-1787534D01*
X61839719Y-1795175D01*
X61756527Y-1839037D01*
X61684696Y-1899740D01*
X61684207Y-1899161D01*
X61654917Y-1917040D01*
X61633684Y-1920100D01*
X57584775Y-1920100D01*
X57547175Y-1910025D01*
X57519650Y-1882500D01*
X57509575Y-1844900D01*
X57525115Y-1799121D01*
X57558888Y-1755107D01*
X57561886Y-1751200D01*
X57592096Y-1678267D01*
X57592841Y-1672612D01*
X57601757Y-1604884D01*
X57602400Y-1600000D01*
X57600489Y-1585482D01*
X57592739Y-1526614D01*
X57592738Y-1526611D01*
X57592096Y-1521733D01*
X57561886Y-1448800D01*
X57518662Y-1392469D01*
X57516827Y-1390078D01*
X57513829Y-1386171D01*
X57451200Y-1338114D01*
X57378267Y-1307904D01*
X57373389Y-1307262D01*
X57373386Y-1307261D01*
X57304884Y-1298243D01*
X57300000Y-1297600D01*
X57295116Y-1298243D01*
X57226614Y-1307261D01*
X57226611Y-1307262D01*
X57221733Y-1307904D01*
X57148800Y-1338114D01*
X57086171Y-1386171D01*
X57083173Y-1390078D01*
X57081338Y-1392469D01*
X57038114Y-1448800D01*
X57007904Y-1521733D01*
X57007262Y-1526611D01*
X57007261Y-1526614D01*
X56999511Y-1585482D01*
X56997600Y-1600000D01*
X56998243Y-1604884D01*
X57007160Y-1672612D01*
X57007904Y-1678267D01*
X57038114Y-1751200D01*
X57041112Y-1755107D01*
X57074885Y-1799121D01*
X57089782Y-1835085D01*
X57084701Y-1873678D01*
X57061004Y-1904560D01*
X57015225Y-1920100D01*
X52473162Y-1920100D01*
X52435562Y-1910025D01*
X52408037Y-1882500D01*
X52397962Y-1844900D01*
X52418886Y-1792851D01*
X52442141Y-1768600D01*
X52442142Y-1768599D01*
X52444963Y-1765657D01*
X52447335Y-1761772D01*
X52463749Y-1734880D01*
X52493962Y-1685384D01*
X52524580Y-1596462D01*
X52535389Y-1503040D01*
X52535400Y-1500000D01*
X52525243Y-1406504D01*
X52523650Y-1401770D01*
X52496545Y-1321229D01*
X52496543Y-1321224D01*
X52495246Y-1317371D01*
X52492991Y-1313617D01*
X52448904Y-1240245D01*
X52446809Y-1236758D01*
X52404302Y-1191808D01*
X52384985Y-1171380D01*
X52384982Y-1171378D01*
X52382191Y-1168426D01*
X52369331Y-1159686D01*
X52307770Y-1117850D01*
X52304408Y-1115565D01*
X52217088Y-1080639D01*
X52124305Y-1065279D01*
X52120238Y-1065492D01*
X52120236Y-1065492D01*
X52112249Y-1065911D01*
X52097697Y-1066674D01*
X52059623Y-1058581D01*
X52040588Y-1044751D01*
X51821302Y-825465D01*
X51819122Y-823192D01*
X51809820Y-813076D01*
X51800010Y-802408D01*
X51781647Y-791022D01*
X51775813Y-787012D01*
X51762714Y-777069D01*
X51762712Y-777068D01*
X51758632Y-773971D01*
X51752453Y-771524D01*
X51740513Y-765519D01*
X51734863Y-762016D01*
X51714107Y-755986D01*
X51707435Y-753701D01*
X51687362Y-745753D01*
X51680757Y-745059D01*
X51667637Y-742484D01*
X51661255Y-740630D01*
X51657328Y-740342D01*
X51657324Y-740341D01*
X51655415Y-740201D01*
X51655409Y-740201D01*
X51654050Y-740101D01*
X51637526Y-740101D01*
X51629665Y-739689D01*
X51623566Y-739048D01*
X51611131Y-737741D01*
X51603402Y-739048D01*
X51590863Y-740101D01*
X46125338Y-740101D01*
X46122189Y-740035D01*
X46094013Y-738854D01*
X46072987Y-743786D01*
X46066030Y-745075D01*
X46044646Y-748004D01*
X46039941Y-750040D01*
X46039938Y-750041D01*
X46038542Y-750645D01*
X46025853Y-754842D01*
X46019385Y-756359D01*
X46000472Y-766756D01*
X45994118Y-769869D01*
X45974298Y-778446D01*
X45969137Y-782626D01*
X45958040Y-790083D01*
X45952214Y-793285D01*
X45949231Y-795861D01*
X45949226Y-795864D01*
X45947793Y-797102D01*
X45946746Y-798006D01*
X45935071Y-809681D01*
X45929223Y-814947D01*
X45914728Y-826685D01*
X45911759Y-830863D01*
X45911758Y-830864D01*
X45910182Y-833081D01*
X45902058Y-842694D01*
X45072141Y-1672612D01*
X44260103Y-2484650D01*
X44210865Y-2506573D01*
X44169050Y-2508765D01*
X44130388Y-2510791D01*
X44126461Y-2511873D01*
X44126459Y-2511873D01*
X44052433Y-2532263D01*
X44039719Y-2535765D01*
X43956527Y-2579627D01*
X43953414Y-2582258D01*
X43887805Y-2637702D01*
X43887802Y-2637705D01*
X43884696Y-2640330D01*
X43827574Y-2715041D01*
X43825853Y-2718732D01*
X43789548Y-2796588D01*
X43789546Y-2796594D01*
X43787829Y-2800276D01*
X43786942Y-2804244D01*
X43786941Y-2804247D01*
X43778227Y-2843231D01*
X43767313Y-2892056D01*
X43767193Y-2926418D01*
X43767055Y-2966141D01*
X43766985Y-2986102D01*
X32709735Y-2986102D01*
X33793912Y-1901926D01*
X33847086Y-1879900D01*
X36633623Y-1879900D01*
X36671223Y-1889975D01*
X36682124Y-1898616D01*
X36682607Y-1898052D01*
X36750916Y-1956600D01*
X36750919Y-1956602D01*
X36754013Y-1959254D01*
X36836896Y-2003696D01*
X36866652Y-2012116D01*
X36923472Y-2028195D01*
X36923476Y-2028196D01*
X36927389Y-2029303D01*
X36981307Y-2032506D01*
X37017207Y-2034639D01*
X37017210Y-2034639D01*
X37021269Y-2034880D01*
X37114157Y-2020168D01*
X37117946Y-2018683D01*
X37117950Y-2018682D01*
X37161103Y-2001770D01*
X37201719Y-1985853D01*
X37205106Y-1983585D01*
X37205109Y-1983584D01*
X37276484Y-1935803D01*
X37276486Y-1935802D01*
X37279870Y-1933536D01*
X37344963Y-1865657D01*
X37348438Y-1859965D01*
X37361212Y-1839037D01*
X37393962Y-1785384D01*
X37424580Y-1696462D01*
X37425460Y-1688861D01*
X37435150Y-1605105D01*
X37435389Y-1603040D01*
X37435400Y-1600000D01*
X37434870Y-1595116D01*
X37429481Y-1545512D01*
X37425243Y-1506504D01*
X37423862Y-1502400D01*
X37396545Y-1421229D01*
X37396543Y-1421224D01*
X37395246Y-1417371D01*
X37393151Y-1413884D01*
X37391440Y-1410182D01*
X37392825Y-1409542D01*
X37384192Y-1379365D01*
X37393633Y-1341601D01*
X37420691Y-1313617D01*
X37459381Y-1302900D01*
X38460446Y-1302900D01*
X38509383Y-1321001D01*
X38554013Y-1359254D01*
X38636896Y-1403696D01*
X38659817Y-1410182D01*
X38723472Y-1428195D01*
X38723476Y-1428196D01*
X38727389Y-1429303D01*
X38781307Y-1432506D01*
X38817207Y-1434639D01*
X38817210Y-1434639D01*
X38821269Y-1434880D01*
X38914157Y-1420168D01*
X38917946Y-1418683D01*
X38917950Y-1418682D01*
X38970154Y-1398223D01*
X39001719Y-1385853D01*
X39005106Y-1383585D01*
X39005109Y-1383584D01*
X39076484Y-1335803D01*
X39076486Y-1335802D01*
X39079870Y-1333536D01*
X39144963Y-1265657D01*
X39193962Y-1185384D01*
X39224580Y-1096462D01*
X39228027Y-1066674D01*
X39235149Y-1005113D01*
X39235389Y-1003040D01*
X39235400Y-1000000D01*
X39225243Y-906504D01*
X39222463Y-898243D01*
X39196545Y-821229D01*
X39196543Y-821224D01*
X39195246Y-817371D01*
X39192666Y-813076D01*
X39157772Y-755003D01*
X39146809Y-736758D01*
X39107430Y-695116D01*
X39084985Y-671380D01*
X39084982Y-671378D01*
X39082191Y-668426D01*
X39004408Y-615565D01*
X38917088Y-580639D01*
X38824305Y-565279D01*
X38820238Y-565492D01*
X38820235Y-565492D01*
X38773248Y-567955D01*
X38730388Y-570201D01*
X38726461Y-571283D01*
X38726459Y-571283D01*
X38643647Y-594093D01*
X38639719Y-595175D01*
X38556527Y-639037D01*
X38553414Y-641668D01*
X38508839Y-679337D01*
X38460300Y-697100D01*
X31456613Y-697100D01*
X31403439Y-675074D01*
X30931100Y-202736D01*
X30924614Y-195341D01*
X30918948Y-187957D01*
X30915950Y-184050D01*
X30903441Y-174451D01*
X30856607Y-138514D01*
X30852700Y-135516D01*
X30804981Y-115750D01*
X30783597Y-106892D01*
X30783595Y-106891D01*
X30779043Y-105006D01*
X30743396Y-100313D01*
X30719009Y-97102D01*
X30718999Y-97101D01*
X30718990Y-97100D01*
X30718985Y-97100D01*
X30718977Y-97099D01*
X30700000Y-94601D01*
X30695116Y-95244D01*
X30685902Y-96457D01*
X30676087Y-97100D01*
X28241693Y-97100D01*
X28204093Y-87025D01*
X28187057Y-73572D01*
X28184988Y-71384D01*
X28182191Y-68426D01*
X28178828Y-66140D01*
X28178825Y-66138D01*
X28123290Y-28397D01*
X28104408Y-15565D01*
X28017088Y19361D01*
X27924305Y34721D01*
X27920238Y34508D01*
X27920235Y34508D01*
X27873248Y32045D01*
X27830388Y29799D01*
X27826461Y28717D01*
X27826459Y28717D01*
X27758260Y9932D01*
X27739719Y4825D01*
X27656527Y-39037D01*
X27640107Y-52913D01*
X27587805Y-97112D01*
X27587802Y-97115D01*
X27584696Y-99740D01*
X27582225Y-102972D01*
X27582224Y-102973D01*
X27575696Y-111511D01*
X27527574Y-174451D01*
X27525853Y-178142D01*
X27489548Y-255998D01*
X27489546Y-256004D01*
X27487829Y-259686D01*
X27486942Y-263654D01*
X27486941Y-263657D01*
X27478425Y-301757D01*
X27467313Y-351466D01*
X27467201Y-383480D01*
X27467042Y-429303D01*
X27466985Y-445512D01*
X24352449Y-445512D01*
X24359989Y-439073D01*
X24363002Y-434880D01*
X24406866Y-373838D01*
X24406868Y-373835D01*
X24409512Y-370155D01*
X24429469Y-320511D01*
X24439473Y-295625D01*
X24439474Y-295622D01*
X24441165Y-291415D01*
X24444413Y-268595D01*
X24452776Y-209837D01*
X24452776Y-209833D01*
X24453123Y-207397D01*
X24453200Y-200000D01*
X24451192Y-183404D01*
X24443550Y-120250D01*
X24443549Y-120246D01*
X24443005Y-115750D01*
X24421518Y-58888D01*
X24414609Y-40603D01*
X24414608Y-40602D01*
X24413007Y-36364D01*
X24408827Y-30281D01*
X24383024Y7261D01*
X24364939Y33575D01*
X24301576Y90030D01*
X24250290Y117185D01*
X24230584Y127619D01*
X24230583Y127619D01*
X24226576Y129741D01*
X24170178Y143907D01*
X24148668Y149310D01*
X24148667Y149310D01*
X24144268Y150415D01*
X24139735Y150439D01*
X24139733Y150439D01*
X24103564Y150628D01*
X24059404Y150859D01*
X23976884Y131048D01*
X23901472Y92125D01*
X23898058Y89147D01*
X23898054Y89144D01*
X23863264Y58794D01*
X23837521Y36337D01*
X23818862Y9788D01*
X23792026Y-28397D01*
X23788724Y-33095D01*
X23787077Y-37318D01*
X23787077Y-37319D01*
X23759542Y-107940D01*
X23759541Y-107944D01*
X23757896Y-112163D01*
X23746819Y-196301D01*
X21084626Y-196301D01*
X21092096Y-178267D01*
X21093025Y-171216D01*
X21101757Y-104884D01*
X21102400Y-100000D01*
X21095818Y-50003D01*
X21092739Y-26614D01*
X21092738Y-26611D01*
X21092096Y-21733D01*
X21061886Y51200D01*
X21034029Y87504D01*
X21016827Y109922D01*
X21013829Y113829D01*
X20979279Y140340D01*
X20955582Y171222D01*
X20950501Y209815D01*
X20965398Y245779D01*
X20979279Y259660D01*
X20988255Y266547D01*
X21013829Y286171D01*
X21027278Y303699D01*
X23046819Y303699D01*
X23047316Y299197D01*
X23047316Y299194D01*
X23051227Y263770D01*
X23056132Y219346D01*
X23057688Y215094D01*
X23057689Y215090D01*
X23064999Y195116D01*
X23085296Y139651D01*
X23087824Y135889D01*
X23123248Y83173D01*
X23132629Y69212D01*
X23195398Y12097D01*
X23199384Y9933D01*
X23199385Y9932D01*
X23217678Y0D01*
X23269978Y-28397D01*
X23274357Y-29546D01*
X23274360Y-29547D01*
X23347685Y-48783D01*
X23352065Y-49932D01*
X23387198Y-50484D01*
X23432387Y-51194D01*
X23432389Y-51194D01*
X23436919Y-51265D01*
X23441336Y-50253D01*
X23441339Y-50253D01*
X23515219Y-33332D01*
X23519642Y-32319D01*
X23595458Y5812D01*
X23659989Y60927D01*
X23662633Y64606D01*
X23706866Y126162D01*
X23706868Y126165D01*
X23709512Y129845D01*
X23730731Y182629D01*
X23737714Y200000D01*
X38397600Y200000D01*
X38398243Y195116D01*
X38406952Y128967D01*
X38407904Y121733D01*
X38438114Y48800D01*
X38486171Y-13829D01*
X38490078Y-16827D01*
X38494432Y-20168D01*
X38548800Y-61886D01*
X38621733Y-92096D01*
X38626611Y-92738D01*
X38626614Y-92739D01*
X38695116Y-101757D01*
X38700000Y-102400D01*
X38704884Y-101757D01*
X38773386Y-92739D01*
X38773389Y-92738D01*
X38778267Y-92096D01*
X38851200Y-61886D01*
X38905568Y-20168D01*
X38909922Y-16827D01*
X38913829Y-13829D01*
X38961886Y48800D01*
X38992096Y121733D01*
X38993049Y128967D01*
X39001757Y195116D01*
X39002400Y200000D01*
X38998611Y228778D01*
X38992739Y273386D01*
X38992738Y273389D01*
X38992096Y278267D01*
X38961886Y351200D01*
X38913829Y413829D01*
X38851200Y461886D01*
X38778267Y492096D01*
X38773389Y492738D01*
X38773386Y492739D01*
X38704884Y501757D01*
X38700000Y502400D01*
X38695116Y501757D01*
X38626614Y492739D01*
X38626611Y492738D01*
X38621733Y492096D01*
X38548800Y461886D01*
X38486171Y413829D01*
X38438114Y351200D01*
X38407904Y278267D01*
X38407262Y273389D01*
X38407261Y273386D01*
X38401389Y228778D01*
X38397600Y200000D01*
X23737714Y200000D01*
X23739473Y204375D01*
X23739474Y204378D01*
X23741165Y208585D01*
X23742389Y217185D01*
X23752776Y290163D01*
X23752776Y290167D01*
X23753123Y292603D01*
X23753200Y300000D01*
X23751987Y310025D01*
X23743550Y379750D01*
X23743549Y379754D01*
X23743005Y384250D01*
X23713007Y463636D01*
X23708827Y469719D01*
X23677600Y515153D01*
X23664939Y533575D01*
X23601576Y590030D01*
X23541464Y621858D01*
X23530584Y627619D01*
X23530583Y627619D01*
X23526576Y629741D01*
X23470178Y643907D01*
X23448668Y649310D01*
X23448667Y649310D01*
X23444268Y650415D01*
X23439735Y650439D01*
X23439733Y650439D01*
X23403564Y650628D01*
X23359404Y650859D01*
X23276884Y631048D01*
X23201472Y592125D01*
X23198058Y589147D01*
X23198054Y589144D01*
X23162334Y557983D01*
X23137521Y536337D01*
X23118136Y508754D01*
X23092026Y471603D01*
X23088724Y466905D01*
X23087077Y462682D01*
X23087077Y462681D01*
X23059542Y392060D01*
X23059541Y392056D01*
X23057896Y387837D01*
X23046819Y303699D01*
X21027278Y303699D01*
X21061886Y348800D01*
X21092096Y421733D01*
X21093623Y433326D01*
X21101757Y495116D01*
X21102400Y500000D01*
X21099165Y524574D01*
X21092739Y573386D01*
X21092738Y573389D01*
X21092096Y578267D01*
X21061886Y651200D01*
X21013829Y713829D01*
X20951200Y761886D01*
X20878267Y792096D01*
X20873389Y792738D01*
X20873386Y792739D01*
X20804884Y801757D01*
X20800000Y802400D01*
X20795116Y801757D01*
X20726614Y792739D01*
X20726611Y792738D01*
X20721733Y792096D01*
X20648800Y761886D01*
X20586171Y713829D01*
X20538114Y651200D01*
X20507904Y578267D01*
X20507262Y573389D01*
X20507261Y573386D01*
X20500835Y524574D01*
X20497600Y500000D01*
X20498243Y495116D01*
X20506378Y433326D01*
X20507904Y421733D01*
X20538114Y348800D01*
X20586171Y286171D01*
X20611746Y266547D01*
X20620721Y259660D01*
X20644418Y228778D01*
X20649499Y190185D01*
X20634602Y154221D01*
X20620722Y140341D01*
X20586171Y113829D01*
X20583173Y109922D01*
X20565971Y87504D01*
X20538114Y51200D01*
X20507904Y-21733D01*
X20507262Y-26611D01*
X20507261Y-26614D01*
X20504182Y-50003D01*
X20497600Y-100000D01*
X20498243Y-104884D01*
X20506976Y-171216D01*
X20507904Y-178267D01*
X20538114Y-251200D01*
X20586171Y-313829D01*
X20608024Y-330597D01*
X20620721Y-340340D01*
X20644418Y-371222D01*
X20649499Y-409815D01*
X20634602Y-445779D01*
X20620722Y-459659D01*
X20586171Y-486171D01*
X20538114Y-548800D01*
X20528801Y-571283D01*
X20519476Y-593796D01*
X20495779Y-624678D01*
X20459816Y-639575D01*
X20421222Y-634494D01*
X20380524Y-593796D01*
X20371199Y-571283D01*
X20361886Y-548800D01*
X20313829Y-486171D01*
X20251200Y-438114D01*
X20178267Y-407904D01*
X20173389Y-407262D01*
X20173386Y-407261D01*
X20104884Y-398243D01*
X20100000Y-397600D01*
X20095116Y-398243D01*
X20026614Y-407261D01*
X20026611Y-407262D01*
X20021733Y-407904D01*
X19948800Y-438114D01*
X19886171Y-486171D01*
X19838114Y-548800D01*
X19807904Y-621733D01*
X19807262Y-626611D01*
X19807261Y-626614D01*
X19800320Y-679337D01*
X19797600Y-700000D01*
X19798243Y-704884D01*
X19806827Y-770085D01*
X19807904Y-778267D01*
X19809788Y-782815D01*
X19809789Y-782819D01*
X19816563Y-799173D01*
X19821644Y-837766D01*
X19806747Y-873729D01*
X19775864Y-897426D01*
X19737272Y-902507D01*
X19700000Y-897600D01*
X19662728Y-902507D01*
X19624136Y-897426D01*
X19593253Y-873729D01*
X19578356Y-837766D01*
X19583437Y-799173D01*
X19590211Y-782819D01*
X19590212Y-782815D01*
X19592096Y-778267D01*
X19593174Y-770085D01*
X19601757Y-704884D01*
X19602400Y-700000D01*
X19599680Y-679337D01*
X19592739Y-626614D01*
X19592738Y-626611D01*
X19592096Y-621733D01*
X19561886Y-548800D01*
X19513829Y-486171D01*
X19451200Y-438114D01*
X19378267Y-407904D01*
X19373389Y-407262D01*
X19373386Y-407261D01*
X19304884Y-398243D01*
X19300000Y-397600D01*
X19295116Y-398243D01*
X19226614Y-407261D01*
X19226611Y-407262D01*
X19221733Y-407904D01*
X19148800Y-438114D01*
X19086171Y-486171D01*
X19038114Y-548800D01*
X19028801Y-571283D01*
X19019476Y-593796D01*
X18995779Y-624678D01*
X18959816Y-639575D01*
X18921222Y-634494D01*
X18880524Y-593796D01*
X18871199Y-571283D01*
X18861886Y-548800D01*
X18813829Y-486171D01*
X18779279Y-459660D01*
X18755582Y-428778D01*
X18750501Y-390185D01*
X18765398Y-354221D01*
X18779279Y-340340D01*
X18791977Y-330597D01*
X18813829Y-313829D01*
X18861886Y-251200D01*
X18892096Y-178267D01*
X18893025Y-171216D01*
X18901757Y-104884D01*
X18902400Y-100000D01*
X18895818Y-50003D01*
X18892739Y-26614D01*
X18892738Y-26611D01*
X18892096Y-21733D01*
X18861886Y51200D01*
X18834029Y87504D01*
X18816827Y109922D01*
X18813829Y113829D01*
X18779279Y140340D01*
X18755582Y171222D01*
X18750501Y209815D01*
X18765398Y245779D01*
X18779279Y259660D01*
X18788255Y266547D01*
X18813829Y286171D01*
X18861886Y348800D01*
X18892096Y421733D01*
X18893623Y433326D01*
X18901757Y495116D01*
X18902400Y500000D01*
X18899165Y524574D01*
X18892739Y573386D01*
X18892738Y573389D01*
X18892096Y578267D01*
X18861886Y651200D01*
X18813829Y713829D01*
X18751200Y761886D01*
X18678267Y792096D01*
X18673389Y792738D01*
X18673386Y792739D01*
X18604884Y801757D01*
X18600000Y802400D01*
X18595116Y801757D01*
X18526614Y792739D01*
X18526611Y792738D01*
X18521733Y792096D01*
X18448800Y761886D01*
X18386171Y713829D01*
X18338114Y651200D01*
X18307904Y578267D01*
X18307262Y573389D01*
X18307261Y573386D01*
X18300835Y524574D01*
X18297600Y500000D01*
X15395738Y500000D01*
X15394114Y504825D01*
X15386169Y528435D01*
X15338844Y607196D01*
X15321522Y625514D01*
X15275710Y673958D01*
X15276656Y674853D01*
X15258358Y701377D01*
X15254000Y726604D01*
X15254000Y773621D01*
X15266091Y803699D01*
X23746819Y803699D01*
X23747316Y799197D01*
X23747316Y799194D01*
X23751435Y761886D01*
X23756132Y719346D01*
X23757688Y715094D01*
X23757689Y715090D01*
X23764708Y695910D01*
X23785296Y639651D01*
X23787824Y635889D01*
X23826206Y578771D01*
X23832629Y569212D01*
X23895398Y512097D01*
X23899384Y509933D01*
X23899385Y509932D01*
X23913257Y502400D01*
X23969978Y471603D01*
X23974357Y470454D01*
X23974360Y470453D01*
X24020564Y458332D01*
X24052065Y450068D01*
X24087198Y449516D01*
X24132387Y448806D01*
X24132389Y448806D01*
X24136919Y448735D01*
X24141336Y449747D01*
X24141339Y449747D01*
X24215219Y466668D01*
X24219642Y467681D01*
X24262927Y489451D01*
X24291412Y503777D01*
X24291413Y503777D01*
X24295458Y505812D01*
X24359989Y560927D01*
X24362633Y564606D01*
X24406866Y626162D01*
X24406868Y626165D01*
X24409512Y629845D01*
X24436519Y697027D01*
X24439473Y704375D01*
X24439474Y704378D01*
X24441165Y708585D01*
X24443730Y726604D01*
X24452776Y790163D01*
X24452776Y790167D01*
X24453123Y792603D01*
X24453200Y800000D01*
X24451856Y811110D01*
X24443550Y879750D01*
X24443549Y879754D01*
X24443005Y884250D01*
X24437054Y900000D01*
X38697600Y900000D01*
X38698243Y895116D01*
X38706999Y828609D01*
X38707904Y821733D01*
X38738114Y748800D01*
X38786171Y686171D01*
X38848800Y638114D01*
X38921733Y607904D01*
X38926611Y607262D01*
X38926614Y607261D01*
X38995116Y598243D01*
X39000000Y597600D01*
X39004884Y598243D01*
X39073386Y607261D01*
X39073389Y607262D01*
X39078267Y607904D01*
X39151200Y638114D01*
X39213829Y686171D01*
X39261886Y748800D01*
X39292096Y821733D01*
X39293002Y828609D01*
X39301757Y895116D01*
X39302400Y900000D01*
X39300788Y912246D01*
X39292739Y973386D01*
X39292738Y973389D01*
X39292096Y978267D01*
X39261886Y1051200D01*
X39234403Y1087016D01*
X39216827Y1109922D01*
X39213829Y1113829D01*
X39151200Y1161886D01*
X39078267Y1192096D01*
X39073389Y1192738D01*
X39073386Y1192739D01*
X39004884Y1201757D01*
X39000000Y1202400D01*
X38995116Y1201757D01*
X38926614Y1192739D01*
X38926611Y1192738D01*
X38921733Y1192096D01*
X38848800Y1161886D01*
X38786171Y1113829D01*
X38783173Y1109922D01*
X38765597Y1087016D01*
X38738114Y1051200D01*
X38707904Y978267D01*
X38707262Y973389D01*
X38707261Y973386D01*
X38699212Y912246D01*
X38697600Y900000D01*
X24437054Y900000D01*
X24413007Y963636D01*
X24408211Y970615D01*
X24367507Y1029838D01*
X24364939Y1033575D01*
X24301576Y1090030D01*
X24276064Y1103538D01*
X24230584Y1127619D01*
X24230583Y1127619D01*
X24226576Y1129741D01*
X24185422Y1140078D01*
X24148668Y1149310D01*
X24148667Y1149310D01*
X24144268Y1150415D01*
X24139735Y1150439D01*
X24139733Y1150439D01*
X24103564Y1150628D01*
X24059404Y1150859D01*
X23976884Y1131048D01*
X23901472Y1092125D01*
X23898058Y1089147D01*
X23898054Y1089144D01*
X23859778Y1055753D01*
X23837521Y1036337D01*
X23819812Y1011139D01*
X23793573Y973804D01*
X23788724Y966905D01*
X23787077Y962682D01*
X23787077Y962681D01*
X23759542Y892060D01*
X23759541Y892056D01*
X23757896Y887837D01*
X23746819Y803699D01*
X15266091Y803699D01*
X15274924Y825670D01*
X15334221Y887504D01*
X15334223Y887506D01*
X15337040Y890444D01*
X15384913Y968873D01*
X15414829Y1055753D01*
X15418446Y1087016D01*
X15425149Y1144945D01*
X15425149Y1144949D01*
X15425390Y1147030D01*
X15425400Y1150000D01*
X15415476Y1241348D01*
X15411722Y1252505D01*
X15395538Y1300595D01*
X15386169Y1328435D01*
X15338844Y1407196D01*
X15304642Y1443364D01*
X15275710Y1473958D01*
X15276656Y1474853D01*
X15258358Y1501377D01*
X15254000Y1526604D01*
X15254000Y1563706D01*
X15261326Y1596080D01*
X15319060Y1717122D01*
X15319548Y1718127D01*
X15320423Y1719894D01*
X15324749Y1728626D01*
X15337955Y1770508D01*
X15374119Y1885206D01*
X15374462Y1886267D01*
X15377233Y1894620D01*
X15377235Y1894630D01*
X15378147Y1897378D01*
X15398567Y2019403D01*
X15405250Y2059339D01*
X15405442Y2060434D01*
X15407016Y2069056D01*
X15407539Y2071920D01*
X15411837Y2236053D01*
X15411872Y2237127D01*
X15412235Y2245954D01*
X15412235Y2245955D01*
X15412354Y2248854D01*
X15400479Y2353078D01*
X15393762Y2412038D01*
X15393644Y2413149D01*
X15392784Y2421846D01*
X15392784Y2421848D01*
X15392498Y2424736D01*
X15373034Y2500000D01*
X26197600Y2500000D01*
X26198243Y2495116D01*
X26207139Y2427546D01*
X26207904Y2421733D01*
X26238114Y2348800D01*
X26241112Y2344893D01*
X26273242Y2303021D01*
X26286171Y2286171D01*
X26348800Y2238114D01*
X26421733Y2207904D01*
X26426611Y2207262D01*
X26426614Y2207261D01*
X26495116Y2198243D01*
X26500000Y2197600D01*
X26504884Y2198243D01*
X26573386Y2207261D01*
X26573389Y2207262D01*
X26578267Y2207904D01*
X26651200Y2238114D01*
X26713829Y2286171D01*
X26726759Y2303021D01*
X26758888Y2344893D01*
X26761886Y2348800D01*
X26792096Y2421733D01*
X26792862Y2427546D01*
X26801757Y2495116D01*
X26802400Y2500000D01*
X26800070Y2517699D01*
X26795227Y2554488D01*
X27566985Y2554488D01*
X27567845Y2550512D01*
X27567845Y2550509D01*
X27571492Y2533641D01*
X27586859Y2462566D01*
X27626009Y2377057D01*
X27628459Y2373806D01*
X27628460Y2373804D01*
X27665544Y2324592D01*
X27682607Y2301948D01*
X27685695Y2299302D01*
X27685698Y2299298D01*
X27750916Y2243400D01*
X27750919Y2243398D01*
X27754013Y2240746D01*
X27836896Y2196304D01*
X27845413Y2193894D01*
X27923472Y2171805D01*
X27923476Y2171804D01*
X27927389Y2170697D01*
X27981307Y2167494D01*
X28017207Y2165361D01*
X28017210Y2165361D01*
X28021269Y2165120D01*
X28114157Y2179832D01*
X28117946Y2181317D01*
X28117950Y2181318D01*
X28165319Y2199882D01*
X28201719Y2214147D01*
X28205106Y2216415D01*
X28205109Y2216416D01*
X28276485Y2264198D01*
X28279870Y2266464D01*
X28309104Y2296949D01*
X28342400Y2317114D01*
X28363380Y2320100D01*
X35081294Y2320100D01*
X35084442Y2320034D01*
X35112618Y2318853D01*
X35117603Y2320022D01*
X35117610Y2320023D01*
X35133639Y2323783D01*
X35140604Y2325074D01*
X35149996Y2326361D01*
X35161986Y2328003D01*
X35166696Y2330041D01*
X35168093Y2330645D01*
X35180778Y2334840D01*
X35182256Y2335187D01*
X35182259Y2335188D01*
X35187246Y2336358D01*
X35206171Y2346761D01*
X35212494Y2349859D01*
X35232334Y2358445D01*
X35237500Y2362628D01*
X35248596Y2370084D01*
X35254417Y2373284D01*
X35259885Y2378005D01*
X35271556Y2389676D01*
X35277405Y2394943D01*
X35291904Y2406684D01*
X35296455Y2413087D01*
X35304574Y2422694D01*
X35838782Y2956901D01*
X35872493Y2976365D01*
X35911419Y2976365D01*
X35945130Y2956901D01*
X35964594Y2923190D01*
X35967156Y2903465D01*
X35967133Y2897027D01*
X35967048Y2872420D01*
X35966985Y2854488D01*
X35967845Y2850512D01*
X35967845Y2850509D01*
X35975639Y2814460D01*
X35986859Y2762566D01*
X36026009Y2677057D01*
X36028459Y2673806D01*
X36028460Y2673804D01*
X36060453Y2631348D01*
X36082607Y2601948D01*
X36085695Y2599302D01*
X36085698Y2599298D01*
X36150916Y2543400D01*
X36150919Y2543398D01*
X36154013Y2540746D01*
X36236896Y2496304D01*
X36267132Y2487748D01*
X36323472Y2471805D01*
X36323476Y2471804D01*
X36327389Y2470697D01*
X36380364Y2467550D01*
X36417207Y2465361D01*
X36417210Y2465361D01*
X36421269Y2465120D01*
X36514157Y2479832D01*
X36517946Y2481317D01*
X36517950Y2481318D01*
X36565788Y2500066D01*
X36601719Y2514147D01*
X36605106Y2516415D01*
X36605109Y2516416D01*
X36676484Y2564197D01*
X36676486Y2564198D01*
X36679870Y2566464D01*
X36744963Y2634343D01*
X36752476Y2646651D01*
X36775323Y2684080D01*
X36803513Y2710925D01*
X36839510Y2720100D01*
X38052705Y2720100D01*
X38090305Y2710025D01*
X38117830Y2682500D01*
X38127905Y2644900D01*
X38117830Y2607300D01*
X38081483Y2575424D01*
X38048800Y2561886D01*
X37986171Y2513829D01*
X37938114Y2451200D01*
X37907904Y2378267D01*
X37907262Y2373389D01*
X37907261Y2373386D01*
X37900236Y2320023D01*
X37897600Y2300000D01*
X37898243Y2295116D01*
X37906025Y2236007D01*
X37907904Y2221733D01*
X37938114Y2148800D01*
X37986171Y2086171D01*
X38048800Y2038114D01*
X38121733Y2007904D01*
X38126611Y2007262D01*
X38126614Y2007261D01*
X38195116Y1998243D01*
X38200000Y1997600D01*
X38204884Y1998243D01*
X38273386Y2007261D01*
X38273389Y2007262D01*
X38278267Y2007904D01*
X38351200Y2038114D01*
X38413829Y2086171D01*
X38424440Y2100000D01*
X38797600Y2100000D01*
X38798243Y2095116D01*
X38807151Y2027454D01*
X38807904Y2021733D01*
X38838114Y1948800D01*
X38886171Y1886171D01*
X38948800Y1838114D01*
X39021733Y1807904D01*
X39026611Y1807262D01*
X39026614Y1807261D01*
X39095116Y1798243D01*
X39100000Y1797600D01*
X39104884Y1798243D01*
X39173386Y1807261D01*
X39173389Y1807262D01*
X39178267Y1807904D01*
X39251200Y1838114D01*
X39313829Y1886171D01*
X39361886Y1948800D01*
X39392096Y2021733D01*
X39392850Y2027454D01*
X39401757Y2095116D01*
X39402400Y2100000D01*
X39396490Y2144893D01*
X39392739Y2173386D01*
X39392738Y2173389D01*
X39392096Y2178267D01*
X39361886Y2251200D01*
X39313829Y2313829D01*
X39305743Y2320034D01*
X39262326Y2353349D01*
X39251200Y2361886D01*
X39178267Y2392096D01*
X39173389Y2392738D01*
X39173386Y2392739D01*
X39104884Y2401757D01*
X39100000Y2402400D01*
X39095116Y2401757D01*
X39026614Y2392739D01*
X39026611Y2392738D01*
X39021733Y2392096D01*
X38948800Y2361886D01*
X38937674Y2353349D01*
X38894258Y2320034D01*
X38886171Y2313829D01*
X38838114Y2251200D01*
X38807904Y2178267D01*
X38807262Y2173389D01*
X38807261Y2173386D01*
X38803510Y2144893D01*
X38797600Y2100000D01*
X38424440Y2100000D01*
X38461886Y2148800D01*
X38492096Y2221733D01*
X38493976Y2236007D01*
X38501757Y2295116D01*
X38502400Y2300000D01*
X38499764Y2320023D01*
X38492739Y2373386D01*
X38492738Y2373389D01*
X38492096Y2378267D01*
X38461886Y2451200D01*
X38413829Y2513829D01*
X38351200Y2561886D01*
X38318518Y2575424D01*
X38287635Y2599122D01*
X38272738Y2635085D01*
X38277819Y2673678D01*
X38301517Y2704560D01*
X38347295Y2720100D01*
X39252915Y2720100D01*
X39290515Y2710025D01*
X39306089Y2698074D01*
X39966048Y2038114D01*
X41945137Y59024D01*
X41964601Y25313D01*
X41967163Y5588D01*
X41967008Y-39037D01*
X41966985Y-45512D01*
X41967845Y-49488D01*
X41967845Y-49491D01*
X41975960Y-87025D01*
X41986859Y-137434D01*
X42026009Y-222943D01*
X42028459Y-226194D01*
X42028460Y-226196D01*
X42074223Y-286926D01*
X42082607Y-298052D01*
X42085695Y-300698D01*
X42085698Y-300702D01*
X42150916Y-356600D01*
X42150919Y-356602D01*
X42154013Y-359254D01*
X42236896Y-403696D01*
X42251767Y-407904D01*
X42323472Y-428195D01*
X42323476Y-428196D01*
X42327389Y-429303D01*
X42381307Y-432506D01*
X42417207Y-434639D01*
X42417210Y-434639D01*
X42421269Y-434880D01*
X42514157Y-420168D01*
X42517946Y-418683D01*
X42517950Y-418682D01*
X42571744Y-397600D01*
X42601719Y-385853D01*
X42605106Y-383585D01*
X42605109Y-383584D01*
X42676484Y-335803D01*
X42676486Y-335802D01*
X42679870Y-333536D01*
X42744963Y-265657D01*
X42748872Y-259254D01*
X42778984Y-209922D01*
X42793962Y-185384D01*
X42797727Y-174451D01*
X42823254Y-100313D01*
X42824580Y-96462D01*
X42825460Y-88861D01*
X42835150Y-5105D01*
X42835389Y-3040D01*
X42835400Y0D01*
X42834870Y4884D01*
X42829101Y57983D01*
X42825243Y93496D01*
X42814250Y126162D01*
X42796545Y178771D01*
X42796543Y178776D01*
X42795246Y182629D01*
X42784809Y200000D01*
X42760585Y240314D01*
X42746809Y263242D01*
X42698307Y314532D01*
X42684985Y328620D01*
X42684982Y328622D01*
X42682191Y331574D01*
X42604408Y384435D01*
X42517088Y419361D01*
X42424305Y434721D01*
X42420239Y434508D01*
X42420236Y434508D01*
X42412478Y434101D01*
X42397698Y433326D01*
X42359625Y441418D01*
X42340589Y455249D01*
X41025330Y1770508D01*
X39704111Y3091726D01*
X39684647Y3125437D01*
X39684647Y3164363D01*
X39704111Y3198074D01*
X39737822Y3217538D01*
X39757285Y3220100D01*
X42853623Y3220100D01*
X42891223Y3210025D01*
X42918748Y3182500D01*
X42928823Y3144900D01*
X42921778Y3113120D01*
X42909204Y3086153D01*
X42887829Y3040314D01*
X42886942Y3036346D01*
X42886941Y3036343D01*
X42881777Y3013242D01*
X42867313Y2948534D01*
X42867244Y2928616D01*
X42867048Y2872420D01*
X42866985Y2854488D01*
X42867845Y2850512D01*
X42867845Y2850509D01*
X42875639Y2814460D01*
X42886859Y2762566D01*
X42926009Y2677057D01*
X42928459Y2673806D01*
X42928460Y2673804D01*
X42960453Y2631348D01*
X42982607Y2601948D01*
X42985695Y2599302D01*
X42985698Y2599298D01*
X43050916Y2543400D01*
X43050919Y2543398D01*
X43054013Y2540746D01*
X43136896Y2496304D01*
X43167132Y2487748D01*
X43223472Y2471805D01*
X43223476Y2471804D01*
X43227389Y2470697D01*
X43278190Y2467679D01*
X43311652Y2465691D01*
X43360366Y2443797D01*
X44795888Y1008274D01*
X44815352Y974563D01*
X44815352Y935637D01*
X44795888Y901926D01*
X44742714Y879900D01*
X44004749Y879900D01*
X44001600Y879966D01*
X43973424Y881147D01*
X43952398Y876215D01*
X43945441Y874926D01*
X43924057Y871997D01*
X43919352Y869961D01*
X43919349Y869960D01*
X43917953Y869356D01*
X43905264Y865159D01*
X43898796Y863642D01*
X43879883Y853245D01*
X43873526Y850131D01*
X43858418Y843593D01*
X43858416Y843592D01*
X43853709Y841555D01*
X43849726Y838330D01*
X43849725Y838329D01*
X43848546Y837374D01*
X43837452Y829919D01*
X43831626Y826716D01*
X43826157Y821995D01*
X43814482Y810320D01*
X43808634Y805054D01*
X43794139Y793316D01*
X43791172Y789141D01*
X43791171Y789140D01*
X43789595Y786922D01*
X43781471Y777310D01*
X43560101Y555940D01*
X43510863Y534017D01*
X43464331Y531578D01*
X43430388Y529799D01*
X43426461Y528717D01*
X43426459Y528717D01*
X43377215Y515153D01*
X43339719Y504825D01*
X43256527Y460963D01*
X43236850Y444334D01*
X43187805Y402888D01*
X43187802Y402885D01*
X43184696Y400260D01*
X43182225Y397028D01*
X43182224Y397027D01*
X43175696Y388489D01*
X43127574Y325549D01*
X43125853Y321858D01*
X43089548Y244002D01*
X43089546Y243996D01*
X43087829Y240314D01*
X43086942Y236346D01*
X43086941Y236343D01*
X43081909Y213829D01*
X43067313Y148534D01*
X43067245Y128967D01*
X43067123Y93919D01*
X43066985Y54488D01*
X43067845Y50512D01*
X43067845Y50509D01*
X43076451Y10707D01*
X43086859Y-37434D01*
X43126009Y-122943D01*
X43128459Y-126194D01*
X43128460Y-126196D01*
X43158196Y-165657D01*
X43182607Y-198052D01*
X43185695Y-200698D01*
X43185698Y-200702D01*
X43250916Y-256600D01*
X43250919Y-256602D01*
X43254013Y-259254D01*
X43336896Y-303696D01*
X43358969Y-309942D01*
X43423472Y-328195D01*
X43423476Y-328196D01*
X43427389Y-329303D01*
X43481307Y-332506D01*
X43517207Y-334639D01*
X43517210Y-334639D01*
X43521269Y-334880D01*
X43614157Y-320168D01*
X43617946Y-318683D01*
X43617950Y-318682D01*
X43663829Y-300702D01*
X43701719Y-285853D01*
X43705106Y-283585D01*
X43705109Y-283584D01*
X43776484Y-235803D01*
X43776486Y-235802D01*
X43779870Y-233536D01*
X43844963Y-165657D01*
X43893962Y-85384D01*
X43924580Y3538D01*
X43925184Y8754D01*
X43931861Y66464D01*
X43935389Y96960D01*
X43935400Y100000D01*
X43935172Y102103D01*
X43935070Y104040D01*
X43943161Y142116D01*
X43956993Y161155D01*
X44024095Y228256D01*
X44093914Y298075D01*
X44147088Y320100D01*
X50613948Y320100D01*
X50651548Y310025D01*
X50685304Y268636D01*
X50685997Y266553D01*
X50686859Y262566D01*
X50726009Y177057D01*
X50728459Y173806D01*
X50728460Y173804D01*
X50757031Y135889D01*
X50782607Y101948D01*
X50785695Y99302D01*
X50785698Y99298D01*
X50850916Y43400D01*
X50850919Y43398D01*
X50854013Y40746D01*
X50936896Y-3696D01*
X50972580Y-13794D01*
X51023472Y-28195D01*
X51023476Y-28196D01*
X51027389Y-29303D01*
X51078159Y-32319D01*
X51117207Y-34639D01*
X51117210Y-34639D01*
X51121269Y-34880D01*
X51214157Y-20168D01*
X51217946Y-18683D01*
X51217950Y-18682D01*
X51265620Y0D01*
X51301719Y14147D01*
X51305106Y16415D01*
X51305109Y16416D01*
X51376484Y64197D01*
X51376486Y64198D01*
X51379870Y66464D01*
X51444963Y134343D01*
X51454774Y150415D01*
X51480216Y192096D01*
X51485903Y201412D01*
X51514091Y228256D01*
X51551926Y237410D01*
X51589269Y226419D01*
X51618462Y193539D01*
X51624311Y180764D01*
X51624314Y180758D01*
X51626009Y177057D01*
X51628459Y173806D01*
X51628460Y173804D01*
X51657031Y135889D01*
X51682607Y101948D01*
X51685695Y99302D01*
X51685698Y99298D01*
X51750916Y43400D01*
X51750919Y43398D01*
X51754013Y40746D01*
X51836896Y-3696D01*
X51872580Y-13794D01*
X51923472Y-28195D01*
X51923476Y-28196D01*
X51927389Y-29303D01*
X51978159Y-32319D01*
X52017207Y-34639D01*
X52017210Y-34639D01*
X52021269Y-34880D01*
X52114157Y-20168D01*
X52117946Y-18683D01*
X52117950Y-18682D01*
X52165620Y0D01*
X52201719Y14147D01*
X52205106Y16415D01*
X52205109Y16416D01*
X52276484Y64197D01*
X52276486Y64198D01*
X52279870Y66464D01*
X52344963Y134343D01*
X52354774Y150415D01*
X52367474Y171222D01*
X52393962Y214616D01*
X52424580Y303538D01*
X52425852Y314532D01*
X52440181Y350726D01*
X52470687Y374905D01*
X52509195Y380593D01*
X52545389Y366264D01*
X52574056Y321783D01*
X52585547Y268636D01*
X52586859Y262566D01*
X52626009Y177057D01*
X52628459Y173806D01*
X52628460Y173804D01*
X52657031Y135889D01*
X52682607Y101948D01*
X52685695Y99302D01*
X52685698Y99298D01*
X52750916Y43400D01*
X52750919Y43398D01*
X52754013Y40746D01*
X52836896Y-3696D01*
X52872580Y-13794D01*
X52923472Y-28195D01*
X52923476Y-28196D01*
X52927389Y-29303D01*
X52978159Y-32319D01*
X53017207Y-34639D01*
X53017210Y-34639D01*
X53021269Y-34880D01*
X53114157Y-20168D01*
X53117946Y-18683D01*
X53117950Y-18682D01*
X53165620Y0D01*
X53201719Y14147D01*
X53205106Y16415D01*
X53205109Y16416D01*
X53276484Y64197D01*
X53276486Y64198D01*
X53279870Y66464D01*
X53344963Y134343D01*
X53354774Y150415D01*
X53367474Y171222D01*
X53393962Y214616D01*
X53423361Y300000D01*
X57097600Y300000D01*
X57098243Y295116D01*
X57106977Y228778D01*
X57107904Y221733D01*
X57138114Y148800D01*
X57141112Y144893D01*
X57180006Y94206D01*
X57186171Y86171D01*
X57248800Y38114D01*
X57321733Y7904D01*
X57326611Y7262D01*
X57326614Y7261D01*
X57395116Y-1757D01*
X57400000Y-2400D01*
X57404884Y-1757D01*
X57418230Y0D01*
X61097600Y0D01*
X61098243Y-4884D01*
X61106998Y-71384D01*
X61107904Y-78267D01*
X61138114Y-151200D01*
X61186171Y-213829D01*
X61248800Y-261886D01*
X61321733Y-292096D01*
X61326611Y-292738D01*
X61326614Y-292739D01*
X61395116Y-301757D01*
X61400000Y-302400D01*
X61404884Y-301757D01*
X61473386Y-292739D01*
X61473389Y-292738D01*
X61478267Y-292096D01*
X61551200Y-261886D01*
X61613829Y-213829D01*
X61661886Y-151200D01*
X61692096Y-78267D01*
X61693003Y-71384D01*
X61701757Y-4884D01*
X61702400Y0D01*
X61699224Y24125D01*
X61692739Y73386D01*
X61692738Y73389D01*
X61692096Y78267D01*
X61661886Y151200D01*
X61613829Y213829D01*
X61551200Y261886D01*
X61478267Y292096D01*
X61473389Y292738D01*
X61473386Y292739D01*
X61404884Y301757D01*
X61400000Y302400D01*
X61395116Y301757D01*
X61326614Y292739D01*
X61326611Y292738D01*
X61321733Y292096D01*
X61248800Y261886D01*
X61186171Y213829D01*
X61138114Y151200D01*
X61107904Y78267D01*
X61107262Y73389D01*
X61107261Y73386D01*
X61100776Y24125D01*
X61097600Y0D01*
X57418230Y0D01*
X57473386Y7261D01*
X57473389Y7262D01*
X57478267Y7904D01*
X57551200Y38114D01*
X57613829Y86171D01*
X57619995Y94206D01*
X57658888Y144893D01*
X57661886Y148800D01*
X57692096Y221733D01*
X57693024Y228778D01*
X57701757Y295116D01*
X57702400Y300000D01*
X57699522Y321858D01*
X57692739Y373386D01*
X57692738Y373389D01*
X57692096Y378267D01*
X57661886Y451200D01*
X57613829Y513829D01*
X57551200Y561886D01*
X57478267Y592096D01*
X57473389Y592738D01*
X57473386Y592739D01*
X57404884Y601757D01*
X57400000Y602400D01*
X57395116Y601757D01*
X57326614Y592739D01*
X57326611Y592738D01*
X57321733Y592096D01*
X57248800Y561886D01*
X57186171Y513829D01*
X57138114Y451200D01*
X57107904Y378267D01*
X57107262Y373389D01*
X57107261Y373386D01*
X57100478Y321858D01*
X57097600Y300000D01*
X53423361Y300000D01*
X53424580Y303538D01*
X53425119Y308192D01*
X53435149Y394887D01*
X53435389Y396960D01*
X53435400Y400000D01*
X53433225Y420026D01*
X53427386Y473765D01*
X53425243Y493496D01*
X53422463Y501757D01*
X53396545Y578771D01*
X53396543Y578776D01*
X53395246Y582629D01*
X53391332Y589144D01*
X53354249Y650859D01*
X53346809Y663242D01*
X53307912Y704375D01*
X53284985Y728620D01*
X53284982Y728622D01*
X53282191Y731574D01*
X53204408Y784435D01*
X53117088Y819361D01*
X53024305Y834721D01*
X53020238Y834508D01*
X53020235Y834508D01*
X52973248Y832045D01*
X52930388Y829799D01*
X52926461Y828717D01*
X52926459Y828717D01*
X52851943Y808192D01*
X52839719Y804825D01*
X52756527Y760963D01*
X52742134Y748800D01*
X52687805Y702888D01*
X52687802Y702885D01*
X52684696Y700260D01*
X52627574Y625549D01*
X52625853Y621858D01*
X52589548Y544002D01*
X52589546Y543996D01*
X52587829Y540314D01*
X52586942Y536346D01*
X52586941Y536343D01*
X52574085Y478831D01*
X52556050Y444334D01*
X52523183Y423477D01*
X52484291Y421847D01*
X52449794Y439882D01*
X52426746Y485512D01*
X52426557Y485470D01*
X52426395Y486208D01*
X52425936Y487116D01*
X52425243Y493496D01*
X52422463Y501757D01*
X52396545Y578771D01*
X52396543Y578776D01*
X52395246Y582629D01*
X52391332Y589144D01*
X52354249Y650859D01*
X52346809Y663242D01*
X52307912Y704375D01*
X52284985Y728620D01*
X52284982Y728622D01*
X52282191Y731574D01*
X52204408Y784435D01*
X52117088Y819361D01*
X52024305Y834721D01*
X52020239Y834508D01*
X52020236Y834508D01*
X52012478Y834101D01*
X51997698Y833326D01*
X51959625Y841418D01*
X51940589Y855249D01*
X51836381Y959457D01*
X57876796Y959457D01*
X57896132Y874689D01*
X57898059Y870765D01*
X57898059Y870764D01*
X57931602Y802446D01*
X57934451Y796643D01*
X57937224Y793273D01*
X57937226Y793270D01*
X57953395Y773621D01*
X57989697Y729505D01*
X57993178Y726858D01*
X57993180Y726856D01*
X58015450Y709922D01*
X58058906Y676877D01*
X58138365Y641583D01*
X58148639Y639651D01*
X58219521Y626321D01*
X58219522Y626321D01*
X58223813Y625514D01*
X58243240Y626413D01*
X58306307Y629332D01*
X58306309Y629332D01*
X58310666Y629534D01*
X58314860Y630733D01*
X58314862Y630733D01*
X58350000Y640776D01*
X58394264Y653427D01*
X58430925Y673958D01*
X58466309Y693773D01*
X58466312Y693775D01*
X58470124Y695910D01*
X58534176Y754706D01*
X58568173Y804825D01*
X58580530Y823042D01*
X58580531Y823043D01*
X58582984Y826660D01*
X58598156Y866495D01*
X58612375Y903828D01*
X58612376Y903832D01*
X58613930Y907912D01*
X58625354Y994103D01*
X58625400Y1000000D01*
X58621486Y1033575D01*
X58615837Y1082021D01*
X58615331Y1086361D01*
X58612484Y1094206D01*
X58589006Y1158888D01*
X58585666Y1168089D01*
X58537994Y1240800D01*
X58474873Y1300595D01*
X58452104Y1313820D01*
X58403466Y1342071D01*
X58403464Y1342072D01*
X58399690Y1344264D01*
X58395511Y1345530D01*
X58395508Y1345531D01*
X58320661Y1368200D01*
X58320662Y1368200D01*
X58316478Y1369467D01*
X58269833Y1372361D01*
X58234058Y1374581D01*
X58234054Y1374581D01*
X58229699Y1374851D01*
X58144009Y1360126D01*
X58139993Y1358417D01*
X58139989Y1358416D01*
X58069530Y1328435D01*
X58064005Y1326084D01*
X57993978Y1274550D01*
X57991153Y1271224D01*
X57991149Y1271221D01*
X57940513Y1211619D01*
X57937684Y1208289D01*
X57935697Y1204397D01*
X57935696Y1204396D01*
X57928453Y1190212D01*
X57898144Y1130854D01*
X57891460Y1103538D01*
X57878654Y1051200D01*
X57877479Y1046400D01*
X57877133Y1002406D01*
X57876843Y965396D01*
X57876796Y959457D01*
X51836381Y959457D01*
X51501301Y1294536D01*
X51499121Y1296809D01*
X51498399Y1297594D01*
X51480009Y1317593D01*
X51461646Y1328979D01*
X51455812Y1332989D01*
X51451394Y1336343D01*
X51438631Y1346030D01*
X51432452Y1348477D01*
X51420512Y1354482D01*
X51414862Y1357985D01*
X51394106Y1364015D01*
X51387434Y1366300D01*
X51367361Y1374248D01*
X51360756Y1374942D01*
X51347636Y1377517D01*
X51341254Y1379371D01*
X51337327Y1379659D01*
X51337323Y1379660D01*
X51335414Y1379800D01*
X51335408Y1379800D01*
X51334049Y1379900D01*
X51317525Y1379900D01*
X51309664Y1380312D01*
X51303565Y1380953D01*
X51291130Y1382260D01*
X51283401Y1380953D01*
X51270862Y1379900D01*
X45247087Y1379900D01*
X45193913Y1401926D01*
X44476898Y2118941D01*
X43891351Y2704488D01*
X49616985Y2704488D01*
X49617845Y2700512D01*
X49617845Y2700509D01*
X49627560Y2655576D01*
X49636859Y2612566D01*
X49676009Y2527057D01*
X49678459Y2523806D01*
X49678460Y2523804D01*
X49697731Y2498230D01*
X49732607Y2451948D01*
X49735695Y2449302D01*
X49735698Y2449298D01*
X49800916Y2393400D01*
X49800919Y2393398D01*
X49804013Y2390746D01*
X49886896Y2346304D01*
X49913330Y2338824D01*
X49973472Y2321805D01*
X49973476Y2321804D01*
X49977389Y2320697D01*
X50031307Y2317494D01*
X50067207Y2315361D01*
X50067210Y2315361D01*
X50071269Y2315120D01*
X50120275Y2322882D01*
X50158987Y2318813D01*
X50190479Y2295933D01*
X50206312Y2260372D01*
X50205427Y2232204D01*
X50194053Y2181318D01*
X50192313Y2173534D01*
X50192284Y2165120D01*
X50192040Y2095116D01*
X50191985Y2079488D01*
X50192845Y2075512D01*
X50192845Y2075509D01*
X50199247Y2045900D01*
X50211859Y1987566D01*
X50251009Y1902057D01*
X50253459Y1898806D01*
X50253460Y1898804D01*
X50283196Y1859343D01*
X50307607Y1826948D01*
X50310695Y1824302D01*
X50310698Y1824298D01*
X50375916Y1768400D01*
X50375919Y1768398D01*
X50379013Y1765746D01*
X50461896Y1721304D01*
X50497580Y1711206D01*
X50548472Y1696805D01*
X50548476Y1696804D01*
X50552389Y1695697D01*
X50606307Y1692494D01*
X50642207Y1690361D01*
X50642210Y1690361D01*
X50646269Y1690120D01*
X50739157Y1704832D01*
X50742946Y1706317D01*
X50742950Y1706318D01*
X50799872Y1728626D01*
X50826719Y1739147D01*
X50830106Y1741415D01*
X50830109Y1741416D01*
X50901484Y1789197D01*
X50901486Y1789198D01*
X50904870Y1791464D01*
X50969963Y1859343D01*
X51018962Y1939616D01*
X51030772Y1973915D01*
X51038095Y1995182D01*
X51059862Y2027454D01*
X51109198Y2045900D01*
X61861846Y2045900D01*
X61910783Y2027799D01*
X61954013Y1990746D01*
X62036896Y1946304D01*
X62060531Y1939616D01*
X62123472Y1921805D01*
X62123476Y1921804D01*
X62127389Y1920697D01*
X62181307Y1917494D01*
X62217207Y1915361D01*
X62217210Y1915361D01*
X62221269Y1915120D01*
X62314157Y1929832D01*
X62317946Y1931317D01*
X62317950Y1931318D01*
X62362558Y1948800D01*
X62401719Y1964147D01*
X62405106Y1966415D01*
X62405109Y1966416D01*
X62476484Y2014197D01*
X62476486Y2014198D01*
X62479870Y2016464D01*
X62544963Y2084343D01*
X62593962Y2164616D01*
X62624580Y2253538D01*
X62625943Y2265314D01*
X62632350Y2320697D01*
X62635389Y2346960D01*
X62635400Y2350000D01*
X62634612Y2357259D01*
X62627281Y2424736D01*
X62625243Y2443496D01*
X62622399Y2451948D01*
X62603756Y2507347D01*
X66673851Y2507347D01*
X66674159Y2503679D01*
X66674159Y2503676D01*
X66680960Y2422694D01*
X66682445Y2405011D01*
X66710752Y2306293D01*
X66757694Y2214953D01*
X66821483Y2134471D01*
X66899691Y2067911D01*
X66902892Y2066122D01*
X66902895Y2066120D01*
X66986125Y2019604D01*
X66986130Y2019602D01*
X66989336Y2017810D01*
X66992837Y2016672D01*
X66992838Y2016672D01*
X67010073Y2011072D01*
X67087006Y1986075D01*
X67161616Y1977178D01*
X67185323Y1974351D01*
X67185324Y1974351D01*
X67188980Y1973915D01*
X67291374Y1981794D01*
X67384890Y2007904D01*
X67386742Y2008421D01*
X67386744Y2008422D01*
X67390287Y2009411D01*
X67410068Y2019403D01*
X67478669Y2054056D01*
X67478674Y2054059D01*
X67481952Y2055715D01*
X67502694Y2071920D01*
X67559985Y2116680D01*
X67559989Y2116684D01*
X67562878Y2118941D01*
X67588652Y2148800D01*
X67627577Y2193894D01*
X67627580Y2193898D01*
X67629982Y2196681D01*
X67631798Y2199878D01*
X67631801Y2199882D01*
X67678890Y2282774D01*
X67678892Y2282777D01*
X67680708Y2285975D01*
X67706587Y2363770D01*
X67711962Y2379927D01*
X67711963Y2379930D01*
X67713124Y2383421D01*
X67725995Y2485308D01*
X67726133Y2495195D01*
X67726171Y2497901D01*
X67726171Y2497906D01*
X67726200Y2500000D01*
X67724591Y2516416D01*
X67720858Y2554488D01*
X67716179Y2602206D01*
X67686496Y2700519D01*
X67638283Y2791195D01*
X67633224Y2797399D01*
X69170152Y2797399D01*
X69170460Y2793730D01*
X69170460Y2793727D01*
X69177413Y2710925D01*
X69178805Y2694343D01*
X69184731Y2673678D01*
X69196853Y2631404D01*
X69207311Y2594931D01*
X69254584Y2502949D01*
X69318822Y2421901D01*
X69355429Y2390746D01*
X69393382Y2358445D01*
X69397579Y2354873D01*
X69400791Y2353078D01*
X69484644Y2306213D01*
X69484649Y2306211D01*
X69487855Y2304419D01*
X69491352Y2303283D01*
X69491356Y2303281D01*
X69538322Y2288021D01*
X69586212Y2272461D01*
X69622366Y2268150D01*
X69685245Y2260652D01*
X69685247Y2260652D01*
X69688903Y2260216D01*
X69792016Y2268150D01*
X69868370Y2289469D01*
X69888080Y2294972D01*
X69888082Y2294973D01*
X69891625Y2295962D01*
X69955056Y2328003D01*
X69980651Y2340932D01*
X69980652Y2340933D01*
X69983935Y2342591D01*
X69994121Y2350549D01*
X70062531Y2403996D01*
X70062536Y2404001D01*
X70065429Y2406261D01*
X70070416Y2412038D01*
X70130600Y2481762D01*
X70130603Y2481766D01*
X70133005Y2484549D01*
X70170476Y2550509D01*
X70182271Y2571271D01*
X70182272Y2571274D01*
X70184088Y2574470D01*
X70200933Y2625108D01*
X70215570Y2669107D01*
X70215571Y2669110D01*
X70216732Y2672601D01*
X70229693Y2775204D01*
X70229900Y2790000D01*
X70229695Y2792092D01*
X70220168Y2889258D01*
X70220167Y2889262D01*
X70219808Y2892925D01*
X70189917Y2991929D01*
X70141365Y3083242D01*
X70139040Y3086093D01*
X70078327Y3160536D01*
X70078323Y3160540D01*
X70076002Y3163386D01*
X69996316Y3229307D01*
X69905345Y3278495D01*
X69806551Y3309077D01*
X69742703Y3315788D01*
X69707354Y3319503D01*
X69707352Y3319503D01*
X69703699Y3319887D01*
X69600707Y3310514D01*
X69571602Y3301948D01*
X69505025Y3282354D01*
X69505022Y3282353D01*
X69501496Y3281315D01*
X69498239Y3279612D01*
X69498236Y3279611D01*
X69413105Y3235105D01*
X69409846Y3233401D01*
X69406980Y3231096D01*
X69406979Y3231096D01*
X69348472Y3184055D01*
X69329248Y3168599D01*
X69262772Y3089376D01*
X69261001Y3086154D01*
X69261000Y3086153D01*
X69224281Y3019361D01*
X69212950Y2998750D01*
X69181680Y2900172D01*
X69170152Y2797399D01*
X67633224Y2797399D01*
X67573376Y2870779D01*
X67537740Y2900260D01*
X67497078Y2933898D01*
X67494247Y2936240D01*
X67403911Y2985084D01*
X67376736Y2993496D01*
X67309320Y3014365D01*
X67309316Y3014366D01*
X67305807Y3015452D01*
X67236620Y3022724D01*
X67207329Y3025803D01*
X67207327Y3025803D01*
X67203674Y3026187D01*
X67152537Y3021533D01*
X67105058Y3017213D01*
X67105057Y3017213D01*
X67101400Y3016880D01*
X67097876Y3015843D01*
X67097872Y3015842D01*
X67006411Y2988923D01*
X67006408Y2988922D01*
X67002882Y2987884D01*
X66999624Y2986181D01*
X66999622Y2986180D01*
X66919831Y2944466D01*
X66911872Y2940305D01*
X66909006Y2938000D01*
X66909005Y2938000D01*
X66841540Y2883757D01*
X66831837Y2875956D01*
X66765825Y2797286D01*
X66764054Y2794064D01*
X66764053Y2794063D01*
X66748927Y2766549D01*
X66716351Y2707292D01*
X66685299Y2609403D01*
X66673851Y2507347D01*
X62603756Y2507347D01*
X62596545Y2528771D01*
X62596543Y2528776D01*
X62595246Y2532629D01*
X62579667Y2558558D01*
X62559515Y2592096D01*
X62546809Y2613242D01*
X62509318Y2652888D01*
X62484985Y2678620D01*
X62484982Y2678622D01*
X62482191Y2681574D01*
X62404408Y2734435D01*
X62317088Y2769361D01*
X62224305Y2784721D01*
X62220238Y2784508D01*
X62220235Y2784508D01*
X62173248Y2782045D01*
X62130388Y2779799D01*
X62126461Y2778717D01*
X62126459Y2778717D01*
X62043647Y2755907D01*
X62039719Y2754825D01*
X61956527Y2710963D01*
X61941275Y2698074D01*
X61887805Y2652888D01*
X61887802Y2652885D01*
X61884696Y2650260D01*
X61882225Y2647028D01*
X61882224Y2647027D01*
X61834624Y2584770D01*
X61827574Y2575549D01*
X61821203Y2561886D01*
X61814503Y2547518D01*
X61789481Y2517699D01*
X61746349Y2504100D01*
X60496369Y2504100D01*
X60458769Y2514175D01*
X60431244Y2541700D01*
X60421169Y2579300D01*
X60440542Y2627496D01*
X60439659Y2628176D01*
X60442079Y2631319D01*
X60442091Y2631348D01*
X60442145Y2631404D01*
X60442147Y2631406D01*
X60444963Y2634343D01*
X60493962Y2714616D01*
X60524580Y2803538D01*
X60525576Y2812142D01*
X60533415Y2879900D01*
X60535389Y2896960D01*
X60535400Y2900000D01*
X60532912Y2922907D01*
X60529517Y2954150D01*
X60525243Y2993496D01*
X60518220Y3014365D01*
X60496545Y3078771D01*
X60496543Y3078776D01*
X60495246Y3082629D01*
X60487030Y3096304D01*
X60448904Y3159755D01*
X60446809Y3163242D01*
X60395412Y3217593D01*
X60384985Y3228620D01*
X60384982Y3228622D01*
X60382191Y3231574D01*
X60376996Y3235105D01*
X60317005Y3275874D01*
X60304408Y3284435D01*
X60217088Y3319361D01*
X60124305Y3334721D01*
X60120238Y3334508D01*
X60120235Y3334508D01*
X60073248Y3332045D01*
X60030388Y3329799D01*
X60026461Y3328717D01*
X60026459Y3328717D01*
X59948327Y3307196D01*
X59939719Y3304825D01*
X59856527Y3260963D01*
X59853414Y3258332D01*
X59787805Y3202888D01*
X59787802Y3202885D01*
X59784696Y3200260D01*
X59782225Y3197028D01*
X59782224Y3197027D01*
X59780823Y3195195D01*
X59727574Y3125549D01*
X59687829Y3040314D01*
X59686940Y3036336D01*
X59685629Y3032485D01*
X59684634Y3032824D01*
X59669264Y3003410D01*
X59636402Y2982545D01*
X59613900Y2979100D01*
X50459502Y2979100D01*
X50421902Y2989175D01*
X50399602Y3008835D01*
X50398906Y3009752D01*
X50396809Y3013242D01*
X50393054Y3017213D01*
X50334985Y3078620D01*
X50334982Y3078622D01*
X50332191Y3081574D01*
X50325542Y3086093D01*
X50280922Y3116416D01*
X50254408Y3134435D01*
X50167088Y3169361D01*
X50074305Y3184721D01*
X50070238Y3184508D01*
X50070235Y3184508D01*
X50023248Y3182045D01*
X49980388Y3179799D01*
X49976461Y3178717D01*
X49976459Y3178717D01*
X49893647Y3155907D01*
X49889719Y3154825D01*
X49806527Y3110963D01*
X49803414Y3108332D01*
X49737805Y3052888D01*
X49737802Y3052885D01*
X49734696Y3050260D01*
X49732225Y3047028D01*
X49732224Y3047027D01*
X49724055Y3036343D01*
X49677574Y2975549D01*
X49675853Y2971858D01*
X49639548Y2894002D01*
X49639546Y2893996D01*
X49637829Y2890314D01*
X49636942Y2886346D01*
X49636941Y2886343D01*
X49629821Y2854488D01*
X49617313Y2798534D01*
X49617192Y2763770D01*
X49617008Y2710963D01*
X49616985Y2704488D01*
X43891351Y2704488D01*
X43757129Y2838709D01*
X43737665Y2872420D01*
X43735275Y2895971D01*
X43735389Y2896960D01*
X43735400Y2900000D01*
X43725391Y2992131D01*
X43731346Y3030597D01*
X43755737Y3060934D01*
X43792029Y3075011D01*
X43820622Y3072611D01*
X43823466Y3071806D01*
X43823476Y3071804D01*
X43827389Y3070697D01*
X43881307Y3067494D01*
X43917207Y3065361D01*
X43917210Y3065361D01*
X43921269Y3065120D01*
X44014157Y3079832D01*
X44017946Y3081317D01*
X44017950Y3081318D01*
X44059808Y3097722D01*
X44101719Y3114147D01*
X44105106Y3116415D01*
X44105109Y3116416D01*
X44176484Y3164197D01*
X44176486Y3164198D01*
X44179870Y3166464D01*
X44244963Y3234343D01*
X44248872Y3240746D01*
X44269260Y3274148D01*
X44293962Y3314616D01*
X44324580Y3403538D01*
X44325460Y3411139D01*
X44331158Y3460394D01*
X44335389Y3496960D01*
X44335400Y3500000D01*
X44325243Y3593496D01*
X44302807Y3660162D01*
X44300363Y3699011D01*
X44317670Y3733878D01*
X44350093Y3755420D01*
X44392082Y3757161D01*
X44415385Y3751415D01*
X44415395Y3751414D01*
X44418865Y3750558D01*
X44485975Y3747100D01*
X44520652Y3745313D01*
X44520654Y3745313D01*
X44524226Y3745129D01*
X44628713Y3759720D01*
X44728555Y3793807D01*
X44775512Y3820645D01*
X44817041Y3844380D01*
X44817045Y3844383D01*
X44820151Y3846158D01*
X44822868Y3848491D01*
X44822871Y3848493D01*
X44858347Y3878954D01*
X44907335Y3897100D01*
X45889304Y3897100D01*
X45934069Y3880320D01*
X45934894Y3881471D01*
X46020623Y3819982D01*
X46116432Y3775813D01*
X46154351Y3766464D01*
X46215392Y3751414D01*
X46215395Y3751414D01*
X46218865Y3750558D01*
X46285975Y3747100D01*
X46320652Y3745313D01*
X46320654Y3745313D01*
X46324226Y3745129D01*
X46428713Y3759720D01*
X46432105Y3760878D01*
X46432109Y3760879D01*
X46453160Y3768066D01*
X46477458Y3772100D01*
X48222356Y3772100D01*
X48240358Y3769914D01*
X48315392Y3751414D01*
X48315395Y3751414D01*
X48318865Y3750558D01*
X48385975Y3747100D01*
X48420652Y3745313D01*
X48420654Y3745313D01*
X48424226Y3745129D01*
X48528713Y3759720D01*
X48628555Y3793807D01*
X48675512Y3820645D01*
X48717041Y3844380D01*
X48717045Y3844383D01*
X48720151Y3846158D01*
X48722868Y3848491D01*
X48722871Y3848493D01*
X48783161Y3900260D01*
X48800194Y3914885D01*
X48815769Y3934500D01*
X48823045Y3943663D01*
X48854316Y3966844D01*
X48881937Y3972100D01*
X48887465Y3972100D01*
X48925065Y3962025D01*
X48952590Y3934500D01*
X48962665Y3896900D01*
X48947205Y3851225D01*
X48927574Y3825549D01*
X48925853Y3821858D01*
X48889548Y3744002D01*
X48889546Y3743996D01*
X48887829Y3740314D01*
X48886942Y3736346D01*
X48886941Y3736343D01*
X48878596Y3699011D01*
X48867313Y3648534D01*
X48867230Y3624695D01*
X48867055Y3574422D01*
X48866985Y3554488D01*
X48867845Y3550512D01*
X48867845Y3550509D01*
X48870526Y3538111D01*
X48886859Y3462566D01*
X48926009Y3377057D01*
X48928459Y3373806D01*
X48928460Y3373804D01*
X48970159Y3318467D01*
X48982607Y3301948D01*
X48985695Y3299302D01*
X48985698Y3299298D01*
X49050916Y3243400D01*
X49050919Y3243398D01*
X49054013Y3240746D01*
X49136896Y3196304D01*
X49172580Y3186206D01*
X49223472Y3171805D01*
X49223476Y3171804D01*
X49227389Y3170697D01*
X49281307Y3167494D01*
X49317207Y3165361D01*
X49317210Y3165361D01*
X49321269Y3165120D01*
X49414157Y3179832D01*
X49417946Y3181317D01*
X49417950Y3181318D01*
X49472989Y3202888D01*
X49501719Y3214147D01*
X49505106Y3216415D01*
X49505109Y3216416D01*
X49576484Y3264197D01*
X49576486Y3264198D01*
X49579870Y3266464D01*
X49644963Y3334343D01*
X49650470Y3343364D01*
X49684849Y3399687D01*
X49693962Y3414616D01*
X49709196Y3458860D01*
X49719021Y3487393D01*
X49740788Y3519665D01*
X49790124Y3538111D01*
X63813262Y3538111D01*
X63816410Y3538045D01*
X63844586Y3536864D01*
X63849571Y3538033D01*
X63849578Y3538034D01*
X63865607Y3541794D01*
X63872572Y3543085D01*
X63881964Y3544372D01*
X63893954Y3546014D01*
X63898664Y3548052D01*
X63900061Y3548656D01*
X63912746Y3552851D01*
X63914224Y3553198D01*
X63914227Y3553199D01*
X63919214Y3554369D01*
X63938139Y3564772D01*
X63944462Y3567870D01*
X63964302Y3576456D01*
X63969468Y3580639D01*
X63980564Y3588095D01*
X63986385Y3591295D01*
X63991853Y3596016D01*
X64003524Y3607687D01*
X64009373Y3612954D01*
X64019888Y3621469D01*
X64023872Y3624695D01*
X64028418Y3631092D01*
X64036542Y3640705D01*
X64040441Y3644604D01*
X64074152Y3664068D01*
X64098074Y3666498D01*
X64103766Y3666160D01*
X64117207Y3665361D01*
X64117210Y3665361D01*
X64121269Y3665120D01*
X64214157Y3679832D01*
X64217946Y3681317D01*
X64217950Y3681318D01*
X64275176Y3703745D01*
X64301719Y3714147D01*
X64305106Y3716415D01*
X64305109Y3716416D01*
X64376484Y3764197D01*
X64376486Y3764198D01*
X64379870Y3766464D01*
X64444963Y3834343D01*
X64493962Y3914616D01*
X64524580Y4003538D01*
X64535389Y4096960D01*
X64535400Y4100000D01*
X64534533Y4107986D01*
X64529240Y4156706D01*
X64526867Y4178552D01*
X68012479Y4178552D01*
X68033745Y4099183D01*
X68035984Y4093032D01*
X68081452Y3995527D01*
X68084724Y3989859D01*
X68146430Y3901733D01*
X68150645Y3896710D01*
X68226710Y3820645D01*
X68231733Y3816430D01*
X68319859Y3754724D01*
X68325527Y3751452D01*
X68423032Y3705984D01*
X68429183Y3703745D01*
X68533107Y3675899D01*
X68539549Y3674763D01*
X68619781Y3667744D01*
X68623075Y3667600D01*
X69063098Y3667600D01*
X69070908Y3669692D01*
X69073000Y3677502D01*
X69326999Y3677502D01*
X69329091Y3669692D01*
X69336901Y3667600D01*
X69776925Y3667600D01*
X69780219Y3667744D01*
X69860451Y3674763D01*
X69866893Y3675899D01*
X69970817Y3703745D01*
X69976968Y3705984D01*
X70074473Y3751452D01*
X70080141Y3754724D01*
X70168267Y3816430D01*
X70173290Y3820645D01*
X70249355Y3896710D01*
X70253570Y3901733D01*
X70315276Y3989859D01*
X70318548Y3995527D01*
X70364016Y4093032D01*
X70366255Y4099183D01*
X70387521Y4178552D01*
X72342479Y4178552D01*
X72363745Y4099183D01*
X72365984Y4093032D01*
X72411452Y3995527D01*
X72414724Y3989859D01*
X72476430Y3901733D01*
X72480645Y3896710D01*
X72556710Y3820645D01*
X72561733Y3816430D01*
X72649859Y3754724D01*
X72655527Y3751452D01*
X72753032Y3705984D01*
X72759183Y3703745D01*
X72863107Y3675899D01*
X72869549Y3674763D01*
X72949781Y3667744D01*
X72953075Y3667600D01*
X73243098Y3667600D01*
X73250908Y3669692D01*
X73253000Y3677502D01*
X73506999Y3677502D01*
X73509091Y3669692D01*
X73516901Y3667600D01*
X73806925Y3667600D01*
X73810219Y3667744D01*
X73890451Y3674763D01*
X73896893Y3675899D01*
X74000817Y3703745D01*
X74006968Y3705984D01*
X74104473Y3751452D01*
X74110141Y3754724D01*
X74198267Y3816430D01*
X74203290Y3820645D01*
X74279355Y3896710D01*
X74283570Y3901733D01*
X74345276Y3989859D01*
X74348548Y3995527D01*
X74394016Y4093032D01*
X74396255Y4099183D01*
X74418831Y4183438D01*
X74418831Y4187866D01*
X74406436Y4193000D01*
X73516902Y4193001D01*
X73509092Y4190909D01*
X73507000Y4183099D01*
X73506999Y3677502D01*
X73253000Y3677502D01*
X73253001Y4183098D01*
X73250909Y4190908D01*
X73243099Y4193000D01*
X72348509Y4193001D01*
X72344230Y4191855D01*
X72342479Y4178552D01*
X70387521Y4178552D01*
X70388831Y4183438D01*
X70388831Y4187866D01*
X70376436Y4193000D01*
X69336902Y4193001D01*
X69329092Y4190909D01*
X69327000Y4183099D01*
X69326999Y3677502D01*
X69073000Y3677502D01*
X69073001Y4183098D01*
X69070909Y4190908D01*
X69063099Y4193000D01*
X68018509Y4193001D01*
X68014230Y4191855D01*
X68012479Y4178552D01*
X64526867Y4178552D01*
X64525243Y4193496D01*
X64520398Y4207892D01*
X64496545Y4278771D01*
X64496543Y4278776D01*
X64495246Y4282629D01*
X64490190Y4291045D01*
X64452243Y4354198D01*
X64446809Y4363242D01*
X64409318Y4402888D01*
X64384985Y4428620D01*
X64384982Y4428622D01*
X64382191Y4431574D01*
X64357808Y4448145D01*
X64345423Y4456562D01*
X68011169Y4456562D01*
X68011169Y4452134D01*
X68023564Y4447000D01*
X69063098Y4446999D01*
X69070908Y4449091D01*
X69073000Y4456901D01*
X69073000Y4456902D01*
X69326999Y4456902D01*
X69329091Y4449092D01*
X69336901Y4447000D01*
X70381491Y4446999D01*
X70385770Y4448145D01*
X70386877Y4456562D01*
X72341169Y4456562D01*
X72341169Y4452134D01*
X72353564Y4447000D01*
X73243098Y4446999D01*
X73250908Y4449091D01*
X73253000Y4456901D01*
X73253000Y4456902D01*
X73506999Y4456902D01*
X73509091Y4449092D01*
X73516901Y4447000D01*
X74411491Y4446999D01*
X74415770Y4448145D01*
X74417521Y4461448D01*
X74396255Y4540817D01*
X74394016Y4546968D01*
X74348548Y4644473D01*
X74345276Y4650141D01*
X74283570Y4738267D01*
X74279355Y4743290D01*
X74203290Y4819355D01*
X74198267Y4823570D01*
X74110141Y4885276D01*
X74104473Y4888548D01*
X74006968Y4934016D01*
X74000817Y4936255D01*
X73896893Y4964101D01*
X73890451Y4965237D01*
X73810219Y4972256D01*
X73806925Y4972400D01*
X73516902Y4972400D01*
X73509092Y4970308D01*
X73507000Y4962498D01*
X73506999Y4456902D01*
X73253000Y4456902D01*
X73253001Y4962498D01*
X73250909Y4970308D01*
X73243099Y4972400D01*
X72953075Y4972400D01*
X72949781Y4972256D01*
X72869549Y4965237D01*
X72863107Y4964101D01*
X72759183Y4936255D01*
X72753032Y4934016D01*
X72655527Y4888548D01*
X72649859Y4885276D01*
X72561733Y4823570D01*
X72556710Y4819355D01*
X72480645Y4743290D01*
X72476430Y4738267D01*
X72414724Y4650141D01*
X72411452Y4644473D01*
X72365984Y4546968D01*
X72363745Y4540817D01*
X72341169Y4456562D01*
X70386877Y4456562D01*
X70387521Y4461448D01*
X70366255Y4540817D01*
X70364016Y4546968D01*
X70318548Y4644473D01*
X70315276Y4650141D01*
X70253570Y4738267D01*
X70249355Y4743290D01*
X70173290Y4819355D01*
X70168267Y4823570D01*
X70080141Y4885276D01*
X70074473Y4888548D01*
X69976968Y4934016D01*
X69970817Y4936255D01*
X69866893Y4964101D01*
X69860451Y4965237D01*
X69780219Y4972256D01*
X69776925Y4972400D01*
X69336902Y4972400D01*
X69329092Y4970308D01*
X69327000Y4962498D01*
X69326999Y4456902D01*
X69073000Y4456902D01*
X69073001Y4962498D01*
X69070909Y4970308D01*
X69063099Y4972400D01*
X68623075Y4972400D01*
X68619781Y4972256D01*
X68539549Y4965237D01*
X68533107Y4964101D01*
X68429183Y4936255D01*
X68423032Y4934016D01*
X68325527Y4888548D01*
X68319859Y4885276D01*
X68231733Y4823570D01*
X68226710Y4819355D01*
X68150645Y4743290D01*
X68146430Y4738267D01*
X68084724Y4650141D01*
X68081452Y4644473D01*
X68035984Y4546968D01*
X68033745Y4540817D01*
X68011169Y4456562D01*
X64345423Y4456562D01*
X64338805Y4461059D01*
X64304408Y4484435D01*
X64217088Y4519361D01*
X64124305Y4534721D01*
X64120238Y4534508D01*
X64120235Y4534508D01*
X64073248Y4532045D01*
X64030388Y4529799D01*
X64026461Y4528717D01*
X64026459Y4528717D01*
X63992492Y4519361D01*
X63939719Y4504825D01*
X63856527Y4460963D01*
X63842480Y4449092D01*
X63787805Y4402888D01*
X63787802Y4402885D01*
X63784696Y4400260D01*
X63727574Y4325549D01*
X63725853Y4321858D01*
X63689548Y4244002D01*
X63689546Y4243996D01*
X63687829Y4240314D01*
X63686942Y4236346D01*
X63686941Y4236343D01*
X63678260Y4197507D01*
X63675040Y4183099D01*
X63669140Y4156706D01*
X63651105Y4122210D01*
X63618239Y4101352D01*
X63595751Y4097911D01*
X58787889Y4097911D01*
X58750289Y4107986D01*
X58722764Y4135511D01*
X58712689Y4173111D01*
X58721216Y4207892D01*
X58758191Y4278771D01*
X58764594Y4291045D01*
X58794822Y4392122D01*
X58805392Y4497092D01*
X58805400Y4500000D01*
X58804940Y4504825D01*
X58795720Y4601465D01*
X58795719Y4601470D01*
X58795380Y4605024D01*
X58765681Y4706258D01*
X58717375Y4800049D01*
X58652205Y4883015D01*
X58572522Y4952160D01*
X58481202Y5004990D01*
X58477829Y5006161D01*
X58477823Y5006164D01*
X58409200Y5029993D01*
X58381540Y5039598D01*
X58378004Y5040111D01*
X58378003Y5040111D01*
X58309628Y5050025D01*
X58277131Y5054737D01*
X58273564Y5054572D01*
X58273562Y5054572D01*
X58175319Y5050025D01*
X58175314Y5050024D01*
X58171743Y5049859D01*
X58129167Y5039598D01*
X58089312Y5029993D01*
X58071693Y5027900D01*
X48632363Y5027900D01*
X48624242Y5028340D01*
X48609213Y5029973D01*
X48609208Y5029973D01*
X48605554Y5030370D01*
X48579978Y5028132D01*
X48577117Y5027938D01*
X48576339Y5027900D01*
X48574502Y5027900D01*
X48565814Y5027048D01*
X48551554Y5025650D01*
X48550770Y5025577D01*
X48506097Y5021669D01*
X48506093Y5021668D01*
X48502432Y5021348D01*
X48499760Y5020572D01*
X48496978Y5020299D01*
X48450302Y5006206D01*
X48449664Y5006018D01*
X48403027Y4992468D01*
X48400555Y4991187D01*
X48397880Y4990379D01*
X48365402Y4973110D01*
X48354938Y4967546D01*
X48354241Y4967180D01*
X48325265Y4952160D01*
X48311124Y4944830D01*
X48308947Y4943092D01*
X48306481Y4941781D01*
X48303625Y4939452D01*
X48303624Y4939451D01*
X48268717Y4910982D01*
X48268165Y4910536D01*
X48247388Y4893950D01*
X48245940Y4892502D01*
X48243447Y4890373D01*
X48229120Y4878688D01*
X48229114Y4878682D01*
X48226262Y4876356D01*
X48223915Y4873519D01*
X48211600Y4858633D01*
X48206832Y4853394D01*
X48203364Y4849926D01*
X48169653Y4830462D01*
X48150190Y4827900D01*
X46477913Y4827900D01*
X46453244Y4832061D01*
X46434922Y4838424D01*
X46434918Y4838425D01*
X46431540Y4839598D01*
X46427997Y4840112D01*
X46427996Y4840112D01*
X46359628Y4850025D01*
X46327131Y4854737D01*
X46323564Y4854572D01*
X46323562Y4854572D01*
X46225319Y4850025D01*
X46225314Y4850024D01*
X46221743Y4849859D01*
X46119179Y4825141D01*
X46115919Y4823659D01*
X46115917Y4823658D01*
X46070919Y4803198D01*
X46023140Y4781474D01*
X45937090Y4720435D01*
X45936963Y4720614D01*
X45889329Y4702900D01*
X44907367Y4702900D01*
X44858083Y4721302D01*
X44822522Y4752160D01*
X44731202Y4804990D01*
X44727829Y4806161D01*
X44727823Y4806164D01*
X44657849Y4830462D01*
X44631540Y4839598D01*
X44628004Y4840111D01*
X44628003Y4840111D01*
X44559628Y4850025D01*
X44527131Y4854737D01*
X44523564Y4854572D01*
X44523562Y4854572D01*
X44425319Y4850025D01*
X44425314Y4850024D01*
X44421743Y4849859D01*
X44319179Y4825141D01*
X44315919Y4823659D01*
X44315917Y4823658D01*
X44270919Y4803198D01*
X44223140Y4781474D01*
X44137090Y4720435D01*
X44136963Y4720614D01*
X44089329Y4702900D01*
X41507367Y4702900D01*
X41458083Y4721302D01*
X41422522Y4752160D01*
X41331202Y4804990D01*
X41327829Y4806161D01*
X41327823Y4806164D01*
X41257849Y4830462D01*
X41231540Y4839598D01*
X41228004Y4840111D01*
X41228003Y4840111D01*
X41159628Y4850025D01*
X41127131Y4854737D01*
X41123564Y4854572D01*
X41123562Y4854572D01*
X41025319Y4850025D01*
X41025314Y4850024D01*
X41021743Y4849859D01*
X40919179Y4825141D01*
X40915919Y4823659D01*
X40915917Y4823658D01*
X40870919Y4803198D01*
X40823140Y4781474D01*
X40737090Y4720435D01*
X40736963Y4720614D01*
X40689329Y4702900D01*
X34507367Y4702900D01*
X34458083Y4721302D01*
X34422522Y4752160D01*
X34331202Y4804990D01*
X34327829Y4806161D01*
X34327823Y4806164D01*
X34257849Y4830462D01*
X34231540Y4839598D01*
X34228004Y4840111D01*
X34228003Y4840111D01*
X34159628Y4850025D01*
X34127131Y4854737D01*
X34123564Y4854572D01*
X34123562Y4854572D01*
X34025319Y4850025D01*
X34025314Y4850024D01*
X34021743Y4849859D01*
X33919179Y4825141D01*
X33915919Y4823659D01*
X33915917Y4823658D01*
X33870919Y4803198D01*
X33823140Y4781474D01*
X33820222Y4779404D01*
X33820220Y4779403D01*
X33740014Y4722509D01*
X33737090Y4720435D01*
X33734619Y4717854D01*
X33734617Y4717852D01*
X33720304Y4702900D01*
X33664135Y4644225D01*
X33662196Y4641222D01*
X33662192Y4641217D01*
X33641037Y4608453D01*
X33606907Y4555595D01*
X33567472Y4457742D01*
X33547251Y4354198D01*
X33546975Y4248697D01*
X33566653Y4145048D01*
X33567974Y4141719D01*
X33567975Y4141717D01*
X33575718Y4122210D01*
X33605576Y4046990D01*
X33607501Y4043975D01*
X33607501Y4043974D01*
X33660414Y3961077D01*
X33660417Y3961073D01*
X33662339Y3958062D01*
X33664798Y3955466D01*
X33664799Y3955465D01*
X33700586Y3917687D01*
X33734894Y3881471D01*
X33820623Y3819982D01*
X33916432Y3775813D01*
X33954351Y3766464D01*
X34015392Y3751414D01*
X34015395Y3751414D01*
X34018865Y3750558D01*
X34085975Y3747100D01*
X34120652Y3745313D01*
X34120654Y3745313D01*
X34124226Y3745129D01*
X34228713Y3759720D01*
X34328555Y3793807D01*
X34375512Y3820645D01*
X34417041Y3844380D01*
X34417045Y3844383D01*
X34420151Y3846158D01*
X34422868Y3848491D01*
X34422871Y3848493D01*
X34458347Y3878954D01*
X34507335Y3897100D01*
X35834714Y3897100D01*
X35872314Y3887025D01*
X35899839Y3859500D01*
X35909914Y3821900D01*
X35899839Y3784300D01*
X35870944Y3756003D01*
X35865919Y3753241D01*
X35859584Y3750137D01*
X35839752Y3741555D01*
X35834585Y3737371D01*
X35823491Y3729916D01*
X35817668Y3726715D01*
X35814688Y3724143D01*
X35814685Y3724141D01*
X35813244Y3722897D01*
X35812199Y3721995D01*
X35800520Y3710316D01*
X35794671Y3705049D01*
X35780182Y3693316D01*
X35775636Y3686920D01*
X35767517Y3677313D01*
X35171524Y3081318D01*
X34992132Y2901926D01*
X34958421Y2882462D01*
X34938958Y2879900D01*
X28363443Y2879900D01*
X28325843Y2889975D01*
X28308804Y2903432D01*
X28284989Y2928616D01*
X28284985Y2928619D01*
X28282191Y2931574D01*
X28278772Y2933898D01*
X28236150Y2962863D01*
X28204408Y2984435D01*
X28117088Y3019361D01*
X28024305Y3034721D01*
X28020238Y3034508D01*
X28020235Y3034508D01*
X27973248Y3032045D01*
X27930388Y3029799D01*
X27926461Y3028717D01*
X27926459Y3028717D01*
X27874354Y3014365D01*
X27839719Y3004825D01*
X27756527Y2960963D01*
X27741820Y2948534D01*
X27687805Y2902888D01*
X27687802Y2902885D01*
X27684696Y2900260D01*
X27682225Y2897028D01*
X27682224Y2897027D01*
X27676832Y2889975D01*
X27627574Y2825549D01*
X27625853Y2821858D01*
X27589548Y2744002D01*
X27589546Y2743996D01*
X27587829Y2740314D01*
X27586942Y2736346D01*
X27586941Y2736343D01*
X27581169Y2710519D01*
X27567313Y2648534D01*
X27567200Y2616196D01*
X27567044Y2571271D01*
X27566985Y2554488D01*
X26795227Y2554488D01*
X26792739Y2573386D01*
X26792738Y2573389D01*
X26792096Y2578267D01*
X26761886Y2651200D01*
X26713829Y2713829D01*
X26705657Y2720100D01*
X26655230Y2758794D01*
X26651200Y2761886D01*
X26578267Y2792096D01*
X26573389Y2792738D01*
X26573386Y2792739D01*
X26504884Y2801757D01*
X26500000Y2802400D01*
X26495116Y2801757D01*
X26426614Y2792739D01*
X26426611Y2792738D01*
X26421733Y2792096D01*
X26348800Y2761886D01*
X26344770Y2758794D01*
X26294344Y2720100D01*
X26286171Y2713829D01*
X26238114Y2651200D01*
X26207904Y2578267D01*
X26207262Y2573389D01*
X26207261Y2573386D01*
X26199930Y2517699D01*
X26197600Y2500000D01*
X15373034Y2500000D01*
X15355845Y2566464D01*
X15351390Y2583689D01*
X15351119Y2584770D01*
X15349043Y2593318D01*
X15349042Y2593320D01*
X15348357Y2596142D01*
X15340051Y2616196D01*
X15316241Y2673678D01*
X15285507Y2747876D01*
X15285107Y2748864D01*
X15281863Y2757037D01*
X15280791Y2759738D01*
X15260405Y2794345D01*
X15250000Y2832511D01*
X15250000Y3250000D01*
X14868847Y3250000D01*
X14825175Y3263981D01*
X14819094Y3268319D01*
X14818195Y3268970D01*
X14811158Y3274148D01*
X14808813Y3275874D01*
X14806231Y3277218D01*
X14806228Y3277220D01*
X14682554Y3341600D01*
X14663205Y3351673D01*
X14662238Y3352185D01*
X14654462Y3356381D01*
X14654448Y3356387D01*
X14651898Y3357763D01*
X14525077Y3402673D01*
X14497073Y3412590D01*
X14496025Y3412971D01*
X14487846Y3416005D01*
X14487839Y3416007D01*
X14485111Y3417019D01*
X14364549Y3441547D01*
X14324223Y3449752D01*
X14323134Y3449982D01*
X14314549Y3451861D01*
X14314547Y3451861D01*
X14311703Y3452484D01*
X14147873Y3462506D01*
X14146770Y3462582D01*
X14137947Y3463253D01*
X14137935Y3463253D01*
X14135042Y3463473D01*
X14132145Y3463245D01*
X14123518Y3462566D01*
X13971296Y3450585D01*
X13970342Y3450517D01*
X13958576Y3449766D01*
X13955740Y3449137D01*
X13955738Y3449137D01*
X13798333Y3414241D01*
X13797244Y3414008D01*
X13788589Y3412223D01*
X13788584Y3412222D01*
X13785734Y3411634D01*
X13783012Y3410616D01*
X13783011Y3410616D01*
X13631930Y3354130D01*
X13630905Y3353755D01*
X13619879Y3349818D01*
X13589875Y3333527D01*
X13552277Y3313113D01*
X13516395Y3304000D01*
X5274252Y3304000D01*
X5236652Y3314075D01*
X5219614Y3327531D01*
X5175710Y3373958D01*
X5167997Y3379200D01*
X5103082Y3423317D01*
X5103078Y3423319D01*
X5099713Y3425606D01*
X5014398Y3459729D01*
X5010386Y3460393D01*
X5010383Y3460394D01*
X4951507Y3470141D01*
X4923746Y3474737D01*
X4919679Y3474524D01*
X4919676Y3474524D01*
X4873933Y3472126D01*
X4831987Y3469928D01*
X4828060Y3468846D01*
X4828058Y3468846D01*
X4805165Y3462540D01*
X4743400Y3445527D01*
X4662119Y3402673D01*
X4591937Y3343364D01*
X4589466Y3340133D01*
X4589463Y3340129D01*
X4584416Y3333527D01*
X4553576Y3309775D01*
X4524675Y3304000D01*
X4474252Y3304000D01*
X4436652Y3314075D01*
X4419614Y3327531D01*
X4375710Y3373958D01*
X4367997Y3379200D01*
X4303082Y3423317D01*
X4303078Y3423319D01*
X4299713Y3425606D01*
X4214398Y3459729D01*
X4210386Y3460393D01*
X4210383Y3460394D01*
X4151507Y3470141D01*
X4123746Y3474737D01*
X4119679Y3474524D01*
X4119676Y3474524D01*
X4073933Y3472126D01*
X4031987Y3469928D01*
X4028060Y3468846D01*
X4028058Y3468846D01*
X4005165Y3462540D01*
X3943400Y3445527D01*
X3862119Y3402673D01*
X3791937Y3343364D01*
X3789466Y3340133D01*
X3789463Y3340129D01*
X3784416Y3333527D01*
X3753576Y3309775D01*
X3724675Y3304000D01*
X1974252Y3304000D01*
X1936652Y3314075D01*
X1919614Y3327531D01*
X1875710Y3373958D01*
X1867997Y3379200D01*
X1803082Y3423317D01*
X1803078Y3423319D01*
X1799713Y3425606D01*
X1714398Y3459729D01*
X1710386Y3460393D01*
X1710383Y3460394D01*
X1651507Y3470141D01*
X1623746Y3474737D01*
X1619679Y3474524D01*
X1619676Y3474524D01*
X1573933Y3472126D01*
X1531987Y3469928D01*
X1528060Y3468846D01*
X1528058Y3468846D01*
X1505165Y3462540D01*
X1443400Y3445527D01*
X1362119Y3402673D01*
X1291937Y3343364D01*
X1289466Y3340133D01*
X1289463Y3340129D01*
X1284416Y3333527D01*
X1253576Y3309775D01*
X1224675Y3304000D01*
X329200Y3304000D01*
X291600Y3314075D01*
X264075Y3341600D01*
X254000Y3379200D01*
X254000Y4054488D01*
X6116985Y4054488D01*
X6136859Y3962566D01*
X6176009Y3877057D01*
X6178459Y3873806D01*
X6178460Y3873804D01*
X6208196Y3834343D01*
X6232607Y3801948D01*
X6235695Y3799302D01*
X6235698Y3799298D01*
X6300916Y3743400D01*
X6300919Y3743398D01*
X6304013Y3740746D01*
X6386896Y3696304D01*
X6412217Y3689139D01*
X6473472Y3671805D01*
X6473476Y3671804D01*
X6477389Y3670697D01*
X6529522Y3667600D01*
X6567207Y3665361D01*
X6567210Y3665361D01*
X6571269Y3665120D01*
X6664157Y3679832D01*
X6667946Y3681317D01*
X6667950Y3681318D01*
X6725176Y3703745D01*
X6751719Y3714147D01*
X6755106Y3716415D01*
X6755109Y3716416D01*
X6781958Y3734390D01*
X6823791Y3747100D01*
X31023274Y3747100D01*
X31058809Y3738174D01*
X31136896Y3696304D01*
X31162217Y3689139D01*
X31223472Y3671805D01*
X31223476Y3671804D01*
X31227389Y3670697D01*
X31279522Y3667600D01*
X31317207Y3665361D01*
X31317210Y3665361D01*
X31321269Y3665120D01*
X31414157Y3679832D01*
X31417946Y3681317D01*
X31417950Y3681318D01*
X31475176Y3703745D01*
X31501719Y3714147D01*
X31505106Y3716415D01*
X31505109Y3716416D01*
X31576484Y3764197D01*
X31576486Y3764198D01*
X31579870Y3766464D01*
X31644963Y3834343D01*
X31693962Y3914616D01*
X31724580Y4003538D01*
X31735389Y4096960D01*
X31735400Y4100000D01*
X31734533Y4107986D01*
X31729240Y4156706D01*
X31725243Y4193496D01*
X31720398Y4207892D01*
X31696545Y4278771D01*
X31696543Y4278776D01*
X31695246Y4282629D01*
X31690190Y4291045D01*
X31652243Y4354198D01*
X31646809Y4363242D01*
X31609318Y4402888D01*
X31584985Y4428620D01*
X31584982Y4428622D01*
X31582191Y4431574D01*
X31557808Y4448145D01*
X31538805Y4461059D01*
X31504408Y4484435D01*
X31417088Y4519361D01*
X31324305Y4534721D01*
X31320238Y4534508D01*
X31320235Y4534508D01*
X31273248Y4532045D01*
X31230388Y4529799D01*
X31226461Y4528717D01*
X31226459Y4528717D01*
X31192492Y4519361D01*
X31139719Y4504825D01*
X31136116Y4502926D01*
X31136115Y4502925D01*
X31057695Y4461579D01*
X31022623Y4452900D01*
X6823945Y4452900D01*
X6781676Y4465904D01*
X6757776Y4482147D01*
X6757770Y4482150D01*
X6754408Y4484435D01*
X6750633Y4485945D01*
X6750629Y4485947D01*
X6700437Y4506022D01*
X6667088Y4519361D01*
X6574305Y4534721D01*
X6570238Y4534508D01*
X6570235Y4534508D01*
X6523248Y4532045D01*
X6480388Y4529799D01*
X6476461Y4528717D01*
X6476459Y4528717D01*
X6442492Y4519361D01*
X6389719Y4504825D01*
X6306527Y4460963D01*
X6292480Y4449092D01*
X6237805Y4402888D01*
X6237802Y4402885D01*
X6234696Y4400260D01*
X6177574Y4325549D01*
X6175853Y4321858D01*
X6139548Y4244002D01*
X6139546Y4243996D01*
X6137829Y4240314D01*
X6136942Y4236346D01*
X6136941Y4236343D01*
X6128260Y4197507D01*
X6117313Y4148534D01*
X6116985Y4054488D01*
X254000Y4054488D01*
X254000Y5170800D01*
X264075Y5208400D01*
X291600Y5235925D01*
X329200Y5246000D01*
X74670800Y5246000D01*
X74708400Y5235925D01*
G37*
G04 #@! TD.AperFunction*
G04 #@! TD*
M02*
