M48
; DRILL file {KiCad (5.99.0-3477-gacf13a186)} date 09/29/20 22:44:58
; FORMAT={3:3/ absolute / metric / suppress leading zeros}
; #@! TF.CreationDate,2020-09-29T22:44:58-07:00
; #@! TF.GenerationSoftware,Kicad,Pcbnew,(5.99.0-3477-gacf13a186)
FMAT,2
METRIC,TZ
T1C0.300
T2C0.400
T3C0.600
T4C0.650
%
G90
G05
T1
X100700Y-129200
X101300Y-128700
X101300Y-129700
X104700Y-128700
X104700Y-129700
X105300Y-129200
X107100Y-120900
X110500Y-128700
X110500Y-129800
X118200Y-129700
X118700Y-126900
X118700Y-127700
X118700Y-129200
X118800Y-122300
X118800Y-123100
X119050Y-124600
X119050Y-125400
X119050Y-126200
X119200Y-128700
X119200Y-129700
X119500Y-121700
X119850Y-126200
X120300Y-121700
X120650Y-126200
X121100Y-121700
X121450Y-124600
X121450Y-125400
X121450Y-126200
X121700Y-122300
X121700Y-123100
X121800Y-126900
X121800Y-127700
X124700Y-124700
X124700Y-125700
X125400Y-124200
X125400Y-125200
X125400Y-126200
X126600Y-124300
X126600Y-125200
X126600Y-126150
X127700Y-121550
X128300Y-122600
X128500Y-127900
X131800Y-120900
X131900Y-123700
X131900Y-127000
X132000Y-125600
X134100Y-127300
X135100Y-123100
X135100Y-125200
X136100Y-120900
X136900Y-125699
X136900Y-128047
X137000Y-123820
X139400Y-127500
X139900Y-123200
X140800Y-120900
X140800Y-125300
X141600Y-127000
X142000Y-120700
X143750Y-127950
X143800Y-126150
X144850Y-126900
X146181Y-121819
X146600Y-123160
X147600Y-123841
X148500Y-122480
X148550Y-126650
X148800Y-120900
X148800Y-128100
X149500Y-127600
X150400Y-127703
X150600Y-120600
X151200Y-124500
X151606Y-121044
X152400Y-120500
X153000Y-122600
X153000Y-126200
X153588Y-128081
X153700Y-120500
X154487Y-127994
X154800Y-124500
X155100Y-120600
X155100Y-121700
X155800Y-127994
X156000Y-121798
X156868Y-126836
X157080Y-121880
X157895Y-126818
X157913Y-124871
X158000Y-122500
X158539Y-127480
X159200Y-122400
X160300Y-122400
X165600Y-124400
X166551Y-124447
X171100Y-122400
X171100Y-123400
X171700Y-124600
X173300Y-125000
X175000Y-123500
X176200Y-123400
X177100Y-120300
X179571Y-128047
X181800Y-125000
X181900Y-123700
X182604Y-127994
X183100Y-123100
X183200Y-121000
X184600Y-125100
X185250Y-126200
X186200Y-121000
X186900Y-121700
X187800Y-125100
X190000Y-123000
X194400Y-123300
T2
X152600Y-128000
X162300Y-125898
X171500Y-125898
X173700Y-125900
X182100Y-125954
T3
X124950Y-129400
X183000Y-129400
X184400Y-129400
X191700Y-122600
X191700Y-127400
T4
X194250Y-122210
X194250Y-127890
T3
G00X193200Y-120680
M15
G01X194300Y-120680
M16
G05
G00X194300Y-129320
M15
G01X193200Y-129320
M16
G05
G00X198330Y-120680
M15
G01X197530Y-120680
M16
G05
G00X198330Y-129320
M15
G01X197530Y-129320
M16
G05
T0
M30
