G04 #@! TF.GenerationSoftware,KiCad,Pcbnew,(5.99.0-4092-g1ee3df61c)*
G04 #@! TF.CreationDate,2020-10-30T09:53:54-07:00*
G04 #@! TF.ProjectId,RT_USB_PD_Soldering_Iron,52545f55-5342-45f5-9044-5f536f6c6465,rev?*
G04 #@! TF.SameCoordinates,PX5f5e100PY7735940*
G04 #@! TF.FileFunction,Copper,L3,Inr*
G04 #@! TF.FilePolarity,Positive*
%FSLAX46Y46*%
G04 Gerber Fmt 4.6, Leading zero omitted, Abs format (unit mm)*
G04 Created by KiCad (PCBNEW (5.99.0-4092-g1ee3df61c)) date 2020-10-30 09:53:54*
%MOMM*%
%LPD*%
G01*
G04 APERTURE LIST*
G04 #@! TA.AperFunction,ViaPad*
%ADD10C,0.560000*%
G04 #@! TD*
G04 #@! TA.AperFunction,ViaPad*
%ADD11C,1.000000*%
G04 #@! TD*
G04 #@! TA.AperFunction,ViaPad*
%ADD12C,0.800000*%
G04 #@! TD*
G04 #@! TA.AperFunction,Conductor*
%ADD13C,0.254000*%
G04 #@! TD*
G04 #@! TA.AperFunction,Conductor*
%ADD14C,0.400000*%
G04 #@! TD*
G04 #@! TA.AperFunction,Conductor*
%ADD15C,2.000000*%
G04 #@! TD*
G04 #@! TA.AperFunction,Conductor*
%ADD16C,0.500000*%
G04 #@! TD*
G04 APERTURE END LIST*
D10*
G04 #@! TO.N,/DISP_RST#*
X53000000Y200000D03*
G04 #@! TO.N,/NRST*
X52300000Y-1600000D03*
G04 #@! TO.N,GND*
X52900000Y-1100000D03*
X61600000Y3100000D03*
G04 #@! TO.N,+3V3*
X57300000Y300000D03*
G04 #@! TO.N,/DISP_RST#*
X50500000Y-2200000D03*
G04 #@! TO.N,/I2C1_SDA*
X51100000Y400000D03*
D11*
G04 #@! TO.N,IN*
X67200000Y-2500000D03*
X67200000Y2500000D03*
D10*
G04 #@! TO.N,+3V3*
X46887587Y-3300000D03*
X57300000Y-1600000D03*
D12*
X46300000Y4300000D03*
D10*
G04 #@! TO.N,/I2C1_SDA*
X49500000Y-2926046D03*
G04 #@! TO.N,/HEAT_ON*
X28000000Y2600000D03*
X26500000Y-2200000D03*
G04 #@! TD*
D13*
G04 #@! TO.N,/DISP_RST#*
X52900000Y200000D02*
X53000000Y200000D01*
X50500000Y-2200000D02*
X52900000Y200000D01*
D14*
G04 #@! TO.N,+3V3*
X57300000Y-1600000D02*
X57300000Y300000D01*
D13*
G04 #@! TO.N,/I2C1_SDA*
X49500000Y-1200000D02*
X51100000Y400000D01*
X49500000Y-2926046D02*
X49500000Y-1200000D01*
D15*
G04 #@! TO.N,IN*
X67200000Y1792894D02*
X67200000Y-2500000D01*
X67200000Y2500000D02*
X67200000Y1792894D01*
D16*
G04 #@! TO.N,+3V3*
X46300000Y-2712413D02*
X46300000Y4300000D01*
X46887587Y-3300000D02*
X46300000Y-2712413D01*
D13*
G04 #@! TO.N,/HEAT_ON*
X26500000Y1100000D02*
X26500000Y-2200000D01*
X26500000Y1100000D02*
X28000000Y2600000D01*
G04 #@! TD*
G04 #@! TA.AperFunction,Conductor*
G04 #@! TO.N,GND*
G36*
X74708400Y5235925D02*
G01*
X74735925Y5208400D01*
X74746000Y5170800D01*
X74746001Y-5170800D01*
X74735926Y-5208400D01*
X74708401Y-5235925D01*
X74670801Y-5246000D01*
X66322916Y-5246000D01*
X66285316Y-5235925D01*
X66257791Y-5208400D01*
X66247716Y-5170800D01*
X66257791Y-5133200D01*
X66269742Y-5117626D01*
X66925920Y-4461448D01*
X68012479Y-4461448D01*
X68033745Y-4540817D01*
X68035984Y-4546968D01*
X68081452Y-4644473D01*
X68084724Y-4650141D01*
X68146430Y-4738267D01*
X68150645Y-4743290D01*
X68226710Y-4819355D01*
X68231733Y-4823570D01*
X68319859Y-4885276D01*
X68325527Y-4888548D01*
X68423032Y-4934016D01*
X68429183Y-4936255D01*
X68533107Y-4964101D01*
X68539549Y-4965237D01*
X68619781Y-4972256D01*
X68623075Y-4972400D01*
X69063098Y-4972400D01*
X69070908Y-4970308D01*
X69073000Y-4962498D01*
X69326999Y-4962498D01*
X69329091Y-4970308D01*
X69336901Y-4972400D01*
X69776925Y-4972400D01*
X69780219Y-4972256D01*
X69860451Y-4965237D01*
X69866893Y-4964101D01*
X69970817Y-4936255D01*
X69976968Y-4934016D01*
X70074473Y-4888548D01*
X70080141Y-4885276D01*
X70168267Y-4823570D01*
X70173290Y-4819355D01*
X70249355Y-4743290D01*
X70253570Y-4738267D01*
X70315276Y-4650141D01*
X70318548Y-4644473D01*
X70364016Y-4546968D01*
X70366255Y-4540817D01*
X70387521Y-4461448D01*
X72342479Y-4461448D01*
X72363745Y-4540817D01*
X72365984Y-4546968D01*
X72411452Y-4644473D01*
X72414724Y-4650141D01*
X72476430Y-4738267D01*
X72480645Y-4743290D01*
X72556710Y-4819355D01*
X72561733Y-4823570D01*
X72649859Y-4885276D01*
X72655527Y-4888548D01*
X72753032Y-4934016D01*
X72759183Y-4936255D01*
X72863107Y-4964101D01*
X72869549Y-4965237D01*
X72949781Y-4972256D01*
X72953075Y-4972400D01*
X73243098Y-4972400D01*
X73250908Y-4970308D01*
X73253000Y-4962498D01*
X73506999Y-4962498D01*
X73509091Y-4970308D01*
X73516901Y-4972400D01*
X73806925Y-4972400D01*
X73810219Y-4972256D01*
X73890451Y-4965237D01*
X73896893Y-4964101D01*
X74000817Y-4936255D01*
X74006968Y-4934016D01*
X74104473Y-4888548D01*
X74110141Y-4885276D01*
X74198267Y-4823570D01*
X74203290Y-4819355D01*
X74279355Y-4743290D01*
X74283570Y-4738267D01*
X74345276Y-4650141D01*
X74348548Y-4644473D01*
X74394016Y-4546968D01*
X74396255Y-4540817D01*
X74418831Y-4456562D01*
X74418831Y-4452134D01*
X74406436Y-4447000D01*
X73516902Y-4446999D01*
X73509092Y-4449091D01*
X73507000Y-4456901D01*
X73506999Y-4962498D01*
X73253000Y-4962498D01*
X73253001Y-4456902D01*
X73250909Y-4449092D01*
X73243099Y-4447000D01*
X72348509Y-4446999D01*
X72344230Y-4448145D01*
X72342479Y-4461448D01*
X70387521Y-4461448D01*
X70388831Y-4456562D01*
X70388831Y-4452134D01*
X70376436Y-4447000D01*
X69336902Y-4446999D01*
X69329092Y-4449091D01*
X69327000Y-4456901D01*
X69326999Y-4962498D01*
X69073000Y-4962498D01*
X69073001Y-4456902D01*
X69070909Y-4449092D01*
X69063099Y-4447000D01*
X68018509Y-4446999D01*
X68014230Y-4448145D01*
X68012479Y-4461448D01*
X66925920Y-4461448D01*
X67203930Y-4183438D01*
X68011169Y-4183438D01*
X68011169Y-4187866D01*
X68023564Y-4193000D01*
X69063098Y-4193001D01*
X69070908Y-4190909D01*
X69073000Y-4183099D01*
X69073000Y-4183098D01*
X69326999Y-4183098D01*
X69329091Y-4190908D01*
X69336901Y-4193000D01*
X70381491Y-4193001D01*
X70385770Y-4191855D01*
X70386877Y-4183438D01*
X72341169Y-4183438D01*
X72341169Y-4187866D01*
X72353564Y-4193000D01*
X73243098Y-4193001D01*
X73250908Y-4190909D01*
X73253000Y-4183099D01*
X73253000Y-4183098D01*
X73506999Y-4183098D01*
X73509091Y-4190908D01*
X73516901Y-4193000D01*
X74411491Y-4193001D01*
X74415770Y-4191855D01*
X74417521Y-4178552D01*
X74396255Y-4099183D01*
X74394016Y-4093032D01*
X74348548Y-3995527D01*
X74345276Y-3989859D01*
X74283570Y-3901733D01*
X74279355Y-3896710D01*
X74203290Y-3820645D01*
X74198267Y-3816430D01*
X74110141Y-3754724D01*
X74104473Y-3751452D01*
X74006968Y-3705984D01*
X74000817Y-3703745D01*
X73896893Y-3675899D01*
X73890451Y-3674763D01*
X73810219Y-3667744D01*
X73806925Y-3667600D01*
X73516902Y-3667600D01*
X73509092Y-3669692D01*
X73507000Y-3677502D01*
X73506999Y-4183098D01*
X73253000Y-4183098D01*
X73253001Y-3677502D01*
X73250909Y-3669692D01*
X73243099Y-3667600D01*
X72953075Y-3667600D01*
X72949781Y-3667744D01*
X72869549Y-3674763D01*
X72863107Y-3675899D01*
X72759183Y-3703745D01*
X72753032Y-3705984D01*
X72655527Y-3751452D01*
X72649859Y-3754724D01*
X72561733Y-3816430D01*
X72556710Y-3820645D01*
X72480645Y-3896710D01*
X72476430Y-3901733D01*
X72414724Y-3989859D01*
X72411452Y-3995527D01*
X72365984Y-4093032D01*
X72363745Y-4099183D01*
X72341169Y-4183438D01*
X70386877Y-4183438D01*
X70387521Y-4178552D01*
X70366255Y-4099183D01*
X70364016Y-4093032D01*
X70318548Y-3995527D01*
X70315276Y-3989859D01*
X70253570Y-3901733D01*
X70249355Y-3896710D01*
X70173290Y-3820645D01*
X70168267Y-3816430D01*
X70080141Y-3754724D01*
X70074473Y-3751452D01*
X69976968Y-3705984D01*
X69970817Y-3703745D01*
X69866893Y-3675899D01*
X69860451Y-3674763D01*
X69780219Y-3667744D01*
X69776925Y-3667600D01*
X69336902Y-3667600D01*
X69329092Y-3669692D01*
X69327000Y-3677502D01*
X69326999Y-4183098D01*
X69073000Y-4183098D01*
X69073001Y-3677502D01*
X69070909Y-3669692D01*
X69063099Y-3667600D01*
X68623075Y-3667600D01*
X68619781Y-3667744D01*
X68539549Y-3674763D01*
X68533107Y-3675899D01*
X68429183Y-3703745D01*
X68423032Y-3705984D01*
X68325527Y-3751452D01*
X68319859Y-3754724D01*
X68231733Y-3816430D01*
X68226710Y-3820645D01*
X68150645Y-3896710D01*
X68146430Y-3901733D01*
X68084724Y-3989859D01*
X68081452Y-3995527D01*
X68035984Y-4093032D01*
X68033745Y-4099183D01*
X68011169Y-4183438D01*
X67203930Y-4183438D01*
X67927446Y-3459922D01*
X67934581Y-3453636D01*
X67995775Y-3406255D01*
X67995781Y-3406250D01*
X67997674Y-3404784D01*
X68075401Y-3326922D01*
X68104484Y-3297788D01*
X68106175Y-3296094D01*
X68114503Y-3285300D01*
X68198520Y-3176397D01*
X68198520Y-3176396D01*
X68199985Y-3174498D01*
X68277585Y-3041969D01*
X68292976Y-3005798D01*
X68336774Y-2902865D01*
X68336775Y-2902862D01*
X68337715Y-2900653D01*
X68338366Y-2898345D01*
X68342806Y-2882601D01*
X69170152Y-2882601D01*
X69170460Y-2886270D01*
X69170460Y-2886273D01*
X69178216Y-2978643D01*
X69178805Y-2985657D01*
X69186041Y-3010893D01*
X69199237Y-3056910D01*
X69207311Y-3085069D01*
X69254584Y-3177051D01*
X69318822Y-3258099D01*
X69350783Y-3285300D01*
X69383785Y-3313387D01*
X69397579Y-3325127D01*
X69407821Y-3330851D01*
X69484644Y-3373787D01*
X69484649Y-3373789D01*
X69487855Y-3375581D01*
X69491352Y-3376717D01*
X69491356Y-3376719D01*
X69538322Y-3391979D01*
X69586212Y-3407539D01*
X69622366Y-3411850D01*
X69685245Y-3419348D01*
X69685247Y-3419348D01*
X69688903Y-3419784D01*
X69792016Y-3411850D01*
X69865159Y-3391428D01*
X69888080Y-3385028D01*
X69888082Y-3385027D01*
X69891625Y-3384038D01*
X69975638Y-3341600D01*
X69980651Y-3339068D01*
X69980652Y-3339067D01*
X69983935Y-3337409D01*
X69993748Y-3329742D01*
X70062531Y-3276004D01*
X70062536Y-3275999D01*
X70065429Y-3273739D01*
X70075692Y-3261849D01*
X70130600Y-3198238D01*
X70130603Y-3198234D01*
X70133005Y-3195451D01*
X70161726Y-3144893D01*
X70182271Y-3108729D01*
X70182272Y-3108726D01*
X70184088Y-3105530D01*
X70205967Y-3039760D01*
X70215570Y-3010893D01*
X70215571Y-3010890D01*
X70216732Y-3007399D01*
X70229693Y-2904796D01*
X70229815Y-2896067D01*
X70229871Y-2892098D01*
X70229871Y-2892092D01*
X70229900Y-2890000D01*
X70229175Y-2882601D01*
X70220168Y-2790742D01*
X70220167Y-2790738D01*
X70219808Y-2787075D01*
X70189917Y-2688071D01*
X70141365Y-2596758D01*
X70137141Y-2591579D01*
X70078327Y-2519464D01*
X70078323Y-2519460D01*
X70076002Y-2516614D01*
X69996316Y-2450693D01*
X69905345Y-2401505D01*
X69806551Y-2370923D01*
X69742703Y-2364212D01*
X69707354Y-2360497D01*
X69707352Y-2360497D01*
X69703699Y-2360113D01*
X69600707Y-2369486D01*
X69551102Y-2384085D01*
X69505025Y-2397646D01*
X69505022Y-2397647D01*
X69501496Y-2398685D01*
X69498239Y-2400388D01*
X69498236Y-2400389D01*
X69413105Y-2444895D01*
X69409846Y-2446599D01*
X69406980Y-2448904D01*
X69406979Y-2448904D01*
X69341243Y-2501757D01*
X69329248Y-2511401D01*
X69262772Y-2590624D01*
X69261001Y-2593846D01*
X69261000Y-2593847D01*
X69238442Y-2634880D01*
X69212950Y-2681250D01*
X69181680Y-2779828D01*
X69170152Y-2882601D01*
X68342806Y-2882601D01*
X68378753Y-2755144D01*
X68378754Y-2755141D01*
X68379402Y-2752842D01*
X68396001Y-2641112D01*
X68401678Y-2602900D01*
X68401679Y-2602893D01*
X68401970Y-2600932D01*
X68403700Y-2559652D01*
X68403700Y-1300000D01*
X69397600Y-1300000D01*
X69398243Y-1304884D01*
X69406976Y-1371216D01*
X69407904Y-1378267D01*
X69438114Y-1451200D01*
X69486171Y-1513829D01*
X69490078Y-1516827D01*
X69517485Y-1537857D01*
X69548800Y-1561886D01*
X69621733Y-1592096D01*
X69626611Y-1592738D01*
X69626614Y-1592739D01*
X69695116Y-1601757D01*
X69700000Y-1602400D01*
X69704884Y-1601757D01*
X69773386Y-1592739D01*
X69773389Y-1592738D01*
X69778267Y-1592096D01*
X69851200Y-1561886D01*
X69882515Y-1537857D01*
X69909922Y-1516827D01*
X69913829Y-1513829D01*
X69961886Y-1451200D01*
X69992096Y-1378267D01*
X69993025Y-1371216D01*
X70001757Y-1304884D01*
X70002400Y-1300000D01*
X69998632Y-1271380D01*
X69992739Y-1226614D01*
X69992738Y-1226611D01*
X69992096Y-1221733D01*
X69961886Y-1148800D01*
X69913829Y-1086171D01*
X69897693Y-1073789D01*
X69855107Y-1041112D01*
X69851200Y-1038114D01*
X69778267Y-1007904D01*
X69773389Y-1007262D01*
X69773386Y-1007261D01*
X69704884Y-998243D01*
X69700000Y-997600D01*
X69695116Y-998243D01*
X69626614Y-1007261D01*
X69626611Y-1007262D01*
X69621733Y-1007904D01*
X69548800Y-1038114D01*
X69544893Y-1041112D01*
X69502308Y-1073789D01*
X69486171Y-1086171D01*
X69438114Y-1148800D01*
X69407904Y-1221733D01*
X69407262Y-1226611D01*
X69407261Y-1226614D01*
X69401368Y-1271380D01*
X69397600Y-1300000D01*
X68403700Y-1300000D01*
X68403700Y1200000D01*
X69397600Y1200000D01*
X69398243Y1195116D01*
X69406952Y1128967D01*
X69407904Y1121733D01*
X69438114Y1048800D01*
X69486171Y986171D01*
X69548800Y938114D01*
X69621733Y907904D01*
X69626611Y907262D01*
X69626614Y907261D01*
X69695116Y898243D01*
X69700000Y897600D01*
X69704884Y898243D01*
X69773386Y907261D01*
X69773389Y907262D01*
X69778267Y907904D01*
X69851200Y938114D01*
X69913829Y986171D01*
X69961886Y1048800D01*
X69992096Y1121733D01*
X69993049Y1128967D01*
X70001757Y1195116D01*
X70002400Y1200000D01*
X69998128Y1232451D01*
X69992739Y1273386D01*
X69992738Y1273389D01*
X69992096Y1278267D01*
X69961886Y1351200D01*
X69913829Y1413829D01*
X69851200Y1461886D01*
X69778267Y1492096D01*
X69773389Y1492738D01*
X69773386Y1492739D01*
X69704884Y1501757D01*
X69700000Y1502400D01*
X69695116Y1501757D01*
X69626614Y1492739D01*
X69626611Y1492738D01*
X69621733Y1492096D01*
X69548800Y1461886D01*
X69486171Y1413829D01*
X69438114Y1351200D01*
X69407904Y1278267D01*
X69407262Y1273389D01*
X69407261Y1273386D01*
X69401872Y1232451D01*
X69397600Y1200000D01*
X68403700Y1200000D01*
X68403700Y2539190D01*
X68396423Y2653265D01*
X68389424Y2689444D01*
X68370374Y2787902D01*
X68368537Y2797399D01*
X69170152Y2797399D01*
X69170460Y2793730D01*
X69170460Y2793727D01*
X69175651Y2731906D01*
X69178805Y2694343D01*
X69179819Y2690807D01*
X69205786Y2600251D01*
X69207311Y2594931D01*
X69254584Y2502949D01*
X69318822Y2421901D01*
X69354972Y2391135D01*
X69389339Y2361886D01*
X69397579Y2354873D01*
X69408445Y2348800D01*
X69484644Y2306213D01*
X69484649Y2306211D01*
X69487855Y2304419D01*
X69491352Y2303283D01*
X69491356Y2303281D01*
X69526175Y2291968D01*
X69586212Y2272461D01*
X69622366Y2268150D01*
X69685245Y2260652D01*
X69685247Y2260652D01*
X69688903Y2260216D01*
X69792016Y2268150D01*
X69865159Y2288572D01*
X69888080Y2294972D01*
X69888082Y2294973D01*
X69891625Y2295962D01*
X69947046Y2323957D01*
X69980651Y2340932D01*
X69980652Y2340933D01*
X69983935Y2342591D01*
X70011043Y2363770D01*
X70062531Y2403996D01*
X70062536Y2404001D01*
X70065429Y2406261D01*
X70070416Y2412038D01*
X70130600Y2481762D01*
X70130603Y2481766D01*
X70133005Y2484549D01*
X70166023Y2542670D01*
X70182271Y2571271D01*
X70182272Y2571274D01*
X70184088Y2574470D01*
X70202746Y2630557D01*
X70215570Y2669107D01*
X70215571Y2669110D01*
X70216732Y2672601D01*
X70229693Y2775204D01*
X70229900Y2790000D01*
X70229695Y2792092D01*
X70220168Y2889258D01*
X70220167Y2889262D01*
X70219808Y2892925D01*
X70189917Y2991929D01*
X70141365Y3083242D01*
X70137113Y3088456D01*
X70078327Y3160536D01*
X70078323Y3160540D01*
X70076002Y3163386D01*
X69996316Y3229307D01*
X69905345Y3278495D01*
X69806551Y3309077D01*
X69742703Y3315788D01*
X69707354Y3319503D01*
X69707352Y3319503D01*
X69703699Y3319887D01*
X69600707Y3310514D01*
X69551711Y3296094D01*
X69505025Y3282354D01*
X69505022Y3282353D01*
X69501496Y3281315D01*
X69498239Y3279612D01*
X69498236Y3279611D01*
X69418861Y3238114D01*
X69409846Y3233401D01*
X69406980Y3231096D01*
X69406979Y3231096D01*
X69336584Y3174497D01*
X69329248Y3168599D01*
X69262772Y3089376D01*
X69261001Y3086154D01*
X69261000Y3086153D01*
X69224281Y3019361D01*
X69212950Y2998750D01*
X69181680Y2900172D01*
X69170152Y2797399D01*
X68368537Y2797399D01*
X68367251Y2804046D01*
X68365314Y2809922D01*
X68319906Y2947624D01*
X68319905Y2947626D01*
X68319156Y2949898D01*
X68252919Y3088456D01*
X68175792Y3207904D01*
X68170910Y3215465D01*
X68170909Y3215467D01*
X68169612Y3217475D01*
X68070587Y3334863D01*
X68064851Y3340129D01*
X67959214Y3437097D01*
X67959213Y3437098D01*
X67957449Y3438717D01*
X67955499Y3440095D01*
X67955493Y3440100D01*
X67833982Y3525974D01*
X67832031Y3527353D01*
X67745274Y3573386D01*
X67698485Y3598212D01*
X67698482Y3598214D01*
X67696368Y3599335D01*
X67552658Y3653495D01*
X67545866Y3655107D01*
X67448104Y3678307D01*
X67403231Y3688956D01*
X67250509Y3705142D01*
X67248117Y3705090D01*
X67248112Y3705090D01*
X67173740Y3703467D01*
X67096970Y3701792D01*
X67013550Y3689250D01*
X66947465Y3679315D01*
X66947458Y3679314D01*
X66945100Y3678959D01*
X66942805Y3678307D01*
X66942803Y3678307D01*
X66831305Y3646651D01*
X66797362Y3637014D01*
X66727251Y3607037D01*
X66658354Y3577579D01*
X66658348Y3577576D01*
X66656152Y3576637D01*
X66654093Y3575426D01*
X66654086Y3575423D01*
X66582280Y3533210D01*
X66523757Y3498806D01*
X66521871Y3497346D01*
X66521870Y3497345D01*
X66404225Y3406255D01*
X66404219Y3406250D01*
X66402326Y3404784D01*
X66293825Y3296094D01*
X66200015Y3174497D01*
X66198807Y3172434D01*
X66198803Y3172428D01*
X66157723Y3102269D01*
X66122415Y3041968D01*
X66121475Y3039760D01*
X66121475Y3039759D01*
X66067031Y2911805D01*
X66062285Y2900652D01*
X66061634Y2898345D01*
X66061634Y2898344D01*
X66033094Y2797147D01*
X66020598Y2752841D01*
X66011782Y2693496D01*
X65999346Y2609788D01*
X65998030Y2600931D01*
X65996300Y2559651D01*
X65996300Y1852545D01*
X65996301Y29838D01*
X65996301Y-1721600D01*
X65986226Y-1759200D01*
X65958701Y-1786725D01*
X65921101Y-1796800D01*
X65706187Y-1796800D01*
X65697745Y-1797007D01*
X65696698Y-1797033D01*
X65696693Y-1797033D01*
X65696212Y-1797045D01*
X65683862Y-1797652D01*
X65676741Y-1798177D01*
X65674420Y-1798348D01*
X65674409Y-1798349D01*
X65673920Y-1798385D01*
X65626559Y-1803050D01*
X65595819Y-1806077D01*
X65595811Y-1806078D01*
X65594887Y-1806169D01*
X65593970Y-1806305D01*
X65593954Y-1806307D01*
X65585449Y-1807569D01*
X65575167Y-1809094D01*
X65574237Y-1809279D01*
X65574231Y-1809280D01*
X65563959Y-1811323D01*
X65550947Y-1813911D01*
X65550064Y-1814132D01*
X65550056Y-1814134D01*
X65541362Y-1816312D01*
X65531599Y-1818758D01*
X65461543Y-1840009D01*
X65460682Y-1840317D01*
X65460670Y-1840321D01*
X65452797Y-1843138D01*
X65442760Y-1846729D01*
X65441938Y-1847070D01*
X65441929Y-1847073D01*
X65439211Y-1848199D01*
X65419948Y-1856179D01*
X65401929Y-1864702D01*
X65397875Y-1866869D01*
X65338187Y-1898772D01*
X65338173Y-1898780D01*
X65337374Y-1899207D01*
X65336603Y-1899669D01*
X65336582Y-1899681D01*
X65323936Y-1907261D01*
X65320269Y-1909459D01*
X65319503Y-1909971D01*
X65300483Y-1922679D01*
X65300469Y-1922689D01*
X65299731Y-1923182D01*
X65283712Y-1935063D01*
X65269592Y-1946651D01*
X65267025Y-1948758D01*
X65267024Y-1948759D01*
X65227827Y-1980928D01*
X65227811Y-1980942D01*
X65227126Y-1981504D01*
X65226462Y-1982106D01*
X65226456Y-1982111D01*
X65222328Y-1985853D01*
X65212354Y-1994893D01*
X65194893Y-2012354D01*
X65190839Y-2016827D01*
X65184657Y-2023648D01*
X65181506Y-2027124D01*
X65163115Y-2049532D01*
X65163112Y-2049535D01*
X65135063Y-2083712D01*
X65123182Y-2099731D01*
X65122689Y-2100469D01*
X65122679Y-2100483D01*
X65118656Y-2106504D01*
X65109459Y-2120269D01*
X65108985Y-2121060D01*
X65099681Y-2136582D01*
X65099669Y-2136603D01*
X65099207Y-2137374D01*
X65098780Y-2138173D01*
X65098772Y-2138187D01*
X65089500Y-2155534D01*
X65064702Y-2201929D01*
X65056179Y-2219948D01*
X65046729Y-2242760D01*
X65040009Y-2261543D01*
X65039739Y-2262432D01*
X65039739Y-2262433D01*
X65034936Y-2278267D01*
X65018758Y-2331599D01*
X65013911Y-2350947D01*
X65009094Y-2375167D01*
X65006169Y-2394887D01*
X64998385Y-2473920D01*
X64997652Y-2483862D01*
X64997629Y-2484339D01*
X64997216Y-2492739D01*
X64997045Y-2496212D01*
X64996800Y-2506187D01*
X64996800Y-2984684D01*
X64986725Y-3022284D01*
X64974774Y-3037858D01*
X64437858Y-3574774D01*
X64404147Y-3594238D01*
X64384684Y-3596800D01*
X48902654Y-3596800D01*
X48865054Y-3586725D01*
X48837529Y-3559200D01*
X48827454Y-3521600D01*
X48842993Y-3475822D01*
X48853323Y-3462359D01*
X48861886Y-3451200D01*
X48892096Y-3378267D01*
X48893247Y-3369529D01*
X48901757Y-3304884D01*
X48902400Y-3300000D01*
X48898789Y-3272568D01*
X48892739Y-3226614D01*
X48892738Y-3226611D01*
X48892096Y-3221733D01*
X48861886Y-3148800D01*
X48813829Y-3086171D01*
X48751200Y-3038114D01*
X48678267Y-3007904D01*
X48673389Y-3007262D01*
X48673386Y-3007261D01*
X48604884Y-2998243D01*
X48600000Y-2997600D01*
X48595116Y-2998243D01*
X48526614Y-3007261D01*
X48526611Y-3007262D01*
X48521733Y-3007904D01*
X48448800Y-3038114D01*
X48386171Y-3086171D01*
X48338114Y-3148800D01*
X48307904Y-3221733D01*
X48307262Y-3226611D01*
X48307261Y-3226614D01*
X48301211Y-3272568D01*
X48297600Y-3300000D01*
X48298243Y-3304884D01*
X48306754Y-3369529D01*
X48307904Y-3378267D01*
X48338114Y-3451200D01*
X48346677Y-3462359D01*
X48357007Y-3475822D01*
X48371903Y-3511785D01*
X48366821Y-3550378D01*
X48343124Y-3581261D01*
X48297346Y-3596800D01*
X47347131Y-3596800D01*
X47309531Y-3586725D01*
X47282006Y-3559200D01*
X47271931Y-3521600D01*
X47279088Y-3489582D01*
X47279430Y-3488856D01*
X47281549Y-3485384D01*
X47284842Y-3475822D01*
X47310841Y-3400313D01*
X47312167Y-3396462D01*
X47313605Y-3384038D01*
X47318576Y-3341069D01*
X47322976Y-3303040D01*
X47322987Y-3300000D01*
X47322457Y-3295116D01*
X47313270Y-3210556D01*
X47312830Y-3206504D01*
X47311449Y-3202400D01*
X47284132Y-3121229D01*
X47284130Y-3121224D01*
X47282833Y-3117371D01*
X47279953Y-3112577D01*
X47243572Y-3052029D01*
X47234396Y-3036758D01*
X47193795Y-2993823D01*
X47172741Y-2971558D01*
X49066985Y-2971558D01*
X49067845Y-2975534D01*
X49067845Y-2975537D01*
X49076156Y-3013976D01*
X49086859Y-3063480D01*
X49126009Y-3148989D01*
X49128459Y-3152240D01*
X49128460Y-3152242D01*
X49169349Y-3206504D01*
X49182607Y-3224098D01*
X49185695Y-3226744D01*
X49185698Y-3226748D01*
X49250916Y-3282646D01*
X49250919Y-3282648D01*
X49254013Y-3285300D01*
X49336896Y-3329742D01*
X49363991Y-3337409D01*
X49423472Y-3354241D01*
X49423476Y-3354242D01*
X49427389Y-3355349D01*
X49481307Y-3358552D01*
X49517207Y-3360685D01*
X49517210Y-3360685D01*
X49521269Y-3360926D01*
X49614157Y-3346214D01*
X49617946Y-3344729D01*
X49617950Y-3344728D01*
X49674053Y-3322741D01*
X49701719Y-3311899D01*
X49705106Y-3309631D01*
X49705109Y-3309630D01*
X49776484Y-3261849D01*
X49776486Y-3261848D01*
X49779870Y-3259582D01*
X49844963Y-3191703D01*
X49893962Y-3111430D01*
X49924580Y-3022508D01*
X49925353Y-3015832D01*
X49931323Y-2964225D01*
X49935389Y-2929086D01*
X49935400Y-2926046D01*
X49934262Y-2915565D01*
X49926653Y-2845532D01*
X49925243Y-2832550D01*
X49923086Y-2826140D01*
X49896545Y-2747275D01*
X49896543Y-2747270D01*
X49895246Y-2743417D01*
X49881029Y-2719755D01*
X49848904Y-2666291D01*
X49846809Y-2662804D01*
X49800461Y-2613792D01*
X49779900Y-2562123D01*
X49779900Y-2245512D01*
X50066985Y-2245512D01*
X50086859Y-2337434D01*
X50126009Y-2422943D01*
X50128459Y-2426194D01*
X50128460Y-2426196D01*
X50156774Y-2463770D01*
X50182607Y-2498052D01*
X50185695Y-2500698D01*
X50185698Y-2500702D01*
X50250916Y-2556600D01*
X50250919Y-2556602D01*
X50254013Y-2559254D01*
X50336896Y-2603696D01*
X50372574Y-2613792D01*
X50423472Y-2628195D01*
X50423476Y-2628196D01*
X50427389Y-2629303D01*
X50481307Y-2632506D01*
X50517207Y-2634639D01*
X50517210Y-2634639D01*
X50521269Y-2634880D01*
X50614157Y-2620168D01*
X50617946Y-2618683D01*
X50617950Y-2618682D01*
X50661103Y-2601770D01*
X50680954Y-2593991D01*
X50719636Y-2589651D01*
X50755306Y-2605235D01*
X50778406Y-2636567D01*
X50782746Y-2675251D01*
X50768051Y-2709785D01*
X50741112Y-2744892D01*
X50741110Y-2744896D01*
X50738114Y-2748800D01*
X50707904Y-2821733D01*
X50707262Y-2826611D01*
X50707261Y-2826614D01*
X50698660Y-2891948D01*
X50697600Y-2900000D01*
X50698243Y-2904884D01*
X50707021Y-2971558D01*
X50707904Y-2978267D01*
X50738114Y-3051200D01*
X50786171Y-3113829D01*
X50790078Y-3116827D01*
X50817486Y-3137858D01*
X50848800Y-3161886D01*
X50921733Y-3192096D01*
X50926611Y-3192738D01*
X50926614Y-3192739D01*
X50995116Y-3201757D01*
X51000000Y-3202400D01*
X51004884Y-3201757D01*
X51073386Y-3192739D01*
X51073389Y-3192738D01*
X51078267Y-3192096D01*
X51151200Y-3161886D01*
X51182515Y-3137857D01*
X51209922Y-3116827D01*
X51213829Y-3113829D01*
X51261886Y-3051200D01*
X51292096Y-2978267D01*
X51292980Y-2971558D01*
X51301757Y-2904884D01*
X51302400Y-2900000D01*
X64097600Y-2900000D01*
X64098243Y-2904884D01*
X64107021Y-2971558D01*
X64107904Y-2978267D01*
X64138114Y-3051200D01*
X64186171Y-3113829D01*
X64190078Y-3116827D01*
X64217486Y-3137858D01*
X64248800Y-3161886D01*
X64321733Y-3192096D01*
X64326611Y-3192738D01*
X64326614Y-3192739D01*
X64395116Y-3201757D01*
X64400000Y-3202400D01*
X64404884Y-3201757D01*
X64473386Y-3192739D01*
X64473389Y-3192738D01*
X64478267Y-3192096D01*
X64551200Y-3161886D01*
X64582515Y-3137857D01*
X64609922Y-3116827D01*
X64613829Y-3113829D01*
X64661886Y-3051200D01*
X64692096Y-2978267D01*
X64692980Y-2971558D01*
X64701757Y-2904884D01*
X64702400Y-2900000D01*
X64701340Y-2891948D01*
X64692739Y-2826614D01*
X64692738Y-2826611D01*
X64692096Y-2821733D01*
X64661886Y-2748800D01*
X64613829Y-2686171D01*
X64551200Y-2638114D01*
X64478267Y-2607904D01*
X64473389Y-2607262D01*
X64473386Y-2607261D01*
X64404884Y-2598243D01*
X64400000Y-2597600D01*
X64395116Y-2598243D01*
X64326614Y-2607261D01*
X64326611Y-2607262D01*
X64321733Y-2607904D01*
X64248800Y-2638114D01*
X64186171Y-2686171D01*
X64138114Y-2748800D01*
X64107904Y-2821733D01*
X64107262Y-2826611D01*
X64107261Y-2826614D01*
X64098660Y-2891948D01*
X64097600Y-2900000D01*
X51302400Y-2900000D01*
X51301340Y-2891948D01*
X51292739Y-2826614D01*
X51292738Y-2826611D01*
X51292096Y-2821733D01*
X51261886Y-2748800D01*
X51213829Y-2686171D01*
X51151200Y-2638114D01*
X51078267Y-2607904D01*
X51073389Y-2607262D01*
X51073386Y-2607261D01*
X51004884Y-2598243D01*
X51000000Y-2597600D01*
X50995116Y-2598243D01*
X50926614Y-2607261D01*
X50926611Y-2607262D01*
X50921733Y-2607904D01*
X50917184Y-2609788D01*
X50917181Y-2609789D01*
X50899192Y-2617240D01*
X50860598Y-2622321D01*
X50824635Y-2607424D01*
X50800939Y-2576541D01*
X50795858Y-2537947D01*
X50816138Y-2495715D01*
X50844963Y-2465657D01*
X50855164Y-2448946D01*
X50878984Y-2409922D01*
X50893962Y-2385384D01*
X50924580Y-2296462D01*
X50935389Y-2203040D01*
X50935400Y-2200000D01*
X50935172Y-2197899D01*
X50935070Y-2195958D01*
X50943162Y-2157881D01*
X50956993Y-2138844D01*
X51105900Y-1989937D01*
X51139611Y-1970473D01*
X51178537Y-1970473D01*
X51212248Y-1989937D01*
X51231712Y-2023648D01*
X51228550Y-2071889D01*
X51212534Y-2110556D01*
X51207904Y-2121733D01*
X51207262Y-2126611D01*
X51207261Y-2126614D01*
X51199569Y-2185045D01*
X51197600Y-2200000D01*
X51198243Y-2204884D01*
X51204116Y-2249491D01*
X51207904Y-2278267D01*
X51238114Y-2351200D01*
X51286171Y-2413829D01*
X51348800Y-2461886D01*
X51421733Y-2492096D01*
X51426611Y-2492738D01*
X51426614Y-2492739D01*
X51495116Y-2501757D01*
X51500000Y-2502400D01*
X51504884Y-2501757D01*
X51573386Y-2492739D01*
X51573389Y-2492738D01*
X51578267Y-2492096D01*
X51651200Y-2461886D01*
X51713829Y-2413829D01*
X51761886Y-2351200D01*
X51792096Y-2278267D01*
X51795885Y-2249491D01*
X51801757Y-2204884D01*
X51802400Y-2200000D01*
X51800431Y-2185045D01*
X51792739Y-2126614D01*
X51792738Y-2126611D01*
X51792096Y-2121733D01*
X51761886Y-2048800D01*
X51713829Y-1986171D01*
X51651200Y-1938114D01*
X51578267Y-1907904D01*
X51573389Y-1907262D01*
X51573386Y-1907261D01*
X51504884Y-1898243D01*
X51500000Y-1897600D01*
X51495116Y-1898243D01*
X51426614Y-1907261D01*
X51426611Y-1907262D01*
X51421733Y-1907904D01*
X51417186Y-1909788D01*
X51417184Y-1909788D01*
X51371889Y-1928550D01*
X51333295Y-1933631D01*
X51297332Y-1918734D01*
X51273635Y-1887852D01*
X51268554Y-1849258D01*
X51289937Y-1805900D01*
X51420311Y-1675527D01*
X51806161Y-1289677D01*
X51839872Y-1270213D01*
X51878798Y-1270213D01*
X51912509Y-1289677D01*
X51931973Y-1323388D01*
X51927490Y-1374631D01*
X51889548Y-1455998D01*
X51889546Y-1456004D01*
X51887829Y-1459686D01*
X51886942Y-1463654D01*
X51886941Y-1463657D01*
X51880117Y-1494188D01*
X51867313Y-1551466D01*
X51866985Y-1645512D01*
X51886859Y-1737434D01*
X51926009Y-1822943D01*
X51928459Y-1826194D01*
X51928460Y-1826196D01*
X51956774Y-1863770D01*
X51982607Y-1898052D01*
X51985695Y-1900698D01*
X51985698Y-1900702D01*
X52050916Y-1956600D01*
X52050919Y-1956602D01*
X52054013Y-1959254D01*
X52136896Y-2003696D01*
X52165097Y-2011676D01*
X52223472Y-2028195D01*
X52223476Y-2028196D01*
X52227389Y-2029303D01*
X52281307Y-2032506D01*
X52317207Y-2034639D01*
X52317210Y-2034639D01*
X52321269Y-2034880D01*
X52414157Y-2020168D01*
X52417946Y-2018683D01*
X52417950Y-2018682D01*
X52476921Y-1995571D01*
X52501719Y-1985853D01*
X52505106Y-1983585D01*
X52505109Y-1983584D01*
X52576484Y-1935803D01*
X52576486Y-1935802D01*
X52579870Y-1933536D01*
X52644963Y-1865657D01*
X52650749Y-1856179D01*
X52661212Y-1839037D01*
X52693962Y-1785384D01*
X52724580Y-1696462D01*
X52727340Y-1672612D01*
X52735149Y-1605113D01*
X52735389Y-1603040D01*
X52735400Y-1600000D01*
X52734870Y-1595116D01*
X52725683Y-1510556D01*
X52725243Y-1506504D01*
X52723862Y-1502400D01*
X52696545Y-1421229D01*
X52696543Y-1421224D01*
X52695246Y-1417371D01*
X52690771Y-1409922D01*
X52657834Y-1355107D01*
X52646809Y-1336758D01*
X52605183Y-1292739D01*
X52584985Y-1271380D01*
X52584982Y-1271378D01*
X52582191Y-1268426D01*
X52504408Y-1215565D01*
X52417088Y-1180639D01*
X52324305Y-1165279D01*
X52320238Y-1165492D01*
X52320235Y-1165492D01*
X52273248Y-1167955D01*
X52230388Y-1170201D01*
X52226461Y-1171283D01*
X52226459Y-1171283D01*
X52171555Y-1186406D01*
X52139719Y-1195175D01*
X52136116Y-1197074D01*
X52136115Y-1197075D01*
X52073904Y-1229875D01*
X52035945Y-1238499D01*
X51998759Y-1226988D01*
X51972311Y-1198426D01*
X51963687Y-1160467D01*
X51985658Y-1110180D01*
X52393379Y-702460D01*
X52848760Y-247079D01*
X52882471Y-227615D01*
X52919393Y-227874D01*
X52919454Y-227515D01*
X52921670Y-227890D01*
X52922411Y-227895D01*
X52923466Y-228194D01*
X52923476Y-228196D01*
X52927389Y-229303D01*
X52981307Y-232506D01*
X53017207Y-234639D01*
X53017210Y-234639D01*
X53021269Y-234880D01*
X53114157Y-220168D01*
X53117946Y-218683D01*
X53117950Y-218682D01*
X53171861Y-197554D01*
X53201719Y-185853D01*
X53205106Y-183585D01*
X53205109Y-183584D01*
X53276484Y-135803D01*
X53276486Y-135802D01*
X53279870Y-133536D01*
X53344963Y-65657D01*
X53351227Y-55396D01*
X53363749Y-34880D01*
X53393962Y14616D01*
X53424580Y103538D01*
X53425460Y111139D01*
X53435150Y194895D01*
X53435389Y196960D01*
X53435400Y200000D01*
X53434870Y204884D01*
X53429481Y254488D01*
X56866985Y254488D01*
X56867845Y250512D01*
X56867845Y250509D01*
X56876909Y208585D01*
X56886859Y162566D01*
X56926009Y77057D01*
X56928458Y73807D01*
X56931960Y69160D01*
X56947101Y23905D01*
X56947100Y-1323458D01*
X56932122Y-1367709D01*
X56932158Y-1367731D01*
X56932059Y-1367894D01*
X56931640Y-1369133D01*
X56927574Y-1374451D01*
X56925853Y-1378142D01*
X56889548Y-1455998D01*
X56889546Y-1456004D01*
X56887829Y-1459686D01*
X56886942Y-1463654D01*
X56886941Y-1463657D01*
X56880117Y-1494188D01*
X56867313Y-1551466D01*
X56866985Y-1645512D01*
X56886859Y-1737434D01*
X56926009Y-1822943D01*
X56928459Y-1826194D01*
X56928460Y-1826196D01*
X56956774Y-1863770D01*
X56982607Y-1898052D01*
X56985695Y-1900698D01*
X56985698Y-1900702D01*
X57050916Y-1956600D01*
X57050919Y-1956602D01*
X57054013Y-1959254D01*
X57136896Y-2003696D01*
X57165097Y-2011676D01*
X57223472Y-2028195D01*
X57223476Y-2028196D01*
X57227389Y-2029303D01*
X57281307Y-2032506D01*
X57317207Y-2034639D01*
X57317210Y-2034639D01*
X57321269Y-2034880D01*
X57414157Y-2020168D01*
X57417946Y-2018683D01*
X57417950Y-2018682D01*
X57476921Y-1995571D01*
X57501719Y-1985853D01*
X57505106Y-1983585D01*
X57505109Y-1983584D01*
X57576484Y-1935803D01*
X57576486Y-1935802D01*
X57579870Y-1933536D01*
X57644963Y-1865657D01*
X57650749Y-1856179D01*
X57661212Y-1839037D01*
X57685040Y-1800000D01*
X61297600Y-1800000D01*
X61298243Y-1804884D01*
X61307147Y-1872514D01*
X61307904Y-1878267D01*
X61338114Y-1951200D01*
X61386171Y-2013829D01*
X61390078Y-2016827D01*
X61394432Y-2020168D01*
X61448800Y-2061886D01*
X61521733Y-2092096D01*
X61526611Y-2092738D01*
X61526614Y-2092739D01*
X61595116Y-2101757D01*
X61600000Y-2102400D01*
X61604884Y-2101757D01*
X61673386Y-2092739D01*
X61673389Y-2092738D01*
X61678267Y-2092096D01*
X61751200Y-2061886D01*
X61805568Y-2020168D01*
X61809922Y-2016827D01*
X61813829Y-2013829D01*
X61861886Y-1951200D01*
X61892096Y-1878267D01*
X61892854Y-1872514D01*
X61901757Y-1804884D01*
X61902400Y-1800000D01*
X62560399Y-1800000D01*
X62561042Y-1804884D01*
X62569946Y-1872514D01*
X62570703Y-1878267D01*
X62600913Y-1951200D01*
X62648970Y-2013829D01*
X62652877Y-2016827D01*
X62657231Y-2020168D01*
X62711599Y-2061886D01*
X62784532Y-2092096D01*
X62789410Y-2092738D01*
X62789413Y-2092739D01*
X62857915Y-2101757D01*
X62862799Y-2102400D01*
X62867683Y-2101757D01*
X62936185Y-2092739D01*
X62936188Y-2092738D01*
X62941066Y-2092096D01*
X63013999Y-2061886D01*
X63068367Y-2020168D01*
X63072721Y-2016827D01*
X63076628Y-2013829D01*
X63124685Y-1951200D01*
X63154895Y-1878267D01*
X63155653Y-1872514D01*
X63164556Y-1804884D01*
X63165199Y-1800000D01*
X63159201Y-1754439D01*
X63155538Y-1726614D01*
X63155537Y-1726611D01*
X63154895Y-1721733D01*
X63124685Y-1648800D01*
X63076628Y-1586171D01*
X63047435Y-1563770D01*
X63027903Y-1548783D01*
X63013999Y-1538114D01*
X62941066Y-1507904D01*
X62936188Y-1507262D01*
X62936185Y-1507261D01*
X62867683Y-1498243D01*
X62862799Y-1497600D01*
X62857915Y-1498243D01*
X62789413Y-1507261D01*
X62789410Y-1507262D01*
X62784532Y-1507904D01*
X62711599Y-1538114D01*
X62697695Y-1548783D01*
X62678164Y-1563770D01*
X62648970Y-1586171D01*
X62600913Y-1648800D01*
X62570703Y-1721733D01*
X62570061Y-1726611D01*
X62570060Y-1726614D01*
X62566397Y-1754439D01*
X62560399Y-1800000D01*
X61902400Y-1800000D01*
X61896402Y-1754439D01*
X61892739Y-1726614D01*
X61892738Y-1726611D01*
X61892096Y-1721733D01*
X61861886Y-1648800D01*
X61813829Y-1586171D01*
X61784636Y-1563770D01*
X61765104Y-1548783D01*
X61751200Y-1538114D01*
X61678267Y-1507904D01*
X61673389Y-1507262D01*
X61673386Y-1507261D01*
X61604884Y-1498243D01*
X61600000Y-1497600D01*
X61595116Y-1498243D01*
X61526614Y-1507261D01*
X61526611Y-1507262D01*
X61521733Y-1507904D01*
X61448800Y-1538114D01*
X61434896Y-1548783D01*
X61415365Y-1563770D01*
X61386171Y-1586171D01*
X61338114Y-1648800D01*
X61307904Y-1721733D01*
X61307262Y-1726611D01*
X61307261Y-1726614D01*
X61303598Y-1754439D01*
X61297600Y-1800000D01*
X57685040Y-1800000D01*
X57693962Y-1785384D01*
X57724580Y-1696462D01*
X57727340Y-1672612D01*
X57735149Y-1605113D01*
X57735389Y-1603040D01*
X57735400Y-1600000D01*
X57734870Y-1595116D01*
X57725683Y-1510556D01*
X57725243Y-1506504D01*
X57723862Y-1502400D01*
X57696545Y-1421229D01*
X57696543Y-1421224D01*
X57695246Y-1417371D01*
X57690771Y-1409922D01*
X57663641Y-1364771D01*
X57652900Y-1326040D01*
X57652900Y0D01*
X61097600Y0D01*
X61098243Y-4884D01*
X61106631Y-68595D01*
X61107904Y-78267D01*
X61138114Y-151200D01*
X61186171Y-213829D01*
X61190078Y-216827D01*
X61194432Y-220168D01*
X61248800Y-261886D01*
X61321733Y-292096D01*
X61326611Y-292738D01*
X61326614Y-292739D01*
X61395116Y-301757D01*
X61400000Y-302400D01*
X61404884Y-301757D01*
X61473386Y-292739D01*
X61473389Y-292738D01*
X61478267Y-292096D01*
X61551200Y-261886D01*
X61605568Y-220168D01*
X61609922Y-216827D01*
X61613829Y-213829D01*
X61661886Y-151200D01*
X61692096Y-78267D01*
X61693370Y-68595D01*
X61701757Y-4884D01*
X61702400Y0D01*
X61699224Y24125D01*
X61692739Y73386D01*
X61692738Y73389D01*
X61692096Y78267D01*
X61661886Y151200D01*
X61620693Y204884D01*
X61616827Y209922D01*
X61613829Y213829D01*
X61551200Y261886D01*
X61478267Y292096D01*
X61473389Y292738D01*
X61473386Y292739D01*
X61404884Y301757D01*
X61400000Y302400D01*
X61395116Y301757D01*
X61326614Y292739D01*
X61326611Y292738D01*
X61321733Y292096D01*
X61248800Y261886D01*
X61186171Y213829D01*
X61183173Y209922D01*
X61179307Y204884D01*
X61138114Y151200D01*
X61107904Y78267D01*
X61107262Y73389D01*
X61107261Y73386D01*
X61100776Y24125D01*
X61097600Y0D01*
X57652900Y0D01*
X57652900Y26208D01*
X57663913Y65388D01*
X57677115Y87016D01*
X57693962Y114616D01*
X57724580Y203538D01*
X57725460Y211139D01*
X57735150Y294895D01*
X57735389Y296960D01*
X57735400Y300000D01*
X57725243Y393496D01*
X57722463Y401757D01*
X57696545Y478771D01*
X57696543Y478776D01*
X57695246Y482629D01*
X57692565Y487092D01*
X57660585Y540314D01*
X57646809Y563242D01*
X57605183Y607261D01*
X57584985Y628620D01*
X57584982Y628622D01*
X57582191Y631574D01*
X57578541Y634055D01*
X57531246Y666196D01*
X57504408Y684435D01*
X57417088Y719361D01*
X57324305Y734721D01*
X57320238Y734508D01*
X57320235Y734508D01*
X57273248Y732045D01*
X57230388Y729799D01*
X57226461Y728717D01*
X57226459Y728717D01*
X57176986Y715090D01*
X57139719Y704825D01*
X57056527Y660963D01*
X57043319Y649801D01*
X56987805Y602888D01*
X56987802Y602885D01*
X56984696Y600260D01*
X56927574Y525549D01*
X56925853Y521858D01*
X56889548Y444002D01*
X56889546Y443996D01*
X56887829Y440314D01*
X56886942Y436346D01*
X56886941Y436343D01*
X56882659Y417185D01*
X56867313Y348534D01*
X56867237Y326614D01*
X56867004Y259798D01*
X56866985Y254488D01*
X53429481Y254488D01*
X53429343Y255753D01*
X53425243Y293496D01*
X53423325Y299194D01*
X53396545Y378771D01*
X53396543Y378776D01*
X53395246Y382629D01*
X53391152Y389444D01*
X53359964Y441348D01*
X53346809Y463242D01*
X53302657Y509932D01*
X53284985Y528620D01*
X53284982Y528622D01*
X53282191Y531574D01*
X53275183Y536337D01*
X53226808Y569212D01*
X53204408Y584435D01*
X53117088Y619361D01*
X53024305Y634721D01*
X53020238Y634508D01*
X53020235Y634508D01*
X52974427Y632107D01*
X52930388Y629799D01*
X52926461Y628717D01*
X52926459Y628717D01*
X52872408Y613829D01*
X52839719Y604825D01*
X52756527Y560963D01*
X52744974Y551200D01*
X52687805Y502888D01*
X52687802Y502885D01*
X52684696Y500260D01*
X52627574Y425549D01*
X52625853Y421858D01*
X52589548Y344002D01*
X52589546Y343996D01*
X52587829Y340314D01*
X52586942Y336346D01*
X52586941Y336343D01*
X52583675Y321733D01*
X52576600Y290078D01*
X52576287Y288679D01*
X52556072Y251910D01*
X50560103Y-1744060D01*
X50510865Y-1765983D01*
X50469050Y-1768175D01*
X50430388Y-1770201D01*
X50426461Y-1771283D01*
X50426459Y-1771283D01*
X50370397Y-1786725D01*
X50339719Y-1795175D01*
X50256527Y-1839037D01*
X50244432Y-1849258D01*
X50187805Y-1897112D01*
X50187802Y-1897115D01*
X50184696Y-1899740D01*
X50182225Y-1902972D01*
X50182224Y-1902973D01*
X50177265Y-1909459D01*
X50127574Y-1974451D01*
X50125853Y-1978142D01*
X50089548Y-2055998D01*
X50089546Y-2056004D01*
X50087829Y-2059686D01*
X50086942Y-2063654D01*
X50086941Y-2063657D01*
X50079042Y-2098995D01*
X50067313Y-2151466D01*
X50066985Y-2245512D01*
X49779900Y-2245512D01*
X49779900Y-1347085D01*
X49789975Y-1309485D01*
X49801926Y-1293911D01*
X50101650Y-994188D01*
X50729896Y-365942D01*
X51040443Y-55396D01*
X51074154Y-35932D01*
X51098076Y-33502D01*
X51105502Y-33943D01*
X51117207Y-34639D01*
X51117210Y-34639D01*
X51121269Y-34880D01*
X51214157Y-20168D01*
X51217946Y-18683D01*
X51217950Y-18682D01*
X51265620Y0D01*
X51301719Y14147D01*
X51305106Y16415D01*
X51305109Y16416D01*
X51376484Y64197D01*
X51376486Y64198D01*
X51379870Y66464D01*
X51444963Y134343D01*
X51454774Y150415D01*
X51467474Y171222D01*
X51493962Y214616D01*
X51524580Y303538D01*
X51525119Y308192D01*
X51530196Y352077D01*
X51535389Y396960D01*
X51535400Y400000D01*
X51697600Y400000D01*
X51698243Y395116D01*
X51705981Y336343D01*
X51707904Y321733D01*
X51738114Y248800D01*
X51786171Y186171D01*
X51848800Y138114D01*
X51921733Y107904D01*
X51926611Y107262D01*
X51926614Y107261D01*
X51995116Y98243D01*
X52000000Y97600D01*
X52004884Y98243D01*
X52073386Y107261D01*
X52073389Y107262D01*
X52078267Y107904D01*
X52151200Y138114D01*
X52213829Y186171D01*
X52261886Y248800D01*
X52292096Y321733D01*
X52294020Y336343D01*
X52301757Y395116D01*
X52302400Y400000D01*
X52299522Y421858D01*
X52292739Y473386D01*
X52292738Y473389D01*
X52292096Y478267D01*
X52261886Y551200D01*
X52234403Y587016D01*
X52216827Y609922D01*
X52213829Y613829D01*
X52184636Y636230D01*
X52165126Y651200D01*
X52151200Y661886D01*
X52078267Y692096D01*
X52073389Y692738D01*
X52073386Y692739D01*
X52004884Y701757D01*
X52000000Y702400D01*
X51995116Y701757D01*
X51926614Y692739D01*
X51926611Y692738D01*
X51921733Y692096D01*
X51848800Y661886D01*
X51834874Y651200D01*
X51815365Y636230D01*
X51786171Y613829D01*
X51783173Y609922D01*
X51765597Y587016D01*
X51738114Y551200D01*
X51707904Y478267D01*
X51707262Y473389D01*
X51707261Y473386D01*
X51700478Y421858D01*
X51697600Y400000D01*
X51535400Y400000D01*
X51534870Y404884D01*
X51526843Y478771D01*
X51525243Y493496D01*
X51522463Y501757D01*
X51496545Y578771D01*
X51496543Y578776D01*
X51495246Y582629D01*
X51491332Y589144D01*
X51454249Y650859D01*
X51446809Y663242D01*
X51406463Y705907D01*
X51384985Y728620D01*
X51384982Y728622D01*
X51382191Y731574D01*
X51378541Y734055D01*
X51307770Y782150D01*
X51304408Y784435D01*
X51217088Y819361D01*
X51124305Y834721D01*
X51120238Y834508D01*
X51120235Y834508D01*
X51073248Y832045D01*
X51030388Y829799D01*
X51026461Y828717D01*
X51026459Y828717D01*
X50951943Y808192D01*
X50939719Y804825D01*
X50856527Y760963D01*
X50853414Y758332D01*
X50787805Y702888D01*
X50787802Y702885D01*
X50784696Y700260D01*
X50727574Y625549D01*
X50725853Y621858D01*
X50689548Y544002D01*
X50689546Y543996D01*
X50687829Y540314D01*
X50686942Y536346D01*
X50686941Y536343D01*
X50678817Y500000D01*
X50667313Y448534D01*
X50667204Y417185D01*
X50667122Y393845D01*
X50645096Y340934D01*
X49305453Y-998710D01*
X49303180Y-1000890D01*
X49282408Y-1019991D01*
X49271172Y-1038114D01*
X49271036Y-1038333D01*
X49267023Y-1044171D01*
X49257073Y-1057280D01*
X49257071Y-1057284D01*
X49253970Y-1061369D01*
X49252084Y-1066134D01*
X49252083Y-1066135D01*
X49251522Y-1067553D01*
X49245518Y-1079490D01*
X49242016Y-1085138D01*
X49240587Y-1090056D01*
X49240583Y-1090065D01*
X49235990Y-1105874D01*
X49233703Y-1112557D01*
X49225752Y-1132639D01*
X49225216Y-1137740D01*
X49225058Y-1139242D01*
X49222484Y-1152365D01*
X49220630Y-1158746D01*
X49220101Y-1165951D01*
X49220101Y-1182466D01*
X49219689Y-1190326D01*
X49217740Y-1208870D01*
X49218873Y-1215565D01*
X49219048Y-1216602D01*
X49220101Y-1229144D01*
X49220100Y-2560960D01*
X49210025Y-2598560D01*
X49193441Y-2618395D01*
X49184696Y-2625786D01*
X49127574Y-2700497D01*
X49120995Y-2714605D01*
X49089548Y-2782044D01*
X49089546Y-2782050D01*
X49087829Y-2785732D01*
X49086942Y-2789700D01*
X49086941Y-2789703D01*
X49078796Y-2826140D01*
X49067313Y-2877512D01*
X49067180Y-2915565D01*
X49067011Y-2964225D01*
X49066985Y-2971558D01*
X47172741Y-2971558D01*
X47172572Y-2971380D01*
X47172569Y-2971378D01*
X47169778Y-2968426D01*
X47163597Y-2964225D01*
X47114941Y-2931159D01*
X47091995Y-2915565D01*
X47074569Y-2908595D01*
X47049322Y-2891948D01*
X46888042Y-2730668D01*
X46724926Y-2567553D01*
X46705462Y-2533841D01*
X46702900Y-2514378D01*
X46702900Y1500000D01*
X62547600Y1500000D01*
X62557904Y1421733D01*
X62588114Y1348800D01*
X62636171Y1286171D01*
X62698800Y1238114D01*
X62771733Y1207904D01*
X62776611Y1207262D01*
X62776614Y1207261D01*
X62845116Y1198243D01*
X62850000Y1197600D01*
X62854884Y1198243D01*
X62923386Y1207261D01*
X62923389Y1207262D01*
X62928267Y1207904D01*
X63001200Y1238114D01*
X63063829Y1286171D01*
X63111886Y1348800D01*
X63142096Y1421733D01*
X63152400Y1500000D01*
X63142096Y1578267D01*
X63111886Y1651200D01*
X63063829Y1713829D01*
X63059538Y1717122D01*
X63005107Y1758888D01*
X63001200Y1761886D01*
X62928267Y1792096D01*
X62923389Y1792738D01*
X62923386Y1792739D01*
X62854884Y1801757D01*
X62850000Y1802400D01*
X62845116Y1801757D01*
X62776614Y1792739D01*
X62776611Y1792738D01*
X62771733Y1792096D01*
X62698800Y1761886D01*
X62694893Y1758888D01*
X62640463Y1717122D01*
X62636171Y1713829D01*
X62588114Y1651200D01*
X62557904Y1578267D01*
X62547600Y1500000D01*
X46702900Y1500000D01*
X46702900Y2810173D01*
X48626753Y2810173D01*
X48627396Y2805289D01*
X48635465Y2744002D01*
X48637057Y2731906D01*
X48667267Y2658973D01*
X48715324Y2596344D01*
X48719231Y2593346D01*
X48731116Y2584226D01*
X48777953Y2548287D01*
X48850886Y2518077D01*
X48855764Y2517435D01*
X48855767Y2517434D01*
X48924269Y2508416D01*
X48929153Y2507773D01*
X48934037Y2508416D01*
X49002539Y2517434D01*
X49002542Y2517435D01*
X49007420Y2518077D01*
X49080353Y2548287D01*
X49127190Y2584226D01*
X49139075Y2593346D01*
X49142982Y2596344D01*
X49152912Y2609285D01*
X49183794Y2632982D01*
X49222388Y2638063D01*
X49258351Y2623166D01*
X49282048Y2592284D01*
X49287129Y2553691D01*
X49285035Y2537786D01*
X49285678Y2532902D01*
X49292411Y2481762D01*
X49295339Y2459519D01*
X49325549Y2386586D01*
X49328547Y2382679D01*
X49365637Y2334343D01*
X49373606Y2323957D01*
X49436235Y2275900D01*
X49509168Y2245690D01*
X49514046Y2245048D01*
X49514049Y2245047D01*
X49582551Y2236029D01*
X49587435Y2235386D01*
X49592319Y2236029D01*
X49660821Y2245047D01*
X49660824Y2245048D01*
X49665702Y2245690D01*
X49738635Y2275900D01*
X49801264Y2323957D01*
X49809234Y2334343D01*
X49846323Y2382679D01*
X49849321Y2386586D01*
X49879531Y2459519D01*
X49882460Y2481762D01*
X49889192Y2532902D01*
X49889835Y2537786D01*
X49887057Y2558888D01*
X49881645Y2600000D01*
X50097600Y2600000D01*
X50098243Y2595116D01*
X50106434Y2532902D01*
X50107904Y2521733D01*
X50138114Y2448800D01*
X50186171Y2386171D01*
X50190078Y2383173D01*
X50217486Y2362142D01*
X50248800Y2338114D01*
X50321733Y2307904D01*
X50326611Y2307262D01*
X50326614Y2307261D01*
X50395116Y2298243D01*
X50400000Y2297600D01*
X50404884Y2298243D01*
X50473386Y2307261D01*
X50473389Y2307262D01*
X50478267Y2307904D01*
X50538048Y2332666D01*
X50576640Y2337747D01*
X50612604Y2322850D01*
X50636301Y2291968D01*
X50641382Y2253375D01*
X50636301Y2234412D01*
X50607904Y2165856D01*
X50607262Y2160978D01*
X50607261Y2160975D01*
X50605144Y2144893D01*
X50597600Y2087589D01*
X50598243Y2082705D01*
X50606869Y2017185D01*
X50607904Y2009322D01*
X50638114Y1936389D01*
X50686171Y1873760D01*
X50748800Y1825703D01*
X50821733Y1795493D01*
X50826611Y1794851D01*
X50826614Y1794850D01*
X50895116Y1785832D01*
X50900000Y1785189D01*
X50904884Y1785832D01*
X50973386Y1794850D01*
X50973389Y1794851D01*
X50978267Y1795493D01*
X51051200Y1825703D01*
X51113829Y1873760D01*
X51161886Y1936389D01*
X51192096Y2009322D01*
X51193132Y2017185D01*
X51201757Y2082705D01*
X51202400Y2087589D01*
X51194856Y2144893D01*
X51192739Y2160975D01*
X51192738Y2160978D01*
X51192096Y2165856D01*
X51161886Y2238789D01*
X51114918Y2300000D01*
X61197600Y2300000D01*
X61198243Y2295116D01*
X61206235Y2234412D01*
X61207904Y2221733D01*
X61238114Y2148800D01*
X61286171Y2086171D01*
X61348800Y2038114D01*
X61421733Y2007904D01*
X61426611Y2007262D01*
X61426614Y2007261D01*
X61495116Y1998243D01*
X61500000Y1997600D01*
X61504884Y1998243D01*
X61573386Y2007261D01*
X61573389Y2007262D01*
X61578267Y2007904D01*
X61651200Y2038114D01*
X61713829Y2086171D01*
X61761886Y2148800D01*
X61792096Y2221733D01*
X61793766Y2234412D01*
X61801757Y2295116D01*
X61802400Y2300000D01*
X61798732Y2327864D01*
X61792739Y2373386D01*
X61792738Y2373389D01*
X61792096Y2378267D01*
X61761886Y2451200D01*
X61719667Y2506221D01*
X61716827Y2509922D01*
X61713829Y2513829D01*
X61651200Y2561886D01*
X61578267Y2592096D01*
X61573389Y2592738D01*
X61573386Y2592739D01*
X61504884Y2601757D01*
X61500000Y2602400D01*
X61495116Y2601757D01*
X61426614Y2592739D01*
X61426611Y2592738D01*
X61421733Y2592096D01*
X61348800Y2561886D01*
X61286171Y2513829D01*
X61283173Y2509922D01*
X61280333Y2506221D01*
X61238114Y2451200D01*
X61207904Y2378267D01*
X61207262Y2373389D01*
X61207261Y2373386D01*
X61201268Y2327864D01*
X61197600Y2300000D01*
X51114918Y2300000D01*
X51113829Y2301418D01*
X51051200Y2349475D01*
X50978267Y2379685D01*
X50973389Y2380327D01*
X50973386Y2380328D01*
X50904884Y2389346D01*
X50900000Y2389989D01*
X50895116Y2389346D01*
X50826614Y2380328D01*
X50826611Y2380327D01*
X50821733Y2379685D01*
X50767593Y2357259D01*
X50761953Y2354923D01*
X50723360Y2349842D01*
X50687396Y2364739D01*
X50663699Y2395621D01*
X50658618Y2434214D01*
X50663699Y2453177D01*
X50686234Y2507582D01*
X50692096Y2521733D01*
X50693567Y2532902D01*
X50701757Y2595116D01*
X50702400Y2600000D01*
X50699118Y2624927D01*
X50692739Y2673386D01*
X50692738Y2673389D01*
X50692096Y2678267D01*
X50661886Y2751200D01*
X50613829Y2813829D01*
X50609495Y2817155D01*
X50555107Y2858888D01*
X50551200Y2861886D01*
X50478267Y2892096D01*
X50473389Y2892738D01*
X50473386Y2892739D01*
X50406857Y2901497D01*
X50400000Y2902400D01*
X50393143Y2901497D01*
X50326614Y2892739D01*
X50326611Y2892738D01*
X50321733Y2892096D01*
X50248800Y2861886D01*
X50244893Y2858888D01*
X50190506Y2817155D01*
X50186171Y2813829D01*
X50138114Y2751200D01*
X50107904Y2678267D01*
X50107262Y2673389D01*
X50107261Y2673386D01*
X50100882Y2624927D01*
X50097600Y2600000D01*
X49881645Y2600000D01*
X49880174Y2611172D01*
X49880173Y2611175D01*
X49879531Y2616053D01*
X49849321Y2688986D01*
X49801264Y2751615D01*
X49738635Y2799672D01*
X49665702Y2829882D01*
X49660824Y2830524D01*
X49660821Y2830525D01*
X49592319Y2839543D01*
X49587435Y2840186D01*
X49582551Y2839543D01*
X49514049Y2830525D01*
X49514046Y2830524D01*
X49509168Y2829882D01*
X49436235Y2799672D01*
X49373606Y2751615D01*
X49370608Y2747708D01*
X49363676Y2738674D01*
X49332794Y2714977D01*
X49294200Y2709896D01*
X49258237Y2724793D01*
X49234540Y2755675D01*
X49229459Y2794269D01*
X49230171Y2799672D01*
X49231553Y2810173D01*
X49228204Y2835615D01*
X49221892Y2883559D01*
X49221891Y2883562D01*
X49221249Y2888440D01*
X49191039Y2961373D01*
X49156867Y3005907D01*
X49145980Y3020095D01*
X49142982Y3024002D01*
X49080353Y3072059D01*
X49007420Y3102269D01*
X49002542Y3102911D01*
X49002539Y3102912D01*
X48934037Y3111930D01*
X48929153Y3112573D01*
X48924269Y3111930D01*
X48855767Y3102912D01*
X48855764Y3102911D01*
X48850886Y3102269D01*
X48777953Y3072059D01*
X48715324Y3024002D01*
X48712326Y3020095D01*
X48701439Y3005907D01*
X48667267Y2961373D01*
X48637057Y2888440D01*
X48636415Y2883562D01*
X48636414Y2883559D01*
X48630102Y2835615D01*
X48626753Y2810173D01*
X46702900Y2810173D01*
X46702900Y3656460D01*
X48454056Y3656460D01*
X48454699Y3651576D01*
X48461577Y3599335D01*
X48464360Y3578193D01*
X48494570Y3505260D01*
X48497568Y3501353D01*
X48536584Y3450507D01*
X48542627Y3442631D01*
X48605256Y3394574D01*
X48678189Y3364364D01*
X48683067Y3363722D01*
X48683070Y3363721D01*
X48751572Y3354703D01*
X48756456Y3354060D01*
X48761340Y3354703D01*
X48829842Y3363721D01*
X48829845Y3363722D01*
X48834723Y3364364D01*
X48907656Y3394574D01*
X48970285Y3442631D01*
X48976329Y3450507D01*
X49015344Y3501353D01*
X49018342Y3505260D01*
X49048552Y3578193D01*
X49051336Y3599335D01*
X49058213Y3651576D01*
X49058856Y3656460D01*
X49051818Y3709922D01*
X49049195Y3729846D01*
X49049194Y3729849D01*
X49048552Y3734727D01*
X49018342Y3807660D01*
X48970285Y3870289D01*
X48907656Y3918346D01*
X48834723Y3948556D01*
X48829845Y3949198D01*
X48829842Y3949199D01*
X48761340Y3958217D01*
X48756456Y3958860D01*
X48751572Y3958217D01*
X48683070Y3949199D01*
X48683067Y3949198D01*
X48678189Y3948556D01*
X48605256Y3918346D01*
X48542627Y3870289D01*
X48494570Y3807660D01*
X48464360Y3734727D01*
X48463718Y3729849D01*
X48463717Y3729846D01*
X48461094Y3709922D01*
X48454056Y3656460D01*
X46702900Y3656460D01*
X46702900Y3892068D01*
X46719207Y3938830D01*
X46763574Y3994706D01*
X46765798Y3997507D01*
X46814594Y4091045D01*
X46844822Y4192122D01*
X46851602Y4259457D01*
X47626796Y4259457D01*
X47646132Y4174689D01*
X47648059Y4170765D01*
X47648059Y4170764D01*
X47680405Y4104884D01*
X47684451Y4096643D01*
X47687224Y4093273D01*
X47687226Y4093270D01*
X47713580Y4061244D01*
X47739697Y4029505D01*
X47743178Y4026858D01*
X47743180Y4026856D01*
X47777604Y4000680D01*
X47808906Y3976877D01*
X47888365Y3941583D01*
X47931089Y3933548D01*
X47969521Y3926321D01*
X47969522Y3926321D01*
X47973813Y3925514D01*
X47993240Y3926413D01*
X48056307Y3929332D01*
X48056309Y3929332D01*
X48060666Y3929534D01*
X48064860Y3930733D01*
X48064862Y3930733D01*
X48100000Y3940776D01*
X48144264Y3953427D01*
X48190861Y3979522D01*
X48216309Y3993773D01*
X48216312Y3993775D01*
X48220124Y3995910D01*
X48284176Y4054706D01*
X48314899Y4100000D01*
X63797600Y4100000D01*
X63798243Y4095116D01*
X63807230Y4026856D01*
X63807904Y4021733D01*
X63838114Y3948800D01*
X63886171Y3886171D01*
X63948800Y3838114D01*
X64021733Y3807904D01*
X64026611Y3807262D01*
X64026614Y3807261D01*
X64095116Y3798243D01*
X64100000Y3797600D01*
X64104884Y3798243D01*
X64173386Y3807261D01*
X64173389Y3807262D01*
X64178267Y3807904D01*
X64251200Y3838114D01*
X64313829Y3886171D01*
X64361886Y3948800D01*
X64392096Y4021733D01*
X64392771Y4026856D01*
X64401757Y4095116D01*
X64402400Y4100000D01*
X64401497Y4106857D01*
X64392739Y4173386D01*
X64392738Y4173389D01*
X64392096Y4178267D01*
X64391978Y4178552D01*
X68012479Y4178552D01*
X68033745Y4099183D01*
X68035984Y4093032D01*
X68081452Y3995527D01*
X68084724Y3989859D01*
X68146430Y3901733D01*
X68150645Y3896710D01*
X68226710Y3820645D01*
X68231733Y3816430D01*
X68319859Y3754724D01*
X68325527Y3751452D01*
X68423032Y3705984D01*
X68429183Y3703745D01*
X68533107Y3675899D01*
X68539549Y3674763D01*
X68619781Y3667744D01*
X68623075Y3667600D01*
X69063098Y3667600D01*
X69070908Y3669692D01*
X69073000Y3677502D01*
X69326999Y3677502D01*
X69329091Y3669692D01*
X69336901Y3667600D01*
X69776925Y3667600D01*
X69780219Y3667744D01*
X69860451Y3674763D01*
X69866893Y3675899D01*
X69970817Y3703745D01*
X69976968Y3705984D01*
X70074473Y3751452D01*
X70080141Y3754724D01*
X70168267Y3816430D01*
X70173290Y3820645D01*
X70249355Y3896710D01*
X70253570Y3901733D01*
X70315276Y3989859D01*
X70318548Y3995527D01*
X70364016Y4093032D01*
X70366255Y4099183D01*
X70387521Y4178552D01*
X72342479Y4178552D01*
X72363745Y4099183D01*
X72365984Y4093032D01*
X72411452Y3995527D01*
X72414724Y3989859D01*
X72476430Y3901733D01*
X72480645Y3896710D01*
X72556710Y3820645D01*
X72561733Y3816430D01*
X72649859Y3754724D01*
X72655527Y3751452D01*
X72753032Y3705984D01*
X72759183Y3703745D01*
X72863107Y3675899D01*
X72869549Y3674763D01*
X72949781Y3667744D01*
X72953075Y3667600D01*
X73243098Y3667600D01*
X73250908Y3669692D01*
X73253000Y3677502D01*
X73506999Y3677502D01*
X73509091Y3669692D01*
X73516901Y3667600D01*
X73806925Y3667600D01*
X73810219Y3667744D01*
X73890451Y3674763D01*
X73896893Y3675899D01*
X74000817Y3703745D01*
X74006968Y3705984D01*
X74104473Y3751452D01*
X74110141Y3754724D01*
X74198267Y3816430D01*
X74203290Y3820645D01*
X74279355Y3896710D01*
X74283570Y3901733D01*
X74345276Y3989859D01*
X74348548Y3995527D01*
X74394016Y4093032D01*
X74396255Y4099183D01*
X74418831Y4183438D01*
X74418831Y4187866D01*
X74406436Y4193000D01*
X73516902Y4193001D01*
X73509092Y4190909D01*
X73507000Y4183099D01*
X73506999Y3677502D01*
X73253000Y3677502D01*
X73253001Y4183098D01*
X73250909Y4190908D01*
X73243099Y4193000D01*
X72348509Y4193001D01*
X72344230Y4191855D01*
X72342479Y4178552D01*
X70387521Y4178552D01*
X70388831Y4183438D01*
X70388831Y4187866D01*
X70376436Y4193000D01*
X69336902Y4193001D01*
X69329092Y4190909D01*
X69327000Y4183099D01*
X69326999Y3677502D01*
X69073000Y3677502D01*
X69073001Y4183098D01*
X69070909Y4190908D01*
X69063099Y4193000D01*
X68018509Y4193001D01*
X68014230Y4191855D01*
X68012479Y4178552D01*
X64391978Y4178552D01*
X64361886Y4251200D01*
X64323030Y4301838D01*
X64316827Y4309922D01*
X64313829Y4313829D01*
X64251200Y4361886D01*
X64178267Y4392096D01*
X64173389Y4392738D01*
X64173386Y4392739D01*
X64104884Y4401757D01*
X64100000Y4402400D01*
X64095116Y4401757D01*
X64026614Y4392739D01*
X64026611Y4392738D01*
X64021733Y4392096D01*
X63948800Y4361886D01*
X63886171Y4313829D01*
X63883173Y4309922D01*
X63876970Y4301838D01*
X63838114Y4251200D01*
X63807904Y4178267D01*
X63807262Y4173389D01*
X63807261Y4173386D01*
X63798503Y4106857D01*
X63797600Y4100000D01*
X48314899Y4100000D01*
X48332984Y4126660D01*
X48349782Y4170764D01*
X48362375Y4203828D01*
X48362376Y4203832D01*
X48363930Y4207912D01*
X48375354Y4294103D01*
X48375400Y4300000D01*
X48372714Y4323042D01*
X48365837Y4382021D01*
X48365331Y4386361D01*
X48363250Y4392096D01*
X48339727Y4456901D01*
X48338800Y4459457D01*
X59226796Y4459457D01*
X59246132Y4374689D01*
X59248059Y4370765D01*
X59248059Y4370764D01*
X59271490Y4323042D01*
X59284451Y4296643D01*
X59287224Y4293273D01*
X59287226Y4293270D01*
X59288445Y4291789D01*
X59339697Y4229505D01*
X59343178Y4226858D01*
X59343180Y4226856D01*
X59368949Y4207261D01*
X59408906Y4176877D01*
X59488365Y4141583D01*
X59531089Y4133548D01*
X59569521Y4126321D01*
X59569522Y4126321D01*
X59573813Y4125514D01*
X59598573Y4126660D01*
X59656307Y4129332D01*
X59656309Y4129332D01*
X59660666Y4129534D01*
X59664860Y4130733D01*
X59664862Y4130733D01*
X59700000Y4140776D01*
X59744264Y4153427D01*
X59796741Y4182815D01*
X59816309Y4193773D01*
X59816312Y4193775D01*
X59820124Y4195910D01*
X59884176Y4254706D01*
X59921630Y4309922D01*
X59930530Y4323042D01*
X59930531Y4323043D01*
X59932984Y4326660D01*
X59943472Y4354198D01*
X59962375Y4403828D01*
X59962376Y4403832D01*
X59963930Y4407912D01*
X59975354Y4494103D01*
X59975400Y4500000D01*
X61197600Y4500000D01*
X61198243Y4495116D01*
X61206191Y4434747D01*
X61207904Y4421733D01*
X61238114Y4348800D01*
X61286171Y4286171D01*
X61348800Y4238114D01*
X61421733Y4207904D01*
X61426611Y4207262D01*
X61426614Y4207261D01*
X61495116Y4198243D01*
X61500000Y4197600D01*
X61504884Y4198243D01*
X61573386Y4207261D01*
X61573389Y4207262D01*
X61578267Y4207904D01*
X61651200Y4238114D01*
X61713829Y4286171D01*
X61761886Y4348800D01*
X61792096Y4421733D01*
X61793810Y4434747D01*
X61796681Y4456562D01*
X68011169Y4456562D01*
X68011169Y4452134D01*
X68023564Y4447000D01*
X69063098Y4446999D01*
X69070908Y4449091D01*
X69073000Y4456901D01*
X69073000Y4456902D01*
X69326999Y4456902D01*
X69329091Y4449092D01*
X69336901Y4447000D01*
X70381491Y4446999D01*
X70385770Y4448145D01*
X70386877Y4456562D01*
X72341169Y4456562D01*
X72341169Y4452134D01*
X72353564Y4447000D01*
X73243098Y4446999D01*
X73250908Y4449091D01*
X73253000Y4456901D01*
X73253000Y4456902D01*
X73506999Y4456902D01*
X73509091Y4449092D01*
X73516901Y4447000D01*
X74411491Y4446999D01*
X74415770Y4448145D01*
X74417521Y4461448D01*
X74396255Y4540817D01*
X74394016Y4546968D01*
X74348548Y4644473D01*
X74345276Y4650141D01*
X74283570Y4738267D01*
X74279355Y4743290D01*
X74203290Y4819355D01*
X74198267Y4823570D01*
X74110141Y4885276D01*
X74104473Y4888548D01*
X74006968Y4934016D01*
X74000817Y4936255D01*
X73896893Y4964101D01*
X73890451Y4965237D01*
X73810219Y4972256D01*
X73806925Y4972400D01*
X73516902Y4972400D01*
X73509092Y4970308D01*
X73507000Y4962498D01*
X73506999Y4456902D01*
X73253000Y4456902D01*
X73253001Y4962498D01*
X73250909Y4970308D01*
X73243099Y4972400D01*
X72953075Y4972400D01*
X72949781Y4972256D01*
X72869549Y4965237D01*
X72863107Y4964101D01*
X72759183Y4936255D01*
X72753032Y4934016D01*
X72655527Y4888548D01*
X72649859Y4885276D01*
X72561733Y4823570D01*
X72556710Y4819355D01*
X72480645Y4743290D01*
X72476430Y4738267D01*
X72414724Y4650141D01*
X72411452Y4644473D01*
X72365984Y4546968D01*
X72363745Y4540817D01*
X72341169Y4456562D01*
X70386877Y4456562D01*
X70387521Y4461448D01*
X70366255Y4540817D01*
X70364016Y4546968D01*
X70318548Y4644473D01*
X70315276Y4650141D01*
X70253570Y4738267D01*
X70249355Y4743290D01*
X70173290Y4819355D01*
X70168267Y4823570D01*
X70080141Y4885276D01*
X70074473Y4888548D01*
X69976968Y4934016D01*
X69970817Y4936255D01*
X69866893Y4964101D01*
X69860451Y4965237D01*
X69780219Y4972256D01*
X69776925Y4972400D01*
X69336902Y4972400D01*
X69329092Y4970308D01*
X69327000Y4962498D01*
X69326999Y4456902D01*
X69073000Y4456902D01*
X69073001Y4962498D01*
X69070909Y4970308D01*
X69063099Y4972400D01*
X68623075Y4972400D01*
X68619781Y4972256D01*
X68539549Y4965237D01*
X68533107Y4964101D01*
X68429183Y4936255D01*
X68423032Y4934016D01*
X68325527Y4888548D01*
X68319859Y4885276D01*
X68231733Y4823570D01*
X68226710Y4819355D01*
X68150645Y4743290D01*
X68146430Y4738267D01*
X68084724Y4650141D01*
X68081452Y4644473D01*
X68035984Y4546968D01*
X68033745Y4540817D01*
X68011169Y4456562D01*
X61796681Y4456562D01*
X61801757Y4495116D01*
X61802400Y4500000D01*
X61797029Y4540800D01*
X61792739Y4573386D01*
X61792738Y4573389D01*
X61792096Y4578267D01*
X61761886Y4651200D01*
X61713829Y4713829D01*
X61651200Y4761886D01*
X61578267Y4792096D01*
X61573389Y4792738D01*
X61573386Y4792739D01*
X61504884Y4801757D01*
X61500000Y4802400D01*
X61495116Y4801757D01*
X61426614Y4792739D01*
X61426611Y4792738D01*
X61421733Y4792096D01*
X61348800Y4761886D01*
X61286171Y4713829D01*
X61238114Y4651200D01*
X61207904Y4578267D01*
X61207262Y4573389D01*
X61207261Y4573386D01*
X61202971Y4540800D01*
X61197600Y4500000D01*
X59975400Y4500000D01*
X59974888Y4504396D01*
X59965837Y4582021D01*
X59965331Y4586361D01*
X59961519Y4596865D01*
X59937154Y4663989D01*
X59935666Y4668089D01*
X59887994Y4740800D01*
X59874112Y4753951D01*
X59828041Y4797594D01*
X59824873Y4800595D01*
X59785318Y4823570D01*
X59753466Y4842071D01*
X59753464Y4842072D01*
X59749690Y4844264D01*
X59745511Y4845530D01*
X59745508Y4845531D01*
X59670661Y4868200D01*
X59670662Y4868200D01*
X59666478Y4869467D01*
X59620539Y4872317D01*
X59584058Y4874581D01*
X59584054Y4874581D01*
X59579699Y4874851D01*
X59494009Y4860126D01*
X59489993Y4858417D01*
X59489989Y4858416D01*
X59443008Y4838425D01*
X59414005Y4826084D01*
X59382347Y4802786D01*
X59350573Y4779403D01*
X59343978Y4774550D01*
X59341153Y4771224D01*
X59341149Y4771221D01*
X59294938Y4716827D01*
X59287684Y4708289D01*
X59285697Y4704397D01*
X59285696Y4704396D01*
X59273340Y4680197D01*
X59248144Y4630854D01*
X59247105Y4626607D01*
X59235277Y4578267D01*
X59227479Y4546400D01*
X59227206Y4511619D01*
X59226832Y4463989D01*
X59226796Y4459457D01*
X48338800Y4459457D01*
X48335666Y4468089D01*
X48287994Y4540800D01*
X48277604Y4550643D01*
X48228041Y4597594D01*
X48224873Y4600595D01*
X48180990Y4626084D01*
X48153466Y4642071D01*
X48153464Y4642072D01*
X48149690Y4644264D01*
X48145511Y4645530D01*
X48145508Y4645531D01*
X48081967Y4664776D01*
X48066478Y4669467D01*
X48020539Y4672317D01*
X47984058Y4674581D01*
X47984054Y4674581D01*
X47979699Y4674851D01*
X47894009Y4660126D01*
X47889993Y4658417D01*
X47889989Y4658416D01*
X47834364Y4634747D01*
X47814005Y4626084D01*
X47775291Y4597594D01*
X47749029Y4578267D01*
X47743978Y4574550D01*
X47741153Y4571224D01*
X47741149Y4571221D01*
X47690513Y4511619D01*
X47687684Y4508289D01*
X47685697Y4504397D01*
X47685696Y4504396D01*
X47680440Y4494103D01*
X47648144Y4430854D01*
X47627479Y4346400D01*
X47627445Y4342034D01*
X47627037Y4290078D01*
X47626796Y4259457D01*
X46851602Y4259457D01*
X46855392Y4297092D01*
X46855400Y4300000D01*
X46855179Y4302317D01*
X46845720Y4401465D01*
X46845719Y4401470D01*
X46845380Y4405024D01*
X46815681Y4506258D01*
X46767375Y4600049D01*
X46702205Y4683015D01*
X46622522Y4752160D01*
X46531202Y4804990D01*
X46527829Y4806161D01*
X46527823Y4806164D01*
X46465527Y4827796D01*
X46431540Y4839598D01*
X46428004Y4840111D01*
X46428003Y4840111D01*
X46359628Y4850025D01*
X46327131Y4854737D01*
X46323564Y4854572D01*
X46323562Y4854572D01*
X46225319Y4850025D01*
X46225314Y4850024D01*
X46221743Y4849859D01*
X46119179Y4825141D01*
X46115919Y4823659D01*
X46115917Y4823658D01*
X46042358Y4790212D01*
X46023140Y4781474D01*
X46020222Y4779404D01*
X46020220Y4779403D01*
X45960644Y4737143D01*
X45937090Y4720435D01*
X45934619Y4717854D01*
X45934617Y4717852D01*
X45927026Y4709922D01*
X45864135Y4644225D01*
X45862196Y4641222D01*
X45862192Y4641217D01*
X45833555Y4596865D01*
X45806907Y4555595D01*
X45805571Y4552280D01*
X45805570Y4552278D01*
X45799471Y4537143D01*
X45767472Y4457742D01*
X45747251Y4354198D01*
X45747153Y4316827D01*
X45746991Y4254706D01*
X45746975Y4248697D01*
X45766653Y4145048D01*
X45805576Y4046990D01*
X45807501Y4043975D01*
X45807501Y4043974D01*
X45851462Y3975103D01*
X45862339Y3958062D01*
X45864800Y3955464D01*
X45876495Y3943118D01*
X45897101Y3891402D01*
X45897100Y589144D01*
X45897100Y-2712469D01*
X45897097Y-2713123D01*
X45896676Y-2753380D01*
X45897564Y-2757486D01*
X45897564Y-2757489D01*
X45901107Y-2773878D01*
X45902336Y-2781385D01*
X45902796Y-2785483D01*
X45904674Y-2802228D01*
X45906056Y-2806197D01*
X45906058Y-2806205D01*
X45909921Y-2817296D01*
X45912407Y-2826140D01*
X45914669Y-2836602D01*
X45915775Y-2841719D01*
X45917550Y-2845525D01*
X45917552Y-2845532D01*
X45923808Y-2858948D01*
X45930567Y-2897283D01*
X45917252Y-2933862D01*
X45887432Y-2958882D01*
X45864426Y-2963982D01*
X45864597Y-2965284D01*
X45791211Y-2974945D01*
X45791208Y-2974946D01*
X45786330Y-2975588D01*
X45713397Y-3005798D01*
X45650768Y-3053855D01*
X45602711Y-3116484D01*
X45572501Y-3189417D01*
X45571859Y-3194295D01*
X45571858Y-3194298D01*
X45566720Y-3233329D01*
X45562197Y-3267684D01*
X45562840Y-3272568D01*
X45571595Y-3339068D01*
X45572501Y-3345951D01*
X45602711Y-3418884D01*
X45605709Y-3422791D01*
X45646400Y-3475821D01*
X45661297Y-3511785D01*
X45656216Y-3550378D01*
X45632519Y-3581260D01*
X45586740Y-3596800D01*
X32302654Y-3596800D01*
X32265054Y-3586725D01*
X32237529Y-3559200D01*
X32227454Y-3521600D01*
X32242993Y-3475822D01*
X32253323Y-3462359D01*
X32261886Y-3451200D01*
X32292096Y-3378267D01*
X32293247Y-3369529D01*
X32301757Y-3304884D01*
X32302400Y-3300000D01*
X32298789Y-3272568D01*
X32292739Y-3226614D01*
X32292738Y-3226611D01*
X32292096Y-3221733D01*
X32261886Y-3148800D01*
X32213829Y-3086171D01*
X32151200Y-3038114D01*
X32078267Y-3007904D01*
X32073389Y-3007262D01*
X32073386Y-3007261D01*
X32004884Y-2998243D01*
X32000000Y-2997600D01*
X31995116Y-2998243D01*
X31926614Y-3007261D01*
X31926611Y-3007262D01*
X31921733Y-3007904D01*
X31848800Y-3038114D01*
X31786171Y-3086171D01*
X31738114Y-3148800D01*
X31707904Y-3221733D01*
X31707262Y-3226611D01*
X31707261Y-3226614D01*
X31701211Y-3272568D01*
X31697600Y-3300000D01*
X31698243Y-3304884D01*
X31706754Y-3369529D01*
X31707904Y-3378267D01*
X31738114Y-3451200D01*
X31746677Y-3462359D01*
X31757007Y-3475822D01*
X31771903Y-3511785D01*
X31766821Y-3550378D01*
X31743124Y-3581261D01*
X31697346Y-3596800D01*
X23703285Y-3596800D01*
X23702928Y-3596808D01*
X23702907Y-3596808D01*
X23700077Y-3596870D01*
X23694426Y-3596993D01*
X23687872Y-3597279D01*
X23687475Y-3597305D01*
X23687457Y-3597306D01*
X23679461Y-3597830D01*
X23679452Y-3597831D01*
X23679020Y-3597859D01*
X23617861Y-3603210D01*
X23568114Y-3607562D01*
X23568097Y-3607564D01*
X23567284Y-3607635D01*
X23566462Y-3607743D01*
X23566446Y-3607745D01*
X23550521Y-3609842D01*
X23550506Y-3609844D01*
X23549711Y-3609949D01*
X23548927Y-3610087D01*
X23548922Y-3610088D01*
X23537611Y-3612082D01*
X23537591Y-3612086D01*
X23536814Y-3612223D01*
X23526392Y-3614534D01*
X23520309Y-3615882D01*
X23520300Y-3615884D01*
X23519507Y-3616060D01*
X23518737Y-3616266D01*
X23518726Y-3616269D01*
X23415127Y-3644028D01*
X23414347Y-3644237D01*
X23413588Y-3644476D01*
X23413572Y-3644481D01*
X23402952Y-3647830D01*
X23397431Y-3649571D01*
X23396696Y-3649839D01*
X23396677Y-3649845D01*
X23385868Y-3653780D01*
X23385113Y-3654055D01*
X23384394Y-3654353D01*
X23384373Y-3654361D01*
X23369498Y-3660523D01*
X23368745Y-3660835D01*
X23270084Y-3706841D01*
X23269356Y-3707220D01*
X23255078Y-3714652D01*
X23255057Y-3714664D01*
X23254353Y-3715030D01*
X23253675Y-3715422D01*
X23253654Y-3715433D01*
X23246125Y-3719781D01*
X23243009Y-3721580D01*
X23228065Y-3731101D01*
X23147507Y-3787508D01*
X23147500Y-3787513D01*
X23138879Y-3793550D01*
X23124816Y-3804341D01*
X23114775Y-3812767D01*
X23101711Y-3824739D01*
X23024739Y-3901711D01*
X23012767Y-3914775D01*
X23004341Y-3924816D01*
X22993546Y-3938884D01*
X22993077Y-3939554D01*
X22993071Y-3939562D01*
X22931568Y-4027396D01*
X22931104Y-4028059D01*
X22930680Y-4028724D01*
X22930671Y-4028738D01*
X22922031Y-4042300D01*
X22922019Y-4042319D01*
X22921578Y-4043012D01*
X22915024Y-4054364D01*
X22906839Y-4070088D01*
X22860835Y-4168745D01*
X22860525Y-4169495D01*
X22860523Y-4169498D01*
X22854361Y-4184373D01*
X22854353Y-4184394D01*
X22854055Y-4185113D01*
X22853783Y-4185861D01*
X22853780Y-4185868D01*
X22851184Y-4193001D01*
X22849571Y-4197431D01*
X22844237Y-4214347D01*
X22816060Y-4319507D01*
X22812223Y-4336815D01*
X22809948Y-4349718D01*
X22807634Y-4367291D01*
X22797859Y-4479021D01*
X22797279Y-4487872D01*
X22796993Y-4494426D01*
X22796800Y-4503285D01*
X22796800Y-4547539D01*
X22796993Y-4556404D01*
X22797279Y-4562953D01*
X22797858Y-4571784D01*
X22807618Y-4683429D01*
X22809929Y-4700995D01*
X22812201Y-4713889D01*
X22816031Y-4731180D01*
X22837454Y-4811196D01*
X22837455Y-4811199D01*
X22844166Y-4836263D01*
X22849486Y-4853149D01*
X22853962Y-4865458D01*
X22860738Y-4881832D01*
X22906680Y-4980439D01*
X22914856Y-4996158D01*
X22915249Y-4996840D01*
X22915262Y-4996863D01*
X22919589Y-5004362D01*
X22921401Y-5007504D01*
X22930910Y-5022444D01*
X22993262Y-5111578D01*
X22993773Y-5112244D01*
X23003589Y-5125050D01*
X23018468Y-5161021D01*
X23013369Y-5199612D01*
X22989657Y-5230482D01*
X22943907Y-5246000D01*
X329200Y-5246000D01*
X291600Y-5235925D01*
X264075Y-5208400D01*
X254000Y-5170800D01*
X254000Y-3379200D01*
X264075Y-3341600D01*
X291600Y-3314075D01*
X329200Y-3304000D01*
X13513695Y-3304000D01*
X13546068Y-3311326D01*
X13609540Y-3341600D01*
X13667071Y-3369041D01*
X13668077Y-3369529D01*
X13678621Y-3374752D01*
X13681389Y-3375625D01*
X13681397Y-3375628D01*
X13797172Y-3412132D01*
X13830978Y-3422791D01*
X13835256Y-3424140D01*
X13836268Y-3424467D01*
X13841981Y-3426362D01*
X13844611Y-3427235D01*
X13844614Y-3427236D01*
X13847376Y-3428152D01*
X13905576Y-3437891D01*
X14009337Y-3455255D01*
X14010432Y-3455447D01*
X14018513Y-3456922D01*
X14021918Y-3457544D01*
X14186061Y-3461842D01*
X14187064Y-3461875D01*
X14194844Y-3462194D01*
X14195951Y-3462240D01*
X14195952Y-3462240D01*
X14198851Y-3462359D01*
X14249856Y-3456548D01*
X14361996Y-3443772D01*
X14363106Y-3443654D01*
X14366162Y-3443352D01*
X14374733Y-3442504D01*
X14533788Y-3401371D01*
X14534744Y-3401131D01*
X14546142Y-3398363D01*
X14649988Y-3355349D01*
X14697862Y-3335519D01*
X14698897Y-3335100D01*
X14707033Y-3331871D01*
X14707044Y-3331866D01*
X14709739Y-3330796D01*
X14829237Y-3260406D01*
X14867403Y-3250000D01*
X15250000Y-3250000D01*
X15250000Y-2940590D01*
X43897600Y-2940590D01*
X43898243Y-2945474D01*
X43907013Y-3012087D01*
X43907904Y-3018857D01*
X43938114Y-3091790D01*
X43986171Y-3154419D01*
X44048800Y-3202476D01*
X44121733Y-3232686D01*
X44126611Y-3233328D01*
X44126614Y-3233329D01*
X44195116Y-3242347D01*
X44200000Y-3242990D01*
X44204884Y-3242347D01*
X44273386Y-3233329D01*
X44273389Y-3233328D01*
X44278267Y-3232686D01*
X44351200Y-3202476D01*
X44413829Y-3154419D01*
X44461886Y-3091790D01*
X44492096Y-3018857D01*
X44492988Y-3012087D01*
X44497390Y-2978643D01*
X44802308Y-2978643D01*
X44802951Y-2983527D01*
X44810104Y-3037858D01*
X44812612Y-3056910D01*
X44842822Y-3129843D01*
X44890879Y-3192472D01*
X44953508Y-3240529D01*
X45026441Y-3270739D01*
X45031319Y-3271381D01*
X45031322Y-3271382D01*
X45099824Y-3280400D01*
X45104708Y-3281043D01*
X45109592Y-3280400D01*
X45178094Y-3271382D01*
X45178097Y-3271381D01*
X45182975Y-3270739D01*
X45255908Y-3240529D01*
X45318537Y-3192472D01*
X45366594Y-3129843D01*
X45396804Y-3056910D01*
X45399313Y-3037858D01*
X45406465Y-2983527D01*
X45407108Y-2978643D01*
X45404545Y-2959178D01*
X45397447Y-2905257D01*
X45397446Y-2905254D01*
X45396804Y-2900376D01*
X45366594Y-2827443D01*
X45337395Y-2789390D01*
X45321535Y-2768721D01*
X45318537Y-2764814D01*
X45292576Y-2744893D01*
X45259815Y-2719755D01*
X45255908Y-2716757D01*
X45182975Y-2686547D01*
X45178097Y-2685905D01*
X45178094Y-2685904D01*
X45109592Y-2676886D01*
X45104708Y-2676243D01*
X45099824Y-2676886D01*
X45031322Y-2685904D01*
X45031319Y-2685905D01*
X45026441Y-2686547D01*
X44953508Y-2716757D01*
X44949601Y-2719755D01*
X44916841Y-2744893D01*
X44890879Y-2764814D01*
X44887881Y-2768721D01*
X44872021Y-2789390D01*
X44842822Y-2827443D01*
X44812612Y-2900376D01*
X44811970Y-2905254D01*
X44811969Y-2905257D01*
X44804871Y-2959178D01*
X44802308Y-2978643D01*
X44497390Y-2978643D01*
X44501757Y-2945474D01*
X44502400Y-2940590D01*
X44501158Y-2931159D01*
X44492739Y-2867204D01*
X44492738Y-2867201D01*
X44492096Y-2862323D01*
X44461886Y-2789390D01*
X44413829Y-2726761D01*
X44391706Y-2709785D01*
X44355107Y-2681702D01*
X44351200Y-2678704D01*
X44278267Y-2648494D01*
X44273389Y-2647852D01*
X44273386Y-2647851D01*
X44204884Y-2638833D01*
X44200000Y-2638190D01*
X44195116Y-2638833D01*
X44126614Y-2647851D01*
X44126611Y-2647852D01*
X44121733Y-2648494D01*
X44048800Y-2678704D01*
X44044893Y-2681702D01*
X44008295Y-2709785D01*
X43986171Y-2726761D01*
X43938114Y-2789390D01*
X43907904Y-2862323D01*
X43907262Y-2867201D01*
X43907261Y-2867204D01*
X43898842Y-2931159D01*
X43897600Y-2940590D01*
X15250000Y-2940590D01*
X15250000Y-2830880D01*
X15258497Y-2796156D01*
X15263924Y-2785732D01*
X15296183Y-2723763D01*
X15301722Y-2713123D01*
X15302244Y-2712138D01*
X15306390Y-2704455D01*
X15306391Y-2704454D01*
X15307768Y-2701901D01*
X15362606Y-2547046D01*
X15362928Y-2546157D01*
X15367024Y-2535113D01*
X15372318Y-2509094D01*
X15399757Y-2374225D01*
X15399987Y-2373136D01*
X15401866Y-2364551D01*
X15401866Y-2364549D01*
X15402489Y-2361705D01*
X15409596Y-2245512D01*
X26066985Y-2245512D01*
X26086859Y-2337434D01*
X26126009Y-2422943D01*
X26128459Y-2426194D01*
X26128460Y-2426196D01*
X26156774Y-2463770D01*
X26182607Y-2498052D01*
X26185695Y-2500698D01*
X26185698Y-2500702D01*
X26250916Y-2556600D01*
X26250919Y-2556602D01*
X26254013Y-2559254D01*
X26336896Y-2603696D01*
X26372574Y-2613792D01*
X26423472Y-2628195D01*
X26423476Y-2628196D01*
X26427389Y-2629303D01*
X26481307Y-2632506D01*
X26517207Y-2634639D01*
X26517210Y-2634639D01*
X26521269Y-2634880D01*
X26614157Y-2620168D01*
X26617946Y-2618683D01*
X26617950Y-2618682D01*
X26671744Y-2597600D01*
X26701719Y-2585853D01*
X26705106Y-2583585D01*
X26705109Y-2583584D01*
X26776484Y-2535803D01*
X26776486Y-2535802D01*
X26779870Y-2533536D01*
X26844963Y-2465657D01*
X26855164Y-2448946D01*
X26878984Y-2409922D01*
X26893962Y-2385384D01*
X26924580Y-2296462D01*
X26935389Y-2203040D01*
X26935400Y-2200000D01*
X26935108Y-2197307D01*
X26928685Y-2138187D01*
X26925243Y-2106504D01*
X26923862Y-2102400D01*
X26896545Y-2021229D01*
X26896543Y-2021224D01*
X26895246Y-2017371D01*
X26892652Y-2013053D01*
X26857834Y-1955107D01*
X26846809Y-1936758D01*
X26804817Y-1892352D01*
X26800461Y-1887746D01*
X26779900Y-1836077D01*
X26779900Y-1600000D01*
X36697600Y-1600000D01*
X36698243Y-1604884D01*
X36707160Y-1672612D01*
X36707904Y-1678267D01*
X36738114Y-1751200D01*
X36741112Y-1755107D01*
X36771570Y-1794800D01*
X36786171Y-1813829D01*
X36848800Y-1861886D01*
X36921733Y-1892096D01*
X36926611Y-1892738D01*
X36926614Y-1892739D01*
X36995116Y-1901757D01*
X37000000Y-1902400D01*
X37004884Y-1901757D01*
X37073386Y-1892739D01*
X37073389Y-1892738D01*
X37078267Y-1892096D01*
X37151200Y-1861886D01*
X37213829Y-1813829D01*
X37228431Y-1794800D01*
X37258888Y-1755107D01*
X37261886Y-1751200D01*
X37292096Y-1678267D01*
X37292841Y-1672612D01*
X37301757Y-1604884D01*
X37302400Y-1600000D01*
X37300185Y-1583173D01*
X37292739Y-1526614D01*
X37292738Y-1526611D01*
X37292096Y-1521733D01*
X37261886Y-1448800D01*
X37213829Y-1386171D01*
X37151200Y-1338114D01*
X37078267Y-1307904D01*
X37073389Y-1307262D01*
X37073386Y-1307261D01*
X37004884Y-1298243D01*
X37000000Y-1297600D01*
X36995116Y-1298243D01*
X36926614Y-1307261D01*
X36926611Y-1307262D01*
X36921733Y-1307904D01*
X36848800Y-1338114D01*
X36786171Y-1386171D01*
X36738114Y-1448800D01*
X36707904Y-1521733D01*
X36707262Y-1526611D01*
X36707261Y-1526614D01*
X36699815Y-1583173D01*
X36697600Y-1600000D01*
X26779900Y-1600000D01*
X26779900Y-1000000D01*
X38497600Y-1000000D01*
X38498243Y-1004884D01*
X38506440Y-1067143D01*
X38507904Y-1078267D01*
X38538114Y-1151200D01*
X38586171Y-1213829D01*
X38590078Y-1216827D01*
X38617485Y-1237857D01*
X38648800Y-1261886D01*
X38721733Y-1292096D01*
X38726611Y-1292738D01*
X38726614Y-1292739D01*
X38795116Y-1301757D01*
X38800000Y-1302400D01*
X38804884Y-1301757D01*
X38873386Y-1292739D01*
X38873389Y-1292738D01*
X38878267Y-1292096D01*
X38951200Y-1261886D01*
X38982514Y-1237858D01*
X39009922Y-1216827D01*
X39013829Y-1213829D01*
X39061886Y-1151200D01*
X39092096Y-1078267D01*
X39093561Y-1067143D01*
X39101757Y-1004884D01*
X39102400Y-1000000D01*
X39096988Y-958888D01*
X39092739Y-926614D01*
X39092738Y-926611D01*
X39092096Y-921733D01*
X39061886Y-848800D01*
X39013829Y-786171D01*
X38951200Y-738114D01*
X38878267Y-707904D01*
X38873389Y-707262D01*
X38873386Y-707261D01*
X38804884Y-698243D01*
X38800000Y-697600D01*
X38795116Y-698243D01*
X38726614Y-707261D01*
X38726611Y-707262D01*
X38721733Y-707904D01*
X38648800Y-738114D01*
X38586171Y-786171D01*
X38538114Y-848800D01*
X38507904Y-921733D01*
X38507262Y-926611D01*
X38507261Y-926614D01*
X38503012Y-958888D01*
X38497600Y-1000000D01*
X26779900Y-1000000D01*
X26779900Y-400000D01*
X27597600Y-400000D01*
X27598243Y-404884D01*
X27606470Y-467373D01*
X27607904Y-478267D01*
X27638114Y-551200D01*
X27686171Y-613829D01*
X27748800Y-661886D01*
X27821733Y-692096D01*
X27826611Y-692738D01*
X27826614Y-692739D01*
X27895116Y-701757D01*
X27900000Y-702400D01*
X27904884Y-701757D01*
X27973386Y-692739D01*
X27973389Y-692738D01*
X27978267Y-692096D01*
X28051200Y-661886D01*
X28113829Y-613829D01*
X28161886Y-551200D01*
X28192096Y-478267D01*
X28193531Y-467373D01*
X28201757Y-404884D01*
X28202400Y-400000D01*
X28198611Y-371222D01*
X28192739Y-326614D01*
X28192738Y-326611D01*
X28192096Y-321733D01*
X28161886Y-248800D01*
X28124440Y-200000D01*
X28116827Y-190078D01*
X28113829Y-186171D01*
X28084636Y-163770D01*
X28055107Y-141112D01*
X28051200Y-138114D01*
X27978267Y-107904D01*
X27973389Y-107262D01*
X27973386Y-107261D01*
X27904884Y-98243D01*
X27900000Y-97600D01*
X27895116Y-98243D01*
X27826614Y-107261D01*
X27826611Y-107262D01*
X27821733Y-107904D01*
X27748800Y-138114D01*
X27744893Y-141112D01*
X27715365Y-163770D01*
X27686171Y-186171D01*
X27683173Y-190078D01*
X27675560Y-200000D01*
X27638114Y-248800D01*
X27607904Y-321733D01*
X27607262Y-326611D01*
X27607261Y-326614D01*
X27601389Y-371222D01*
X27597600Y-400000D01*
X26779900Y-400000D01*
X26779900Y200000D01*
X38397600Y200000D01*
X38398243Y195116D01*
X38406952Y128967D01*
X38407904Y121733D01*
X38438114Y48800D01*
X38486171Y-13829D01*
X38490078Y-16827D01*
X38494432Y-20168D01*
X38548800Y-61886D01*
X38621733Y-92096D01*
X38626611Y-92738D01*
X38626614Y-92739D01*
X38695116Y-101757D01*
X38700000Y-102400D01*
X38704884Y-101757D01*
X38773386Y-92739D01*
X38773389Y-92738D01*
X38778267Y-92096D01*
X38851200Y-61886D01*
X38905568Y-20168D01*
X38909922Y-16827D01*
X38913829Y-13829D01*
X38924440Y0D01*
X42097600Y0D01*
X42098243Y-4884D01*
X42106631Y-68595D01*
X42107904Y-78267D01*
X42138114Y-151200D01*
X42186171Y-213829D01*
X42190078Y-216827D01*
X42194432Y-220168D01*
X42248800Y-261886D01*
X42321733Y-292096D01*
X42326611Y-292738D01*
X42326614Y-292739D01*
X42395116Y-301757D01*
X42400000Y-302400D01*
X42404884Y-301757D01*
X42473386Y-292739D01*
X42473389Y-292738D01*
X42478267Y-292096D01*
X42551200Y-261886D01*
X42605568Y-220168D01*
X42609922Y-216827D01*
X42613829Y-213829D01*
X42661886Y-151200D01*
X42692096Y-78267D01*
X42693370Y-68595D01*
X42701757Y-4884D01*
X42702400Y0D01*
X42699224Y24125D01*
X42692739Y73386D01*
X42692738Y73389D01*
X42692096Y78267D01*
X42683094Y100000D01*
X43197600Y100000D01*
X43198243Y95116D01*
X43206470Y32627D01*
X43207904Y21733D01*
X43238114Y-51200D01*
X43286171Y-113829D01*
X43290078Y-116827D01*
X43317486Y-137858D01*
X43348800Y-161886D01*
X43421733Y-192096D01*
X43426611Y-192738D01*
X43426614Y-192739D01*
X43495116Y-201757D01*
X43500000Y-202400D01*
X43504884Y-201757D01*
X43573386Y-192739D01*
X43573389Y-192738D01*
X43578267Y-192096D01*
X43651200Y-161886D01*
X43682515Y-137857D01*
X43709922Y-116827D01*
X43713829Y-113829D01*
X43761886Y-51200D01*
X43792096Y21733D01*
X43793531Y32627D01*
X43801757Y95116D01*
X43802400Y100000D01*
X43798764Y127619D01*
X43792739Y173386D01*
X43792738Y173389D01*
X43792096Y178267D01*
X43761886Y251200D01*
X43722599Y302400D01*
X43716827Y309922D01*
X43713829Y313829D01*
X43651200Y361886D01*
X43578267Y392096D01*
X43573389Y392738D01*
X43573386Y392739D01*
X43504884Y401757D01*
X43500000Y402400D01*
X43495116Y401757D01*
X43426614Y392739D01*
X43426611Y392738D01*
X43421733Y392096D01*
X43348800Y361886D01*
X43286171Y313829D01*
X43283173Y309922D01*
X43277401Y302400D01*
X43238114Y251200D01*
X43207904Y178267D01*
X43207262Y173389D01*
X43207261Y173386D01*
X43201236Y127619D01*
X43197600Y100000D01*
X42683094Y100000D01*
X42661886Y151200D01*
X42620693Y204884D01*
X42616827Y209922D01*
X42613829Y213829D01*
X42551200Y261886D01*
X42478267Y292096D01*
X42473389Y292738D01*
X42473386Y292739D01*
X42404884Y301757D01*
X42400000Y302400D01*
X42395116Y301757D01*
X42326614Y292739D01*
X42326611Y292738D01*
X42321733Y292096D01*
X42248800Y261886D01*
X42186171Y213829D01*
X42183173Y209922D01*
X42179307Y204884D01*
X42138114Y151200D01*
X42107904Y78267D01*
X42107262Y73389D01*
X42107261Y73386D01*
X42100776Y24125D01*
X42097600Y0D01*
X38924440Y0D01*
X38961886Y48800D01*
X38992096Y121733D01*
X38993049Y128967D01*
X39001757Y195116D01*
X39002400Y200000D01*
X38996373Y245779D01*
X38992739Y273386D01*
X38992738Y273389D01*
X38992096Y278267D01*
X38961886Y351200D01*
X38913829Y413829D01*
X38851200Y461886D01*
X38778267Y492096D01*
X38773389Y492738D01*
X38773386Y492739D01*
X38704884Y501757D01*
X38700000Y502400D01*
X38695116Y501757D01*
X38626614Y492739D01*
X38626611Y492738D01*
X38621733Y492096D01*
X38548800Y461886D01*
X38486171Y413829D01*
X38438114Y351200D01*
X38407904Y278267D01*
X38407262Y273389D01*
X38407261Y273386D01*
X38403627Y245779D01*
X38397600Y200000D01*
X26779900Y200000D01*
X26779900Y900000D01*
X38697600Y900000D01*
X38698243Y895116D01*
X38706985Y828717D01*
X38707904Y821733D01*
X38738114Y748800D01*
X38786171Y686171D01*
X38790078Y683173D01*
X38816053Y663242D01*
X38848800Y638114D01*
X38921733Y607904D01*
X38926611Y607262D01*
X38926614Y607261D01*
X38995116Y598243D01*
X39000000Y597600D01*
X39004884Y598243D01*
X39073386Y607261D01*
X39073389Y607262D01*
X39078267Y607904D01*
X39151200Y638114D01*
X39183947Y663242D01*
X39209922Y683173D01*
X39213829Y686171D01*
X39261886Y748800D01*
X39292096Y821733D01*
X39293016Y828717D01*
X39301757Y895116D01*
X39302400Y900000D01*
X39295434Y952915D01*
X39292739Y973386D01*
X39292738Y973389D01*
X39292096Y978267D01*
X39261886Y1051200D01*
X39234403Y1087016D01*
X39216827Y1109922D01*
X39213829Y1113829D01*
X39183222Y1137315D01*
X39155107Y1158888D01*
X39151200Y1161886D01*
X39078267Y1192096D01*
X39073389Y1192738D01*
X39073386Y1192739D01*
X39004884Y1201757D01*
X39000000Y1202400D01*
X38995116Y1201757D01*
X38926614Y1192739D01*
X38926611Y1192738D01*
X38921733Y1192096D01*
X38848800Y1161886D01*
X38844893Y1158888D01*
X38816779Y1137315D01*
X38786171Y1113829D01*
X38783173Y1109922D01*
X38765597Y1087016D01*
X38738114Y1051200D01*
X38707904Y978267D01*
X38707262Y973389D01*
X38707261Y973386D01*
X38704566Y952915D01*
X38697600Y900000D01*
X26779900Y900000D01*
X26779900Y952915D01*
X26789975Y990515D01*
X26801926Y1006089D01*
X27940442Y2144604D01*
X27974153Y2164068D01*
X27998075Y2166498D01*
X28004705Y2166104D01*
X28017207Y2165361D01*
X28017210Y2165361D01*
X28021269Y2165120D01*
X28114157Y2179832D01*
X28117946Y2181317D01*
X28117950Y2181318D01*
X28161137Y2198243D01*
X28201719Y2214147D01*
X28205106Y2216415D01*
X28205109Y2216416D01*
X28276484Y2264197D01*
X28276486Y2264198D01*
X28279870Y2266464D01*
X28312029Y2300000D01*
X37897600Y2300000D01*
X37898243Y2295116D01*
X37906235Y2234412D01*
X37907904Y2221733D01*
X37938114Y2148800D01*
X37986171Y2086171D01*
X38048800Y2038114D01*
X38121733Y2007904D01*
X38126611Y2007262D01*
X38126614Y2007261D01*
X38195116Y1998243D01*
X38200000Y1997600D01*
X38204884Y1998243D01*
X38273386Y2007261D01*
X38273389Y2007262D01*
X38278267Y2007904D01*
X38351200Y2038114D01*
X38413829Y2086171D01*
X38424440Y2100000D01*
X38797600Y2100000D01*
X38798243Y2095116D01*
X38805353Y2041112D01*
X38807904Y2021733D01*
X38838114Y1948800D01*
X38886171Y1886171D01*
X38948800Y1838114D01*
X39021733Y1807904D01*
X39026611Y1807262D01*
X39026614Y1807261D01*
X39095116Y1798243D01*
X39100000Y1797600D01*
X39104884Y1798243D01*
X39173386Y1807261D01*
X39173389Y1807262D01*
X39178267Y1807904D01*
X39251200Y1838114D01*
X39313829Y1886171D01*
X39361886Y1948800D01*
X39392096Y2021733D01*
X39394648Y2041112D01*
X39401757Y2095116D01*
X39402400Y2100000D01*
X39396490Y2144893D01*
X39392739Y2173386D01*
X39392738Y2173389D01*
X39392096Y2178267D01*
X39361886Y2251200D01*
X39313829Y2313829D01*
X39284636Y2336230D01*
X39262326Y2353349D01*
X39251200Y2361886D01*
X39178267Y2392096D01*
X39173389Y2392738D01*
X39173386Y2392739D01*
X39104884Y2401757D01*
X39100000Y2402400D01*
X39095116Y2401757D01*
X39026614Y2392739D01*
X39026611Y2392738D01*
X39021733Y2392096D01*
X38948800Y2361886D01*
X38937674Y2353349D01*
X38915365Y2336230D01*
X38886171Y2313829D01*
X38838114Y2251200D01*
X38807904Y2178267D01*
X38807262Y2173389D01*
X38807261Y2173386D01*
X38803510Y2144893D01*
X38797600Y2100000D01*
X38424440Y2100000D01*
X38461886Y2148800D01*
X38492096Y2221733D01*
X38493766Y2234412D01*
X38501757Y2295116D01*
X38502400Y2300000D01*
X38498732Y2327864D01*
X38492739Y2373386D01*
X38492738Y2373389D01*
X38492096Y2378267D01*
X38461886Y2451200D01*
X38419667Y2506221D01*
X38416827Y2509922D01*
X38413829Y2513829D01*
X38351200Y2561886D01*
X38278267Y2592096D01*
X38273389Y2592738D01*
X38273386Y2592739D01*
X38204884Y2601757D01*
X38200000Y2602400D01*
X38195116Y2601757D01*
X38126614Y2592739D01*
X38126611Y2592738D01*
X38121733Y2592096D01*
X38048800Y2561886D01*
X37986171Y2513829D01*
X37983173Y2509922D01*
X37980333Y2506221D01*
X37938114Y2451200D01*
X37907904Y2378267D01*
X37907262Y2373389D01*
X37907261Y2373386D01*
X37901268Y2327864D01*
X37897600Y2300000D01*
X28312029Y2300000D01*
X28344963Y2334343D01*
X28393962Y2414616D01*
X28424580Y2503538D01*
X28435389Y2596960D01*
X28435400Y2600000D01*
X28434870Y2604884D01*
X28429696Y2652505D01*
X28425243Y2693496D01*
X28413847Y2727358D01*
X28396545Y2778771D01*
X28396543Y2778776D01*
X28395246Y2782629D01*
X28390551Y2790444D01*
X28348904Y2859755D01*
X28346809Y2863242D01*
X28312050Y2900000D01*
X36097600Y2900000D01*
X36098243Y2895116D01*
X36107143Y2827517D01*
X36107904Y2821733D01*
X36138114Y2748800D01*
X36186171Y2686171D01*
X36248800Y2638114D01*
X36321733Y2607904D01*
X36326611Y2607262D01*
X36326614Y2607261D01*
X36395116Y2598243D01*
X36400000Y2597600D01*
X36404884Y2598243D01*
X36473386Y2607261D01*
X36473389Y2607262D01*
X36478267Y2607904D01*
X36551200Y2638114D01*
X36613829Y2686171D01*
X36661886Y2748800D01*
X36692096Y2821733D01*
X36692858Y2827517D01*
X36701757Y2895116D01*
X36702400Y2900000D01*
X42997600Y2900000D01*
X42998243Y2895116D01*
X43007143Y2827517D01*
X43007904Y2821733D01*
X43038114Y2748800D01*
X43086171Y2686171D01*
X43148800Y2638114D01*
X43221733Y2607904D01*
X43226611Y2607262D01*
X43226614Y2607261D01*
X43295116Y2598243D01*
X43300000Y2597600D01*
X43304884Y2598243D01*
X43373386Y2607261D01*
X43373389Y2607262D01*
X43378267Y2607904D01*
X43451200Y2638114D01*
X43513829Y2686171D01*
X43561886Y2748800D01*
X43592096Y2821733D01*
X43592858Y2827517D01*
X43601757Y2895116D01*
X43602400Y2900000D01*
X43599384Y2922907D01*
X43592739Y2973386D01*
X43592738Y2973389D01*
X43592096Y2978267D01*
X43561886Y3051200D01*
X43513829Y3113829D01*
X43451200Y3161886D01*
X43378267Y3192096D01*
X43373389Y3192738D01*
X43373386Y3192739D01*
X43304884Y3201757D01*
X43300000Y3202400D01*
X43295116Y3201757D01*
X43226614Y3192739D01*
X43226611Y3192738D01*
X43221733Y3192096D01*
X43148800Y3161886D01*
X43086171Y3113829D01*
X43038114Y3051200D01*
X43007904Y2978267D01*
X43007262Y2973389D01*
X43007261Y2973386D01*
X43000616Y2922907D01*
X42997600Y2900000D01*
X36702400Y2900000D01*
X36699384Y2922907D01*
X36692739Y2973386D01*
X36692738Y2973389D01*
X36692096Y2978267D01*
X36661886Y3051200D01*
X36613829Y3113829D01*
X36551200Y3161886D01*
X36478267Y3192096D01*
X36473389Y3192738D01*
X36473386Y3192739D01*
X36404884Y3201757D01*
X36400000Y3202400D01*
X36395116Y3201757D01*
X36326614Y3192739D01*
X36326611Y3192738D01*
X36321733Y3192096D01*
X36248800Y3161886D01*
X36186171Y3113829D01*
X36138114Y3051200D01*
X36107904Y2978267D01*
X36107262Y2973389D01*
X36107261Y2973386D01*
X36100616Y2922907D01*
X36097600Y2900000D01*
X28312050Y2900000D01*
X28300886Y2911805D01*
X28284985Y2928620D01*
X28284982Y2928622D01*
X28282191Y2931574D01*
X28252053Y2952056D01*
X28207770Y2982150D01*
X28204408Y2984435D01*
X28117088Y3019361D01*
X28024305Y3034721D01*
X28020238Y3034508D01*
X28020235Y3034508D01*
X27973248Y3032045D01*
X27930388Y3029799D01*
X27926461Y3028717D01*
X27926459Y3028717D01*
X27843647Y3005907D01*
X27839719Y3004825D01*
X27756527Y2960963D01*
X27748465Y2954150D01*
X27687805Y2902888D01*
X27687802Y2902885D01*
X27684696Y2900260D01*
X27627574Y2825549D01*
X27625853Y2821858D01*
X27589548Y2744002D01*
X27589546Y2743996D01*
X27587829Y2740314D01*
X27586942Y2736346D01*
X27586941Y2736343D01*
X27580568Y2707833D01*
X27567313Y2648534D01*
X27567216Y2620601D01*
X27567122Y2593846D01*
X27545096Y2540935D01*
X26305464Y1301301D01*
X26303191Y1299121D01*
X26282407Y1280009D01*
X26271026Y1261651D01*
X26267024Y1255828D01*
X26253970Y1238631D01*
X26251519Y1232441D01*
X26245521Y1220516D01*
X26242015Y1214861D01*
X26235988Y1194116D01*
X26233701Y1187436D01*
X26225752Y1167361D01*
X26225216Y1162260D01*
X26225215Y1162257D01*
X26225056Y1160749D01*
X26222484Y1147639D01*
X26220629Y1141253D01*
X26220100Y1134048D01*
X26220100Y1117525D01*
X26219688Y1109665D01*
X26217740Y1091130D01*
X26218595Y1086075D01*
X26218595Y1086074D01*
X26219047Y1083402D01*
X26220100Y1070862D01*
X26220101Y-395116D01*
X26220101Y-1834914D01*
X26210026Y-1872514D01*
X26193438Y-1892352D01*
X26184696Y-1899740D01*
X26182225Y-1902972D01*
X26182224Y-1902973D01*
X26177265Y-1909459D01*
X26127574Y-1974451D01*
X26125853Y-1978142D01*
X26089548Y-2055998D01*
X26089546Y-2056004D01*
X26087829Y-2059686D01*
X26086942Y-2063654D01*
X26086941Y-2063657D01*
X26079042Y-2098995D01*
X26067313Y-2151466D01*
X26066985Y-2245512D01*
X15409596Y-2245512D01*
X15412515Y-2197802D01*
X15412590Y-2196711D01*
X15413478Y-2185045D01*
X15400593Y-2021338D01*
X15400517Y-2020269D01*
X15400333Y-2017371D01*
X15399772Y-2008577D01*
X15396889Y-1995571D01*
X15364218Y-1848199D01*
X15363985Y-1847109D01*
X15362863Y-1841668D01*
X15361640Y-1835733D01*
X15360621Y-1833007D01*
X15304143Y-1681947D01*
X15303762Y-1680905D01*
X15300800Y-1672612D01*
X15300799Y-1672609D01*
X15299823Y-1669877D01*
X15263113Y-1602265D01*
X15254000Y-1566384D01*
X15254000Y-26379D01*
X15274924Y25670D01*
X15334221Y87504D01*
X15334223Y87506D01*
X15337040Y90444D01*
X15384913Y168873D01*
X15414829Y255753D01*
X15418002Y283173D01*
X15425149Y344945D01*
X15425149Y344949D01*
X15425390Y347030D01*
X15425400Y350000D01*
X15415476Y441348D01*
X15412566Y449997D01*
X15397382Y495116D01*
X15395739Y500000D01*
X18297600Y500000D01*
X18298243Y495116D01*
X18306976Y428784D01*
X18307904Y421733D01*
X18338114Y348800D01*
X18386171Y286171D01*
X18390078Y283173D01*
X18420721Y259660D01*
X18444418Y228778D01*
X18449499Y190185D01*
X18434602Y154221D01*
X18420722Y140341D01*
X18386171Y113829D01*
X18383173Y109922D01*
X18365971Y87504D01*
X18338114Y51200D01*
X18307904Y-21733D01*
X18307262Y-26611D01*
X18307261Y-26614D01*
X18301104Y-73386D01*
X18297600Y-100000D01*
X18298243Y-104884D01*
X18305353Y-158888D01*
X18307904Y-178267D01*
X18338114Y-251200D01*
X18386171Y-313829D01*
X18390078Y-316827D01*
X18420721Y-340340D01*
X18444418Y-371222D01*
X18449499Y-409815D01*
X18434602Y-445779D01*
X18420722Y-459659D01*
X18386171Y-486171D01*
X18338114Y-548800D01*
X18307904Y-621733D01*
X18297600Y-700000D01*
X18307904Y-778267D01*
X18338114Y-851200D01*
X18341112Y-855107D01*
X18380006Y-905794D01*
X18386171Y-913829D01*
X18448800Y-961886D01*
X18521733Y-992096D01*
X18526611Y-992738D01*
X18526614Y-992739D01*
X18600000Y-1002400D01*
X18599913Y-1003059D01*
X18632655Y-1011832D01*
X18660180Y-1039357D01*
X18670255Y-1076957D01*
X18664530Y-1105736D01*
X18659789Y-1117181D01*
X18659788Y-1117184D01*
X18657904Y-1121733D01*
X18657262Y-1126611D01*
X18657261Y-1126614D01*
X18651551Y-1169988D01*
X18647600Y-1200000D01*
X18648243Y-1204884D01*
X18656844Y-1270213D01*
X18657904Y-1278267D01*
X18688114Y-1351200D01*
X18736171Y-1413829D01*
X18798800Y-1461886D01*
X18871733Y-1492096D01*
X18876611Y-1492738D01*
X18876614Y-1492739D01*
X18945116Y-1501757D01*
X18950000Y-1502400D01*
X18954884Y-1501757D01*
X19023386Y-1492739D01*
X19023389Y-1492738D01*
X19028267Y-1492096D01*
X19101200Y-1461886D01*
X19163829Y-1413829D01*
X19211886Y-1351200D01*
X19242096Y-1278267D01*
X19243157Y-1270213D01*
X19250443Y-1214865D01*
X19255280Y-1203187D01*
X19250443Y-1185135D01*
X19242739Y-1126614D01*
X19242738Y-1126611D01*
X19242096Y-1121733D01*
X19240212Y-1117184D01*
X19240211Y-1117181D01*
X19235470Y-1105736D01*
X19230388Y-1067143D01*
X19245284Y-1031179D01*
X19276166Y-1007482D01*
X19300044Y-1002732D01*
X19300000Y-1002400D01*
X19337272Y-997493D01*
X19375864Y-1002574D01*
X19406747Y-1026271D01*
X19421644Y-1062234D01*
X19416563Y-1100827D01*
X19409789Y-1117181D01*
X19409788Y-1117184D01*
X19407904Y-1121733D01*
X19407262Y-1126611D01*
X19407261Y-1126614D01*
X19399557Y-1185135D01*
X19394720Y-1196813D01*
X19399557Y-1214865D01*
X19406844Y-1270213D01*
X19407904Y-1278267D01*
X19438114Y-1351200D01*
X19486171Y-1413829D01*
X19548800Y-1461886D01*
X19621733Y-1492096D01*
X19626611Y-1492738D01*
X19626614Y-1492739D01*
X19695116Y-1501757D01*
X19700000Y-1502400D01*
X19704884Y-1501757D01*
X19773386Y-1492739D01*
X19773389Y-1492738D01*
X19778267Y-1492096D01*
X19851200Y-1461886D01*
X19913829Y-1413829D01*
X19961886Y-1351200D01*
X19992096Y-1278267D01*
X19993157Y-1270213D01*
X20000443Y-1214865D01*
X20005280Y-1203187D01*
X20000443Y-1185135D01*
X19992739Y-1126614D01*
X19992738Y-1126611D01*
X19992096Y-1121733D01*
X19990212Y-1117184D01*
X19990211Y-1117181D01*
X19983437Y-1100827D01*
X19978356Y-1062234D01*
X19993253Y-1026271D01*
X20024136Y-1002574D01*
X20062728Y-997493D01*
X20100000Y-1002400D01*
X20099913Y-1003059D01*
X20132655Y-1011832D01*
X20160180Y-1039357D01*
X20170255Y-1076957D01*
X20164530Y-1105736D01*
X20159789Y-1117181D01*
X20159788Y-1117184D01*
X20157904Y-1121733D01*
X20157262Y-1126611D01*
X20157261Y-1126614D01*
X20149557Y-1185135D01*
X20144720Y-1196813D01*
X20149557Y-1214865D01*
X20156844Y-1270213D01*
X20157904Y-1278267D01*
X20188114Y-1351200D01*
X20236171Y-1413829D01*
X20298800Y-1461886D01*
X20371733Y-1492096D01*
X20376611Y-1492738D01*
X20376614Y-1492739D01*
X20445116Y-1501757D01*
X20450000Y-1502400D01*
X20454884Y-1501757D01*
X20523386Y-1492739D01*
X20523389Y-1492738D01*
X20528267Y-1492096D01*
X20601200Y-1461886D01*
X20663829Y-1413829D01*
X20711886Y-1351200D01*
X20742096Y-1278267D01*
X20743157Y-1270213D01*
X20751757Y-1204884D01*
X20752400Y-1200000D01*
X20751914Y-1196301D01*
X23746819Y-1196301D01*
X23747316Y-1200803D01*
X23747316Y-1200806D01*
X23749198Y-1217850D01*
X23756132Y-1280654D01*
X23757688Y-1284906D01*
X23757689Y-1284910D01*
X23766793Y-1309788D01*
X23785296Y-1360349D01*
X23790366Y-1367894D01*
X23826206Y-1421229D01*
X23832629Y-1430788D01*
X23895398Y-1487903D01*
X23899384Y-1490067D01*
X23899385Y-1490068D01*
X23906973Y-1494188D01*
X23969978Y-1528397D01*
X23974357Y-1529546D01*
X23974360Y-1529547D01*
X24047685Y-1548783D01*
X24052065Y-1549932D01*
X24087198Y-1550484D01*
X24132387Y-1551194D01*
X24132389Y-1551194D01*
X24136919Y-1551265D01*
X24141336Y-1550253D01*
X24141339Y-1550253D01*
X24215219Y-1533332D01*
X24219642Y-1532319D01*
X24264174Y-1509922D01*
X24291412Y-1496223D01*
X24291413Y-1496223D01*
X24295458Y-1494188D01*
X24359989Y-1439073D01*
X24362633Y-1435394D01*
X24406866Y-1373838D01*
X24406868Y-1373835D01*
X24409512Y-1370155D01*
X24437714Y-1300000D01*
X24439473Y-1295625D01*
X24439474Y-1295622D01*
X24441165Y-1291415D01*
X24445368Y-1261886D01*
X24452776Y-1209837D01*
X24452776Y-1209833D01*
X24453123Y-1207397D01*
X24453200Y-1200000D01*
X24449024Y-1165492D01*
X24443550Y-1120250D01*
X24443549Y-1120246D01*
X24443005Y-1115750D01*
X24413007Y-1036364D01*
X24409444Y-1031179D01*
X24386365Y-997600D01*
X24364939Y-966425D01*
X24301576Y-909970D01*
X24277885Y-897426D01*
X24230584Y-872381D01*
X24230583Y-872381D01*
X24226576Y-870259D01*
X24170178Y-856093D01*
X24148668Y-850690D01*
X24148667Y-850690D01*
X24144268Y-849585D01*
X24139735Y-849561D01*
X24139733Y-849561D01*
X24103564Y-849372D01*
X24059404Y-849141D01*
X23976884Y-868952D01*
X23901472Y-907875D01*
X23898058Y-910853D01*
X23898054Y-910856D01*
X23869926Y-935394D01*
X23837521Y-963663D01*
X23818862Y-990212D01*
X23792026Y-1028397D01*
X23788724Y-1033095D01*
X23787077Y-1037318D01*
X23787077Y-1037319D01*
X23759542Y-1107940D01*
X23759541Y-1107944D01*
X23757896Y-1112163D01*
X23746819Y-1196301D01*
X20751914Y-1196301D01*
X20748449Y-1169988D01*
X20742739Y-1126614D01*
X20742738Y-1126611D01*
X20742096Y-1121733D01*
X20740212Y-1117184D01*
X20740211Y-1117181D01*
X20735470Y-1105736D01*
X20730388Y-1067143D01*
X20745284Y-1031179D01*
X20776166Y-1007482D01*
X20800044Y-1002732D01*
X20800000Y-1002400D01*
X20873386Y-992739D01*
X20873389Y-992738D01*
X20878267Y-992096D01*
X20951200Y-961886D01*
X21013829Y-913829D01*
X21019995Y-905794D01*
X21058888Y-855107D01*
X21061886Y-851200D01*
X21092096Y-778267D01*
X21102400Y-700000D01*
X21101914Y-696301D01*
X23046819Y-696301D01*
X23047316Y-700803D01*
X23047316Y-700806D01*
X23048029Y-707261D01*
X23056132Y-780654D01*
X23057688Y-784906D01*
X23057689Y-784910D01*
X23062909Y-799173D01*
X23085296Y-860349D01*
X23087824Y-864111D01*
X23123248Y-916827D01*
X23132629Y-930788D01*
X23195398Y-987903D01*
X23199384Y-990067D01*
X23199385Y-990068D01*
X23210721Y-996223D01*
X23269978Y-1028397D01*
X23274357Y-1029546D01*
X23274360Y-1029547D01*
X23330105Y-1044171D01*
X23352065Y-1049932D01*
X23387198Y-1050484D01*
X23432387Y-1051194D01*
X23432389Y-1051194D01*
X23436919Y-1051265D01*
X23441336Y-1050253D01*
X23441339Y-1050253D01*
X23515219Y-1033332D01*
X23519642Y-1032319D01*
X23560376Y-1011832D01*
X23591412Y-996223D01*
X23591413Y-996223D01*
X23595458Y-994188D01*
X23659989Y-939073D01*
X23662633Y-935394D01*
X23706866Y-873838D01*
X23706868Y-873835D01*
X23709512Y-870155D01*
X23728266Y-823503D01*
X23739473Y-795625D01*
X23739474Y-795622D01*
X23741165Y-791415D01*
X23742338Y-783173D01*
X23752776Y-709837D01*
X23752776Y-709833D01*
X23753123Y-707397D01*
X23753200Y-700000D01*
X23745888Y-639575D01*
X23743550Y-620250D01*
X23743549Y-620246D01*
X23743005Y-615750D01*
X23713007Y-536364D01*
X23708827Y-530281D01*
X23677600Y-484847D01*
X23664939Y-466425D01*
X23601576Y-409970D01*
X23564209Y-390185D01*
X23530584Y-372381D01*
X23530583Y-372381D01*
X23526576Y-370259D01*
X23462725Y-354221D01*
X23448668Y-350690D01*
X23448667Y-350690D01*
X23444268Y-349585D01*
X23439735Y-349561D01*
X23439733Y-349561D01*
X23403564Y-349372D01*
X23359404Y-349141D01*
X23276884Y-368952D01*
X23201472Y-407875D01*
X23198058Y-410853D01*
X23198054Y-410856D01*
X23162334Y-442017D01*
X23137521Y-463663D01*
X23118136Y-491246D01*
X23092026Y-528397D01*
X23088724Y-533095D01*
X23087077Y-537318D01*
X23087077Y-537319D01*
X23059542Y-607940D01*
X23059541Y-607944D01*
X23057896Y-612163D01*
X23046819Y-696301D01*
X21101914Y-696301D01*
X21092096Y-621733D01*
X21061886Y-548800D01*
X21013829Y-486171D01*
X20979279Y-459660D01*
X20955582Y-428778D01*
X20950501Y-390185D01*
X20965398Y-354221D01*
X20979279Y-340340D01*
X21009922Y-316827D01*
X21013829Y-313829D01*
X21061886Y-251200D01*
X21084626Y-196301D01*
X23746819Y-196301D01*
X23747316Y-200803D01*
X23747316Y-200806D01*
X23750489Y-229544D01*
X23756132Y-280654D01*
X23757688Y-284906D01*
X23757689Y-284910D01*
X23764090Y-302400D01*
X23785296Y-360349D01*
X23787824Y-364111D01*
X23818536Y-409815D01*
X23832629Y-430788D01*
X23895398Y-487903D01*
X23899384Y-490067D01*
X23899385Y-490068D01*
X23901555Y-491246D01*
X23969978Y-528397D01*
X23974357Y-529546D01*
X23974360Y-529547D01*
X24047685Y-548783D01*
X24052065Y-549932D01*
X24087198Y-550484D01*
X24132387Y-551194D01*
X24132389Y-551194D01*
X24136919Y-551265D01*
X24141336Y-550253D01*
X24141339Y-550253D01*
X24215219Y-533332D01*
X24219642Y-532319D01*
X24295458Y-494188D01*
X24359989Y-439073D01*
X24362633Y-435394D01*
X24406866Y-373838D01*
X24406868Y-373835D01*
X24409512Y-370155D01*
X24441165Y-291415D01*
X24445368Y-261886D01*
X24452776Y-209837D01*
X24452776Y-209833D01*
X24453123Y-207397D01*
X24453200Y-200000D01*
X24451164Y-183173D01*
X24443550Y-120250D01*
X24443549Y-120246D01*
X24443005Y-115750D01*
X24413007Y-36364D01*
X24408827Y-30281D01*
X24379314Y12659D01*
X24364939Y33575D01*
X24301576Y90030D01*
X24269033Y107261D01*
X24230584Y127619D01*
X24230583Y127619D01*
X24226576Y129741D01*
X24170178Y143907D01*
X24148668Y149310D01*
X24148667Y149310D01*
X24144268Y150415D01*
X24139735Y150439D01*
X24139733Y150439D01*
X24103564Y150628D01*
X24059404Y150859D01*
X23976884Y131048D01*
X23901472Y92125D01*
X23898058Y89147D01*
X23898054Y89144D01*
X23865709Y60927D01*
X23837521Y36337D01*
X23818136Y8754D01*
X23792026Y-28397D01*
X23788724Y-33095D01*
X23787077Y-37318D01*
X23787077Y-37319D01*
X23759542Y-107940D01*
X23759541Y-107944D01*
X23757896Y-112163D01*
X23746819Y-196301D01*
X21084626Y-196301D01*
X21092096Y-178267D01*
X21094648Y-158888D01*
X21101757Y-104884D01*
X21102400Y-100000D01*
X21098896Y-73386D01*
X21092739Y-26614D01*
X21092738Y-26611D01*
X21092096Y-21733D01*
X21061886Y51200D01*
X21034029Y87504D01*
X21016827Y109922D01*
X21013829Y113829D01*
X20979279Y140340D01*
X20955582Y171222D01*
X20950501Y209815D01*
X20965398Y245779D01*
X20979279Y259660D01*
X21009922Y283173D01*
X21013829Y286171D01*
X21027278Y303699D01*
X23046819Y303699D01*
X23047316Y299197D01*
X23047316Y299194D01*
X23049627Y278267D01*
X23056132Y219346D01*
X23057688Y215094D01*
X23057689Y215090D01*
X23063326Y199687D01*
X23085296Y139651D01*
X23087824Y135889D01*
X23118362Y90444D01*
X23132629Y69212D01*
X23135983Y66161D01*
X23135983Y66160D01*
X23137691Y64606D01*
X23195398Y12097D01*
X23199384Y9933D01*
X23199385Y9932D01*
X23210721Y3777D01*
X23269978Y-28397D01*
X23274357Y-29546D01*
X23274360Y-29547D01*
X23347685Y-48783D01*
X23352065Y-49932D01*
X23387198Y-50484D01*
X23432387Y-51194D01*
X23432389Y-51194D01*
X23436919Y-51265D01*
X23441336Y-50253D01*
X23441339Y-50253D01*
X23515219Y-33332D01*
X23519642Y-32319D01*
X23595458Y5812D01*
X23659989Y60927D01*
X23663195Y65388D01*
X23706866Y126162D01*
X23706868Y126165D01*
X23709512Y129845D01*
X23733725Y190078D01*
X23739473Y204375D01*
X23739474Y204378D01*
X23741165Y208585D01*
X23742338Y216827D01*
X23752776Y290163D01*
X23752776Y290167D01*
X23753123Y292603D01*
X23753200Y300000D01*
X23751164Y316827D01*
X23743550Y379750D01*
X23743549Y379754D01*
X23743005Y384250D01*
X23713007Y463636D01*
X23708827Y469719D01*
X23670455Y525549D01*
X23664939Y533575D01*
X23601576Y590030D01*
X23575747Y603706D01*
X23530584Y627619D01*
X23530583Y627619D01*
X23526576Y629741D01*
X23470178Y643907D01*
X23448668Y649310D01*
X23448667Y649310D01*
X23444268Y650415D01*
X23439735Y650439D01*
X23439733Y650439D01*
X23403564Y650628D01*
X23359404Y650859D01*
X23276884Y631048D01*
X23201472Y592125D01*
X23198058Y589147D01*
X23198054Y589144D01*
X23162734Y558332D01*
X23137521Y536337D01*
X23118136Y508754D01*
X23092026Y471603D01*
X23088724Y466905D01*
X23087077Y462682D01*
X23087077Y462681D01*
X23059542Y392060D01*
X23059541Y392056D01*
X23057896Y387837D01*
X23046819Y303699D01*
X21027278Y303699D01*
X21061886Y348800D01*
X21092096Y421733D01*
X21093025Y428784D01*
X21101757Y495116D01*
X21102400Y500000D01*
X21099165Y524574D01*
X21092739Y573386D01*
X21092738Y573389D01*
X21092096Y578267D01*
X21061886Y651200D01*
X21013829Y713829D01*
X20951200Y761886D01*
X20878267Y792096D01*
X20873389Y792738D01*
X20873386Y792739D01*
X20804884Y801757D01*
X20800000Y802400D01*
X20795116Y801757D01*
X20726614Y792739D01*
X20726611Y792738D01*
X20721733Y792096D01*
X20648800Y761886D01*
X20586171Y713829D01*
X20538114Y651200D01*
X20507904Y578267D01*
X20507262Y573389D01*
X20507261Y573386D01*
X20500835Y524574D01*
X20497600Y500000D01*
X20498243Y495116D01*
X20506976Y428784D01*
X20507904Y421733D01*
X20538114Y348800D01*
X20586171Y286171D01*
X20590078Y283173D01*
X20620721Y259660D01*
X20644418Y228778D01*
X20649499Y190185D01*
X20634602Y154221D01*
X20620722Y140341D01*
X20586171Y113829D01*
X20583173Y109922D01*
X20565971Y87504D01*
X20538114Y51200D01*
X20507904Y-21733D01*
X20507262Y-26611D01*
X20507261Y-26614D01*
X20501104Y-73386D01*
X20497600Y-100000D01*
X20498243Y-104884D01*
X20505353Y-158888D01*
X20507904Y-178267D01*
X20538114Y-251200D01*
X20586171Y-313829D01*
X20590078Y-316827D01*
X20620721Y-340340D01*
X20644418Y-371222D01*
X20649499Y-409815D01*
X20634602Y-445779D01*
X20620722Y-459659D01*
X20586171Y-486171D01*
X20538114Y-548800D01*
X20536230Y-553349D01*
X20519476Y-593796D01*
X20495779Y-624678D01*
X20459816Y-639575D01*
X20421222Y-634494D01*
X20380524Y-593796D01*
X20363770Y-553349D01*
X20361886Y-548800D01*
X20313829Y-486171D01*
X20251200Y-438114D01*
X20178267Y-407904D01*
X20173389Y-407262D01*
X20173386Y-407261D01*
X20104884Y-398243D01*
X20100000Y-397600D01*
X20095116Y-398243D01*
X20026614Y-407261D01*
X20026611Y-407262D01*
X20021733Y-407904D01*
X19948800Y-438114D01*
X19886171Y-486171D01*
X19838114Y-548800D01*
X19807904Y-621733D01*
X19797600Y-700000D01*
X19807904Y-778267D01*
X19809788Y-782815D01*
X19809789Y-782819D01*
X19816563Y-799173D01*
X19821644Y-837766D01*
X19806747Y-873729D01*
X19775864Y-897426D01*
X19737272Y-902507D01*
X19700000Y-897600D01*
X19662728Y-902507D01*
X19624136Y-897426D01*
X19593253Y-873729D01*
X19578356Y-837766D01*
X19583437Y-799173D01*
X19590211Y-782819D01*
X19590212Y-782815D01*
X19592096Y-778267D01*
X19602400Y-700000D01*
X19592096Y-621733D01*
X19561886Y-548800D01*
X19513829Y-486171D01*
X19451200Y-438114D01*
X19378267Y-407904D01*
X19373389Y-407262D01*
X19373386Y-407261D01*
X19304884Y-398243D01*
X19300000Y-397600D01*
X19295116Y-398243D01*
X19226614Y-407261D01*
X19226611Y-407262D01*
X19221733Y-407904D01*
X19148800Y-438114D01*
X19086171Y-486171D01*
X19038114Y-548800D01*
X19036230Y-553349D01*
X19019476Y-593796D01*
X18995779Y-624678D01*
X18959816Y-639575D01*
X18921222Y-634494D01*
X18880524Y-593796D01*
X18863770Y-553349D01*
X18861886Y-548800D01*
X18813829Y-486171D01*
X18779279Y-459660D01*
X18755582Y-428778D01*
X18750501Y-390185D01*
X18765398Y-354221D01*
X18779279Y-340340D01*
X18809922Y-316827D01*
X18813829Y-313829D01*
X18861886Y-251200D01*
X18892096Y-178267D01*
X18894648Y-158888D01*
X18901757Y-104884D01*
X18902400Y-100000D01*
X18898896Y-73386D01*
X18892739Y-26614D01*
X18892738Y-26611D01*
X18892096Y-21733D01*
X18861886Y51200D01*
X18834029Y87504D01*
X18816827Y109922D01*
X18813829Y113829D01*
X18779279Y140340D01*
X18755582Y171222D01*
X18750501Y209815D01*
X18765398Y245779D01*
X18779279Y259660D01*
X18809922Y283173D01*
X18813829Y286171D01*
X18861886Y348800D01*
X18892096Y421733D01*
X18893025Y428784D01*
X18901757Y495116D01*
X18902400Y500000D01*
X18899165Y524574D01*
X18892739Y573386D01*
X18892738Y573389D01*
X18892096Y578267D01*
X18861886Y651200D01*
X18813829Y713829D01*
X18751200Y761886D01*
X18678267Y792096D01*
X18673389Y792738D01*
X18673386Y792739D01*
X18604884Y801757D01*
X18600000Y802400D01*
X18595116Y801757D01*
X18526614Y792739D01*
X18526611Y792738D01*
X18521733Y792096D01*
X18448800Y761886D01*
X18386171Y713829D01*
X18338114Y651200D01*
X18307904Y578267D01*
X18307262Y573389D01*
X18307261Y573386D01*
X18300835Y524574D01*
X18297600Y500000D01*
X15395739Y500000D01*
X15386169Y528435D01*
X15338844Y607196D01*
X15332572Y613829D01*
X15275710Y673958D01*
X15276656Y674853D01*
X15258358Y701377D01*
X15254000Y726604D01*
X15254000Y773621D01*
X15266091Y803699D01*
X23746819Y803699D01*
X23747316Y799197D01*
X23747316Y799194D01*
X23751435Y761886D01*
X23756132Y719346D01*
X23757688Y715094D01*
X23757689Y715090D01*
X23769369Y683173D01*
X23785296Y639651D01*
X23787824Y635889D01*
X23826206Y578771D01*
X23832629Y569212D01*
X23835983Y566161D01*
X23835983Y566160D01*
X23841695Y560963D01*
X23895398Y512097D01*
X23899384Y509933D01*
X23899385Y509932D01*
X23910721Y503777D01*
X23969978Y471603D01*
X23974357Y470454D01*
X23974360Y470453D01*
X24047685Y451217D01*
X24052065Y450068D01*
X24087198Y449516D01*
X24132387Y448806D01*
X24132389Y448806D01*
X24136919Y448735D01*
X24141336Y449747D01*
X24141339Y449747D01*
X24215219Y466668D01*
X24219642Y467681D01*
X24262913Y489444D01*
X24291412Y503777D01*
X24291413Y503777D01*
X24295458Y505812D01*
X24359989Y560927D01*
X24362633Y564606D01*
X24406866Y626162D01*
X24406868Y626165D01*
X24409512Y629845D01*
X24436519Y697027D01*
X24439473Y704375D01*
X24439474Y704378D01*
X24441165Y708585D01*
X24447536Y753349D01*
X24452776Y790163D01*
X24452776Y790167D01*
X24453123Y792603D01*
X24453200Y800000D01*
X24451856Y811110D01*
X24443550Y879750D01*
X24443549Y879754D01*
X24443005Y884250D01*
X24413007Y963636D01*
X24408211Y970615D01*
X24367507Y1029838D01*
X24364939Y1033575D01*
X24301576Y1090030D01*
X24284462Y1099091D01*
X24230584Y1127619D01*
X24230583Y1127619D01*
X24226576Y1129741D01*
X24180744Y1141253D01*
X24148668Y1149310D01*
X24148667Y1149310D01*
X24144268Y1150415D01*
X24139735Y1150439D01*
X24139733Y1150439D01*
X24103564Y1150628D01*
X24059404Y1150859D01*
X23976884Y1131048D01*
X23901472Y1092125D01*
X23898058Y1089147D01*
X23898054Y1089144D01*
X23864415Y1059798D01*
X23837521Y1036337D01*
X23816263Y1006089D01*
X23799906Y982815D01*
X23788724Y966905D01*
X23787077Y962682D01*
X23787077Y962681D01*
X23759542Y892060D01*
X23759541Y892056D01*
X23757896Y887837D01*
X23746819Y803699D01*
X15266091Y803699D01*
X15274924Y825670D01*
X15334221Y887504D01*
X15334223Y887506D01*
X15337040Y890444D01*
X15384913Y968873D01*
X15414829Y1055753D01*
X15418446Y1087016D01*
X15425149Y1144945D01*
X15425149Y1144949D01*
X15425390Y1147030D01*
X15425400Y1150000D01*
X15415476Y1241348D01*
X15410608Y1255815D01*
X15387468Y1324574D01*
X15386169Y1328435D01*
X15338844Y1407196D01*
X15332572Y1413829D01*
X15275710Y1473958D01*
X15276656Y1474853D01*
X15258358Y1501377D01*
X15254000Y1526604D01*
X15254000Y1563706D01*
X15261326Y1596080D01*
X15319060Y1717122D01*
X15319548Y1718127D01*
X15322949Y1724993D01*
X15324749Y1728626D01*
X15337955Y1770508D01*
X15374119Y1885206D01*
X15374462Y1886267D01*
X15377233Y1894620D01*
X15377235Y1894630D01*
X15378147Y1897378D01*
X15405250Y2059339D01*
X15405442Y2060434D01*
X15407016Y2069056D01*
X15407539Y2071920D01*
X15411837Y2236053D01*
X15411872Y2237127D01*
X15411941Y2238789D01*
X15412354Y2248854D01*
X15400479Y2353078D01*
X15393762Y2412038D01*
X15393644Y2413149D01*
X15392784Y2421846D01*
X15392784Y2421848D01*
X15392498Y2424736D01*
X15373034Y2500000D01*
X26197600Y2500000D01*
X26198243Y2495116D01*
X26207139Y2427546D01*
X26207904Y2421733D01*
X26238114Y2348800D01*
X26286171Y2286171D01*
X26348800Y2238114D01*
X26421733Y2207904D01*
X26426611Y2207262D01*
X26426614Y2207261D01*
X26495116Y2198243D01*
X26500000Y2197600D01*
X26504884Y2198243D01*
X26573386Y2207261D01*
X26573389Y2207262D01*
X26578267Y2207904D01*
X26651200Y2238114D01*
X26713829Y2286171D01*
X26761886Y2348800D01*
X26792096Y2421733D01*
X26792862Y2427546D01*
X26801757Y2495116D01*
X26802400Y2500000D01*
X26798896Y2526614D01*
X26792739Y2573386D01*
X26792738Y2573389D01*
X26792096Y2578267D01*
X26761886Y2651200D01*
X26713829Y2713829D01*
X26651200Y2761886D01*
X26578267Y2792096D01*
X26573389Y2792738D01*
X26573386Y2792739D01*
X26504884Y2801757D01*
X26500000Y2802400D01*
X26495116Y2801757D01*
X26426614Y2792739D01*
X26426611Y2792738D01*
X26421733Y2792096D01*
X26348800Y2761886D01*
X26286171Y2713829D01*
X26238114Y2651200D01*
X26207904Y2578267D01*
X26207262Y2573389D01*
X26207261Y2573386D01*
X26201104Y2526614D01*
X26197600Y2500000D01*
X15373034Y2500000D01*
X15361033Y2546403D01*
X15351390Y2583689D01*
X15351119Y2584770D01*
X15349043Y2593318D01*
X15349042Y2593320D01*
X15348357Y2596142D01*
X15347199Y2598939D01*
X15316362Y2673386D01*
X15285507Y2747876D01*
X15285107Y2748864D01*
X15283529Y2752841D01*
X15280791Y2759738D01*
X15260405Y2794345D01*
X15250000Y2832511D01*
X15250000Y3250000D01*
X14868847Y3250000D01*
X14825175Y3263981D01*
X14819094Y3268319D01*
X14818195Y3268970D01*
X14811158Y3274148D01*
X14808813Y3275874D01*
X14806231Y3277218D01*
X14806228Y3277220D01*
X14709581Y3327531D01*
X14663205Y3351673D01*
X14662238Y3352185D01*
X14654462Y3356381D01*
X14654448Y3356387D01*
X14651898Y3357763D01*
X14525077Y3402673D01*
X14497073Y3412590D01*
X14496025Y3412971D01*
X14487846Y3416005D01*
X14487839Y3416007D01*
X14485111Y3417019D01*
X14359223Y3442631D01*
X14324223Y3449752D01*
X14323134Y3449982D01*
X14314549Y3451861D01*
X14314547Y3451861D01*
X14311703Y3452484D01*
X14147873Y3462506D01*
X14146770Y3462582D01*
X14137947Y3463253D01*
X14137935Y3463253D01*
X14135042Y3463473D01*
X14132145Y3463245D01*
X14123188Y3462540D01*
X13971296Y3450585D01*
X13970342Y3450517D01*
X13958576Y3449766D01*
X13955740Y3449137D01*
X13955738Y3449137D01*
X13798333Y3414241D01*
X13797244Y3414008D01*
X13788589Y3412223D01*
X13788584Y3412222D01*
X13785734Y3411634D01*
X13783012Y3410616D01*
X13783011Y3410616D01*
X13631930Y3354130D01*
X13630905Y3353755D01*
X13619879Y3349818D01*
X13578832Y3327531D01*
X13552277Y3313113D01*
X13516395Y3304000D01*
X5274252Y3304000D01*
X5236652Y3314075D01*
X5219614Y3327531D01*
X5207701Y3340129D01*
X5175710Y3373958D01*
X5145375Y3394574D01*
X5103082Y3423317D01*
X5103078Y3423319D01*
X5099713Y3425606D01*
X5014398Y3459729D01*
X5010386Y3460393D01*
X5010383Y3460394D01*
X4951507Y3470141D01*
X4923746Y3474737D01*
X4919679Y3474524D01*
X4919676Y3474524D01*
X4873933Y3472126D01*
X4831987Y3469928D01*
X4828060Y3468846D01*
X4828058Y3468846D01*
X4805165Y3462540D01*
X4743400Y3445527D01*
X4739797Y3443627D01*
X4739796Y3443627D01*
X4727411Y3437097D01*
X4662119Y3402673D01*
X4591937Y3343364D01*
X4589466Y3340133D01*
X4589463Y3340129D01*
X4584416Y3333527D01*
X4553576Y3309775D01*
X4524675Y3304000D01*
X4474252Y3304000D01*
X4436652Y3314075D01*
X4419614Y3327531D01*
X4407701Y3340129D01*
X4375710Y3373958D01*
X4345375Y3394574D01*
X4303082Y3423317D01*
X4303078Y3423319D01*
X4299713Y3425606D01*
X4214398Y3459729D01*
X4210386Y3460393D01*
X4210383Y3460394D01*
X4151507Y3470141D01*
X4123746Y3474737D01*
X4119679Y3474524D01*
X4119676Y3474524D01*
X4073933Y3472126D01*
X4031987Y3469928D01*
X4028060Y3468846D01*
X4028058Y3468846D01*
X4005165Y3462540D01*
X3943400Y3445527D01*
X3939797Y3443627D01*
X3939796Y3443627D01*
X3927411Y3437097D01*
X3862119Y3402673D01*
X3791937Y3343364D01*
X3789466Y3340133D01*
X3789463Y3340129D01*
X3784416Y3333527D01*
X3753576Y3309775D01*
X3724675Y3304000D01*
X1974252Y3304000D01*
X1936652Y3314075D01*
X1919614Y3327531D01*
X1907701Y3340129D01*
X1875710Y3373958D01*
X1845375Y3394574D01*
X1803082Y3423317D01*
X1803078Y3423319D01*
X1799713Y3425606D01*
X1714398Y3459729D01*
X1710386Y3460393D01*
X1710383Y3460394D01*
X1651507Y3470141D01*
X1623746Y3474737D01*
X1619679Y3474524D01*
X1619676Y3474524D01*
X1573933Y3472126D01*
X1531987Y3469928D01*
X1528060Y3468846D01*
X1528058Y3468846D01*
X1505165Y3462540D01*
X1443400Y3445527D01*
X1439797Y3443627D01*
X1439796Y3443627D01*
X1427411Y3437097D01*
X1362119Y3402673D01*
X1291937Y3343364D01*
X1289466Y3340133D01*
X1289463Y3340129D01*
X1284416Y3333527D01*
X1253576Y3309775D01*
X1224675Y3304000D01*
X329200Y3304000D01*
X291600Y3314075D01*
X264075Y3341600D01*
X254000Y3379200D01*
X254000Y3500000D01*
X43597600Y3500000D01*
X43598243Y3495116D01*
X43605153Y3442631D01*
X43607904Y3421733D01*
X43638114Y3348800D01*
X43686171Y3286171D01*
X43690078Y3283173D01*
X43697836Y3277220D01*
X43748800Y3238114D01*
X43821733Y3207904D01*
X43826611Y3207262D01*
X43826614Y3207261D01*
X43895116Y3198243D01*
X43900000Y3197600D01*
X43904884Y3198243D01*
X43973386Y3207261D01*
X43973389Y3207262D01*
X43978267Y3207904D01*
X44051200Y3238114D01*
X44102164Y3277220D01*
X44109922Y3283173D01*
X44113829Y3286171D01*
X44161886Y3348800D01*
X44192096Y3421733D01*
X44194848Y3442631D01*
X44201757Y3495116D01*
X44202400Y3500000D01*
X44201109Y3509809D01*
X44192739Y3573386D01*
X44192738Y3573389D01*
X44192096Y3578267D01*
X44161886Y3651200D01*
X44113829Y3713829D01*
X44051200Y3761886D01*
X43978267Y3792096D01*
X43973389Y3792738D01*
X43973386Y3792739D01*
X43904884Y3801757D01*
X43900000Y3802400D01*
X43895116Y3801757D01*
X43826614Y3792739D01*
X43826611Y3792738D01*
X43821733Y3792096D01*
X43748800Y3761886D01*
X43686171Y3713829D01*
X43638114Y3651200D01*
X43607904Y3578267D01*
X43607262Y3573389D01*
X43607261Y3573386D01*
X43598891Y3509809D01*
X43597600Y3500000D01*
X254000Y3500000D01*
X254000Y4100000D01*
X6247600Y4100000D01*
X6248243Y4095116D01*
X6257230Y4026856D01*
X6257904Y4021733D01*
X6288114Y3948800D01*
X6336171Y3886171D01*
X6398800Y3838114D01*
X6471733Y3807904D01*
X6476611Y3807262D01*
X6476614Y3807261D01*
X6545116Y3798243D01*
X6550000Y3797600D01*
X6554884Y3798243D01*
X6623386Y3807261D01*
X6623389Y3807262D01*
X6628267Y3807904D01*
X6701200Y3838114D01*
X6763829Y3886171D01*
X6811886Y3948800D01*
X6842096Y4021733D01*
X6842771Y4026856D01*
X6851757Y4095116D01*
X6852400Y4100000D01*
X30997600Y4100000D01*
X30998243Y4095116D01*
X31007230Y4026856D01*
X31007904Y4021733D01*
X31038114Y3948800D01*
X31086171Y3886171D01*
X31148800Y3838114D01*
X31221733Y3807904D01*
X31226611Y3807262D01*
X31226614Y3807261D01*
X31295116Y3798243D01*
X31300000Y3797600D01*
X31304884Y3798243D01*
X31373386Y3807261D01*
X31373389Y3807262D01*
X31378267Y3807904D01*
X31451200Y3838114D01*
X31513829Y3886171D01*
X31561886Y3948800D01*
X31592096Y4021733D01*
X31592771Y4026856D01*
X31601757Y4095116D01*
X31602400Y4100000D01*
X31601497Y4106857D01*
X31592739Y4173386D01*
X31592738Y4173389D01*
X31592096Y4178267D01*
X31561886Y4251200D01*
X31555551Y4259457D01*
X33726796Y4259457D01*
X33746132Y4174689D01*
X33748059Y4170765D01*
X33748059Y4170764D01*
X33780405Y4104884D01*
X33784451Y4096643D01*
X33787224Y4093273D01*
X33787226Y4093270D01*
X33813580Y4061244D01*
X33839697Y4029505D01*
X33843178Y4026858D01*
X33843180Y4026856D01*
X33877604Y4000680D01*
X33908906Y3976877D01*
X33988365Y3941583D01*
X34031089Y3933548D01*
X34069521Y3926321D01*
X34069522Y3926321D01*
X34073813Y3925514D01*
X34093240Y3926413D01*
X34156307Y3929332D01*
X34156309Y3929332D01*
X34160666Y3929534D01*
X34164860Y3930733D01*
X34164862Y3930733D01*
X34200000Y3940776D01*
X34244264Y3953427D01*
X34290861Y3979522D01*
X34316309Y3993773D01*
X34316312Y3993775D01*
X34320124Y3995910D01*
X34384176Y4054706D01*
X34432984Y4126660D01*
X34449782Y4170764D01*
X34462375Y4203828D01*
X34462376Y4203832D01*
X34463930Y4207912D01*
X34470761Y4259457D01*
X40726796Y4259457D01*
X40746132Y4174689D01*
X40748059Y4170765D01*
X40748059Y4170764D01*
X40780405Y4104884D01*
X40784451Y4096643D01*
X40787224Y4093273D01*
X40787226Y4093270D01*
X40813580Y4061244D01*
X40839697Y4029505D01*
X40843178Y4026858D01*
X40843180Y4026856D01*
X40877604Y4000680D01*
X40908906Y3976877D01*
X40988365Y3941583D01*
X41031089Y3933548D01*
X41069521Y3926321D01*
X41069522Y3926321D01*
X41073813Y3925514D01*
X41093240Y3926413D01*
X41156307Y3929332D01*
X41156309Y3929332D01*
X41160666Y3929534D01*
X41164860Y3930733D01*
X41164862Y3930733D01*
X41200000Y3940776D01*
X41244264Y3953427D01*
X41290861Y3979522D01*
X41316309Y3993773D01*
X41316312Y3993775D01*
X41320124Y3995910D01*
X41384176Y4054706D01*
X41432984Y4126660D01*
X41449782Y4170764D01*
X41462375Y4203828D01*
X41462376Y4203832D01*
X41463930Y4207912D01*
X41470761Y4259457D01*
X44126796Y4259457D01*
X44146132Y4174689D01*
X44148059Y4170765D01*
X44148059Y4170764D01*
X44180405Y4104884D01*
X44184451Y4096643D01*
X44187224Y4093273D01*
X44187226Y4093270D01*
X44213580Y4061244D01*
X44239697Y4029505D01*
X44243178Y4026858D01*
X44243180Y4026856D01*
X44277604Y4000680D01*
X44308906Y3976877D01*
X44388365Y3941583D01*
X44431089Y3933548D01*
X44469521Y3926321D01*
X44469522Y3926321D01*
X44473813Y3925514D01*
X44493240Y3926413D01*
X44556307Y3929332D01*
X44556309Y3929332D01*
X44560666Y3929534D01*
X44564860Y3930733D01*
X44564862Y3930733D01*
X44600000Y3940776D01*
X44644264Y3953427D01*
X44690861Y3979522D01*
X44716309Y3993773D01*
X44716312Y3993775D01*
X44720124Y3995910D01*
X44784176Y4054706D01*
X44832984Y4126660D01*
X44849782Y4170764D01*
X44862375Y4203828D01*
X44862376Y4203832D01*
X44863930Y4207912D01*
X44875354Y4294103D01*
X44875400Y4300000D01*
X44872714Y4323042D01*
X44865837Y4382021D01*
X44865331Y4386361D01*
X44863250Y4392096D01*
X44839727Y4456901D01*
X44835666Y4468089D01*
X44787994Y4540800D01*
X44777604Y4550643D01*
X44728041Y4597594D01*
X44724873Y4600595D01*
X44680990Y4626084D01*
X44653466Y4642071D01*
X44653464Y4642072D01*
X44649690Y4644264D01*
X44645511Y4645530D01*
X44645508Y4645531D01*
X44581967Y4664776D01*
X44566478Y4669467D01*
X44520539Y4672317D01*
X44484058Y4674581D01*
X44484054Y4674581D01*
X44479699Y4674851D01*
X44394009Y4660126D01*
X44389993Y4658417D01*
X44389989Y4658416D01*
X44334364Y4634747D01*
X44314005Y4626084D01*
X44275291Y4597594D01*
X44249029Y4578267D01*
X44243978Y4574550D01*
X44241153Y4571224D01*
X44241149Y4571221D01*
X44190513Y4511619D01*
X44187684Y4508289D01*
X44185697Y4504397D01*
X44185696Y4504396D01*
X44180440Y4494103D01*
X44148144Y4430854D01*
X44127479Y4346400D01*
X44127445Y4342034D01*
X44127037Y4290078D01*
X44126796Y4259457D01*
X41470761Y4259457D01*
X41475354Y4294103D01*
X41475400Y4300000D01*
X41472714Y4323042D01*
X41465837Y4382021D01*
X41465331Y4386361D01*
X41463250Y4392096D01*
X41439727Y4456901D01*
X41435666Y4468089D01*
X41387994Y4540800D01*
X41377604Y4550643D01*
X41328041Y4597594D01*
X41324873Y4600595D01*
X41280990Y4626084D01*
X41253466Y4642071D01*
X41253464Y4642072D01*
X41249690Y4644264D01*
X41245511Y4645530D01*
X41245508Y4645531D01*
X41181967Y4664776D01*
X41166478Y4669467D01*
X41120539Y4672317D01*
X41084058Y4674581D01*
X41084054Y4674581D01*
X41079699Y4674851D01*
X40994009Y4660126D01*
X40989993Y4658417D01*
X40989989Y4658416D01*
X40934364Y4634747D01*
X40914005Y4626084D01*
X40875291Y4597594D01*
X40849029Y4578267D01*
X40843978Y4574550D01*
X40841153Y4571224D01*
X40841149Y4571221D01*
X40790513Y4511619D01*
X40787684Y4508289D01*
X40785697Y4504397D01*
X40785696Y4504396D01*
X40780440Y4494103D01*
X40748144Y4430854D01*
X40727479Y4346400D01*
X40727445Y4342034D01*
X40727037Y4290078D01*
X40726796Y4259457D01*
X34470761Y4259457D01*
X34475354Y4294103D01*
X34475400Y4300000D01*
X34472714Y4323042D01*
X34465837Y4382021D01*
X34465331Y4386361D01*
X34463250Y4392096D01*
X34439727Y4456901D01*
X34435666Y4468089D01*
X34387994Y4540800D01*
X34377604Y4550643D01*
X34328041Y4597594D01*
X34324873Y4600595D01*
X34280990Y4626084D01*
X34253466Y4642071D01*
X34253464Y4642072D01*
X34249690Y4644264D01*
X34245511Y4645530D01*
X34245508Y4645531D01*
X34181967Y4664776D01*
X34166478Y4669467D01*
X34120539Y4672317D01*
X34084058Y4674581D01*
X34084054Y4674581D01*
X34079699Y4674851D01*
X33994009Y4660126D01*
X33989993Y4658417D01*
X33989989Y4658416D01*
X33934364Y4634747D01*
X33914005Y4626084D01*
X33875291Y4597594D01*
X33849029Y4578267D01*
X33843978Y4574550D01*
X33841153Y4571224D01*
X33841149Y4571221D01*
X33790513Y4511619D01*
X33787684Y4508289D01*
X33785697Y4504397D01*
X33785696Y4504396D01*
X33780440Y4494103D01*
X33748144Y4430854D01*
X33727479Y4346400D01*
X33727445Y4342034D01*
X33727037Y4290078D01*
X33726796Y4259457D01*
X31555551Y4259457D01*
X31523030Y4301838D01*
X31516827Y4309922D01*
X31513829Y4313829D01*
X31451200Y4361886D01*
X31378267Y4392096D01*
X31373389Y4392738D01*
X31373386Y4392739D01*
X31304884Y4401757D01*
X31300000Y4402400D01*
X31295116Y4401757D01*
X31226614Y4392739D01*
X31226611Y4392738D01*
X31221733Y4392096D01*
X31148800Y4361886D01*
X31086171Y4313829D01*
X31083173Y4309922D01*
X31076970Y4301838D01*
X31038114Y4251200D01*
X31007904Y4178267D01*
X31007262Y4173389D01*
X31007261Y4173386D01*
X30998503Y4106857D01*
X30997600Y4100000D01*
X6852400Y4100000D01*
X6851497Y4106857D01*
X6842739Y4173386D01*
X6842738Y4173389D01*
X6842096Y4178267D01*
X6811886Y4251200D01*
X6773030Y4301838D01*
X6766827Y4309922D01*
X6763829Y4313829D01*
X6701200Y4361886D01*
X6628267Y4392096D01*
X6623389Y4392738D01*
X6623386Y4392739D01*
X6554884Y4401757D01*
X6550000Y4402400D01*
X6545116Y4401757D01*
X6476614Y4392739D01*
X6476611Y4392738D01*
X6471733Y4392096D01*
X6398800Y4361886D01*
X6336171Y4313829D01*
X6333173Y4309922D01*
X6326970Y4301838D01*
X6288114Y4251200D01*
X6257904Y4178267D01*
X6257262Y4173389D01*
X6257261Y4173386D01*
X6248503Y4106857D01*
X6247600Y4100000D01*
X254000Y4100000D01*
X254000Y5170800D01*
X264075Y5208400D01*
X291600Y5235925D01*
X329200Y5246000D01*
X74670800Y5246000D01*
X74708400Y5235925D01*
G37*
G04 #@! TD.AperFunction*
G04 #@! TD*
G04 #@! TA.AperFunction,Conductor*
G04 #@! TO.N,IN*
G36*
X65762400Y-3810075D02*
G01*
X65789925Y-3837600D01*
X65800000Y-3875200D01*
X65800000Y-5170800D01*
X65789925Y-5208400D01*
X65762400Y-5235925D01*
X65724800Y-5246000D01*
X23648145Y-5246000D01*
X23641508Y-5245707D01*
X23584278Y-5240636D01*
X23571381Y-5238348D01*
X23466331Y-5210090D01*
X23454029Y-5205599D01*
X23355484Y-5159546D01*
X23344151Y-5152992D01*
X23255075Y-5090525D01*
X23245056Y-5082106D01*
X23168181Y-5005141D01*
X23159767Y-4995103D01*
X23097415Y-4905969D01*
X23090870Y-4894623D01*
X23044928Y-4796016D01*
X23040452Y-4783707D01*
X23033741Y-4758643D01*
X23012318Y-4678627D01*
X23010046Y-4665733D01*
X23000286Y-4554088D01*
X23000000Y-4547539D01*
X23000000Y-4503285D01*
X23000286Y-4496731D01*
X23010061Y-4385001D01*
X23012336Y-4372098D01*
X23040513Y-4266938D01*
X23044997Y-4254620D01*
X23091001Y-4155963D01*
X23097555Y-4144611D01*
X23159997Y-4055436D01*
X23168423Y-4045395D01*
X23245395Y-3968423D01*
X23255436Y-3959997D01*
X23264057Y-3953960D01*
X23344615Y-3897553D01*
X23355959Y-3891003D01*
X23454620Y-3844997D01*
X23466938Y-3840513D01*
X23572098Y-3812336D01*
X23584995Y-3810062D01*
X23696731Y-3800286D01*
X23703285Y-3800000D01*
X65724800Y-3800000D01*
X65762400Y-3810075D01*
G37*
G04 #@! TD.AperFunction*
G04 #@! TD*
G04 #@! TA.AperFunction,Conductor*
G04 #@! TO.N,IN*
G36*
X67405486Y-1600480D02*
G01*
X67510568Y-1609674D01*
X67532197Y-1613487D01*
X67628766Y-1639362D01*
X67649405Y-1646874D01*
X67740010Y-1689124D01*
X67759031Y-1700106D01*
X67840925Y-1757449D01*
X67857749Y-1771567D01*
X67928433Y-1842251D01*
X67942551Y-1859075D01*
X67999894Y-1940969D01*
X68010876Y-1959990D01*
X68053126Y-2050595D01*
X68060638Y-2071234D01*
X68086513Y-2167803D01*
X68090326Y-2189432D01*
X68099520Y-2294514D01*
X68100000Y-2305496D01*
X68100000Y-2705095D01*
X68099612Y-2714981D01*
X68092160Y-2809670D01*
X68089067Y-2829198D01*
X68068055Y-2916721D01*
X68061947Y-2935520D01*
X68027496Y-3018693D01*
X68018529Y-3036291D01*
X67971493Y-3113046D01*
X67959872Y-3129040D01*
X67898188Y-3201263D01*
X67891472Y-3208528D01*
X66008528Y-5091472D01*
X66001263Y-5098188D01*
X65929040Y-5159872D01*
X65913049Y-5171491D01*
X65836291Y-5218529D01*
X65818693Y-5227496D01*
X65797171Y-5236410D01*
X65748956Y-5246000D01*
X64526000Y-5246000D01*
X64477782Y-5236409D01*
X64436905Y-5209095D01*
X64409591Y-5168218D01*
X64400000Y-5120000D01*
X64400000Y-3952190D01*
X64409591Y-3903972D01*
X64436905Y-3863095D01*
X65200000Y-3100000D01*
X65200000Y-2506187D01*
X65200607Y-2493837D01*
X65208391Y-2414804D01*
X65213208Y-2390584D01*
X65234459Y-2320528D01*
X65243909Y-2297716D01*
X65278414Y-2233161D01*
X65292137Y-2212623D01*
X65320186Y-2178446D01*
X65338577Y-2156038D01*
X65356038Y-2138577D01*
X65395936Y-2105832D01*
X65412623Y-2092137D01*
X65433161Y-2078414D01*
X65497716Y-2043909D01*
X65520528Y-2034459D01*
X65590584Y-2013208D01*
X65614804Y-2008391D01*
X65693837Y-2000607D01*
X65706187Y-2000000D01*
X66200000Y-2000000D01*
X66504105Y-1756716D01*
X66512674Y-1750434D01*
X66597390Y-1693664D01*
X66615952Y-1683377D01*
X66669455Y-1659373D01*
X66704124Y-1643820D01*
X66724158Y-1636793D01*
X66817714Y-1612603D01*
X66838640Y-1609039D01*
X66940248Y-1600448D01*
X66950863Y-1600000D01*
X67394504Y-1600000D01*
X67405486Y-1600480D01*
G37*
G04 #@! TD.AperFunction*
G04 #@! TD*
M02*
