G04 #@! TF.GenerationSoftware,KiCad,Pcbnew,(5.99.0-3477-gacf13a186)*
G04 #@! TF.CreationDate,2020-09-30T00:07:38-07:00*
G04 #@! TF.ProjectId,RT_USB_PD_Soldering_Iron,52545f55-5342-45f5-9044-5f536f6c6465,rev?*
G04 #@! TF.SameCoordinates,PX5f5e100PY7735940*
G04 #@! TF.FileFunction,Legend,Bot*
G04 #@! TF.FilePolarity,Positive*
%FSLAX46Y46*%
G04 Gerber Fmt 4.6, Leading zero omitted, Abs format (unit mm)*
G04 Created by KiCad (PCBNEW (5.99.0-3477-gacf13a186)) date 2020-09-30 00:07:38*
%MOMM*%
%LPD*%
G01*
G04 APERTURE LIST*
%ADD10C,0.150000*%
%ADD11C,0.120000*%
G04 APERTURE END LIST*
D10*
G04 #@! TO.C,C16*
X22985714Y1814286D02*
X23023809Y1852381D01*
X23061904Y1966667D01*
X23061904Y2042858D01*
X23023809Y2157143D01*
X22947619Y2233334D01*
X22871428Y2271429D01*
X22719047Y2309524D01*
X22604761Y2309524D01*
X22452380Y2271429D01*
X22376190Y2233334D01*
X22300000Y2157143D01*
X22261904Y2042858D01*
X22261904Y1966667D01*
X22300000Y1852381D01*
X22338095Y1814286D01*
X23061904Y1052381D02*
X23061904Y1509524D01*
X23061904Y1280953D02*
X22261904Y1280953D01*
X22376190Y1357143D01*
X22452380Y1433334D01*
X22490476Y1509524D01*
X22261904Y366667D02*
X22261904Y519048D01*
X22300000Y595239D01*
X22338095Y633334D01*
X22452380Y709524D01*
X22604761Y747620D01*
X22909523Y747620D01*
X22985714Y709524D01*
X23023809Y671429D01*
X23061904Y595239D01*
X23061904Y442858D01*
X23023809Y366667D01*
X22985714Y328572D01*
X22909523Y290477D01*
X22719047Y290477D01*
X22642857Y328572D01*
X22604761Y366667D01*
X22566666Y442858D01*
X22566666Y595239D01*
X22604761Y671429D01*
X22642857Y709524D01*
X22719047Y747620D01*
G04 #@! TO.C,C1*
X89485714Y2733334D02*
X89523809Y2771429D01*
X89561904Y2885715D01*
X89561904Y2961905D01*
X89523809Y3076191D01*
X89447619Y3152381D01*
X89371428Y3190477D01*
X89219047Y3228572D01*
X89104761Y3228572D01*
X88952380Y3190477D01*
X88876190Y3152381D01*
X88800000Y3076191D01*
X88761904Y2961905D01*
X88761904Y2885715D01*
X88800000Y2771429D01*
X88838095Y2733334D01*
X89561904Y1971429D02*
X89561904Y2428572D01*
X89561904Y2200000D02*
X88761904Y2200000D01*
X88876190Y2276191D01*
X88952380Y2352381D01*
X88990476Y2428572D01*
G04 #@! TO.C,J3*
X63966666Y3438096D02*
X63966666Y2866667D01*
X64004761Y2752381D01*
X64080952Y2676191D01*
X64195238Y2638096D01*
X64271428Y2638096D01*
X63661904Y3438096D02*
X63166666Y3438096D01*
X63433333Y3133334D01*
X63319047Y3133334D01*
X63242857Y3095239D01*
X63204761Y3057143D01*
X63166666Y2980953D01*
X63166666Y2790477D01*
X63204761Y2714286D01*
X63242857Y2676191D01*
X63319047Y2638096D01*
X63547619Y2638096D01*
X63623809Y2676191D01*
X63661904Y2714286D01*
G04 #@! TO.C,R6*
X72638443Y-192975D02*
X72905110Y187977D01*
X73095586Y-192975D02*
X73095586Y607025D01*
X72790824Y607025D01*
X72714633Y568929D01*
X72676538Y530834D01*
X72638443Y454644D01*
X72638443Y340358D01*
X72676538Y264168D01*
X72714633Y226072D01*
X72790824Y187977D01*
X73095586Y187977D01*
X71952729Y607025D02*
X72105110Y607025D01*
X72181300Y568929D01*
X72219395Y530834D01*
X72295586Y416549D01*
X72333681Y264168D01*
X72333681Y-40594D01*
X72295586Y-116785D01*
X72257490Y-154880D01*
X72181300Y-192975D01*
X72028919Y-192975D01*
X71952729Y-154880D01*
X71914633Y-116785D01*
X71876538Y-40594D01*
X71876538Y149882D01*
X71914633Y226072D01*
X71952729Y264168D01*
X72028919Y302263D01*
X72181300Y302263D01*
X72257490Y264168D01*
X72295586Y226072D01*
X72333681Y149882D01*
G04 #@! TO.C,C8*
X76732644Y2136877D02*
X76770739Y2098782D01*
X76885025Y2060687D01*
X76961215Y2060687D01*
X77075501Y2098782D01*
X77151691Y2174972D01*
X77189787Y2251163D01*
X77227882Y2403544D01*
X77227882Y2517830D01*
X77189787Y2670211D01*
X77151691Y2746401D01*
X77075501Y2822591D01*
X76961215Y2860687D01*
X76885025Y2860687D01*
X76770739Y2822591D01*
X76732644Y2784496D01*
X76275501Y2517830D02*
X76351691Y2555925D01*
X76389787Y2594020D01*
X76427882Y2670211D01*
X76427882Y2708306D01*
X76389787Y2784496D01*
X76351691Y2822591D01*
X76275501Y2860687D01*
X76123120Y2860687D01*
X76046930Y2822591D01*
X76008834Y2784496D01*
X75970739Y2708306D01*
X75970739Y2670211D01*
X76008834Y2594020D01*
X76046930Y2555925D01*
X76123120Y2517830D01*
X76275501Y2517830D01*
X76351691Y2479734D01*
X76389787Y2441639D01*
X76427882Y2365449D01*
X76427882Y2213068D01*
X76389787Y2136877D01*
X76351691Y2098782D01*
X76275501Y2060687D01*
X76123120Y2060687D01*
X76046930Y2098782D01*
X76008834Y2136877D01*
X75970739Y2213068D01*
X75970739Y2365449D01*
X76008834Y2441639D01*
X76046930Y2479734D01*
X76123120Y2517830D01*
G04 #@! TO.C,R4*
X45831904Y333334D02*
X45450952Y600000D01*
X45831904Y790477D02*
X45031904Y790477D01*
X45031904Y485715D01*
X45070000Y409524D01*
X45108095Y371429D01*
X45184285Y333334D01*
X45298571Y333334D01*
X45374761Y371429D01*
X45412857Y409524D01*
X45450952Y485715D01*
X45450952Y790477D01*
X45298571Y-352380D02*
X45831904Y-352380D01*
X44993809Y-161904D02*
X45565238Y28572D01*
X45565238Y-466666D01*
G04 #@! TO.C,U1*
X87809523Y-3761904D02*
X87809523Y-4409523D01*
X87771428Y-4485714D01*
X87733333Y-4523809D01*
X87657142Y-4561904D01*
X87504761Y-4561904D01*
X87428571Y-4523809D01*
X87390476Y-4485714D01*
X87352380Y-4409523D01*
X87352380Y-3761904D01*
X86552380Y-4561904D02*
X87009523Y-4561904D01*
X86780952Y-4561904D02*
X86780952Y-3761904D01*
X86857142Y-3876190D01*
X86933333Y-3952380D01*
X87009523Y-3990476D01*
G04 #@! TO.C,R1*
X90838095Y-3533333D02*
X91219047Y-3800000D01*
X90838095Y-3990476D02*
X91638095Y-3990476D01*
X91638095Y-3685714D01*
X91600000Y-3609523D01*
X91561904Y-3571428D01*
X91485714Y-3533333D01*
X91371428Y-3533333D01*
X91295238Y-3571428D01*
X91257142Y-3609523D01*
X91219047Y-3685714D01*
X91219047Y-3990476D01*
X90838095Y-2771428D02*
X90838095Y-3228571D01*
X90838095Y-3000000D02*
X91638095Y-3000000D01*
X91523809Y-3076190D01*
X91447619Y-3152380D01*
X91409523Y-3228571D01*
G04 #@! TO.C,R18*
X33361904Y314286D02*
X32980952Y580953D01*
X33361904Y771429D02*
X32561904Y771429D01*
X32561904Y466667D01*
X32600000Y390477D01*
X32638095Y352381D01*
X32714285Y314286D01*
X32828571Y314286D01*
X32904761Y352381D01*
X32942857Y390477D01*
X32980952Y466667D01*
X32980952Y771429D01*
X33361904Y-447619D02*
X33361904Y9524D01*
X33361904Y-219047D02*
X32561904Y-219047D01*
X32676190Y-142857D01*
X32752380Y-66666D01*
X32790476Y9524D01*
X32904761Y-904761D02*
X32866666Y-828571D01*
X32828571Y-790476D01*
X32752380Y-752380D01*
X32714285Y-752380D01*
X32638095Y-790476D01*
X32600000Y-828571D01*
X32561904Y-904761D01*
X32561904Y-1057142D01*
X32600000Y-1133333D01*
X32638095Y-1171428D01*
X32714285Y-1209523D01*
X32752380Y-1209523D01*
X32828571Y-1171428D01*
X32866666Y-1133333D01*
X32904761Y-1057142D01*
X32904761Y-904761D01*
X32942857Y-828571D01*
X32980952Y-790476D01*
X33057142Y-752380D01*
X33209523Y-752380D01*
X33285714Y-790476D01*
X33323809Y-828571D01*
X33361904Y-904761D01*
X33361904Y-1057142D01*
X33323809Y-1133333D01*
X33285714Y-1171428D01*
X33209523Y-1209523D01*
X33057142Y-1209523D01*
X32980952Y-1171428D01*
X32942857Y-1133333D01*
X32904761Y-1057142D01*
G04 #@! TO.C,C18*
X70285714Y2414286D02*
X70323809Y2452381D01*
X70361904Y2566667D01*
X70361904Y2642858D01*
X70323809Y2757143D01*
X70247619Y2833334D01*
X70171428Y2871429D01*
X70019047Y2909524D01*
X69904761Y2909524D01*
X69752380Y2871429D01*
X69676190Y2833334D01*
X69600000Y2757143D01*
X69561904Y2642858D01*
X69561904Y2566667D01*
X69600000Y2452381D01*
X69638095Y2414286D01*
X70361904Y1652381D02*
X70361904Y2109524D01*
X70361904Y1880953D02*
X69561904Y1880953D01*
X69676190Y1957143D01*
X69752380Y2033334D01*
X69790476Y2109524D01*
X69904761Y1195239D02*
X69866666Y1271429D01*
X69828571Y1309524D01*
X69752380Y1347620D01*
X69714285Y1347620D01*
X69638095Y1309524D01*
X69600000Y1271429D01*
X69561904Y1195239D01*
X69561904Y1042858D01*
X69600000Y966667D01*
X69638095Y928572D01*
X69714285Y890477D01*
X69752380Y890477D01*
X69828571Y928572D01*
X69866666Y966667D01*
X69904761Y1042858D01*
X69904761Y1195239D01*
X69942857Y1271429D01*
X69980952Y1309524D01*
X70057142Y1347620D01*
X70209523Y1347620D01*
X70285714Y1309524D01*
X70323809Y1271429D01*
X70361904Y1195239D01*
X70361904Y1042858D01*
X70323809Y966667D01*
X70285714Y928572D01*
X70209523Y890477D01*
X70057142Y890477D01*
X69980952Y928572D01*
X69942857Y966667D01*
X69904761Y1042858D01*
G04 #@! TO.C,C2*
X83385714Y2633334D02*
X83423809Y2671429D01*
X83461904Y2785715D01*
X83461904Y2861905D01*
X83423809Y2976191D01*
X83347619Y3052381D01*
X83271428Y3090477D01*
X83119047Y3128572D01*
X83004761Y3128572D01*
X82852380Y3090477D01*
X82776190Y3052381D01*
X82700000Y2976191D01*
X82661904Y2861905D01*
X82661904Y2785715D01*
X82700000Y2671429D01*
X82738095Y2633334D01*
X82738095Y2328572D02*
X82700000Y2290477D01*
X82661904Y2214286D01*
X82661904Y2023810D01*
X82700000Y1947620D01*
X82738095Y1909524D01*
X82814285Y1871429D01*
X82890476Y1871429D01*
X83004761Y1909524D01*
X83461904Y2366667D01*
X83461904Y1871429D01*
G04 #@! TO.C,C6*
X76756729Y-1966666D02*
X76794824Y-1928571D01*
X76832919Y-1814285D01*
X76832919Y-1738095D01*
X76794824Y-1623809D01*
X76718634Y-1547619D01*
X76642443Y-1509523D01*
X76490062Y-1471428D01*
X76375776Y-1471428D01*
X76223395Y-1509523D01*
X76147205Y-1547619D01*
X76071015Y-1623809D01*
X76032919Y-1738095D01*
X76032919Y-1814285D01*
X76071015Y-1928571D01*
X76109110Y-1966666D01*
X76032919Y-2652380D02*
X76032919Y-2500000D01*
X76071015Y-2423809D01*
X76109110Y-2385714D01*
X76223395Y-2309523D01*
X76375776Y-2271428D01*
X76680538Y-2271428D01*
X76756729Y-2309523D01*
X76794824Y-2347619D01*
X76832919Y-2423809D01*
X76832919Y-2576190D01*
X76794824Y-2652380D01*
X76756729Y-2690476D01*
X76680538Y-2728571D01*
X76490062Y-2728571D01*
X76413872Y-2690476D01*
X76375776Y-2652380D01*
X76337681Y-2576190D01*
X76337681Y-2423809D01*
X76375776Y-2347619D01*
X76413872Y-2309523D01*
X76490062Y-2271428D01*
G04 #@! TO.C,C7*
X75285714Y-1966666D02*
X75323809Y-1928571D01*
X75361904Y-1814285D01*
X75361904Y-1738095D01*
X75323809Y-1623809D01*
X75247619Y-1547619D01*
X75171428Y-1509523D01*
X75019047Y-1471428D01*
X74904761Y-1471428D01*
X74752380Y-1509523D01*
X74676190Y-1547619D01*
X74600000Y-1623809D01*
X74561904Y-1738095D01*
X74561904Y-1814285D01*
X74600000Y-1928571D01*
X74638095Y-1966666D01*
X74561904Y-2233333D02*
X74561904Y-2766666D01*
X75361904Y-2423809D01*
G04 #@! TO.C,C10*
X79935714Y514286D02*
X79973809Y552381D01*
X80011904Y666667D01*
X80011904Y742858D01*
X79973809Y857143D01*
X79897619Y933334D01*
X79821428Y971429D01*
X79669047Y1009524D01*
X79554761Y1009524D01*
X79402380Y971429D01*
X79326190Y933334D01*
X79250000Y857143D01*
X79211904Y742858D01*
X79211904Y666667D01*
X79250000Y552381D01*
X79288095Y514286D01*
X80011904Y-247619D02*
X80011904Y209524D01*
X80011904Y-19047D02*
X79211904Y-19047D01*
X79326190Y57143D01*
X79402380Y133334D01*
X79440476Y209524D01*
X79211904Y-742857D02*
X79211904Y-819047D01*
X79250000Y-895238D01*
X79288095Y-933333D01*
X79364285Y-971428D01*
X79516666Y-1009523D01*
X79707142Y-1009523D01*
X79859523Y-971428D01*
X79935714Y-933333D01*
X79973809Y-895238D01*
X80011904Y-819047D01*
X80011904Y-742857D01*
X79973809Y-666666D01*
X79935714Y-628571D01*
X79859523Y-590476D01*
X79707142Y-552380D01*
X79516666Y-552380D01*
X79364285Y-590476D01*
X79288095Y-628571D01*
X79250000Y-666666D01*
X79211904Y-742857D01*
G04 #@! TO.C,C15*
X29114285Y-2085714D02*
X29152380Y-2123809D01*
X29266666Y-2161904D01*
X29342857Y-2161904D01*
X29457142Y-2123809D01*
X29533333Y-2047619D01*
X29571428Y-1971428D01*
X29609523Y-1819047D01*
X29609523Y-1704761D01*
X29571428Y-1552380D01*
X29533333Y-1476190D01*
X29457142Y-1400000D01*
X29342857Y-1361904D01*
X29266666Y-1361904D01*
X29152380Y-1400000D01*
X29114285Y-1438095D01*
X28352380Y-2161904D02*
X28809523Y-2161904D01*
X28580952Y-2161904D02*
X28580952Y-1361904D01*
X28657142Y-1476190D01*
X28733333Y-1552380D01*
X28809523Y-1590476D01*
X27628571Y-1361904D02*
X28009523Y-1361904D01*
X28047619Y-1742857D01*
X28009523Y-1704761D01*
X27933333Y-1666666D01*
X27742857Y-1666666D01*
X27666666Y-1704761D01*
X27628571Y-1742857D01*
X27590476Y-1819047D01*
X27590476Y-2009523D01*
X27628571Y-2085714D01*
X27666666Y-2123809D01*
X27742857Y-2161904D01*
X27933333Y-2161904D01*
X28009523Y-2123809D01*
X28047619Y-2085714D01*
G04 #@! TO.C,C19*
X68285714Y2414286D02*
X68323809Y2452381D01*
X68361904Y2566667D01*
X68361904Y2642858D01*
X68323809Y2757143D01*
X68247619Y2833334D01*
X68171428Y2871429D01*
X68019047Y2909524D01*
X67904761Y2909524D01*
X67752380Y2871429D01*
X67676190Y2833334D01*
X67600000Y2757143D01*
X67561904Y2642858D01*
X67561904Y2566667D01*
X67600000Y2452381D01*
X67638095Y2414286D01*
X68361904Y1652381D02*
X68361904Y2109524D01*
X68361904Y1880953D02*
X67561904Y1880953D01*
X67676190Y1957143D01*
X67752380Y2033334D01*
X67790476Y2109524D01*
X68361904Y1271429D02*
X68361904Y1119048D01*
X68323809Y1042858D01*
X68285714Y1004762D01*
X68171428Y928572D01*
X68019047Y890477D01*
X67714285Y890477D01*
X67638095Y928572D01*
X67600000Y966667D01*
X67561904Y1042858D01*
X67561904Y1195239D01*
X67600000Y1271429D01*
X67638095Y1309524D01*
X67714285Y1347620D01*
X67904761Y1347620D01*
X67980952Y1309524D01*
X68019047Y1271429D01*
X68057142Y1195239D01*
X68057142Y1042858D01*
X68019047Y966667D01*
X67980952Y928572D01*
X67904761Y890477D01*
G04 #@! TO.C,R2*
X44131904Y-1866666D02*
X43750952Y-1600000D01*
X44131904Y-1409523D02*
X43331904Y-1409523D01*
X43331904Y-1714285D01*
X43370000Y-1790476D01*
X43408095Y-1828571D01*
X43484285Y-1866666D01*
X43598571Y-1866666D01*
X43674761Y-1828571D01*
X43712857Y-1790476D01*
X43750952Y-1714285D01*
X43750952Y-1409523D01*
X43408095Y-2171428D02*
X43370000Y-2209523D01*
X43331904Y-2285714D01*
X43331904Y-2476190D01*
X43370000Y-2552380D01*
X43408095Y-2590476D01*
X43484285Y-2628571D01*
X43560476Y-2628571D01*
X43674761Y-2590476D01*
X44131904Y-2133333D01*
X44131904Y-2628571D01*
G04 #@! TO.C,U5*
X52540778Y-4021218D02*
X52082842Y-4479154D01*
X52002030Y-4506091D01*
X51948155Y-4506091D01*
X51867343Y-4479154D01*
X51759593Y-4371404D01*
X51732656Y-4290592D01*
X51732656Y-4236717D01*
X51759593Y-4155905D01*
X52217529Y-3697969D01*
X51678781Y-3159221D02*
X51948155Y-3428595D01*
X51705719Y-3724906D01*
X51705719Y-3671032D01*
X51678781Y-3590219D01*
X51544094Y-3455532D01*
X51463282Y-3428595D01*
X51409407Y-3428595D01*
X51328595Y-3455532D01*
X51193908Y-3590219D01*
X51166971Y-3671032D01*
X51166971Y-3724906D01*
X51193908Y-3805719D01*
X51328595Y-3940406D01*
X51409407Y-3967343D01*
X51463282Y-3967343D01*
G04 #@! TO.C,C33*
X92785714Y714286D02*
X92823809Y752381D01*
X92861904Y866667D01*
X92861904Y942858D01*
X92823809Y1057143D01*
X92747619Y1133334D01*
X92671428Y1171429D01*
X92519047Y1209524D01*
X92404761Y1209524D01*
X92252380Y1171429D01*
X92176190Y1133334D01*
X92100000Y1057143D01*
X92061904Y942858D01*
X92061904Y866667D01*
X92100000Y752381D01*
X92138095Y714286D01*
X92061904Y447620D02*
X92061904Y-47619D01*
X92366666Y219048D01*
X92366666Y104762D01*
X92404761Y28572D01*
X92442857Y-9523D01*
X92519047Y-47619D01*
X92709523Y-47619D01*
X92785714Y-9523D01*
X92823809Y28572D01*
X92861904Y104762D01*
X92861904Y333334D01*
X92823809Y409524D01*
X92785714Y447620D01*
X92061904Y-314285D02*
X92061904Y-809523D01*
X92366666Y-542857D01*
X92366666Y-657142D01*
X92404761Y-733333D01*
X92442857Y-771428D01*
X92519047Y-809523D01*
X92709523Y-809523D01*
X92785714Y-771428D01*
X92823809Y-733333D01*
X92861904Y-657142D01*
X92861904Y-428571D01*
X92823809Y-352380D01*
X92785714Y-314285D01*
G04 #@! TO.C,R3*
X89133333Y-4961904D02*
X89400000Y-4580952D01*
X89590476Y-4961904D02*
X89590476Y-4161904D01*
X89285714Y-4161904D01*
X89209523Y-4200000D01*
X89171428Y-4238095D01*
X89133333Y-4314285D01*
X89133333Y-4428571D01*
X89171428Y-4504761D01*
X89209523Y-4542857D01*
X89285714Y-4580952D01*
X89590476Y-4580952D01*
X88866666Y-4161904D02*
X88371428Y-4161904D01*
X88638095Y-4466666D01*
X88523809Y-4466666D01*
X88447619Y-4504761D01*
X88409523Y-4542857D01*
X88371428Y-4619047D01*
X88371428Y-4809523D01*
X88409523Y-4885714D01*
X88447619Y-4923809D01*
X88523809Y-4961904D01*
X88752380Y-4961904D01*
X88828571Y-4923809D01*
X88866666Y-4885714D01*
G04 #@! TO.C,R7*
X72633333Y3338096D02*
X72900000Y3719048D01*
X73090476Y3338096D02*
X73090476Y4138096D01*
X72785714Y4138096D01*
X72709523Y4100000D01*
X72671428Y4061905D01*
X72633333Y3985715D01*
X72633333Y3871429D01*
X72671428Y3795239D01*
X72709523Y3757143D01*
X72785714Y3719048D01*
X73090476Y3719048D01*
X72366666Y4138096D02*
X71833333Y4138096D01*
X72176190Y3338096D01*
G04 #@! TO.C,C28*
X36385714Y-1785714D02*
X36423809Y-1747619D01*
X36461904Y-1633333D01*
X36461904Y-1557142D01*
X36423809Y-1442857D01*
X36347619Y-1366666D01*
X36271428Y-1328571D01*
X36119047Y-1290476D01*
X36004761Y-1290476D01*
X35852380Y-1328571D01*
X35776190Y-1366666D01*
X35700000Y-1442857D01*
X35661904Y-1557142D01*
X35661904Y-1633333D01*
X35700000Y-1747619D01*
X35738095Y-1785714D01*
X35738095Y-2090476D02*
X35700000Y-2128571D01*
X35661904Y-2204761D01*
X35661904Y-2395238D01*
X35700000Y-2471428D01*
X35738095Y-2509523D01*
X35814285Y-2547619D01*
X35890476Y-2547619D01*
X36004761Y-2509523D01*
X36461904Y-2052380D01*
X36461904Y-2547619D01*
X36004761Y-3004761D02*
X35966666Y-2928571D01*
X35928571Y-2890476D01*
X35852380Y-2852380D01*
X35814285Y-2852380D01*
X35738095Y-2890476D01*
X35700000Y-2928571D01*
X35661904Y-3004761D01*
X35661904Y-3157142D01*
X35700000Y-3233333D01*
X35738095Y-3271428D01*
X35814285Y-3309523D01*
X35852380Y-3309523D01*
X35928571Y-3271428D01*
X35966666Y-3233333D01*
X36004761Y-3157142D01*
X36004761Y-3004761D01*
X36042857Y-2928571D01*
X36080952Y-2890476D01*
X36157142Y-2852380D01*
X36309523Y-2852380D01*
X36385714Y-2890476D01*
X36423809Y-2928571D01*
X36461904Y-3004761D01*
X36461904Y-3157142D01*
X36423809Y-3233333D01*
X36385714Y-3271428D01*
X36309523Y-3309523D01*
X36157142Y-3309523D01*
X36080952Y-3271428D01*
X36042857Y-3233333D01*
X36004761Y-3157142D01*
G04 #@! TO.C,D2*
X26590476Y3138096D02*
X26590476Y3938096D01*
X26400000Y3938096D01*
X26285714Y3900000D01*
X26209523Y3823810D01*
X26171428Y3747620D01*
X26133333Y3595239D01*
X26133333Y3480953D01*
X26171428Y3328572D01*
X26209523Y3252381D01*
X26285714Y3176191D01*
X26400000Y3138096D01*
X26590476Y3138096D01*
X25828571Y3861905D02*
X25790476Y3900000D01*
X25714285Y3938096D01*
X25523809Y3938096D01*
X25447619Y3900000D01*
X25409523Y3861905D01*
X25371428Y3785715D01*
X25371428Y3709524D01*
X25409523Y3595239D01*
X25866666Y3138096D01*
X25371428Y3138096D01*
G04 #@! TO.C,C9*
X81333333Y-2185714D02*
X81371428Y-2223809D01*
X81485714Y-2261904D01*
X81561904Y-2261904D01*
X81676190Y-2223809D01*
X81752380Y-2147619D01*
X81790476Y-2071428D01*
X81828571Y-1919047D01*
X81828571Y-1804761D01*
X81790476Y-1652380D01*
X81752380Y-1576190D01*
X81676190Y-1500000D01*
X81561904Y-1461904D01*
X81485714Y-1461904D01*
X81371428Y-1500000D01*
X81333333Y-1538095D01*
X80952380Y-2261904D02*
X80800000Y-2261904D01*
X80723809Y-2223809D01*
X80685714Y-2185714D01*
X80609523Y-2071428D01*
X80571428Y-1919047D01*
X80571428Y-1614285D01*
X80609523Y-1538095D01*
X80647619Y-1500000D01*
X80723809Y-1461904D01*
X80876190Y-1461904D01*
X80952380Y-1500000D01*
X80990476Y-1538095D01*
X81028571Y-1614285D01*
X81028571Y-1804761D01*
X80990476Y-1880952D01*
X80952380Y-1919047D01*
X80876190Y-1957142D01*
X80723809Y-1957142D01*
X80647619Y-1919047D01*
X80609523Y-1880952D01*
X80571428Y-1804761D01*
G04 #@! TO.C,C4*
X41144285Y66667D02*
X41106190Y28572D01*
X41068095Y-85714D01*
X41068095Y-161904D01*
X41106190Y-276190D01*
X41182380Y-352380D01*
X41258571Y-390476D01*
X41410952Y-428571D01*
X41525238Y-428571D01*
X41677619Y-390476D01*
X41753809Y-352380D01*
X41830000Y-276190D01*
X41868095Y-161904D01*
X41868095Y-85714D01*
X41830000Y28572D01*
X41791904Y66667D01*
X41601428Y752381D02*
X41068095Y752381D01*
X41906190Y561905D02*
X41334761Y371429D01*
X41334761Y866667D01*
D11*
G04 #@! TO.C,C16*
X20810000Y1028733D02*
X20810000Y1371267D01*
X19790000Y1028733D02*
X19790000Y1371267D01*
G04 #@! TO.C,C1*
X89705015Y33009D02*
X89705015Y375543D01*
X88685015Y33009D02*
X88685015Y375543D01*
G04 #@! TO.C,J3*
X63565000Y-1565000D02*
X60035000Y-1565000D01*
X60035000Y-1500000D02*
X60035000Y-1565000D01*
X63565000Y2365000D02*
X63565000Y2300000D01*
X60035000Y2365000D02*
X60035000Y2300000D01*
X63565000Y2365000D02*
X60035000Y2365000D01*
X63565000Y-1500000D02*
X63565000Y-1565000D01*
X64890000Y2300000D02*
X63565000Y2300000D01*
G04 #@! TO.C,U1*
X84590000Y-400000D02*
X84590000Y-1900000D01*
X87810000Y-400000D02*
X87810000Y-3325000D01*
X87810000Y-400000D02*
X87810000Y1100000D01*
X84590000Y-400000D02*
X84590000Y1100000D01*
G04 #@! TO.C,C2*
X82591818Y-265076D02*
X82591818Y77458D01*
X83611818Y-265076D02*
X83611818Y77458D01*
G04 #@! TO.C,C15*
X25828733Y-2290000D02*
X26171267Y-2290000D01*
X25828733Y-3310000D02*
X26171267Y-3310000D01*
G04 #@! TO.C,U5*
X49308903Y500000D02*
X49644778Y164124D01*
X49644778Y835876D02*
X49308903Y500000D01*
X53000000Y4191097D02*
X53335876Y3855222D01*
X56355222Y164124D02*
X56691097Y500000D01*
X52664124Y3855222D02*
X53000000Y4191097D01*
X56691097Y500000D02*
X56355222Y835876D01*
X53335876Y-2855222D02*
X53000000Y-3191097D01*
G04 #@! TO.C,C33*
X91706464Y25144D02*
X91706464Y367678D01*
X90686464Y25144D02*
X90686464Y367678D01*
G04 #@! TO.C,D2*
X27000000Y1790000D02*
X26500000Y1790000D01*
X27000000Y2810000D02*
X26500000Y2810000D01*
X27000000Y2800000D02*
X27000000Y1800000D01*
G04 #@! TD*
M02*
