G04 #@! TF.GenerationSoftware,KiCad,Pcbnew,(5.99.0-3540-g0818bd05d)*
G04 #@! TF.CreationDate,2020-10-04T20:53:55-07:00*
G04 #@! TF.ProjectId,RT_USB_PD_Soldering_Iron,52545f55-5342-45f5-9044-5f536f6c6465,rev?*
G04 #@! TF.SameCoordinates,PX5f5e100PY7735940*
G04 #@! TF.FileFunction,Soldermask,Bot*
G04 #@! TF.FilePolarity,Negative*
%FSLAX46Y46*%
G04 Gerber Fmt 4.6, Leading zero omitted, Abs format (unit mm)*
G04 Created by KiCad (PCBNEW (5.99.0-3540-g0818bd05d)) date 2020-10-04 20:53:55*
%MOMM*%
%LPD*%
G01*
G04 APERTURE LIST*
%ADD10C,0.650000*%
%ADD11O,2.100000X1.000000*%
%ADD12O,1.800000X1.000000*%
%ADD13R,2.200000X2.100000*%
%ADD14R,2.800000X2.100000*%
%ADD15R,2.600000X2.700000*%
%ADD16C,1.000000*%
%ADD17R,1.060000X0.650000*%
G04 APERTURE END LIST*
D10*
G04 #@! TO.C,J1*
X69700000Y-2890000D03*
X69700000Y2790000D03*
D11*
X69200000Y-4320000D03*
D12*
X73380000Y4320000D03*
D11*
X69200000Y4320000D03*
D12*
X73380000Y-4320000D03*
G04 #@! TD*
D13*
G04 #@! TO.C,J2*
X3000000Y-4050000D03*
X5200000Y4050000D03*
X2100000Y4050000D03*
D14*
X12800000Y-4050000D03*
D15*
X16800000Y750000D03*
G04 #@! TD*
G04 #@! TO.C,C16*
G36*
G01*
X19937500Y-300000D02*
X19462500Y-300000D01*
G75*
G02*
X19225000Y-62500I0J237500D01*
G01*
X19225000Y512500D01*
G75*
G02*
X19462500Y750000I237500J0D01*
G01*
X19937500Y750000D01*
G75*
G02*
X20175000Y512500I0J-237500D01*
G01*
X20175000Y-62500D01*
G75*
G02*
X19937500Y-300000I-237500J0D01*
G01*
G37*
G36*
G01*
X19937500Y1450000D02*
X19462500Y1450000D01*
G75*
G02*
X19225000Y1687500I0J237500D01*
G01*
X19225000Y2262500D01*
G75*
G02*
X19462500Y2500000I237500J0D01*
G01*
X19937500Y2500000D01*
G75*
G02*
X20175000Y2262500I0J-237500D01*
G01*
X20175000Y1687500D01*
G75*
G02*
X19937500Y1450000I-237500J0D01*
G01*
G37*
G04 #@! TD*
G04 #@! TO.C,C1*
G36*
G01*
X67637500Y-1600000D02*
X67162500Y-1600000D01*
G75*
G02*
X66925000Y-1362500I0J237500D01*
G01*
X66925000Y-787500D01*
G75*
G02*
X67162500Y-550000I237500J0D01*
G01*
X67637500Y-550000D01*
G75*
G02*
X67875000Y-787500I0J-237500D01*
G01*
X67875000Y-1362500D01*
G75*
G02*
X67637500Y-1600000I-237500J0D01*
G01*
G37*
G36*
G01*
X67637500Y150000D02*
X67162500Y150000D01*
G75*
G02*
X66925000Y387500I0J237500D01*
G01*
X66925000Y962500D01*
G75*
G02*
X67162500Y1200000I237500J0D01*
G01*
X67637500Y1200000D01*
G75*
G02*
X67875000Y962500I0J-237500D01*
G01*
X67875000Y387500D01*
G75*
G02*
X67637500Y150000I-237500J0D01*
G01*
G37*
G04 #@! TD*
G04 #@! TO.C,R6*
G36*
G01*
X60284400Y1492528D02*
X60284400Y1122528D01*
G75*
G02*
X60149400Y987528I-135000J0D01*
G01*
X59879400Y987528D01*
G75*
G02*
X59744400Y1122528I0J135000D01*
G01*
X59744400Y1492528D01*
G75*
G02*
X59879400Y1627528I135000J0D01*
G01*
X60149400Y1627528D01*
G75*
G02*
X60284400Y1492528I0J-135000D01*
G01*
G37*
G36*
G01*
X59264400Y1492528D02*
X59264400Y1122528D01*
G75*
G02*
X59129400Y987528I-135000J0D01*
G01*
X58859400Y987528D01*
G75*
G02*
X58724400Y1122528I0J135000D01*
G01*
X58724400Y1492528D01*
G75*
G02*
X58859400Y1627528I135000J0D01*
G01*
X59129400Y1627528D01*
G75*
G02*
X59264400Y1492528I0J-135000D01*
G01*
G37*
G04 #@! TD*
G04 #@! TO.C,R4*
G36*
G01*
X34915000Y-2020000D02*
X35285000Y-2020000D01*
G75*
G02*
X35420000Y-2155000I0J-135000D01*
G01*
X35420000Y-2425000D01*
G75*
G02*
X35285000Y-2560000I-135000J0D01*
G01*
X34915000Y-2560000D01*
G75*
G02*
X34780000Y-2425000I0J135000D01*
G01*
X34780000Y-2155000D01*
G75*
G02*
X34915000Y-2020000I135000J0D01*
G01*
G37*
G36*
G01*
X34915000Y-3040000D02*
X35285000Y-3040000D01*
G75*
G02*
X35420000Y-3175000I0J-135000D01*
G01*
X35420000Y-3445000D01*
G75*
G02*
X35285000Y-3580000I-135000J0D01*
G01*
X34915000Y-3580000D01*
G75*
G02*
X34780000Y-3445000I0J135000D01*
G01*
X34780000Y-3175000D01*
G75*
G02*
X34915000Y-3040000I135000J0D01*
G01*
G37*
G04 #@! TD*
D16*
G04 #@! TO.C,TP3*
X57300000Y2000000D03*
G04 #@! TD*
D17*
G04 #@! TO.C,U1*
X63800940Y754003D03*
X63800940Y-195997D03*
X63800940Y-1145997D03*
X61600940Y-1145997D03*
X61600940Y754003D03*
G04 #@! TD*
G04 #@! TO.C,C18*
G36*
G01*
X59831364Y371866D02*
X60171364Y371866D01*
G75*
G02*
X60311364Y231866I0J-140000D01*
G01*
X60311364Y-48134D01*
G75*
G02*
X60171364Y-188134I-140000J0D01*
G01*
X59831364Y-188134D01*
G75*
G02*
X59691364Y-48134I0J140000D01*
G01*
X59691364Y231866D01*
G75*
G02*
X59831364Y371866I140000J0D01*
G01*
G37*
G36*
G01*
X59831364Y-588134D02*
X60171364Y-588134D01*
G75*
G02*
X60311364Y-728134I0J-140000D01*
G01*
X60311364Y-1008134D01*
G75*
G02*
X60171364Y-1148134I-140000J0D01*
G01*
X59831364Y-1148134D01*
G75*
G02*
X59691364Y-1008134I0J140000D01*
G01*
X59691364Y-728134D01*
G75*
G02*
X59831364Y-588134I140000J0D01*
G01*
G37*
G04 #@! TD*
G04 #@! TO.C,C2*
G36*
G01*
X61000000Y2462500D02*
X61000000Y2937500D01*
G75*
G02*
X61237500Y3175000I237500J0D01*
G01*
X61812500Y3175000D01*
G75*
G02*
X62050000Y2937500I0J-237500D01*
G01*
X62050000Y2462500D01*
G75*
G02*
X61812500Y2225000I-237500J0D01*
G01*
X61237500Y2225000D01*
G75*
G02*
X61000000Y2462500I0J237500D01*
G01*
G37*
G36*
G01*
X62750000Y2462500D02*
X62750000Y2937500D01*
G75*
G02*
X62987500Y3175000I237500J0D01*
G01*
X63562500Y3175000D01*
G75*
G02*
X63800000Y2937500I0J-237500D01*
G01*
X63800000Y2462500D01*
G75*
G02*
X63562500Y2225000I-237500J0D01*
G01*
X62987500Y2225000D01*
G75*
G02*
X62750000Y2462500I0J237500D01*
G01*
G37*
G04 #@! TD*
D16*
G04 #@! TO.C,TP5*
X57300000Y-2000000D03*
G04 #@! TD*
G04 #@! TO.C,C3*
G36*
G01*
X61860000Y-2530000D02*
X61860000Y-2870000D01*
G75*
G02*
X61720000Y-3010000I-140000J0D01*
G01*
X61440000Y-3010000D01*
G75*
G02*
X61300000Y-2870000I0J140000D01*
G01*
X61300000Y-2530000D01*
G75*
G02*
X61440000Y-2390000I140000J0D01*
G01*
X61720000Y-2390000D01*
G75*
G02*
X61860000Y-2530000I0J-140000D01*
G01*
G37*
G36*
G01*
X60900000Y-2530000D02*
X60900000Y-2870000D01*
G75*
G02*
X60760000Y-3010000I-140000J0D01*
G01*
X60480000Y-3010000D01*
G75*
G02*
X60340000Y-2870000I0J140000D01*
G01*
X60340000Y-2530000D01*
G75*
G02*
X60480000Y-2390000I140000J0D01*
G01*
X60760000Y-2390000D01*
G75*
G02*
X60900000Y-2530000I0J-140000D01*
G01*
G37*
G04 #@! TD*
G04 #@! TO.C,C15*
G36*
G01*
X23200000Y-3037500D02*
X23200000Y-2562500D01*
G75*
G02*
X23437500Y-2325000I237500J0D01*
G01*
X24012500Y-2325000D01*
G75*
G02*
X24250000Y-2562500I0J-237500D01*
G01*
X24250000Y-3037500D01*
G75*
G02*
X24012500Y-3275000I-237500J0D01*
G01*
X23437500Y-3275000D01*
G75*
G02*
X23200000Y-3037500I0J237500D01*
G01*
G37*
G36*
G01*
X24950000Y-3037500D02*
X24950000Y-2562500D01*
G75*
G02*
X25187500Y-2325000I237500J0D01*
G01*
X25762500Y-2325000D01*
G75*
G02*
X26000000Y-2562500I0J-237500D01*
G01*
X26000000Y-3037500D01*
G75*
G02*
X25762500Y-3275000I-237500J0D01*
G01*
X25187500Y-3275000D01*
G75*
G02*
X24950000Y-3037500I0J237500D01*
G01*
G37*
G04 #@! TD*
G04 #@! TO.C,TP2*
X55300000Y2000000D03*
G04 #@! TD*
G04 #@! TO.C,TP4*
X55300000Y0D03*
G04 #@! TD*
G04 #@! TO.C,TP1*
X55300000Y-2000000D03*
G04 #@! TD*
G04 #@! TO.C,R2*
G36*
G01*
X37785000Y-3580000D02*
X37415000Y-3580000D01*
G75*
G02*
X37280000Y-3445000I0J135000D01*
G01*
X37280000Y-3175000D01*
G75*
G02*
X37415000Y-3040000I135000J0D01*
G01*
X37785000Y-3040000D01*
G75*
G02*
X37920000Y-3175000I0J-135000D01*
G01*
X37920000Y-3445000D01*
G75*
G02*
X37785000Y-3580000I-135000J0D01*
G01*
G37*
G36*
G01*
X37785000Y-2560000D02*
X37415000Y-2560000D01*
G75*
G02*
X37280000Y-2425000I0J135000D01*
G01*
X37280000Y-2155000D01*
G75*
G02*
X37415000Y-2020000I135000J0D01*
G01*
X37785000Y-2020000D01*
G75*
G02*
X37920000Y-2155000I0J-135000D01*
G01*
X37920000Y-2425000D01*
G75*
G02*
X37785000Y-2560000I-135000J0D01*
G01*
G37*
G04 #@! TD*
G04 #@! TO.C,U5*
G36*
G01*
X46448699Y-3314563D02*
X46360311Y-3226175D01*
G75*
G02*
X46360311Y-3137787I44194J44194D01*
G01*
X46890641Y-2607457D01*
G75*
G02*
X46979029Y-2607457I44194J-44194D01*
G01*
X47067417Y-2695845D01*
G75*
G02*
X47067417Y-2784233I-44194J-44194D01*
G01*
X46537087Y-3314563D01*
G75*
G02*
X46448699Y-3314563I-44194J44194D01*
G01*
G37*
G36*
G01*
X46095146Y-2961009D02*
X46006758Y-2872621D01*
G75*
G02*
X46006758Y-2784233I44194J44194D01*
G01*
X46537088Y-2253903D01*
G75*
G02*
X46625476Y-2253903I44194J-44194D01*
G01*
X46713864Y-2342291D01*
G75*
G02*
X46713864Y-2430679I-44194J-44194D01*
G01*
X46183534Y-2961009D01*
G75*
G02*
X46095146Y-2961009I-44194J44194D01*
G01*
G37*
G36*
G01*
X45741592Y-2607456D02*
X45653204Y-2519068D01*
G75*
G02*
X45653204Y-2430680I44194J44194D01*
G01*
X46183534Y-1900350D01*
G75*
G02*
X46271922Y-1900350I44194J-44194D01*
G01*
X46360310Y-1988738D01*
G75*
G02*
X46360310Y-2077126I-44194J-44194D01*
G01*
X45829980Y-2607456D01*
G75*
G02*
X45741592Y-2607456I-44194J44194D01*
G01*
G37*
G36*
G01*
X45388039Y-2253902D02*
X45299651Y-2165514D01*
G75*
G02*
X45299651Y-2077126I44194J44194D01*
G01*
X45829981Y-1546796D01*
G75*
G02*
X45918369Y-1546796I44194J-44194D01*
G01*
X46006757Y-1635184D01*
G75*
G02*
X46006757Y-1723572I-44194J-44194D01*
G01*
X45476427Y-2253902D01*
G75*
G02*
X45388039Y-2253902I-44194J44194D01*
G01*
G37*
G36*
G01*
X45034486Y-1900349D02*
X44946098Y-1811961D01*
G75*
G02*
X44946098Y-1723573I44194J44194D01*
G01*
X45476428Y-1193243D01*
G75*
G02*
X45564816Y-1193243I44194J-44194D01*
G01*
X45653204Y-1281631D01*
G75*
G02*
X45653204Y-1370019I-44194J-44194D01*
G01*
X45122874Y-1900349D01*
G75*
G02*
X45034486Y-1900349I-44194J44194D01*
G01*
G37*
G36*
G01*
X44680932Y-1546796D02*
X44592544Y-1458408D01*
G75*
G02*
X44592544Y-1370020I44194J44194D01*
G01*
X45122874Y-839690D01*
G75*
G02*
X45211262Y-839690I44194J-44194D01*
G01*
X45299650Y-928078D01*
G75*
G02*
X45299650Y-1016466I-44194J-44194D01*
G01*
X44769320Y-1546796D01*
G75*
G02*
X44680932Y-1546796I-44194J44194D01*
G01*
G37*
G36*
G01*
X44327379Y-1193242D02*
X44238991Y-1104854D01*
G75*
G02*
X44238991Y-1016466I44194J44194D01*
G01*
X44769321Y-486136D01*
G75*
G02*
X44857709Y-486136I44194J-44194D01*
G01*
X44946097Y-574524D01*
G75*
G02*
X44946097Y-662912I-44194J-44194D01*
G01*
X44415767Y-1193242D01*
G75*
G02*
X44327379Y-1193242I-44194J44194D01*
G01*
G37*
G36*
G01*
X43973825Y-839689D02*
X43885437Y-751301D01*
G75*
G02*
X43885437Y-662913I44194J44194D01*
G01*
X44415767Y-132583D01*
G75*
G02*
X44504155Y-132583I44194J-44194D01*
G01*
X44592543Y-220971D01*
G75*
G02*
X44592543Y-309359I-44194J-44194D01*
G01*
X44062213Y-839689D01*
G75*
G02*
X43973825Y-839689I-44194J44194D01*
G01*
G37*
G36*
G01*
X44415767Y132583D02*
X43885437Y662913D01*
G75*
G02*
X43885437Y751301I44194J44194D01*
G01*
X43973825Y839689D01*
G75*
G02*
X44062213Y839689I44194J-44194D01*
G01*
X44592543Y309359D01*
G75*
G02*
X44592543Y220971I-44194J-44194D01*
G01*
X44504155Y132583D01*
G75*
G02*
X44415767Y132583I-44194J44194D01*
G01*
G37*
G36*
G01*
X44769321Y486136D02*
X44238991Y1016466D01*
G75*
G02*
X44238991Y1104854I44194J44194D01*
G01*
X44327379Y1193242D01*
G75*
G02*
X44415767Y1193242I44194J-44194D01*
G01*
X44946097Y662912D01*
G75*
G02*
X44946097Y574524I-44194J-44194D01*
G01*
X44857709Y486136D01*
G75*
G02*
X44769321Y486136I-44194J44194D01*
G01*
G37*
G36*
G01*
X45122874Y839690D02*
X44592544Y1370020D01*
G75*
G02*
X44592544Y1458408I44194J44194D01*
G01*
X44680932Y1546796D01*
G75*
G02*
X44769320Y1546796I44194J-44194D01*
G01*
X45299650Y1016466D01*
G75*
G02*
X45299650Y928078I-44194J-44194D01*
G01*
X45211262Y839690D01*
G75*
G02*
X45122874Y839690I-44194J44194D01*
G01*
G37*
G36*
G01*
X45476428Y1193243D02*
X44946098Y1723573D01*
G75*
G02*
X44946098Y1811961I44194J44194D01*
G01*
X45034486Y1900349D01*
G75*
G02*
X45122874Y1900349I44194J-44194D01*
G01*
X45653204Y1370019D01*
G75*
G02*
X45653204Y1281631I-44194J-44194D01*
G01*
X45564816Y1193243D01*
G75*
G02*
X45476428Y1193243I-44194J44194D01*
G01*
G37*
G36*
G01*
X45829981Y1546796D02*
X45299651Y2077126D01*
G75*
G02*
X45299651Y2165514I44194J44194D01*
G01*
X45388039Y2253902D01*
G75*
G02*
X45476427Y2253902I44194J-44194D01*
G01*
X46006757Y1723572D01*
G75*
G02*
X46006757Y1635184I-44194J-44194D01*
G01*
X45918369Y1546796D01*
G75*
G02*
X45829981Y1546796I-44194J44194D01*
G01*
G37*
G36*
G01*
X46183534Y1900350D02*
X45653204Y2430680D01*
G75*
G02*
X45653204Y2519068I44194J44194D01*
G01*
X45741592Y2607456D01*
G75*
G02*
X45829980Y2607456I44194J-44194D01*
G01*
X46360310Y2077126D01*
G75*
G02*
X46360310Y1988738I-44194J-44194D01*
G01*
X46271922Y1900350D01*
G75*
G02*
X46183534Y1900350I-44194J44194D01*
G01*
G37*
G36*
G01*
X46537088Y2253903D02*
X46006758Y2784233D01*
G75*
G02*
X46006758Y2872621I44194J44194D01*
G01*
X46095146Y2961009D01*
G75*
G02*
X46183534Y2961009I44194J-44194D01*
G01*
X46713864Y2430679D01*
G75*
G02*
X46713864Y2342291I-44194J-44194D01*
G01*
X46625476Y2253903D01*
G75*
G02*
X46537088Y2253903I-44194J44194D01*
G01*
G37*
G36*
G01*
X46890641Y2607457D02*
X46360311Y3137787D01*
G75*
G02*
X46360311Y3226175I44194J44194D01*
G01*
X46448699Y3314563D01*
G75*
G02*
X46537087Y3314563I44194J-44194D01*
G01*
X47067417Y2784233D01*
G75*
G02*
X47067417Y2695845I-44194J-44194D01*
G01*
X46979029Y2607457D01*
G75*
G02*
X46890641Y2607457I-44194J44194D01*
G01*
G37*
G36*
G01*
X47420971Y2607457D02*
X47332583Y2695845D01*
G75*
G02*
X47332583Y2784233I44194J44194D01*
G01*
X47862913Y3314563D01*
G75*
G02*
X47951301Y3314563I44194J-44194D01*
G01*
X48039689Y3226175D01*
G75*
G02*
X48039689Y3137787I-44194J-44194D01*
G01*
X47509359Y2607457D01*
G75*
G02*
X47420971Y2607457I-44194J44194D01*
G01*
G37*
G36*
G01*
X47774524Y2253903D02*
X47686136Y2342291D01*
G75*
G02*
X47686136Y2430679I44194J44194D01*
G01*
X48216466Y2961009D01*
G75*
G02*
X48304854Y2961009I44194J-44194D01*
G01*
X48393242Y2872621D01*
G75*
G02*
X48393242Y2784233I-44194J-44194D01*
G01*
X47862912Y2253903D01*
G75*
G02*
X47774524Y2253903I-44194J44194D01*
G01*
G37*
G36*
G01*
X48128078Y1900350D02*
X48039690Y1988738D01*
G75*
G02*
X48039690Y2077126I44194J44194D01*
G01*
X48570020Y2607456D01*
G75*
G02*
X48658408Y2607456I44194J-44194D01*
G01*
X48746796Y2519068D01*
G75*
G02*
X48746796Y2430680I-44194J-44194D01*
G01*
X48216466Y1900350D01*
G75*
G02*
X48128078Y1900350I-44194J44194D01*
G01*
G37*
G36*
G01*
X48481631Y1546796D02*
X48393243Y1635184D01*
G75*
G02*
X48393243Y1723572I44194J44194D01*
G01*
X48923573Y2253902D01*
G75*
G02*
X49011961Y2253902I44194J-44194D01*
G01*
X49100349Y2165514D01*
G75*
G02*
X49100349Y2077126I-44194J-44194D01*
G01*
X48570019Y1546796D01*
G75*
G02*
X48481631Y1546796I-44194J44194D01*
G01*
G37*
G36*
G01*
X48835184Y1193243D02*
X48746796Y1281631D01*
G75*
G02*
X48746796Y1370019I44194J44194D01*
G01*
X49277126Y1900349D01*
G75*
G02*
X49365514Y1900349I44194J-44194D01*
G01*
X49453902Y1811961D01*
G75*
G02*
X49453902Y1723573I-44194J-44194D01*
G01*
X48923572Y1193243D01*
G75*
G02*
X48835184Y1193243I-44194J44194D01*
G01*
G37*
G36*
G01*
X49188738Y839690D02*
X49100350Y928078D01*
G75*
G02*
X49100350Y1016466I44194J44194D01*
G01*
X49630680Y1546796D01*
G75*
G02*
X49719068Y1546796I44194J-44194D01*
G01*
X49807456Y1458408D01*
G75*
G02*
X49807456Y1370020I-44194J-44194D01*
G01*
X49277126Y839690D01*
G75*
G02*
X49188738Y839690I-44194J44194D01*
G01*
G37*
G36*
G01*
X49542291Y486136D02*
X49453903Y574524D01*
G75*
G02*
X49453903Y662912I44194J44194D01*
G01*
X49984233Y1193242D01*
G75*
G02*
X50072621Y1193242I44194J-44194D01*
G01*
X50161009Y1104854D01*
G75*
G02*
X50161009Y1016466I-44194J-44194D01*
G01*
X49630679Y486136D01*
G75*
G02*
X49542291Y486136I-44194J44194D01*
G01*
G37*
G36*
G01*
X49895845Y132583D02*
X49807457Y220971D01*
G75*
G02*
X49807457Y309359I44194J44194D01*
G01*
X50337787Y839689D01*
G75*
G02*
X50426175Y839689I44194J-44194D01*
G01*
X50514563Y751301D01*
G75*
G02*
X50514563Y662913I-44194J-44194D01*
G01*
X49984233Y132583D01*
G75*
G02*
X49895845Y132583I-44194J44194D01*
G01*
G37*
G36*
G01*
X50337787Y-839689D02*
X49807457Y-309359D01*
G75*
G02*
X49807457Y-220971I44194J44194D01*
G01*
X49895845Y-132583D01*
G75*
G02*
X49984233Y-132583I44194J-44194D01*
G01*
X50514563Y-662913D01*
G75*
G02*
X50514563Y-751301I-44194J-44194D01*
G01*
X50426175Y-839689D01*
G75*
G02*
X50337787Y-839689I-44194J44194D01*
G01*
G37*
G36*
G01*
X49984233Y-1193242D02*
X49453903Y-662912D01*
G75*
G02*
X49453903Y-574524I44194J44194D01*
G01*
X49542291Y-486136D01*
G75*
G02*
X49630679Y-486136I44194J-44194D01*
G01*
X50161009Y-1016466D01*
G75*
G02*
X50161009Y-1104854I-44194J-44194D01*
G01*
X50072621Y-1193242D01*
G75*
G02*
X49984233Y-1193242I-44194J44194D01*
G01*
G37*
G36*
G01*
X49630680Y-1546796D02*
X49100350Y-1016466D01*
G75*
G02*
X49100350Y-928078I44194J44194D01*
G01*
X49188738Y-839690D01*
G75*
G02*
X49277126Y-839690I44194J-44194D01*
G01*
X49807456Y-1370020D01*
G75*
G02*
X49807456Y-1458408I-44194J-44194D01*
G01*
X49719068Y-1546796D01*
G75*
G02*
X49630680Y-1546796I-44194J44194D01*
G01*
G37*
G36*
G01*
X49277126Y-1900349D02*
X48746796Y-1370019D01*
G75*
G02*
X48746796Y-1281631I44194J44194D01*
G01*
X48835184Y-1193243D01*
G75*
G02*
X48923572Y-1193243I44194J-44194D01*
G01*
X49453902Y-1723573D01*
G75*
G02*
X49453902Y-1811961I-44194J-44194D01*
G01*
X49365514Y-1900349D01*
G75*
G02*
X49277126Y-1900349I-44194J44194D01*
G01*
G37*
G36*
G01*
X48923573Y-2253902D02*
X48393243Y-1723572D01*
G75*
G02*
X48393243Y-1635184I44194J44194D01*
G01*
X48481631Y-1546796D01*
G75*
G02*
X48570019Y-1546796I44194J-44194D01*
G01*
X49100349Y-2077126D01*
G75*
G02*
X49100349Y-2165514I-44194J-44194D01*
G01*
X49011961Y-2253902D01*
G75*
G02*
X48923573Y-2253902I-44194J44194D01*
G01*
G37*
G36*
G01*
X48570020Y-2607456D02*
X48039690Y-2077126D01*
G75*
G02*
X48039690Y-1988738I44194J44194D01*
G01*
X48128078Y-1900350D01*
G75*
G02*
X48216466Y-1900350I44194J-44194D01*
G01*
X48746796Y-2430680D01*
G75*
G02*
X48746796Y-2519068I-44194J-44194D01*
G01*
X48658408Y-2607456D01*
G75*
G02*
X48570020Y-2607456I-44194J44194D01*
G01*
G37*
G36*
G01*
X48216466Y-2961009D02*
X47686136Y-2430679D01*
G75*
G02*
X47686136Y-2342291I44194J44194D01*
G01*
X47774524Y-2253903D01*
G75*
G02*
X47862912Y-2253903I44194J-44194D01*
G01*
X48393242Y-2784233D01*
G75*
G02*
X48393242Y-2872621I-44194J-44194D01*
G01*
X48304854Y-2961009D01*
G75*
G02*
X48216466Y-2961009I-44194J44194D01*
G01*
G37*
G36*
G01*
X47862913Y-3314563D02*
X47332583Y-2784233D01*
G75*
G02*
X47332583Y-2695845I44194J44194D01*
G01*
X47420971Y-2607457D01*
G75*
G02*
X47509359Y-2607457I44194J-44194D01*
G01*
X48039689Y-3137787D01*
G75*
G02*
X48039689Y-3226175I-44194J-44194D01*
G01*
X47951301Y-3314563D01*
G75*
G02*
X47862913Y-3314563I-44194J44194D01*
G01*
G37*
G36*
X47200000Y-2439518D02*
G01*
X44760482Y0D01*
X47200000Y2439518D01*
X49639518Y0D01*
X47200000Y-2439518D01*
G37*
G04 #@! TD*
G04 #@! TO.C,C33*
G36*
G01*
X65445177Y2871374D02*
X65920177Y2871374D01*
G75*
G02*
X66157677Y2633874I0J-237500D01*
G01*
X66157677Y2058874D01*
G75*
G02*
X65920177Y1821374I-237500J0D01*
G01*
X65445177Y1821374D01*
G75*
G02*
X65207677Y2058874I0J237500D01*
G01*
X65207677Y2633874D01*
G75*
G02*
X65445177Y2871374I237500J0D01*
G01*
G37*
G36*
G01*
X65445177Y1121374D02*
X65920177Y1121374D01*
G75*
G02*
X66157677Y883874I0J-237500D01*
G01*
X66157677Y308874D01*
G75*
G02*
X65920177Y71374I-237500J0D01*
G01*
X65445177Y71374D01*
G75*
G02*
X65207677Y308874I0J237500D01*
G01*
X65207677Y883874D01*
G75*
G02*
X65445177Y1121374I237500J0D01*
G01*
G37*
G04 #@! TD*
G04 #@! TO.C,R7*
G36*
G01*
X60280000Y2693649D02*
X60280000Y2323649D01*
G75*
G02*
X60145000Y2188649I-135000J0D01*
G01*
X59875000Y2188649D01*
G75*
G02*
X59740000Y2323649I0J135000D01*
G01*
X59740000Y2693649D01*
G75*
G02*
X59875000Y2828649I135000J0D01*
G01*
X60145000Y2828649D01*
G75*
G02*
X60280000Y2693649I0J-135000D01*
G01*
G37*
G36*
G01*
X59260000Y2693649D02*
X59260000Y2323649D01*
G75*
G02*
X59125000Y2188649I-135000J0D01*
G01*
X58855000Y2188649D01*
G75*
G02*
X58720000Y2323649I0J135000D01*
G01*
X58720000Y2693649D01*
G75*
G02*
X58855000Y2828649I135000J0D01*
G01*
X59125000Y2828649D01*
G75*
G02*
X59260000Y2693649I0J-135000D01*
G01*
G37*
G04 #@! TD*
G04 #@! TO.C,D2*
G36*
G01*
X25600000Y2562500D02*
X25600000Y2037500D01*
G75*
G02*
X25462500Y1900000I-137500J0D01*
G01*
X25187500Y1900000D01*
G75*
G02*
X25050000Y2037500I0J137500D01*
G01*
X25050000Y2562500D01*
G75*
G02*
X25187500Y2700000I137500J0D01*
G01*
X25462500Y2700000D01*
G75*
G02*
X25600000Y2562500I0J-137500D01*
G01*
G37*
G36*
G01*
X24187500Y2562500D02*
X24187500Y2037500D01*
G75*
G02*
X24050000Y1900000I-137500J0D01*
G01*
X23775000Y1900000D01*
G75*
G02*
X23637500Y2037500I0J137500D01*
G01*
X23637500Y2562500D01*
G75*
G02*
X23775000Y2700000I137500J0D01*
G01*
X24050000Y2700000D01*
G75*
G02*
X24187500Y2562500I0J-137500D01*
G01*
G37*
G04 #@! TD*
G04 #@! TO.C,C4*
G36*
G01*
X36570000Y-3560000D02*
X36230000Y-3560000D01*
G75*
G02*
X36090000Y-3420000I0J140000D01*
G01*
X36090000Y-3140000D01*
G75*
G02*
X36230000Y-3000000I140000J0D01*
G01*
X36570000Y-3000000D01*
G75*
G02*
X36710000Y-3140000I0J-140000D01*
G01*
X36710000Y-3420000D01*
G75*
G02*
X36570000Y-3560000I-140000J0D01*
G01*
G37*
G36*
G01*
X36570000Y-2600000D02*
X36230000Y-2600000D01*
G75*
G02*
X36090000Y-2460000I0J140000D01*
G01*
X36090000Y-2180000D01*
G75*
G02*
X36230000Y-2040000I140000J0D01*
G01*
X36570000Y-2040000D01*
G75*
G02*
X36710000Y-2180000I0J-140000D01*
G01*
X36710000Y-2460000D01*
G75*
G02*
X36570000Y-2600000I-140000J0D01*
G01*
G37*
G04 #@! TD*
G04 #@! TO.C,TP6*
X57300000Y0D03*
G04 #@! TD*
G36*
X23735197Y-4008391D02*
G01*
X23759421Y-4013209D01*
X23829464Y-4034456D01*
X23852284Y-4043909D01*
X23916839Y-4078414D01*
X23937380Y-4092139D01*
X23993962Y-4138577D01*
X24011423Y-4156038D01*
X24057861Y-4212620D01*
X24071586Y-4233161D01*
X24106091Y-4297716D01*
X24115544Y-4320536D01*
X24136791Y-4390579D01*
X24141609Y-4414803D01*
X24148784Y-4487649D01*
X24148784Y-4512351D01*
X24141609Y-4585197D01*
X24136791Y-4609421D01*
X24115544Y-4679464D01*
X24106091Y-4702284D01*
X24071586Y-4766839D01*
X24057861Y-4787380D01*
X24011423Y-4843962D01*
X23993962Y-4861423D01*
X23937380Y-4907861D01*
X23916839Y-4921586D01*
X23852284Y-4956091D01*
X23829464Y-4965544D01*
X23759421Y-4986791D01*
X23735197Y-4991609D01*
X23662351Y-4998784D01*
X23637649Y-4998784D01*
X23564803Y-4991609D01*
X23540579Y-4986791D01*
X23470536Y-4965544D01*
X23447716Y-4956091D01*
X23383161Y-4921586D01*
X23362620Y-4907861D01*
X23306038Y-4861423D01*
X23288577Y-4843962D01*
X23242139Y-4787380D01*
X23228414Y-4766839D01*
X23193909Y-4702284D01*
X23184456Y-4679464D01*
X23163209Y-4609421D01*
X23158391Y-4585197D01*
X23151216Y-4512351D01*
X23151216Y-4487649D01*
X23158391Y-4414803D01*
X23163209Y-4390579D01*
X23184456Y-4320536D01*
X23193909Y-4297716D01*
X23228414Y-4233161D01*
X23242139Y-4212620D01*
X23288577Y-4156038D01*
X23306038Y-4138577D01*
X23362620Y-4092139D01*
X23383161Y-4078414D01*
X23447716Y-4043909D01*
X23470536Y-4034456D01*
X23540579Y-4013209D01*
X23564803Y-4008391D01*
X23637649Y-4001216D01*
X23662351Y-4001216D01*
X23735197Y-4008391D01*
G37*
G36*
X69385197Y-4008391D02*
G01*
X69409421Y-4013209D01*
X69479464Y-4034456D01*
X69502284Y-4043909D01*
X69566839Y-4078414D01*
X69587380Y-4092139D01*
X69643962Y-4138577D01*
X69661423Y-4156038D01*
X69707861Y-4212620D01*
X69721586Y-4233161D01*
X69756091Y-4297716D01*
X69765544Y-4320536D01*
X69786791Y-4390579D01*
X69791609Y-4414803D01*
X69798784Y-4487649D01*
X69798784Y-4512351D01*
X69791609Y-4585197D01*
X69786791Y-4609421D01*
X69765544Y-4679464D01*
X69756091Y-4702284D01*
X69721586Y-4766839D01*
X69707861Y-4787380D01*
X69661423Y-4843962D01*
X69643962Y-4861423D01*
X69587380Y-4907861D01*
X69566839Y-4921586D01*
X69502284Y-4956091D01*
X69479464Y-4965544D01*
X69409421Y-4986791D01*
X69385197Y-4991609D01*
X69312351Y-4998784D01*
X69287649Y-4998784D01*
X69214803Y-4991609D01*
X69190579Y-4986791D01*
X69120536Y-4965544D01*
X69097716Y-4956091D01*
X69033161Y-4921586D01*
X69012620Y-4907861D01*
X68956038Y-4861423D01*
X68938577Y-4843962D01*
X68892139Y-4787380D01*
X68878414Y-4766839D01*
X68843909Y-4702284D01*
X68834456Y-4679464D01*
X68813209Y-4609421D01*
X68808391Y-4585197D01*
X68801216Y-4512351D01*
X68801216Y-4487649D01*
X68808391Y-4414803D01*
X68813209Y-4390579D01*
X68834456Y-4320536D01*
X68843909Y-4297716D01*
X68878414Y-4233161D01*
X68892139Y-4212620D01*
X68938577Y-4156038D01*
X68956038Y-4138577D01*
X69012620Y-4092139D01*
X69033161Y-4078414D01*
X69097716Y-4043909D01*
X69120536Y-4034456D01*
X69190579Y-4013209D01*
X69214803Y-4008391D01*
X69287649Y-4001216D01*
X69312351Y-4001216D01*
X69385197Y-4008391D01*
G37*
G36*
X73085197Y-4008391D02*
G01*
X73109421Y-4013209D01*
X73179464Y-4034456D01*
X73202284Y-4043909D01*
X73266839Y-4078414D01*
X73287380Y-4092139D01*
X73343962Y-4138577D01*
X73361423Y-4156038D01*
X73407861Y-4212620D01*
X73421586Y-4233161D01*
X73456091Y-4297716D01*
X73465544Y-4320536D01*
X73486791Y-4390579D01*
X73491609Y-4414803D01*
X73498784Y-4487649D01*
X73498784Y-4512351D01*
X73491609Y-4585197D01*
X73486791Y-4609421D01*
X73465544Y-4679464D01*
X73456091Y-4702284D01*
X73421586Y-4766839D01*
X73407861Y-4787380D01*
X73361423Y-4843962D01*
X73343962Y-4861423D01*
X73287380Y-4907861D01*
X73266839Y-4921586D01*
X73202284Y-4956091D01*
X73179464Y-4965544D01*
X73109421Y-4986791D01*
X73085197Y-4991609D01*
X73012351Y-4998784D01*
X72987649Y-4998784D01*
X72914803Y-4991609D01*
X72890579Y-4986791D01*
X72820536Y-4965544D01*
X72797716Y-4956091D01*
X72733161Y-4921586D01*
X72712620Y-4907861D01*
X72656038Y-4861423D01*
X72638577Y-4843962D01*
X72592139Y-4787380D01*
X72578414Y-4766839D01*
X72543909Y-4702284D01*
X72534456Y-4679464D01*
X72513209Y-4609421D01*
X72508391Y-4585197D01*
X72501216Y-4512351D01*
X72501216Y-4487649D01*
X72508391Y-4414803D01*
X72513209Y-4390579D01*
X72534456Y-4320536D01*
X72543909Y-4297716D01*
X72578414Y-4233161D01*
X72592139Y-4212620D01*
X72638577Y-4156038D01*
X72656038Y-4138577D01*
X72712620Y-4092139D01*
X72733161Y-4078414D01*
X72797716Y-4043909D01*
X72820536Y-4034456D01*
X72890579Y-4013209D01*
X72914803Y-4008391D01*
X72987649Y-4001216D01*
X73012351Y-4001216D01*
X73085197Y-4008391D01*
G37*
M02*
