G04 #@! TF.GenerationSoftware,KiCad,Pcbnew,(5.99.0-3809-g61f1f7d948)*
G04 #@! TF.CreationDate,2020-10-12T17:30:48-07:00*
G04 #@! TF.ProjectId,RT_USB_PD_Soldering_Iron,52545f55-5342-45f5-9044-5f536f6c6465,rev?*
G04 #@! TF.SameCoordinates,PX5f5e100PY7735940*
G04 #@! TF.FileFunction,Paste,Bot*
G04 #@! TF.FilePolarity,Positive*
%FSLAX46Y46*%
G04 Gerber Fmt 4.6, Leading zero omitted, Abs format (unit mm)*
G04 Created by KiCad (PCBNEW (5.99.0-3809-g61f1f7d948)) date 2020-10-12 17:30:48*
%MOMM*%
%LPD*%
G01*
G04 APERTURE LIST*
G04 Aperture macros list*
%AMRoundRect*
0 Rectangle with rounded corners*
0 $1 Rounding radius*
0 $2 $3 $4 $5 $6 $7 $8 $9 X,Y pos of 4 corners*
0 Add a 4 corners polygon primitive as box body*
4,1,4,$2,$3,$4,$5,$6,$7,$8,$9,$2,$3,0*
0 Add four circle primitives for the rounded corners*
1,1,$1+$1,$2,$3,0*
1,1,$1+$1,$4,$5,0*
1,1,$1+$1,$6,$7,0*
1,1,$1+$1,$8,$9,0*
0 Add four rect primitives between the rounded corners*
20,1,$1+$1,$2,$3,$4,$5,0*
20,1,$1+$1,$4,$5,$6,$7,0*
20,1,$1+$1,$6,$7,$8,$9,0*
20,1,$1+$1,$8,$9,$2,$3,0*%
G04 Aperture macros list end*
%ADD10R,2.200000X2.100000*%
%ADD11R,2.800000X2.100000*%
%ADD12R,2.600000X2.700000*%
%ADD13RoundRect,0.237500X-0.237500X0.287500X-0.237500X-0.287500X0.237500X-0.287500X0.237500X0.287500X0*%
%ADD14RoundRect,0.135000X0.135000X0.185000X-0.135000X0.185000X-0.135000X-0.185000X0.135000X-0.185000X0*%
%ADD15RoundRect,0.135000X0.185000X-0.135000X0.185000X0.135000X-0.185000X0.135000X-0.185000X-0.135000X0*%
%ADD16RoundRect,0.150000X0.512500X0.150000X-0.512500X0.150000X-0.512500X-0.150000X0.512500X-0.150000X0*%
%ADD17RoundRect,0.140000X0.170000X-0.140000X0.170000X0.140000X-0.170000X0.140000X-0.170000X-0.140000X0*%
%ADD18RoundRect,0.237500X-0.287500X-0.237500X0.287500X-0.237500X0.287500X0.237500X-0.287500X0.237500X0*%
%ADD19RoundRect,0.140000X0.140000X0.170000X-0.140000X0.170000X-0.140000X-0.170000X0.140000X-0.170000X0*%
%ADD20RoundRect,0.135000X-0.185000X0.135000X-0.185000X-0.135000X0.185000X-0.135000X0.185000X0.135000X0*%
%ADD21RoundRect,0.232500X-0.328805X0.000000X0.000000X-0.328805X0.328805X0.000000X0.000000X0.328805X0*%
%ADD22RoundRect,0.062500X-0.309359X0.220971X0.220971X-0.309359X0.309359X-0.220971X-0.220971X0.309359X0*%
%ADD23RoundRect,0.062500X-0.309359X-0.220971X-0.220971X-0.309359X0.309359X0.220971X0.220971X0.309359X0*%
%ADD24RoundRect,0.237500X0.237500X-0.287500X0.237500X0.287500X-0.237500X0.287500X-0.237500X-0.287500X0*%
%ADD25RoundRect,0.137500X0.137500X0.262500X-0.137500X0.262500X-0.137500X-0.262500X0.137500X-0.262500X0*%
%ADD26RoundRect,0.140000X-0.170000X0.140000X-0.170000X-0.140000X0.170000X-0.140000X0.170000X0.140000X0*%
G04 APERTURE END LIST*
D10*
G04 #@! TO.C,J2*
X3000000Y-4050000D03*
X5200000Y4050000D03*
X2100000Y4050000D03*
D11*
X12800000Y-4050000D03*
D12*
X16800000Y750000D03*
G04 #@! TD*
D13*
G04 #@! TO.C,C16*
X19700000Y225000D03*
X19700000Y1975000D03*
G04 #@! TD*
G04 #@! TO.C,C1*
X67400000Y-1075000D03*
X67400000Y675000D03*
G04 #@! TD*
D14*
G04 #@! TO.C,R6*
X60014400Y1307528D03*
X58994400Y1307528D03*
G04 #@! TD*
D15*
G04 #@! TO.C,R4*
X35100000Y-2290000D03*
X35100000Y-3310000D03*
G04 #@! TD*
D16*
G04 #@! TO.C,U1*
X63838440Y754003D03*
X63838440Y-195997D03*
X63838440Y-1145997D03*
X61563440Y-1145997D03*
X61563440Y754003D03*
G04 #@! TD*
D17*
G04 #@! TO.C,C18*
X60001364Y91866D03*
X60001364Y-868134D03*
G04 #@! TD*
D18*
G04 #@! TO.C,C2*
X61525000Y2700000D03*
X63275000Y2700000D03*
G04 #@! TD*
D19*
G04 #@! TO.C,C3*
X61580000Y-2700000D03*
X60620000Y-2700000D03*
G04 #@! TD*
D18*
G04 #@! TO.C,C15*
X23725000Y-2800000D03*
X25475000Y-2800000D03*
G04 #@! TD*
D20*
G04 #@! TO.C,R2*
X37600000Y-3310000D03*
X37600000Y-2290000D03*
G04 #@! TD*
D21*
G04 #@! TO.C,U5*
X46386827Y813173D03*
X48013173Y-813173D03*
X47200000Y1626346D03*
X47200000Y0D03*
X45573654Y0D03*
X47200000Y-1626346D03*
X48826346Y0D03*
X48013173Y813173D03*
X46386827Y-813173D03*
D22*
X46713864Y-2961010D03*
X46360311Y-2607456D03*
X46006757Y-2253903D03*
X45653204Y-1900349D03*
X45299651Y-1546796D03*
X44946097Y-1193243D03*
X44592544Y-839689D03*
X44238990Y-486136D03*
D23*
X44238990Y486136D03*
X44592544Y839689D03*
X44946097Y1193243D03*
X45299651Y1546796D03*
X45653204Y1900349D03*
X46006757Y2253903D03*
X46360311Y2607456D03*
X46713864Y2961010D03*
D22*
X47686136Y2961010D03*
X48039689Y2607456D03*
X48393243Y2253903D03*
X48746796Y1900349D03*
X49100349Y1546796D03*
X49453903Y1193243D03*
X49807456Y839689D03*
X50161010Y486136D03*
D23*
X50161010Y-486136D03*
X49807456Y-839689D03*
X49453903Y-1193243D03*
X49100349Y-1546796D03*
X48746796Y-1900349D03*
X48393243Y-2253903D03*
X48039689Y-2607456D03*
X47686136Y-2961010D03*
G04 #@! TD*
D24*
G04 #@! TO.C,C33*
X65682677Y2346374D03*
X65682677Y596374D03*
G04 #@! TD*
D14*
G04 #@! TO.C,R7*
X60010000Y2508649D03*
X58990000Y2508649D03*
G04 #@! TD*
D25*
G04 #@! TO.C,D2*
X25325000Y2300000D03*
X23912500Y2300000D03*
G04 #@! TD*
D26*
G04 #@! TO.C,C4*
X36400000Y-3280000D03*
X36400000Y-2320000D03*
G04 #@! TD*
M02*
