G04 #@! TF.GenerationSoftware,KiCad,Pcbnew,(5.99.0-3477-gacf13a186)*
G04 #@! TF.CreationDate,2020-09-29T20:08:32-07:00*
G04 #@! TF.ProjectId,RT_USB_PD_Soldering_Iron,52545f55-5342-45f5-9044-5f536f6c6465,rev?*
G04 #@! TF.SameCoordinates,Original*
G04 #@! TF.FileFunction,Soldermask,Bot*
G04 #@! TF.FilePolarity,Negative*
%FSLAX46Y46*%
G04 Gerber Fmt 4.6, Leading zero omitted, Abs format (unit mm)*
G04 Created by KiCad (PCBNEW (5.99.0-3477-gacf13a186)) date 2020-09-29 20:08:32*
%MOMM*%
%LPD*%
G01*
G04 APERTURE LIST*
%ADD10R,2.600000X2.700000*%
%ADD11R,2.800000X2.100000*%
%ADD12R,2.200000X2.100000*%
%ADD13C,0.650000*%
%ADD14O,2.100000X1.000000*%
%ADD15O,1.800000X1.000000*%
%ADD16R,2.400000X0.740000*%
G04 APERTURE END LIST*
D10*
G04 #@! TO.C,J2*
X116800000Y-124250000D03*
D11*
X112800000Y-129050000D03*
D12*
X102100000Y-120950000D03*
X105200000Y-120950000D03*
X103000000Y-129050000D03*
G04 #@! TD*
D13*
G04 #@! TO.C,J1*
X194250000Y-122210000D03*
X194250000Y-127890000D03*
D14*
X193750000Y-120680000D03*
D15*
X197930000Y-120680000D03*
D14*
X193750000Y-129320000D03*
D15*
X197930000Y-129320000D03*
G04 #@! TD*
G04 #@! TO.C,C16*
G36*
G01*
X120537500Y-125200000D02*
X120062500Y-125200000D01*
G75*
G02*
X119825000Y-124962500I0J237500D01*
G01*
X119825000Y-124387500D01*
G75*
G02*
X120062500Y-124150000I237500J0D01*
G01*
X120537500Y-124150000D01*
G75*
G02*
X120775000Y-124387500I0J-237500D01*
G01*
X120775000Y-124962500D01*
G75*
G02*
X120537500Y-125200000I-237500J0D01*
G01*
G37*
G36*
G01*
X120537500Y-123450000D02*
X120062500Y-123450000D01*
G75*
G02*
X119825000Y-123212500I0J237500D01*
G01*
X119825000Y-122637500D01*
G75*
G02*
X120062500Y-122400000I237500J0D01*
G01*
X120537500Y-122400000D01*
G75*
G02*
X120775000Y-122637500I0J-237500D01*
G01*
X120775000Y-123212500D01*
G75*
G02*
X120537500Y-123450000I-237500J0D01*
G01*
G37*
G04 #@! TD*
G04 #@! TO.C,C1*
G36*
G01*
X189432515Y-126195724D02*
X188957515Y-126195724D01*
G75*
G02*
X188720015Y-125958224I0J237500D01*
G01*
X188720015Y-125383224D01*
G75*
G02*
X188957515Y-125145724I237500J0D01*
G01*
X189432515Y-125145724D01*
G75*
G02*
X189670015Y-125383224I0J-237500D01*
G01*
X189670015Y-125958224D01*
G75*
G02*
X189432515Y-126195724I-237500J0D01*
G01*
G37*
G36*
G01*
X189432515Y-124445724D02*
X188957515Y-124445724D01*
G75*
G02*
X188720015Y-124208224I0J237500D01*
G01*
X188720015Y-123633224D01*
G75*
G02*
X188957515Y-123395724I237500J0D01*
G01*
X189432515Y-123395724D01*
G75*
G02*
X189670015Y-123633224I0J-237500D01*
G01*
X189670015Y-124208224D01*
G75*
G02*
X189432515Y-124445724I-237500J0D01*
G01*
G37*
G04 #@! TD*
D16*
G04 #@! TO.C,J3*
X163750000Y-123330000D03*
X159850000Y-123330000D03*
X163750000Y-124600000D03*
X159850000Y-124600000D03*
X163750000Y-125870000D03*
X159850000Y-125870000D03*
G04 #@! TD*
G04 #@! TO.C,R6*
G36*
G01*
X173285110Y-123358571D02*
X173285110Y-123703571D01*
G75*
G02*
X173137610Y-123851071I-147500J0D01*
G01*
X172842610Y-123851071D01*
G75*
G02*
X172695110Y-123703571I0J147500D01*
G01*
X172695110Y-123358571D01*
G75*
G02*
X172842610Y-123211071I147500J0D01*
G01*
X173137610Y-123211071D01*
G75*
G02*
X173285110Y-123358571I0J-147500D01*
G01*
G37*
G36*
G01*
X172315110Y-123358571D02*
X172315110Y-123703571D01*
G75*
G02*
X172167610Y-123851071I-147500J0D01*
G01*
X171872610Y-123851071D01*
G75*
G02*
X171725110Y-123703571I0J147500D01*
G01*
X171725110Y-123358571D01*
G75*
G02*
X171872610Y-123211071I147500J0D01*
G01*
X172167610Y-123211071D01*
G75*
G02*
X172315110Y-123358571I0J-147500D01*
G01*
G37*
G04 #@! TD*
G04 #@! TO.C,C8*
G36*
G01*
X176480000Y-120727500D02*
X176480000Y-121072500D01*
G75*
G02*
X176332500Y-121220000I-147500J0D01*
G01*
X176037500Y-121220000D01*
G75*
G02*
X175890000Y-121072500I0J147500D01*
G01*
X175890000Y-120727500D01*
G75*
G02*
X176037500Y-120580000I147500J0D01*
G01*
X176332500Y-120580000D01*
G75*
G02*
X176480000Y-120727500I0J-147500D01*
G01*
G37*
G36*
G01*
X175510000Y-120727500D02*
X175510000Y-121072500D01*
G75*
G02*
X175362500Y-121220000I-147500J0D01*
G01*
X175067500Y-121220000D01*
G75*
G02*
X174920000Y-121072500I0J147500D01*
G01*
X174920000Y-120727500D01*
G75*
G02*
X175067500Y-120580000I147500J0D01*
G01*
X175362500Y-120580000D01*
G75*
G02*
X175510000Y-120727500I0J-147500D01*
G01*
G37*
G04 #@! TD*
G04 #@! TO.C,R4*
G36*
G01*
X144472500Y-125580000D02*
X144127500Y-125580000D01*
G75*
G02*
X143980000Y-125432500I0J147500D01*
G01*
X143980000Y-125137500D01*
G75*
G02*
X144127500Y-124990000I147500J0D01*
G01*
X144472500Y-124990000D01*
G75*
G02*
X144620000Y-125137500I0J-147500D01*
G01*
X144620000Y-125432500D01*
G75*
G02*
X144472500Y-125580000I-147500J0D01*
G01*
G37*
G36*
G01*
X144472500Y-124610000D02*
X144127500Y-124610000D01*
G75*
G02*
X143980000Y-124462500I0J147500D01*
G01*
X143980000Y-124167500D01*
G75*
G02*
X144127500Y-124020000I147500J0D01*
G01*
X144472500Y-124020000D01*
G75*
G02*
X144620000Y-124167500I0J-147500D01*
G01*
X144620000Y-124462500D01*
G75*
G02*
X144472500Y-124610000I-147500J0D01*
G01*
G37*
G04 #@! TD*
G04 #@! TO.C,U1*
G36*
G01*
X187275000Y-128325000D02*
X187075000Y-128325000D01*
G75*
G02*
X186975000Y-128225000I0J100000D01*
G01*
X186975000Y-126800000D01*
G75*
G02*
X187075000Y-126700000I100000J0D01*
G01*
X187275000Y-126700000D01*
G75*
G02*
X187375000Y-126800000I0J-100000D01*
G01*
X187375000Y-128225000D01*
G75*
G02*
X187275000Y-128325000I-100000J0D01*
G01*
G37*
G36*
G01*
X186625000Y-128325000D02*
X186425000Y-128325000D01*
G75*
G02*
X186325000Y-128225000I0J100000D01*
G01*
X186325000Y-126800000D01*
G75*
G02*
X186425000Y-126700000I100000J0D01*
G01*
X186625000Y-126700000D01*
G75*
G02*
X186725000Y-126800000I0J-100000D01*
G01*
X186725000Y-128225000D01*
G75*
G02*
X186625000Y-128325000I-100000J0D01*
G01*
G37*
G36*
G01*
X185975000Y-128325000D02*
X185775000Y-128325000D01*
G75*
G02*
X185675000Y-128225000I0J100000D01*
G01*
X185675000Y-126800000D01*
G75*
G02*
X185775000Y-126700000I100000J0D01*
G01*
X185975000Y-126700000D01*
G75*
G02*
X186075000Y-126800000I0J-100000D01*
G01*
X186075000Y-128225000D01*
G75*
G02*
X185975000Y-128325000I-100000J0D01*
G01*
G37*
G36*
G01*
X185325000Y-128325000D02*
X185125000Y-128325000D01*
G75*
G02*
X185025000Y-128225000I0J100000D01*
G01*
X185025000Y-126800000D01*
G75*
G02*
X185125000Y-126700000I100000J0D01*
G01*
X185325000Y-126700000D01*
G75*
G02*
X185425000Y-126800000I0J-100000D01*
G01*
X185425000Y-128225000D01*
G75*
G02*
X185325000Y-128325000I-100000J0D01*
G01*
G37*
G36*
G01*
X185325000Y-124100000D02*
X185125000Y-124100000D01*
G75*
G02*
X185025000Y-124000000I0J100000D01*
G01*
X185025000Y-122575000D01*
G75*
G02*
X185125000Y-122475000I100000J0D01*
G01*
X185325000Y-122475000D01*
G75*
G02*
X185425000Y-122575000I0J-100000D01*
G01*
X185425000Y-124000000D01*
G75*
G02*
X185325000Y-124100000I-100000J0D01*
G01*
G37*
G36*
G01*
X185975000Y-124100000D02*
X185775000Y-124100000D01*
G75*
G02*
X185675000Y-124000000I0J100000D01*
G01*
X185675000Y-122575000D01*
G75*
G02*
X185775000Y-122475000I100000J0D01*
G01*
X185975000Y-122475000D01*
G75*
G02*
X186075000Y-122575000I0J-100000D01*
G01*
X186075000Y-124000000D01*
G75*
G02*
X185975000Y-124100000I-100000J0D01*
G01*
G37*
G36*
G01*
X186625000Y-124100000D02*
X186425000Y-124100000D01*
G75*
G02*
X186325000Y-124000000I0J100000D01*
G01*
X186325000Y-122575000D01*
G75*
G02*
X186425000Y-122475000I100000J0D01*
G01*
X186625000Y-122475000D01*
G75*
G02*
X186725000Y-122575000I0J-100000D01*
G01*
X186725000Y-124000000D01*
G75*
G02*
X186625000Y-124100000I-100000J0D01*
G01*
G37*
G36*
G01*
X187275000Y-124100000D02*
X187075000Y-124100000D01*
G75*
G02*
X186975000Y-124000000I0J100000D01*
G01*
X186975000Y-122575000D01*
G75*
G02*
X187075000Y-122475000I100000J0D01*
G01*
X187275000Y-122475000D01*
G75*
G02*
X187375000Y-122575000I0J-100000D01*
G01*
X187375000Y-124000000D01*
G75*
G02*
X187275000Y-124100000I-100000J0D01*
G01*
G37*
G04 #@! TD*
G04 #@! TO.C,R1*
G36*
G01*
X190033023Y-127342002D02*
X190378023Y-127342002D01*
G75*
G02*
X190525523Y-127489502I0J-147500D01*
G01*
X190525523Y-127784502D01*
G75*
G02*
X190378023Y-127932002I-147500J0D01*
G01*
X190033023Y-127932002D01*
G75*
G02*
X189885523Y-127784502I0J147500D01*
G01*
X189885523Y-127489502D01*
G75*
G02*
X190033023Y-127342002I147500J0D01*
G01*
G37*
G36*
G01*
X190033023Y-128312002D02*
X190378023Y-128312002D01*
G75*
G02*
X190525523Y-128459502I0J-147500D01*
G01*
X190525523Y-128754502D01*
G75*
G02*
X190378023Y-128902002I-147500J0D01*
G01*
X190033023Y-128902002D01*
G75*
G02*
X189885523Y-128754502I0J147500D01*
G01*
X189885523Y-128459502D01*
G75*
G02*
X190033023Y-128312002I147500J0D01*
G01*
G37*
G04 #@! TD*
G04 #@! TO.C,R18*
G36*
G01*
X134273046Y-125955988D02*
X133928046Y-125955988D01*
G75*
G02*
X133780546Y-125808488I0J147500D01*
G01*
X133780546Y-125513488D01*
G75*
G02*
X133928046Y-125365988I147500J0D01*
G01*
X134273046Y-125365988D01*
G75*
G02*
X134420546Y-125513488I0J-147500D01*
G01*
X134420546Y-125808488D01*
G75*
G02*
X134273046Y-125955988I-147500J0D01*
G01*
G37*
G36*
G01*
X134273046Y-124985988D02*
X133928046Y-124985988D01*
G75*
G02*
X133780546Y-124838488I0J147500D01*
G01*
X133780546Y-124543488D01*
G75*
G02*
X133928046Y-124395988I147500J0D01*
G01*
X134273046Y-124395988D01*
G75*
G02*
X134420546Y-124543488I0J-147500D01*
G01*
X134420546Y-124838488D01*
G75*
G02*
X134273046Y-124985988I-147500J0D01*
G01*
G37*
G04 #@! TD*
G04 #@! TO.C,C18*
G36*
G01*
X170166287Y-126170807D02*
X169821287Y-126170807D01*
G75*
G02*
X169673787Y-126023307I0J147500D01*
G01*
X169673787Y-125728307D01*
G75*
G02*
X169821287Y-125580807I147500J0D01*
G01*
X170166287Y-125580807D01*
G75*
G02*
X170313787Y-125728307I0J-147500D01*
G01*
X170313787Y-126023307D01*
G75*
G02*
X170166287Y-126170807I-147500J0D01*
G01*
G37*
G36*
G01*
X170166287Y-125200807D02*
X169821287Y-125200807D01*
G75*
G02*
X169673787Y-125053307I0J147500D01*
G01*
X169673787Y-124758307D01*
G75*
G02*
X169821287Y-124610807I147500J0D01*
G01*
X170166287Y-124610807D01*
G75*
G02*
X170313787Y-124758307I0J-147500D01*
G01*
X170313787Y-125053307D01*
G75*
G02*
X170166287Y-125200807I-147500J0D01*
G01*
G37*
G04 #@! TD*
G04 #@! TO.C,C2*
G36*
G01*
X183339318Y-126493809D02*
X182864318Y-126493809D01*
G75*
G02*
X182626818Y-126256309I0J237500D01*
G01*
X182626818Y-125681309D01*
G75*
G02*
X182864318Y-125443809I237500J0D01*
G01*
X183339318Y-125443809D01*
G75*
G02*
X183576818Y-125681309I0J-237500D01*
G01*
X183576818Y-126256309D01*
G75*
G02*
X183339318Y-126493809I-237500J0D01*
G01*
G37*
G36*
G01*
X183339318Y-124743809D02*
X182864318Y-124743809D01*
G75*
G02*
X182626818Y-124506309I0J237500D01*
G01*
X182626818Y-123931309D01*
G75*
G02*
X182864318Y-123693809I237500J0D01*
G01*
X183339318Y-123693809D01*
G75*
G02*
X183576818Y-123931309I0J-237500D01*
G01*
X183576818Y-124506309D01*
G75*
G02*
X183339318Y-124743809I-237500J0D01*
G01*
G37*
G04 #@! TD*
G04 #@! TO.C,C6*
G36*
G01*
X176772500Y-125880000D02*
X176427500Y-125880000D01*
G75*
G02*
X176280000Y-125732500I0J147500D01*
G01*
X176280000Y-125437500D01*
G75*
G02*
X176427500Y-125290000I147500J0D01*
G01*
X176772500Y-125290000D01*
G75*
G02*
X176920000Y-125437500I0J-147500D01*
G01*
X176920000Y-125732500D01*
G75*
G02*
X176772500Y-125880000I-147500J0D01*
G01*
G37*
G36*
G01*
X176772500Y-124910000D02*
X176427500Y-124910000D01*
G75*
G02*
X176280000Y-124762500I0J147500D01*
G01*
X176280000Y-124467500D01*
G75*
G02*
X176427500Y-124320000I147500J0D01*
G01*
X176772500Y-124320000D01*
G75*
G02*
X176920000Y-124467500I0J-147500D01*
G01*
X176920000Y-124762500D01*
G75*
G02*
X176772500Y-124910000I-147500J0D01*
G01*
G37*
G04 #@! TD*
G04 #@! TO.C,C7*
G36*
G01*
X175172500Y-125880000D02*
X174827500Y-125880000D01*
G75*
G02*
X174680000Y-125732500I0J147500D01*
G01*
X174680000Y-125437500D01*
G75*
G02*
X174827500Y-125290000I147500J0D01*
G01*
X175172500Y-125290000D01*
G75*
G02*
X175320000Y-125437500I0J-147500D01*
G01*
X175320000Y-125732500D01*
G75*
G02*
X175172500Y-125880000I-147500J0D01*
G01*
G37*
G36*
G01*
X175172500Y-124910000D02*
X174827500Y-124910000D01*
G75*
G02*
X174680000Y-124762500I0J147500D01*
G01*
X174680000Y-124467500D01*
G75*
G02*
X174827500Y-124320000I147500J0D01*
G01*
X175172500Y-124320000D01*
G75*
G02*
X175320000Y-124467500I0J-147500D01*
G01*
X175320000Y-124762500D01*
G75*
G02*
X175172500Y-124910000I-147500J0D01*
G01*
G37*
G04 #@! TD*
G04 #@! TO.C,C10*
G36*
G01*
X180972500Y-125780000D02*
X180627500Y-125780000D01*
G75*
G02*
X180480000Y-125632500I0J147500D01*
G01*
X180480000Y-125337500D01*
G75*
G02*
X180627500Y-125190000I147500J0D01*
G01*
X180972500Y-125190000D01*
G75*
G02*
X181120000Y-125337500I0J-147500D01*
G01*
X181120000Y-125632500D01*
G75*
G02*
X180972500Y-125780000I-147500J0D01*
G01*
G37*
G36*
G01*
X180972500Y-124810000D02*
X180627500Y-124810000D01*
G75*
G02*
X180480000Y-124662500I0J147500D01*
G01*
X180480000Y-124367500D01*
G75*
G02*
X180627500Y-124220000I147500J0D01*
G01*
X180972500Y-124220000D01*
G75*
G02*
X181120000Y-124367500I0J-147500D01*
G01*
X181120000Y-124662500D01*
G75*
G02*
X180972500Y-124810000I-147500J0D01*
G01*
G37*
G04 #@! TD*
G04 #@! TO.C,C15*
G36*
G01*
X124600000Y-128037500D02*
X124600000Y-127562500D01*
G75*
G02*
X124837500Y-127325000I237500J0D01*
G01*
X125412500Y-127325000D01*
G75*
G02*
X125650000Y-127562500I0J-237500D01*
G01*
X125650000Y-128037500D01*
G75*
G02*
X125412500Y-128275000I-237500J0D01*
G01*
X124837500Y-128275000D01*
G75*
G02*
X124600000Y-128037500I0J237500D01*
G01*
G37*
G36*
G01*
X126350000Y-128037500D02*
X126350000Y-127562500D01*
G75*
G02*
X126587500Y-127325000I237500J0D01*
G01*
X127162500Y-127325000D01*
G75*
G02*
X127400000Y-127562500I0J-237500D01*
G01*
X127400000Y-128037500D01*
G75*
G02*
X127162500Y-128275000I-237500J0D01*
G01*
X126587500Y-128275000D01*
G75*
G02*
X126350000Y-128037500I0J237500D01*
G01*
G37*
G04 #@! TD*
G04 #@! TO.C,C19*
G36*
G01*
X168166642Y-126184455D02*
X167821642Y-126184455D01*
G75*
G02*
X167674142Y-126036955I0J147500D01*
G01*
X167674142Y-125741955D01*
G75*
G02*
X167821642Y-125594455I147500J0D01*
G01*
X168166642Y-125594455D01*
G75*
G02*
X168314142Y-125741955I0J-147500D01*
G01*
X168314142Y-126036955D01*
G75*
G02*
X168166642Y-126184455I-147500J0D01*
G01*
G37*
G36*
G01*
X168166642Y-125214455D02*
X167821642Y-125214455D01*
G75*
G02*
X167674142Y-125066955I0J147500D01*
G01*
X167674142Y-124771955D01*
G75*
G02*
X167821642Y-124624455I147500J0D01*
G01*
X168166642Y-124624455D01*
G75*
G02*
X168314142Y-124771955I0J-147500D01*
G01*
X168314142Y-125066955D01*
G75*
G02*
X168166642Y-125214455I-147500J0D01*
G01*
G37*
G04 #@! TD*
G04 #@! TO.C,R2*
G36*
G01*
X142772500Y-128149784D02*
X142427500Y-128149784D01*
G75*
G02*
X142280000Y-128002284I0J147500D01*
G01*
X142280000Y-127707284D01*
G75*
G02*
X142427500Y-127559784I147500J0D01*
G01*
X142772500Y-127559784D01*
G75*
G02*
X142920000Y-127707284I0J-147500D01*
G01*
X142920000Y-128002284D01*
G75*
G02*
X142772500Y-128149784I-147500J0D01*
G01*
G37*
G36*
G01*
X142772500Y-127179784D02*
X142427500Y-127179784D01*
G75*
G02*
X142280000Y-127032284I0J147500D01*
G01*
X142280000Y-126737284D01*
G75*
G02*
X142427500Y-126589784I147500J0D01*
G01*
X142772500Y-126589784D01*
G75*
G02*
X142920000Y-126737284I0J-147500D01*
G01*
X142920000Y-127032284D01*
G75*
G02*
X142772500Y-127179784I-147500J0D01*
G01*
G37*
G04 #@! TD*
G04 #@! TO.C,U5*
G36*
G01*
X152248699Y-127814563D02*
X152160311Y-127726175D01*
G75*
G02*
X152160311Y-127637787I44194J44194D01*
G01*
X152690641Y-127107457D01*
G75*
G02*
X152779029Y-127107457I44194J-44194D01*
G01*
X152867417Y-127195845D01*
G75*
G02*
X152867417Y-127284233I-44194J-44194D01*
G01*
X152337087Y-127814563D01*
G75*
G02*
X152248699Y-127814563I-44194J44194D01*
G01*
G37*
G36*
G01*
X151895146Y-127461009D02*
X151806758Y-127372621D01*
G75*
G02*
X151806758Y-127284233I44194J44194D01*
G01*
X152337088Y-126753903D01*
G75*
G02*
X152425476Y-126753903I44194J-44194D01*
G01*
X152513864Y-126842291D01*
G75*
G02*
X152513864Y-126930679I-44194J-44194D01*
G01*
X151983534Y-127461009D01*
G75*
G02*
X151895146Y-127461009I-44194J44194D01*
G01*
G37*
G36*
G01*
X151541592Y-127107456D02*
X151453204Y-127019068D01*
G75*
G02*
X151453204Y-126930680I44194J44194D01*
G01*
X151983534Y-126400350D01*
G75*
G02*
X152071922Y-126400350I44194J-44194D01*
G01*
X152160310Y-126488738D01*
G75*
G02*
X152160310Y-126577126I-44194J-44194D01*
G01*
X151629980Y-127107456D01*
G75*
G02*
X151541592Y-127107456I-44194J44194D01*
G01*
G37*
G36*
G01*
X151188039Y-126753902D02*
X151099651Y-126665514D01*
G75*
G02*
X151099651Y-126577126I44194J44194D01*
G01*
X151629981Y-126046796D01*
G75*
G02*
X151718369Y-126046796I44194J-44194D01*
G01*
X151806757Y-126135184D01*
G75*
G02*
X151806757Y-126223572I-44194J-44194D01*
G01*
X151276427Y-126753902D01*
G75*
G02*
X151188039Y-126753902I-44194J44194D01*
G01*
G37*
G36*
G01*
X150834486Y-126400349D02*
X150746098Y-126311961D01*
G75*
G02*
X150746098Y-126223573I44194J44194D01*
G01*
X151276428Y-125693243D01*
G75*
G02*
X151364816Y-125693243I44194J-44194D01*
G01*
X151453204Y-125781631D01*
G75*
G02*
X151453204Y-125870019I-44194J-44194D01*
G01*
X150922874Y-126400349D01*
G75*
G02*
X150834486Y-126400349I-44194J44194D01*
G01*
G37*
G36*
G01*
X150480932Y-126046796D02*
X150392544Y-125958408D01*
G75*
G02*
X150392544Y-125870020I44194J44194D01*
G01*
X150922874Y-125339690D01*
G75*
G02*
X151011262Y-125339690I44194J-44194D01*
G01*
X151099650Y-125428078D01*
G75*
G02*
X151099650Y-125516466I-44194J-44194D01*
G01*
X150569320Y-126046796D01*
G75*
G02*
X150480932Y-126046796I-44194J44194D01*
G01*
G37*
G36*
G01*
X150127379Y-125693242D02*
X150038991Y-125604854D01*
G75*
G02*
X150038991Y-125516466I44194J44194D01*
G01*
X150569321Y-124986136D01*
G75*
G02*
X150657709Y-124986136I44194J-44194D01*
G01*
X150746097Y-125074524D01*
G75*
G02*
X150746097Y-125162912I-44194J-44194D01*
G01*
X150215767Y-125693242D01*
G75*
G02*
X150127379Y-125693242I-44194J44194D01*
G01*
G37*
G36*
G01*
X149773825Y-125339689D02*
X149685437Y-125251301D01*
G75*
G02*
X149685437Y-125162913I44194J44194D01*
G01*
X150215767Y-124632583D01*
G75*
G02*
X150304155Y-124632583I44194J-44194D01*
G01*
X150392543Y-124720971D01*
G75*
G02*
X150392543Y-124809359I-44194J-44194D01*
G01*
X149862213Y-125339689D01*
G75*
G02*
X149773825Y-125339689I-44194J44194D01*
G01*
G37*
G36*
G01*
X150215767Y-124367417D02*
X149685437Y-123837087D01*
G75*
G02*
X149685437Y-123748699I44194J44194D01*
G01*
X149773825Y-123660311D01*
G75*
G02*
X149862213Y-123660311I44194J-44194D01*
G01*
X150392543Y-124190641D01*
G75*
G02*
X150392543Y-124279029I-44194J-44194D01*
G01*
X150304155Y-124367417D01*
G75*
G02*
X150215767Y-124367417I-44194J44194D01*
G01*
G37*
G36*
G01*
X150569321Y-124013864D02*
X150038991Y-123483534D01*
G75*
G02*
X150038991Y-123395146I44194J44194D01*
G01*
X150127379Y-123306758D01*
G75*
G02*
X150215767Y-123306758I44194J-44194D01*
G01*
X150746097Y-123837088D01*
G75*
G02*
X150746097Y-123925476I-44194J-44194D01*
G01*
X150657709Y-124013864D01*
G75*
G02*
X150569321Y-124013864I-44194J44194D01*
G01*
G37*
G36*
G01*
X150922874Y-123660310D02*
X150392544Y-123129980D01*
G75*
G02*
X150392544Y-123041592I44194J44194D01*
G01*
X150480932Y-122953204D01*
G75*
G02*
X150569320Y-122953204I44194J-44194D01*
G01*
X151099650Y-123483534D01*
G75*
G02*
X151099650Y-123571922I-44194J-44194D01*
G01*
X151011262Y-123660310D01*
G75*
G02*
X150922874Y-123660310I-44194J44194D01*
G01*
G37*
G36*
G01*
X151276428Y-123306757D02*
X150746098Y-122776427D01*
G75*
G02*
X150746098Y-122688039I44194J44194D01*
G01*
X150834486Y-122599651D01*
G75*
G02*
X150922874Y-122599651I44194J-44194D01*
G01*
X151453204Y-123129981D01*
G75*
G02*
X151453204Y-123218369I-44194J-44194D01*
G01*
X151364816Y-123306757D01*
G75*
G02*
X151276428Y-123306757I-44194J44194D01*
G01*
G37*
G36*
G01*
X151629981Y-122953204D02*
X151099651Y-122422874D01*
G75*
G02*
X151099651Y-122334486I44194J44194D01*
G01*
X151188039Y-122246098D01*
G75*
G02*
X151276427Y-122246098I44194J-44194D01*
G01*
X151806757Y-122776428D01*
G75*
G02*
X151806757Y-122864816I-44194J-44194D01*
G01*
X151718369Y-122953204D01*
G75*
G02*
X151629981Y-122953204I-44194J44194D01*
G01*
G37*
G36*
G01*
X151983534Y-122599650D02*
X151453204Y-122069320D01*
G75*
G02*
X151453204Y-121980932I44194J44194D01*
G01*
X151541592Y-121892544D01*
G75*
G02*
X151629980Y-121892544I44194J-44194D01*
G01*
X152160310Y-122422874D01*
G75*
G02*
X152160310Y-122511262I-44194J-44194D01*
G01*
X152071922Y-122599650D01*
G75*
G02*
X151983534Y-122599650I-44194J44194D01*
G01*
G37*
G36*
G01*
X152337088Y-122246097D02*
X151806758Y-121715767D01*
G75*
G02*
X151806758Y-121627379I44194J44194D01*
G01*
X151895146Y-121538991D01*
G75*
G02*
X151983534Y-121538991I44194J-44194D01*
G01*
X152513864Y-122069321D01*
G75*
G02*
X152513864Y-122157709I-44194J-44194D01*
G01*
X152425476Y-122246097D01*
G75*
G02*
X152337088Y-122246097I-44194J44194D01*
G01*
G37*
G36*
G01*
X152690641Y-121892543D02*
X152160311Y-121362213D01*
G75*
G02*
X152160311Y-121273825I44194J44194D01*
G01*
X152248699Y-121185437D01*
G75*
G02*
X152337087Y-121185437I44194J-44194D01*
G01*
X152867417Y-121715767D01*
G75*
G02*
X152867417Y-121804155I-44194J-44194D01*
G01*
X152779029Y-121892543D01*
G75*
G02*
X152690641Y-121892543I-44194J44194D01*
G01*
G37*
G36*
G01*
X153220971Y-121892543D02*
X153132583Y-121804155D01*
G75*
G02*
X153132583Y-121715767I44194J44194D01*
G01*
X153662913Y-121185437D01*
G75*
G02*
X153751301Y-121185437I44194J-44194D01*
G01*
X153839689Y-121273825D01*
G75*
G02*
X153839689Y-121362213I-44194J-44194D01*
G01*
X153309359Y-121892543D01*
G75*
G02*
X153220971Y-121892543I-44194J44194D01*
G01*
G37*
G36*
G01*
X153574524Y-122246097D02*
X153486136Y-122157709D01*
G75*
G02*
X153486136Y-122069321I44194J44194D01*
G01*
X154016466Y-121538991D01*
G75*
G02*
X154104854Y-121538991I44194J-44194D01*
G01*
X154193242Y-121627379D01*
G75*
G02*
X154193242Y-121715767I-44194J-44194D01*
G01*
X153662912Y-122246097D01*
G75*
G02*
X153574524Y-122246097I-44194J44194D01*
G01*
G37*
G36*
G01*
X153928078Y-122599650D02*
X153839690Y-122511262D01*
G75*
G02*
X153839690Y-122422874I44194J44194D01*
G01*
X154370020Y-121892544D01*
G75*
G02*
X154458408Y-121892544I44194J-44194D01*
G01*
X154546796Y-121980932D01*
G75*
G02*
X154546796Y-122069320I-44194J-44194D01*
G01*
X154016466Y-122599650D01*
G75*
G02*
X153928078Y-122599650I-44194J44194D01*
G01*
G37*
G36*
G01*
X154281631Y-122953204D02*
X154193243Y-122864816D01*
G75*
G02*
X154193243Y-122776428I44194J44194D01*
G01*
X154723573Y-122246098D01*
G75*
G02*
X154811961Y-122246098I44194J-44194D01*
G01*
X154900349Y-122334486D01*
G75*
G02*
X154900349Y-122422874I-44194J-44194D01*
G01*
X154370019Y-122953204D01*
G75*
G02*
X154281631Y-122953204I-44194J44194D01*
G01*
G37*
G36*
G01*
X154635184Y-123306757D02*
X154546796Y-123218369D01*
G75*
G02*
X154546796Y-123129981I44194J44194D01*
G01*
X155077126Y-122599651D01*
G75*
G02*
X155165514Y-122599651I44194J-44194D01*
G01*
X155253902Y-122688039D01*
G75*
G02*
X155253902Y-122776427I-44194J-44194D01*
G01*
X154723572Y-123306757D01*
G75*
G02*
X154635184Y-123306757I-44194J44194D01*
G01*
G37*
G36*
G01*
X154988738Y-123660310D02*
X154900350Y-123571922D01*
G75*
G02*
X154900350Y-123483534I44194J44194D01*
G01*
X155430680Y-122953204D01*
G75*
G02*
X155519068Y-122953204I44194J-44194D01*
G01*
X155607456Y-123041592D01*
G75*
G02*
X155607456Y-123129980I-44194J-44194D01*
G01*
X155077126Y-123660310D01*
G75*
G02*
X154988738Y-123660310I-44194J44194D01*
G01*
G37*
G36*
G01*
X155342291Y-124013864D02*
X155253903Y-123925476D01*
G75*
G02*
X155253903Y-123837088I44194J44194D01*
G01*
X155784233Y-123306758D01*
G75*
G02*
X155872621Y-123306758I44194J-44194D01*
G01*
X155961009Y-123395146D01*
G75*
G02*
X155961009Y-123483534I-44194J-44194D01*
G01*
X155430679Y-124013864D01*
G75*
G02*
X155342291Y-124013864I-44194J44194D01*
G01*
G37*
G36*
G01*
X155695845Y-124367417D02*
X155607457Y-124279029D01*
G75*
G02*
X155607457Y-124190641I44194J44194D01*
G01*
X156137787Y-123660311D01*
G75*
G02*
X156226175Y-123660311I44194J-44194D01*
G01*
X156314563Y-123748699D01*
G75*
G02*
X156314563Y-123837087I-44194J-44194D01*
G01*
X155784233Y-124367417D01*
G75*
G02*
X155695845Y-124367417I-44194J44194D01*
G01*
G37*
G36*
G01*
X156137787Y-125339689D02*
X155607457Y-124809359D01*
G75*
G02*
X155607457Y-124720971I44194J44194D01*
G01*
X155695845Y-124632583D01*
G75*
G02*
X155784233Y-124632583I44194J-44194D01*
G01*
X156314563Y-125162913D01*
G75*
G02*
X156314563Y-125251301I-44194J-44194D01*
G01*
X156226175Y-125339689D01*
G75*
G02*
X156137787Y-125339689I-44194J44194D01*
G01*
G37*
G36*
G01*
X155784233Y-125693242D02*
X155253903Y-125162912D01*
G75*
G02*
X155253903Y-125074524I44194J44194D01*
G01*
X155342291Y-124986136D01*
G75*
G02*
X155430679Y-124986136I44194J-44194D01*
G01*
X155961009Y-125516466D01*
G75*
G02*
X155961009Y-125604854I-44194J-44194D01*
G01*
X155872621Y-125693242D01*
G75*
G02*
X155784233Y-125693242I-44194J44194D01*
G01*
G37*
G36*
G01*
X155430680Y-126046796D02*
X154900350Y-125516466D01*
G75*
G02*
X154900350Y-125428078I44194J44194D01*
G01*
X154988738Y-125339690D01*
G75*
G02*
X155077126Y-125339690I44194J-44194D01*
G01*
X155607456Y-125870020D01*
G75*
G02*
X155607456Y-125958408I-44194J-44194D01*
G01*
X155519068Y-126046796D01*
G75*
G02*
X155430680Y-126046796I-44194J44194D01*
G01*
G37*
G36*
G01*
X155077126Y-126400349D02*
X154546796Y-125870019D01*
G75*
G02*
X154546796Y-125781631I44194J44194D01*
G01*
X154635184Y-125693243D01*
G75*
G02*
X154723572Y-125693243I44194J-44194D01*
G01*
X155253902Y-126223573D01*
G75*
G02*
X155253902Y-126311961I-44194J-44194D01*
G01*
X155165514Y-126400349D01*
G75*
G02*
X155077126Y-126400349I-44194J44194D01*
G01*
G37*
G36*
G01*
X154723573Y-126753902D02*
X154193243Y-126223572D01*
G75*
G02*
X154193243Y-126135184I44194J44194D01*
G01*
X154281631Y-126046796D01*
G75*
G02*
X154370019Y-126046796I44194J-44194D01*
G01*
X154900349Y-126577126D01*
G75*
G02*
X154900349Y-126665514I-44194J-44194D01*
G01*
X154811961Y-126753902D01*
G75*
G02*
X154723573Y-126753902I-44194J44194D01*
G01*
G37*
G36*
G01*
X154370020Y-127107456D02*
X153839690Y-126577126D01*
G75*
G02*
X153839690Y-126488738I44194J44194D01*
G01*
X153928078Y-126400350D01*
G75*
G02*
X154016466Y-126400350I44194J-44194D01*
G01*
X154546796Y-126930680D01*
G75*
G02*
X154546796Y-127019068I-44194J-44194D01*
G01*
X154458408Y-127107456D01*
G75*
G02*
X154370020Y-127107456I-44194J44194D01*
G01*
G37*
G36*
G01*
X154016466Y-127461009D02*
X153486136Y-126930679D01*
G75*
G02*
X153486136Y-126842291I44194J44194D01*
G01*
X153574524Y-126753903D01*
G75*
G02*
X153662912Y-126753903I44194J-44194D01*
G01*
X154193242Y-127284233D01*
G75*
G02*
X154193242Y-127372621I-44194J-44194D01*
G01*
X154104854Y-127461009D01*
G75*
G02*
X154016466Y-127461009I-44194J44194D01*
G01*
G37*
G36*
G01*
X153662913Y-127814563D02*
X153132583Y-127284233D01*
G75*
G02*
X153132583Y-127195845I44194J44194D01*
G01*
X153220971Y-127107457D01*
G75*
G02*
X153309359Y-127107457I44194J-44194D01*
G01*
X153839689Y-127637787D01*
G75*
G02*
X153839689Y-127726175I-44194J-44194D01*
G01*
X153751301Y-127814563D01*
G75*
G02*
X153662913Y-127814563I-44194J44194D01*
G01*
G37*
G36*
X153000000Y-126939518D02*
G01*
X150560482Y-124500000D01*
X153000000Y-122060482D01*
X155439518Y-124500000D01*
X153000000Y-126939518D01*
G37*
G04 #@! TD*
G04 #@! TO.C,C33*
G36*
G01*
X191433964Y-126203589D02*
X190958964Y-126203589D01*
G75*
G02*
X190721464Y-125966089I0J237500D01*
G01*
X190721464Y-125391089D01*
G75*
G02*
X190958964Y-125153589I237500J0D01*
G01*
X191433964Y-125153589D01*
G75*
G02*
X191671464Y-125391089I0J-237500D01*
G01*
X191671464Y-125966089D01*
G75*
G02*
X191433964Y-126203589I-237500J0D01*
G01*
G37*
G36*
G01*
X191433964Y-124453589D02*
X190958964Y-124453589D01*
G75*
G02*
X190721464Y-124216089I0J237500D01*
G01*
X190721464Y-123641089D01*
G75*
G02*
X190958964Y-123403589I237500J0D01*
G01*
X191433964Y-123403589D01*
G75*
G02*
X191671464Y-123641089I0J-237500D01*
G01*
X191671464Y-124216089D01*
G75*
G02*
X191433964Y-124453589I-237500J0D01*
G01*
G37*
G04 #@! TD*
G04 #@! TO.C,R3*
G36*
G01*
X188797072Y-127342002D02*
X189142072Y-127342002D01*
G75*
G02*
X189289572Y-127489502I0J-147500D01*
G01*
X189289572Y-127784502D01*
G75*
G02*
X189142072Y-127932002I-147500J0D01*
G01*
X188797072Y-127932002D01*
G75*
G02*
X188649572Y-127784502I0J147500D01*
G01*
X188649572Y-127489502D01*
G75*
G02*
X188797072Y-127342002I147500J0D01*
G01*
G37*
G36*
G01*
X188797072Y-128312002D02*
X189142072Y-128312002D01*
G75*
G02*
X189289572Y-128459502I0J-147500D01*
G01*
X189289572Y-128754502D01*
G75*
G02*
X189142072Y-128902002I-147500J0D01*
G01*
X188797072Y-128902002D01*
G75*
G02*
X188649572Y-128754502I0J147500D01*
G01*
X188649572Y-128459502D01*
G75*
G02*
X188797072Y-128312002I147500J0D01*
G01*
G37*
G04 #@! TD*
G04 #@! TO.C,R7*
G36*
G01*
X173271390Y-122134921D02*
X173271390Y-122479921D01*
G75*
G02*
X173123890Y-122627421I-147500J0D01*
G01*
X172828890Y-122627421D01*
G75*
G02*
X172681390Y-122479921I0J147500D01*
G01*
X172681390Y-122134921D01*
G75*
G02*
X172828890Y-121987421I147500J0D01*
G01*
X173123890Y-121987421D01*
G75*
G02*
X173271390Y-122134921I0J-147500D01*
G01*
G37*
G36*
G01*
X172301390Y-122134921D02*
X172301390Y-122479921D01*
G75*
G02*
X172153890Y-122627421I-147500J0D01*
G01*
X171858890Y-122627421D01*
G75*
G02*
X171711390Y-122479921I0J147500D01*
G01*
X171711390Y-122134921D01*
G75*
G02*
X171858890Y-121987421I147500J0D01*
G01*
X172153890Y-121987421D01*
G75*
G02*
X172301390Y-122134921I0J-147500D01*
G01*
G37*
G04 #@! TD*
G04 #@! TO.C,C28*
G36*
G01*
X136172500Y-125996253D02*
X135827500Y-125996253D01*
G75*
G02*
X135680000Y-125848753I0J147500D01*
G01*
X135680000Y-125553753D01*
G75*
G02*
X135827500Y-125406253I147500J0D01*
G01*
X136172500Y-125406253D01*
G75*
G02*
X136320000Y-125553753I0J-147500D01*
G01*
X136320000Y-125848753D01*
G75*
G02*
X136172500Y-125996253I-147500J0D01*
G01*
G37*
G36*
G01*
X136172500Y-125026253D02*
X135827500Y-125026253D01*
G75*
G02*
X135680000Y-124878753I0J147500D01*
G01*
X135680000Y-124583753D01*
G75*
G02*
X135827500Y-124436253I147500J0D01*
G01*
X136172500Y-124436253D01*
G75*
G02*
X136320000Y-124583753I0J-147500D01*
G01*
X136320000Y-124878753D01*
G75*
G02*
X136172500Y-125026253I-147500J0D01*
G01*
G37*
G04 #@! TD*
G04 #@! TO.C,D2*
G36*
G01*
X126900000Y-122437500D02*
X126900000Y-122962500D01*
G75*
G02*
X126762500Y-123100000I-137500J0D01*
G01*
X126487500Y-123100000D01*
G75*
G02*
X126350000Y-122962500I0J137500D01*
G01*
X126350000Y-122437500D01*
G75*
G02*
X126487500Y-122300000I137500J0D01*
G01*
X126762500Y-122300000D01*
G75*
G02*
X126900000Y-122437500I0J-137500D01*
G01*
G37*
G36*
G01*
X125487500Y-122437500D02*
X125487500Y-122962500D01*
G75*
G02*
X125350000Y-123100000I-137500J0D01*
G01*
X125075000Y-123100000D01*
G75*
G02*
X124937500Y-122962500I0J137500D01*
G01*
X124937500Y-122437500D01*
G75*
G02*
X125075000Y-122300000I137500J0D01*
G01*
X125350000Y-122300000D01*
G75*
G02*
X125487500Y-122437500I0J-137500D01*
G01*
G37*
G04 #@! TD*
G04 #@! TO.C,C9*
G36*
G01*
X180420000Y-128172500D02*
X180420000Y-127827500D01*
G75*
G02*
X180567500Y-127680000I147500J0D01*
G01*
X180862500Y-127680000D01*
G75*
G02*
X181010000Y-127827500I0J-147500D01*
G01*
X181010000Y-128172500D01*
G75*
G02*
X180862500Y-128320000I-147500J0D01*
G01*
X180567500Y-128320000D01*
G75*
G02*
X180420000Y-128172500I0J147500D01*
G01*
G37*
G36*
G01*
X181390000Y-128172500D02*
X181390000Y-127827500D01*
G75*
G02*
X181537500Y-127680000I147500J0D01*
G01*
X181832500Y-127680000D01*
G75*
G02*
X181980000Y-127827500I0J-147500D01*
G01*
X181980000Y-128172500D01*
G75*
G02*
X181832500Y-128320000I-147500J0D01*
G01*
X181537500Y-128320000D01*
G75*
G02*
X181390000Y-128172500I0J147500D01*
G01*
G37*
G04 #@! TD*
G04 #@! TO.C,C4*
G36*
G01*
X142427500Y-124020000D02*
X142772500Y-124020000D01*
G75*
G02*
X142920000Y-124167500I0J-147500D01*
G01*
X142920000Y-124462500D01*
G75*
G02*
X142772500Y-124610000I-147500J0D01*
G01*
X142427500Y-124610000D01*
G75*
G02*
X142280000Y-124462500I0J147500D01*
G01*
X142280000Y-124167500D01*
G75*
G02*
X142427500Y-124020000I147500J0D01*
G01*
G37*
G36*
G01*
X142427500Y-124990000D02*
X142772500Y-124990000D01*
G75*
G02*
X142920000Y-125137500I0J-147500D01*
G01*
X142920000Y-125432500D01*
G75*
G02*
X142772500Y-125580000I-147500J0D01*
G01*
X142427500Y-125580000D01*
G75*
G02*
X142280000Y-125432500I0J147500D01*
G01*
X142280000Y-125137500D01*
G75*
G02*
X142427500Y-124990000I147500J0D01*
G01*
G37*
G04 #@! TD*
G36*
X125062964Y-128814872D02*
G01*
X125094735Y-128823385D01*
X125184674Y-128860639D01*
X125213160Y-128877086D01*
X125290393Y-128936349D01*
X125313651Y-128959607D01*
X125372914Y-129036840D01*
X125389361Y-129065326D01*
X125426615Y-129155265D01*
X125435128Y-129187036D01*
X125447835Y-129283553D01*
X125447835Y-129316447D01*
X125435128Y-129412964D01*
X125426615Y-129444735D01*
X125389361Y-129534674D01*
X125372914Y-129563160D01*
X125313651Y-129640393D01*
X125290393Y-129663651D01*
X125213160Y-129722914D01*
X125184674Y-129739361D01*
X125094735Y-129776615D01*
X125062964Y-129785128D01*
X124966447Y-129797835D01*
X124933553Y-129797835D01*
X124837036Y-129785128D01*
X124805265Y-129776615D01*
X124715326Y-129739361D01*
X124686840Y-129722914D01*
X124609607Y-129663651D01*
X124586349Y-129640393D01*
X124527086Y-129563160D01*
X124510639Y-129534674D01*
X124473385Y-129444735D01*
X124464872Y-129412964D01*
X124452165Y-129316447D01*
X124452165Y-129283553D01*
X124464872Y-129187036D01*
X124473385Y-129155265D01*
X124510639Y-129065326D01*
X124527086Y-129036840D01*
X124586349Y-128959607D01*
X124609607Y-128936349D01*
X124686840Y-128877086D01*
X124715326Y-128860639D01*
X124805265Y-128823385D01*
X124837036Y-128814872D01*
X124933553Y-128802165D01*
X124966447Y-128802165D01*
X125062964Y-128814872D01*
G37*
G36*
X184512964Y-128814872D02*
G01*
X184544735Y-128823385D01*
X184634674Y-128860639D01*
X184663160Y-128877086D01*
X184740393Y-128936349D01*
X184763651Y-128959607D01*
X184822914Y-129036840D01*
X184839361Y-129065326D01*
X184876615Y-129155265D01*
X184885128Y-129187036D01*
X184897835Y-129283553D01*
X184897835Y-129316447D01*
X184885128Y-129412964D01*
X184876615Y-129444735D01*
X184839361Y-129534674D01*
X184822914Y-129563160D01*
X184763651Y-129640393D01*
X184740393Y-129663651D01*
X184663160Y-129722914D01*
X184634674Y-129739361D01*
X184544735Y-129776615D01*
X184512964Y-129785128D01*
X184416447Y-129797835D01*
X184383553Y-129797835D01*
X184287036Y-129785128D01*
X184255265Y-129776615D01*
X184165326Y-129739361D01*
X184136840Y-129722914D01*
X184059607Y-129663651D01*
X184036349Y-129640393D01*
X183977086Y-129563160D01*
X183960639Y-129534674D01*
X183923385Y-129444735D01*
X183914872Y-129412964D01*
X183902165Y-129316447D01*
X183902165Y-129283553D01*
X183914872Y-129187036D01*
X183923385Y-129155265D01*
X183960639Y-129065326D01*
X183977086Y-129036840D01*
X184036349Y-128959607D01*
X184059607Y-128936349D01*
X184136840Y-128877086D01*
X184165326Y-128860639D01*
X184255265Y-128823385D01*
X184287036Y-128814872D01*
X184383553Y-128802165D01*
X184416447Y-128802165D01*
X184512964Y-128814872D01*
G37*
M02*
